<?xml version="1.0" encoding="UTF-8" standalone="no"?>
<!DOCTYPE svg PUBLIC "-//W3C//DTD SVG 1.1//EN"
 "http://www.w3.org/Graphics/SVG/1.1/DTD/svg11.dtd">
<!-- Generated by graphviz version 2.43.0 (0)
 -->
<!-- Title: FiftyOne.IpIntelligence.Engine.OnPremise.Data.ComponentMetaData Pages: 1 -->
<svg width="224pt" height="104pt"
 viewBox="0.00 0.00 224.00 104.00" xmlns="http://www.w3.org/2000/svg" xmlns:xlink="http://www.w3.org/1999/xlink">
<g id="graph0" class="graph" transform="scale(1 1) rotate(0) translate(4 100)">
<title>FiftyOne.IpIntelligence.Engine.OnPremise.Data.ComponentMetaData</title>
<!-- Node1 -->
<g id="Node000001" class="node">
<title>Node1</title>
<g id="a_Node000001"><a xlink:title="Data class that contains meta&#45;data relating to a specific component.">
<polygon fill="#999999" stroke="#666666" points="215.5,-41 24.5,-41 24.5,0 215.5,0 215.5,-41"/>
<text text-anchor="start" x="32.5" y="-29" font-family="Helvetica,sans-Serif" font-size="10.00">FiftyOne.IpIntelligence.</text>
<text text-anchor="start" x="32.5" y="-18" font-family="Helvetica,sans-Serif" font-size="10.00">Engine.OnPremise.Data.Component</text>
<text text-anchor="middle" x="120" y="-7" font-family="Helvetica,sans-Serif" font-size="10.00">MetaData</text>
</a>
</g>
</g>
<!-- Node2 -->
<g id="Node000002" class="node">
<title>Node2</title>
<g id="a_Node000002"><a xlink:title=" ">
<polygon fill="white" stroke="#bfbfbf" points="124,-96 0,-96 0,-77 124,-77 124,-96"/>
<text text-anchor="middle" x="62" y="-84" font-family="Helvetica,sans-Serif" font-size="10.00">IComponentMetaData</text>
</a>
</g>
</g>
<!-- Node2&#45;&gt;Node1 -->
<g id="edge1_Node000001_Node000002" class="edge">
<title>Node2&#45;&gt;Node1</title>
<g id="a_edge1_Node000001_Node000002"><a xlink:title=" ">
<path fill="none" stroke="#63b8ff" d="M76.63,-69.36C84.43,-60.75 94.1,-50.08 102.32,-41.01"/>
<polygon fill="#63b8ff" stroke="#63b8ff" points="73.94,-67.11 69.82,-76.87 79.13,-71.81 73.94,-67.11"/>
</a>
</g>
</g>
<!-- Node3 -->
<g id="Node000003" class="node">
<title>Node3</title>
<g id="a_Node000003"><a xlink:title=" ">
<polygon fill="white" stroke="#bfbfbf" points="216,-96 142,-96 142,-77 216,-77 216,-96"/>
<text text-anchor="middle" x="179" y="-84" font-family="Helvetica,sans-Serif" font-size="10.00">IDisposable</text>
</a>
</g>
</g>
<!-- Node3&#45;&gt;Node1 -->
<g id="edge2_Node000001_Node000003" class="edge">
<title>Node3&#45;&gt;Node1</title>
<g id="a_edge2_Node000001_Node000003"><a xlink:title=" ">
<path fill="none" stroke="#63b8ff" d="M164.12,-69.36C156.18,-60.75 146.35,-50.08 137.98,-41.01"/>
<polygon fill="#63b8ff" stroke="#63b8ff" points="161.69,-71.89 171.04,-76.87 166.84,-67.14 161.69,-71.89"/>
</a>
</g>
</g>
</g>
</svg>
