<?xml version="1.0" encoding="UTF-8" standalone="no"?>
<!DOCTYPE svg PUBLIC "-//W3C//DTD SVG 1.1//EN"
 "http://www.w3.org/Graphics/SVG/1.1/DTD/svg11.dtd">
<!-- Generated by graphviz version 2.43.0 (0)
 -->
<!-- Title: FiftyOne.IpIntelligence.Examples.OnPremise.Metrics.Program.Key Pages: 1 -->
<svg width="254pt" height="93pt"
 viewBox="0.00 0.00 254.00 93.00" xmlns="http://www.w3.org/2000/svg" xmlns:xlink="http://www.w3.org/1999/xlink">
<g id="graph0" class="graph" transform="scale(1 1) rotate(0) translate(4 89)">
<title>FiftyOne.IpIntelligence.Examples.OnPremise.Metrics.Program.Key</title>
<!-- Node1 -->
<g id="Node000001" class="node">
<title>Node1</title>
<g id="a_Node000001"><a xlink:title="Key used for each metric.">
<polygon fill="#999999" stroke="#666666" points="233,-30 8,-30 8,0 233,0 233,-30"/>
<text text-anchor="start" x="16" y="-18" font-family="Helvetica,sans-Serif" font-size="10.00">FiftyOne.IpIntelligence.</text>
<text text-anchor="middle" x="120.5" y="-7" font-family="Helvetica,sans-Serif" font-size="10.00">Examples.OnPremise.Metrics.Program.Key</text>
</a>
</g>
</g>
<!-- Node2 -->
<g id="Node000002" class="node">
<title>Node2</title>
<g id="a_Node000002"><a xlink:title=" ">
<polygon fill="white" stroke="#bfbfbf" points="109,-85 0,-85 0,-66 109,-66 109,-85"/>
<text text-anchor="middle" x="54.5" y="-73" font-family="Helvetica,sans-Serif" font-size="10.00">IEquatable&lt; Key &gt;</text>
</a>
</g>
</g>
<!-- Node2&#45;&gt;Node1 -->
<g id="edge1_Node000001_Node000002" class="edge">
<title>Node2&#45;&gt;Node1</title>
<g id="a_edge1_Node000001_Node000002"><a xlink:title=" ">
<path fill="none" stroke="#63b8ff" d="M71.72,-59.23C81.88,-50.23 94.65,-38.91 104.58,-30.11"/>
<polygon fill="#63b8ff" stroke="#63b8ff" points="69.4,-56.62 64.24,-65.87 74.04,-61.85 69.4,-56.62"/>
</a>
</g>
</g>
<!-- Node3 -->
<g id="Node000003" class="node">
<title>Node3</title>
<g id="a_Node000003"><a xlink:title=" ">
<polygon fill="white" stroke="#bfbfbf" points="246,-85 127,-85 127,-66 246,-66 246,-85"/>
<text text-anchor="middle" x="186.5" y="-73" font-family="Helvetica,sans-Serif" font-size="10.00">IComparable&lt; Key &gt;</text>
</a>
</g>
</g>
<!-- Node3&#45;&gt;Node1 -->
<g id="edge2_Node000001_Node000003" class="edge">
<title>Node3&#45;&gt;Node1</title>
<g id="a_edge2_Node000001_Node000003"><a xlink:title=" ">
<path fill="none" stroke="#63b8ff" d="M169.28,-59.23C159.12,-50.23 146.35,-38.91 136.42,-30.11"/>
<polygon fill="#63b8ff" stroke="#63b8ff" points="166.96,-61.85 176.76,-65.87 171.6,-56.62 166.96,-61.85"/>
</a>
</g>
</g>
</g>
</svg>
