<?xml version="1.0" encoding="UTF-8" standalone="no"?>
<!DOCTYPE svg PUBLIC "-//W3C//DTD SVG 1.1//EN"
 "http://www.w3.org/Graphics/SVG/1.1/DTD/svg11.dtd">
<!-- Generated by graphviz version 2.43.0 (0)
 -->
<!-- Title: FiftyOne.IpIntelligence.Cloud.Data.CloudCountriesTranslationData Pages: 1 -->
<svg width="266pt" height="93pt"
 viewBox="0.00 0.00 266.00 93.00" xmlns="http://www.w3.org/2000/svg" xmlns:xlink="http://www.w3.org/1999/xlink">
<g id="graph0" class="graph" transform="scale(1 1) rotate(0) translate(4 89)">
<title>FiftyOne.IpIntelligence.Cloud.Data.CloudCountriesTranslationData</title>
<!-- Node1 -->
<g id="Node000001" class="node">
<title>Node1</title>
<g id="a_Node000001"><a xlink:title="Cloud counterpart of the on&#45;premise FiftyOne.IpIntelligence.Translation.Data.CountriesTranslationData...">
<polygon fill="#999999" stroke="#666666" points="229.5,-30 5.5,-30 5.5,0 229.5,0 229.5,-30"/>
<text text-anchor="start" x="13.5" y="-18" font-family="Helvetica,sans-Serif" font-size="10.00">FiftyOne.IpIntelligence.</text>
<text text-anchor="middle" x="117.5" y="-7" font-family="Helvetica,sans-Serif" font-size="10.00">Cloud.Data.CloudCountriesTranslationData</text>
</a>
</g>
</g>
<!-- Node2 -->
<g id="Node000002" class="node">
<title>Node2</title>
<g id="a_Node000002"><a xlink:title=" ">
<polygon fill="white" stroke="#bfbfbf" points="97,-85 0,-85 0,-66 97,-66 97,-85"/>
<text text-anchor="middle" x="48.5" y="-73" font-family="Helvetica,sans-Serif" font-size="10.00">AspectDataBase</text>
</a>
</g>
</g>
<!-- Node2&#45;&gt;Node1 -->
<g id="edge1_Node000001_Node000002" class="edge">
<title>Node2&#45;&gt;Node1</title>
<g id="a_edge1_Node000001_Node000002"><a xlink:title=" ">
<path fill="none" stroke="#63b8ff" d="M66.51,-59.23C77.13,-50.23 90.48,-38.91 100.85,-30.11"/>
<polygon fill="#63b8ff" stroke="#63b8ff" points="64.05,-56.73 58.68,-65.87 68.57,-62.07 64.05,-56.73"/>
</a>
</g>
</g>
<!-- Node3 -->
<g id="Node000003" class="node">
<title>Node3</title>
<g id="a_Node000003"><a xlink:title=" ">
<polygon fill="white" stroke="#bfbfbf" points="258,-85 115,-85 115,-66 258,-66 258,-85"/>
<text text-anchor="middle" x="186.5" y="-73" font-family="Helvetica,sans-Serif" font-size="10.00">ICountriesTranslationData</text>
</a>
</g>
</g>
<!-- Node3&#45;&gt;Node1 -->
<g id="edge2_Node000001_Node000003" class="edge">
<title>Node3&#45;&gt;Node1</title>
<g id="a_edge2_Node000001_Node000003"><a xlink:title=" ">
<path fill="none" stroke="#63b8ff" d="M168.49,-59.23C157.87,-50.23 144.52,-38.91 134.15,-30.11"/>
<polygon fill="#63b8ff" stroke="#63b8ff" points="166.43,-62.07 176.32,-65.87 170.95,-56.73 166.43,-62.07"/>
</a>
</g>
</g>
</g>
</svg>
