<?xml version="1.0" encoding="UTF-8" standalone="no"?>
<!DOCTYPE svg PUBLIC "-//W3C//DTD SVG 1.1//EN"
 "http://www.w3.org/Graphics/SVG/1.1/DTD/svg11.dtd">
<!-- Generated by graphviz version 2.43.0 (0)
 -->
<!-- Title: FiftyOne.IpIntelligence.Engine.OnPremise.Interop.MapStringStringSwig.MapStringStringSwigEnumerator Pages: 1 -->
<svg width="446pt" height="108pt"
 viewBox="0.00 0.00 446.00 108.00" xmlns="http://www.w3.org/2000/svg" xmlns:xlink="http://www.w3.org/1999/xlink">
<g id="graph0" class="graph" transform="scale(1 1) rotate(0) translate(4 104)">
<title>FiftyOne.IpIntelligence.Engine.OnPremise.Interop.MapStringStringSwig.MapStringStringSwigEnumerator</title>
<!-- Node1 -->
<g id="Node000001" class="node">
<title>Node1</title>
<g id="a_Node000001"><a xlink:title="Note that the IEnumerator documentation requires an InvalidOperationException to be thrown whenever t...">
<polygon fill="#999999" stroke="#666666" points="438,-81 237,-81 237,-29 438,-29 438,-81"/>
<text text-anchor="start" x="245" y="-69" font-family="Helvetica,sans-Serif" font-size="10.00">FiftyOne.IpIntelligence.</text>
<text text-anchor="start" x="245" y="-58" font-family="Helvetica,sans-Serif" font-size="10.00">Engine.OnPremise.Interop.Map</text>
<text text-anchor="start" x="245" y="-47" font-family="Helvetica,sans-Serif" font-size="10.00">StringStringSwig.MapStringStringSwig</text>
<text text-anchor="middle" x="337.5" y="-36" font-family="Helvetica,sans-Serif" font-size="10.00">Enumerator</text>
</a>
</g>
</g>
<!-- Node2 -->
<g id="Node000002" class="node">
<title>Node2</title>
<g id="a_Node000002"><a xlink:title=" ">
<polygon fill="white" stroke="#bfbfbf" points="172,-100 29,-100 29,-70 172,-70 172,-100"/>
<text text-anchor="start" x="37" y="-88" font-family="Helvetica,sans-Serif" font-size="10.00">global::SystemCollections</text>
<text text-anchor="middle" x="100.5" y="-77" font-family="Helvetica,sans-Serif" font-size="10.00">::IEnumerator</text>
</a>
</g>
</g>
<!-- Node2&#45;&gt;Node1 -->
<g id="edge1_Node000001_Node000002" class="edge">
<title>Node2&#45;&gt;Node1</title>
<g id="a_edge1_Node000001_Node000002"><a xlink:title=" ">
<path fill="none" stroke="#63b8ff" d="M182.22,-74.69C199.84,-72.45 218.69,-70.04 236.94,-67.71"/>
<polygon fill="#63b8ff" stroke="#63b8ff" points="181.48,-71.26 172.01,-76 182.37,-78.2 181.48,-71.26"/>
</a>
</g>
</g>
<!-- Node3 -->
<g id="Node000003" class="node">
<title>Node3</title>
<g id="a_Node000003"><a xlink:title=" ">
<polygon fill="white" stroke="#bfbfbf" points="201,-52 0,-52 0,0 201,0 201,-52"/>
<text text-anchor="start" x="8" y="-40" font-family="Helvetica,sans-Serif" font-size="10.00">global::SystemCollections</text>
<text text-anchor="start" x="8" y="-29" font-family="Helvetica,sans-Serif" font-size="10.00">::Generic::IEnumerator</text>
<text text-anchor="start" x="8" y="-18" font-family="Helvetica,sans-Serif" font-size="10.00">&lt; global::System.Collections.Generic.</text>
<text text-anchor="middle" x="100.5" y="-7" font-family="Helvetica,sans-Serif" font-size="10.00">KeyValuePair&lt; string, string &gt; &gt;</text>
</a>
</g>
</g>
<!-- Node3&#45;&gt;Node1 -->
<g id="edge2_Node000001_Node000003" class="edge">
<title>Node3&#45;&gt;Node1</title>
<g id="a_edge2_Node000001_Node000003"><a xlink:title=" ">
<path fill="none" stroke="#63b8ff" d="M211.13,-39.53C219.65,-40.58 228.23,-41.64 236.68,-42.68"/>
<polygon fill="#63b8ff" stroke="#63b8ff" points="211.51,-36.05 201.16,-38.3 210.66,-43 211.51,-36.05"/>
</a>
</g>
</g>
</g>
</svg>
