<?xml version="1.0" encoding="UTF-8" standalone="no"?>
<!DOCTYPE svg PUBLIC "-//W3C//DTD SVG 1.1//EN"
 "http://www.w3.org/Graphics/SVG/1.1/DTD/svg11.dtd">
<!-- Generated by graphviz version 2.43.0 (0)
 -->
<!-- Title: Graphical Class Hierarchy Pages: 1 -->
<svg width="436pt" height="216pt"
 viewBox="0.00 0.00 436.00 215.50" xmlns="http://www.w3.org/2000/svg" xmlns:xlink="http://www.w3.org/1999/xlink">
<g id="graph0" class="graph" transform="scale(1 1) rotate(0) translate(4 211.5)">
<title>Graphical Class Hierarchy</title>
<!-- Node0 -->
<g id="Node000000" class="node">
<title>Node0</title>
<g id="a_Node000000"><a xlink:title=" ">
<polygon fill="#e0e0e0" stroke="#999999" points="153,-196.5 29,-196.5 29,-177.5 153,-177.5 153,-196.5"/>
<text text-anchor="middle" x="91" y="-184.5" font-family="Helvetica,sans-Serif" font-size="10.00">IComponentMetaData</text>
</a>
</g>
</g>
<!-- Node1 -->
<g id="Node000001" class="node">
<title>Node1</title>
<g id="a_Node000001"><a xlink:href="class_fifty_one_1_1_ip_intelligence_1_1_engine_1_1_on_premise_1_1_data_1_1_component_meta_data.html" target="_top" xlink:title="Data class that contains meta&#45;data relating to a specific component.">
<polygon fill="white" stroke="#666666" points="418.5,-207.5 227.5,-207.5 227.5,-166.5 418.5,-166.5 418.5,-207.5"/>
<text text-anchor="start" x="235.5" y="-195.5" font-family="Helvetica,sans-Serif" font-size="10.00">FiftyOne.IpIntelligence.</text>
<text text-anchor="start" x="235.5" y="-184.5" font-family="Helvetica,sans-Serif" font-size="10.00">Engine.OnPremise.Data.Component</text>
<text text-anchor="middle" x="323" y="-173.5" font-family="Helvetica,sans-Serif" font-size="10.00">MetaData</text>
</a>
</g>
</g>
<!-- Node0&#45;&gt;Node1 -->
<g id="edge45_Node000000_Node000001" class="edge">
<title>Node0&#45;&gt;Node1</title>
<g id="a_edge45_Node000000_Node000001"><a xlink:title=" ">
<path fill="none" stroke="#63b8ff" d="M163.11,-187C183.39,-187 205.82,-187 227.27,-187"/>
<polygon fill="#63b8ff" stroke="#63b8ff" points="163.03,-183.5 153.03,-187 163.03,-190.5 163.03,-183.5"/>
</a>
</g>
</g>
<!-- Node2 -->
<g id="Node000002" class="node">
<title>Node2</title>
<g id="a_Node000002"><a xlink:title=" ">
<polygon fill="#e0e0e0" stroke="#999999" points="128,-107.5 54,-107.5 54,-88.5 128,-88.5 128,-107.5"/>
<text text-anchor="middle" x="91" y="-95.5" font-family="Helvetica,sans-Serif" font-size="10.00">IDisposable</text>
</a>
</g>
</g>
<!-- Node2&#45;&gt;Node1 -->
<g id="edge46_Node000002_Node000001" class="edge">
<title>Node2&#45;&gt;Node1</title>
<g id="a_edge46_Node000002_Node000001"><a xlink:title=" ">
<path fill="none" stroke="#63b8ff" d="M138.07,-101.93C152.84,-104.67 168.78,-109.27 182,-117 202.93,-129.24 197.47,-145.1 218,-158 223,-161.14 228.34,-163.95 233.87,-166.46"/>
<polygon fill="#63b8ff" stroke="#63b8ff" points="138.51,-98.46 128.08,-100.32 137.4,-105.37 138.51,-98.46"/>
</a>
</g>
</g>
<!-- Node3 -->
<g id="Node000003" class="node">
<title>Node3</title>
<g id="a_Node000003"><a xlink:href="class_fifty_one_1_1_ip_intelligence_1_1_engine_1_1_on_premise_1_1_data_1_1_profile_meta_data.html" target="_top" xlink:title="Data class that contains meta&#45;data relating to a specific profile.">
<polygon fill="white" stroke="#666666" points="406,-148.5 240,-148.5 240,-107.5 406,-107.5 406,-148.5"/>
<text text-anchor="start" x="248" y="-136.5" font-family="Helvetica,sans-Serif" font-size="10.00">FiftyOne.IpIntelligence.</text>
<text text-anchor="start" x="248" y="-125.5" font-family="Helvetica,sans-Serif" font-size="10.00">Engine.OnPremise.Data.Profile</text>
<text text-anchor="middle" x="323" y="-114.5" font-family="Helvetica,sans-Serif" font-size="10.00">MetaData</text>
</a>
</g>
</g>
<!-- Node2&#45;&gt;Node3 -->
<g id="edge47_Node000002_Node000003" class="edge">
<title>Node2&#45;&gt;Node3</title>
<g id="a_edge47_Node000002_Node000003"><a xlink:title=" ">
<path fill="none" stroke="#63b8ff" d="M138.45,-104.06C167.5,-107.85 205.74,-112.84 239.79,-117.28"/>
<polygon fill="#63b8ff" stroke="#63b8ff" points="138.56,-100.54 128.19,-102.72 137.65,-107.48 138.56,-100.54"/>
</a>
</g>
</g>
<!-- Node5 -->
<g id="Node000005" class="node">
<title>Node5</title>
<g id="a_Node000005"><a xlink:href="class_fifty_one_1_1_ip_intelligence_1_1_engine_1_1_on_premise_1_1_data_1_1_property_meta_data_ipi.html" target="_top" xlink:title="Data class that contains meta&#45;data relating to a specific property.">
<polygon fill="white" stroke="#666666" points="411,-89.5 235,-89.5 235,-48.5 411,-48.5 411,-89.5"/>
<text text-anchor="start" x="243" y="-77.5" font-family="Helvetica,sans-Serif" font-size="10.00">FiftyOne.IpIntelligence.</text>
<text text-anchor="start" x="243" y="-66.5" font-family="Helvetica,sans-Serif" font-size="10.00">Engine.OnPremise.Data.Property</text>
<text text-anchor="middle" x="323" y="-55.5" font-family="Helvetica,sans-Serif" font-size="10.00">MetaDataIpi</text>
</a>
</g>
</g>
<!-- Node2&#45;&gt;Node5 -->
<g id="edge48_Node000002_Node000005" class="edge">
<title>Node2&#45;&gt;Node5</title>
<g id="a_edge48_Node000002_Node000005"><a xlink:title=" ">
<path fill="none" stroke="#63b8ff" d="M138.36,-92.15C166.04,-88.66 202.09,-84.12 234.9,-79.98"/>
<polygon fill="#63b8ff" stroke="#63b8ff" points="137.67,-88.71 128.19,-93.44 138.55,-95.66 137.67,-88.71"/>
</a>
</g>
</g>
<!-- Node7 -->
<g id="Node000007" class="node">
<title>Node7</title>
<g id="a_Node000007"><a xlink:href="class_fifty_one_1_1_ip_intelligence_1_1_engine_1_1_on_premise_1_1_data_1_1_value_meta_data.html" target="_top" xlink:title="Data class that contains meta&#45;data relating to a specific value.">
<polygon fill="white" stroke="#666666" points="428,-30 218,-30 218,0 428,0 428,-30"/>
<text text-anchor="start" x="226" y="-18" font-family="Helvetica,sans-Serif" font-size="10.00">FiftyOne.IpIntelligence.</text>
<text text-anchor="middle" x="323" y="-7" font-family="Helvetica,sans-Serif" font-size="10.00">Engine.OnPremise.Data.ValueMetaData</text>
</a>
</g>
</g>
<!-- Node2&#45;&gt;Node7 -->
<g id="edge49_Node000002_Node000007" class="edge">
<title>Node2&#45;&gt;Node7</title>
<g id="a_edge49_Node000002_Node000007"><a xlink:title=" ">
<path fill="none" stroke="#63b8ff" d="M138.06,-94.65C152.83,-92.08 168.77,-87.64 182,-80 203,-67.87 197.18,-51.44 218,-39 223.81,-35.53 230.07,-32.56 236.55,-30.03"/>
<polygon fill="#63b8ff" stroke="#63b8ff" points="137.44,-91.21 128.07,-96.15 138.48,-98.13 137.44,-91.21"/>
</a>
</g>
</g>
<!-- Node6 -->
<g id="Node000006" class="node">
<title>Node6</title>
<g id="a_Node000006"><a xlink:title=" ">
<polygon fill="#e0e0e0" stroke="#999999" points="182,-70.5 0,-70.5 0,-51.5 182,-51.5 182,-70.5"/>
<text text-anchor="middle" x="91" y="-58.5" font-family="Helvetica,sans-Serif" font-size="10.00">IFiftyOneAspectPropertyMetaData</text>
</a>
</g>
</g>
<!-- Node6&#45;&gt;Node5 -->
<g id="edge50_Node000006_Node000005" class="edge">
<title>Node6&#45;&gt;Node5</title>
<g id="a_edge50_Node000006_Node000005"><a xlink:title=" ">
<path fill="none" stroke="#63b8ff" d="M192.42,-64.49C206.49,-64.98 220.85,-65.48 234.65,-65.96"/>
<polygon fill="#63b8ff" stroke="#63b8ff" points="192.36,-60.99 182.24,-64.14 192.11,-67.98 192.36,-60.99"/>
</a>
</g>
</g>
<!-- Node4 -->
<g id="Node000004" class="node">
<title>Node4</title>
<g id="a_Node000004"><a xlink:title=" ">
<polygon fill="#e0e0e0" stroke="#999999" points="140,-144.5 42,-144.5 42,-125.5 140,-125.5 140,-144.5"/>
<text text-anchor="middle" x="91" y="-132.5" font-family="Helvetica,sans-Serif" font-size="10.00">IProfileMetaData</text>
</a>
</g>
</g>
<!-- Node4&#45;&gt;Node3 -->
<g id="edge51_Node000004_Node000003" class="edge">
<title>Node4&#45;&gt;Node3</title>
<g id="a_edge51_Node000004_Node000003"><a xlink:title=" ">
<path fill="none" stroke="#63b8ff" d="M150.33,-133.22C177.49,-132.4 210.27,-131.4 239.88,-130.5"/>
<polygon fill="#63b8ff" stroke="#63b8ff" points="150.1,-129.73 140.22,-133.53 150.32,-136.73 150.1,-129.73"/>
</a>
</g>
</g>
<!-- Node8 -->
<g id="Node000008" class="node">
<title>Node8</title>
<g id="a_Node000008"><a xlink:title=" ">
<polygon fill="#e0e0e0" stroke="#999999" points="138.5,-24.5 43.5,-24.5 43.5,-5.5 138.5,-5.5 138.5,-24.5"/>
<text text-anchor="middle" x="91" y="-12.5" font-family="Helvetica,sans-Serif" font-size="10.00">IValueMetaData</text>
</a>
</g>
</g>
<!-- Node8&#45;&gt;Node7 -->
<g id="edge52_Node000008_Node000007" class="edge">
<title>Node8&#45;&gt;Node7</title>
<g id="a_edge52_Node000008_Node000007"><a xlink:title=" ">
<path fill="none" stroke="#63b8ff" d="M148.78,-15C169.61,-15 193.89,-15 217.57,-15"/>
<polygon fill="#63b8ff" stroke="#63b8ff" points="148.54,-11.5 138.54,-15 148.54,-18.5 148.54,-11.5"/>
</a>
</g>
</g>
</g>
</svg>
