<?xml version="1.0" encoding="UTF-8" standalone="no"?>
<!DOCTYPE svg PUBLIC "-//W3C//DTD SVG 1.1//EN"
 "http://www.w3.org/Graphics/SVG/1.1/DTD/svg11.dtd">
<!-- Generated by graphviz version 2.43.0 (0)
 -->
<!-- Title: Graphical Class Hierarchy Pages: 1 -->
<svg width="372pt" height="98pt"
 viewBox="0.00 0.00 372.00 97.50" xmlns="http://www.w3.org/2000/svg" xmlns:xlink="http://www.w3.org/1999/xlink">
<g id="graph0" class="graph" transform="scale(1 1) rotate(0) translate(4 93.5)">
<title>Graphical Class Hierarchy</title>
<!-- Node0 -->
<g id="Node000000" class="node">
<title>Node0</title>
<g id="a_Node000000"><a xlink:title=" ">
<polygon fill="#e0e0e0" stroke="#999999" points="134,-51.5 0,-51.5 0,-32.5 134,-32.5 134,-51.5"/>
<text text-anchor="middle" x="67" y="-39.5" font-family="Helvetica,sans-Serif" font-size="10.00">CloudAspectEngineBase</text>
</a>
</g>
</g>
<!-- Node1 -->
<g id="Node000001" class="node">
<title>Node1</title>
<g id="a_Node000001"><a xlink:href="class_fifty_one_1_1_ip_intelligence_1_1_cloud_1_1_flow_elements_1_1_cloud_countries_translation_engine.html" target="_top" xlink:title="Cloud counterpart of the on&#45;premise FiftyOne.IpIntelligence.Translation.FlowElements....">
<polygon fill="white" stroke="#666666" points="364,-89.5 170,-89.5 170,-48.5 364,-48.5 364,-89.5"/>
<text text-anchor="start" x="178" y="-77.5" font-family="Helvetica,sans-Serif" font-size="10.00">FiftyOne.IpIntelligence.</text>
<text text-anchor="start" x="178" y="-66.5" font-family="Helvetica,sans-Serif" font-size="10.00">Cloud.FlowElements.CloudCountries</text>
<text text-anchor="middle" x="267" y="-55.5" font-family="Helvetica,sans-Serif" font-size="10.00">TranslationEngine</text>
</a>
</g>
</g>
<!-- Node0&#45;&gt;Node1 -->
<g id="edge7_Node000000_Node000001" class="edge">
<title>Node0&#45;&gt;Node1</title>
<g id="a_edge7_Node000000_Node000001"><a xlink:title=" ">
<path fill="none" stroke="#63b8ff" d="M144.3,-52.4C152.68,-53.55 161.29,-54.72 169.87,-55.89"/>
<polygon fill="#63b8ff" stroke="#63b8ff" points="144.59,-48.91 134.21,-51.03 143.64,-55.85 144.59,-48.91"/>
</a>
</g>
</g>
<!-- Node2 -->
<g id="Node000002" class="node">
<title>Node2</title>
<g id="a_Node000002"><a xlink:href="class_fifty_one_1_1_ip_intelligence_1_1_cloud_1_1_flow_elements_1_1_ipi_cloud_engine.html" target="_top" xlink:title="Engine that takes the JSON response from the CloudRequestEngine and uses it populate a IpDataCloud in...">
<polygon fill="white" stroke="#666666" points="363,-30 171,-30 171,0 363,0 363,-30"/>
<text text-anchor="start" x="179" y="-18" font-family="Helvetica,sans-Serif" font-size="10.00">FiftyOne.IpIntelligence.</text>
<text text-anchor="middle" x="267" y="-7" font-family="Helvetica,sans-Serif" font-size="10.00">Cloud.FlowElements.IpiCloudEngine</text>
</a>
</g>
</g>
<!-- Node0&#45;&gt;Node2 -->
<g id="edge8_Node000000_Node000002" class="edge">
<title>Node0&#45;&gt;Node2</title>
<g id="a_edge8_Node000000_Node000002"><a xlink:title=" ">
<path fill="none" stroke="#63b8ff" d="M144.32,-31.59C153.04,-30.4 162.01,-29.18 170.94,-27.96"/>
<polygon fill="#63b8ff" stroke="#63b8ff" points="143.64,-28.15 134.21,-32.97 144.59,-35.09 143.64,-28.15"/>
</a>
</g>
</g>
</g>
</svg>
