<?xml version="1.0" encoding="UTF-8" standalone="no"?>
<!DOCTYPE svg PUBLIC "-//W3C//DTD SVG 1.1//EN"
 "http://www.w3.org/Graphics/SVG/1.1/DTD/svg11.dtd">
<!-- Generated by graphviz version 2.43.0 (0)
 -->
<!-- Title: Graphical Class Hierarchy Pages: 1 -->
<svg width="393pt" height="521pt"
 viewBox="0.00 0.00 393.00 521.00" xmlns="http://www.w3.org/2000/svg" xmlns:xlink="http://www.w3.org/1999/xlink">
<g id="graph0" class="graph" transform="scale(1 1) rotate(0) translate(4 517)">
<title>Graphical Class Hierarchy</title>
<!-- Node0 -->
<g id="Node000000" class="node">
<title>Node0</title>
<g id="a_Node000000"><a xlink:href="class_fifty_one_1_1_ip_intelligence_1_1_examples_1_1_example_base.html" target="_top" xlink:title=" ">
<polygon fill="white" stroke="#666666" points="134,-271.5 0,-271.5 0,-241.5 134,-241.5 134,-271.5"/>
<text text-anchor="start" x="8" y="-259.5" font-family="Helvetica,sans-Serif" font-size="10.00">FiftyOne.IpIntelligence.</text>
<text text-anchor="middle" x="67" y="-248.5" font-family="Helvetica,sans-Serif" font-size="10.00">Examples.ExampleBase</text>
</a>
</g>
</g>
<!-- Node1 -->
<g id="Node000001" class="node">
<title>Node1</title>
<g id="a_Node000001"><a xlink:href="class_fifty_one_1_1_ip_intelligence_1_1_examples_1_1_cloud_1_1_metadata_1_1_program_1_1_example.html" target="_top" xlink:title=" ">
<polygon fill="white" stroke="#666666" points="373.5,-513 181.5,-513 181.5,-472 373.5,-472 373.5,-513"/>
<text text-anchor="start" x="189.5" y="-501" font-family="Helvetica,sans-Serif" font-size="10.00">FiftyOne.IpIntelligence.</text>
<text text-anchor="start" x="189.5" y="-490" font-family="Helvetica,sans-Serif" font-size="10.00">Examples.Cloud.Metadata.Program.</text>
<text text-anchor="middle" x="277.5" y="-479" font-family="Helvetica,sans-Serif" font-size="10.00">Example</text>
</a>
</g>
</g>
<!-- Node0&#45;&gt;Node1 -->
<g id="edge15_Node000000_Node000001" class="edge">
<title>Node0&#45;&gt;Node1</title>
<g id="a_edge15_Node000000_Node000001"><a xlink:title=" ">
<path fill="none" stroke="#63b8ff" d="M73.23,-281.45C83.71,-325.1 111.45,-415.24 170,-463.5 173.77,-466.61 177.85,-469.38 182.13,-471.87"/>
<polygon fill="#63b8ff" stroke="#63b8ff" points="76.63,-280.62 70.99,-271.65 69.81,-282.18 76.63,-280.62"/>
</a>
</g>
</g>
<!-- Node2 -->
<g id="Node000002" class="node">
<title>Node2</title>
<g id="a_Node000002"><a xlink:href="class_fifty_one_1_1_ip_intelligence_1_1_examples_1_1_on_premise_1_1_compare_1_1_program_1_1_example.html" target="_top" xlink:title="Implementation of the example that can be called from the Program&#39;s main method or any other consumin...">
<polygon fill="white" stroke="#666666" points="385,-454 170,-454 170,-413 385,-413 385,-454"/>
<text text-anchor="start" x="178" y="-442" font-family="Helvetica,sans-Serif" font-size="10.00">FiftyOne.IpIntelligence.</text>
<text text-anchor="start" x="178" y="-431" font-family="Helvetica,sans-Serif" font-size="10.00">Examples.OnPremise.Compare.Program.</text>
<text text-anchor="middle" x="277.5" y="-420" font-family="Helvetica,sans-Serif" font-size="10.00">Example</text>
</a>
</g>
</g>
<!-- Node0&#45;&gt;Node2 -->
<g id="edge16_Node000000_Node000002" class="edge">
<title>Node0&#45;&gt;Node2</title>
<g id="a_edge16_Node000000_Node000002"><a xlink:title=" ">
<path fill="none" stroke="#63b8ff" d="M78.34,-281.12C93.53,-314.22 125.01,-372.61 170,-404.5 174.46,-407.66 179.24,-410.47 184.22,-412.98"/>
<polygon fill="#63b8ff" stroke="#63b8ff" points="81.42,-279.42 74.16,-271.71 75.03,-282.27 81.42,-279.42"/>
</a>
</g>
</g>
<!-- Node3 -->
<g id="Node000003" class="node">
<title>Node3</title>
<g id="a_Node000003"><a xlink:href="class_fifty_one_1_1_ip_intelligence_1_1_examples_1_1_on_premise_1_1_getting_started_console_1_1_program_1_1_example.html" target="_top" xlink:title=" ">
<polygon fill="white" stroke="#666666" points="375,-395 180,-395 180,-354 375,-354 375,-395"/>
<text text-anchor="start" x="188" y="-383" font-family="Helvetica,sans-Serif" font-size="10.00">FiftyOne.IpIntelligence.</text>
<text text-anchor="start" x="188" y="-372" font-family="Helvetica,sans-Serif" font-size="10.00">Examples.OnPremise.GettingStarted</text>
<text text-anchor="middle" x="277.5" y="-361" font-family="Helvetica,sans-Serif" font-size="10.00">Console.Program.Example</text>
</a>
</g>
</g>
<!-- Node0&#45;&gt;Node3 -->
<g id="edge17_Node000000_Node000003" class="edge">
<title>Node0&#45;&gt;Node3</title>
<g id="a_edge17_Node000000_Node000003"><a xlink:title=" ">
<path fill="none" stroke="#63b8ff" d="M88.3,-279.3C107.47,-299.49 137.99,-328.36 170,-345.5 175.83,-348.62 182.02,-351.43 188.37,-353.95"/>
<polygon fill="#63b8ff" stroke="#63b8ff" points="90.66,-276.7 81.28,-271.76 85.53,-281.47 90.66,-276.7"/>
</a>
</g>
</g>
<!-- Node4 -->
<g id="Node000004" class="node">
<title>Node4</title>
<g id="a_Node000004"><a xlink:href="class_fifty_one_1_1_ip_intelligence_1_1_examples_1_1_on_premise_1_1_metadata_1_1_program_1_1_example.html" target="_top" xlink:title=" ">
<polygon fill="white" stroke="#666666" points="364,-336 191,-336 191,-295 364,-295 364,-336"/>
<text text-anchor="start" x="199" y="-324" font-family="Helvetica,sans-Serif" font-size="10.00">FiftyOne.IpIntelligence.</text>
<text text-anchor="start" x="199" y="-313" font-family="Helvetica,sans-Serif" font-size="10.00">Examples.OnPremise.Metadata.</text>
<text text-anchor="middle" x="277.5" y="-302" font-family="Helvetica,sans-Serif" font-size="10.00">Program.Example</text>
</a>
</g>
</g>
<!-- Node0&#45;&gt;Node4 -->
<g id="edge18_Node000000_Node000004" class="edge">
<title>Node0&#45;&gt;Node4</title>
<g id="a_edge18_Node000000_Node000004"><a xlink:title=" ">
<path fill="none" stroke="#63b8ff" d="M128.11,-274.4C141.86,-278.43 156.42,-282.66 170,-286.5 179.77,-289.27 190.06,-292.13 200.24,-294.93"/>
<polygon fill="#63b8ff" stroke="#63b8ff" points="128.85,-270.97 118.27,-271.5 126.87,-277.68 128.85,-270.97"/>
</a>
</g>
</g>
<!-- Node5 -->
<g id="Node000005" class="node">
<title>Node5</title>
<g id="a_Node000005"><a xlink:href="class_fifty_one_1_1_ip_intelligence_1_1_examples_1_1_on_premise_1_1_metrics_1_1_program_1_1_example.html" target="_top" xlink:title=" ">
<polygon fill="white" stroke="#666666" points="381,-277 174,-277 174,-236 381,-236 381,-277"/>
<text text-anchor="start" x="182" y="-265" font-family="Helvetica,sans-Serif" font-size="10.00">FiftyOne.IpIntelligence.</text>
<text text-anchor="start" x="182" y="-254" font-family="Helvetica,sans-Serif" font-size="10.00">Examples.OnPremise.Metrics.Program.</text>
<text text-anchor="middle" x="277.5" y="-243" font-family="Helvetica,sans-Serif" font-size="10.00">Example</text>
</a>
</g>
</g>
<!-- Node0&#45;&gt;Node5 -->
<g id="edge19_Node000000_Node000005" class="edge">
<title>Node0&#45;&gt;Node5</title>
<g id="a_edge19_Node000000_Node000005"><a xlink:title=" ">
<path fill="none" stroke="#63b8ff" d="M144.5,-256.5C154.07,-256.5 163.98,-256.5 173.87,-256.5"/>
<polygon fill="#63b8ff" stroke="#63b8ff" points="144.26,-253 134.26,-256.5 144.26,-260 144.26,-253"/>
</a>
</g>
</g>
<!-- Node6 -->
<g id="Node000006" class="node">
<title>Node6</title>
<g id="a_Node000006"><a xlink:href="class_fifty_one_1_1_ip_intelligence_1_1_examples_1_1_on_premise_1_1_offline_processing_1_1_program_1_1_example.html" target="_top" xlink:title=" ">
<polygon fill="white" stroke="#666666" points="383.5,-218 171.5,-218 171.5,-177 383.5,-177 383.5,-218"/>
<text text-anchor="start" x="179.5" y="-206" font-family="Helvetica,sans-Serif" font-size="10.00">FiftyOne.IpIntelligence.</text>
<text text-anchor="start" x="179.5" y="-195" font-family="Helvetica,sans-Serif" font-size="10.00">Examples.OnPremise.OfflineProcessing.</text>
<text text-anchor="middle" x="277.5" y="-184" font-family="Helvetica,sans-Serif" font-size="10.00">Program.Example</text>
</a>
</g>
</g>
<!-- Node0&#45;&gt;Node6 -->
<g id="edge20_Node000000_Node000006" class="edge">
<title>Node0&#45;&gt;Node6</title>
<g id="a_edge20_Node000000_Node000006"><a xlink:title=" ">
<path fill="none" stroke="#63b8ff" d="M130.5,-238.7C143.55,-235 157.22,-231.12 170,-227.5 180.81,-224.44 192.25,-221.21 203.45,-218.05"/>
<polygon fill="#63b8ff" stroke="#63b8ff" points="129.33,-235.4 120.67,-241.5 131.25,-242.13 129.33,-235.4"/>
</a>
</g>
</g>
<!-- Node7 -->
<g id="Node000007" class="node">
<title>Node7</title>
<g id="a_Node000007"><a xlink:href="class_fifty_one_1_1_ip_intelligence_1_1_examples_1_1_on_premise_1_1_performance_1_1_program_1_1_example.html" target="_top" xlink:title=" ">
<polygon fill="white" stroke="#666666" points="372,-159 183,-159 183,-118 372,-118 372,-159"/>
<text text-anchor="start" x="191" y="-147" font-family="Helvetica,sans-Serif" font-size="10.00">FiftyOne.IpIntelligence.</text>
<text text-anchor="start" x="191" y="-136" font-family="Helvetica,sans-Serif" font-size="10.00">Examples.OnPremise.Performance.</text>
<text text-anchor="middle" x="277.5" y="-125" font-family="Helvetica,sans-Serif" font-size="10.00">Program.Example</text>
</a>
</g>
</g>
<!-- Node0&#45;&gt;Node7 -->
<g id="edge21_Node000000_Node000007" class="edge">
<title>Node0&#45;&gt;Node7</title>
<g id="a_edge21_Node000000_Node000007"><a xlink:title=" ">
<path fill="none" stroke="#63b8ff" d="M88.38,-234.03C107.61,-214.12 138.17,-185.61 170,-168.5 176.51,-165 183.48,-161.87 190.61,-159.09"/>
<polygon fill="#63b8ff" stroke="#63b8ff" points="85.68,-231.8 81.35,-241.47 90.76,-236.61 85.68,-231.8"/>
</a>
</g>
</g>
<!-- Node8 -->
<g id="Node000008" class="node">
<title>Node8</title>
<g id="a_Node000008"><a xlink:href="class_fifty_one_1_1_ip_intelligence_1_1_examples_1_1_on_premise_1_1_suspicious_1_1_program_1_1_example.html" target="_top" xlink:title=" ">
<polygon fill="white" stroke="#666666" points="367,-100 188,-100 188,-59 367,-59 367,-100"/>
<text text-anchor="start" x="196" y="-88" font-family="Helvetica,sans-Serif" font-size="10.00">FiftyOne.IpIntelligence.</text>
<text text-anchor="start" x="196" y="-77" font-family="Helvetica,sans-Serif" font-size="10.00">Examples.OnPremise.Suspicious.</text>
<text text-anchor="middle" x="277.5" y="-66" font-family="Helvetica,sans-Serif" font-size="10.00">Program.Example</text>
</a>
</g>
</g>
<!-- Node0&#45;&gt;Node8 -->
<g id="edge22_Node000000_Node000008" class="edge">
<title>Node0&#45;&gt;Node8</title>
<g id="a_edge22_Node000000_Node000008"><a xlink:title=" ">
<path fill="none" stroke="#63b8ff" d="M78.43,-232.11C93.71,-199.29 125.3,-141.37 170,-109.5 175.55,-105.54 181.61,-102.1 187.93,-99.12"/>
<polygon fill="#63b8ff" stroke="#63b8ff" points="75.14,-230.87 74.21,-241.43 81.52,-233.76 75.14,-230.87"/>
</a>
</g>
</g>
<!-- Node9 -->
<g id="Node000009" class="node">
<title>Node9</title>
<g id="a_Node000009"><a xlink:href="class_fifty_one_1_1_ip_intelligence_1_1_examples_1_1_on_premise_1_1_update_data_file_1_1_program_1_1_example.html" target="_top" xlink:title=" ">
<polygon fill="white" stroke="#666666" points="368.5,-41 186.5,-41 186.5,0 368.5,0 368.5,-41"/>
<text text-anchor="start" x="194.5" y="-29" font-family="Helvetica,sans-Serif" font-size="10.00">FiftyOne.IpIntelligence.</text>
<text text-anchor="start" x="194.5" y="-18" font-family="Helvetica,sans-Serif" font-size="10.00">Examples.OnPremise.UpdateData</text>
<text text-anchor="middle" x="277.5" y="-7" font-family="Helvetica,sans-Serif" font-size="10.00">File.Program.Example</text>
</a>
</g>
</g>
<!-- Node0&#45;&gt;Node9 -->
<g id="edge23_Node000000_Node000009" class="edge">
<title>Node0&#45;&gt;Node9</title>
<g id="a_edge23_Node000000_Node000009"><a xlink:title=" ">
<path fill="none" stroke="#63b8ff" d="M73.38,-231.44C84.03,-187.98 111.97,-98.67 170,-50.5 175.03,-46.33 180.59,-42.74 186.47,-39.64"/>
<polygon fill="#63b8ff" stroke="#63b8ff" points="69.91,-230.92 71.04,-241.45 76.72,-232.51 69.91,-230.92"/>
</a>
</g>
</g>
</g>
</svg>
