<?xml version="1.0" encoding="UTF-8" standalone="no"?>
<!DOCTYPE svg PUBLIC "-//W3C//DTD SVG 1.1//EN"
 "http://www.w3.org/Graphics/SVG/1.1/DTD/svg11.dtd">
<!-- Generated by graphviz version 2.43.0 (0)
 -->
<!-- Title: Graphical Class Hierarchy Pages: 1 -->
<svg width="434pt" height="508pt"
 viewBox="0.00 0.00 434.00 508.00" xmlns="http://www.w3.org/2000/svg" xmlns:xlink="http://www.w3.org/1999/xlink">
<g id="graph0" class="graph" transform="scale(1 1) rotate(0) translate(4 504)">
<title>Graphical Class Hierarchy</title>
<!-- Node0 -->
<g id="Node000000" class="node">
<title>Node0</title>
<g id="a_Node000000"><a xlink:title=" ">
<polygon fill="#e0e0e0" stroke="#999999" points="143,-295 0,-295 0,-265 143,-265 143,-295"/>
<text text-anchor="start" x="8" y="-283" font-family="Helvetica,sans-Serif" font-size="10.00">global.SystemCollections.</text>
<text text-anchor="middle" x="71.5" y="-272" font-family="Helvetica,sans-Serif" font-size="10.00">Generic.IEnumerator</text>
</a>
</g>
</g>
<!-- Node1 -->
<g id="Node000001" class="node">
<title>Node1</title>
<g id="a_Node000001"><a xlink:href="class_fifty_one_1_1_ip_intelligence_1_1_engine_1_1_on_premise_1_1_interop_1_1_u_t_f8_string_swig93f4cce6d61ca5f20ae6abf29399e8e6.html" target="_top" xlink:title="Note that the IEnumerator documentation requires an InvalidOperationException to be thrown whenever t...">
<polygon fill="white" stroke="#666666" points="405.5,-359.5 199.5,-359.5 199.5,-318.5 405.5,-318.5 405.5,-359.5"/>
<text text-anchor="start" x="207.5" y="-347.5" font-family="Helvetica,sans-Serif" font-size="10.00">FiftyOne.IpIntelligence.</text>
<text text-anchor="start" x="207.5" y="-336.5" font-family="Helvetica,sans-Serif" font-size="10.00">Engine.OnPremise.Interop.UTF8</text>
<text text-anchor="middle" x="302.5" y="-325.5" font-family="Helvetica,sans-Serif" font-size="10.00">StringSwig.UTF8StringSwigEnumerator</text>
</a>
</g>
</g>
<!-- Node0&#45;&gt;Node1 -->
<g id="edge25_Node000000_Node000001" class="edge">
<title>Node0&#45;&gt;Node1</title>
<g id="a_edge25_Node000000_Node000001"><a xlink:title=" ">
<path fill="none" stroke="#63b8ff" d="M134.1,-297.83C148.78,-301.94 164.42,-306.22 179,-310 189.9,-312.82 201.37,-315.68 212.74,-318.45"/>
<polygon fill="#63b8ff" stroke="#63b8ff" points="134.69,-294.36 124.11,-295.01 132.79,-301.09 134.69,-294.36"/>
</a>
</g>
</g>
<!-- Node5 -->
<g id="Node000005" class="node">
<title>Node5</title>
<g id="a_Node000005"><a xlink:href="class_fifty_one_1_1_ip_intelligence_1_1_engine_1_1_on_premise_1_1_interop_1_1_vector_string_swig452eeae6ddefab7107be9b48b95f3874.html" target="_top" xlink:title="Note that the IEnumerator documentation requires an InvalidOperationException to be thrown whenever t...">
<polygon fill="white" stroke="#666666" points="408,-300.5 197,-300.5 197,-259.5 408,-259.5 408,-300.5"/>
<text text-anchor="start" x="205" y="-288.5" font-family="Helvetica,sans-Serif" font-size="10.00">FiftyOne.IpIntelligence.</text>
<text text-anchor="start" x="205" y="-277.5" font-family="Helvetica,sans-Serif" font-size="10.00">Engine.OnPremise.Interop.Vector</text>
<text text-anchor="middle" x="302.5" y="-266.5" font-family="Helvetica,sans-Serif" font-size="10.00">StringSwig.VectorStringSwigEnumerator</text>
</a>
</g>
</g>
<!-- Node0&#45;&gt;Node5 -->
<g id="edge26_Node000000_Node000005" class="edge">
<title>Node0&#45;&gt;Node5</title>
<g id="a_edge26_Node000000_Node000005"><a xlink:title=" ">
<path fill="none" stroke="#63b8ff" d="M153.17,-280C167.23,-280 182.04,-280 196.64,-280"/>
<polygon fill="#63b8ff" stroke="#63b8ff" points="153.08,-276.5 143.08,-280 153.08,-283.5 153.08,-276.5"/>
</a>
</g>
</g>
<!-- Node6 -->
<g id="Node000006" class="node">
<title>Node6</title>
<g id="a_Node000006"><a xlink:href="class_fifty_one_1_1_ip_intelligence_1_1_engine_1_1_on_premise_1_1_interop_1_1_weighted_bool_list687255ffcae427f162c49217e79891d5.html" target="_top" xlink:title="Note that the IEnumerator documentation requires an InvalidOperationException to be thrown whenever t...">
<polygon fill="white" stroke="#666666" points="426,-241.5 179,-241.5 179,-200.5 426,-200.5 426,-241.5"/>
<text text-anchor="start" x="187" y="-229.5" font-family="Helvetica,sans-Serif" font-size="10.00">FiftyOne.IpIntelligence.</text>
<text text-anchor="start" x="187" y="-218.5" font-family="Helvetica,sans-Serif" font-size="10.00">Engine.OnPremise.Interop.Weighted</text>
<text text-anchor="middle" x="302.5" y="-207.5" font-family="Helvetica,sans-Serif" font-size="10.00">BoolListSwig.WeightedBoolListSwigEnumerator</text>
</a>
</g>
</g>
<!-- Node0&#45;&gt;Node6 -->
<g id="edge27_Node000000_Node000006" class="edge">
<title>Node0&#45;&gt;Node6</title>
<g id="a_edge27_Node000000_Node000006"><a xlink:title=" ">
<path fill="none" stroke="#63b8ff" d="M136.61,-262.26C150.57,-258.47 165.27,-254.55 179,-251 191.08,-247.88 203.86,-244.66 216.42,-241.54"/>
<polygon fill="#63b8ff" stroke="#63b8ff" points="135.34,-258.98 126.61,-264.98 137.18,-265.73 135.34,-258.98"/>
</a>
</g>
</g>
<!-- Node7 -->
<g id="Node000007" class="node">
<title>Node7</title>
<g id="a_Node000007"><a xlink:href="class_fifty_one_1_1_ip_intelligence_1_1_engine_1_1_on_premise_1_1_interop_1_1_weighted_double_li036fcb7432588bb1d64a85c15fd2bc88.html" target="_top" xlink:title="Note that the IEnumerator documentation requires an InvalidOperationException to be thrown whenever t...">
<polygon fill="white" stroke="#666666" points="410,-182 195,-182 195,-130 410,-130 410,-182"/>
<text text-anchor="start" x="203" y="-170" font-family="Helvetica,sans-Serif" font-size="10.00">FiftyOne.IpIntelligence.</text>
<text text-anchor="start" x="203" y="-159" font-family="Helvetica,sans-Serif" font-size="10.00">Engine.OnPremise.Interop.Weighted</text>
<text text-anchor="start" x="203" y="-148" font-family="Helvetica,sans-Serif" font-size="10.00">DoubleListSwig.WeightedDoubleListSwig</text>
<text text-anchor="middle" x="302.5" y="-137" font-family="Helvetica,sans-Serif" font-size="10.00">Enumerator</text>
</a>
</g>
</g>
<!-- Node0&#45;&gt;Node7 -->
<g id="edge28_Node000000_Node000007" class="edge">
<title>Node0&#45;&gt;Node7</title>
<g id="a_edge28_Node000000_Node000007"><a xlink:title=" ">
<path fill="none" stroke="#63b8ff" d="M128.25,-260.23C133.51,-257.23 138.54,-253.83 143,-250 166.03,-230.25 154.86,-210.37 179,-192 183.94,-188.24 189.26,-184.87 194.83,-181.86"/>
<polygon fill="#63b8ff" stroke="#63b8ff" points="126.5,-257.2 119.24,-264.93 129.73,-263.41 126.5,-257.2"/>
</a>
</g>
</g>
<!-- Node8 -->
<g id="Node000008" class="node">
<title>Node8</title>
<g id="a_Node000008"><a xlink:href="class_fifty_one_1_1_ip_intelligence_1_1_engine_1_1_on_premise_1_1_interop_1_1_weighted_int_list_9c276fa810f30b06c3cdc1b93ea2afab.html" target="_top" xlink:title="Note that the IEnumerator documentation requires an InvalidOperationException to be thrown whenever t...">
<polygon fill="white" stroke="#666666" points="417,-111.5 188,-111.5 188,-70.5 417,-70.5 417,-111.5"/>
<text text-anchor="start" x="196" y="-99.5" font-family="Helvetica,sans-Serif" font-size="10.00">FiftyOne.IpIntelligence.</text>
<text text-anchor="start" x="196" y="-88.5" font-family="Helvetica,sans-Serif" font-size="10.00">Engine.OnPremise.Interop.Weighted</text>
<text text-anchor="middle" x="302.5" y="-77.5" font-family="Helvetica,sans-Serif" font-size="10.00">IntListSwig.WeightedIntListSwigEnumerator</text>
</a>
</g>
</g>
<!-- Node0&#45;&gt;Node8 -->
<g id="edge29_Node000000_Node000008" class="edge">
<title>Node0&#45;&gt;Node8</title>
<g id="a_edge29_Node000000_Node000008"><a xlink:title=" ">
<path fill="none" stroke="#63b8ff" d="M132.14,-259.64C136.13,-256.82 139.82,-253.62 143,-250 182.26,-205.26 136.24,-162.41 179,-121 182.62,-117.5 186.57,-114.38 190.78,-111.61"/>
<polygon fill="#63b8ff" stroke="#63b8ff" points="130.26,-256.69 123.58,-264.91 133.93,-262.64 130.26,-256.69"/>
</a>
</g>
</g>
<!-- Node9 -->
<g id="Node000009" class="node">
<title>Node9</title>
<g id="a_Node000009"><a xlink:href="class_fifty_one_1_1_ip_intelligence_1_1_engine_1_1_on_premise_1_1_interop_1_1_weighted_string_liad3b5e00a7cb58314813a24440d0c1f5.html" target="_top" xlink:title="Note that the IEnumerator documentation requires an InvalidOperationException to be thrown whenever t...">
<polygon fill="white" stroke="#666666" points="404,-500 201,-500 201,-448 404,-448 404,-500"/>
<text text-anchor="start" x="209" y="-488" font-family="Helvetica,sans-Serif" font-size="10.00">FiftyOne.IpIntelligence.</text>
<text text-anchor="start" x="209" y="-477" font-family="Helvetica,sans-Serif" font-size="10.00">Engine.OnPremise.Interop.Weighted</text>
<text text-anchor="start" x="209" y="-466" font-family="Helvetica,sans-Serif" font-size="10.00">StringListSwig.WeightedStringListSwig</text>
<text text-anchor="middle" x="302.5" y="-455" font-family="Helvetica,sans-Serif" font-size="10.00">Enumerator</text>
</a>
</g>
</g>
<!-- Node0&#45;&gt;Node9 -->
<g id="edge30_Node000000_Node000009" class="edge">
<title>Node0&#45;&gt;Node9</title>
<g id="a_edge30_Node000000_Node000009"><a xlink:title=" ">
<path fill="none" stroke="#63b8ff" d="M82.48,-304.82C97.9,-339.99 130.85,-403.93 179,-439 185.7,-443.88 193.07,-448.09 200.77,-451.7"/>
<polygon fill="#63b8ff" stroke="#63b8ff" points="85.57,-303.13 78.43,-295.3 79.13,-305.88 85.57,-303.13"/>
</a>
</g>
</g>
<!-- Node10 -->
<g id="Node000010" class="node">
<title>Node10</title>
<g id="a_Node000010"><a xlink:href="class_fifty_one_1_1_ip_intelligence_1_1_engine_1_1_on_premise_1_1_interop_1_1_weighted_u_t_f8_st865f5c639ab4fc06fc409320805505c2.html" target="_top" xlink:title="Note that the IEnumerator documentation requires an InvalidOperationException to be thrown whenever t...">
<polygon fill="white" stroke="#666666" points="409.5,-430 195.5,-430 195.5,-378 409.5,-378 409.5,-430"/>
<text text-anchor="start" x="203.5" y="-418" font-family="Helvetica,sans-Serif" font-size="10.00">FiftyOne.IpIntelligence.</text>
<text text-anchor="start" x="203.5" y="-407" font-family="Helvetica,sans-Serif" font-size="10.00">Engine.OnPremise.Interop.Weighted</text>
<text text-anchor="start" x="203.5" y="-396" font-family="Helvetica,sans-Serif" font-size="10.00">UTF8StringListSwig.WeightedUTF8String</text>
<text text-anchor="middle" x="302.5" y="-385" font-family="Helvetica,sans-Serif" font-size="10.00">ListSwigEnumerator</text>
</a>
</g>
</g>
<!-- Node0&#45;&gt;Node10 -->
<g id="edge31_Node000000_Node000010" class="edge">
<title>Node0&#45;&gt;Node10</title>
<g id="a_edge31_Node000000_Node000010"><a xlink:title=" ">
<path fill="none" stroke="#63b8ff" d="M93.67,-302.4C113.84,-322.51 145.96,-351.49 179,-369 185.16,-372.26 191.65,-375.25 198.31,-377.98"/>
<polygon fill="#63b8ff" stroke="#63b8ff" points="96.06,-299.83 86.55,-295.16 91.07,-304.74 96.06,-299.83"/>
</a>
</g>
</g>
<!-- Node4 -->
<g id="Node000004" class="node">
<title>Node4</title>
<g id="a_Node000004"><a xlink:title=" ">
<polygon fill="#e0e0e0" stroke="#999999" points="143,-41 0,-41 0,-11 143,-11 143,-41"/>
<text text-anchor="start" x="8" y="-29" font-family="Helvetica,sans-Serif" font-size="10.00">global.SystemCollections.</text>
<text text-anchor="middle" x="71.5" y="-18" font-family="Helvetica,sans-Serif" font-size="10.00">Generic.IEnumerator</text>
</a>
</g>
</g>
<!-- Node3 -->
<g id="Node000003" class="node">
<title>Node3</title>
<g id="a_Node000003"><a xlink:href="class_fifty_one_1_1_ip_intelligence_1_1_engine_1_1_on_premise_1_1_interop_1_1_map_string_string_afc829270b0fda0cf022c534f8fd28ee.html" target="_top" xlink:title="Note that the IEnumerator documentation requires an InvalidOperationException to be thrown whenever t...">
<polygon fill="white" stroke="#666666" points="403,-52 202,-52 202,0 403,0 403,-52"/>
<text text-anchor="start" x="210" y="-40" font-family="Helvetica,sans-Serif" font-size="10.00">FiftyOne.IpIntelligence.</text>
<text text-anchor="start" x="210" y="-29" font-family="Helvetica,sans-Serif" font-size="10.00">Engine.OnPremise.Interop.Map</text>
<text text-anchor="start" x="210" y="-18" font-family="Helvetica,sans-Serif" font-size="10.00">StringStringSwig.MapStringStringSwig</text>
<text text-anchor="middle" x="302.5" y="-7" font-family="Helvetica,sans-Serif" font-size="10.00">Enumerator</text>
</a>
</g>
</g>
<!-- Node4&#45;&gt;Node3 -->
<g id="edge32_Node000004_Node000003" class="edge">
<title>Node4&#45;&gt;Node3</title>
<g id="a_edge32_Node000004_Node000003"><a xlink:title=" ">
<path fill="none" stroke="#63b8ff" d="M153.23,-26C168.9,-26 185.49,-26 201.69,-26"/>
<polygon fill="#63b8ff" stroke="#63b8ff" points="153.08,-22.5 143.08,-26 153.08,-29.5 153.08,-22.5"/>
</a>
</g>
</g>
<!-- Node2 -->
<g id="Node000002" class="node">
<title>Node2</title>
<g id="a_Node000002"><a xlink:title=" ">
<polygon fill="#e0e0e0" stroke="#999999" points="143,-241 0,-241 0,-211 143,-211 143,-241"/>
<text text-anchor="start" x="8" y="-229" font-family="Helvetica,sans-Serif" font-size="10.00">global.SystemCollections.</text>
<text text-anchor="middle" x="71.5" y="-218" font-family="Helvetica,sans-Serif" font-size="10.00">IEnumerator</text>
</a>
</g>
</g>
<!-- Node2&#45;&gt;Node1 -->
<g id="edge34_Node000002_Node000001" class="edge">
<title>Node2&#45;&gt;Node1</title>
<g id="a_edge34_Node000002_Node000001"><a xlink:title=" ">
<path fill="none" stroke="#63b8ff" d="M127.9,-245.79C133.26,-248.8 138.41,-252.19 143,-256 165.2,-274.42 155.32,-293.53 179,-310 185.28,-314.37 192.13,-318.08 199.28,-321.24"/>
<polygon fill="#63b8ff" stroke="#63b8ff" points="129.22,-242.53 118.72,-241.08 126.02,-248.76 129.22,-242.53"/>
</a>
</g>
</g>
<!-- Node2&#45;&gt;Node5 -->
<g id="edge35_Node000002_Node000005" class="edge">
<title>Node2&#45;&gt;Node5</title>
<g id="a_edge35_Node000002_Node000005"><a xlink:title=" ">
<path fill="none" stroke="#63b8ff" d="M146.13,-243.36C167.91,-248.5 191.97,-254.17 214.52,-259.49"/>
<polygon fill="#63b8ff" stroke="#63b8ff" points="146.83,-239.93 136.29,-241.04 145.22,-246.74 146.83,-239.93"/>
</a>
</g>
</g>
<!-- Node2&#45;&gt;Node6 -->
<g id="edge36_Node000002_Node000006" class="edge">
<title>Node2&#45;&gt;Node6</title>
<g id="a_edge36_Node000002_Node000006"><a xlink:title=" ">
<path fill="none" stroke="#63b8ff" d="M153.15,-224.24C161.53,-224.06 170.17,-223.87 178.88,-223.68"/>
<polygon fill="#63b8ff" stroke="#63b8ff" points="153,-220.74 143.08,-224.46 153.15,-227.74 153,-220.74"/>
</a>
</g>
</g>
<!-- Node2&#45;&gt;Node7 -->
<g id="edge37_Node000002_Node000007" class="edge">
<title>Node2&#45;&gt;Node7</title>
<g id="a_edge37_Node000002_Node000007"><a xlink:title=" ">
<path fill="none" stroke="#63b8ff" d="M128.69,-207.79C144.9,-202.61 162.63,-197.02 179,-192 189.7,-188.72 200.95,-185.33 212.11,-182.01"/>
<polygon fill="#63b8ff" stroke="#63b8ff" points="127.28,-204.57 118.82,-210.95 129.41,-211.24 127.28,-204.57"/>
</a>
</g>
</g>
<!-- Node2&#45;&gt;Node8 -->
<g id="edge38_Node000002_Node000008" class="edge">
<title>Node2&#45;&gt;Node8</title>
<g id="a_edge38_Node000002_Node000008"><a xlink:title=" ">
<path fill="none" stroke="#63b8ff" d="M89.58,-202.97C108.69,-178.88 141.89,-141.72 179,-121 185.31,-117.48 192.03,-114.36 198.94,-111.61"/>
<polygon fill="#63b8ff" stroke="#63b8ff" points="86.79,-200.86 83.42,-210.91 92.32,-205.15 86.79,-200.86"/>
</a>
</g>
</g>
<!-- Node2&#45;&gt;Node9 -->
<g id="edge39_Node000002_Node000009" class="edge">
<title>Node2&#45;&gt;Node9</title>
<g id="a_edge39_Node000002_Node000009"><a xlink:title=" ">
<path fill="none" stroke="#63b8ff" d="M133.14,-246.6C136.79,-249.36 140.14,-252.48 143,-256 195.21,-320.38 122.9,-377.98 179,-439 185.29,-445.84 192.81,-451.38 200.99,-455.85"/>
<polygon fill="#63b8ff" stroke="#63b8ff" points="135,-243.64 124.71,-241.12 131.19,-249.51 135,-243.64"/>
</a>
</g>
</g>
<!-- Node2&#45;&gt;Node10 -->
<g id="edge40_Node000002_Node000010" class="edge">
<title>Node2&#45;&gt;Node10</title>
<g id="a_edge40_Node000002_Node000010"><a xlink:title=" ">
<path fill="none" stroke="#63b8ff" d="M131.8,-246.35C135.9,-249.18 139.7,-252.38 143,-256 178.48,-294.98 141.17,-332.29 179,-369 183.92,-373.77 189.45,-377.91 195.36,-381.48"/>
<polygon fill="#63b8ff" stroke="#63b8ff" points="133.4,-243.24 123.03,-241.07 129.79,-249.23 133.4,-243.24"/>
</a>
</g>
</g>
<!-- Node2&#45;&gt;Node3 -->
<g id="edge33_Node000002_Node000003" class="edge">
<title>Node2&#45;&gt;Node3</title>
<g id="a_edge33_Node000002_Node000003"><a xlink:title=" ">
<path fill="none" stroke="#63b8ff" d="M81.81,-201.27C96.72,-165.01 129.43,-97.75 179,-61 186.02,-55.8 193.79,-51.37 201.91,-47.59"/>
<polygon fill="#63b8ff" stroke="#63b8ff" points="78.53,-200.04 78.07,-210.62 85.03,-202.63 78.53,-200.04"/>
</a>
</g>
</g>
</g>
</svg>
