<?xml version="1.0" encoding="UTF-8" standalone="no"?>
<!DOCTYPE svg PUBLIC "-//W3C//DTD SVG 1.1//EN"
 "http://www.w3.org/Graphics/SVG/1.1/DTD/svg11.dtd">
<!-- Generated by graphviz version 2.43.0 (0)
 -->
<!-- Title: Graphical Class Hierarchy Pages: 1 -->
<svg width="318pt" height="226pt"
 viewBox="0.00 0.00 318.00 226.00" xmlns="http://www.w3.org/2000/svg" xmlns:xlink="http://www.w3.org/1999/xlink">
<g id="graph0" class="graph" transform="scale(1 1) rotate(0) translate(4 222)">
<title>Graphical Class Hierarchy</title>
<!-- Node0 -->
<g id="Node000000" class="node">
<title>Node0</title>
<g id="a_Node000000"><a xlink:title=" ">
<polygon fill="#e0e0e0" stroke="#999999" points="65,-118 0,-118 0,-99 65,-99 65,-118"/>
<text text-anchor="middle" x="32.5" y="-106" font-family="Helvetica,sans-Serif" font-size="10.00">Controller</text>
</a>
</g>
</g>
<!-- Node1 -->
<g id="Node000001" class="node">
<title>Node1</title>
<g id="a_Node000001"><a xlink:href="class_fifty_one_1_1_ip_intelligence_1_1_examples_1_1_cloud_1_1_getting_started_web_1_1_controllers_1_1_home_controller.html" target="_top" xlink:title=" ">
<polygon fill="white" stroke="#666666" points="292.5,-218 118.5,-218 118.5,-177 292.5,-177 292.5,-218"/>
<text text-anchor="start" x="126.5" y="-206" font-family="Helvetica,sans-Serif" font-size="10.00">FiftyOne.IpIntelligence.</text>
<text text-anchor="start" x="126.5" y="-195" font-family="Helvetica,sans-Serif" font-size="10.00">Examples.Cloud.GettingStarted</text>
<text text-anchor="middle" x="205.5" y="-184" font-family="Helvetica,sans-Serif" font-size="10.00">Web.Controllers.HomeController</text>
</a>
</g>
</g>
<!-- Node0&#45;&gt;Node1 -->
<g id="edge11_Node000000_Node000001" class="edge">
<title>Node0&#45;&gt;Node1</title>
<g id="a_edge11_Node000000_Node000001"><a xlink:title=" ">
<path fill="none" stroke="#63b8ff" d="M48.68,-125.75C61.41,-139.21 80.72,-157.42 101,-168.5 106.73,-171.63 112.83,-174.45 119.09,-176.98"/>
<polygon fill="#63b8ff" stroke="#63b8ff" points="51,-123.09 41.66,-118.09 45.84,-127.83 51,-123.09"/>
</a>
</g>
</g>
<!-- Node2 -->
<g id="Node000002" class="node">
<title>Node2</title>
<g id="a_Node000002"><a xlink:href="class_fifty_one_1_1_ip_intelligence_1_1_examples_1_1_mixed_1_1_cloud_1_1_getting_started_web_1_1c37a66a2903772610d83596387461ea0.html" target="_top" xlink:title=" ">
<polygon fill="white" stroke="#666666" points="310,-159 101,-159 101,-118 310,-118 310,-159"/>
<text text-anchor="start" x="109" y="-147" font-family="Helvetica,sans-Serif" font-size="10.00">FiftyOne.IpIntelligence.</text>
<text text-anchor="start" x="109" y="-136" font-family="Helvetica,sans-Serif" font-size="10.00">Examples.Mixed.Cloud.Getting</text>
<text text-anchor="middle" x="205.5" y="-125" font-family="Helvetica,sans-Serif" font-size="10.00">StartedWeb.Controllers.HomeController</text>
</a>
</g>
</g>
<!-- Node0&#45;&gt;Node2 -->
<g id="edge12_Node000000_Node000002" class="edge">
<title>Node0&#45;&gt;Node2</title>
<g id="a_edge12_Node000000_Node000002"><a xlink:title=" ">
<path fill="none" stroke="#63b8ff" d="M75.26,-115.83C83.2,-117.22 91.82,-118.73 100.72,-120.29"/>
<polygon fill="#63b8ff" stroke="#63b8ff" points="75.72,-112.35 65.26,-114.07 74.51,-119.25 75.72,-112.35"/>
</a>
</g>
</g>
<!-- Node3 -->
<g id="Node000003" class="node">
<title>Node3</title>
<g id="a_Node000003"><a xlink:href="class_fifty_one_1_1_ip_intelligence_1_1_examples_1_1_mixed_1_1_on_premise_1_1_getting_started_we21acfbfc9755c92c9d2d705366905912.html" target="_top" xlink:title=" ">
<polygon fill="white" stroke="#666666" points="310,-100 101,-100 101,-59 310,-59 310,-100"/>
<text text-anchor="start" x="109" y="-88" font-family="Helvetica,sans-Serif" font-size="10.00">FiftyOne.IpIntelligence.</text>
<text text-anchor="start" x="109" y="-77" font-family="Helvetica,sans-Serif" font-size="10.00">Examples.Mixed.OnPremise.Getting</text>
<text text-anchor="middle" x="205.5" y="-66" font-family="Helvetica,sans-Serif" font-size="10.00">StartedWeb.Controllers.HomeController</text>
</a>
</g>
</g>
<!-- Node0&#45;&gt;Node3 -->
<g id="edge13_Node000000_Node000003" class="edge">
<title>Node0&#45;&gt;Node3</title>
<g id="a_edge13_Node000000_Node000003"><a xlink:title=" ">
<path fill="none" stroke="#63b8ff" d="M75.26,-101.42C83.2,-100.07 91.82,-98.61 100.72,-97.1"/>
<polygon fill="#63b8ff" stroke="#63b8ff" points="74.54,-97.99 65.26,-103.11 75.71,-104.89 74.54,-97.99"/>
</a>
</g>
</g>
<!-- Node4 -->
<g id="Node000004" class="node">
<title>Node4</title>
<g id="a_Node000004"><a xlink:href="class_fifty_one_1_1_ip_intelligence_1_1_examples_1_1_on_premise_1_1_getting_started_web_1_1_controllers_1_1_home_controller.html" target="_top" xlink:title=" ">
<polygon fill="white" stroke="#666666" points="303,-41 108,-41 108,0 303,0 303,-41"/>
<text text-anchor="start" x="116" y="-29" font-family="Helvetica,sans-Serif" font-size="10.00">FiftyOne.IpIntelligence.</text>
<text text-anchor="start" x="116" y="-18" font-family="Helvetica,sans-Serif" font-size="10.00">Examples.OnPremise.GettingStarted</text>
<text text-anchor="middle" x="205.5" y="-7" font-family="Helvetica,sans-Serif" font-size="10.00">Web.Controllers.HomeController</text>
</a>
</g>
</g>
<!-- Node0&#45;&gt;Node4 -->
<g id="edge14_Node000000_Node000004" class="edge">
<title>Node0&#45;&gt;Node4</title>
<g id="a_edge14_Node000000_Node000004"><a xlink:title=" ">
<path fill="none" stroke="#63b8ff" d="M49.25,-91.46C62.06,-78.53 81.19,-61.22 101,-50.5 107.5,-46.98 114.46,-43.84 121.58,-41.03"/>
<polygon fill="#63b8ff" stroke="#63b8ff" points="46.56,-89.21 42.15,-98.84 51.61,-94.06 46.56,-89.21"/>
</a>
</g>
</g>
</g>
</svg>
