<?xml version="1.0" encoding="UTF-8" standalone="no"?>
<!DOCTYPE svg PUBLIC "-//W3C//DTD SVG 1.1//EN"
 "http://www.w3.org/Graphics/SVG/1.1/DTD/svg11.dtd">
<!-- Generated by graphviz version 2.43.0 (0)
 -->
<!-- Title: FiftyOne.Pipeline.JavaScriptBuilder.FlowElement.JavaScriptBuilderElement Pages: 1 -->
<svg width="211pt" height="324pt"
 viewBox="0.00 0.00 211.00 324.00" xmlns="http://www.w3.org/2000/svg" xmlns:xlink="http://www.w3.org/1999/xlink">
<g id="graph0" class="graph" transform="scale(1 1) rotate(0) translate(4 320)">
<title>FiftyOne.Pipeline.JavaScriptBuilder.FlowElement.JavaScriptBuilderElement</title>
<!-- Node1 -->
<g id="Node000001" class="node">
<title>Node1</title>
<g id="a_Node000001"><a xlink:title="JavaScript Builder Element generates a JavaScript include to be run on the client device.">
<polygon fill="#999999" stroke="#666666" points="203,-41 0,-41 0,0 203,0 203,-41"/>
<text text-anchor="start" x="8" y="-29" font-family="Helvetica,sans-Serif" font-size="10.00">FiftyOne.Pipeline.JavaScript</text>
<text text-anchor="start" x="8" y="-18" font-family="Helvetica,sans-Serif" font-size="10.00">Builder.FlowElement.JavaScriptBuilder</text>
<text text-anchor="middle" x="101.5" y="-7" font-family="Helvetica,sans-Serif" font-size="10.00">Element</text>
</a>
</g>
</g>
<!-- Node2 -->
<g id="Node000002" class="node">
<title>Node2</title>
<g id="a_Node000002"><a xlink:href="class_fifty_one_1_1_pipeline_1_1_core_1_1_flow_elements_1_1_flow_element_base-2-g.html" target="_top" xlink:title="Abstract base class for Flow Elements.">
<polygon fill="white" stroke="#666666" points="178,-118 25,-118 25,-77 178,-77 178,-118"/>
<text text-anchor="start" x="33" y="-106" font-family="Helvetica,sans-Serif" font-size="10.00">FiftyOne.Pipeline.Core.Flow</text>
<text text-anchor="start" x="33" y="-95" font-family="Helvetica,sans-Serif" font-size="10.00">Elements.FlowElementBase</text>
<text text-anchor="middle" x="101.5" y="-84" font-family="Helvetica,sans-Serif" font-size="10.00">&lt; T, TMeta &gt;</text>
</a>
</g>
</g>
<!-- Node2&#45;&gt;Node1 -->
<g id="edge1_Node000001_Node000002" class="edge">
<title>Node2&#45;&gt;Node1</title>
<g id="a_edge1_Node000001_Node000002"><a xlink:title=" ">
<path fill="none" stroke="#63b8ff" d="M101.5,-66.69C101.5,-58.08 101.5,-48.9 101.5,-41.07"/>
<polygon fill="#63b8ff" stroke="#63b8ff" points="98,-66.79 101.5,-76.79 105,-66.79 98,-66.79"/>
</a>
</g>
</g>
<!-- Node3 -->
<g id="Node000003" class="node">
<title>Node3</title>
<g id="a_Node000003"><a xlink:href="interface_fifty_one_1_1_pipeline_1_1_core_1_1_flow_elements_1_1_i_flow_element-2-g.html" target="_top" xlink:title="Generic interface that extends IFlowElement with the ability to return a ITypedKey&lt;T&gt; that will allow...">
<polygon fill="white" stroke="#666666" points="177.5,-195 25.5,-195 25.5,-154 177.5,-154 177.5,-195"/>
<text text-anchor="start" x="33.5" y="-183" font-family="Helvetica,sans-Serif" font-size="10.00">FiftyOne.Pipeline.Core.Flow</text>
<text text-anchor="start" x="33.5" y="-172" font-family="Helvetica,sans-Serif" font-size="10.00">Elements.IFlowElement&lt; T,</text>
<text text-anchor="middle" x="101.5" y="-161" font-family="Helvetica,sans-Serif" font-size="10.00"> TMeta &gt;</text>
</a>
</g>
</g>
<!-- Node3&#45;&gt;Node2 -->
<g id="edge2_Node000002_Node000003" class="edge">
<title>Node3&#45;&gt;Node2</title>
<g id="a_edge2_Node000002_Node000003"><a xlink:title=" ">
<path fill="none" stroke="#63b8ff" d="M101.5,-143.69C101.5,-135.08 101.5,-125.9 101.5,-118.07"/>
<polygon fill="#63b8ff" stroke="#63b8ff" points="98,-143.79 101.5,-153.79 105,-143.79 98,-143.79"/>
</a>
</g>
</g>
<!-- Node4 -->
<g id="Node000004" class="node">
<title>Node4</title>
<g id="a_Node000004"><a xlink:href="interface_fifty_one_1_1_pipeline_1_1_core_1_1_flow_elements_1_1_i_flow_element.html" target="_top" xlink:title="IFlowElement is the basic building block of a pipeline.">
<polygon fill="white" stroke="#666666" points="177,-261 26,-261 26,-231 177,-231 177,-261"/>
<text text-anchor="start" x="34" y="-249" font-family="Helvetica,sans-Serif" font-size="10.00">FiftyOne.Pipeline.Core.Flow</text>
<text text-anchor="middle" x="101.5" y="-238" font-family="Helvetica,sans-Serif" font-size="10.00">Elements.IFlowElement</text>
</a>
</g>
</g>
<!-- Node4&#45;&gt;Node3 -->
<g id="edge3_Node000003_Node000004" class="edge">
<title>Node4&#45;&gt;Node3</title>
<g id="a_edge3_Node000003_Node000004"><a xlink:title=" ">
<path fill="none" stroke="#63b8ff" d="M101.5,-220.91C101.5,-212.47 101.5,-203.1 101.5,-195.07"/>
<polygon fill="#63b8ff" stroke="#63b8ff" points="98,-220.94 101.5,-230.94 105,-220.94 98,-220.94"/>
</a>
</g>
</g>
<!-- Node5 -->
<g id="Node000005" class="node">
<title>Node5</title>
<g id="a_Node000005"><a xlink:title=" ">
<polygon fill="white" stroke="#bfbfbf" points="138.5,-316 64.5,-316 64.5,-297 138.5,-297 138.5,-316"/>
<text text-anchor="middle" x="101.5" y="-304" font-family="Helvetica,sans-Serif" font-size="10.00">IDisposable</text>
</a>
</g>
</g>
<!-- Node5&#45;&gt;Node4 -->
<g id="edge4_Node000004_Node000005" class="edge">
<title>Node5&#45;&gt;Node4</title>
<g id="a_edge4_Node000004_Node000005"><a xlink:title=" ">
<path fill="none" stroke="#63b8ff" d="M101.5,-286.65C101.5,-278.36 101.5,-268.78 101.5,-261.11"/>
<polygon fill="#63b8ff" stroke="#63b8ff" points="98,-286.87 101.5,-296.87 105,-286.87 98,-286.87"/>
</a>
</g>
</g>
</g>
</svg>
