<?xml version="1.0" encoding="UTF-8" standalone="no"?>
<!DOCTYPE svg PUBLIC "-//W3C//DTD SVG 1.1//EN"
 "http://www.w3.org/Graphics/SVG/1.1/DTD/svg11.dtd">
<!-- Generated by graphviz version 2.43.0 (0)
 -->
<!-- Title: FiftyOne.Pipeline.Translation.FlowElements.TranslationEngine Pages: 1 -->
<svg width="1120pt" height="93pt"
 viewBox="0.00 0.00 1120.00 92.50" xmlns="http://www.w3.org/2000/svg" xmlns:xlink="http://www.w3.org/1999/xlink">
<g id="graph0" class="graph" transform="scale(1 1) rotate(0) translate(4 88.5)">
<title>FiftyOne.Pipeline.Translation.FlowElements.TranslationEngine</title>
<!-- Node1 -->
<g id="Node000001" class="node">
<title>Node1</title>
<g id="a_Node000001"><a xlink:title=" ">
<polygon fill="#999999" stroke="#666666" points="1112,-54 937,-54 937,-24 1112,-24 1112,-54"/>
<text text-anchor="start" x="945" y="-42" font-family="Helvetica,sans-Serif" font-size="10.00">FiftyOne.Pipeline.Translation.</text>
<text text-anchor="middle" x="1024.5" y="-31" font-family="Helvetica,sans-Serif" font-size="10.00">FlowElements.TranslationEngine</text>
</a>
</g>
</g>
<!-- Node2 -->
<g id="Node000002" class="node">
<title>Node2</title>
<g id="a_Node000002"><a xlink:href="class_fifty_one_1_1_pipeline_1_1_translation_1_1_flow_elements_1_1_translation_engine_base-1-g.html" target="_top" xlink:title="Flow element that translates values from a single source element and stores translated values under i...">
<polygon fill="white" stroke="#666666" points="901,-78 674,-78 674,-48 901,-48 901,-78"/>
<text text-anchor="start" x="682" y="-66" font-family="Helvetica,sans-Serif" font-size="10.00">FiftyOne.Pipeline.Translation.</text>
<text text-anchor="middle" x="787.5" y="-55" font-family="Helvetica,sans-Serif" font-size="10.00">FlowElements.TranslationEngineBase&lt; T &gt;</text>
</a>
</g>
</g>
<!-- Node2&#45;&gt;Node1 -->
<g id="edge1_Node000001_Node000002" class="edge">
<title>Node2&#45;&gt;Node1</title>
<g id="a_edge1_Node000001_Node000002"><a xlink:title=" ">
<path fill="none" stroke="#63b8ff" d="M911.32,-50.46C919.96,-49.57 928.55,-48.7 936.93,-47.84"/>
<polygon fill="#63b8ff" stroke="#63b8ff" points="910.77,-46.99 901.18,-51.49 911.49,-53.96 910.77,-46.99"/>
</a>
</g>
</g>
<!-- Node3 -->
<g id="Node000003" class="node">
<title>Node3</title>
<g id="a_Node000003"><a xlink:href="class_fifty_one_1_1_pipeline_1_1_core_1_1_flow_elements_1_1_flow_element_base-2-g.html" target="_top" xlink:title="Abstract base class for Flow Elements.">
<polygon fill="white" stroke="#666666" points="638,-84.5 485,-84.5 485,-43.5 638,-43.5 638,-84.5"/>
<text text-anchor="start" x="493" y="-72.5" font-family="Helvetica,sans-Serif" font-size="10.00">FiftyOne.Pipeline.Core.Flow</text>
<text text-anchor="start" x="493" y="-61.5" font-family="Helvetica,sans-Serif" font-size="10.00">Elements.FlowElementBase</text>
<text text-anchor="middle" x="561.5" y="-50.5" font-family="Helvetica,sans-Serif" font-size="10.00">&lt; T, TMeta &gt;</text>
</a>
</g>
</g>
<!-- Node3&#45;&gt;Node2 -->
<g id="edge2_Node000002_Node000003" class="edge">
<title>Node3&#45;&gt;Node2</title>
<g id="a_edge2_Node000002_Node000003"><a xlink:title=" ">
<path fill="none" stroke="#63b8ff" d="M648.18,-63.62C656.6,-63.58 665.23,-63.54 673.87,-63.5"/>
<polygon fill="#63b8ff" stroke="#63b8ff" points="648.01,-60.12 638.02,-63.66 648.04,-67.12 648.01,-60.12"/>
</a>
</g>
</g>
<!-- Node4 -->
<g id="Node000004" class="node">
<title>Node4</title>
<g id="a_Node000004"><a xlink:href="interface_fifty_one_1_1_pipeline_1_1_core_1_1_flow_elements_1_1_i_flow_element-2-g.html" target="_top" xlink:title="Generic interface that extends IFlowElement with the ability to return a ITypedKey&lt;T&gt; that will allow...">
<polygon fill="white" stroke="#666666" points="449,-59.5 297,-59.5 297,-18.5 449,-18.5 449,-59.5"/>
<text text-anchor="start" x="305" y="-47.5" font-family="Helvetica,sans-Serif" font-size="10.00">FiftyOne.Pipeline.Core.Flow</text>
<text text-anchor="start" x="305" y="-36.5" font-family="Helvetica,sans-Serif" font-size="10.00">Elements.IFlowElement&lt; T,</text>
<text text-anchor="middle" x="373" y="-25.5" font-family="Helvetica,sans-Serif" font-size="10.00"> TMeta &gt;</text>
</a>
</g>
</g>
<!-- Node4&#45;&gt;Node3 -->
<g id="edge3_Node000003_Node000004" class="edge">
<title>Node4&#45;&gt;Node3</title>
<g id="a_edge3_Node000003_Node000004"><a xlink:title=" ">
<path fill="none" stroke="#63b8ff" d="M459.12,-50.41C467.75,-51.57 476.48,-52.74 485,-53.88"/>
<polygon fill="#63b8ff" stroke="#63b8ff" points="459.43,-46.92 449.05,-49.06 458.5,-53.86 459.43,-46.92"/>
</a>
</g>
</g>
<!-- Node7 -->
<g id="Node000007" class="node">
<title>Node7</title>
<g id="a_Node000007"><a xlink:href="interface_fifty_one_1_1_pipeline_1_1_translation_1_1_flow_elements_1_1_i_translation_engine.html" target="_top" xlink:title="Flow element that translates values from a single source element and stores translated values under i...">
<polygon fill="white" stroke="#666666" points="876.5,-30 698.5,-30 698.5,0 876.5,0 876.5,-30"/>
<text text-anchor="start" x="706.5" y="-18" font-family="Helvetica,sans-Serif" font-size="10.00">FiftyOne.Pipeline.Translation.</text>
<text text-anchor="middle" x="787.5" y="-7" font-family="Helvetica,sans-Serif" font-size="10.00">FlowElements.ITranslationEngine</text>
</a>
</g>
</g>
<!-- Node4&#45;&gt;Node7 -->
<g id="edge7_Node000007_Node000004" class="edge">
<title>Node4&#45;&gt;Node7</title>
<g id="a_edge7_Node000007_Node000004"><a xlink:title=" ">
<path fill="none" stroke="#63b8ff" d="M459.27,-34.04C529.11,-29.98 627.58,-24.25 698.23,-20.14"/>
<polygon fill="#63b8ff" stroke="#63b8ff" points="458.96,-30.55 449.18,-34.63 459.37,-37.54 458.96,-30.55"/>
</a>
</g>
</g>
<!-- Node5 -->
<g id="Node000005" class="node">
<title>Node5</title>
<g id="a_Node000005"><a xlink:href="interface_fifty_one_1_1_pipeline_1_1_core_1_1_flow_elements_1_1_i_flow_element.html" target="_top" xlink:title="IFlowElement is the basic building block of a pipeline.">
<polygon fill="white" stroke="#666666" points="261,-54 110,-54 110,-24 261,-24 261,-54"/>
<text text-anchor="start" x="118" y="-42" font-family="Helvetica,sans-Serif" font-size="10.00">FiftyOne.Pipeline.Core.Flow</text>
<text text-anchor="middle" x="185.5" y="-31" font-family="Helvetica,sans-Serif" font-size="10.00">Elements.IFlowElement</text>
</a>
</g>
</g>
<!-- Node5&#45;&gt;Node4 -->
<g id="edge4_Node000004_Node000005" class="edge">
<title>Node5&#45;&gt;Node4</title>
<g id="a_edge4_Node000004_Node000005"><a xlink:title=" ">
<path fill="none" stroke="#63b8ff" d="M271.16,-39C279.75,-39 288.43,-39 296.9,-39"/>
<polygon fill="#63b8ff" stroke="#63b8ff" points="271.15,-35.5 261.15,-39 271.15,-42.5 271.15,-35.5"/>
</a>
</g>
</g>
<!-- Node6 -->
<g id="Node000006" class="node">
<title>Node6</title>
<g id="a_Node000006"><a xlink:title=" ">
<polygon fill="white" stroke="#bfbfbf" points="74,-48.5 0,-48.5 0,-29.5 74,-29.5 74,-48.5"/>
<text text-anchor="middle" x="37" y="-36.5" font-family="Helvetica,sans-Serif" font-size="10.00">IDisposable</text>
</a>
</g>
</g>
<!-- Node6&#45;&gt;Node5 -->
<g id="edge5_Node000005_Node000006" class="edge">
<title>Node6&#45;&gt;Node5</title>
<g id="a_edge5_Node000005_Node000006"><a xlink:title=" ">
<path fill="none" stroke="#63b8ff" d="M84.22,-39C92.38,-39 101.05,-39 109.75,-39"/>
<polygon fill="#63b8ff" stroke="#63b8ff" points="84.21,-35.5 74.21,-39 84.21,-42.5 84.21,-35.5"/>
</a>
</g>
</g>
<!-- Node7&#45;&gt;Node1 -->
<g id="edge6_Node000001_Node000007" class="edge">
<title>Node7&#45;&gt;Node1</title>
<g id="a_edge6_Node000001_Node000007"><a xlink:title=" ">
<path fill="none" stroke="#63b8ff" d="M886.91,-25.05C903.47,-26.74 920.55,-28.49 936.78,-30.14"/>
<polygon fill="#63b8ff" stroke="#63b8ff" points="886.98,-21.54 876.67,-24 886.27,-28.5 886.98,-21.54"/>
</a>
</g>
</g>
</g>
</svg>
