<?xml version="1.0" encoding="UTF-8" standalone="no"?>
<!DOCTYPE svg PUBLIC "-//W3C//DTD SVG 1.1//EN"
 "http://www.w3.org/Graphics/SVG/1.1/DTD/svg11.dtd">
<!-- Generated by graphviz version 2.43.0 (0)
 -->
<!-- Title: FiftyOne.Pipeline.JsonBuilder.Data.JsonBuilderElementData Pages: 1 -->
<svg width="749pt" height="86pt"
 viewBox="0.00 0.00 749.00 86.00" xmlns="http://www.w3.org/2000/svg" xmlns:xlink="http://www.w3.org/1999/xlink">
<g id="graph0" class="graph" transform="scale(1 1) rotate(0) translate(4 82)">
<title>FiftyOne.Pipeline.JsonBuilder.Data.JsonBuilderElementData</title>
<!-- Node1 -->
<g id="Node000001" class="node">
<title>Node1</title>
<g id="a_Node000001"><a xlink:title="JsonBuilderElement data class.">
<polygon fill="#999999" stroke="#666666" points="741,-54 580,-54 580,-24 741,-24 741,-54"/>
<text text-anchor="start" x="588" y="-42" font-family="Helvetica,sans-Serif" font-size="10.00">FiftyOne.Pipeline.JsonBuilder.</text>
<text text-anchor="middle" x="660.5" y="-31" font-family="Helvetica,sans-Serif" font-size="10.00">Data.JsonBuilderElementData</text>
</a>
</g>
</g>
<!-- Node2 -->
<g id="Node000002" class="node">
<title>Node2</title>
<g id="a_Node000002"><a xlink:href="class_fifty_one_1_1_pipeline_1_1_core_1_1_data_1_1_element_data_base.html" target="_top" xlink:title="This class stores property values that have been determined by a specific FlowElement based on the su...">
<polygon fill="white" stroke="#666666" points="539,-78 385,-78 385,-48 539,-48 539,-78"/>
<text text-anchor="start" x="393" y="-66" font-family="Helvetica,sans-Serif" font-size="10.00">FiftyOne.Pipeline.Core.Data.</text>
<text text-anchor="middle" x="462" y="-55" font-family="Helvetica,sans-Serif" font-size="10.00">ElementDataBase</text>
</a>
</g>
</g>
<!-- Node2&#45;&gt;Node1 -->
<g id="edge1_Node000001_Node000002" class="edge">
<title>Node2&#45;&gt;Node1</title>
<g id="a_edge1_Node000001_Node000002"><a xlink:title=" ">
<path fill="none" stroke="#63b8ff" d="M549.29,-52.46C559.41,-51.22 569.7,-49.97 579.72,-48.74"/>
<polygon fill="#63b8ff" stroke="#63b8ff" points="548.76,-49 539.25,-53.69 549.6,-55.95 548.76,-49"/>
</a>
</g>
</g>
<!-- Node3 -->
<g id="Node000003" class="node">
<title>Node3</title>
<g id="a_Node000003"><a xlink:href="class_fifty_one_1_1_pipeline_1_1_core_1_1_data_1_1_data_base.html" target="_top" xlink:title="This class stores data values as key/value pairs where the key is a string and the value can be any t...">
<polygon fill="white" stroke="#666666" points="344,-78 190,-78 190,-48 344,-48 344,-78"/>
<text text-anchor="start" x="198" y="-66" font-family="Helvetica,sans-Serif" font-size="10.00">FiftyOne.Pipeline.Core.Data.</text>
<text text-anchor="middle" x="267" y="-55" font-family="Helvetica,sans-Serif" font-size="10.00">DataBase</text>
</a>
</g>
</g>
<!-- Node3&#45;&gt;Node2 -->
<g id="edge2_Node000002_Node000003" class="edge">
<title>Node3&#45;&gt;Node2</title>
<g id="a_edge2_Node000002_Node000003"><a xlink:title=" ">
<path fill="none" stroke="#63b8ff" d="M354.14,-63C364.34,-63 374.7,-63 384.75,-63"/>
<polygon fill="#63b8ff" stroke="#63b8ff" points="354,-59.5 344,-63 354,-66.5 354,-59.5"/>
</a>
</g>
</g>
<!-- Node4 -->
<g id="Node000004" class="node">
<title>Node4</title>
<g id="a_Node000004"><a xlink:href="interface_fifty_one_1_1_pipeline_1_1_core_1_1_data_1_1_i_data.html" target="_top" xlink:title="Represents property values.">
<polygon fill="white" stroke="#666666" points="154,-54 0,-54 0,-24 154,-24 154,-54"/>
<text text-anchor="start" x="8" y="-42" font-family="Helvetica,sans-Serif" font-size="10.00">FiftyOne.Pipeline.Core.Data.</text>
<text text-anchor="middle" x="77" y="-31" font-family="Helvetica,sans-Serif" font-size="10.00">IData</text>
</a>
</g>
</g>
<!-- Node4&#45;&gt;Node3 -->
<g id="edge3_Node000003_Node000004" class="edge">
<title>Node4&#45;&gt;Node3</title>
<g id="a_edge3_Node000003_Node000004"><a xlink:title=" ">
<path fill="none" stroke="#63b8ff" d="M164.15,-50C172.67,-51.09 181.28,-52.18 189.7,-53.26"/>
<polygon fill="#63b8ff" stroke="#63b8ff" points="164.56,-46.52 154.2,-48.73 163.67,-53.47 164.56,-46.52"/>
</a>
</g>
</g>
<!-- Node5 -->
<g id="Node000005" class="node">
<title>Node5</title>
<g id="a_Node000005"><a xlink:href="interface_fifty_one_1_1_pipeline_1_1_core_1_1_data_1_1_i_element_data.html" target="_top" xlink:title="Represents property values that have been determined by a specific FlowElement based on the supplied ...">
<polygon fill="white" stroke="#666666" points="344,-30 190,-30 190,0 344,0 344,-30"/>
<text text-anchor="start" x="198" y="-18" font-family="Helvetica,sans-Serif" font-size="10.00">FiftyOne.Pipeline.Core.Data.</text>
<text text-anchor="middle" x="267" y="-7" font-family="Helvetica,sans-Serif" font-size="10.00">IElementData</text>
</a>
</g>
</g>
<!-- Node4&#45;&gt;Node5 -->
<g id="edge5_Node000005_Node000004" class="edge">
<title>Node4&#45;&gt;Node5</title>
<g id="a_edge5_Node000005_Node000004"><a xlink:title=" ">
<path fill="none" stroke="#63b8ff" d="M164.15,-28C172.67,-26.91 181.28,-25.82 189.7,-24.74"/>
<polygon fill="#63b8ff" stroke="#63b8ff" points="163.67,-24.53 154.2,-29.27 164.56,-31.48 163.67,-24.53"/>
</a>
</g>
</g>
<!-- Node5&#45;&gt;Node2 -->
<g id="edge4_Node000002_Node000005" class="edge">
<title>Node5&#45;&gt;Node2</title>
<g id="a_edge4_Node000002_Node000005"><a xlink:title=" ">
<path fill="none" stroke="#63b8ff" d="M338.41,-32.51C358.83,-37.59 380.93,-43.09 400.68,-48"/>
<polygon fill="#63b8ff" stroke="#63b8ff" points="339.09,-29.07 328.54,-30.06 337.4,-35.87 339.09,-29.07"/>
</a>
</g>
</g>
<!-- Node6 -->
<g id="Node000006" class="node">
<title>Node6</title>
<g id="a_Node000006"><a xlink:href="interface_fifty_one_1_1_pipeline_1_1_json_builder_1_1_data_1_1_i_json_builder_element_data.html" target="_top" xlink:title="The IElementData interface for JsonBuilderElement.">
<polygon fill="white" stroke="#666666" points="544,-30 380,-30 380,0 544,0 544,-30"/>
<text text-anchor="start" x="388" y="-18" font-family="Helvetica,sans-Serif" font-size="10.00">FiftyOne.Pipeline.JsonBuilder.</text>
<text text-anchor="middle" x="462" y="-7" font-family="Helvetica,sans-Serif" font-size="10.00">Data.IJsonBuilderElementData</text>
</a>
</g>
</g>
<!-- Node5&#45;&gt;Node6 -->
<g id="edge7_Node000006_Node000005" class="edge">
<title>Node5&#45;&gt;Node6</title>
<g id="a_edge7_Node000006_Node000005"><a xlink:title=" ">
<path fill="none" stroke="#63b8ff" d="M354.06,-15C362.68,-15 371.41,-15 379.98,-15"/>
<polygon fill="#63b8ff" stroke="#63b8ff" points="354,-11.5 344,-15 354,-18.5 354,-11.5"/>
</a>
</g>
</g>
<!-- Node6&#45;&gt;Node1 -->
<g id="edge6_Node000001_Node000006" class="edge">
<title>Node6&#45;&gt;Node1</title>
<g id="a_edge6_Node000001_Node000006"><a xlink:title=" ">
<path fill="none" stroke="#63b8ff" d="M554.11,-26.13C562.72,-27.18 571.41,-28.24 579.89,-29.28"/>
<polygon fill="#63b8ff" stroke="#63b8ff" points="554.41,-22.64 544.06,-24.9 553.56,-29.59 554.41,-22.64"/>
</a>
</g>
</g>
</g>
</svg>
