<?xml version="1.0" encoding="UTF-8" standalone="no"?>
<!DOCTYPE svg PUBLIC "-//W3C//DTD SVG 1.1//EN"
 "http://www.w3.org/Graphics/SVG/1.1/DTD/svg11.dtd">
<!-- Generated by graphviz version 2.43.0 (0)
 -->
<!-- Title: FiftyOne.Pipeline.Engines.FiftyOne.Data.PropertyKeyedIndex Pages: 1 -->
<svg width="884pt" height="150pt"
 viewBox="0.00 0.00 884.00 149.50" xmlns="http://www.w3.org/2000/svg" xmlns:xlink="http://www.w3.org/1999/xlink">
<g id="graph0" class="graph" transform="scale(1 1) rotate(0) translate(4 145.5)">
<title>FiftyOne.Pipeline.Engines.FiftyOne.Data.PropertyKeyedIndex</title>
<!-- Node1 -->
<g id="Node000001" class="node">
<title>Node1</title>
<g id="a_Node000001"><a xlink:title="Index of values and profile ids for a single property.">
<polygon fill="#999999" stroke="#666666" points="876,-98.5 691,-98.5 691,-68.5 876,-68.5 876,-98.5"/>
<text text-anchor="start" x="699" y="-86.5" font-family="Helvetica,sans-Serif" font-size="10.00">FiftyOne.Pipeline.Engines.</text>
<text text-anchor="middle" x="783.5" y="-75.5" font-family="Helvetica,sans-Serif" font-size="10.00">FiftyOne.Data.PropertyKeyedIndex</text>
</a>
</g>
</g>
<!-- Node2 -->
<g id="Node000002" class="node">
<title>Node2</title>
<g id="a_Node000002"><a xlink:href="interface_fifty_one_1_1_pipeline_1_1_engines_1_1_fifty_one_1_1_data_1_1_i_fifty_one_aspect_property_meta_data.html" target="_top" xlink:title="51Degrees specific meta data.">
<polygon fill="white" stroke="#666666" points="600,-104 396,-104 396,-63 600,-63 600,-104"/>
<text text-anchor="start" x="404" y="-92" font-family="Helvetica,sans-Serif" font-size="10.00">FiftyOne.Pipeline.Engines.</text>
<text text-anchor="start" x="404" y="-81" font-family="Helvetica,sans-Serif" font-size="10.00">FiftyOne.Data.IFiftyOneAspectProperty</text>
<text text-anchor="middle" x="498" y="-70" font-family="Helvetica,sans-Serif" font-size="10.00">MetaData</text>
</a>
</g>
</g>
<!-- Node2&#45;&gt;Node1 -->
<g id="edge1_Node000001_Node000002" class="edge">
<title>Node2&#45;&gt;Node1</title>
<g id="a_edge1_Node000001_Node000002"><a xlink:title=" ">
<path fill="none" stroke="#9a32cd" stroke-dasharray="5,2" d="M610.29,-83.5C636.97,-83.5 665.16,-83.5 690.83,-83.5"/>
<polygon fill="#9a32cd" stroke="#9a32cd" points="610.15,-80 600.15,-83.5 610.15,-87 610.15,-80"/>
</a>
</g>
<text text-anchor="start" x="621.5" y="-89" font-family="Helvetica,sans-Serif" font-size="10.00" fill="grey">MetaData</text>
</g>
<!-- Node3 -->
<g id="Node000003" class="node">
<title>Node3</title>
<g id="a_Node000003"><a xlink:href="interface_fifty_one_1_1_pipeline_1_1_engines_1_1_data_1_1_i_aspect_property_meta_data.html" target="_top" xlink:title="Represents meta&#45;data relating to a property that is populated by an IAspectEngine instance.">
<polygon fill="white" stroke="#666666" points="359,-141.5 191,-141.5 191,-111.5 359,-111.5 359,-141.5"/>
<text text-anchor="start" x="199" y="-129.5" font-family="Helvetica,sans-Serif" font-size="10.00">FiftyOne.Pipeline.Engines.</text>
<text text-anchor="middle" x="275" y="-118.5" font-family="Helvetica,sans-Serif" font-size="10.00">Data.IAspectPropertyMetaData</text>
</a>
</g>
</g>
<!-- Node3&#45;&gt;Node2 -->
<g id="edge2_Node000002_Node000003" class="edge">
<title>Node3&#45;&gt;Node2</title>
<g id="a_edge2_Node000002_Node000003"><a xlink:title=" ">
<path fill="none" stroke="#63b8ff" d="M363.36,-109.5C373.97,-107.44 384.88,-105.32 395.67,-103.22"/>
<polygon fill="#63b8ff" stroke="#63b8ff" points="362.44,-106.12 353.3,-111.46 363.78,-112.99 362.44,-106.12"/>
</a>
</g>
</g>
<!-- Node4 -->
<g id="Node000004" class="node">
<title>Node4</title>
<g id="a_Node000004"><a xlink:href="interface_fifty_one_1_1_pipeline_1_1_core_1_1_data_1_1_i_element_property_meta_data.html" target="_top" xlink:title="Represents meta&#45;data relating to a property that is populated by a IFlowElement instance.">
<polygon fill="white" stroke="#666666" points="154,-141.5 0,-141.5 0,-111.5 154,-111.5 154,-141.5"/>
<text text-anchor="start" x="8" y="-129.5" font-family="Helvetica,sans-Serif" font-size="10.00">FiftyOne.Pipeline.Core.Data.</text>
<text text-anchor="middle" x="77" y="-118.5" font-family="Helvetica,sans-Serif" font-size="10.00">IElementPropertyMetaData</text>
</a>
</g>
</g>
<!-- Node4&#45;&gt;Node3 -->
<g id="edge3_Node000003_Node000004" class="edge">
<title>Node4&#45;&gt;Node3</title>
<g id="a_edge3_Node000003_Node000004"><a xlink:title=" ">
<path fill="none" stroke="#63b8ff" d="M164.32,-126.5C173.13,-126.5 182.06,-126.5 190.83,-126.5"/>
<polygon fill="#63b8ff" stroke="#63b8ff" points="164.06,-123 154.06,-126.5 164.06,-130 164.06,-123"/>
</a>
</g>
</g>
<!-- Node5 -->
<g id="Node000005" class="node">
<title>Node5</title>
<g id="a_Node000005"><a xlink:title=" ">
<polygon fill="white" stroke="#bfbfbf" points="309,-93 241,-93 241,-74 309,-74 309,-93"/>
<text text-anchor="middle" x="275" y="-81" font-family="Helvetica,sans-Serif" font-size="10.00">IEquatable</text>
</a>
</g>
</g>
<!-- Node5&#45;&gt;Node2 -->
<g id="edge4_Node000002_Node000005" class="edge">
<title>Node5&#45;&gt;Node2</title>
<g id="a_edge4_Node000002_Node000005"><a xlink:title=" ">
<path fill="none" stroke="#63b8ff" d="M319.35,-78.01C341.24,-77.06 368.8,-76.65 395.64,-76.77"/>
<polygon fill="#63b8ff" stroke="#63b8ff" points="318.9,-74.53 309.09,-78.52 319.25,-81.52 318.9,-74.53"/>
</a>
</g>
</g>
<!-- Node5&#45;&gt;Node2 -->
<g id="edge6_Node000002_Node000005" class="edge">
<title>Node5&#45;&gt;Node2</title>
<g id="a_edge6_Node000002_Node000005"><a xlink:title=" ">
<path fill="none" stroke="#63b8ff" d="M319.35,-88.99C341.24,-89.94 368.8,-90.35 395.64,-90.23"/>
<polygon fill="#63b8ff" stroke="#63b8ff" points="319.25,-85.48 309.09,-88.48 318.9,-92.47 319.25,-85.48"/>
</a>
</g>
</g>
<!-- Node6 -->
<g id="Node000006" class="node">
<title>Node6</title>
<g id="a_Node000006"><a xlink:title=" ">
<polygon fill="white" stroke="#bfbfbf" points="314.5,-56 235.5,-56 235.5,-37 314.5,-37 314.5,-56"/>
<text text-anchor="middle" x="275" y="-44" font-family="Helvetica,sans-Serif" font-size="10.00">IComparable</text>
</a>
</g>
</g>
<!-- Node6&#45;&gt;Node2 -->
<g id="edge5_Node000002_Node000006" class="edge">
<title>Node6&#45;&gt;Node2</title>
<g id="a_edge5_Node000002_Node000006"><a xlink:title=" ">
<path fill="none" stroke="#63b8ff" d="M324.65,-54.64C345.57,-58.15 370.86,-62.38 395.54,-66.51"/>
<polygon fill="#63b8ff" stroke="#63b8ff" points="325.19,-51.19 314.75,-52.99 324.03,-58.09 325.19,-51.19"/>
</a>
</g>
</g>
<!-- Node7 -->
<g id="Node000007" class="node">
<title>Node7</title>
<g id="a_Node000007"><a xlink:title=" ">
<polygon fill="white" stroke="#bfbfbf" points="312,-19 238,-19 238,0 312,0 312,-19"/>
<text text-anchor="middle" x="275" y="-7" font-family="Helvetica,sans-Serif" font-size="10.00">IDisposable</text>
</a>
</g>
</g>
<!-- Node7&#45;&gt;Node2 -->
<g id="edge7_Node000002_Node000007" class="edge">
<title>Node7&#45;&gt;Node2</title>
<g id="a_edge7_Node000002_Node000007"><a xlink:title=" ">
<path fill="none" stroke="#63b8ff" d="M322.21,-18.05C334.29,-20.68 347.22,-23.86 359,-27.5 390.75,-37.3 425.39,-51.37 452.03,-62.96"/>
<polygon fill="#63b8ff" stroke="#63b8ff" points="322.81,-14.6 312.3,-15.96 321.37,-21.45 322.81,-14.6"/>
</a>
</g>
</g>
</g>
</svg>
