<?xml version="1.0" encoding="UTF-8" standalone="no"?>
<!DOCTYPE svg PUBLIC "-//W3C//DTD SVG 1.1//EN"
 "http://www.w3.org/Graphics/SVG/1.1/DTD/svg11.dtd">
<!-- Generated by graphviz version 2.43.0 (0)
 -->
<!-- Title: FiftyOne.Pipeline.Core.Data.ElementDataBase Pages: 1 -->
<svg width="999pt" height="460pt"
 viewBox="0.00 0.00 999.00 460.00" xmlns="http://www.w3.org/2000/svg" xmlns:xlink="http://www.w3.org/1999/xlink">
<g id="graph0" class="graph" transform="scale(1 1) rotate(0) translate(4 456)">
<title>FiftyOne.Pipeline.Core.Data.ElementDataBase</title>
<!-- Node1 -->
<g id="Node000001" class="node">
<title>Node1</title>
<g id="a_Node000001"><a xlink:title="This class stores property values that have been determined by a specific FlowElement based on the su...">
<polygon fill="#999999" stroke="#666666" points="534,-236 380,-236 380,-206 534,-206 534,-236"/>
<text text-anchor="start" x="388" y="-224" font-family="Helvetica,sans-Serif" font-size="10.00">FiftyOne.Pipeline.Core.Data.</text>
<text text-anchor="middle" x="457" y="-213" font-family="Helvetica,sans-Serif" font-size="10.00">ElementDataBase</text>
</a>
</g>
</g>
<!-- Node5 -->
<g id="Node000005" class="node">
<title>Node5</title>
<g id="a_Node000005"><a xlink:title=" ">
<polygon fill="white" stroke="#666666" points="769.5,-452 597.5,-452 597.5,-422 769.5,-422 769.5,-452"/>
<text text-anchor="start" x="605.5" y="-440" font-family="Helvetica,sans-Serif" font-size="10.00">Examples.CustomFlowElement.</text>
<text text-anchor="middle" x="683.5" y="-429" font-family="Helvetica,sans-Serif" font-size="10.00">Data.StarSignData</text>
</a>
</g>
</g>
<!-- Node1&#45;&gt;Node5 -->
<g id="edge5_Node000001_Node000005" class="edge">
<title>Node1&#45;&gt;Node5</title>
<g id="a_edge5_Node000001_Node000005"><a xlink:title=" ">
<path fill="none" stroke="#63b8ff" d="M465.15,-245.7C478.51,-287.21 511.35,-370.56 570,-413 578.25,-418.97 587.68,-423.52 597.49,-426.97"/>
<polygon fill="#63b8ff" stroke="#63b8ff" points="468.48,-244.62 462.17,-236.1 461.8,-246.69 468.48,-244.62"/>
</a>
</g>
</g>
<!-- Node6 -->
<g id="Node000006" class="node">
<title>Node6</title>
<g id="a_Node000006"><a xlink:href="class_fifty_one_1_1_pipeline_1_1_engines_1_1_data_1_1_aspect_data_base.html" target="_top" xlink:title="Base class for element data instances that are generated by an IAspectEngine.">
<polygon fill="white" stroke="#666666" points="755,-404 612,-404 612,-374 755,-374 755,-404"/>
<text text-anchor="start" x="620" y="-392" font-family="Helvetica,sans-Serif" font-size="10.00">FiftyOne.Pipeline.Engines.</text>
<text text-anchor="middle" x="683.5" y="-381" font-family="Helvetica,sans-Serif" font-size="10.00">Data.AspectDataBase</text>
</a>
</g>
</g>
<!-- Node1&#45;&gt;Node6 -->
<g id="edge6_Node000001_Node000006" class="edge">
<title>Node1&#45;&gt;Node6</title>
<g id="a_edge6_Node000001_Node000006"><a xlink:title=" ">
<path fill="none" stroke="#63b8ff" d="M469.93,-245.32C487.26,-277.97 522.58,-335.27 570,-365 582.52,-372.85 597.2,-378.17 611.75,-381.76"/>
<polygon fill="#63b8ff" stroke="#63b8ff" points="472.83,-243.32 465.13,-236.04 466.61,-246.54 472.83,-243.32"/>
</a>
</g>
</g>
<!-- Node9 -->
<g id="Node000009" class="node">
<title>Node9</title>
<g id="a_Node000009"><a xlink:href="class_fifty_one_1_1_pipeline_1_1_engines_1_1_fifty_one_1_1_data_1_1_set_headers_data.html" target="_top" xlink:title="Element data instance for SetHeadersElement See the Specification.">
<polygon fill="white" stroke="#666666" points="766.5,-356 600.5,-356 600.5,-326 766.5,-326 766.5,-356"/>
<text text-anchor="start" x="608.5" y="-344" font-family="Helvetica,sans-Serif" font-size="10.00">FiftyOne.Pipeline.Engines.</text>
<text text-anchor="middle" x="683.5" y="-333" font-family="Helvetica,sans-Serif" font-size="10.00">FiftyOne.Data.SetHeadersData</text>
</a>
</g>
</g>
<!-- Node1&#45;&gt;Node9 -->
<g id="edge9_Node000001_Node000009" class="edge">
<title>Node1&#45;&gt;Node9</title>
<g id="a_edge9_Node000001_Node000009"><a xlink:title=" ">
<path fill="none" stroke="#63b8ff" d="M478.17,-243.95C498.95,-266.11 533.41,-298.9 570,-317 579.49,-321.69 589.87,-325.47 600.37,-328.51"/>
<polygon fill="#63b8ff" stroke="#63b8ff" points="480.49,-241.31 471.15,-236.31 475.34,-246.05 480.49,-241.31"/>
</a>
</g>
</g>
<!-- Node10 -->
<g id="Node000010" class="node">
<title>Node10</title>
<g id="a_Node000010"><a xlink:href="class_fifty_one_1_1_pipeline_1_1_ip_splitter_1_1_split_ip_data.html" target="_top" xlink:title=" ">
<polygon fill="white" stroke="#bfbfbf" points="758,-308 609,-308 609,-278 758,-278 758,-308"/>
<text text-anchor="start" x="617" y="-296" font-family="Helvetica,sans-Serif" font-size="10.00">FiftyOne.Pipeline.IpSplitter.</text>
<text text-anchor="middle" x="683.5" y="-285" font-family="Helvetica,sans-Serif" font-size="10.00">SplitIpData</text>
</a>
</g>
</g>
<!-- Node1&#45;&gt;Node10 -->
<g id="edge10_Node000001_Node000010" class="edge">
<title>Node1&#45;&gt;Node10</title>
<g id="a_edge10_Node000001_Node000010"><a xlink:title=" ">
<path fill="none" stroke="#63b8ff" d="M498.02,-240.41C519.07,-250.03 545.52,-261.23 570,-269 582.37,-272.93 595.71,-276.41 608.74,-279.42"/>
<polygon fill="#63b8ff" stroke="#63b8ff" points="499.31,-237.14 488.76,-236.11 496.36,-243.49 499.31,-237.14"/>
</a>
</g>
</g>
<!-- Node11 -->
<g id="Node000011" class="node">
<title>Node11</title>
<g id="a_Node000011"><a xlink:href="class_fifty_one_1_1_pipeline_1_1_java_script_builder_1_1_data_1_1_java_script_builder_element_data.html" target="_top" xlink:title="The IElementData class for JavaScriptBuilderElement.">
<polygon fill="white" stroke="#666666" points="797,-260 570,-260 570,-230 797,-230 797,-260"/>
<text text-anchor="start" x="578" y="-248" font-family="Helvetica,sans-Serif" font-size="10.00">FiftyOne.Pipeline.JavaScript</text>
<text text-anchor="middle" x="683.5" y="-237" font-family="Helvetica,sans-Serif" font-size="10.00">Builder.Data.JavaScriptBuilderElementData</text>
</a>
</g>
</g>
<!-- Node1&#45;&gt;Node11 -->
<g id="edge11_Node000001_Node000011" class="edge">
<title>Node1&#45;&gt;Node11</title>
<g id="a_edge11_Node000001_Node000011"><a xlink:title=" ">
<path fill="none" stroke="#63b8ff" d="M544.17,-230.21C552.61,-231.11 561.25,-232.04 569.89,-232.96"/>
<polygon fill="#63b8ff" stroke="#63b8ff" points="544.32,-226.71 534.01,-229.13 543.58,-233.67 544.32,-226.71"/>
</a>
</g>
</g>
<!-- Node12 -->
<g id="Node000012" class="node">
<title>Node12</title>
<g id="a_Node000012"><a xlink:href="class_fifty_one_1_1_pipeline_1_1_json_builder_1_1_data_1_1_json_builder_element_data.html" target="_top" xlink:title="JsonBuilderElement data class.">
<polygon fill="white" stroke="#666666" points="764,-212 603,-212 603,-182 764,-182 764,-212"/>
<text text-anchor="start" x="611" y="-200" font-family="Helvetica,sans-Serif" font-size="10.00">FiftyOne.Pipeline.JsonBuilder.</text>
<text text-anchor="middle" x="683.5" y="-189" font-family="Helvetica,sans-Serif" font-size="10.00">Data.JsonBuilderElementData</text>
</a>
</g>
</g>
<!-- Node1&#45;&gt;Node12 -->
<g id="edge12_Node000001_Node000012" class="edge">
<title>Node1&#45;&gt;Node12</title>
<g id="a_edge12_Node000001_Node000012"><a xlink:title=" ">
<path fill="none" stroke="#63b8ff" d="M543.99,-211.81C563.29,-209.74 583.7,-207.56 602.74,-205.53"/>
<polygon fill="#63b8ff" stroke="#63b8ff" points="543.58,-208.33 534.01,-212.87 544.32,-215.29 543.58,-208.33"/>
</a>
</g>
</g>
<!-- Node13 -->
<g id="Node000013" class="node">
<title>Node13</title>
<g id="a_Node000013"><a xlink:href="class_fifty_one_1_1_pipeline_1_1_math_1_1_math_data.html" target="_top" xlink:title=" ">
<polygon fill="white" stroke="#bfbfbf" points="772.5,-163.5 594.5,-163.5 594.5,-144.5 772.5,-144.5 772.5,-163.5"/>
<text text-anchor="middle" x="683.5" y="-151.5" font-family="Helvetica,sans-Serif" font-size="10.00">FiftyOne.Pipeline.Math.MathData</text>
</a>
</g>
</g>
<!-- Node1&#45;&gt;Node13 -->
<g id="edge13_Node000001_Node000013" class="edge">
<title>Node1&#45;&gt;Node13</title>
<g id="a_edge13_Node000001_Node000013"><a xlink:title=" ">
<path fill="none" stroke="#63b8ff" d="M496.99,-201.57C518.15,-191.74 545.01,-180.35 570,-173 582.92,-169.2 596.92,-166.08 610.5,-163.54"/>
<polygon fill="#63b8ff" stroke="#63b8ff" points="495.25,-198.53 487.7,-205.97 498.24,-204.86 495.25,-198.53"/>
</a>
</g>
</g>
<!-- Node14 -->
<g id="Node000014" class="node">
<title>Node14</title>
<g id="a_Node000014"><a xlink:href="class_fifty_one_1_1_pipeline_1_1_translation_1_1_data_1_1_translation_data.html" target="_top" xlink:title="Data object populated by FlowElements.TranslationEngine.">
<polygon fill="white" stroke="#666666" points="762.5,-126 604.5,-126 604.5,-96 762.5,-96 762.5,-126"/>
<text text-anchor="start" x="612.5" y="-114" font-family="Helvetica,sans-Serif" font-size="10.00">FiftyOne.Pipeline.Translation.</text>
<text text-anchor="middle" x="683.5" y="-103" font-family="Helvetica,sans-Serif" font-size="10.00">Data.TranslationData</text>
</a>
</g>
</g>
<!-- Node1&#45;&gt;Node14 -->
<g id="edge14_Node000001_Node000014" class="edge">
<title>Node1&#45;&gt;Node14</title>
<g id="a_edge14_Node000001_Node000014"><a xlink:title=" ">
<path fill="none" stroke="#63b8ff" d="M480.73,-198.57C502.03,-178.84 535.66,-150.85 570,-135 580.79,-130.02 592.64,-126.06 604.48,-122.91"/>
<polygon fill="#63b8ff" stroke="#63b8ff" points="478.06,-196.27 473.19,-205.69 482.87,-201.36 478.06,-196.27"/>
</a>
</g>
</g>
<!-- Node15 -->
<g id="Node000015" class="node">
<title>Node15</title>
<g id="a_Node000015"><a xlink:href="class_fifty_one_1_1_pipeline_1_1_translation_1_1_tests_1_1_evidence_copy_data.html" target="_top" xlink:title="Data type for the EvidenceCopyElement.">
<polygon fill="white" stroke="#666666" points="762.5,-78 604.5,-78 604.5,-48 762.5,-48 762.5,-78"/>
<text text-anchor="start" x="612.5" y="-66" font-family="Helvetica,sans-Serif" font-size="10.00">FiftyOne.Pipeline.Translation.</text>
<text text-anchor="middle" x="683.5" y="-55" font-family="Helvetica,sans-Serif" font-size="10.00">Tests.EvidenceCopyData</text>
</a>
</g>
</g>
<!-- Node1&#45;&gt;Node15 -->
<g id="edge15_Node000001_Node000015" class="edge">
<title>Node1&#45;&gt;Node15</title>
<g id="a_edge15_Node000001_Node000015"><a xlink:title=" ">
<path fill="none" stroke="#63b8ff" d="M471.2,-196.94C489.31,-166.35 524.82,-114.23 570,-87 580.43,-80.71 592.28,-76.06 604.28,-72.62"/>
<polygon fill="#63b8ff" stroke="#63b8ff" points="468.12,-195.29 466.15,-205.7 474.18,-198.79 468.12,-195.29"/>
</a>
</g>
</g>
<!-- Node16 -->
<g id="Node000016" class="node">
<title>Node16</title>
<g id="a_Node000016"><a xlink:title=" ">
<polygon fill="white" stroke="#666666" points="755,-30 612,-30 612,0 755,0 755,-30"/>
<text text-anchor="start" x="620" y="-18" font-family="Helvetica,sans-Serif" font-size="10.00">SimpleClientSideElement.</text>
<text text-anchor="middle" x="683.5" y="-7" font-family="Helvetica,sans-Serif" font-size="10.00">Data.StarSignData</text>
</a>
</g>
</g>
<!-- Node1&#45;&gt;Node16 -->
<g id="edge16_Node000001_Node000016" class="edge">
<title>Node1&#45;&gt;Node16</title>
<g id="a_edge16_Node000001_Node000016"><a xlink:title=" ">
<path fill="none" stroke="#63b8ff" d="M465.94,-196.43C480.11,-156.69 513.68,-78.76 570,-39 582.32,-30.3 597.16,-24.65 611.96,-21"/>
<polygon fill="#63b8ff" stroke="#63b8ff" points="462.63,-195.3 462.68,-205.89 469.24,-197.58 462.63,-195.3"/>
</a>
</g>
</g>
<!-- Node2 -->
<g id="Node000002" class="node">
<title>Node2</title>
<g id="a_Node000002"><a xlink:href="class_fifty_one_1_1_pipeline_1_1_core_1_1_data_1_1_data_base.html" target="_top" xlink:title="This class stores data values as key/value pairs where the key is a string and the value can be any t...">
<polygon fill="white" stroke="#666666" points="344,-260 190,-260 190,-230 344,-230 344,-260"/>
<text text-anchor="start" x="198" y="-248" font-family="Helvetica,sans-Serif" font-size="10.00">FiftyOne.Pipeline.Core.Data.</text>
<text text-anchor="middle" x="267" y="-237" font-family="Helvetica,sans-Serif" font-size="10.00">DataBase</text>
</a>
</g>
</g>
<!-- Node2&#45;&gt;Node1 -->
<g id="edge1_Node000001_Node000002" class="edge">
<title>Node2&#45;&gt;Node1</title>
<g id="a_edge1_Node000001_Node000002"><a xlink:title=" ">
<path fill="none" stroke="#63b8ff" d="M354.15,-234C362.67,-232.91 371.28,-231.82 379.7,-230.74"/>
<polygon fill="#63b8ff" stroke="#63b8ff" points="353.67,-230.53 344.2,-235.27 354.56,-237.48 353.67,-230.53"/>
</a>
</g>
</g>
<!-- Node3 -->
<g id="Node000003" class="node">
<title>Node3</title>
<g id="a_Node000003"><a xlink:href="interface_fifty_one_1_1_pipeline_1_1_core_1_1_data_1_1_i_data.html" target="_top" xlink:title="Represents property values.">
<polygon fill="white" stroke="#666666" points="154,-236 0,-236 0,-206 154,-206 154,-236"/>
<text text-anchor="start" x="8" y="-224" font-family="Helvetica,sans-Serif" font-size="10.00">FiftyOne.Pipeline.Core.Data.</text>
<text text-anchor="middle" x="77" y="-213" font-family="Helvetica,sans-Serif" font-size="10.00">IData</text>
</a>
</g>
</g>
<!-- Node3&#45;&gt;Node2 -->
<g id="edge2_Node000002_Node000003" class="edge">
<title>Node3&#45;&gt;Node2</title>
<g id="a_edge2_Node000002_Node000003"><a xlink:title=" ">
<path fill="none" stroke="#63b8ff" d="M164.15,-232C172.67,-233.09 181.28,-234.18 189.7,-235.26"/>
<polygon fill="#63b8ff" stroke="#63b8ff" points="164.56,-228.52 154.2,-230.73 163.67,-235.47 164.56,-228.52"/>
</a>
</g>
</g>
<!-- Node4 -->
<g id="Node000004" class="node">
<title>Node4</title>
<g id="a_Node000004"><a xlink:href="interface_fifty_one_1_1_pipeline_1_1_core_1_1_data_1_1_i_element_data.html" target="_top" xlink:title="Represents property values that have been determined by a specific FlowElement based on the supplied ...">
<polygon fill="white" stroke="#666666" points="344,-212 190,-212 190,-182 344,-182 344,-212"/>
<text text-anchor="start" x="198" y="-200" font-family="Helvetica,sans-Serif" font-size="10.00">FiftyOne.Pipeline.Core.Data.</text>
<text text-anchor="middle" x="267" y="-189" font-family="Helvetica,sans-Serif" font-size="10.00">IElementData</text>
</a>
</g>
</g>
<!-- Node3&#45;&gt;Node4 -->
<g id="edge4_Node000004_Node000003" class="edge">
<title>Node3&#45;&gt;Node4</title>
<g id="a_edge4_Node000004_Node000003"><a xlink:title=" ">
<path fill="none" stroke="#63b8ff" d="M164.15,-210C172.67,-208.91 181.28,-207.82 189.7,-206.74"/>
<polygon fill="#63b8ff" stroke="#63b8ff" points="163.67,-206.53 154.2,-211.27 164.56,-213.48 163.67,-206.53"/>
</a>
</g>
</g>
<!-- Node4&#45;&gt;Node1 -->
<g id="edge3_Node000001_Node000004" class="edge">
<title>Node4&#45;&gt;Node1</title>
<g id="a_edge3_Node000001_Node000004"><a xlink:title=" ">
<path fill="none" stroke="#63b8ff" d="M354.15,-208C362.67,-209.09 371.28,-210.18 379.7,-211.26"/>
<polygon fill="#63b8ff" stroke="#63b8ff" points="354.56,-204.52 344.2,-206.73 353.67,-211.47 354.56,-204.52"/>
</a>
</g>
</g>
<!-- Node7 -->
<g id="Node000007" class="node">
<title>Node7</title>
<g id="a_Node000007"><a xlink:title=" ">
<polygon fill="white" stroke="#666666" points="991,-428 833,-428 833,-398 991,-398 991,-428"/>
<text text-anchor="start" x="841" y="-416" font-family="Helvetica,sans-Serif" font-size="10.00">Examples.CloudEngine.Data.</text>
<text text-anchor="middle" x="912" y="-405" font-family="Helvetica,sans-Serif" font-size="10.00">StarSignData</text>
</a>
</g>
</g>
<!-- Node6&#45;&gt;Node7 -->
<g id="edge7_Node000006_Node000007" class="edge">
<title>Node6&#45;&gt;Node7</title>
<g id="a_edge7_Node000006_Node000007"><a xlink:title=" ">
<path fill="none" stroke="#63b8ff" d="M765.21,-397.55C787.24,-399.89 811.06,-402.41 832.93,-404.73"/>
<polygon fill="#63b8ff" stroke="#63b8ff" points="765.55,-394.07 755.23,-396.5 764.81,-401.03 765.55,-394.07"/>
</a>
</g>
</g>
<!-- Node8 -->
<g id="Node000008" class="node">
<title>Node8</title>
<g id="a_Node000008"><a xlink:title=" ">
<polygon fill="white" stroke="#666666" points="990.5,-380 833.5,-380 833.5,-350 990.5,-350 990.5,-380"/>
<text text-anchor="start" x="841.5" y="-368" font-family="Helvetica,sans-Serif" font-size="10.00">Examples.OnPremiseEngine.</text>
<text text-anchor="middle" x="912" y="-357" font-family="Helvetica,sans-Serif" font-size="10.00">Data.StarSignData</text>
</a>
</g>
</g>
<!-- Node6&#45;&gt;Node8 -->
<g id="edge8_Node000006_Node000008" class="edge">
<title>Node6&#45;&gt;Node8</title>
<g id="a_edge8_Node000006_Node000008"><a xlink:title=" ">
<path fill="none" stroke="#63b8ff" d="M765.27,-380.44C787.41,-378.1 811.36,-375.56 833.33,-373.23"/>
<polygon fill="#63b8ff" stroke="#63b8ff" points="764.81,-376.97 755.23,-381.5 765.55,-383.93 764.81,-376.97"/>
</a>
</g>
</g>
</g>
</svg>
