<?xml version="1.0" encoding="UTF-8" standalone="no"?>
<!DOCTYPE svg PUBLIC "-//W3C//DTD SVG 1.1//EN"
 "http://www.w3.org/Graphics/SVG/1.1/DTD/svg11.dtd">
<!-- Generated by graphviz version 2.43.0 (0)
 -->
<!-- Title: FiftyOne.Pipeline.Translation.FlowElements.TranslationEngine Pages: 1 -->
<svg width="1307pt" height="139pt"
 viewBox="0.00 0.00 1307.00 139.00" xmlns="http://www.w3.org/2000/svg" xmlns:xlink="http://www.w3.org/1999/xlink">
<g id="graph0" class="graph" transform="scale(1 1) rotate(0) translate(4 135)">
<title>FiftyOne.Pipeline.Translation.FlowElements.TranslationEngine</title>
<!-- Node1 -->
<g id="Node000001" class="node">
<title>Node1</title>
<g id="a_Node000001"><a xlink:title=" ">
<polygon fill="#999999" stroke="#666666" points="1299,-45 1124,-45 1124,-15 1299,-15 1299,-45"/>
<text text-anchor="start" x="1132" y="-33" font-family="Helvetica,sans-Serif" font-size="10.00">FiftyOne.Pipeline.Translation.</text>
<text text-anchor="middle" x="1211.5" y="-22" font-family="Helvetica,sans-Serif" font-size="10.00">FlowElements.TranslationEngine</text>
</a>
</g>
</g>
<!-- Node2 -->
<g id="Node000002" class="node">
<title>Node2</title>
<g id="a_Node000002"><a xlink:href="class_fifty_one_1_1_pipeline_1_1_translation_1_1_flow_elements_1_1_translation_engine_base-1-g.html" target="_top" xlink:title="Flow element that translates values from a single source element and stores translated values under i...">
<polygon fill="white" stroke="#666666" points="1087,-77 860,-77 860,-47 1087,-47 1087,-77"/>
<text text-anchor="start" x="868" y="-65" font-family="Helvetica,sans-Serif" font-size="10.00">FiftyOne.Pipeline.Translation.</text>
<text text-anchor="middle" x="973.5" y="-54" font-family="Helvetica,sans-Serif" font-size="10.00">FlowElements.TranslationEngineBase&lt; T &gt;</text>
</a>
</g>
</g>
<!-- Node2&#45;&gt;Node1 -->
<g id="edge1_Node000001_Node000002" class="edge">
<title>Node2&#45;&gt;Node1</title>
<g id="a_edge1_Node000001_Node000002"><a xlink:title=" ">
<path fill="none" stroke="#63b8ff" d="M1095.26,-45.63C1104.87,-44.32 1114.46,-43.02 1123.77,-41.76"/>
<polygon fill="#63b8ff" stroke="#63b8ff" points="1094.68,-42.17 1085.24,-46.98 1095.62,-49.11 1094.68,-42.17"/>
</a>
</g>
</g>
<!-- Node3 -->
<g id="Node000003" class="node">
<title>Node3</title>
<g id="a_Node000003"><a xlink:href="class_fifty_one_1_1_pipeline_1_1_core_1_1_flow_elements_1_1_flow_element_base-2-g.html" target="_top" xlink:title="Abstract base class for Flow Elements.">
<polygon fill="white" stroke="#666666" points="643.5,-82.5 490.5,-82.5 490.5,-41.5 643.5,-41.5 643.5,-82.5"/>
<text text-anchor="start" x="498.5" y="-70.5" font-family="Helvetica,sans-Serif" font-size="10.00">FiftyOne.Pipeline.Core.Flow</text>
<text text-anchor="start" x="498.5" y="-59.5" font-family="Helvetica,sans-Serif" font-size="10.00">Elements.FlowElementBase</text>
<text text-anchor="middle" x="567" y="-48.5" font-family="Helvetica,sans-Serif" font-size="10.00">&lt; T, TMeta &gt;</text>
</a>
</g>
</g>
<!-- Node3&#45;&gt;Node2 -->
<g id="edge2_Node000002_Node000003" class="edge">
<title>Node3&#45;&gt;Node2</title>
<g id="a_edge2_Node000002_Node000003"><a xlink:title=" ">
<path fill="none" stroke="#63b8ff" d="M653.81,-62C713.83,-62 794.6,-62 859.81,-62"/>
<polygon fill="#63b8ff" stroke="#63b8ff" points="653.61,-58.5 643.61,-62 653.61,-65.5 653.61,-58.5"/>
</a>
</g>
</g>
<!-- Node4 -->
<g id="Node000004" class="node">
<title>Node4</title>
<g id="a_Node000004"><a xlink:href="interface_fifty_one_1_1_pipeline_1_1_core_1_1_flow_elements_1_1_i_flow_element-2-g.html" target="_top" xlink:title="Generic interface that extends IFlowElement with the ability to return a ITypedKey&lt;T&gt; that will allow...">
<polygon fill="white" stroke="#666666" points="451,-45.5 299,-45.5 299,-4.5 451,-4.5 451,-45.5"/>
<text text-anchor="start" x="307" y="-33.5" font-family="Helvetica,sans-Serif" font-size="10.00">FiftyOne.Pipeline.Core.Flow</text>
<text text-anchor="start" x="307" y="-22.5" font-family="Helvetica,sans-Serif" font-size="10.00">Elements.IFlowElement&lt; T,</text>
<text text-anchor="middle" x="375" y="-11.5" font-family="Helvetica,sans-Serif" font-size="10.00"> TMeta &gt;</text>
</a>
</g>
</g>
<!-- Node4&#45;&gt;Node3 -->
<g id="edge3_Node000003_Node000004" class="edge">
<title>Node4&#45;&gt;Node3</title>
<g id="a_edge3_Node000003_Node000004"><a xlink:title=" ">
<path fill="none" stroke="#63b8ff" d="M461.13,-41.58C470.82,-43.46 480.65,-45.38 490.21,-47.24"/>
<polygon fill="#63b8ff" stroke="#63b8ff" points="461.58,-38.1 451.09,-39.62 460.24,-44.97 461.58,-38.1"/>
</a>
</g>
</g>
<!-- Node8 -->
<g id="Node000008" class="node">
<title>Node8</title>
<g id="a_Node000008"><a xlink:href="interface_fifty_one_1_1_pipeline_1_1_translation_1_1_flow_elements_1_1_i_translation_engine.html" target="_top" xlink:title="Flow element that translates values from a single source element and stores translated values under i...">
<polygon fill="white" stroke="#666666" points="842,-30 664,-30 664,0 842,0 842,-30"/>
<text text-anchor="start" x="672" y="-18" font-family="Helvetica,sans-Serif" font-size="10.00">FiftyOne.Pipeline.Translation.</text>
<text text-anchor="middle" x="753" y="-7" font-family="Helvetica,sans-Serif" font-size="10.00">FlowElements.ITranslationEngine</text>
</a>
</g>
</g>
<!-- Node4&#45;&gt;Node8 -->
<g id="edge8_Node000008_Node000004" class="edge">
<title>Node4&#45;&gt;Node8</title>
<g id="a_edge8_Node000008_Node000004"><a xlink:title=" ">
<path fill="none" stroke="#63b8ff" d="M461.46,-22.73C521.89,-21.12 602.69,-18.97 663.74,-17.35"/>
<polygon fill="#63b8ff" stroke="#63b8ff" points="461.09,-19.24 451.19,-23 461.28,-26.23 461.09,-19.24"/>
</a>
</g>
</g>
<!-- Node5 -->
<g id="Node000005" class="node">
<title>Node5</title>
<g id="a_Node000005"><a xlink:href="interface_fifty_one_1_1_pipeline_1_1_core_1_1_flow_elements_1_1_i_flow_element.html" target="_top" xlink:title="IFlowElement is the basic building block of a pipeline.">
<polygon fill="white" stroke="#666666" points="262,-40 111,-40 111,-10 262,-10 262,-40"/>
<text text-anchor="start" x="119" y="-28" font-family="Helvetica,sans-Serif" font-size="10.00">FiftyOne.Pipeline.Core.Flow</text>
<text text-anchor="middle" x="186.5" y="-17" font-family="Helvetica,sans-Serif" font-size="10.00">Elements.IFlowElement</text>
</a>
</g>
</g>
<!-- Node5&#45;&gt;Node4 -->
<g id="edge4_Node000004_Node000005" class="edge">
<title>Node5&#45;&gt;Node4</title>
<g id="a_edge4_Node000004_Node000005"><a xlink:title=" ">
<path fill="none" stroke="#63b8ff" d="M272.08,-25C281.06,-25 290.14,-25 299,-25"/>
<polygon fill="#63b8ff" stroke="#63b8ff" points="272.01,-21.5 262.01,-25 272.01,-28.5 272.01,-21.5"/>
</a>
</g>
</g>
<!-- Node6 -->
<g id="Node000006" class="node">
<title>Node6</title>
<g id="a_Node000006"><a xlink:title=" ">
<polygon fill="white" stroke="#bfbfbf" points="74,-34.5 0,-34.5 0,-15.5 74,-15.5 74,-34.5"/>
<text text-anchor="middle" x="37" y="-22.5" font-family="Helvetica,sans-Serif" font-size="10.00">IDisposable</text>
</a>
</g>
</g>
<!-- Node6&#45;&gt;Node5 -->
<g id="edge5_Node000005_Node000006" class="edge">
<title>Node6&#45;&gt;Node5</title>
<g id="a_edge5_Node000005_Node000006"><a xlink:title=" ">
<path fill="none" stroke="#63b8ff" d="M84.13,-25C92.63,-25 101.7,-25 110.79,-25"/>
<polygon fill="#63b8ff" stroke="#63b8ff" points="84.08,-21.5 74.08,-25 84.08,-28.5 84.08,-21.5"/>
</a>
</g>
</g>
<!-- Node7 -->
<g id="Node000007" class="node">
<title>Node7</title>
<g id="a_Node000007"><a xlink:href="class_fifty_one_1_1_pipeline_1_1_translation_1_1_data_1_1_languages.html" target="_top" xlink:title="Set of translators for one or more languages, with static utility methods for parsing Accept&#45;Language...">
<polygon fill="white" stroke="#666666" points="646,-131 488,-131 488,-101 646,-101 646,-131"/>
<text text-anchor="start" x="496" y="-119" font-family="Helvetica,sans-Serif" font-size="10.00">FiftyOne.Pipeline.Translation.</text>
<text text-anchor="middle" x="567" y="-108" font-family="Helvetica,sans-Serif" font-size="10.00">Data.Languages</text>
</a>
</g>
</g>
<!-- Node7&#45;&gt;Node2 -->
<g id="edge6_Node000002_Node000007" class="edge">
<title>Node7&#45;&gt;Node2</title>
<g id="a_edge6_Node000002_Node000007"><a xlink:title=" ">
<path fill="none" stroke="#9a32cd" stroke-dasharray="5,2" d="M656.63,-104.17C716.35,-96.2 795.62,-85.61 859.82,-77.04"/>
<polygon fill="#9a32cd" stroke="#9a32cd" points="655.92,-100.73 646.47,-105.52 656.85,-107.67 655.92,-100.73"/>
</a>
</g>
<text text-anchor="start" x="727" y="-107.5" font-family="Helvetica,sans-Serif" font-size="10.00" fill="grey">Languages</text>
</g>
<!-- Node8&#45;&gt;Node1 -->
<g id="edge7_Node000001_Node000008" class="edge">
<title>Node8&#45;&gt;Node1</title>
<g id="a_edge7_Node000001_Node000008"><a xlink:title=" ">
<path fill="none" stroke="#63b8ff" d="M852.2,-18.23C933.01,-20.88 1046.46,-24.61 1123.91,-27.15"/>
<polygon fill="#63b8ff" stroke="#63b8ff" points="852.13,-14.72 842.02,-17.89 851.9,-21.72 852.13,-14.72"/>
</a>
</g>
</g>
</g>
</svg>
