<?xml version="1.0" encoding="UTF-8" standalone="no"?>
<!DOCTYPE svg PUBLIC "-//W3C//DTD SVG 1.1//EN"
 "http://www.w3.org/Graphics/SVG/1.1/DTD/svg11.dtd">
<!-- Generated by graphviz version 2.43.0 (0)
 -->
<!-- Title: FiftyOne.Pipeline.Engines.FiftyOne.FlowElements.FiftyOnePipelineBuilder Pages: 1 -->
<svg width="636pt" height="86pt"
 viewBox="0.00 0.00 636.00 86.00" xmlns="http://www.w3.org/2000/svg" xmlns:xlink="http://www.w3.org/1999/xlink">
<g id="graph0" class="graph" transform="scale(1 1) rotate(0) translate(4 82)">
<title>FiftyOne.Pipeline.Engines.FiftyOne.FlowElements.FiftyOnePipelineBuilder</title>
<!-- Node1 -->
<g id="Node000001" class="node">
<title>Node1</title>
<g id="a_Node000001"><a xlink:title="Pipeline builder class that allows the 51Degrees share usage element to be enabled/disabled.">
<polygon fill="#999999" stroke="#666666" points="628,-59.5 455,-59.5 455,-18.5 628,-18.5 628,-59.5"/>
<text text-anchor="start" x="463" y="-47.5" font-family="Helvetica,sans-Serif" font-size="10.00">FiftyOne.Pipeline.Engines.</text>
<text text-anchor="start" x="463" y="-36.5" font-family="Helvetica,sans-Serif" font-size="10.00">FiftyOne.FlowElements.FiftyOne</text>
<text text-anchor="middle" x="541.5" y="-25.5" font-family="Helvetica,sans-Serif" font-size="10.00">PipelineBuilder</text>
</a>
</g>
</g>
<!-- Node2 -->
<g id="Node000002" class="node">
<title>Node2</title>
<g id="a_Node000002"><a xlink:href="class_fifty_one_1_1_pipeline_1_1_core_1_1_flow_elements_1_1_pipeline_builder.html" target="_top" xlink:title="Default pipeline builder.">
<polygon fill="white" stroke="#666666" points="419,-54 268,-54 268,-24 419,-24 419,-54"/>
<text text-anchor="start" x="276" y="-42" font-family="Helvetica,sans-Serif" font-size="10.00">FiftyOne.Pipeline.Core.Flow</text>
<text text-anchor="middle" x="343.5" y="-31" font-family="Helvetica,sans-Serif" font-size="10.00">Elements.PipelineBuilder</text>
</a>
</g>
</g>
<!-- Node2&#45;&gt;Node1 -->
<g id="edge1_Node000001_Node000002" class="edge">
<title>Node2&#45;&gt;Node1</title>
<g id="a_edge1_Node000001_Node000002"><a xlink:title=" ">
<path fill="none" stroke="#63b8ff" d="M429.39,-39C437.85,-39 446.44,-39 454.9,-39"/>
<polygon fill="#63b8ff" stroke="#63b8ff" points="429.16,-35.5 419.16,-39 429.16,-42.5 429.16,-35.5"/>
</a>
</g>
</g>
<!-- Node3 -->
<g id="Node000003" class="node">
<title>Node3</title>
<g id="a_Node000003"><a xlink:href="class_fifty_one_1_1_pipeline_1_1_core_1_1_flow_elements_1_1_pipeline_builder_base-1-g.html" target="_top" xlink:title="Abstract pipeline builder base class See the Specification.">
<polygon fill="white" stroke="#666666" points="211.5,-78 20.5,-78 20.5,-48 211.5,-48 211.5,-78"/>
<text text-anchor="start" x="28.5" y="-66" font-family="Helvetica,sans-Serif" font-size="10.00">FiftyOne.Pipeline.Core.Flow</text>
<text text-anchor="middle" x="116" y="-55" font-family="Helvetica,sans-Serif" font-size="10.00">Elements.PipelineBuilderBase&lt; T &gt;</text>
</a>
</g>
</g>
<!-- Node3&#45;&gt;Node2 -->
<g id="edge2_Node000002_Node000003" class="edge">
<title>Node3&#45;&gt;Node2</title>
<g id="a_edge2_Node000002_Node000003"><a xlink:title=" ">
<path fill="none" stroke="#63b8ff" d="M221.84,-51.84C237.41,-50.18 253.18,-48.51 267.96,-46.93"/>
<polygon fill="#63b8ff" stroke="#63b8ff" points="221.23,-48.39 211.65,-52.93 221.97,-55.35 221.23,-48.39"/>
</a>
</g>
</g>
<!-- Node4 -->
<g id="Node000004" class="node">
<title>Node4</title>
<g id="a_Node000004"><a xlink:href="interface_fifty_one_1_1_pipeline_1_1_core_1_1_flow_elements_1_1_i_pipeline_builder_from_configuration.html" target="_top" xlink:title="Pipeline builders implementing this interface are capable of building a IPipeline based on a supplied...">
<polygon fill="white" stroke="#666666" points="232,-30 0,-30 0,0 232,0 232,-30"/>
<text text-anchor="start" x="8" y="-18" font-family="Helvetica,sans-Serif" font-size="10.00">FiftyOne.Pipeline.Core.Flow</text>
<text text-anchor="middle" x="116" y="-7" font-family="Helvetica,sans-Serif" font-size="10.00">Elements.IPipelineBuilderFromConfiguration</text>
</a>
</g>
</g>
<!-- Node4&#45;&gt;Node2 -->
<g id="edge3_Node000002_Node000004" class="edge">
<title>Node4&#45;&gt;Node2</title>
<g id="a_edge3_Node000002_Node000004"><a xlink:title=" ">
<path fill="none" stroke="#63b8ff" d="M242.02,-28.31C250.81,-29.24 259.5,-30.17 267.87,-31.06"/>
<polygon fill="#63b8ff" stroke="#63b8ff" points="242.38,-24.82 232.06,-27.25 241.64,-31.78 242.38,-24.82"/>
</a>
</g>
</g>
</g>
</svg>
