<?xml version="1.0" encoding="UTF-8" standalone="no"?>
<!DOCTYPE svg PUBLIC "-//W3C//DTD SVG 1.1//EN"
 "http://www.w3.org/Graphics/SVG/1.1/DTD/svg11.dtd">
<!-- Generated by graphviz version 2.43.0 (0)
 -->
<!-- Title: FiftyOne.Pipeline.Engines.Trackers.TrackerBase&lt; TValue &gt; Pages: 1 -->
<svg width="961pt" height="98pt"
 viewBox="0.00 0.00 961.00 97.50" xmlns="http://www.w3.org/2000/svg" xmlns:xlink="http://www.w3.org/1999/xlink">
<g id="graph0" class="graph" transform="scale(1 1) rotate(0) translate(4 93.5)">
<title>FiftyOne.Pipeline.Engines.Trackers.TrackerBase&lt; TValue &gt;</title>
<!-- Node1 -->
<g id="Node000001" class="node">
<title>Node1</title>
<g id="a_Node000001"><a xlink:title="The abstract base class for trackers.">
<polygon fill="#999999" stroke="#666666" points="721,-57 548,-57 548,-27 721,-27 721,-57"/>
<text text-anchor="start" x="556" y="-45" font-family="Helvetica,sans-Serif" font-size="10.00">FiftyOne.Pipeline.Engines.</text>
<text text-anchor="middle" x="634.5" y="-34" font-family="Helvetica,sans-Serif" font-size="10.00">Trackers.TrackerBase&lt; TValue &gt;</text>
</a>
</g>
</g>
<!-- Node6 -->
<g id="Node000006" class="node">
<title>Node6</title>
<g id="a_Node000006"><a xlink:href="class_fifty_one_1_1_pipeline_1_1_engines_1_1_fifty_one_1_1_trackers_1_1_share_usage_tracker.html" target="_top" xlink:title="A tracker used by share usage to attempt to avoid repeatedly sending data relating to the same user s...">
<polygon fill="white" stroke="#666666" points="953,-57 757,-57 757,-27 953,-27 953,-57"/>
<text text-anchor="start" x="765" y="-45" font-family="Helvetica,sans-Serif" font-size="10.00">FiftyOne.Pipeline.Engines.</text>
<text text-anchor="middle" x="855" y="-34" font-family="Helvetica,sans-Serif" font-size="10.00">FiftyOne.Trackers.ShareUsageTracker</text>
</a>
</g>
</g>
<!-- Node1&#45;&gt;Node6 -->
<g id="edge5_Node000001_Node000006" class="edge">
<title>Node1&#45;&gt;Node6</title>
<g id="a_edge5_Node000001_Node000006"><a xlink:title=" ">
<path fill="none" stroke="#63b8ff" d="M731.47,-42C739.92,-42 748.48,-42 756.94,-42"/>
<polygon fill="#63b8ff" stroke="#63b8ff" points="731.23,-38.5 721.23,-42 731.23,-45.5 731.23,-38.5"/>
</a>
</g>
</g>
<!-- Node2 -->
<g id="Node000002" class="node">
<title>Node2</title>
<g id="a_Node000002"><a xlink:href="class_fifty_one_1_1_pipeline_1_1_engines_1_1_caching_1_1_data_keyed_cache_base-1-g.html" target="_top" xlink:title="Abstract base class for caches that use IFlowData as the key.">
<polygon fill="white" stroke="#666666" points="512,-89.5 346,-89.5 346,-48.5 512,-48.5 512,-89.5"/>
<text text-anchor="start" x="354" y="-77.5" font-family="Helvetica,sans-Serif" font-size="10.00">FiftyOne.Pipeline.Engines.</text>
<text text-anchor="start" x="354" y="-66.5" font-family="Helvetica,sans-Serif" font-size="10.00">Caching.DataKeyedCacheBase</text>
<text text-anchor="middle" x="429" y="-55.5" font-family="Helvetica,sans-Serif" font-size="10.00">&lt; TValue &gt;</text>
</a>
</g>
</g>
<!-- Node2&#45;&gt;Node1 -->
<g id="edge1_Node000001_Node000002" class="edge">
<title>Node2&#45;&gt;Node1</title>
<g id="a_edge1_Node000001_Node000002"><a xlink:title=" ">
<path fill="none" stroke="#63b8ff" d="M522.12,-56.78C530.63,-55.65 539.24,-54.51 547.69,-53.39"/>
<polygon fill="#63b8ff" stroke="#63b8ff" points="521.64,-53.31 512.18,-58.1 522.56,-60.25 521.64,-53.31"/>
</a>
</g>
</g>
<!-- Node3 -->
<g id="Node000003" class="node">
<title>Node3</title>
<g id="a_Node000003"><a xlink:href="interface_fifty_one_1_1_pipeline_1_1_engines_1_1_caching_1_1_i_data_keyed_cache-1-g.html" target="_top" xlink:title="Represents a put cache where the key is a IFlowData instance.">
<polygon fill="white" stroke="#666666" points="310,-89.5 165,-89.5 165,-48.5 310,-48.5 310,-89.5"/>
<text text-anchor="start" x="173" y="-77.5" font-family="Helvetica,sans-Serif" font-size="10.00">FiftyOne.Pipeline.Engines.</text>
<text text-anchor="start" x="173" y="-66.5" font-family="Helvetica,sans-Serif" font-size="10.00">Caching.IDataKeyedCache</text>
<text text-anchor="middle" x="237.5" y="-55.5" font-family="Helvetica,sans-Serif" font-size="10.00">&lt; TValue &gt;</text>
</a>
</g>
</g>
<!-- Node3&#45;&gt;Node2 -->
<g id="edge2_Node000002_Node000003" class="edge">
<title>Node3&#45;&gt;Node2</title>
<g id="a_edge2_Node000002_Node000003"><a xlink:title=" ">
<path fill="none" stroke="#63b8ff" d="M320.34,-69C328.77,-69 337.33,-69 345.77,-69"/>
<polygon fill="#63b8ff" stroke="#63b8ff" points="320.14,-65.5 310.14,-69 320.14,-72.5 320.14,-65.5"/>
</a>
</g>
</g>
<!-- Node4 -->
<g id="Node000004" class="node">
<title>Node4</title>
<g id="a_Node000004"><a xlink:title=" ">
<polygon fill="white" stroke="#bfbfbf" points="129,-84 0,-84 0,-54 129,-54 129,-84"/>
<text text-anchor="start" x="8" y="-72" font-family="Helvetica,sans-Serif" font-size="10.00">IPutCache&lt; IFlowData,</text>
<text text-anchor="middle" x="64.5" y="-61" font-family="Helvetica,sans-Serif" font-size="10.00"> TValue &gt;</text>
</a>
</g>
</g>
<!-- Node4&#45;&gt;Node3 -->
<g id="edge3_Node000003_Node000004" class="edge">
<title>Node4&#45;&gt;Node3</title>
<g id="a_edge3_Node000003_Node000004"><a xlink:title=" ">
<path fill="none" stroke="#63b8ff" d="M139.34,-69C147.76,-69 156.33,-69 164.72,-69"/>
<polygon fill="#63b8ff" stroke="#63b8ff" points="139.17,-65.5 129.17,-69 139.17,-72.5 139.17,-65.5"/>
</a>
</g>
</g>
<!-- Node5 -->
<g id="Node000005" class="node">
<title>Node5</title>
<g id="a_Node000005"><a xlink:href="interface_fifty_one_1_1_pipeline_1_1_engines_1_1_trackers_1_1_i_tracker.html" target="_top" xlink:title=" ">
<polygon fill="white" stroke="#666666" points="500.5,-30 357.5,-30 357.5,0 500.5,0 500.5,-30"/>
<text text-anchor="start" x="365.5" y="-18" font-family="Helvetica,sans-Serif" font-size="10.00">FiftyOne.Pipeline.Engines.</text>
<text text-anchor="middle" x="429" y="-7" font-family="Helvetica,sans-Serif" font-size="10.00">Trackers.ITracker</text>
</a>
</g>
</g>
<!-- Node5&#45;&gt;Node1 -->
<g id="edge4_Node000001_Node000005" class="edge">
<title>Node5&#45;&gt;Node1</title>
<g id="a_edge4_Node000001_Node000005"><a xlink:title=" ">
<path fill="none" stroke="#63b8ff" d="M510.76,-25.71C522.98,-27.34 535.62,-29.01 547.95,-30.65"/>
<polygon fill="#63b8ff" stroke="#63b8ff" points="510.98,-22.21 500.6,-24.37 510.06,-29.15 510.98,-22.21"/>
</a>
</g>
</g>
</g>
</svg>
