<?xml version="1.0" encoding="UTF-8" standalone="no"?>
<!DOCTYPE svg PUBLIC "-//W3C//DTD SVG 1.1//EN"
 "http://www.w3.org/Graphics/SVG/1.1/DTD/svg11.dtd">
<!-- Generated by graphviz version 2.43.0 (0)
 -->
<!-- Title: FiftyOne.Pipeline.Core.Data.ElementPropertyMetaData Pages: 1 -->
<svg width="209pt" height="247pt"
 viewBox="0.00 0.00 209.00 247.00" xmlns="http://www.w3.org/2000/svg" xmlns:xlink="http://www.w3.org/1999/xlink">
<g id="graph0" class="graph" transform="scale(1 1) rotate(0) translate(4 243)">
<title>FiftyOne.Pipeline.Core.Data.ElementPropertyMetaData</title>
<!-- Node1 -->
<g id="Node000001" class="node">
<title>Node1</title>
<g id="a_Node000001"><a xlink:title="Meta&#45;data relating to properties that are populated by Flow Elements.">
<polygon fill="#999999" stroke="#666666" points="177.5,-173 23.5,-173 23.5,-143 177.5,-143 177.5,-173"/>
<text text-anchor="start" x="31.5" y="-161" font-family="Helvetica,sans-Serif" font-size="10.00">FiftyOne.Pipeline.Core.Data.</text>
<text text-anchor="middle" x="100.5" y="-150" font-family="Helvetica,sans-Serif" font-size="10.00">ElementPropertyMetaData</text>
</a>
</g>
</g>
<!-- Node3 -->
<g id="Node000003" class="node">
<title>Node3</title>
<g id="a_Node000003"><a xlink:href="class_fifty_one_1_1_pipeline_1_1_engines_1_1_data_1_1_aspect_property_meta_data.html" target="_top" xlink:title="Meta&#45;data relating to properties that are populated by Aspect Engines.">
<polygon fill="white" stroke="#666666" points="183,-107 18,-107 18,-77 183,-77 183,-107"/>
<text text-anchor="start" x="26" y="-95" font-family="Helvetica,sans-Serif" font-size="10.00">FiftyOne.Pipeline.Engines.</text>
<text text-anchor="middle" x="100.5" y="-84" font-family="Helvetica,sans-Serif" font-size="10.00">Data.AspectPropertyMetaData</text>
</a>
</g>
</g>
<!-- Node1&#45;&gt;Node3 -->
<g id="edge2_Node000001_Node000003" class="edge">
<title>Node1&#45;&gt;Node3</title>
<g id="a_edge2_Node000001_Node000003"><a xlink:title=" ">
<path fill="none" stroke="#63b8ff" d="M100.5,-132.54C100.5,-123.96 100.5,-114.61 100.5,-107.16"/>
<polygon fill="#63b8ff" stroke="#63b8ff" points="97,-132.8 100.5,-142.8 104,-132.8 97,-132.8"/>
</a>
</g>
</g>
<!-- Node2 -->
<g id="Node000002" class="node">
<title>Node2</title>
<g id="a_Node000002"><a xlink:href="interface_fifty_one_1_1_pipeline_1_1_core_1_1_data_1_1_i_element_property_meta_data.html" target="_top" xlink:title="Represents meta&#45;data relating to a property that is populated by a IFlowElement instance.">
<polygon fill="white" stroke="#666666" points="177.5,-239 23.5,-239 23.5,-209 177.5,-209 177.5,-239"/>
<text text-anchor="start" x="31.5" y="-227" font-family="Helvetica,sans-Serif" font-size="10.00">FiftyOne.Pipeline.Core.Data.</text>
<text text-anchor="middle" x="100.5" y="-216" font-family="Helvetica,sans-Serif" font-size="10.00">IElementPropertyMetaData</text>
</a>
</g>
</g>
<!-- Node2&#45;&gt;Node1 -->
<g id="edge1_Node000001_Node000002" class="edge">
<title>Node2&#45;&gt;Node1</title>
<g id="a_edge1_Node000001_Node000002"><a xlink:title=" ">
<path fill="none" stroke="#63b8ff" d="M100.5,-198.54C100.5,-189.96 100.5,-180.61 100.5,-173.16"/>
<polygon fill="#63b8ff" stroke="#63b8ff" points="97,-198.8 100.5,-208.8 104,-198.8 97,-198.8"/>
</a>
</g>
</g>
<!-- Node4 -->
<g id="Node000004" class="node">
<title>Node4</title>
<g id="a_Node000004"><a xlink:href="class_fifty_one_1_1_pipeline_1_1_engines_1_1_fifty_one_1_1_data_1_1_fifty_one_aspect_property_meta_data_default.html" target="_top" xlink:title="Data class that contains meta&#45;data relating to a specific property.">
<polygon fill="white" stroke="#666666" points="201,-41 0,-41 0,0 201,0 201,-41"/>
<text text-anchor="start" x="8" y="-29" font-family="Helvetica,sans-Serif" font-size="10.00">FiftyOne.Pipeline.Engines.</text>
<text text-anchor="start" x="8" y="-18" font-family="Helvetica,sans-Serif" font-size="10.00">FiftyOne.Data.FiftyOneAspectProperty</text>
<text text-anchor="middle" x="100.5" y="-7" font-family="Helvetica,sans-Serif" font-size="10.00">MetaDataDefault</text>
</a>
</g>
</g>
<!-- Node3&#45;&gt;Node4 -->
<g id="edge3_Node000003_Node000004" class="edge">
<title>Node3&#45;&gt;Node4</title>
<g id="a_edge3_Node000003_Node000004"><a xlink:title=" ">
<path fill="none" stroke="#63b8ff" d="M100.5,-66.91C100.5,-58.47 100.5,-49.1 100.5,-41.07"/>
<polygon fill="#63b8ff" stroke="#63b8ff" points="97,-66.94 100.5,-76.94 104,-66.94 97,-66.94"/>
</a>
</g>
</g>
</g>
</svg>
