<?xml version="1.0" encoding="UTF-8" standalone="no"?>
<!DOCTYPE svg PUBLIC "-//W3C//DTD SVG 1.1//EN"
 "http://www.w3.org/Graphics/SVG/1.1/DTD/svg11.dtd">
<!-- Generated by graphviz version 2.43.0 (0)
 -->
<!-- Title: FiftyOne.Pipeline.Core.FlowElements.FlowElementBase&lt; T, TMeta &gt; Pages: 1 -->
<svg width="1398pt" height="709pt"
 viewBox="0.00 0.00 1398.00 709.00" xmlns="http://www.w3.org/2000/svg" xmlns:xlink="http://www.w3.org/1999/xlink">
<g id="graph0" class="graph" transform="scale(1 1) rotate(0) translate(4 705)">
<title>FiftyOne.Pipeline.Core.FlowElements.FlowElementBase&lt; T, TMeta &gt;</title>
<!-- Node1 -->
<g id="Node000001" class="node">
<title>Node1</title>
<g id="a_Node000001"><a xlink:title="Abstract base class for Flow Elements.">
<polygon fill="#999999" stroke="#666666" points="638,-368.5 485,-368.5 485,-327.5 638,-327.5 638,-368.5"/>
<text text-anchor="start" x="493" y="-356.5" font-family="Helvetica,sans-Serif" font-size="10.00">FiftyOne.Pipeline.Core.Flow</text>
<text text-anchor="start" x="493" y="-345.5" font-family="Helvetica,sans-Serif" font-size="10.00">Elements.FlowElementBase</text>
<text text-anchor="middle" x="561.5" y="-334.5" font-family="Helvetica,sans-Serif" font-size="10.00">&lt; T, TMeta &gt;</text>
</a>
</g>
</g>
<!-- Node5 -->
<g id="Node000005" class="node">
<title>Node5</title>
<g id="a_Node000005"><a xlink:href="class_examples_1_1_client_side_evidence_1_1_shared_1_1_simple_client_side_element.html" target="_top" xlink:title=" ">
<polygon fill="white" stroke="#666666" points="876,-701 699,-701 699,-671 876,-671 876,-701"/>
<text text-anchor="start" x="707" y="-689" font-family="Helvetica,sans-Serif" font-size="10.00">Examples.ClientSideEvidence.</text>
<text text-anchor="middle" x="787.5" y="-678" font-family="Helvetica,sans-Serif" font-size="10.00">Shared.SimpleClientSideElement</text>
</a>
</g>
</g>
<!-- Node1&#45;&gt;Node5 -->
<g id="edge4_Node000001_Node000005" class="edge">
<title>Node1&#45;&gt;Node5</title>
<g id="a_edge4_Node000001_Node000005"><a xlink:title=" ">
<path fill="none" stroke="#63b8ff" d="M563.91,-378.74C568.55,-441.98 588.48,-587.01 674,-662 681.28,-668.39 689.84,-673.21 698.94,-676.84"/>
<polygon fill="#63b8ff" stroke="#63b8ff" points="567.39,-378.36 563.25,-368.61 560.41,-378.82 567.39,-378.36"/>
</a>
</g>
</g>
<!-- Node6 -->
<g id="Node000006" class="node">
<title>Node6</title>
<g id="a_Node000006"><a xlink:href="class_examples_1_1_custom_flow_element_1_1_flow_elements_1_1_simple_flow_element.html" target="_top" xlink:title=" ">
<polygon fill="white" stroke="#666666" points="880.5,-653 694.5,-653 694.5,-623 880.5,-623 880.5,-653"/>
<text text-anchor="start" x="702.5" y="-641" font-family="Helvetica,sans-Serif" font-size="10.00">Examples.CustomFlowElement.</text>
<text text-anchor="middle" x="787.5" y="-630" font-family="Helvetica,sans-Serif" font-size="10.00">FlowElements.SimpleFlowElement</text>
</a>
</g>
</g>
<!-- Node1&#45;&gt;Node6 -->
<g id="edge5_Node000001_Node000006" class="edge">
<title>Node1&#45;&gt;Node6</title>
<g id="a_edge5_Node000001_Node000006"><a xlink:title=" ">
<path fill="none" stroke="#63b8ff" d="M566.15,-378.78C574.49,-434.72 600.29,-552.91 674,-614 680.07,-619.03 686.95,-623.09 694.24,-626.34"/>
<polygon fill="#63b8ff" stroke="#63b8ff" points="569.6,-378.19 564.75,-368.77 562.67,-379.16 569.6,-378.19"/>
</a>
</g>
</g>
<!-- Node7 -->
<g id="Node000007" class="node">
<title>Node7</title>
<g id="a_Node000007"><a xlink:href="class_fifty_one_1_1_pipeline_1_1_agent_signature_1_1_flow_element_1_1_agent_signature_element.html" target="_top" xlink:title="Reads the three HTTP headers an automated agent sends when it signs its request under the IETF Web Bo...">
<polygon fill="white" stroke="#666666" points="887,-605 688,-605 688,-575 887,-575 887,-605"/>
<text text-anchor="start" x="696" y="-593" font-family="Helvetica,sans-Serif" font-size="10.00">FiftyOne.Pipeline.AgentSignature.</text>
<text text-anchor="middle" x="787.5" y="-582" font-family="Helvetica,sans-Serif" font-size="10.00">FlowElement.AgentSignatureElement</text>
</a>
</g>
</g>
<!-- Node1&#45;&gt;Node7 -->
<g id="edge6_Node000001_Node000007" class="edge">
<title>Node1&#45;&gt;Node7</title>
<g id="a_edge6_Node000001_Node000007"><a xlink:title=" ">
<path fill="none" stroke="#63b8ff" d="M569.18,-378.38C581.33,-426.15 611.77,-518.29 674,-566 678.44,-569.4 683.25,-572.35 688.3,-574.89"/>
<polygon fill="#63b8ff" stroke="#63b8ff" points="572.56,-377.5 566.79,-368.61 565.76,-379.16 572.56,-377.5"/>
</a>
</g>
</g>
<!-- Node8 -->
<g id="Node000008" class="node">
<title>Node8</title>
<g id="a_Node000008"><a xlink:title=" ">
<polygon fill="white" stroke="#666666" points="863,-557 712,-557 712,-527 863,-527 863,-557"/>
<text text-anchor="start" x="720" y="-545" font-family="Helvetica,sans-Serif" font-size="10.00">FiftyOne.Pipeline.Core.Flow</text>
<text text-anchor="middle" x="787.5" y="-534" font-family="Helvetica,sans-Serif" font-size="10.00">Elements.ParallelElements</text>
</a>
</g>
</g>
<!-- Node1&#45;&gt;Node8 -->
<g id="edge7_Node000001_Node000008" class="edge">
<title>Node1&#45;&gt;Node8</title>
<g id="a_edge7_Node000001_Node000008"><a xlink:title=" ">
<path fill="none" stroke="#63b8ff" d="M573.78,-378.2C589.86,-416.93 623.2,-483.23 674,-518 685.21,-525.67 698.4,-530.96 711.73,-534.59"/>
<polygon fill="#63b8ff" stroke="#63b8ff" points="576.86,-376.49 569.88,-368.52 570.37,-379.1 576.86,-376.49"/>
</a>
</g>
</g>
<!-- Node9 -->
<g id="Node000009" class="node">
<title>Node9</title>
<g id="a_Node000009"><a xlink:href="class_fifty_one_1_1_pipeline_1_1_engines_1_1_fifty_one_1_1_flow_elements_1_1_sequence_element.html" target="_top" xlink:title="Sequence element establishes session and sequence evidence in the pipeline.">
<polygon fill="white" stroke="#666666" points="877,-508.5 698,-508.5 698,-467.5 877,-467.5 877,-508.5"/>
<text text-anchor="start" x="706" y="-496.5" font-family="Helvetica,sans-Serif" font-size="10.00">FiftyOne.Pipeline.Engines.</text>
<text text-anchor="start" x="706" y="-485.5" font-family="Helvetica,sans-Serif" font-size="10.00">FiftyOne.FlowElements.Sequence</text>
<text text-anchor="middle" x="787.5" y="-474.5" font-family="Helvetica,sans-Serif" font-size="10.00">Element</text>
</a>
</g>
</g>
<!-- Node1&#45;&gt;Node9 -->
<g id="edge8_Node000001_Node000009" class="edge">
<title>Node1&#45;&gt;Node9</title>
<g id="a_edge8_Node000001_Node000009"><a xlink:title=" ">
<path fill="none" stroke="#63b8ff" d="M583.88,-376.65C604.3,-401.99 637.32,-438.11 674,-459 681.45,-463.24 689.52,-466.88 697.81,-469.98"/>
<polygon fill="#63b8ff" stroke="#63b8ff" points="586.39,-374.18 577.45,-368.5 580.9,-378.52 586.39,-374.18"/>
</a>
</g>
</g>
<!-- Node10 -->
<g id="Node000010" class="node">
<title>Node10</title>
<g id="a_Node000010"><a xlink:href="class_fifty_one_1_1_pipeline_1_1_engines_1_1_fifty_one_1_1_flow_elements_1_1_set_headers_element.html" target="_top" xlink:title="This element is used to determine the values for HTTP headers that other elements in the pipeline wan...">
<polygon fill="white" stroke="#666666" points="881.5,-449.5 693.5,-449.5 693.5,-408.5 881.5,-408.5 881.5,-449.5"/>
<text text-anchor="start" x="701.5" y="-437.5" font-family="Helvetica,sans-Serif" font-size="10.00">FiftyOne.Pipeline.Engines.</text>
<text text-anchor="start" x="701.5" y="-426.5" font-family="Helvetica,sans-Serif" font-size="10.00">FiftyOne.FlowElements.SetHeaders</text>
<text text-anchor="middle" x="787.5" y="-415.5" font-family="Helvetica,sans-Serif" font-size="10.00">Element</text>
</a>
</g>
</g>
<!-- Node1&#45;&gt;Node10 -->
<g id="edge9_Node000001_Node000010" class="edge">
<title>Node1&#45;&gt;Node10</title>
<g id="a_edge9_Node000001_Node000010"><a xlink:title=" ">
<path fill="none" stroke="#63b8ff" d="M612.19,-372.9C631.23,-381.86 653.34,-391.58 674,-399 683.32,-402.35 693.2,-405.51 703.07,-408.44"/>
<polygon fill="#63b8ff" stroke="#63b8ff" points="613.65,-369.72 603.12,-368.58 610.64,-376.04 613.65,-369.72"/>
</a>
</g>
</g>
<!-- Node11 -->
<g id="Node000011" class="node">
<title>Node11</title>
<g id="a_Node000011"><a xlink:href="class_fifty_one_1_1_pipeline_1_1_engines_1_1_fifty_one_1_1_flow_elements_1_1_share_usage_base.html" target="_top" xlink:title="Abstract base class for ShareUsage elements.">
<polygon fill="white" stroke="#666666" points="895,-390 680,-390 680,-360 895,-360 895,-390"/>
<text text-anchor="start" x="688" y="-378" font-family="Helvetica,sans-Serif" font-size="10.00">FiftyOne.Pipeline.Engines.</text>
<text text-anchor="middle" x="787.5" y="-367" font-family="Helvetica,sans-Serif" font-size="10.00">FiftyOne.FlowElements.ShareUsageBase</text>
</a>
</g>
</g>
<!-- Node1&#45;&gt;Node11 -->
<g id="edge10_Node000001_Node000011" class="edge">
<title>Node1&#45;&gt;Node11</title>
<g id="a_edge10_Node000001_Node000011"><a xlink:title=" ">
<path fill="none" stroke="#63b8ff" d="M648.26,-358.34C658.61,-359.58 669.27,-360.87 679.88,-362.15"/>
<polygon fill="#63b8ff" stroke="#63b8ff" points="648.37,-354.83 638.02,-357.1 647.53,-361.77 648.37,-354.83"/>
</a>
</g>
</g>
<!-- Node13 -->
<g id="Node000013" class="node">
<title>Node13</title>
<g id="a_Node000013"><a xlink:href="class_fifty_one_1_1_pipeline_1_1_engines_1_1_flow_elements_1_1_aspect_engine_base-2-g.html" target="_top" xlink:title="Base class for 51Degrees aspect engines.">
<polygon fill="white" stroke="#666666" points="877,-341.5 698,-341.5 698,-300.5 877,-300.5 877,-341.5"/>
<text text-anchor="start" x="706" y="-329.5" font-family="Helvetica,sans-Serif" font-size="10.00">FiftyOne.Pipeline.Engines.</text>
<text text-anchor="start" x="706" y="-318.5" font-family="Helvetica,sans-Serif" font-size="10.00">FlowElements.AspectEngineBase</text>
<text text-anchor="middle" x="787.5" y="-307.5" font-family="Helvetica,sans-Serif" font-size="10.00">&lt; T, TMeta &gt;</text>
</a>
</g>
</g>
<!-- Node1&#45;&gt;Node13 -->
<g id="edge12_Node000001_Node000013" class="edge">
<title>Node1&#45;&gt;Node13</title>
<g id="a_edge12_Node000001_Node000013"><a xlink:title=" ">
<path fill="none" stroke="#63b8ff" d="M648.04,-337.69C664.32,-335.73 681.38,-333.67 697.75,-331.7"/>
<polygon fill="#63b8ff" stroke="#63b8ff" points="647.53,-334.23 638.02,-338.9 648.37,-341.17 647.53,-334.23"/>
</a>
</g>
</g>
<!-- Node18 -->
<g id="Node000018" class="node">
<title>Node18</title>
<g id="a_Node000018"><a xlink:href="class_fifty_one_1_1_pipeline_1_1_ip_splitter_1_1_ip_splitter_element.html" target="_top" xlink:title=" ">
<polygon fill="white" stroke="#bfbfbf" points="862,-282 713,-282 713,-252 862,-252 862,-282"/>
<text text-anchor="start" x="721" y="-270" font-family="Helvetica,sans-Serif" font-size="10.00">FiftyOne.Pipeline.IpSplitter.</text>
<text text-anchor="middle" x="787.5" y="-259" font-family="Helvetica,sans-Serif" font-size="10.00">IpSplitterElement</text>
</a>
</g>
</g>
<!-- Node1&#45;&gt;Node18 -->
<g id="edge17_Node000001_Node000018" class="edge">
<title>Node1&#45;&gt;Node18</title>
<g id="a_edge17_Node000001_Node000018"><a xlink:title=" ">
<path fill="none" stroke="#63b8ff" d="M606.02,-322.39C626.15,-311.42 650.73,-299.27 674,-291 686.33,-286.62 699.71,-282.91 712.8,-279.82"/>
<polygon fill="#63b8ff" stroke="#63b8ff" points="604.15,-319.42 597.1,-327.32 607.54,-325.54 604.15,-319.42"/>
</a>
</g>
</g>
<!-- Node19 -->
<g id="Node000019" class="node">
<title>Node19</title>
<g id="a_Node000019"><a xlink:href="class_fifty_one_1_1_pipeline_1_1_java_script_builder_1_1_flow_element_1_1_java_script_builder_element.html" target="_top" xlink:title="JavaScript Builder Element generates a JavaScript include to be run on the client device.">
<polygon fill="white" stroke="#666666" points="889,-233.5 686,-233.5 686,-192.5 889,-192.5 889,-233.5"/>
<text text-anchor="start" x="694" y="-221.5" font-family="Helvetica,sans-Serif" font-size="10.00">FiftyOne.Pipeline.JavaScript</text>
<text text-anchor="start" x="694" y="-210.5" font-family="Helvetica,sans-Serif" font-size="10.00">Builder.FlowElement.JavaScriptBuilder</text>
<text text-anchor="middle" x="787.5" y="-199.5" font-family="Helvetica,sans-Serif" font-size="10.00">Element</text>
</a>
</g>
</g>
<!-- Node1&#45;&gt;Node19 -->
<g id="edge18_Node000001_Node000019" class="edge">
<title>Node1&#45;&gt;Node19</title>
<g id="a_edge18_Node000001_Node000019"><a xlink:title=" ">
<path fill="none" stroke="#63b8ff" d="M585.34,-319.75C606.07,-295.92 638.73,-262.64 674,-243 680.36,-239.46 687.15,-236.32 694.14,-233.54"/>
<polygon fill="#63b8ff" stroke="#63b8ff" points="582.61,-317.56 578.78,-327.44 587.93,-322.1 582.61,-317.56"/>
</a>
</g>
</g>
<!-- Node20 -->
<g id="Node000020" class="node">
<title>Node20</title>
<g id="a_Node000020"><a xlink:href="class_fifty_one_1_1_pipeline_1_1_json_builder_1_1_flow_element_1_1_json_builder_element.html" target="_top" xlink:title="The JsonBuilderElement takes accessible properties and adds the property key:values to the Json objec...">
<polygon fill="white" stroke="#666666" points="877,-174 698,-174 698,-144 877,-144 877,-174"/>
<text text-anchor="start" x="706" y="-162" font-family="Helvetica,sans-Serif" font-size="10.00">FiftyOne.Pipeline.JsonBuilder.</text>
<text text-anchor="middle" x="787.5" y="-151" font-family="Helvetica,sans-Serif" font-size="10.00">FlowElement.JsonBuilderElement</text>
</a>
</g>
</g>
<!-- Node1&#45;&gt;Node20 -->
<g id="edge19_Node000001_Node000020" class="edge">
<title>Node1&#45;&gt;Node20</title>
<g id="a_edge19_Node000001_Node000020"><a xlink:title=" ">
<path fill="none" stroke="#63b8ff" d="M574.41,-317.78C590.91,-280.07 624.4,-216.45 674,-183 681.29,-178.09 689.39,-174.15 697.82,-171.01"/>
<polygon fill="#63b8ff" stroke="#63b8ff" points="571.09,-316.66 570.4,-327.24 577.53,-319.4 571.09,-316.66"/>
</a>
</g>
</g>
<!-- Node21 -->
<g id="Node000021" class="node">
<title>Node21</title>
<g id="a_Node000021"><a xlink:href="class_fifty_one_1_1_pipeline_1_1_math_1_1_math_element.html" target="_top" xlink:title=" ">
<polygon fill="white" stroke="#bfbfbf" points="865,-126 710,-126 710,-96 865,-96 865,-126"/>
<text text-anchor="start" x="718" y="-114" font-family="Helvetica,sans-Serif" font-size="10.00">FiftyOne.Pipeline.Math.Math</text>
<text text-anchor="middle" x="787.5" y="-103" font-family="Helvetica,sans-Serif" font-size="10.00">Element</text>
</a>
</g>
</g>
<!-- Node1&#45;&gt;Node21 -->
<g id="edge20_Node000001_Node000021" class="edge">
<title>Node1&#45;&gt;Node21</title>
<g id="a_edge20_Node000001_Node000021"><a xlink:title=" ">
<path fill="none" stroke="#63b8ff" d="M569.66,-317.3C582.28,-270.33 613.11,-181.22 674,-135 684.5,-127.03 697.06,-121.57 709.93,-117.87"/>
<polygon fill="#63b8ff" stroke="#63b8ff" points="566.21,-316.64 567.1,-327.2 572.99,-318.39 566.21,-316.64"/>
</a>
</g>
</g>
<!-- Node22 -->
<g id="Node000022" class="node">
<title>Node22</title>
<g id="a_Node000022"><a xlink:href="class_fifty_one_1_1_pipeline_1_1_translation_1_1_flow_elements_1_1_translation_engine_base-1-g.html" target="_top" xlink:title="Flow element that translates values from a single source element and stores translated values under i...">
<polygon fill="white" stroke="#666666" points="901,-78 674,-78 674,-48 901,-48 901,-78"/>
<text text-anchor="start" x="682" y="-66" font-family="Helvetica,sans-Serif" font-size="10.00">FiftyOne.Pipeline.Translation.</text>
<text text-anchor="middle" x="787.5" y="-55" font-family="Helvetica,sans-Serif" font-size="10.00">FlowElements.TranslationEngineBase&lt; T &gt;</text>
</a>
</g>
</g>
<!-- Node1&#45;&gt;Node22 -->
<g id="edge21_Node000001_Node000022" class="edge">
<title>Node1&#45;&gt;Node22</title>
<g id="a_edge21_Node000001_Node000022"><a xlink:title=" ">
<path fill="none" stroke="#63b8ff" d="M566.45,-317.04C575.22,-261.82 601.59,-146.59 674,-87 678.16,-83.57 682.7,-80.6 687.48,-78.03"/>
<polygon fill="#63b8ff" stroke="#63b8ff" points="562.95,-316.84 564.93,-327.24 569.87,-317.87 562.95,-316.84"/>
</a>
</g>
</g>
<!-- Node24 -->
<g id="Node000024" class="node">
<title>Node24</title>
<g id="a_Node000024"><a xlink:href="class_fifty_one_1_1_pipeline_1_1_translation_1_1_tests_1_1_evidence_copy_element.html" target="_top" xlink:title="Element that just copies the evidence into its element data.">
<polygon fill="white" stroke="#666666" points="866.5,-30 708.5,-30 708.5,0 866.5,0 866.5,-30"/>
<text text-anchor="start" x="716.5" y="-18" font-family="Helvetica,sans-Serif" font-size="10.00">FiftyOne.Pipeline.Translation.</text>
<text text-anchor="middle" x="787.5" y="-7" font-family="Helvetica,sans-Serif" font-size="10.00">Tests.EvidenceCopyElement</text>
</a>
</g>
</g>
<!-- Node1&#45;&gt;Node24 -->
<g id="edge23_Node000001_Node000024" class="edge">
<title>Node1&#45;&gt;Node24</title>
<g id="a_edge23_Node000001_Node000024"><a xlink:title=" ">
<path fill="none" stroke="#63b8ff" d="M564.11,-317.29C569.12,-254.8 589.7,-112.54 674,-39 683.78,-30.47 695.85,-24.72 708.41,-20.89"/>
<polygon fill="#63b8ff" stroke="#63b8ff" points="560.62,-317.08 563.39,-327.31 567.6,-317.58 560.62,-317.08"/>
</a>
</g>
</g>
<!-- Node2 -->
<g id="Node000002" class="node">
<title>Node2</title>
<g id="a_Node000002"><a xlink:href="interface_fifty_one_1_1_pipeline_1_1_core_1_1_flow_elements_1_1_i_flow_element-2-g.html" target="_top" xlink:title="Generic interface that extends IFlowElement with the ability to return a ITypedKey&lt;T&gt; that will allow...">
<polygon fill="white" stroke="#666666" points="449,-368.5 297,-368.5 297,-327.5 449,-327.5 449,-368.5"/>
<text text-anchor="start" x="305" y="-356.5" font-family="Helvetica,sans-Serif" font-size="10.00">FiftyOne.Pipeline.Core.Flow</text>
<text text-anchor="start" x="305" y="-345.5" font-family="Helvetica,sans-Serif" font-size="10.00">Elements.IFlowElement&lt; T,</text>
<text text-anchor="middle" x="373" y="-334.5" font-family="Helvetica,sans-Serif" font-size="10.00"> TMeta &gt;</text>
</a>
</g>
</g>
<!-- Node2&#45;&gt;Node1 -->
<g id="edge1_Node000001_Node000002" class="edge">
<title>Node2&#45;&gt;Node1</title>
<g id="a_edge1_Node000001_Node000002"><a xlink:title=" ">
<path fill="none" stroke="#63b8ff" d="M459.12,-348C467.75,-348 476.48,-348 485,-348"/>
<polygon fill="#63b8ff" stroke="#63b8ff" points="459.05,-344.5 449.05,-348 459.05,-351.5 459.05,-344.5"/>
</a>
</g>
</g>
<!-- Node3 -->
<g id="Node000003" class="node">
<title>Node3</title>
<g id="a_Node000003"><a xlink:href="interface_fifty_one_1_1_pipeline_1_1_core_1_1_flow_elements_1_1_i_flow_element.html" target="_top" xlink:title="IFlowElement is the basic building block of a pipeline.">
<polygon fill="white" stroke="#666666" points="261,-363 110,-363 110,-333 261,-333 261,-363"/>
<text text-anchor="start" x="118" y="-351" font-family="Helvetica,sans-Serif" font-size="10.00">FiftyOne.Pipeline.Core.Flow</text>
<text text-anchor="middle" x="185.5" y="-340" font-family="Helvetica,sans-Serif" font-size="10.00">Elements.IFlowElement</text>
</a>
</g>
</g>
<!-- Node3&#45;&gt;Node2 -->
<g id="edge2_Node000002_Node000003" class="edge">
<title>Node3&#45;&gt;Node2</title>
<g id="a_edge2_Node000002_Node000003"><a xlink:title=" ">
<path fill="none" stroke="#63b8ff" d="M271.16,-348C279.75,-348 288.43,-348 296.9,-348"/>
<polygon fill="#63b8ff" stroke="#63b8ff" points="271.15,-344.5 261.15,-348 271.15,-351.5 271.15,-344.5"/>
</a>
</g>
</g>
<!-- Node4 -->
<g id="Node000004" class="node">
<title>Node4</title>
<g id="a_Node000004"><a xlink:title=" ">
<polygon fill="white" stroke="#bfbfbf" points="74,-357.5 0,-357.5 0,-338.5 74,-338.5 74,-357.5"/>
<text text-anchor="middle" x="37" y="-345.5" font-family="Helvetica,sans-Serif" font-size="10.00">IDisposable</text>
</a>
</g>
</g>
<!-- Node4&#45;&gt;Node3 -->
<g id="edge3_Node000003_Node000004" class="edge">
<title>Node4&#45;&gt;Node3</title>
<g id="a_edge3_Node000003_Node000004"><a xlink:title=" ">
<path fill="none" stroke="#63b8ff" d="M84.22,-348C92.38,-348 101.05,-348 109.75,-348"/>
<polygon fill="#63b8ff" stroke="#63b8ff" points="84.21,-344.5 74.21,-348 84.21,-351.5 84.21,-344.5"/>
</a>
</g>
</g>
<!-- Node12 -->
<g id="Node000012" class="node">
<title>Node12</title>
<g id="a_Node000012"><a xlink:href="class_fifty_one_1_1_pipeline_1_1_engines_1_1_fifty_one_1_1_flow_elements_1_1_share_usage_element.html" target="_top" xlink:title="Flow element that sends usage data to 51Degrees for analysis.">
<polygon fill="white" stroke="#666666" points="1136.5,-400.5 945.5,-400.5 945.5,-359.5 1136.5,-359.5 1136.5,-400.5"/>
<text text-anchor="start" x="953.5" y="-388.5" font-family="Helvetica,sans-Serif" font-size="10.00">FiftyOne.Pipeline.Engines.</text>
<text text-anchor="start" x="953.5" y="-377.5" font-family="Helvetica,sans-Serif" font-size="10.00">FiftyOne.FlowElements.ShareUsage</text>
<text text-anchor="middle" x="1041" y="-366.5" font-family="Helvetica,sans-Serif" font-size="10.00">Element</text>
</a>
</g>
</g>
<!-- Node11&#45;&gt;Node12 -->
<g id="edge11_Node000011_Node000012" class="edge">
<title>Node11&#45;&gt;Node12</title>
<g id="a_edge11_Node000011_Node000012"><a xlink:title=" ">
<path fill="none" stroke="#63b8ff" d="M905.32,-377.32C918.66,-377.59 932.13,-377.86 945.13,-378.11"/>
<polygon fill="#63b8ff" stroke="#63b8ff" points="905.23,-373.82 895.16,-377.12 905.09,-380.82 905.23,-373.82"/>
</a>
</g>
</g>
<!-- Node14 -->
<g id="Node000014" class="node">
<title>Node14</title>
<g id="a_Node000014"><a xlink:href="class_fifty_one_1_1_pipeline_1_1_engines_1_1_fifty_one_1_1_flow_elements_1_1_property_keyed_engine-2-g.html" target="_top" xlink:title="Base class for engines that use an index of property values to profile ids to populate one or more pr...">
<polygon fill="white" stroke="#666666" points="1128,-341.5 954,-341.5 954,-300.5 1128,-300.5 1128,-341.5"/>
<text text-anchor="start" x="962" y="-329.5" font-family="Helvetica,sans-Serif" font-size="10.00">FiftyOne.Pipeline.Engines.</text>
<text text-anchor="start" x="962" y="-318.5" font-family="Helvetica,sans-Serif" font-size="10.00">FiftyOne.FlowElements.Property</text>
<text text-anchor="middle" x="1041" y="-307.5" font-family="Helvetica,sans-Serif" font-size="10.00">KeyedEngine&lt; TData, TProfile &gt;</text>
</a>
</g>
</g>
<!-- Node13&#45;&gt;Node14 -->
<g id="edge13_Node000013_Node000014" class="edge">
<title>Node13&#45;&gt;Node14</title>
<g id="a_edge13_Node000013_Node000014"><a xlink:title=" ">
<path fill="none" stroke="#63b8ff" d="M887.19,-321C909.2,-321 932.37,-321 953.82,-321"/>
<polygon fill="#63b8ff" stroke="#63b8ff" points="887.17,-317.5 877.17,-321 887.17,-324.5 887.17,-317.5"/>
</a>
</g>
</g>
<!-- Node15 -->
<g id="Node000015" class="node">
<title>Node15</title>
<g id="a_Node000015"><a xlink:href="class_fifty_one_1_1_pipeline_1_1_engines_1_1_flow_elements_1_1_on_premise_aspect_engine_base-2-g.html" target="_top" xlink:title="Base class for 51Degrees on&#45;premise aspect engines.">
<polygon fill="white" stroke="#666666" points="1145,-282.5 937,-282.5 937,-241.5 1145,-241.5 1145,-282.5"/>
<text text-anchor="start" x="945" y="-270.5" font-family="Helvetica,sans-Serif" font-size="10.00">FiftyOne.Pipeline.Engines.</text>
<text text-anchor="start" x="945" y="-259.5" font-family="Helvetica,sans-Serif" font-size="10.00">FlowElements.OnPremiseAspectEngine</text>
<text text-anchor="middle" x="1041" y="-248.5" font-family="Helvetica,sans-Serif" font-size="10.00">Base&lt; T, TMeta &gt;</text>
</a>
</g>
</g>
<!-- Node13&#45;&gt;Node15 -->
<g id="edge14_Node000013_Node000015" class="edge">
<title>Node13&#45;&gt;Node15</title>
<g id="a_edge14_Node000013_Node000015"><a xlink:title=" ">
<path fill="none" stroke="#63b8ff" d="M886.04,-298.12C907.86,-293 930.88,-287.6 952.28,-282.58"/>
<polygon fill="#63b8ff" stroke="#63b8ff" points="885.05,-294.76 876.11,-300.45 886.64,-301.57 885.05,-294.76"/>
</a>
</g>
</g>
<!-- Node16 -->
<g id="Node000016" class="node">
<title>Node16</title>
<g id="a_Node000016"><a xlink:href="class_examples_1_1_on_premise_engine_1_1_flow_elements_1_1_simple_on_premise_engine.html" target="_top" xlink:title=" ">
<polygon fill="white" stroke="#666666" points="1390,-304 1181,-304 1181,-274 1390,-274 1390,-304"/>
<text text-anchor="start" x="1189" y="-292" font-family="Helvetica,sans-Serif" font-size="10.00">Examples.OnPremiseEngine.</text>
<text text-anchor="middle" x="1285.5" y="-281" font-family="Helvetica,sans-Serif" font-size="10.00">FlowElements.SimpleOnPremiseEngine</text>
</a>
</g>
</g>
<!-- Node15&#45;&gt;Node16 -->
<g id="edge15_Node000015_Node000016" class="edge">
<title>Node15&#45;&gt;Node16</title>
<g id="a_edge15_Node000015_Node000016"><a xlink:title=" ">
<path fill="none" stroke="#63b8ff" d="M1155.14,-274.6C1163.64,-275.54 1172.19,-276.5 1180.63,-277.43"/>
<polygon fill="#63b8ff" stroke="#63b8ff" points="1155.52,-271.12 1145.19,-273.49 1154.74,-278.07 1155.52,-271.12"/>
</a>
</g>
</g>
<!-- Node17 -->
<g id="Node000017" class="node">
<title>Node17</title>
<g id="a_Node000017"><a xlink:href="class_fifty_one_1_1_pipeline_1_1_engines_1_1_fifty_one_1_1_flow_elements_1_1_fifty_one_on_premise_aspect_engine_base-1-g.html" target="_top" xlink:title="51Degrees specific Engine base class.">
<polygon fill="white" stroke="#666666" points="1379.5,-255.5 1191.5,-255.5 1191.5,-214.5 1379.5,-214.5 1379.5,-255.5"/>
<text text-anchor="start" x="1199.5" y="-243.5" font-family="Helvetica,sans-Serif" font-size="10.00">FiftyOne.Pipeline.Engines.</text>
<text text-anchor="start" x="1199.5" y="-232.5" font-family="Helvetica,sans-Serif" font-size="10.00">FiftyOne.FlowElements.FiftyOne</text>
<text text-anchor="middle" x="1285.5" y="-221.5" font-family="Helvetica,sans-Serif" font-size="10.00">OnPremiseAspectEngineBase&lt; T &gt;</text>
</a>
</g>
</g>
<!-- Node15&#45;&gt;Node17 -->
<g id="edge16_Node000015_Node000017" class="edge">
<title>Node15&#45;&gt;Node17</title>
<g id="a_edge16_Node000015_Node000017"><a xlink:title=" ">
<path fill="none" stroke="#63b8ff" d="M1155.31,-249.38C1167.39,-248.04 1179.58,-246.68 1191.39,-245.37"/>
<polygon fill="#63b8ff" stroke="#63b8ff" points="1154.74,-245.93 1145.19,-250.51 1155.52,-252.88 1154.74,-245.93"/>
</a>
</g>
</g>
<!-- Node23 -->
<g id="Node000023" class="node">
<title>Node23</title>
<g id="a_Node000023"><a xlink:href="class_fifty_one_1_1_pipeline_1_1_translation_1_1_flow_elements_1_1_translation_engine.html" target="_top" xlink:title=" ">
<polygon fill="white" stroke="#666666" points="1128.5,-78 953.5,-78 953.5,-48 1128.5,-48 1128.5,-78"/>
<text text-anchor="start" x="961.5" y="-66" font-family="Helvetica,sans-Serif" font-size="10.00">FiftyOne.Pipeline.Translation.</text>
<text text-anchor="middle" x="1041" y="-55" font-family="Helvetica,sans-Serif" font-size="10.00">FlowElements.TranslationEngine</text>
</a>
</g>
</g>
<!-- Node22&#45;&gt;Node23 -->
<g id="edge22_Node000022_Node000023" class="edge">
<title>Node22&#45;&gt;Node23</title>
<g id="a_edge22_Node000022_Node000023"><a xlink:title=" ">
<path fill="none" stroke="#63b8ff" d="M911.31,-63C925.48,-63 939.7,-63 953.24,-63"/>
<polygon fill="#63b8ff" stroke="#63b8ff" points="911.01,-59.5 901.01,-63 911.01,-66.5 911.01,-59.5"/>
</a>
</g>
</g>
</g>
</svg>
