<?xml version="1.0" encoding="UTF-8" standalone="no"?>
<!DOCTYPE svg PUBLIC "-//W3C//DTD SVG 1.1//EN"
 "http://www.w3.org/Graphics/SVG/1.1/DTD/svg11.dtd">
<!-- Generated by graphviz version 2.43.0 (0)
 -->
<!-- Title: FiftyOne.Pipeline.Core.FailHandling.Recovery.IRecoveryStrategy Pages: 1 -->
<svg width="455pt" height="216pt"
 viewBox="0.00 0.00 455.00 216.00" xmlns="http://www.w3.org/2000/svg" xmlns:xlink="http://www.w3.org/1999/xlink">
<g id="graph0" class="graph" transform="scale(1 1) rotate(0) translate(4 212)">
<title>FiftyOne.Pipeline.Core.FailHandling.Recovery.IRecoveryStrategy</title>
<!-- Node1 -->
<g id="Node000001" class="node">
<title>Node1</title>
<g id="a_Node000001"><a xlink:title="Controls when to suspend requests due to recent query failures.">
<polygon fill="#999999" stroke="#666666" points="200,-116.5 0,-116.5 0,-86.5 200,-86.5 200,-116.5"/>
<text text-anchor="start" x="8" y="-104.5" font-family="Helvetica,sans-Serif" font-size="10.00">FiftyOne.Pipeline.Core.Fail</text>
<text text-anchor="middle" x="100" y="-93.5" font-family="Helvetica,sans-Serif" font-size="10.00">Handling.Recovery.IRecoveryStrategy</text>
</a>
</g>
</g>
<!-- Node2 -->
<g id="Node000002" class="node">
<title>Node2</title>
<g id="a_Node000002"><a xlink:href="class_fifty_one_1_1_pipeline_1_1_core_1_1_fail_handling_1_1_recovery_1_1_exponential_backoff_recovery_strategy.html" target="_top" xlink:title="Implements exponential backoff where delay doubles after each consecutive failure.">
<polygon fill="white" stroke="#666666" points="443.5,-208 239.5,-208 239.5,-167 443.5,-167 443.5,-208"/>
<text text-anchor="start" x="247.5" y="-196" font-family="Helvetica,sans-Serif" font-size="10.00">FiftyOne.Pipeline.Core.Fail</text>
<text text-anchor="start" x="247.5" y="-185" font-family="Helvetica,sans-Serif" font-size="10.00">Handling.Recovery.ExponentialBackoff</text>
<text text-anchor="middle" x="341.5" y="-174" font-family="Helvetica,sans-Serif" font-size="10.00">RecoveryStrategy</text>
</a>
</g>
</g>
<!-- Node1&#45;&gt;Node2 -->
<g id="edge1_Node000001_Node000002" class="edge">
<title>Node1&#45;&gt;Node2</title>
<g id="a_edge1_Node000001_Node000002"><a xlink:title=" ">
<path fill="none" stroke="#63b8ff" d="M142.59,-120.7C169.01,-132.49 204.12,-147.4 236,-158.5 244.45,-161.44 253.36,-164.29 262.27,-166.98"/>
<polygon fill="#63b8ff" stroke="#63b8ff" points="143.83,-117.42 133.28,-116.52 140.96,-123.81 143.83,-117.42"/>
</a>
</g>
</g>
<!-- Node3 -->
<g id="Node000003" class="node">
<title>Node3</title>
<g id="a_Node000003"><a xlink:href="class_fifty_one_1_1_pipeline_1_1_core_1_1_fail_handling_1_1_recovery_1_1_instant_recovery_strategy.html" target="_top" xlink:title="Always allows to make new server call regardless of previous failures.">
<polygon fill="white" stroke="#666666" points="436.5,-149 246.5,-149 246.5,-108 436.5,-108 436.5,-149"/>
<text text-anchor="start" x="254.5" y="-137" font-family="Helvetica,sans-Serif" font-size="10.00">FiftyOne.Pipeline.Core.Fail</text>
<text text-anchor="start" x="254.5" y="-126" font-family="Helvetica,sans-Serif" font-size="10.00">Handling.Recovery.InstantRecovery</text>
<text text-anchor="middle" x="341.5" y="-115" font-family="Helvetica,sans-Serif" font-size="10.00">Strategy</text>
</a>
</g>
</g>
<!-- Node1&#45;&gt;Node3 -->
<g id="edge2_Node000001_Node000003" class="edge">
<title>Node1&#45;&gt;Node3</title>
<g id="a_edge2_Node000001_Node000003"><a xlink:title=" ">
<path fill="none" stroke="#63b8ff" d="M210.25,-113.82C222.33,-115.18 234.56,-116.56 246.43,-117.9"/>
<polygon fill="#63b8ff" stroke="#63b8ff" points="210.47,-110.32 200.14,-112.68 209.69,-117.28 210.47,-110.32"/>
</a>
</g>
</g>
<!-- Node4 -->
<g id="Node000004" class="node">
<title>Node4</title>
<g id="a_Node000004"><a xlink:href="class_fifty_one_1_1_pipeline_1_1_core_1_1_fail_handling_1_1_recovery_1_1_no_recovery_strategy.html" target="_top" xlink:title="Drops all server calls after first failure.">
<polygon fill="white" stroke="#666666" points="447,-89.5 236,-89.5 236,-59.5 447,-59.5 447,-89.5"/>
<text text-anchor="start" x="244" y="-77.5" font-family="Helvetica,sans-Serif" font-size="10.00">FiftyOne.Pipeline.Core.Fail</text>
<text text-anchor="middle" x="341.5" y="-66.5" font-family="Helvetica,sans-Serif" font-size="10.00">Handling.Recovery.NoRecoveryStrategy</text>
</a>
</g>
</g>
<!-- Node1&#45;&gt;Node4 -->
<g id="edge3_Node000001_Node000004" class="edge">
<title>Node1&#45;&gt;Node4</title>
<g id="a_edge3_Node000001_Node000004"><a xlink:title=" ">
<path fill="none" stroke="#63b8ff" d="M210.35,-89.17C218.76,-88.22 227.24,-87.27 235.62,-86.32"/>
<polygon fill="#63b8ff" stroke="#63b8ff" points="209.69,-85.72 200.14,-90.32 210.47,-92.68 209.69,-85.72"/>
</a>
</g>
</g>
<!-- Node5 -->
<g id="Node000005" class="node">
<title>Node5</title>
<g id="a_Node000005"><a xlink:href="class_fifty_one_1_1_pipeline_1_1_core_1_1_fail_handling_1_1_recovery_1_1_simple_recovery_strategy.html" target="_top" xlink:title="Disallows calling the server for RecoverySeconds.">
<polygon fill="white" stroke="#666666" points="436.5,-41 246.5,-41 246.5,0 436.5,0 436.5,-41"/>
<text text-anchor="start" x="254.5" y="-29" font-family="Helvetica,sans-Serif" font-size="10.00">FiftyOne.Pipeline.Core.Fail</text>
<text text-anchor="start" x="254.5" y="-18" font-family="Helvetica,sans-Serif" font-size="10.00">Handling.Recovery.SimpleRecovery</text>
<text text-anchor="middle" x="341.5" y="-7" font-family="Helvetica,sans-Serif" font-size="10.00">Strategy</text>
</a>
</g>
</g>
<!-- Node1&#45;&gt;Node5 -->
<g id="edge4_Node000001_Node000005" class="edge">
<title>Node1&#45;&gt;Node5</title>
<g id="a_edge4_Node000001_Node000005"><a xlink:title=" ">
<path fill="none" stroke="#63b8ff" d="M147.78,-82.75C173.61,-72.67 206.37,-60.33 236,-50.5 245.67,-47.29 255.92,-44.1 266.06,-41.06"/>
<polygon fill="#63b8ff" stroke="#63b8ff" points="146.27,-79.58 138.24,-86.49 148.83,-86.1 146.27,-79.58"/>
</a>
</g>
</g>
</g>
</svg>
