<?xml version="1.0" encoding="UTF-8" standalone="no"?>
<!DOCTYPE svg PUBLIC "-//W3C//DTD SVG 1.1//EN"
 "http://www.w3.org/Graphics/SVG/1.1/DTD/svg11.dtd">
<!-- Generated by graphviz version 2.43.0 (0)
 -->
<!-- Title: FiftyOne.Pipeline.Core.FailHandling.Scope.IAttemptScope Pages: 1 -->
<svg width="175pt" height="159pt"
 viewBox="0.00 0.00 175.00 159.00" xmlns="http://www.w3.org/2000/svg" xmlns:xlink="http://www.w3.org/1999/xlink">
<g id="graph0" class="graph" transform="scale(1 1) rotate(0) translate(4 155)">
<title>FiftyOne.Pipeline.Core.FailHandling.Scope.IAttemptScope</title>
<!-- Node1 -->
<g id="Node000001" class="node">
<title>Node1</title>
<g id="a_Node000001"><a xlink:title="A scope within which an attempt will be made.">
<polygon fill="#999999" stroke="#666666" points="167,-96 0,-96 0,-66 167,-66 167,-96"/>
<text text-anchor="start" x="8" y="-84" font-family="Helvetica,sans-Serif" font-size="10.00">FiftyOne.Pipeline.Core.Fail</text>
<text text-anchor="middle" x="83.5" y="-73" font-family="Helvetica,sans-Serif" font-size="10.00">Handling.Scope.IAttemptScope</text>
</a>
</g>
</g>
<!-- Node3 -->
<g id="Node000003" class="node">
<title>Node3</title>
<g id="a_Node000003"><a xlink:href="class_fifty_one_1_1_pipeline_1_1_core_1_1_fail_handling_1_1_scope_1_1_attempt_scope.html" target="_top" xlink:title="A scope within which an attempt will be made.">
<polygon fill="white" stroke="#666666" points="165.5,-30 1.5,-30 1.5,0 165.5,0 165.5,-30"/>
<text text-anchor="start" x="9.5" y="-18" font-family="Helvetica,sans-Serif" font-size="10.00">FiftyOne.Pipeline.Core.Fail</text>
<text text-anchor="middle" x="83.5" y="-7" font-family="Helvetica,sans-Serif" font-size="10.00">Handling.Scope.AttemptScope</text>
</a>
</g>
</g>
<!-- Node1&#45;&gt;Node3 -->
<g id="edge2_Node000001_Node000003" class="edge">
<title>Node1&#45;&gt;Node3</title>
<g id="a_edge2_Node000001_Node000003"><a xlink:title=" ">
<path fill="none" stroke="#63b8ff" d="M83.5,-55.54C83.5,-46.96 83.5,-37.61 83.5,-30.16"/>
<polygon fill="#63b8ff" stroke="#63b8ff" points="80,-55.8 83.5,-65.8 87,-55.8 80,-55.8"/>
</a>
</g>
</g>
<!-- Node2 -->
<g id="Node000002" class="node">
<title>Node2</title>
<g id="a_Node000002"><a xlink:title=" ">
<polygon fill="white" stroke="#bfbfbf" points="120.5,-151 46.5,-151 46.5,-132 120.5,-132 120.5,-151"/>
<text text-anchor="middle" x="83.5" y="-139" font-family="Helvetica,sans-Serif" font-size="10.00">IDisposable</text>
</a>
</g>
</g>
<!-- Node2&#45;&gt;Node1 -->
<g id="edge1_Node000001_Node000002" class="edge">
<title>Node2&#45;&gt;Node1</title>
<g id="a_edge1_Node000001_Node000002"><a xlink:title=" ">
<path fill="none" stroke="#63b8ff" d="M83.5,-121.65C83.5,-113.36 83.5,-103.78 83.5,-96.11"/>
<polygon fill="#63b8ff" stroke="#63b8ff" points="80,-121.87 83.5,-131.87 87,-121.87 80,-121.87"/>
</a>
</g>
</g>
</g>
</svg>
