<?xml version="1.0" encoding="UTF-8" standalone="no"?>
<!DOCTYPE svg PUBLIC "-//W3C//DTD SVG 1.1//EN"
 "http://www.w3.org/Graphics/SVG/1.1/DTD/svg11.dtd">
<!-- Generated by graphviz version 2.43.0 (0)
 -->
<!-- Title: FiftyOne.Pipeline.Engines.Caching.IDataKeyedCache&lt; TValue &gt; Pages: 1 -->
<svg width="961pt" height="98pt"
 viewBox="0.00 0.00 961.00 97.50" xmlns="http://www.w3.org/2000/svg" xmlns:xlink="http://www.w3.org/1999/xlink">
<g id="graph0" class="graph" transform="scale(1 1) rotate(0) translate(4 93.5)">
<title>FiftyOne.Pipeline.Engines.Caching.IDataKeyedCache&lt; TValue &gt;</title>
<!-- Node1 -->
<g id="Node000001" class="node">
<title>Node1</title>
<g id="a_Node000001"><a xlink:title="Represents a put cache where the key is a IFlowData instance.">
<polygon fill="#999999" stroke="#666666" points="310,-68 165,-68 165,-27 310,-27 310,-68"/>
<text text-anchor="start" x="173" y="-56" font-family="Helvetica,sans-Serif" font-size="10.00">FiftyOne.Pipeline.Engines.</text>
<text text-anchor="start" x="173" y="-45" font-family="Helvetica,sans-Serif" font-size="10.00">Caching.IDataKeyedCache</text>
<text text-anchor="middle" x="237.5" y="-34" font-family="Helvetica,sans-Serif" font-size="10.00">&lt; TValue &gt;</text>
</a>
</g>
</g>
<!-- Node3 -->
<g id="Node000003" class="node">
<title>Node3</title>
<g id="a_Node000003"><a xlink:href="class_fifty_one_1_1_pipeline_1_1_engines_1_1_caching_1_1_data_keyed_cache_base-1-g.html" target="_top" xlink:title="Abstract base class for caches that use IFlowData as the key.">
<polygon fill="white" stroke="#666666" points="512,-41 346,-41 346,0 512,0 512,-41"/>
<text text-anchor="start" x="354" y="-29" font-family="Helvetica,sans-Serif" font-size="10.00">FiftyOne.Pipeline.Engines.</text>
<text text-anchor="start" x="354" y="-18" font-family="Helvetica,sans-Serif" font-size="10.00">Caching.DataKeyedCacheBase</text>
<text text-anchor="middle" x="429" y="-7" font-family="Helvetica,sans-Serif" font-size="10.00">&lt; TValue &gt;</text>
</a>
</g>
</g>
<!-- Node1&#45;&gt;Node3 -->
<g id="edge2_Node000001_Node000003" class="edge">
<title>Node1&#45;&gt;Node3</title>
<g id="a_edge2_Node000001_Node000003"><a xlink:title=" ">
<path fill="none" stroke="#63b8ff" d="M320.06,-35.88C328.58,-34.67 337.24,-33.43 345.77,-32.22"/>
<polygon fill="#63b8ff" stroke="#63b8ff" points="319.55,-32.42 310.14,-37.29 320.54,-39.35 319.55,-32.42"/>
</a>
</g>
</g>
<!-- Node7 -->
<g id="Node000007" class="node">
<title>Node7</title>
<g id="a_Node000007"><a xlink:href="interface_fifty_one_1_1_pipeline_1_1_engines_1_1_caching_1_1_i_flow_cache.html" target="_top" xlink:title="Represents a &#39;flow cache&#39; See the Specification.">
<polygon fill="white" stroke="#666666" points="500.5,-89.5 357.5,-89.5 357.5,-59.5 500.5,-59.5 500.5,-89.5"/>
<text text-anchor="start" x="365.5" y="-77.5" font-family="Helvetica,sans-Serif" font-size="10.00">FiftyOne.Pipeline.Engines.</text>
<text text-anchor="middle" x="429" y="-66.5" font-family="Helvetica,sans-Serif" font-size="10.00">Caching.IFlowCache</text>
</a>
</g>
</g>
<!-- Node1&#45;&gt;Node7 -->
<g id="edge6_Node000001_Node000007" class="edge">
<title>Node1&#45;&gt;Node7</title>
<g id="a_edge6_Node000001_Node000007"><a xlink:title=" ">
<path fill="none" stroke="#63b8ff" d="M320.36,-59.16C332.63,-60.91 345.19,-62.7 357.2,-64.41"/>
<polygon fill="#63b8ff" stroke="#63b8ff" points="320.54,-55.65 310.14,-57.71 319.55,-62.58 320.54,-55.65"/>
</a>
</g>
</g>
<!-- Node2 -->
<g id="Node000002" class="node">
<title>Node2</title>
<g id="a_Node000002"><a xlink:title=" ">
<polygon fill="white" stroke="#bfbfbf" points="129,-62.5 0,-62.5 0,-32.5 129,-32.5 129,-62.5"/>
<text text-anchor="start" x="8" y="-50.5" font-family="Helvetica,sans-Serif" font-size="10.00">IPutCache&lt; IFlowData,</text>
<text text-anchor="middle" x="64.5" y="-39.5" font-family="Helvetica,sans-Serif" font-size="10.00"> TValue &gt;</text>
</a>
</g>
</g>
<!-- Node2&#45;&gt;Node1 -->
<g id="edge1_Node000001_Node000002" class="edge">
<title>Node2&#45;&gt;Node1</title>
<g id="a_edge1_Node000001_Node000002"><a xlink:title=" ">
<path fill="none" stroke="#63b8ff" d="M139.34,-47.5C147.76,-47.5 156.33,-47.5 164.72,-47.5"/>
<polygon fill="#63b8ff" stroke="#63b8ff" points="139.17,-44 129.17,-47.5 139.17,-51 139.17,-44"/>
</a>
</g>
</g>
<!-- Node4 -->
<g id="Node000004" class="node">
<title>Node4</title>
<g id="a_Node000004"><a xlink:href="class_fifty_one_1_1_pipeline_1_1_engines_1_1_caching_1_1_default_flow_cache.html" target="_top" xlink:title="The default &#39;flow cache&#39; implementation.">
<polygon fill="white" stroke="#666666" points="708.5,-86.5 560.5,-86.5 560.5,-56.5 708.5,-56.5 708.5,-86.5"/>
<text text-anchor="start" x="568.5" y="-74.5" font-family="Helvetica,sans-Serif" font-size="10.00">FiftyOne.Pipeline.Engines.</text>
<text text-anchor="middle" x="634.5" y="-63.5" font-family="Helvetica,sans-Serif" font-size="10.00">Caching.DefaultFlowCache</text>
</a>
</g>
</g>
<!-- Node3&#45;&gt;Node4 -->
<g id="edge3_Node000003_Node000004" class="edge">
<title>Node3&#45;&gt;Node4</title>
<g id="a_edge3_Node000003_Node000004"><a xlink:title=" ">
<path fill="none" stroke="#63b8ff" d="M522.08,-43.58C539.48,-47.94 557.26,-52.39 573.36,-56.43"/>
<polygon fill="#63b8ff" stroke="#63b8ff" points="522.44,-40.06 511.89,-41.02 520.74,-46.85 522.44,-40.06"/>
</a>
</g>
</g>
<!-- Node5 -->
<g id="Node000005" class="node">
<title>Node5</title>
<g id="a_Node000005"><a xlink:href="class_fifty_one_1_1_pipeline_1_1_engines_1_1_trackers_1_1_tracker_base-1-g.html" target="_top" xlink:title="The abstract base class for trackers.">
<polygon fill="white" stroke="#666666" points="721,-35.5 548,-35.5 548,-5.5 721,-5.5 721,-35.5"/>
<text text-anchor="start" x="556" y="-23.5" font-family="Helvetica,sans-Serif" font-size="10.00">FiftyOne.Pipeline.Engines.</text>
<text text-anchor="middle" x="634.5" y="-12.5" font-family="Helvetica,sans-Serif" font-size="10.00">Trackers.TrackerBase&lt; TValue &gt;</text>
</a>
</g>
</g>
<!-- Node3&#45;&gt;Node5 -->
<g id="edge4_Node000003_Node000005" class="edge">
<title>Node3&#45;&gt;Node5</title>
<g id="a_edge4_Node000003_Node000005"><a xlink:title=" ">
<path fill="none" stroke="#63b8ff" d="M522.4,-20.5C530.82,-20.5 539.33,-20.5 547.69,-20.5"/>
<polygon fill="#63b8ff" stroke="#63b8ff" points="522.18,-17 512.18,-20.5 522.18,-24 522.18,-17"/>
</a>
</g>
</g>
<!-- Node6 -->
<g id="Node000006" class="node">
<title>Node6</title>
<g id="a_Node000006"><a xlink:href="class_fifty_one_1_1_pipeline_1_1_engines_1_1_fifty_one_1_1_trackers_1_1_share_usage_tracker.html" target="_top" xlink:title="A tracker used by share usage to attempt to avoid repeatedly sending data relating to the same user s...">
<polygon fill="white" stroke="#666666" points="953,-35.5 757,-35.5 757,-5.5 953,-5.5 953,-35.5"/>
<text text-anchor="start" x="765" y="-23.5" font-family="Helvetica,sans-Serif" font-size="10.00">FiftyOne.Pipeline.Engines.</text>
<text text-anchor="middle" x="855" y="-12.5" font-family="Helvetica,sans-Serif" font-size="10.00">FiftyOne.Trackers.ShareUsageTracker</text>
</a>
</g>
</g>
<!-- Node5&#45;&gt;Node6 -->
<g id="edge5_Node000005_Node000006" class="edge">
<title>Node5&#45;&gt;Node6</title>
<g id="a_edge5_Node000005_Node000006"><a xlink:title=" ">
<path fill="none" stroke="#63b8ff" d="M731.47,-20.5C739.92,-20.5 748.48,-20.5 756.94,-20.5"/>
<polygon fill="#63b8ff" stroke="#63b8ff" points="731.23,-17 721.23,-20.5 731.23,-24 731.23,-17"/>
</a>
</g>
</g>
<!-- Node7&#45;&gt;Node4 -->
<g id="edge7_Node000007_Node000004" class="edge">
<title>Node7&#45;&gt;Node4</title>
<g id="a_edge7_Node000007_Node000004"><a xlink:title=" ">
<path fill="none" stroke="#63b8ff" d="M510.68,-73.31C527.04,-73.07 544.17,-72.82 560.26,-72.58"/>
<polygon fill="#63b8ff" stroke="#63b8ff" points="510.55,-69.81 500.6,-73.46 510.65,-76.81 510.55,-69.81"/>
</a>
</g>
</g>
</g>
</svg>
