<?xml version="1.0" encoding="UTF-8" standalone="no"?>
<!DOCTYPE svg PUBLIC "-//W3C//DTD SVG 1.1//EN"
 "http://www.w3.org/Graphics/SVG/1.1/DTD/svg11.dtd">
<!-- Generated by graphviz version 2.43.0 (0)
 -->
<!-- Title: Examples.OnPremiseEngine.Data.IStarSignData Pages: 1 -->
<svg width="165pt" height="302pt"
 viewBox="0.00 0.00 165.00 302.00" xmlns="http://www.w3.org/2000/svg" xmlns:xlink="http://www.w3.org/1999/xlink">
<g id="graph0" class="graph" transform="scale(1 1) rotate(0) translate(4 298)">
<title>Examples.OnPremiseEngine.Data.IStarSignData</title>
<!-- Node1 -->
<g id="Node000001" class="node">
<title>Node1</title>
<g id="a_Node000001"><a xlink:title="[class]">
<polygon fill="#999999" stroke="#666666" points="157,-96 0,-96 0,-66 157,-66 157,-96"/>
<text text-anchor="start" x="8" y="-84" font-family="Helvetica,sans-Serif" font-size="10.00">Examples.OnPremiseEngine.</text>
<text text-anchor="middle" x="78.5" y="-73" font-family="Helvetica,sans-Serif" font-size="10.00">Data.IStarSignData</text>
</a>
</g>
</g>
<!-- Node5 -->
<g id="Node000005" class="node">
<title>Node5</title>
<g id="a_Node000005"><a xlink:title=" ">
<polygon fill="white" stroke="#666666" points="157,-30 0,-30 0,0 157,0 157,-30"/>
<text text-anchor="start" x="8" y="-18" font-family="Helvetica,sans-Serif" font-size="10.00">Examples.OnPremiseEngine.</text>
<text text-anchor="middle" x="78.5" y="-7" font-family="Helvetica,sans-Serif" font-size="10.00">Data.StarSignData</text>
</a>
</g>
</g>
<!-- Node1&#45;&gt;Node5 -->
<g id="edge4_Node000001_Node000005" class="edge">
<title>Node1&#45;&gt;Node5</title>
<g id="a_edge4_Node000001_Node000005"><a xlink:title=" ">
<path fill="none" stroke="#63b8ff" d="M78.5,-55.54C78.5,-46.96 78.5,-37.61 78.5,-30.16"/>
<polygon fill="#63b8ff" stroke="#63b8ff" points="75,-55.8 78.5,-65.8 82,-55.8 75,-55.8"/>
</a>
</g>
</g>
<!-- Node2 -->
<g id="Node000002" class="node">
<title>Node2</title>
<g id="a_Node000002"><a xlink:href="interface_fifty_one_1_1_pipeline_1_1_engines_1_1_data_1_1_i_aspect_data.html" target="_top" xlink:title="Represents an ElementData instance that is generated by an IAspectEngine.">
<polygon fill="white" stroke="#666666" points="150,-162 7,-162 7,-132 150,-132 150,-162"/>
<text text-anchor="start" x="15" y="-150" font-family="Helvetica,sans-Serif" font-size="10.00">FiftyOne.Pipeline.Engines.</text>
<text text-anchor="middle" x="78.5" y="-139" font-family="Helvetica,sans-Serif" font-size="10.00">Data.IAspectData</text>
</a>
</g>
</g>
<!-- Node2&#45;&gt;Node1 -->
<g id="edge1_Node000001_Node000002" class="edge">
<title>Node2&#45;&gt;Node1</title>
<g id="a_edge1_Node000001_Node000002"><a xlink:title=" ">
<path fill="none" stroke="#63b8ff" d="M78.5,-121.54C78.5,-112.96 78.5,-103.61 78.5,-96.16"/>
<polygon fill="#63b8ff" stroke="#63b8ff" points="75,-121.8 78.5,-131.8 82,-121.8 75,-121.8"/>
</a>
</g>
</g>
<!-- Node3 -->
<g id="Node000003" class="node">
<title>Node3</title>
<g id="a_Node000003"><a xlink:href="interface_fifty_one_1_1_pipeline_1_1_core_1_1_data_1_1_i_element_data.html" target="_top" xlink:title="Represents property values that have been determined by a specific FlowElement based on the supplied ...">
<polygon fill="white" stroke="#666666" points="155.5,-228 1.5,-228 1.5,-198 155.5,-198 155.5,-228"/>
<text text-anchor="start" x="9.5" y="-216" font-family="Helvetica,sans-Serif" font-size="10.00">FiftyOne.Pipeline.Core.Data.</text>
<text text-anchor="middle" x="78.5" y="-205" font-family="Helvetica,sans-Serif" font-size="10.00">IElementData</text>
</a>
</g>
</g>
<!-- Node3&#45;&gt;Node2 -->
<g id="edge2_Node000002_Node000003" class="edge">
<title>Node3&#45;&gt;Node2</title>
<g id="a_edge2_Node000002_Node000003"><a xlink:title=" ">
<path fill="none" stroke="#63b8ff" d="M78.5,-187.54C78.5,-178.96 78.5,-169.61 78.5,-162.16"/>
<polygon fill="#63b8ff" stroke="#63b8ff" points="75,-187.8 78.5,-197.8 82,-187.8 75,-187.8"/>
</a>
</g>
</g>
<!-- Node4 -->
<g id="Node000004" class="node">
<title>Node4</title>
<g id="a_Node000004"><a xlink:href="interface_fifty_one_1_1_pipeline_1_1_core_1_1_data_1_1_i_data.html" target="_top" xlink:title="Represents property values.">
<polygon fill="white" stroke="#666666" points="155.5,-294 1.5,-294 1.5,-264 155.5,-264 155.5,-294"/>
<text text-anchor="start" x="9.5" y="-282" font-family="Helvetica,sans-Serif" font-size="10.00">FiftyOne.Pipeline.Core.Data.</text>
<text text-anchor="middle" x="78.5" y="-271" font-family="Helvetica,sans-Serif" font-size="10.00">IData</text>
</a>
</g>
</g>
<!-- Node4&#45;&gt;Node3 -->
<g id="edge3_Node000003_Node000004" class="edge">
<title>Node4&#45;&gt;Node3</title>
<g id="a_edge3_Node000003_Node000004"><a xlink:title=" ">
<path fill="none" stroke="#63b8ff" d="M78.5,-253.54C78.5,-244.96 78.5,-235.61 78.5,-228.16"/>
<polygon fill="#63b8ff" stroke="#63b8ff" points="75,-253.8 78.5,-263.8 82,-253.8 75,-253.8"/>
</a>
</g>
</g>
</g>
</svg>
