<?xml version="1.0" encoding="UTF-8" standalone="no"?>
<!DOCTYPE svg PUBLIC "-//W3C//DTD SVG 1.1//EN"
 "http://www.w3.org/Graphics/SVG/1.1/DTD/svg11.dtd">
<!-- Generated by graphviz version 2.43.0 (0)
 -->
<!-- Title: FiftyOne.Pipeline.Engines.Caching.IFlowCache Pages: 1 -->
<svg width="156pt" height="247pt"
 viewBox="0.00 0.00 156.00 247.00" xmlns="http://www.w3.org/2000/svg" xmlns:xlink="http://www.w3.org/1999/xlink">
<g id="graph0" class="graph" transform="scale(1 1) rotate(0) translate(4 243)">
<title>FiftyOne.Pipeline.Engines.Caching.IFlowCache</title>
<!-- Node1 -->
<g id="Node000001" class="node">
<title>Node1</title>
<g id="a_Node000001"><a xlink:title="Represents a &#39;flow cache&#39; See the Specification.">
<polygon fill="#999999" stroke="#666666" points="145.5,-96 2.5,-96 2.5,-66 145.5,-66 145.5,-96"/>
<text text-anchor="start" x="10.5" y="-84" font-family="Helvetica,sans-Serif" font-size="10.00">FiftyOne.Pipeline.Engines.</text>
<text text-anchor="middle" x="74" y="-73" font-family="Helvetica,sans-Serif" font-size="10.00">Caching.IFlowCache</text>
</a>
</g>
</g>
<!-- Node4 -->
<g id="Node000004" class="node">
<title>Node4</title>
<g id="a_Node000004"><a xlink:href="class_fifty_one_1_1_pipeline_1_1_engines_1_1_caching_1_1_default_flow_cache.html" target="_top" xlink:title="The default &#39;flow cache&#39; implementation.">
<polygon fill="white" stroke="#666666" points="148,-30 0,-30 0,0 148,0 148,-30"/>
<text text-anchor="start" x="8" y="-18" font-family="Helvetica,sans-Serif" font-size="10.00">FiftyOne.Pipeline.Engines.</text>
<text text-anchor="middle" x="74" y="-7" font-family="Helvetica,sans-Serif" font-size="10.00">Caching.DefaultFlowCache</text>
</a>
</g>
</g>
<!-- Node1&#45;&gt;Node4 -->
<g id="edge3_Node000001_Node000004" class="edge">
<title>Node1&#45;&gt;Node4</title>
<g id="a_edge3_Node000001_Node000004"><a xlink:title=" ">
<path fill="none" stroke="#63b8ff" d="M74,-55.54C74,-46.96 74,-37.61 74,-30.16"/>
<polygon fill="#63b8ff" stroke="#63b8ff" points="70.5,-55.8 74,-65.8 77.5,-55.8 70.5,-55.8"/>
</a>
</g>
</g>
<!-- Node2 -->
<g id="Node000002" class="node">
<title>Node2</title>
<g id="a_Node000002"><a xlink:href="interface_fifty_one_1_1_pipeline_1_1_engines_1_1_caching_1_1_i_data_keyed_cache-1-g.html" target="_top" xlink:title="Represents a put cache where the key is a IFlowData instance.">
<polygon fill="white" stroke="#666666" points="146.5,-173 1.5,-173 1.5,-132 146.5,-132 146.5,-173"/>
<text text-anchor="start" x="9.5" y="-161" font-family="Helvetica,sans-Serif" font-size="10.00">FiftyOne.Pipeline.Engines.</text>
<text text-anchor="start" x="9.5" y="-150" font-family="Helvetica,sans-Serif" font-size="10.00">Caching.IDataKeyedCache</text>
<text text-anchor="middle" x="74" y="-139" font-family="Helvetica,sans-Serif" font-size="10.00">&lt; TValue &gt;</text>
</a>
</g>
</g>
<!-- Node2&#45;&gt;Node1 -->
<g id="edge1_Node000001_Node000002" class="edge">
<title>Node2&#45;&gt;Node1</title>
<g id="a_edge1_Node000001_Node000002"><a xlink:title=" ">
<path fill="none" stroke="#63b8ff" d="M74,-121.66C74,-112.76 74,-103.42 74,-96.04"/>
<polygon fill="#63b8ff" stroke="#63b8ff" points="70.5,-121.77 74,-131.77 77.5,-121.77 70.5,-121.77"/>
</a>
</g>
</g>
<!-- Node3 -->
<g id="Node000003" class="node">
<title>Node3</title>
<g id="a_Node000003"><a xlink:title=" ">
<polygon fill="white" stroke="#bfbfbf" points="138.5,-239 9.5,-239 9.5,-209 138.5,-209 138.5,-239"/>
<text text-anchor="start" x="17.5" y="-227" font-family="Helvetica,sans-Serif" font-size="10.00">IPutCache&lt; IFlowData,</text>
<text text-anchor="middle" x="74" y="-216" font-family="Helvetica,sans-Serif" font-size="10.00"> TValue &gt;</text>
</a>
</g>
</g>
<!-- Node3&#45;&gt;Node2 -->
<g id="edge2_Node000002_Node000003" class="edge">
<title>Node3&#45;&gt;Node2</title>
<g id="a_edge2_Node000002_Node000003"><a xlink:title=" ">
<path fill="none" stroke="#63b8ff" d="M74,-198.91C74,-190.47 74,-181.1 74,-173.07"/>
<polygon fill="#63b8ff" stroke="#63b8ff" points="70.5,-198.94 74,-208.94 77.5,-198.94 70.5,-198.94"/>
</a>
</g>
</g>
</g>
</svg>
