<?xml version="1.0" encoding="UTF-8" standalone="no"?>
<!DOCTYPE svg PUBLIC "-//W3C//DTD SVG 1.1//EN"
 "http://www.w3.org/Graphics/SVG/1.1/DTD/svg11.dtd">
<!-- Generated by graphviz version 2.43.0 (0)
 -->
<!-- Title: FiftyOne.Pipeline.Engines.Data.IAspectEngineDataFile Pages: 1 -->
<svg width="679pt" height="86pt"
 viewBox="0.00 0.00 679.00 86.00" xmlns="http://www.w3.org/2000/svg" xmlns:xlink="http://www.w3.org/1999/xlink">
<g id="graph0" class="graph" transform="scale(1 1) rotate(0) translate(4 82)">
<title>FiftyOne.Pipeline.Engines.Data.IAspectEngineDataFile</title>
<!-- Node1 -->
<g id="Node000001" class="node">
<title>Node1</title>
<g id="a_Node000001"><a xlink:title="Interface for the details of a data file used by an Aspect engine.">
<polygon fill="#999999" stroke="#666666" points="262,-54 110,-54 110,-24 262,-24 262,-54"/>
<text text-anchor="start" x="118" y="-42" font-family="Helvetica,sans-Serif" font-size="10.00">FiftyOne.Pipeline.Engines.</text>
<text text-anchor="middle" x="186" y="-31" font-family="Helvetica,sans-Serif" font-size="10.00">Data.IAspectEngineDataFile</text>
</a>
</g>
</g>
<!-- Node3 -->
<g id="Node000003" class="node">
<title>Node3</title>
<g id="a_Node000003"><a xlink:href="class_fifty_one_1_1_pipeline_1_1_engines_1_1_data_1_1_aspect_engine_data_file.html" target="_top" xlink:title="This class contains all configuration and run&#45;time state information that is associated with a partic...">
<polygon fill="white" stroke="#666666" points="457.5,-78 308.5,-78 308.5,-48 457.5,-48 457.5,-78"/>
<text text-anchor="start" x="316.5" y="-66" font-family="Helvetica,sans-Serif" font-size="10.00">FiftyOne.Pipeline.Engines.</text>
<text text-anchor="middle" x="383" y="-55" font-family="Helvetica,sans-Serif" font-size="10.00">Data.AspectEngineDataFile</text>
</a>
</g>
</g>
<!-- Node1&#45;&gt;Node3 -->
<g id="edge2_Node000001_Node000003" class="edge">
<title>Node1&#45;&gt;Node3</title>
<g id="a_edge2_Node000001_Node000003"><a xlink:title=" ">
<path fill="none" stroke="#63b8ff" d="M272.13,-49.48C284.15,-50.96 296.43,-52.47 308.21,-53.92"/>
<polygon fill="#63b8ff" stroke="#63b8ff" points="272.47,-45.99 262.11,-48.24 271.61,-52.94 272.47,-45.99"/>
</a>
</g>
</g>
<!-- Node5 -->
<g id="Node000005" class="node">
<title>Node5</title>
<g id="a_Node000005"><a xlink:href="interface_fifty_one_1_1_pipeline_1_1_engines_1_1_fifty_one_1_1_data_1_1_i_fifty_one_data_file.html" target="_top" xlink:title="A specialized can of IAspectEngineDataFile for files that will be distributed by the 51Degrees &#39;Distr...">
<polygon fill="white" stroke="#666666" points="468,-30 298,-30 298,0 468,0 468,-30"/>
<text text-anchor="start" x="306" y="-18" font-family="Helvetica,sans-Serif" font-size="10.00">FiftyOne.Pipeline.Engines.</text>
<text text-anchor="middle" x="383" y="-7" font-family="Helvetica,sans-Serif" font-size="10.00">FiftyOne.Data.IFiftyOneDataFile</text>
</a>
</g>
</g>
<!-- Node1&#45;&gt;Node5 -->
<g id="edge4_Node000001_Node000005" class="edge">
<title>Node1&#45;&gt;Node5</title>
<g id="a_edge4_Node000001_Node000005"><a xlink:title=" ">
<path fill="none" stroke="#63b8ff" d="M272.07,-28.53C280.62,-27.48 289.3,-26.41 297.84,-25.36"/>
<polygon fill="#63b8ff" stroke="#63b8ff" points="271.61,-25.06 262.11,-29.76 272.47,-32.01 271.61,-25.06"/>
</a>
</g>
</g>
<!-- Node2 -->
<g id="Node000002" class="node">
<title>Node2</title>
<g id="a_Node000002"><a xlink:title=" ">
<polygon fill="white" stroke="#bfbfbf" points="74,-48.5 0,-48.5 0,-29.5 74,-29.5 74,-48.5"/>
<text text-anchor="middle" x="37" y="-36.5" font-family="Helvetica,sans-Serif" font-size="10.00">IDisposable</text>
</a>
</g>
</g>
<!-- Node2&#45;&gt;Node1 -->
<g id="edge1_Node000001_Node000002" class="edge">
<title>Node2&#45;&gt;Node1</title>
<g id="a_edge1_Node000001_Node000002"><a xlink:title=" ">
<path fill="none" stroke="#63b8ff" d="M84.38,-39C92.56,-39 101.26,-39 109.99,-39"/>
<polygon fill="#63b8ff" stroke="#63b8ff" points="84.34,-35.5 74.34,-39 84.34,-42.5 84.34,-35.5"/>
</a>
</g>
</g>
<!-- Node4 -->
<g id="Node000004" class="node">
<title>Node4</title>
<g id="a_Node000004"><a xlink:href="class_fifty_one_1_1_pipeline_1_1_engines_1_1_fifty_one_1_1_data_1_1_fifty_one_data_file.html" target="_top" xlink:title="Class that stores meta&#45;data relating to a data file associated with a 51Degrees engine.">
<polygon fill="white" stroke="#666666" points="671,-54 504,-54 504,-24 671,-24 671,-54"/>
<text text-anchor="start" x="512" y="-42" font-family="Helvetica,sans-Serif" font-size="10.00">FiftyOne.Pipeline.Engines.</text>
<text text-anchor="middle" x="587.5" y="-31" font-family="Helvetica,sans-Serif" font-size="10.00">FiftyOne.Data.FiftyOneDataFile</text>
</a>
</g>
</g>
<!-- Node3&#45;&gt;Node4 -->
<g id="edge3_Node000003_Node000004" class="edge">
<title>Node3&#45;&gt;Node4</title>
<g id="a_edge3_Node000003_Node000004"><a xlink:title=" ">
<path fill="none" stroke="#63b8ff" d="M467.66,-53.08C479.66,-51.66 491.99,-50.2 503.97,-48.78"/>
<polygon fill="#63b8ff" stroke="#63b8ff" points="467.2,-49.61 457.68,-54.27 468.02,-56.57 467.2,-49.61"/>
</a>
</g>
</g>
<!-- Node5&#45;&gt;Node4 -->
<g id="edge5_Node000005_Node000004" class="edge">
<title>Node5&#45;&gt;Node4</title>
<g id="a_edge5_Node000005_Node000004"><a xlink:title=" ">
<path fill="none" stroke="#63b8ff" d="M478.17,-26.16C486.78,-27.18 495.45,-28.21 503.94,-29.22"/>
<polygon fill="#63b8ff" stroke="#63b8ff" points="478.46,-22.67 468.12,-24.97 477.64,-29.62 478.46,-22.67"/>
</a>
</g>
</g>
</g>
</svg>
