<?xml version="1.0" encoding="UTF-8" standalone="no"?>
<!DOCTYPE svg PUBLIC "-//W3C//DTD SVG 1.1//EN"
 "http://www.w3.org/Graphics/SVG/1.1/DTD/svg11.dtd">
<!-- Generated by graphviz version 2.43.0 (0)
 -->
<!-- Title: FiftyOne.Pipeline.Engines.FlowElements.IAspectEngine Pages: 1 -->
<svg width="1420pt" height="167pt"
 viewBox="0.00 0.00 1420.00 167.00" xmlns="http://www.w3.org/2000/svg" xmlns:xlink="http://www.w3.org/1999/xlink">
<g id="graph0" class="graph" transform="scale(1 1) rotate(0) translate(4 163)">
<title>FiftyOne.Pipeline.Engines.FlowElements.IAspectEngine</title>
<!-- Node1 -->
<g id="Node000001" class="node">
<title>Node1</title>
<g id="a_Node000001"><a xlink:title="Interface representing 51Degrees on&#45;premise aspect engines.">
<polygon fill="#999999" stroke="#666666" points="455,-88.5 297,-88.5 297,-58.5 455,-58.5 455,-88.5"/>
<text text-anchor="start" x="305" y="-76.5" font-family="Helvetica,sans-Serif" font-size="10.00">FiftyOne.Pipeline.Engines.</text>
<text text-anchor="middle" x="376" y="-65.5" font-family="Helvetica,sans-Serif" font-size="10.00">FlowElements.IAspectEngine</text>
</a>
</g>
</g>
<!-- Node4 -->
<g id="Node000004" class="node">
<title>Node4</title>
<g id="a_Node000004"><a xlink:href="interface_fifty_one_1_1_pipeline_1_1_engines_1_1_flow_elements_1_1_i_aspect_engine-2-g.html" target="_top" xlink:title="Interface representing 51Degrees on&#45;premise aspect engines.">
<polygon fill="white" stroke="#666666" points="662.5,-148 504.5,-148 504.5,-107 662.5,-107 662.5,-148"/>
<text text-anchor="start" x="512.5" y="-136" font-family="Helvetica,sans-Serif" font-size="10.00">FiftyOne.Pipeline.Engines.</text>
<text text-anchor="start" x="512.5" y="-125" font-family="Helvetica,sans-Serif" font-size="10.00">FlowElements.IAspectEngine</text>
<text text-anchor="middle" x="583.5" y="-114" font-family="Helvetica,sans-Serif" font-size="10.00">&lt; T, TMeta &gt;</text>
</a>
</g>
</g>
<!-- Node1&#45;&gt;Node4 -->
<g id="edge3_Node000001_Node000004" class="edge">
<title>Node1&#45;&gt;Node4</title>
<g id="a_edge3_Node000001_Node000004"><a xlink:title=" ">
<path fill="none" stroke="#63b8ff" d="M444.13,-91.14C463.4,-96.2 484.58,-101.77 504.45,-106.99"/>
<polygon fill="#63b8ff" stroke="#63b8ff" points="444.8,-87.7 434.24,-88.54 443.03,-94.47 444.8,-87.7"/>
</a>
</g>
</g>
<!-- Node10 -->
<g id="Node000010" class="node">
<title>Node10</title>
<g id="a_Node000010"><a xlink:href="interface_fifty_one_1_1_pipeline_1_1_engines_1_1_flow_elements_1_1_i_cloud_aspect_engine.html" target="_top" xlink:title="An interface for aspect engines that process responses from a cloud service.">
<polygon fill="white" stroke="#666666" points="676,-88.5 491,-88.5 491,-58.5 676,-58.5 676,-88.5"/>
<text text-anchor="start" x="499" y="-76.5" font-family="Helvetica,sans-Serif" font-size="10.00">FiftyOne.Pipeline.Engines.</text>
<text text-anchor="middle" x="583.5" y="-65.5" font-family="Helvetica,sans-Serif" font-size="10.00">FlowElements.ICloudAspectEngine</text>
</a>
</g>
</g>
<!-- Node1&#45;&gt;Node10 -->
<g id="edge9_Node000001_Node000010" class="edge">
<title>Node1&#45;&gt;Node10</title>
<g id="a_edge9_Node000001_Node000010"><a xlink:title=" ">
<path fill="none" stroke="#63b8ff" d="M465.4,-73.5C473.77,-73.5 482.27,-73.5 490.67,-73.5"/>
<polygon fill="#63b8ff" stroke="#63b8ff" points="465.28,-70 455.28,-73.5 465.28,-77 465.28,-70"/>
</a>
</g>
</g>
<!-- Node11 -->
<g id="Node000011" class="node">
<title>Node11</title>
<g id="a_Node000011"><a xlink:href="interface_fifty_one_1_1_pipeline_1_1_engines_1_1_flow_elements_1_1_i_on_premise_aspect_engine.html" target="_top" xlink:title="Interface for an AspectEngine that processes evidence using one or more local data files.">
<polygon fill="white" stroke="#666666" points="923,-45.5 712,-45.5 712,-15.5 923,-15.5 923,-45.5"/>
<text text-anchor="start" x="720" y="-33.5" font-family="Helvetica,sans-Serif" font-size="10.00">FiftyOne.Pipeline.Engines.</text>
<text text-anchor="middle" x="817.5" y="-22.5" font-family="Helvetica,sans-Serif" font-size="10.00">FlowElements.IOnPremiseAspectEngine</text>
</a>
</g>
</g>
<!-- Node1&#45;&gt;Node11 -->
<g id="edge10_Node000001_Node000011" class="edge">
<title>Node1&#45;&gt;Node11</title>
<g id="a_edge10_Node000001_Node000011"><a xlink:title=" ">
<path fill="none" stroke="#63b8ff" d="M449.83,-56.48C463.45,-53.78 477.61,-51.29 491,-49.5 564.36,-39.69 647.69,-34.95 711.68,-32.65"/>
<polygon fill="#63b8ff" stroke="#63b8ff" points="449.12,-53.05 440.02,-58.48 450.52,-59.91 449.12,-53.05"/>
</a>
</g>
</g>
<!-- Node2 -->
<g id="Node000002" class="node">
<title>Node2</title>
<g id="a_Node000002"><a xlink:href="interface_fifty_one_1_1_pipeline_1_1_core_1_1_flow_elements_1_1_i_flow_element.html" target="_top" xlink:title="IFlowElement is the basic building block of a pipeline.">
<polygon fill="white" stroke="#666666" points="261,-88.5 110,-88.5 110,-58.5 261,-58.5 261,-88.5"/>
<text text-anchor="start" x="118" y="-76.5" font-family="Helvetica,sans-Serif" font-size="10.00">FiftyOne.Pipeline.Core.Flow</text>
<text text-anchor="middle" x="185.5" y="-65.5" font-family="Helvetica,sans-Serif" font-size="10.00">Elements.IFlowElement</text>
</a>
</g>
</g>
<!-- Node2&#45;&gt;Node1 -->
<g id="edge1_Node000001_Node000002" class="edge">
<title>Node2&#45;&gt;Node1</title>
<g id="a_edge1_Node000001_Node000002"><a xlink:title=" ">
<path fill="none" stroke="#63b8ff" d="M271.26,-73.5C279.73,-73.5 288.31,-73.5 296.71,-73.5"/>
<polygon fill="#63b8ff" stroke="#63b8ff" points="271,-70 261,-73.5 271,-77 271,-70"/>
</a>
</g>
</g>
<!-- Node3 -->
<g id="Node000003" class="node">
<title>Node3</title>
<g id="a_Node000003"><a xlink:title=" ">
<polygon fill="white" stroke="#bfbfbf" points="74,-83 0,-83 0,-64 74,-64 74,-83"/>
<text text-anchor="middle" x="37" y="-71" font-family="Helvetica,sans-Serif" font-size="10.00">IDisposable</text>
</a>
</g>
</g>
<!-- Node3&#45;&gt;Node2 -->
<g id="edge2_Node000002_Node000003" class="edge">
<title>Node3&#45;&gt;Node2</title>
<g id="a_edge2_Node000002_Node000003"><a xlink:title=" ">
<path fill="none" stroke="#63b8ff" d="M84.22,-73.5C92.38,-73.5 101.05,-73.5 109.75,-73.5"/>
<polygon fill="#63b8ff" stroke="#63b8ff" points="84.21,-70 74.21,-73.5 84.21,-77 84.21,-70"/>
</a>
</g>
</g>
<!-- Node5 -->
<g id="Node000005" class="node">
<title>Node5</title>
<g id="a_Node000005"><a xlink:href="class_fifty_one_1_1_pipeline_1_1_engines_1_1_flow_elements_1_1_aspect_engine_base-2-g.html" target="_top" xlink:title="Base class for 51Degrees aspect engines.">
<polygon fill="white" stroke="#666666" points="907,-148 728,-148 728,-107 907,-107 907,-148"/>
<text text-anchor="start" x="736" y="-136" font-family="Helvetica,sans-Serif" font-size="10.00">FiftyOne.Pipeline.Engines.</text>
<text text-anchor="start" x="736" y="-125" font-family="Helvetica,sans-Serif" font-size="10.00">FlowElements.AspectEngineBase</text>
<text text-anchor="middle" x="817.5" y="-114" font-family="Helvetica,sans-Serif" font-size="10.00">&lt; T, TMeta &gt;</text>
</a>
</g>
</g>
<!-- Node4&#45;&gt;Node5 -->
<g id="edge4_Node000004_Node000005" class="edge">
<title>Node4&#45;&gt;Node5</title>
<g id="a_edge4_Node000004_Node000005"><a xlink:title=" ">
<path fill="none" stroke="#63b8ff" d="M672.9,-127.5C690.89,-127.5 709.83,-127.5 727.83,-127.5"/>
<polygon fill="#63b8ff" stroke="#63b8ff" points="672.72,-124 662.72,-127.5 672.72,-131 672.72,-124"/>
</a>
</g>
</g>
<!-- Node6 -->
<g id="Node000006" class="node">
<title>Node6</title>
<g id="a_Node000006"><a xlink:href="class_fifty_one_1_1_pipeline_1_1_engines_1_1_fifty_one_1_1_flow_elements_1_1_property_keyed_engine-2-g.html" target="_top" xlink:title="Base class for engines that use an index of property values to profile ids to populate one or more pr...">
<polygon fill="white" stroke="#666666" points="1150,-159 976,-159 976,-118 1150,-118 1150,-159"/>
<text text-anchor="start" x="984" y="-147" font-family="Helvetica,sans-Serif" font-size="10.00">FiftyOne.Pipeline.Engines.</text>
<text text-anchor="start" x="984" y="-136" font-family="Helvetica,sans-Serif" font-size="10.00">FiftyOne.FlowElements.Property</text>
<text text-anchor="middle" x="1063" y="-125" font-family="Helvetica,sans-Serif" font-size="10.00">KeyedEngine&lt; TData, TProfile &gt;</text>
</a>
</g>
</g>
<!-- Node5&#45;&gt;Node6 -->
<g id="edge5_Node000005_Node000006" class="edge">
<title>Node5&#45;&gt;Node6</title>
<g id="a_edge5_Node000005_Node000006"><a xlink:title=" ">
<path fill="none" stroke="#63b8ff" d="M917.19,-131.96C936.64,-132.84 956.91,-133.75 975.91,-134.61"/>
<polygon fill="#63b8ff" stroke="#63b8ff" points="917.25,-128.46 907.1,-131.5 916.93,-135.45 917.25,-128.46"/>
</a>
</g>
</g>
<!-- Node7 -->
<g id="Node000007" class="node">
<title>Node7</title>
<g id="a_Node000007"><a xlink:href="class_fifty_one_1_1_pipeline_1_1_engines_1_1_flow_elements_1_1_on_premise_aspect_engine_base-2-g.html" target="_top" xlink:title="Base class for 51Degrees on&#45;premise aspect engines.">
<polygon fill="white" stroke="#666666" points="1167,-100 959,-100 959,-59 1167,-59 1167,-100"/>
<text text-anchor="start" x="967" y="-88" font-family="Helvetica,sans-Serif" font-size="10.00">FiftyOne.Pipeline.Engines.</text>
<text text-anchor="start" x="967" y="-77" font-family="Helvetica,sans-Serif" font-size="10.00">FlowElements.OnPremiseAspectEngine</text>
<text text-anchor="middle" x="1063" y="-66" font-family="Helvetica,sans-Serif" font-size="10.00">Base&lt; T, TMeta &gt;</text>
</a>
</g>
</g>
<!-- Node5&#45;&gt;Node7 -->
<g id="edge6_Node000005_Node000007" class="edge">
<title>Node5&#45;&gt;Node7</title>
<g id="a_edge6_Node000005_Node000007"><a xlink:title=" ">
<path fill="none" stroke="#63b8ff" d="M916.99,-108.08C930.69,-105.38 944.8,-102.6 958.59,-99.89"/>
<polygon fill="#63b8ff" stroke="#63b8ff" points="916.23,-104.67 907.1,-110.04 917.59,-111.53 916.23,-104.67"/>
</a>
</g>
</g>
<!-- Node8 -->
<g id="Node000008" class="node">
<title>Node8</title>
<g id="a_Node000008"><a xlink:href="class_examples_1_1_on_premise_engine_1_1_flow_elements_1_1_simple_on_premise_engine.html" target="_top" xlink:title=" ">
<polygon fill="white" stroke="#666666" points="1412,-94.5 1203,-94.5 1203,-64.5 1412,-64.5 1412,-94.5"/>
<text text-anchor="start" x="1211" y="-82.5" font-family="Helvetica,sans-Serif" font-size="10.00">Examples.OnPremiseEngine.</text>
<text text-anchor="middle" x="1307.5" y="-71.5" font-family="Helvetica,sans-Serif" font-size="10.00">FlowElements.SimpleOnPremiseEngine</text>
</a>
</g>
</g>
<!-- Node7&#45;&gt;Node8 -->
<g id="edge7_Node000007_Node000008" class="edge">
<title>Node7&#45;&gt;Node8</title>
<g id="a_edge7_Node000007_Node000008"><a xlink:title=" ">
<path fill="none" stroke="#63b8ff" d="M1177.41,-79.5C1185.82,-79.5 1194.28,-79.5 1202.63,-79.5"/>
<polygon fill="#63b8ff" stroke="#63b8ff" points="1177.19,-76 1167.19,-79.5 1177.19,-83 1177.19,-76"/>
</a>
</g>
</g>
<!-- Node9 -->
<g id="Node000009" class="node">
<title>Node9</title>
<g id="a_Node000009"><a xlink:href="class_fifty_one_1_1_pipeline_1_1_engines_1_1_fifty_one_1_1_flow_elements_1_1_fifty_one_on_premise_aspect_engine_base-1-g.html" target="_top" xlink:title="51Degrees specific Engine base class.">
<polygon fill="white" stroke="#666666" points="1401.5,-44 1213.5,-44 1213.5,-3 1401.5,-3 1401.5,-44"/>
<text text-anchor="start" x="1221.5" y="-32" font-family="Helvetica,sans-Serif" font-size="10.00">FiftyOne.Pipeline.Engines.</text>
<text text-anchor="start" x="1221.5" y="-21" font-family="Helvetica,sans-Serif" font-size="10.00">FiftyOne.FlowElements.FiftyOne</text>
<text text-anchor="middle" x="1307.5" y="-10" font-family="Helvetica,sans-Serif" font-size="10.00">OnPremiseAspectEngineBase&lt; T &gt;</text>
</a>
</g>
</g>
<!-- Node7&#45;&gt;Node9 -->
<g id="edge8_Node000007_Node000009" class="edge">
<title>Node7&#45;&gt;Node9</title>
<g id="a_edge8_Node000007_Node000009"><a xlink:title=" ">
<path fill="none" stroke="#63b8ff" d="M1162.9,-56.66C1181,-52.48 1199.8,-48.14 1217.59,-44.03"/>
<polygon fill="#63b8ff" stroke="#63b8ff" points="1161.88,-53.31 1152.92,-58.97 1163.45,-60.13 1161.88,-53.31"/>
</a>
</g>
</g>
<!-- Node11&#45;&gt;Node7 -->
<g id="edge13_Node000011_Node000007" class="edge">
<title>Node11&#45;&gt;Node7</title>
<g id="a_edge13_Node000011_Node000007"><a xlink:title=" ">
<path fill="none" stroke="#63b8ff" d="M903.26,-47.56C921.59,-51.25 941.16,-55.18 960.08,-58.99"/>
<polygon fill="#63b8ff" stroke="#63b8ff" points="903.71,-44.08 893.21,-45.53 902.33,-50.94 903.71,-44.08"/>
</a>
</g>
</g>
<!-- Node12 -->
<g id="Node000012" class="node">
<title>Node12</title>
<g id="a_Node000012"><a xlink:href="interface_fifty_one_1_1_pipeline_1_1_engines_1_1_fifty_one_1_1_flow_elements_1_1_i_fifty_one_aspect_engine.html" target="_top" xlink:title="51Degrees specific Engine interface.">
<polygon fill="white" stroke="#666666" points="1151,-41 975,-41 975,0 1151,0 1151,-41"/>
<text text-anchor="start" x="983" y="-29" font-family="Helvetica,sans-Serif" font-size="10.00">FiftyOne.Pipeline.Engines.</text>
<text text-anchor="start" x="983" y="-18" font-family="Helvetica,sans-Serif" font-size="10.00">FiftyOne.FlowElements.IFiftyOne</text>
<text text-anchor="middle" x="1063" y="-7" font-family="Helvetica,sans-Serif" font-size="10.00">AspectEngine</text>
</a>
</g>
</g>
<!-- Node11&#45;&gt;Node12 -->
<g id="edge11_Node000011_Node000012" class="edge">
<title>Node11&#45;&gt;Node12</title>
<g id="a_edge11_Node000011_Node000012"><a xlink:title=" ">
<path fill="none" stroke="#63b8ff" d="M933.34,-25.78C947.34,-25.21 961.47,-24.63 974.97,-24.07"/>
<polygon fill="#63b8ff" stroke="#63b8ff" points="933.03,-22.29 923.18,-26.2 933.31,-29.29 933.03,-22.29"/>
</a>
</g>
</g>
<!-- Node12&#45;&gt;Node9 -->
<g id="edge12_Node000012_Node000009" class="edge">
<title>Node12&#45;&gt;Node9</title>
<g id="a_edge12_Node000012_Node000009"><a xlink:title=" ">
<path fill="none" stroke="#63b8ff" d="M1161.68,-21.71C1178.64,-21.92 1196.25,-22.14 1213.1,-22.34"/>
<polygon fill="#63b8ff" stroke="#63b8ff" points="1161.25,-18.2 1151.21,-21.58 1161.16,-25.2 1161.25,-18.2"/>
</a>
</g>
</g>
</g>
</svg>
