<?xml version="1.0" encoding="UTF-8" standalone="no"?>
<!DOCTYPE svg PUBLIC "-//W3C//DTD SVG 1.1//EN"
 "http://www.w3.org/Graphics/SVG/1.1/DTD/svg11.dtd">
<!-- Generated by graphviz version 2.43.0 (0)
 -->
<!-- Title: FiftyOne.Pipeline.Translation.FlowElements.ITranslationEngine Pages: 1 -->
<svg width="186pt" height="302pt"
 viewBox="0.00 0.00 186.00 302.00" xmlns="http://www.w3.org/2000/svg" xmlns:xlink="http://www.w3.org/1999/xlink">
<g id="graph0" class="graph" transform="scale(1 1) rotate(0) translate(4 298)">
<title>FiftyOne.Pipeline.Translation.FlowElements.ITranslationEngine</title>
<!-- Node1 -->
<g id="Node000001" class="node">
<title>Node1</title>
<g id="a_Node000001"><a xlink:title="Flow element that translates values from a single source element and stores translated values under i...">
<polygon fill="#999999" stroke="#666666" points="178,-96 0,-96 0,-66 178,-66 178,-96"/>
<text text-anchor="start" x="8" y="-84" font-family="Helvetica,sans-Serif" font-size="10.00">FiftyOne.Pipeline.Translation.</text>
<text text-anchor="middle" x="89" y="-73" font-family="Helvetica,sans-Serif" font-size="10.00">FlowElements.ITranslationEngine</text>
</a>
</g>
</g>
<!-- Node5 -->
<g id="Node000005" class="node">
<title>Node5</title>
<g id="a_Node000005"><a xlink:href="class_fifty_one_1_1_pipeline_1_1_translation_1_1_flow_elements_1_1_translation_engine.html" target="_top" xlink:title=" ">
<polygon fill="white" stroke="#666666" points="176.5,-30 1.5,-30 1.5,0 176.5,0 176.5,-30"/>
<text text-anchor="start" x="9.5" y="-18" font-family="Helvetica,sans-Serif" font-size="10.00">FiftyOne.Pipeline.Translation.</text>
<text text-anchor="middle" x="89" y="-7" font-family="Helvetica,sans-Serif" font-size="10.00">FlowElements.TranslationEngine</text>
</a>
</g>
</g>
<!-- Node1&#45;&gt;Node5 -->
<g id="edge4_Node000001_Node000005" class="edge">
<title>Node1&#45;&gt;Node5</title>
<g id="a_edge4_Node000001_Node000005"><a xlink:title=" ">
<path fill="none" stroke="#63b8ff" d="M89,-55.54C89,-46.96 89,-37.61 89,-30.16"/>
<polygon fill="#63b8ff" stroke="#63b8ff" points="85.5,-55.8 89,-65.8 92.5,-55.8 85.5,-55.8"/>
</a>
</g>
</g>
<!-- Node2 -->
<g id="Node000002" class="node">
<title>Node2</title>
<g id="a_Node000002"><a xlink:href="interface_fifty_one_1_1_pipeline_1_1_core_1_1_flow_elements_1_1_i_flow_element-2-g.html" target="_top" xlink:title="Generic interface that extends IFlowElement with the ability to return a ITypedKey&lt;T&gt; that will allow...">
<polygon fill="white" stroke="#666666" points="165,-173 13,-173 13,-132 165,-132 165,-173"/>
<text text-anchor="start" x="21" y="-161" font-family="Helvetica,sans-Serif" font-size="10.00">FiftyOne.Pipeline.Core.Flow</text>
<text text-anchor="start" x="21" y="-150" font-family="Helvetica,sans-Serif" font-size="10.00">Elements.IFlowElement&lt; T,</text>
<text text-anchor="middle" x="89" y="-139" font-family="Helvetica,sans-Serif" font-size="10.00"> TMeta &gt;</text>
</a>
</g>
</g>
<!-- Node2&#45;&gt;Node1 -->
<g id="edge1_Node000001_Node000002" class="edge">
<title>Node2&#45;&gt;Node1</title>
<g id="a_edge1_Node000001_Node000002"><a xlink:title=" ">
<path fill="none" stroke="#63b8ff" d="M89,-121.66C89,-112.76 89,-103.42 89,-96.04"/>
<polygon fill="#63b8ff" stroke="#63b8ff" points="85.5,-121.77 89,-131.77 92.5,-121.77 85.5,-121.77"/>
</a>
</g>
</g>
<!-- Node3 -->
<g id="Node000003" class="node">
<title>Node3</title>
<g id="a_Node000003"><a xlink:href="interface_fifty_one_1_1_pipeline_1_1_core_1_1_flow_elements_1_1_i_flow_element.html" target="_top" xlink:title="IFlowElement is the basic building block of a pipeline.">
<polygon fill="white" stroke="#666666" points="164.5,-239 13.5,-239 13.5,-209 164.5,-209 164.5,-239"/>
<text text-anchor="start" x="21.5" y="-227" font-family="Helvetica,sans-Serif" font-size="10.00">FiftyOne.Pipeline.Core.Flow</text>
<text text-anchor="middle" x="89" y="-216" font-family="Helvetica,sans-Serif" font-size="10.00">Elements.IFlowElement</text>
</a>
</g>
</g>
<!-- Node3&#45;&gt;Node2 -->
<g id="edge2_Node000002_Node000003" class="edge">
<title>Node3&#45;&gt;Node2</title>
<g id="a_edge2_Node000002_Node000003"><a xlink:title=" ">
<path fill="none" stroke="#63b8ff" d="M89,-198.91C89,-190.47 89,-181.1 89,-173.07"/>
<polygon fill="#63b8ff" stroke="#63b8ff" points="85.5,-198.94 89,-208.94 92.5,-198.94 85.5,-198.94"/>
</a>
</g>
</g>
<!-- Node4 -->
<g id="Node000004" class="node">
<title>Node4</title>
<g id="a_Node000004"><a xlink:title=" ">
<polygon fill="white" stroke="#bfbfbf" points="126,-294 52,-294 52,-275 126,-275 126,-294"/>
<text text-anchor="middle" x="89" y="-282" font-family="Helvetica,sans-Serif" font-size="10.00">IDisposable</text>
</a>
</g>
</g>
<!-- Node4&#45;&gt;Node3 -->
<g id="edge3_Node000003_Node000004" class="edge">
<title>Node4&#45;&gt;Node3</title>
<g id="a_edge3_Node000003_Node000004"><a xlink:title=" ">
<path fill="none" stroke="#63b8ff" d="M89,-264.65C89,-256.36 89,-246.78 89,-239.11"/>
<polygon fill="#63b8ff" stroke="#63b8ff" points="85.5,-264.87 89,-274.87 92.5,-264.87 85.5,-264.87"/>
</a>
</g>
</g>
</g>
</svg>
