<?xml version="1.0" encoding="UTF-8" standalone="no"?>
<!DOCTYPE svg PUBLIC "-//W3C//DTD SVG 1.1//EN"
 "http://www.w3.org/Graphics/SVG/1.1/DTD/svg11.dtd">
<!-- Generated by graphviz version 2.43.0 (0)
 -->
<!-- Title: FiftyOne.Pipeline.Engines.FlowElements.IOnPremiseAspectEngine Pages: 1 -->
<svg width="219pt" height="225pt"
 viewBox="0.00 0.00 219.00 225.00" xmlns="http://www.w3.org/2000/svg" xmlns:xlink="http://www.w3.org/1999/xlink">
<g id="graph0" class="graph" transform="scale(1 1) rotate(0) translate(4 221)">
<title>FiftyOne.Pipeline.Engines.FlowElements.IOnPremiseAspectEngine</title>
<!-- Node1 -->
<g id="Node000001" class="node">
<title>Node1</title>
<g id="a_Node000001"><a xlink:title="Interface for an AspectEngine that processes evidence using one or more local data files.">
<polygon fill="#999999" stroke="#666666" points="211,-30 0,-30 0,0 211,0 211,-30"/>
<text text-anchor="start" x="8" y="-18" font-family="Helvetica,sans-Serif" font-size="10.00">FiftyOne.Pipeline.Engines.</text>
<text text-anchor="middle" x="105.5" y="-7" font-family="Helvetica,sans-Serif" font-size="10.00">FlowElements.IOnPremiseAspectEngine</text>
</a>
</g>
</g>
<!-- Node2 -->
<g id="Node000002" class="node">
<title>Node2</title>
<g id="a_Node000002"><a xlink:href="interface_fifty_one_1_1_pipeline_1_1_engines_1_1_flow_elements_1_1_i_aspect_engine.html" target="_top" xlink:title="Interface representing 51Degrees on&#45;premise aspect engines.">
<polygon fill="white" stroke="#666666" points="184.5,-96 26.5,-96 26.5,-66 184.5,-66 184.5,-96"/>
<text text-anchor="start" x="34.5" y="-84" font-family="Helvetica,sans-Serif" font-size="10.00">FiftyOne.Pipeline.Engines.</text>
<text text-anchor="middle" x="105.5" y="-73" font-family="Helvetica,sans-Serif" font-size="10.00">FlowElements.IAspectEngine</text>
</a>
</g>
</g>
<!-- Node2&#45;&gt;Node1 -->
<g id="edge1_Node000001_Node000002" class="edge">
<title>Node2&#45;&gt;Node1</title>
<g id="a_edge1_Node000001_Node000002"><a xlink:title=" ">
<path fill="none" stroke="#63b8ff" d="M105.5,-55.54C105.5,-46.96 105.5,-37.61 105.5,-30.16"/>
<polygon fill="#63b8ff" stroke="#63b8ff" points="102,-55.8 105.5,-65.8 109,-55.8 102,-55.8"/>
</a>
</g>
</g>
<!-- Node3 -->
<g id="Node000003" class="node">
<title>Node3</title>
<g id="a_Node000003"><a xlink:href="interface_fifty_one_1_1_pipeline_1_1_core_1_1_flow_elements_1_1_i_flow_element.html" target="_top" xlink:title="IFlowElement is the basic building block of a pipeline.">
<polygon fill="white" stroke="#666666" points="181,-162 30,-162 30,-132 181,-132 181,-162"/>
<text text-anchor="start" x="38" y="-150" font-family="Helvetica,sans-Serif" font-size="10.00">FiftyOne.Pipeline.Core.Flow</text>
<text text-anchor="middle" x="105.5" y="-139" font-family="Helvetica,sans-Serif" font-size="10.00">Elements.IFlowElement</text>
</a>
</g>
</g>
<!-- Node3&#45;&gt;Node2 -->
<g id="edge2_Node000002_Node000003" class="edge">
<title>Node3&#45;&gt;Node2</title>
<g id="a_edge2_Node000002_Node000003"><a xlink:title=" ">
<path fill="none" stroke="#63b8ff" d="M105.5,-121.54C105.5,-112.96 105.5,-103.61 105.5,-96.16"/>
<polygon fill="#63b8ff" stroke="#63b8ff" points="102,-121.8 105.5,-131.8 109,-121.8 102,-121.8"/>
</a>
</g>
</g>
<!-- Node4 -->
<g id="Node000004" class="node">
<title>Node4</title>
<g id="a_Node000004"><a xlink:title=" ">
<polygon fill="white" stroke="#bfbfbf" points="142.5,-217 68.5,-217 68.5,-198 142.5,-198 142.5,-217"/>
<text text-anchor="middle" x="105.5" y="-205" font-family="Helvetica,sans-Serif" font-size="10.00">IDisposable</text>
</a>
</g>
</g>
<!-- Node4&#45;&gt;Node3 -->
<g id="edge3_Node000003_Node000004" class="edge">
<title>Node4&#45;&gt;Node3</title>
<g id="a_edge3_Node000003_Node000004"><a xlink:title=" ">
<path fill="none" stroke="#63b8ff" d="M105.5,-187.65C105.5,-179.36 105.5,-169.78 105.5,-162.11"/>
<polygon fill="#63b8ff" stroke="#63b8ff" points="102,-187.87 105.5,-197.87 109,-187.87 102,-187.87"/>
</a>
</g>
</g>
</g>
</svg>
