<?xml version="1.0" encoding="UTF-8" standalone="no"?>
<!DOCTYPE svg PUBLIC "-//W3C//DTD SVG 1.1//EN"
 "http://www.w3.org/Graphics/SVG/1.1/DTD/svg11.dtd">
<!-- Generated by graphviz version 2.43.0 (0)
 -->
<!-- Title: FiftyOne.Pipeline.Engines.FiftyOne.Data.ISetHeadersData Pages: 1 -->
<svg width="177pt" height="236pt"
 viewBox="0.00 0.00 177.00 236.00" xmlns="http://www.w3.org/2000/svg" xmlns:xlink="http://www.w3.org/1999/xlink">
<g id="graph0" class="graph" transform="scale(1 1) rotate(0) translate(4 232)">
<title>FiftyOne.Pipeline.Engines.FiftyOne.Data.ISetHeadersData</title>
<!-- Node1 -->
<g id="Node000001" class="node">
<title>Node1</title>
<g id="a_Node000001"><a xlink:title="The IElementData interface for SetHeadersElement.">
<polygon fill="#999999" stroke="#666666" points="169,-96 0,-96 0,-66 169,-66 169,-96"/>
<text text-anchor="start" x="8" y="-84" font-family="Helvetica,sans-Serif" font-size="10.00">FiftyOne.Pipeline.Engines.</text>
<text text-anchor="middle" x="84.5" y="-73" font-family="Helvetica,sans-Serif" font-size="10.00">FiftyOne.Data.ISetHeadersData</text>
</a>
</g>
</g>
<!-- Node4 -->
<g id="Node000004" class="node">
<title>Node4</title>
<g id="a_Node000004"><a xlink:href="class_fifty_one_1_1_pipeline_1_1_engines_1_1_fifty_one_1_1_data_1_1_set_headers_data.html" target="_top" xlink:title="Element data instance for SetHeadersElement See the Specification.">
<polygon fill="white" stroke="#666666" points="167.5,-30 1.5,-30 1.5,0 167.5,0 167.5,-30"/>
<text text-anchor="start" x="9.5" y="-18" font-family="Helvetica,sans-Serif" font-size="10.00">FiftyOne.Pipeline.Engines.</text>
<text text-anchor="middle" x="84.5" y="-7" font-family="Helvetica,sans-Serif" font-size="10.00">FiftyOne.Data.SetHeadersData</text>
</a>
</g>
</g>
<!-- Node1&#45;&gt;Node4 -->
<g id="edge3_Node000001_Node000004" class="edge">
<title>Node1&#45;&gt;Node4</title>
<g id="a_edge3_Node000001_Node000004"><a xlink:title=" ">
<path fill="none" stroke="#63b8ff" d="M84.5,-55.54C84.5,-46.96 84.5,-37.61 84.5,-30.16"/>
<polygon fill="#63b8ff" stroke="#63b8ff" points="81,-55.8 84.5,-65.8 88,-55.8 81,-55.8"/>
</a>
</g>
</g>
<!-- Node2 -->
<g id="Node000002" class="node">
<title>Node2</title>
<g id="a_Node000002"><a xlink:href="interface_fifty_one_1_1_pipeline_1_1_core_1_1_data_1_1_i_element_data.html" target="_top" xlink:title="Represents property values that have been determined by a specific FlowElement based on the supplied ...">
<polygon fill="white" stroke="#666666" points="161.5,-162 7.5,-162 7.5,-132 161.5,-132 161.5,-162"/>
<text text-anchor="start" x="15.5" y="-150" font-family="Helvetica,sans-Serif" font-size="10.00">FiftyOne.Pipeline.Core.Data.</text>
<text text-anchor="middle" x="84.5" y="-139" font-family="Helvetica,sans-Serif" font-size="10.00">IElementData</text>
</a>
</g>
</g>
<!-- Node2&#45;&gt;Node1 -->
<g id="edge1_Node000001_Node000002" class="edge">
<title>Node2&#45;&gt;Node1</title>
<g id="a_edge1_Node000001_Node000002"><a xlink:title=" ">
<path fill="none" stroke="#63b8ff" d="M84.5,-121.54C84.5,-112.96 84.5,-103.61 84.5,-96.16"/>
<polygon fill="#63b8ff" stroke="#63b8ff" points="81,-121.8 84.5,-131.8 88,-121.8 81,-121.8"/>
</a>
</g>
</g>
<!-- Node3 -->
<g id="Node000003" class="node">
<title>Node3</title>
<g id="a_Node000003"><a xlink:href="interface_fifty_one_1_1_pipeline_1_1_core_1_1_data_1_1_i_data.html" target="_top" xlink:title="Represents property values.">
<polygon fill="white" stroke="#666666" points="161.5,-228 7.5,-228 7.5,-198 161.5,-198 161.5,-228"/>
<text text-anchor="start" x="15.5" y="-216" font-family="Helvetica,sans-Serif" font-size="10.00">FiftyOne.Pipeline.Core.Data.</text>
<text text-anchor="middle" x="84.5" y="-205" font-family="Helvetica,sans-Serif" font-size="10.00">IData</text>
</a>
</g>
</g>
<!-- Node3&#45;&gt;Node2 -->
<g id="edge2_Node000002_Node000003" class="edge">
<title>Node3&#45;&gt;Node2</title>
<g id="a_edge2_Node000002_Node000003"><a xlink:title=" ">
<path fill="none" stroke="#63b8ff" d="M84.5,-187.54C84.5,-178.96 84.5,-169.61 84.5,-162.16"/>
<polygon fill="#63b8ff" stroke="#63b8ff" points="81,-187.8 84.5,-197.8 88,-187.8 81,-187.8"/>
</a>
</g>
</g>
</g>
</svg>
