<?xml version="1.0" encoding="UTF-8" standalone="no"?>
<!DOCTYPE svg PUBLIC "-//W3C//DTD SVG 1.1//EN"
 "http://www.w3.org/Graphics/SVG/1.1/DTD/svg11.dtd">
<!-- Generated by graphviz version 2.43.0 (0)
 -->
<!-- Title: FiftyOne.Pipeline.Engines.Caching.IFlowCache Pages: 1 -->
<svg width="153pt" height="181pt"
 viewBox="0.00 0.00 153.00 181.00" xmlns="http://www.w3.org/2000/svg" xmlns:xlink="http://www.w3.org/1999/xlink">
<g id="graph0" class="graph" transform="scale(1 1) rotate(0) translate(4 177)">
<title>FiftyOne.Pipeline.Engines.Caching.IFlowCache</title>
<!-- Node1 -->
<g id="Node000001" class="node">
<title>Node1</title>
<g id="a_Node000001"><a xlink:title="Represents a &#39;flow cache&#39; See the Specification.">
<polygon fill="#999999" stroke="#666666" points="144,-30 1,-30 1,0 144,0 144,-30"/>
<text text-anchor="start" x="9" y="-18" font-family="Helvetica,sans-Serif" font-size="10.00">FiftyOne.Pipeline.Engines.</text>
<text text-anchor="middle" x="72.5" y="-7" font-family="Helvetica,sans-Serif" font-size="10.00">Caching.IFlowCache</text>
</a>
</g>
</g>
<!-- Node2 -->
<g id="Node000002" class="node">
<title>Node2</title>
<g id="a_Node000002"><a xlink:href="interface_fifty_one_1_1_pipeline_1_1_engines_1_1_caching_1_1_i_data_keyed_cache-1-g.html" target="_top" xlink:title="Represents a put cache where the key is a IFlowData instance.">
<polygon fill="white" stroke="#666666" points="145,-107 0,-107 0,-66 145,-66 145,-107"/>
<text text-anchor="start" x="8" y="-95" font-family="Helvetica,sans-Serif" font-size="10.00">FiftyOne.Pipeline.Engines.</text>
<text text-anchor="start" x="8" y="-84" font-family="Helvetica,sans-Serif" font-size="10.00">Caching.IDataKeyedCache</text>
<text text-anchor="middle" x="72.5" y="-73" font-family="Helvetica,sans-Serif" font-size="10.00">&lt; TValue &gt;</text>
</a>
</g>
</g>
<!-- Node2&#45;&gt;Node1 -->
<g id="edge1_Node000001_Node000002" class="edge">
<title>Node2&#45;&gt;Node1</title>
<g id="a_edge1_Node000001_Node000002"><a xlink:title=" ">
<path fill="none" stroke="#63b8ff" d="M72.5,-55.66C72.5,-46.76 72.5,-37.42 72.5,-30.04"/>
<polygon fill="#63b8ff" stroke="#63b8ff" points="69,-55.77 72.5,-65.77 76,-55.77 69,-55.77"/>
</a>
</g>
</g>
<!-- Node3 -->
<g id="Node000003" class="node">
<title>Node3</title>
<g id="a_Node000003"><a xlink:title=" ">
<polygon fill="white" stroke="#bfbfbf" points="137,-173 8,-173 8,-143 137,-143 137,-173"/>
<text text-anchor="start" x="16" y="-161" font-family="Helvetica,sans-Serif" font-size="10.00">IPutCache&lt; IFlowData,</text>
<text text-anchor="middle" x="72.5" y="-150" font-family="Helvetica,sans-Serif" font-size="10.00"> TValue &gt;</text>
</a>
</g>
</g>
<!-- Node3&#45;&gt;Node2 -->
<g id="edge2_Node000002_Node000003" class="edge">
<title>Node3&#45;&gt;Node2</title>
<g id="a_edge2_Node000002_Node000003"><a xlink:title=" ">
<path fill="none" stroke="#63b8ff" d="M72.5,-132.91C72.5,-124.47 72.5,-115.1 72.5,-107.07"/>
<polygon fill="#63b8ff" stroke="#63b8ff" points="69,-132.94 72.5,-142.94 76,-132.94 69,-132.94"/>
</a>
</g>
</g>
</g>
</svg>
