<?xml version="1.0" encoding="UTF-8" standalone="no"?>
<!DOCTYPE svg PUBLIC "-//W3C//DTD SVG 1.1//EN"
 "http://www.w3.org/Graphics/SVG/1.1/DTD/svg11.dtd">
<!-- Generated by graphviz version 2.43.0 (0)
 -->
<!-- Title: FiftyOne.Pipeline.Engines.Data.IAspectData Pages: 1 -->
<svg width="919pt" height="182pt"
 viewBox="0.00 0.00 919.00 182.00" xmlns="http://www.w3.org/2000/svg" xmlns:xlink="http://www.w3.org/1999/xlink">
<g id="graph0" class="graph" transform="scale(1 1) rotate(0) translate(4 178)">
<title>FiftyOne.Pipeline.Engines.Data.IAspectData</title>
<!-- Node1 -->
<g id="Node000001" class="node">
<title>Node1</title>
<g id="a_Node000001"><a xlink:title="Represents an ElementData instance that is generated by an IAspectEngine.">
<polygon fill="#999999" stroke="#666666" points="523,-102 380,-102 380,-72 523,-72 523,-102"/>
<text text-anchor="start" x="388" y="-90" font-family="Helvetica,sans-Serif" font-size="10.00">FiftyOne.Pipeline.Engines.</text>
<text text-anchor="middle" x="451.5" y="-79" font-family="Helvetica,sans-Serif" font-size="10.00">Data.IAspectData</text>
</a>
</g>
</g>
<!-- Node4 -->
<g id="Node000004" class="node">
<title>Node4</title>
<g id="a_Node000004"><a xlink:href="interface_examples_1_1_cloud_engine_1_1_data_1_1_i_star_sign_data.html" target="_top" xlink:title="[class]">
<polygon fill="white" stroke="#666666" points="717,-174 559,-174 559,-144 717,-144 717,-174"/>
<text text-anchor="start" x="567" y="-162" font-family="Helvetica,sans-Serif" font-size="10.00">Examples.CloudEngine.Data.</text>
<text text-anchor="middle" x="638" y="-151" font-family="Helvetica,sans-Serif" font-size="10.00">IStarSignData</text>
</a>
</g>
</g>
<!-- Node1&#45;&gt;Node4 -->
<g id="edge3_Node000001_Node000004" class="edge">
<title>Node1&#45;&gt;Node4</title>
<g id="a_edge3_Node000001_Node000004"><a xlink:title=" ">
<path fill="none" stroke="#63b8ff" d="M492.59,-106.5C512.34,-115.74 536.66,-126.57 559,-135 567.22,-138.1 576.03,-141.11 584.67,-143.89"/>
<polygon fill="#63b8ff" stroke="#63b8ff" points="493.83,-103.21 483.29,-102.11 490.84,-109.55 493.83,-103.21"/>
</a>
</g>
</g>
<!-- Node6 -->
<g id="Node000006" class="node">
<title>Node6</title>
<g id="a_Node000006"><a xlink:href="interface_examples_1_1_on_premise_engine_1_1_data_1_1_i_star_sign_data.html" target="_top" xlink:title="[class]">
<polygon fill="white" stroke="#666666" points="716.5,-78 559.5,-78 559.5,-48 716.5,-48 716.5,-78"/>
<text text-anchor="start" x="567.5" y="-66" font-family="Helvetica,sans-Serif" font-size="10.00">Examples.OnPremiseEngine.</text>
<text text-anchor="middle" x="638" y="-55" font-family="Helvetica,sans-Serif" font-size="10.00">Data.IStarSignData</text>
</a>
</g>
</g>
<!-- Node1&#45;&gt;Node6 -->
<g id="edge5_Node000001_Node000006" class="edge">
<title>Node1&#45;&gt;Node6</title>
<g id="a_edge5_Node000001_Node000006"><a xlink:title=" ">
<path fill="none" stroke="#63b8ff" d="M533.19,-76.5C541.9,-75.37 550.75,-74.22 559.43,-73.09"/>
<polygon fill="#63b8ff" stroke="#63b8ff" points="532.51,-73.06 523.04,-77.82 533.41,-80 532.51,-73.06"/>
</a>
</g>
</g>
<!-- Node8 -->
<g id="Node000008" class="node">
<title>Node8</title>
<g id="a_Node000008"><a xlink:href="class_fifty_one_1_1_pipeline_1_1_engines_1_1_data_1_1_aspect_data_base.html" target="_top" xlink:title="Base class for element data instances that are generated by an IAspectEngine.">
<polygon fill="white" stroke="#666666" points="709.5,-126 566.5,-126 566.5,-96 709.5,-96 709.5,-126"/>
<text text-anchor="start" x="574.5" y="-114" font-family="Helvetica,sans-Serif" font-size="10.00">FiftyOne.Pipeline.Engines.</text>
<text text-anchor="middle" x="638" y="-103" font-family="Helvetica,sans-Serif" font-size="10.00">Data.AspectDataBase</text>
</a>
</g>
</g>
<!-- Node1&#45;&gt;Node8 -->
<g id="edge7_Node000001_Node000008" class="edge">
<title>Node1&#45;&gt;Node8</title>
<g id="a_edge7_Node000001_Node000008"><a xlink:title=" ">
<path fill="none" stroke="#63b8ff" d="M533.16,-97.49C544.26,-98.94 555.59,-100.41 566.5,-101.83"/>
<polygon fill="#63b8ff" stroke="#63b8ff" points="533.41,-94 523.04,-96.18 532.51,-100.94 533.41,-94"/>
</a>
</g>
</g>
<!-- Node9 -->
<g id="Node000009" class="node">
<title>Node9</title>
<g id="a_Node000009"><a xlink:href="interface_fifty_one_1_1_pipeline_1_1_engines_1_1_data_1_1_i_multi_profile_data-1-g.html" target="_top" xlink:title="Represents a specific type of IAspectData that contains multiple IAspectData instances.">
<polygon fill="white" stroke="#666666" points="714.5,-30 561.5,-30 561.5,0 714.5,0 714.5,-30"/>
<text text-anchor="start" x="569.5" y="-18" font-family="Helvetica,sans-Serif" font-size="10.00">FiftyOne.Pipeline.Engines.</text>
<text text-anchor="middle" x="638" y="-7" font-family="Helvetica,sans-Serif" font-size="10.00">Data.IMultiProfileData&lt; T &gt;</text>
</a>
</g>
</g>
<!-- Node1&#45;&gt;Node9 -->
<g id="edge10_Node000001_Node000009" class="edge">
<title>Node1&#45;&gt;Node9</title>
<g id="a_edge10_Node000001_Node000009"><a xlink:title=" ">
<path fill="none" stroke="#63b8ff" d="M492.59,-67.5C512.34,-58.26 536.66,-47.43 559,-39 567.22,-35.9 576.03,-32.89 584.67,-30.11"/>
<polygon fill="#63b8ff" stroke="#63b8ff" points="490.84,-64.45 483.29,-71.89 493.83,-70.79 490.84,-64.45"/>
</a>
</g>
</g>
<!-- Node2 -->
<g id="Node000002" class="node">
<title>Node2</title>
<g id="a_Node000002"><a xlink:href="interface_fifty_one_1_1_pipeline_1_1_core_1_1_data_1_1_i_element_data.html" target="_top" xlink:title="Represents property values that have been determined by a specific FlowElement based on the supplied ...">
<polygon fill="white" stroke="#666666" points="344,-102 190,-102 190,-72 344,-72 344,-102"/>
<text text-anchor="start" x="198" y="-90" font-family="Helvetica,sans-Serif" font-size="10.00">FiftyOne.Pipeline.Core.Data.</text>
<text text-anchor="middle" x="267" y="-79" font-family="Helvetica,sans-Serif" font-size="10.00">IElementData</text>
</a>
</g>
</g>
<!-- Node2&#45;&gt;Node1 -->
<g id="edge1_Node000001_Node000002" class="edge">
<title>Node2&#45;&gt;Node1</title>
<g id="a_edge1_Node000001_Node000002"><a xlink:title=" ">
<path fill="none" stroke="#63b8ff" d="M354.12,-87C362.73,-87 371.39,-87 379.8,-87"/>
<polygon fill="#63b8ff" stroke="#63b8ff" points="354.07,-83.5 344.07,-87 354.07,-90.5 354.07,-83.5"/>
</a>
</g>
</g>
<!-- Node3 -->
<g id="Node000003" class="node">
<title>Node3</title>
<g id="a_Node000003"><a xlink:href="interface_fifty_one_1_1_pipeline_1_1_core_1_1_data_1_1_i_data.html" target="_top" xlink:title="Represents property values.">
<polygon fill="white" stroke="#666666" points="154,-102 0,-102 0,-72 154,-72 154,-102"/>
<text text-anchor="start" x="8" y="-90" font-family="Helvetica,sans-Serif" font-size="10.00">FiftyOne.Pipeline.Core.Data.</text>
<text text-anchor="middle" x="77" y="-79" font-family="Helvetica,sans-Serif" font-size="10.00">IData</text>
</a>
</g>
</g>
<!-- Node3&#45;&gt;Node2 -->
<g id="edge2_Node000002_Node000003" class="edge">
<title>Node3&#45;&gt;Node2</title>
<g id="a_edge2_Node000002_Node000003"><a xlink:title=" ">
<path fill="none" stroke="#63b8ff" d="M164.42,-87C172.86,-87 181.37,-87 189.7,-87"/>
<polygon fill="#63b8ff" stroke="#63b8ff" points="164.2,-83.5 154.2,-87 164.2,-90.5 164.2,-83.5"/>
</a>
</g>
</g>
<!-- Node5 -->
<g id="Node000005" class="node">
<title>Node5</title>
<g id="a_Node000005"><a xlink:title=" ">
<polygon fill="white" stroke="#666666" points="911,-162 753,-162 753,-132 911,-132 911,-162"/>
<text text-anchor="start" x="761" y="-150" font-family="Helvetica,sans-Serif" font-size="10.00">Examples.CloudEngine.Data.</text>
<text text-anchor="middle" x="832" y="-139" font-family="Helvetica,sans-Serif" font-size="10.00">StarSignData</text>
</a>
</g>
</g>
<!-- Node4&#45;&gt;Node5 -->
<g id="edge4_Node000004_Node000005" class="edge">
<title>Node4&#45;&gt;Node5</title>
<g id="a_edge4_Node000004_Node000005"><a xlink:title=" ">
<path fill="none" stroke="#63b8ff" d="M727.15,-153.49C735.77,-152.95 744.47,-152.41 752.98,-151.88"/>
<polygon fill="#63b8ff" stroke="#63b8ff" points="726.86,-150 717.09,-154.12 727.29,-156.99 726.86,-150"/>
</a>
</g>
</g>
<!-- Node7 -->
<g id="Node000007" class="node">
<title>Node7</title>
<g id="a_Node000007"><a xlink:title=" ">
<polygon fill="white" stroke="#666666" points="910.5,-102 753.5,-102 753.5,-72 910.5,-72 910.5,-102"/>
<text text-anchor="start" x="761.5" y="-90" font-family="Helvetica,sans-Serif" font-size="10.00">Examples.OnPremiseEngine.</text>
<text text-anchor="middle" x="832" y="-79" font-family="Helvetica,sans-Serif" font-size="10.00">Data.StarSignData</text>
</a>
</g>
</g>
<!-- Node6&#45;&gt;Node7 -->
<g id="edge6_Node000006_Node000007" class="edge">
<title>Node6&#45;&gt;Node7</title>
<g id="a_edge6_Node000006_Node000007"><a xlink:title=" ">
<path fill="none" stroke="#63b8ff" d="M726.6,-73.95C735.57,-75.07 744.64,-76.2 753.48,-77.31"/>
<polygon fill="#63b8ff" stroke="#63b8ff" points="726.9,-70.46 716.54,-72.69 726.03,-77.41 726.9,-70.46"/>
</a>
</g>
</g>
<!-- Node8&#45;&gt;Node5 -->
<g id="edge8_Node000008_Node000005" class="edge">
<title>Node8&#45;&gt;Node5</title>
<g id="a_edge8_Node000008_Node000005"><a xlink:title=" ">
<path fill="none" stroke="#63b8ff" d="M719.64,-126.12C730.58,-128.17 741.8,-130.28 752.71,-132.32"/>
<polygon fill="#63b8ff" stroke="#63b8ff" points="720.15,-122.65 709.68,-124.25 718.86,-129.53 720.15,-122.65"/>
</a>
</g>
</g>
<!-- Node8&#45;&gt;Node7 -->
<g id="edge9_Node000008_Node000007" class="edge">
<title>Node8&#45;&gt;Node7</title>
<g id="a_edge9_Node000008_Node000007"><a xlink:title=" ">
<path fill="none" stroke="#63b8ff" d="M719.79,-100.9C730.91,-99.51 742.3,-98.09 753.36,-96.71"/>
<polygon fill="#63b8ff" stroke="#63b8ff" points="719.16,-97.45 709.68,-102.17 720.03,-104.4 719.16,-97.45"/>
</a>
</g>
</g>
</g>
</svg>
