<?xml version="1.0" encoding="UTF-8" standalone="no"?>
<!DOCTYPE svg PUBLIC "-//W3C//DTD SVG 1.1//EN"
 "http://www.w3.org/Graphics/SVG/1.1/DTD/svg11.dtd">
<!-- Generated by graphviz version 2.43.0 (0)
 -->
<!-- Title: FiftyOne.Pipeline.Core.Data.IEvidenceKeyFilter Pages: 1 -->
<svg width="580pt" height="119pt"
 viewBox="0.00 0.00 580.00 118.50" xmlns="http://www.w3.org/2000/svg" xmlns:xlink="http://www.w3.org/1999/xlink">
<g id="graph0" class="graph" transform="scale(1 1) rotate(0) translate(4 114.5)">
<title>FiftyOne.Pipeline.Core.Data.IEvidenceKeyFilter</title>
<!-- Node1 -->
<g id="Node000001" class="node">
<title>Node1</title>
<g id="a_Node000001"><a xlink:title="Represents an object that filters evidence key names based on some criteria.">
<polygon fill="#999999" stroke="#666666" points="154,-89.5 0,-89.5 0,-59.5 154,-59.5 154,-89.5"/>
<text text-anchor="start" x="8" y="-77.5" font-family="Helvetica,sans-Serif" font-size="10.00">FiftyOne.Pipeline.Core.Data.</text>
<text text-anchor="middle" x="77" y="-66.5" font-family="Helvetica,sans-Serif" font-size="10.00">IEvidenceKeyFilter</text>
</a>
</g>
</g>
<!-- Node2 -->
<g id="Node000002" class="node">
<title>Node2</title>
<g id="a_Node000002"><a xlink:href="class_fifty_one_1_1_pipeline_1_1_core_1_1_data_1_1_evidence_key_filter_aggregator.html" target="_top" xlink:title="This implementation of IEvidenceKeyFilter aggregates multiple other filters using a logical OR approa...">
<polygon fill="white" stroke="#666666" points="564.5,-110.5 406.5,-110.5 406.5,-80.5 564.5,-80.5 564.5,-110.5"/>
<text text-anchor="start" x="414.5" y="-98.5" font-family="Helvetica,sans-Serif" font-size="10.00">FiftyOne.Pipeline.Core.Data.</text>
<text text-anchor="middle" x="485.5" y="-87.5" font-family="Helvetica,sans-Serif" font-size="10.00">EvidenceKeyFilterAggregator</text>
</a>
</g>
</g>
<!-- Node1&#45;&gt;Node2 -->
<g id="edge1_Node000001_Node000002" class="edge">
<title>Node1&#45;&gt;Node2</title>
<g id="a_edge1_Node000001_Node000002"><a xlink:title=" ">
<path fill="none" stroke="#63b8ff" d="M147.05,-91.68C161.17,-94.52 176,-97.02 190,-98.5 263.09,-106.24 346.96,-104.34 406.45,-101.19"/>
<polygon fill="#63b8ff" stroke="#63b8ff" points="147.42,-88.18 136.91,-89.56 145.98,-95.03 147.42,-88.18"/>
</a>
</g>
</g>
<!-- Node3 -->
<g id="Node000003" class="node">
<title>Node3</title>
<g id="a_Node000003"><a xlink:href="class_fifty_one_1_1_pipeline_1_1_core_1_1_data_1_1_evidence_key_filter_whitelist.html" target="_top" xlink:title="This evidence filter will only include keys that are in a list that is specified at construction time...">
<polygon fill="white" stroke="#666666" points="353.5,-89.5 199.5,-89.5 199.5,-59.5 353.5,-59.5 353.5,-89.5"/>
<text text-anchor="start" x="207.5" y="-77.5" font-family="Helvetica,sans-Serif" font-size="10.00">FiftyOne.Pipeline.Core.Data.</text>
<text text-anchor="middle" x="276.5" y="-66.5" font-family="Helvetica,sans-Serif" font-size="10.00">EvidenceKeyFilterWhitelist</text>
</a>
</g>
</g>
<!-- Node1&#45;&gt;Node3 -->
<g id="edge2_Node000001_Node000003" class="edge">
<title>Node1&#45;&gt;Node3</title>
<g id="a_edge2_Node000001_Node000003"><a xlink:title=" ">
<path fill="none" stroke="#63b8ff" d="M164.29,-74.5C176,-74.5 187.95,-74.5 199.46,-74.5"/>
<polygon fill="#63b8ff" stroke="#63b8ff" points="164.08,-71 154.08,-74.5 164.08,-78 164.08,-71"/>
</a>
</g>
</g>
<!-- Node4 -->
<g id="Node000004" class="node">
<title>Node4</title>
<g id="a_Node000004"><a xlink:href="class_fifty_one_1_1_pipeline_1_1_engines_1_1_fifty_one_1_1_data_1_1_evidence_key_filter_share_usage.html" target="_top" xlink:title="This filter is used by the ShareUsageElement.">
<polygon fill="white" stroke="#666666" points="363,-41 190,-41 190,0 363,0 363,-41"/>
<text text-anchor="start" x="198" y="-29" font-family="Helvetica,sans-Serif" font-size="10.00">FiftyOne.Pipeline.Engines.</text>
<text text-anchor="start" x="198" y="-18" font-family="Helvetica,sans-Serif" font-size="10.00">FiftyOne.Data.EvidenceKeyFilter</text>
<text text-anchor="middle" x="276.5" y="-7" font-family="Helvetica,sans-Serif" font-size="10.00">ShareUsage</text>
</a>
</g>
</g>
<!-- Node1&#45;&gt;Node4 -->
<g id="edge4_Node000001_Node000004" class="edge">
<title>Node1&#45;&gt;Node4</title>
<g id="a_edge4_Node000001_Node000004"><a xlink:title=" ">
<path fill="none" stroke="#63b8ff" d="M142.77,-56.79C161.22,-51.75 181.48,-46.21 200.48,-41.01"/>
<polygon fill="#63b8ff" stroke="#63b8ff" points="141.74,-53.44 133.01,-59.46 143.58,-60.2 141.74,-53.44"/>
</a>
</g>
</g>
<!-- Node3&#45;&gt;Node2 -->
<g id="edge3_Node000003_Node000002" class="edge">
<title>Node3&#45;&gt;Node2</title>
<g id="a_edge3_Node000003_Node000002"><a xlink:title=" ">
<path fill="none" stroke="#63b8ff" d="M363.87,-83.26C377.97,-84.69 392.5,-86.17 406.38,-87.58"/>
<polygon fill="#63b8ff" stroke="#63b8ff" points="364,-79.76 353.7,-82.23 363.29,-86.72 364,-79.76"/>
</a>
</g>
</g>
<!-- Node5 -->
<g id="Node000005" class="node">
<title>Node5</title>
<g id="a_Node000005"><a xlink:href="class_fifty_one_1_1_pipeline_1_1_engines_1_1_fifty_one_1_1_data_1_1_evidence_key_filter_share_usage_tracker.html" target="_top" xlink:title="Wrapper for EvidenceKeyFilter for Share Usage, to be used with the ShareUsageTracker to exclude speci...">
<polygon fill="white" stroke="#666666" points="572,-41 399,-41 399,0 572,0 572,-41"/>
<text text-anchor="start" x="407" y="-29" font-family="Helvetica,sans-Serif" font-size="10.00">FiftyOne.Pipeline.Engines.</text>
<text text-anchor="start" x="407" y="-18" font-family="Helvetica,sans-Serif" font-size="10.00">FiftyOne.Data.EvidenceKeyFilter</text>
<text text-anchor="middle" x="485.5" y="-7" font-family="Helvetica,sans-Serif" font-size="10.00">ShareUsageTracker</text>
</a>
</g>
</g>
<!-- Node4&#45;&gt;Node5 -->
<g id="edge5_Node000004_Node000005" class="edge">
<title>Node4&#45;&gt;Node5</title>
<g id="a_edge5_Node000004_Node000005"><a xlink:title=" ">
<path fill="none" stroke="#63b8ff" d="M373.2,-20.5C381.76,-20.5 390.4,-20.5 398.88,-20.5"/>
<polygon fill="#63b8ff" stroke="#63b8ff" points="373.19,-17 363.19,-20.5 373.19,-24 373.19,-17"/>
</a>
</g>
</g>
</g>
</svg>
