<?xml version="1.0" encoding="UTF-8" standalone="no"?>
<!DOCTYPE svg PUBLIC "-//W3C//DTD SVG 1.1//EN"
 "http://www.w3.org/Graphics/SVG/1.1/DTD/svg11.dtd">
<!-- Generated by graphviz version 2.43.0 (0)
 -->
<!-- Title: FiftyOne.Pipeline.Core.FlowElements.IFlowElement Pages: 1 -->
<svg width="1442pt" height="781pt"
 viewBox="0.00 0.00 1442.00 780.84" xmlns="http://www.w3.org/2000/svg" xmlns:xlink="http://www.w3.org/1999/xlink">
<g id="graph0" class="graph" transform="scale(1 1) rotate(0) translate(4 776.84)">
<title>FiftyOne.Pipeline.Core.FlowElements.IFlowElement</title>
<!-- Node1 -->
<g id="Node000001" class="node">
<title>Node1</title>
<g id="a_Node000001"><a xlink:title="IFlowElement is the basic building block of a pipeline.">
<polygon fill="#999999" stroke="#666666" points="261,-127 110,-127 110,-97 261,-97 261,-127"/>
<text text-anchor="start" x="118" y="-115" font-family="Helvetica,sans-Serif" font-size="10.00">FiftyOne.Pipeline.Core.Flow</text>
<text text-anchor="middle" x="185.5" y="-104" font-family="Helvetica,sans-Serif" font-size="10.00">Elements.IFlowElement</text>
</a>
</g>
</g>
<!-- Node3 -->
<g id="Node000003" class="node">
<title>Node3</title>
<g id="a_Node000003"><a xlink:href="interface_fifty_one_1_1_pipeline_1_1_core_1_1_flow_elements_1_1_i_flow_element-2-g.html" target="_top" xlink:title="Generic interface that extends IFlowElement with the ability to return a ITypedKey&lt;T&gt; that will allow...">
<polygon fill="white" stroke="#666666" points="452,-213.5 300,-213.5 300,-172.5 452,-172.5 452,-213.5"/>
<text text-anchor="start" x="308" y="-201.5" font-family="Helvetica,sans-Serif" font-size="10.00">FiftyOne.Pipeline.Core.Flow</text>
<text text-anchor="start" x="308" y="-190.5" font-family="Helvetica,sans-Serif" font-size="10.00">Elements.IFlowElement&lt; T,</text>
<text text-anchor="middle" x="376" y="-179.5" font-family="Helvetica,sans-Serif" font-size="10.00"> TMeta &gt;</text>
</a>
</g>
</g>
<!-- Node1&#45;&gt;Node3 -->
<g id="edge2_Node000001_Node000003" class="edge">
<title>Node1&#45;&gt;Node3</title>
<g id="a_edge2_Node000001_Node000003"><a xlink:title=" ">
<path fill="none" stroke="#63b8ff" d="M230.95,-131.1C259.83,-143.51 297.47,-159.68 327.03,-172.39"/>
<polygon fill="#63b8ff" stroke="#63b8ff" points="232.08,-127.78 221.51,-127.05 229.32,-134.21 232.08,-127.78"/>
</a>
</g>
</g>
<!-- Node28 -->
<g id="Node000028" class="node">
<title>Node28</title>
<g id="a_Node000028"><a xlink:href="interface_fifty_one_1_1_pipeline_1_1_engines_1_1_flow_elements_1_1_i_aspect_engine.html" target="_top" xlink:title="Interface representing 51Degrees on&#45;premise aspect engines.">
<polygon fill="white" stroke="#666666" points="455,-98 297,-98 297,-68 455,-68 455,-98"/>
<text text-anchor="start" x="305" y="-86" font-family="Helvetica,sans-Serif" font-size="10.00">FiftyOne.Pipeline.Engines.</text>
<text text-anchor="middle" x="376" y="-75" font-family="Helvetica,sans-Serif" font-size="10.00">FlowElements.IAspectEngine</text>
</a>
</g>
</g>
<!-- Node1&#45;&gt;Node28 -->
<g id="edge31_Node000001_Node000028" class="edge">
<title>Node1&#45;&gt;Node28</title>
<g id="a_edge31_Node000001_Node000028"><a xlink:title=" ">
<path fill="none" stroke="#63b8ff" d="M270.98,-99C279.54,-97.69 288.21,-96.35 296.71,-95.05"/>
<polygon fill="#63b8ff" stroke="#63b8ff" points="270.35,-95.56 261,-100.54 271.42,-102.48 270.35,-95.56"/>
</a>
</g>
</g>
<!-- Node2 -->
<g id="Node000002" class="node">
<title>Node2</title>
<g id="a_Node000002"><a xlink:title=" ">
<polygon fill="white" stroke="#bfbfbf" points="74,-121.5 0,-121.5 0,-102.5 74,-102.5 74,-121.5"/>
<text text-anchor="middle" x="37" y="-109.5" font-family="Helvetica,sans-Serif" font-size="10.00">IDisposable</text>
</a>
</g>
</g>
<!-- Node2&#45;&gt;Node1 -->
<g id="edge1_Node000001_Node000002" class="edge">
<title>Node2&#45;&gt;Node1</title>
<g id="a_edge1_Node000001_Node000002"><a xlink:title=" ">
<path fill="none" stroke="#63b8ff" d="M84.22,-112C92.38,-112 101.05,-112 109.75,-112"/>
<polygon fill="#63b8ff" stroke="#63b8ff" points="84.21,-108.5 74.21,-112 84.21,-115.5 84.21,-108.5"/>
</a>
</g>
</g>
<!-- Node4 -->
<g id="Node000004" class="node">
<title>Node4</title>
<g id="a_Node000004"><a xlink:href="class_fifty_one_1_1_pipeline_1_1_core_1_1_flow_elements_1_1_flow_element_base-2-g.html" target="_top" xlink:title="Abstract base class for Flow Elements.">
<polygon fill="white" stroke="#666666" points="663,-408.5 510,-408.5 510,-367.5 663,-367.5 663,-408.5"/>
<text text-anchor="start" x="518" y="-396.5" font-family="Helvetica,sans-Serif" font-size="10.00">FiftyOne.Pipeline.Core.Flow</text>
<text text-anchor="start" x="518" y="-385.5" font-family="Helvetica,sans-Serif" font-size="10.00">Elements.FlowElementBase</text>
<text text-anchor="middle" x="586.5" y="-374.5" font-family="Helvetica,sans-Serif" font-size="10.00">&lt; T, TMeta &gt;</text>
</a>
</g>
</g>
<!-- Node3&#45;&gt;Node4 -->
<g id="edge3_Node000003_Node000004" class="edge">
<title>Node3&#45;&gt;Node4</title>
<g id="a_edge3_Node000003_Node000004"><a xlink:title=" ">
<path fill="none" stroke="#63b8ff" d="M406.8,-220.87C449.12,-260.45 525.68,-332.05 563.35,-367.28"/>
<polygon fill="#63b8ff" stroke="#63b8ff" points="409.01,-218.14 399.31,-213.87 404.23,-223.26 409.01,-218.14"/>
</a>
</g>
</g>
<!-- Node24 -->
<g id="Node000024" class="node">
<title>Node24</title>
<g id="a_Node000024"><a xlink:href="interface_fifty_one_1_1_pipeline_1_1_engines_1_1_fifty_one_1_1_flow_elements_1_1_i_set_headers_element.html" target="_top" xlink:title="An IFlowElement that collates responses from all engines that want to set headers in the HTTP respons...">
<polygon fill="white" stroke="#666666" points="682,-186.5 491,-186.5 491,-145.5 682,-145.5 682,-186.5"/>
<text text-anchor="start" x="499" y="-174.5" font-family="Helvetica,sans-Serif" font-size="10.00">FiftyOne.Pipeline.Engines.</text>
<text text-anchor="start" x="499" y="-163.5" font-family="Helvetica,sans-Serif" font-size="10.00">FiftyOne.FlowElements.ISetHeaders</text>
<text text-anchor="middle" x="586.5" y="-152.5" font-family="Helvetica,sans-Serif" font-size="10.00">Element</text>
</a>
</g>
</g>
<!-- Node3&#45;&gt;Node24 -->
<g id="edge23_Node000003_Node000024" class="edge">
<title>Node3&#45;&gt;Node24</title>
<g id="a_edge23_Node000003_Node000024"><a xlink:title=" ">
<path fill="none" stroke="#63b8ff" d="M462.33,-181.95C471.69,-180.74 481.26,-179.5 490.73,-178.27"/>
<polygon fill="#63b8ff" stroke="#63b8ff" points="461.74,-178.5 452.27,-183.25 462.64,-185.44 461.74,-178.5"/>
</a>
</g>
</g>
<!-- Node25 -->
<g id="Node000025" class="node">
<title>Node25</title>
<g id="a_Node000025"><a xlink:href="interface_fifty_one_1_1_pipeline_1_1_engines_1_1_flow_elements_1_1_i_aspect_engine-2-g.html" target="_top" xlink:title="Interface representing 51Degrees on&#45;premise aspect engines.">
<polygon fill="white" stroke="#666666" points="665.5,-127.5 507.5,-127.5 507.5,-86.5 665.5,-86.5 665.5,-127.5"/>
<text text-anchor="start" x="515.5" y="-115.5" font-family="Helvetica,sans-Serif" font-size="10.00">FiftyOne.Pipeline.Engines.</text>
<text text-anchor="start" x="515.5" y="-104.5" font-family="Helvetica,sans-Serif" font-size="10.00">FlowElements.IAspectEngine</text>
<text text-anchor="middle" x="586.5" y="-93.5" font-family="Helvetica,sans-Serif" font-size="10.00">&lt; T, TMeta &gt;</text>
</a>
</g>
</g>
<!-- Node3&#45;&gt;Node25 -->
<g id="edge25_Node000003_Node000025" class="edge">
<title>Node3&#45;&gt;Node25</title>
<g id="a_edge25_Node000003_Node000025"><a xlink:title=" ">
<path fill="none" stroke="#63b8ff" d="M423.34,-167.64C443.74,-157.05 468.2,-145.13 491,-136 498.41,-133.03 506.24,-130.19 514.11,-127.52"/>
<polygon fill="#63b8ff" stroke="#63b8ff" points="421.51,-164.65 414.28,-172.39 424.76,-170.85 421.51,-164.65"/>
</a>
</g>
</g>
<!-- Node26 -->
<g id="Node000026" class="node">
<title>Node26</title>
<g id="a_Node000026"><a xlink:href="interface_fifty_one_1_1_pipeline_1_1_json_builder_1_1_flow_element_1_1_i_json_builder_element.html" target="_top" xlink:title="The Interface for the JsonBuilderElement See the Specification.">
<polygon fill="white" stroke="#666666" points="677.5,-235 495.5,-235 495.5,-205 677.5,-205 677.5,-235"/>
<text text-anchor="start" x="503.5" y="-223" font-family="Helvetica,sans-Serif" font-size="10.00">FiftyOne.Pipeline.JsonBuilder.</text>
<text text-anchor="middle" x="586.5" y="-212" font-family="Helvetica,sans-Serif" font-size="10.00">FlowElement.IJsonBuilderElement</text>
</a>
</g>
</g>
<!-- Node3&#45;&gt;Node26 -->
<g id="edge27_Node000003_Node000026" class="edge">
<title>Node3&#45;&gt;Node26</title>
<g id="a_edge27_Node000003_Node000026"><a xlink:title=" ">
<path fill="none" stroke="#63b8ff" d="M462.23,-204.04C473.17,-205.45 484.4,-206.91 495.41,-208.33"/>
<polygon fill="#63b8ff" stroke="#63b8ff" points="462.64,-200.56 452.27,-202.75 461.74,-207.5 462.64,-200.56"/>
</a>
</g>
</g>
<!-- Node27 -->
<g id="Node000027" class="node">
<title>Node27</title>
<g id="a_Node000027"><a xlink:href="interface_fifty_one_1_1_pipeline_1_1_translation_1_1_flow_elements_1_1_i_translation_engine.html" target="_top" xlink:title="Flow element that translates values from a single source element and stores translated values under i...">
<polygon fill="white" stroke="#666666" points="675.5,-631 497.5,-631 497.5,-601 675.5,-601 675.5,-631"/>
<text text-anchor="start" x="505.5" y="-619" font-family="Helvetica,sans-Serif" font-size="10.00">FiftyOne.Pipeline.Translation.</text>
<text text-anchor="middle" x="586.5" y="-608" font-family="Helvetica,sans-Serif" font-size="10.00">FlowElements.ITranslationEngine</text>
</a>
</g>
</g>
<!-- Node3&#45;&gt;Node27 -->
<g id="edge29_Node000003_Node000027" class="edge">
<title>Node3&#45;&gt;Node27</title>
<g id="a_edge29_Node000003_Node000027"><a xlink:title=" ">
<path fill="none" stroke="#63b8ff" d="M391.72,-222.87C432.81,-306.23 547.72,-539.35 578.07,-600.93"/>
<polygon fill="#63b8ff" stroke="#63b8ff" points="394.76,-221.11 387.2,-213.69 388.48,-224.21 394.76,-221.11"/>
</a>
</g>
</g>
<!-- Node5 -->
<g id="Node000005" class="node">
<title>Node5</title>
<g id="a_Node000005"><a xlink:href="class_examples_1_1_client_side_evidence_1_1_shared_1_1_simple_client_side_element.html" target="_top" xlink:title=" ">
<polygon fill="white" stroke="#666666" points="920,-331 743,-331 743,-301 920,-301 920,-331"/>
<text text-anchor="start" x="751" y="-319" font-family="Helvetica,sans-Serif" font-size="10.00">Examples.ClientSideEvidence.</text>
<text text-anchor="middle" x="831.5" y="-308" font-family="Helvetica,sans-Serif" font-size="10.00">Shared.SimpleClientSideElement</text>
</a>
</g>
</g>
<!-- Node4&#45;&gt;Node5 -->
<g id="edge4_Node000004_Node000005" class="edge">
<title>Node4&#45;&gt;Node5</title>
<g id="a_edge4_Node000004_Node000005"><a xlink:title=" ">
<path fill="none" stroke="#63b8ff" d="M647.58,-363.87C669.52,-355.6 694.67,-346.74 718,-340 729.22,-336.76 741.19,-333.74 752.98,-331.02"/>
<polygon fill="#63b8ff" stroke="#63b8ff" points="646.17,-360.66 638.07,-367.49 648.66,-367.2 646.17,-360.66"/>
</a>
</g>
</g>
<!-- Node6 -->
<g id="Node000006" class="node">
<title>Node6</title>
<g id="a_Node000006"><a xlink:href="class_examples_1_1_custom_flow_element_1_1_flow_elements_1_1_simple_flow_element.html" target="_top" xlink:title=" ">
<polygon fill="white" stroke="#666666" points="924.5,-739 738.5,-739 738.5,-709 924.5,-709 924.5,-739"/>
<text text-anchor="start" x="746.5" y="-727" font-family="Helvetica,sans-Serif" font-size="10.00">Examples.CustomFlowElement.</text>
<text text-anchor="middle" x="831.5" y="-716" font-family="Helvetica,sans-Serif" font-size="10.00">FlowElements.SimpleFlowElement</text>
</a>
</g>
</g>
<!-- Node4&#45;&gt;Node6 -->
<g id="edge5_Node000004_Node000006" class="edge">
<title>Node4&#45;&gt;Node6</title>
<g id="a_edge5_Node000004_Node000006"><a xlink:title=" ">
<path fill="none" stroke="#63b8ff" d="M602.59,-417.79C622.2,-457.12 656.92,-528.79 682,-592 700.66,-639.03 680.28,-666.27 718,-700 724.03,-705.39 730.97,-709.68 738.37,-713.07"/>
<polygon fill="#63b8ff" stroke="#63b8ff" points="605.55,-415.89 597.94,-408.52 599.29,-419.02 605.55,-415.89"/>
</a>
</g>
</g>
<!-- Node7 -->
<g id="Node000007" class="node">
<title>Node7</title>
<g id="a_Node000007"><a xlink:title=" ">
<polygon fill="white" stroke="#666666" points="907,-691 756,-691 756,-661 907,-661 907,-691"/>
<text text-anchor="start" x="764" y="-679" font-family="Helvetica,sans-Serif" font-size="10.00">FiftyOne.Pipeline.Core.Flow</text>
<text text-anchor="middle" x="831.5" y="-668" font-family="Helvetica,sans-Serif" font-size="10.00">Elements.ParallelElements</text>
</a>
</g>
</g>
<!-- Node4&#45;&gt;Node7 -->
<g id="edge6_Node000004_Node000007" class="edge">
<title>Node4&#45;&gt;Node7</title>
<g id="a_edge6_Node000004_Node000007"><a xlink:title=" ">
<path fill="none" stroke="#63b8ff" d="M601.53,-418.12C633.11,-485.69 707.85,-644.11 718,-652 728.96,-660.52 742.26,-666.18 755.82,-669.91"/>
<polygon fill="#63b8ff" stroke="#63b8ff" points="604.59,-416.42 597.19,-408.84 598.25,-419.38 604.59,-416.42"/>
</a>
</g>
</g>
<!-- Node8 -->
<g id="Node000008" class="node">
<title>Node8</title>
<g id="a_Node000008"><a xlink:href="class_fifty_one_1_1_pipeline_1_1_engines_1_1_fifty_one_1_1_flow_elements_1_1_sequence_element.html" target="_top" xlink:title="Sequence element establishes session and sequence evidence in the pipeline.">
<polygon fill="white" stroke="#666666" points="921,-642.5 742,-642.5 742,-601.5 921,-601.5 921,-642.5"/>
<text text-anchor="start" x="750" y="-630.5" font-family="Helvetica,sans-Serif" font-size="10.00">FiftyOne.Pipeline.Engines.</text>
<text text-anchor="start" x="750" y="-619.5" font-family="Helvetica,sans-Serif" font-size="10.00">FiftyOne.FlowElements.Sequence</text>
<text text-anchor="middle" x="831.5" y="-608.5" font-family="Helvetica,sans-Serif" font-size="10.00">Element</text>
</a>
</g>
</g>
<!-- Node4&#45;&gt;Node8 -->
<g id="edge7_Node000004_Node000008" class="edge">
<title>Node4&#45;&gt;Node8</title>
<g id="a_edge7_Node000004_Node000008"><a xlink:title=" ">
<path fill="none" stroke="#63b8ff" d="M598.5,-418.15C616.43,-463.02 656.31,-546.91 718,-592 725.26,-597.31 733.4,-601.68 741.89,-605.27"/>
<polygon fill="#63b8ff" stroke="#63b8ff" points="601.69,-416.72 594.8,-408.67 595.17,-419.26 601.69,-416.72"/>
</a>
</g>
</g>
<!-- Node9 -->
<g id="Node000009" class="node">
<title>Node9</title>
<g id="a_Node000009"><a xlink:href="class_fifty_one_1_1_pipeline_1_1_engines_1_1_fifty_one_1_1_flow_elements_1_1_set_headers_element.html" target="_top" xlink:title="This element is used to determine the values for HTTP headers that other elements in the pipeline wan...">
<polygon fill="white" stroke="#666666" points="925.5,-186.5 737.5,-186.5 737.5,-145.5 925.5,-145.5 925.5,-186.5"/>
<text text-anchor="start" x="745.5" y="-174.5" font-family="Helvetica,sans-Serif" font-size="10.00">FiftyOne.Pipeline.Engines.</text>
<text text-anchor="start" x="745.5" y="-163.5" font-family="Helvetica,sans-Serif" font-size="10.00">FiftyOne.FlowElements.SetHeaders</text>
<text text-anchor="middle" x="831.5" y="-152.5" font-family="Helvetica,sans-Serif" font-size="10.00">Element</text>
</a>
</g>
</g>
<!-- Node4&#45;&gt;Node9 -->
<g id="edge8_Node000004_Node000009" class="edge">
<title>Node4&#45;&gt;Node9</title>
<g id="a_edge8_Node000004_Node000009"><a xlink:title=" ">
<path fill="none" stroke="#63b8ff" d="M606.47,-358.97C640.72,-306.69 710.12,-201.6 718,-196 724.02,-191.73 730.6,-188.07 737.48,-184.93"/>
<polygon fill="#63b8ff" stroke="#63b8ff" points="603.44,-357.2 600.89,-367.48 609.3,-361.03 603.44,-357.2"/>
</a>
</g>
</g>
<!-- Node10 -->
<g id="Node000010" class="node">
<title>Node10</title>
<g id="a_Node000010"><a xlink:href="class_fifty_one_1_1_pipeline_1_1_engines_1_1_fifty_one_1_1_flow_elements_1_1_share_usage_base.html" target="_top" xlink:title="Abstract base class for ShareUsage elements.">
<polygon fill="white" stroke="#666666" points="939,-283 724,-283 724,-253 939,-253 939,-283"/>
<text text-anchor="start" x="732" y="-271" font-family="Helvetica,sans-Serif" font-size="10.00">FiftyOne.Pipeline.Engines.</text>
<text text-anchor="middle" x="831.5" y="-260" font-family="Helvetica,sans-Serif" font-size="10.00">FiftyOne.FlowElements.ShareUsageBase</text>
</a>
</g>
</g>
<!-- Node4&#45;&gt;Node10 -->
<g id="edge9_Node000004_Node000010" class="edge">
<title>Node4&#45;&gt;Node10</title>
<g id="a_edge9_Node000004_Node000010"><a xlink:title=" ">
<path fill="none" stroke="#63b8ff" d="M616.86,-360.66C641.89,-338.83 679.8,-309.16 718,-292 725.65,-288.56 733.82,-285.61 742.13,-283.07"/>
<polygon fill="#63b8ff" stroke="#63b8ff" points="614.36,-358.19 609.2,-367.44 619.01,-363.43 614.36,-358.19"/>
</a>
</g>
</g>
<!-- Node12 -->
<g id="Node000012" class="node">
<title>Node12</title>
<g id="a_Node000012"><a xlink:href="class_fifty_one_1_1_pipeline_1_1_engines_1_1_flow_elements_1_1_aspect_engine_base-2-g.html" target="_top" xlink:title="Base class for 51Degrees aspect engines.">
<polygon fill="white" stroke="#666666" points="921,-127.5 742,-127.5 742,-86.5 921,-86.5 921,-127.5"/>
<text text-anchor="start" x="750" y="-115.5" font-family="Helvetica,sans-Serif" font-size="10.00">FiftyOne.Pipeline.Engines.</text>
<text text-anchor="start" x="750" y="-104.5" font-family="Helvetica,sans-Serif" font-size="10.00">FlowElements.AspectEngineBase</text>
<text text-anchor="middle" x="831.5" y="-93.5" font-family="Helvetica,sans-Serif" font-size="10.00">&lt; T, TMeta &gt;</text>
</a>
</g>
</g>
<!-- Node4&#45;&gt;Node12 -->
<g id="edge11_Node000004_Node000012" class="edge">
<title>Node4&#45;&gt;Node12</title>
<g id="a_edge11_Node000004_Node000012"><a xlink:title=" ">
<path fill="none" stroke="#63b8ff" d="M609.87,-358.89C630.71,-330.71 661.56,-286.19 682,-244 704.06,-198.47 681,-170.51 718,-136 724.93,-129.53 733.11,-124.46 741.84,-120.5"/>
<polygon fill="#63b8ff" stroke="#63b8ff" points="606.93,-356.98 603.75,-367.09 612.53,-361.17 606.93,-356.98"/>
</a>
</g>
</g>
<!-- Node17 -->
<g id="Node000017" class="node">
<title>Node17</title>
<g id="a_Node000017"><a xlink:href="class_fifty_one_1_1_pipeline_1_1_ip_splitter_1_1_ip_splitter_element.html" target="_top" xlink:title=" ">
<polygon fill="white" stroke="#bfbfbf" points="906,-535 757,-535 757,-505 906,-505 906,-535"/>
<text text-anchor="start" x="765" y="-523" font-family="Helvetica,sans-Serif" font-size="10.00">FiftyOne.Pipeline.IpSplitter.</text>
<text text-anchor="middle" x="831.5" y="-512" font-family="Helvetica,sans-Serif" font-size="10.00">IpSplitterElement</text>
</a>
</g>
</g>
<!-- Node4&#45;&gt;Node17 -->
<g id="edge16_Node000004_Node000017" class="edge">
<title>Node4&#45;&gt;Node17</title>
<g id="a_edge16_Node000004_Node000017"><a xlink:title=" ">
<path fill="none" stroke="#63b8ff" d="M613.27,-415.91C637.8,-440.75 676.98,-476.15 718,-496 730.04,-501.83 743.49,-506.25 756.78,-509.6"/>
<polygon fill="#63b8ff" stroke="#63b8ff" points="615.61,-413.3 606.14,-408.57 610.59,-418.18 615.61,-413.3"/>
</a>
</g>
</g>
<!-- Node18 -->
<g id="Node000018" class="node">
<title>Node18</title>
<g id="a_Node000018"><a xlink:href="class_fifty_one_1_1_pipeline_1_1_java_script_builder_1_1_flow_element_1_1_java_script_builder_element.html" target="_top" xlink:title="JavaScript Builder Element generates a JavaScript include to be run on the client device.">
<polygon fill="white" stroke="#666666" points="933,-486.5 730,-486.5 730,-445.5 933,-445.5 933,-486.5"/>
<text text-anchor="start" x="738" y="-474.5" font-family="Helvetica,sans-Serif" font-size="10.00">FiftyOne.Pipeline.JavaScript</text>
<text text-anchor="start" x="738" y="-463.5" font-family="Helvetica,sans-Serif" font-size="10.00">Builder.FlowElement.JavaScriptBuilder</text>
<text text-anchor="middle" x="831.5" y="-452.5" font-family="Helvetica,sans-Serif" font-size="10.00">Element</text>
</a>
</g>
</g>
<!-- Node4&#45;&gt;Node18 -->
<g id="edge17_Node000004_Node000018" class="edge">
<title>Node4&#45;&gt;Node18</title>
<g id="a_edge17_Node000004_Node000018"><a xlink:title=" ">
<path fill="none" stroke="#63b8ff" d="M649.79,-412.23C671.25,-420.23 695.55,-428.89 718,-436 728.21,-439.23 739.02,-442.41 749.74,-445.42"/>
<polygon fill="#63b8ff" stroke="#63b8ff" points="650.73,-408.85 640.14,-408.61 648.27,-415.4 650.73,-408.85"/>
</a>
</g>
</g>
<!-- Node19 -->
<g id="Node000019" class="node">
<title>Node19</title>
<g id="a_Node000019"><a xlink:href="class_fifty_one_1_1_pipeline_1_1_json_builder_1_1_flow_element_1_1_json_builder_element.html" target="_top" xlink:title="The JsonBuilderElement takes accessible properties and adds the property key:values to the Json objec...">
<polygon fill="white" stroke="#666666" points="921,-235 742,-235 742,-205 921,-205 921,-235"/>
<text text-anchor="start" x="750" y="-223" font-family="Helvetica,sans-Serif" font-size="10.00">FiftyOne.Pipeline.JsonBuilder.</text>
<text text-anchor="middle" x="831.5" y="-212" font-family="Helvetica,sans-Serif" font-size="10.00">FlowElement.JsonBuilderElement</text>
</a>
</g>
</g>
<!-- Node4&#45;&gt;Node19 -->
<g id="edge18_Node000004_Node000019" class="edge">
<title>Node4&#45;&gt;Node19</title>
<g id="a_edge18_Node000004_Node000019"><a xlink:title=" ">
<path fill="none" stroke="#63b8ff" d="M605.57,-358.94C627.81,-325.74 668.75,-272.36 718,-244 725.44,-239.72 733.56,-236.19 741.91,-233.3"/>
<polygon fill="#63b8ff" stroke="#63b8ff" points="602.63,-357.05 600.06,-367.33 608.48,-360.89 602.63,-357.05"/>
</a>
</g>
</g>
<!-- Node20 -->
<g id="Node000020" class="node">
<title>Node20</title>
<g id="a_Node000020"><a xlink:href="class_fifty_one_1_1_pipeline_1_1_math_1_1_math_element.html" target="_top" xlink:title=" ">
<polygon fill="white" stroke="#bfbfbf" points="909,-427 754,-427 754,-397 909,-397 909,-427"/>
<text text-anchor="start" x="762" y="-415" font-family="Helvetica,sans-Serif" font-size="10.00">FiftyOne.Pipeline.Math.Math</text>
<text text-anchor="middle" x="831.5" y="-404" font-family="Helvetica,sans-Serif" font-size="10.00">Element</text>
</a>
</g>
</g>
<!-- Node4&#45;&gt;Node20 -->
<g id="edge19_Node000004_Node000020" class="edge">
<title>Node4&#45;&gt;Node20</title>
<g id="a_edge19_Node000004_Node000020"><a xlink:title=" ">
<path fill="none" stroke="#63b8ff" d="M673.35,-396.48C699.55,-399.07 728.18,-401.89 753.74,-404.42"/>
<polygon fill="#63b8ff" stroke="#63b8ff" points="673.35,-392.96 663.05,-395.46 672.66,-399.93 673.35,-392.96"/>
</a>
</g>
</g>
<!-- Node21 -->
<g id="Node000021" class="node">
<title>Node21</title>
<g id="a_Node000021"><a xlink:href="class_fifty_one_1_1_pipeline_1_1_translation_1_1_flow_elements_1_1_translation_engine_base-1-g.html" target="_top" xlink:title="Flow element that translates values from a single source element and stores translated values under i...">
<polygon fill="white" stroke="#666666" points="945,-583 718,-583 718,-553 945,-553 945,-583"/>
<text text-anchor="start" x="726" y="-571" font-family="Helvetica,sans-Serif" font-size="10.00">FiftyOne.Pipeline.Translation.</text>
<text text-anchor="middle" x="831.5" y="-560" font-family="Helvetica,sans-Serif" font-size="10.00">FlowElements.TranslationEngineBase&lt; T &gt;</text>
</a>
</g>
</g>
<!-- Node4&#45;&gt;Node21 -->
<g id="edge20_Node000004_Node000021" class="edge">
<title>Node4&#45;&gt;Node21</title>
<g id="a_edge20_Node000004_Node000021"><a xlink:title=" ">
<path fill="none" stroke="#63b8ff" d="M603.93,-417.74C625.33,-453.57 666.22,-512.81 718,-544 723.73,-547.45 729.89,-550.41 736.26,-552.95"/>
<polygon fill="#63b8ff" stroke="#63b8ff" points="606.73,-415.6 598.66,-408.74 600.69,-419.14 606.73,-415.6"/>
</a>
</g>
</g>
<!-- Node23 -->
<g id="Node000023" class="node">
<title>Node23</title>
<g id="a_Node000023"><a xlink:href="class_fifty_one_1_1_pipeline_1_1_translation_1_1_tests_1_1_evidence_copy_element.html" target="_top" xlink:title="Element that just copies the evidence into its element data.">
<polygon fill="white" stroke="#666666" points="910.5,-379 752.5,-379 752.5,-349 910.5,-349 910.5,-379"/>
<text text-anchor="start" x="760.5" y="-367" font-family="Helvetica,sans-Serif" font-size="10.00">FiftyOne.Pipeline.Translation.</text>
<text text-anchor="middle" x="831.5" y="-356" font-family="Helvetica,sans-Serif" font-size="10.00">Tests.EvidenceCopyElement</text>
</a>
</g>
</g>
<!-- Node4&#45;&gt;Node23 -->
<g id="edge22_Node000004_Node000023" class="edge">
<title>Node4&#45;&gt;Node23</title>
<g id="a_edge22_Node000004_Node000023"><a xlink:title=" ">
<path fill="none" stroke="#63b8ff" d="M673.2,-379.54C699.01,-376.99 727.19,-374.2 752.47,-371.71"/>
<polygon fill="#63b8ff" stroke="#63b8ff" points="672.66,-376.07 663.05,-380.54 673.35,-383.04 672.66,-376.07"/>
</a>
</g>
</g>
<!-- Node11 -->
<g id="Node000011" class="node">
<title>Node11</title>
<g id="a_Node000011"><a xlink:href="class_fifty_one_1_1_pipeline_1_1_engines_1_1_fifty_one_1_1_flow_elements_1_1_share_usage_element.html" target="_top" xlink:title="Flow element that sends usage data to 51Degrees for analysis.">
<polygon fill="white" stroke="#666666" points="1180.5,-288.5 989.5,-288.5 989.5,-247.5 1180.5,-247.5 1180.5,-288.5"/>
<text text-anchor="start" x="997.5" y="-276.5" font-family="Helvetica,sans-Serif" font-size="10.00">FiftyOne.Pipeline.Engines.</text>
<text text-anchor="start" x="997.5" y="-265.5" font-family="Helvetica,sans-Serif" font-size="10.00">FiftyOne.FlowElements.ShareUsage</text>
<text text-anchor="middle" x="1085" y="-254.5" font-family="Helvetica,sans-Serif" font-size="10.00">Element</text>
</a>
</g>
</g>
<!-- Node10&#45;&gt;Node11 -->
<g id="edge10_Node000010_Node000011" class="edge">
<title>Node10&#45;&gt;Node11</title>
<g id="a_edge10_Node000010_Node000011"><a xlink:title=" ">
<path fill="none" stroke="#63b8ff" d="M949.32,-268C962.66,-268 976.13,-268 989.13,-268"/>
<polygon fill="#63b8ff" stroke="#63b8ff" points="949.16,-264.5 939.16,-268 949.16,-271.5 949.16,-264.5"/>
</a>
</g>
</g>
<!-- Node13 -->
<g id="Node000013" class="node">
<title>Node13</title>
<g id="a_Node000013"><a xlink:href="class_fifty_one_1_1_pipeline_1_1_engines_1_1_fifty_one_1_1_flow_elements_1_1_property_keyed_engine-2-g.html" target="_top" xlink:title="Base class for engines that use an index of property values to profile ids to populate one or more pr...">
<polygon fill="white" stroke="#666666" points="1172,-159.5 998,-159.5 998,-118.5 1172,-118.5 1172,-159.5"/>
<text text-anchor="start" x="1006" y="-147.5" font-family="Helvetica,sans-Serif" font-size="10.00">FiftyOne.Pipeline.Engines.</text>
<text text-anchor="start" x="1006" y="-136.5" font-family="Helvetica,sans-Serif" font-size="10.00">FiftyOne.FlowElements.Property</text>
<text text-anchor="middle" x="1085" y="-125.5" font-family="Helvetica,sans-Serif" font-size="10.00">KeyedEngine&lt; TData, TProfile &gt;</text>
</a>
</g>
</g>
<!-- Node12&#45;&gt;Node13 -->
<g id="edge12_Node000012_Node000013" class="edge">
<title>Node12&#45;&gt;Node13</title>
<g id="a_edge12_Node000012_Node000013"><a xlink:title=" ">
<path fill="none" stroke="#63b8ff" d="M931.19,-119.56C953.2,-122.36 976.37,-125.3 997.82,-128.03"/>
<polygon fill="#63b8ff" stroke="#63b8ff" points="931.53,-116.07 921.17,-118.28 930.65,-123.02 931.53,-116.07"/>
</a>
</g>
</g>
<!-- Node14 -->
<g id="Node000014" class="node">
<title>Node14</title>
<g id="a_Node000014"><a xlink:href="class_fifty_one_1_1_pipeline_1_1_engines_1_1_flow_elements_1_1_on_premise_aspect_engine_base-2-g.html" target="_top" xlink:title="Base class for 51Degrees on&#45;premise aspect engines.">
<polygon fill="white" stroke="#666666" points="1189,-100.5 981,-100.5 981,-59.5 1189,-59.5 1189,-100.5"/>
<text text-anchor="start" x="989" y="-88.5" font-family="Helvetica,sans-Serif" font-size="10.00">FiftyOne.Pipeline.Engines.</text>
<text text-anchor="start" x="989" y="-77.5" font-family="Helvetica,sans-Serif" font-size="10.00">FlowElements.OnPremiseAspectEngine</text>
<text text-anchor="middle" x="1085" y="-66.5" font-family="Helvetica,sans-Serif" font-size="10.00">Base&lt; T, TMeta &gt;</text>
</a>
</g>
</g>
<!-- Node12&#45;&gt;Node14 -->
<g id="edge13_Node000012_Node000014" class="edge">
<title>Node12&#45;&gt;Node14</title>
<g id="a_edge13_Node000012_Node000014"><a xlink:title=" ">
<path fill="none" stroke="#63b8ff" d="M931.19,-96.41C947.43,-94.66 964.3,-92.85 980.65,-91.1"/>
<polygon fill="#63b8ff" stroke="#63b8ff" points="930.74,-92.93 921.17,-97.48 931.49,-99.89 930.74,-92.93"/>
</a>
</g>
</g>
<!-- Node15 -->
<g id="Node000015" class="node">
<title>Node15</title>
<g id="a_Node000015"><a xlink:href="class_examples_1_1_on_premise_engine_1_1_flow_elements_1_1_simple_on_premise_engine.html" target="_top" xlink:title=" ">
<polygon fill="white" stroke="#666666" points="1434,-95 1225,-95 1225,-65 1434,-65 1434,-95"/>
<text text-anchor="start" x="1233" y="-83" font-family="Helvetica,sans-Serif" font-size="10.00">Examples.OnPremiseEngine.</text>
<text text-anchor="middle" x="1329.5" y="-72" font-family="Helvetica,sans-Serif" font-size="10.00">FlowElements.SimpleOnPremiseEngine</text>
</a>
</g>
</g>
<!-- Node14&#45;&gt;Node15 -->
<g id="edge14_Node000014_Node000015" class="edge">
<title>Node14&#45;&gt;Node15</title>
<g id="a_edge14_Node000014_Node000015"><a xlink:title=" ">
<path fill="none" stroke="#63b8ff" d="M1199.41,-80C1207.82,-80 1216.28,-80 1224.63,-80"/>
<polygon fill="#63b8ff" stroke="#63b8ff" points="1199.19,-76.5 1189.19,-80 1199.19,-83.5 1199.19,-76.5"/>
</a>
</g>
</g>
<!-- Node16 -->
<g id="Node000016" class="node">
<title>Node16</title>
<g id="a_Node000016"><a xlink:href="class_fifty_one_1_1_pipeline_1_1_engines_1_1_fifty_one_1_1_flow_elements_1_1_fifty_one_on_premise_aspect_engine_base-1-g.html" target="_top" xlink:title="51Degrees specific Engine base class.">
<polygon fill="white" stroke="#666666" points="1423.5,-44.5 1235.5,-44.5 1235.5,-3.5 1423.5,-3.5 1423.5,-44.5"/>
<text text-anchor="start" x="1243.5" y="-32.5" font-family="Helvetica,sans-Serif" font-size="10.00">FiftyOne.Pipeline.Engines.</text>
<text text-anchor="start" x="1243.5" y="-21.5" font-family="Helvetica,sans-Serif" font-size="10.00">FiftyOne.FlowElements.FiftyOne</text>
<text text-anchor="middle" x="1329.5" y="-10.5" font-family="Helvetica,sans-Serif" font-size="10.00">OnPremiseAspectEngineBase&lt; T &gt;</text>
</a>
</g>
</g>
<!-- Node14&#45;&gt;Node16 -->
<g id="edge15_Node000014_Node000016" class="edge">
<title>Node14&#45;&gt;Node16</title>
<g id="a_edge15_Node000014_Node000016"><a xlink:title=" ">
<path fill="none" stroke="#63b8ff" d="M1184.9,-57.16C1203,-52.98 1221.8,-48.64 1239.59,-44.53"/>
<polygon fill="#63b8ff" stroke="#63b8ff" points="1183.88,-53.81 1174.92,-59.47 1185.45,-60.63 1183.88,-53.81"/>
</a>
</g>
</g>
<!-- Node22 -->
<g id="Node000022" class="node">
<title>Node22</title>
<g id="a_Node000022"><a xlink:href="class_fifty_one_1_1_pipeline_1_1_translation_1_1_flow_elements_1_1_translation_engine.html" target="_top" xlink:title=" ">
<polygon fill="white" stroke="#666666" points="1172.5,-682 997.5,-682 997.5,-652 1172.5,-652 1172.5,-682"/>
<text text-anchor="start" x="1005.5" y="-670" font-family="Helvetica,sans-Serif" font-size="10.00">FiftyOne.Pipeline.Translation.</text>
<text text-anchor="middle" x="1085" y="-659" font-family="Helvetica,sans-Serif" font-size="10.00">FlowElements.TranslationEngine</text>
</a>
</g>
</g>
<!-- Node21&#45;&gt;Node22 -->
<g id="edge21_Node000021_Node000022" class="edge">
<title>Node21&#45;&gt;Node22</title>
<g id="a_edge21_Node000021_Node000022"><a xlink:title=" ">
<path fill="none" stroke="#63b8ff" d="M922.59,-585.72C930.25,-587.92 937.81,-590.34 945,-593 987.57,-608.73 1033.38,-635.17 1060.32,-651.82"/>
<polygon fill="#63b8ff" stroke="#63b8ff" points="923.43,-582.32 912.86,-583.06 921.58,-589.08 923.43,-582.32"/>
</a>
</g>
</g>
<!-- Node24&#45;&gt;Node9 -->
<g id="edge24_Node000024_Node000009" class="edge">
<title>Node24&#45;&gt;Node9</title>
<g id="a_edge24_Node000024_Node000009"><a xlink:title=" ">
<path fill="none" stroke="#63b8ff" d="M692.42,-166C707.35,-166 722.62,-166 737.31,-166"/>
<polygon fill="#63b8ff" stroke="#63b8ff" points="692.15,-162.5 682.15,-166 692.15,-169.5 692.15,-162.5"/>
</a>
</g>
</g>
<!-- Node25&#45;&gt;Node12 -->
<g id="edge26_Node000025_Node000012" class="edge">
<title>Node25&#45;&gt;Node12</title>
<g id="a_edge26_Node000025_Node000012"><a xlink:title=" ">
<path fill="none" stroke="#63b8ff" d="M675.82,-107C697.33,-107 720.35,-107 741.87,-107"/>
<polygon fill="#63b8ff" stroke="#63b8ff" points="675.72,-103.5 665.72,-107 675.72,-110.5 675.72,-103.5"/>
</a>
</g>
</g>
<!-- Node26&#45;&gt;Node19 -->
<g id="edge28_Node000026_Node000019" class="edge">
<title>Node26&#45;&gt;Node19</title>
<g id="a_edge28_Node000026_Node000019"><a xlink:title=" ">
<path fill="none" stroke="#63b8ff" d="M688.04,-220C705.84,-220 724.27,-220 741.72,-220"/>
<polygon fill="#63b8ff" stroke="#63b8ff" points="687.64,-216.5 677.64,-220 687.64,-223.5 687.64,-216.5"/>
</a>
</g>
</g>
<!-- Node27&#45;&gt;Node22 -->
<g id="edge30_Node000027_Node000022" class="edge">
<title>Node27&#45;&gt;Node22</title>
<g id="a_edge30_Node000027_Node000022"><a xlink:title=" ">
<path fill="none" stroke="#63b8ff" d="M602.23,-639.9C623.34,-671.6 665.49,-726.07 718,-748 811.1,-786.87 847.6,-774.31 945,-748 992.46,-735.18 1040.36,-701.7 1065.66,-682.03"/>
<polygon fill="#63b8ff" stroke="#63b8ff" points="604.98,-637.72 596.6,-631.24 599.11,-641.53 604.98,-637.72"/>
</a>
</g>
</g>
<!-- Node28&#45;&gt;Node25 -->
<g id="edge32_Node000028_Node000025" class="edge">
<title>Node28&#45;&gt;Node25</title>
<g id="a_edge32_Node000028_Node000025"><a xlink:title=" ">
<path fill="none" stroke="#63b8ff" d="M465.28,-93.16C479.2,-94.76 493.51,-96.41 507.18,-97.98"/>
<polygon fill="#63b8ff" stroke="#63b8ff" points="465.57,-89.67 455.23,-92 464.77,-96.63 465.57,-89.67"/>
</a>
</g>
</g>
<!-- Node29 -->
<g id="Node000029" class="node">
<title>Node29</title>
<g id="a_Node000029"><a xlink:href="interface_fifty_one_1_1_pipeline_1_1_engines_1_1_flow_elements_1_1_i_cloud_aspect_engine.html" target="_top" xlink:title="An interface for aspect engines that process responses from a cloud service.">
<polygon fill="white" stroke="#666666" points="679,-30 494,-30 494,0 679,0 679,-30"/>
<text text-anchor="start" x="502" y="-18" font-family="Helvetica,sans-Serif" font-size="10.00">FiftyOne.Pipeline.Engines.</text>
<text text-anchor="middle" x="586.5" y="-7" font-family="Helvetica,sans-Serif" font-size="10.00">FlowElements.ICloudAspectEngine</text>
</a>
</g>
</g>
<!-- Node28&#45;&gt;Node29 -->
<g id="edge33_Node000028_Node000029" class="edge">
<title>Node28&#45;&gt;Node29</title>
<g id="a_edge33_Node000028_Node000029"><a xlink:title=" ">
<path fill="none" stroke="#63b8ff" d="M429.45,-64.66C448.76,-58.02 470.83,-50.54 491,-44 505.37,-39.34 521.02,-34.46 535.38,-30.05"/>
<polygon fill="#63b8ff" stroke="#63b8ff" points="428.24,-61.38 419.93,-67.95 430.52,-68 428.24,-61.38"/>
</a>
</g>
</g>
<!-- Node30 -->
<g id="Node000030" class="node">
<title>Node30</title>
<g id="a_Node000030"><a xlink:href="interface_fifty_one_1_1_pipeline_1_1_engines_1_1_flow_elements_1_1_i_on_premise_aspect_engine.html" target="_top" xlink:title="Interface for an AspectEngine that processes evidence using one or more local data files.">
<polygon fill="white" stroke="#666666" points="937,-68 726,-68 726,-38 937,-38 937,-68"/>
<text text-anchor="start" x="734" y="-56" font-family="Helvetica,sans-Serif" font-size="10.00">FiftyOne.Pipeline.Engines.</text>
<text text-anchor="middle" x="831.5" y="-45" font-family="Helvetica,sans-Serif" font-size="10.00">FlowElements.IOnPremiseAspectEngine</text>
</a>
</g>
</g>
<!-- Node28&#45;&gt;Node30 -->
<g id="edge34_Node000028_Node000030" class="edge">
<title>Node28&#45;&gt;Node30</title>
<g id="a_edge34_Node000028_Node000030"><a xlink:title=" ">
<path fill="none" stroke="#63b8ff" d="M465.52,-77.14C540.07,-72.21 646.87,-65.15 725.69,-59.93"/>
<polygon fill="#63b8ff" stroke="#63b8ff" points="464.96,-73.67 455.22,-77.83 465.43,-80.66 464.96,-73.67"/>
</a>
</g>
</g>
<!-- Node30&#45;&gt;Node14 -->
<g id="edge37_Node000030_Node000014" class="edge">
<title>Node30&#45;&gt;Node14</title>
<g id="a_edge37_Node000030_Node000014"><a xlink:title=" ">
<path fill="none" stroke="#63b8ff" d="M947.53,-65.35C958.67,-66.55 969.93,-67.75 980.95,-68.94"/>
<polygon fill="#63b8ff" stroke="#63b8ff" points="947.65,-61.84 937.34,-64.25 946.91,-68.8 947.65,-61.84"/>
</a>
</g>
</g>
<!-- Node31 -->
<g id="Node000031" class="node">
<title>Node31</title>
<g id="a_Node000031"><a xlink:href="interface_fifty_one_1_1_pipeline_1_1_engines_1_1_fifty_one_1_1_flow_elements_1_1_i_fifty_one_aspect_engine.html" target="_top" xlink:title="51Degrees specific Engine interface.">
<polygon fill="white" stroke="#666666" points="1173,-41.5 997,-41.5 997,-0.5 1173,-0.5 1173,-41.5"/>
<text text-anchor="start" x="1005" y="-29.5" font-family="Helvetica,sans-Serif" font-size="10.00">FiftyOne.Pipeline.Engines.</text>
<text text-anchor="start" x="1005" y="-18.5" font-family="Helvetica,sans-Serif" font-size="10.00">FiftyOne.FlowElements.IFiftyOne</text>
<text text-anchor="middle" x="1085" y="-7.5" font-family="Helvetica,sans-Serif" font-size="10.00">AspectEngine</text>
</a>
</g>
</g>
<!-- Node30&#45;&gt;Node31 -->
<g id="edge35_Node000030_Node000031" class="edge">
<title>Node30&#45;&gt;Node31</title>
<g id="a_edge35_Node000030_Node000031"><a xlink:title=" ">
<path fill="none" stroke="#63b8ff" d="M947.61,-38.35C964.17,-36.25 980.98,-34.11 996.87,-32.09"/>
<polygon fill="#63b8ff" stroke="#63b8ff" points="946.82,-34.93 937.34,-39.66 947.7,-41.87 946.82,-34.93"/>
</a>
</g>
</g>
<!-- Node31&#45;&gt;Node16 -->
<g id="edge36_Node000031_Node000016" class="edge">
<title>Node31&#45;&gt;Node16</title>
<g id="a_edge36_Node000031_Node000016"><a xlink:title=" ">
<path fill="none" stroke="#63b8ff" d="M1183.68,-22.21C1200.64,-22.42 1218.25,-22.64 1235.1,-22.84"/>
<polygon fill="#63b8ff" stroke="#63b8ff" points="1183.25,-18.7 1173.21,-22.08 1183.16,-25.7 1183.25,-18.7"/>
</a>
</g>
</g>
</g>
</svg>
