<?xml version="1.0" encoding="UTF-8" standalone="no"?>
<!DOCTYPE svg PUBLIC "-//W3C//DTD SVG 1.1//EN"
 "http://www.w3.org/Graphics/SVG/1.1/DTD/svg11.dtd">
<!-- Generated by graphviz version 2.43.0 (0)
 -->
<!-- Title: fiftyone_pipeline_cloudrequestengine.cloudrequestengine.CloudRequestEngine Pages: 1 -->
<svg width="309pt" height="225pt"
 viewBox="0.00 0.00 309.00 225.00" xmlns="http://www.w3.org/2000/svg" xmlns:xlink="http://www.w3.org/1999/xlink">
<g id="graph0" class="graph" transform="scale(1 1) rotate(0) translate(4 221)">
<title>fiftyone_pipeline_cloudrequestengine.cloudrequestengine.CloudRequestEngine</title>
<!-- Node1 -->
<g id="Node000001" class="node">
<title>Node1</title>
<g id="a_Node000001"><a xlink:title=" ">
<polygon fill="#999999" stroke="#666666" points="301,-30 0,-30 0,0 301,0 301,-30"/>
<text text-anchor="start" x="8" y="-18" font-family="Helvetica,sans-Serif" font-size="10.00">fiftyone_pipeline_cloudrequestengine.cloudrequestengine.</text>
<text text-anchor="middle" x="150.5" y="-7" font-family="Helvetica,sans-Serif" font-size="10.00">CloudRequestEngine</text>
</a>
</g>
</g>
<!-- Node2 -->
<g id="Node000002" class="node">
<title>Node2</title>
<g id="a_Node000002"><a xlink:href="classfiftyone__pipeline__engines_1_1engine_1_1_engine.html" target="_top" xlink:title="An engine is an extension of the FlowElement class that adds extra functionality.">
<polygon fill="white" stroke="#666666" points="240.5,-96 60.5,-96 60.5,-66 240.5,-66 240.5,-96"/>
<text text-anchor="start" x="68.5" y="-84" font-family="Helvetica,sans-Serif" font-size="10.00">fiftyone_pipeline_engines.engine.</text>
<text text-anchor="middle" x="150.5" y="-73" font-family="Helvetica,sans-Serif" font-size="10.00">Engine</text>
</a>
</g>
</g>
<!-- Node2&#45;&gt;Node1 -->
<g id="edge1_Node000001_Node000002" class="edge">
<title>Node2&#45;&gt;Node1</title>
<g id="a_edge1_Node000001_Node000002"><a xlink:title=" ">
<path fill="none" stroke="#63b8ff" d="M150.5,-55.54C150.5,-46.96 150.5,-37.61 150.5,-30.16"/>
<polygon fill="#63b8ff" stroke="#63b8ff" points="147,-55.8 150.5,-65.8 154,-55.8 147,-55.8"/>
</a>
</g>
</g>
<!-- Node3 -->
<g id="Node000003" class="node">
<title>Node3</title>
<g id="a_Node000003"><a xlink:href="classfiftyone__pipeline__core_1_1flowelement_1_1_flow_element.html" target="_top" xlink:title="A FlowElement is placed inside a Pipeline It receives Evidence via a FlowData object It uses this to ...">
<polygon fill="white" stroke="#666666" points="246,-162 55,-162 55,-132 246,-132 246,-162"/>
<text text-anchor="start" x="63" y="-150" font-family="Helvetica,sans-Serif" font-size="10.00">fiftyone_pipeline_core.flowelement.</text>
<text text-anchor="middle" x="150.5" y="-139" font-family="Helvetica,sans-Serif" font-size="10.00">FlowElement</text>
</a>
</g>
</g>
<!-- Node3&#45;&gt;Node2 -->
<g id="edge2_Node000002_Node000003" class="edge">
<title>Node3&#45;&gt;Node2</title>
<g id="a_edge2_Node000002_Node000003"><a xlink:title=" ">
<path fill="none" stroke="#63b8ff" d="M150.5,-121.54C150.5,-112.96 150.5,-103.61 150.5,-96.16"/>
<polygon fill="#63b8ff" stroke="#63b8ff" points="147,-121.8 150.5,-131.8 154,-121.8 147,-121.8"/>
</a>
</g>
</g>
<!-- Node4 -->
<g id="Node000004" class="node">
<title>Node4</title>
<g id="a_Node000004"><a xlink:title=" ">
<polygon fill="white" stroke="#666666" points="174,-217 127,-217 127,-198 174,-198 174,-217"/>
<text text-anchor="middle" x="150.5" y="-205" font-family="Helvetica,sans-Serif" font-size="10.00">object</text>
</a>
</g>
</g>
<!-- Node4&#45;&gt;Node3 -->
<g id="edge3_Node000003_Node000004" class="edge">
<title>Node4&#45;&gt;Node3</title>
<g id="a_edge3_Node000003_Node000004"><a xlink:title=" ">
<path fill="none" stroke="#63b8ff" d="M150.5,-187.65C150.5,-179.36 150.5,-169.78 150.5,-162.11"/>
<polygon fill="#63b8ff" stroke="#63b8ff" points="147,-187.87 150.5,-197.87 154,-187.87 147,-187.87"/>
</a>
</g>
</g>
</g>
</svg>
