<?xml version="1.0" encoding="UTF-8" standalone="no"?>
<!DOCTYPE svg PUBLIC "-//W3C//DTD SVG 1.1//EN"
 "http://www.w3.org/Graphics/SVG/1.1/DTD/svg11.dtd">
<!-- Generated by graphviz version 2.43.0 (0)
 -->
<!-- Title: fiftyone.geolocation.core.data.GeoData Pages: 1 -->
<svg width="660pt" height="86pt"
 viewBox="0.00 0.00 660.00 86.00" xmlns="http://www.w3.org/2000/svg" xmlns:xlink="http://www.w3.org/1999/xlink">
<g id="graph0" class="graph" transform="scale(1 1) rotate(0) translate(4 82)">
<title>fiftyone.geolocation.core.data.GeoData</title>
<!-- Node1 -->
<g id="Node000001" class="node">
<title>Node1</title>
<g id="a_Node000001"><a xlink:title=" ">
<polygon fill="#999999" stroke="#666666" points="274,-54 109,-54 109,-24 274,-24 274,-54"/>
<text text-anchor="start" x="117" y="-42" font-family="Helvetica,sans-Serif" font-size="10.00">fiftyone.geolocation.core.data.</text>
<text text-anchor="middle" x="191.5" y="-31" font-family="Helvetica,sans-Serif" font-size="10.00">GeoData</text>
</a>
</g>
</g>
<!-- Node3 -->
<g id="Node000003" class="node">
<title>Node3</title>
<g id="a_Node000003"><a xlink:href="classfiftyone_1_1geolocation_1_1core_1_1data_1_1_geo_data_default.html" target="_top" xlink:title=" ">
<polygon fill="white" stroke="#bfbfbf" points="475,-78 310,-78 310,-48 475,-48 475,-78"/>
<text text-anchor="start" x="318" y="-66" font-family="Helvetica,sans-Serif" font-size="10.00">fiftyone.geolocation.core.data.</text>
<text text-anchor="middle" x="392.5" y="-55" font-family="Helvetica,sans-Serif" font-size="10.00">GeoDataDefault</text>
</a>
</g>
</g>
<!-- Node1&#45;&gt;Node3 -->
<g id="edge2_Node000001_Node000003" class="edge">
<title>Node1&#45;&gt;Node3</title>
<g id="a_edge2_Node000001_Node000003"><a xlink:title=" ">
<path fill="none" stroke="#63b8ff" d="M284.04,-50.04C292.63,-51.08 301.3,-52.12 309.79,-53.15"/>
<polygon fill="#63b8ff" stroke="#63b8ff" points="284.36,-46.55 274.02,-48.83 283.52,-53.5 284.36,-46.55"/>
</a>
</g>
</g>
<!-- Node5 -->
<g id="Node000005" class="node">
<title>Node5</title>
<g id="a_Node000005"><a xlink:href="interfacefiftyone_1_1geolocation_1_1data_1_1_cloud_geo_data.html" target="_top" xlink:title=" ">
<polygon fill="white" stroke="#666666" points="463,-30 322,-30 322,0 463,0 463,-30"/>
<text text-anchor="start" x="330" y="-18" font-family="Helvetica,sans-Serif" font-size="10.00">fiftyone.geolocation.data.</text>
<text text-anchor="middle" x="392.5" y="-7" font-family="Helvetica,sans-Serif" font-size="10.00">CloudGeoData</text>
</a>
</g>
</g>
<!-- Node1&#45;&gt;Node5 -->
<g id="edge4_Node000001_Node000005" class="edge">
<title>Node1&#45;&gt;Node5</title>
<g id="a_edge4_Node000001_Node000005"><a xlink:title=" ">
<path fill="none" stroke="#63b8ff" d="M284.14,-27.95C296.82,-26.42 309.68,-24.87 321.88,-23.4"/>
<polygon fill="#63b8ff" stroke="#63b8ff" points="283.52,-24.5 274.02,-29.17 284.36,-31.45 283.52,-24.5"/>
</a>
</g>
</g>
<!-- Node2 -->
<g id="Node000002" class="node">
<title>Node2</title>
<g id="a_Node000002"><a xlink:title=" ">
<polygon fill="white" stroke="#bfbfbf" points="73,-48.5 0,-48.5 0,-29.5 73,-29.5 73,-48.5"/>
<text text-anchor="middle" x="36.5" y="-36.5" font-family="Helvetica,sans-Serif" font-size="10.00">AspectData</text>
</a>
</g>
</g>
<!-- Node2&#45;&gt;Node1 -->
<g id="edge1_Node000001_Node000002" class="edge">
<title>Node2&#45;&gt;Node1</title>
<g id="a_edge1_Node000001_Node000002"><a xlink:title=" ">
<path fill="none" stroke="#63b8ff" d="M83.61,-39C91.65,-39 100.24,-39 108.91,-39"/>
<polygon fill="#63b8ff" stroke="#63b8ff" points="83.37,-35.5 73.37,-39 83.37,-42.5 83.37,-35.5"/>
</a>
</g>
</g>
<!-- Node4 -->
<g id="Node000004" class="node">
<title>Node4</title>
<g id="a_Node000004"><a xlink:href="classfiftyone_1_1geolocation_1_1data_1_1_cloud_geo_data_default.html" target="_top" xlink:title=" ">
<polygon fill="white" stroke="#bfbfbf" points="652,-54 511,-54 511,-24 652,-24 652,-54"/>
<text text-anchor="start" x="519" y="-42" font-family="Helvetica,sans-Serif" font-size="10.00">fiftyone.geolocation.data.</text>
<text text-anchor="middle" x="581.5" y="-31" font-family="Helvetica,sans-Serif" font-size="10.00">CloudGeoDataDefault</text>
</a>
</g>
</g>
<!-- Node3&#45;&gt;Node4 -->
<g id="edge3_Node000003_Node000004" class="edge">
<title>Node3&#45;&gt;Node4</title>
<g id="a_edge3_Node000003_Node000004"><a xlink:title=" ">
<path fill="none" stroke="#63b8ff" d="M485.33,-51.21C493.93,-50.11 502.56,-49 510.91,-47.93"/>
<polygon fill="#63b8ff" stroke="#63b8ff" points="484.72,-47.76 475.25,-52.51 485.61,-54.71 484.72,-47.76"/>
</a>
</g>
</g>
<!-- Node5&#45;&gt;Node4 -->
<g id="edge5_Node000005_Node000004" class="edge">
<title>Node5&#45;&gt;Node4</title>
<g id="a_edge5_Node000005_Node000004"><a xlink:title=" ">
<path fill="none" stroke="#63b8ff" d="M473.1,-25.22C485.64,-26.83 498.52,-28.48 510.81,-30.06"/>
<polygon fill="#63b8ff" stroke="#63b8ff" points="473.5,-21.74 463.13,-23.94 472.6,-28.68 473.5,-21.74"/>
</a>
</g>
</g>
</g>
</svg>
