<?xml version="1.0" encoding="UTF-8" standalone="no"?>
<!DOCTYPE svg PUBLIC "-//W3C//DTD SVG 1.1//EN"
 "http://www.w3.org/Graphics/SVG/1.1/DTD/svg11.dtd">
<!-- Generated by graphviz version 2.43.0 (0)
 -->
<!-- Title: fiftyone.geolocation.data.CloudGeoData Pages: 1 -->
<svg width="173pt" height="225pt"
 viewBox="0.00 0.00 173.00 225.00" xmlns="http://www.w3.org/2000/svg" xmlns:xlink="http://www.w3.org/1999/xlink">
<g id="graph0" class="graph" transform="scale(1 1) rotate(0) translate(4 221)">
<title>fiftyone.geolocation.data.CloudGeoData</title>
<!-- Node1 -->
<g id="Node000001" class="node">
<title>Node1</title>
<g id="a_Node000001"><a xlink:title=" ">
<polygon fill="#999999" stroke="#666666" points="153,-96 12,-96 12,-66 153,-66 153,-96"/>
<text text-anchor="start" x="20" y="-84" font-family="Helvetica,sans-Serif" font-size="10.00">fiftyone.geolocation.data.</text>
<text text-anchor="middle" x="82.5" y="-73" font-family="Helvetica,sans-Serif" font-size="10.00">CloudGeoData</text>
</a>
</g>
</g>
<!-- Node4 -->
<g id="Node000004" class="node">
<title>Node4</title>
<g id="a_Node000004"><a xlink:href="classfiftyone_1_1geolocation_1_1data_1_1_cloud_geo_data_default.html" target="_top" xlink:title=" ">
<polygon fill="white" stroke="#bfbfbf" points="153,-30 12,-30 12,0 153,0 153,-30"/>
<text text-anchor="start" x="20" y="-18" font-family="Helvetica,sans-Serif" font-size="10.00">fiftyone.geolocation.data.</text>
<text text-anchor="middle" x="82.5" y="-7" font-family="Helvetica,sans-Serif" font-size="10.00">CloudGeoDataDefault</text>
</a>
</g>
</g>
<!-- Node1&#45;&gt;Node4 -->
<g id="edge3_Node000001_Node000004" class="edge">
<title>Node1&#45;&gt;Node4</title>
<g id="a_edge3_Node000001_Node000004"><a xlink:title=" ">
<path fill="none" stroke="#63b8ff" d="M82.5,-55.54C82.5,-46.96 82.5,-37.61 82.5,-30.16"/>
<polygon fill="#63b8ff" stroke="#63b8ff" points="79,-55.8 82.5,-65.8 86,-55.8 79,-55.8"/>
</a>
</g>
</g>
<!-- Node2 -->
<g id="Node000002" class="node">
<title>Node2</title>
<g id="a_Node000002"><a xlink:href="interfacefiftyone_1_1geolocation_1_1core_1_1data_1_1_geo_data.html" target="_top" xlink:title=" ">
<polygon fill="white" stroke="#bfbfbf" points="165,-162 0,-162 0,-132 165,-132 165,-162"/>
<text text-anchor="start" x="8" y="-150" font-family="Helvetica,sans-Serif" font-size="10.00">fiftyone.geolocation.core.data.</text>
<text text-anchor="middle" x="82.5" y="-139" font-family="Helvetica,sans-Serif" font-size="10.00">GeoData</text>
</a>
</g>
</g>
<!-- Node2&#45;&gt;Node1 -->
<g id="edge1_Node000001_Node000002" class="edge">
<title>Node2&#45;&gt;Node1</title>
<g id="a_edge1_Node000001_Node000002"><a xlink:title=" ">
<path fill="none" stroke="#63b8ff" d="M82.5,-121.54C82.5,-112.96 82.5,-103.61 82.5,-96.16"/>
<polygon fill="#63b8ff" stroke="#63b8ff" points="79,-121.8 82.5,-131.8 86,-121.8 79,-121.8"/>
</a>
</g>
</g>
<!-- Node3 -->
<g id="Node000003" class="node">
<title>Node3</title>
<g id="a_Node000003"><a xlink:title=" ">
<polygon fill="white" stroke="#bfbfbf" points="119,-217 46,-217 46,-198 119,-198 119,-217"/>
<text text-anchor="middle" x="82.5" y="-205" font-family="Helvetica,sans-Serif" font-size="10.00">AspectData</text>
</a>
</g>
</g>
<!-- Node3&#45;&gt;Node2 -->
<g id="edge2_Node000002_Node000003" class="edge">
<title>Node3&#45;&gt;Node2</title>
<g id="a_edge2_Node000002_Node000003"><a xlink:title=" ">
<path fill="none" stroke="#63b8ff" d="M82.5,-187.65C82.5,-179.36 82.5,-169.78 82.5,-162.11"/>
<polygon fill="#63b8ff" stroke="#63b8ff" points="79,-187.87 82.5,-197.87 86,-187.87 79,-187.87"/>
</a>
</g>
</g>
</g>
</svg>
