<?xml version="1.0" encoding="UTF-8" standalone="no"?>
<!DOCTYPE svg PUBLIC "-//W3C//DTD SVG 1.1//EN"
 "http://www.w3.org/Graphics/SVG/1.1/DTD/svg11.dtd">
<!-- Generated by graphviz version 2.43.0 (0)
 -->
<!-- Title: P Pages: 1 -->
<svg width="436pt" height="95pt"
 viewBox="0.00 0.00 436.00 95.00" xmlns="http://www.w3.org/2000/svg" xmlns:xlink="http://www.w3.org/1999/xlink">
<g id="graph0" class="graph" transform="scale(1 1) rotate(0) translate(4 91)">
<title>P</title>
<g id="clust1" class="cluster">
<title>clusterP</title>
<polygon fill="transparent" stroke="black" points="82,-8 82,-79 346,-79 346,-8 82,-8"/>
<text text-anchor="middle" x="214" y="-67" font-family="Helvetica,sans-Serif" font-size="10.00">Pipeline</text>
</g>
<!-- i -->
<g id="node1" class="node">
<title>i</title>
<path fill="#cb3d36" stroke="transparent" d="M42,-52C42,-52 12,-52 12,-52 6,-52 0,-46 0,-40 0,-40 0,-28 0,-28 0,-22 6,-16 12,-16 12,-16 42,-16 42,-16 48,-16 54,-22 54,-28 54,-28 54,-40 54,-40 54,-46 48,-52 42,-52"/>
<text text-anchor="middle" x="27" y="-31.5" font-family="Helvetica,sans-Serif" font-size="10.00" fill="white">in</text>
</g>
<!-- E1 -->
<g id="node2" class="node">
<title>E1</title>
<path fill="#cb3d36" stroke="black" d="M184,-52C184,-52 102,-52 102,-52 96,-52 90,-46 90,-40 90,-40 90,-28 90,-28 90,-22 96,-16 102,-16 102,-16 184,-16 184,-16 190,-16 196,-22 196,-28 196,-28 196,-40 196,-40 196,-46 190,-52 184,-52"/>
<text text-anchor="middle" x="143" y="-31.5" font-family="Helvetica,sans-Serif" font-size="10.00" fill="white">Flow Element (E1)</text>
</g>
<!-- i&#45;&gt;E1 -->
<g id="edge1" class="edge">
<title>i&#45;&gt;E1</title>
<path fill="none" stroke="black" d="M54.15,-34C61.89,-34 70.71,-34 79.71,-34"/>
<polygon fill="black" stroke="black" points="79.9,-37.5 89.9,-34 79.9,-30.5 79.9,-37.5"/>
</g>
<!-- E2 -->
<g id="node3" class="node">
<title>E2</title>
<path fill="#cb3d36" stroke="black" d="M326,-52C326,-52 244,-52 244,-52 238,-52 232,-46 232,-40 232,-40 232,-28 232,-28 232,-22 238,-16 244,-16 244,-16 326,-16 326,-16 332,-16 338,-22 338,-28 338,-28 338,-40 338,-40 338,-46 332,-52 326,-52"/>
<text text-anchor="middle" x="285" y="-31.5" font-family="Helvetica,sans-Serif" font-size="10.00" fill="white">Flow Element (E2)</text>
</g>
<!-- E1&#45;&gt;E2 -->
<g id="edge2" class="edge">
<title>E1&#45;&gt;E2</title>
<path fill="none" stroke="black" d="M196.13,-34C204.42,-34 213.07,-34 221.57,-34"/>
<polygon fill="black" stroke="black" points="221.83,-37.5 231.83,-34 221.83,-30.5 221.83,-37.5"/>
</g>
<!-- o -->
<g id="node4" class="node">
<title>o</title>
<path fill="#cb3d36" stroke="transparent" d="M416,-52C416,-52 386,-52 386,-52 380,-52 374,-46 374,-40 374,-40 374,-28 374,-28 374,-22 380,-16 386,-16 386,-16 416,-16 416,-16 422,-16 428,-22 428,-28 428,-28 428,-40 428,-40 428,-46 422,-52 416,-52"/>
<text text-anchor="middle" x="401" y="-31.5" font-family="Helvetica,sans-Serif" font-size="10.00" fill="white">out</text>
</g>
<!-- E2&#45;&gt;o -->
<g id="edge3" class="edge">
<title>E2&#45;&gt;o</title>
<path fill="none" stroke="black" d="M338.33,-34C346.88,-34 355.56,-34 363.62,-34"/>
<polygon fill="black" stroke="black" points="363.77,-37.5 373.77,-34 363.77,-30.5 363.77,-37.5"/>
</g>
</g>
</svg>
