<?xml version="1.0" encoding="UTF-8" standalone="no"?>
<!DOCTYPE svg PUBLIC "-//W3C//DTD SVG 1.1//EN"
 "http://www.w3.org/Graphics/SVG/1.1/DTD/svg11.dtd">
<!-- Generated by graphviz version 2.43.0 (0)
 -->
<!-- Title: fiftyone.caching.LruCacheBase&lt; K, V &gt; Pages: 1 -->
<svg width="512pt" height="165pt"
 viewBox="0.00 0.00 512.00 165.48" xmlns="http://www.w3.org/2000/svg" xmlns:xlink="http://www.w3.org/1999/xlink">
<g id="graph0" class="graph" transform="scale(1 1) rotate(0) translate(4 161.48)">
<title>fiftyone.caching.LruCacheBase&lt; K, V &gt;</title>
<!-- Node1 -->
<g id="Node000001" class="node">
<title>Node1</title>
<g id="a_Node000001"><a xlink:title="This is a Least Recently Used (LRU) cache with multiple linked lists in place of the usual single lin...">
<polygon fill="#999999" stroke="#666666" points="503,-145.98 361,-145.98 361,-115.98 503,-115.98 503,-145.98"/>
<text text-anchor="start" x="369" y="-133.98" font-family="Helvetica,sans-Serif" font-size="10.00">fiftyone.caching.LruCache</text>
<text text-anchor="middle" x="432" y="-122.98" font-family="Helvetica,sans-Serif" font-size="10.00">Base&lt; K, V &gt;</text>
</a>
</g>
</g>
<!-- Node2 -->
<g id="Node000002" class="node">
<title>Node2</title>
<g id="a_Node000002"><a xlink:href="interfacefiftyone_1_1caching_1_1_cache.html" target="_top" xlink:title="Base cache interface which declares only the get method and the types of key and value stored in the ...">
<polygon fill="white" stroke="#666666" points="247.5,-136.98 120.5,-136.98 120.5,-106.98 247.5,-106.98 247.5,-136.98"/>
<text text-anchor="start" x="128.5" y="-124.98" font-family="Helvetica,sans-Serif" font-size="10.00">fiftyone.caching.Cache</text>
<text text-anchor="middle" x="184" y="-113.98" font-family="Helvetica,sans-Serif" font-size="10.00">&lt; K, V &gt;</text>
</a>
</g>
</g>
<!-- Node2&#45;&gt;Node1 -->
<g id="edge1_Node000001_Node000002" class="edge">
<title>Node2&#45;&gt;Node1</title>
<g id="a_edge1_Node000001_Node000002"><a xlink:title=" ">
<path fill="none" stroke="#63b8ff" d="M258.03,-124.65C290.46,-125.84 328.47,-127.23 360.59,-128.4"/>
<polygon fill="#63b8ff" stroke="#63b8ff" points="257.83,-121.14 247.71,-124.27 257.58,-128.14 257.83,-121.14"/>
</a>
</g>
</g>
<!-- Node3 -->
<g id="Node000003" class="node">
<title>Node3</title>
<g id="a_Node000003"><a xlink:title=" ">
<polygon fill="white" stroke="#bfbfbf" points="65,-157.48 0,-157.48 0,-138.48 65,-138.48 65,-157.48"/>
<text text-anchor="middle" x="32.5" y="-145.48" font-family="Helvetica,sans-Serif" font-size="10.00">Closeable</text>
</a>
</g>
</g>
<!-- Node3&#45;&gt;Node1 -->
<g id="edge3_Node000001_Node000003" class="edge">
<title>Node3&#45;&gt;Node1</title>
<g id="a_edge3_Node000001_Node000003"><a xlink:title=" ">
<path fill="none" stroke="#63b8ff" d="M75.15,-150.93C78.15,-151 81.12,-151.02 84,-150.98 198.76,-149.4 227.69,-150.27 342,-139.98 348.03,-139.44 354.29,-138.85 360.57,-138.25"/>
<polygon fill="#63b8ff" stroke="#63b8ff" points="75.12,-147.43 65,-150.56 74.87,-154.43 75.12,-147.43"/>
</a>
</g>
</g>
<!-- Node3&#45;&gt;Node2 -->
<g id="edge2_Node000002_Node000003" class="edge">
<title>Node3&#45;&gt;Node2</title>
<g id="a_edge2_Node000002_Node000003"><a xlink:title=" ">
<path fill="none" stroke="#63b8ff" d="M75.43,-140.69C89.33,-138.27 105.12,-135.52 120.24,-132.89"/>
<polygon fill="#63b8ff" stroke="#63b8ff" points="74.46,-137.3 65.21,-142.46 75.66,-144.2 74.46,-137.3"/>
</a>
</g>
</g>
<!-- Node4 -->
<g id="Node000004" class="node">
<title>Node4</title>
<g id="a_Node000004"><a xlink:title=" ">
<polygon fill="white" stroke="#666666" points="266,-73.98 102,-73.98 102,-43.98 266,-43.98 266,-73.98"/>
<text text-anchor="start" x="110" y="-61.98" font-family="Helvetica,sans-Serif" font-size="10.00">fiftyone.caching.LruCache</text>
<text text-anchor="middle" x="184" y="-50.98" font-family="Helvetica,sans-Serif" font-size="10.00">Base&lt; K, V &gt;.CacheLinkedList</text>
</a>
</g>
</g>
<!-- Node4&#45;&gt;Node1 -->
<g id="edge4_Node000001_Node000004" class="edge">
<title>Node4&#45;&gt;Node1</title>
<g id="a_edge4_Node000001_Node000004"><a xlink:title=" ">
<path fill="none" stroke="#9a32cd" stroke-dasharray="5,2" d="M248.01,-76.8C276.71,-84.98 311.1,-94.86 342,-103.98 354.85,-107.77 368.73,-111.94 381.61,-115.85"/>
<polygon fill="#9a32cd" stroke="#9a32cd" points="248.69,-73.35 238.11,-73.98 246.77,-80.09 248.69,-73.35"/>
</a>
</g>
<text text-anchor="start" x="287" y="-109.48" font-family="Helvetica,sans-Serif" font-size="10.00" fill="grey">linkedLists</text>
</g>
<!-- Node5 -->
<g id="Node000005" class="node">
<title>Node5</title>
<g id="a_Node000005"><a xlink:title=" ">
<polygon fill="white" stroke="#666666" points="504,-33.98 360,-33.98 360,-3.98 504,-3.98 504,-33.98"/>
<text text-anchor="start" x="368" y="-21.98" font-family="Helvetica,sans-Serif" font-size="10.00">fiftyone.caching.LruCache</text>
<text text-anchor="middle" x="432" y="-10.98" font-family="Helvetica,sans-Serif" font-size="10.00">Base&lt; K, V &gt;.CachedItem</text>
</a>
</g>
</g>
<!-- Node4&#45;&gt;Node5 -->
<g id="edge6_Node000005_Node000004" class="edge">
<title>Node4&#45;&gt;Node5</title>
<g id="a_edge6_Node000005_Node000004"><a xlink:title=" ">
<path fill="none" stroke="#9a32cd" stroke-dasharray="5,2" d="M276.36,-47.13C297.92,-44.07 320.8,-40.6 342,-36.98 347.75,-36 353.7,-34.92 359.66,-33.8"/>
<polygon fill="#9a32cd" stroke="#9a32cd" points="275.64,-43.69 266.23,-48.55 276.62,-50.62 275.64,-43.69"/>
</a>
</g>
<text text-anchor="start" x="305" y="-51.48" font-family="Helvetica,sans-Serif" font-size="10.00" fill="grey">list</text>
</g>
<!-- Node5&#45;&gt;Node4 -->
<g id="edge5_Node000004_Node000005" class="edge">
<title>Node5&#45;&gt;Node4</title>
<g id="a_edge5_Node000004_Node000005"><a xlink:title=" ">
<path fill="none" stroke="#9a32cd" stroke-dasharray="5,2" d="M360.28,-2.51C335.84,0.63 308.45,1.26 284,-4.98 254.59,-12.48 224.5,-30.69 205.34,-43.9"/>
<polygon fill="#9a32cd" stroke="#9a32cd" points="359.8,-5.98 370.2,-3.94 360.8,0.95 359.8,-5.98"/>
</a>
</g>
<text text-anchor="start" x="304" y="-25.98" font-family="Helvetica,sans-Serif" font-size="10.00" fill="grey">first</text>
<text text-anchor="start" x="304" y="-10.98" font-family="Helvetica,sans-Serif" font-size="10.00" fill="grey">last</text>
</g>
<!-- Node5&#45;&gt;Node5 -->
<g id="edge7_Node000005_Node000005" class="edge">
<title>Node5&#45;&gt;Node5</title>
<g id="a_edge7_Node000005_Node000005"><a xlink:title=" ">
<path fill="none" stroke="#9a32cd" stroke-dasharray="5,2" d="M411.35,-44.58C414.17,-48.95 421.05,-51.98 432,-51.98 450.44,-51.98 457.35,-43.38 452.74,-34.25"/>
<polygon fill="#9a32cd" stroke="#9a32cd" points="414.84,-44.22 411.26,-34.25 407.84,-44.28 414.84,-44.22"/>
</a>
</g>
<text text-anchor="start" x="411" y="-72.98" font-family="Helvetica,sans-Serif" font-size="10.00" fill="grey">next</text>
<text text-anchor="start" x="411" y="-57.98" font-family="Helvetica,sans-Serif" font-size="10.00" fill="grey">previous</text>
</g>
</g>
</svg>
