<?xml version="1.0" encoding="UTF-8" standalone="no"?>
<!DOCTYPE svg PUBLIC "-//W3C//DTD SVG 1.1//EN"
 "http://www.w3.org/Graphics/SVG/1.1/DTD/svg11.dtd">
<!-- Generated by graphviz version 2.43.0 (0)
 -->
<!-- Title: fiftyone.pipeline.cloudrequestengine.flowelements.CloudRequestEngineDefault Pages: 1 -->
<svg width="2589pt" height="338pt"
 viewBox="0.00 0.00 2589.00 337.69" xmlns="http://www.w3.org/2000/svg" xmlns:xlink="http://www.w3.org/1999/xlink">
<g id="graph0" class="graph" transform="scale(1 1) rotate(0) translate(4 333.69)">
<title>fiftyone.pipeline.cloudrequestengine.flowelements.CloudRequestEngineDefault</title>
<!-- Node1 -->
<g id="Node000001" class="node">
<title>Node1</title>
<g id="a_Node000001"><a xlink:title="Engine that makes requests to the 51Degrees cloud service.">
<polygon fill="#999999" stroke="#666666" points="2581,-127.69 2315,-127.69 2315,-97.69 2581,-97.69 2581,-127.69"/>
<text text-anchor="start" x="2323" y="-115.69" font-family="Helvetica,sans-Serif" font-size="10.00">fiftyone.pipeline.cloudrequestengine.flowelements.</text>
<text text-anchor="middle" x="2448" y="-104.69" font-family="Helvetica,sans-Serif" font-size="10.00">CloudRequestEngineDefault</text>
</a>
</g>
</g>
<!-- Node2 -->
<g id="Node000002" class="node">
<title>Node2</title>
<g id="a_Node000002"><a xlink:href="classfiftyone_1_1pipeline_1_1engines_1_1flowelements_1_1_aspect_engine_base.html" target="_top" xlink:title="Base class for AspectEngines to extend.">
<polygon fill="white" stroke="#666666" points="2278,-174.69 2030,-174.69 2030,-122.69 2278,-122.69 2278,-174.69"/>
<text text-anchor="start" x="2038" y="-162.69" font-family="Helvetica,sans-Serif" font-size="10.00">fiftyone.pipeline.engines.flowelements.</text>
<text text-anchor="start" x="2038" y="-151.69" font-family="Helvetica,sans-Serif" font-size="10.00">AspectEngineBase&lt; TData extends</text>
<text text-anchor="start" x="2038" y="-140.69" font-family="Helvetica,sans-Serif" font-size="10.00"> AspectData, TProperty extends AspectProperty</text>
<text text-anchor="middle" x="2154" y="-129.69" font-family="Helvetica,sans-Serif" font-size="10.00">MetaData &gt;</text>
</a>
</g>
</g>
<!-- Node2&#45;&gt;Node1 -->
<g id="edge1_Node000001_Node000002" class="edge">
<title>Node2&#45;&gt;Node1</title>
<g id="a_edge1_Node000001_Node000002"><a xlink:title=" ">
<path fill="none" stroke="#63b8ff" d="M2288.57,-132.23C2300.7,-130.73 2312.94,-129.22 2324.96,-127.74"/>
<polygon fill="#63b8ff" stroke="#63b8ff" points="2287.91,-128.78 2278.41,-133.48 2288.76,-135.73 2287.91,-128.78"/>
</a>
</g>
</g>
<!-- Node3 -->
<g id="Node000003" class="node">
<title>Node3</title>
<g id="a_Node000003"><a xlink:href="classfiftyone_1_1pipeline_1_1core_1_1flowelements_1_1_flow_element_base.html" target="_top" xlink:title="Provides a base class from which authors may create new FlowElements.">
<polygon fill="white" stroke="#666666" points="1344,-324.69 1153,-324.69 1153,-272.69 1344,-272.69 1344,-324.69"/>
<text text-anchor="start" x="1161" y="-312.69" font-family="Helvetica,sans-Serif" font-size="10.00">fiftyone.pipeline.core.flowelements.</text>
<text text-anchor="start" x="1161" y="-301.69" font-family="Helvetica,sans-Serif" font-size="10.00">FlowElementBase&lt; TData extends</text>
<text text-anchor="start" x="1161" y="-290.69" font-family="Helvetica,sans-Serif" font-size="10.00"> ElementData, TProperty extends</text>
<text text-anchor="middle" x="1248.5" y="-279.69" font-family="Helvetica,sans-Serif" font-size="10.00"> ElementPropertyMetaData &gt;</text>
</a>
</g>
</g>
<!-- Node3&#45;&gt;Node2 -->
<g id="edge2_Node000002_Node000003" class="edge">
<title>Node3&#45;&gt;Node2</title>
<g id="a_edge2_Node000002_Node000003"><a xlink:title=" ">
<path fill="none" stroke="#63b8ff" d="M1354.28,-312.51C1505.07,-328.17 1789.55,-341.78 2012,-258.69 2059.12,-241.09 2103.07,-201.72 2128.99,-175.18"/>
<polygon fill="#63b8ff" stroke="#63b8ff" points="1354.42,-309.01 1344.1,-311.43 1353.68,-315.97 1354.42,-309.01"/>
</a>
</g>
</g>
<!-- Node4 -->
<g id="Node000004" class="node">
<title>Node4</title>
<g id="a_Node000004"><a xlink:href="interfacefiftyone_1_1pipeline_1_1core_1_1flowelements_1_1_flow_element.html" target="_top" xlink:title=" ">
<polygon fill="white" stroke="#666666" points="1036,-138.69 845,-138.69 845,-108.69 1036,-108.69 1036,-138.69"/>
<text text-anchor="start" x="853" y="-126.69" font-family="Helvetica,sans-Serif" font-size="10.00">fiftyone.pipeline.core.flowelements.</text>
<text text-anchor="middle" x="940.5" y="-115.69" font-family="Helvetica,sans-Serif" font-size="10.00">FlowElement&lt; TData, TProperty &gt;</text>
</a>
</g>
</g>
<!-- Node4&#45;&gt;Node3 -->
<g id="edge3_Node000003_Node000004" class="edge">
<title>Node4&#45;&gt;Node3</title>
<g id="a_edge3_Node000003_Node000004"><a xlink:title=" ">
<path fill="none" stroke="#63b8ff" d="M1046.3,-130.02C1067.86,-134.68 1089.58,-142.08 1108,-153.69 1119.58,-160.99 1117.1,-168.29 1126,-178.69 1155.3,-212.93 1192.64,-248.82 1218.14,-272.32"/>
<polygon fill="#63b8ff" stroke="#63b8ff" points="1046.91,-126.57 1036.42,-128.07 1045.55,-133.44 1046.91,-126.57"/>
</a>
</g>
</g>
<!-- Node11 -->
<g id="Node000011" class="node">
<title>Node11</title>
<g id="a_Node000011"><a xlink:href="interfacefiftyone_1_1pipeline_1_1engines_1_1flowelements_1_1_aspect_engine.html" target="_top" xlink:title="AspectEngines are a subset of FlowElements.">
<polygon fill="white" stroke="#666666" points="1371,-169.19 1126,-169.19 1126,-128.19 1371,-128.19 1371,-169.19"/>
<text text-anchor="start" x="1134" y="-157.19" font-family="Helvetica,sans-Serif" font-size="10.00">fiftyone.pipeline.engines.flowelements.</text>
<text text-anchor="start" x="1134" y="-146.19" font-family="Helvetica,sans-Serif" font-size="10.00">AspectEngine&lt; TData extends AspectData,</text>
<text text-anchor="middle" x="1248.5" y="-135.19" font-family="Helvetica,sans-Serif" font-size="10.00"> TProperty extends AspectPropertyMetaData &gt;</text>
</a>
</g>
</g>
<!-- Node4&#45;&gt;Node11 -->
<g id="edge13_Node000011_Node000004" class="edge">
<title>Node4&#45;&gt;Node11</title>
<g id="a_edge13_Node000011_Node000004"><a xlink:title=" ">
<path fill="none" stroke="#63b8ff" d="M1046.53,-125.05C1066.94,-125.82 1088.16,-126.98 1108,-128.69 1113.85,-129.2 1119.83,-129.78 1125.86,-130.43"/>
<polygon fill="#63b8ff" stroke="#63b8ff" points="1046.38,-121.55 1036.26,-124.69 1046.13,-128.54 1046.38,-121.55"/>
</a>
</g>
</g>
<!-- Node15 -->
<g id="Node000015" class="node">
<title>Node15</title>
<g id="a_Node000015"><a xlink:href="interfacefiftyone_1_1pipeline_1_1engines_1_1flowelements_1_1_aspect_engine.html" target="_top" xlink:title="AspectEngines are a subset of FlowElements.">
<polygon fill="white" stroke="#666666" points="1371,-110.19 1126,-110.19 1126,-69.19 1371,-69.19 1371,-110.19"/>
<text text-anchor="start" x="1134" y="-98.19" font-family="Helvetica,sans-Serif" font-size="10.00">fiftyone.pipeline.engines.flowelements.</text>
<text text-anchor="start" x="1134" y="-87.19" font-family="Helvetica,sans-Serif" font-size="10.00">AspectEngine&lt; TData extends AspectData,</text>
<text text-anchor="middle" x="1248.5" y="-76.19" font-family="Helvetica,sans-Serif" font-size="10.00"> TProperty extends AspectPropertyMetaData &gt;</text>
</a>
</g>
</g>
<!-- Node4&#45;&gt;Node15 -->
<g id="edge22_Node000015_Node000004" class="edge">
<title>Node4&#45;&gt;Node15</title>
<g id="a_edge22_Node000015_Node000004"><a xlink:title=" ">
<path fill="none" stroke="#63b8ff" d="M1046.31,-112.05C1071.93,-109.2 1099.55,-106.13 1125.88,-103.21"/>
<polygon fill="#63b8ff" stroke="#63b8ff" points="1045.78,-108.58 1036.22,-113.17 1046.55,-115.54 1045.78,-108.58"/>
</a>
</g>
</g>
<!-- Node5 -->
<g id="Node000005" class="node">
<title>Node5</title>
<g id="a_Node000005"><a xlink:href="interfacefiftyone_1_1pipeline_1_1core_1_1flowelements_1_1_flow_element.html" target="_top" xlink:title="A component that processes a FlowData (by examining its evidence, or by examining data processed by o...">
<polygon fill="white" stroke="#666666" points="697,-154.19 444,-154.19 444,-113.19 697,-113.19 697,-154.19"/>
<text text-anchor="start" x="452" y="-142.19" font-family="Helvetica,sans-Serif" font-size="10.00">fiftyone.pipeline.core.flowelements.</text>
<text text-anchor="start" x="452" y="-131.19" font-family="Helvetica,sans-Serif" font-size="10.00">FlowElement&lt; TData extends ElementData,</text>
<text text-anchor="middle" x="570.5" y="-120.19" font-family="Helvetica,sans-Serif" font-size="10.00"> TProperty extends ElementPropertyMetaData &gt;</text>
</a>
</g>
</g>
<!-- Node5&#45;&gt;Node4 -->
<g id="edge4_Node000004_Node000005" class="edge">
<title>Node5&#45;&gt;Node4</title>
<g id="a_edge4_Node000004_Node000005"><a xlink:title=" ">
<path fill="none" stroke="orange" stroke-dasharray="5,2" d="M707.12,-130.01C752.92,-128.76 803.03,-127.4 844.95,-126.26"/>
<polygon fill="orange" stroke="orange" points="707.02,-126.51 697.12,-130.28 707.21,-133.51 707.02,-126.51"/>
</a>
</g>
<text text-anchor="start" x="718" y="-134.19" font-family="Helvetica,sans-Serif" font-size="10.00" fill="grey">&lt; TData, TProperty &gt;</text>
</g>
<!-- Node6 -->
<g id="Node000006" class="node">
<title>Node6</title>
<g id="a_Node000006"><a xlink:title=" ">
<polygon fill="white" stroke="#bfbfbf" points="324,-69.19 237,-69.19 237,-50.19 324,-50.19 324,-69.19"/>
<text text-anchor="middle" x="280.5" y="-57.19" font-family="Helvetica,sans-Serif" font-size="10.00">AutoCloseable</text>
</a>
</g>
</g>
<!-- Node6&#45;&gt;Node5 -->
<g id="edge5_Node000005_Node000006" class="edge">
<title>Node6&#45;&gt;Node5</title>
<g id="a_edge5_Node000005_Node000006"><a xlink:title=" ">
<path fill="none" stroke="#63b8ff" d="M328.32,-71.72C371.9,-82.92 437.73,-99.83 489.61,-113.17"/>
<polygon fill="#63b8ff" stroke="#63b8ff" points="329.12,-68.31 318.56,-69.22 327.38,-75.09 329.12,-68.31"/>
</a>
</g>
</g>
<!-- Node7 -->
<g id="Node000007" class="node">
<title>Node7</title>
<g id="a_Node000007"><a xlink:href="interfacefiftyone_1_1pipeline_1_1core_1_1data_1_1_element_data.html" target="_top" xlink:title="Represents property values that have be determined by a specific FlowElement based on the supplied ev...">
<polygon fill="white" stroke="#666666" points="354,-148.69 207,-148.69 207,-118.69 354,-118.69 354,-148.69"/>
<text text-anchor="start" x="215" y="-136.69" font-family="Helvetica,sans-Serif" font-size="10.00">fiftyone.pipeline.core.data.</text>
<text text-anchor="middle" x="280.5" y="-125.69" font-family="Helvetica,sans-Serif" font-size="10.00">ElementData</text>
</a>
</g>
</g>
<!-- Node7&#45;&gt;Node3 -->
<g id="edge9_Node000003_Node000007" class="edge">
<title>Node7&#45;&gt;Node3</title>
<g id="a_edge9_Node000003_Node000007"><a xlink:title=" ">
<path fill="none" stroke="orange" stroke-dasharray="5,2" d="M363.98,-150.11C366.69,-150.65 369.36,-151.17 372,-151.69 582.14,-193.03 633.71,-208.74 845,-243.69 950.07,-261.08 1071.23,-277.09 1152.94,-287.3"/>
<polygon fill="orange" stroke="orange" points="364.6,-146.67 354.11,-148.16 363.24,-153.53 364.6,-146.67"/>
</a>
</g>
<text text-anchor="start" x="756" y="-245.19" font-family="Helvetica,sans-Serif" font-size="10.00" fill="grey">TData</text>
</g>
<!-- Node7&#45;&gt;Node5 -->
<g id="edge6_Node000005_Node000007" class="edge">
<title>Node7&#45;&gt;Node5</title>
<g id="a_edge6_Node000005_Node000007"><a xlink:title=" ">
<path fill="none" stroke="orange" stroke-dasharray="5,2" d="M364.26,-133.69C389.11,-133.69 416.94,-133.69 443.89,-133.69"/>
<polygon fill="orange" stroke="orange" points="364.17,-130.19 354.17,-133.69 364.17,-137.19 364.17,-130.19"/>
</a>
</g>
<text text-anchor="start" x="384" y="-139.19" font-family="Helvetica,sans-Serif" font-size="10.00" fill="grey">TData</text>
</g>
<!-- Node12 -->
<g id="Node000012" class="node">
<title>Node12</title>
<g id="a_Node000012"><a xlink:href="interfacefiftyone_1_1pipeline_1_1engines_1_1data_1_1_aspect_data.html" target="_top" xlink:title="Represents a specialized ElementData instance that is generated by an AspectEngine.">
<polygon fill="white" stroke="#666666" points="1022.5,-52.69 858.5,-52.69 858.5,-22.69 1022.5,-22.69 1022.5,-52.69"/>
<text text-anchor="start" x="866.5" y="-40.69" font-family="Helvetica,sans-Serif" font-size="10.00">fiftyone.pipeline.engines.data.</text>
<text text-anchor="middle" x="940.5" y="-29.69" font-family="Helvetica,sans-Serif" font-size="10.00">AspectData</text>
</a>
</g>
</g>
<!-- Node7&#45;&gt;Node12 -->
<g id="edge15_Node000012_Node000007" class="edge">
<title>Node7&#45;&gt;Node12</title>
<g id="a_edge15_Node000012_Node000007"><a xlink:title=" ">
<path fill="none" stroke="#63b8ff" d="M364.21,-118.24C389.76,-113.65 418.01,-108.77 444,-104.69 589.58,-81.87 759.96,-59.86 858.24,-47.61"/>
<polygon fill="#63b8ff" stroke="#63b8ff" points="363.41,-114.82 354.19,-120.04 364.66,-121.71 363.41,-114.82"/>
</a>
</g>
</g>
<!-- Node8 -->
<g id="Node000008" class="node">
<title>Node8</title>
<g id="a_Node000008"><a xlink:href="interfacefiftyone_1_1pipeline_1_1core_1_1data_1_1_data.html" target="_top" xlink:title="Represents a collection of property values.">
<polygon fill="white" stroke="#666666" points="170,-143.19 0,-143.19 0,-124.19 170,-124.19 170,-143.19"/>
<text text-anchor="middle" x="85" y="-131.19" font-family="Helvetica,sans-Serif" font-size="10.00">fiftyone.pipeline.core.data.Data</text>
</a>
</g>
</g>
<!-- Node8&#45;&gt;Node7 -->
<g id="edge7_Node000007_Node000008" class="edge">
<title>Node8&#45;&gt;Node7</title>
<g id="a_edge7_Node000007_Node000008"><a xlink:title=" ">
<path fill="none" stroke="#63b8ff" d="M180.11,-133.69C189.07,-133.69 198.06,-133.69 206.77,-133.69"/>
<polygon fill="#63b8ff" stroke="#63b8ff" points="180.03,-130.19 170.03,-133.69 180.03,-137.19 180.03,-130.19"/>
</a>
</g>
</g>
<!-- Node9 -->
<g id="Node000009" class="node">
<title>Node9</title>
<g id="a_Node000009"><a xlink:href="interfacefiftyone_1_1pipeline_1_1core_1_1data_1_1_element_property_meta_data.html" target="_top" xlink:title="Defines details of a property that can be returned by a FlowElement.">
<polygon fill="white" stroke="#666666" points="354,-245.69 207,-245.69 207,-215.69 354,-215.69 354,-245.69"/>
<text text-anchor="start" x="215" y="-233.69" font-family="Helvetica,sans-Serif" font-size="10.00">fiftyone.pipeline.core.data.</text>
<text text-anchor="middle" x="280.5" y="-222.69" font-family="Helvetica,sans-Serif" font-size="10.00">ElementPropertyMetaData</text>
</a>
</g>
</g>
<!-- Node9&#45;&gt;Node3 -->
<g id="edge10_Node000003_Node000009" class="edge">
<title>Node9&#45;&gt;Node3</title>
<g id="a_edge10_Node000003_Node000009"><a xlink:title=" ">
<path fill="none" stroke="orange" stroke-dasharray="5,2" d="M327.72,-249.44C359.77,-261.45 403.75,-276 444,-282.69 697.42,-324.84 1001.95,-314.64 1152.98,-305.58"/>
<polygon fill="orange" stroke="orange" points="328.77,-246.1 318.18,-245.81 326.28,-252.64 328.77,-246.1"/>
</a>
</g>
<text text-anchor="start" x="747" y="-318.19" font-family="Helvetica,sans-Serif" font-size="10.00" fill="grey">TProperty</text>
</g>
<!-- Node9&#45;&gt;Node5 -->
<g id="edge8_Node000005_Node000009" class="edge">
<title>Node9&#45;&gt;Node5</title>
<g id="a_edge8_Node000005_Node000009"><a xlink:title=" ">
<path fill="none" stroke="orange" stroke-dasharray="5,2" d="M334.82,-212.36C347.03,-208.18 359.96,-203.77 372,-199.69 417.37,-184.34 468.69,-167.2 507.64,-154.23"/>
<polygon fill="orange" stroke="orange" points="333.53,-209.1 325.21,-215.65 335.8,-215.72 333.53,-209.1"/>
</a>
</g>
<text text-anchor="start" x="375" y="-205.19" font-family="Helvetica,sans-Serif" font-size="10.00" fill="grey">TProperty</text>
</g>
<!-- Node13 -->
<g id="Node000013" class="node">
<title>Node13</title>
<g id="a_Node000013"><a xlink:href="interfacefiftyone_1_1pipeline_1_1engines_1_1data_1_1_aspect_property_meta_data.html" target="_top" xlink:title="Holds details about a property that can be returned by an AspectEngine.">
<polygon fill="white" stroke="#666666" points="1022.5,-234.69 858.5,-234.69 858.5,-204.69 1022.5,-204.69 1022.5,-234.69"/>
<text text-anchor="start" x="866.5" y="-222.69" font-family="Helvetica,sans-Serif" font-size="10.00">fiftyone.pipeline.engines.data.</text>
<text text-anchor="middle" x="940.5" y="-211.69" font-family="Helvetica,sans-Serif" font-size="10.00">AspectPropertyMetaData</text>
</a>
</g>
</g>
<!-- Node9&#45;&gt;Node13 -->
<g id="edge17_Node000013_Node000009" class="edge">
<title>Node9&#45;&gt;Node13</title>
<g id="a_edge17_Node000013_Node000009"><a xlink:title=" ">
<path fill="none" stroke="#63b8ff" d="M364.17,-229.31C491.11,-227.19 732.51,-223.15 858.45,-221.05"/>
<polygon fill="#63b8ff" stroke="#63b8ff" points="364.06,-225.81 354.12,-229.48 364.17,-232.81 364.06,-225.81"/>
</a>
</g>
</g>
<!-- Node10 -->
<g id="Node000010" class="node">
<title>Node10</title>
<g id="a_Node000010"><a xlink:href="interfacefiftyone_1_1pipeline_1_1engines_1_1flowelements_1_1_aspect_engine.html" target="_top" xlink:title=" ">
<polygon fill="white" stroke="#666666" points="1728,-163.69 1519,-163.69 1519,-133.69 1728,-133.69 1728,-163.69"/>
<text text-anchor="start" x="1527" y="-151.69" font-family="Helvetica,sans-Serif" font-size="10.00">fiftyone.pipeline.engines.flowelements.</text>
<text text-anchor="middle" x="1623.5" y="-140.69" font-family="Helvetica,sans-Serif" font-size="10.00">AspectEngine&lt; TData, TProperty &gt;</text>
</a>
</g>
</g>
<!-- Node10&#45;&gt;Node2 -->
<g id="edge11_Node000002_Node000010" class="edge">
<title>Node10&#45;&gt;Node2</title>
<g id="a_edge11_Node000002_Node000010"><a xlink:title=" ">
<path fill="none" stroke="#63b8ff" d="M1738.33,-148.69C1824.23,-148.69 1941.91,-148.69 2029.97,-148.69"/>
<polygon fill="#63b8ff" stroke="#63b8ff" points="1738.28,-145.19 1728.28,-148.69 1738.28,-152.19 1738.28,-145.19"/>
</a>
</g>
</g>
<!-- Node11&#45;&gt;Node10 -->
<g id="edge12_Node000010_Node000011" class="edge">
<title>Node11&#45;&gt;Node10</title>
<g id="a_edge12_Node000010_Node000011"><a xlink:title=" ">
<path fill="none" stroke="orange" stroke-dasharray="5,2" d="M1381.28,-148.69C1426.43,-148.69 1476.27,-148.69 1518.87,-148.69"/>
<polygon fill="orange" stroke="orange" points="1381.12,-145.19 1371.12,-148.69 1381.12,-152.19 1381.12,-145.19"/>
</a>
</g>
<text text-anchor="start" x="1392" y="-154.19" font-family="Helvetica,sans-Serif" font-size="10.00" fill="grey">&lt; TData, TProperty &gt;</text>
</g>
<!-- Node12&#45;&gt;Node2 -->
<g id="edge18_Node000002_Node000012" class="edge">
<title>Node12&#45;&gt;Node2</title>
<g id="a_edge18_Node000002_Node000012"><a xlink:title=" ">
<path fill="none" stroke="orange" stroke-dasharray="5,2" d="M1002.89,-20.2C1019.35,-16.27 1037.23,-12.68 1054,-10.69 1077.83,-7.87 1084.01,-9.94 1108,-10.69 1510.38,-23.37 1626.49,48.27 2012,-67.69 2051.06,-79.44 2090.95,-103.74 2118.29,-122.67"/>
<polygon fill="orange" stroke="orange" points="1001.72,-16.88 992.85,-22.68 1003.39,-23.68 1001.72,-16.88"/>
</a>
</g>
<text text-anchor="start" x="1430" y="-13.19" font-family="Helvetica,sans-Serif" font-size="10.00" fill="grey">TData</text>
</g>
<!-- Node12&#45;&gt;Node11 -->
<g id="edge14_Node000011_Node000012" class="edge">
<title>Node12&#45;&gt;Node11</title>
<g id="a_edge14_Node000011_Node000012"><a xlink:title=" ">
<path fill="none" stroke="orange" stroke-dasharray="5,2" d="M1002.34,-56.07C1034.98,-67.32 1075.13,-83.45 1108,-103.69 1117.11,-109.31 1116.51,-114.75 1126,-119.69 1132.06,-122.85 1138.46,-125.67 1145.04,-128.19"/>
<polygon fill="orange" stroke="orange" points="1003.07,-52.62 992.47,-52.74 1000.83,-59.25 1003.07,-52.62"/>
</a>
</g>
<text text-anchor="start" x="1066" y="-109.19" font-family="Helvetica,sans-Serif" font-size="10.00" fill="grey">TData</text>
</g>
<!-- Node12&#45;&gt;Node15 -->
<g id="edge23_Node000015_Node000012" class="edge">
<title>Node12&#45;&gt;Node15</title>
<g id="a_edge23_Node000015_Node000012"><a xlink:title=" ">
<path fill="none" stroke="orange" stroke-dasharray="5,2" d="M1003.08,-20.55C1034.75,-14.27 1073.79,-10.49 1108,-18.69 1148.43,-28.39 1190.36,-51.86 1217.56,-69.17"/>
<polygon fill="orange" stroke="orange" points="1002.13,-17.17 993.07,-22.67 1003.58,-24.02 1002.13,-17.17"/>
</a>
</g>
<text text-anchor="start" x="1066" y="-24.19" font-family="Helvetica,sans-Serif" font-size="10.00" fill="grey">TData</text>
</g>
<!-- Node13&#45;&gt;Node2 -->
<g id="edge19_Node000002_Node000013" class="edge">
<title>Node13&#45;&gt;Node2</title>
<g id="a_edge19_Node000002_Node000013"><a xlink:title=" ">
<path fill="none" stroke="orange" stroke-dasharray="5,2" d="M1033.12,-222.26C1057.46,-222.54 1083.73,-222.48 1108,-221.69 1510.42,-208.57 1610.72,-195.7 2012,-162.69 2017.88,-162.21 2023.9,-161.69 2029.98,-161.15"/>
<polygon fill="orange" stroke="orange" points="1032.86,-218.76 1022.81,-222.12 1032.77,-225.75 1032.86,-218.76"/>
</a>
</g>
<text text-anchor="start" x="1421" y="-215.19" font-family="Helvetica,sans-Serif" font-size="10.00" fill="grey">TProperty</text>
</g>
<!-- Node13&#45;&gt;Node11 -->
<g id="edge16_Node000011_Node000013" class="edge">
<title>Node13&#45;&gt;Node11</title>
<g id="a_edge16_Node000011_Node000013"><a xlink:title=" ">
<path fill="none" stroke="orange" stroke-dasharray="5,2" d="M1032.8,-205.82C1057.34,-201.54 1083.78,-196.43 1108,-190.69 1133.47,-184.66 1161.15,-176.64 1185.09,-169.23"/>
<polygon fill="orange" stroke="orange" points="1032.04,-202.4 1022.77,-207.54 1033.22,-209.3 1032.04,-202.4"/>
</a>
</g>
<text text-anchor="start" x="1057" y="-206.19" font-family="Helvetica,sans-Serif" font-size="10.00" fill="grey">TProperty</text>
</g>
<!-- Node13&#45;&gt;Node15 -->
<g id="edge24_Node000015_Node000013" class="edge">
<title>Node13&#45;&gt;Node15</title>
<g id="a_edge24_Node000015_Node000013"><a xlink:title=" ">
<path fill="none" stroke="orange" stroke-dasharray="5,2" d="M973.3,-199.19C1009.15,-176.87 1069.78,-141.46 1126,-119.69 1134.92,-116.24 1144.36,-113.09 1153.88,-110.24"/>
<polygon fill="orange" stroke="orange" points="971.35,-196.28 964.74,-204.57 975.07,-202.21 971.35,-196.28"/>
</a>
</g>
<text text-anchor="start" x="1057" y="-156.19" font-family="Helvetica,sans-Serif" font-size="10.00" fill="grey">TProperty</text>
</g>
<!-- Node14 -->
<g id="Node000014" class="node">
<title>Node14</title>
<g id="a_Node000014"><a xlink:href="interfacefiftyone_1_1pipeline_1_1cloudrequestengine_1_1flowelements_1_1_cloud_request_engine.html" target="_top" xlink:title="Engine that makes requests to the 51Degrees cloud service based on the details passed at creation and...">
<polygon fill="white" stroke="#666666" points="2012,-106.69 1746,-106.69 1746,-76.69 2012,-76.69 2012,-106.69"/>
<text text-anchor="start" x="1754" y="-94.69" font-family="Helvetica,sans-Serif" font-size="10.00">fiftyone.pipeline.cloudrequestengine.flowelements.</text>
<text text-anchor="middle" x="1879" y="-83.69" font-family="Helvetica,sans-Serif" font-size="10.00">CloudRequestEngine</text>
</a>
</g>
</g>
<!-- Node14&#45;&gt;Node1 -->
<g id="edge20_Node000001_Node000014" class="edge">
<title>Node14&#45;&gt;Node1</title>
<g id="a_edge20_Node000001_Node000014"><a xlink:title=" ">
<path fill="none" stroke="#63b8ff" d="M2022.47,-96.97C2112.08,-100.29 2226.93,-104.54 2314.57,-107.79"/>
<polygon fill="#63b8ff" stroke="#63b8ff" points="2022.34,-93.46 2012.22,-96.59 2022.08,-100.46 2022.34,-93.46"/>
</a>
</g>
</g>
<!-- Node15&#45;&gt;Node14 -->
<g id="edge21_Node000014_Node000015" class="edge">
<title>Node15&#45;&gt;Node14</title>
<g id="a_edge21_Node000014_Node000015"><a xlink:title=" ">
<path fill="none" stroke="#63b8ff" d="M1381.28,-90.11C1488.39,-90.45 1638.77,-90.93 1745.95,-91.27"/>
<polygon fill="#63b8ff" stroke="#63b8ff" points="1381.06,-86.61 1371.05,-90.08 1381.04,-93.61 1381.06,-86.61"/>
</a>
</g>
</g>
</g>
</svg>
