<?xml version="1.0" encoding="UTF-8" standalone="no"?>
<!DOCTYPE svg PUBLIC "-//W3C//DTD SVG 1.1//EN"
 "http://www.w3.org/Graphics/SVG/1.1/DTD/svg11.dtd">
<!-- Generated by graphviz version 2.43.0 (0)
 -->
<!-- Title: fiftyone.pipeline.jsonbuilder.flowelements.JsonBuilderElement Pages: 1 -->
<svg width="1756pt" height="320pt"
 viewBox="0.00 0.00 1756.00 319.86" xmlns="http://www.w3.org/2000/svg" xmlns:xlink="http://www.w3.org/1999/xlink">
<g id="graph0" class="graph" transform="scale(1 1) rotate(0) translate(4 315.86)">
<title>fiftyone.pipeline.jsonbuilder.flowelements.JsonBuilderElement</title>
<!-- Node1 -->
<g id="Node000001" class="node">
<title>Node1</title>
<g id="a_Node000001"><a xlink:title="The JsonBuilderElement takes accessible properties and adds the property key:values to the Json objec...">
<polygon fill="#999999" stroke="#666666" points="1748,-174.86 1524,-174.86 1524,-144.86 1748,-144.86 1748,-174.86"/>
<text text-anchor="start" x="1532" y="-162.86" font-family="Helvetica,sans-Serif" font-size="10.00">fiftyone.pipeline.jsonbuilder.flowelements.</text>
<text text-anchor="middle" x="1636" y="-151.86" font-family="Helvetica,sans-Serif" font-size="10.00">JsonBuilderElement</text>
</a>
</g>
</g>
<!-- Node2 -->
<g id="Node000002" class="node">
<title>Node2</title>
<g id="a_Node000002"><a xlink:href="classfiftyone_1_1pipeline_1_1core_1_1flowelements_1_1_flow_element_base.html" target="_top" xlink:title="Provides a base class from which authors may create new FlowElements.">
<polygon fill="white" stroke="#666666" points="1487,-156.86 1296,-156.86 1296,-104.86 1487,-104.86 1487,-156.86"/>
<text text-anchor="start" x="1304" y="-144.86" font-family="Helvetica,sans-Serif" font-size="10.00">fiftyone.pipeline.core.flowelements.</text>
<text text-anchor="start" x="1304" y="-133.86" font-family="Helvetica,sans-Serif" font-size="10.00">FlowElementBase&lt; TData extends</text>
<text text-anchor="start" x="1304" y="-122.86" font-family="Helvetica,sans-Serif" font-size="10.00"> ElementData, TProperty extends</text>
<text text-anchor="middle" x="1391.5" y="-111.86" font-family="Helvetica,sans-Serif" font-size="10.00"> ElementPropertyMetaData &gt;</text>
</a>
</g>
</g>
<!-- Node2&#45;&gt;Node1 -->
<g id="edge1_Node000001_Node000002" class="edge">
<title>Node2&#45;&gt;Node1</title>
<g id="a_edge1_Node000001_Node000002"><a xlink:title=" ">
<path fill="none" stroke="#63b8ff" d="M1497.46,-143.42C1506.17,-144.46 1515,-145.51 1523.75,-146.56"/>
<polygon fill="#63b8ff" stroke="#63b8ff" points="1497.64,-139.91 1487.3,-142.2 1496.81,-146.86 1497.64,-139.91"/>
</a>
</g>
</g>
<!-- Node3 -->
<g id="Node000003" class="node">
<title>Node3</title>
<g id="a_Node000003"><a xlink:href="interfacefiftyone_1_1pipeline_1_1core_1_1flowelements_1_1_flow_element.html" target="_top" xlink:title=" ">
<polygon fill="white" stroke="#666666" points="1036,-145.86 845,-145.86 845,-115.86 1036,-115.86 1036,-145.86"/>
<text text-anchor="start" x="853" y="-133.86" font-family="Helvetica,sans-Serif" font-size="10.00">fiftyone.pipeline.core.flowelements.</text>
<text text-anchor="middle" x="940.5" y="-122.86" font-family="Helvetica,sans-Serif" font-size="10.00">FlowElement&lt; TData, TProperty &gt;</text>
</a>
</g>
</g>
<!-- Node3&#45;&gt;Node2 -->
<g id="edge2_Node000002_Node000003" class="edge">
<title>Node3&#45;&gt;Node2</title>
<g id="a_edge2_Node000002_Node000003"><a xlink:title=" ">
<path fill="none" stroke="#63b8ff" d="M1046.19,-130.86C1121.73,-130.86 1222.86,-130.86 1295.96,-130.86"/>
<polygon fill="#63b8ff" stroke="#63b8ff" points="1046.17,-127.36 1036.17,-130.86 1046.17,-134.36 1046.17,-127.36"/>
</a>
</g>
</g>
<!-- Node4 -->
<g id="Node000004" class="node">
<title>Node4</title>
<g id="a_Node000004"><a xlink:href="interfacefiftyone_1_1pipeline_1_1core_1_1flowelements_1_1_flow_element.html" target="_top" xlink:title="A component that processes a FlowData (by examining its evidence, or by examining data processed by o...">
<polygon fill="white" stroke="#666666" points="697,-151.36 444,-151.36 444,-110.36 697,-110.36 697,-151.36"/>
<text text-anchor="start" x="452" y="-139.36" font-family="Helvetica,sans-Serif" font-size="10.00">fiftyone.pipeline.core.flowelements.</text>
<text text-anchor="start" x="452" y="-128.36" font-family="Helvetica,sans-Serif" font-size="10.00">FlowElement&lt; TData extends ElementData,</text>
<text text-anchor="middle" x="570.5" y="-117.36" font-family="Helvetica,sans-Serif" font-size="10.00"> TProperty extends ElementPropertyMetaData &gt;</text>
</a>
</g>
</g>
<!-- Node4&#45;&gt;Node3 -->
<g id="edge3_Node000003_Node000004" class="edge">
<title>Node4&#45;&gt;Node3</title>
<g id="a_edge3_Node000003_Node000004"><a xlink:title=" ">
<path fill="none" stroke="orange" stroke-dasharray="5,2" d="M707.12,-130.86C752.92,-130.86 803.03,-130.86 844.95,-130.86"/>
<polygon fill="orange" stroke="orange" points="707.12,-127.36 697.12,-130.86 707.12,-134.36 707.12,-127.36"/>
</a>
</g>
<text text-anchor="start" x="718" y="-136.36" font-family="Helvetica,sans-Serif" font-size="10.00" fill="grey">&lt; TData, TProperty &gt;</text>
</g>
<!-- Node5 -->
<g id="Node000005" class="node">
<title>Node5</title>
<g id="a_Node000005"><a xlink:title=" ">
<polygon fill="white" stroke="#bfbfbf" points="324,-186.36 237,-186.36 237,-167.36 324,-167.36 324,-186.36"/>
<text text-anchor="middle" x="280.5" y="-174.36" font-family="Helvetica,sans-Serif" font-size="10.00">AutoCloseable</text>
</a>
</g>
</g>
<!-- Node5&#45;&gt;Node4 -->
<g id="edge4_Node000004_Node000005" class="edge">
<title>Node5&#45;&gt;Node4</title>
<g id="a_edge4_Node000004_Node000005"><a xlink:title=" ">
<path fill="none" stroke="#63b8ff" d="M334.37,-168.42C365.15,-163.5 405.37,-157.08 443.82,-150.94"/>
<polygon fill="#63b8ff" stroke="#63b8ff" points="333.63,-164.99 324.31,-170.03 334.73,-171.91 333.63,-164.99"/>
</a>
</g>
</g>
<!-- Node12 -->
<g id="Node000012" class="node">
<title>Node12</title>
<g id="a_Node000012"><a xlink:href="interfacefiftyone_1_1pipeline_1_1core_1_1flowelements_1_1_flow_element.html" target="_top" xlink:title="A component that processes a FlowData (by examining its evidence, or by examining data processed by o...">
<polygon fill="white" stroke="#666666" points="697,-210.36 444,-210.36 444,-169.36 697,-169.36 697,-210.36"/>
<text text-anchor="start" x="452" y="-198.36" font-family="Helvetica,sans-Serif" font-size="10.00">fiftyone.pipeline.core.flowelements.</text>
<text text-anchor="start" x="452" y="-187.36" font-family="Helvetica,sans-Serif" font-size="10.00">FlowElement&lt; TData extends ElementData,</text>
<text text-anchor="middle" x="570.5" y="-176.36" font-family="Helvetica,sans-Serif" font-size="10.00"> TProperty extends ElementPropertyMetaData &gt;</text>
</a>
</g>
</g>
<!-- Node5&#45;&gt;Node12 -->
<g id="edge14_Node000012_Node000005" class="edge">
<title>Node5&#45;&gt;Node12</title>
<g id="a_edge14_Node000012_Node000005"><a xlink:title=" ">
<path fill="none" stroke="#63b8ff" d="M334.37,-179.25C365.15,-180.64 405.37,-182.46 443.82,-184.19"/>
<polygon fill="#63b8ff" stroke="#63b8ff" points="334.45,-175.75 324.31,-178.8 334.14,-182.74 334.45,-175.75"/>
</a>
</g>
</g>
<!-- Node6 -->
<g id="Node000006" class="node">
<title>Node6</title>
<g id="a_Node000006"><a xlink:href="interfacefiftyone_1_1pipeline_1_1core_1_1data_1_1_element_data.html" target="_top" xlink:title="Represents property values that have be determined by a specific FlowElement based on the supplied ev...">
<polygon fill="white" stroke="#666666" points="354,-107.86 207,-107.86 207,-77.86 354,-77.86 354,-107.86"/>
<text text-anchor="start" x="215" y="-95.86" font-family="Helvetica,sans-Serif" font-size="10.00">fiftyone.pipeline.core.data.</text>
<text text-anchor="middle" x="280.5" y="-84.86" font-family="Helvetica,sans-Serif" font-size="10.00">ElementData</text>
</a>
</g>
</g>
<!-- Node6&#45;&gt;Node2 -->
<g id="edge10_Node000002_Node000006" class="edge">
<title>Node6&#45;&gt;Node2</title>
<g id="a_edge10_Node000002_Node000006"><a xlink:title=" ">
<path fill="none" stroke="orange" stroke-dasharray="5,2" d="M364.25,-87.16C366.87,-87.05 369.45,-86.95 372,-86.86 395.99,-86.07 402,-86.47 426,-86.86 697.22,-91.31 765.08,-93.26 1036,-106.86 1124.1,-111.29 1224.39,-118.26 1295.76,-123.55"/>
<polygon fill="orange" stroke="orange" points="363.92,-83.67 354.09,-87.63 364.24,-90.66 363.92,-83.67"/>
</a>
</g>
<text text-anchor="start" x="756" y="-102.36" font-family="Helvetica,sans-Serif" font-size="10.00" fill="grey">TData</text>
</g>
<!-- Node6&#45;&gt;Node4 -->
<g id="edge5_Node000004_Node000006" class="edge">
<title>Node6&#45;&gt;Node4</title>
<g id="a_edge5_Node000004_Node000006"><a xlink:title=" ">
<path fill="none" stroke="orange" stroke-dasharray="5,2" d="M364.28,-89.95C384.53,-90.2 406.1,-91.27 426,-93.86 451.77,-97.22 479.54,-103.69 503.72,-110.29"/>
<polygon fill="orange" stroke="orange" points="364.16,-86.45 354.14,-89.9 364.12,-93.45 364.16,-86.45"/>
</a>
</g>
<text text-anchor="start" x="384" y="-99.36" font-family="Helvetica,sans-Serif" font-size="10.00" fill="grey">TData</text>
</g>
<!-- Node6&#45;&gt;Node12 -->
<g id="edge15_Node000012_Node000006" class="edge">
<title>Node6&#45;&gt;Node12</title>
<g id="a_edge15_Node000012_Node000006"><a xlink:title=" ">
<path fill="none" stroke="orange" stroke-dasharray="5,2" d="M322.13,-112.13C354.57,-126.96 401.48,-147.16 444,-160.86 453.37,-163.88 463.22,-166.72 473.12,-169.35"/>
<polygon fill="orange" stroke="orange" points="323.51,-108.91 312.97,-107.91 320.58,-115.27 323.51,-108.91"/>
</a>
</g>
<text text-anchor="start" x="384" y="-159.36" font-family="Helvetica,sans-Serif" font-size="10.00" fill="grey">TData</text>
</g>
<!-- Node7 -->
<g id="Node000007" class="node">
<title>Node7</title>
<g id="a_Node000007"><a xlink:href="interfacefiftyone_1_1pipeline_1_1core_1_1data_1_1_data.html" target="_top" xlink:title="Represents a collection of property values.">
<polygon fill="white" stroke="#666666" points="170,-102.36 0,-102.36 0,-83.36 170,-83.36 170,-102.36"/>
<text text-anchor="middle" x="85" y="-90.36" font-family="Helvetica,sans-Serif" font-size="10.00">fiftyone.pipeline.core.data.Data</text>
</a>
</g>
</g>
<!-- Node7&#45;&gt;Node6 -->
<g id="edge6_Node000006_Node000007" class="edge">
<title>Node7&#45;&gt;Node6</title>
<g id="a_edge6_Node000006_Node000007"><a xlink:title=" ">
<path fill="none" stroke="#63b8ff" d="M180.11,-92.86C189.07,-92.86 198.06,-92.86 206.77,-92.86"/>
<polygon fill="#63b8ff" stroke="#63b8ff" points="180.03,-89.36 170.03,-92.86 180.03,-96.36 180.03,-89.36"/>
</a>
</g>
</g>
<!-- Node8 -->
<g id="Node000008" class="node">
<title>Node8</title>
<g id="a_Node000008"><a xlink:href="interfacefiftyone_1_1pipeline_1_1core_1_1data_1_1_element_property_meta_data.html" target="_top" xlink:title="Defines details of a property that can be returned by a FlowElement.">
<polygon fill="white" stroke="#666666" points="354,-277.86 207,-277.86 207,-247.86 354,-247.86 354,-277.86"/>
<text text-anchor="start" x="215" y="-265.86" font-family="Helvetica,sans-Serif" font-size="10.00">fiftyone.pipeline.core.data.</text>
<text text-anchor="middle" x="280.5" y="-254.86" font-family="Helvetica,sans-Serif" font-size="10.00">ElementPropertyMetaData</text>
</a>
</g>
</g>
<!-- Node8&#45;&gt;Node2 -->
<g id="edge11_Node000002_Node000008" class="edge">
<title>Node8&#45;&gt;Node2</title>
<g id="a_edge11_Node000002_Node000008"><a xlink:title=" ">
<path fill="none" stroke="orange" stroke-dasharray="5,2" d="M364.23,-274.42C539.14,-295.52 956.78,-328.09 1278,-211.86 1310.59,-200.07 1342.11,-175.92 1363.46,-157.04"/>
<polygon fill="orange" stroke="orange" points="364.42,-270.92 354.07,-273.18 363.57,-277.87 364.42,-270.92"/>
</a>
</g>
<text text-anchor="start" x="747" y="-300.36" font-family="Helvetica,sans-Serif" font-size="10.00" fill="grey">TProperty</text>
</g>
<!-- Node8&#45;&gt;Node4 -->
<g id="edge7_Node000004_Node000008" class="edge">
<title>Node8&#45;&gt;Node4</title>
<g id="a_edge7_Node000004_Node000008"><a xlink:title=" ">
<path fill="none" stroke="orange" stroke-dasharray="5,2" d="M314.11,-242.3C361.05,-212.72 442.26,-161.6 444,-160.86 452.37,-157.35 461.22,-154.2 470.21,-151.38"/>
<polygon fill="orange" stroke="orange" points="312.09,-239.44 305.5,-247.73 315.82,-245.36 312.09,-239.44"/>
</a>
</g>
<text text-anchor="start" x="375" y="-208.36" font-family="Helvetica,sans-Serif" font-size="10.00" fill="grey">TProperty</text>
</g>
<!-- Node8&#45;&gt;Node12 -->
<g id="edge16_Node000012_Node000008" class="edge">
<title>Node8&#45;&gt;Node12</title>
<g id="a_edge16_Node000012_Node000008"><a xlink:title=" ">
<path fill="none" stroke="orange" stroke-dasharray="5,2" d="M363.98,-253.08C384.4,-249.9 406.12,-245.86 426,-240.86 457.54,-232.94 491.9,-220.85 519.09,-210.44"/>
<polygon fill="orange" stroke="orange" points="363.43,-249.62 354.07,-254.57 364.48,-256.54 363.43,-249.62"/>
</a>
</g>
<text text-anchor="start" x="375" y="-256.36" font-family="Helvetica,sans-Serif" font-size="10.00" fill="grey">TProperty</text>
</g>
<!-- Node9 -->
<g id="Node000009" class="node">
<title>Node9</title>
<g id="a_Node000009"><a xlink:href="interfacefiftyone_1_1pipeline_1_1core_1_1typed_1_1_typed_key.html" target="_top" xlink:title=" ">
<polygon fill="white" stroke="#666666" points="1017,-31.86 864,-31.86 864,-1.86 1017,-1.86 1017,-31.86"/>
<text text-anchor="start" x="872" y="-19.86" font-family="Helvetica,sans-Serif" font-size="10.00">fiftyone.pipeline.core.typed.</text>
<text text-anchor="middle" x="940.5" y="-8.86" font-family="Helvetica,sans-Serif" font-size="10.00">TypedKey&lt; TData &gt;</text>
</a>
</g>
</g>
<!-- Node9&#45;&gt;Node2 -->
<g id="edge8_Node000002_Node000009" class="edge">
<title>Node9&#45;&gt;Node2</title>
<g id="a_edge8_Node000002_Node000009"><a xlink:title=" ">
<path fill="none" stroke="#9a32cd" stroke-dasharray="5,2" d="M1027.21,-4.14C1097.3,2.63 1197.61,3.81 1278,-28.86 1316.83,-44.65 1350.83,-80.17 1371.01,-104.83"/>
<polygon fill="#9a32cd" stroke="#9a32cd" points="1026.68,-0.67 1017.09,-5.17 1027.39,-7.64 1026.68,-0.67"/>
</a>
</g>
<text text-anchor="start" x="1143" y="-34.36" font-family="Helvetica,sans-Serif" font-size="10.00" fill="grey">typedKey</text>
</g>
<!-- Node10 -->
<g id="Node000010" class="node">
<title>Node10</title>
<g id="a_Node000010"><a xlink:href="interfacefiftyone_1_1pipeline_1_1core_1_1typed_1_1_typed_key.html" target="_top" xlink:title="Holds a name and a type to allow for type safe operations on named values.">
<polygon fill="white" stroke="#666666" points="647,-31.86 494,-31.86 494,-1.86 647,-1.86 647,-31.86"/>
<text text-anchor="start" x="502" y="-19.86" font-family="Helvetica,sans-Serif" font-size="10.00">fiftyone.pipeline.core.typed.</text>
<text text-anchor="middle" x="570.5" y="-8.86" font-family="Helvetica,sans-Serif" font-size="10.00">TypedKey&lt; T &gt;</text>
</a>
</g>
</g>
<!-- Node10&#45;&gt;Node9 -->
<g id="edge9_Node000009_Node000010" class="edge">
<title>Node10&#45;&gt;Node9</title>
<g id="a_edge9_Node000009_Node000010"><a xlink:title=" ">
<path fill="none" stroke="orange" stroke-dasharray="5,2" d="M657.54,-16.86C720.04,-16.86 803.83,-16.86 863.79,-16.86"/>
<polygon fill="orange" stroke="orange" points="657.3,-13.36 647.3,-16.86 657.3,-20.36 657.3,-13.36"/>
</a>
</g>
<text text-anchor="start" x="745" y="-22.36" font-family="Helvetica,sans-Serif" font-size="10.00" fill="grey">&lt; TData &gt;</text>
</g>
<!-- Node11 -->
<g id="Node000011" class="node">
<title>Node11</title>
<g id="a_Node000011"><a xlink:href="interfacefiftyone_1_1pipeline_1_1jsonbuilder_1_1flowelements_1_1_json_builder.html" target="_top" xlink:title="The JsonBuilderElement takes accessible properties and adds the property key:values to the Json objec...">
<polygon fill="white" stroke="#666666" points="1278,-202.86 1054,-202.86 1054,-172.86 1278,-172.86 1278,-202.86"/>
<text text-anchor="start" x="1062" y="-190.86" font-family="Helvetica,sans-Serif" font-size="10.00">fiftyone.pipeline.jsonbuilder.flowelements.</text>
<text text-anchor="middle" x="1166" y="-179.86" font-family="Helvetica,sans-Serif" font-size="10.00">JsonBuilder</text>
</a>
</g>
</g>
<!-- Node11&#45;&gt;Node1 -->
<g id="edge12_Node000001_Node000011" class="edge">
<title>Node11&#45;&gt;Node1</title>
<g id="a_edge12_Node000001_Node000011"><a xlink:title=" ">
<path fill="none" stroke="#63b8ff" d="M1288.34,-180.6C1361.1,-176.25 1452.94,-170.76 1523.81,-166.52"/>
<polygon fill="#63b8ff" stroke="#63b8ff" points="1287.98,-177.12 1278.21,-181.21 1288.4,-184.11 1287.98,-177.12"/>
</a>
</g>
</g>
<!-- Node12&#45;&gt;Node11 -->
<g id="edge13_Node000011_Node000012" class="edge">
<title>Node12&#45;&gt;Node11</title>
<g id="a_edge13_Node000011_Node000012"><a xlink:title=" ">
<path fill="none" stroke="#63b8ff" d="M707.03,-189.41C811.93,-189.05 955.43,-188.57 1053.68,-188.24"/>
<polygon fill="#63b8ff" stroke="#63b8ff" points="706.99,-185.91 697,-189.44 707.02,-192.91 706.99,-185.91"/>
</a>
</g>
</g>
</g>
</svg>
