<?xml version="1.0" encoding="UTF-8" standalone="no"?>
<!DOCTYPE svg PUBLIC "-//W3C//DTD SVG 1.1//EN"
 "http://www.w3.org/Graphics/SVG/1.1/DTD/svg11.dtd">
<!-- Generated by graphviz version 2.43.0 (0)
 -->
<!-- Title: fiftyone.pipeline.engines.flowelements.OnPremiseAspectEngineBase&lt; TData extends AspectData, TProperty extends AspectPropertyMetaData &gt; Pages: 1 -->
<svg width="2791pt" height="545pt"
 viewBox="0.00 0.00 2791.00 545.00" xmlns="http://www.w3.org/2000/svg" xmlns:xlink="http://www.w3.org/1999/xlink">
<g id="graph0" class="graph" transform="scale(1 1) rotate(0) translate(4 541)">
<title>fiftyone.pipeline.engines.flowelements.OnPremiseAspectEngineBase&lt; TData extends AspectData, TProperty extends AspectPropertyMetaData &gt;</title>
<!-- Node1 -->
<g id="Node000001" class="node">
<title>Node1</title>
<g id="a_Node000001"><a xlink:title="Base class for on&#45;premise aspect engines.">
<polygon fill="#999999" stroke="#666666" points="2783,-409 2570,-409 2570,-357 2783,-357 2783,-409"/>
<text text-anchor="start" x="2578" y="-397" font-family="Helvetica,sans-Serif" font-size="10.00">fiftyone.pipeline.engines.flowelements.</text>
<text text-anchor="start" x="2578" y="-386" font-family="Helvetica,sans-Serif" font-size="10.00">OnPremiseAspectEngineBase&lt; TData</text>
<text text-anchor="start" x="2578" y="-375" font-family="Helvetica,sans-Serif" font-size="10.00"> extends AspectData, TProperty extends</text>
<text text-anchor="middle" x="2676.5" y="-364" font-family="Helvetica,sans-Serif" font-size="10.00"> AspectPropertyMetaData &gt;</text>
</a>
</g>
</g>
<!-- Node2 -->
<g id="Node000002" class="node">
<title>Node2</title>
<g id="a_Node000002"><a xlink:href="classfiftyone_1_1pipeline_1_1engines_1_1flowelements_1_1_aspect_engine_base.html" target="_top" xlink:title=" ">
<polygon fill="white" stroke="#666666" points="2533,-342 2321,-342 2321,-312 2533,-312 2533,-342"/>
<text text-anchor="start" x="2329" y="-330" font-family="Helvetica,sans-Serif" font-size="10.00">fiftyone.pipeline.engines.flowelements.</text>
<text text-anchor="middle" x="2427" y="-319" font-family="Helvetica,sans-Serif" font-size="10.00">AspectEngineBase&lt; TData, TProperty &gt;</text>
</a>
</g>
</g>
<!-- Node2&#45;&gt;Node1 -->
<g id="edge1_Node000001_Node000002" class="edge">
<title>Node2&#45;&gt;Node1</title>
<g id="a_edge1_Node000001_Node000002"><a xlink:title=" ">
<path fill="none" stroke="#63b8ff" d="M2504.3,-344.26C2525,-348.95 2547.78,-354.1 2569.78,-359.08"/>
<polygon fill="#63b8ff" stroke="#63b8ff" points="2504.85,-340.8 2494.33,-342.01 2503.31,-347.63 2504.85,-340.8"/>
</a>
</g>
</g>
<!-- Node3 -->
<g id="Node000003" class="node">
<title>Node3</title>
<g id="a_Node000003"><a xlink:href="classfiftyone_1_1pipeline_1_1engines_1_1flowelements_1_1_aspect_engine_base.html" target="_top" xlink:title="Base class for AspectEngines to extend.">
<polygon fill="white" stroke="#666666" points="2173,-326 1925,-326 1925,-274 2173,-274 2173,-326"/>
<text text-anchor="start" x="1933" y="-314" font-family="Helvetica,sans-Serif" font-size="10.00">fiftyone.pipeline.engines.flowelements.</text>
<text text-anchor="start" x="1933" y="-303" font-family="Helvetica,sans-Serif" font-size="10.00">AspectEngineBase&lt; TData extends</text>
<text text-anchor="start" x="1933" y="-292" font-family="Helvetica,sans-Serif" font-size="10.00"> AspectData, TProperty extends AspectProperty</text>
<text text-anchor="middle" x="2049" y="-281" font-family="Helvetica,sans-Serif" font-size="10.00">MetaData &gt;</text>
</a>
</g>
</g>
<!-- Node3&#45;&gt;Node2 -->
<g id="edge2_Node000002_Node000003" class="edge">
<title>Node3&#45;&gt;Node2</title>
<g id="a_edge2_Node000002_Node000003"><a xlink:title=" ">
<path fill="none" stroke="orange" stroke-dasharray="5,2" d="M2183.28,-309.57C2228.45,-312.81 2278.23,-316.39 2320.9,-319.45"/>
<polygon fill="orange" stroke="orange" points="2183.34,-306.07 2173.12,-308.84 2182.84,-313.05 2183.34,-306.07"/>
</a>
</g>
<text text-anchor="start" x="2194" y="-322.5" font-family="Helvetica,sans-Serif" font-size="10.00" fill="grey">&lt; TData, TProperty &gt;</text>
</g>
<!-- Node4 -->
<g id="Node000004" class="node">
<title>Node4</title>
<g id="a_Node000004"><a xlink:href="classfiftyone_1_1pipeline_1_1core_1_1flowelements_1_1_flow_element_base.html" target="_top" xlink:title="Provides a base class from which authors may create new FlowElements.">
<polygon fill="white" stroke="#666666" points="1383,-183 1192,-183 1192,-131 1383,-131 1383,-183"/>
<text text-anchor="start" x="1200" y="-171" font-family="Helvetica,sans-Serif" font-size="10.00">fiftyone.pipeline.core.flowelements.</text>
<text text-anchor="start" x="1200" y="-160" font-family="Helvetica,sans-Serif" font-size="10.00">FlowElementBase&lt; TData extends</text>
<text text-anchor="start" x="1200" y="-149" font-family="Helvetica,sans-Serif" font-size="10.00"> ElementData, TProperty extends</text>
<text text-anchor="middle" x="1287.5" y="-138" font-family="Helvetica,sans-Serif" font-size="10.00"> ElementPropertyMetaData &gt;</text>
</a>
</g>
</g>
<!-- Node4&#45;&gt;Node3 -->
<g id="edge3_Node000003_Node000004" class="edge">
<title>Node4&#45;&gt;Node3</title>
<g id="a_edge3_Node000003_Node000004"><a xlink:title=" ">
<path fill="none" stroke="#63b8ff" d="M1393.3,-164.92C1517.46,-175.93 1729.82,-199.94 1907,-246 1934.4,-253.12 1963.78,-263.85 1988.58,-273.87"/>
<polygon fill="#63b8ff" stroke="#63b8ff" points="1393.31,-161.4 1383.05,-164.02 1392.7,-168.38 1393.31,-161.4"/>
</a>
</g>
</g>
<!-- Node5 -->
<g id="Node000005" class="node">
<title>Node5</title>
<g id="a_Node000005"><a xlink:href="interfacefiftyone_1_1pipeline_1_1core_1_1flowelements_1_1_flow_element.html" target="_top" xlink:title=" ">
<polygon fill="white" stroke="#666666" points="1036,-195 845,-195 845,-165 1036,-165 1036,-195"/>
<text text-anchor="start" x="853" y="-183" font-family="Helvetica,sans-Serif" font-size="10.00">fiftyone.pipeline.core.flowelements.</text>
<text text-anchor="middle" x="940.5" y="-172" font-family="Helvetica,sans-Serif" font-size="10.00">FlowElement&lt; TData, TProperty &gt;</text>
</a>
</g>
</g>
<!-- Node5&#45;&gt;Node4 -->
<g id="edge4_Node000004_Node000005" class="edge">
<title>Node5&#45;&gt;Node4</title>
<g id="a_edge4_Node000004_Node000005"><a xlink:title=" ">
<path fill="none" stroke="#63b8ff" d="M1046.22,-171.55C1048.84,-171.36 1051.43,-171.18 1054,-171 1099.28,-167.83 1149.55,-164.74 1191.73,-162.28"/>
<polygon fill="#63b8ff" stroke="#63b8ff" points="1045.73,-168.08 1036.02,-172.3 1046.25,-175.06 1045.73,-168.08"/>
</a>
</g>
</g>
<!-- Node14 -->
<g id="Node000014" class="node">
<title>Node14</title>
<g id="a_Node000014"><a xlink:href="interfacefiftyone_1_1pipeline_1_1engines_1_1flowelements_1_1_aspect_engine.html" target="_top" xlink:title="AspectEngines are a subset of FlowElements.">
<polygon fill="white" stroke="#666666" points="1410,-374.5 1165,-374.5 1165,-333.5 1410,-333.5 1410,-374.5"/>
<text text-anchor="start" x="1173" y="-362.5" font-family="Helvetica,sans-Serif" font-size="10.00">fiftyone.pipeline.engines.flowelements.</text>
<text text-anchor="start" x="1173" y="-351.5" font-family="Helvetica,sans-Serif" font-size="10.00">AspectEngine&lt; TData extends AspectData,</text>
<text text-anchor="middle" x="1287.5" y="-340.5" font-family="Helvetica,sans-Serif" font-size="10.00"> TProperty extends AspectPropertyMetaData &gt;</text>
</a>
</g>
</g>
<!-- Node5&#45;&gt;Node14 -->
<g id="edge16_Node000014_Node000005" class="edge">
<title>Node5&#45;&gt;Node14</title>
<g id="a_edge16_Node000014_Node000005"><a xlink:title=" ">
<path fill="none" stroke="#63b8ff" d="M995.02,-198.92C1039.98,-216.97 1103.64,-247.81 1147,-291 1158.84,-302.79 1151.77,-313.8 1165,-324 1169.56,-327.52 1174.48,-330.62 1179.63,-333.37"/>
<polygon fill="#63b8ff" stroke="#63b8ff" points="996.03,-195.56 985.45,-195.16 993.47,-202.07 996.03,-195.56"/>
</a>
</g>
</g>
<!-- Node6 -->
<g id="Node000006" class="node">
<title>Node6</title>
<g id="a_Node000006"><a xlink:href="interfacefiftyone_1_1pipeline_1_1core_1_1flowelements_1_1_flow_element.html" target="_top" xlink:title="A component that processes a FlowData (by examining its evidence, or by examining data processed by o...">
<polygon fill="white" stroke="#666666" points="697,-213.5 444,-213.5 444,-172.5 697,-172.5 697,-213.5"/>
<text text-anchor="start" x="452" y="-201.5" font-family="Helvetica,sans-Serif" font-size="10.00">fiftyone.pipeline.core.flowelements.</text>
<text text-anchor="start" x="452" y="-190.5" font-family="Helvetica,sans-Serif" font-size="10.00">FlowElement&lt; TData extends ElementData,</text>
<text text-anchor="middle" x="570.5" y="-179.5" font-family="Helvetica,sans-Serif" font-size="10.00"> TProperty extends ElementPropertyMetaData &gt;</text>
</a>
</g>
</g>
<!-- Node6&#45;&gt;Node5 -->
<g id="edge5_Node000005_Node000006" class="edge">
<title>Node6&#45;&gt;Node5</title>
<g id="a_edge5_Node000005_Node000006"><a xlink:title=" ">
<path fill="none" stroke="orange" stroke-dasharray="5,2" d="M707.12,-188.21C752.92,-186.59 803.03,-184.82 844.95,-183.34"/>
<polygon fill="orange" stroke="orange" points="706.99,-184.71 697.12,-188.56 707.23,-191.71 706.99,-184.71"/>
</a>
</g>
<text text-anchor="start" x="718" y="-192.5" font-family="Helvetica,sans-Serif" font-size="10.00" fill="grey">&lt; TData, TProperty &gt;</text>
</g>
<!-- Node7 -->
<g id="Node000007" class="node">
<title>Node7</title>
<g id="a_Node000007"><a xlink:title=" ">
<polygon fill="white" stroke="#bfbfbf" points="324,-202.5 237,-202.5 237,-183.5 324,-183.5 324,-202.5"/>
<text text-anchor="middle" x="280.5" y="-190.5" font-family="Helvetica,sans-Serif" font-size="10.00">AutoCloseable</text>
</a>
</g>
</g>
<!-- Node7&#45;&gt;Node6 -->
<g id="edge6_Node000006_Node000007" class="edge">
<title>Node7&#45;&gt;Node6</title>
<g id="a_edge6_Node000006_Node000007"><a xlink:title=" ">
<path fill="none" stroke="#63b8ff" d="M334.37,-193C365.15,-193 405.37,-193 443.82,-193"/>
<polygon fill="#63b8ff" stroke="#63b8ff" points="334.31,-189.5 324.31,-193 334.31,-196.5 334.31,-189.5"/>
</a>
</g>
</g>
<!-- Node8 -->
<g id="Node000008" class="node">
<title>Node8</title>
<g id="a_Node000008"><a xlink:href="interfacefiftyone_1_1pipeline_1_1core_1_1data_1_1_element_data.html" target="_top" xlink:title="Represents property values that have be determined by a specific FlowElement based on the supplied ev...">
<polygon fill="white" stroke="#666666" points="354,-143 207,-143 207,-113 354,-113 354,-143"/>
<text text-anchor="start" x="215" y="-131" font-family="Helvetica,sans-Serif" font-size="10.00">fiftyone.pipeline.core.data.</text>
<text text-anchor="middle" x="280.5" y="-120" font-family="Helvetica,sans-Serif" font-size="10.00">ElementData</text>
</a>
</g>
</g>
<!-- Node8&#45;&gt;Node4 -->
<g id="edge12_Node000004_Node000008" class="edge">
<title>Node8&#45;&gt;Node4</title>
<g id="a_edge12_Node000004_Node000008"><a xlink:title=" ">
<path fill="none" stroke="orange" stroke-dasharray="5,2" d="M327.71,-109.36C359.76,-97.47 403.74,-83.17 444,-77 489.65,-70 1007.7,-75.62 1036,-80 1100.18,-89.93 1170.68,-112.73 1220.49,-130.96"/>
<polygon fill="orange" stroke="orange" points="326.29,-106.15 318.17,-112.96 328.76,-112.7 326.29,-106.15"/>
</a>
</g>
<text text-anchor="start" x="756" y="-80.5" font-family="Helvetica,sans-Serif" font-size="10.00" fill="grey">TData</text>
</g>
<!-- Node8&#45;&gt;Node6 -->
<g id="edge7_Node000006_Node000008" class="edge">
<title>Node8&#45;&gt;Node6</title>
<g id="a_edge7_Node000006_Node000008"><a xlink:title=" ">
<path fill="none" stroke="orange" stroke-dasharray="5,2" d="M358.5,-145.38C395.43,-153.71 439.93,-163.76 478.52,-172.47"/>
<polygon fill="orange" stroke="orange" points="358.82,-141.86 348.3,-143.08 357.28,-148.69 358.82,-141.86"/>
</a>
</g>
<text text-anchor="start" x="384" y="-165.5" font-family="Helvetica,sans-Serif" font-size="10.00" fill="grey">TData</text>
</g>
<!-- Node15 -->
<g id="Node000015" class="node">
<title>Node15</title>
<g id="a_Node000015"><a xlink:href="interfacefiftyone_1_1pipeline_1_1engines_1_1data_1_1_aspect_data.html" target="_top" xlink:title="Represents a specialized ElementData instance that is generated by an AspectEngine.">
<polygon fill="white" stroke="#666666" points="1022.5,-281 858.5,-281 858.5,-251 1022.5,-251 1022.5,-281"/>
<text text-anchor="start" x="866.5" y="-269" font-family="Helvetica,sans-Serif" font-size="10.00">fiftyone.pipeline.engines.data.</text>
<text text-anchor="middle" x="940.5" y="-258" font-family="Helvetica,sans-Serif" font-size="10.00">AspectData</text>
</a>
</g>
</g>
<!-- Node8&#45;&gt;Node15 -->
<g id="edge18_Node000015_Node000008" class="edge">
<title>Node8&#45;&gt;Node15</title>
<g id="a_edge18_Node000015_Node000008"><a xlink:title=" ">
<path fill="none" stroke="#63b8ff" d="M364.32,-127.59C497.09,-128.3 750.42,-135.66 827,-180 838.54,-186.68 835.28,-194.87 845,-204 865.03,-222.8 891.41,-239.58 911.21,-250.93"/>
<polygon fill="#63b8ff" stroke="#63b8ff" points="364.21,-124.09 354.19,-127.55 364.18,-131.09 364.21,-124.09"/>
</a>
</g>
</g>
<!-- Node9 -->
<g id="Node000009" class="node">
<title>Node9</title>
<g id="a_Node000009"><a xlink:href="interfacefiftyone_1_1pipeline_1_1core_1_1data_1_1_data.html" target="_top" xlink:title="Represents a collection of property values.">
<polygon fill="white" stroke="#666666" points="170,-137.5 0,-137.5 0,-118.5 170,-118.5 170,-137.5"/>
<text text-anchor="middle" x="85" y="-125.5" font-family="Helvetica,sans-Serif" font-size="10.00">fiftyone.pipeline.core.data.Data</text>
</a>
</g>
</g>
<!-- Node9&#45;&gt;Node8 -->
<g id="edge8_Node000008_Node000009" class="edge">
<title>Node9&#45;&gt;Node8</title>
<g id="a_edge8_Node000008_Node000009"><a xlink:title=" ">
<path fill="none" stroke="#63b8ff" d="M180.11,-128C189.07,-128 198.06,-128 206.77,-128"/>
<polygon fill="#63b8ff" stroke="#63b8ff" points="180.03,-124.5 170.03,-128 180.03,-131.5 180.03,-124.5"/>
</a>
</g>
</g>
<!-- Node10 -->
<g id="Node000010" class="node">
<title>Node10</title>
<g id="a_Node000010"><a xlink:href="interfacefiftyone_1_1pipeline_1_1core_1_1data_1_1_element_property_meta_data.html" target="_top" xlink:title="Defines details of a property that can be returned by a FlowElement.">
<polygon fill="white" stroke="#666666" points="354,-273 207,-273 207,-243 354,-243 354,-273"/>
<text text-anchor="start" x="215" y="-261" font-family="Helvetica,sans-Serif" font-size="10.00">fiftyone.pipeline.core.data.</text>
<text text-anchor="middle" x="280.5" y="-250" font-family="Helvetica,sans-Serif" font-size="10.00">ElementPropertyMetaData</text>
</a>
</g>
</g>
<!-- Node10&#45;&gt;Node4 -->
<g id="edge13_Node000004_Node000010" class="edge">
<title>Node10&#45;&gt;Node4</title>
<g id="a_edge13_Node000004_Node000010"><a xlink:title=" ">
<path fill="none" stroke="orange" stroke-dasharray="5,2" d="M364.24,-255.17C503.42,-249.71 792.99,-235.39 1036,-204 1087.78,-197.31 1145.05,-186.8 1191.74,-177.42"/>
<polygon fill="orange" stroke="orange" points="363.94,-251.67 354.08,-255.56 364.21,-258.67 363.94,-251.67"/>
</a>
</g>
<text text-anchor="start" x="747" y="-240.5" font-family="Helvetica,sans-Serif" font-size="10.00" fill="grey">TProperty</text>
</g>
<!-- Node10&#45;&gt;Node6 -->
<g id="edge9_Node000006_Node000010" class="edge">
<title>Node10&#45;&gt;Node6</title>
<g id="a_edge9_Node000006_Node000010"><a xlink:title=" ">
<path fill="none" stroke="orange" stroke-dasharray="5,2" d="M330.63,-239.58C343.93,-235.03 358.4,-230.48 372,-227 395.01,-221.12 419.78,-215.96 443.75,-211.55"/>
<polygon fill="orange" stroke="orange" points="329.47,-236.28 321.18,-242.87 331.78,-242.89 329.47,-236.28"/>
</a>
</g>
<text text-anchor="start" x="375" y="-232.5" font-family="Helvetica,sans-Serif" font-size="10.00" fill="grey">TProperty</text>
</g>
<!-- Node16 -->
<g id="Node000016" class="node">
<title>Node16</title>
<g id="a_Node000016"><a xlink:href="interfacefiftyone_1_1pipeline_1_1engines_1_1data_1_1_aspect_property_meta_data.html" target="_top" xlink:title="Holds details about a property that can be returned by an AspectEngine.">
<polygon fill="white" stroke="#666666" points="1022.5,-457 858.5,-457 858.5,-427 1022.5,-427 1022.5,-457"/>
<text text-anchor="start" x="866.5" y="-445" font-family="Helvetica,sans-Serif" font-size="10.00">fiftyone.pipeline.engines.data.</text>
<text text-anchor="middle" x="940.5" y="-434" font-family="Helvetica,sans-Serif" font-size="10.00">AspectPropertyMetaData</text>
</a>
</g>
</g>
<!-- Node10&#45;&gt;Node16 -->
<g id="edge20_Node000016_Node000010" class="edge">
<title>Node10&#45;&gt;Node16</title>
<g id="a_edge20_Node000016_Node000010"><a xlink:title=" ">
<path fill="none" stroke="#63b8ff" d="M345.11,-275.79C474.33,-311.92 765.45,-393.33 885.83,-426.99"/>
<polygon fill="#63b8ff" stroke="#63b8ff" points="345.92,-272.38 335.35,-273.06 344.03,-279.12 345.92,-272.38"/>
</a>
</g>
</g>
<!-- Node11 -->
<g id="Node000011" class="node">
<title>Node11</title>
<g id="a_Node000011"><a xlink:href="interfacefiftyone_1_1pipeline_1_1core_1_1typed_1_1_typed_key.html" target="_top" xlink:title=" ">
<polygon fill="white" stroke="#666666" points="1017,-119 864,-119 864,-89 1017,-89 1017,-119"/>
<text text-anchor="start" x="872" y="-107" font-family="Helvetica,sans-Serif" font-size="10.00">fiftyone.pipeline.core.typed.</text>
<text text-anchor="middle" x="940.5" y="-96" font-family="Helvetica,sans-Serif" font-size="10.00">TypedKey&lt; TData &gt;</text>
</a>
</g>
</g>
<!-- Node11&#45;&gt;Node4 -->
<g id="edge10_Node000004_Node000011" class="edge">
<title>Node11&#45;&gt;Node4</title>
<g id="a_edge10_Node000004_Node000011"><a xlink:title=" ">
<path fill="none" stroke="#9a32cd" stroke-dasharray="5,2" d="M1027.35,-117.19C1077.33,-124.87 1140.43,-134.56 1191.85,-142.46"/>
<polygon fill="#9a32cd" stroke="#9a32cd" points="1027.63,-113.69 1017.21,-115.63 1026.56,-120.61 1027.63,-113.69"/>
</a>
</g>
<text text-anchor="start" x="1077.5" y="-140.5" font-family="Helvetica,sans-Serif" font-size="10.00" fill="grey">typedKey</text>
</g>
<!-- Node12 -->
<g id="Node000012" class="node">
<title>Node12</title>
<g id="a_Node000012"><a xlink:href="interfacefiftyone_1_1pipeline_1_1core_1_1typed_1_1_typed_key.html" target="_top" xlink:title="Holds a name and a type to allow for type safe operations on named values.">
<polygon fill="white" stroke="#666666" points="647,-116 494,-116 494,-86 647,-86 647,-116"/>
<text text-anchor="start" x="502" y="-104" font-family="Helvetica,sans-Serif" font-size="10.00">fiftyone.pipeline.core.typed.</text>
<text text-anchor="middle" x="570.5" y="-93" font-family="Helvetica,sans-Serif" font-size="10.00">TypedKey&lt; T &gt;</text>
</a>
</g>
</g>
<!-- Node12&#45;&gt;Node11 -->
<g id="edge11_Node000011_Node000012" class="edge">
<title>Node12&#45;&gt;Node11</title>
<g id="a_edge11_Node000011_Node000012"><a xlink:title=" ">
<path fill="none" stroke="orange" stroke-dasharray="5,2" d="M657.54,-101.7C720.04,-102.21 803.83,-102.89 863.79,-103.38"/>
<polygon fill="orange" stroke="orange" points="657.33,-98.2 647.3,-101.62 657.27,-105.2 657.33,-98.2"/>
</a>
</g>
<text text-anchor="start" x="745" y="-108.5" font-family="Helvetica,sans-Serif" font-size="10.00" fill="grey">&lt; TData &gt;</text>
</g>
<!-- Node13 -->
<g id="Node000013" class="node">
<title>Node13</title>
<g id="a_Node000013"><a xlink:href="interfacefiftyone_1_1pipeline_1_1engines_1_1flowelements_1_1_aspect_engine.html" target="_top" xlink:title=" ">
<polygon fill="white" stroke="#666666" points="1767,-363 1558,-363 1558,-333 1767,-333 1767,-363"/>
<text text-anchor="start" x="1566" y="-351" font-family="Helvetica,sans-Serif" font-size="10.00">fiftyone.pipeline.engines.flowelements.</text>
<text text-anchor="middle" x="1662.5" y="-340" font-family="Helvetica,sans-Serif" font-size="10.00">AspectEngine&lt; TData, TProperty &gt;</text>
</a>
</g>
</g>
<!-- Node13&#45;&gt;Node3 -->
<g id="edge14_Node000003_Node000013" class="edge">
<title>Node13&#45;&gt;Node3</title>
<g id="a_edge14_Node000003_Node000013"><a xlink:title=" ">
<path fill="none" stroke="#63b8ff" d="M1777.29,-336.27C1818.22,-331.82 1864.72,-326.49 1907,-321 1912.89,-320.24 1918.92,-319.43 1925,-318.6"/>
<polygon fill="#63b8ff" stroke="#63b8ff" points="1776.84,-332.8 1767.28,-337.36 1777.6,-339.76 1776.84,-332.8"/>
</a>
</g>
</g>
<!-- Node26 -->
<g id="Node000026" class="node">
<title>Node26</title>
<g id="a_Node000026"><a xlink:href="interfacefiftyone_1_1pipeline_1_1engines_1_1flowelements_1_1_on_premise_aspect_engine.html" target="_top" xlink:title="Aspect engine interface which processes data internally using a data file and populates the results.">
<polygon fill="white" stroke="#666666" points="2173,-442 1925,-442 1925,-390 2173,-390 2173,-442"/>
<text text-anchor="start" x="1933" y="-430" font-family="Helvetica,sans-Serif" font-size="10.00">fiftyone.pipeline.engines.flowelements.</text>
<text text-anchor="start" x="1933" y="-419" font-family="Helvetica,sans-Serif" font-size="10.00">OnPremiseAspectEngine&lt; TData extends</text>
<text text-anchor="start" x="1933" y="-408" font-family="Helvetica,sans-Serif" font-size="10.00"> AspectData, TProperty extends AspectProperty</text>
<text text-anchor="middle" x="2049" y="-397" font-family="Helvetica,sans-Serif" font-size="10.00">MetaData &gt;</text>
</a>
</g>
</g>
<!-- Node13&#45;&gt;Node26 -->
<g id="edge33_Node000026_Node000013" class="edge">
<title>Node13&#45;&gt;Node26</title>
<g id="a_edge33_Node000026_Node000013"><a xlink:title=" ">
<path fill="none" stroke="#63b8ff" d="M1758.23,-364.75C1808.45,-373.63 1870.74,-384.65 1924.68,-394.19"/>
<polygon fill="#63b8ff" stroke="#63b8ff" points="1758.81,-361.3 1748.36,-363.01 1757.59,-368.2 1758.81,-361.3"/>
</a>
</g>
</g>
<!-- Node14&#45;&gt;Node13 -->
<g id="edge15_Node000013_Node000014" class="edge">
<title>Node14&#45;&gt;Node13</title>
<g id="a_edge15_Node000013_Node000014"><a xlink:title=" ">
<path fill="none" stroke="orange" stroke-dasharray="5,2" d="M1420.28,-351.88C1465.43,-351.15 1515.27,-350.35 1557.87,-349.67"/>
<polygon fill="orange" stroke="orange" points="1420.06,-348.38 1410.12,-352.04 1420.17,-355.38 1420.06,-348.38"/>
</a>
</g>
<text text-anchor="start" x="1431" y="-356.5" font-family="Helvetica,sans-Serif" font-size="10.00" fill="grey">&lt; TData, TProperty &gt;</text>
</g>
<!-- Node15&#45;&gt;Node1 -->
<g id="edge36_Node000001_Node000015" class="edge">
<title>Node15&#45;&gt;Node1</title>
<g id="a_edge36_Node000001_Node000015"><a xlink:title=" ">
<path fill="none" stroke="orange" stroke-dasharray="5,2" d="M1032.47,-250.43C1239.02,-215.93 1738.51,-137.61 1907,-157 2190.82,-189.66 2266.68,-199.6 2533,-303 2569.63,-317.22 2608.34,-339.47 2636.15,-356.9"/>
<polygon fill="orange" stroke="orange" points="1031.85,-246.98 1022.56,-252.09 1033,-253.89 1031.85,-246.98"/>
</a>
</g>
<text text-anchor="start" x="1831" y="-162.5" font-family="Helvetica,sans-Serif" font-size="10.00" fill="grey">TData</text>
</g>
<!-- Node15&#45;&gt;Node3 -->
<g id="edge29_Node000003_Node000015" class="edge">
<title>Node15&#45;&gt;Node3</title>
<g id="a_edge29_Node000003_Node000015"><a xlink:title=" ">
<path fill="none" stroke="orange" stroke-dasharray="5,2" d="M1032.94,-264.93C1185.27,-263.63 1500.59,-263.03 1767,-276 1818.72,-278.52 1875.66,-283.05 1924.68,-287.51"/>
<polygon fill="orange" stroke="orange" points="1032.67,-261.43 1022.7,-265.02 1032.73,-268.43 1032.67,-261.43"/>
</a>
</g>
<text text-anchor="start" x="1469" y="-272.5" font-family="Helvetica,sans-Serif" font-size="10.00" fill="grey">TData</text>
</g>
<!-- Node15&#45;&gt;Node14 -->
<g id="edge17_Node000014_Node000015" class="edge">
<title>Node15&#45;&gt;Node14</title>
<g id="a_edge17_Node000014_Node000015"><a xlink:title=" ">
<path fill="none" stroke="orange" stroke-dasharray="5,2" d="M1008.67,-283.65C1053.02,-295.25 1112.43,-310.69 1165,-324 1177.22,-327.09 1190.13,-330.32 1202.81,-333.47"/>
<polygon fill="orange" stroke="orange" points="1009.43,-280.23 998.87,-281.09 1007.66,-287.01 1009.43,-280.23"/>
</a>
</g>
<text text-anchor="start" x="1085.5" y="-324.5" font-family="Helvetica,sans-Serif" font-size="10.00" fill="grey">TData</text>
</g>
<!-- Node15&#45;&gt;Node26 -->
<g id="edge34_Node000026_Node000015" class="edge">
<title>Node15&#45;&gt;Node26</title>
<g id="a_edge34_Node000026_Node000015"><a xlink:title=" ">
<path fill="none" stroke="orange" stroke-dasharray="5,2" d="M955.13,-290.23C973.32,-319.8 1008.57,-368.42 1054,-389 1078.6,-400.14 1513,-398.27 1540,-399 1671.44,-402.55 1821.96,-407.73 1924.83,-411.43"/>
<polygon fill="orange" stroke="orange" points="957.97,-288.15 949.84,-281.35 951.96,-291.73 957.97,-288.15"/>
</a>
</g>
<text text-anchor="start" x="1469" y="-404.5" font-family="Helvetica,sans-Serif" font-size="10.00" fill="grey">TData</text>
</g>
<!-- Node16&#45;&gt;Node1 -->
<g id="edge37_Node000001_Node000016" class="edge">
<title>Node16&#45;&gt;Node1</title>
<g id="a_edge37_Node000001_Node000016"><a xlink:title=" ">
<path fill="none" stroke="orange" stroke-dasharray="5,2" d="M990.97,-460.48C1057.26,-483.54 1179.03,-520 1286.5,-520 1286.5,-520 1286.5,-520 2428,-520 2518.61,-520 2607.17,-448.84 2649.57,-409.09"/>
<polygon fill="orange" stroke="orange" points="991.8,-457.06 981.21,-457.04 989.47,-463.66 991.8,-457.06"/>
</a>
</g>
<text text-anchor="start" x="1822" y="-525.5" font-family="Helvetica,sans-Serif" font-size="10.00" fill="grey">TProperty</text>
</g>
<!-- Node16&#45;&gt;Node3 -->
<g id="edge30_Node000003_Node000016" class="edge">
<title>Node16&#45;&gt;Node3</title>
<g id="a_edge30_Node000003_Node000016"><a xlink:title=" ">
<path fill="none" stroke="orange" stroke-dasharray="5,2" d="M1032.73,-443.49C1150.42,-444.31 1361.26,-442.02 1540,-420 1642.35,-407.39 1666.14,-393.47 1767,-372 1829.24,-358.75 1845.35,-357.76 1907,-342 1925.68,-337.22 1945.61,-331.61 1964.42,-326.07"/>
<polygon fill="orange" stroke="orange" points="1032.71,-439.99 1022.68,-443.41 1032.65,-446.99 1032.71,-439.99"/>
</a>
</g>
<text text-anchor="start" x="1460" y="-435.5" font-family="Helvetica,sans-Serif" font-size="10.00" fill="grey">TProperty</text>
</g>
<!-- Node16&#45;&gt;Node14 -->
<g id="edge19_Node000014_Node000016" class="edge">
<title>Node16&#45;&gt;Node14</title>
<g id="a_edge19_Node000014_Node000016"><a xlink:title=" ">
<path fill="none" stroke="orange" stroke-dasharray="5,2" d="M1004.74,-424.23C1020.78,-419.82 1038.01,-415.16 1054,-411 1102.26,-398.44 1156.37,-385.13 1200.23,-374.53"/>
<polygon fill="orange" stroke="orange" points="1003.63,-420.91 994.92,-426.94 1005.49,-427.66 1003.63,-420.91"/>
</a>
</g>
<text text-anchor="start" x="1076.5" y="-416.5" font-family="Helvetica,sans-Serif" font-size="10.00" fill="grey">TProperty</text>
</g>
<!-- Node16&#45;&gt;Node26 -->
<g id="edge35_Node000026_Node000016" class="edge">
<title>Node16&#45;&gt;Node26</title>
<g id="a_edge35_Node000026_Node000016"><a xlink:title=" ">
<path fill="none" stroke="orange" stroke-dasharray="5,2" d="M1032.94,-454.26C1040.06,-454.94 1047.14,-455.54 1054,-456 1432.3,-481.48 1530.47,-487.54 1907,-443 1912.82,-442.31 1918.75,-441.52 1924.74,-440.66"/>
<polygon fill="orange" stroke="orange" points="1032.81,-450.72 1022.51,-453.19 1032.1,-457.69 1032.81,-450.72"/>
</a>
</g>
<text text-anchor="start" x="1460" y="-480.5" font-family="Helvetica,sans-Serif" font-size="10.00" fill="grey">TProperty</text>
</g>
<!-- Node17 -->
<g id="Node000017" class="node">
<title>Node17</title>
<g id="a_Node000017"><a xlink:href="interfacefiftyone_1_1pipeline_1_1engines_1_1services_1_1_missing_property_service.html" target="_top" xlink:title="Service used by AspectEngines to report the reason for a property not being present in the results.">
<polygon fill="white" stroke="#666666" points="1754,-315 1571,-315 1571,-285 1754,-285 1754,-315"/>
<text text-anchor="start" x="1579" y="-303" font-family="Helvetica,sans-Serif" font-size="10.00">fiftyone.pipeline.engines.services.</text>
<text text-anchor="middle" x="1662.5" y="-292" font-family="Helvetica,sans-Serif" font-size="10.00">MissingPropertyService</text>
</a>
</g>
</g>
<!-- Node17&#45;&gt;Node3 -->
<g id="edge21_Node000003_Node000017" class="edge">
<title>Node17&#45;&gt;Node3</title>
<g id="a_edge21_Node000003_Node000017"><a xlink:title=" ">
<path fill="none" stroke="#9a32cd" stroke-dasharray="5,2" d="M1764.15,-300C1813.34,-300 1872.98,-300 1924.87,-300"/>
<polygon fill="#9a32cd" stroke="#9a32cd" points="1764.13,-296.5 1754.13,-300 1764.13,-303.5 1764.13,-296.5"/>
</a>
</g>
<text text-anchor="start" x="1788" y="-305.5" font-family="Helvetica,sans-Serif" font-size="10.00" fill="grey">missingPropertyService</text>
</g>
<!-- Node18 -->
<g id="Node000018" class="node">
<title>Node18</title>
<g id="a_Node000018"><a xlink:href="interfacefiftyone_1_1pipeline_1_1core_1_1services_1_1_pipeline_service.html" target="_top" xlink:title="Service interface used by PipelineBuilder to hand out services to elements which required them.">
<polygon fill="white" stroke="#666666" points="1370.5,-315 1204.5,-315 1204.5,-285 1370.5,-285 1370.5,-315"/>
<text text-anchor="start" x="1212.5" y="-303" font-family="Helvetica,sans-Serif" font-size="10.00">fiftyone.pipeline.core.services.</text>
<text text-anchor="middle" x="1287.5" y="-292" font-family="Helvetica,sans-Serif" font-size="10.00">PipelineService</text>
</a>
</g>
</g>
<!-- Node18&#45;&gt;Node17 -->
<g id="edge22_Node000017_Node000018" class="edge">
<title>Node18&#45;&gt;Node17</title>
<g id="a_edge22_Node000017_Node000018"><a xlink:title=" ">
<path fill="none" stroke="#63b8ff" d="M1381.07,-300C1439.02,-300 1513.33,-300 1570.9,-300"/>
<polygon fill="#63b8ff" stroke="#63b8ff" points="1380.82,-296.5 1370.82,-300 1380.82,-303.5 1380.82,-296.5"/>
</a>
</g>
</g>
<!-- Node19 -->
<g id="Node000019" class="node">
<title>Node19</title>
<g id="a_Node000019"><a xlink:href="interfacefiftyone_1_1pipeline_1_1engines_1_1caching_1_1_flow_cache.html" target="_top" xlink:title="Used to cache results from individual flow elements in the pipeline.">
<polygon fill="white" stroke="#666666" points="1752.5,-132 1572.5,-132 1572.5,-102 1752.5,-102 1752.5,-132"/>
<text text-anchor="start" x="1580.5" y="-120" font-family="Helvetica,sans-Serif" font-size="10.00">fiftyone.pipeline.engines.caching.</text>
<text text-anchor="middle" x="1662.5" y="-109" font-family="Helvetica,sans-Serif" font-size="10.00">FlowCache</text>
</a>
</g>
</g>
<!-- Node19&#45;&gt;Node3 -->
<g id="edge23_Node000003_Node000019" class="edge">
<title>Node19&#45;&gt;Node3</title>
<g id="a_edge23_Node000003_Node000019"><a xlink:title=" ">
<path fill="none" stroke="#9a32cd" stroke-dasharray="5,2" d="M1697.62,-137.37C1721.38,-150.73 1754.2,-167.6 1785,-178 1837.27,-195.66 1856.16,-179.55 1907,-201 1949.44,-218.91 1991.84,-251.09 2018.9,-273.9"/>
<polygon fill="#9a32cd" stroke="#9a32cd" points="1699.09,-134.18 1688.67,-132.26 1695.62,-140.25 1699.09,-134.18"/>
</a>
</g>
<text text-anchor="start" x="1832" y="-206.5" font-family="Helvetica,sans-Serif" font-size="10.00" fill="grey">cache</text>
</g>
<!-- Node20 -->
<g id="Node000020" class="node">
<title>Node20</title>
<g id="a_Node000020"><a xlink:href="interfacefiftyone_1_1pipeline_1_1engines_1_1caching_1_1_data_keyed_cache.html" target="_top" xlink:title=" ">
<polygon fill="white" stroke="#666666" points="1380.5,-86 1194.5,-86 1194.5,-56 1380.5,-56 1380.5,-86"/>
<text text-anchor="start" x="1202.5" y="-74" font-family="Helvetica,sans-Serif" font-size="10.00">fiftyone.pipeline.engines.caching.</text>
<text text-anchor="middle" x="1287.5" y="-63" font-family="Helvetica,sans-Serif" font-size="10.00">DataKeyedCache&lt; ElementData &gt;</text>
</a>
</g>
</g>
<!-- Node20&#45;&gt;Node19 -->
<g id="edge24_Node000019_Node000020" class="edge">
<title>Node20&#45;&gt;Node19</title>
<g id="a_edge24_Node000019_Node000020"><a xlink:title=" ">
<path fill="none" stroke="#63b8ff" d="M1390.79,-83.62C1447.63,-90.63 1517.69,-99.26 1572.29,-106"/>
<polygon fill="#63b8ff" stroke="#63b8ff" points="1391.06,-80.12 1380.7,-82.37 1390.2,-87.07 1391.06,-80.12"/>
</a>
</g>
</g>
<!-- Node21 -->
<g id="Node000021" class="node">
<title>Node21</title>
<g id="a_Node000021"><a xlink:href="interfacefiftyone_1_1pipeline_1_1engines_1_1caching_1_1_data_keyed_cache.html" target="_top" xlink:title="Represents a put cache where the key is a FlowData instance.">
<polygon fill="white" stroke="#666666" points="1030.5,-30 850.5,-30 850.5,0 1030.5,0 1030.5,-30"/>
<text text-anchor="start" x="858.5" y="-18" font-family="Helvetica,sans-Serif" font-size="10.00">fiftyone.pipeline.engines.caching.</text>
<text text-anchor="middle" x="940.5" y="-7" font-family="Helvetica,sans-Serif" font-size="10.00">DataKeyedCache&lt; V &gt;</text>
</a>
</g>
</g>
<!-- Node21&#45;&gt;Node20 -->
<g id="edge25_Node000020_Node000021" class="edge">
<title>Node21&#45;&gt;Node20</title>
<g id="a_edge25_Node000020_Node000021"><a xlink:title=" ">
<path fill="none" stroke="orange" stroke-dasharray="5,2" d="M1040.95,-15.86C1074.82,-17.46 1112.76,-20.7 1147,-27 1181.84,-33.41 1220.13,-45.9 1247.77,-55.94"/>
<polygon fill="orange" stroke="orange" points="1040.72,-12.34 1030.58,-15.41 1040.42,-19.34 1040.72,-12.34"/>
</a>
</g>
<text text-anchor="start" x="1057.5" y="-32.5" font-family="Helvetica,sans-Serif" font-size="10.00" fill="grey">&lt; ElementData &gt;</text>
</g>
<!-- Node22 -->
<g id="Node000022" class="node">
<title>Node22</title>
<g id="a_Node000022"><a xlink:href="interfacefiftyone_1_1caching_1_1_put_cache.html" target="_top" xlink:title="A cache that supports a thread safe put method for inserting to cache.">
<polygon fill="white" stroke="#666666" points="642,-30 499,-30 499,0 642,0 642,-30"/>
<text text-anchor="start" x="507" y="-18" font-family="Helvetica,sans-Serif" font-size="10.00">fiftyone.caching.PutCache</text>
<text text-anchor="middle" x="570.5" y="-7" font-family="Helvetica,sans-Serif" font-size="10.00">&lt; K, V &gt;</text>
</a>
</g>
</g>
<!-- Node22&#45;&gt;Node21 -->
<g id="edge26_Node000021_Node000022" class="edge">
<title>Node22&#45;&gt;Node21</title>
<g id="a_edge26_Node000021_Node000022"><a xlink:title=" ">
<path fill="none" stroke="#63b8ff" d="M652.33,-15C710.86,-15 789.96,-15 850.33,-15"/>
<polygon fill="#63b8ff" stroke="#63b8ff" points="652.02,-11.5 642.02,-15 652.02,-18.5 652.02,-11.5"/>
</a>
</g>
</g>
<!-- Node23 -->
<g id="Node000023" class="node">
<title>Node23</title>
<g id="a_Node000023"><a xlink:href="interfacefiftyone_1_1caching_1_1_cache.html" target="_top" xlink:title="Base cache interface which declares only the get method and the types of key and value stored in the ...">
<polygon fill="white" stroke="#666666" points="344,-30 217,-30 217,0 344,0 344,-30"/>
<text text-anchor="start" x="225" y="-18" font-family="Helvetica,sans-Serif" font-size="10.00">fiftyone.caching.Cache</text>
<text text-anchor="middle" x="280.5" y="-7" font-family="Helvetica,sans-Serif" font-size="10.00">&lt; K, V &gt;</text>
</a>
</g>
</g>
<!-- Node23&#45;&gt;Node22 -->
<g id="edge27_Node000022_Node000023" class="edge">
<title>Node23&#45;&gt;Node22</title>
<g id="a_edge27_Node000022_Node000023"><a xlink:title=" ">
<path fill="none" stroke="#63b8ff" d="M354.47,-15C398.79,-15 455.08,-15 498.95,-15"/>
<polygon fill="#63b8ff" stroke="#63b8ff" points="354.35,-11.5 344.35,-15 354.35,-18.5 354.35,-11.5"/>
</a>
</g>
</g>
<!-- Node24 -->
<g id="Node000024" class="node">
<title>Node24</title>
<g id="a_Node000024"><a xlink:title=" ">
<polygon fill="white" stroke="#bfbfbf" points="117.5,-24.5 52.5,-24.5 52.5,-5.5 117.5,-5.5 117.5,-24.5"/>
<text text-anchor="middle" x="85" y="-12.5" font-family="Helvetica,sans-Serif" font-size="10.00">Closeable</text>
</a>
</g>
</g>
<!-- Node24&#45;&gt;Node23 -->
<g id="edge28_Node000023_Node000024" class="edge">
<title>Node24&#45;&gt;Node23</title>
<g id="a_edge28_Node000023_Node000024"><a xlink:title=" ">
<path fill="none" stroke="#63b8ff" d="M127.76,-15C153.71,-15 187.55,-15 216.69,-15"/>
<polygon fill="#63b8ff" stroke="#63b8ff" points="127.52,-11.5 117.52,-15 127.52,-18.5 127.52,-11.5"/>
</a>
</g>
</g>
<!-- Node25 -->
<g id="Node000025" class="node">
<title>Node25</title>
<g id="a_Node000025"><a xlink:href="interfacefiftyone_1_1pipeline_1_1engines_1_1flowelements_1_1_on_premise_aspect_engine.html" target="_top" xlink:title=" ">
<polygon fill="white" stroke="#666666" points="2531.5,-417.5 2322.5,-417.5 2322.5,-376.5 2531.5,-376.5 2531.5,-417.5"/>
<text text-anchor="start" x="2330.5" y="-405.5" font-family="Helvetica,sans-Serif" font-size="10.00">fiftyone.pipeline.engines.flowelements.</text>
<text text-anchor="start" x="2330.5" y="-394.5" font-family="Helvetica,sans-Serif" font-size="10.00">OnPremiseAspectEngine&lt; TData,</text>
<text text-anchor="middle" x="2427" y="-383.5" font-family="Helvetica,sans-Serif" font-size="10.00"> TProperty &gt;</text>
</a>
</g>
</g>
<!-- Node25&#45;&gt;Node1 -->
<g id="edge31_Node000001_Node000025" class="edge">
<title>Node25&#45;&gt;Node1</title>
<g id="a_edge31_Node000001_Node000025"><a xlink:title=" ">
<path fill="none" stroke="#63b8ff" d="M2541.71,-390.57C2551.14,-390.03 2560.64,-389.5 2570,-388.97"/>
<polygon fill="#63b8ff" stroke="#63b8ff" points="2541.31,-387.08 2531.53,-391.14 2541.71,-394.07 2541.31,-387.08"/>
</a>
</g>
</g>
<!-- Node26&#45;&gt;Node25 -->
<g id="edge32_Node000025_Node000026" class="edge">
<title>Node26&#45;&gt;Node25</title>
<g id="a_edge32_Node000025_Node000026"><a xlink:title=" ">
<path fill="none" stroke="orange" stroke-dasharray="5,2" d="M2183.11,-409.27C2228.87,-406.96 2279.38,-404.41 2322.44,-402.23"/>
<polygon fill="orange" stroke="orange" points="2182.93,-405.78 2173.12,-409.78 2183.28,-412.77 2182.93,-405.78"/>
</a>
</g>
<text text-anchor="start" x="2194" y="-413.5" font-family="Helvetica,sans-Serif" font-size="10.00" fill="grey">&lt; TData, TProperty &gt;</text>
</g>
</g>
</svg>
