<?xml version="1.0" encoding="UTF-8" standalone="no"?>
<!DOCTYPE svg PUBLIC "-//W3C//DTD SVG 1.1//EN"
 "http://www.w3.org/Graphics/SVG/1.1/DTD/svg11.dtd">
<!-- Generated by graphviz version 2.43.0 (0)
 -->
<!-- Title: fiftyone.pipeline.core.data.ElementDataBase Pages: 1 -->
<svg width="1391pt" height="182pt"
 viewBox="0.00 0.00 1391.00 182.00" xmlns="http://www.w3.org/2000/svg" xmlns:xlink="http://www.w3.org/1999/xlink">
<g id="graph0" class="graph" transform="scale(1 1) rotate(0) translate(4 178)">
<title>fiftyone.pipeline.core.data.ElementDataBase</title>
<!-- Node1 -->
<g id="Node000001" class="node">
<title>Node1</title>
<g id="a_Node000001"><a xlink:title="Base implementation of ElementData.">
<polygon fill="#999999" stroke="#666666" points="536,-102 389,-102 389,-72 536,-72 536,-102"/>
<text text-anchor="start" x="397" y="-90" font-family="Helvetica,sans-Serif" font-size="10.00">fiftyone.pipeline.core.data.</text>
<text text-anchor="middle" x="462.5" y="-79" font-family="Helvetica,sans-Serif" font-size="10.00">ElementDataBase</text>
</a>
</g>
</g>
<!-- Node5 -->
<g id="Node000005" class="node">
<title>Node5</title>
<g id="a_Node000005"><a xlink:href="classfiftyone_1_1pipeline_1_1engines_1_1data_1_1_aspect_data_base.html" target="_top" xlink:title="Abstract base class for AspectData which overrides the.">
<polygon fill="white" stroke="#666666" points="779.5,-174 615.5,-174 615.5,-144 779.5,-144 779.5,-174"/>
<text text-anchor="start" x="623.5" y="-162" font-family="Helvetica,sans-Serif" font-size="10.00">fiftyone.pipeline.engines.data.</text>
<text text-anchor="middle" x="697.5" y="-151" font-family="Helvetica,sans-Serif" font-size="10.00">AspectDataBase</text>
</a>
</g>
</g>
<!-- Node1&#45;&gt;Node5 -->
<g id="edge5_Node000001_Node000005" class="edge">
<title>Node1&#45;&gt;Node5</title>
<g id="a_edge5_Node000001_Node000005"><a xlink:title=" ">
<path fill="none" stroke="#63b8ff" d="M501.99,-106.58C522.37,-116.29 548.07,-127.51 572,-135 585.86,-139.34 600.86,-143.04 615.47,-146.14"/>
<polygon fill="#63b8ff" stroke="#63b8ff" points="503.26,-103.31 492.73,-102.1 500.21,-109.61 503.26,-103.31"/>
</a>
</g>
</g>
<!-- Node8 -->
<g id="Node000008" class="node">
<title>Node8</title>
<g id="a_Node000008"><a xlink:href="classfiftyone_1_1pipeline_1_1engines_1_1fiftyone_1_1data_1_1_set_headers_data.html" target="_top" xlink:title="Data containing the result of SetHeadersElement.">
<polygon fill="white" stroke="#666666" points="799.5,-126 595.5,-126 595.5,-96 799.5,-96 799.5,-126"/>
<text text-anchor="start" x="603.5" y="-114" font-family="Helvetica,sans-Serif" font-size="10.00">fiftyone.pipeline.engines.fiftyone.data.</text>
<text text-anchor="middle" x="697.5" y="-103" font-family="Helvetica,sans-Serif" font-size="10.00">SetHeadersData</text>
</a>
</g>
</g>
<!-- Node1&#45;&gt;Node8 -->
<g id="edge8_Node000001_Node000008" class="edge">
<title>Node1&#45;&gt;Node8</title>
<g id="a_edge8_Node000001_Node000008"><a xlink:title=" ">
<path fill="none" stroke="#63b8ff" d="M546.5,-95.55C562.29,-97.18 578.98,-98.89 595.26,-100.57"/>
<polygon fill="#63b8ff" stroke="#63b8ff" points="546.57,-92.04 536.26,-94.5 545.85,-99 546.57,-92.04"/>
</a>
</g>
</g>
<!-- Node9 -->
<g id="Node000009" class="node">
<title>Node9</title>
<g id="a_Node000009"><a xlink:href="classfiftyone_1_1pipeline_1_1javascriptbuilder_1_1flowelements_1_1_java_script_builder_data_internal.html" target="_top" xlink:title="[class]">
<polygon fill="white" stroke="#666666" points="823,-78 572,-78 572,-48 823,-48 823,-78"/>
<text text-anchor="start" x="580" y="-66" font-family="Helvetica,sans-Serif" font-size="10.00">fiftyone.pipeline.javascriptbuilder.flowelements.</text>
<text text-anchor="middle" x="697.5" y="-55" font-family="Helvetica,sans-Serif" font-size="10.00">JavaScriptBuilderDataInternal</text>
</a>
</g>
</g>
<!-- Node1&#45;&gt;Node9 -->
<g id="edge9_Node000001_Node000009" class="edge">
<title>Node1&#45;&gt;Node9</title>
<g id="a_edge9_Node000001_Node000009"><a xlink:title=" ">
<path fill="none" stroke="#63b8ff" d="M546.26,-78.48C554.56,-77.62 563.11,-76.74 571.73,-75.85"/>
<polygon fill="#63b8ff" stroke="#63b8ff" points="545.85,-75 536.26,-79.5 546.57,-81.96 545.85,-75"/>
</a>
</g>
</g>
<!-- Node10 -->
<g id="Node000010" class="node">
<title>Node10</title>
<g id="a_Node000010"><a xlink:href="classfiftyone_1_1pipeline_1_1jsonbuilder_1_1flowelements_1_1_json_builder_data_internal.html" target="_top" xlink:title="[class]">
<polygon fill="white" stroke="#666666" points="809.5,-30 585.5,-30 585.5,0 809.5,0 809.5,-30"/>
<text text-anchor="start" x="593.5" y="-18" font-family="Helvetica,sans-Serif" font-size="10.00">fiftyone.pipeline.jsonbuilder.flowelements.</text>
<text text-anchor="middle" x="697.5" y="-7" font-family="Helvetica,sans-Serif" font-size="10.00">JsonBuilderDataInternal</text>
</a>
</g>
</g>
<!-- Node1&#45;&gt;Node10 -->
<g id="edge10_Node000001_Node000010" class="edge">
<title>Node1&#45;&gt;Node10</title>
<g id="a_edge10_Node000001_Node000010"><a xlink:title=" ">
<path fill="none" stroke="#63b8ff" d="M501.99,-67.42C522.37,-57.71 548.07,-46.49 572,-39 582.71,-35.65 594.1,-32.67 605.46,-30.07"/>
<polygon fill="#63b8ff" stroke="#63b8ff" points="500.21,-64.39 492.73,-71.9 503.26,-70.69 500.21,-64.39"/>
</a>
</g>
</g>
<!-- Node2 -->
<g id="Node000002" class="node">
<title>Node2</title>
<g id="a_Node000002"><a xlink:href="classfiftyone_1_1pipeline_1_1core_1_1data_1_1_data_base.html" target="_top" xlink:title="This implementation of Data stores data values as key/value pairs in a Map where the key is a string ...">
<polygon fill="white" stroke="#666666" points="353,-126 206,-126 206,-96 353,-96 353,-126"/>
<text text-anchor="start" x="214" y="-114" font-family="Helvetica,sans-Serif" font-size="10.00">fiftyone.pipeline.core.data.</text>
<text text-anchor="middle" x="279.5" y="-103" font-family="Helvetica,sans-Serif" font-size="10.00">DataBase</text>
</a>
</g>
</g>
<!-- Node2&#45;&gt;Node1 -->
<g id="edge1_Node000001_Node000002" class="edge">
<title>Node2&#45;&gt;Node1</title>
<g id="a_edge1_Node000001_Node000002"><a xlink:title=" ">
<path fill="none" stroke="#63b8ff" d="M363.12,-100.05C371.72,-98.9 380.42,-97.75 388.91,-96.63"/>
<polygon fill="#63b8ff" stroke="#63b8ff" points="362.53,-96.59 353.08,-101.38 363.45,-103.53 362.53,-96.59"/>
</a>
</g>
</g>
<!-- Node3 -->
<g id="Node000003" class="node">
<title>Node3</title>
<g id="a_Node000003"><a xlink:href="interfacefiftyone_1_1pipeline_1_1core_1_1data_1_1_data.html" target="_top" xlink:title="Represents a collection of property values.">
<polygon fill="white" stroke="#666666" points="170,-96.5 0,-96.5 0,-77.5 170,-77.5 170,-96.5"/>
<text text-anchor="middle" x="85" y="-84.5" font-family="Helvetica,sans-Serif" font-size="10.00">fiftyone.pipeline.core.data.Data</text>
</a>
</g>
</g>
<!-- Node3&#45;&gt;Node2 -->
<g id="edge2_Node000002_Node000003" class="edge">
<title>Node3&#45;&gt;Node2</title>
<g id="a_edge2_Node000002_Node000003"><a xlink:title=" ">
<path fill="none" stroke="#63b8ff" d="M172.55,-97.79C183.73,-99.18 195.08,-100.6 206,-101.96"/>
<polygon fill="#63b8ff" stroke="#63b8ff" points="172.71,-94.28 162.36,-96.52 171.85,-101.23 172.71,-94.28"/>
</a>
</g>
</g>
<!-- Node4 -->
<g id="Node000004" class="node">
<title>Node4</title>
<g id="a_Node000004"><a xlink:href="interfacefiftyone_1_1pipeline_1_1core_1_1data_1_1_element_data.html" target="_top" xlink:title="Represents property values that have be determined by a specific FlowElement based on the supplied ev...">
<polygon fill="white" stroke="#666666" points="353,-78 206,-78 206,-48 353,-48 353,-78"/>
<text text-anchor="start" x="214" y="-66" font-family="Helvetica,sans-Serif" font-size="10.00">fiftyone.pipeline.core.data.</text>
<text text-anchor="middle" x="279.5" y="-55" font-family="Helvetica,sans-Serif" font-size="10.00">ElementData</text>
</a>
</g>
</g>
<!-- Node3&#45;&gt;Node4 -->
<g id="edge4_Node000004_Node000003" class="edge">
<title>Node3&#45;&gt;Node4</title>
<g id="a_edge4_Node000004_Node000003"><a xlink:title=" ">
<path fill="none" stroke="#63b8ff" d="M172.55,-76.21C183.73,-74.82 195.08,-73.4 206,-72.04"/>
<polygon fill="#63b8ff" stroke="#63b8ff" points="171.85,-72.77 162.36,-77.48 172.71,-79.72 171.85,-72.77"/>
</a>
</g>
</g>
<!-- Node4&#45;&gt;Node1 -->
<g id="edge3_Node000001_Node000004" class="edge">
<title>Node4&#45;&gt;Node1</title>
<g id="a_edge3_Node000001_Node000004"><a xlink:title=" ">
<path fill="none" stroke="#63b8ff" d="M363.12,-73.95C371.72,-75.1 380.42,-76.25 388.91,-77.37"/>
<polygon fill="#63b8ff" stroke="#63b8ff" points="363.45,-70.47 353.08,-72.62 362.53,-77.41 363.45,-70.47"/>
</a>
</g>
</g>
<!-- Node6 -->
<g id="Node000006" class="node">
<title>Node6</title>
<g id="a_Node000006"><a xlink:href="classfiftyone_1_1pipeline_1_1cloudrequestengine_1_1flowelements_1_1_cloud_request_data_internal.html" target="_top" xlink:title=" ">
<polygon fill="white" stroke="#bfbfbf" points="1125,-174 859,-174 859,-144 1125,-144 1125,-174"/>
<text text-anchor="start" x="867" y="-162" font-family="Helvetica,sans-Serif" font-size="10.00">fiftyone.pipeline.cloudrequestengine.flowelements.</text>
<text text-anchor="middle" x="992" y="-151" font-family="Helvetica,sans-Serif" font-size="10.00">CloudRequestDataInternal</text>
</a>
</g>
</g>
<!-- Node5&#45;&gt;Node6 -->
<g id="edge6_Node000005_Node000006" class="edge">
<title>Node5&#45;&gt;Node6</title>
<g id="a_edge6_Node000005_Node000006"><a xlink:title=" ">
<path fill="none" stroke="#63b8ff" d="M789.84,-159C811.75,-159 835.58,-159 858.92,-159"/>
<polygon fill="#63b8ff" stroke="#63b8ff" points="789.59,-155.5 779.59,-159 789.59,-162.5 789.59,-155.5"/>
</a>
</g>
</g>
<!-- Node7 -->
<g id="Node000007" class="node">
<title>Node7</title>
<g id="a_Node000007"><a xlink:href="classfiftyone_1_1pipeline_1_1cloudrequestengine_1_1data_1_1_cloud_request_data.html" target="_top" xlink:title=" ">
<polygon fill="white" stroke="#bfbfbf" points="1383,-174 1161,-174 1161,-144 1383,-144 1383,-174"/>
<text text-anchor="start" x="1169" y="-162" font-family="Helvetica,sans-Serif" font-size="10.00">fiftyone.pipeline.cloudrequestengine.data.</text>
<text text-anchor="middle" x="1272" y="-151" font-family="Helvetica,sans-Serif" font-size="10.00">CloudRequestData</text>
</a>
</g>
</g>
<!-- Node6&#45;&gt;Node7 -->
<g id="edge7_Node000006_Node000007" class="edge">
<title>Node6&#45;&gt;Node7</title>
<g id="a_edge7_Node000006_Node000007"><a xlink:title=" ">
<path fill="none" stroke="#63b8ff" d="M1135.14,-159C1143.7,-159 1152.25,-159 1160.66,-159"/>
<polygon fill="#63b8ff" stroke="#63b8ff" points="1135.08,-155.5 1125.08,-159 1135.08,-162.5 1135.08,-155.5"/>
</a>
</g>
</g>
</g>
</svg>
