<?xml version="1.0" encoding="UTF-8" standalone="no"?>
<!DOCTYPE svg PUBLIC "-//W3C//DTD SVG 1.1//EN"
 "http://www.w3.org/Graphics/SVG/1.1/DTD/svg11.dtd">
<!-- Generated by graphviz version 2.43.0 (0)
 -->
<!-- Title: fiftyone.pipeline.web.mvc.services.PipelineResultService.Default Pages: 1 -->
<svg width="820pt" height="95pt"
 viewBox="0.00 0.00 820.00 95.00" xmlns="http://www.w3.org/2000/svg" xmlns:xlink="http://www.w3.org/1999/xlink">
<g id="graph0" class="graph" transform="scale(1 1) rotate(0) translate(4 91)">
<title>fiftyone.pipeline.web.mvc.services.PipelineResultService.Default</title>
<!-- Node1 -->
<g id="Node000001" class="node">
<title>Node1</title>
<g id="a_Node000001"><a xlink:title=" ">
<polygon fill="#999999" stroke="#666666" points="812,-62 623,-62 623,-32 812,-32 812,-62"/>
<text text-anchor="start" x="631" y="-50" font-family="Helvetica,sans-Serif" font-size="10.00">fiftyone.pipeline.web.mvc.services.</text>
<text text-anchor="middle" x="717.5" y="-39" font-family="Helvetica,sans-Serif" font-size="10.00">PipelineResultService.Default</text>
</a>
</g>
</g>
<!-- Node2 -->
<g id="Node000002" class="node">
<title>Node2</title>
<g id="a_Node000002"><a xlink:href="classfiftyone_1_1pipeline_1_1web_1_1services_1_1_pipeline_result_service_core_1_1_default.html" target="_top" xlink:title="Default implementation of the PipelineResultServiceCore service.">
<polygon fill="white" stroke="#666666" points="583.5,-39 399.5,-39 399.5,-9 583.5,-9 583.5,-39"/>
<text text-anchor="start" x="407.5" y="-27" font-family="Helvetica,sans-Serif" font-size="10.00">fiftyone.pipeline.web.services.</text>
<text text-anchor="middle" x="491.5" y="-16" font-family="Helvetica,sans-Serif" font-size="10.00">PipelineResultServiceCore.Default</text>
</a>
</g>
</g>
<!-- Node2&#45;&gt;Node1 -->
<g id="edge1_Node000001_Node000002" class="edge">
<title>Node2&#45;&gt;Node1</title>
<g id="a_edge1_Node000001_Node000002"><a xlink:title=" ">
<path fill="none" stroke="#63b8ff" d="M593.7,-34.39C603.43,-35.39 613.27,-36.4 622.92,-37.39"/>
<polygon fill="#63b8ff" stroke="#63b8ff" points="593.91,-30.89 583.61,-33.35 593.2,-37.86 593.91,-30.89"/>
</a>
</g>
</g>
<!-- Node3 -->
<g id="Node000003" class="node">
<title>Node3</title>
<g id="a_Node000003"><a xlink:href="interfacefiftyone_1_1pipeline_1_1web_1_1services_1_1_pipeline_result_service_core.html" target="_top" xlink:title="Service used to process web requests through the Pipeline.">
<polygon fill="white" stroke="#666666" points="302,-82 137,-82 137,-52 302,-52 302,-82"/>
<text text-anchor="start" x="145" y="-70" font-family="Helvetica,sans-Serif" font-size="10.00">fiftyone.pipeline.web.services.</text>
<text text-anchor="middle" x="219.5" y="-59" font-family="Helvetica,sans-Serif" font-size="10.00">PipelineResultServiceCore</text>
</a>
</g>
</g>
<!-- Node3&#45;&gt;Node2 -->
<g id="edge2_Node000002_Node000003" class="edge">
<title>Node3&#45;&gt;Node2</title>
<g id="a_edge2_Node000002_Node000003"><a xlink:title=" ">
<path fill="none" stroke="#63b8ff" d="M312.42,-52.36C340.41,-47.9 371.17,-43 399.13,-38.55"/>
<polygon fill="#63b8ff" stroke="#63b8ff" points="311.57,-48.95 302.24,-53.98 312.67,-55.87 311.57,-48.95"/>
</a>
</g>
</g>
<!-- Node6 -->
<g id="Node000006" class="node">
<title>Node6</title>
<g id="a_Node000006"><a xlink:href="interfacefiftyone_1_1pipeline_1_1web_1_1mvc_1_1services_1_1_pipeline_result_service.html" target="_top" xlink:title="Spring framework service for the PipelineResultServiceCore.">
<polygon fill="white" stroke="#666666" points="586,-87 397,-87 397,-57 586,-57 586,-87"/>
<text text-anchor="start" x="405" y="-75" font-family="Helvetica,sans-Serif" font-size="10.00">fiftyone.pipeline.web.mvc.services.</text>
<text text-anchor="middle" x="491.5" y="-64" font-family="Helvetica,sans-Serif" font-size="10.00">PipelineResultService</text>
</a>
</g>
</g>
<!-- Node3&#45;&gt;Node6 -->
<g id="edge6_Node000006_Node000003" class="edge">
<title>Node3&#45;&gt;Node6</title>
<g id="a_edge6_Node000006_Node000003"><a xlink:title=" ">
<path fill="none" stroke="#63b8ff" d="M312.52,-68.7C339.69,-69.21 369.45,-69.76 396.73,-70.26"/>
<polygon fill="#63b8ff" stroke="#63b8ff" points="312.3,-65.2 302.24,-68.51 312.18,-72.2 312.3,-65.2"/>
</a>
</g>
</g>
<!-- Node4 -->
<g id="Node000004" class="node">
<title>Node4</title>
<g id="a_Node000004"><a xlink:href="interfacefiftyone_1_1pipeline_1_1core_1_1flowelements_1_1_pipeline.html" target="_top" xlink:title="The Pipeline groups together FlowElements and is a factory for FlowData which serves as the evidence,...">
<polygon fill="white" stroke="#666666" points="315,-30 124,-30 124,0 315,0 315,-30"/>
<text text-anchor="start" x="132" y="-18" font-family="Helvetica,sans-Serif" font-size="10.00">fiftyone.pipeline.core.flowelements.</text>
<text text-anchor="middle" x="219.5" y="-7" font-family="Helvetica,sans-Serif" font-size="10.00">Pipeline</text>
</a>
</g>
</g>
<!-- Node4&#45;&gt;Node2 -->
<g id="edge3_Node000002_Node000004" class="edge">
<title>Node4&#45;&gt;Node2</title>
<g id="a_edge3_Node000002_Node000004"><a xlink:title=" ">
<path fill="none" stroke="#9a32cd" stroke-dasharray="5,2" d="M325.65,-14.7C343.46,-14.92 361.76,-15.33 379,-16 385.59,-16.26 392.4,-16.59 399.25,-16.97"/>
<polygon fill="#9a32cd" stroke="#9a32cd" points="325.27,-11.2 315.23,-14.59 325.19,-18.2 325.27,-11.2"/>
</a>
</g>
<text text-anchor="start" x="336" y="-21.5" font-family="Helvetica,sans-Serif" font-size="10.00" fill="grey">pipeline</text>
</g>
<!-- Node5 -->
<g id="Node000005" class="node">
<title>Node5</title>
<g id="a_Node000005"><a xlink:title=" ">
<polygon fill="white" stroke="#bfbfbf" points="87,-24.5 0,-24.5 0,-5.5 87,-5.5 87,-24.5"/>
<text text-anchor="middle" x="43.5" y="-12.5" font-family="Helvetica,sans-Serif" font-size="10.00">AutoCloseable</text>
</a>
</g>
</g>
<!-- Node5&#45;&gt;Node4 -->
<g id="edge4_Node000004_Node000005" class="edge">
<title>Node5&#45;&gt;Node4</title>
<g id="a_edge4_Node000004_Node000005"><a xlink:title=" ">
<path fill="none" stroke="#63b8ff" d="M97.15,-15C105.65,-15 114.68,-15 123.81,-15"/>
<polygon fill="#63b8ff" stroke="#63b8ff" points="97.07,-11.5 87.07,-15 97.07,-18.5 97.07,-11.5"/>
</a>
</g>
</g>
<!-- Node6&#45;&gt;Node1 -->
<g id="edge5_Node000001_Node000006" class="edge">
<title>Node6&#45;&gt;Node1</title>
<g id="a_edge5_Node000001_Node000006"><a xlink:title=" ">
<path fill="none" stroke="#63b8ff" d="M596.18,-60.43C605.07,-59.44 614.02,-58.44 622.82,-57.46"/>
<polygon fill="#63b8ff" stroke="#63b8ff" points="595.75,-56.95 586.2,-61.54 596.52,-63.91 595.75,-56.95"/>
</a>
</g>
</g>
</g>
</svg>
