<?xml version="1.0" encoding="UTF-8" standalone="no"?>
<!DOCTYPE svg PUBLIC "-//W3C//DTD SVG 1.1//EN"
 "http://www.w3.org/Graphics/SVG/1.1/DTD/svg11.dtd">
<!-- Generated by graphviz version 2.43.0 (0)
 -->
<!-- Title: fiftyone.pipeline.engines.fiftyone.flowelements.FiftyOneOnPremiseAspectEngineBuilderBase&lt; TBuilder extends FiftyOneOnPremiseAspectEngineBuilderBase&lt; TBuilder, TEngine, TEngine extends FiftyOneAspectEngine &gt; Pages: 1 -->
<svg width="3258pt" height="390pt"
 viewBox="0.00 0.00 3258.00 390.00" xmlns="http://www.w3.org/2000/svg" xmlns:xlink="http://www.w3.org/1999/xlink">
<g id="graph0" class="graph" transform="scale(1 1) rotate(0) translate(4 386)">
<title>fiftyone.pipeline.engines.fiftyone.flowelements.FiftyOneOnPremiseAspectEngineBuilderBase&lt; TBuilder extends FiftyOneOnPremiseAspectEngineBuilderBase&lt; TBuilder, TEngine, TEngine extends FiftyOneAspectEngine &gt;</title>
<!-- Node1 -->
<g id="Node000001" class="node">
<title>Node1</title>
<g id="a_Node000001"><a xlink:title="Abstract base class that exposes the common options that all 51Degrees on&#45;premise engine builders usi...">
<polygon fill="#999999" stroke="#666666" points="3250,-178.5 2905,-178.5 2905,-126.5 3250,-126.5 3250,-178.5"/>
<text text-anchor="start" x="2913" y="-166.5" font-family="Helvetica,sans-Serif" font-size="10.00">fiftyone.pipeline.engines.fiftyone.flowelements.</text>
<text text-anchor="start" x="2913" y="-155.5" font-family="Helvetica,sans-Serif" font-size="10.00">FiftyOneOnPremiseAspectEngineBuilderBase</text>
<text text-anchor="start" x="2913" y="-144.5" font-family="Helvetica,sans-Serif" font-size="10.00">&lt; TBuilder extends FiftyOneOnPremiseAspectEngineBuilder</text>
<text text-anchor="middle" x="3077.5" y="-133.5" font-family="Helvetica,sans-Serif" font-size="10.00">Base&lt; TBuilder, TEngine, TEngine extends FiftyOneAspectEngine &gt;</text>
</a>
</g>
</g>
<!-- Node2 -->
<g id="Node000002" class="node">
<title>Node2</title>
<g id="a_Node000002"><a xlink:href="classfiftyone_1_1pipeline_1_1engines_1_1flowelements_1_1_single_file_aspect_engine_builder_base.html" target="_top" xlink:title="Abstract base class that exposes the common options that all on&#45;premise engine builders using a singl...">
<polygon fill="white" stroke="#666666" points="2868,-242 2601,-242 2601,-179 2868,-179 2868,-242"/>
<text text-anchor="start" x="2609" y="-230" font-family="Helvetica,sans-Serif" font-size="10.00">fiftyone.pipeline.engines.flowelements.</text>
<text text-anchor="start" x="2609" y="-219" font-family="Helvetica,sans-Serif" font-size="10.00">SingleFileAspectEngineBuilderBase</text>
<text text-anchor="start" x="2609" y="-208" font-family="Helvetica,sans-Serif" font-size="10.00">&lt; TBuilder extends OnPremiseAspectEngineBuilder</text>
<text text-anchor="start" x="2609" y="-197" font-family="Helvetica,sans-Serif" font-size="10.00">Base&lt; TBuilder, TEngine, TEngine extends</text>
<text text-anchor="middle" x="2734.5" y="-186" font-family="Helvetica,sans-Serif" font-size="10.00"> OnPremiseAspectEngine &gt;</text>
</a>
</g>
</g>
<!-- Node2&#45;&gt;Node1 -->
<g id="edge1_Node000001_Node000002" class="edge">
<title>Node2&#45;&gt;Node1</title>
<g id="a_edge1_Node000001_Node000002"><a xlink:title=" ">
<path fill="none" stroke="#63b8ff" d="M2878.52,-186.17C2893.34,-183.65 2908.44,-181.08 2923.37,-178.55"/>
<polygon fill="#63b8ff" stroke="#63b8ff" points="2877.59,-182.78 2868.32,-187.91 2878.76,-189.68 2877.59,-182.78"/>
</a>
</g>
</g>
<!-- Node3 -->
<g id="Node000003" class="node">
<title>Node3</title>
<g id="a_Node000003"><a xlink:href="classfiftyone_1_1pipeline_1_1engines_1_1flowelements_1_1_on_premise_aspect_engine_builder_base.html" target="_top" xlink:title=" ">
<polygon fill="white" stroke="#666666" points="2519,-285 2310,-285 2310,-244 2519,-244 2519,-285"/>
<text text-anchor="start" x="2318" y="-273" font-family="Helvetica,sans-Serif" font-size="10.00">fiftyone.pipeline.engines.flowelements.</text>
<text text-anchor="start" x="2318" y="-262" font-family="Helvetica,sans-Serif" font-size="10.00">OnPremiseAspectEngineBuilderBase</text>
<text text-anchor="middle" x="2414.5" y="-251" font-family="Helvetica,sans-Serif" font-size="10.00">&lt; TBuilder, TEngine &gt;</text>
</a>
</g>
</g>
<!-- Node3&#45;&gt;Node2 -->
<g id="edge2_Node000002_Node000003" class="edge">
<title>Node3&#45;&gt;Node2</title>
<g id="a_edge2_Node000002_Node000003"><a xlink:title=" ">
<path fill="none" stroke="#63b8ff" d="M2529.07,-245.21C2552.36,-241.26 2577.07,-237.06 2600.96,-233.01"/>
<polygon fill="#63b8ff" stroke="#63b8ff" points="2528.46,-241.77 2519.19,-246.89 2529.63,-248.67 2528.46,-241.77"/>
</a>
</g>
</g>
<!-- Node4 -->
<g id="Node000004" class="node">
<title>Node4</title>
<g id="a_Node000004"><a xlink:href="classfiftyone_1_1pipeline_1_1engines_1_1flowelements_1_1_on_premise_aspect_engine_builder_base.html" target="_top" xlink:title="Abstract base class that exposes the common options that all 51Degrees on&#45;premise engine builders sho...">
<polygon fill="white" stroke="#666666" points="2148,-302 1881,-302 1881,-239 2148,-239 2148,-302"/>
<text text-anchor="start" x="1889" y="-290" font-family="Helvetica,sans-Serif" font-size="10.00">fiftyone.pipeline.engines.flowelements.</text>
<text text-anchor="start" x="1889" y="-279" font-family="Helvetica,sans-Serif" font-size="10.00">OnPremiseAspectEngineBuilderBase</text>
<text text-anchor="start" x="1889" y="-268" font-family="Helvetica,sans-Serif" font-size="10.00">&lt; TBuilder extends OnPremiseAspectEngineBuilder</text>
<text text-anchor="start" x="1889" y="-257" font-family="Helvetica,sans-Serif" font-size="10.00">Base&lt; TBuilder, TEngine, TEngine extends</text>
<text text-anchor="middle" x="2014.5" y="-246" font-family="Helvetica,sans-Serif" font-size="10.00"> OnPremiseAspectEngine &gt;</text>
</a>
</g>
</g>
<!-- Node4&#45;&gt;Node3 -->
<g id="edge3_Node000003_Node000004" class="edge">
<title>Node4&#45;&gt;Node3</title>
<g id="a_edge3_Node000003_Node000004"><a xlink:title=" ">
<path fill="none" stroke="orange" stroke-dasharray="5,2" d="M2158.3,-268.35C2208.37,-267.59 2263.61,-266.76 2309.86,-266.06"/>
<polygon fill="orange" stroke="orange" points="2157.97,-264.85 2148.03,-268.5 2158.08,-271.85 2157.97,-264.85"/>
</a>
</g>
<text text-anchor="start" x="2180.5" y="-273" font-family="Helvetica,sans-Serif" font-size="10.00" fill="grey">&lt; TBuilder, TEngine &gt;</text>
</g>
<!-- Node5 -->
<g id="Node000005" class="node">
<title>Node5</title>
<g id="a_Node000005"><a xlink:href="classfiftyone_1_1pipeline_1_1engines_1_1flowelements_1_1_aspect_engine_builder_base.html" target="_top" xlink:title=" ">
<polygon fill="white" stroke="#666666" points="1768.5,-325 1559.5,-325 1559.5,-284 1768.5,-284 1768.5,-325"/>
<text text-anchor="start" x="1567.5" y="-313" font-family="Helvetica,sans-Serif" font-size="10.00">fiftyone.pipeline.engines.flowelements.</text>
<text text-anchor="start" x="1567.5" y="-302" font-family="Helvetica,sans-Serif" font-size="10.00">AspectEngineBuilderBase&lt; TBuilder,</text>
<text text-anchor="middle" x="1664" y="-291" font-family="Helvetica,sans-Serif" font-size="10.00"> TEngine &gt;</text>
</a>
</g>
</g>
<!-- Node5&#45;&gt;Node4 -->
<g id="edge4_Node000004_Node000005" class="edge">
<title>Node5&#45;&gt;Node4</title>
<g id="a_edge4_Node000004_Node000005"><a xlink:title=" ">
<path fill="none" stroke="#63b8ff" d="M1778.64,-293.41C1811.28,-290.23 1847.16,-286.73 1880.84,-283.44"/>
<polygon fill="#63b8ff" stroke="#63b8ff" points="1778.23,-289.94 1768.62,-294.39 1778.91,-296.9 1778.23,-289.94"/>
</a>
</g>
</g>
<!-- Node6 -->
<g id="Node000006" class="node">
<title>Node6</title>
<g id="a_Node000006"><a xlink:href="classfiftyone_1_1pipeline_1_1engines_1_1flowelements_1_1_aspect_engine_builder_base.html" target="_top" xlink:title="Abstract base class that exposes the common options that all 51Degrees engine builders should make us...">
<polygon fill="white" stroke="#666666" points="1389,-366 1180,-366 1180,-303 1389,-303 1389,-366"/>
<text text-anchor="start" x="1188" y="-354" font-family="Helvetica,sans-Serif" font-size="10.00">fiftyone.pipeline.engines.flowelements.</text>
<text text-anchor="start" x="1188" y="-343" font-family="Helvetica,sans-Serif" font-size="10.00">AspectEngineBuilderBase&lt; TBuilder</text>
<text text-anchor="start" x="1188" y="-332" font-family="Helvetica,sans-Serif" font-size="10.00"> extends AspectEngineBuilderBase</text>
<text text-anchor="start" x="1188" y="-321" font-family="Helvetica,sans-Serif" font-size="10.00">&lt; TBuilder, TEngine, TEngine extends</text>
<text text-anchor="middle" x="1284.5" y="-310" font-family="Helvetica,sans-Serif" font-size="10.00"> AspectEngine &gt;</text>
</a>
</g>
</g>
<!-- Node6&#45;&gt;Node5 -->
<g id="edge5_Node000005_Node000006" class="edge">
<title>Node6&#45;&gt;Node5</title>
<g id="a_edge5_Node000005_Node000006"><a xlink:title=" ">
<path fill="none" stroke="orange" stroke-dasharray="5,2" d="M1399.2,-325.46C1450.07,-321.42 1509.62,-316.69 1559.25,-312.74"/>
<polygon fill="orange" stroke="orange" points="1398.84,-321.98 1389.15,-326.26 1399.4,-328.96 1398.84,-321.98"/>
</a>
</g>
<text text-anchor="start" x="1410.5" y="-330" font-family="Helvetica,sans-Serif" font-size="10.00" fill="grey">&lt; TBuilder, TEngine &gt;</text>
</g>
<!-- Node7 -->
<g id="Node000007" class="node">
<title>Node7</title>
<g id="a_Node000007"><a xlink:href="interfacefiftyone_1_1pipeline_1_1engines_1_1flowelements_1_1_aspect_engine.html" target="_top" xlink:title="AspectEngines are a subset of FlowElements.">
<polygon fill="white" stroke="#666666" points="1032,-355 787,-355 787,-314 1032,-314 1032,-355"/>
<text text-anchor="start" x="795" y="-343" font-family="Helvetica,sans-Serif" font-size="10.00">fiftyone.pipeline.engines.flowelements.</text>
<text text-anchor="start" x="795" y="-332" font-family="Helvetica,sans-Serif" font-size="10.00">AspectEngine&lt; TData extends AspectData,</text>
<text text-anchor="middle" x="909.5" y="-321" font-family="Helvetica,sans-Serif" font-size="10.00"> TProperty extends AspectPropertyMetaData &gt;</text>
</a>
</g>
</g>
<!-- Node7&#45;&gt;Node6 -->
<g id="edge6_Node000006_Node000007" class="edge">
<title>Node7&#45;&gt;Node6</title>
<g id="a_edge6_Node000006_Node000007"><a xlink:title=" ">
<path fill="none" stroke="orange" stroke-dasharray="5,2" d="M1042.28,-334.5C1087.43,-334.5 1137.27,-334.5 1179.87,-334.5"/>
<polygon fill="orange" stroke="orange" points="1042.12,-331 1032.12,-334.5 1042.12,-338 1042.12,-331"/>
</a>
</g>
<text text-anchor="start" x="1086" y="-340" font-family="Helvetica,sans-Serif" font-size="10.00" fill="grey">TEngine</text>
</g>
<!-- Node16 -->
<g id="Node000016" class="node">
<title>Node16</title>
<g id="a_Node000016"><a xlink:href="interfacefiftyone_1_1pipeline_1_1engines_1_1flowelements_1_1_aspect_engine.html" target="_top" xlink:title=" ">
<polygon fill="white" stroke="#666666" points="1389,-208.5 1180,-208.5 1180,-178.5 1389,-178.5 1389,-208.5"/>
<text text-anchor="start" x="1188" y="-196.5" font-family="Helvetica,sans-Serif" font-size="10.00">fiftyone.pipeline.engines.flowelements.</text>
<text text-anchor="middle" x="1284.5" y="-185.5" font-family="Helvetica,sans-Serif" font-size="10.00">AspectEngine&lt; TData, TProperty &gt;</text>
</a>
</g>
</g>
<!-- Node7&#45;&gt;Node16 -->
<g id="edge18_Node000016_Node000007" class="edge">
<title>Node7&#45;&gt;Node16</title>
<g id="a_edge18_Node000016_Node000007"><a xlink:title=" ">
<path fill="none" stroke="orange" stroke-dasharray="5,2" d="M929.07,-305.47C952.55,-271.75 996.43,-217.9 1050,-195.5 1093.95,-177.12 1146.74,-175.19 1191.01,-178.49"/>
<polygon fill="orange" stroke="orange" points="926.01,-303.75 923.27,-313.99 931.79,-307.69 926.01,-303.75"/>
</a>
</g>
<text text-anchor="start" x="1053" y="-201" font-family="Helvetica,sans-Serif" font-size="10.00" fill="grey">&lt; TData, TProperty &gt;</text>
</g>
<!-- Node8 -->
<g id="Node000008" class="node">
<title>Node8</title>
<g id="a_Node000008"><a xlink:href="interfacefiftyone_1_1pipeline_1_1core_1_1flowelements_1_1_flow_element.html" target="_top" xlink:title="A component that processes a FlowData (by examining its evidence, or by examining data processed by o...">
<polygon fill="white" stroke="#666666" points="697,-377 444,-377 444,-336 697,-336 697,-377"/>
<text text-anchor="start" x="452" y="-365" font-family="Helvetica,sans-Serif" font-size="10.00">fiftyone.pipeline.core.flowelements.</text>
<text text-anchor="start" x="452" y="-354" font-family="Helvetica,sans-Serif" font-size="10.00">FlowElement&lt; TData extends ElementData,</text>
<text text-anchor="middle" x="570.5" y="-343" font-family="Helvetica,sans-Serif" font-size="10.00"> TProperty extends ElementPropertyMetaData &gt;</text>
</a>
</g>
</g>
<!-- Node8&#45;&gt;Node7 -->
<g id="edge7_Node000007_Node000008" class="edge">
<title>Node8&#45;&gt;Node7</title>
<g id="a_edge7_Node000007_Node000008"><a xlink:title=" ">
<path fill="none" stroke="#63b8ff" d="M707.15,-361.28C727.89,-361.03 749.03,-360.2 769,-358.5 779.04,-357.64 789.44,-356.44 799.83,-355.04"/>
<polygon fill="#63b8ff" stroke="#63b8ff" points="706.98,-357.78 697.01,-361.36 707.04,-364.78 706.98,-357.78"/>
</a>
</g>
</g>
<!-- Node9 -->
<g id="Node000009" class="node">
<title>Node9</title>
<g id="a_Node000009"><a xlink:title=" ">
<polygon fill="white" stroke="#bfbfbf" points="324,-382 237,-382 237,-363 324,-363 324,-382"/>
<text text-anchor="middle" x="280.5" y="-370" font-family="Helvetica,sans-Serif" font-size="10.00">AutoCloseable</text>
</a>
</g>
</g>
<!-- Node9&#45;&gt;Node8 -->
<g id="edge8_Node000008_Node000009" class="edge">
<title>Node9&#45;&gt;Node8</title>
<g id="a_edge8_Node000008_Node000009"><a xlink:title=" ">
<path fill="none" stroke="#63b8ff" d="M334.37,-369.56C365.15,-367.85 405.37,-365.62 443.82,-363.48"/>
<polygon fill="#63b8ff" stroke="#63b8ff" points="334.1,-366.07 324.31,-370.12 334.48,-373.06 334.1,-366.07"/>
</a>
</g>
</g>
<!-- Node10 -->
<g id="Node000010" class="node">
<title>Node10</title>
<g id="a_Node000010"><a xlink:href="interfacefiftyone_1_1pipeline_1_1core_1_1data_1_1_element_data.html" target="_top" xlink:title="Represents property values that have be determined by a specific FlowElement based on the supplied ev...">
<polygon fill="white" stroke="#666666" points="354,-334.5 207,-334.5 207,-304.5 354,-304.5 354,-334.5"/>
<text text-anchor="start" x="215" y="-322.5" font-family="Helvetica,sans-Serif" font-size="10.00">fiftyone.pipeline.core.data.</text>
<text text-anchor="middle" x="280.5" y="-311.5" font-family="Helvetica,sans-Serif" font-size="10.00">ElementData</text>
</a>
</g>
</g>
<!-- Node10&#45;&gt;Node8 -->
<g id="edge9_Node000008_Node000010" class="edge">
<title>Node10&#45;&gt;Node8</title>
<g id="a_edge9_Node000008_Node000010"><a xlink:title=" ">
<path fill="none" stroke="orange" stroke-dasharray="5,2" d="M364.26,-330.13C389.11,-333.32 416.94,-336.9 443.89,-340.36"/>
<polygon fill="orange" stroke="orange" points="364.54,-326.64 354.17,-328.84 363.65,-333.58 364.54,-326.64"/>
</a>
</g>
<text text-anchor="start" x="384" y="-343" font-family="Helvetica,sans-Serif" font-size="10.00" fill="grey">TData</text>
</g>
<!-- Node13 -->
<g id="Node000013" class="node">
<title>Node13</title>
<g id="a_Node000013"><a xlink:href="interfacefiftyone_1_1pipeline_1_1engines_1_1data_1_1_aspect_data.html" target="_top" xlink:title="Represents a specialized ElementData instance that is generated by an AspectEngine.">
<polygon fill="white" stroke="#666666" points="652.5,-282.5 488.5,-282.5 488.5,-252.5 652.5,-252.5 652.5,-282.5"/>
<text text-anchor="start" x="496.5" y="-270.5" font-family="Helvetica,sans-Serif" font-size="10.00">fiftyone.pipeline.engines.data.</text>
<text text-anchor="middle" x="570.5" y="-259.5" font-family="Helvetica,sans-Serif" font-size="10.00">AspectData</text>
</a>
</g>
</g>
<!-- Node10&#45;&gt;Node13 -->
<g id="edge13_Node000013_Node000010" class="edge">
<title>Node10&#45;&gt;Node13</title>
<g id="a_edge13_Node000013_Node000010"><a xlink:title=" ">
<path fill="none" stroke="#63b8ff" d="M319.84,-300.13C335.6,-293.04 354.29,-285.72 372,-281.5 409.62,-272.53 452.31,-268.74 488.36,-267.31"/>
<polygon fill="#63b8ff" stroke="#63b8ff" points="318.03,-297.11 310.43,-304.49 320.98,-303.46 318.03,-297.11"/>
</a>
</g>
</g>
<!-- Node11 -->
<g id="Node000011" class="node">
<title>Node11</title>
<g id="a_Node000011"><a xlink:href="interfacefiftyone_1_1pipeline_1_1core_1_1data_1_1_data.html" target="_top" xlink:title="Represents a collection of property values.">
<polygon fill="white" stroke="#666666" points="170,-329 0,-329 0,-310 170,-310 170,-329"/>
<text text-anchor="middle" x="85" y="-317" font-family="Helvetica,sans-Serif" font-size="10.00">fiftyone.pipeline.core.data.Data</text>
</a>
</g>
</g>
<!-- Node11&#45;&gt;Node10 -->
<g id="edge10_Node000010_Node000011" class="edge">
<title>Node11&#45;&gt;Node10</title>
<g id="a_edge10_Node000010_Node000011"><a xlink:title=" ">
<path fill="none" stroke="#63b8ff" d="M180.11,-319.5C189.07,-319.5 198.06,-319.5 206.77,-319.5"/>
<polygon fill="#63b8ff" stroke="#63b8ff" points="180.03,-316 170.03,-319.5 180.03,-323 180.03,-316"/>
</a>
</g>
</g>
<!-- Node12 -->
<g id="Node000012" class="node">
<title>Node12</title>
<g id="a_Node000012"><a xlink:href="interfacefiftyone_1_1pipeline_1_1core_1_1data_1_1_element_property_meta_data.html" target="_top" xlink:title="Defines details of a property that can be returned by a FlowElement.">
<polygon fill="white" stroke="#666666" points="354,-267.5 207,-267.5 207,-237.5 354,-237.5 354,-267.5"/>
<text text-anchor="start" x="215" y="-255.5" font-family="Helvetica,sans-Serif" font-size="10.00">fiftyone.pipeline.core.data.</text>
<text text-anchor="middle" x="280.5" y="-244.5" font-family="Helvetica,sans-Serif" font-size="10.00">ElementPropertyMetaData</text>
</a>
</g>
</g>
<!-- Node12&#45;&gt;Node8 -->
<g id="edge11_Node000008_Node000012" class="edge">
<title>Node12&#45;&gt;Node8</title>
<g id="a_edge11_Node000008_Node000012"><a xlink:title=" ">
<path fill="none" stroke="orange" stroke-dasharray="5,2" d="M332.48,-270.91C382.96,-289.14 460.1,-316.99 512.56,-335.94"/>
<polygon fill="orange" stroke="orange" points="333.66,-267.62 323.07,-267.51 331.29,-274.2 333.66,-267.62"/>
</a>
</g>
<text text-anchor="start" x="375" y="-310" font-family="Helvetica,sans-Serif" font-size="10.00" fill="grey">TProperty</text>
</g>
<!-- Node14 -->
<g id="Node000014" class="node">
<title>Node14</title>
<g id="a_Node000014"><a xlink:href="interfacefiftyone_1_1pipeline_1_1engines_1_1data_1_1_aspect_property_meta_data.html" target="_top" xlink:title="Holds details about a property that can be returned by an AspectEngine.">
<polygon fill="white" stroke="#666666" points="652.5,-234.5 488.5,-234.5 488.5,-204.5 652.5,-204.5 652.5,-234.5"/>
<text text-anchor="start" x="496.5" y="-222.5" font-family="Helvetica,sans-Serif" font-size="10.00">fiftyone.pipeline.engines.data.</text>
<text text-anchor="middle" x="570.5" y="-211.5" font-family="Helvetica,sans-Serif" font-size="10.00">AspectPropertyMetaData</text>
</a>
</g>
</g>
<!-- Node12&#45;&gt;Node14 -->
<g id="edge15_Node000014_Node000012" class="edge">
<title>Node12&#45;&gt;Node14</title>
<g id="a_edge15_Node000014_Node000012"><a xlink:title=" ">
<path fill="none" stroke="#63b8ff" d="M364.44,-243C403.42,-238.53 449.73,-233.22 488.47,-228.78"/>
<polygon fill="#63b8ff" stroke="#63b8ff" points="363.71,-239.56 354.17,-244.17 364.51,-246.51 363.71,-239.56"/>
</a>
</g>
</g>
<!-- Node13&#45;&gt;Node7 -->
<g id="edge12_Node000007_Node000013" class="edge">
<title>Node13&#45;&gt;Node7</title>
<g id="a_edge12_Node000007_Node000013"><a xlink:title=" ">
<path fill="none" stroke="orange" stroke-dasharray="5,2" d="M615.34,-286.42C643.32,-297.66 680.66,-311.11 715,-318.5 737.99,-323.45 762.81,-326.89 786.77,-329.27"/>
<polygon fill="orange" stroke="orange" points="616.44,-283.09 605.86,-282.56 613.79,-289.57 616.44,-283.09"/>
</a>
</g>
<text text-anchor="start" x="727" y="-332" font-family="Helvetica,sans-Serif" font-size="10.00" fill="grey">TData</text>
</g>
<!-- Node15 -->
<g id="Node000015" class="node">
<title>Node15</title>
<g id="a_Node000015"><a xlink:href="interfacefiftyone_1_1pipeline_1_1engines_1_1flowelements_1_1_on_premise_aspect_engine.html" target="_top" xlink:title="Aspect engine interface which processes data internally using a data file and populates the results.">
<polygon fill="white" stroke="#666666" points="1788,-262.5 1540,-262.5 1540,-210.5 1788,-210.5 1788,-262.5"/>
<text text-anchor="start" x="1548" y="-250.5" font-family="Helvetica,sans-Serif" font-size="10.00">fiftyone.pipeline.engines.flowelements.</text>
<text text-anchor="start" x="1548" y="-239.5" font-family="Helvetica,sans-Serif" font-size="10.00">OnPremiseAspectEngine&lt; TData extends</text>
<text text-anchor="start" x="1548" y="-228.5" font-family="Helvetica,sans-Serif" font-size="10.00"> AspectData, TProperty extends AspectProperty</text>
<text text-anchor="middle" x="1664" y="-217.5" font-family="Helvetica,sans-Serif" font-size="10.00">MetaData &gt;</text>
</a>
</g>
</g>
<!-- Node13&#45;&gt;Node15 -->
<g id="edge19_Node000015_Node000013" class="edge">
<title>Node13&#45;&gt;Node15</title>
<g id="a_edge19_Node000015_Node000013"><a xlink:title=" ">
<path fill="none" stroke="orange" stroke-dasharray="5,2" d="M662.73,-266.96C832.12,-265.63 1206.72,-261.15 1522,-246.5 1527.88,-246.23 1533.9,-245.92 1539.98,-245.58"/>
<polygon fill="orange" stroke="orange" points="662.58,-263.46 652.6,-267.04 662.63,-270.46 662.58,-263.46"/>
</a>
</g>
<text text-anchor="start" x="1091" y="-266" font-family="Helvetica,sans-Serif" font-size="10.00" fill="grey">TData</text>
</g>
<!-- Node17 -->
<g id="Node000017" class="node">
<title>Node17</title>
<g id="a_Node000017"><a xlink:href="interfacefiftyone_1_1pipeline_1_1engines_1_1fiftyone_1_1flowelements_1_1_fifty_one_aspect_engine.html" target="_top" xlink:title="51Degrees specific Engine interface.">
<polygon fill="white" stroke="#666666" points="2159,-137.5 1870,-137.5 1870,-85.5 2159,-85.5 2159,-137.5"/>
<text text-anchor="start" x="1878" y="-125.5" font-family="Helvetica,sans-Serif" font-size="10.00">fiftyone.pipeline.engines.fiftyone.flowelements.</text>
<text text-anchor="start" x="1878" y="-114.5" font-family="Helvetica,sans-Serif" font-size="10.00">FiftyOneAspectEngine&lt; TData extends</text>
<text text-anchor="start" x="1878" y="-103.5" font-family="Helvetica,sans-Serif" font-size="10.00"> AspectData, TProperty extends FiftyOneAspectProperty</text>
<text text-anchor="middle" x="2014.5" y="-92.5" font-family="Helvetica,sans-Serif" font-size="10.00">MetaData &gt;</text>
</a>
</g>
</g>
<!-- Node13&#45;&gt;Node17 -->
<g id="edge27_Node000017_Node000013" class="edge">
<title>Node13&#45;&gt;Node17</title>
<g id="a_edge27_Node000017_Node000013"><a xlink:title=" ">
<path fill="none" stroke="orange" stroke-dasharray="5,2" d="M660.98,-250.5C673.09,-248.16 685.35,-245.79 697,-243.5 854.04,-212.69 892.43,-200.45 1050,-172.5 1373.58,-115.1 1459.85,-144.43 1788,-126.5 1814.44,-125.06 1842.62,-123.33 1869.78,-121.57"/>
<polygon fill="orange" stroke="orange" points="660.01,-247.12 650.86,-252.44 661.34,-253.99 660.01,-247.12"/>
</a>
</g>
<text text-anchor="start" x="1269.5" y="-157" font-family="Helvetica,sans-Serif" font-size="10.00" fill="grey">TData</text>
</g>
<!-- Node18 -->
<g id="Node000018" class="node">
<title>Node18</title>
<g id="a_Node000018"><a xlink:href="interfacefiftyone_1_1pipeline_1_1engines_1_1flowelements_1_1_on_premise_aspect_engine.html" target="_top" xlink:title="Aspect engine interface which processes data internally using a data file and populates the results.">
<polygon fill="white" stroke="#666666" points="1788,-117.5 1540,-117.5 1540,-65.5 1788,-65.5 1788,-117.5"/>
<text text-anchor="start" x="1548" y="-105.5" font-family="Helvetica,sans-Serif" font-size="10.00">fiftyone.pipeline.engines.flowelements.</text>
<text text-anchor="start" x="1548" y="-94.5" font-family="Helvetica,sans-Serif" font-size="10.00">OnPremiseAspectEngine&lt; TData extends</text>
<text text-anchor="start" x="1548" y="-83.5" font-family="Helvetica,sans-Serif" font-size="10.00"> AspectData, TProperty extends AspectProperty</text>
<text text-anchor="middle" x="1664" y="-72.5" font-family="Helvetica,sans-Serif" font-size="10.00">MetaData &gt;</text>
</a>
</g>
</g>
<!-- Node13&#45;&gt;Node18 -->
<g id="edge25_Node000018_Node000013" class="edge">
<title>Node13&#45;&gt;Node18</title>
<g id="a_edge25_Node000018_Node000013"><a xlink:title=" ">
<path fill="none" stroke="orange" stroke-dasharray="5,2" d="M662.66,-263.85C675.55,-259.67 687.59,-253.22 697,-243.5 732.68,-206.65 676.86,-163.8 715,-129.5 774.9,-75.63 1296.83,-81.9 1539.68,-87.86"/>
<polygon fill="orange" stroke="orange" points="661.36,-260.58 652.67,-266.63 663.24,-267.32 661.36,-260.58"/>
</a>
</g>
<text text-anchor="start" x="1091" y="-92" font-family="Helvetica,sans-Serif" font-size="10.00" fill="grey">TData</text>
</g>
<!-- Node14&#45;&gt;Node7 -->
<g id="edge14_Node000007_Node000014" class="edge">
<title>Node14&#45;&gt;Node7</title>
<g id="a_edge14_Node000007_Node000014"><a xlink:title=" ">
<path fill="none" stroke="orange" stroke-dasharray="5,2" d="M662.59,-234.49C674.27,-237.12 685.98,-240.12 697,-243.5 758.34,-262.31 825.9,-293.31 867.77,-313.81"/>
<polygon fill="orange" stroke="orange" points="663.33,-231.07 652.81,-232.37 661.84,-237.91 663.33,-231.07"/>
</a>
</g>
<text text-anchor="start" x="718" y="-274" font-family="Helvetica,sans-Serif" font-size="10.00" fill="grey">TProperty</text>
</g>
<!-- Node14&#45;&gt;Node15 -->
<g id="edge20_Node000015_Node000014" class="edge">
<title>Node14&#45;&gt;Node15</title>
<g id="a_edge20_Node000015_Node000014"><a xlink:title=" ">
<path fill="none" stroke="orange" stroke-dasharray="5,2" d="M662.9,-220.92C858.65,-223.97 1318.56,-231.14 1539.83,-234.58"/>
<polygon fill="orange" stroke="orange" points="662.7,-217.42 652.65,-220.76 662.59,-224.42 662.7,-217.42"/>
</a>
</g>
<text text-anchor="start" x="1082" y="-234" font-family="Helvetica,sans-Serif" font-size="10.00" fill="grey">TProperty</text>
</g>
<!-- Node14&#45;&gt;Node18 -->
<g id="edge26_Node000018_Node000014" class="edge">
<title>Node14&#45;&gt;Node18</title>
<g id="a_edge26_Node000018_Node000014"><a xlink:title=" ">
<path fill="none" stroke="orange" stroke-dasharray="5,2" d="M588.14,-196.18C612.12,-164.7 659.63,-109.75 715,-85.5 859.26,-22.31 1317.62,-56.95 1539.84,-78.47"/>
<polygon fill="orange" stroke="orange" points="585.19,-194.29 582.02,-204.4 590.8,-198.47 585.19,-194.29"/>
</a>
</g>
<text text-anchor="start" x="1082" y="-58" font-family="Helvetica,sans-Serif" font-size="10.00" fill="grey">TProperty</text>
</g>
<!-- Node19 -->
<g id="Node000019" class="node">
<title>Node19</title>
<g id="a_Node000019"><a xlink:href="interfacefiftyone_1_1pipeline_1_1engines_1_1fiftyone_1_1data_1_1_fifty_one_aspect_property_meta_data.html" target="_top" xlink:title="51Degrees specific meta data.">
<polygon fill="white" stroke="#666666" points="1011.5,-31.5 807.5,-31.5 807.5,-1.5 1011.5,-1.5 1011.5,-31.5"/>
<text text-anchor="start" x="815.5" y="-19.5" font-family="Helvetica,sans-Serif" font-size="10.00">fiftyone.pipeline.engines.fiftyone.data.</text>
<text text-anchor="middle" x="909.5" y="-8.5" font-family="Helvetica,sans-Serif" font-size="10.00">FiftyOneAspectPropertyMetaData</text>
</a>
</g>
</g>
<!-- Node14&#45;&gt;Node19 -->
<g id="edge29_Node000019_Node000014" class="edge">
<title>Node14&#45;&gt;Node19</title>
<g id="a_edge29_Node000019_Node000014"><a xlink:title=" ">
<path fill="none" stroke="#63b8ff" d="M584.18,-195.43C605.6,-157.37 652.77,-83.99 715,-48.5 742.66,-32.73 775.92,-24.21 807.01,-19.75"/>
<polygon fill="#63b8ff" stroke="#63b8ff" points="581.05,-193.85 579.29,-204.3 587.18,-197.23 581.05,-193.85"/>
</a>
</g>
</g>
<!-- Node15&#45;&gt;Node2 -->
<g id="edge21_Node000002_Node000015" class="edge">
<title>Node15&#45;&gt;Node2</title>
<g id="a_edge21_Node000002_Node000015"><a xlink:title=" ">
<path fill="none" stroke="orange" stroke-dasharray="5,2" d="M1798.22,-232.48C1822.12,-231.8 1846.8,-231.11 1870,-230.5 2128.77,-223.72 2431.19,-216.99 2600.73,-213.32"/>
<polygon fill="orange" stroke="orange" points="1797.93,-228.99 1788.03,-232.78 1798.13,-235.99 1797.93,-228.99"/>
</a>
</g>
<text text-anchor="start" x="2214.5" y="-228" font-family="Helvetica,sans-Serif" font-size="10.00" fill="grey">TEngine</text>
</g>
<!-- Node15&#45;&gt;Node4 -->
<g id="edge16_Node000004_Node000015" class="edge">
<title>Node15&#45;&gt;Node4</title>
<g id="a_edge16_Node000004_Node000015"><a xlink:title=" ">
<path fill="none" stroke="orange" stroke-dasharray="5,2" d="M1798.62,-249.54C1825.58,-252.17 1853.92,-254.93 1880.84,-257.56"/>
<polygon fill="orange" stroke="orange" points="1798.65,-246.02 1788.36,-248.53 1797.97,-252.99 1798.65,-246.02"/>
</a>
</g>
<text text-anchor="start" x="1809" y="-260" font-family="Helvetica,sans-Serif" font-size="10.00" fill="grey">TEngine</text>
</g>
<!-- Node16&#45;&gt;Node15 -->
<g id="edge17_Node000015_Node000016" class="edge">
<title>Node16&#45;&gt;Node15</title>
<g id="a_edge17_Node000015_Node000016"><a xlink:title=" ">
<path fill="none" stroke="#63b8ff" d="M1399.11,-206.44C1443.51,-211.5 1494.53,-217.31 1539.81,-222.47"/>
<polygon fill="#63b8ff" stroke="#63b8ff" points="1399.48,-202.96 1389.15,-205.31 1398.69,-209.92 1399.48,-202.96"/>
</a>
</g>
</g>
<!-- Node16&#45;&gt;Node18 -->
<g id="edge24_Node000018_Node000016" class="edge">
<title>Node16&#45;&gt;Node18</title>
<g id="a_edge24_Node000018_Node000016"><a xlink:title=" ">
<path fill="none" stroke="#63b8ff" d="M1350.87,-175.84C1410.42,-159.75 1499.13,-135.78 1566.77,-117.5"/>
<polygon fill="#63b8ff" stroke="#63b8ff" points="1349.94,-172.46 1341.2,-178.45 1351.77,-179.22 1349.94,-172.46"/>
</a>
</g>
</g>
<!-- Node17&#45;&gt;Node1 -->
<g id="edge22_Node000001_Node000017" class="edge">
<title>Node17&#45;&gt;Node1</title>
<g id="a_edge22_Node000001_Node000017"><a xlink:title=" ">
<path fill="none" stroke="orange" stroke-dasharray="5,2" d="M2169.21,-117.44C2364.64,-124.99 2701.07,-137.99 2904.75,-145.86"/>
<polygon fill="orange" stroke="orange" points="2169.27,-113.94 2159.14,-117.05 2169,-120.93 2169.27,-113.94"/>
</a>
</g>
<text text-anchor="start" x="2540" y="-138" font-family="Helvetica,sans-Serif" font-size="10.00" fill="grey">TEngine</text>
</g>
<!-- Node18&#45;&gt;Node17 -->
<g id="edge23_Node000017_Node000018" class="edge">
<title>Node18&#45;&gt;Node17</title>
<g id="a_edge23_Node000017_Node000018"><a xlink:title=" ">
<path fill="none" stroke="#63b8ff" d="M1798.62,-99.17C1821.91,-100.5 1846.21,-101.9 1869.76,-103.25"/>
<polygon fill="#63b8ff" stroke="#63b8ff" points="1798.54,-95.66 1788.36,-98.58 1798.14,-102.65 1798.54,-95.66"/>
</a>
</g>
</g>
<!-- Node19&#45;&gt;Node17 -->
<g id="edge28_Node000017_Node000019" class="edge">
<title>Node19&#45;&gt;Node17</title>
<g id="a_edge28_Node000017_Node000019"><a xlink:title=" ">
<path fill="none" stroke="orange" stroke-dasharray="5,2" d="M1021.81,-12.63C1189.37,-8.81 1515.79,-9.2 1788,-56.5 1831.37,-64.04 1878.8,-75.16 1918.91,-85.43"/>
<polygon fill="orange" stroke="orange" points="1021.66,-9.13 1011.74,-12.87 1021.82,-16.13 1021.66,-9.13"/>
</a>
</g>
<text text-anchor="start" x="1440.5" y="-30" font-family="Helvetica,sans-Serif" font-size="10.00" fill="grey">TProperty</text>
</g>
<!-- Node20 -->
<g id="Node000020" class="node">
<title>Node20</title>
<g id="a_Node000020"><a xlink:title=" ">
<polygon fill="white" stroke="#bfbfbf" points="603,-19 538,-19 538,0 603,0 603,-19"/>
<text text-anchor="middle" x="570.5" y="-7" font-family="Helvetica,sans-Serif" font-size="10.00">Closeable</text>
</a>
</g>
</g>
<!-- Node20&#45;&gt;Node19 -->
<g id="edge30_Node000019_Node000020" class="edge">
<title>Node20&#45;&gt;Node19</title>
<g id="a_edge30_Node000019_Node000020"><a xlink:title=" ">
<path fill="none" stroke="#63b8ff" d="M613.26,-10.37C661.46,-11.37 742.41,-13.05 807.37,-14.4"/>
<polygon fill="#63b8ff" stroke="#63b8ff" points="613.27,-6.87 603.2,-10.16 613.13,-13.87 613.27,-6.87"/>
</a>
</g>
</g>
</g>
</svg>
