<?xml version="1.0" encoding="UTF-8" standalone="no"?>
<!DOCTYPE svg PUBLIC "-//W3C//DTD SVG 1.1//EN"
 "http://www.w3.org/Graphics/SVG/1.1/DTD/svg11.dtd">
<!-- Generated by graphviz version 2.43.0 (0)
 -->
<!-- Title: fiftyone.pipeline.web.mvc.components.FiftyOneInterceptor Pages: 1 -->
<svg width="379pt" height="177pt"
 viewBox="0.00 0.00 379.00 177.00" xmlns="http://www.w3.org/2000/svg" xmlns:xlink="http://www.w3.org/1999/xlink">
<g id="graph0" class="graph" transform="scale(1 1) rotate(0) translate(4 173)">
<title>fiftyone.pipeline.web.mvc.components.FiftyOneInterceptor</title>
<!-- Node1 -->
<g id="Node000001" class="node">
<title>Node1</title>
<g id="a_Node000001"><a xlink:title="The 51Degrees middleware component.">
<polygon fill="#999999" stroke="#666666" points="209,-30 0,-30 0,0 209,0 209,-30"/>
<text text-anchor="start" x="8" y="-18" font-family="Helvetica,sans-Serif" font-size="10.00">fiftyone.pipeline.web.mvc.components.</text>
<text text-anchor="middle" x="104.5" y="-7" font-family="Helvetica,sans-Serif" font-size="10.00">FiftyOneInterceptor</text>
</a>
</g>
</g>
<!-- Node2 -->
<g id="Node000002" class="node">
<title>Node2</title>
<g id="a_Node000002"><a xlink:title=" ">
<polygon fill="white" stroke="#bfbfbf" points="161.5,-107.5 15.5,-107.5 15.5,-88.5 161.5,-88.5 161.5,-107.5"/>
<text text-anchor="middle" x="88.5" y="-95.5" font-family="Helvetica,sans-Serif" font-size="10.00">HandlerInterceptorAdapter</text>
</a>
</g>
</g>
<!-- Node2&#45;&gt;Node1 -->
<g id="edge1_Node000001_Node000002" class="edge">
<title>Node2&#45;&gt;Node1</title>
<g id="a_edge1_Node000001_Node000002"><a xlink:title=" ">
<path fill="none" stroke="#63b8ff" d="M92.19,-78.34C95.09,-63.61 99.09,-43.38 101.73,-30.01"/>
<polygon fill="#63b8ff" stroke="#63b8ff" points="88.72,-77.84 90.21,-88.33 95.58,-79.2 88.72,-77.84"/>
</a>
</g>
</g>
<!-- Node3 -->
<g id="Node000003" class="node">
<title>Node3</title>
<g id="a_Node000003"><a xlink:href="interfacefiftyone_1_1pipeline_1_1core_1_1flowelements_1_1_pipeline.html" target="_top" xlink:title="The Pipeline groups together FlowElements and is a factory for FlowData which serves as the evidence,...">
<polygon fill="white" stroke="#666666" points="371,-113 180,-113 180,-83 371,-83 371,-113"/>
<text text-anchor="start" x="188" y="-101" font-family="Helvetica,sans-Serif" font-size="10.00">fiftyone.pipeline.core.flowelements.</text>
<text text-anchor="middle" x="275.5" y="-90" font-family="Helvetica,sans-Serif" font-size="10.00">Pipeline</text>
</a>
</g>
</g>
<!-- Node3&#45;&gt;Node1 -->
<g id="edge2_Node000001_Node000003" class="edge">
<title>Node3&#45;&gt;Node1</title>
<g id="a_edge2_Node000001_Node000003"><a xlink:title=" ">
<path fill="none" stroke="#9a32cd" stroke-dasharray="5,2" d="M236.48,-78.52C205.41,-63.8 162.57,-43.51 134.23,-30.08"/>
<polygon fill="#9a32cd" stroke="#9a32cd" points="235.18,-81.77 245.71,-82.89 238.18,-75.45 235.18,-81.77"/>
</a>
</g>
<text text-anchor="start" x="207.5" y="-53.5" font-family="Helvetica,sans-Serif" font-size="10.00" fill="grey">pipeline</text>
</g>
<!-- Node4 -->
<g id="Node000004" class="node">
<title>Node4</title>
<g id="a_Node000004"><a xlink:title=" ">
<polygon fill="white" stroke="#bfbfbf" points="319,-169 232,-169 232,-150 319,-150 319,-169"/>
<text text-anchor="middle" x="275.5" y="-157" font-family="Helvetica,sans-Serif" font-size="10.00">AutoCloseable</text>
</a>
</g>
</g>
<!-- Node4&#45;&gt;Node3 -->
<g id="edge3_Node000003_Node000004" class="edge">
<title>Node4&#45;&gt;Node3</title>
<g id="a_edge3_Node000003_Node000004"><a xlink:title=" ">
<path fill="none" stroke="#63b8ff" d="M275.5,-139.73C275.5,-131.09 275.5,-121 275.5,-113.02"/>
<polygon fill="#63b8ff" stroke="#63b8ff" points="272,-139.98 275.5,-149.98 279,-139.98 272,-139.98"/>
</a>
</g>
</g>
</g>
</svg>
