<?xml version="1.0" encoding="UTF-8" standalone="no"?>
<!DOCTYPE svg PUBLIC "-//W3C//DTD SVG 1.1//EN"
 "http://www.w3.org/Graphics/SVG/1.1/DTD/svg11.dtd">
<!-- Generated by graphviz version 2.43.0 (0)
 -->
<!-- Title: fiftyone.common.wrappers.data.BinaryWriter.WritableSeekable.File Pages: 1 -->
<svg width="194pt" height="159pt"
 viewBox="0.00 0.00 194.00 159.00" xmlns="http://www.w3.org/2000/svg" xmlns:xlink="http://www.w3.org/1999/xlink">
<g id="graph0" class="graph" transform="scale(1 1) rotate(0) translate(4 155)">
<title>fiftyone.common.wrappers.data.BinaryWriter.WritableSeekable.File</title>
<!-- Node1 -->
<g id="Node000001" class="node">
<title>Node1</title>
<g id="a_Node000001"><a xlink:title=" ">
<polygon fill="#999999" stroke="#666666" points="186,-30 0,-30 0,0 186,0 186,-30"/>
<text text-anchor="start" x="8" y="-18" font-family="Helvetica,sans-Serif" font-size="10.00">fiftyone.common.wrappers.data.</text>
<text text-anchor="middle" x="93" y="-7" font-family="Helvetica,sans-Serif" font-size="10.00">BinaryWriter.WritableSeekable.File</text>
</a>
</g>
</g>
<!-- Node2 -->
<g id="Node000002" class="node">
<title>Node2</title>
<g id="a_Node000002"><a xlink:href="interfacefiftyone_1_1common_1_1wrappers_1_1data_1_1_binary_writer_1_1_writable_seekable.html" target="_top" xlink:title=" ">
<polygon fill="white" stroke="#bfbfbf" points="180.5,-96 5.5,-96 5.5,-66 180.5,-66 180.5,-96"/>
<text text-anchor="start" x="13.5" y="-84" font-family="Helvetica,sans-Serif" font-size="10.00">fiftyone.common.wrappers.data.</text>
<text text-anchor="middle" x="93" y="-73" font-family="Helvetica,sans-Serif" font-size="10.00">BinaryWriter.WritableSeekable</text>
</a>
</g>
</g>
<!-- Node2&#45;&gt;Node1 -->
<g id="edge1_Node000001_Node000002" class="edge">
<title>Node2&#45;&gt;Node1</title>
<g id="a_edge1_Node000001_Node000002"><a xlink:title=" ">
<path fill="none" stroke="#63b8ff" d="M93,-55.54C93,-46.96 93,-37.61 93,-30.16"/>
<polygon fill="#63b8ff" stroke="#63b8ff" points="89.5,-55.8 93,-65.8 96.5,-55.8 89.5,-55.8"/>
</a>
</g>
</g>
<!-- Node3 -->
<g id="Node000003" class="node">
<title>Node3</title>
<g id="a_Node000003"><a xlink:title=" ">
<polygon fill="white" stroke="#bfbfbf" points="84.5,-151 19.5,-151 19.5,-132 84.5,-132 84.5,-151"/>
<text text-anchor="middle" x="52" y="-139" font-family="Helvetica,sans-Serif" font-size="10.00">Closeable</text>
</a>
</g>
</g>
<!-- Node3&#45;&gt;Node2 -->
<g id="edge2_Node000002_Node000003" class="edge">
<title>Node3&#45;&gt;Node2</title>
<g id="a_edge2_Node000002_Node000003"><a xlink:title=" ">
<path fill="none" stroke="#63b8ff" d="M63.84,-123.61C69.95,-114.89 77.31,-104.39 83.11,-96.11"/>
<polygon fill="#63b8ff" stroke="#63b8ff" points="60.92,-121.67 58.05,-131.87 66.66,-125.69 60.92,-121.67"/>
</a>
</g>
</g>
<!-- Node4 -->
<g id="Node000004" class="node">
<title>Node4</title>
<g id="a_Node000004"><a xlink:title=" ">
<polygon fill="white" stroke="#bfbfbf" points="167,-151 103,-151 103,-132 167,-132 167,-151"/>
<text text-anchor="middle" x="135" y="-139" font-family="Helvetica,sans-Serif" font-size="10.00">Flushable</text>
</a>
</g>
</g>
<!-- Node4&#45;&gt;Node2 -->
<g id="edge3_Node000002_Node000004" class="edge">
<title>Node4&#45;&gt;Node2</title>
<g id="a_edge3_Node000002_Node000004"><a xlink:title=" ">
<path fill="none" stroke="#63b8ff" d="M122.87,-123.61C116.62,-114.89 109.07,-104.39 103.13,-96.11"/>
<polygon fill="#63b8ff" stroke="#63b8ff" points="120.13,-125.79 128.8,-131.87 125.81,-121.7 120.13,-125.79"/>
</a>
</g>
</g>
</g>
</svg>
