<?xml version="1.0" encoding="UTF-8" standalone="no"?>
<!DOCTYPE svg PUBLIC "-//W3C//DTD SVG 1.1//EN"
 "http://www.w3.org/Graphics/SVG/1.1/DTD/svg11.dtd">
<!-- Generated by graphviz version 2.43.0 (0)
 -->
<!-- Title: fiftyone.pipeline.web.mvc.components.FlowDataProvider.Default Pages: 1 -->
<svg width="663pt" height="86pt"
 viewBox="0.00 0.00 663.00 86.00" xmlns="http://www.w3.org/2000/svg" xmlns:xlink="http://www.w3.org/1999/xlink">
<g id="graph0" class="graph" transform="scale(1 1) rotate(0) translate(4 82)">
<title>fiftyone.pipeline.web.mvc.components.FlowDataProvider.Default</title>
<!-- Node1 -->
<g id="Node000001" class="node">
<title>Node1</title>
<g id="a_Node000001"><a xlink:title=" ">
<polygon fill="#999999" stroke="#666666" points="655,-54 446,-54 446,-24 655,-24 655,-54"/>
<text text-anchor="start" x="454" y="-42" font-family="Helvetica,sans-Serif" font-size="10.00">fiftyone.pipeline.web.mvc.components.</text>
<text text-anchor="middle" x="550.5" y="-31" font-family="Helvetica,sans-Serif" font-size="10.00">FlowDataProvider.Default</text>
</a>
</g>
</g>
<!-- Node2 -->
<g id="Node000002" class="node">
<title>Node2</title>
<g id="a_Node000002"><a xlink:href="classfiftyone_1_1pipeline_1_1web_1_1services_1_1_flow_data_provider_core_1_1_default.html" target="_top" xlink:title="Default implementation of the FlowDataProviderCore service.">
<polygon fill="white" stroke="#666666" points="388,-78 223,-78 223,-48 388,-48 388,-78"/>
<text text-anchor="start" x="231" y="-66" font-family="Helvetica,sans-Serif" font-size="10.00">fiftyone.pipeline.web.services.</text>
<text text-anchor="middle" x="305.5" y="-55" font-family="Helvetica,sans-Serif" font-size="10.00">FlowDataProviderCore.Default</text>
</a>
</g>
</g>
<!-- Node2&#45;&gt;Node1 -->
<g id="edge1_Node000001_Node000002" class="edge">
<title>Node2&#45;&gt;Node1</title>
<g id="a_edge1_Node000001_Node000002"><a xlink:title=" ">
<path fill="none" stroke="#63b8ff" d="M398.17,-53.95C413.69,-52.41 429.89,-50.81 445.68,-49.25"/>
<polygon fill="#63b8ff" stroke="#63b8ff" points="397.7,-50.48 388.09,-54.94 398.39,-57.44 397.7,-50.48"/>
</a>
</g>
</g>
<!-- Node3 -->
<g id="Node000003" class="node">
<title>Node3</title>
<g id="a_Node000003"><a xlink:href="interfacefiftyone_1_1pipeline_1_1web_1_1services_1_1_flow_data_provider_core.html" target="_top" xlink:title="Provider to be injected into controllers to get the pre&#45;processed FlowData for the request being serv...">
<polygon fill="white" stroke="#666666" points="165,-54 0,-54 0,-24 165,-24 165,-54"/>
<text text-anchor="start" x="8" y="-42" font-family="Helvetica,sans-Serif" font-size="10.00">fiftyone.pipeline.web.services.</text>
<text text-anchor="middle" x="82.5" y="-31" font-family="Helvetica,sans-Serif" font-size="10.00">FlowDataProviderCore</text>
</a>
</g>
</g>
<!-- Node3&#45;&gt;Node2 -->
<g id="edge2_Node000002_Node000003" class="edge">
<title>Node3&#45;&gt;Node2</title>
<g id="a_edge2_Node000002_Node000003"><a xlink:title=" ">
<path fill="none" stroke="#63b8ff" d="M175.41,-48.98C191.13,-50.69 207.37,-52.45 222.8,-54.13"/>
<polygon fill="#63b8ff" stroke="#63b8ff" points="175.48,-45.47 165.16,-47.87 174.73,-52.43 175.48,-45.47"/>
</a>
</g>
</g>
<!-- Node4 -->
<g id="Node000004" class="node">
<title>Node4</title>
<g id="a_Node000004"><a xlink:href="interfacefiftyone_1_1pipeline_1_1web_1_1mvc_1_1components_1_1_flow_data_provider.html" target="_top" xlink:title="Spring framework component for the FlowDataProviderCore.">
<polygon fill="white" stroke="#666666" points="410,-30 201,-30 201,0 410,0 410,-30"/>
<text text-anchor="start" x="209" y="-18" font-family="Helvetica,sans-Serif" font-size="10.00">fiftyone.pipeline.web.mvc.components.</text>
<text text-anchor="middle" x="305.5" y="-7" font-family="Helvetica,sans-Serif" font-size="10.00">FlowDataProvider</text>
</a>
</g>
</g>
<!-- Node3&#45;&gt;Node4 -->
<g id="edge4_Node000004_Node000003" class="edge">
<title>Node3&#45;&gt;Node4</title>
<g id="a_edge4_Node000004_Node000003"><a xlink:title=" ">
<path fill="none" stroke="#63b8ff" d="M175.29,-29.03C183.66,-28.12 192.18,-27.2 200.64,-26.28"/>
<polygon fill="#63b8ff" stroke="#63b8ff" points="174.73,-25.57 165.16,-30.13 175.48,-32.53 174.73,-25.57"/>
</a>
</g>
</g>
<!-- Node4&#45;&gt;Node1 -->
<g id="edge3_Node000001_Node000004" class="edge">
<title>Node4&#45;&gt;Node1</title>
<g id="a_edge3_Node000001_Node000004"><a xlink:title=" ">
<path fill="none" stroke="#63b8ff" d="M420.48,-26.26C428.9,-27.09 437.36,-27.92 445.7,-28.75"/>
<polygon fill="#63b8ff" stroke="#63b8ff" points="420.55,-22.75 410.26,-25.25 419.87,-29.71 420.55,-22.75"/>
</a>
</g>
</g>
</g>
</svg>
