<?xml version="1.0" encoding="UTF-8" standalone="no"?>
<!DOCTYPE svg PUBLIC "-//W3C//DTD SVG 1.1//EN"
 "http://www.w3.org/Graphics/SVG/1.1/DTD/svg11.dtd">
<!-- Generated by graphviz version 2.43.0 (0)
 -->
<!-- Title: fiftyone.pipeline.cloudrequestengine.flowelements.CloudAspectEngineBase&lt; TData extends AspectData &gt; Pages: 1 -->
<svg width="2484pt" height="438pt"
 viewBox="0.00 0.00 2484.00 438.00" xmlns="http://www.w3.org/2000/svg" xmlns:xlink="http://www.w3.org/1999/xlink">
<g id="graph0" class="graph" transform="scale(1 1) rotate(0) translate(4 434)">
<title>fiftyone.pipeline.cloudrequestengine.flowelements.CloudAspectEngineBase&lt; TData extends AspectData &gt;</title>
<!-- Node1 -->
<g id="Node000001" class="node">
<title>Node1</title>
<g id="a_Node000001"><a xlink:title="Base class for 51Degrees Cloud Aspect Engines.">
<polygon fill="#999999" stroke="#666666" points="2476,-347.5 2210,-347.5 2210,-306.5 2476,-306.5 2476,-347.5"/>
<text text-anchor="start" x="2218" y="-335.5" font-family="Helvetica,sans-Serif" font-size="10.00">fiftyone.pipeline.cloudrequestengine.flowelements.</text>
<text text-anchor="start" x="2218" y="-324.5" font-family="Helvetica,sans-Serif" font-size="10.00">CloudAspectEngineBase&lt; TData extends</text>
<text text-anchor="middle" x="2343" y="-313.5" font-family="Helvetica,sans-Serif" font-size="10.00"> AspectData &gt;</text>
</a>
</g>
</g>
<!-- Node2 -->
<g id="Node000002" class="node">
<title>Node2</title>
<g id="a_Node000002"><a xlink:href="classfiftyone_1_1pipeline_1_1engines_1_1flowelements_1_1_aspect_engine_base.html" target="_top" xlink:title="Base class for AspectEngines to extend.">
<polygon fill="white" stroke="#666666" points="2173,-217 1925,-217 1925,-165 2173,-165 2173,-217"/>
<text text-anchor="start" x="1933" y="-205" font-family="Helvetica,sans-Serif" font-size="10.00">fiftyone.pipeline.engines.flowelements.</text>
<text text-anchor="start" x="1933" y="-194" font-family="Helvetica,sans-Serif" font-size="10.00">AspectEngineBase&lt; TData extends</text>
<text text-anchor="start" x="1933" y="-183" font-family="Helvetica,sans-Serif" font-size="10.00"> AspectData, TProperty extends AspectProperty</text>
<text text-anchor="middle" x="2049" y="-172" font-family="Helvetica,sans-Serif" font-size="10.00">MetaData &gt;</text>
</a>
</g>
</g>
<!-- Node2&#45;&gt;Node1 -->
<g id="edge1_Node000001_Node000002" class="edge">
<title>Node2&#45;&gt;Node1</title>
<g id="a_edge1_Node000001_Node000002"><a xlink:title=" ">
<path fill="none" stroke="#63b8ff" d="M2115.36,-221.44C2170.92,-247.32 2249.17,-283.77 2297.68,-306.36"/>
<polygon fill="#63b8ff" stroke="#63b8ff" points="2116.5,-218.11 2105.96,-217.06 2113.54,-224.46 2116.5,-218.11"/>
</a>
</g>
</g>
<!-- Node3 -->
<g id="Node000003" class="node">
<title>Node3</title>
<g id="a_Node000003"><a xlink:href="classfiftyone_1_1pipeline_1_1core_1_1flowelements_1_1_flow_element_base.html" target="_top" xlink:title="Provides a base class from which authors may create new FlowElements.">
<polygon fill="white" stroke="#666666" points="1383,-161 1192,-161 1192,-109 1383,-109 1383,-161"/>
<text text-anchor="start" x="1200" y="-149" font-family="Helvetica,sans-Serif" font-size="10.00">fiftyone.pipeline.core.flowelements.</text>
<text text-anchor="start" x="1200" y="-138" font-family="Helvetica,sans-Serif" font-size="10.00">FlowElementBase&lt; TData extends</text>
<text text-anchor="start" x="1200" y="-127" font-family="Helvetica,sans-Serif" font-size="10.00"> ElementData, TProperty extends</text>
<text text-anchor="middle" x="1287.5" y="-116" font-family="Helvetica,sans-Serif" font-size="10.00"> ElementPropertyMetaData &gt;</text>
</a>
</g>
</g>
<!-- Node3&#45;&gt;Node2 -->
<g id="edge2_Node000002_Node000003" class="edge">
<title>Node3&#45;&gt;Node2</title>
<g id="a_edge2_Node000002_Node000003"><a xlink:title=" ">
<path fill="none" stroke="#63b8ff" d="M1393.31,-141.12C1516.39,-148.54 1726.66,-161.93 1907,-177 1912.88,-177.49 1918.9,-178.01 1924.98,-178.56"/>
<polygon fill="#63b8ff" stroke="#63b8ff" points="1393.33,-137.61 1383.14,-140.51 1392.91,-144.6 1393.33,-137.61"/>
</a>
</g>
</g>
<!-- Node4 -->
<g id="Node000004" class="node">
<title>Node4</title>
<g id="a_Node000004"><a xlink:href="interfacefiftyone_1_1pipeline_1_1core_1_1flowelements_1_1_flow_element.html" target="_top" xlink:title=" ">
<polygon fill="white" stroke="#666666" points="1036,-170 845,-170 845,-140 1036,-140 1036,-170"/>
<text text-anchor="start" x="853" y="-158" font-family="Helvetica,sans-Serif" font-size="10.00">fiftyone.pipeline.core.flowelements.</text>
<text text-anchor="middle" x="940.5" y="-147" font-family="Helvetica,sans-Serif" font-size="10.00">FlowElement&lt; TData, TProperty &gt;</text>
</a>
</g>
</g>
<!-- Node4&#45;&gt;Node3 -->
<g id="edge3_Node000003_Node000004" class="edge">
<title>Node4&#45;&gt;Node3</title>
<g id="a_edge3_Node000003_Node000004"><a xlink:title=" ">
<path fill="none" stroke="#63b8ff" d="M1046.22,-148.46C1048.84,-148.31 1051.44,-148.15 1054,-148 1099.3,-145.32 1149.58,-142.5 1191.75,-140.16"/>
<polygon fill="#63b8ff" stroke="#63b8ff" points="1045.8,-144.98 1036.02,-149.08 1046.22,-151.97 1045.8,-144.98"/>
</a>
</g>
</g>
<!-- Node13 -->
<g id="Node000013" class="node">
<title>Node13</title>
<g id="a_Node000013"><a xlink:href="interfacefiftyone_1_1pipeline_1_1engines_1_1flowelements_1_1_aspect_engine.html" target="_top" xlink:title="AspectEngines are a subset of FlowElements.">
<polygon fill="white" stroke="#666666" points="1410,-260.5 1165,-260.5 1165,-219.5 1410,-219.5 1410,-260.5"/>
<text text-anchor="start" x="1173" y="-248.5" font-family="Helvetica,sans-Serif" font-size="10.00">fiftyone.pipeline.engines.flowelements.</text>
<text text-anchor="start" x="1173" y="-237.5" font-family="Helvetica,sans-Serif" font-size="10.00">AspectEngine&lt; TData extends AspectData,</text>
<text text-anchor="middle" x="1287.5" y="-226.5" font-family="Helvetica,sans-Serif" font-size="10.00"> TProperty extends AspectPropertyMetaData &gt;</text>
</a>
</g>
</g>
<!-- Node4&#45;&gt;Node13 -->
<g id="edge15_Node000013_Node000004" class="edge">
<title>Node4&#45;&gt;Node13</title>
<g id="a_edge15_Node000013_Node000004"><a xlink:title=" ">
<path fill="none" stroke="#63b8ff" d="M1012.12,-172.4C1067.54,-186.05 1144.82,-205.09 1203.25,-219.49"/>
<polygon fill="#63b8ff" stroke="#63b8ff" points="1012.93,-168.99 1002.38,-170 1011.26,-175.79 1012.93,-168.99"/>
</a>
</g>
</g>
<!-- Node5 -->
<g id="Node000005" class="node">
<title>Node5</title>
<g id="a_Node000005"><a xlink:href="interfacefiftyone_1_1pipeline_1_1core_1_1flowelements_1_1_flow_element.html" target="_top" xlink:title="A component that processes a FlowData (by examining its evidence, or by examining data processed by o...">
<polygon fill="white" stroke="#666666" points="697,-175.5 444,-175.5 444,-134.5 697,-134.5 697,-175.5"/>
<text text-anchor="start" x="452" y="-163.5" font-family="Helvetica,sans-Serif" font-size="10.00">fiftyone.pipeline.core.flowelements.</text>
<text text-anchor="start" x="452" y="-152.5" font-family="Helvetica,sans-Serif" font-size="10.00">FlowElement&lt; TData extends ElementData,</text>
<text text-anchor="middle" x="570.5" y="-141.5" font-family="Helvetica,sans-Serif" font-size="10.00"> TProperty extends ElementPropertyMetaData &gt;</text>
</a>
</g>
</g>
<!-- Node5&#45;&gt;Node4 -->
<g id="edge4_Node000004_Node000005" class="edge">
<title>Node5&#45;&gt;Node4</title>
<g id="a_edge4_Node000004_Node000005"><a xlink:title=" ">
<path fill="none" stroke="orange" stroke-dasharray="5,2" d="M707.12,-155C752.92,-155 803.03,-155 844.95,-155"/>
<polygon fill="orange" stroke="orange" points="707.12,-151.5 697.12,-155 707.12,-158.5 707.12,-151.5"/>
</a>
</g>
<text text-anchor="start" x="718" y="-160.5" font-family="Helvetica,sans-Serif" font-size="10.00" fill="grey">&lt; TData, TProperty &gt;</text>
</g>
<!-- Node6 -->
<g id="Node000006" class="node">
<title>Node6</title>
<g id="a_Node000006"><a xlink:title=" ">
<polygon fill="white" stroke="#bfbfbf" points="324,-90.5 237,-90.5 237,-71.5 324,-71.5 324,-90.5"/>
<text text-anchor="middle" x="280.5" y="-78.5" font-family="Helvetica,sans-Serif" font-size="10.00">AutoCloseable</text>
</a>
</g>
</g>
<!-- Node6&#45;&gt;Node5 -->
<g id="edge5_Node000005_Node000006" class="edge">
<title>Node6&#45;&gt;Node5</title>
<g id="a_edge5_Node000005_Node000006"><a xlink:title=" ">
<path fill="none" stroke="#63b8ff" d="M328.32,-93.03C371.9,-104.23 437.73,-121.14 489.61,-134.47"/>
<polygon fill="#63b8ff" stroke="#63b8ff" points="329.12,-89.62 318.56,-90.52 327.38,-96.4 329.12,-89.62"/>
</a>
</g>
</g>
<!-- Node7 -->
<g id="Node000007" class="node">
<title>Node7</title>
<g id="a_Node000007"><a xlink:href="interfacefiftyone_1_1pipeline_1_1core_1_1data_1_1_element_data.html" target="_top" xlink:title="Represents property values that have be determined by a specific FlowElement based on the supplied ev...">
<polygon fill="white" stroke="#666666" points="354,-259 207,-259 207,-229 354,-229 354,-259"/>
<text text-anchor="start" x="215" y="-247" font-family="Helvetica,sans-Serif" font-size="10.00">fiftyone.pipeline.core.data.</text>
<text text-anchor="middle" x="280.5" y="-236" font-family="Helvetica,sans-Serif" font-size="10.00">ElementData</text>
</a>
</g>
</g>
<!-- Node7&#45;&gt;Node3 -->
<g id="edge11_Node000003_Node000007" class="edge">
<title>Node7&#45;&gt;Node3</title>
<g id="a_edge11_Node000003_Node000007"><a xlink:title=" ">
<path fill="none" stroke="orange" stroke-dasharray="5,2" d="M364.19,-239.26C503.3,-230.76 792.76,-210.78 1036,-179 1087.77,-172.24 1145.17,-162.33 1191.94,-153.63"/>
<polygon fill="orange" stroke="orange" points="363.81,-235.78 354.04,-239.88 364.23,-242.77 363.81,-235.78"/>
</a>
</g>
<text text-anchor="start" x="756" y="-217.5" font-family="Helvetica,sans-Serif" font-size="10.00" fill="grey">TData</text>
</g>
<!-- Node7&#45;&gt;Node5 -->
<g id="edge6_Node000005_Node000007" class="edge">
<title>Node7&#45;&gt;Node5</title>
<g id="a_edge6_Node000005_Node000007"><a xlink:title=" ">
<path fill="none" stroke="orange" stroke-dasharray="5,2" d="M334.4,-225.67C346.72,-221.46 359.81,-217.04 372,-213 403.89,-202.45 411.82,-199.62 444,-190 460.15,-185.17 477.52,-180.19 494.05,-175.55"/>
<polygon fill="orange" stroke="orange" points="333.03,-222.44 324.71,-228.99 335.3,-229.06 333.03,-222.44"/>
</a>
</g>
<text text-anchor="start" x="384" y="-218.5" font-family="Helvetica,sans-Serif" font-size="10.00" fill="grey">TData</text>
</g>
<!-- Node14 -->
<g id="Node000014" class="node">
<title>Node14</title>
<g id="a_Node000014"><a xlink:href="interfacefiftyone_1_1pipeline_1_1engines_1_1data_1_1_aspect_data.html" target="_top" xlink:title="Represents a specialized ElementData instance that is generated by an AspectEngine.">
<polygon fill="white" stroke="#666666" points="1022.5,-354 858.5,-354 858.5,-324 1022.5,-324 1022.5,-354"/>
<text text-anchor="start" x="866.5" y="-342" font-family="Helvetica,sans-Serif" font-size="10.00">fiftyone.pipeline.engines.data.</text>
<text text-anchor="middle" x="940.5" y="-331" font-family="Helvetica,sans-Serif" font-size="10.00">AspectData</text>
</a>
</g>
</g>
<!-- Node7&#45;&gt;Node14 -->
<g id="edge17_Node000014_Node000007" class="edge">
<title>Node7&#45;&gt;Node14</title>
<g id="a_edge17_Node000014_Node000007"><a xlink:title=" ">
<path fill="none" stroke="#63b8ff" d="M364.26,-256.84C366.87,-257.23 369.45,-257.62 372,-258 545.01,-283.73 747.94,-312.31 858.17,-327.7"/>
<polygon fill="#63b8ff" stroke="#63b8ff" points="364.51,-253.34 354.1,-255.31 363.47,-260.26 364.51,-253.34"/>
</a>
</g>
</g>
<!-- Node8 -->
<g id="Node000008" class="node">
<title>Node8</title>
<g id="a_Node000008"><a xlink:href="interfacefiftyone_1_1pipeline_1_1core_1_1data_1_1_data.html" target="_top" xlink:title="Represents a collection of property values.">
<polygon fill="white" stroke="#666666" points="170,-253.5 0,-253.5 0,-234.5 170,-234.5 170,-253.5"/>
<text text-anchor="middle" x="85" y="-241.5" font-family="Helvetica,sans-Serif" font-size="10.00">fiftyone.pipeline.core.data.Data</text>
</a>
</g>
</g>
<!-- Node8&#45;&gt;Node7 -->
<g id="edge7_Node000007_Node000008" class="edge">
<title>Node8&#45;&gt;Node7</title>
<g id="a_edge7_Node000007_Node000008"><a xlink:title=" ">
<path fill="none" stroke="#63b8ff" d="M180.11,-244C189.07,-244 198.06,-244 206.77,-244"/>
<polygon fill="#63b8ff" stroke="#63b8ff" points="180.03,-240.5 170.03,-244 180.03,-247.5 180.03,-240.5"/>
</a>
</g>
</g>
<!-- Node9 -->
<g id="Node000009" class="node">
<title>Node9</title>
<g id="a_Node000009"><a xlink:href="interfacefiftyone_1_1pipeline_1_1core_1_1data_1_1_element_property_meta_data.html" target="_top" xlink:title="Defines details of a property that can be returned by a FlowElement.">
<polygon fill="white" stroke="#666666" points="354,-162 207,-162 207,-132 354,-132 354,-162"/>
<text text-anchor="start" x="215" y="-150" font-family="Helvetica,sans-Serif" font-size="10.00">fiftyone.pipeline.core.data.</text>
<text text-anchor="middle" x="280.5" y="-139" font-family="Helvetica,sans-Serif" font-size="10.00">ElementPropertyMetaData</text>
</a>
</g>
</g>
<!-- Node9&#45;&gt;Node3 -->
<g id="edge12_Node000003_Node000009" class="edge">
<title>Node9&#45;&gt;Node3</title>
<g id="a_edge12_Node000003_Node000009"><a xlink:title=" ">
<path fill="none" stroke="orange" stroke-dasharray="5,2" d="M364.13,-134.24C389.67,-130.85 417.94,-127.68 444,-126 706.58,-109.1 772.91,-126.96 1036,-131 1087.54,-131.79 1145.03,-132.71 1191.93,-133.46"/>
<polygon fill="orange" stroke="orange" points="363.55,-130.78 354.11,-135.59 364.49,-137.72 363.55,-130.78"/>
</a>
</g>
<text text-anchor="start" x="747" y="-129.5" font-family="Helvetica,sans-Serif" font-size="10.00" fill="grey">TProperty</text>
</g>
<!-- Node9&#45;&gt;Node5 -->
<g id="edge8_Node000005_Node000009" class="edge">
<title>Node9&#45;&gt;Node5</title>
<g id="a_edge8_Node000005_Node000009"><a xlink:title=" ">
<path fill="none" stroke="orange" stroke-dasharray="5,2" d="M364.37,-146.98C384.54,-147.14 406.05,-147.44 426,-148 431.86,-148.16 437.85,-148.36 443.9,-148.57"/>
<polygon fill="orange" stroke="orange" points="364.3,-143.48 354.28,-146.91 364.26,-150.48 364.3,-143.48"/>
</a>
</g>
<text text-anchor="start" x="375" y="-153.5" font-family="Helvetica,sans-Serif" font-size="10.00" fill="grey">TProperty</text>
</g>
<!-- Node15 -->
<g id="Node000015" class="node">
<title>Node15</title>
<g id="a_Node000015"><a xlink:href="interfacefiftyone_1_1pipeline_1_1engines_1_1data_1_1_aspect_property_meta_data.html" target="_top" xlink:title="Holds details about a property that can be returned by an AspectEngine.">
<polygon fill="white" stroke="#666666" points="1022.5,-257 858.5,-257 858.5,-227 1022.5,-227 1022.5,-257"/>
<text text-anchor="start" x="866.5" y="-245" font-family="Helvetica,sans-Serif" font-size="10.00">fiftyone.pipeline.engines.data.</text>
<text text-anchor="middle" x="940.5" y="-234" font-family="Helvetica,sans-Serif" font-size="10.00">AspectPropertyMetaData</text>
</a>
</g>
</g>
<!-- Node9&#45;&gt;Node15 -->
<g id="edge19_Node000015_Node000009" class="edge">
<title>Node9&#45;&gt;Node15</title>
<g id="a_edge19_Node000015_Node000009"><a xlink:title=" ">
<path fill="none" stroke="#63b8ff" d="M307.03,-168.37C324.24,-181.45 348.08,-197.14 372,-205 538.02,-259.56 745.76,-256.36 858.16,-249.19"/>
<polygon fill="#63b8ff" stroke="#63b8ff" points="309.18,-165.61 299.15,-162.21 304.87,-171.13 309.18,-165.61"/>
</a>
</g>
</g>
<!-- Node10 -->
<g id="Node000010" class="node">
<title>Node10</title>
<g id="a_Node000010"><a xlink:href="interfacefiftyone_1_1pipeline_1_1core_1_1typed_1_1_typed_key.html" target="_top" xlink:title=" ">
<polygon fill="white" stroke="#666666" points="1017,-78 864,-78 864,-48 1017,-48 1017,-78"/>
<text text-anchor="start" x="872" y="-66" font-family="Helvetica,sans-Serif" font-size="10.00">fiftyone.pipeline.core.typed.</text>
<text text-anchor="middle" x="940.5" y="-55" font-family="Helvetica,sans-Serif" font-size="10.00">TypedKey&lt; TData &gt;</text>
</a>
</g>
</g>
<!-- Node10&#45;&gt;Node3 -->
<g id="edge9_Node000003_Node000010" class="edge">
<title>Node10&#45;&gt;Node3</title>
<g id="a_edge9_Node000003_Node000010"><a xlink:title=" ">
<path fill="none" stroke="#9a32cd" stroke-dasharray="5,2" d="M1027.33,-51.89C1066.05,-50.79 1111.06,-55.25 1147,-75 1159,-81.59 1153.81,-92.12 1165,-100 1173.17,-105.75 1182.27,-110.56 1191.71,-114.59"/>
<polygon fill="#9a32cd" stroke="#9a32cd" points="1026.96,-48.4 1017.11,-52.31 1027.24,-55.39 1026.96,-48.4"/>
</a>
</g>
<text text-anchor="start" x="1077.5" y="-80.5" font-family="Helvetica,sans-Serif" font-size="10.00" fill="grey">typedKey</text>
</g>
<!-- Node11 -->
<g id="Node000011" class="node">
<title>Node11</title>
<g id="a_Node000011"><a xlink:href="interfacefiftyone_1_1pipeline_1_1core_1_1typed_1_1_typed_key.html" target="_top" xlink:title="Holds a name and a type to allow for type safe operations on named values.">
<polygon fill="white" stroke="#666666" points="647,-78 494,-78 494,-48 647,-48 647,-78"/>
<text text-anchor="start" x="502" y="-66" font-family="Helvetica,sans-Serif" font-size="10.00">fiftyone.pipeline.core.typed.</text>
<text text-anchor="middle" x="570.5" y="-55" font-family="Helvetica,sans-Serif" font-size="10.00">TypedKey&lt; T &gt;</text>
</a>
</g>
</g>
<!-- Node11&#45;&gt;Node10 -->
<g id="edge10_Node000010_Node000011" class="edge">
<title>Node11&#45;&gt;Node10</title>
<g id="a_edge10_Node000010_Node000011"><a xlink:title=" ">
<path fill="none" stroke="orange" stroke-dasharray="5,2" d="M657.54,-63C720.04,-63 803.83,-63 863.79,-63"/>
<polygon fill="orange" stroke="orange" points="657.3,-59.5 647.3,-63 657.3,-66.5 657.3,-59.5"/>
</a>
</g>
<text text-anchor="start" x="745" y="-68.5" font-family="Helvetica,sans-Serif" font-size="10.00" fill="grey">&lt; TData &gt;</text>
</g>
<!-- Node12 -->
<g id="Node000012" class="node">
<title>Node12</title>
<g id="a_Node000012"><a xlink:href="interfacefiftyone_1_1pipeline_1_1engines_1_1flowelements_1_1_aspect_engine.html" target="_top" xlink:title=" ">
<polygon fill="white" stroke="#666666" points="1767,-255 1558,-255 1558,-225 1767,-225 1767,-255"/>
<text text-anchor="start" x="1566" y="-243" font-family="Helvetica,sans-Serif" font-size="10.00">fiftyone.pipeline.engines.flowelements.</text>
<text text-anchor="middle" x="1662.5" y="-232" font-family="Helvetica,sans-Serif" font-size="10.00">AspectEngine&lt; TData, TProperty &gt;</text>
</a>
</g>
</g>
<!-- Node12&#45;&gt;Node2 -->
<g id="edge13_Node000002_Node000012" class="edge">
<title>Node12&#45;&gt;Node2</title>
<g id="a_edge13_Node000002_Node000012"><a xlink:title=" ">
<path fill="none" stroke="#63b8ff" d="M1777.14,-225.52C1823.58,-219.6 1877.41,-212.74 1924.79,-206.7"/>
<polygon fill="#63b8ff" stroke="#63b8ff" points="1776.52,-222.07 1767.04,-226.8 1777.41,-229.01 1776.52,-222.07"/>
</a>
</g>
</g>
<!-- Node24 -->
<g id="Node000024" class="node">
<title>Node24</title>
<g id="a_Node000024"><a xlink:href="interfacefiftyone_1_1pipeline_1_1engines_1_1flowelements_1_1_cloud_aspect_engine.html" target="_top" xlink:title="Aspect engine interface which is specific to a cloud engine.">
<polygon fill="white" stroke="#666666" points="2173,-353 1925,-353 1925,-301 2173,-301 2173,-353"/>
<text text-anchor="start" x="1933" y="-341" font-family="Helvetica,sans-Serif" font-size="10.00">fiftyone.pipeline.engines.flowelements.</text>
<text text-anchor="start" x="1933" y="-330" font-family="Helvetica,sans-Serif" font-size="10.00">CloudAspectEngine&lt; TData extends</text>
<text text-anchor="start" x="1933" y="-319" font-family="Helvetica,sans-Serif" font-size="10.00"> AspectData, TProperty extends AspectProperty</text>
<text text-anchor="middle" x="2049" y="-308" font-family="Helvetica,sans-Serif" font-size="10.00">MetaData &gt;</text>
</a>
</g>
</g>
<!-- Node12&#45;&gt;Node24 -->
<g id="edge31_Node000024_Node000012" class="edge">
<title>Node12&#45;&gt;Node24</title>
<g id="a_edge31_Node000024_Node000012"><a xlink:title=" ">
<path fill="none" stroke="#63b8ff" d="M1740.09,-257.33C1795.24,-269.81 1870.61,-286.86 1932.97,-300.97"/>
<polygon fill="#63b8ff" stroke="#63b8ff" points="1740.56,-253.85 1730.04,-255.05 1739.02,-260.68 1740.56,-253.85"/>
</a>
</g>
</g>
<!-- Node13&#45;&gt;Node12 -->
<g id="edge14_Node000012_Node000013" class="edge">
<title>Node13&#45;&gt;Node12</title>
<g id="a_edge14_Node000012_Node000013"><a xlink:title=" ">
<path fill="none" stroke="orange" stroke-dasharray="5,2" d="M1420.28,-240C1465.43,-240 1515.27,-240 1557.87,-240"/>
<polygon fill="orange" stroke="orange" points="1420.12,-236.5 1410.12,-240 1420.12,-243.5 1420.12,-236.5"/>
</a>
</g>
<text text-anchor="start" x="1431" y="-245.5" font-family="Helvetica,sans-Serif" font-size="10.00" fill="grey">&lt; TData, TProperty &gt;</text>
</g>
<!-- Node14&#45;&gt;Node1 -->
<g id="edge34_Node000001_Node000014" class="edge">
<title>Node14&#45;&gt;Node1</title>
<g id="a_edge34_Node000001_Node000014"><a xlink:title=" ">
<path fill="none" stroke="orange" stroke-dasharray="5,2" d="M993.51,-357.34C1060.4,-379.25 1180.6,-413 1286.5,-413 1286.5,-413 1286.5,-413 2050,-413 2142.22,-413 2244.39,-373.04 2300.1,-347.6"/>
<polygon fill="orange" stroke="orange" points="994.23,-353.89 983.63,-354.06 992.02,-360.54 994.23,-353.89"/>
</a>
</g>
<text text-anchor="start" x="1647.5" y="-418.5" font-family="Helvetica,sans-Serif" font-size="10.00" fill="grey">TData</text>
</g>
<!-- Node14&#45;&gt;Node2 -->
<g id="edge28_Node000002_Node000014" class="edge">
<title>Node14&#45;&gt;Node2</title>
<g id="a_edge28_Node000002_Node000014"><a xlink:title=" ">
<path fill="none" stroke="orange" stroke-dasharray="5,2" d="M1032.93,-333.36C1068.55,-331.01 1109.7,-328.1 1147,-325 1181.49,-322.13 1732.88,-269.79 1767,-264 1833.84,-252.65 1908.01,-233.08 1963.36,-217.05"/>
<polygon fill="orange" stroke="orange" points="1032.3,-329.9 1022.55,-334.04 1032.76,-336.88 1032.3,-329.9"/>
</a>
</g>
<text text-anchor="start" x="1469" y="-303.5" font-family="Helvetica,sans-Serif" font-size="10.00" fill="grey">TData</text>
</g>
<!-- Node14&#45;&gt;Node13 -->
<g id="edge16_Node000013_Node000014" class="edge">
<title>Node14&#45;&gt;Node13</title>
<g id="a_edge16_Node000013_Node000014"><a xlink:title=" ">
<path fill="none" stroke="orange" stroke-dasharray="5,2" d="M1003.53,-321.2C1062.96,-304.15 1152.59,-278.43 1214.99,-260.52"/>
<polygon fill="orange" stroke="orange" points="1002.54,-317.84 993.9,-323.96 1004.48,-324.57 1002.54,-317.84"/>
</a>
</g>
<text text-anchor="start" x="1085.5" y="-309.5" font-family="Helvetica,sans-Serif" font-size="10.00" fill="grey">TData</text>
</g>
<!-- Node14&#45;&gt;Node24 -->
<g id="edge32_Node000024_Node000014" class="edge">
<title>Node14&#45;&gt;Node24</title>
<g id="a_edge32_Node000024_Node000014"><a xlink:title=" ">
<path fill="none" stroke="orange" stroke-dasharray="5,2" d="M1032.93,-351.34C1040.05,-352 1047.14,-352.57 1054,-353 1095.25,-355.56 1105.67,-353.33 1147,-353 1484.81,-350.33 1569.74,-360.37 1907,-341 1912.77,-340.67 1918.67,-340.28 1924.63,-339.85"/>
<polygon fill="orange" stroke="orange" points="1032.8,-347.81 1022.5,-350.3 1032.1,-354.77 1032.8,-347.81"/>
</a>
</g>
<text text-anchor="start" x="1469" y="-358.5" font-family="Helvetica,sans-Serif" font-size="10.00" fill="grey">TData</text>
</g>
<!-- Node15&#45;&gt;Node2 -->
<g id="edge29_Node000002_Node000015" class="edge">
<title>Node15&#45;&gt;Node2</title>
<g id="a_edge29_Node000002_Node000015"><a xlink:title=" ">
<path fill="none" stroke="orange" stroke-dasharray="5,2" d="M1032.82,-226.91C1073.21,-220.86 1121.35,-214.51 1165,-211 1435.53,-189.25 1754.08,-188.01 1924.92,-189.32"/>
<polygon fill="orange" stroke="orange" points="1032.09,-223.48 1022.73,-228.44 1033.14,-230.4 1032.09,-223.48"/>
</a>
</g>
<text text-anchor="start" x="1460" y="-200.5" font-family="Helvetica,sans-Serif" font-size="10.00" fill="grey">TProperty</text>
</g>
<!-- Node15&#45;&gt;Node13 -->
<g id="edge18_Node000013_Node000015" class="edge">
<title>Node15&#45;&gt;Node13</title>
<g id="a_edge18_Node000013_Node000015"><a xlink:title=" ">
<path fill="none" stroke="orange" stroke-dasharray="5,2" d="M1032.93,-241.47C1073.34,-241.24 1121.45,-240.96 1164.84,-240.71"/>
<polygon fill="orange" stroke="orange" points="1032.8,-237.97 1022.82,-241.53 1032.84,-244.97 1032.8,-237.97"/>
</a>
</g>
<text text-anchor="start" x="1076.5" y="-246.5" font-family="Helvetica,sans-Serif" font-size="10.00" fill="grey">TProperty</text>
</g>
<!-- Node15&#45;&gt;Node24 -->
<g id="edge33_Node000024_Node000015" class="edge">
<title>Node15&#45;&gt;Node24</title>
<g id="a_edge33_Node000024_Node000015"><a xlink:title=" ">
<path fill="none" stroke="orange" stroke-dasharray="5,2" d="M972.04,-262.54C993.85,-275.98 1024.45,-292.4 1054,-300 1136.08,-321.1 1677.13,-325.72 1924.71,-326.72"/>
<polygon fill="orange" stroke="orange" points="973.88,-259.57 963.55,-257.19 970.14,-265.49 973.88,-259.57"/>
</a>
</g>
<text text-anchor="start" x="1460" y="-327.5" font-family="Helvetica,sans-Serif" font-size="10.00" fill="grey">TProperty</text>
</g>
<!-- Node16 -->
<g id="Node000016" class="node">
<title>Node16</title>
<g id="a_Node000016"><a xlink:href="interfacefiftyone_1_1pipeline_1_1engines_1_1services_1_1_missing_property_service.html" target="_top" xlink:title="Service used by AspectEngines to report the reason for a property not being present in the results.">
<polygon fill="white" stroke="#666666" points="1754,-48 1571,-48 1571,-18 1754,-18 1754,-48"/>
<text text-anchor="start" x="1579" y="-36" font-family="Helvetica,sans-Serif" font-size="10.00">fiftyone.pipeline.engines.services.</text>
<text text-anchor="middle" x="1662.5" y="-25" font-family="Helvetica,sans-Serif" font-size="10.00">MissingPropertyService</text>
</a>
</g>
</g>
<!-- Node16&#45;&gt;Node2 -->
<g id="edge20_Node000002_Node000016" class="edge">
<title>Node16&#45;&gt;Node2</title>
<g id="a_edge20_Node000002_Node000016"><a xlink:title=" ">
<path fill="none" stroke="#9a32cd" stroke-dasharray="5,2" d="M1764.18,-39.8C1809.42,-45.68 1862.52,-56.63 1907,-77 1953.37,-98.23 1997.52,-138.24 2023.68,-164.76"/>
<polygon fill="#9a32cd" stroke="#9a32cd" points="1764.41,-36.3 1754.06,-38.55 1763.55,-43.24 1764.41,-36.3"/>
</a>
</g>
<text text-anchor="start" x="1788" y="-82.5" font-family="Helvetica,sans-Serif" font-size="10.00" fill="grey">missingPropertyService</text>
</g>
<!-- Node17 -->
<g id="Node000017" class="node">
<title>Node17</title>
<g id="a_Node000017"><a xlink:href="interfacefiftyone_1_1pipeline_1_1core_1_1services_1_1_pipeline_service.html" target="_top" xlink:title="Service interface used by PipelineBuilder to hand out services to elements which required them.">
<polygon fill="white" stroke="#666666" points="1370.5,-43 1204.5,-43 1204.5,-13 1370.5,-13 1370.5,-43"/>
<text text-anchor="start" x="1212.5" y="-31" font-family="Helvetica,sans-Serif" font-size="10.00">fiftyone.pipeline.core.services.</text>
<text text-anchor="middle" x="1287.5" y="-20" font-family="Helvetica,sans-Serif" font-size="10.00">PipelineService</text>
</a>
</g>
</g>
<!-- Node17&#45;&gt;Node16 -->
<g id="edge21_Node000016_Node000017" class="edge">
<title>Node17&#45;&gt;Node16</title>
<g id="a_edge21_Node000016_Node000017"><a xlink:title=" ">
<path fill="none" stroke="#63b8ff" d="M1381.07,-29.24C1439.02,-30.02 1513.33,-31.01 1570.9,-31.79"/>
<polygon fill="#63b8ff" stroke="#63b8ff" points="1380.86,-25.74 1370.82,-29.1 1380.77,-32.74 1380.86,-25.74"/>
</a>
</g>
</g>
<!-- Node18 -->
<g id="Node000018" class="node">
<title>Node18</title>
<g id="a_Node000018"><a xlink:href="interfacefiftyone_1_1pipeline_1_1engines_1_1caching_1_1_flow_cache.html" target="_top" xlink:title="Used to cache results from individual flow elements in the pipeline.">
<polygon fill="white" stroke="#666666" points="1752.5,-113 1572.5,-113 1572.5,-83 1752.5,-83 1752.5,-113"/>
<text text-anchor="start" x="1580.5" y="-101" font-family="Helvetica,sans-Serif" font-size="10.00">fiftyone.pipeline.engines.caching.</text>
<text text-anchor="middle" x="1662.5" y="-90" font-family="Helvetica,sans-Serif" font-size="10.00">FlowCache</text>
</a>
</g>
</g>
<!-- Node18&#45;&gt;Node2 -->
<g id="edge22_Node000002_Node000018" class="edge">
<title>Node18&#45;&gt;Node2</title>
<g id="a_edge22_Node000002_Node000018"><a xlink:title=" ">
<path fill="none" stroke="#9a32cd" stroke-dasharray="5,2" d="M1762.66,-97.32C1807.48,-99.25 1860.67,-104.68 1907,-118 1943.16,-128.39 1980.85,-148.46 2008.15,-164.92"/>
<polygon fill="#9a32cd" stroke="#9a32cd" points="1762.76,-93.83 1752.64,-96.94 1762.5,-100.82 1762.76,-93.83"/>
</a>
</g>
<text text-anchor="start" x="1832" y="-123.5" font-family="Helvetica,sans-Serif" font-size="10.00" fill="grey">cache</text>
</g>
<!-- Node19 -->
<g id="Node000019" class="node">
<title>Node19</title>
<g id="a_Node000019"><a xlink:href="interfacefiftyone_1_1pipeline_1_1engines_1_1caching_1_1_data_keyed_cache.html" target="_top" xlink:title=" ">
<polygon fill="white" stroke="#666666" points="1380.5,-91 1194.5,-91 1194.5,-61 1380.5,-61 1380.5,-91"/>
<text text-anchor="start" x="1202.5" y="-79" font-family="Helvetica,sans-Serif" font-size="10.00">fiftyone.pipeline.engines.caching.</text>
<text text-anchor="middle" x="1287.5" y="-68" font-family="Helvetica,sans-Serif" font-size="10.00">DataKeyedCache&lt; ElementData &gt;</text>
</a>
</g>
</g>
<!-- Node19&#45;&gt;Node18 -->
<g id="edge23_Node000018_Node000019" class="edge">
<title>Node19&#45;&gt;Node18</title>
<g id="a_edge23_Node000018_Node000019"><a xlink:title=" ">
<path fill="none" stroke="#63b8ff" d="M1390.79,-82.03C1447.63,-85.39 1517.69,-89.52 1572.29,-92.74"/>
<polygon fill="#63b8ff" stroke="#63b8ff" points="1390.89,-78.53 1380.7,-81.44 1390.48,-85.52 1390.89,-78.53"/>
</a>
</g>
</g>
<!-- Node20 -->
<g id="Node000020" class="node">
<title>Node20</title>
<g id="a_Node000020"><a xlink:href="interfacefiftyone_1_1pipeline_1_1engines_1_1caching_1_1_data_keyed_cache.html" target="_top" xlink:title="Represents a put cache where the key is a FlowData instance.">
<polygon fill="white" stroke="#666666" points="1030.5,-30 850.5,-30 850.5,0 1030.5,0 1030.5,-30"/>
<text text-anchor="start" x="858.5" y="-18" font-family="Helvetica,sans-Serif" font-size="10.00">fiftyone.pipeline.engines.caching.</text>
<text text-anchor="middle" x="940.5" y="-7" font-family="Helvetica,sans-Serif" font-size="10.00">DataKeyedCache&lt; V &gt;</text>
</a>
</g>
</g>
<!-- Node20&#45;&gt;Node19 -->
<g id="edge24_Node000019_Node000020" class="edge">
<title>Node20&#45;&gt;Node19</title>
<g id="a_edge24_Node000019_Node000020"><a xlink:title=" ">
<path fill="none" stroke="orange" stroke-dasharray="5,2" d="M1040.99,-6.52C1076.16,-7.5 1114.93,-13.34 1147,-30 1158.21,-35.82 1154.16,-45.5 1165,-52 1174.04,-57.42 1184.06,-61.64 1194.37,-64.93"/>
<polygon fill="orange" stroke="orange" points="1040.73,-3.02 1030.68,-6.37 1040.63,-10.02 1040.73,-3.02"/>
</a>
</g>
<text text-anchor="start" x="1057.5" y="-35.5" font-family="Helvetica,sans-Serif" font-size="10.00" fill="grey">&lt; ElementData &gt;</text>
</g>
<!-- Node21 -->
<g id="Node000021" class="node">
<title>Node21</title>
<g id="a_Node000021"><a xlink:href="interfacefiftyone_1_1caching_1_1_put_cache.html" target="_top" xlink:title="A cache that supports a thread safe put method for inserting to cache.">
<polygon fill="white" stroke="#666666" points="642,-30 499,-30 499,0 642,0 642,-30"/>
<text text-anchor="start" x="507" y="-18" font-family="Helvetica,sans-Serif" font-size="10.00">fiftyone.caching.PutCache</text>
<text text-anchor="middle" x="570.5" y="-7" font-family="Helvetica,sans-Serif" font-size="10.00">&lt; K, V &gt;</text>
</a>
</g>
</g>
<!-- Node21&#45;&gt;Node20 -->
<g id="edge25_Node000020_Node000021" class="edge">
<title>Node21&#45;&gt;Node20</title>
<g id="a_edge25_Node000020_Node000021"><a xlink:title=" ">
<path fill="none" stroke="#63b8ff" d="M652.33,-15C710.86,-15 789.96,-15 850.33,-15"/>
<polygon fill="#63b8ff" stroke="#63b8ff" points="652.02,-11.5 642.02,-15 652.02,-18.5 652.02,-11.5"/>
</a>
</g>
</g>
<!-- Node22 -->
<g id="Node000022" class="node">
<title>Node22</title>
<g id="a_Node000022"><a xlink:href="interfacefiftyone_1_1caching_1_1_cache.html" target="_top" xlink:title="Base cache interface which declares only the get method and the types of key and value stored in the ...">
<polygon fill="white" stroke="#666666" points="344,-30 217,-30 217,0 344,0 344,-30"/>
<text text-anchor="start" x="225" y="-18" font-family="Helvetica,sans-Serif" font-size="10.00">fiftyone.caching.Cache</text>
<text text-anchor="middle" x="280.5" y="-7" font-family="Helvetica,sans-Serif" font-size="10.00">&lt; K, V &gt;</text>
</a>
</g>
</g>
<!-- Node22&#45;&gt;Node21 -->
<g id="edge26_Node000021_Node000022" class="edge">
<title>Node22&#45;&gt;Node21</title>
<g id="a_edge26_Node000021_Node000022"><a xlink:title=" ">
<path fill="none" stroke="#63b8ff" d="M354.47,-15C398.79,-15 455.08,-15 498.95,-15"/>
<polygon fill="#63b8ff" stroke="#63b8ff" points="354.35,-11.5 344.35,-15 354.35,-18.5 354.35,-11.5"/>
</a>
</g>
</g>
<!-- Node23 -->
<g id="Node000023" class="node">
<title>Node23</title>
<g id="a_Node000023"><a xlink:title=" ">
<polygon fill="white" stroke="#bfbfbf" points="117.5,-24.5 52.5,-24.5 52.5,-5.5 117.5,-5.5 117.5,-24.5"/>
<text text-anchor="middle" x="85" y="-12.5" font-family="Helvetica,sans-Serif" font-size="10.00">Closeable</text>
</a>
</g>
</g>
<!-- Node23&#45;&gt;Node22 -->
<g id="edge27_Node000022_Node000023" class="edge">
<title>Node23&#45;&gt;Node22</title>
<g id="a_edge27_Node000022_Node000023"><a xlink:title=" ">
<path fill="none" stroke="#63b8ff" d="M127.76,-15C153.71,-15 187.55,-15 216.69,-15"/>
<polygon fill="#63b8ff" stroke="#63b8ff" points="127.52,-11.5 117.52,-15 127.52,-18.5 127.52,-11.5"/>
</a>
</g>
</g>
<!-- Node24&#45;&gt;Node1 -->
<g id="edge30_Node000001_Node000024" class="edge">
<title>Node24&#45;&gt;Node1</title>
<g id="a_edge30_Node000001_Node000024"><a xlink:title=" ">
<path fill="none" stroke="#63b8ff" d="M2183.57,-327C2192.24,-327 2200.98,-327 2209.66,-327"/>
<polygon fill="#63b8ff" stroke="#63b8ff" points="2183.41,-323.5 2173.41,-327 2183.41,-330.5 2183.41,-323.5"/>
</a>
</g>
</g>
</g>
</svg>
