<?xml version="1.0" encoding="UTF-8" standalone="no"?>
<!DOCTYPE svg PUBLIC "-//W3C//DTD SVG 1.1//EN"
 "http://www.w3.org/Graphics/SVG/1.1/DTD/svg11.dtd">
<!-- Generated by graphviz version 2.43.0 (0)
 -->
<!-- Title: fiftyone.caching.LruPutCache&lt; K, V &gt; Pages: 1 -->
<svg width="707pt" height="198pt"
 viewBox="0.00 0.00 707.00 198.00" xmlns="http://www.w3.org/2000/svg" xmlns:xlink="http://www.w3.org/1999/xlink">
<g id="graph0" class="graph" transform="scale(1 1) rotate(0) translate(4 194)">
<title>fiftyone.caching.LruPutCache&lt; K, V &gt;</title>
<!-- Node1 -->
<g id="Node000001" class="node">
<title>Node1</title>
<g id="a_Node000001"><a xlink:title="Uses the LruCacheBase to implement the PutCache interface.">
<polygon fill="#999999" stroke="#666666" points="699,-165 541,-165 541,-135 699,-135 699,-165"/>
<text text-anchor="start" x="549" y="-153" font-family="Helvetica,sans-Serif" font-size="10.00">fiftyone.caching.LruPutCache</text>
<text text-anchor="middle" x="620" y="-142" font-family="Helvetica,sans-Serif" font-size="10.00">&lt; K, V &gt;</text>
</a>
</g>
</g>
<!-- Node2 -->
<g id="Node000002" class="node">
<title>Node2</title>
<g id="a_Node000002"><a xlink:href="classfiftyone_1_1caching_1_1_lru_cache_base.html" target="_top" xlink:title="This is a Least Recently Used (LRU) cache with multiple linked lists in place of the usual single lin...">
<polygon fill="white" stroke="#666666" points="503,-142 361,-142 361,-112 503,-112 503,-142"/>
<text text-anchor="start" x="369" y="-130" font-family="Helvetica,sans-Serif" font-size="10.00">fiftyone.caching.LruCache</text>
<text text-anchor="middle" x="432" y="-119" font-family="Helvetica,sans-Serif" font-size="10.00">Base&lt; K, V &gt;</text>
</a>
</g>
</g>
<!-- Node2&#45;&gt;Node1 -->
<g id="edge1_Node000001_Node000002" class="edge">
<title>Node2&#45;&gt;Node1</title>
<g id="a_edge1_Node000001_Node000002"><a xlink:title=" ">
<path fill="none" stroke="#63b8ff" d="M513.01,-136.89C522.26,-138.04 531.68,-139.2 540.91,-140.34"/>
<polygon fill="#63b8ff" stroke="#63b8ff" points="513.41,-133.42 503.05,-135.66 512.55,-140.36 513.41,-133.42"/>
</a>
</g>
</g>
<!-- Node3 -->
<g id="Node000003" class="node">
<title>Node3</title>
<g id="a_Node000003"><a xlink:href="interfacefiftyone_1_1caching_1_1_cache.html" target="_top" xlink:title="Base cache interface which declares only the get method and the types of key and value stored in the ...">
<polygon fill="white" stroke="#666666" points="247.5,-184 120.5,-184 120.5,-154 247.5,-154 247.5,-184"/>
<text text-anchor="start" x="128.5" y="-172" font-family="Helvetica,sans-Serif" font-size="10.00">fiftyone.caching.Cache</text>
<text text-anchor="middle" x="184" y="-161" font-family="Helvetica,sans-Serif" font-size="10.00">&lt; K, V &gt;</text>
</a>
</g>
</g>
<!-- Node3&#45;&gt;Node2 -->
<g id="edge2_Node000002_Node000003" class="edge">
<title>Node3&#45;&gt;Node2</title>
<g id="a_edge2_Node000002_Node000003"><a xlink:title=" ">
<path fill="none" stroke="#63b8ff" d="M257.61,-156.6C290.13,-151.05 328.33,-144.53 360.59,-139.02"/>
<polygon fill="#63b8ff" stroke="#63b8ff" points="256.98,-153.16 247.71,-158.29 258.16,-160.06 256.98,-153.16"/>
</a>
</g>
</g>
<!-- Node7 -->
<g id="Node000007" class="node">
<title>Node7</title>
<g id="a_Node000007"><a xlink:href="interfacefiftyone_1_1caching_1_1_put_cache.html" target="_top" xlink:title="A cache that supports a thread safe put method for inserting to cache.">
<polygon fill="white" stroke="#666666" points="503.5,-190 360.5,-190 360.5,-160 503.5,-160 503.5,-190"/>
<text text-anchor="start" x="368.5" y="-178" font-family="Helvetica,sans-Serif" font-size="10.00">fiftyone.caching.PutCache</text>
<text text-anchor="middle" x="432" y="-167" font-family="Helvetica,sans-Serif" font-size="10.00">&lt; K, V &gt;</text>
</a>
</g>
</g>
<!-- Node3&#45;&gt;Node7 -->
<g id="edge10_Node000007_Node000003" class="edge">
<title>Node3&#45;&gt;Node7</title>
<g id="a_edge10_Node000007_Node000003"><a xlink:title=" ">
<path fill="none" stroke="#63b8ff" d="M257.99,-170.78C290.28,-171.57 328.11,-172.49 360.14,-173.27"/>
<polygon fill="#63b8ff" stroke="#63b8ff" points="257.8,-167.27 247.71,-170.53 257.62,-174.27 257.8,-167.27"/>
</a>
</g>
</g>
<!-- Node4 -->
<g id="Node000004" class="node">
<title>Node4</title>
<g id="a_Node000004"><a xlink:title=" ">
<polygon fill="white" stroke="#bfbfbf" points="65,-147.5 0,-147.5 0,-128.5 65,-128.5 65,-147.5"/>
<text text-anchor="middle" x="32.5" y="-135.5" font-family="Helvetica,sans-Serif" font-size="10.00">Closeable</text>
</a>
</g>
</g>
<!-- Node4&#45;&gt;Node2 -->
<g id="edge4_Node000002_Node000004" class="edge">
<title>Node4&#45;&gt;Node2</title>
<g id="a_edge4_Node000002_Node000004"><a xlink:title=" ">
<path fill="none" stroke="#63b8ff" d="M75.33,-136.84C143.24,-134.96 278.2,-131.23 360.95,-128.94"/>
<polygon fill="#63b8ff" stroke="#63b8ff" points="74.92,-133.35 65.02,-137.13 75.12,-140.35 74.92,-133.35"/>
</a>
</g>
</g>
<!-- Node4&#45;&gt;Node3 -->
<g id="edge3_Node000003_Node000004" class="edge">
<title>Node4&#45;&gt;Node3</title>
<g id="a_edge3_Node000003_Node000004"><a xlink:title=" ">
<path fill="none" stroke="#63b8ff" d="M75.02,-146.61C89.02,-149.51 104.97,-152.82 120.24,-155.99"/>
<polygon fill="#63b8ff" stroke="#63b8ff" points="75.71,-143.18 65.21,-144.57 74.29,-150.03 75.71,-143.18"/>
</a>
</g>
</g>
<!-- Node5 -->
<g id="Node000005" class="node">
<title>Node5</title>
<g id="a_Node000005"><a xlink:title=" ">
<polygon fill="white" stroke="#666666" points="266,-54 102,-54 102,-24 266,-24 266,-54"/>
<text text-anchor="start" x="110" y="-42" font-family="Helvetica,sans-Serif" font-size="10.00">fiftyone.caching.LruCache</text>
<text text-anchor="middle" x="184" y="-31" font-family="Helvetica,sans-Serif" font-size="10.00">Base&lt; K, V &gt;.CacheLinkedList</text>
</a>
</g>
</g>
<!-- Node5&#45;&gt;Node2 -->
<g id="edge5_Node000002_Node000005" class="edge">
<title>Node5&#45;&gt;Node2</title>
<g id="a_edge5_Node000002_Node000005"><a xlink:title=" ">
<path fill="none" stroke="#9a32cd" stroke-dasharray="5,2" d="M236.93,-57.48C267.52,-68.38 306.97,-82.45 342,-95 357.3,-100.48 374.08,-106.51 388.9,-111.84"/>
<polygon fill="#9a32cd" stroke="#9a32cd" points="237.92,-54.12 227.32,-54.06 235.57,-60.72 237.92,-54.12"/>
</a>
</g>
<text text-anchor="start" x="287" y="-100.5" font-family="Helvetica,sans-Serif" font-size="10.00" fill="grey">linkedLists</text>
</g>
<!-- Node6 -->
<g id="Node000006" class="node">
<title>Node6</title>
<g id="a_Node000006"><a xlink:title=" ">
<polygon fill="white" stroke="#666666" points="504,-30 360,-30 360,0 504,0 504,-30"/>
<text text-anchor="start" x="368" y="-18" font-family="Helvetica,sans-Serif" font-size="10.00">fiftyone.caching.LruCache</text>
<text text-anchor="middle" x="432" y="-7" font-family="Helvetica,sans-Serif" font-size="10.00">Base&lt; K, V &gt;.CachedItem</text>
</a>
</g>
</g>
<!-- Node5&#45;&gt;Node6 -->
<g id="edge7_Node000006_Node000005" class="edge">
<title>Node5&#45;&gt;Node6</title>
<g id="a_edge7_Node000006_Node000005"><a xlink:title=" ">
<path fill="none" stroke="#9a32cd" stroke-dasharray="5,2" d="M228.26,-20.12C245.28,-13.64 265.23,-7.22 284,-4 308.47,0.2 335.5,-0.36 359.64,-2.68"/>
<polygon fill="#9a32cd" stroke="#9a32cd" points="226.62,-17 218.6,-23.91 229.18,-23.51 226.62,-17"/>
</a>
</g>
<text text-anchor="start" x="305" y="-9.5" font-family="Helvetica,sans-Serif" font-size="10.00" fill="grey">list</text>
</g>
<!-- Node6&#45;&gt;Node5 -->
<g id="edge6_Node000005_Node000006" class="edge">
<title>Node6&#45;&gt;Node5</title>
<g id="a_edge6_Node000005_Node000006"><a xlink:title=" ">
<path fill="none" stroke="#9a32cd" stroke-dasharray="5,2" d="M349.66,-22.94C322.84,-25.55 293.04,-28.46 266.23,-31.07"/>
<polygon fill="#9a32cd" stroke="#9a32cd" points="350.16,-26.4 359.77,-21.95 349.48,-19.44 350.16,-26.4"/>
</a>
</g>
<text text-anchor="start" x="304" y="-51" font-family="Helvetica,sans-Serif" font-size="10.00" fill="grey">first</text>
<text text-anchor="start" x="304" y="-36" font-family="Helvetica,sans-Serif" font-size="10.00" fill="grey">last</text>
</g>
<!-- Node6&#45;&gt;Node6 -->
<g id="edge8_Node000006_Node000006" class="edge">
<title>Node6&#45;&gt;Node6</title>
<g id="a_edge8_Node000006_Node000006"><a xlink:title=" ">
<path fill="none" stroke="#9a32cd" stroke-dasharray="5,2" d="M416.25,-40.6C418.4,-44.97 423.65,-48 432,-48 446.06,-48 451.34,-39.41 447.82,-30.28"/>
<polygon fill="#9a32cd" stroke="#9a32cd" points="419.74,-40.25 416.18,-30.28 412.74,-40.3 419.74,-40.25"/>
</a>
</g>
<text text-anchor="start" x="411" y="-69" font-family="Helvetica,sans-Serif" font-size="10.00" fill="grey">next</text>
<text text-anchor="start" x="411" y="-54" font-family="Helvetica,sans-Serif" font-size="10.00" fill="grey">previous</text>
</g>
<!-- Node7&#45;&gt;Node1 -->
<g id="edge9_Node000001_Node000007" class="edge">
<title>Node7&#45;&gt;Node1</title>
<g id="a_edge9_Node000001_Node000007"><a xlink:title=" ">
<path fill="none" stroke="#63b8ff" d="M513.63,-164.16C522.61,-162.96 531.75,-161.73 540.69,-160.53"/>
<polygon fill="#63b8ff" stroke="#63b8ff" points="513.03,-160.71 503.58,-165.51 513.96,-167.65 513.03,-160.71"/>
</a>
</g>
</g>
</g>
</svg>
