<?xml version="1.0" encoding="UTF-8" standalone="no"?>
<!DOCTYPE svg PUBLIC "-//W3C//DTD SVG 1.1//EN"
 "http://www.w3.org/Graphics/SVG/1.1/DTD/svg11.dtd">
<!-- Generated by graphviz version 2.43.0 (0)
 -->
<!-- Title: fiftyone.pipeline.engines.fiftyone.flowelements.ShareUsageElement Pages: 1 -->
<svg width="1965pt" height="252pt"
 viewBox="0.00 0.00 1965.00 252.00" xmlns="http://www.w3.org/2000/svg" xmlns:xlink="http://www.w3.org/1999/xlink">
<g id="graph0" class="graph" transform="scale(1 1) rotate(0) translate(4 248)">
<title>fiftyone.pipeline.engines.fiftyone.flowelements.ShareUsageElement</title>
<!-- Node1 -->
<g id="Node000001" class="node">
<title>Node1</title>
<g id="a_Node000001"><a xlink:title="Flow element that sends usage data to 51Degrees for analysis.">
<polygon fill="#999999" stroke="#666666" points="1957,-78 1709,-78 1709,-48 1957,-48 1957,-78"/>
<text text-anchor="start" x="1717" y="-66" font-family="Helvetica,sans-Serif" font-size="10.00">fiftyone.pipeline.engines.fiftyone.flowelements.</text>
<text text-anchor="middle" x="1833" y="-55" font-family="Helvetica,sans-Serif" font-size="10.00">ShareUsageElement</text>
</a>
</g>
</g>
<!-- Node2 -->
<g id="Node000002" class="node">
<title>Node2</title>
<g id="a_Node000002"><a xlink:href="classfiftyone_1_1pipeline_1_1engines_1_1fiftyone_1_1flowelements_1_1_share_usage_base.html" target="_top" xlink:title="Abstract base class for ShareUsage elements.">
<polygon fill="white" stroke="#666666" points="1600,-131 1352,-131 1352,-101 1600,-101 1600,-131"/>
<text text-anchor="start" x="1360" y="-119" font-family="Helvetica,sans-Serif" font-size="10.00">fiftyone.pipeline.engines.fiftyone.flowelements.</text>
<text text-anchor="middle" x="1476" y="-108" font-family="Helvetica,sans-Serif" font-size="10.00">ShareUsageBase</text>
</a>
</g>
</g>
<!-- Node2&#45;&gt;Node1 -->
<g id="edge1_Node000001_Node000002" class="edge">
<title>Node2&#45;&gt;Node1</title>
<g id="a_edge1_Node000001_Node000002"><a xlink:title=" ">
<path fill="none" stroke="#63b8ff" d="M1587.76,-99.46C1633.65,-92.61 1686.5,-84.72 1731.28,-78.04"/>
<polygon fill="#63b8ff" stroke="#63b8ff" points="1587.15,-96.02 1577.78,-100.95 1588.19,-102.94 1587.15,-96.02"/>
</a>
</g>
</g>
<!-- Node3 -->
<g id="Node000003" class="node">
<title>Node3</title>
<g id="a_Node000003"><a xlink:href="classfiftyone_1_1pipeline_1_1core_1_1flowelements_1_1_flow_element_base.html" target="_top" xlink:title="Provides a base class from which authors may create new FlowElements.">
<polygon fill="white" stroke="#666666" points="1315,-147 1124,-147 1124,-95 1315,-95 1315,-147"/>
<text text-anchor="start" x="1132" y="-135" font-family="Helvetica,sans-Serif" font-size="10.00">fiftyone.pipeline.core.flowelements.</text>
<text text-anchor="start" x="1132" y="-124" font-family="Helvetica,sans-Serif" font-size="10.00">FlowElementBase&lt; TData extends</text>
<text text-anchor="start" x="1132" y="-113" font-family="Helvetica,sans-Serif" font-size="10.00"> ElementData, TProperty extends</text>
<text text-anchor="middle" x="1219.5" y="-102" font-family="Helvetica,sans-Serif" font-size="10.00"> ElementPropertyMetaData &gt;</text>
</a>
</g>
</g>
<!-- Node3&#45;&gt;Node2 -->
<g id="edge2_Node000002_Node000003" class="edge">
<title>Node3&#45;&gt;Node2</title>
<g id="a_edge2_Node000002_Node000003"><a xlink:title=" ">
<path fill="none" stroke="#63b8ff" d="M1325.37,-118.94C1334.04,-118.77 1342.85,-118.6 1351.64,-118.42"/>
<polygon fill="#63b8ff" stroke="#63b8ff" points="1325.2,-115.44 1315.27,-119.14 1325.33,-122.44 1325.2,-115.44"/>
</a>
</g>
</g>
<!-- Node4 -->
<g id="Node000004" class="node">
<title>Node4</title>
<g id="a_Node000004"><a xlink:href="interfacefiftyone_1_1pipeline_1_1core_1_1flowelements_1_1_flow_element.html" target="_top" xlink:title=" ">
<polygon fill="white" stroke="#666666" points="1036,-173 845,-173 845,-143 1036,-143 1036,-173"/>
<text text-anchor="start" x="853" y="-161" font-family="Helvetica,sans-Serif" font-size="10.00">fiftyone.pipeline.core.flowelements.</text>
<text text-anchor="middle" x="940.5" y="-150" font-family="Helvetica,sans-Serif" font-size="10.00">FlowElement&lt; TData, TProperty &gt;</text>
</a>
</g>
</g>
<!-- Node4&#45;&gt;Node3 -->
<g id="edge3_Node000003_Node000004" class="edge">
<title>Node4&#45;&gt;Node3</title>
<g id="a_edge3_Node000003_Node000004"><a xlink:title=" ">
<path fill="none" stroke="#63b8ff" d="M1046.13,-144.02C1071.67,-140.61 1098.86,-136.98 1123.9,-133.64"/>
<polygon fill="#63b8ff" stroke="#63b8ff" points="1045.5,-140.58 1036.05,-145.37 1046.43,-147.52 1045.5,-140.58"/>
</a>
</g>
</g>
<!-- Node5 -->
<g id="Node000005" class="node">
<title>Node5</title>
<g id="a_Node000005"><a xlink:href="interfacefiftyone_1_1pipeline_1_1core_1_1flowelements_1_1_flow_element.html" target="_top" xlink:title="A component that processes a FlowData (by examining its evidence, or by examining data processed by o...">
<polygon fill="white" stroke="#666666" points="697,-193.5 444,-193.5 444,-152.5 697,-152.5 697,-193.5"/>
<text text-anchor="start" x="452" y="-181.5" font-family="Helvetica,sans-Serif" font-size="10.00">fiftyone.pipeline.core.flowelements.</text>
<text text-anchor="start" x="452" y="-170.5" font-family="Helvetica,sans-Serif" font-size="10.00">FlowElement&lt; TData extends ElementData,</text>
<text text-anchor="middle" x="570.5" y="-159.5" font-family="Helvetica,sans-Serif" font-size="10.00"> TProperty extends ElementPropertyMetaData &gt;</text>
</a>
</g>
</g>
<!-- Node5&#45;&gt;Node4 -->
<g id="edge4_Node000004_Node000005" class="edge">
<title>Node5&#45;&gt;Node4</title>
<g id="a_edge4_Node000004_Node000005"><a xlink:title=" ">
<path fill="none" stroke="orange" stroke-dasharray="5,2" d="M707.12,-167.47C752.92,-165.61 803.03,-163.56 844.95,-161.85"/>
<polygon fill="orange" stroke="orange" points="706.96,-163.98 697.12,-167.88 707.25,-170.97 706.96,-163.98"/>
</a>
</g>
<text text-anchor="start" x="718" y="-171.5" font-family="Helvetica,sans-Serif" font-size="10.00" fill="grey">&lt; TData, TProperty &gt;</text>
</g>
<!-- Node6 -->
<g id="Node000006" class="node">
<title>Node6</title>
<g id="a_Node000006"><a xlink:title=" ">
<polygon fill="white" stroke="#bfbfbf" points="324,-184.5 237,-184.5 237,-165.5 324,-165.5 324,-184.5"/>
<text text-anchor="middle" x="280.5" y="-172.5" font-family="Helvetica,sans-Serif" font-size="10.00">AutoCloseable</text>
</a>
</g>
</g>
<!-- Node6&#45;&gt;Node5 -->
<g id="edge5_Node000005_Node000006" class="edge">
<title>Node6&#45;&gt;Node5</title>
<g id="a_edge5_Node000005_Node000006"><a xlink:title=" ">
<path fill="none" stroke="#63b8ff" d="M334.37,-174.63C365.15,-174.42 405.37,-174.14 443.82,-173.87"/>
<polygon fill="#63b8ff" stroke="#63b8ff" points="334.28,-171.13 324.31,-174.7 334.33,-178.13 334.28,-171.13"/>
</a>
</g>
</g>
<!-- Node7 -->
<g id="Node000007" class="node">
<title>Node7</title>
<g id="a_Node000007"><a xlink:href="interfacefiftyone_1_1pipeline_1_1core_1_1data_1_1_element_data.html" target="_top" xlink:title="Represents property values that have be determined by a specific FlowElement based on the supplied ev...">
<polygon fill="white" stroke="#666666" points="354,-244 207,-244 207,-214 354,-214 354,-244"/>
<text text-anchor="start" x="215" y="-232" font-family="Helvetica,sans-Serif" font-size="10.00">fiftyone.pipeline.core.data.</text>
<text text-anchor="middle" x="280.5" y="-221" font-family="Helvetica,sans-Serif" font-size="10.00">ElementData</text>
</a>
</g>
</g>
<!-- Node7&#45;&gt;Node3 -->
<g id="edge11_Node000003_Node000007" class="edge">
<title>Node7&#45;&gt;Node3</title>
<g id="a_edge11_Node000003_Node000007"><a xlink:title=" ">
<path fill="none" stroke="orange" stroke-dasharray="5,2" d="M364.33,-231.09C504.22,-233.01 795.56,-230.06 1036,-182 1075.97,-174.01 1119.29,-159.78 1153.69,-147.08"/>
<polygon fill="orange" stroke="orange" points="364.17,-227.58 354.12,-230.93 364.06,-234.58 364.17,-227.58"/>
</a>
</g>
<text text-anchor="start" x="756" y="-226.5" font-family="Helvetica,sans-Serif" font-size="10.00" fill="grey">TData</text>
</g>
<!-- Node7&#45;&gt;Node5 -->
<g id="edge6_Node000005_Node000007" class="edge">
<title>Node7&#45;&gt;Node5</title>
<g id="a_edge6_Node000005_Node000007"><a xlink:title=" ">
<path fill="none" stroke="orange" stroke-dasharray="5,2" d="M358.32,-211.82C362.94,-210.85 367.53,-209.9 372,-209 398.14,-203.73 426.29,-198.4 452.92,-193.51"/>
<polygon fill="orange" stroke="orange" points="357.22,-208.47 348.16,-213.97 358.67,-215.32 357.22,-208.47"/>
</a>
</g>
<text text-anchor="start" x="384" y="-214.5" font-family="Helvetica,sans-Serif" font-size="10.00" fill="grey">TData</text>
</g>
<!-- Node8 -->
<g id="Node000008" class="node">
<title>Node8</title>
<g id="a_Node000008"><a xlink:href="interfacefiftyone_1_1pipeline_1_1core_1_1data_1_1_data.html" target="_top" xlink:title="Represents a collection of property values.">
<polygon fill="white" stroke="#666666" points="170,-238.5 0,-238.5 0,-219.5 170,-219.5 170,-238.5"/>
<text text-anchor="middle" x="85" y="-226.5" font-family="Helvetica,sans-Serif" font-size="10.00">fiftyone.pipeline.core.data.Data</text>
</a>
</g>
</g>
<!-- Node8&#45;&gt;Node7 -->
<g id="edge7_Node000007_Node000008" class="edge">
<title>Node8&#45;&gt;Node7</title>
<g id="a_edge7_Node000007_Node000008"><a xlink:title=" ">
<path fill="none" stroke="#63b8ff" d="M180.11,-229C189.07,-229 198.06,-229 206.77,-229"/>
<polygon fill="#63b8ff" stroke="#63b8ff" points="180.03,-225.5 170.03,-229 180.03,-232.5 180.03,-225.5"/>
</a>
</g>
</g>
<!-- Node9 -->
<g id="Node000009" class="node">
<title>Node9</title>
<g id="a_Node000009"><a xlink:href="interfacefiftyone_1_1pipeline_1_1core_1_1data_1_1_element_property_meta_data.html" target="_top" xlink:title="Defines details of a property that can be returned by a FlowElement.">
<polygon fill="white" stroke="#666666" points="354,-136 207,-136 207,-106 354,-106 354,-136"/>
<text text-anchor="start" x="215" y="-124" font-family="Helvetica,sans-Serif" font-size="10.00">fiftyone.pipeline.core.data.</text>
<text text-anchor="middle" x="280.5" y="-113" font-family="Helvetica,sans-Serif" font-size="10.00">ElementPropertyMetaData</text>
</a>
</g>
</g>
<!-- Node9&#45;&gt;Node3 -->
<g id="edge12_Node000003_Node000009" class="edge">
<title>Node9&#45;&gt;Node3</title>
<g id="a_edge12_Node000003_Node000009"><a xlink:title=" ">
<path fill="none" stroke="orange" stroke-dasharray="5,2" d="M364.36,-121C538.26,-121 940.33,-121 1123.96,-121"/>
<polygon fill="orange" stroke="orange" points="364.25,-117.5 354.25,-121 364.25,-124.5 364.25,-117.5"/>
</a>
</g>
<text text-anchor="start" x="747" y="-126.5" font-family="Helvetica,sans-Serif" font-size="10.00" fill="grey">TProperty</text>
</g>
<!-- Node9&#45;&gt;Node5 -->
<g id="edge8_Node000005_Node000009" class="edge">
<title>Node9&#45;&gt;Node5</title>
<g id="a_edge8_Node000005_Node000009"><a xlink:title=" ">
<path fill="none" stroke="orange" stroke-dasharray="5,2" d="M364.11,-135.92C392.71,-141.08 425.28,-146.96 455.92,-152.49"/>
<polygon fill="orange" stroke="orange" points="364.64,-132.45 354.17,-134.12 363.39,-139.34 364.64,-132.45"/>
</a>
</g>
<text text-anchor="start" x="375" y="-152.5" font-family="Helvetica,sans-Serif" font-size="10.00" fill="grey">TProperty</text>
</g>
<!-- Node10 -->
<g id="Node000010" class="node">
<title>Node10</title>
<g id="a_Node000010"><a xlink:href="interfacefiftyone_1_1pipeline_1_1core_1_1typed_1_1_typed_key.html" target="_top" xlink:title=" ">
<polygon fill="white" stroke="#666666" points="1017,-82 864,-82 864,-52 1017,-52 1017,-82"/>
<text text-anchor="start" x="872" y="-70" font-family="Helvetica,sans-Serif" font-size="10.00">fiftyone.pipeline.core.typed.</text>
<text text-anchor="middle" x="940.5" y="-59" font-family="Helvetica,sans-Serif" font-size="10.00">TypedKey&lt; TData &gt;</text>
</a>
</g>
</g>
<!-- Node10&#45;&gt;Node3 -->
<g id="edge9_Node000003_Node000010" class="edge">
<title>Node10&#45;&gt;Node3</title>
<g id="a_edge9_Node000003_Node000010"><a xlink:title=" ">
<path fill="none" stroke="#9a32cd" stroke-dasharray="5,2" d="M1027.17,-68.41C1052.76,-70.13 1080.72,-73.3 1106,-79 1114.37,-80.89 1115.98,-82.95 1124,-86 1131.69,-88.92 1139.74,-91.94 1147.76,-94.94"/>
<polygon fill="#9a32cd" stroke="#9a32cd" points="1027.32,-64.91 1017.12,-67.8 1026.89,-71.9 1027.32,-64.91"/>
</a>
</g>
<text text-anchor="start" x="1057" y="-84.5" font-family="Helvetica,sans-Serif" font-size="10.00" fill="grey">typedKey</text>
</g>
<!-- Node11 -->
<g id="Node000011" class="node">
<title>Node11</title>
<g id="a_Node000011"><a xlink:href="interfacefiftyone_1_1pipeline_1_1core_1_1typed_1_1_typed_key.html" target="_top" xlink:title="Holds a name and a type to allow for type safe operations on named values.">
<polygon fill="white" stroke="#666666" points="647,-82 494,-82 494,-52 647,-52 647,-82"/>
<text text-anchor="start" x="502" y="-70" font-family="Helvetica,sans-Serif" font-size="10.00">fiftyone.pipeline.core.typed.</text>
<text text-anchor="middle" x="570.5" y="-59" font-family="Helvetica,sans-Serif" font-size="10.00">TypedKey&lt; T &gt;</text>
</a>
</g>
</g>
<!-- Node11&#45;&gt;Node10 -->
<g id="edge10_Node000010_Node000011" class="edge">
<title>Node11&#45;&gt;Node10</title>
<g id="a_edge10_Node000010_Node000011"><a xlink:title=" ">
<path fill="none" stroke="orange" stroke-dasharray="5,2" d="M657.54,-67C720.04,-67 803.83,-67 863.79,-67"/>
<polygon fill="orange" stroke="orange" points="657.3,-63.5 647.3,-67 657.3,-70.5 657.3,-63.5"/>
</a>
</g>
<text text-anchor="start" x="745" y="-72.5" font-family="Helvetica,sans-Serif" font-size="10.00" fill="grey">&lt; TData &gt;</text>
</g>
<!-- Node12 -->
<g id="Node000012" class="node">
<title>Node12</title>
<g id="a_Node000012"><a xlink:href="interfacefiftyone_1_1pipeline_1_1engines_1_1services_1_1_http_client.html" target="_top" xlink:title="Interface used by the DataUpdateService to process HTTP requests.">
<polygon fill="white" stroke="#666666" points="1567.5,-78 1384.5,-78 1384.5,-48 1567.5,-48 1567.5,-78"/>
<text text-anchor="start" x="1392.5" y="-66" font-family="Helvetica,sans-Serif" font-size="10.00">fiftyone.pipeline.engines.services.</text>
<text text-anchor="middle" x="1476" y="-55" font-family="Helvetica,sans-Serif" font-size="10.00">HttpClient</text>
</a>
</g>
</g>
<!-- Node12&#45;&gt;Node1 -->
<g id="edge13_Node000001_Node000012" class="edge">
<title>Node12&#45;&gt;Node1</title>
<g id="a_edge13_Node000001_Node000012"><a xlink:title=" ">
<path fill="none" stroke="#9a32cd" stroke-dasharray="5,2" d="M1577.72,-63C1618.52,-63 1666.02,-63 1708.85,-63"/>
<polygon fill="#9a32cd" stroke="#9a32cd" points="1577.5,-59.5 1567.5,-63 1577.5,-66.5 1577.5,-59.5"/>
</a>
</g>
<text text-anchor="start" x="1630.5" y="-68.5" font-family="Helvetica,sans-Serif" font-size="10.00" fill="grey">httpClient</text>
</g>
<!-- Node13 -->
<g id="Node000013" class="node">
<title>Node13</title>
<g id="a_Node000013"><a xlink:href="interfacefiftyone_1_1pipeline_1_1core_1_1services_1_1_pipeline_service.html" target="_top" xlink:title="Service interface used by PipelineBuilder to hand out services to elements which required them.">
<polygon fill="white" stroke="#666666" points="1302.5,-77 1136.5,-77 1136.5,-47 1302.5,-47 1302.5,-77"/>
<text text-anchor="start" x="1144.5" y="-65" font-family="Helvetica,sans-Serif" font-size="10.00">fiftyone.pipeline.core.services.</text>
<text text-anchor="middle" x="1219.5" y="-54" font-family="Helvetica,sans-Serif" font-size="10.00">PipelineService</text>
</a>
</g>
</g>
<!-- Node13&#45;&gt;Node12 -->
<g id="edge14_Node000012_Node000013" class="edge">
<title>Node13&#45;&gt;Node12</title>
<g id="a_edge14_Node000012_Node000013"><a xlink:title=" ">
<path fill="none" stroke="#63b8ff" d="M1312.96,-62.36C1336.18,-62.45 1361.07,-62.55 1384.2,-62.64"/>
<polygon fill="#63b8ff" stroke="#63b8ff" points="1312.79,-58.86 1302.78,-62.32 1312.76,-65.86 1312.79,-58.86"/>
</a>
</g>
</g>
<!-- Node14 -->
<g id="Node000014" class="node">
<title>Node14</title>
<g id="a_Node000014"><a xlink:href="interfacefiftyone_1_1pipeline_1_1engines_1_1services_1_1_data_uploader.html" target="_top" xlink:title="provides an OutputStream to share usage">
<polygon fill="white" stroke="#666666" points="1567.5,-30 1384.5,-30 1384.5,0 1567.5,0 1567.5,-30"/>
<text text-anchor="start" x="1392.5" y="-18" font-family="Helvetica,sans-Serif" font-size="10.00">fiftyone.pipeline.engines.services.</text>
<text text-anchor="middle" x="1476" y="-7" font-family="Helvetica,sans-Serif" font-size="10.00">DataUploader</text>
</a>
</g>
</g>
<!-- Node14&#45;&gt;Node1 -->
<g id="edge15_Node000001_Node000014" class="edge">
<title>Node14&#45;&gt;Node1</title>
<g id="a_edge15_Node000001_Node000014"><a xlink:title=" ">
<path fill="none" stroke="#9a32cd" stroke-dasharray="5,2" d="M1577.62,-27.22C1613.43,-31.7 1654.04,-36.92 1691,-42 1704.61,-43.87 1718.94,-45.92 1733.05,-47.98"/>
<polygon fill="#9a32cd" stroke="#9a32cd" points="1578.01,-23.75 1567.65,-25.98 1577.14,-30.69 1578.01,-23.75"/>
</a>
</g>
<text text-anchor="start" x="1621.5" y="-47.5" font-family="Helvetica,sans-Serif" font-size="10.00" fill="grey">dataUploader</text>
</g>
</g>
</svg>
