<?xml version="1.0" encoding="UTF-8" standalone="no"?>
<!DOCTYPE svg PUBLIC "-//W3C//DTD SVG 1.1//EN"
 "http://www.w3.org/Graphics/SVG/1.1/DTD/svg11.dtd">
<!-- Generated by graphviz version 2.43.0 (0)
 -->
<!-- Title: fiftyone.pipeline.engines.flowelements.AspectEngineBuilderBase&lt; TBuilder extends AspectEngineBuilderBase&lt; TBuilder, TEngine, TEngine extends AspectEngine &gt; Pages: 1 -->
<svg width="3288pt" height="239pt"
 viewBox="0.00 0.00 3288.00 239.00" xmlns="http://www.w3.org/2000/svg" xmlns:xlink="http://www.w3.org/1999/xlink">
<g id="graph0" class="graph" transform="scale(1 1) rotate(0) translate(4 235)">
<title>fiftyone.pipeline.engines.flowelements.AspectEngineBuilderBase&lt; TBuilder extends AspectEngineBuilderBase&lt; TBuilder, TEngine, TEngine extends AspectEngine &gt;</title>
<!-- Node1 -->
<g id="Node000001" class="node">
<title>Node1</title>
<g id="a_Node000001"><a xlink:title="Abstract base class that exposes the common options that all 51Degrees engine builders should make us...">
<polygon fill="#999999" stroke="#666666" points="1323,-183 1114,-183 1114,-120 1323,-120 1323,-183"/>
<text text-anchor="start" x="1122" y="-171" font-family="Helvetica,sans-Serif" font-size="10.00">fiftyone.pipeline.engines.flowelements.</text>
<text text-anchor="start" x="1122" y="-160" font-family="Helvetica,sans-Serif" font-size="10.00">AspectEngineBuilderBase&lt; TBuilder</text>
<text text-anchor="start" x="1122" y="-149" font-family="Helvetica,sans-Serif" font-size="10.00"> extends AspectEngineBuilderBase</text>
<text text-anchor="start" x="1122" y="-138" font-family="Helvetica,sans-Serif" font-size="10.00">&lt; TBuilder, TEngine, TEngine extends</text>
<text text-anchor="middle" x="1218.5" y="-127" font-family="Helvetica,sans-Serif" font-size="10.00"> AspectEngine &gt;</text>
</a>
</g>
</g>
<!-- Node10 -->
<g id="Node000010" class="node">
<title>Node10</title>
<g id="a_Node000010"><a xlink:href="classfiftyone_1_1pipeline_1_1cloudrequestengine_1_1flowelements_1_1_cloud_request_engine_builder.html" target="_top" xlink:title="Builder for the CloudRequestEngine.">
<polygon fill="white" stroke="#666666" points="1816,-231 1515,-231 1515,-190 1816,-190 1816,-231"/>
<text text-anchor="start" x="1523" y="-219" font-family="Helvetica,sans-Serif" font-size="10.00">fiftyone.pipeline.cloudrequestengine.flowelements.</text>
<text text-anchor="start" x="1523" y="-208" font-family="Helvetica,sans-Serif" font-size="10.00">CloudRequestEngineBuilder&lt; CloudRequestEngineBuilder,</text>
<text text-anchor="middle" x="1665.5" y="-197" font-family="Helvetica,sans-Serif" font-size="10.00"> CloudRequestEngine &gt;</text>
</a>
</g>
</g>
<!-- Node1&#45;&gt;Node10 -->
<g id="edge11_Node000001_Node000010" class="edge">
<title>Node1&#45;&gt;Node10</title>
<g id="a_edge11_Node000001_Node000010"><a xlink:title=" ">
<path fill="none" stroke="#63b8ff" d="M1329.84,-185.3C1333.59,-186.09 1337.32,-186.83 1341,-187.5 1397.23,-197.7 1459.73,-203.43 1514.68,-206.63"/>
<polygon fill="#63b8ff" stroke="#63b8ff" points="1330.39,-181.84 1319.87,-183.07 1328.86,-188.67 1330.39,-181.84"/>
</a>
</g>
</g>
<!-- Node11 -->
<g id="Node000011" class="node">
<title>Node11</title>
<g id="a_Node000011"><a xlink:href="classfiftyone_1_1pipeline_1_1engines_1_1flowelements_1_1_aspect_engine_builder_base.html" target="_top" xlink:title=" ">
<polygon fill="white" stroke="#666666" points="1792,-172 1539,-172 1539,-131 1792,-131 1792,-172"/>
<text text-anchor="start" x="1547" y="-160" font-family="Helvetica,sans-Serif" font-size="10.00">fiftyone.pipeline.engines.flowelements.</text>
<text text-anchor="start" x="1547" y="-149" font-family="Helvetica,sans-Serif" font-size="10.00">AspectEngineBuilderBase&lt; CloudRequestEngine</text>
<text text-anchor="middle" x="1665.5" y="-138" font-family="Helvetica,sans-Serif" font-size="10.00">Builder, CloudRequestEngine &gt;</text>
</a>
</g>
</g>
<!-- Node1&#45;&gt;Node11 -->
<g id="edge12_Node000001_Node000011" class="edge">
<title>Node1&#45;&gt;Node11</title>
<g id="a_edge12_Node000001_Node000011"><a xlink:title=" ">
<path fill="none" stroke="orange" stroke-dasharray="5,2" d="M1333.6,-151.5C1396.32,-151.5 1474.26,-151.5 1538.73,-151.5"/>
<polygon fill="orange" stroke="orange" points="1333.27,-148 1323.27,-151.5 1333.27,-155 1333.27,-148"/>
</a>
</g>
<text text-anchor="start" x="1344" y="-172.5" font-family="Helvetica,sans-Serif" font-size="10.00" fill="grey">&lt; CloudRequestEngineBuilder,</text>
<text text-anchor="start" x="1344" y="-157.5" font-family="Helvetica,sans-Serif" font-size="10.00" fill="grey">   CloudRequestEngine &gt;</text>
</g>
<!-- Node12 -->
<g id="Node000012" class="node">
<title>Node12</title>
<g id="a_Node000012"><a xlink:href="classfiftyone_1_1pipeline_1_1engines_1_1flowelements_1_1_aspect_engine_builder_base.html" target="_top" xlink:title=" ">
<polygon fill="white" stroke="#666666" points="1770,-113 1561,-113 1561,-72 1770,-72 1770,-113"/>
<text text-anchor="start" x="1569" y="-101" font-family="Helvetica,sans-Serif" font-size="10.00">fiftyone.pipeline.engines.flowelements.</text>
<text text-anchor="start" x="1569" y="-90" font-family="Helvetica,sans-Serif" font-size="10.00">AspectEngineBuilderBase&lt; TBuilder,</text>
<text text-anchor="middle" x="1665.5" y="-79" font-family="Helvetica,sans-Serif" font-size="10.00"> TEngine &gt;</text>
</a>
</g>
</g>
<!-- Node1&#45;&gt;Node12 -->
<g id="edge13_Node000001_Node000012" class="edge">
<title>Node1&#45;&gt;Node12</title>
<g id="a_edge13_Node000001_Node000012"><a xlink:title=" ">
<path fill="none" stroke="orange" stroke-dasharray="5,2" d="M1333.28,-131.64C1335.87,-131.25 1338.45,-130.87 1341,-130.5 1414.31,-119.87 1497.3,-110.17 1560.87,-103.23"/>
<polygon fill="orange" stroke="orange" points="1332.52,-128.22 1323.17,-133.19 1333.59,-135.14 1332.52,-128.22"/>
</a>
</g>
<text text-anchor="start" x="1365" y="-136" font-family="Helvetica,sans-Serif" font-size="10.00" fill="grey">&lt; TBuilder, TEngine &gt;</text>
</g>
<!-- Node2 -->
<g id="Node000002" class="node">
<title>Node2</title>
<g id="a_Node000002"><a xlink:href="interfacefiftyone_1_1pipeline_1_1engines_1_1flowelements_1_1_aspect_engine.html" target="_top" xlink:title="AspectEngines are a subset of FlowElements.">
<polygon fill="white" stroke="#666666" points="1032,-172 787,-172 787,-131 1032,-131 1032,-172"/>
<text text-anchor="start" x="795" y="-160" font-family="Helvetica,sans-Serif" font-size="10.00">fiftyone.pipeline.engines.flowelements.</text>
<text text-anchor="start" x="795" y="-149" font-family="Helvetica,sans-Serif" font-size="10.00">AspectEngine&lt; TData extends AspectData,</text>
<text text-anchor="middle" x="909.5" y="-138" font-family="Helvetica,sans-Serif" font-size="10.00"> TProperty extends AspectPropertyMetaData &gt;</text>
</a>
</g>
</g>
<!-- Node2&#45;&gt;Node1 -->
<g id="edge1_Node000001_Node000002" class="edge">
<title>Node2&#45;&gt;Node1</title>
<g id="a_edge1_Node000001_Node000002"><a xlink:title=" ">
<path fill="none" stroke="orange" stroke-dasharray="5,2" d="M1042.44,-151.5C1066.27,-151.5 1090.81,-151.5 1113.7,-151.5"/>
<polygon fill="orange" stroke="orange" points="1042.28,-148 1032.28,-151.5 1042.28,-155 1042.28,-148"/>
</a>
</g>
<text text-anchor="start" x="1053" y="-157" font-family="Helvetica,sans-Serif" font-size="10.00" fill="grey">TEngine</text>
</g>
<!-- Node3 -->
<g id="Node000003" class="node">
<title>Node3</title>
<g id="a_Node000003"><a xlink:href="interfacefiftyone_1_1pipeline_1_1core_1_1flowelements_1_1_flow_element.html" target="_top" xlink:title="A component that processes a FlowData (by examining its evidence, or by examining data processed by o...">
<polygon fill="white" stroke="#666666" points="697,-172 444,-172 444,-131 697,-131 697,-172"/>
<text text-anchor="start" x="452" y="-160" font-family="Helvetica,sans-Serif" font-size="10.00">fiftyone.pipeline.core.flowelements.</text>
<text text-anchor="start" x="452" y="-149" font-family="Helvetica,sans-Serif" font-size="10.00">FlowElement&lt; TData extends ElementData,</text>
<text text-anchor="middle" x="570.5" y="-138" font-family="Helvetica,sans-Serif" font-size="10.00"> TProperty extends ElementPropertyMetaData &gt;</text>
</a>
</g>
</g>
<!-- Node3&#45;&gt;Node2 -->
<g id="edge2_Node000002_Node000003" class="edge">
<title>Node3&#45;&gt;Node2</title>
<g id="a_edge2_Node000002_Node000003"><a xlink:title=" ">
<path fill="none" stroke="#63b8ff" d="M707.47,-151.5C733.74,-151.5 761.11,-151.5 786.88,-151.5"/>
<polygon fill="#63b8ff" stroke="#63b8ff" points="707.47,-148 697.47,-151.5 707.47,-155 707.47,-148"/>
</a>
</g>
</g>
<!-- Node4 -->
<g id="Node000004" class="node">
<title>Node4</title>
<g id="a_Node000004"><a xlink:title=" ">
<polygon fill="white" stroke="#bfbfbf" points="324,-161 237,-161 237,-142 324,-142 324,-161"/>
<text text-anchor="middle" x="280.5" y="-149" font-family="Helvetica,sans-Serif" font-size="10.00">AutoCloseable</text>
</a>
</g>
</g>
<!-- Node4&#45;&gt;Node3 -->
<g id="edge3_Node000003_Node000004" class="edge">
<title>Node4&#45;&gt;Node3</title>
<g id="a_edge3_Node000003_Node000004"><a xlink:title=" ">
<path fill="none" stroke="#63b8ff" d="M334.37,-151.5C365.15,-151.5 405.37,-151.5 443.82,-151.5"/>
<polygon fill="#63b8ff" stroke="#63b8ff" points="334.31,-148 324.31,-151.5 334.31,-155 334.31,-148"/>
</a>
</g>
</g>
<!-- Node5 -->
<g id="Node000005" class="node">
<title>Node5</title>
<g id="a_Node000005"><a xlink:href="interfacefiftyone_1_1pipeline_1_1core_1_1data_1_1_element_data.html" target="_top" xlink:title="Represents property values that have be determined by a specific FlowElement based on the supplied ev...">
<polygon fill="white" stroke="#666666" points="354,-220.5 207,-220.5 207,-190.5 354,-190.5 354,-220.5"/>
<text text-anchor="start" x="215" y="-208.5" font-family="Helvetica,sans-Serif" font-size="10.00">fiftyone.pipeline.core.data.</text>
<text text-anchor="middle" x="280.5" y="-197.5" font-family="Helvetica,sans-Serif" font-size="10.00">ElementData</text>
</a>
</g>
</g>
<!-- Node5&#45;&gt;Node3 -->
<g id="edge4_Node000003_Node000005" class="edge">
<title>Node5&#45;&gt;Node3</title>
<g id="a_edge4_Node000003_Node000005"><a xlink:title=" ">
<path fill="none" stroke="orange" stroke-dasharray="5,2" d="M358.31,-188.27C362.94,-187.31 367.53,-186.38 372,-185.5 395.56,-180.87 420.76,-176.27 445.02,-172.01"/>
<polygon fill="orange" stroke="orange" points="357.21,-184.92 348.15,-190.4 358.65,-191.77 357.21,-184.92"/>
</a>
</g>
<text text-anchor="start" x="384" y="-191" font-family="Helvetica,sans-Serif" font-size="10.00" fill="grey">TData</text>
</g>
<!-- Node8 -->
<g id="Node000008" class="node">
<title>Node8</title>
<g id="a_Node000008"><a xlink:href="interfacefiftyone_1_1pipeline_1_1engines_1_1data_1_1_aspect_data.html" target="_top" xlink:title="Represents a specialized ElementData instance that is generated by an AspectEngine.">
<polygon fill="white" stroke="#666666" points="652.5,-225.5 488.5,-225.5 488.5,-195.5 652.5,-195.5 652.5,-225.5"/>
<text text-anchor="start" x="496.5" y="-213.5" font-family="Helvetica,sans-Serif" font-size="10.00">fiftyone.pipeline.engines.data.</text>
<text text-anchor="middle" x="570.5" y="-202.5" font-family="Helvetica,sans-Serif" font-size="10.00">AspectData</text>
</a>
</g>
</g>
<!-- Node5&#45;&gt;Node8 -->
<g id="edge8_Node000008_Node000005" class="edge">
<title>Node5&#45;&gt;Node8</title>
<g id="a_edge8_Node000008_Node000005"><a xlink:title=" ">
<path fill="none" stroke="#63b8ff" d="M364.44,-206.94C403.42,-207.62 449.73,-208.42 488.47,-209.09"/>
<polygon fill="#63b8ff" stroke="#63b8ff" points="364.23,-203.44 354.17,-206.76 364.11,-210.43 364.23,-203.44"/>
</a>
</g>
</g>
<!-- Node6 -->
<g id="Node000006" class="node">
<title>Node6</title>
<g id="a_Node000006"><a xlink:href="interfacefiftyone_1_1pipeline_1_1core_1_1data_1_1_data.html" target="_top" xlink:title="Represents a collection of property values.">
<polygon fill="white" stroke="#666666" points="170,-215 0,-215 0,-196 170,-196 170,-215"/>
<text text-anchor="middle" x="85" y="-203" font-family="Helvetica,sans-Serif" font-size="10.00">fiftyone.pipeline.core.data.Data</text>
</a>
</g>
</g>
<!-- Node6&#45;&gt;Node5 -->
<g id="edge5_Node000005_Node000006" class="edge">
<title>Node6&#45;&gt;Node5</title>
<g id="a_edge5_Node000005_Node000006"><a xlink:title=" ">
<path fill="none" stroke="#63b8ff" d="M180.11,-205.5C189.07,-205.5 198.06,-205.5 206.77,-205.5"/>
<polygon fill="#63b8ff" stroke="#63b8ff" points="180.03,-202 170.03,-205.5 180.03,-209 180.03,-202"/>
</a>
</g>
</g>
<!-- Node7 -->
<g id="Node000007" class="node">
<title>Node7</title>
<g id="a_Node000007"><a xlink:href="interfacefiftyone_1_1pipeline_1_1core_1_1data_1_1_element_property_meta_data.html" target="_top" xlink:title="Defines details of a property that can be returned by a FlowElement.">
<polygon fill="white" stroke="#666666" points="354,-112.5 207,-112.5 207,-82.5 354,-82.5 354,-112.5"/>
<text text-anchor="start" x="215" y="-100.5" font-family="Helvetica,sans-Serif" font-size="10.00">fiftyone.pipeline.core.data.</text>
<text text-anchor="middle" x="280.5" y="-89.5" font-family="Helvetica,sans-Serif" font-size="10.00">ElementPropertyMetaData</text>
</a>
</g>
</g>
<!-- Node7&#45;&gt;Node3 -->
<g id="edge6_Node000003_Node000007" class="edge">
<title>Node7&#45;&gt;Node3</title>
<g id="a_edge6_Node000003_Node000007"><a xlink:title=" ">
<path fill="none" stroke="orange" stroke-dasharray="5,2" d="M364.13,-112.99C394.02,-118.6 428.24,-125.01 460.07,-130.98"/>
<polygon fill="orange" stroke="orange" points="364.65,-109.53 354.17,-111.13 363.36,-116.41 364.65,-109.53"/>
</a>
</g>
<text text-anchor="start" x="375" y="-130" font-family="Helvetica,sans-Serif" font-size="10.00" fill="grey">TProperty</text>
</g>
<!-- Node9 -->
<g id="Node000009" class="node">
<title>Node9</title>
<g id="a_Node000009"><a xlink:href="interfacefiftyone_1_1pipeline_1_1engines_1_1data_1_1_aspect_property_meta_data.html" target="_top" xlink:title="Holds details about a property that can be returned by an AspectEngine.">
<polygon fill="white" stroke="#666666" points="652.5,-107.5 488.5,-107.5 488.5,-77.5 652.5,-77.5 652.5,-107.5"/>
<text text-anchor="start" x="496.5" y="-95.5" font-family="Helvetica,sans-Serif" font-size="10.00">fiftyone.pipeline.engines.data.</text>
<text text-anchor="middle" x="570.5" y="-84.5" font-family="Helvetica,sans-Serif" font-size="10.00">AspectPropertyMetaData</text>
</a>
</g>
</g>
<!-- Node7&#45;&gt;Node9 -->
<g id="edge10_Node000009_Node000007" class="edge">
<title>Node7&#45;&gt;Node9</title>
<g id="a_edge10_Node000009_Node000007"><a xlink:title=" ">
<path fill="none" stroke="#63b8ff" d="M364.44,-96.06C403.42,-95.38 449.73,-94.58 488.47,-93.91"/>
<polygon fill="#63b8ff" stroke="#63b8ff" points="364.11,-92.57 354.17,-96.24 364.23,-99.56 364.11,-92.57"/>
</a>
</g>
</g>
<!-- Node8&#45;&gt;Node2 -->
<g id="edge7_Node000002_Node000008" class="edge">
<title>Node8&#45;&gt;Node2</title>
<g id="a_edge7_Node000002_Node000008"><a xlink:title=" ">
<path fill="none" stroke="orange" stroke-dasharray="5,2" d="M662.54,-194.56C702.11,-187.63 748.95,-179.43 791.09,-172.06"/>
<polygon fill="orange" stroke="orange" points="661.9,-191.12 652.65,-196.29 663.1,-198.02 661.9,-191.12"/>
</a>
</g>
<text text-anchor="start" x="727" y="-190" font-family="Helvetica,sans-Serif" font-size="10.00" fill="grey">TData</text>
</g>
<!-- Node9&#45;&gt;Node2 -->
<g id="edge9_Node000002_Node000009" class="edge">
<title>Node9&#45;&gt;Node2</title>
<g id="a_edge9_Node000002_Node000009"><a xlink:title=" ">
<path fill="none" stroke="orange" stroke-dasharray="5,2" d="M662.54,-108.44C702.11,-115.37 748.95,-123.57 791.09,-130.94"/>
<polygon fill="orange" stroke="orange" points="663.1,-104.98 652.65,-106.71 661.9,-111.88 663.1,-104.98"/>
</a>
</g>
<text text-anchor="start" x="718" y="-132" font-family="Helvetica,sans-Serif" font-size="10.00" fill="grey">TProperty</text>
</g>
<!-- Node13 -->
<g id="Node000013" class="node">
<title>Node13</title>
<g id="a_Node000013"><a xlink:href="classfiftyone_1_1pipeline_1_1engines_1_1flowelements_1_1_cloud_aspect_engine_builder_base.html" target="_top" xlink:title="Abstract base class for all cloud engine builders.">
<polygon fill="white" stroke="#666666" points="2103,-165 1870,-165 1870,-102 2103,-102 2103,-165"/>
<text text-anchor="start" x="1878" y="-153" font-family="Helvetica,sans-Serif" font-size="10.00">fiftyone.pipeline.engines.flowelements.</text>
<text text-anchor="start" x="1878" y="-142" font-family="Helvetica,sans-Serif" font-size="10.00">CloudAspectEngineBuilderBase&lt;</text>
<text text-anchor="start" x="1878" y="-131" font-family="Helvetica,sans-Serif" font-size="10.00"> TBuilder extends CloudAspectEngineBuilder</text>
<text text-anchor="start" x="1878" y="-120" font-family="Helvetica,sans-Serif" font-size="10.00">Base&lt; TBuilder, TEngine, TEngine extends</text>
<text text-anchor="middle" x="1986.5" y="-109" font-family="Helvetica,sans-Serif" font-size="10.00"> CloudAspectEngine &gt;</text>
</a>
</g>
</g>
<!-- Node12&#45;&gt;Node13 -->
<g id="edge14_Node000012_Node000013" class="edge">
<title>Node12&#45;&gt;Node13</title>
<g id="a_edge14_Node000012_Node000013"><a xlink:title=" ">
<path fill="none" stroke="#63b8ff" d="M1780.25,-107.12C1809.31,-110.86 1840.59,-114.87 1869.75,-118.62"/>
<polygon fill="#63b8ff" stroke="#63b8ff" points="1780.43,-103.61 1770.07,-105.81 1779.54,-110.56 1780.43,-103.61"/>
</a>
</g>
</g>
<!-- Node14 -->
<g id="Node000014" class="node">
<title>Node14</title>
<g id="a_Node000014"><a xlink:href="classfiftyone_1_1pipeline_1_1engines_1_1flowelements_1_1_on_premise_aspect_engine_builder_base.html" target="_top" xlink:title="Abstract base class that exposes the common options that all 51Degrees on&#45;premise engine builders sho...">
<polygon fill="white" stroke="#666666" points="2120,-84 1853,-84 1853,-21 2120,-21 2120,-84"/>
<text text-anchor="start" x="1861" y="-72" font-family="Helvetica,sans-Serif" font-size="10.00">fiftyone.pipeline.engines.flowelements.</text>
<text text-anchor="start" x="1861" y="-61" font-family="Helvetica,sans-Serif" font-size="10.00">OnPremiseAspectEngineBuilderBase</text>
<text text-anchor="start" x="1861" y="-50" font-family="Helvetica,sans-Serif" font-size="10.00">&lt; TBuilder extends OnPremiseAspectEngineBuilder</text>
<text text-anchor="start" x="1861" y="-39" font-family="Helvetica,sans-Serif" font-size="10.00">Base&lt; TBuilder, TEngine, TEngine extends</text>
<text text-anchor="middle" x="1986.5" y="-28" font-family="Helvetica,sans-Serif" font-size="10.00"> OnPremiseAspectEngine &gt;</text>
</a>
</g>
</g>
<!-- Node12&#45;&gt;Node14 -->
<g id="edge15_Node000012_Node000014" class="edge">
<title>Node12&#45;&gt;Node14</title>
<g id="a_edge15_Node000012_Node000014"><a xlink:title=" ">
<path fill="none" stroke="#63b8ff" d="M1780.07,-78.26C1803.61,-75.31 1828.62,-72.17 1852.78,-69.14"/>
<polygon fill="#63b8ff" stroke="#63b8ff" points="1779.56,-74.8 1770.07,-79.51 1780.43,-81.74 1779.56,-74.8"/>
</a>
</g>
</g>
<!-- Node15 -->
<g id="Node000015" class="node">
<title>Node15</title>
<g id="a_Node000015"><a xlink:href="classfiftyone_1_1pipeline_1_1engines_1_1flowelements_1_1_on_premise_aspect_engine_builder_base.html" target="_top" xlink:title=" ">
<polygon fill="white" stroke="#666666" points="2480,-73 2271,-73 2271,-32 2480,-32 2480,-73"/>
<text text-anchor="start" x="2279" y="-61" font-family="Helvetica,sans-Serif" font-size="10.00">fiftyone.pipeline.engines.flowelements.</text>
<text text-anchor="start" x="2279" y="-50" font-family="Helvetica,sans-Serif" font-size="10.00">OnPremiseAspectEngineBuilderBase</text>
<text text-anchor="middle" x="2375.5" y="-39" font-family="Helvetica,sans-Serif" font-size="10.00">&lt; TBuilder, TEngine &gt;</text>
</a>
</g>
</g>
<!-- Node14&#45;&gt;Node15 -->
<g id="edge16_Node000014_Node000015" class="edge">
<title>Node14&#45;&gt;Node15</title>
<g id="a_edge16_Node000014_Node000015"><a xlink:title=" ">
<path fill="none" stroke="orange" stroke-dasharray="5,2" d="M2130.32,-52.5C2176.86,-52.5 2227.62,-52.5 2270.74,-52.5"/>
<polygon fill="orange" stroke="orange" points="2130.14,-49 2120.14,-52.5 2130.14,-56 2130.14,-49"/>
</a>
</g>
<text text-anchor="start" x="2141.5" y="-58" font-family="Helvetica,sans-Serif" font-size="10.00" fill="grey">&lt; TBuilder, TEngine &gt;</text>
</g>
<!-- Node16 -->
<g id="Node000016" class="node">
<title>Node16</title>
<g id="a_Node000016"><a xlink:href="classfiftyone_1_1pipeline_1_1engines_1_1flowelements_1_1_single_file_aspect_engine_builder_base.html" target="_top" xlink:title="Abstract base class that exposes the common options that all on&#45;premise engine builders using a singl...">
<polygon fill="white" stroke="#666666" points="2784,-84 2517,-84 2517,-21 2784,-21 2784,-84"/>
<text text-anchor="start" x="2525" y="-72" font-family="Helvetica,sans-Serif" font-size="10.00">fiftyone.pipeline.engines.flowelements.</text>
<text text-anchor="start" x="2525" y="-61" font-family="Helvetica,sans-Serif" font-size="10.00">SingleFileAspectEngineBuilderBase</text>
<text text-anchor="start" x="2525" y="-50" font-family="Helvetica,sans-Serif" font-size="10.00">&lt; TBuilder extends OnPremiseAspectEngineBuilder</text>
<text text-anchor="start" x="2525" y="-39" font-family="Helvetica,sans-Serif" font-size="10.00">Base&lt; TBuilder, TEngine, TEngine extends</text>
<text text-anchor="middle" x="2650.5" y="-28" font-family="Helvetica,sans-Serif" font-size="10.00"> OnPremiseAspectEngine &gt;</text>
</a>
</g>
</g>
<!-- Node15&#45;&gt;Node16 -->
<g id="edge17_Node000015_Node000016" class="edge">
<title>Node15&#45;&gt;Node16</title>
<g id="a_edge17_Node000015_Node000016"><a xlink:title=" ">
<path fill="none" stroke="#63b8ff" d="M2490.36,-52.5C2499.16,-52.5 2508.08,-52.5 2516.99,-52.5"/>
<polygon fill="#63b8ff" stroke="#63b8ff" points="2490.1,-49 2480.1,-52.5 2490.1,-56 2490.1,-49"/>
</a>
</g>
</g>
<!-- Node17 -->
<g id="Node000017" class="node">
<title>Node17</title>
<g id="a_Node000017"><a xlink:href="classfiftyone_1_1pipeline_1_1engines_1_1fiftyone_1_1flowelements_1_1_fifty_one_on_premise_aspect_engine_builder_base.html" target="_top" xlink:title="Abstract base class that exposes the common options that all 51Degrees on&#45;premise engine builders usi...">
<polygon fill="white" stroke="#666666" points="3280,-111.5 2935,-111.5 2935,-59.5 3280,-59.5 3280,-111.5"/>
<text text-anchor="start" x="2943" y="-99.5" font-family="Helvetica,sans-Serif" font-size="10.00">fiftyone.pipeline.engines.fiftyone.flowelements.</text>
<text text-anchor="start" x="2943" y="-88.5" font-family="Helvetica,sans-Serif" font-size="10.00">FiftyOneOnPremiseAspectEngineBuilderBase</text>
<text text-anchor="start" x="2943" y="-77.5" font-family="Helvetica,sans-Serif" font-size="10.00">&lt; TBuilder extends FiftyOneOnPremiseAspectEngineBuilder</text>
<text text-anchor="middle" x="3107.5" y="-66.5" font-family="Helvetica,sans-Serif" font-size="10.00">Base&lt; TBuilder, TEngine, TEngine extends FiftyOneAspectEngine &gt;</text>
</a>
</g>
</g>
<!-- Node16&#45;&gt;Node17 -->
<g id="edge18_Node000016_Node000017" class="edge">
<title>Node16&#45;&gt;Node17</title>
<g id="a_edge18_Node000016_Node000017"><a xlink:title=" ">
<path fill="none" stroke="#63b8ff" d="M2794.05,-62.84C2838.65,-66.07 2888.33,-69.68 2934.72,-73.04"/>
<polygon fill="#63b8ff" stroke="#63b8ff" points="2794.25,-59.34 2784.02,-62.11 2793.74,-66.33 2794.25,-59.34"/>
</a>
</g>
</g>
<!-- Node18 -->
<g id="Node000018" class="node">
<title>Node18</title>
<g id="a_Node000018"><a xlink:href="classfiftyone_1_1pipeline_1_1engines_1_1flowelements_1_1_single_file_aspect_engine_builder_base.html" target="_top" xlink:title=" ">
<polygon fill="white" stroke="#666666" points="3212,-41 3003,-41 3003,0 3212,0 3212,-41"/>
<text text-anchor="start" x="3011" y="-29" font-family="Helvetica,sans-Serif" font-size="10.00">fiftyone.pipeline.engines.flowelements.</text>
<text text-anchor="start" x="3011" y="-18" font-family="Helvetica,sans-Serif" font-size="10.00">SingleFileAspectEngineBuilderBase</text>
<text text-anchor="middle" x="3107.5" y="-7" font-family="Helvetica,sans-Serif" font-size="10.00">&lt; TBuilder, TEngine &gt;</text>
</a>
</g>
</g>
<!-- Node16&#45;&gt;Node18 -->
<g id="edge19_Node000016_Node000018" class="edge">
<title>Node16&#45;&gt;Node18</title>
<g id="a_edge19_Node000016_Node000018"><a xlink:title=" ">
<path fill="none" stroke="orange" stroke-dasharray="5,2" d="M2794.32,-42.46C2861.84,-37.71 2940.97,-32.14 3002.67,-27.8"/>
<polygon fill="orange" stroke="orange" points="2793.75,-38.99 2784.02,-43.18 2794.24,-45.97 2793.75,-38.99"/>
</a>
</g>
<text text-anchor="start" x="2805.5" y="-47" font-family="Helvetica,sans-Serif" font-size="10.00" fill="grey">&lt; TBuilder, TEngine &gt;</text>
</g>
</g>
</svg>
