<?xml version="1.0" encoding="UTF-8" standalone="no"?>
<!DOCTYPE svg PUBLIC "-//W3C//DTD SVG 1.1//EN"
 "http://www.w3.org/Graphics/SVG/1.1/DTD/svg11.dtd">
<!-- Generated by graphviz version 2.43.0 (0)
 -->
<!-- Title: fiftyone.pipeline.engines.fiftyone.flowelements.ShareUsageBuilderBase&lt; T extends ShareUsageBase &gt; Pages: 1 -->
<svg width="2600pt" height="146pt"
 viewBox="0.00 0.00 2600.00 146.00" xmlns="http://www.w3.org/2000/svg" xmlns:xlink="http://www.w3.org/1999/xlink">
<g id="graph0" class="graph" transform="scale(1 1) rotate(0) translate(4 142)">
<title>fiftyone.pipeline.engines.fiftyone.flowelements.ShareUsageBuilderBase&lt; T extends ShareUsageBase &gt;</title>
<!-- Node1 -->
<g id="Node000001" class="node">
<title>Node1</title>
<g id="a_Node000001"><a xlink:title="Abstract base class for ShareUsageElement builders.">
<polygon fill="#999999" stroke="#666666" points="1888,-84 1598,-84 1598,-54 1888,-54 1888,-84"/>
<text text-anchor="start" x="1606" y="-72" font-family="Helvetica,sans-Serif" font-size="10.00">fiftyone.pipeline.engines.fiftyone.flowelements.</text>
<text text-anchor="middle" x="1743" y="-61" font-family="Helvetica,sans-Serif" font-size="10.00">ShareUsageBuilderBase&lt; T extends ShareUsageBase &gt;</text>
</a>
</g>
</g>
<!-- Node10 -->
<g id="Node000010" class="node">
<title>Node10</title>
<g id="a_Node000010"><a xlink:href="classfiftyone_1_1pipeline_1_1engines_1_1fiftyone_1_1flowelements_1_1_share_usage_builder_base.html" target="_top" xlink:title=" ">
<polygon fill="white" stroke="#666666" points="2307,-84 2052,-84 2052,-54 2307,-54 2307,-84"/>
<text text-anchor="start" x="2060" y="-72" font-family="Helvetica,sans-Serif" font-size="10.00">fiftyone.pipeline.engines.fiftyone.flowelements.</text>
<text text-anchor="middle" x="2179.5" y="-61" font-family="Helvetica,sans-Serif" font-size="10.00">ShareUsageBuilderBase&lt; ShareUsageElement &gt;</text>
</a>
</g>
</g>
<!-- Node1&#45;&gt;Node10 -->
<g id="edge11_Node000001_Node000010" class="edge">
<title>Node1&#45;&gt;Node10</title>
<g id="a_edge11_Node000001_Node000010"><a xlink:title=" ">
<path fill="none" stroke="orange" stroke-dasharray="5,2" d="M1898.09,-69C1948.48,-69 2003.84,-69 2051.96,-69"/>
<polygon fill="orange" stroke="orange" points="1898.08,-65.5 1888.08,-69 1898.08,-72.5 1898.08,-65.5"/>
</a>
</g>
<text text-anchor="start" x="1909" y="-74.5" font-family="Helvetica,sans-Serif" font-size="10.00" fill="grey">&lt; ShareUsageElement &gt;</text>
</g>
<!-- Node2 -->
<g id="Node000002" class="node">
<title>Node2</title>
<g id="a_Node000002"><a xlink:href="classfiftyone_1_1pipeline_1_1engines_1_1fiftyone_1_1flowelements_1_1_share_usage_base.html" target="_top" xlink:title="Abstract base class for ShareUsage elements.">
<polygon fill="white" stroke="#666666" points="1549,-84 1301,-84 1301,-54 1549,-54 1549,-84"/>
<text text-anchor="start" x="1309" y="-72" font-family="Helvetica,sans-Serif" font-size="10.00">fiftyone.pipeline.engines.fiftyone.flowelements.</text>
<text text-anchor="middle" x="1425" y="-61" font-family="Helvetica,sans-Serif" font-size="10.00">ShareUsageBase</text>
</a>
</g>
</g>
<!-- Node2&#45;&gt;Node1 -->
<g id="edge1_Node000001_Node000002" class="edge">
<title>Node2&#45;&gt;Node1</title>
<g id="a_edge1_Node000001_Node000002"><a xlink:title=" ">
<path fill="none" stroke="orange" stroke-dasharray="5,2" d="M1559.28,-69C1572.08,-69 1585.09,-69 1597.98,-69"/>
<polygon fill="orange" stroke="orange" points="1559.08,-65.5 1549.08,-69 1559.08,-72.5 1559.08,-65.5"/>
</a>
</g>
<text text-anchor="start" x="1570.5" y="-74.5" font-family="Helvetica,sans-Serif" font-size="10.00" fill="grey">T</text>
</g>
<!-- Node3 -->
<g id="Node000003" class="node">
<title>Node3</title>
<g id="a_Node000003"><a xlink:href="classfiftyone_1_1pipeline_1_1core_1_1flowelements_1_1_flow_element_base.html" target="_top" xlink:title="Provides a base class from which authors may create new FlowElements.">
<polygon fill="white" stroke="#666666" points="1264,-95 1073,-95 1073,-43 1264,-43 1264,-95"/>
<text text-anchor="start" x="1081" y="-83" font-family="Helvetica,sans-Serif" font-size="10.00">fiftyone.pipeline.core.flowelements.</text>
<text text-anchor="start" x="1081" y="-72" font-family="Helvetica,sans-Serif" font-size="10.00">FlowElementBase&lt; TData extends</text>
<text text-anchor="start" x="1081" y="-61" font-family="Helvetica,sans-Serif" font-size="10.00"> ElementData, TProperty extends</text>
<text text-anchor="middle" x="1168.5" y="-50" font-family="Helvetica,sans-Serif" font-size="10.00"> ElementPropertyMetaData &gt;</text>
</a>
</g>
</g>
<!-- Node3&#45;&gt;Node2 -->
<g id="edge2_Node000002_Node000003" class="edge">
<title>Node3&#45;&gt;Node2</title>
<g id="a_edge2_Node000002_Node000003"><a xlink:title=" ">
<path fill="none" stroke="#63b8ff" d="M1274.37,-69C1283.04,-69 1291.85,-69 1300.64,-69"/>
<polygon fill="#63b8ff" stroke="#63b8ff" points="1274.27,-65.5 1264.27,-69 1274.27,-72.5 1274.27,-65.5"/>
</a>
</g>
</g>
<!-- Node4 -->
<g id="Node000004" class="node">
<title>Node4</title>
<g id="a_Node000004"><a xlink:href="interfacefiftyone_1_1pipeline_1_1core_1_1flowelements_1_1_flow_element.html" target="_top" xlink:title=" ">
<polygon fill="white" stroke="#666666" points="1036,-84 845,-84 845,-54 1036,-54 1036,-84"/>
<text text-anchor="start" x="853" y="-72" font-family="Helvetica,sans-Serif" font-size="10.00">fiftyone.pipeline.core.flowelements.</text>
<text text-anchor="middle" x="940.5" y="-61" font-family="Helvetica,sans-Serif" font-size="10.00">FlowElement&lt; TData, TProperty &gt;</text>
</a>
</g>
</g>
<!-- Node4&#45;&gt;Node3 -->
<g id="edge3_Node000003_Node000004" class="edge">
<title>Node4&#45;&gt;Node3</title>
<g id="a_edge3_Node000003_Node000004"><a xlink:title=" ">
<path fill="none" stroke="#63b8ff" d="M1046.11,-69C1055.07,-69 1064.1,-69 1072.98,-69"/>
<polygon fill="#63b8ff" stroke="#63b8ff" points="1046.03,-65.5 1036.03,-69 1046.03,-72.5 1046.03,-65.5"/>
</a>
</g>
</g>
<!-- Node5 -->
<g id="Node000005" class="node">
<title>Node5</title>
<g id="a_Node000005"><a xlink:href="interfacefiftyone_1_1pipeline_1_1core_1_1flowelements_1_1_flow_element.html" target="_top" xlink:title="A component that processes a FlowData (by examining its evidence, or by examining data processed by o...">
<polygon fill="white" stroke="#666666" points="697,-89.5 444,-89.5 444,-48.5 697,-48.5 697,-89.5"/>
<text text-anchor="start" x="452" y="-77.5" font-family="Helvetica,sans-Serif" font-size="10.00">fiftyone.pipeline.core.flowelements.</text>
<text text-anchor="start" x="452" y="-66.5" font-family="Helvetica,sans-Serif" font-size="10.00">FlowElement&lt; TData extends ElementData,</text>
<text text-anchor="middle" x="570.5" y="-55.5" font-family="Helvetica,sans-Serif" font-size="10.00"> TProperty extends ElementPropertyMetaData &gt;</text>
</a>
</g>
</g>
<!-- Node5&#45;&gt;Node4 -->
<g id="edge4_Node000004_Node000005" class="edge">
<title>Node5&#45;&gt;Node4</title>
<g id="a_edge4_Node000004_Node000005"><a xlink:title=" ">
<path fill="none" stroke="orange" stroke-dasharray="5,2" d="M707.12,-69C752.92,-69 803.03,-69 844.95,-69"/>
<polygon fill="orange" stroke="orange" points="707.12,-65.5 697.12,-69 707.12,-72.5 707.12,-65.5"/>
</a>
</g>
<text text-anchor="start" x="718" y="-74.5" font-family="Helvetica,sans-Serif" font-size="10.00" fill="grey">&lt; TData, TProperty &gt;</text>
</g>
<!-- Node6 -->
<g id="Node000006" class="node">
<title>Node6</title>
<g id="a_Node000006"><a xlink:title=" ">
<polygon fill="white" stroke="#bfbfbf" points="324,-78.5 237,-78.5 237,-59.5 324,-59.5 324,-78.5"/>
<text text-anchor="middle" x="280.5" y="-66.5" font-family="Helvetica,sans-Serif" font-size="10.00">AutoCloseable</text>
</a>
</g>
</g>
<!-- Node6&#45;&gt;Node5 -->
<g id="edge5_Node000005_Node000006" class="edge">
<title>Node6&#45;&gt;Node5</title>
<g id="a_edge5_Node000005_Node000006"><a xlink:title=" ">
<path fill="none" stroke="#63b8ff" d="M334.37,-69C365.15,-69 405.37,-69 443.82,-69"/>
<polygon fill="#63b8ff" stroke="#63b8ff" points="334.31,-65.5 324.31,-69 334.31,-72.5 334.31,-65.5"/>
</a>
</g>
</g>
<!-- Node7 -->
<g id="Node000007" class="node">
<title>Node7</title>
<g id="a_Node000007"><a xlink:href="interfacefiftyone_1_1pipeline_1_1core_1_1data_1_1_element_data.html" target="_top" xlink:title="Represents property values that have be determined by a specific FlowElement based on the supplied ev...">
<polygon fill="white" stroke="#666666" points="354,-138 207,-138 207,-108 354,-108 354,-138"/>
<text text-anchor="start" x="215" y="-126" font-family="Helvetica,sans-Serif" font-size="10.00">fiftyone.pipeline.core.data.</text>
<text text-anchor="middle" x="280.5" y="-115" font-family="Helvetica,sans-Serif" font-size="10.00">ElementData</text>
</a>
</g>
</g>
<!-- Node7&#45;&gt;Node3 -->
<g id="edge9_Node000003_Node000007" class="edge">
<title>Node7&#45;&gt;Node3</title>
<g id="a_edge9_Node000003_Node000007"><a xlink:title=" ">
<path fill="none" stroke="orange" stroke-dasharray="5,2" d="M364.37,-121.61C384.54,-121.18 406.05,-120.65 426,-120 697.23,-111.18 766.34,-123.43 1036,-93 1047.99,-91.65 1060.54,-89.85 1072.92,-87.85"/>
<polygon fill="orange" stroke="orange" points="364.2,-118.12 354.28,-121.82 364.35,-125.11 364.2,-118.12"/>
</a>
</g>
<text text-anchor="start" x="756" y="-119.5" font-family="Helvetica,sans-Serif" font-size="10.00" fill="grey">TData</text>
</g>
<!-- Node7&#45;&gt;Node5 -->
<g id="edge6_Node000005_Node000007" class="edge">
<title>Node7&#45;&gt;Node5</title>
<g id="a_edge6_Node000005_Node000007"><a xlink:title=" ">
<path fill="none" stroke="orange" stroke-dasharray="5,2" d="M358.31,-105.77C362.94,-104.81 367.53,-103.88 372,-103 395.56,-98.37 420.76,-93.77 445.02,-89.51"/>
<polygon fill="orange" stroke="orange" points="357.21,-102.42 348.15,-107.9 358.65,-109.27 357.21,-102.42"/>
</a>
</g>
<text text-anchor="start" x="384" y="-108.5" font-family="Helvetica,sans-Serif" font-size="10.00" fill="grey">TData</text>
</g>
<!-- Node8 -->
<g id="Node000008" class="node">
<title>Node8</title>
<g id="a_Node000008"><a xlink:href="interfacefiftyone_1_1pipeline_1_1core_1_1data_1_1_data.html" target="_top" xlink:title="Represents a collection of property values.">
<polygon fill="white" stroke="#666666" points="170,-132.5 0,-132.5 0,-113.5 170,-113.5 170,-132.5"/>
<text text-anchor="middle" x="85" y="-120.5" font-family="Helvetica,sans-Serif" font-size="10.00">fiftyone.pipeline.core.data.Data</text>
</a>
</g>
</g>
<!-- Node8&#45;&gt;Node7 -->
<g id="edge7_Node000007_Node000008" class="edge">
<title>Node8&#45;&gt;Node7</title>
<g id="a_edge7_Node000007_Node000008"><a xlink:title=" ">
<path fill="none" stroke="#63b8ff" d="M180.11,-123C189.07,-123 198.06,-123 206.77,-123"/>
<polygon fill="#63b8ff" stroke="#63b8ff" points="180.03,-119.5 170.03,-123 180.03,-126.5 180.03,-119.5"/>
</a>
</g>
</g>
<!-- Node9 -->
<g id="Node000009" class="node">
<title>Node9</title>
<g id="a_Node000009"><a xlink:href="interfacefiftyone_1_1pipeline_1_1core_1_1data_1_1_element_property_meta_data.html" target="_top" xlink:title="Defines details of a property that can be returned by a FlowElement.">
<polygon fill="white" stroke="#666666" points="354,-30 207,-30 207,0 354,0 354,-30"/>
<text text-anchor="start" x="215" y="-18" font-family="Helvetica,sans-Serif" font-size="10.00">fiftyone.pipeline.core.data.</text>
<text text-anchor="middle" x="280.5" y="-7" font-family="Helvetica,sans-Serif" font-size="10.00">ElementPropertyMetaData</text>
</a>
</g>
</g>
<!-- Node9&#45;&gt;Node3 -->
<g id="edge10_Node000003_Node000009" class="edge">
<title>Node9&#45;&gt;Node3</title>
<g id="a_edge10_Node000003_Node000009"><a xlink:title=" ">
<path fill="none" stroke="orange" stroke-dasharray="5,2" d="M364.22,-14.49C503.36,-14.48 792.89,-18.12 1036,-45 1047.99,-46.33 1060.54,-48.1 1072.92,-50.1"/>
<polygon fill="orange" stroke="orange" points="364.06,-10.99 354.06,-14.5 364.06,-17.99 364.06,-10.99"/>
</a>
</g>
<text text-anchor="start" x="747" y="-33.5" font-family="Helvetica,sans-Serif" font-size="10.00" fill="grey">TProperty</text>
</g>
<!-- Node9&#45;&gt;Node5 -->
<g id="edge8_Node000005_Node000009" class="edge">
<title>Node9&#45;&gt;Node5</title>
<g id="a_edge8_Node000005_Node000009"><a xlink:title=" ">
<path fill="none" stroke="orange" stroke-dasharray="5,2" d="M364.13,-30.49C394.02,-36.1 428.24,-42.51 460.07,-48.48"/>
<polygon fill="orange" stroke="orange" points="364.65,-27.03 354.17,-28.63 363.36,-33.91 364.65,-27.03"/>
</a>
</g>
<text text-anchor="start" x="375" y="-47.5" font-family="Helvetica,sans-Serif" font-size="10.00" fill="grey">TProperty</text>
</g>
<!-- Node11 -->
<g id="Node000011" class="node">
<title>Node11</title>
<g id="a_Node000011"><a xlink:href="classfiftyone_1_1pipeline_1_1engines_1_1fiftyone_1_1flowelements_1_1_share_usage_builder.html" target="_top" xlink:title="Builder class that is used to create ShareUsageElement.">
<polygon fill="white" stroke="#666666" points="2592,-84 2344,-84 2344,-54 2592,-54 2592,-84"/>
<text text-anchor="start" x="2352" y="-72" font-family="Helvetica,sans-Serif" font-size="10.00">fiftyone.pipeline.engines.fiftyone.flowelements.</text>
<text text-anchor="middle" x="2468" y="-61" font-family="Helvetica,sans-Serif" font-size="10.00">ShareUsageBuilder</text>
</a>
</g>
</g>
<!-- Node10&#45;&gt;Node11 -->
<g id="edge12_Node000010_Node000011" class="edge">
<title>Node10&#45;&gt;Node11</title>
<g id="a_edge12_Node000010_Node000011"><a xlink:title=" ">
<path fill="none" stroke="#63b8ff" d="M2317.67,-69C2326.43,-69 2335.22,-69 2343.91,-69"/>
<polygon fill="#63b8ff" stroke="#63b8ff" points="2317.41,-65.5 2307.41,-69 2317.41,-72.5 2317.41,-65.5"/>
</a>
</g>
</g>
</g>
</svg>
