<?xml version="1.0" encoding="UTF-8" standalone="no"?>
<!DOCTYPE svg PUBLIC "-//W3C//DTD SVG 1.1//EN"
 "http://www.w3.org/Graphics/SVG/1.1/DTD/svg11.dtd">
<!-- Generated by graphviz version 2.43.0 (0)
 -->
<!-- Title: fiftyone.pipeline.web.mvc.services.ClientsidePropertyService.Default Pages: 1 -->
<svg width="638pt" height="86pt"
 viewBox="0.00 0.00 638.00 86.00" xmlns="http://www.w3.org/2000/svg" xmlns:xlink="http://www.w3.org/1999/xlink">
<g id="graph0" class="graph" transform="scale(1 1) rotate(0) translate(4 82)">
<title>fiftyone.pipeline.web.mvc.services.ClientsidePropertyService.Default</title>
<!-- Node1 -->
<g id="Node000001" class="node">
<title>Node1</title>
<g id="a_Node000001"><a xlink:title=" ">
<polygon fill="#999999" stroke="#666666" points="630,-54 441,-54 441,-24 630,-24 630,-54"/>
<text text-anchor="start" x="449" y="-42" font-family="Helvetica,sans-Serif" font-size="10.00">fiftyone.pipeline.web.mvc.services.</text>
<text text-anchor="middle" x="535.5" y="-31" font-family="Helvetica,sans-Serif" font-size="10.00">ClientsidePropertyService.Default</text>
</a>
</g>
</g>
<!-- Node2 -->
<g id="Node000002" class="node">
<title>Node2</title>
<g id="a_Node000002"><a xlink:href="classfiftyone_1_1pipeline_1_1web_1_1services_1_1_clientside_property_service_core_1_1_default.html" target="_top" xlink:title="Default implementation of the ClientsidePropertyServiceCore interface.">
<polygon fill="white" stroke="#666666" points="405,-78 201,-78 201,-48 405,-48 405,-78"/>
<text text-anchor="start" x="209" y="-66" font-family="Helvetica,sans-Serif" font-size="10.00">fiftyone.pipeline.web.services.</text>
<text text-anchor="middle" x="303" y="-55" font-family="Helvetica,sans-Serif" font-size="10.00">ClientsidePropertyServiceCore.Default</text>
</a>
</g>
</g>
<!-- Node2&#45;&gt;Node1 -->
<g id="edge1_Node000001_Node000002" class="edge">
<title>Node2&#45;&gt;Node1</title>
<g id="a_edge1_Node000001_Node000002"><a xlink:title=" ">
<path fill="none" stroke="#63b8ff" d="M415.14,-51.43C423.71,-50.54 432.32,-49.64 440.76,-48.76"/>
<polygon fill="#63b8ff" stroke="#63b8ff" points="414.68,-47.96 405.1,-52.47 415.41,-54.92 414.68,-47.96"/>
</a>
</g>
</g>
<!-- Node3 -->
<g id="Node000003" class="node">
<title>Node3</title>
<g id="a_Node000003"><a xlink:href="interfacefiftyone_1_1pipeline_1_1web_1_1services_1_1_clientside_property_service_core.html" target="_top" xlink:title="Class that provides functionality for the &#39;Client side overrides&#39; feature.">
<polygon fill="white" stroke="#666666" points="165,-54 0,-54 0,-24 165,-24 165,-54"/>
<text text-anchor="start" x="8" y="-42" font-family="Helvetica,sans-Serif" font-size="10.00">fiftyone.pipeline.web.services.</text>
<text text-anchor="middle" x="82.5" y="-31" font-family="Helvetica,sans-Serif" font-size="10.00">ClientsidePropertyServiceCore</text>
</a>
</g>
</g>
<!-- Node3&#45;&gt;Node2 -->
<g id="edge2_Node000002_Node000003" class="edge">
<title>Node3&#45;&gt;Node2</title>
<g id="a_edge2_Node000002_Node000003"><a xlink:title=" ">
<path fill="none" stroke="#63b8ff" d="M175.36,-49.09C183.78,-50.02 192.35,-50.96 200.85,-51.89"/>
<polygon fill="#63b8ff" stroke="#63b8ff" points="175.49,-45.58 165.17,-47.97 174.73,-52.54 175.49,-45.58"/>
</a>
</g>
</g>
<!-- Node4 -->
<g id="Node000004" class="node">
<title>Node4</title>
<g id="a_Node000004"><a xlink:href="interfacefiftyone_1_1pipeline_1_1web_1_1mvc_1_1services_1_1_clientside_property_service.html" target="_top" xlink:title="Spring framework service for the ClientsidePropertyServiceCore.">
<polygon fill="white" stroke="#666666" points="397.5,-30 208.5,-30 208.5,0 397.5,0 397.5,-30"/>
<text text-anchor="start" x="216.5" y="-18" font-family="Helvetica,sans-Serif" font-size="10.00">fiftyone.pipeline.web.mvc.services.</text>
<text text-anchor="middle" x="303" y="-7" font-family="Helvetica,sans-Serif" font-size="10.00">ClientsidePropertyService</text>
</a>
</g>
</g>
<!-- Node3&#45;&gt;Node4 -->
<g id="edge4_Node000004_Node000003" class="edge">
<title>Node3&#45;&gt;Node4</title>
<g id="a_edge4_Node000004_Node000003"><a xlink:title=" ">
<path fill="none" stroke="#63b8ff" d="M175.15,-28.93C186.11,-27.73 197.31,-26.5 208.29,-25.29"/>
<polygon fill="#63b8ff" stroke="#63b8ff" points="174.73,-25.46 165.17,-30.03 175.49,-32.42 174.73,-25.46"/>
</a>
</g>
</g>
<!-- Node4&#45;&gt;Node1 -->
<g id="edge3_Node000001_Node000004" class="edge">
<title>Node4&#45;&gt;Node1</title>
<g id="a_edge3_Node000001_Node000004"><a xlink:title=" ">
<path fill="none" stroke="#63b8ff" d="M407.81,-25.81C418.81,-26.95 429.95,-28.11 440.83,-29.25"/>
<polygon fill="#63b8ff" stroke="#63b8ff" points="408.06,-22.32 397.75,-24.76 407.34,-29.28 408.06,-22.32"/>
</a>
</g>
</g>
</g>
</svg>
