<?xml version="1.0" encoding="UTF-8" standalone="no"?>
<!DOCTYPE svg PUBLIC "-//W3C//DTD SVG 1.1//EN"
 "http://www.w3.org/Graphics/SVG/1.1/DTD/svg11.dtd">
<!-- Generated by graphviz version 2.43.0 (0)
 -->
<!-- Title: fiftyone.pipeline.core.data.ElementDataBase Pages: 1 -->
<svg width="320pt" height="159pt"
 viewBox="0.00 0.00 320.00 159.00" xmlns="http://www.w3.org/2000/svg" xmlns:xlink="http://www.w3.org/1999/xlink">
<g id="graph0" class="graph" transform="scale(1 1) rotate(0) translate(4 155)">
<title>fiftyone.pipeline.core.data.ElementDataBase</title>
<!-- Node1 -->
<g id="Node000001" class="node">
<title>Node1</title>
<g id="a_Node000001"><a xlink:title="Base implementation of ElementData.">
<polygon fill="#999999" stroke="#666666" points="229,-30 82,-30 82,0 229,0 229,-30"/>
<text text-anchor="start" x="90" y="-18" font-family="Helvetica,sans-Serif" font-size="10.00">fiftyone.pipeline.core.data.</text>
<text text-anchor="middle" x="155.5" y="-7" font-family="Helvetica,sans-Serif" font-size="10.00">ElementDataBase</text>
</a>
</g>
</g>
<!-- Node2 -->
<g id="Node000002" class="node">
<title>Node2</title>
<g id="a_Node000002"><a xlink:href="classfiftyone_1_1pipeline_1_1core_1_1data_1_1_data_base.html" target="_top" xlink:title="This implementation of Data stores data values as key/value pairs in a Map where the key is a string ...">
<polygon fill="white" stroke="#666666" points="147,-96 0,-96 0,-66 147,-66 147,-96"/>
<text text-anchor="start" x="8" y="-84" font-family="Helvetica,sans-Serif" font-size="10.00">fiftyone.pipeline.core.data.</text>
<text text-anchor="middle" x="73.5" y="-73" font-family="Helvetica,sans-Serif" font-size="10.00">DataBase</text>
</a>
</g>
</g>
<!-- Node2&#45;&gt;Node1 -->
<g id="edge1_Node000001_Node000002" class="edge">
<title>Node2&#45;&gt;Node1</title>
<g id="a_edge1_Node000001_Node000002"><a xlink:title=" ">
<path fill="none" stroke="#63b8ff" d="M99.79,-59.48C112.05,-49.91 126.32,-38.77 137.35,-30.16"/>
<polygon fill="#63b8ff" stroke="#63b8ff" points="97.43,-56.88 91.7,-65.8 101.74,-62.4 97.43,-56.88"/>
</a>
</g>
</g>
<!-- Node3 -->
<g id="Node000003" class="node">
<title>Node3</title>
<g id="a_Node000003"><a xlink:href="interfacefiftyone_1_1pipeline_1_1core_1_1data_1_1_data.html" target="_top" xlink:title="Represents a collection of property values.">
<polygon fill="white" stroke="#666666" points="240.5,-151 70.5,-151 70.5,-132 240.5,-132 240.5,-151"/>
<text text-anchor="middle" x="155.5" y="-139" font-family="Helvetica,sans-Serif" font-size="10.00">fiftyone.pipeline.core.data.Data</text>
</a>
</g>
</g>
<!-- Node3&#45;&gt;Node2 -->
<g id="edge2_Node000002_Node000003" class="edge">
<title>Node3&#45;&gt;Node2</title>
<g id="a_edge2_Node000002_Node000003"><a xlink:title=" ">
<path fill="none" stroke="#63b8ff" d="M135.22,-126.03C122.42,-116.9 105.98,-105.17 93.28,-96.11"/>
<polygon fill="#63b8ff" stroke="#63b8ff" points="133.23,-128.91 143.4,-131.87 137.29,-123.21 133.23,-128.91"/>
</a>
</g>
</g>
<!-- Node4 -->
<g id="Node000004" class="node">
<title>Node4</title>
<g id="a_Node000004"><a xlink:href="interfacefiftyone_1_1pipeline_1_1core_1_1data_1_1_element_data.html" target="_top" xlink:title="Represents property values that have be determined by a specific FlowElement based on the supplied ev...">
<polygon fill="white" stroke="#666666" points="312,-96 165,-96 165,-66 312,-66 312,-96"/>
<text text-anchor="start" x="173" y="-84" font-family="Helvetica,sans-Serif" font-size="10.00">fiftyone.pipeline.core.data.</text>
<text text-anchor="middle" x="238.5" y="-73" font-family="Helvetica,sans-Serif" font-size="10.00">ElementData</text>
</a>
</g>
</g>
<!-- Node3&#45;&gt;Node4 -->
<g id="edge4_Node000004_Node000003" class="edge">
<title>Node3&#45;&gt;Node4</title>
<g id="a_edge4_Node000004_Node000003"><a xlink:title=" ">
<path fill="none" stroke="#63b8ff" d="M176.03,-126.03C188.98,-116.9 205.62,-105.17 218.47,-96.11"/>
<polygon fill="#63b8ff" stroke="#63b8ff" points="173.9,-123.25 167.75,-131.87 177.94,-128.97 173.9,-123.25"/>
</a>
</g>
</g>
<!-- Node4&#45;&gt;Node1 -->
<g id="edge3_Node000001_Node000004" class="edge">
<title>Node4&#45;&gt;Node1</title>
<g id="a_edge3_Node000001_Node000004"><a xlink:title=" ">
<path fill="none" stroke="#63b8ff" d="M211.89,-59.48C199.48,-49.91 185.03,-38.77 173.87,-30.16"/>
<polygon fill="#63b8ff" stroke="#63b8ff" points="210.02,-62.46 220.08,-65.8 214.3,-56.92 210.02,-62.46"/>
</a>
</g>
</g>
</g>
</svg>
