<?xml version="1.0" encoding="UTF-8" standalone="no"?>
<!DOCTYPE svg PUBLIC "-//W3C//DTD SVG 1.1//EN"
 "http://www.w3.org/Graphics/SVG/1.1/DTD/svg11.dtd">
<!-- Generated by graphviz version 2.43.0 (0)
 -->
<!-- Title: fiftyone.pipeline.engines.flowelements.AspectEngineBase&lt; TData extends AspectData, TProperty extends AspectPropertyMetaData &gt; Pages: 1 -->
<svg width="3249pt" height="319pt"
 viewBox="0.00 0.00 3249.00 318.50" xmlns="http://www.w3.org/2000/svg" xmlns:xlink="http://www.w3.org/1999/xlink">
<g id="graph0" class="graph" transform="scale(1 1) rotate(0) translate(4 314.5)">
<title>fiftyone.pipeline.engines.flowelements.AspectEngineBase&lt; TData extends AspectData, TProperty extends AspectPropertyMetaData &gt;</title>
<!-- Node1 -->
<g id="Node000001" class="node">
<title>Node1</title>
<g id="a_Node000001"><a xlink:title="Base class for AspectEngines to extend.">
<polygon fill="#999999" stroke="#666666" points="2013,-192.5 1765,-192.5 1765,-140.5 2013,-140.5 2013,-192.5"/>
<text text-anchor="start" x="1773" y="-180.5" font-family="Helvetica,sans-Serif" font-size="10.00">fiftyone.pipeline.engines.flowelements.</text>
<text text-anchor="start" x="1773" y="-169.5" font-family="Helvetica,sans-Serif" font-size="10.00">AspectEngineBase&lt; TData extends</text>
<text text-anchor="start" x="1773" y="-158.5" font-family="Helvetica,sans-Serif" font-size="10.00"> AspectData, TProperty extends AspectProperty</text>
<text text-anchor="middle" x="1889" y="-147.5" font-family="Helvetica,sans-Serif" font-size="10.00">MetaData &gt;</text>
</a>
</g>
</g>
<!-- Node13 -->
<g id="Node000013" class="node">
<title>Node13</title>
<g id="a_Node000013"><a xlink:href="classfiftyone_1_1pipeline_1_1cloudrequestengine_1_1flowelements_1_1_cloud_aspect_engine_base.html" target="_top" xlink:title="Base class for 51Degrees Cloud Aspect Engines.">
<polygon fill="white" stroke="#666666" points="2467,-305 2201,-305 2201,-264 2467,-264 2467,-305"/>
<text text-anchor="start" x="2209" y="-293" font-family="Helvetica,sans-Serif" font-size="10.00">fiftyone.pipeline.cloudrequestengine.flowelements.</text>
<text text-anchor="start" x="2209" y="-282" font-family="Helvetica,sans-Serif" font-size="10.00">CloudAspectEngineBase&lt; TData extends</text>
<text text-anchor="middle" x="2334" y="-271" font-family="Helvetica,sans-Serif" font-size="10.00"> AspectData &gt;</text>
</a>
</g>
</g>
<!-- Node1&#45;&gt;Node13 -->
<g id="edge19_Node000001_Node000013" class="edge">
<title>Node1&#45;&gt;Node13</title>
<g id="a_edge19_Node000001_Node000013"><a xlink:title=" ">
<path fill="none" stroke="#63b8ff" d="M1955.83,-196.68C1979.21,-206.56 2005.94,-216.94 2031,-224.5 2085.76,-241.03 2147.5,-254.22 2200.82,-263.98"/>
<polygon fill="#63b8ff" stroke="#63b8ff" points="1956.94,-193.35 1946.37,-192.63 1954.19,-199.78 1956.94,-193.35"/>
</a>
</g>
</g>
<!-- Node16 -->
<g id="Node000016" class="node">
<title>Node16</title>
<g id="a_Node000016"><a xlink:href="classfiftyone_1_1pipeline_1_1cloudrequestengine_1_1flowelements_1_1_cloud_request_engine_default.html" target="_top" xlink:title="Engine that makes requests to the 51Degrees cloud service.">
<polygon fill="white" stroke="#666666" points="2467,-246 2201,-246 2201,-205 2467,-205 2467,-246"/>
<text text-anchor="start" x="2209" y="-234" font-family="Helvetica,sans-Serif" font-size="10.00">fiftyone.pipeline.cloudrequestengine.flowelements.</text>
<text text-anchor="start" x="2209" y="-223" font-family="Helvetica,sans-Serif" font-size="10.00">CloudRequestEngineDefault&lt; CloudRequestData,</text>
<text text-anchor="middle" x="2334" y="-212" font-family="Helvetica,sans-Serif" font-size="10.00"> AspectPropertyMetaData &gt;</text>
</a>
</g>
</g>
<!-- Node1&#45;&gt;Node16 -->
<g id="edge22_Node000001_Node000016" class="edge">
<title>Node1&#45;&gt;Node16</title>
<g id="a_edge22_Node000001_Node000016"><a xlink:title=" ">
<path fill="none" stroke="#63b8ff" d="M1992.29,-194.83C2005.25,-197.76 2018.39,-200.43 2031,-202.5 2086.26,-211.59 2147.81,-217.09 2200.85,-220.43"/>
<polygon fill="#63b8ff" stroke="#63b8ff" points="1992.96,-191.39 1982.42,-192.54 1991.37,-198.21 1992.96,-191.39"/>
</a>
</g>
</g>
<!-- Node17 -->
<g id="Node000017" class="node">
<title>Node17</title>
<g id="a_Node000017"><a xlink:href="classfiftyone_1_1pipeline_1_1engines_1_1flowelements_1_1_aspect_engine_base.html" target="_top" xlink:title=" ">
<polygon fill="white" stroke="#666666" points="2447.5,-187 2220.5,-187 2220.5,-146 2447.5,-146 2447.5,-187"/>
<text text-anchor="start" x="2228.5" y="-175" font-family="Helvetica,sans-Serif" font-size="10.00">fiftyone.pipeline.engines.flowelements.</text>
<text text-anchor="start" x="2228.5" y="-164" font-family="Helvetica,sans-Serif" font-size="10.00">AspectEngineBase&lt; TData, AspectProperty</text>
<text text-anchor="middle" x="2334" y="-153" font-family="Helvetica,sans-Serif" font-size="10.00">MetaData &gt;</text>
</a>
</g>
</g>
<!-- Node1&#45;&gt;Node17 -->
<g id="edge23_Node000001_Node000017" class="edge">
<title>Node1&#45;&gt;Node17</title>
<g id="a_edge23_Node000001_Node000017"><a xlink:title=" ">
<path fill="none" stroke="orange" stroke-dasharray="5,2" d="M2023.49,-166.5C2086.31,-166.5 2160.4,-166.5 2220.34,-166.5"/>
<polygon fill="orange" stroke="orange" points="2023.11,-163 2013.11,-166.5 2023.11,-170 2023.11,-163"/>
</a>
</g>
<text text-anchor="start" x="2034" y="-187.5" font-family="Helvetica,sans-Serif" font-size="10.00" fill="grey">&lt; TData, AspectPropertyMeta</text>
<text text-anchor="start" x="2034" y="-172.5" font-family="Helvetica,sans-Serif" font-size="10.00" fill="grey">  Data &gt;</text>
</g>
<!-- Node18 -->
<g id="Node000018" class="node">
<title>Node18</title>
<g id="a_Node000018"><a xlink:href="classfiftyone_1_1pipeline_1_1engines_1_1flowelements_1_1_aspect_engine_base.html" target="_top" xlink:title=" ">
<polygon fill="white" stroke="#666666" points="2440,-128 2228,-128 2228,-87 2440,-87 2440,-128"/>
<text text-anchor="start" x="2236" y="-116" font-family="Helvetica,sans-Serif" font-size="10.00">fiftyone.pipeline.engines.flowelements.</text>
<text text-anchor="start" x="2236" y="-105" font-family="Helvetica,sans-Serif" font-size="10.00">AspectEngineBase&lt; CloudRequestData,</text>
<text text-anchor="middle" x="2334" y="-94" font-family="Helvetica,sans-Serif" font-size="10.00"> AspectPropertyMetaData &gt;</text>
</a>
</g>
</g>
<!-- Node1&#45;&gt;Node18 -->
<g id="edge24_Node000001_Node000018" class="edge">
<title>Node1&#45;&gt;Node18</title>
<g id="a_edge24_Node000001_Node000018"><a xlink:title=" ">
<path fill="none" stroke="orange" stroke-dasharray="5,2" d="M1992.29,-138.17C2005.25,-135.24 2018.39,-132.57 2031,-130.5 2095.99,-119.81 2169.67,-114.08 2227.99,-111.01"/>
<polygon fill="orange" stroke="orange" points="1991.37,-134.79 1982.42,-140.46 1992.96,-141.61 1991.37,-134.79"/>
</a>
</g>
<text text-anchor="start" x="2036" y="-151.5" font-family="Helvetica,sans-Serif" font-size="10.00" fill="grey">&lt; CloudRequestData,</text>
<text text-anchor="start" x="2036" y="-136.5" font-family="Helvetica,sans-Serif" font-size="10.00" fill="grey">   AspectPropertyMetaData &gt;</text>
</g>
<!-- Node19 -->
<g id="Node000019" class="node">
<title>Node19</title>
<g id="a_Node000019"><a xlink:href="classfiftyone_1_1pipeline_1_1engines_1_1flowelements_1_1_aspect_engine_base.html" target="_top" xlink:title=" ">
<polygon fill="white" stroke="#666666" points="2440,-68.5 2228,-68.5 2228,-38.5 2440,-38.5 2440,-68.5"/>
<text text-anchor="start" x="2236" y="-56.5" font-family="Helvetica,sans-Serif" font-size="10.00">fiftyone.pipeline.engines.flowelements.</text>
<text text-anchor="middle" x="2334" y="-45.5" font-family="Helvetica,sans-Serif" font-size="10.00">AspectEngineBase&lt; TData, TProperty &gt;</text>
</a>
</g>
</g>
<!-- Node1&#45;&gt;Node19 -->
<g id="edge25_Node000001_Node000019" class="edge">
<title>Node1&#45;&gt;Node19</title>
<g id="a_edge25_Node000001_Node000019"><a xlink:title=" ">
<path fill="none" stroke="orange" stroke-dasharray="5,2" d="M1939.89,-135.27C1966.07,-120.3 1999.25,-103.49 2031,-93.5 2094.7,-73.47 2169.02,-63.47 2227.99,-58.47"/>
<polygon fill="orange" stroke="orange" points="1937.82,-132.42 1930.93,-140.47 1941.34,-138.48 1937.82,-132.42"/>
</a>
</g>
<text text-anchor="start" x="2054" y="-99" font-family="Helvetica,sans-Serif" font-size="10.00" fill="grey">&lt; TData, TProperty &gt;</text>
</g>
<!-- Node2 -->
<g id="Node000002" class="node">
<title>Node2</title>
<g id="a_Node000002"><a xlink:href="classfiftyone_1_1pipeline_1_1core_1_1flowelements_1_1_flow_element_base.html" target="_top" xlink:title="Provides a base class from which authors may create new FlowElements.">
<polygon fill="white" stroke="#666666" points="1344,-209.5 1153,-209.5 1153,-157.5 1344,-157.5 1344,-209.5"/>
<text text-anchor="start" x="1161" y="-197.5" font-family="Helvetica,sans-Serif" font-size="10.00">fiftyone.pipeline.core.flowelements.</text>
<text text-anchor="start" x="1161" y="-186.5" font-family="Helvetica,sans-Serif" font-size="10.00">FlowElementBase&lt; TData extends</text>
<text text-anchor="start" x="1161" y="-175.5" font-family="Helvetica,sans-Serif" font-size="10.00"> ElementData, TProperty extends</text>
<text text-anchor="middle" x="1248.5" y="-164.5" font-family="Helvetica,sans-Serif" font-size="10.00"> ElementPropertyMetaData &gt;</text>
</a>
</g>
</g>
<!-- Node2&#45;&gt;Node1 -->
<g id="edge1_Node000001_Node000002" class="edge">
<title>Node2&#45;&gt;Node1</title>
<g id="a_edge1_Node000001_Node000002"><a xlink:title=" ">
<path fill="none" stroke="#63b8ff" d="M1354.06,-180.72C1466.6,-177.72 1645.47,-172.96 1764.77,-169.78"/>
<polygon fill="#63b8ff" stroke="#63b8ff" points="1353.96,-177.22 1344.06,-180.98 1354.15,-184.21 1353.96,-177.22"/>
</a>
</g>
</g>
<!-- Node3 -->
<g id="Node000003" class="node">
<title>Node3</title>
<g id="a_Node000003"><a xlink:href="interfacefiftyone_1_1pipeline_1_1core_1_1flowelements_1_1_flow_element.html" target="_top" xlink:title=" ">
<polygon fill="white" stroke="#666666" points="1036,-165.5 845,-165.5 845,-135.5 1036,-135.5 1036,-165.5"/>
<text text-anchor="start" x="853" y="-153.5" font-family="Helvetica,sans-Serif" font-size="10.00">fiftyone.pipeline.core.flowelements.</text>
<text text-anchor="middle" x="940.5" y="-142.5" font-family="Helvetica,sans-Serif" font-size="10.00">FlowElement&lt; TData, TProperty &gt;</text>
</a>
</g>
</g>
<!-- Node3&#45;&gt;Node2 -->
<g id="edge2_Node000002_Node000003" class="edge">
<title>Node3&#45;&gt;Node2</title>
<g id="a_edge2_Node000002_Node000003"><a xlink:title=" ">
<path fill="none" stroke="#63b8ff" d="M1046.35,-161.81C1080.94,-165.54 1119.19,-169.66 1152.96,-173.3"/>
<polygon fill="#63b8ff" stroke="#63b8ff" points="1046.54,-158.31 1036.22,-160.72 1045.79,-165.27 1046.54,-158.31"/>
</a>
</g>
</g>
<!-- Node10 -->
<g id="Node000010" class="node">
<title>Node10</title>
<g id="a_Node000010"><a xlink:href="interfacefiftyone_1_1pipeline_1_1engines_1_1flowelements_1_1_aspect_engine.html" target="_top" xlink:title="AspectEngines are a subset of FlowElements.">
<polygon fill="white" stroke="#666666" points="1371,-139 1126,-139 1126,-98 1371,-98 1371,-139"/>
<text text-anchor="start" x="1134" y="-127" font-family="Helvetica,sans-Serif" font-size="10.00">fiftyone.pipeline.engines.flowelements.</text>
<text text-anchor="start" x="1134" y="-116" font-family="Helvetica,sans-Serif" font-size="10.00">AspectEngine&lt; TData extends AspectData,</text>
<text text-anchor="middle" x="1248.5" y="-105" font-family="Helvetica,sans-Serif" font-size="10.00"> TProperty extends AspectPropertyMetaData &gt;</text>
</a>
</g>
</g>
<!-- Node3&#45;&gt;Node10 -->
<g id="edge12_Node000010_Node000003" class="edge">
<title>Node3&#45;&gt;Node10</title>
<g id="a_edge12_Node000010_Node000003"><a xlink:title=" ">
<path fill="none" stroke="#63b8ff" d="M1046.31,-139.54C1071.93,-136.86 1099.55,-133.97 1125.88,-131.22"/>
<polygon fill="#63b8ff" stroke="#63b8ff" points="1045.81,-136.07 1036.22,-140.59 1046.53,-143.03 1045.81,-136.07"/>
</a>
</g>
</g>
<!-- Node4 -->
<g id="Node000004" class="node">
<title>Node4</title>
<g id="a_Node000004"><a xlink:href="interfacefiftyone_1_1pipeline_1_1core_1_1flowelements_1_1_flow_element.html" target="_top" xlink:title="A component that processes a FlowData (by examining its evidence, or by examining data processed by o...">
<polygon fill="white" stroke="#666666" points="697,-171 444,-171 444,-130 697,-130 697,-171"/>
<text text-anchor="start" x="452" y="-159" font-family="Helvetica,sans-Serif" font-size="10.00">fiftyone.pipeline.core.flowelements.</text>
<text text-anchor="start" x="452" y="-148" font-family="Helvetica,sans-Serif" font-size="10.00">FlowElement&lt; TData extends ElementData,</text>
<text text-anchor="middle" x="570.5" y="-137" font-family="Helvetica,sans-Serif" font-size="10.00"> TProperty extends ElementPropertyMetaData &gt;</text>
</a>
</g>
</g>
<!-- Node4&#45;&gt;Node3 -->
<g id="edge3_Node000003_Node000004" class="edge">
<title>Node4&#45;&gt;Node3</title>
<g id="a_edge3_Node000003_Node000004"><a xlink:title=" ">
<path fill="none" stroke="orange" stroke-dasharray="5,2" d="M707.12,-150.5C752.92,-150.5 803.03,-150.5 844.95,-150.5"/>
<polygon fill="orange" stroke="orange" points="707.12,-147 697.12,-150.5 707.12,-154 707.12,-147"/>
</a>
</g>
<text text-anchor="start" x="718" y="-156" font-family="Helvetica,sans-Serif" font-size="10.00" fill="grey">&lt; TData, TProperty &gt;</text>
</g>
<!-- Node5 -->
<g id="Node000005" class="node">
<title>Node5</title>
<g id="a_Node000005"><a xlink:title=" ">
<polygon fill="white" stroke="#bfbfbf" points="324,-160 237,-160 237,-141 324,-141 324,-160"/>
<text text-anchor="middle" x="280.5" y="-148" font-family="Helvetica,sans-Serif" font-size="10.00">AutoCloseable</text>
</a>
</g>
</g>
<!-- Node5&#45;&gt;Node4 -->
<g id="edge4_Node000004_Node000005" class="edge">
<title>Node5&#45;&gt;Node4</title>
<g id="a_edge4_Node000004_Node000005"><a xlink:title=" ">
<path fill="none" stroke="#63b8ff" d="M334.37,-150.5C365.15,-150.5 405.37,-150.5 443.82,-150.5"/>
<polygon fill="#63b8ff" stroke="#63b8ff" points="334.31,-147 324.31,-150.5 334.31,-154 334.31,-147"/>
</a>
</g>
</g>
<!-- Node6 -->
<g id="Node000006" class="node">
<title>Node6</title>
<g id="a_Node000006"><a xlink:href="interfacefiftyone_1_1pipeline_1_1core_1_1data_1_1_element_data.html" target="_top" xlink:title="Represents property values that have be determined by a specific FlowElement based on the supplied ev...">
<polygon fill="white" stroke="#666666" points="354,-230.5 207,-230.5 207,-200.5 354,-200.5 354,-230.5"/>
<text text-anchor="start" x="215" y="-218.5" font-family="Helvetica,sans-Serif" font-size="10.00">fiftyone.pipeline.core.data.</text>
<text text-anchor="middle" x="280.5" y="-207.5" font-family="Helvetica,sans-Serif" font-size="10.00">ElementData</text>
</a>
</g>
</g>
<!-- Node6&#45;&gt;Node2 -->
<g id="edge8_Node000002_Node000006" class="edge">
<title>Node6&#45;&gt;Node2</title>
<g id="a_edge8_Node000002_Node000006"><a xlink:title=" ">
<path fill="none" stroke="orange" stroke-dasharray="5,2" d="M364.23,-212.76C542.87,-206.84 963.75,-192.9 1152.73,-186.64"/>
<polygon fill="orange" stroke="orange" points="363.99,-209.27 354.11,-213.09 364.22,-216.26 363.99,-209.27"/>
</a>
</g>
<text text-anchor="start" x="756" y="-206" font-family="Helvetica,sans-Serif" font-size="10.00" fill="grey">TData</text>
</g>
<!-- Node6&#45;&gt;Node4 -->
<g id="edge5_Node000004_Node000006" class="edge">
<title>Node6&#45;&gt;Node4</title>
<g id="a_edge5_Node000004_Node000006"><a xlink:title=" ">
<path fill="none" stroke="orange" stroke-dasharray="5,2" d="M330.63,-197.08C343.93,-192.53 358.4,-187.98 372,-184.5 395.01,-178.62 419.78,-173.46 443.75,-169.05"/>
<polygon fill="orange" stroke="orange" points="329.47,-193.78 321.18,-200.37 331.78,-200.39 329.47,-193.78"/>
</a>
</g>
<text text-anchor="start" x="384" y="-190" font-family="Helvetica,sans-Serif" font-size="10.00" fill="grey">TData</text>
</g>
<!-- Node11 -->
<g id="Node000011" class="node">
<title>Node11</title>
<g id="a_Node000011"><a xlink:href="interfacefiftyone_1_1pipeline_1_1engines_1_1data_1_1_aspect_data.html" target="_top" xlink:title="Represents a specialized ElementData instance that is generated by an AspectEngine.">
<polygon fill="white" stroke="#666666" points="1022.5,-257.5 858.5,-257.5 858.5,-227.5 1022.5,-227.5 1022.5,-257.5"/>
<text text-anchor="start" x="866.5" y="-245.5" font-family="Helvetica,sans-Serif" font-size="10.00">fiftyone.pipeline.engines.data.</text>
<text text-anchor="middle" x="940.5" y="-234.5" font-family="Helvetica,sans-Serif" font-size="10.00">AspectData</text>
</a>
</g>
</g>
<!-- Node6&#45;&gt;Node11 -->
<g id="edge14_Node000011_Node000006" class="edge">
<title>Node6&#45;&gt;Node11</title>
<g id="a_edge14_Node000011_Node000006"><a xlink:title=" ">
<path fill="none" stroke="#63b8ff" d="M364.23,-226.83C366.85,-227.07 369.44,-227.3 372,-227.5 544.67,-241.19 747.73,-243.15 858.07,-243.04"/>
<polygon fill="#63b8ff" stroke="#63b8ff" points="364.34,-223.32 354.04,-225.8 363.64,-230.29 364.34,-223.32"/>
</a>
</g>
</g>
<!-- Node7 -->
<g id="Node000007" class="node">
<title>Node7</title>
<g id="a_Node000007"><a xlink:href="interfacefiftyone_1_1pipeline_1_1core_1_1data_1_1_data.html" target="_top" xlink:title="Represents a collection of property values.">
<polygon fill="white" stroke="#666666" points="170,-225 0,-225 0,-206 170,-206 170,-225"/>
<text text-anchor="middle" x="85" y="-213" font-family="Helvetica,sans-Serif" font-size="10.00">fiftyone.pipeline.core.data.Data</text>
</a>
</g>
</g>
<!-- Node7&#45;&gt;Node6 -->
<g id="edge6_Node000006_Node000007" class="edge">
<title>Node7&#45;&gt;Node6</title>
<g id="a_edge6_Node000006_Node000007"><a xlink:title=" ">
<path fill="none" stroke="#63b8ff" d="M180.11,-215.5C189.07,-215.5 198.06,-215.5 206.77,-215.5"/>
<polygon fill="#63b8ff" stroke="#63b8ff" points="180.03,-212 170.03,-215.5 180.03,-219 180.03,-212"/>
</a>
</g>
</g>
<!-- Node8 -->
<g id="Node000008" class="node">
<title>Node8</title>
<g id="a_Node000008"><a xlink:href="interfacefiftyone_1_1pipeline_1_1core_1_1data_1_1_element_property_meta_data.html" target="_top" xlink:title="Defines details of a property that can be returned by a FlowElement.">
<polygon fill="white" stroke="#666666" points="354,-100.5 207,-100.5 207,-70.5 354,-70.5 354,-100.5"/>
<text text-anchor="start" x="215" y="-88.5" font-family="Helvetica,sans-Serif" font-size="10.00">fiftyone.pipeline.core.data.</text>
<text text-anchor="middle" x="280.5" y="-77.5" font-family="Helvetica,sans-Serif" font-size="10.00">ElementPropertyMetaData</text>
</a>
</g>
</g>
<!-- Node8&#45;&gt;Node2 -->
<g id="edge9_Node000002_Node000008" class="edge">
<title>Node8&#45;&gt;Node2</title>
<g id="a_edge9_Node000002_Node000008"><a xlink:title=" ">
<path fill="none" stroke="orange" stroke-dasharray="5,2" d="M364.26,-84.37C503.76,-83.73 794.16,-87.78 1036,-126.5 1059.8,-130.31 1111.88,-144.32 1158.4,-157.5"/>
<polygon fill="orange" stroke="orange" points="364.06,-80.88 354.08,-84.43 364.1,-87.88 364.06,-80.88"/>
</a>
</g>
<text text-anchor="start" x="747" y="-107" font-family="Helvetica,sans-Serif" font-size="10.00" fill="grey">TProperty</text>
</g>
<!-- Node8&#45;&gt;Node4 -->
<g id="edge7_Node000004_Node000008" class="edge">
<title>Node8&#45;&gt;Node4</title>
<g id="a_edge7_Node000004_Node000008"><a xlink:title=" ">
<path fill="none" stroke="orange" stroke-dasharray="5,2" d="M358.5,-102.88C395.43,-111.21 439.93,-121.26 478.52,-129.97"/>
<polygon fill="orange" stroke="orange" points="358.82,-99.36 348.3,-100.58 357.28,-106.19 358.82,-99.36"/>
</a>
</g>
<text text-anchor="start" x="375" y="-124" font-family="Helvetica,sans-Serif" font-size="10.00" fill="grey">TProperty</text>
</g>
<!-- Node12 -->
<g id="Node000012" class="node">
<title>Node12</title>
<g id="a_Node000012"><a xlink:href="interfacefiftyone_1_1pipeline_1_1engines_1_1data_1_1_aspect_property_meta_data.html" target="_top" xlink:title="Holds details about a property that can be returned by an AspectEngine.">
<polygon fill="white" stroke="#666666" points="1022.5,-74.5 858.5,-74.5 858.5,-44.5 1022.5,-44.5 1022.5,-74.5"/>
<text text-anchor="start" x="866.5" y="-62.5" font-family="Helvetica,sans-Serif" font-size="10.00">fiftyone.pipeline.engines.data.</text>
<text text-anchor="middle" x="940.5" y="-51.5" font-family="Helvetica,sans-Serif" font-size="10.00">AspectPropertyMetaData</text>
</a>
</g>
</g>
<!-- Node8&#45;&gt;Node12 -->
<g id="edge16_Node000012_Node000008" class="edge">
<title>Node8&#45;&gt;Node12</title>
<g id="a_edge16_Node000012_Node000008"><a xlink:title=" ">
<path fill="none" stroke="#63b8ff" d="M364.23,-75.12C366.85,-74.9 369.44,-74.69 372,-74.5 544.75,-61.75 747.78,-59.43 858.09,-59.24"/>
<polygon fill="#63b8ff" stroke="#63b8ff" points="363.69,-71.66 354.05,-76.07 364.33,-78.63 363.69,-71.66"/>
</a>
</g>
</g>
<!-- Node9 -->
<g id="Node000009" class="node">
<title>Node9</title>
<g id="a_Node000009"><a xlink:href="interfacefiftyone_1_1pipeline_1_1engines_1_1flowelements_1_1_aspect_engine.html" target="_top" xlink:title=" ">
<polygon fill="white" stroke="#666666" points="1728,-147.5 1519,-147.5 1519,-117.5 1728,-117.5 1728,-147.5"/>
<text text-anchor="start" x="1527" y="-135.5" font-family="Helvetica,sans-Serif" font-size="10.00">fiftyone.pipeline.engines.flowelements.</text>
<text text-anchor="middle" x="1623.5" y="-124.5" font-family="Helvetica,sans-Serif" font-size="10.00">AspectEngine&lt; TData, TProperty &gt;</text>
</a>
</g>
</g>
<!-- Node9&#45;&gt;Node1 -->
<g id="edge10_Node000001_Node000009" class="edge">
<title>Node9&#45;&gt;Node1</title>
<g id="a_edge10_Node000001_Node000009"><a xlink:title=" ">
<path fill="none" stroke="#63b8ff" d="M1738.42,-147.2C1747.11,-148.32 1755.92,-149.46 1764.67,-150.59"/>
<polygon fill="#63b8ff" stroke="#63b8ff" points="1738.63,-143.7 1728.26,-145.89 1737.73,-150.64 1738.63,-143.7"/>
</a>
</g>
</g>
<!-- Node10&#45;&gt;Node9 -->
<g id="edge11_Node000009_Node000010" class="edge">
<title>Node10&#45;&gt;Node9</title>
<g id="a_edge11_Node000009_Node000010"><a xlink:title=" ">
<path fill="none" stroke="orange" stroke-dasharray="5,2" d="M1381.28,-123.45C1426.43,-125.14 1476.27,-127.01 1518.87,-128.61"/>
<polygon fill="orange" stroke="orange" points="1381.24,-119.94 1371.12,-123.06 1380.98,-126.94 1381.24,-119.94"/>
</a>
</g>
<text text-anchor="start" x="1392" y="-134" font-family="Helvetica,sans-Serif" font-size="10.00" fill="grey">&lt; TData, TProperty &gt;</text>
</g>
<!-- Node11&#45;&gt;Node1 -->
<g id="edge17_Node000001_Node000011" class="edge">
<title>Node11&#45;&gt;Node1</title>
<g id="a_edge17_Node000001_Node000011"><a xlink:title=" ">
<path fill="none" stroke="orange" stroke-dasharray="5,2" d="M1032.95,-238.41C1179.81,-231.32 1477.18,-214.84 1728,-187.5 1739.98,-186.19 1752.44,-184.74 1764.9,-183.21"/>
<polygon fill="orange" stroke="orange" points="1032.46,-234.93 1022.64,-238.9 1032.79,-241.92 1032.46,-234.93"/>
</a>
</g>
<text text-anchor="start" x="1430" y="-222" font-family="Helvetica,sans-Serif" font-size="10.00" fill="grey">TData</text>
</g>
<!-- Node11&#45;&gt;Node10 -->
<g id="edge13_Node000010_Node000011" class="edge">
<title>Node11&#45;&gt;Node10</title>
<g id="a_edge13_Node000010_Node000011"><a xlink:title=" ">
<path fill="none" stroke="orange" stroke-dasharray="5,2" d="M975.31,-222.29C1011.52,-201.36 1071.19,-168.92 1126,-148.5 1135.16,-145.09 1144.86,-141.95 1154.62,-139.09"/>
<polygon fill="orange" stroke="orange" points="973.5,-219.29 966.63,-227.34 977.03,-225.33 973.5,-219.29"/>
</a>
</g>
<text text-anchor="start" x="1066" y="-183" font-family="Helvetica,sans-Serif" font-size="10.00" fill="grey">TData</text>
</g>
<!-- Node12&#45;&gt;Node1 -->
<g id="edge18_Node000001_Node000012" class="edge">
<title>Node12&#45;&gt;Node1</title>
<g id="a_edge18_Node000001_Node000012"><a xlink:title=" ">
<path fill="none" stroke="orange" stroke-dasharray="5,2" d="M1033.08,-56.38C1181.03,-53.31 1481.01,-55.21 1728,-108.5 1761.94,-115.82 1798.43,-128.64 1827.98,-140.37"/>
<polygon fill="orange" stroke="orange" points="1032.62,-52.89 1022.7,-56.61 1032.77,-59.89 1032.62,-52.89"/>
</a>
</g>
<text text-anchor="start" x="1421" y="-79" font-family="Helvetica,sans-Serif" font-size="10.00" fill="grey">TProperty</text>
</g>
<!-- Node12&#45;&gt;Node10 -->
<g id="edge15_Node000010_Node000012" class="edge">
<title>Node12&#45;&gt;Node10</title>
<g id="a_edge15_Node000010_Node000012"><a xlink:title=" ">
<path fill="none" stroke="orange" stroke-dasharray="5,2" d="M1032.58,-61.89C1057.22,-63.67 1083.78,-66.63 1108,-71.5 1138.07,-77.55 1170.6,-88.25 1196.68,-97.92"/>
<polygon fill="orange" stroke="orange" points="1032.72,-58.39 1022.51,-61.22 1032.25,-65.38 1032.72,-58.39"/>
</a>
</g>
<text text-anchor="start" x="1057" y="-77" font-family="Helvetica,sans-Serif" font-size="10.00" fill="grey">TProperty</text>
</g>
<!-- Node14 -->
<g id="Node000014" class="node">
<title>Node14</title>
<g id="a_Node000014"><a xlink:href="classfiftyone_1_1pipeline_1_1cloudrequestengine_1_1flowelements_1_1_cloud_aspect_engine_base.html" target="_top" xlink:title=" ">
<polygon fill="white" stroke="#666666" points="2827,-299.5 2561,-299.5 2561,-269.5 2827,-269.5 2827,-299.5"/>
<text text-anchor="start" x="2569" y="-287.5" font-family="Helvetica,sans-Serif" font-size="10.00">fiftyone.pipeline.cloudrequestengine.flowelements.</text>
<text text-anchor="middle" x="2694" y="-276.5" font-family="Helvetica,sans-Serif" font-size="10.00">CloudAspectEngineBase&lt; TData &gt;</text>
</a>
</g>
</g>
<!-- Node13&#45;&gt;Node14 -->
<g id="edge20_Node000013_Node000014" class="edge">
<title>Node13&#45;&gt;Node14</title>
<g id="a_edge20_Node000013_Node000014"><a xlink:title=" ">
<path fill="none" stroke="orange" stroke-dasharray="5,2" d="M2477.14,-284.5C2504.72,-284.5 2533.53,-284.5 2560.78,-284.5"/>
<polygon fill="orange" stroke="orange" points="2477.03,-281 2467.03,-284.5 2477.03,-288 2477.03,-281"/>
</a>
</g>
<text text-anchor="start" x="2488" y="-290" font-family="Helvetica,sans-Serif" font-size="10.00" fill="grey">&lt; TData &gt;</text>
</g>
<!-- Node15 -->
<g id="Node000015" class="node">
<title>Node15</title>
<g id="a_Node000015"><a xlink:href="classfiftyone_1_1pipeline_1_1cloudrequestengine_1_1flowelements_1_1_property_keyed_cloud_engine_base.html" target="_top" xlink:title="A specialised type of CloudAspectEngineBase that has the functionality to support returning a list of...">
<polygon fill="white" stroke="#666666" points="3241,-310.5 2975,-310.5 2975,-258.5 3241,-258.5 3241,-310.5"/>
<text text-anchor="start" x="2983" y="-298.5" font-family="Helvetica,sans-Serif" font-size="10.00">fiftyone.pipeline.cloudrequestengine.flowelements.</text>
<text text-anchor="start" x="2983" y="-287.5" font-family="Helvetica,sans-Serif" font-size="10.00">PropertyKeyedCloudEngineBase&lt; TData</text>
<text text-anchor="start" x="2983" y="-276.5" font-family="Helvetica,sans-Serif" font-size="10.00"> extends MultiProfileData&lt; TProfile</text>
<text text-anchor="middle" x="3108" y="-265.5" font-family="Helvetica,sans-Serif" font-size="10.00"> &gt;, TProfile extends AspectData &gt;</text>
</a>
</g>
</g>
<!-- Node14&#45;&gt;Node15 -->
<g id="edge21_Node000014_Node000015" class="edge">
<title>Node14&#45;&gt;Node15</title>
<g id="a_edge21_Node000014_Node000015"><a xlink:title=" ">
<path fill="none" stroke="#63b8ff" d="M2837.12,-284.5C2881.84,-284.5 2931,-284.5 2974.98,-284.5"/>
<polygon fill="#63b8ff" stroke="#63b8ff" points="2837.06,-281 2827.06,-284.5 2837.06,-288 2837.06,-281"/>
</a>
</g>
</g>
<!-- Node20 -->
<g id="Node000020" class="node">
<title>Node20</title>
<g id="a_Node000020"><a xlink:href="classfiftyone_1_1pipeline_1_1engines_1_1flowelements_1_1_on_premise_aspect_engine_base.html" target="_top" xlink:title="Base class for on&#45;premise aspect engines.">
<polygon fill="white" stroke="#666666" points="2800.5,-79.5 2587.5,-79.5 2587.5,-27.5 2800.5,-27.5 2800.5,-79.5"/>
<text text-anchor="start" x="2595.5" y="-67.5" font-family="Helvetica,sans-Serif" font-size="10.00">fiftyone.pipeline.engines.flowelements.</text>
<text text-anchor="start" x="2595.5" y="-56.5" font-family="Helvetica,sans-Serif" font-size="10.00">OnPremiseAspectEngineBase&lt; TData</text>
<text text-anchor="start" x="2595.5" y="-45.5" font-family="Helvetica,sans-Serif" font-size="10.00"> extends AspectData, TProperty extends</text>
<text text-anchor="middle" x="2694" y="-34.5" font-family="Helvetica,sans-Serif" font-size="10.00"> AspectPropertyMetaData &gt;</text>
</a>
</g>
</g>
<!-- Node19&#45;&gt;Node20 -->
<g id="edge26_Node000019_Node000020" class="edge">
<title>Node19&#45;&gt;Node20</title>
<g id="a_edge26_Node000019_Node000020"><a xlink:title=" ">
<path fill="none" stroke="#63b8ff" d="M2450.63,-53.5C2494.58,-53.5 2544.38,-53.5 2587.35,-53.5"/>
<polygon fill="#63b8ff" stroke="#63b8ff" points="2450.48,-50 2440.48,-53.5 2450.48,-57 2450.48,-50"/>
</a>
</g>
</g>
<!-- Node21 -->
<g id="Node000021" class="node">
<title>Node21</title>
<g id="a_Node000021"><a xlink:href="classfiftyone_1_1pipeline_1_1engines_1_1fiftyone_1_1flowelements_1_1_fifty_one_on_premise_aspect_engine_base.html" target="_top" xlink:title="51Degrees specific engine base class.">
<polygon fill="white" stroke="#666666" points="3232,-111.5 2984,-111.5 2984,-59.5 3232,-59.5 3232,-111.5"/>
<text text-anchor="start" x="2992" y="-99.5" font-family="Helvetica,sans-Serif" font-size="10.00">fiftyone.pipeline.engines.fiftyone.flowelements.</text>
<text text-anchor="start" x="2992" y="-88.5" font-family="Helvetica,sans-Serif" font-size="10.00">FiftyOneOnPremiseAspectEngineBase</text>
<text text-anchor="start" x="2992" y="-77.5" font-family="Helvetica,sans-Serif" font-size="10.00">&lt; TData extends AspectData, TProperty</text>
<text text-anchor="middle" x="3108" y="-66.5" font-family="Helvetica,sans-Serif" font-size="10.00"> extends FiftyOneAspectPropertyMetaData &gt;</text>
</a>
</g>
</g>
<!-- Node20&#45;&gt;Node21 -->
<g id="edge27_Node000020_Node000021" class="edge">
<title>Node20&#45;&gt;Node21</title>
<g id="a_edge27_Node000020_Node000021"><a xlink:title=" ">
<path fill="none" stroke="#63b8ff" d="M2810.86,-62.5C2864.79,-66.69 2928.98,-71.67 2983.8,-75.93"/>
<polygon fill="#63b8ff" stroke="#63b8ff" points="2810.81,-58.98 2800.57,-61.7 2810.26,-65.96 2810.81,-58.98"/>
</a>
</g>
</g>
<!-- Node22 -->
<g id="Node000022" class="node">
<title>Node22</title>
<g id="a_Node000022"><a xlink:href="classfiftyone_1_1pipeline_1_1engines_1_1flowelements_1_1_on_premise_aspect_engine_base.html" target="_top" xlink:title=" ">
<polygon fill="white" stroke="#666666" points="3212.5,-41 3003.5,-41 3003.5,0 3212.5,0 3212.5,-41"/>
<text text-anchor="start" x="3011.5" y="-29" font-family="Helvetica,sans-Serif" font-size="10.00">fiftyone.pipeline.engines.flowelements.</text>
<text text-anchor="start" x="3011.5" y="-18" font-family="Helvetica,sans-Serif" font-size="10.00">OnPremiseAspectEngineBase&lt; TData,</text>
<text text-anchor="middle" x="3108" y="-7" font-family="Helvetica,sans-Serif" font-size="10.00"> TProperty &gt;</text>
</a>
</g>
</g>
<!-- Node20&#45;&gt;Node22 -->
<g id="edge28_Node000020_Node000022" class="edge">
<title>Node20&#45;&gt;Node22</title>
<g id="a_edge28_Node000020_Node000022"><a xlink:title=" ">
<path fill="none" stroke="orange" stroke-dasharray="5,2" d="M2810.56,-44.24C2871.15,-39.39 2944.78,-33.49 3003.49,-28.79"/>
<polygon fill="orange" stroke="orange" points="2810.25,-40.76 2800.57,-45.04 2810.81,-47.73 2810.25,-40.76"/>
</a>
</g>
<text text-anchor="start" x="2848" y="-47" font-family="Helvetica,sans-Serif" font-size="10.00" fill="grey">&lt; TData, TProperty &gt;</text>
</g>
</g>
</svg>
