<?xml version="1.0" encoding="UTF-8" standalone="no"?>
<!DOCTYPE svg PUBLIC "-//W3C//DTD SVG 1.1//EN"
 "http://www.w3.org/Graphics/SVG/1.1/DTD/svg11.dtd">
<!-- Generated by graphviz version 2.43.0 (0)
 -->
<!-- Title: fiftyone.pipeline.engines.flowelements.SingleFileAspectEngineBuilderBase&lt; TBuilder extends OnPremiseAspectEngineBuilderBase&lt; TBuilder, TEngine, TEngine extends OnPremiseAspectEngine &gt; Pages: 1 -->
<svg width="2809pt" height="208pt"
 viewBox="0.00 0.00 2809.00 207.50" xmlns="http://www.w3.org/2000/svg" xmlns:xlink="http://www.w3.org/1999/xlink">
<g id="graph0" class="graph" transform="scale(1 1) rotate(0) translate(4 203.5)">
<title>fiftyone.pipeline.engines.flowelements.SingleFileAspectEngineBuilderBase&lt; TBuilder extends OnPremiseAspectEngineBuilderBase&lt; TBuilder, TEngine, TEngine extends OnPremiseAspectEngine &gt;</title>
<!-- Node1 -->
<g id="Node000001" class="node">
<title>Node1</title>
<g id="a_Node000001"><a xlink:title="Abstract base class that exposes the common options that all on&#45;premise engine builders using a singl...">
<polygon fill="#999999" stroke="#666666" points="2801,-104.5 2534,-104.5 2534,-41.5 2801,-41.5 2801,-104.5"/>
<text text-anchor="start" x="2542" y="-92.5" font-family="Helvetica,sans-Serif" font-size="10.00">fiftyone.pipeline.engines.flowelements.</text>
<text text-anchor="start" x="2542" y="-81.5" font-family="Helvetica,sans-Serif" font-size="10.00">SingleFileAspectEngineBuilderBase</text>
<text text-anchor="start" x="2542" y="-70.5" font-family="Helvetica,sans-Serif" font-size="10.00">&lt; TBuilder extends OnPremiseAspectEngineBuilder</text>
<text text-anchor="start" x="2542" y="-59.5" font-family="Helvetica,sans-Serif" font-size="10.00">Base&lt; TBuilder, TEngine, TEngine extends</text>
<text text-anchor="middle" x="2667.5" y="-48.5" font-family="Helvetica,sans-Serif" font-size="10.00"> OnPremiseAspectEngine &gt;</text>
</a>
</g>
</g>
<!-- Node2 -->
<g id="Node000002" class="node">
<title>Node2</title>
<g id="a_Node000002"><a xlink:href="classfiftyone_1_1pipeline_1_1engines_1_1flowelements_1_1_on_premise_aspect_engine_builder_base.html" target="_top" xlink:title=" ">
<polygon fill="white" stroke="#666666" points="2497,-135.5 2288,-135.5 2288,-94.5 2497,-94.5 2497,-135.5"/>
<text text-anchor="start" x="2296" y="-123.5" font-family="Helvetica,sans-Serif" font-size="10.00">fiftyone.pipeline.engines.flowelements.</text>
<text text-anchor="start" x="2296" y="-112.5" font-family="Helvetica,sans-Serif" font-size="10.00">OnPremiseAspectEngineBuilderBase</text>
<text text-anchor="middle" x="2392.5" y="-101.5" font-family="Helvetica,sans-Serif" font-size="10.00">&lt; TBuilder, TEngine &gt;</text>
</a>
</g>
</g>
<!-- Node2&#45;&gt;Node1 -->
<g id="edge1_Node000001_Node000002" class="edge">
<title>Node2&#45;&gt;Node1</title>
<g id="a_edge1_Node000001_Node000002"><a xlink:title=" ">
<path fill="none" stroke="#63b8ff" d="M2507.07,-97.53C2515.96,-96.16 2524.99,-94.77 2533.99,-93.39"/>
<polygon fill="#63b8ff" stroke="#63b8ff" points="2506.45,-94.08 2497.1,-99.06 2507.51,-101 2506.45,-94.08"/>
</a>
</g>
</g>
<!-- Node3 -->
<g id="Node000003" class="node">
<title>Node3</title>
<g id="a_Node000003"><a xlink:href="classfiftyone_1_1pipeline_1_1engines_1_1flowelements_1_1_on_premise_aspect_engine_builder_base.html" target="_top" xlink:title="Abstract base class that exposes the common options that all 51Degrees on&#45;premise engine builders sho...">
<polygon fill="white" stroke="#666666" points="2137,-152.5 1870,-152.5 1870,-89.5 2137,-89.5 2137,-152.5"/>
<text text-anchor="start" x="1878" y="-140.5" font-family="Helvetica,sans-Serif" font-size="10.00">fiftyone.pipeline.engines.flowelements.</text>
<text text-anchor="start" x="1878" y="-129.5" font-family="Helvetica,sans-Serif" font-size="10.00">OnPremiseAspectEngineBuilderBase</text>
<text text-anchor="start" x="1878" y="-118.5" font-family="Helvetica,sans-Serif" font-size="10.00">&lt; TBuilder extends OnPremiseAspectEngineBuilder</text>
<text text-anchor="start" x="1878" y="-107.5" font-family="Helvetica,sans-Serif" font-size="10.00">Base&lt; TBuilder, TEngine, TEngine extends</text>
<text text-anchor="middle" x="2003.5" y="-96.5" font-family="Helvetica,sans-Serif" font-size="10.00"> OnPremiseAspectEngine &gt;</text>
</a>
</g>
</g>
<!-- Node3&#45;&gt;Node2 -->
<g id="edge2_Node000002_Node000003" class="edge">
<title>Node3&#45;&gt;Node2</title>
<g id="a_edge2_Node000002_Node000003"><a xlink:title=" ">
<path fill="none" stroke="orange" stroke-dasharray="5,2" d="M2147.32,-118.79C2193.86,-118.06 2244.62,-117.28 2287.74,-116.61"/>
<polygon fill="orange" stroke="orange" points="2147.09,-115.29 2137.14,-118.94 2147.2,-122.29 2147.09,-115.29"/>
</a>
</g>
<text text-anchor="start" x="2158.5" y="-123.5" font-family="Helvetica,sans-Serif" font-size="10.00" fill="grey">&lt; TBuilder, TEngine &gt;</text>
</g>
<!-- Node4 -->
<g id="Node000004" class="node">
<title>Node4</title>
<g id="a_Node000004"><a xlink:href="classfiftyone_1_1pipeline_1_1engines_1_1flowelements_1_1_aspect_engine_builder_base.html" target="_top" xlink:title=" ">
<polygon fill="white" stroke="#666666" points="1768.5,-151.5 1559.5,-151.5 1559.5,-110.5 1768.5,-110.5 1768.5,-151.5"/>
<text text-anchor="start" x="1567.5" y="-139.5" font-family="Helvetica,sans-Serif" font-size="10.00">fiftyone.pipeline.engines.flowelements.</text>
<text text-anchor="start" x="1567.5" y="-128.5" font-family="Helvetica,sans-Serif" font-size="10.00">AspectEngineBuilderBase&lt; TBuilder,</text>
<text text-anchor="middle" x="1664" y="-117.5" font-family="Helvetica,sans-Serif" font-size="10.00"> TEngine &gt;</text>
</a>
</g>
</g>
<!-- Node4&#45;&gt;Node3 -->
<g id="edge3_Node000003_Node000004" class="edge">
<title>Node4&#45;&gt;Node3</title>
<g id="a_edge3_Node000003_Node000004"><a xlink:title=" ">
<path fill="none" stroke="#63b8ff" d="M1778.79,-127.63C1808.03,-126.76 1839.74,-125.82 1869.84,-124.93"/>
<polygon fill="#63b8ff" stroke="#63b8ff" points="1778.45,-124.14 1768.55,-127.93 1778.65,-131.13 1778.45,-124.14"/>
</a>
</g>
</g>
<!-- Node5 -->
<g id="Node000005" class="node">
<title>Node5</title>
<g id="a_Node000005"><a xlink:href="classfiftyone_1_1pipeline_1_1engines_1_1flowelements_1_1_aspect_engine_builder_base.html" target="_top" xlink:title="Abstract base class that exposes the common options that all 51Degrees engine builders should make us...">
<polygon fill="white" stroke="#666666" points="1389,-199.5 1180,-199.5 1180,-136.5 1389,-136.5 1389,-199.5"/>
<text text-anchor="start" x="1188" y="-187.5" font-family="Helvetica,sans-Serif" font-size="10.00">fiftyone.pipeline.engines.flowelements.</text>
<text text-anchor="start" x="1188" y="-176.5" font-family="Helvetica,sans-Serif" font-size="10.00">AspectEngineBuilderBase&lt; TBuilder</text>
<text text-anchor="start" x="1188" y="-165.5" font-family="Helvetica,sans-Serif" font-size="10.00"> extends AspectEngineBuilderBase</text>
<text text-anchor="start" x="1188" y="-154.5" font-family="Helvetica,sans-Serif" font-size="10.00">&lt; TBuilder, TEngine, TEngine extends</text>
<text text-anchor="middle" x="1284.5" y="-143.5" font-family="Helvetica,sans-Serif" font-size="10.00"> AspectEngine &gt;</text>
</a>
</g>
</g>
<!-- Node5&#45;&gt;Node4 -->
<g id="edge4_Node000004_Node000005" class="edge">
<title>Node5&#45;&gt;Node4</title>
<g id="a_edge4_Node000004_Node000005"><a xlink:title=" ">
<path fill="none" stroke="orange" stroke-dasharray="5,2" d="M1399.2,-156.86C1450.07,-151.87 1509.62,-146.03 1559.25,-141.17"/>
<polygon fill="orange" stroke="orange" points="1398.76,-153.38 1389.15,-157.84 1399.45,-160.35 1398.76,-153.38"/>
</a>
</g>
<text text-anchor="start" x="1410.5" y="-161.5" font-family="Helvetica,sans-Serif" font-size="10.00" fill="grey">&lt; TBuilder, TEngine &gt;</text>
</g>
<!-- Node6 -->
<g id="Node000006" class="node">
<title>Node6</title>
<g id="a_Node000006"><a xlink:href="classfiftyone_1_1pipeline_1_1engines_1_1configuration_1_1_cache_configuration.html" target="_top" xlink:title="Contains everything needed to build a cache.">
<polygon fill="white" stroke="#666666" points="1012.5,-198 806.5,-198 806.5,-168 1012.5,-168 1012.5,-198"/>
<text text-anchor="start" x="814.5" y="-186" font-family="Helvetica,sans-Serif" font-size="10.00">fiftyone.pipeline.engines.configuration.</text>
<text text-anchor="middle" x="909.5" y="-175" font-family="Helvetica,sans-Serif" font-size="10.00">CacheConfiguration</text>
</a>
</g>
</g>
<!-- Node6&#45;&gt;Node5 -->
<g id="edge5_Node000005_Node000006" class="edge">
<title>Node6&#45;&gt;Node5</title>
<g id="a_edge5_Node000005_Node000006"><a xlink:title=" ">
<path fill="none" stroke="#9a32cd" stroke-dasharray="5,2" d="M1023.08,-178.47C1072.84,-176.47 1130.98,-174.13 1179.69,-172.17"/>
<polygon fill="#9a32cd" stroke="#9a32cd" points="1022.77,-174.98 1012.92,-178.88 1023.05,-181.98 1022.77,-174.98"/>
</a>
</g>
<text text-anchor="start" x="1076" y="-182.5" font-family="Helvetica,sans-Serif" font-size="10.00" fill="grey">cacheConfig</text>
</g>
<!-- Node7 -->
<g id="Node000007" class="node">
<title>Node7</title>
<g id="a_Node000007"><a xlink:href="interfacefiftyone_1_1pipeline_1_1engines_1_1flowelements_1_1_aspect_engine.html" target="_top" xlink:title="AspectEngines are a subset of FlowElements.">
<polygon fill="white" stroke="#666666" points="1032,-129.5 787,-129.5 787,-88.5 1032,-88.5 1032,-129.5"/>
<text text-anchor="start" x="795" y="-117.5" font-family="Helvetica,sans-Serif" font-size="10.00">fiftyone.pipeline.engines.flowelements.</text>
<text text-anchor="start" x="795" y="-106.5" font-family="Helvetica,sans-Serif" font-size="10.00">AspectEngine&lt; TData extends AspectData,</text>
<text text-anchor="middle" x="909.5" y="-95.5" font-family="Helvetica,sans-Serif" font-size="10.00"> TProperty extends AspectPropertyMetaData &gt;</text>
</a>
</g>
</g>
<!-- Node7&#45;&gt;Node5 -->
<g id="edge6_Node000005_Node000007" class="edge">
<title>Node7&#45;&gt;Node5</title>
<g id="a_edge6_Node000005_Node000007"><a xlink:title=" ">
<path fill="none" stroke="orange" stroke-dasharray="5,2" d="M1042.28,-129.84C1087.43,-136.99 1137.27,-144.87 1179.87,-151.61"/>
<polygon fill="orange" stroke="orange" points="1042.54,-126.34 1032.12,-128.24 1041.45,-133.26 1042.54,-126.34"/>
</a>
</g>
<text text-anchor="start" x="1086" y="-152.5" font-family="Helvetica,sans-Serif" font-size="10.00" fill="grey">TEngine</text>
</g>
<!-- Node16 -->
<g id="Node000016" class="node">
<title>Node16</title>
<g id="a_Node000016"><a xlink:href="interfacefiftyone_1_1pipeline_1_1engines_1_1flowelements_1_1_aspect_engine.html" target="_top" xlink:title=" ">
<polygon fill="white" stroke="#666666" points="1389,-118 1180,-118 1180,-88 1389,-88 1389,-118"/>
<text text-anchor="start" x="1188" y="-106" font-family="Helvetica,sans-Serif" font-size="10.00">fiftyone.pipeline.engines.flowelements.</text>
<text text-anchor="middle" x="1284.5" y="-95" font-family="Helvetica,sans-Serif" font-size="10.00">AspectEngine&lt; TData, TProperty &gt;</text>
</a>
</g>
</g>
<!-- Node7&#45;&gt;Node16 -->
<g id="edge18_Node000016_Node000007" class="edge">
<title>Node7&#45;&gt;Node16</title>
<g id="a_edge18_Node000016_Node000007"><a xlink:title=" ">
<path fill="none" stroke="orange" stroke-dasharray="5,2" d="M1042.3,-104.17C1044.89,-104.11 1047.46,-104.05 1050,-104 1092.46,-103.15 1139.26,-102.83 1179.75,-102.74"/>
<polygon fill="orange" stroke="orange" points="1042.14,-100.67 1032.22,-104.41 1042.31,-107.67 1042.14,-100.67"/>
</a>
</g>
<text text-anchor="start" x="1053" y="-109.5" font-family="Helvetica,sans-Serif" font-size="10.00" fill="grey">&lt; TData, TProperty &gt;</text>
</g>
<!-- Node8 -->
<g id="Node000008" class="node">
<title>Node8</title>
<g id="a_Node000008"><a xlink:href="interfacefiftyone_1_1pipeline_1_1core_1_1flowelements_1_1_flow_element.html" target="_top" xlink:title="A component that processes a FlowData (by examining its evidence, or by examining data processed by o...">
<polygon fill="white" stroke="#666666" points="697,-145.5 444,-145.5 444,-104.5 697,-104.5 697,-145.5"/>
<text text-anchor="start" x="452" y="-133.5" font-family="Helvetica,sans-Serif" font-size="10.00">fiftyone.pipeline.core.flowelements.</text>
<text text-anchor="start" x="452" y="-122.5" font-family="Helvetica,sans-Serif" font-size="10.00">FlowElement&lt; TData extends ElementData,</text>
<text text-anchor="middle" x="570.5" y="-111.5" font-family="Helvetica,sans-Serif" font-size="10.00"> TProperty extends ElementPropertyMetaData &gt;</text>
</a>
</g>
</g>
<!-- Node8&#45;&gt;Node7 -->
<g id="edge7_Node000007_Node000008" class="edge">
<title>Node8&#45;&gt;Node7</title>
<g id="a_edge7_Node000007_Node000008"><a xlink:title=" ">
<path fill="none" stroke="#63b8ff" d="M707.47,-118.54C733.74,-117.3 761.11,-116 786.88,-114.77"/>
<polygon fill="#63b8ff" stroke="#63b8ff" points="707.29,-115.05 697.47,-119.02 707.62,-122.04 707.29,-115.05"/>
</a>
</g>
</g>
<!-- Node9 -->
<g id="Node000009" class="node">
<title>Node9</title>
<g id="a_Node000009"><a xlink:title=" ">
<polygon fill="white" stroke="#bfbfbf" points="324,-154.5 237,-154.5 237,-135.5 324,-135.5 324,-154.5"/>
<text text-anchor="middle" x="280.5" y="-142.5" font-family="Helvetica,sans-Serif" font-size="10.00">AutoCloseable</text>
</a>
</g>
</g>
<!-- Node9&#45;&gt;Node8 -->
<g id="edge8_Node000008_Node000009" class="edge">
<title>Node9&#45;&gt;Node8</title>
<g id="a_edge8_Node000008_Node000009"><a xlink:title=" ">
<path fill="none" stroke="#63b8ff" d="M334.37,-141.33C365.15,-139.19 405.37,-136.4 443.82,-133.73"/>
<polygon fill="#63b8ff" stroke="#63b8ff" points="334.04,-137.84 324.31,-142.03 334.52,-144.83 334.04,-137.84"/>
</a>
</g>
</g>
<!-- Node10 -->
<g id="Node000010" class="node">
<title>Node10</title>
<g id="a_Node000010"><a xlink:href="interfacefiftyone_1_1pipeline_1_1core_1_1data_1_1_element_data.html" target="_top" xlink:title="Represents property values that have be determined by a specific FlowElement based on the supplied ev...">
<polygon fill="white" stroke="#666666" points="354,-106 207,-106 207,-76 354,-76 354,-106"/>
<text text-anchor="start" x="215" y="-94" font-family="Helvetica,sans-Serif" font-size="10.00">fiftyone.pipeline.core.data.</text>
<text text-anchor="middle" x="280.5" y="-83" font-family="Helvetica,sans-Serif" font-size="10.00">ElementData</text>
</a>
</g>
</g>
<!-- Node10&#45;&gt;Node8 -->
<g id="edge9_Node000008_Node000010" class="edge">
<title>Node10&#45;&gt;Node8</title>
<g id="a_edge9_Node000008_Node000010"><a xlink:title=" ">
<path fill="none" stroke="orange" stroke-dasharray="5,2" d="M364.26,-100.77C389.11,-103.7 416.94,-106.99 443.89,-110.17"/>
<polygon fill="orange" stroke="orange" points="364.52,-97.28 354.17,-99.58 363.7,-104.23 364.52,-97.28"/>
</a>
</g>
<text text-anchor="start" x="384" y="-113.5" font-family="Helvetica,sans-Serif" font-size="10.00" fill="grey">TData</text>
</g>
<!-- Node13 -->
<g id="Node000013" class="node">
<title>Node13</title>
<g id="a_Node000013"><a xlink:href="interfacefiftyone_1_1pipeline_1_1engines_1_1data_1_1_aspect_data.html" target="_top" xlink:title="Represents a specialized ElementData instance that is generated by an AspectEngine.">
<polygon fill="white" stroke="#666666" points="652.5,-86 488.5,-86 488.5,-56 652.5,-56 652.5,-86"/>
<text text-anchor="start" x="496.5" y="-74" font-family="Helvetica,sans-Serif" font-size="10.00">fiftyone.pipeline.engines.data.</text>
<text text-anchor="middle" x="570.5" y="-63" font-family="Helvetica,sans-Serif" font-size="10.00">AspectData</text>
</a>
</g>
</g>
<!-- Node10&#45;&gt;Node13 -->
<g id="edge13_Node000013_Node000010" class="edge">
<title>Node10&#45;&gt;Node13</title>
<g id="a_edge13_Node000013_Node000010"><a xlink:title=" ">
<path fill="none" stroke="#63b8ff" d="M364.44,-85.24C403.42,-82.53 449.73,-79.32 488.47,-76.63"/>
<polygon fill="#63b8ff" stroke="#63b8ff" points="363.91,-81.77 354.17,-85.95 364.39,-88.75 363.91,-81.77"/>
</a>
</g>
</g>
<!-- Node11 -->
<g id="Node000011" class="node">
<title>Node11</title>
<g id="a_Node000011"><a xlink:href="interfacefiftyone_1_1pipeline_1_1core_1_1data_1_1_data.html" target="_top" xlink:title="Represents a collection of property values.">
<polygon fill="white" stroke="#666666" points="170,-100.5 0,-100.5 0,-81.5 170,-81.5 170,-100.5"/>
<text text-anchor="middle" x="85" y="-88.5" font-family="Helvetica,sans-Serif" font-size="10.00">fiftyone.pipeline.core.data.Data</text>
</a>
</g>
</g>
<!-- Node11&#45;&gt;Node10 -->
<g id="edge10_Node000010_Node000011" class="edge">
<title>Node11&#45;&gt;Node10</title>
<g id="a_edge10_Node000010_Node000011"><a xlink:title=" ">
<path fill="none" stroke="#63b8ff" d="M180.11,-91C189.07,-91 198.06,-91 206.77,-91"/>
<polygon fill="#63b8ff" stroke="#63b8ff" points="180.03,-87.5 170.03,-91 180.03,-94.5 180.03,-87.5"/>
</a>
</g>
</g>
<!-- Node12 -->
<g id="Node000012" class="node">
<title>Node12</title>
<g id="a_Node000012"><a xlink:href="interfacefiftyone_1_1pipeline_1_1core_1_1data_1_1_element_property_meta_data.html" target="_top" xlink:title="Defines details of a property that can be returned by a FlowElement.">
<polygon fill="white" stroke="#666666" points="354,-50 207,-50 207,-20 354,-20 354,-50"/>
<text text-anchor="start" x="215" y="-38" font-family="Helvetica,sans-Serif" font-size="10.00">fiftyone.pipeline.core.data.</text>
<text text-anchor="middle" x="280.5" y="-27" font-family="Helvetica,sans-Serif" font-size="10.00">ElementPropertyMetaData</text>
</a>
</g>
</g>
<!-- Node12&#45;&gt;Node8 -->
<g id="edge11_Node000008_Node000012" class="edge">
<title>Node12&#45;&gt;Node8</title>
<g id="a_edge11_Node000008_Node000012"><a xlink:title=" ">
<path fill="none" stroke="orange" stroke-dasharray="5,2" d="M358.66,-52.93C381.12,-59.75 405.19,-68.68 426,-80 435.15,-84.98 434.69,-90.33 444,-95 451.01,-98.51 458.45,-101.63 466.07,-104.38"/>
<polygon fill="orange" stroke="orange" points="359.39,-49.5 348.81,-50.04 357.42,-56.22 359.39,-49.5"/>
</a>
</g>
<text text-anchor="start" x="375" y="-85.5" font-family="Helvetica,sans-Serif" font-size="10.00" fill="grey">TProperty</text>
</g>
<!-- Node14 -->
<g id="Node000014" class="node">
<title>Node14</title>
<g id="a_Node000014"><a xlink:href="interfacefiftyone_1_1pipeline_1_1engines_1_1data_1_1_aspect_property_meta_data.html" target="_top" xlink:title="Holds details about a property that can be returned by an AspectEngine.">
<polygon fill="white" stroke="#666666" points="652.5,-30 488.5,-30 488.5,0 652.5,0 652.5,-30"/>
<text text-anchor="start" x="496.5" y="-18" font-family="Helvetica,sans-Serif" font-size="10.00">fiftyone.pipeline.engines.data.</text>
<text text-anchor="middle" x="570.5" y="-7" font-family="Helvetica,sans-Serif" font-size="10.00">AspectPropertyMetaData</text>
</a>
</g>
</g>
<!-- Node12&#45;&gt;Node14 -->
<g id="edge15_Node000014_Node000012" class="edge">
<title>Node12&#45;&gt;Node14</title>
<g id="a_edge15_Node000014_Node000012"><a xlink:title=" ">
<path fill="none" stroke="#63b8ff" d="M364.44,-29.24C403.42,-26.53 449.73,-23.32 488.47,-20.63"/>
<polygon fill="#63b8ff" stroke="#63b8ff" points="363.91,-25.77 354.17,-29.95 364.39,-32.75 363.91,-25.77"/>
</a>
</g>
</g>
<!-- Node13&#45;&gt;Node7 -->
<g id="edge12_Node000007_Node000013" class="edge">
<title>Node13&#45;&gt;Node7</title>
<g id="a_edge12_Node000007_Node000013"><a xlink:title=" ">
<path fill="none" stroke="orange" stroke-dasharray="5,2" d="M662.72,-81.29C700.94,-85.6 745.92,-90.67 786.89,-95.29"/>
<polygon fill="orange" stroke="orange" points="662.98,-77.79 652.65,-80.15 662.19,-84.75 662.98,-77.79"/>
</a>
</g>
<text text-anchor="start" x="727" y="-97.5" font-family="Helvetica,sans-Serif" font-size="10.00" fill="grey">TData</text>
</g>
<!-- Node15 -->
<g id="Node000015" class="node">
<title>Node15</title>
<g id="a_Node000015"><a xlink:href="interfacefiftyone_1_1pipeline_1_1engines_1_1flowelements_1_1_on_premise_aspect_engine.html" target="_top" xlink:title="Aspect engine interface which processes data internally using a data file and populates the results.">
<polygon fill="white" stroke="#666666" points="1788,-87 1540,-87 1540,-35 1788,-35 1788,-87"/>
<text text-anchor="start" x="1548" y="-75" font-family="Helvetica,sans-Serif" font-size="10.00">fiftyone.pipeline.engines.flowelements.</text>
<text text-anchor="start" x="1548" y="-64" font-family="Helvetica,sans-Serif" font-size="10.00">OnPremiseAspectEngine&lt; TData extends</text>
<text text-anchor="start" x="1548" y="-53" font-family="Helvetica,sans-Serif" font-size="10.00"> AspectData, TProperty extends AspectProperty</text>
<text text-anchor="middle" x="1664" y="-42" font-family="Helvetica,sans-Serif" font-size="10.00">MetaData &gt;</text>
</a>
</g>
</g>
<!-- Node13&#45;&gt;Node15 -->
<g id="edge19_Node000015_Node000013" class="edge">
<title>Node13&#45;&gt;Node15</title>
<g id="a_edge19_Node000015_Node000013"><a xlink:title=" ">
<path fill="none" stroke="orange" stroke-dasharray="5,2" d="M662.9,-70.16C858.65,-68.37 1318.56,-64.16 1539.83,-62.13"/>
<polygon fill="orange" stroke="orange" points="662.62,-66.66 652.65,-70.26 662.68,-73.66 662.62,-66.66"/>
</a>
</g>
<text text-anchor="start" x="1091" y="-71.5" font-family="Helvetica,sans-Serif" font-size="10.00" fill="grey">TData</text>
</g>
<!-- Node14&#45;&gt;Node7 -->
<g id="edge14_Node000007_Node000014" class="edge">
<title>Node14&#45;&gt;Node7</title>
<g id="a_edge14_Node000007_Node000014"><a xlink:title=" ">
<path fill="none" stroke="orange" stroke-dasharray="5,2" d="M640.63,-32.52C658.96,-37.19 678.74,-42.26 697,-47 729.03,-55.31 737.18,-56.9 769,-66 793.49,-73 820.25,-81.13 843.72,-88.43"/>
<polygon fill="orange" stroke="orange" points="641.45,-29.11 630.9,-30.04 639.72,-35.9 641.45,-29.11"/>
</a>
</g>
<text text-anchor="start" x="718" y="-71.5" font-family="Helvetica,sans-Serif" font-size="10.00" fill="grey">TProperty</text>
</g>
<!-- Node14&#45;&gt;Node15 -->
<g id="edge20_Node000015_Node000014" class="edge">
<title>Node14&#45;&gt;Node15</title>
<g id="a_edge20_Node000015_Node000014"><a xlink:title=" ">
<path fill="none" stroke="orange" stroke-dasharray="5,2" d="M662.9,-18.85C858.65,-27.1 1318.56,-46.48 1539.83,-55.81"/>
<polygon fill="orange" stroke="orange" points="662.79,-15.34 652.65,-18.42 662.49,-22.34 662.79,-15.34"/>
</a>
</g>
<text text-anchor="start" x="1082" y="-45.5" font-family="Helvetica,sans-Serif" font-size="10.00" fill="grey">TProperty</text>
</g>
<!-- Node15&#45;&gt;Node1 -->
<g id="edge21_Node000001_Node000015" class="edge">
<title>Node15&#45;&gt;Node1</title>
<g id="a_edge21_Node000001_Node000015"><a xlink:title=" ">
<path fill="none" stroke="orange" stroke-dasharray="5,2" d="M1798.19,-62.6C1990,-64.89 2341.95,-69.11 2533.6,-71.41"/>
<polygon fill="orange" stroke="orange" points="1798.1,-59.09 1788.05,-62.47 1798.01,-66.09 1798.1,-59.09"/>
</a>
</g>
<text text-anchor="start" x="2192.5" y="-73.5" font-family="Helvetica,sans-Serif" font-size="10.00" fill="grey">TEngine</text>
</g>
<!-- Node15&#45;&gt;Node3 -->
<g id="edge16_Node000003_Node000015" class="edge">
<title>Node15&#45;&gt;Node3</title>
<g id="a_edge16_Node000003_Node000015"><a xlink:title=" ">
<path fill="none" stroke="orange" stroke-dasharray="5,2" d="M1798.3,-84.7C1821.85,-88.88 1846.36,-93.24 1869.89,-97.43"/>
<polygon fill="orange" stroke="orange" points="1798.74,-81.22 1788.28,-82.92 1797.51,-88.11 1798.74,-81.22"/>
</a>
</g>
<text text-anchor="start" x="1809" y="-97.5" font-family="Helvetica,sans-Serif" font-size="10.00" fill="grey">TEngine</text>
</g>
<!-- Node16&#45;&gt;Node15 -->
<g id="edge17_Node000015_Node000016" class="edge">
<title>Node16&#45;&gt;Node15</title>
<g id="a_edge17_Node000015_Node000016"><a xlink:title=" ">
<path fill="none" stroke="#63b8ff" d="M1399.11,-90.36C1443.51,-85.42 1494.53,-79.74 1539.81,-74.71"/>
<polygon fill="#63b8ff" stroke="#63b8ff" points="1398.7,-86.88 1389.15,-91.47 1399.48,-93.84 1398.7,-86.88"/>
</a>
</g>
</g>
</g>
</svg>
