<?xml version="1.0" encoding="UTF-8" standalone="no"?>
<!DOCTYPE svg PUBLIC "-//W3C//DTD SVG 1.1//EN"
 "http://www.w3.org/Graphics/SVG/1.1/DTD/svg11.dtd">
<!-- Generated by graphviz version 2.43.0 (0)
 -->
<!-- Title: fiftyone.caching.LruPutCache&lt; K, V &gt;.Builder Pages: 1 -->
<svg width="169pt" height="159pt"
 viewBox="0.00 0.00 169.00 159.00" xmlns="http://www.w3.org/2000/svg" xmlns:xlink="http://www.w3.org/1999/xlink">
<g id="graph0" class="graph" transform="scale(1 1) rotate(0) translate(4 155)">
<title>fiftyone.caching.LruPutCache&lt; K, V &gt;.Builder</title>
<!-- Node1 -->
<g id="Node000001" class="node">
<title>Node1</title>
<g id="a_Node000001"><a xlink:title="Implementation of CacheBuilder for LruPutCache caches.">
<polygon fill="#999999" stroke="#666666" points="159.5,-30 1.5,-30 1.5,0 159.5,0 159.5,-30"/>
<text text-anchor="start" x="9.5" y="-18" font-family="Helvetica,sans-Serif" font-size="10.00">fiftyone.caching.LruPutCache</text>
<text text-anchor="middle" x="80.5" y="-7" font-family="Helvetica,sans-Serif" font-size="10.00">&lt; K, V &gt;.Builder</text>
</a>
</g>
</g>
<!-- Node2 -->
<g id="Node000002" class="node">
<title>Node2</title>
<g id="a_Node000002"><a xlink:href="interfacefiftyone_1_1caching_1_1_put_cache_builder.html" target="_top" xlink:title=" ">
<polygon fill="white" stroke="#bfbfbf" points="152,-96 9,-96 9,-66 152,-66 152,-96"/>
<text text-anchor="start" x="17" y="-84" font-family="Helvetica,sans-Serif" font-size="10.00">fiftyone.caching.PutCache</text>
<text text-anchor="middle" x="80.5" y="-73" font-family="Helvetica,sans-Serif" font-size="10.00">Builder</text>
</a>
</g>
</g>
<!-- Node2&#45;&gt;Node1 -->
<g id="edge1_Node000001_Node000002" class="edge">
<title>Node2&#45;&gt;Node1</title>
<g id="a_edge1_Node000001_Node000002"><a xlink:title=" ">
<path fill="none" stroke="#63b8ff" d="M80.5,-55.54C80.5,-46.96 80.5,-37.61 80.5,-30.16"/>
<polygon fill="#63b8ff" stroke="#63b8ff" points="77,-55.8 80.5,-65.8 84,-55.8 77,-55.8"/>
</a>
</g>
</g>
<!-- Node3 -->
<g id="Node000003" class="node">
<title>Node3</title>
<g id="a_Node000003"><a xlink:href="interfacefiftyone_1_1caching_1_1_cache_builder.html" target="_top" xlink:title="Builder interface used to build caches.">
<polygon fill="white" stroke="#666666" points="161,-151 0,-151 0,-132 161,-132 161,-151"/>
<text text-anchor="middle" x="80.5" y="-139" font-family="Helvetica,sans-Serif" font-size="10.00">fiftyone.caching.CacheBuilder</text>
</a>
</g>
</g>
<!-- Node3&#45;&gt;Node2 -->
<g id="edge2_Node000002_Node000003" class="edge">
<title>Node3&#45;&gt;Node2</title>
<g id="a_edge2_Node000002_Node000003"><a xlink:title=" ">
<path fill="none" stroke="#63b8ff" d="M80.5,-121.65C80.5,-113.36 80.5,-103.78 80.5,-96.11"/>
<polygon fill="#63b8ff" stroke="#63b8ff" points="77,-121.87 80.5,-131.87 84,-121.87 77,-121.87"/>
</a>
</g>
</g>
</g>
</svg>
