<?xml version="1.0" encoding="UTF-8" standalone="no"?>
<!DOCTYPE svg PUBLIC "-//W3C//DTD SVG 1.1//EN"
 "http://www.w3.org/Graphics/SVG/1.1/DTD/svg11.dtd">
<!-- Generated by graphviz version 2.43.0 (0)
 -->
<!-- Title: fiftyone.common.wrappers.data.BinaryWriter.WritableSeekable.Memory Pages: 1 -->
<svg width="217pt" height="159pt"
 viewBox="0.00 0.00 217.00 159.00" xmlns="http://www.w3.org/2000/svg" xmlns:xlink="http://www.w3.org/1999/xlink">
<g id="graph0" class="graph" transform="scale(1 1) rotate(0) translate(4 155)">
<title>fiftyone.common.wrappers.data.BinaryWriter.WritableSeekable.Memory</title>
<!-- Node1 -->
<g id="Node000001" class="node">
<title>Node1</title>
<g id="a_Node000001"><a xlink:title=" ">
<polygon fill="#999999" stroke="#666666" points="209,-30 0,-30 0,0 209,0 209,-30"/>
<text text-anchor="start" x="8" y="-18" font-family="Helvetica,sans-Serif" font-size="10.00">fiftyone.common.wrappers.data.</text>
<text text-anchor="middle" x="104.5" y="-7" font-family="Helvetica,sans-Serif" font-size="10.00">BinaryWriter.WritableSeekable.Memory</text>
</a>
</g>
</g>
<!-- Node2 -->
<g id="Node000002" class="node">
<title>Node2</title>
<g id="a_Node000002"><a xlink:href="interfacefiftyone_1_1common_1_1wrappers_1_1data_1_1_binary_writer_1_1_writable_seekable.html" target="_top" xlink:title=" ">
<polygon fill="white" stroke="#bfbfbf" points="192,-96 17,-96 17,-66 192,-66 192,-96"/>
<text text-anchor="start" x="25" y="-84" font-family="Helvetica,sans-Serif" font-size="10.00">fiftyone.common.wrappers.data.</text>
<text text-anchor="middle" x="104.5" y="-73" font-family="Helvetica,sans-Serif" font-size="10.00">BinaryWriter.WritableSeekable</text>
</a>
</g>
</g>
<!-- Node2&#45;&gt;Node1 -->
<g id="edge1_Node000001_Node000002" class="edge">
<title>Node2&#45;&gt;Node1</title>
<g id="a_edge1_Node000001_Node000002"><a xlink:title=" ">
<path fill="none" stroke="#63b8ff" d="M104.5,-55.54C104.5,-46.96 104.5,-37.61 104.5,-30.16"/>
<polygon fill="#63b8ff" stroke="#63b8ff" points="101,-55.8 104.5,-65.8 108,-55.8 101,-55.8"/>
</a>
</g>
</g>
<!-- Node3 -->
<g id="Node000003" class="node">
<title>Node3</title>
<g id="a_Node000003"><a xlink:title=" ">
<polygon fill="white" stroke="#bfbfbf" points="96,-151 31,-151 31,-132 96,-132 96,-151"/>
<text text-anchor="middle" x="63.5" y="-139" font-family="Helvetica,sans-Serif" font-size="10.00">Closeable</text>
</a>
</g>
</g>
<!-- Node3&#45;&gt;Node2 -->
<g id="edge2_Node000002_Node000003" class="edge">
<title>Node3&#45;&gt;Node2</title>
<g id="a_edge2_Node000002_Node000003"><a xlink:title=" ">
<path fill="none" stroke="#63b8ff" d="M75.34,-123.61C81.45,-114.89 88.81,-104.39 94.61,-96.11"/>
<polygon fill="#63b8ff" stroke="#63b8ff" points="72.42,-121.67 69.55,-131.87 78.16,-125.69 72.42,-121.67"/>
</a>
</g>
</g>
<!-- Node4 -->
<g id="Node000004" class="node">
<title>Node4</title>
<g id="a_Node000004"><a xlink:title=" ">
<polygon fill="white" stroke="#bfbfbf" points="178.5,-151 114.5,-151 114.5,-132 178.5,-132 178.5,-151"/>
<text text-anchor="middle" x="146.5" y="-139" font-family="Helvetica,sans-Serif" font-size="10.00">Flushable</text>
</a>
</g>
</g>
<!-- Node4&#45;&gt;Node2 -->
<g id="edge3_Node000002_Node000004" class="edge">
<title>Node4&#45;&gt;Node2</title>
<g id="a_edge3_Node000002_Node000004"><a xlink:title=" ">
<path fill="none" stroke="#63b8ff" d="M134.37,-123.61C128.12,-114.89 120.57,-104.39 114.63,-96.11"/>
<polygon fill="#63b8ff" stroke="#63b8ff" points="131.63,-125.79 140.3,-131.87 137.31,-121.7 131.63,-125.79"/>
</a>
</g>
</g>
</g>
</svg>
