<?xml version="1.0" encoding="UTF-8" standalone="no"?>
<!DOCTYPE svg PUBLIC "-//W3C//DTD SVG 1.1//EN"
 "http://www.w3.org/Graphics/SVG/1.1/DTD/svg11.dtd">
<!-- Generated by graphviz version 2.43.0 (0)
 -->
<!-- Title: fiftyone.pipeline.web.mvc.services.ClientsidePropertyService.Default Pages: 1 -->
<svg width="835pt" height="95pt"
 viewBox="0.00 0.00 835.00 95.00" xmlns="http://www.w3.org/2000/svg" xmlns:xlink="http://www.w3.org/1999/xlink">
<g id="graph0" class="graph" transform="scale(1 1) rotate(0) translate(4 91)">
<title>fiftyone.pipeline.web.mvc.services.ClientsidePropertyService.Default</title>
<!-- Node1 -->
<g id="Node000001" class="node">
<title>Node1</title>
<g id="a_Node000001"><a xlink:title=" ">
<polygon fill="#999999" stroke="#666666" points="827,-62 638,-62 638,-32 827,-32 827,-62"/>
<text text-anchor="start" x="646" y="-50" font-family="Helvetica,sans-Serif" font-size="10.00">fiftyone.pipeline.web.mvc.services.</text>
<text text-anchor="middle" x="732.5" y="-39" font-family="Helvetica,sans-Serif" font-size="10.00">ClientsidePropertyService.Default</text>
</a>
</g>
</g>
<!-- Node2 -->
<g id="Node000002" class="node">
<title>Node2</title>
<g id="a_Node000002"><a xlink:href="classfiftyone_1_1pipeline_1_1web_1_1services_1_1_clientside_property_service_core_1_1_default.html" target="_top" xlink:title="Default implementation of the ClientsidePropertyServiceCore interface.">
<polygon fill="white" stroke="#666666" points="601,-39 397,-39 397,-9 601,-9 601,-39"/>
<text text-anchor="start" x="405" y="-27" font-family="Helvetica,sans-Serif" font-size="10.00">fiftyone.pipeline.web.services.</text>
<text text-anchor="middle" x="499" y="-16" font-family="Helvetica,sans-Serif" font-size="10.00">ClientsidePropertyServiceCore.Default</text>
</a>
</g>
</g>
<!-- Node2&#45;&gt;Node1 -->
<g id="edge1_Node000001_Node000002" class="edge">
<title>Node2&#45;&gt;Node1</title>
<g id="a_edge1_Node000001_Node000002"><a xlink:title=" ">
<path fill="none" stroke="#63b8ff" d="M611.22,-35.05C620.12,-35.93 629.05,-36.82 637.81,-37.69"/>
<polygon fill="#63b8ff" stroke="#63b8ff" points="611.5,-31.56 601.2,-34.05 610.81,-38.53 611.5,-31.56"/>
</a>
</g>
</g>
<!-- Node3 -->
<g id="Node000003" class="node">
<title>Node3</title>
<g id="a_Node000003"><a xlink:href="interfacefiftyone_1_1pipeline_1_1web_1_1services_1_1_clientside_property_service_core.html" target="_top" xlink:title="Class that provides functionality for the &#39;Client side overrides&#39; feature.">
<polygon fill="white" stroke="#666666" points="302,-82 137,-82 137,-52 302,-52 302,-82"/>
<text text-anchor="start" x="145" y="-70" font-family="Helvetica,sans-Serif" font-size="10.00">fiftyone.pipeline.web.services.</text>
<text text-anchor="middle" x="219.5" y="-59" font-family="Helvetica,sans-Serif" font-size="10.00">ClientsidePropertyServiceCore</text>
</a>
</g>
</g>
<!-- Node3&#45;&gt;Node2 -->
<g id="edge2_Node000002_Node000003" class="edge">
<title>Node3&#45;&gt;Node2</title>
<g id="a_edge2_Node000002_Node000003"><a xlink:title=" ">
<path fill="none" stroke="#63b8ff" d="M312.22,-52.79C340.75,-48.37 372.29,-43.48 401.16,-39.01"/>
<polygon fill="#63b8ff" stroke="#63b8ff" points="311.6,-49.34 302.26,-54.33 312.68,-56.26 311.6,-49.34"/>
</a>
</g>
</g>
<!-- Node6 -->
<g id="Node000006" class="node">
<title>Node6</title>
<g id="a_Node000006"><a xlink:href="interfacefiftyone_1_1pipeline_1_1web_1_1mvc_1_1services_1_1_clientside_property_service.html" target="_top" xlink:title="Spring framework service for the ClientsidePropertyServiceCore.">
<polygon fill="white" stroke="#666666" points="593.5,-87 404.5,-87 404.5,-57 593.5,-57 593.5,-87"/>
<text text-anchor="start" x="412.5" y="-75" font-family="Helvetica,sans-Serif" font-size="10.00">fiftyone.pipeline.web.mvc.services.</text>
<text text-anchor="middle" x="499" y="-64" font-family="Helvetica,sans-Serif" font-size="10.00">ClientsidePropertyService</text>
</a>
</g>
</g>
<!-- Node3&#45;&gt;Node6 -->
<g id="edge6_Node000006_Node000003" class="edge">
<title>Node3&#45;&gt;Node6</title>
<g id="a_edge6_Node000006_Node000003"><a xlink:title=" ">
<path fill="none" stroke="#63b8ff" d="M312.53,-68.66C341.97,-69.19 374.58,-69.78 404.15,-70.31"/>
<polygon fill="#63b8ff" stroke="#63b8ff" points="312.32,-65.15 302.26,-68.47 312.19,-72.15 312.32,-65.15"/>
</a>
</g>
</g>
<!-- Node4 -->
<g id="Node000004" class="node">
<title>Node4</title>
<g id="a_Node000004"><a xlink:href="interfacefiftyone_1_1pipeline_1_1core_1_1flowelements_1_1_pipeline.html" target="_top" xlink:title="The Pipeline groups together FlowElements and is a factory for FlowData which serves as the evidence,...">
<polygon fill="white" stroke="#666666" points="315,-30 124,-30 124,0 315,0 315,-30"/>
<text text-anchor="start" x="132" y="-18" font-family="Helvetica,sans-Serif" font-size="10.00">fiftyone.pipeline.core.flowelements.</text>
<text text-anchor="middle" x="219.5" y="-7" font-family="Helvetica,sans-Serif" font-size="10.00">Pipeline</text>
</a>
</g>
</g>
<!-- Node4&#45;&gt;Node2 -->
<g id="edge3_Node000002_Node000004" class="edge">
<title>Node4&#45;&gt;Node2</title>
<g id="a_edge3_Node000002_Node000004"><a xlink:title=" ">
<path fill="none" stroke="#9a32cd" stroke-dasharray="5,2" d="M325.65,-14.77C343.46,-14.98 361.76,-15.37 379,-16 384.79,-16.21 390.74,-16.47 396.75,-16.77"/>
<polygon fill="#9a32cd" stroke="#9a32cd" points="325.26,-11.26 315.23,-14.66 325.19,-18.26 325.26,-11.26"/>
</a>
</g>
<text text-anchor="start" x="336" y="-21.5" font-family="Helvetica,sans-Serif" font-size="10.00" fill="grey">pipeline</text>
</g>
<!-- Node5 -->
<g id="Node000005" class="node">
<title>Node5</title>
<g id="a_Node000005"><a xlink:title=" ">
<polygon fill="white" stroke="#bfbfbf" points="87,-24.5 0,-24.5 0,-5.5 87,-5.5 87,-24.5"/>
<text text-anchor="middle" x="43.5" y="-12.5" font-family="Helvetica,sans-Serif" font-size="10.00">AutoCloseable</text>
</a>
</g>
</g>
<!-- Node5&#45;&gt;Node4 -->
<g id="edge4_Node000004_Node000005" class="edge">
<title>Node5&#45;&gt;Node4</title>
<g id="a_edge4_Node000004_Node000005"><a xlink:title=" ">
<path fill="none" stroke="#63b8ff" d="M97.15,-15C105.65,-15 114.68,-15 123.81,-15"/>
<polygon fill="#63b8ff" stroke="#63b8ff" points="97.07,-11.5 87.07,-15 97.07,-18.5 97.07,-11.5"/>
</a>
</g>
</g>
<!-- Node6&#45;&gt;Node1 -->
<g id="edge5_Node000001_Node000006" class="edge">
<title>Node6&#45;&gt;Node1</title>
<g id="a_edge5_Node000001_Node000006"><a xlink:title=" ">
<path fill="none" stroke="#63b8ff" d="M603.77,-60.79C615.15,-59.57 626.68,-58.32 637.92,-57.11"/>
<polygon fill="#63b8ff" stroke="#63b8ff" points="603.39,-57.31 593.83,-61.87 604.14,-64.27 603.39,-57.31"/>
</a>
</g>
</g>
</g>
</svg>
