<?xml version="1.0" encoding="UTF-8" standalone="no"?>
<!DOCTYPE svg PUBLIC "-//W3C//DTD SVG 1.1//EN"
 "http://www.w3.org/Graphics/SVG/1.1/DTD/svg11.dtd">
<!-- Generated by graphviz version 2.43.0 (0)
 -->
<!-- Title: fiftyone.pipeline.core.flowelements.FlowElementBase&lt; TData extends ElementData, TProperty extends ElementPropertyMetaData &gt; Pages: 1 -->
<svg width="2861pt" height="683pt"
 viewBox="0.00 0.00 2861.00 683.37" xmlns="http://www.w3.org/2000/svg" xmlns:xlink="http://www.w3.org/1999/xlink">
<g id="graph0" class="graph" transform="scale(1 1) rotate(0) translate(4 679.37)">
<title>fiftyone.pipeline.core.flowelements.FlowElementBase&lt; TData extends ElementData, TProperty extends ElementPropertyMetaData &gt;</title>
<!-- Node1 -->
<g id="Node000001" class="node">
<title>Node1</title>
<g id="a_Node000001"><a xlink:title="Provides a base class from which authors may create new FlowElements.">
<polygon fill="#999999" stroke="#666666" points="1264,-338.87 1073,-338.87 1073,-286.87 1264,-286.87 1264,-338.87"/>
<text text-anchor="start" x="1081" y="-326.87" font-family="Helvetica,sans-Serif" font-size="10.00">fiftyone.pipeline.core.flowelements.</text>
<text text-anchor="start" x="1081" y="-315.87" font-family="Helvetica,sans-Serif" font-size="10.00">FlowElementBase&lt; TData extends</text>
<text text-anchor="start" x="1081" y="-304.87" font-family="Helvetica,sans-Serif" font-size="10.00"> ElementData, TProperty extends</text>
<text text-anchor="middle" x="1168.5" y="-293.87" font-family="Helvetica,sans-Serif" font-size="10.00"> ElementPropertyMetaData &gt;</text>
</a>
</g>
</g>
<!-- Node8 -->
<g id="Node000008" class="node">
<title>Node8</title>
<g id="a_Node000008"><a xlink:href="classfiftyone_1_1pipeline_1_1engines_1_1fiftyone_1_1flowelements_1_1_sequence_element.html" target="_top" xlink:title="Sequence element establishes session and sequence evidence in the pipeline.">
<polygon fill="white" stroke="#666666" points="1736,-675.37 1469,-675.37 1469,-634.37 1736,-634.37 1736,-675.37"/>
<text text-anchor="start" x="1477" y="-663.37" font-family="Helvetica,sans-Serif" font-size="10.00">fiftyone.pipeline.engines.fiftyone.flowelements.</text>
<text text-anchor="start" x="1477" y="-652.37" font-family="Helvetica,sans-Serif" font-size="10.00">SequenceElement&lt; ElementData, ElementProperty</text>
<text text-anchor="middle" x="1602.5" y="-641.37" font-family="Helvetica,sans-Serif" font-size="10.00">MetaData &gt;</text>
</a>
</g>
</g>
<!-- Node1&#45;&gt;Node8 -->
<g id="edge9_Node000001_Node000008" class="edge">
<title>Node1&#45;&gt;Node8</title>
<g id="a_edge9_Node000001_Node000008"><a xlink:title=" ">
<path fill="none" stroke="#63b8ff" d="M1181.26,-348.64C1197.7,-394.08 1231.35,-472.74 1282,-523.87 1340.01,-582.44 1427.88,-615.88 1496.79,-634.3"/>
<polygon fill="#63b8ff" stroke="#63b8ff" points="1184.46,-347.18 1177.83,-338.92 1177.86,-349.52 1184.46,-347.18"/>
</a>
</g>
</g>
<!-- Node9 -->
<g id="Node000009" class="node">
<title>Node9</title>
<g id="a_Node000009"><a xlink:href="classfiftyone_1_1pipeline_1_1engines_1_1fiftyone_1_1flowelements_1_1_set_headers_element.html" target="_top" xlink:title="SetHeadersElement constructs the header values to be set in the HTTP response.">
<polygon fill="white" stroke="#666666" points="1726.5,-616.37 1478.5,-616.37 1478.5,-575.37 1726.5,-575.37 1726.5,-616.37"/>
<text text-anchor="start" x="1486.5" y="-604.37" font-family="Helvetica,sans-Serif" font-size="10.00">fiftyone.pipeline.engines.fiftyone.flowelements.</text>
<text text-anchor="start" x="1486.5" y="-593.37" font-family="Helvetica,sans-Serif" font-size="10.00">SetHeadersElement&lt; SetHeadersData,</text>
<text text-anchor="middle" x="1602.5" y="-582.37" font-family="Helvetica,sans-Serif" font-size="10.00"> ElementPropertyMetaData &gt;</text>
</a>
</g>
</g>
<!-- Node1&#45;&gt;Node9 -->
<g id="edge10_Node000001_Node000009" class="edge">
<title>Node1&#45;&gt;Node9</title>
<g id="a_edge10_Node000001_Node000009"><a xlink:title=" ">
<path fill="none" stroke="#63b8ff" d="M1189.86,-347.62C1210.14,-380.09 1243.73,-428.45 1282,-461.87 1353.79,-524.57 1379.91,-532.98 1469,-566.87 1477.14,-569.97 1485.7,-572.78 1494.38,-575.32"/>
<polygon fill="#63b8ff" stroke="#63b8ff" points="1192.72,-345.59 1184.49,-338.91 1186.76,-349.26 1192.72,-345.59"/>
</a>
</g>
</g>
<!-- Node10 -->
<g id="Node000010" class="node">
<title>Node10</title>
<g id="a_Node000010"><a xlink:href="classfiftyone_1_1pipeline_1_1engines_1_1fiftyone_1_1flowelements_1_1_share_usage_base.html" target="_top" xlink:title="Abstract base class for ShareUsage elements.">
<polygon fill="white" stroke="#666666" points="1733.5,-557.37 1471.5,-557.37 1471.5,-516.37 1733.5,-516.37 1733.5,-557.37"/>
<text text-anchor="start" x="1479.5" y="-545.37" font-family="Helvetica,sans-Serif" font-size="10.00">fiftyone.pipeline.engines.fiftyone.flowelements.</text>
<text text-anchor="start" x="1479.5" y="-534.37" font-family="Helvetica,sans-Serif" font-size="10.00">ShareUsageBase&lt; ElementData, ElementProperty</text>
<text text-anchor="middle" x="1602.5" y="-523.37" font-family="Helvetica,sans-Serif" font-size="10.00">MetaData &gt;</text>
</a>
</g>
</g>
<!-- Node1&#45;&gt;Node10 -->
<g id="edge11_Node000001_Node000010" class="edge">
<title>Node1&#45;&gt;Node10</title>
<g id="a_edge11_Node000001_Node000010"><a xlink:title=" ">
<path fill="none" stroke="#63b8ff" d="M1209.02,-345.37C1263.91,-388.83 1367.94,-465.23 1469,-506.87 1477.5,-510.38 1486.49,-513.51 1495.62,-516.3"/>
<polygon fill="#63b8ff" stroke="#63b8ff" points="1210.96,-342.44 1200.96,-338.95 1206.6,-347.92 1210.96,-342.44"/>
</a>
</g>
</g>
<!-- Node12 -->
<g id="Node000012" class="node">
<title>Node12</title>
<g id="a_Node000012"><a xlink:href="classfiftyone_1_1pipeline_1_1engines_1_1flowelements_1_1_aspect_engine_base.html" target="_top" xlink:title="Base class for AspectEngines to extend.">
<polygon fill="white" stroke="#666666" points="1726.5,-462.87 1478.5,-462.87 1478.5,-410.87 1726.5,-410.87 1726.5,-462.87"/>
<text text-anchor="start" x="1486.5" y="-450.87" font-family="Helvetica,sans-Serif" font-size="10.00">fiftyone.pipeline.engines.flowelements.</text>
<text text-anchor="start" x="1486.5" y="-439.87" font-family="Helvetica,sans-Serif" font-size="10.00">AspectEngineBase&lt; TData extends</text>
<text text-anchor="start" x="1486.5" y="-428.87" font-family="Helvetica,sans-Serif" font-size="10.00"> AspectData, TProperty extends AspectProperty</text>
<text text-anchor="middle" x="1602.5" y="-417.87" font-family="Helvetica,sans-Serif" font-size="10.00">MetaData &gt;</text>
</a>
</g>
</g>
<!-- Node1&#45;&gt;Node12 -->
<g id="edge13_Node000001_Node000012" class="edge">
<title>Node1&#45;&gt;Node12</title>
<g id="a_edge13_Node000001_Node000012"><a xlink:title=" ">
<path fill="none" stroke="#63b8ff" d="M1247.46,-342.37C1258.98,-346.42 1270.76,-350.37 1282,-353.87 1350.67,-375.25 1428.8,-395.62 1490.61,-410.83"/>
<polygon fill="#63b8ff" stroke="#63b8ff" points="1248.46,-339.01 1237.86,-338.97 1246.11,-345.61 1248.46,-339.01"/>
</a>
</g>
</g>
<!-- Node19 -->
<g id="Node000019" class="node">
<title>Node19</title>
<g id="a_Node000019"><a xlink:href="classfiftyone_1_1pipeline_1_1javascriptbuilder_1_1flowelements_1_1_java_script_builder_element.html" target="_top" xlink:title="[class]">
<polygon fill="white" stroke="#666666" points="1733,-392.37 1472,-392.37 1472,-351.37 1733,-351.37 1733,-392.37"/>
<text text-anchor="start" x="1480" y="-380.37" font-family="Helvetica,sans-Serif" font-size="10.00">fiftyone.pipeline.javascriptbuilder.flowelements.</text>
<text text-anchor="start" x="1480" y="-369.37" font-family="Helvetica,sans-Serif" font-size="10.00">JavaScriptBuilderElement&lt; JavaScriptBuilderData,</text>
<text text-anchor="middle" x="1602.5" y="-358.37" font-family="Helvetica,sans-Serif" font-size="10.00"> ElementPropertyMetaData &gt;</text>
</a>
</g>
</g>
<!-- Node1&#45;&gt;Node19 -->
<g id="edge21_Node000001_Node000019" class="edge">
<title>Node1&#45;&gt;Node19</title>
<g id="a_edge21_Node000001_Node000019"><a xlink:title=" ">
<path fill="none" stroke="#63b8ff" d="M1274.21,-327.17C1333.72,-335.3 1408.74,-345.55 1471.94,-354.18"/>
<polygon fill="#63b8ff" stroke="#63b8ff" points="1274.42,-323.67 1264.04,-325.78 1273.47,-330.61 1274.42,-323.67"/>
</a>
</g>
</g>
<!-- Node20 -->
<g id="Node000020" class="node">
<title>Node20</title>
<g id="a_Node000020"><a xlink:href="classfiftyone_1_1pipeline_1_1jsonbuilder_1_1flowelements_1_1_json_builder_element.html" target="_top" xlink:title="The JsonBuilderElement takes accessible properties and adds the property key:values to the Json objec...">
<polygon fill="white" stroke="#666666" points="1714.5,-333.37 1490.5,-333.37 1490.5,-292.37 1714.5,-292.37 1714.5,-333.37"/>
<text text-anchor="start" x="1498.5" y="-321.37" font-family="Helvetica,sans-Serif" font-size="10.00">fiftyone.pipeline.jsonbuilder.flowelements.</text>
<text text-anchor="start" x="1498.5" y="-310.37" font-family="Helvetica,sans-Serif" font-size="10.00">JsonBuilderElement&lt; JsonBuilderData,</text>
<text text-anchor="middle" x="1602.5" y="-299.37" font-family="Helvetica,sans-Serif" font-size="10.00"> ElementPropertyMetaData &gt;</text>
</a>
</g>
</g>
<!-- Node1&#45;&gt;Node20 -->
<g id="edge22_Node000001_Node000020" class="edge">
<title>Node1&#45;&gt;Node20</title>
<g id="a_edge22_Node000001_Node000020"><a xlink:title=" ">
<path fill="none" stroke="#63b8ff" d="M1274.37,-312.87C1339.76,-312.87 1423.82,-312.87 1490.36,-312.87"/>
<polygon fill="#63b8ff" stroke="#63b8ff" points="1274.04,-309.37 1264.04,-312.87 1274.04,-316.37 1274.04,-309.37"/>
</a>
</g>
</g>
<!-- Node21 -->
<g id="Node000021" class="node">
<title>Node21</title>
<g id="a_Node000021"><a xlink:href="classfiftyone_1_1pipeline_1_1core_1_1flowelements_1_1_flow_element_base.html" target="_top" xlink:title=" ">
<polygon fill="white" stroke="#666666" points="1698,-274.37 1507,-274.37 1507,-233.37 1698,-233.37 1698,-274.37"/>
<text text-anchor="start" x="1515" y="-262.37" font-family="Helvetica,sans-Serif" font-size="10.00">fiftyone.pipeline.core.flowelements.</text>
<text text-anchor="start" x="1515" y="-251.37" font-family="Helvetica,sans-Serif" font-size="10.00">FlowElementBase&lt; ElementData,</text>
<text text-anchor="middle" x="1602.5" y="-240.37" font-family="Helvetica,sans-Serif" font-size="10.00"> ElementPropertyMetaData &gt;</text>
</a>
</g>
</g>
<!-- Node1&#45;&gt;Node21 -->
<g id="edge23_Node000001_Node000021" class="edge">
<title>Node1&#45;&gt;Node21</title>
<g id="a_edge23_Node000001_Node000021"><a xlink:title=" ">
<path fill="none" stroke="orange" stroke-dasharray="5,2" d="M1252.25,-283.96C1262.18,-281.21 1272.26,-278.75 1282,-276.87 1356.67,-262.45 1442.73,-256.88 1506.71,-254.81"/>
<polygon fill="orange" stroke="orange" points="1251.02,-280.67 1242.37,-286.79 1252.95,-287.4 1251.02,-280.67"/>
</a>
</g>
<text text-anchor="start" x="1285.5" y="-297.87" font-family="Helvetica,sans-Serif" font-size="10.00" fill="grey">&lt; ElementData, ElementProperty</text>
<text text-anchor="start" x="1285.5" y="-282.87" font-family="Helvetica,sans-Serif" font-size="10.00" fill="grey">  MetaData &gt;</text>
</g>
<!-- Node23 -->
<g id="Node000023" class="node">
<title>Node23</title>
<g id="a_Node000023"><a xlink:href="classfiftyone_1_1pipeline_1_1core_1_1flowelements_1_1_flow_element_base.html" target="_top" xlink:title=" ">
<polygon fill="white" stroke="#666666" points="1701.5,-215.37 1503.5,-215.37 1503.5,-174.37 1701.5,-174.37 1701.5,-215.37"/>
<text text-anchor="start" x="1511.5" y="-203.37" font-family="Helvetica,sans-Serif" font-size="10.00">fiftyone.pipeline.core.flowelements.</text>
<text text-anchor="start" x="1511.5" y="-192.37" font-family="Helvetica,sans-Serif" font-size="10.00">FlowElementBase&lt; SetHeadersData,</text>
<text text-anchor="middle" x="1602.5" y="-181.37" font-family="Helvetica,sans-Serif" font-size="10.00"> ElementPropertyMetaData &gt;</text>
</a>
</g>
</g>
<!-- Node1&#45;&gt;Node23 -->
<g id="edge25_Node000001_Node000023" class="edge">
<title>Node1&#45;&gt;Node23</title>
<g id="a_edge25_Node000001_Node000023"><a xlink:title=" ">
<path fill="none" stroke="orange" stroke-dasharray="5,2" d="M1200.29,-279.35C1221.2,-258.95 1250.65,-234.47 1282,-221.87 1352.37,-193.58 1438.34,-187.76 1503.37,-188.5"/>
<polygon fill="orange" stroke="orange" points="1197.59,-277.1 1192.99,-286.65 1202.54,-282.05 1197.59,-277.1"/>
</a>
</g>
<text text-anchor="start" x="1297.5" y="-242.87" font-family="Helvetica,sans-Serif" font-size="10.00" fill="grey">&lt; SetHeadersData, Element</text>
<text text-anchor="start" x="1297.5" y="-227.87" font-family="Helvetica,sans-Serif" font-size="10.00" fill="grey">  PropertyMetaData &gt;</text>
</g>
<!-- Node24 -->
<g id="Node000024" class="node">
<title>Node24</title>
<g id="a_Node000024"><a xlink:href="classfiftyone_1_1pipeline_1_1core_1_1flowelements_1_1_flow_element_base.html" target="_top" xlink:title=" ">
<polygon fill="white" stroke="#666666" points="1707,-155.87 1498,-155.87 1498,-125.87 1707,-125.87 1707,-155.87"/>
<text text-anchor="start" x="1506" y="-143.87" font-family="Helvetica,sans-Serif" font-size="10.00">fiftyone.pipeline.core.flowelements.</text>
<text text-anchor="middle" x="1602.5" y="-132.87" font-family="Helvetica,sans-Serif" font-size="10.00">FlowElementBase&lt; TData, TProperty &gt;</text>
</a>
</g>
</g>
<!-- Node1&#45;&gt;Node24 -->
<g id="edge26_Node000001_Node000024" class="edge">
<title>Node1&#45;&gt;Node24</title>
<g id="a_edge26_Node000001_Node000024"><a xlink:title=" ">
<path fill="none" stroke="orange" stroke-dasharray="5,2" d="M1186.29,-277.51C1204.62,-243.27 1237.4,-193.09 1282,-168.87 1347.57,-133.27 1432.03,-127.26 1497.65,-129.63"/>
<polygon fill="orange" stroke="orange" points="1183.02,-276.22 1181.51,-286.71 1189.23,-279.45 1183.02,-276.22"/>
</a>
</g>
<text text-anchor="start" x="1313.5" y="-174.37" font-family="Helvetica,sans-Serif" font-size="10.00" fill="grey">&lt; TData, TProperty &gt;</text>
</g>
<!-- Node25 -->
<g id="Node000025" class="node">
<title>Node25</title>
<g id="a_Node000025"><a xlink:href="classfiftyone_1_1pipeline_1_1core_1_1flowelements_1_1_flow_element_base.html" target="_top" xlink:title=" ">
<polygon fill="white" stroke="#666666" points="1715,-107.37 1490,-107.37 1490,-66.37 1715,-66.37 1715,-107.37"/>
<text text-anchor="start" x="1498" y="-95.37" font-family="Helvetica,sans-Serif" font-size="10.00">fiftyone.pipeline.core.flowelements.</text>
<text text-anchor="start" x="1498" y="-84.37" font-family="Helvetica,sans-Serif" font-size="10.00">FlowElementBase&lt; JavaScriptBuilderData,</text>
<text text-anchor="middle" x="1602.5" y="-73.37" font-family="Helvetica,sans-Serif" font-size="10.00"> ElementPropertyMetaData &gt;</text>
</a>
</g>
</g>
<!-- Node1&#45;&gt;Node25 -->
<g id="edge27_Node000001_Node000025" class="edge">
<title>Node1&#45;&gt;Node25</title>
<g id="a_edge27_Node000001_Node000025"><a xlink:title=" ">
<path fill="none" stroke="orange" stroke-dasharray="5,2" d="M1176.18,-276.9C1187.78,-225.99 1216.91,-134.6 1282,-93.87 1315.69,-72.8 1411.72,-73.12 1489.77,-77.49"/>
<polygon fill="orange" stroke="orange" points="1172.73,-276.3 1174.03,-286.82 1179.57,-277.79 1172.73,-276.3"/>
</a>
</g>
<text text-anchor="start" x="1291.5" y="-114.87" font-family="Helvetica,sans-Serif" font-size="10.00" fill="grey">&lt; JavaScriptBuilderData,</text>
<text text-anchor="start" x="1291.5" y="-99.87" font-family="Helvetica,sans-Serif" font-size="10.00" fill="grey">   ElementPropertyMetaData &gt;</text>
</g>
<!-- Node26 -->
<g id="Node000026" class="node">
<title>Node26</title>
<g id="a_Node000026"><a xlink:href="classfiftyone_1_1pipeline_1_1core_1_1flowelements_1_1_flow_element_base.html" target="_top" xlink:title=" ">
<polygon fill="white" stroke="#666666" points="1701,-48.37 1504,-48.37 1504,-7.37 1701,-7.37 1701,-48.37"/>
<text text-anchor="start" x="1512" y="-36.37" font-family="Helvetica,sans-Serif" font-size="10.00">fiftyone.pipeline.core.flowelements.</text>
<text text-anchor="start" x="1512" y="-25.37" font-family="Helvetica,sans-Serif" font-size="10.00">FlowElementBase&lt; JsonBuilderData,</text>
<text text-anchor="middle" x="1602.5" y="-14.37" font-family="Helvetica,sans-Serif" font-size="10.00"> ElementPropertyMetaData &gt;</text>
</a>
</g>
</g>
<!-- Node1&#45;&gt;Node26 -->
<g id="edge28_Node000001_Node000026" class="edge">
<title>Node1&#45;&gt;Node26</title>
<g id="a_edge28_Node000001_Node000026"><a xlink:title=" ">
<path fill="none" stroke="orange" stroke-dasharray="5,2" d="M1172.44,-276.26C1179.51,-215.42 1203.25,-94.76 1282,-39.87 1349.28,7.02 1445.33,3.78 1514.52,-7.34"/>
<polygon fill="orange" stroke="orange" points="1168.93,-276.23 1171.34,-286.55 1175.89,-276.98 1168.93,-276.23"/>
</a>
</g>
<text text-anchor="start" x="1291.5" y="-60.87" font-family="Helvetica,sans-Serif" font-size="10.00" fill="grey">&lt; JsonBuilderData,</text>
<text text-anchor="start" x="1291.5" y="-45.87" font-family="Helvetica,sans-Serif" font-size="10.00" fill="grey">   ElementPropertyMetaData &gt;</text>
</g>
<!-- Node2 -->
<g id="Node000002" class="node">
<title>Node2</title>
<g id="a_Node000002"><a xlink:href="interfacefiftyone_1_1pipeline_1_1core_1_1flowelements_1_1_flow_element.html" target="_top" xlink:title=" ">
<polygon fill="white" stroke="#666666" points="1036,-327.87 845,-327.87 845,-297.87 1036,-297.87 1036,-327.87"/>
<text text-anchor="start" x="853" y="-315.87" font-family="Helvetica,sans-Serif" font-size="10.00">fiftyone.pipeline.core.flowelements.</text>
<text text-anchor="middle" x="940.5" y="-304.87" font-family="Helvetica,sans-Serif" font-size="10.00">FlowElement&lt; TData, TProperty &gt;</text>
</a>
</g>
</g>
<!-- Node2&#45;&gt;Node1 -->
<g id="edge1_Node000001_Node000002" class="edge">
<title>Node2&#45;&gt;Node1</title>
<g id="a_edge1_Node000001_Node000002"><a xlink:title=" ">
<path fill="none" stroke="#63b8ff" d="M1046.11,-312.87C1055.07,-312.87 1064.1,-312.87 1072.98,-312.87"/>
<polygon fill="#63b8ff" stroke="#63b8ff" points="1046.03,-309.37 1036.03,-312.87 1046.03,-316.37 1046.03,-309.37"/>
</a>
</g>
</g>
<!-- Node3 -->
<g id="Node000003" class="node">
<title>Node3</title>
<g id="a_Node000003"><a xlink:href="interfacefiftyone_1_1pipeline_1_1core_1_1flowelements_1_1_flow_element.html" target="_top" xlink:title="A component that processes a FlowData (by examining its evidence, or by examining data processed by o...">
<polygon fill="white" stroke="#666666" points="697,-333.37 444,-333.37 444,-292.37 697,-292.37 697,-333.37"/>
<text text-anchor="start" x="452" y="-321.37" font-family="Helvetica,sans-Serif" font-size="10.00">fiftyone.pipeline.core.flowelements.</text>
<text text-anchor="start" x="452" y="-310.37" font-family="Helvetica,sans-Serif" font-size="10.00">FlowElement&lt; TData extends ElementData,</text>
<text text-anchor="middle" x="570.5" y="-299.37" font-family="Helvetica,sans-Serif" font-size="10.00"> TProperty extends ElementPropertyMetaData &gt;</text>
</a>
</g>
</g>
<!-- Node3&#45;&gt;Node2 -->
<g id="edge2_Node000002_Node000003" class="edge">
<title>Node3&#45;&gt;Node2</title>
<g id="a_edge2_Node000002_Node000003"><a xlink:title=" ">
<path fill="none" stroke="orange" stroke-dasharray="5,2" d="M707.12,-312.87C752.92,-312.87 803.03,-312.87 844.95,-312.87"/>
<polygon fill="orange" stroke="orange" points="707.12,-309.37 697.12,-312.87 707.12,-316.37 707.12,-309.37"/>
</a>
</g>
<text text-anchor="start" x="718" y="-318.37" font-family="Helvetica,sans-Serif" font-size="10.00" fill="grey">&lt; TData, TProperty &gt;</text>
</g>
<!-- Node4 -->
<g id="Node000004" class="node">
<title>Node4</title>
<g id="a_Node000004"><a xlink:title=" ">
<polygon fill="white" stroke="#bfbfbf" points="324,-322.37 237,-322.37 237,-303.37 324,-303.37 324,-322.37"/>
<text text-anchor="middle" x="280.5" y="-310.37" font-family="Helvetica,sans-Serif" font-size="10.00">AutoCloseable</text>
</a>
</g>
</g>
<!-- Node4&#45;&gt;Node3 -->
<g id="edge3_Node000003_Node000004" class="edge">
<title>Node4&#45;&gt;Node3</title>
<g id="a_edge3_Node000003_Node000004"><a xlink:title=" ">
<path fill="none" stroke="#63b8ff" d="M334.37,-312.87C365.15,-312.87 405.37,-312.87 443.82,-312.87"/>
<polygon fill="#63b8ff" stroke="#63b8ff" points="334.31,-309.37 324.31,-312.87 334.31,-316.37 334.31,-309.37"/>
</a>
</g>
</g>
<!-- Node5 -->
<g id="Node000005" class="node">
<title>Node5</title>
<g id="a_Node000005"><a xlink:href="interfacefiftyone_1_1pipeline_1_1core_1_1data_1_1_element_data.html" target="_top" xlink:title="Represents property values that have be determined by a specific FlowElement based on the supplied ev...">
<polygon fill="white" stroke="#666666" points="354,-381.87 207,-381.87 207,-351.87 354,-351.87 354,-381.87"/>
<text text-anchor="start" x="215" y="-369.87" font-family="Helvetica,sans-Serif" font-size="10.00">fiftyone.pipeline.core.data.</text>
<text text-anchor="middle" x="280.5" y="-358.87" font-family="Helvetica,sans-Serif" font-size="10.00">ElementData</text>
</a>
</g>
</g>
<!-- Node5&#45;&gt;Node1 -->
<g id="edge7_Node000001_Node000005" class="edge">
<title>Node5&#45;&gt;Node1</title>
<g id="a_edge7_Node000001_Node000005"><a xlink:title=" ">
<path fill="none" stroke="orange" stroke-dasharray="5,2" d="M364.37,-365.49C384.54,-365.06 406.05,-364.52 426,-363.87 697.23,-355.06 766.34,-367.31 1036,-336.87 1047.99,-335.52 1060.54,-333.73 1072.92,-331.73"/>
<polygon fill="orange" stroke="orange" points="364.2,-361.99 354.28,-365.7 364.35,-368.99 364.2,-361.99"/>
</a>
</g>
<text text-anchor="start" x="756" y="-363.37" font-family="Helvetica,sans-Serif" font-size="10.00" fill="grey">TData</text>
</g>
<!-- Node5&#45;&gt;Node3 -->
<g id="edge4_Node000003_Node000005" class="edge">
<title>Node5&#45;&gt;Node3</title>
<g id="a_edge4_Node000003_Node000005"><a xlink:title=" ">
<path fill="none" stroke="orange" stroke-dasharray="5,2" d="M358.31,-349.64C362.94,-348.68 367.53,-347.75 372,-346.87 395.56,-342.25 420.76,-337.64 445.02,-333.39"/>
<polygon fill="orange" stroke="orange" points="357.21,-346.29 348.15,-351.77 358.65,-353.14 357.21,-346.29"/>
</a>
</g>
<text text-anchor="start" x="384" y="-352.37" font-family="Helvetica,sans-Serif" font-size="10.00" fill="grey">TData</text>
</g>
<!-- Node6 -->
<g id="Node000006" class="node">
<title>Node6</title>
<g id="a_Node000006"><a xlink:href="interfacefiftyone_1_1pipeline_1_1core_1_1data_1_1_data.html" target="_top" xlink:title="Represents a collection of property values.">
<polygon fill="white" stroke="#666666" points="170,-376.37 0,-376.37 0,-357.37 170,-357.37 170,-376.37"/>
<text text-anchor="middle" x="85" y="-364.37" font-family="Helvetica,sans-Serif" font-size="10.00">fiftyone.pipeline.core.data.Data</text>
</a>
</g>
</g>
<!-- Node6&#45;&gt;Node5 -->
<g id="edge5_Node000005_Node000006" class="edge">
<title>Node6&#45;&gt;Node5</title>
<g id="a_edge5_Node000005_Node000006"><a xlink:title=" ">
<path fill="none" stroke="#63b8ff" d="M180.11,-366.87C189.07,-366.87 198.06,-366.87 206.77,-366.87"/>
<polygon fill="#63b8ff" stroke="#63b8ff" points="180.03,-363.37 170.03,-366.87 180.03,-370.37 180.03,-363.37"/>
</a>
</g>
</g>
<!-- Node7 -->
<g id="Node000007" class="node">
<title>Node7</title>
<g id="a_Node000007"><a xlink:href="interfacefiftyone_1_1pipeline_1_1core_1_1data_1_1_element_property_meta_data.html" target="_top" xlink:title="Defines details of a property that can be returned by a FlowElement.">
<polygon fill="white" stroke="#666666" points="354,-273.87 207,-273.87 207,-243.87 354,-243.87 354,-273.87"/>
<text text-anchor="start" x="215" y="-261.87" font-family="Helvetica,sans-Serif" font-size="10.00">fiftyone.pipeline.core.data.</text>
<text text-anchor="middle" x="280.5" y="-250.87" font-family="Helvetica,sans-Serif" font-size="10.00">ElementPropertyMetaData</text>
</a>
</g>
</g>
<!-- Node7&#45;&gt;Node1 -->
<g id="edge8_Node000001_Node000007" class="edge">
<title>Node7&#45;&gt;Node1</title>
<g id="a_edge8_Node000001_Node000007"><a xlink:title=" ">
<path fill="none" stroke="orange" stroke-dasharray="5,2" d="M364.22,-258.36C503.36,-258.36 792.89,-261.99 1036,-288.87 1047.99,-290.2 1060.54,-291.98 1072.92,-293.97"/>
<polygon fill="orange" stroke="orange" points="364.06,-254.86 354.06,-258.37 364.06,-261.86 364.06,-254.86"/>
</a>
</g>
<text text-anchor="start" x="747" y="-277.37" font-family="Helvetica,sans-Serif" font-size="10.00" fill="grey">TProperty</text>
</g>
<!-- Node7&#45;&gt;Node3 -->
<g id="edge6_Node000003_Node000007" class="edge">
<title>Node7&#45;&gt;Node3</title>
<g id="a_edge6_Node000003_Node000007"><a xlink:title=" ">
<path fill="none" stroke="orange" stroke-dasharray="5,2" d="M364.13,-274.37C394.02,-279.97 428.24,-286.39 460.07,-292.36"/>
<polygon fill="orange" stroke="orange" points="364.65,-270.9 354.17,-272.5 363.36,-277.78 364.65,-270.9"/>
</a>
</g>
<text text-anchor="start" x="375" y="-291.37" font-family="Helvetica,sans-Serif" font-size="10.00" fill="grey">TProperty</text>
</g>
<!-- Node11 -->
<g id="Node000011" class="node">
<title>Node11</title>
<g id="a_Node000011"><a xlink:href="classfiftyone_1_1pipeline_1_1engines_1_1fiftyone_1_1flowelements_1_1_share_usage_element.html" target="_top" xlink:title="Flow element that sends usage data to 51Degrees for analysis.">
<polygon fill="white" stroke="#666666" points="2181,-564.87 1933,-564.87 1933,-534.87 2181,-534.87 2181,-564.87"/>
<text text-anchor="start" x="1941" y="-552.87" font-family="Helvetica,sans-Serif" font-size="10.00">fiftyone.pipeline.engines.fiftyone.flowelements.</text>
<text text-anchor="middle" x="2057" y="-541.87" font-family="Helvetica,sans-Serif" font-size="10.00">ShareUsageElement</text>
</a>
</g>
</g>
<!-- Node10&#45;&gt;Node11 -->
<g id="edge12_Node000010_Node000011" class="edge">
<title>Node10&#45;&gt;Node11</title>
<g id="a_edge12_Node000010_Node000011"><a xlink:title=" ">
<path fill="none" stroke="#63b8ff" d="M1743.78,-540.9C1804.28,-542.64 1874.41,-544.66 1932.86,-546.34"/>
<polygon fill="#63b8ff" stroke="#63b8ff" points="1743.87,-537.4 1733.77,-540.62 1743.67,-544.4 1743.87,-537.4"/>
</a>
</g>
</g>
<!-- Node12&#45;&gt;Node12 -->
<g id="edge20_Node000012_Node000012" class="edge">
<title>Node12&#45;&gt;Node12</title>
<g id="a_edge20_Node000012_Node000012"><a xlink:title=" ">
<path fill="none" stroke="orange" stroke-dasharray="5,2" d="M1564.28,-472.27C1570.35,-477.41 1583.09,-480.87 1602.5,-480.87 1632.07,-480.87 1646.17,-472.84 1644.78,-463.07"/>
<polygon fill="orange" stroke="orange" points="1567.46,-470.81 1560.22,-463.07 1561.05,-473.63 1567.46,-470.81"/>
</a>
</g>
<text text-anchor="start" x="1549.5" y="-486.37" font-family="Helvetica,sans-Serif" font-size="10.00" fill="grey">&lt; TData, TProperty &gt;</text>
</g>
<!-- Node13 -->
<g id="Node000013" class="node">
<title>Node13</title>
<g id="a_Node000013"><a xlink:href="classfiftyone_1_1pipeline_1_1cloudrequestengine_1_1flowelements_1_1_cloud_aspect_engine_base.html" target="_top" xlink:title="Base class for 51Degrees Cloud Aspect Engines.">
<polygon fill="white" stroke="#666666" points="2190,-398.37 1924,-398.37 1924,-357.37 2190,-357.37 2190,-398.37"/>
<text text-anchor="start" x="1932" y="-386.37" font-family="Helvetica,sans-Serif" font-size="10.00">fiftyone.pipeline.cloudrequestengine.flowelements.</text>
<text text-anchor="start" x="1932" y="-375.37" font-family="Helvetica,sans-Serif" font-size="10.00">CloudAspectEngineBase&lt; TData extends</text>
<text text-anchor="middle" x="2057" y="-364.37" font-family="Helvetica,sans-Serif" font-size="10.00"> AspectData &gt;</text>
</a>
</g>
</g>
<!-- Node12&#45;&gt;Node13 -->
<g id="edge14_Node000012_Node000013" class="edge">
<title>Node12&#45;&gt;Node13</title>
<g id="a_edge14_Node000012_Node000013"><a xlink:title=" ">
<path fill="none" stroke="#63b8ff" d="M1736.69,-419.51C1795.71,-411.81 1864.96,-402.78 1923.86,-395.1"/>
<polygon fill="#63b8ff" stroke="#63b8ff" points="1736.01,-416.07 1726.55,-420.83 1736.92,-423.01 1736.01,-416.07"/>
</a>
</g>
</g>
<!-- Node16 -->
<g id="Node000016" class="node">
<title>Node16</title>
<g id="a_Node000016"><a xlink:href="classfiftyone_1_1pipeline_1_1cloudrequestengine_1_1flowelements_1_1_cloud_request_engine_default.html" target="_top" xlink:title="Engine that makes requests to the 51Degrees cloud service.">
<polygon fill="white" stroke="#666666" points="2190,-339.37 1924,-339.37 1924,-298.37 2190,-298.37 2190,-339.37"/>
<text text-anchor="start" x="1932" y="-327.37" font-family="Helvetica,sans-Serif" font-size="10.00">fiftyone.pipeline.cloudrequestengine.flowelements.</text>
<text text-anchor="start" x="1932" y="-316.37" font-family="Helvetica,sans-Serif" font-size="10.00">CloudRequestEngineDefault&lt; CloudRequestData,</text>
<text text-anchor="middle" x="2057" y="-305.37" font-family="Helvetica,sans-Serif" font-size="10.00"> AspectPropertyMetaData &gt;</text>
</a>
</g>
</g>
<!-- Node12&#45;&gt;Node16 -->
<g id="edge17_Node000012_Node000016" class="edge">
<title>Node12&#45;&gt;Node16</title>
<g id="a_edge17_Node000012_Node000016"><a xlink:title=" ">
<path fill="none" stroke="#63b8ff" d="M1718.1,-407.84C1724.18,-405.91 1730.18,-403.92 1736,-401.87 1744.26,-398.97 1745.74,-396.78 1754,-393.87 1827.72,-367.92 1848.1,-367.54 1924,-348.87 1936.78,-345.73 1950.28,-342.53 1963.59,-339.44"/>
<polygon fill="#63b8ff" stroke="#63b8ff" points="1717.01,-404.51 1708.49,-410.81 1719.08,-411.2 1717.01,-404.51"/>
</a>
</g>
</g>
<!-- Node17 -->
<g id="Node000017" class="node">
<title>Node17</title>
<g id="a_Node000017"><a xlink:href="classfiftyone_1_1pipeline_1_1engines_1_1flowelements_1_1_aspect_engine_base.html" target="_top" xlink:title=" ">
<polygon fill="white" stroke="#666666" points="2170.5,-516.37 1943.5,-516.37 1943.5,-475.37 2170.5,-475.37 2170.5,-516.37"/>
<text text-anchor="start" x="1951.5" y="-504.37" font-family="Helvetica,sans-Serif" font-size="10.00">fiftyone.pipeline.engines.flowelements.</text>
<text text-anchor="start" x="1951.5" y="-493.37" font-family="Helvetica,sans-Serif" font-size="10.00">AspectEngineBase&lt; TData, AspectProperty</text>
<text text-anchor="middle" x="2057" y="-482.37" font-family="Helvetica,sans-Serif" font-size="10.00">MetaData &gt;</text>
</a>
</g>
</g>
<!-- Node12&#45;&gt;Node17 -->
<g id="edge18_Node000012_Node000017" class="edge">
<title>Node12&#45;&gt;Node17</title>
<g id="a_edge18_Node000012_Node000017"><a xlink:title=" ">
<path fill="none" stroke="orange" stroke-dasharray="5,2" d="M1712.67,-465.13C1726.52,-468.08 1740.54,-470.77 1754,-472.87 1816.21,-482.62 1886.3,-488.28 1943.29,-491.55"/>
<polygon fill="orange" stroke="orange" points="1713.15,-461.65 1702.63,-462.94 1711.65,-468.49 1713.15,-461.65"/>
</a>
</g>
<text text-anchor="start" x="1757" y="-509.87" font-family="Helvetica,sans-Serif" font-size="10.00" fill="grey">&lt; TData, AspectPropertyMeta</text>
<text text-anchor="start" x="1757" y="-494.87" font-family="Helvetica,sans-Serif" font-size="10.00" fill="grey">  Data &gt;</text>
</g>
<!-- Node18 -->
<g id="Node000018" class="node">
<title>Node18</title>
<g id="a_Node000018"><a xlink:href="classfiftyone_1_1pipeline_1_1engines_1_1flowelements_1_1_aspect_engine_base.html" target="_top" xlink:title=" ">
<polygon fill="white" stroke="#666666" points="2163,-457.37 1951,-457.37 1951,-416.37 2163,-416.37 2163,-457.37"/>
<text text-anchor="start" x="1959" y="-445.37" font-family="Helvetica,sans-Serif" font-size="10.00">fiftyone.pipeline.engines.flowelements.</text>
<text text-anchor="start" x="1959" y="-434.37" font-family="Helvetica,sans-Serif" font-size="10.00">AspectEngineBase&lt; CloudRequestData,</text>
<text text-anchor="middle" x="2057" y="-423.37" font-family="Helvetica,sans-Serif" font-size="10.00"> AspectPropertyMetaData &gt;</text>
</a>
</g>
</g>
<!-- Node12&#45;&gt;Node18 -->
<g id="edge19_Node000012_Node000018" class="edge">
<title>Node12&#45;&gt;Node18</title>
<g id="a_edge19_Node000012_Node000018"><a xlink:title=" ">
<path fill="none" stroke="orange" stroke-dasharray="5,2" d="M1736.94,-436.87C1805.13,-436.87 1886.93,-436.87 1950.64,-436.87"/>
<polygon fill="orange" stroke="orange" points="1736.55,-433.37 1726.55,-436.87 1736.55,-440.37 1736.55,-433.37"/>
</a>
</g>
<text text-anchor="start" x="1759" y="-457.87" font-family="Helvetica,sans-Serif" font-size="10.00" fill="grey">&lt; CloudRequestData,</text>
<text text-anchor="start" x="1759" y="-442.87" font-family="Helvetica,sans-Serif" font-size="10.00" fill="grey">   AspectPropertyMetaData &gt;</text>
</g>
<!-- Node14 -->
<g id="Node000014" class="node">
<title>Node14</title>
<g id="a_Node000014"><a xlink:href="classfiftyone_1_1pipeline_1_1cloudrequestengine_1_1flowelements_1_1_cloud_aspect_engine_base.html" target="_top" xlink:title=" ">
<polygon fill="white" stroke="#666666" points="2550,-392.87 2284,-392.87 2284,-362.87 2550,-362.87 2550,-392.87"/>
<text text-anchor="start" x="2292" y="-380.87" font-family="Helvetica,sans-Serif" font-size="10.00">fiftyone.pipeline.cloudrequestengine.flowelements.</text>
<text text-anchor="middle" x="2417" y="-369.87" font-family="Helvetica,sans-Serif" font-size="10.00">CloudAspectEngineBase&lt; TData &gt;</text>
</a>
</g>
</g>
<!-- Node13&#45;&gt;Node14 -->
<g id="edge15_Node000013_Node000014" class="edge">
<title>Node13&#45;&gt;Node14</title>
<g id="a_edge15_Node000013_Node000014"><a xlink:title=" ">
<path fill="none" stroke="orange" stroke-dasharray="5,2" d="M2200.14,-377.87C2227.72,-377.87 2256.53,-377.87 2283.78,-377.87"/>
<polygon fill="orange" stroke="orange" points="2200.03,-374.37 2190.03,-377.87 2200.03,-381.37 2200.03,-374.37"/>
</a>
</g>
<text text-anchor="start" x="2211" y="-383.37" font-family="Helvetica,sans-Serif" font-size="10.00" fill="grey">&lt; TData &gt;</text>
</g>
<!-- Node15 -->
<g id="Node000015" class="node">
<title>Node15</title>
<g id="a_Node000015"><a xlink:href="classfiftyone_1_1pipeline_1_1cloudrequestengine_1_1flowelements_1_1_property_keyed_cloud_engine_base.html" target="_top" xlink:title="A specialised type of CloudAspectEngineBase that has the functionality to support returning a list of...">
<polygon fill="white" stroke="#666666" points="2853,-403.87 2587,-403.87 2587,-351.87 2853,-351.87 2853,-403.87"/>
<text text-anchor="start" x="2595" y="-391.87" font-family="Helvetica,sans-Serif" font-size="10.00">fiftyone.pipeline.cloudrequestengine.flowelements.</text>
<text text-anchor="start" x="2595" y="-380.87" font-family="Helvetica,sans-Serif" font-size="10.00">PropertyKeyedCloudEngineBase&lt; TData</text>
<text text-anchor="start" x="2595" y="-369.87" font-family="Helvetica,sans-Serif" font-size="10.00"> extends MultiProfileData&lt; TProfile</text>
<text text-anchor="middle" x="2720" y="-358.87" font-family="Helvetica,sans-Serif" font-size="10.00"> &gt;, TProfile extends AspectData &gt;</text>
</a>
</g>
</g>
<!-- Node14&#45;&gt;Node15 -->
<g id="edge16_Node000014_Node000015" class="edge">
<title>Node14&#45;&gt;Node15</title>
<g id="a_edge16_Node000014_Node000015"><a xlink:title=" ">
<path fill="none" stroke="#63b8ff" d="M2560.03,-377.87C2568.91,-377.87 2577.84,-377.87 2586.68,-377.87"/>
<polygon fill="#63b8ff" stroke="#63b8ff" points="2560.02,-374.37 2550.02,-377.87 2560.02,-381.37 2560.02,-374.37"/>
</a>
</g>
</g>
<!-- Node22 -->
<g id="Node000022" class="node">
<title>Node22</title>
<g id="a_Node000022"><a xlink:title=" ">
<polygon fill="white" stroke="#666666" points="2152.5,-268.87 1961.5,-268.87 1961.5,-238.87 2152.5,-238.87 2152.5,-268.87"/>
<text text-anchor="start" x="1969.5" y="-256.87" font-family="Helvetica,sans-Serif" font-size="10.00">fiftyone.pipeline.core.flowelements.</text>
<text text-anchor="middle" x="2057" y="-245.87" font-family="Helvetica,sans-Serif" font-size="10.00">ParallelElements</text>
</a>
</g>
</g>
<!-- Node21&#45;&gt;Node22 -->
<g id="edge24_Node000021_Node000022" class="edge">
<title>Node21&#45;&gt;Node22</title>
<g id="a_edge24_Node000021_Node000022"><a xlink:title=" ">
<path fill="none" stroke="#63b8ff" d="M1708.2,-253.87C1784.56,-253.87 1887.19,-253.87 1961.15,-253.87"/>
<polygon fill="#63b8ff" stroke="#63b8ff" points="1708.08,-250.37 1698.08,-253.87 1708.08,-257.37 1708.08,-250.37"/>
</a>
</g>
</g>
</g>
</svg>
