<?xml version="1.0" encoding="UTF-8" standalone="no"?>
<!DOCTYPE svg PUBLIC "-//W3C//DTD SVG 1.1//EN"
 "http://www.w3.org/Graphics/SVG/1.1/DTD/svg11.dtd">
<!-- Generated by graphviz version 2.43.0 (0)
 -->
<!-- Title: fiftyone.pipeline.engines.fiftyone.flowelements.ShareUsageBuilderBase&lt; T extends ShareUsageBase &gt; Pages: 1 -->
<svg width="1947pt" height="200pt"
 viewBox="0.00 0.00 1947.00 200.00" xmlns="http://www.w3.org/2000/svg" xmlns:xlink="http://www.w3.org/1999/xlink">
<g id="graph0" class="graph" transform="scale(1 1) rotate(0) translate(4 196)">
<title>fiftyone.pipeline.engines.fiftyone.flowelements.ShareUsageBuilderBase&lt; T extends ShareUsageBase &gt;</title>
<!-- Node1 -->
<g id="Node000001" class="node">
<title>Node1</title>
<g id="a_Node000001"><a xlink:title="Abstract base class for ShareUsageElement builders.">
<polygon fill="#999999" stroke="#666666" points="1939,-105 1649,-105 1649,-75 1939,-75 1939,-105"/>
<text text-anchor="start" x="1657" y="-93" font-family="Helvetica,sans-Serif" font-size="10.00">fiftyone.pipeline.engines.fiftyone.flowelements.</text>
<text text-anchor="middle" x="1794" y="-82" font-family="Helvetica,sans-Serif" font-size="10.00">ShareUsageBuilderBase&lt; T extends ShareUsageBase &gt;</text>
</a>
</g>
</g>
<!-- Node2 -->
<g id="Node000002" class="node">
<title>Node2</title>
<g id="a_Node000002"><a xlink:href="classfiftyone_1_1pipeline_1_1engines_1_1fiftyone_1_1flowelements_1_1_share_usage_base.html" target="_top" xlink:title="Abstract base class for ShareUsage elements.">
<polygon fill="white" stroke="#666666" points="1600,-105 1352,-105 1352,-75 1600,-75 1600,-105"/>
<text text-anchor="start" x="1360" y="-93" font-family="Helvetica,sans-Serif" font-size="10.00">fiftyone.pipeline.engines.fiftyone.flowelements.</text>
<text text-anchor="middle" x="1476" y="-82" font-family="Helvetica,sans-Serif" font-size="10.00">ShareUsageBase</text>
</a>
</g>
</g>
<!-- Node2&#45;&gt;Node1 -->
<g id="edge1_Node000001_Node000002" class="edge">
<title>Node2&#45;&gt;Node1</title>
<g id="a_edge1_Node000001_Node000002"><a xlink:title=" ">
<path fill="none" stroke="orange" stroke-dasharray="5,2" d="M1610.28,-90C1623.08,-90 1636.09,-90 1648.98,-90"/>
<polygon fill="orange" stroke="orange" points="1610.08,-86.5 1600.08,-90 1610.08,-93.5 1610.08,-86.5"/>
</a>
</g>
<text text-anchor="start" x="1621.5" y="-95.5" font-family="Helvetica,sans-Serif" font-size="10.00" fill="grey">T</text>
</g>
<!-- Node3 -->
<g id="Node000003" class="node">
<title>Node3</title>
<g id="a_Node000003"><a xlink:href="classfiftyone_1_1pipeline_1_1core_1_1flowelements_1_1_flow_element_base.html" target="_top" xlink:title="Provides a base class from which authors may create new FlowElements.">
<polygon fill="white" stroke="#666666" points="1315,-116 1124,-116 1124,-64 1315,-64 1315,-116"/>
<text text-anchor="start" x="1132" y="-104" font-family="Helvetica,sans-Serif" font-size="10.00">fiftyone.pipeline.core.flowelements.</text>
<text text-anchor="start" x="1132" y="-93" font-family="Helvetica,sans-Serif" font-size="10.00">FlowElementBase&lt; TData extends</text>
<text text-anchor="start" x="1132" y="-82" font-family="Helvetica,sans-Serif" font-size="10.00"> ElementData, TProperty extends</text>
<text text-anchor="middle" x="1219.5" y="-71" font-family="Helvetica,sans-Serif" font-size="10.00"> ElementPropertyMetaData &gt;</text>
</a>
</g>
</g>
<!-- Node3&#45;&gt;Node2 -->
<g id="edge2_Node000002_Node000003" class="edge">
<title>Node3&#45;&gt;Node2</title>
<g id="a_edge2_Node000002_Node000003"><a xlink:title=" ">
<path fill="none" stroke="#63b8ff" d="M1325.37,-90C1334.04,-90 1342.85,-90 1351.64,-90"/>
<polygon fill="#63b8ff" stroke="#63b8ff" points="1325.27,-86.5 1315.27,-90 1325.27,-93.5 1325.27,-86.5"/>
</a>
</g>
</g>
<!-- Node4 -->
<g id="Node000004" class="node">
<title>Node4</title>
<g id="a_Node000004"><a xlink:href="interfacefiftyone_1_1pipeline_1_1core_1_1flowelements_1_1_flow_element.html" target="_top" xlink:title=" ">
<polygon fill="white" stroke="#666666" points="1036,-124 845,-124 845,-94 1036,-94 1036,-124"/>
<text text-anchor="start" x="853" y="-112" font-family="Helvetica,sans-Serif" font-size="10.00">fiftyone.pipeline.core.flowelements.</text>
<text text-anchor="middle" x="940.5" y="-101" font-family="Helvetica,sans-Serif" font-size="10.00">FlowElement&lt; TData, TProperty &gt;</text>
</a>
</g>
</g>
<!-- Node4&#45;&gt;Node3 -->
<g id="edge3_Node000003_Node000004" class="edge">
<title>Node4&#45;&gt;Node3</title>
<g id="a_edge3_Node000003_Node000004"><a xlink:title=" ">
<path fill="none" stroke="#63b8ff" d="M1046.13,-101.82C1071.67,-100.07 1098.86,-98.21 1123.9,-96.49"/>
<polygon fill="#63b8ff" stroke="#63b8ff" points="1045.79,-98.34 1036.05,-102.51 1046.27,-105.32 1045.79,-98.34"/>
</a>
</g>
</g>
<!-- Node5 -->
<g id="Node000005" class="node">
<title>Node5</title>
<g id="a_Node000005"><a xlink:href="interfacefiftyone_1_1pipeline_1_1core_1_1flowelements_1_1_flow_element.html" target="_top" xlink:title="A component that processes a FlowData (by examining its evidence, or by examining data processed by o...">
<polygon fill="white" stroke="#666666" points="697,-141.5 444,-141.5 444,-100.5 697,-100.5 697,-141.5"/>
<text text-anchor="start" x="452" y="-129.5" font-family="Helvetica,sans-Serif" font-size="10.00">fiftyone.pipeline.core.flowelements.</text>
<text text-anchor="start" x="452" y="-118.5" font-family="Helvetica,sans-Serif" font-size="10.00">FlowElement&lt; TData extends ElementData,</text>
<text text-anchor="middle" x="570.5" y="-107.5" font-family="Helvetica,sans-Serif" font-size="10.00"> TProperty extends ElementPropertyMetaData &gt;</text>
</a>
</g>
</g>
<!-- Node5&#45;&gt;Node4 -->
<g id="edge4_Node000004_Node000005" class="edge">
<title>Node5&#45;&gt;Node4</title>
<g id="a_edge4_Node000004_Node000005"><a xlink:title=" ">
<path fill="none" stroke="orange" stroke-dasharray="5,2" d="M707.12,-116.58C752.92,-115.08 803.03,-113.45 844.95,-112.08"/>
<polygon fill="orange" stroke="orange" points="707,-113.08 697.12,-116.9 707.22,-120.08 707,-113.08"/>
</a>
</g>
<text text-anchor="start" x="718" y="-121.5" font-family="Helvetica,sans-Serif" font-size="10.00" fill="grey">&lt; TData, TProperty &gt;</text>
</g>
<!-- Node6 -->
<g id="Node000006" class="node">
<title>Node6</title>
<g id="a_Node000006"><a xlink:title=" ">
<polygon fill="white" stroke="#bfbfbf" points="324,-132.5 237,-132.5 237,-113.5 324,-113.5 324,-132.5"/>
<text text-anchor="middle" x="280.5" y="-120.5" font-family="Helvetica,sans-Serif" font-size="10.00">AutoCloseable</text>
</a>
</g>
</g>
<!-- Node6&#45;&gt;Node5 -->
<g id="edge5_Node000005_Node000006" class="edge">
<title>Node6&#45;&gt;Node5</title>
<g id="a_edge5_Node000005_Node000006"><a xlink:title=" ">
<path fill="none" stroke="#63b8ff" d="M334.37,-122.63C365.15,-122.42 405.37,-122.14 443.82,-121.87"/>
<polygon fill="#63b8ff" stroke="#63b8ff" points="334.28,-119.13 324.31,-122.7 334.33,-126.13 334.28,-119.13"/>
</a>
</g>
</g>
<!-- Node7 -->
<g id="Node000007" class="node">
<title>Node7</title>
<g id="a_Node000007"><a xlink:href="interfacefiftyone_1_1pipeline_1_1core_1_1data_1_1_element_data.html" target="_top" xlink:title="Represents property values that have be determined by a specific FlowElement based on the supplied ev...">
<polygon fill="white" stroke="#666666" points="354,-192 207,-192 207,-162 354,-162 354,-192"/>
<text text-anchor="start" x="215" y="-180" font-family="Helvetica,sans-Serif" font-size="10.00">fiftyone.pipeline.core.data.</text>
<text text-anchor="middle" x="280.5" y="-169" font-family="Helvetica,sans-Serif" font-size="10.00">ElementData</text>
</a>
</g>
</g>
<!-- Node7&#45;&gt;Node3 -->
<g id="edge11_Node000003_Node000007" class="edge">
<title>Node7&#45;&gt;Node3</title>
<g id="a_edge11_Node000003_Node000007"><a xlink:title=" ">
<path fill="none" stroke="orange" stroke-dasharray="5,2" d="M364.45,-177.08C503.92,-176.12 793.91,-169.4 1036,-133 1064.81,-128.67 1095.78,-122.11 1123.88,-115.41"/>
<polygon fill="orange" stroke="orange" points="364.24,-173.58 354.26,-177.14 364.28,-180.58 364.24,-173.58"/>
</a>
</g>
<text text-anchor="start" x="756" y="-170.5" font-family="Helvetica,sans-Serif" font-size="10.00" fill="grey">TData</text>
</g>
<!-- Node7&#45;&gt;Node5 -->
<g id="edge6_Node000005_Node000007" class="edge">
<title>Node7&#45;&gt;Node5</title>
<g id="a_edge6_Node000005_Node000007"><a xlink:title=" ">
<path fill="none" stroke="orange" stroke-dasharray="5,2" d="M358.32,-159.82C362.94,-158.85 367.53,-157.9 372,-157 398.14,-151.73 426.29,-146.4 452.92,-141.51"/>
<polygon fill="orange" stroke="orange" points="357.22,-156.47 348.16,-161.97 358.67,-163.32 357.22,-156.47"/>
</a>
</g>
<text text-anchor="start" x="384" y="-162.5" font-family="Helvetica,sans-Serif" font-size="10.00" fill="grey">TData</text>
</g>
<!-- Node8 -->
<g id="Node000008" class="node">
<title>Node8</title>
<g id="a_Node000008"><a xlink:href="interfacefiftyone_1_1pipeline_1_1core_1_1data_1_1_data.html" target="_top" xlink:title="Represents a collection of property values.">
<polygon fill="white" stroke="#666666" points="170,-186.5 0,-186.5 0,-167.5 170,-167.5 170,-186.5"/>
<text text-anchor="middle" x="85" y="-174.5" font-family="Helvetica,sans-Serif" font-size="10.00">fiftyone.pipeline.core.data.Data</text>
</a>
</g>
</g>
<!-- Node8&#45;&gt;Node7 -->
<g id="edge7_Node000007_Node000008" class="edge">
<title>Node8&#45;&gt;Node7</title>
<g id="a_edge7_Node000007_Node000008"><a xlink:title=" ">
<path fill="none" stroke="#63b8ff" d="M180.11,-177C189.07,-177 198.06,-177 206.77,-177"/>
<polygon fill="#63b8ff" stroke="#63b8ff" points="180.03,-173.5 170.03,-177 180.03,-180.5 180.03,-173.5"/>
</a>
</g>
</g>
<!-- Node9 -->
<g id="Node000009" class="node">
<title>Node9</title>
<g id="a_Node000009"><a xlink:href="interfacefiftyone_1_1pipeline_1_1core_1_1data_1_1_element_property_meta_data.html" target="_top" xlink:title="Defines details of a property that can be returned by a FlowElement.">
<polygon fill="white" stroke="#666666" points="354,-84 207,-84 207,-54 354,-54 354,-84"/>
<text text-anchor="start" x="215" y="-72" font-family="Helvetica,sans-Serif" font-size="10.00">fiftyone.pipeline.core.data.</text>
<text text-anchor="middle" x="280.5" y="-61" font-family="Helvetica,sans-Serif" font-size="10.00">ElementPropertyMetaData</text>
</a>
</g>
</g>
<!-- Node9&#45;&gt;Node3 -->
<g id="edge12_Node000003_Node000009" class="edge">
<title>Node9&#45;&gt;Node3</title>
<g id="a_edge12_Node000003_Node000009"><a xlink:title=" ">
<path fill="none" stroke="orange" stroke-dasharray="5,2" d="M364.21,-70.59C503.05,-73.29 791.78,-79.06 1036,-85 1064.52,-85.69 1095.54,-86.52 1123.78,-87.29"/>
<polygon fill="orange" stroke="orange" points="364.14,-67.08 354.07,-70.39 364,-74.08 364.14,-67.08"/>
</a>
</g>
<text text-anchor="start" x="747" y="-85.5" font-family="Helvetica,sans-Serif" font-size="10.00" fill="grey">TProperty</text>
</g>
<!-- Node9&#45;&gt;Node5 -->
<g id="edge8_Node000005_Node000009" class="edge">
<title>Node9&#45;&gt;Node5</title>
<g id="a_edge8_Node000005_Node000009"><a xlink:title=" ">
<path fill="none" stroke="orange" stroke-dasharray="5,2" d="M364.11,-83.92C392.71,-89.08 425.28,-94.96 455.92,-100.49"/>
<polygon fill="orange" stroke="orange" points="364.64,-80.45 354.17,-82.12 363.39,-87.34 364.64,-80.45"/>
</a>
</g>
<text text-anchor="start" x="375" y="-100.5" font-family="Helvetica,sans-Serif" font-size="10.00" fill="grey">TProperty</text>
</g>
<!-- Node10 -->
<g id="Node000010" class="node">
<title>Node10</title>
<g id="a_Node000010"><a xlink:href="interfacefiftyone_1_1pipeline_1_1core_1_1typed_1_1_typed_key.html" target="_top" xlink:title=" ">
<polygon fill="white" stroke="#666666" points="1017,-30 864,-30 864,0 1017,0 1017,-30"/>
<text text-anchor="start" x="872" y="-18" font-family="Helvetica,sans-Serif" font-size="10.00">fiftyone.pipeline.core.typed.</text>
<text text-anchor="middle" x="940.5" y="-7" font-family="Helvetica,sans-Serif" font-size="10.00">TypedKey&lt; TData &gt;</text>
</a>
</g>
</g>
<!-- Node10&#45;&gt;Node3 -->
<g id="edge9_Node000003_Node000010" class="edge">
<title>Node10&#45;&gt;Node3</title>
<g id="a_edge9_Node000003_Node000010"><a xlink:title=" ">
<path fill="none" stroke="#9a32cd" stroke-dasharray="5,2" d="M1027.38,-14.2C1053.09,-15.83 1081.06,-19.51 1106,-27 1132.91,-35.08 1160.47,-50.38 1181.58,-63.87"/>
<polygon fill="#9a32cd" stroke="#9a32cd" points="1027.44,-10.69 1017.27,-13.65 1027.07,-17.68 1027.44,-10.69"/>
</a>
</g>
<text text-anchor="start" x="1057" y="-32.5" font-family="Helvetica,sans-Serif" font-size="10.00" fill="grey">typedKey</text>
</g>
<!-- Node11 -->
<g id="Node000011" class="node">
<title>Node11</title>
<g id="a_Node000011"><a xlink:href="interfacefiftyone_1_1pipeline_1_1core_1_1typed_1_1_typed_key.html" target="_top" xlink:title="Holds a name and a type to allow for type safe operations on named values.">
<polygon fill="white" stroke="#666666" points="647,-30 494,-30 494,0 647,0 647,-30"/>
<text text-anchor="start" x="502" y="-18" font-family="Helvetica,sans-Serif" font-size="10.00">fiftyone.pipeline.core.typed.</text>
<text text-anchor="middle" x="570.5" y="-7" font-family="Helvetica,sans-Serif" font-size="10.00">TypedKey&lt; T &gt;</text>
</a>
</g>
</g>
<!-- Node11&#45;&gt;Node10 -->
<g id="edge10_Node000010_Node000011" class="edge">
<title>Node11&#45;&gt;Node10</title>
<g id="a_edge10_Node000010_Node000011"><a xlink:title=" ">
<path fill="none" stroke="orange" stroke-dasharray="5,2" d="M657.54,-15C720.04,-15 803.83,-15 863.79,-15"/>
<polygon fill="orange" stroke="orange" points="657.3,-11.5 647.3,-15 657.3,-18.5 657.3,-11.5"/>
</a>
</g>
<text text-anchor="start" x="745" y="-20.5" font-family="Helvetica,sans-Serif" font-size="10.00" fill="grey">&lt; TData &gt;</text>
</g>
</g>
</svg>
