<?xml version="1.0" encoding="UTF-8" standalone="no"?>
<!DOCTYPE svg PUBLIC "-//W3C//DTD SVG 1.1//EN"
 "http://www.w3.org/Graphics/SVG/1.1/DTD/svg11.dtd">
<!-- Generated by graphviz version 2.43.0 (0)
 -->
<!-- Title: fiftyone.pipeline.web.services.PipelineResultServiceCore.Default Pages: 1 -->
<svg width="589pt" height="86pt"
 viewBox="0.00 0.00 589.00 86.00" xmlns="http://www.w3.org/2000/svg" xmlns:xlink="http://www.w3.org/1999/xlink">
<g id="graph0" class="graph" transform="scale(1 1) rotate(0) translate(4 82)">
<title>fiftyone.pipeline.web.services.PipelineResultServiceCore.Default</title>
<!-- Node1 -->
<g id="Node000001" class="node">
<title>Node1</title>
<g id="a_Node000001"><a xlink:title="Default implementation of the PipelineResultServiceCore service.">
<polygon fill="#999999" stroke="#666666" points="581,-54 397,-54 397,-24 581,-24 581,-54"/>
<text text-anchor="start" x="405" y="-42" font-family="Helvetica,sans-Serif" font-size="10.00">fiftyone.pipeline.web.services.</text>
<text text-anchor="middle" x="489" y="-31" font-family="Helvetica,sans-Serif" font-size="10.00">PipelineResultServiceCore.Default</text>
</a>
</g>
</g>
<!-- Node2 -->
<g id="Node000002" class="node">
<title>Node2</title>
<g id="a_Node000002"><a xlink:href="interfacefiftyone_1_1pipeline_1_1web_1_1services_1_1_pipeline_result_service_core.html" target="_top" xlink:title="Service used to process web requests through the Pipeline.">
<polygon fill="white" stroke="#666666" points="302,-78 137,-78 137,-48 302,-48 302,-78"/>
<text text-anchor="start" x="145" y="-66" font-family="Helvetica,sans-Serif" font-size="10.00">fiftyone.pipeline.web.services.</text>
<text text-anchor="middle" x="219.5" y="-55" font-family="Helvetica,sans-Serif" font-size="10.00">PipelineResultServiceCore</text>
</a>
</g>
</g>
<!-- Node2&#45;&gt;Node1 -->
<g id="edge1_Node000001_Node000002" class="edge">
<title>Node2&#45;&gt;Node1</title>
<g id="a_edge1_Node000001_Node000002"><a xlink:title=" ">
<path fill="none" stroke="#63b8ff" d="M312.18,-54.77C339.59,-52.32 369.62,-49.62 396.99,-47.17"/>
<polygon fill="#63b8ff" stroke="#63b8ff" points="311.86,-51.29 302.21,-55.67 312.49,-58.26 311.86,-51.29"/>
</a>
</g>
</g>
<!-- Node3 -->
<g id="Node000003" class="node">
<title>Node3</title>
<g id="a_Node000003"><a xlink:href="interfacefiftyone_1_1pipeline_1_1core_1_1flowelements_1_1_pipeline.html" target="_top" xlink:title="The Pipeline groups together FlowElements and is a factory for FlowData which serves as the evidence,...">
<polygon fill="white" stroke="#666666" points="315,-30 124,-30 124,0 315,0 315,-30"/>
<text text-anchor="start" x="132" y="-18" font-family="Helvetica,sans-Serif" font-size="10.00">fiftyone.pipeline.core.flowelements.</text>
<text text-anchor="middle" x="219.5" y="-7" font-family="Helvetica,sans-Serif" font-size="10.00">Pipeline</text>
</a>
</g>
</g>
<!-- Node3&#45;&gt;Node1 -->
<g id="edge2_Node000001_Node000003" class="edge">
<title>Node3&#45;&gt;Node1</title>
<g id="a_edge2_Node000001_Node000003"><a xlink:title=" ">
<path fill="none" stroke="#9a32cd" stroke-dasharray="5,2" d="M325.67,-22.46C343.48,-23.86 361.77,-25.4 379,-27 384.78,-27.54 390.73,-28.12 396.73,-28.72"/>
<polygon fill="#9a32cd" stroke="#9a32cd" points="325.49,-18.93 315.25,-21.64 324.95,-25.91 325.49,-18.93"/>
</a>
</g>
<text text-anchor="start" x="336" y="-32.5" font-family="Helvetica,sans-Serif" font-size="10.00" fill="grey">pipeline</text>
</g>
<!-- Node4 -->
<g id="Node000004" class="node">
<title>Node4</title>
<g id="a_Node000004"><a xlink:title=" ">
<polygon fill="white" stroke="#bfbfbf" points="87,-24.5 0,-24.5 0,-5.5 87,-5.5 87,-24.5"/>
<text text-anchor="middle" x="43.5" y="-12.5" font-family="Helvetica,sans-Serif" font-size="10.00">AutoCloseable</text>
</a>
</g>
</g>
<!-- Node4&#45;&gt;Node3 -->
<g id="edge3_Node000003_Node000004" class="edge">
<title>Node4&#45;&gt;Node3</title>
<g id="a_edge3_Node000003_Node000004"><a xlink:title=" ">
<path fill="none" stroke="#63b8ff" d="M97.15,-15C105.65,-15 114.68,-15 123.81,-15"/>
<polygon fill="#63b8ff" stroke="#63b8ff" points="97.07,-11.5 87.07,-15 97.07,-18.5 97.07,-11.5"/>
</a>
</g>
</g>
</g>
</svg>
