<?xml version="1.0" encoding="UTF-8" standalone="no"?>
<!DOCTYPE svg PUBLIC "-//W3C//DTD SVG 1.1//EN"
 "http://www.w3.org/Graphics/SVG/1.1/DTD/svg11.dtd">
<!-- Generated by graphviz version 2.43.0 (0)
 -->
<!-- Title: fiftyone.caching.NoCache&lt; V extends Closeable &gt; Pages: 1 -->
<svg width="154pt" height="244pt"
 viewBox="0.00 0.00 154.00 244.00" xmlns="http://www.w3.org/2000/svg" xmlns:xlink="http://www.w3.org/1999/xlink">
<g id="graph0" class="graph" transform="scale(1 1) rotate(0) translate(4 240)">
<title>fiftyone.caching.NoCache&lt; V extends Closeable &gt;</title>
<!-- Node1 -->
<g id="Node000001" class="node">
<title>Node1</title>
<g id="a_Node000001"><a xlink:title=" ">
<polygon fill="#999999" stroke="#666666" points="140,-30 0,-30 0,0 140,0 140,-30"/>
<text text-anchor="start" x="8" y="-18" font-family="Helvetica,sans-Serif" font-size="10.00">fiftyone.caching.NoCache</text>
<text text-anchor="middle" x="70" y="-7" font-family="Helvetica,sans-Serif" font-size="10.00">&lt; V extends Closeable &gt;</text>
</a>
</g>
</g>
<!-- Node2 -->
<g id="Node000002" class="node">
<title>Node2</title>
<g id="a_Node000002"><a xlink:href="interfacefiftyone_1_1caching_1_1_cache.html" target="_top" xlink:title=" ">
<polygon fill="white" stroke="#666666" points="133.5,-97 6.5,-97 6.5,-67 133.5,-67 133.5,-97"/>
<text text-anchor="start" x="14.5" y="-85" font-family="Helvetica,sans-Serif" font-size="10.00">fiftyone.caching.Cache</text>
<text text-anchor="middle" x="70" y="-74" font-family="Helvetica,sans-Serif" font-size="10.00">&lt; Integer, V &gt;</text>
</a>
</g>
</g>
<!-- Node2&#45;&gt;Node1 -->
<g id="edge1_Node000001_Node000002" class="edge">
<title>Node2&#45;&gt;Node1</title>
<g id="a_edge1_Node000001_Node000002"><a xlink:title=" ">
<path fill="none" stroke="#63b8ff" d="M70,-56.61C70,-47.65 70,-37.82 70,-30.08"/>
<polygon fill="#63b8ff" stroke="#63b8ff" points="66.5,-56.9 70,-66.9 73.5,-56.9 66.5,-56.9"/>
</a>
</g>
</g>
<!-- Node3 -->
<g id="Node000003" class="node">
<title>Node3</title>
<g id="a_Node000003"><a xlink:href="interfacefiftyone_1_1caching_1_1_cache.html" target="_top" xlink:title="Base cache interface which declares only the get method and the types of key and value stored in the ...">
<polygon fill="white" stroke="#666666" points="133.5,-180 6.5,-180 6.5,-150 133.5,-150 133.5,-180"/>
<text text-anchor="start" x="14.5" y="-168" font-family="Helvetica,sans-Serif" font-size="10.00">fiftyone.caching.Cache</text>
<text text-anchor="middle" x="70" y="-157" font-family="Helvetica,sans-Serif" font-size="10.00">&lt; K, V &gt;</text>
</a>
</g>
</g>
<!-- Node3&#45;&gt;Node2 -->
<g id="edge2_Node000002_Node000003" class="edge">
<title>Node3&#45;&gt;Node2</title>
<g id="a_edge2_Node000002_Node000003"><a xlink:title=" ">
<path fill="none" stroke="orange" stroke-dasharray="5,2" d="M70,-139.59C70,-125.75 70,-108.91 70,-97.22"/>
<polygon fill="orange" stroke="orange" points="66.5,-139.89 70,-149.89 73.5,-139.89 66.5,-139.89"/>
</a>
</g>
<text text-anchor="start" x="73" y="-120.5" font-family="Helvetica,sans-Serif" font-size="10.00" fill="grey">&lt; Integer, V &gt;</text>
</g>
<!-- Node4 -->
<g id="Node000004" class="node">
<title>Node4</title>
<g id="a_Node000004"><a xlink:title=" ">
<polygon fill="white" stroke="#bfbfbf" points="102.5,-236 37.5,-236 37.5,-217 102.5,-217 102.5,-236"/>
<text text-anchor="middle" x="70" y="-224" font-family="Helvetica,sans-Serif" font-size="10.00">Closeable</text>
</a>
</g>
</g>
<!-- Node4&#45;&gt;Node3 -->
<g id="edge3_Node000003_Node000004" class="edge">
<title>Node4&#45;&gt;Node3</title>
<g id="a_edge3_Node000003_Node000004"><a xlink:title=" ">
<path fill="none" stroke="#63b8ff" d="M70,-206.73C70,-198.09 70,-188 70,-180.02"/>
<polygon fill="#63b8ff" stroke="#63b8ff" points="66.5,-206.98 70,-216.98 73.5,-206.98 66.5,-206.98"/>
</a>
</g>
</g>
</g>
</svg>
