<?xml version="1.0" encoding="UTF-8" standalone="no"?>
<!DOCTYPE svg PUBLIC "-//W3C//DTD SVG 1.1//EN"
 "http://www.w3.org/Graphics/SVG/1.1/DTD/svg11.dtd">
<!-- Generated by graphviz version 2.43.0 (0)
 -->
<!-- Title: fiftyone.pipeline.cloudrequestengine.flowelements.CloudAspectEngineBase&lt; TData extends AspectData &gt; Pages: 1 -->
<svg width="2987pt" height="381pt"
 viewBox="0.00 0.00 2987.00 380.91" xmlns="http://www.w3.org/2000/svg" xmlns:xlink="http://www.w3.org/1999/xlink">
<g id="graph0" class="graph" transform="scale(1 1) rotate(0) translate(4 376.91)">
<title>fiftyone.pipeline.cloudrequestengine.flowelements.CloudAspectEngineBase&lt; TData extends AspectData &gt;</title>
<!-- Node1 -->
<g id="Node000001" class="node">
<title>Node1</title>
<g id="a_Node000001"><a xlink:title="Base class for 51Degrees Cloud Aspect Engines.">
<polygon fill="#999999" stroke="#666666" points="2316,-188.41 2050,-188.41 2050,-147.41 2316,-147.41 2316,-188.41"/>
<text text-anchor="start" x="2058" y="-176.41" font-family="Helvetica,sans-Serif" font-size="10.00">fiftyone.pipeline.cloudrequestengine.flowelements.</text>
<text text-anchor="start" x="2058" y="-165.41" font-family="Helvetica,sans-Serif" font-size="10.00">CloudAspectEngineBase&lt; TData extends</text>
<text text-anchor="middle" x="2183" y="-154.41" font-family="Helvetica,sans-Serif" font-size="10.00"> AspectData &gt;</text>
</a>
</g>
</g>
<!-- Node15 -->
<g id="Node000015" class="node">
<title>Node15</title>
<g id="a_Node000015"><a xlink:href="classfiftyone_1_1pipeline_1_1cloudrequestengine_1_1flowelements_1_1_cloud_aspect_engine_base.html" target="_top" xlink:title=" ">
<polygon fill="white" stroke="#666666" points="2676,-182.91 2410,-182.91 2410,-152.91 2676,-152.91 2676,-182.91"/>
<text text-anchor="start" x="2418" y="-170.91" font-family="Helvetica,sans-Serif" font-size="10.00">fiftyone.pipeline.cloudrequestengine.flowelements.</text>
<text text-anchor="middle" x="2543" y="-159.91" font-family="Helvetica,sans-Serif" font-size="10.00">CloudAspectEngineBase&lt; TData &gt;</text>
</a>
</g>
</g>
<!-- Node1&#45;&gt;Node15 -->
<g id="edge25_Node000001_Node000015" class="edge">
<title>Node1&#45;&gt;Node15</title>
<g id="a_edge25_Node000001_Node000015"><a xlink:title=" ">
<path fill="none" stroke="orange" stroke-dasharray="5,2" d="M2326.14,-167.91C2353.72,-167.91 2382.53,-167.91 2409.78,-167.91"/>
<polygon fill="orange" stroke="orange" points="2326.03,-164.41 2316.03,-167.91 2326.03,-171.41 2326.03,-164.41"/>
</a>
</g>
<text text-anchor="start" x="2337" y="-173.41" font-family="Helvetica,sans-Serif" font-size="10.00" fill="grey">&lt; TData &gt;</text>
</g>
<!-- Node2 -->
<g id="Node000002" class="node">
<title>Node2</title>
<g id="a_Node000002"><a xlink:href="classfiftyone_1_1pipeline_1_1engines_1_1flowelements_1_1_aspect_engine_base.html" target="_top" xlink:title="Base class for AspectEngines to extend.">
<polygon fill="white" stroke="#666666" points="2013,-193.91 1765,-193.91 1765,-141.91 2013,-141.91 2013,-193.91"/>
<text text-anchor="start" x="1773" y="-181.91" font-family="Helvetica,sans-Serif" font-size="10.00">fiftyone.pipeline.engines.flowelements.</text>
<text text-anchor="start" x="1773" y="-170.91" font-family="Helvetica,sans-Serif" font-size="10.00">AspectEngineBase&lt; TData extends</text>
<text text-anchor="start" x="1773" y="-159.91" font-family="Helvetica,sans-Serif" font-size="10.00"> AspectData, TProperty extends AspectProperty</text>
<text text-anchor="middle" x="1889" y="-148.91" font-family="Helvetica,sans-Serif" font-size="10.00">MetaData &gt;</text>
</a>
</g>
</g>
<!-- Node2&#45;&gt;Node1 -->
<g id="edge1_Node000001_Node000002" class="edge">
<title>Node2&#45;&gt;Node1</title>
<g id="a_edge1_Node000001_Node000002"><a xlink:title=" ">
<path fill="none" stroke="#63b8ff" d="M2023.57,-167.91C2032.24,-167.91 2040.98,-167.91 2049.66,-167.91"/>
<polygon fill="#63b8ff" stroke="#63b8ff" points="2023.41,-164.41 2013.41,-167.91 2023.41,-171.41 2023.41,-164.41"/>
</a>
</g>
</g>
<!-- Node3 -->
<g id="Node000003" class="node">
<title>Node3</title>
<g id="a_Node000003"><a xlink:href="classfiftyone_1_1pipeline_1_1core_1_1flowelements_1_1_flow_element_base.html" target="_top" xlink:title="Provides a base class from which authors may create new FlowElements.">
<polygon fill="white" stroke="#666666" points="1344,-195.91 1153,-195.91 1153,-143.91 1344,-143.91 1344,-195.91"/>
<text text-anchor="start" x="1161" y="-183.91" font-family="Helvetica,sans-Serif" font-size="10.00">fiftyone.pipeline.core.flowelements.</text>
<text text-anchor="start" x="1161" y="-172.91" font-family="Helvetica,sans-Serif" font-size="10.00">FlowElementBase&lt; TData extends</text>
<text text-anchor="start" x="1161" y="-161.91" font-family="Helvetica,sans-Serif" font-size="10.00"> ElementData, TProperty extends</text>
<text text-anchor="middle" x="1248.5" y="-150.91" font-family="Helvetica,sans-Serif" font-size="10.00"> ElementPropertyMetaData &gt;</text>
</a>
</g>
</g>
<!-- Node3&#45;&gt;Node2 -->
<g id="edge2_Node000002_Node000003" class="edge">
<title>Node3&#45;&gt;Node2</title>
<g id="a_edge2_Node000002_Node000003"><a xlink:title=" ">
<path fill="none" stroke="#63b8ff" d="M1354.06,-169.59C1466.6,-169.23 1645.47,-168.67 1764.77,-168.3"/>
<polygon fill="#63b8ff" stroke="#63b8ff" points="1354.05,-166.09 1344.06,-169.62 1354.07,-173.09 1354.05,-166.09"/>
</a>
</g>
</g>
<!-- Node4 -->
<g id="Node000004" class="node">
<title>Node4</title>
<g id="a_Node000004"><a xlink:href="interfacefiftyone_1_1pipeline_1_1core_1_1flowelements_1_1_flow_element.html" target="_top" xlink:title=" ">
<polygon fill="white" stroke="#666666" points="1036,-208.91 845,-208.91 845,-178.91 1036,-178.91 1036,-208.91"/>
<text text-anchor="start" x="853" y="-196.91" font-family="Helvetica,sans-Serif" font-size="10.00">fiftyone.pipeline.core.flowelements.</text>
<text text-anchor="middle" x="940.5" y="-185.91" font-family="Helvetica,sans-Serif" font-size="10.00">FlowElement&lt; TData, TProperty &gt;</text>
</a>
</g>
</g>
<!-- Node4&#45;&gt;Node3 -->
<g id="edge3_Node000003_Node000004" class="edge">
<title>Node4&#45;&gt;Node3</title>
<g id="a_edge3_Node000003_Node000004"><a xlink:title=" ">
<path fill="none" stroke="#63b8ff" d="M1046.35,-185.69C1080.94,-182.98 1119.19,-179.98 1152.96,-177.33"/>
<polygon fill="#63b8ff" stroke="#63b8ff" points="1045.92,-182.21 1036.22,-186.49 1046.47,-189.19 1045.92,-182.21"/>
</a>
</g>
</g>
<!-- Node11 -->
<g id="Node000011" class="node">
<title>Node11</title>
<g id="a_Node000011"><a xlink:href="interfacefiftyone_1_1pipeline_1_1engines_1_1flowelements_1_1_aspect_engine.html" target="_top" xlink:title="AspectEngines are a subset of FlowElements.">
<polygon fill="white" stroke="#666666" points="1371,-255.41 1126,-255.41 1126,-214.41 1371,-214.41 1371,-255.41"/>
<text text-anchor="start" x="1134" y="-243.41" font-family="Helvetica,sans-Serif" font-size="10.00">fiftyone.pipeline.engines.flowelements.</text>
<text text-anchor="start" x="1134" y="-232.41" font-family="Helvetica,sans-Serif" font-size="10.00">AspectEngine&lt; TData extends AspectData,</text>
<text text-anchor="middle" x="1248.5" y="-221.41" font-family="Helvetica,sans-Serif" font-size="10.00"> TProperty extends AspectPropertyMetaData &gt;</text>
</a>
</g>
</g>
<!-- Node4&#45;&gt;Node11 -->
<g id="edge13_Node000011_Node000004" class="edge">
<title>Node4&#45;&gt;Node11</title>
<g id="a_edge13_Node000011_Node000004"><a xlink:title=" ">
<path fill="none" stroke="#63b8ff" d="M1046.31,-207.96C1071.93,-211.39 1099.55,-215.09 1125.88,-218.62"/>
<polygon fill="#63b8ff" stroke="#63b8ff" points="1046.6,-204.47 1036.22,-206.61 1045.67,-211.4 1046.6,-204.47"/>
</a>
</g>
</g>
<!-- Node5 -->
<g id="Node000005" class="node">
<title>Node5</title>
<g id="a_Node000005"><a xlink:href="interfacefiftyone_1_1pipeline_1_1core_1_1flowelements_1_1_flow_element.html" target="_top" xlink:title="A component that processes a FlowData (by examining its evidence, or by examining data processed by o...">
<polygon fill="white" stroke="#666666" points="697,-214.41 444,-214.41 444,-173.41 697,-173.41 697,-214.41"/>
<text text-anchor="start" x="452" y="-202.41" font-family="Helvetica,sans-Serif" font-size="10.00">fiftyone.pipeline.core.flowelements.</text>
<text text-anchor="start" x="452" y="-191.41" font-family="Helvetica,sans-Serif" font-size="10.00">FlowElement&lt; TData extends ElementData,</text>
<text text-anchor="middle" x="570.5" y="-180.41" font-family="Helvetica,sans-Serif" font-size="10.00"> TProperty extends ElementPropertyMetaData &gt;</text>
</a>
</g>
</g>
<!-- Node5&#45;&gt;Node4 -->
<g id="edge4_Node000004_Node000005" class="edge">
<title>Node5&#45;&gt;Node4</title>
<g id="a_edge4_Node000004_Node000005"><a xlink:title=" ">
<path fill="none" stroke="orange" stroke-dasharray="5,2" d="M707.12,-193.91C752.92,-193.91 803.03,-193.91 844.95,-193.91"/>
<polygon fill="orange" stroke="orange" points="707.12,-190.41 697.12,-193.91 707.12,-197.41 707.12,-190.41"/>
</a>
</g>
<text text-anchor="start" x="718" y="-199.41" font-family="Helvetica,sans-Serif" font-size="10.00" fill="grey">&lt; TData, TProperty &gt;</text>
</g>
<!-- Node6 -->
<g id="Node000006" class="node">
<title>Node6</title>
<g id="a_Node000006"><a xlink:title=" ">
<polygon fill="white" stroke="#bfbfbf" points="324,-203.41 237,-203.41 237,-184.41 324,-184.41 324,-203.41"/>
<text text-anchor="middle" x="280.5" y="-191.41" font-family="Helvetica,sans-Serif" font-size="10.00">AutoCloseable</text>
</a>
</g>
</g>
<!-- Node6&#45;&gt;Node5 -->
<g id="edge5_Node000005_Node000006" class="edge">
<title>Node6&#45;&gt;Node5</title>
<g id="a_edge5_Node000005_Node000006"><a xlink:title=" ">
<path fill="none" stroke="#63b8ff" d="M334.37,-193.91C365.15,-193.91 405.37,-193.91 443.82,-193.91"/>
<polygon fill="#63b8ff" stroke="#63b8ff" points="334.31,-190.41 324.31,-193.91 334.31,-197.41 334.31,-190.41"/>
</a>
</g>
</g>
<!-- Node7 -->
<g id="Node000007" class="node">
<title>Node7</title>
<g id="a_Node000007"><a xlink:href="interfacefiftyone_1_1pipeline_1_1core_1_1data_1_1_element_data.html" target="_top" xlink:title="Represents property values that have be determined by a specific FlowElement based on the supplied ev...">
<polygon fill="white" stroke="#666666" points="354,-143.91 207,-143.91 207,-113.91 354,-113.91 354,-143.91"/>
<text text-anchor="start" x="215" y="-131.91" font-family="Helvetica,sans-Serif" font-size="10.00">fiftyone.pipeline.core.data.</text>
<text text-anchor="middle" x="280.5" y="-120.91" font-family="Helvetica,sans-Serif" font-size="10.00">ElementData</text>
</a>
</g>
</g>
<!-- Node7&#45;&gt;Node3 -->
<g id="edge9_Node000003_Node000007" class="edge">
<title>Node7&#45;&gt;Node3</title>
<g id="a_edge9_Node000003_Node000007"><a xlink:title=" ">
<path fill="none" stroke="orange" stroke-dasharray="5,2" d="M364.23,-132.43C542.87,-140.01 963.75,-157.87 1152.73,-165.89"/>
<polygon fill="orange" stroke="orange" points="364.25,-128.92 354.11,-132 363.95,-135.92 364.25,-128.92"/>
</a>
</g>
<text text-anchor="start" x="756" y="-157.41" font-family="Helvetica,sans-Serif" font-size="10.00" fill="grey">TData</text>
</g>
<!-- Node7&#45;&gt;Node5 -->
<g id="edge6_Node000005_Node000007" class="edge">
<title>Node7&#45;&gt;Node5</title>
<g id="a_edge6_Node000005_Node000007"><a xlink:title=" ">
<path fill="none" stroke="orange" stroke-dasharray="5,2" d="M358.5,-146.29C395.43,-154.63 439.93,-164.67 478.52,-173.38"/>
<polygon fill="orange" stroke="orange" points="358.82,-142.78 348.3,-143.99 357.28,-149.61 358.82,-142.78"/>
</a>
</g>
<text text-anchor="start" x="384" y="-167.41" font-family="Helvetica,sans-Serif" font-size="10.00" fill="grey">TData</text>
</g>
<!-- Node12 -->
<g id="Node000012" class="node">
<title>Node12</title>
<g id="a_Node000012"><a xlink:href="interfacefiftyone_1_1pipeline_1_1engines_1_1data_1_1_aspect_data.html" target="_top" xlink:title="Represents a specialized ElementData instance that is generated by an AspectEngine.">
<polygon fill="white" stroke="#666666" points="1022.5,-118.91 858.5,-118.91 858.5,-88.91 1022.5,-88.91 1022.5,-118.91"/>
<text text-anchor="start" x="866.5" y="-106.91" font-family="Helvetica,sans-Serif" font-size="10.00">fiftyone.pipeline.engines.data.</text>
<text text-anchor="middle" x="940.5" y="-95.91" font-family="Helvetica,sans-Serif" font-size="10.00">AspectData</text>
</a>
</g>
</g>
<!-- Node7&#45;&gt;Node12 -->
<g id="edge15_Node000012_Node000007" class="edge">
<title>Node7&#45;&gt;Node12</title>
<g id="a_edge15_Node000012_Node000007"><a xlink:title=" ">
<path fill="none" stroke="#63b8ff" d="M364.23,-118.53C366.85,-118.31 369.44,-118.1 372,-117.91 544.75,-105.31 747.78,-103.42 858.09,-103.46"/>
<polygon fill="#63b8ff" stroke="#63b8ff" points="363.69,-115.07 354.05,-119.47 364.33,-122.04 363.69,-115.07"/>
</a>
</g>
</g>
<!-- Node8 -->
<g id="Node000008" class="node">
<title>Node8</title>
<g id="a_Node000008"><a xlink:href="interfacefiftyone_1_1pipeline_1_1core_1_1data_1_1_data.html" target="_top" xlink:title="Represents a collection of property values.">
<polygon fill="white" stroke="#666666" points="170,-138.41 0,-138.41 0,-119.41 170,-119.41 170,-138.41"/>
<text text-anchor="middle" x="85" y="-126.41" font-family="Helvetica,sans-Serif" font-size="10.00">fiftyone.pipeline.core.data.Data</text>
</a>
</g>
</g>
<!-- Node8&#45;&gt;Node7 -->
<g id="edge7_Node000007_Node000008" class="edge">
<title>Node8&#45;&gt;Node7</title>
<g id="a_edge7_Node000007_Node000008"><a xlink:title=" ">
<path fill="none" stroke="#63b8ff" d="M180.11,-128.91C189.07,-128.91 198.06,-128.91 206.77,-128.91"/>
<polygon fill="#63b8ff" stroke="#63b8ff" points="180.03,-125.41 170.03,-128.91 180.03,-132.41 180.03,-125.41"/>
</a>
</g>
</g>
<!-- Node9 -->
<g id="Node000009" class="node">
<title>Node9</title>
<g id="a_Node000009"><a xlink:href="interfacefiftyone_1_1pipeline_1_1core_1_1data_1_1_element_property_meta_data.html" target="_top" xlink:title="Defines details of a property that can be returned by a FlowElement.">
<polygon fill="white" stroke="#666666" points="354,-273.91 207,-273.91 207,-243.91 354,-243.91 354,-273.91"/>
<text text-anchor="start" x="215" y="-261.91" font-family="Helvetica,sans-Serif" font-size="10.00">fiftyone.pipeline.core.data.</text>
<text text-anchor="middle" x="280.5" y="-250.91" font-family="Helvetica,sans-Serif" font-size="10.00">ElementPropertyMetaData</text>
</a>
</g>
</g>
<!-- Node9&#45;&gt;Node3 -->
<g id="edge10_Node000003_Node000009" class="edge">
<title>Node9&#45;&gt;Node3</title>
<g id="a_edge10_Node000003_Node000009"><a xlink:title=" ">
<path fill="none" stroke="orange" stroke-dasharray="5,2" d="M364.38,-258.97C503.75,-258.05 793.59,-251.76 1036,-217.91 1074.6,-212.53 1116.55,-203.65 1152.85,-194.98"/>
<polygon fill="orange" stroke="orange" points="364.18,-255.47 354.2,-259.03 364.22,-262.47 364.18,-255.47"/>
</a>
</g>
<text text-anchor="start" x="747" y="-253.41" font-family="Helvetica,sans-Serif" font-size="10.00" fill="grey">TProperty</text>
</g>
<!-- Node9&#45;&gt;Node5 -->
<g id="edge8_Node000005_Node000009" class="edge">
<title>Node9&#45;&gt;Node5</title>
<g id="a_edge8_Node000005_Node000009"><a xlink:title=" ">
<path fill="none" stroke="orange" stroke-dasharray="5,2" d="M330.63,-240.5C343.93,-235.95 358.4,-231.39 372,-227.91 395.01,-222.03 419.78,-216.87 443.75,-212.46"/>
<polygon fill="orange" stroke="orange" points="329.47,-237.19 321.18,-243.79 331.78,-243.8 329.47,-237.19"/>
</a>
</g>
<text text-anchor="start" x="375" y="-233.41" font-family="Helvetica,sans-Serif" font-size="10.00" fill="grey">TProperty</text>
</g>
<!-- Node13 -->
<g id="Node000013" class="node">
<title>Node13</title>
<g id="a_Node000013"><a xlink:href="interfacefiftyone_1_1pipeline_1_1engines_1_1data_1_1_aspect_property_meta_data.html" target="_top" xlink:title="Holds details about a property that can be returned by an AspectEngine.">
<polygon fill="white" stroke="#666666" points="1022.5,-313.91 858.5,-313.91 858.5,-283.91 1022.5,-283.91 1022.5,-313.91"/>
<text text-anchor="start" x="866.5" y="-301.91" font-family="Helvetica,sans-Serif" font-size="10.00">fiftyone.pipeline.engines.data.</text>
<text text-anchor="middle" x="940.5" y="-290.91" font-family="Helvetica,sans-Serif" font-size="10.00">AspectPropertyMetaData</text>
</a>
</g>
</g>
<!-- Node9&#45;&gt;Node13 -->
<g id="edge17_Node000013_Node000009" class="edge">
<title>Node9&#45;&gt;Node13</title>
<g id="a_edge17_Node000013_Node000009"><a xlink:title=" ">
<path fill="none" stroke="#63b8ff" d="M364.22,-272.08C366.84,-272.38 369.44,-272.66 372,-272.91 544.72,-290.18 748.18,-295.99 858.48,-297.94"/>
<polygon fill="#63b8ff" stroke="#63b8ff" points="364.37,-268.57 354.02,-270.84 363.53,-275.52 364.37,-268.57"/>
</a>
</g>
</g>
<!-- Node10 -->
<g id="Node000010" class="node">
<title>Node10</title>
<g id="a_Node000010"><a xlink:href="interfacefiftyone_1_1pipeline_1_1engines_1_1flowelements_1_1_aspect_engine.html" target="_top" xlink:title=" ">
<polygon fill="white" stroke="#666666" points="1728,-249.91 1519,-249.91 1519,-219.91 1728,-219.91 1728,-249.91"/>
<text text-anchor="start" x="1527" y="-237.91" font-family="Helvetica,sans-Serif" font-size="10.00">fiftyone.pipeline.engines.flowelements.</text>
<text text-anchor="middle" x="1623.5" y="-226.91" font-family="Helvetica,sans-Serif" font-size="10.00">AspectEngine&lt; TData, TProperty &gt;</text>
</a>
</g>
</g>
<!-- Node10&#45;&gt;Node2 -->
<g id="edge11_Node000002_Node000010" class="edge">
<title>Node10&#45;&gt;Node2</title>
<g id="a_edge11_Node000002_Node000010"><a xlink:title=" ">
<path fill="none" stroke="#63b8ff" d="M1693.37,-217.4C1721.53,-210.24 1754.69,-201.81 1785.58,-193.96"/>
<polygon fill="#63b8ff" stroke="#63b8ff" points="1692.46,-214.02 1683.63,-219.88 1694.19,-220.81 1692.46,-214.02"/>
</a>
</g>
</g>
<!-- Node14 -->
<g id="Node000014" class="node">
<title>Node14</title>
<g id="a_Node000014"><a xlink:href="interfacefiftyone_1_1pipeline_1_1engines_1_1flowelements_1_1_cloud_aspect_engine.html" target="_top" xlink:title="Aspect engine interface which is specific to a cloud engine.">
<polygon fill="white" stroke="#666666" points="2013,-263.91 1765,-263.91 1765,-211.91 2013,-211.91 2013,-263.91"/>
<text text-anchor="start" x="1773" y="-251.91" font-family="Helvetica,sans-Serif" font-size="10.00">fiftyone.pipeline.engines.flowelements.</text>
<text text-anchor="start" x="1773" y="-240.91" font-family="Helvetica,sans-Serif" font-size="10.00">CloudAspectEngine&lt; TData extends</text>
<text text-anchor="start" x="1773" y="-229.91" font-family="Helvetica,sans-Serif" font-size="10.00"> AspectData, TProperty extends AspectProperty</text>
<text text-anchor="middle" x="1889" y="-218.91" font-family="Helvetica,sans-Serif" font-size="10.00">MetaData &gt;</text>
</a>
</g>
</g>
<!-- Node10&#45;&gt;Node14 -->
<g id="edge21_Node000014_Node000010" class="edge">
<title>Node10&#45;&gt;Node14</title>
<g id="a_edge21_Node000014_Node000010"><a xlink:title=" ">
<path fill="none" stroke="#63b8ff" d="M1738.42,-236.21C1747.11,-236.31 1755.92,-236.41 1764.67,-236.51"/>
<polygon fill="#63b8ff" stroke="#63b8ff" points="1738.3,-232.71 1728.26,-236.1 1738.22,-239.71 1738.3,-232.71"/>
</a>
</g>
</g>
<!-- Node11&#45;&gt;Node10 -->
<g id="edge12_Node000010_Node000011" class="edge">
<title>Node11&#45;&gt;Node10</title>
<g id="a_edge12_Node000010_Node000011"><a xlink:title=" ">
<path fill="none" stroke="orange" stroke-dasharray="5,2" d="M1381.28,-234.91C1426.43,-234.91 1476.27,-234.91 1518.87,-234.91"/>
<polygon fill="orange" stroke="orange" points="1381.12,-231.41 1371.12,-234.91 1381.12,-238.41 1381.12,-231.41"/>
</a>
</g>
<text text-anchor="start" x="1392" y="-240.41" font-family="Helvetica,sans-Serif" font-size="10.00" fill="grey">&lt; TData, TProperty &gt;</text>
</g>
<!-- Node12&#45;&gt;Node1 -->
<g id="edge24_Node000001_Node000012" class="edge">
<title>Node12&#45;&gt;Node1</title>
<g id="a_edge24_Node000001_Node000012"><a xlink:title=" ">
<path fill="none" stroke="orange" stroke-dasharray="5,2" d="M1032.47,-92.12C1093.24,-85.25 1175.03,-77.91 1247.5,-77.91 1247.5,-77.91 1247.5,-77.91 1890,-77.91 1983.63,-77.91 2086.95,-120.7 2142.1,-147.27"/>
<polygon fill="orange" stroke="orange" points="1032.05,-88.65 1022.52,-93.26 1032.85,-95.6 1032.05,-88.65"/>
</a>
</g>
<text text-anchor="start" x="1608.5" y="-83.41" font-family="Helvetica,sans-Serif" font-size="10.00" fill="grey">TData</text>
</g>
<!-- Node12&#45;&gt;Node2 -->
<g id="edge18_Node000002_Node000012" class="edge">
<title>Node12&#45;&gt;Node2</title>
<g id="a_edge18_Node000002_Node000012"><a xlink:title=" ">
<path fill="none" stroke="orange" stroke-dasharray="5,2" d="M985.11,-85.07C1005.62,-77.08 1030.66,-68.55 1054,-63.91 1347.83,-5.53 1444.12,39.79 1728,-55.91 1780.69,-73.68 1831.54,-114.65 1861.28,-141.8"/>
<polygon fill="orange" stroke="orange" points="983.72,-81.85 975.73,-88.81 986.31,-88.36 983.72,-81.85"/>
</a>
</g>
<text text-anchor="start" x="1430" y="-9.41" font-family="Helvetica,sans-Serif" font-size="10.00" fill="grey">TData</text>
</g>
<!-- Node12&#45;&gt;Node11 -->
<g id="edge14_Node000011_Node000012" class="edge">
<title>Node12&#45;&gt;Node11</title>
<g id="a_edge14_Node000011_Node000012"><a xlink:title=" ">
<path fill="none" stroke="orange" stroke-dasharray="5,2" d="M986.76,-123.21C1021.27,-138.81 1069.3,-162.47 1108,-188.91 1116.84,-194.95 1116.53,-199.93 1126,-204.91 1132.73,-208.46 1139.89,-211.59 1147.24,-214.36"/>
<polygon fill="orange" stroke="orange" points="987.96,-119.92 977.4,-119.03 985.1,-126.31 987.96,-119.92"/>
</a>
</g>
<text text-anchor="start" x="1066" y="-194.41" font-family="Helvetica,sans-Serif" font-size="10.00" fill="grey">TData</text>
</g>
<!-- Node12&#45;&gt;Node14 -->
<g id="edge22_Node000014_Node000012" class="edge">
<title>Node12&#45;&gt;Node14</title>
<g id="a_edge22_Node000014_Node000012"><a xlink:title=" ">
<path fill="none" stroke="orange" stroke-dasharray="5,2" d="M1032.82,-106.42C1144.08,-110.58 1337.45,-121.4 1501,-148.91 1600.09,-165.58 1711.79,-192.12 1789.63,-211.89"/>
<polygon fill="orange" stroke="orange" points="1032.77,-102.92 1022.65,-106.05 1032.51,-109.91 1032.77,-102.92"/>
</a>
</g>
<text text-anchor="start" x="1430" y="-154.41" font-family="Helvetica,sans-Serif" font-size="10.00" fill="grey">TData</text>
</g>
<!-- Node13&#45;&gt;Node2 -->
<g id="edge19_Node000002_Node000013" class="edge">
<title>Node13&#45;&gt;Node2</title>
<g id="a_edge19_Node000002_Node000013"><a xlink:title=" ">
<path fill="none" stroke="orange" stroke-dasharray="5,2" d="M1007.31,-316.36C1151.82,-350.57 1502.01,-410.66 1728,-258.91 1752.77,-242.29 1740.93,-220.54 1765,-202.91 1769.48,-199.64 1774.25,-196.66 1779.23,-193.97"/>
<polygon fill="orange" stroke="orange" points="1007.8,-312.88 997.26,-313.94 1006.17,-319.68 1007.8,-312.88"/>
</a>
</g>
<text text-anchor="start" x="1421" y="-361.41" font-family="Helvetica,sans-Serif" font-size="10.00" fill="grey">TProperty</text>
</g>
<!-- Node13&#45;&gt;Node11 -->
<g id="edge16_Node000011_Node000013" class="edge">
<title>Node13&#45;&gt;Node11</title>
<g id="a_edge16_Node000011_Node000013"><a xlink:title=" ">
<path fill="none" stroke="orange" stroke-dasharray="5,2" d="M1023.43,-281.78C1062.15,-273.68 1108.68,-263.95 1149.28,-255.46"/>
<polygon fill="orange" stroke="orange" points="1022.32,-278.44 1013.24,-283.91 1023.75,-285.29 1022.32,-278.44"/>
</a>
</g>
<text text-anchor="start" x="1057" y="-280.41" font-family="Helvetica,sans-Serif" font-size="10.00" fill="grey">TProperty</text>
</g>
<!-- Node13&#45;&gt;Node14 -->
<g id="edge23_Node000014_Node000013" class="edge">
<title>Node13&#45;&gt;Node14</title>
<g id="a_edge23_Node000014_Node000013"><a xlink:title=" ">
<path fill="none" stroke="orange" stroke-dasharray="5,2" d="M1033.12,-297.27C1057.46,-296.68 1083.73,-295.91 1108,-294.91 1383.79,-283.6 1453.21,-284.89 1728,-258.91 1739.99,-257.78 1752.47,-256.44 1764.93,-254.98"/>
<polygon fill="orange" stroke="orange" points="1032.73,-293.78 1022.82,-297.51 1032.9,-300.78 1032.73,-293.78"/>
</a>
</g>
<text text-anchor="start" x="1421" y="-288.41" font-family="Helvetica,sans-Serif" font-size="10.00" fill="grey">TProperty</text>
</g>
<!-- Node14&#45;&gt;Node1 -->
<g id="edge20_Node000001_Node000014" class="edge">
<title>Node14&#45;&gt;Node1</title>
<g id="a_edge20_Node000001_Node000014"><a xlink:title=" ">
<path fill="none" stroke="#63b8ff" d="M2008.63,-209.47C2038.04,-202.43 2068.97,-195.01 2096.44,-188.42"/>
<polygon fill="#63b8ff" stroke="#63b8ff" points="2007.64,-206.11 1998.73,-211.85 2009.27,-212.92 2007.64,-206.11"/>
</a>
</g>
</g>
<!-- Node16 -->
<g id="Node000016" class="node">
<title>Node16</title>
<g id="a_Node000016"><a xlink:href="classfiftyone_1_1pipeline_1_1cloudrequestengine_1_1flowelements_1_1_property_keyed_cloud_engine_base.html" target="_top" xlink:title="A specialised type of CloudAspectEngineBase that has the functionality to support returning a list of...">
<polygon fill="white" stroke="#666666" points="2979,-193.91 2713,-193.91 2713,-141.91 2979,-141.91 2979,-193.91"/>
<text text-anchor="start" x="2721" y="-181.91" font-family="Helvetica,sans-Serif" font-size="10.00">fiftyone.pipeline.cloudrequestengine.flowelements.</text>
<text text-anchor="start" x="2721" y="-170.91" font-family="Helvetica,sans-Serif" font-size="10.00">PropertyKeyedCloudEngineBase&lt; TData</text>
<text text-anchor="start" x="2721" y="-159.91" font-family="Helvetica,sans-Serif" font-size="10.00"> extends MultiProfileData&lt; TProfile</text>
<text text-anchor="middle" x="2846" y="-148.91" font-family="Helvetica,sans-Serif" font-size="10.00"> &gt;, TProfile extends AspectData &gt;</text>
</a>
</g>
</g>
<!-- Node15&#45;&gt;Node16 -->
<g id="edge26_Node000015_Node000016" class="edge">
<title>Node15&#45;&gt;Node16</title>
<g id="a_edge26_Node000015_Node000016"><a xlink:title=" ">
<path fill="none" stroke="#63b8ff" d="M2686.03,-167.91C2694.91,-167.91 2703.84,-167.91 2712.68,-167.91"/>
<polygon fill="#63b8ff" stroke="#63b8ff" points="2686.02,-164.41 2676.02,-167.91 2686.02,-171.41 2686.02,-164.41"/>
</a>
</g>
</g>
</g>
</svg>
