<?xml version="1.0" encoding="UTF-8" standalone="no"?>
<!DOCTYPE svg PUBLIC "-//W3C//DTD SVG 1.1//EN"
 "http://www.w3.org/Graphics/SVG/1.1/DTD/svg11.dtd">
<!-- Generated by graphviz version 2.43.0 (0)
 -->
<!-- Title: fiftyone.pipeline.web.mvc.services.UACHService.Default Pages: 1 -->
<svg width="623pt" height="86pt"
 viewBox="0.00 0.00 623.00 86.00" xmlns="http://www.w3.org/2000/svg" xmlns:xlink="http://www.w3.org/1999/xlink">
<g id="graph0" class="graph" transform="scale(1 1) rotate(0) translate(4 82)">
<title>fiftyone.pipeline.web.mvc.services.UACHService.Default</title>
<!-- Node1 -->
<g id="Node000001" class="node">
<title>Node1</title>
<g id="a_Node000001"><a xlink:title=" ">
<polygon fill="#999999" stroke="#666666" points="615,-54 426,-54 426,-24 615,-24 615,-54"/>
<text text-anchor="start" x="434" y="-42" font-family="Helvetica,sans-Serif" font-size="10.00">fiftyone.pipeline.web.mvc.services.</text>
<text text-anchor="middle" x="520.5" y="-31" font-family="Helvetica,sans-Serif" font-size="10.00">UACHService.Default</text>
</a>
</g>
</g>
<!-- Node2 -->
<g id="Node000002" class="node">
<title>Node2</title>
<g id="a_Node000002"><a xlink:href="classfiftyone_1_1pipeline_1_1web_1_1services_1_1_u_a_c_h_service_core_1_1_default.html" target="_top" xlink:title="Default implementation of the UACHServiceCore service.">
<polygon fill="white" stroke="#666666" points="378,-78 213,-78 213,-48 378,-48 378,-78"/>
<text text-anchor="start" x="221" y="-66" font-family="Helvetica,sans-Serif" font-size="10.00">fiftyone.pipeline.web.services.</text>
<text text-anchor="middle" x="295.5" y="-55" font-family="Helvetica,sans-Serif" font-size="10.00">UACHServiceCore.Default</text>
</a>
</g>
</g>
<!-- Node2&#45;&gt;Node1 -->
<g id="edge1_Node000001_Node000002" class="edge">
<title>Node2&#45;&gt;Node1</title>
<g id="a_edge1_Node000001_Node000002"><a xlink:title=" ">
<path fill="none" stroke="#63b8ff" d="M388.49,-53.1C400.76,-51.78 413.36,-50.42 425.67,-49.1"/>
<polygon fill="#63b8ff" stroke="#63b8ff" points="387.84,-49.65 378.27,-54.2 388.59,-56.61 387.84,-49.65"/>
</a>
</g>
</g>
<!-- Node3 -->
<g id="Node000003" class="node">
<title>Node3</title>
<g id="a_Node000003"><a xlink:href="interfacefiftyone_1_1pipeline_1_1web_1_1services_1_1_u_a_c_h_service_core.html" target="_top" xlink:title="Service to set HTTP headers in the response.">
<polygon fill="white" stroke="#666666" points="165,-54 0,-54 0,-24 165,-24 165,-54"/>
<text text-anchor="start" x="8" y="-42" font-family="Helvetica,sans-Serif" font-size="10.00">fiftyone.pipeline.web.services.</text>
<text text-anchor="middle" x="82.5" y="-31" font-family="Helvetica,sans-Serif" font-size="10.00">UACHServiceCore</text>
</a>
</g>
</g>
<!-- Node3&#45;&gt;Node2 -->
<g id="edge2_Node000002_Node000003" class="edge">
<title>Node3&#45;&gt;Node2</title>
<g id="a_edge2_Node000002_Node000003"><a xlink:title=" ">
<path fill="none" stroke="#63b8ff" d="M175.07,-49.42C187.62,-50.84 200.43,-52.3 212.79,-53.71"/>
<polygon fill="#63b8ff" stroke="#63b8ff" points="175.41,-45.93 165.08,-48.28 174.62,-52.89 175.41,-45.93"/>
</a>
</g>
</g>
<!-- Node4 -->
<g id="Node000004" class="node">
<title>Node4</title>
<g id="a_Node000004"><a xlink:href="interfacefiftyone_1_1pipeline_1_1web_1_1mvc_1_1services_1_1_u_a_c_h_service.html" target="_top" xlink:title="Spring framework service for the UACHServiceCore.">
<polygon fill="white" stroke="#666666" points="390,-30 201,-30 201,0 390,0 390,-30"/>
<text text-anchor="start" x="209" y="-18" font-family="Helvetica,sans-Serif" font-size="10.00">fiftyone.pipeline.web.mvc.services.</text>
<text text-anchor="middle" x="295.5" y="-7" font-family="Helvetica,sans-Serif" font-size="10.00">UACHService</text>
</a>
</g>
</g>
<!-- Node3&#45;&gt;Node4 -->
<g id="edge4_Node000004_Node000003" class="edge">
<title>Node3&#45;&gt;Node4</title>
<g id="a_edge4_Node000004_Node000003"><a xlink:title=" ">
<path fill="none" stroke="#63b8ff" d="M175.05,-28.59C183.6,-27.61 192.27,-26.63 200.84,-25.65"/>
<polygon fill="#63b8ff" stroke="#63b8ff" points="174.62,-25.11 165.08,-29.72 175.41,-32.07 174.62,-25.11"/>
</a>
</g>
</g>
<!-- Node4&#45;&gt;Node1 -->
<g id="edge3_Node000001_Node000004" class="edge">
<title>Node4&#45;&gt;Node1</title>
<g id="a_edge3_Node000001_Node000004"><a xlink:title=" ">
<path fill="none" stroke="#63b8ff" d="M400.11,-26.15C408.67,-27.07 417.3,-28 425.78,-28.91"/>
<polygon fill="#63b8ff" stroke="#63b8ff" points="400.42,-22.66 390.1,-25.07 399.67,-29.62 400.42,-22.66"/>
</a>
</g>
</g>
</g>
</svg>
