<?xml version="1.0" encoding="UTF-8" standalone="no"?>
<!DOCTYPE svg PUBLIC "-//W3C//DTD SVG 1.1//EN"
 "http://www.w3.org/Graphics/SVG/1.1/DTD/svg11.dtd">
<!-- Generated by graphviz version 2.43.0 (0)
 -->
<!-- Title: fiftyone.pipeline.engines.flowelements.OnPremiseAspectEngineBase&lt; TData extends AspectData, TProperty extends AspectPropertyMetaData &gt; Pages: 1 -->
<svg width="3080pt" height="356pt"
 viewBox="0.00 0.00 3080.00 356.00" xmlns="http://www.w3.org/2000/svg" xmlns:xlink="http://www.w3.org/1999/xlink">
<g id="graph0" class="graph" transform="scale(1 1) rotate(0) translate(4 352)">
<title>fiftyone.pipeline.engines.flowelements.OnPremiseAspectEngineBase&lt; TData extends AspectData, TProperty extends AspectPropertyMetaData &gt;</title>
<!-- Node1 -->
<g id="Node000001" class="node">
<title>Node1</title>
<g id="a_Node000001"><a xlink:title="Base class for on&#45;premise aspect engines.">
<polygon fill="#999999" stroke="#666666" points="2676,-199 2463,-199 2463,-147 2676,-147 2676,-199"/>
<text text-anchor="start" x="2471" y="-187" font-family="Helvetica,sans-Serif" font-size="10.00">fiftyone.pipeline.engines.flowelements.</text>
<text text-anchor="start" x="2471" y="-176" font-family="Helvetica,sans-Serif" font-size="10.00">OnPremiseAspectEngineBase&lt; TData</text>
<text text-anchor="start" x="2471" y="-165" font-family="Helvetica,sans-Serif" font-size="10.00"> extends AspectData, TProperty extends</text>
<text text-anchor="middle" x="2569.5" y="-154" font-family="Helvetica,sans-Serif" font-size="10.00"> AspectPropertyMetaData &gt;</text>
</a>
</g>
</g>
<!-- Node17 -->
<g id="Node000017" class="node">
<title>Node17</title>
<g id="a_Node000017"><a xlink:href="classfiftyone_1_1pipeline_1_1engines_1_1fiftyone_1_1flowelements_1_1_fifty_one_on_premise_aspect_engine_base.html" target="_top" xlink:title="51Degrees specific engine base class.">
<polygon fill="white" stroke="#666666" points="3072,-232 2824,-232 2824,-180 3072,-180 3072,-232"/>
<text text-anchor="start" x="2832" y="-220" font-family="Helvetica,sans-Serif" font-size="10.00">fiftyone.pipeline.engines.fiftyone.flowelements.</text>
<text text-anchor="start" x="2832" y="-209" font-family="Helvetica,sans-Serif" font-size="10.00">FiftyOneOnPremiseAspectEngineBase</text>
<text text-anchor="start" x="2832" y="-198" font-family="Helvetica,sans-Serif" font-size="10.00">&lt; TData extends AspectData, TProperty</text>
<text text-anchor="middle" x="2948" y="-187" font-family="Helvetica,sans-Serif" font-size="10.00"> extends FiftyOneAspectPropertyMetaData &gt;</text>
</a>
</g>
</g>
<!-- Node1&#45;&gt;Node17 -->
<g id="edge28_Node000001_Node000017" class="edge">
<title>Node1&#45;&gt;Node17</title>
<g id="a_edge28_Node000001_Node000017"><a xlink:title=" ">
<path fill="none" stroke="#63b8ff" d="M2686.2,-183.14C2729.81,-186.96 2779.54,-191.32 2823.81,-195.2"/>
<polygon fill="#63b8ff" stroke="#63b8ff" points="2686.39,-179.64 2676.13,-182.26 2685.78,-186.62 2686.39,-179.64"/>
</a>
</g>
</g>
<!-- Node18 -->
<g id="Node000018" class="node">
<title>Node18</title>
<g id="a_Node000018"><a xlink:href="classfiftyone_1_1pipeline_1_1engines_1_1flowelements_1_1_on_premise_aspect_engine_base.html" target="_top" xlink:title=" ">
<polygon fill="white" stroke="#666666" points="3052.5,-161.5 2843.5,-161.5 2843.5,-120.5 3052.5,-120.5 3052.5,-161.5"/>
<text text-anchor="start" x="2851.5" y="-149.5" font-family="Helvetica,sans-Serif" font-size="10.00">fiftyone.pipeline.engines.flowelements.</text>
<text text-anchor="start" x="2851.5" y="-138.5" font-family="Helvetica,sans-Serif" font-size="10.00">OnPremiseAspectEngineBase&lt; TData,</text>
<text text-anchor="middle" x="2948" y="-127.5" font-family="Helvetica,sans-Serif" font-size="10.00"> TProperty &gt;</text>
</a>
</g>
</g>
<!-- Node1&#45;&gt;Node18 -->
<g id="edge29_Node000001_Node000018" class="edge">
<title>Node1&#45;&gt;Node18</title>
<g id="a_edge29_Node000001_Node000018"><a xlink:title=" ">
<path fill="none" stroke="orange" stroke-dasharray="5,2" d="M2686.37,-163.15C2736.51,-158.89 2794.73,-153.94 2843.41,-149.8"/>
<polygon fill="orange" stroke="orange" points="2685.8,-159.69 2676.13,-164.02 2686.39,-166.66 2685.8,-159.69"/>
</a>
</g>
<text text-anchor="start" x="2697" y="-167.5" font-family="Helvetica,sans-Serif" font-size="10.00" fill="grey">&lt; TData, TProperty &gt;</text>
</g>
<!-- Node2 -->
<g id="Node000002" class="node">
<title>Node2</title>
<g id="a_Node000002"><a xlink:href="classfiftyone_1_1pipeline_1_1engines_1_1flowelements_1_1_aspect_engine_base.html" target="_top" xlink:title=" ">
<polygon fill="white" stroke="#666666" points="2426,-216 2214,-216 2214,-186 2426,-186 2426,-216"/>
<text text-anchor="start" x="2222" y="-204" font-family="Helvetica,sans-Serif" font-size="10.00">fiftyone.pipeline.engines.flowelements.</text>
<text text-anchor="middle" x="2320" y="-193" font-family="Helvetica,sans-Serif" font-size="10.00">AspectEngineBase&lt; TData, TProperty &gt;</text>
</a>
</g>
</g>
<!-- Node2&#45;&gt;Node1 -->
<g id="edge1_Node000001_Node000002" class="edge">
<title>Node2&#45;&gt;Node1</title>
<g id="a_edge1_Node000001_Node000002"><a xlink:title=" ">
<path fill="none" stroke="#63b8ff" d="M2436.29,-187.96C2445.16,-186.95 2454.08,-185.94 2462.88,-184.95"/>
<polygon fill="#63b8ff" stroke="#63b8ff" points="2435.86,-184.48 2426.32,-189.08 2436.65,-191.44 2435.86,-184.48"/>
</a>
</g>
</g>
<!-- Node3 -->
<g id="Node000003" class="node">
<title>Node3</title>
<g id="a_Node000003"><a xlink:href="classfiftyone_1_1pipeline_1_1engines_1_1flowelements_1_1_aspect_engine_base.html" target="_top" xlink:title="Base class for AspectEngines to extend.">
<polygon fill="white" stroke="#666666" points="2066,-233 1818,-233 1818,-181 2066,-181 2066,-233"/>
<text text-anchor="start" x="1826" y="-221" font-family="Helvetica,sans-Serif" font-size="10.00">fiftyone.pipeline.engines.flowelements.</text>
<text text-anchor="start" x="1826" y="-210" font-family="Helvetica,sans-Serif" font-size="10.00">AspectEngineBase&lt; TData extends</text>
<text text-anchor="start" x="1826" y="-199" font-family="Helvetica,sans-Serif" font-size="10.00"> AspectData, TProperty extends AspectProperty</text>
<text text-anchor="middle" x="1942" y="-188" font-family="Helvetica,sans-Serif" font-size="10.00">MetaData &gt;</text>
</a>
</g>
</g>
<!-- Node3&#45;&gt;Node2 -->
<g id="edge2_Node000002_Node000003" class="edge">
<title>Node3&#45;&gt;Node2</title>
<g id="a_edge2_Node000002_Node000003"><a xlink:title=" ">
<path fill="none" stroke="orange" stroke-dasharray="5,2" d="M2076.28,-204.87C2121.45,-204.15 2171.23,-203.36 2213.9,-202.68"/>
<polygon fill="orange" stroke="orange" points="2076.06,-201.38 2066.12,-205.04 2076.17,-208.38 2076.06,-201.38"/>
</a>
</g>
<text text-anchor="start" x="2087" y="-209.5" font-family="Helvetica,sans-Serif" font-size="10.00" fill="grey">&lt; TData, TProperty &gt;</text>
</g>
<!-- Node4 -->
<g id="Node000004" class="node">
<title>Node4</title>
<g id="a_Node000004"><a xlink:href="classfiftyone_1_1pipeline_1_1core_1_1flowelements_1_1_flow_element_base.html" target="_top" xlink:title="Provides a base class from which authors may create new FlowElements.">
<polygon fill="white" stroke="#666666" points="1344,-227 1153,-227 1153,-175 1344,-175 1344,-227"/>
<text text-anchor="start" x="1161" y="-215" font-family="Helvetica,sans-Serif" font-size="10.00">fiftyone.pipeline.core.flowelements.</text>
<text text-anchor="start" x="1161" y="-204" font-family="Helvetica,sans-Serif" font-size="10.00">FlowElementBase&lt; TData extends</text>
<text text-anchor="start" x="1161" y="-193" font-family="Helvetica,sans-Serif" font-size="10.00"> ElementData, TProperty extends</text>
<text text-anchor="middle" x="1248.5" y="-182" font-family="Helvetica,sans-Serif" font-size="10.00"> ElementPropertyMetaData &gt;</text>
</a>
</g>
</g>
<!-- Node4&#45;&gt;Node3 -->
<g id="edge3_Node000003_Node000004" class="edge">
<title>Node4&#45;&gt;Node3</title>
<g id="a_edge3_Node000003_Node000004"><a xlink:title=" ">
<path fill="none" stroke="#63b8ff" d="M1354.49,-201.91C1478.88,-202.99 1685.84,-204.79 1817.72,-205.93"/>
<polygon fill="#63b8ff" stroke="#63b8ff" points="1354.23,-198.41 1344.2,-201.82 1354.17,-205.41 1354.23,-198.41"/>
</a>
</g>
</g>
<!-- Node5 -->
<g id="Node000005" class="node">
<title>Node5</title>
<g id="a_Node000005"><a xlink:href="interfacefiftyone_1_1pipeline_1_1core_1_1flowelements_1_1_flow_element.html" target="_top" xlink:title=" ">
<polygon fill="white" stroke="#666666" points="1036,-193 845,-193 845,-163 1036,-163 1036,-193"/>
<text text-anchor="start" x="853" y="-181" font-family="Helvetica,sans-Serif" font-size="10.00">fiftyone.pipeline.core.flowelements.</text>
<text text-anchor="middle" x="940.5" y="-170" font-family="Helvetica,sans-Serif" font-size="10.00">FlowElement&lt; TData, TProperty &gt;</text>
</a>
</g>
</g>
<!-- Node5&#45;&gt;Node4 -->
<g id="edge4_Node000004_Node000005" class="edge">
<title>Node5&#45;&gt;Node4</title>
<g id="a_edge4_Node000004_Node000005"><a xlink:title=" ">
<path fill="none" stroke="#63b8ff" d="M1046.35,-185.88C1080.94,-188.48 1119.19,-191.36 1152.96,-193.89"/>
<polygon fill="#63b8ff" stroke="#63b8ff" points="1046.46,-182.38 1036.22,-185.12 1045.93,-189.36 1046.46,-182.38"/>
</a>
</g>
</g>
<!-- Node12 -->
<g id="Node000012" class="node">
<title>Node12</title>
<g id="a_Node000012"><a xlink:href="interfacefiftyone_1_1pipeline_1_1engines_1_1flowelements_1_1_aspect_engine.html" target="_top" xlink:title="AspectEngines are a subset of FlowElements.">
<polygon fill="white" stroke="#666666" points="1371,-156.5 1126,-156.5 1126,-115.5 1371,-115.5 1371,-156.5"/>
<text text-anchor="start" x="1134" y="-144.5" font-family="Helvetica,sans-Serif" font-size="10.00">fiftyone.pipeline.engines.flowelements.</text>
<text text-anchor="start" x="1134" y="-133.5" font-family="Helvetica,sans-Serif" font-size="10.00">AspectEngine&lt; TData extends AspectData,</text>
<text text-anchor="middle" x="1248.5" y="-122.5" font-family="Helvetica,sans-Serif" font-size="10.00"> TProperty extends AspectPropertyMetaData &gt;</text>
</a>
</g>
</g>
<!-- Node5&#45;&gt;Node12 -->
<g id="edge14_Node000012_Node000005" class="edge">
<title>Node5&#45;&gt;Node12</title>
<g id="a_edge14_Node000012_Node000005"><a xlink:title=" ">
<path fill="none" stroke="#63b8ff" d="M1046.31,-163.61C1071.93,-160.1 1099.55,-156.31 1125.88,-152.69"/>
<polygon fill="#63b8ff" stroke="#63b8ff" points="1045.66,-160.17 1036.22,-165 1046.61,-167.11 1045.66,-160.17"/>
</a>
</g>
</g>
<!-- Node6 -->
<g id="Node000006" class="node">
<title>Node6</title>
<g id="a_Node000006"><a xlink:href="interfacefiftyone_1_1pipeline_1_1core_1_1flowelements_1_1_flow_element.html" target="_top" xlink:title="A component that processes a FlowData (by examining its evidence, or by examining data processed by o...">
<polygon fill="white" stroke="#666666" points="697,-198.5 444,-198.5 444,-157.5 697,-157.5 697,-198.5"/>
<text text-anchor="start" x="452" y="-186.5" font-family="Helvetica,sans-Serif" font-size="10.00">fiftyone.pipeline.core.flowelements.</text>
<text text-anchor="start" x="452" y="-175.5" font-family="Helvetica,sans-Serif" font-size="10.00">FlowElement&lt; TData extends ElementData,</text>
<text text-anchor="middle" x="570.5" y="-164.5" font-family="Helvetica,sans-Serif" font-size="10.00"> TProperty extends ElementPropertyMetaData &gt;</text>
</a>
</g>
</g>
<!-- Node6&#45;&gt;Node5 -->
<g id="edge5_Node000005_Node000006" class="edge">
<title>Node6&#45;&gt;Node5</title>
<g id="a_edge5_Node000005_Node000006"><a xlink:title=" ">
<path fill="none" stroke="orange" stroke-dasharray="5,2" d="M707.12,-178C752.92,-178 803.03,-178 844.95,-178"/>
<polygon fill="orange" stroke="orange" points="707.12,-174.5 697.12,-178 707.12,-181.5 707.12,-174.5"/>
</a>
</g>
<text text-anchor="start" x="718" y="-183.5" font-family="Helvetica,sans-Serif" font-size="10.00" fill="grey">&lt; TData, TProperty &gt;</text>
</g>
<!-- Node7 -->
<g id="Node000007" class="node">
<title>Node7</title>
<g id="a_Node000007"><a xlink:title=" ">
<polygon fill="white" stroke="#bfbfbf" points="324,-187.5 237,-187.5 237,-168.5 324,-168.5 324,-187.5"/>
<text text-anchor="middle" x="280.5" y="-175.5" font-family="Helvetica,sans-Serif" font-size="10.00">AutoCloseable</text>
</a>
</g>
</g>
<!-- Node7&#45;&gt;Node6 -->
<g id="edge6_Node000006_Node000007" class="edge">
<title>Node7&#45;&gt;Node6</title>
<g id="a_edge6_Node000006_Node000007"><a xlink:title=" ">
<path fill="none" stroke="#63b8ff" d="M334.37,-178C365.15,-178 405.37,-178 443.82,-178"/>
<polygon fill="#63b8ff" stroke="#63b8ff" points="334.31,-174.5 324.31,-178 334.31,-181.5 334.31,-174.5"/>
</a>
</g>
</g>
<!-- Node8 -->
<g id="Node000008" class="node">
<title>Node8</title>
<g id="a_Node000008"><a xlink:href="interfacefiftyone_1_1pipeline_1_1core_1_1data_1_1_element_data.html" target="_top" xlink:title="Represents property values that have be determined by a specific FlowElement based on the supplied ev...">
<polygon fill="white" stroke="#666666" points="354,-258 207,-258 207,-228 354,-228 354,-258"/>
<text text-anchor="start" x="215" y="-246" font-family="Helvetica,sans-Serif" font-size="10.00">fiftyone.pipeline.core.data.</text>
<text text-anchor="middle" x="280.5" y="-235" font-family="Helvetica,sans-Serif" font-size="10.00">ElementData</text>
</a>
</g>
</g>
<!-- Node8&#45;&gt;Node4 -->
<g id="edge10_Node000004_Node000008" class="edge">
<title>Node8&#45;&gt;Node4</title>
<g id="a_edge10_Node000004_Node000008"><a xlink:title=" ">
<path fill="none" stroke="orange" stroke-dasharray="5,2" d="M364.54,-244.61C513.72,-246.7 836.83,-247.55 1108,-223 1122.53,-221.68 1137.84,-219.79 1152.78,-217.66"/>
<polygon fill="orange" stroke="orange" points="364.15,-241.11 354.1,-244.46 364.05,-248.1 364.15,-241.11"/>
</a>
</g>
<text text-anchor="start" x="756" y="-248.5" font-family="Helvetica,sans-Serif" font-size="10.00" fill="grey">TData</text>
</g>
<!-- Node8&#45;&gt;Node6 -->
<g id="edge7_Node000006_Node000008" class="edge">
<title>Node8&#45;&gt;Node6</title>
<g id="a_edge7_Node000006_Node000008"><a xlink:title=" ">
<path fill="none" stroke="orange" stroke-dasharray="5,2" d="M330.63,-224.58C343.93,-220.03 358.4,-215.48 372,-212 395.01,-206.12 419.78,-200.96 443.75,-196.55"/>
<polygon fill="orange" stroke="orange" points="329.47,-221.28 321.18,-227.87 331.78,-227.89 329.47,-221.28"/>
</a>
</g>
<text text-anchor="start" x="384" y="-217.5" font-family="Helvetica,sans-Serif" font-size="10.00" fill="grey">TData</text>
</g>
<!-- Node13 -->
<g id="Node000013" class="node">
<title>Node13</title>
<g id="a_Node000013"><a xlink:href="interfacefiftyone_1_1pipeline_1_1engines_1_1data_1_1_aspect_data.html" target="_top" xlink:title="Represents a specialized ElementData instance that is generated by an AspectEngine.">
<polygon fill="white" stroke="#666666" points="1022.5,-301 858.5,-301 858.5,-271 1022.5,-271 1022.5,-301"/>
<text text-anchor="start" x="866.5" y="-289" font-family="Helvetica,sans-Serif" font-size="10.00">fiftyone.pipeline.engines.data.</text>
<text text-anchor="middle" x="940.5" y="-278" font-family="Helvetica,sans-Serif" font-size="10.00">AspectData</text>
</a>
</g>
</g>
<!-- Node8&#45;&gt;Node13 -->
<g id="edge16_Node000013_Node000008" class="edge">
<title>Node8&#45;&gt;Node13</title>
<g id="a_edge16_Node000013_Node000008"><a xlink:title=" ">
<path fill="none" stroke="#63b8ff" d="M364.22,-256.15C366.84,-256.45 369.44,-256.74 372,-257 544.72,-274.73 748.18,-281.79 858.48,-284.47"/>
<polygon fill="#63b8ff" stroke="#63b8ff" points="364.38,-252.64 354.03,-254.89 363.52,-259.59 364.38,-252.64"/>
</a>
</g>
</g>
<!-- Node9 -->
<g id="Node000009" class="node">
<title>Node9</title>
<g id="a_Node000009"><a xlink:href="interfacefiftyone_1_1pipeline_1_1core_1_1data_1_1_data.html" target="_top" xlink:title="Represents a collection of property values.">
<polygon fill="white" stroke="#666666" points="170,-252.5 0,-252.5 0,-233.5 170,-233.5 170,-252.5"/>
<text text-anchor="middle" x="85" y="-240.5" font-family="Helvetica,sans-Serif" font-size="10.00">fiftyone.pipeline.core.data.Data</text>
</a>
</g>
</g>
<!-- Node9&#45;&gt;Node8 -->
<g id="edge8_Node000008_Node000009" class="edge">
<title>Node9&#45;&gt;Node8</title>
<g id="a_edge8_Node000008_Node000009"><a xlink:title=" ">
<path fill="none" stroke="#63b8ff" d="M180.11,-243C189.07,-243 198.06,-243 206.77,-243"/>
<polygon fill="#63b8ff" stroke="#63b8ff" points="180.03,-239.5 170.03,-243 180.03,-246.5 180.03,-239.5"/>
</a>
</g>
</g>
<!-- Node10 -->
<g id="Node000010" class="node">
<title>Node10</title>
<g id="a_Node000010"><a xlink:href="interfacefiftyone_1_1pipeline_1_1core_1_1data_1_1_element_property_meta_data.html" target="_top" xlink:title="Defines details of a property that can be returned by a FlowElement.">
<polygon fill="white" stroke="#666666" points="354,-128 207,-128 207,-98 354,-98 354,-128"/>
<text text-anchor="start" x="215" y="-116" font-family="Helvetica,sans-Serif" font-size="10.00">fiftyone.pipeline.core.data.</text>
<text text-anchor="middle" x="280.5" y="-105" font-family="Helvetica,sans-Serif" font-size="10.00">ElementPropertyMetaData</text>
</a>
</g>
</g>
<!-- Node10&#45;&gt;Node4 -->
<g id="edge11_Node000004_Node000010" class="edge">
<title>Node10&#45;&gt;Node4</title>
<g id="a_edge11_Node000004_Node000010"><a xlink:title=" ">
<path fill="none" stroke="orange" stroke-dasharray="5,2" d="M364.36,-113.06C503.7,-114.16 793.51,-120.7 1036,-154 1074.57,-159.3 1116.52,-167.99 1152.82,-176.47"/>
<polygon fill="orange" stroke="orange" points="364.21,-109.56 354.18,-112.99 364.16,-116.56 364.21,-109.56"/>
</a>
</g>
<text text-anchor="start" x="747" y="-137.5" font-family="Helvetica,sans-Serif" font-size="10.00" fill="grey">TProperty</text>
</g>
<!-- Node10&#45;&gt;Node6 -->
<g id="edge9_Node000006_Node000010" class="edge">
<title>Node10&#45;&gt;Node6</title>
<g id="a_edge9_Node000006_Node000010"><a xlink:title=" ">
<path fill="none" stroke="orange" stroke-dasharray="5,2" d="M358.5,-130.38C395.43,-138.71 439.93,-148.76 478.52,-157.47"/>
<polygon fill="orange" stroke="orange" points="358.82,-126.86 348.3,-128.08 357.28,-133.69 358.82,-126.86"/>
</a>
</g>
<text text-anchor="start" x="375" y="-151.5" font-family="Helvetica,sans-Serif" font-size="10.00" fill="grey">TProperty</text>
</g>
<!-- Node14 -->
<g id="Node000014" class="node">
<title>Node14</title>
<g id="a_Node000014"><a xlink:href="interfacefiftyone_1_1pipeline_1_1engines_1_1data_1_1_aspect_property_meta_data.html" target="_top" xlink:title="Holds details about a property that can be returned by an AspectEngine.">
<polygon fill="white" stroke="#666666" points="1022.5,-78 858.5,-78 858.5,-48 1022.5,-48 1022.5,-78"/>
<text text-anchor="start" x="866.5" y="-66" font-family="Helvetica,sans-Serif" font-size="10.00">fiftyone.pipeline.engines.data.</text>
<text text-anchor="middle" x="940.5" y="-55" font-family="Helvetica,sans-Serif" font-size="10.00">AspectPropertyMetaData</text>
</a>
</g>
</g>
<!-- Node10&#45;&gt;Node14 -->
<g id="edge18_Node000014_Node000010" class="edge">
<title>Node10&#45;&gt;Node14</title>
<g id="a_edge18_Node000014_Node000010"><a xlink:title=" ">
<path fill="none" stroke="#63b8ff" d="M364.22,-99.89C366.84,-99.58 369.44,-99.28 372,-99 544.73,-80.2 748.19,-70.23 858.48,-65.84"/>
<polygon fill="#63b8ff" stroke="#63b8ff" points="363.51,-96.46 354.04,-101.19 364.4,-103.4 363.51,-96.46"/>
</a>
</g>
</g>
<!-- Node11 -->
<g id="Node000011" class="node">
<title>Node11</title>
<g id="a_Node000011"><a xlink:href="interfacefiftyone_1_1pipeline_1_1engines_1_1flowelements_1_1_aspect_engine.html" target="_top" xlink:title=" ">
<polygon fill="white" stroke="#666666" points="1728,-152 1519,-152 1519,-122 1728,-122 1728,-152"/>
<text text-anchor="start" x="1527" y="-140" font-family="Helvetica,sans-Serif" font-size="10.00">fiftyone.pipeline.engines.flowelements.</text>
<text text-anchor="middle" x="1623.5" y="-129" font-family="Helvetica,sans-Serif" font-size="10.00">AspectEngine&lt; TData, TProperty &gt;</text>
</a>
</g>
</g>
<!-- Node11&#45;&gt;Node3 -->
<g id="edge12_Node000003_Node000011" class="edge">
<title>Node11&#45;&gt;Node3</title>
<g id="a_edge12_Node000003_Node000011"><a xlink:title=" ">
<path fill="none" stroke="#63b8ff" d="M1702.45,-154.24C1738.87,-162.3 1783.01,-172.06 1823.37,-180.98"/>
<polygon fill="#63b8ff" stroke="#63b8ff" points="1702.92,-150.76 1692.4,-152.02 1701.41,-157.59 1702.92,-150.76"/>
</a>
</g>
</g>
<!-- Node16 -->
<g id="Node000016" class="node">
<title>Node16</title>
<g id="a_Node000016"><a xlink:href="interfacefiftyone_1_1pipeline_1_1engines_1_1flowelements_1_1_on_premise_aspect_engine.html" target="_top" xlink:title="Aspect engine interface which processes data internally using a data file and populates the results.">
<polygon fill="white" stroke="#666666" points="2066,-163 1818,-163 1818,-111 2066,-111 2066,-163"/>
<text text-anchor="start" x="1826" y="-151" font-family="Helvetica,sans-Serif" font-size="10.00">fiftyone.pipeline.engines.flowelements.</text>
<text text-anchor="start" x="1826" y="-140" font-family="Helvetica,sans-Serif" font-size="10.00">OnPremiseAspectEngine&lt; TData extends</text>
<text text-anchor="start" x="1826" y="-129" font-family="Helvetica,sans-Serif" font-size="10.00"> AspectData, TProperty extends AspectProperty</text>
<text text-anchor="middle" x="1942" y="-118" font-family="Helvetica,sans-Serif" font-size="10.00">MetaData &gt;</text>
</a>
</g>
</g>
<!-- Node11&#45;&gt;Node16 -->
<g id="edge23_Node000016_Node000011" class="edge">
<title>Node11&#45;&gt;Node16</title>
<g id="a_edge23_Node000016_Node000011"><a xlink:title=" ">
<path fill="none" stroke="#63b8ff" d="M1738.32,-137C1764.13,-137 1791.66,-137 1817.85,-137"/>
<polygon fill="#63b8ff" stroke="#63b8ff" points="1738.13,-133.5 1728.13,-137 1738.13,-140.5 1738.13,-133.5"/>
</a>
</g>
</g>
<!-- Node12&#45;&gt;Node11 -->
<g id="edge13_Node000011_Node000012" class="edge">
<title>Node12&#45;&gt;Node11</title>
<g id="a_edge13_Node000011_Node000012"><a xlink:title=" ">
<path fill="none" stroke="orange" stroke-dasharray="5,2" d="M1381.28,-136.35C1426.43,-136.47 1476.27,-136.61 1518.87,-136.72"/>
<polygon fill="orange" stroke="orange" points="1381.13,-132.85 1371.12,-136.33 1381.11,-139.85 1381.13,-132.85"/>
</a>
</g>
<text text-anchor="start" x="1392" y="-142.5" font-family="Helvetica,sans-Serif" font-size="10.00" fill="grey">&lt; TData, TProperty &gt;</text>
</g>
<!-- Node13&#45;&gt;Node1 -->
<g id="edge26_Node000001_Node000013" class="edge">
<title>Node13&#45;&gt;Node1</title>
<g id="a_edge26_Node000001_Node000013"><a xlink:title=" ">
<path fill="none" stroke="orange" stroke-dasharray="5,2" d="M1015.9,-303.15C1077.59,-315.86 1167.77,-331 1247.5,-331 1247.5,-331 1247.5,-331 2321,-331 2417.86,-331 2507.28,-243.97 2546.94,-199.09"/>
<polygon fill="orange" stroke="orange" points="1016.37,-299.67 1005.87,-301.05 1014.94,-306.52 1016.37,-299.67"/>
</a>
</g>
<text text-anchor="start" x="1758" y="-336.5" font-family="Helvetica,sans-Serif" font-size="10.00" fill="grey">TData</text>
</g>
<!-- Node13&#45;&gt;Node3 -->
<g id="edge19_Node000003_Node000013" class="edge">
<title>Node13&#45;&gt;Node3</title>
<g id="a_edge19_Node000003_Node000013"><a xlink:title=" ">
<path fill="none" stroke="orange" stroke-dasharray="5,2" d="M1032.89,-286.84C1143.82,-287.1 1336.47,-285.12 1501,-271 1608.48,-261.77 1729.74,-243.55 1817.7,-228.9"/>
<polygon fill="orange" stroke="orange" points="1032.75,-283.34 1022.74,-286.81 1032.73,-290.34 1032.75,-283.34"/>
</a>
</g>
<text text-anchor="start" x="1430" y="-283.5" font-family="Helvetica,sans-Serif" font-size="10.00" fill="grey">TData</text>
</g>
<!-- Node13&#45;&gt;Node12 -->
<g id="edge15_Node000012_Node000013" class="edge">
<title>Node13&#45;&gt;Node12</title>
<g id="a_edge15_Node000012_Node000013"><a xlink:title=" ">
<path fill="none" stroke="orange" stroke-dasharray="5,2" d="M968.07,-264.57C1002.53,-237.78 1065.41,-192.29 1126,-166 1134.07,-162.5 1142.63,-159.35 1151.32,-156.54"/>
<polygon fill="orange" stroke="orange" points="965.65,-262.02 959.94,-270.95 969.97,-267.53 965.65,-262.02"/>
</a>
</g>
<text text-anchor="start" x="1066" y="-207.5" font-family="Helvetica,sans-Serif" font-size="10.00" fill="grey">TData</text>
</g>
<!-- Node13&#45;&gt;Node16 -->
<g id="edge24_Node000016_Node000013" class="edge">
<title>Node13&#45;&gt;Node16</title>
<g id="a_edge24_Node000016_Node000013"><a xlink:title=" ">
<path fill="none" stroke="orange" stroke-dasharray="5,2" d="M1032.93,-276.86C1120.02,-267.8 1254.69,-252.86 1371,-236 1525.57,-213.6 1702.67,-181.88 1817.9,-160.44"/>
<polygon fill="orange" stroke="orange" points="1032.4,-273.39 1022.82,-277.91 1033.12,-280.36 1032.4,-273.39"/>
</a>
</g>
<text text-anchor="start" x="1430" y="-237.5" font-family="Helvetica,sans-Serif" font-size="10.00" fill="grey">TData</text>
</g>
<!-- Node14&#45;&gt;Node1 -->
<g id="edge27_Node000001_Node000014" class="edge">
<title>Node14&#45;&gt;Node1</title>
<g id="a_edge27_Node000001_Node000014"><a xlink:title=" ">
<path fill="none" stroke="orange" stroke-dasharray="5,2" d="M995.49,-44.96C1056.1,-26.34 1157.72,0 1247.5,0 1247.5,0 1247.5,0 2321,0 2422.18,0 2511.47,-98.33 2549.29,-146.73"/>
<polygon fill="orange" stroke="orange" points="994.27,-41.67 985.76,-47.99 996.35,-48.36 994.27,-41.67"/>
</a>
</g>
<text text-anchor="start" x="1749" y="-5.5" font-family="Helvetica,sans-Serif" font-size="10.00" fill="grey">TProperty</text>
</g>
<!-- Node14&#45;&gt;Node3 -->
<g id="edge20_Node000003_Node000014" class="edge">
<title>Node14&#45;&gt;Node3</title>
<g id="a_edge20_Node000003_Node000014"><a xlink:title=" ">
<path fill="none" stroke="orange" stroke-dasharray="5,2" d="M1032.84,-54.02C1182.47,-42.52 1487.25,-32.71 1728,-113 1750.69,-120.57 1796.25,-162.06 1818,-172 1824.97,-175.18 1832.29,-178.15 1839.75,-180.89"/>
<polygon fill="orange" stroke="orange" points="1032.47,-50.54 1022.78,-54.81 1033.02,-57.51 1032.47,-50.54"/>
</a>
</g>
<text text-anchor="start" x="1421" y="-67.5" font-family="Helvetica,sans-Serif" font-size="10.00" fill="grey">TProperty</text>
</g>
<!-- Node14&#45;&gt;Node12 -->
<g id="edge17_Node000012_Node000014" class="edge">
<title>Node14&#45;&gt;Node12</title>
<g id="a_edge17_Node000012_Node000014"><a xlink:title=" ">
<path fill="none" stroke="orange" stroke-dasharray="5,2" d="M1030.8,-80.02C1055.86,-85.12 1083.06,-90.98 1108,-97 1130.86,-102.52 1155.62,-109.21 1177.86,-115.48"/>
<polygon fill="orange" stroke="orange" points="1031.44,-76.58 1020.94,-78.02 1030.05,-83.44 1031.44,-76.58"/>
</a>
</g>
<text text-anchor="start" x="1057" y="-102.5" font-family="Helvetica,sans-Serif" font-size="10.00" fill="grey">TProperty</text>
</g>
<!-- Node14&#45;&gt;Node16 -->
<g id="edge25_Node000016_Node000014" class="edge">
<title>Node14&#45;&gt;Node16</title>
<g id="a_edge25_Node000016_Node000014"><a xlink:title=" ">
<path fill="none" stroke="orange" stroke-dasharray="5,2" d="M1032.81,-46.94C1192.22,-22.43 1530.06,13.79 1800,-64 1836.16,-74.42 1873.84,-94.48 1901.15,-110.94"/>
<polygon fill="orange" stroke="orange" points="1031.91,-43.54 1022.57,-48.54 1032.99,-50.45 1031.91,-43.54"/>
</a>
</g>
<text text-anchor="start" x="1421" y="-24.5" font-family="Helvetica,sans-Serif" font-size="10.00" fill="grey">TProperty</text>
</g>
<!-- Node15 -->
<g id="Node000015" class="node">
<title>Node15</title>
<g id="a_Node000015"><a xlink:href="interfacefiftyone_1_1pipeline_1_1engines_1_1flowelements_1_1_on_premise_aspect_engine.html" target="_top" xlink:title=" ">
<polygon fill="white" stroke="#666666" points="2424.5,-166.5 2215.5,-166.5 2215.5,-125.5 2424.5,-125.5 2424.5,-166.5"/>
<text text-anchor="start" x="2223.5" y="-154.5" font-family="Helvetica,sans-Serif" font-size="10.00">fiftyone.pipeline.engines.flowelements.</text>
<text text-anchor="start" x="2223.5" y="-143.5" font-family="Helvetica,sans-Serif" font-size="10.00">OnPremiseAspectEngine&lt; TData,</text>
<text text-anchor="middle" x="2320" y="-132.5" font-family="Helvetica,sans-Serif" font-size="10.00"> TProperty &gt;</text>
</a>
</g>
</g>
<!-- Node15&#45;&gt;Node1 -->
<g id="edge21_Node000001_Node000015" class="edge">
<title>Node15&#45;&gt;Node1</title>
<g id="a_edge21_Node000001_Node000015"><a xlink:title=" ">
<path fill="none" stroke="#63b8ff" d="M2434.71,-158.41C2444.14,-159.43 2453.64,-160.47 2463,-161.49"/>
<polygon fill="#63b8ff" stroke="#63b8ff" points="2434.85,-154.9 2424.53,-157.29 2434.09,-161.86 2434.85,-154.9"/>
</a>
</g>
</g>
<!-- Node16&#45;&gt;Node15 -->
<g id="edge22_Node000015_Node000016" class="edge">
<title>Node16&#45;&gt;Node15</title>
<g id="a_edge22_Node000015_Node000016"><a xlink:title=" ">
<path fill="none" stroke="orange" stroke-dasharray="5,2" d="M2076.4,-140.19C2122.08,-141.29 2172.47,-142.49 2215.44,-143.52"/>
<polygon fill="orange" stroke="orange" points="2076.2,-136.69 2066.12,-139.95 2076.03,-143.69 2076.2,-136.69"/>
</a>
</g>
<text text-anchor="start" x="2087" y="-148.5" font-family="Helvetica,sans-Serif" font-size="10.00" fill="grey">&lt; TData, TProperty &gt;</text>
</g>
</g>
</svg>
