<?xml version="1.0" encoding="UTF-8" standalone="no"?>
<!DOCTYPE svg PUBLIC "-//W3C//DTD SVG 1.1//EN"
 "http://www.w3.org/Graphics/SVG/1.1/DTD/svg11.dtd">
<!-- Generated by graphviz version 2.43.0 (0)
 -->
<!-- Title: fiftyone.pipeline.web.mvc.services.WebRequestEvidenceService.Default Pages: 1 -->
<svg width="676pt" height="86pt"
 viewBox="0.00 0.00 676.00 86.00" xmlns="http://www.w3.org/2000/svg" xmlns:xlink="http://www.w3.org/1999/xlink">
<g id="graph0" class="graph" transform="scale(1 1) rotate(0) translate(4 82)">
<title>fiftyone.pipeline.web.mvc.services.WebRequestEvidenceService.Default</title>
<!-- Node1 -->
<g id="Node000001" class="node">
<title>Node1</title>
<g id="a_Node000001"><a xlink:title=" ">
<polygon fill="#999999" stroke="#666666" points="668,-54 471,-54 471,-24 668,-24 668,-54"/>
<text text-anchor="start" x="479" y="-42" font-family="Helvetica,sans-Serif" font-size="10.00">fiftyone.pipeline.web.mvc.services.</text>
<text text-anchor="middle" x="569.5" y="-31" font-family="Helvetica,sans-Serif" font-size="10.00">WebRequestEvidenceService.Default</text>
</a>
</g>
</g>
<!-- Node2 -->
<g id="Node000002" class="node">
<title>Node2</title>
<g id="a_Node000002"><a xlink:href="classfiftyone_1_1pipeline_1_1web_1_1services_1_1_web_request_evidence_service_core_1_1_default.html" target="_top" xlink:title="Default implementation of the WebRequestEvidenceServiceCore service.">
<polygon fill="white" stroke="#666666" points="435,-78 216,-78 216,-48 435,-48 435,-78"/>
<text text-anchor="start" x="224" y="-66" font-family="Helvetica,sans-Serif" font-size="10.00">fiftyone.pipeline.web.services.</text>
<text text-anchor="middle" x="325.5" y="-55" font-family="Helvetica,sans-Serif" font-size="10.00">WebRequestEvidenceServiceCore.Default</text>
</a>
</g>
</g>
<!-- Node2&#45;&gt;Node1 -->
<g id="edge1_Node000001_Node000002" class="edge">
<title>Node2&#45;&gt;Node1</title>
<g id="a_edge1_Node000001_Node000002"><a xlink:title=" ">
<path fill="none" stroke="#63b8ff" d="M445.21,-51.23C453.83,-50.37 462.46,-49.52 470.94,-48.68"/>
<polygon fill="#63b8ff" stroke="#63b8ff" points="444.72,-47.76 435.11,-52.23 445.41,-54.72 444.72,-47.76"/>
</a>
</g>
</g>
<!-- Node3 -->
<g id="Node000003" class="node">
<title>Node3</title>
<g id="a_Node000003"><a xlink:href="interfacefiftyone_1_1pipeline_1_1web_1_1services_1_1_web_request_evidence_service_core.html" target="_top" xlink:title="Service used to populate the Evidence from a HttpServletRequest ready for it to be processed by the P...">
<polygon fill="white" stroke="#666666" points="180,-54 0,-54 0,-24 180,-24 180,-54"/>
<text text-anchor="start" x="8" y="-42" font-family="Helvetica,sans-Serif" font-size="10.00">fiftyone.pipeline.web.services.</text>
<text text-anchor="middle" x="90" y="-31" font-family="Helvetica,sans-Serif" font-size="10.00">WebRequestEvidenceServiceCore</text>
</a>
</g>
</g>
<!-- Node3&#45;&gt;Node2 -->
<g id="edge2_Node000002_Node000003" class="edge">
<title>Node3&#45;&gt;Node2</title>
<g id="a_edge2_Node000002_Node000003"><a xlink:title=" ">
<path fill="none" stroke="#63b8ff" d="M190.41,-49.22C198.77,-50.08 207.26,-50.95 215.69,-51.82"/>
<polygon fill="#63b8ff" stroke="#63b8ff" points="190.58,-45.72 180.28,-48.18 189.87,-52.68 190.58,-45.72"/>
</a>
</g>
</g>
<!-- Node4 -->
<g id="Node000004" class="node">
<title>Node4</title>
<g id="a_Node000004"><a xlink:href="interfacefiftyone_1_1pipeline_1_1web_1_1mvc_1_1services_1_1_web_request_evidence_service.html" target="_top" xlink:title="Spring framework service for the WebRequestEvidenceServiceCore.">
<polygon fill="white" stroke="#666666" points="420,-30 231,-30 231,0 420,0 420,-30"/>
<text text-anchor="start" x="239" y="-18" font-family="Helvetica,sans-Serif" font-size="10.00">fiftyone.pipeline.web.mvc.services.</text>
<text text-anchor="middle" x="325.5" y="-7" font-family="Helvetica,sans-Serif" font-size="10.00">WebRequestEvidenceService</text>
</a>
</g>
</g>
<!-- Node3&#45;&gt;Node4 -->
<g id="edge4_Node000004_Node000003" class="edge">
<title>Node3&#45;&gt;Node4</title>
<g id="a_edge4_Node000004_Node000003"><a xlink:title=" ">
<path fill="none" stroke="#63b8ff" d="M190.4,-28.78C203.74,-27.41 217.38,-26.01 230.62,-24.65"/>
<polygon fill="#63b8ff" stroke="#63b8ff" points="189.87,-25.32 180.28,-29.82 190.58,-32.28 189.87,-25.32"/>
</a>
</g>
</g>
<!-- Node4&#45;&gt;Node1 -->
<g id="edge3_Node000001_Node000004" class="edge">
<title>Node4&#45;&gt;Node1</title>
<g id="a_edge3_Node000001_Node000004"><a xlink:title=" ">
<path fill="none" stroke="#63b8ff" d="M430.27,-25.29C443.71,-26.62 457.44,-27.99 470.78,-29.31"/>
<polygon fill="#63b8ff" stroke="#63b8ff" points="430.36,-21.78 420.06,-24.28 429.67,-28.75 430.36,-21.78"/>
</a>
</g>
</g>
</g>
</svg>
