<?xml version="1.0" encoding="UTF-8" standalone="no"?>
<!DOCTYPE svg PUBLIC "-//W3C//DTD SVG 1.1//EN"
 "http://www.w3.org/Graphics/SVG/1.1/DTD/svg11.dtd">
<!-- Generated by graphviz version 2.43.0 (0)
 -->
<!-- Title: fiftyone.pipeline.cloudrequestengine.flowelements.PropertyKeyedCloudEngineBase&lt; TData extends MultiProfileData&lt; TProfile &gt;, TProfile extends AspectData &gt; Pages: 1 -->
<svg width="3147pt" height="539pt"
 viewBox="0.00 0.00 3147.00 539.00" xmlns="http://www.w3.org/2000/svg" xmlns:xlink="http://www.w3.org/1999/xlink">
<g id="graph0" class="graph" transform="scale(1 1) rotate(0) translate(4 535)">
<title>fiftyone.pipeline.cloudrequestengine.flowelements.PropertyKeyedCloudEngineBase&lt; TData extends MultiProfileData&lt; TProfile &gt;, TProfile extends AspectData &gt;</title>
<!-- Node1 -->
<g id="Node000001" class="node">
<title>Node1</title>
<g id="a_Node000001"><a xlink:title="A specialised type of CloudAspectEngineBase that has the functionality to support returning a list of...">
<polygon fill="#999999" stroke="#666666" points="3139,-518 2873,-518 2873,-466 3139,-466 3139,-518"/>
<text text-anchor="start" x="2881" y="-506" font-family="Helvetica,sans-Serif" font-size="10.00">fiftyone.pipeline.cloudrequestengine.flowelements.</text>
<text text-anchor="start" x="2881" y="-495" font-family="Helvetica,sans-Serif" font-size="10.00">PropertyKeyedCloudEngineBase&lt; TData</text>
<text text-anchor="start" x="2881" y="-484" font-family="Helvetica,sans-Serif" font-size="10.00"> extends MultiProfileData&lt; TProfile</text>
<text text-anchor="middle" x="3006" y="-473" font-family="Helvetica,sans-Serif" font-size="10.00"> &gt;, TProfile extends AspectData &gt;</text>
</a>
</g>
</g>
<!-- Node2 -->
<g id="Node000002" class="node">
<title>Node2</title>
<g id="a_Node000002"><a xlink:href="classfiftyone_1_1pipeline_1_1cloudrequestengine_1_1flowelements_1_1_cloud_aspect_engine_base.html" target="_top" xlink:title=" ">
<polygon fill="white" stroke="#666666" points="2836,-485 2570,-485 2570,-455 2836,-455 2836,-485"/>
<text text-anchor="start" x="2578" y="-473" font-family="Helvetica,sans-Serif" font-size="10.00">fiftyone.pipeline.cloudrequestengine.flowelements.</text>
<text text-anchor="middle" x="2703" y="-462" font-family="Helvetica,sans-Serif" font-size="10.00">CloudAspectEngineBase&lt; TData &gt;</text>
</a>
</g>
</g>
<!-- Node2&#45;&gt;Node1 -->
<g id="edge1_Node000001_Node000002" class="edge">
<title>Node2&#45;&gt;Node1</title>
<g id="a_edge1_Node000001_Node000002"><a xlink:title=" ">
<path fill="none" stroke="#63b8ff" d="M2846.03,-480.38C2854.91,-481.03 2863.84,-481.68 2872.68,-482.33"/>
<polygon fill="#63b8ff" stroke="#63b8ff" points="2846.25,-476.89 2836.02,-479.65 2845.74,-483.87 2846.25,-476.89"/>
</a>
</g>
</g>
<!-- Node3 -->
<g id="Node000003" class="node">
<title>Node3</title>
<g id="a_Node000003"><a xlink:href="classfiftyone_1_1pipeline_1_1cloudrequestengine_1_1flowelements_1_1_cloud_aspect_engine_base.html" target="_top" xlink:title="Base class for 51Degrees Cloud Aspect Engines.">
<polygon fill="white" stroke="#666666" points="2476,-474.5 2210,-474.5 2210,-433.5 2476,-433.5 2476,-474.5"/>
<text text-anchor="start" x="2218" y="-462.5" font-family="Helvetica,sans-Serif" font-size="10.00">fiftyone.pipeline.cloudrequestengine.flowelements.</text>
<text text-anchor="start" x="2218" y="-451.5" font-family="Helvetica,sans-Serif" font-size="10.00">CloudAspectEngineBase&lt; TData extends</text>
<text text-anchor="middle" x="2343" y="-440.5" font-family="Helvetica,sans-Serif" font-size="10.00"> AspectData &gt;</text>
</a>
</g>
</g>
<!-- Node3&#45;&gt;Node2 -->
<g id="edge2_Node000002_Node000003" class="edge">
<title>Node3&#45;&gt;Node2</title>
<g id="a_edge2_Node000002_Node000003"><a xlink:title=" ">
<path fill="none" stroke="orange" stroke-dasharray="5,2" d="M2486.14,-460.35C2513.72,-461.59 2542.53,-462.87 2569.78,-464.09"/>
<polygon fill="orange" stroke="orange" points="2486.18,-456.85 2476.03,-459.9 2485.87,-463.84 2486.18,-456.85"/>
</a>
</g>
<text text-anchor="start" x="2497" y="-467.5" font-family="Helvetica,sans-Serif" font-size="10.00" fill="grey">&lt; TData &gt;</text>
</g>
<!-- Node4 -->
<g id="Node000004" class="node">
<title>Node4</title>
<g id="a_Node000004"><a xlink:href="classfiftyone_1_1pipeline_1_1engines_1_1flowelements_1_1_aspect_engine_base.html" target="_top" xlink:title="Base class for AspectEngines to extend.">
<polygon fill="white" stroke="#666666" points="2173,-271 1925,-271 1925,-219 2173,-219 2173,-271"/>
<text text-anchor="start" x="1933" y="-259" font-family="Helvetica,sans-Serif" font-size="10.00">fiftyone.pipeline.engines.flowelements.</text>
<text text-anchor="start" x="1933" y="-248" font-family="Helvetica,sans-Serif" font-size="10.00">AspectEngineBase&lt; TData extends</text>
<text text-anchor="start" x="1933" y="-237" font-family="Helvetica,sans-Serif" font-size="10.00"> AspectData, TProperty extends AspectProperty</text>
<text text-anchor="middle" x="2049" y="-226" font-family="Helvetica,sans-Serif" font-size="10.00">MetaData &gt;</text>
</a>
</g>
</g>
<!-- Node4&#45;&gt;Node3 -->
<g id="edge3_Node000003_Node000004" class="edge">
<title>Node4&#45;&gt;Node3</title>
<g id="a_edge3_Node000003_Node000004"><a xlink:title=" ">
<path fill="none" stroke="#63b8ff" d="M2094.63,-276.94C2155.26,-320.34 2261.93,-396.69 2313.07,-433.29"/>
<polygon fill="#63b8ff" stroke="#63b8ff" points="2096.56,-274.02 2086.39,-271.05 2092.49,-279.71 2096.56,-274.02"/>
</a>
</g>
</g>
<!-- Node5 -->
<g id="Node000005" class="node">
<title>Node5</title>
<g id="a_Node000005"><a xlink:href="classfiftyone_1_1pipeline_1_1core_1_1flowelements_1_1_flow_element_base.html" target="_top" xlink:title="Provides a base class from which authors may create new FlowElements.">
<polygon fill="white" stroke="#666666" points="1383,-174 1192,-174 1192,-122 1383,-122 1383,-174"/>
<text text-anchor="start" x="1200" y="-162" font-family="Helvetica,sans-Serif" font-size="10.00">fiftyone.pipeline.core.flowelements.</text>
<text text-anchor="start" x="1200" y="-151" font-family="Helvetica,sans-Serif" font-size="10.00">FlowElementBase&lt; TData extends</text>
<text text-anchor="start" x="1200" y="-140" font-family="Helvetica,sans-Serif" font-size="10.00"> ElementData, TProperty extends</text>
<text text-anchor="middle" x="1287.5" y="-129" font-family="Helvetica,sans-Serif" font-size="10.00"> ElementPropertyMetaData &gt;</text>
</a>
</g>
</g>
<!-- Node5&#45;&gt;Node4 -->
<g id="edge4_Node000004_Node000005" class="edge">
<title>Node5&#45;&gt;Node4</title>
<g id="a_edge4_Node000004_Node000005"><a xlink:title=" ">
<path fill="none" stroke="#63b8ff" d="M1393.36,-144.69C1517.57,-143.08 1729.97,-147.6 1907,-188 1937.12,-194.87 1969.16,-207.37 1995.07,-218.91"/>
<polygon fill="#63b8ff" stroke="#63b8ff" points="1393.04,-141.2 1383.09,-144.84 1393.14,-148.2 1393.04,-141.2"/>
</a>
</g>
</g>
<!-- Node6 -->
<g id="Node000006" class="node">
<title>Node6</title>
<g id="a_Node000006"><a xlink:href="interfacefiftyone_1_1pipeline_1_1core_1_1flowelements_1_1_flow_element.html" target="_top" xlink:title=" ">
<polygon fill="white" stroke="#666666" points="1036,-233 845,-233 845,-203 1036,-203 1036,-233"/>
<text text-anchor="start" x="853" y="-221" font-family="Helvetica,sans-Serif" font-size="10.00">fiftyone.pipeline.core.flowelements.</text>
<text text-anchor="middle" x="940.5" y="-210" font-family="Helvetica,sans-Serif" font-size="10.00">FlowElement&lt; TData, TProperty &gt;</text>
</a>
</g>
</g>
<!-- Node6&#45;&gt;Node5 -->
<g id="edge5_Node000005_Node000006" class="edge">
<title>Node6&#45;&gt;Node5</title>
<g id="a_edge5_Node000005_Node000006"><a xlink:title=" ">
<path fill="none" stroke="#63b8ff" d="M1033.95,-201.09C1069.36,-194.44 1110.1,-186.6 1147,-179 1161.46,-176.02 1176.73,-172.75 1191.66,-169.49"/>
<polygon fill="#63b8ff" stroke="#63b8ff" points="1033.3,-197.65 1024.11,-202.93 1034.58,-204.53 1033.3,-197.65"/>
</a>
</g>
</g>
<!-- Node15 -->
<g id="Node000015" class="node">
<title>Node15</title>
<g id="a_Node000015"><a xlink:href="interfacefiftyone_1_1pipeline_1_1engines_1_1flowelements_1_1_aspect_engine.html" target="_top" xlink:title="AspectEngines are a subset of FlowElements.">
<polygon fill="white" stroke="#666666" points="1410,-319.5 1165,-319.5 1165,-278.5 1410,-278.5 1410,-319.5"/>
<text text-anchor="start" x="1173" y="-307.5" font-family="Helvetica,sans-Serif" font-size="10.00">fiftyone.pipeline.engines.flowelements.</text>
<text text-anchor="start" x="1173" y="-296.5" font-family="Helvetica,sans-Serif" font-size="10.00">AspectEngine&lt; TData extends AspectData,</text>
<text text-anchor="middle" x="1287.5" y="-285.5" font-family="Helvetica,sans-Serif" font-size="10.00"> TProperty extends AspectPropertyMetaData &gt;</text>
</a>
</g>
</g>
<!-- Node6&#45;&gt;Node15 -->
<g id="edge17_Node000015_Node000006" class="edge">
<title>Node6&#45;&gt;Node15</title>
<g id="a_edge17_Node000015_Node000006"><a xlink:title=" ">
<path fill="none" stroke="#63b8ff" d="M1015.4,-235.35C1069.21,-247.98 1142.29,-265.14 1199.02,-278.46"/>
<polygon fill="#63b8ff" stroke="#63b8ff" points="1016.12,-231.92 1005.58,-233.05 1014.52,-238.74 1016.12,-231.92"/>
</a>
</g>
</g>
<!-- Node7 -->
<g id="Node000007" class="node">
<title>Node7</title>
<g id="a_Node000007"><a xlink:href="interfacefiftyone_1_1pipeline_1_1core_1_1flowelements_1_1_flow_element.html" target="_top" xlink:title="A component that processes a FlowData (by examining its evidence, or by examining data processed by o...">
<polygon fill="white" stroke="#666666" points="697,-251.5 444,-251.5 444,-210.5 697,-210.5 697,-251.5"/>
<text text-anchor="start" x="452" y="-239.5" font-family="Helvetica,sans-Serif" font-size="10.00">fiftyone.pipeline.core.flowelements.</text>
<text text-anchor="start" x="452" y="-228.5" font-family="Helvetica,sans-Serif" font-size="10.00">FlowElement&lt; TData extends ElementData,</text>
<text text-anchor="middle" x="570.5" y="-217.5" font-family="Helvetica,sans-Serif" font-size="10.00"> TProperty extends ElementPropertyMetaData &gt;</text>
</a>
</g>
</g>
<!-- Node7&#45;&gt;Node6 -->
<g id="edge6_Node000006_Node000007" class="edge">
<title>Node7&#45;&gt;Node6</title>
<g id="a_edge6_Node000006_Node000007"><a xlink:title=" ">
<path fill="none" stroke="orange" stroke-dasharray="5,2" d="M707.12,-226.21C752.92,-224.59 803.03,-222.82 844.95,-221.34"/>
<polygon fill="orange" stroke="orange" points="706.99,-222.71 697.12,-226.56 707.23,-229.71 706.99,-222.71"/>
</a>
</g>
<text text-anchor="start" x="718" y="-230.5" font-family="Helvetica,sans-Serif" font-size="10.00" fill="grey">&lt; TData, TProperty &gt;</text>
</g>
<!-- Node8 -->
<g id="Node000008" class="node">
<title>Node8</title>
<g id="a_Node000008"><a xlink:title=" ">
<polygon fill="white" stroke="#bfbfbf" points="324,-314.5 237,-314.5 237,-295.5 324,-295.5 324,-314.5"/>
<text text-anchor="middle" x="280.5" y="-302.5" font-family="Helvetica,sans-Serif" font-size="10.00">AutoCloseable</text>
</a>
</g>
</g>
<!-- Node8&#45;&gt;Node7 -->
<g id="edge7_Node000007_Node000008" class="edge">
<title>Node8&#45;&gt;Node7</title>
<g id="a_edge7_Node000007_Node000008"><a xlink:title=" ">
<path fill="none" stroke="#63b8ff" d="M328.32,-292.97C371.9,-281.77 437.73,-264.86 489.61,-251.53"/>
<polygon fill="#63b8ff" stroke="#63b8ff" points="327.38,-289.6 318.56,-295.48 329.12,-296.38 327.38,-289.6"/>
</a>
</g>
</g>
<!-- Node9 -->
<g id="Node000009" class="node">
<title>Node9</title>
<g id="a_Node000009"><a xlink:href="interfacefiftyone_1_1pipeline_1_1core_1_1data_1_1_element_data.html" target="_top" xlink:title="Represents property values that have be determined by a specific FlowElement based on the supplied ev...">
<polygon fill="white" stroke="#666666" points="354,-251 207,-251 207,-221 354,-221 354,-251"/>
<text text-anchor="start" x="215" y="-239" font-family="Helvetica,sans-Serif" font-size="10.00">fiftyone.pipeline.core.data.</text>
<text text-anchor="middle" x="280.5" y="-228" font-family="Helvetica,sans-Serif" font-size="10.00">ElementData</text>
</a>
</g>
</g>
<!-- Node9&#45;&gt;Node5 -->
<g id="edge13_Node000005_Node000009" class="edge">
<title>Node9&#45;&gt;Node5</title>
<g id="a_edge13_Node000005_Node000009"><a xlink:title=" ">
<path fill="none" stroke="orange" stroke-dasharray="5,2" d="M353.03,-218.74C381.22,-212.54 413.98,-206.08 444,-202 586.05,-182.69 1002.97,-161.36 1191.73,-152.37"/>
<polygon fill="orange" stroke="orange" points="352.26,-215.33 343.26,-220.92 353.78,-222.16 352.26,-215.33"/>
</a>
</g>
<text text-anchor="start" x="756" y="-183.5" font-family="Helvetica,sans-Serif" font-size="10.00" fill="grey">TData</text>
</g>
<!-- Node9&#45;&gt;Node7 -->
<g id="edge8_Node000007_Node000009" class="edge">
<title>Node9&#45;&gt;Node7</title>
<g id="a_edge8_Node000007_Node000009"><a xlink:title=" ">
<path fill="none" stroke="orange" stroke-dasharray="5,2" d="M364.26,-234.56C389.11,-234.13 416.94,-233.65 443.89,-233.18"/>
<polygon fill="orange" stroke="orange" points="364.11,-231.07 354.17,-234.74 364.23,-238.06 364.11,-231.07"/>
</a>
</g>
<text text-anchor="start" x="384" y="-239.5" font-family="Helvetica,sans-Serif" font-size="10.00" fill="grey">TData</text>
</g>
<!-- Node16 -->
<g id="Node000016" class="node">
<title>Node16</title>
<g id="a_Node000016"><a xlink:href="interfacefiftyone_1_1pipeline_1_1engines_1_1data_1_1_aspect_data.html" target="_top" xlink:title="Represents a specialized ElementData instance that is generated by an AspectEngine.">
<polygon fill="white" stroke="#666666" points="1022.5,-421 858.5,-421 858.5,-391 1022.5,-391 1022.5,-421"/>
<text text-anchor="start" x="866.5" y="-409" font-family="Helvetica,sans-Serif" font-size="10.00">fiftyone.pipeline.engines.data.</text>
<text text-anchor="middle" x="940.5" y="-398" font-family="Helvetica,sans-Serif" font-size="10.00">AspectData</text>
</a>
</g>
</g>
<!-- Node9&#45;&gt;Node16 -->
<g id="edge19_Node000016_Node000009" class="edge">
<title>Node9&#45;&gt;Node16</title>
<g id="a_edge19_Node000016_Node000009"><a xlink:title=" ">
<path fill="none" stroke="#63b8ff" d="M349.42,-253.55C479.01,-287.03 759.46,-359.49 881.17,-390.93"/>
<polygon fill="#63b8ff" stroke="#63b8ff" points="350.16,-250.12 339.6,-251.01 348.41,-256.9 350.16,-250.12"/>
</a>
</g>
</g>
<!-- Node10 -->
<g id="Node000010" class="node">
<title>Node10</title>
<g id="a_Node000010"><a xlink:href="interfacefiftyone_1_1pipeline_1_1core_1_1data_1_1_data.html" target="_top" xlink:title="Represents a collection of property values.">
<polygon fill="white" stroke="#666666" points="170,-245.5 0,-245.5 0,-226.5 170,-226.5 170,-245.5"/>
<text text-anchor="middle" x="85" y="-233.5" font-family="Helvetica,sans-Serif" font-size="10.00">fiftyone.pipeline.core.data.Data</text>
</a>
</g>
</g>
<!-- Node10&#45;&gt;Node9 -->
<g id="edge9_Node000009_Node000010" class="edge">
<title>Node10&#45;&gt;Node9</title>
<g id="a_edge9_Node000009_Node000010"><a xlink:title=" ">
<path fill="none" stroke="#63b8ff" d="M180.11,-236C189.07,-236 198.06,-236 206.77,-236"/>
<polygon fill="#63b8ff" stroke="#63b8ff" points="180.03,-232.5 170.03,-236 180.03,-239.5 180.03,-232.5"/>
</a>
</g>
</g>
<!-- Node11 -->
<g id="Node000011" class="node">
<title>Node11</title>
<g id="a_Node000011"><a xlink:href="interfacefiftyone_1_1pipeline_1_1core_1_1data_1_1_element_property_meta_data.html" target="_top" xlink:title="Defines details of a property that can be returned by a FlowElement.">
<polygon fill="white" stroke="#666666" points="354,-153 207,-153 207,-123 354,-123 354,-153"/>
<text text-anchor="start" x="215" y="-141" font-family="Helvetica,sans-Serif" font-size="10.00">fiftyone.pipeline.core.data.</text>
<text text-anchor="middle" x="280.5" y="-130" font-family="Helvetica,sans-Serif" font-size="10.00">ElementPropertyMetaData</text>
</a>
</g>
</g>
<!-- Node11&#45;&gt;Node5 -->
<g id="edge14_Node000005_Node000011" class="edge">
<title>Node11&#45;&gt;Node5</title>
<g id="a_edge14_Node000005_Node000011"><a xlink:title=" ">
<path fill="none" stroke="orange" stroke-dasharray="5,2" d="M320.8,-118.68C353.02,-103.96 400.28,-84.94 444,-77 507.89,-65.4 1031.86,-85.44 1036,-86 1091.72,-93.54 1153.01,-108.59 1201.02,-121.97"/>
<polygon fill="orange" stroke="orange" points="319.31,-115.51 311.71,-122.89 322.25,-121.86 319.31,-115.51"/>
</a>
</g>
<text text-anchor="start" x="747" y="-84.5" font-family="Helvetica,sans-Serif" font-size="10.00" fill="grey">TProperty</text>
</g>
<!-- Node11&#45;&gt;Node7 -->
<g id="edge10_Node000007_Node000011" class="edge">
<title>Node11&#45;&gt;Node7</title>
<g id="a_edge10_Node000007_Node000011"><a xlink:title=" ">
<path fill="none" stroke="orange" stroke-dasharray="5,2" d="M337.75,-156.16C386,-171.74 455.49,-194.18 505.78,-210.42"/>
<polygon fill="orange" stroke="orange" points="338.68,-152.79 328.09,-153.05 336.53,-159.45 338.68,-152.79"/>
</a>
</g>
<text text-anchor="start" x="375" y="-189.5" font-family="Helvetica,sans-Serif" font-size="10.00" fill="grey">TProperty</text>
</g>
<!-- Node17 -->
<g id="Node000017" class="node">
<title>Node17</title>
<g id="a_Node000017"><a xlink:href="interfacefiftyone_1_1pipeline_1_1engines_1_1data_1_1_aspect_property_meta_data.html" target="_top" xlink:title="Holds details about a property that can be returned by an AspectEngine.">
<polygon fill="white" stroke="#666666" points="1022.5,-286 858.5,-286 858.5,-256 1022.5,-256 1022.5,-286"/>
<text text-anchor="start" x="866.5" y="-274" font-family="Helvetica,sans-Serif" font-size="10.00">fiftyone.pipeline.engines.data.</text>
<text text-anchor="middle" x="940.5" y="-263" font-family="Helvetica,sans-Serif" font-size="10.00">AspectPropertyMetaData</text>
</a>
</g>
</g>
<!-- Node11&#45;&gt;Node17 -->
<g id="edge21_Node000017_Node000011" class="edge">
<title>Node11&#45;&gt;Node17</title>
<g id="a_edge21_Node000017_Node000011"><a xlink:title=" ">
<path fill="none" stroke="#63b8ff" d="M364.28,-135.54C508.18,-132.07 792.48,-129.04 827,-158 856.25,-182.54 819.2,-213.86 845,-242 850.22,-247.69 856.52,-252.28 863.37,-255.97"/>
<polygon fill="#63b8ff" stroke="#63b8ff" points="364.08,-132.05 354.17,-135.79 364.25,-139.04 364.08,-132.05"/>
</a>
</g>
</g>
<!-- Node12 -->
<g id="Node000012" class="node">
<title>Node12</title>
<g id="a_Node000012"><a xlink:href="interfacefiftyone_1_1pipeline_1_1core_1_1typed_1_1_typed_key.html" target="_top" xlink:title=" ">
<polygon fill="white" stroke="#666666" points="1017,-125 864,-125 864,-95 1017,-95 1017,-125"/>
<text text-anchor="start" x="872" y="-113" font-family="Helvetica,sans-Serif" font-size="10.00">fiftyone.pipeline.core.typed.</text>
<text text-anchor="middle" x="940.5" y="-102" font-family="Helvetica,sans-Serif" font-size="10.00">TypedKey&lt; TData &gt;</text>
</a>
</g>
</g>
<!-- Node12&#45;&gt;Node5 -->
<g id="edge11_Node000005_Node000012" class="edge">
<title>Node12&#45;&gt;Node5</title>
<g id="a_edge11_Node000005_Node000012"><a xlink:title=" ">
<path fill="none" stroke="#9a32cd" stroke-dasharray="5,2" d="M1027.35,-119.46C1077.33,-124.96 1140.43,-131.91 1191.85,-137.58"/>
<polygon fill="#9a32cd" stroke="#9a32cd" points="1027.53,-115.96 1017.21,-118.34 1026.77,-122.91 1027.53,-115.96"/>
</a>
</g>
<text text-anchor="start" x="1077.5" y="-137.5" font-family="Helvetica,sans-Serif" font-size="10.00" fill="grey">typedKey</text>
</g>
<!-- Node13 -->
<g id="Node000013" class="node">
<title>Node13</title>
<g id="a_Node000013"><a xlink:href="interfacefiftyone_1_1pipeline_1_1core_1_1typed_1_1_typed_key.html" target="_top" xlink:title="Holds a name and a type to allow for type safe operations on named values.">
<polygon fill="white" stroke="#666666" points="647,-116 494,-116 494,-86 647,-86 647,-116"/>
<text text-anchor="start" x="502" y="-104" font-family="Helvetica,sans-Serif" font-size="10.00">fiftyone.pipeline.core.typed.</text>
<text text-anchor="middle" x="570.5" y="-93" font-family="Helvetica,sans-Serif" font-size="10.00">TypedKey&lt; T &gt;</text>
</a>
</g>
</g>
<!-- Node13&#45;&gt;Node12 -->
<g id="edge12_Node000012_Node000013" class="edge">
<title>Node13&#45;&gt;Node12</title>
<g id="a_edge12_Node000012_Node000013"><a xlink:title=" ">
<path fill="none" stroke="orange" stroke-dasharray="5,2" d="M657.54,-103.1C720.04,-104.63 803.83,-106.68 863.79,-108.15"/>
<polygon fill="orange" stroke="orange" points="657.39,-99.6 647.3,-102.85 657.22,-106.6 657.39,-99.6"/>
</a>
</g>
<text text-anchor="start" x="745" y="-112.5" font-family="Helvetica,sans-Serif" font-size="10.00" fill="grey">&lt; TData &gt;</text>
</g>
<!-- Node14 -->
<g id="Node000014" class="node">
<title>Node14</title>
<g id="a_Node000014"><a xlink:href="interfacefiftyone_1_1pipeline_1_1engines_1_1flowelements_1_1_aspect_engine.html" target="_top" xlink:title=" ">
<polygon fill="white" stroke="#666666" points="1767,-314 1558,-314 1558,-284 1767,-284 1767,-314"/>
<text text-anchor="start" x="1566" y="-302" font-family="Helvetica,sans-Serif" font-size="10.00">fiftyone.pipeline.engines.flowelements.</text>
<text text-anchor="middle" x="1662.5" y="-291" font-family="Helvetica,sans-Serif" font-size="10.00">AspectEngine&lt; TData, TProperty &gt;</text>
</a>
</g>
</g>
<!-- Node14&#45;&gt;Node4 -->
<g id="edge15_Node000004_Node000014" class="edge">
<title>Node14&#45;&gt;Node4</title>
<g id="a_edge15_Node000004_Node000014"><a xlink:title=" ">
<path fill="none" stroke="#63b8ff" d="M1777.22,-283.9C1818.15,-278.39 1864.66,-272.02 1907,-266 1912.88,-265.16 1918.9,-264.3 1924.97,-263.42"/>
<polygon fill="#63b8ff" stroke="#63b8ff" points="1776.66,-280.45 1767.22,-285.25 1777.6,-287.38 1776.66,-280.45"/>
</a>
</g>
</g>
<!-- Node26 -->
<g id="Node000026" class="node">
<title>Node26</title>
<g id="a_Node000026"><a xlink:href="interfacefiftyone_1_1pipeline_1_1engines_1_1flowelements_1_1_cloud_aspect_engine.html" target="_top" xlink:title="Aspect engine interface which is specific to a cloud engine.">
<polygon fill="white" stroke="#666666" points="2173,-428 1925,-428 1925,-376 2173,-376 2173,-428"/>
<text text-anchor="start" x="1933" y="-416" font-family="Helvetica,sans-Serif" font-size="10.00">fiftyone.pipeline.engines.flowelements.</text>
<text text-anchor="start" x="1933" y="-405" font-family="Helvetica,sans-Serif" font-size="10.00">CloudAspectEngine&lt; TData extends</text>
<text text-anchor="start" x="1933" y="-394" font-family="Helvetica,sans-Serif" font-size="10.00"> AspectData, TProperty extends AspectProperty</text>
<text text-anchor="middle" x="2049" y="-383" font-family="Helvetica,sans-Serif" font-size="10.00">MetaData &gt;</text>
</a>
</g>
</g>
<!-- Node14&#45;&gt;Node26 -->
<g id="edge33_Node000026_Node000014" class="edge">
<title>Node14&#45;&gt;Node26</title>
<g id="a_edge33_Node000026_Node000014"><a xlink:title=" ">
<path fill="none" stroke="#63b8ff" d="M1729.71,-316.74C1790.63,-333.06 1881.75,-357.46 1950.9,-375.99"/>
<polygon fill="#63b8ff" stroke="#63b8ff" points="1730.39,-313.29 1719.82,-314.09 1728.58,-320.06 1730.39,-313.29"/>
</a>
</g>
</g>
<!-- Node15&#45;&gt;Node14 -->
<g id="edge16_Node000014_Node000015" class="edge">
<title>Node15&#45;&gt;Node14</title>
<g id="a_edge16_Node000014_Node000015"><a xlink:title=" ">
<path fill="none" stroke="orange" stroke-dasharray="5,2" d="M1420.28,-299C1465.43,-299 1515.27,-299 1557.87,-299"/>
<polygon fill="orange" stroke="orange" points="1420.12,-295.5 1410.12,-299 1420.12,-302.5 1420.12,-295.5"/>
</a>
</g>
<text text-anchor="start" x="1431" y="-304.5" font-family="Helvetica,sans-Serif" font-size="10.00" fill="grey">&lt; TData, TProperty &gt;</text>
</g>
<!-- Node16&#45;&gt;Node1 -->
<g id="edge37_Node000001_Node000016" class="edge">
<title>Node16&#45;&gt;Node1</title>
<g id="a_edge37_Node000001_Node000016"><a xlink:title=" ">
<path fill="none" stroke="orange" stroke-dasharray="5,2" d="M978.17,-425.59C1039.94,-456.72 1169.49,-514 1286.5,-514 1286.5,-514 1286.5,-514 2704,-514 2759.41,-514 2820.4,-510.25 2872.91,-505.84"/>
<polygon fill="orange" stroke="orange" points="979.7,-422.45 969.2,-421.02 976.51,-428.68 979.7,-422.45"/>
</a>
</g>
<text text-anchor="start" x="2031" y="-519.5" font-family="Helvetica,sans-Serif" font-size="10.00" fill="grey">TProfile</text>
</g>
<!-- Node16&#45;&gt;Node3 -->
<g id="edge36_Node000003_Node000016" class="edge">
<title>Node16&#45;&gt;Node3</title>
<g id="a_edge36_Node000003_Node000016"><a xlink:title=" ">
<path fill="none" stroke="orange" stroke-dasharray="5,2" d="M1002.18,-423.65C1070.62,-441.98 1185.58,-468 1286.5,-468 1286.5,-468 1286.5,-468 2050,-468 2102.28,-468 2159.75,-465.73 2209.79,-463.02"/>
<polygon fill="orange" stroke="orange" points="1002.99,-420.25 992.42,-421.01 1001.16,-427 1002.99,-420.25"/>
</a>
</g>
<text text-anchor="start" x="1647.5" y="-473.5" font-family="Helvetica,sans-Serif" font-size="10.00" fill="grey">TData</text>
</g>
<!-- Node16&#45;&gt;Node4 -->
<g id="edge30_Node000004_Node000016" class="edge">
<title>Node16&#45;&gt;Node4</title>
<g id="a_edge30_Node000004_Node000016"><a xlink:title=" ">
<path fill="none" stroke="orange" stroke-dasharray="5,2" d="M1032.64,-402.69C1150.24,-397.7 1360.98,-386.38 1540,-364 1641.73,-351.28 1666.77,-344.56 1767,-323 1829.7,-309.51 1845.19,-305.14 1907,-288 1925.87,-282.77 1946.05,-276.82 1965.07,-271.06"/>
<polygon fill="orange" stroke="orange" points="1032.45,-399.19 1022.6,-403.1 1032.74,-406.18 1032.45,-399.19"/>
</a>
</g>
<text text-anchor="start" x="1469" y="-380.5" font-family="Helvetica,sans-Serif" font-size="10.00" fill="grey">TData</text>
</g>
<!-- Node16&#45;&gt;Node15 -->
<g id="edge18_Node000015_Node000016" class="edge">
<title>Node16&#45;&gt;Node15</title>
<g id="a_edge18_Node000015_Node000016"><a xlink:title=" ">
<path fill="none" stroke="orange" stroke-dasharray="5,2" d="M980.04,-386.34C1001.42,-375.99 1028.74,-363.68 1054,-355 1095.42,-340.77 1142.19,-328.75 1182.87,-319.55"/>
<polygon fill="orange" stroke="orange" points="978.4,-383.24 970.96,-390.79 981.48,-389.53 978.4,-383.24"/>
</a>
</g>
<text text-anchor="start" x="1085.5" y="-360.5" font-family="Helvetica,sans-Serif" font-size="10.00" fill="grey">TData</text>
</g>
<!-- Node16&#45;&gt;Node26 -->
<g id="edge34_Node000026_Node000016" class="edge">
<title>Node16&#45;&gt;Node26</title>
<g id="a_edge34_Node000026_Node000016"><a xlink:title=" ">
<path fill="none" stroke="orange" stroke-dasharray="5,2" d="M1032.8,-406.52C1204.16,-407.36 1585.67,-408.58 1907,-405 1912.88,-404.93 1918.89,-404.85 1924.96,-404.76"/>
<polygon fill="orange" stroke="orange" points="1032.58,-403.02 1022.56,-406.47 1032.55,-410.02 1032.58,-403.02"/>
</a>
</g>
<text text-anchor="start" x="1469" y="-412.5" font-family="Helvetica,sans-Serif" font-size="10.00" fill="grey">TData</text>
</g>
<!-- Node17&#45;&gt;Node4 -->
<g id="edge31_Node000004_Node000017" class="edge">
<title>Node17&#45;&gt;Node4</title>
<g id="a_edge31_Node000004_Node000017"><a xlink:title=" ">
<path fill="none" stroke="orange" stroke-dasharray="5,2" d="M1003.14,-253.37C1047.68,-241.57 1109.52,-227.13 1165,-221 1434.8,-191.19 1753.63,-214.07 1924.71,-231.04"/>
<polygon fill="orange" stroke="orange" points="1002.09,-250.02 993.34,-255.99 1003.9,-256.79 1002.09,-250.02"/>
</a>
</g>
<text text-anchor="start" x="1460" y="-212.5" font-family="Helvetica,sans-Serif" font-size="10.00" fill="grey">TProperty</text>
</g>
<!-- Node17&#45;&gt;Node15 -->
<g id="edge20_Node000015_Node000017" class="edge">
<title>Node17&#45;&gt;Node15</title>
<g id="a_edge20_Node000015_Node000017"><a xlink:title=" ">
<path fill="none" stroke="orange" stroke-dasharray="5,2" d="M1033.04,-271.18C1068.67,-271.9 1109.8,-273.54 1147,-277 1152.86,-277.55 1158.85,-278.18 1164.88,-278.89"/>
<polygon fill="orange" stroke="orange" points="1032.72,-267.68 1022.65,-270.99 1032.59,-274.67 1032.72,-267.68"/>
</a>
</g>
<text text-anchor="start" x="1076.5" y="-282.5" font-family="Helvetica,sans-Serif" font-size="10.00" fill="grey">TProperty</text>
</g>
<!-- Node17&#45;&gt;Node26 -->
<g id="edge35_Node000026_Node000017" class="edge">
<title>Node17&#45;&gt;Node26</title>
<g id="a_edge35_Node000026_Node000017"><a xlink:title=" ">
<path fill="none" stroke="orange" stroke-dasharray="5,2" d="M969.75,-291.94C991.54,-306.77 1023.08,-325.49 1054,-334 1262.33,-391.35 1324.41,-332.47 1540,-347 1671.77,-355.88 1822.08,-373.03 1924.81,-385.83"/>
<polygon fill="orange" stroke="orange" points="971.53,-288.92 961.33,-286.07 967.53,-294.66 971.53,-288.92"/>
</a>
</g>
<text text-anchor="start" x="1460" y="-352.5" font-family="Helvetica,sans-Serif" font-size="10.00" fill="grey">TProperty</text>
</g>
<!-- Node18 -->
<g id="Node000018" class="node">
<title>Node18</title>
<g id="a_Node000018"><a xlink:href="interfacefiftyone_1_1pipeline_1_1engines_1_1services_1_1_missing_property_service.html" target="_top" xlink:title="Service used by AspectEngines to report the reason for a property not being present in the results.">
<polygon fill="white" stroke="#666666" points="1754,-260 1571,-260 1571,-230 1754,-230 1754,-260"/>
<text text-anchor="start" x="1579" y="-248" font-family="Helvetica,sans-Serif" font-size="10.00">fiftyone.pipeline.engines.services.</text>
<text text-anchor="middle" x="1662.5" y="-237" font-family="Helvetica,sans-Serif" font-size="10.00">MissingPropertyService</text>
</a>
</g>
</g>
<!-- Node18&#45;&gt;Node4 -->
<g id="edge22_Node000004_Node000018" class="edge">
<title>Node18&#45;&gt;Node4</title>
<g id="a_edge22_Node000004_Node000018"><a xlink:title=" ">
<path fill="none" stroke="#9a32cd" stroke-dasharray="5,2" d="M1764.15,-245C1813.34,-245 1872.98,-245 1924.87,-245"/>
<polygon fill="#9a32cd" stroke="#9a32cd" points="1764.13,-241.5 1754.13,-245 1764.13,-248.5 1764.13,-241.5"/>
</a>
</g>
<text text-anchor="start" x="1788" y="-250.5" font-family="Helvetica,sans-Serif" font-size="10.00" fill="grey">missingPropertyService</text>
</g>
<!-- Node19 -->
<g id="Node000019" class="node">
<title>Node19</title>
<g id="a_Node000019"><a xlink:href="interfacefiftyone_1_1pipeline_1_1core_1_1services_1_1_pipeline_service.html" target="_top" xlink:title="Service interface used by PipelineBuilder to hand out services to elements which required them.">
<polygon fill="white" stroke="#666666" points="1370.5,-260 1204.5,-260 1204.5,-230 1370.5,-230 1370.5,-260"/>
<text text-anchor="start" x="1212.5" y="-248" font-family="Helvetica,sans-Serif" font-size="10.00">fiftyone.pipeline.core.services.</text>
<text text-anchor="middle" x="1287.5" y="-237" font-family="Helvetica,sans-Serif" font-size="10.00">PipelineService</text>
</a>
</g>
</g>
<!-- Node19&#45;&gt;Node18 -->
<g id="edge23_Node000018_Node000019" class="edge">
<title>Node19&#45;&gt;Node18</title>
<g id="a_edge23_Node000018_Node000019"><a xlink:title=" ">
<path fill="none" stroke="#63b8ff" d="M1381.07,-245C1439.02,-245 1513.33,-245 1570.9,-245"/>
<polygon fill="#63b8ff" stroke="#63b8ff" points="1380.82,-241.5 1370.82,-245 1380.82,-248.5 1380.82,-241.5"/>
</a>
</g>
</g>
<!-- Node20 -->
<g id="Node000020" class="node">
<title>Node20</title>
<g id="a_Node000020"><a xlink:href="interfacefiftyone_1_1pipeline_1_1engines_1_1caching_1_1_flow_cache.html" target="_top" xlink:title="Used to cache results from individual flow elements in the pipeline.">
<polygon fill="white" stroke="#666666" points="1752.5,-112 1572.5,-112 1572.5,-82 1752.5,-82 1752.5,-112"/>
<text text-anchor="start" x="1580.5" y="-100" font-family="Helvetica,sans-Serif" font-size="10.00">fiftyone.pipeline.engines.caching.</text>
<text text-anchor="middle" x="1662.5" y="-89" font-family="Helvetica,sans-Serif" font-size="10.00">FlowCache</text>
</a>
</g>
</g>
<!-- Node20&#45;&gt;Node4 -->
<g id="edge24_Node000004_Node000020" class="edge">
<title>Node20&#45;&gt;Node4</title>
<g id="a_edge24_Node000004_Node000020"><a xlink:title=" ">
<path fill="none" stroke="#9a32cd" stroke-dasharray="5,2" d="M1762.74,-97.66C1808.27,-101.03 1862,-109.47 1907,-129 1954.69,-149.7 1999.14,-191.48 2024.93,-218.84"/>
<polygon fill="#9a32cd" stroke="#9a32cd" points="1762.77,-94.15 1752.56,-96.97 1762.3,-101.13 1762.77,-94.15"/>
</a>
</g>
<text text-anchor="start" x="1832" y="-134.5" font-family="Helvetica,sans-Serif" font-size="10.00" fill="grey">cache</text>
</g>
<!-- Node21 -->
<g id="Node000021" class="node">
<title>Node21</title>
<g id="a_Node000021"><a xlink:href="interfacefiftyone_1_1pipeline_1_1engines_1_1caching_1_1_data_keyed_cache.html" target="_top" xlink:title=" ">
<polygon fill="white" stroke="#666666" points="1380.5,-88 1194.5,-88 1194.5,-58 1380.5,-58 1380.5,-88"/>
<text text-anchor="start" x="1202.5" y="-76" font-family="Helvetica,sans-Serif" font-size="10.00">fiftyone.pipeline.engines.caching.</text>
<text text-anchor="middle" x="1287.5" y="-65" font-family="Helvetica,sans-Serif" font-size="10.00">DataKeyedCache&lt; ElementData &gt;</text>
</a>
</g>
</g>
<!-- Node21&#45;&gt;Node20 -->
<g id="edge25_Node000020_Node000021" class="edge">
<title>Node21&#45;&gt;Node20</title>
<g id="a_edge25_Node000020_Node000021"><a xlink:title=" ">
<path fill="none" stroke="#63b8ff" d="M1390.79,-79.58C1447.63,-83.24 1517.69,-87.75 1572.29,-91.26"/>
<polygon fill="#63b8ff" stroke="#63b8ff" points="1390.91,-76.08 1380.7,-78.93 1390.46,-83.07 1390.91,-76.08"/>
</a>
</g>
</g>
<!-- Node22 -->
<g id="Node000022" class="node">
<title>Node22</title>
<g id="a_Node000022"><a xlink:href="interfacefiftyone_1_1pipeline_1_1engines_1_1caching_1_1_data_keyed_cache.html" target="_top" xlink:title="Represents a put cache where the key is a FlowData instance.">
<polygon fill="white" stroke="#666666" points="1030.5,-30 850.5,-30 850.5,0 1030.5,0 1030.5,-30"/>
<text text-anchor="start" x="858.5" y="-18" font-family="Helvetica,sans-Serif" font-size="10.00">fiftyone.pipeline.engines.caching.</text>
<text text-anchor="middle" x="940.5" y="-7" font-family="Helvetica,sans-Serif" font-size="10.00">DataKeyedCache&lt; V &gt;</text>
</a>
</g>
</g>
<!-- Node22&#45;&gt;Node21 -->
<g id="edge26_Node000021_Node000022" class="edge">
<title>Node22&#45;&gt;Node21</title>
<g id="a_edge26_Node000021_Node000022"><a xlink:title=" ">
<path fill="none" stroke="orange" stroke-dasharray="5,2" d="M1041,-15.6C1074.87,-17.18 1112.8,-20.48 1147,-27 1182.7,-33.81 1221.88,-47.29 1249.6,-57.91"/>
<polygon fill="orange" stroke="orange" points="1040.77,-12.09 1030.63,-15.16 1040.47,-19.08 1040.77,-12.09"/>
</a>
</g>
<text text-anchor="start" x="1057.5" y="-32.5" font-family="Helvetica,sans-Serif" font-size="10.00" fill="grey">&lt; ElementData &gt;</text>
</g>
<!-- Node23 -->
<g id="Node000023" class="node">
<title>Node23</title>
<g id="a_Node000023"><a xlink:href="interfacefiftyone_1_1caching_1_1_put_cache.html" target="_top" xlink:title="A cache that supports a thread safe put method for inserting to cache.">
<polygon fill="white" stroke="#666666" points="642,-30 499,-30 499,0 642,0 642,-30"/>
<text text-anchor="start" x="507" y="-18" font-family="Helvetica,sans-Serif" font-size="10.00">fiftyone.caching.PutCache</text>
<text text-anchor="middle" x="570.5" y="-7" font-family="Helvetica,sans-Serif" font-size="10.00">&lt; K, V &gt;</text>
</a>
</g>
</g>
<!-- Node23&#45;&gt;Node22 -->
<g id="edge27_Node000022_Node000023" class="edge">
<title>Node23&#45;&gt;Node22</title>
<g id="a_edge27_Node000022_Node000023"><a xlink:title=" ">
<path fill="none" stroke="#63b8ff" d="M652.33,-15C710.86,-15 789.96,-15 850.33,-15"/>
<polygon fill="#63b8ff" stroke="#63b8ff" points="652.02,-11.5 642.02,-15 652.02,-18.5 652.02,-11.5"/>
</a>
</g>
</g>
<!-- Node24 -->
<g id="Node000024" class="node">
<title>Node24</title>
<g id="a_Node000024"><a xlink:href="interfacefiftyone_1_1caching_1_1_cache.html" target="_top" xlink:title="Base cache interface which declares only the get method and the types of key and value stored in the ...">
<polygon fill="white" stroke="#666666" points="344,-30 217,-30 217,0 344,0 344,-30"/>
<text text-anchor="start" x="225" y="-18" font-family="Helvetica,sans-Serif" font-size="10.00">fiftyone.caching.Cache</text>
<text text-anchor="middle" x="280.5" y="-7" font-family="Helvetica,sans-Serif" font-size="10.00">&lt; K, V &gt;</text>
</a>
</g>
</g>
<!-- Node24&#45;&gt;Node23 -->
<g id="edge28_Node000023_Node000024" class="edge">
<title>Node24&#45;&gt;Node23</title>
<g id="a_edge28_Node000023_Node000024"><a xlink:title=" ">
<path fill="none" stroke="#63b8ff" d="M354.47,-15C398.79,-15 455.08,-15 498.95,-15"/>
<polygon fill="#63b8ff" stroke="#63b8ff" points="354.35,-11.5 344.35,-15 354.35,-18.5 354.35,-11.5"/>
</a>
</g>
</g>
<!-- Node25 -->
<g id="Node000025" class="node">
<title>Node25</title>
<g id="a_Node000025"><a xlink:title=" ">
<polygon fill="white" stroke="#bfbfbf" points="117.5,-24.5 52.5,-24.5 52.5,-5.5 117.5,-5.5 117.5,-24.5"/>
<text text-anchor="middle" x="85" y="-12.5" font-family="Helvetica,sans-Serif" font-size="10.00">Closeable</text>
</a>
</g>
</g>
<!-- Node25&#45;&gt;Node24 -->
<g id="edge29_Node000024_Node000025" class="edge">
<title>Node25&#45;&gt;Node24</title>
<g id="a_edge29_Node000024_Node000025"><a xlink:title=" ">
<path fill="none" stroke="#63b8ff" d="M127.76,-15C153.71,-15 187.55,-15 216.69,-15"/>
<polygon fill="#63b8ff" stroke="#63b8ff" points="127.52,-11.5 117.52,-15 127.52,-18.5 127.52,-11.5"/>
</a>
</g>
</g>
<!-- Node26&#45;&gt;Node3 -->
<g id="edge32_Node000003_Node000026" class="edge">
<title>Node26&#45;&gt;Node3</title>
<g id="a_edge32_Node000003_Node000026"><a xlink:title=" ">
<path fill="none" stroke="#63b8ff" d="M2183.34,-425.75C2197.74,-428.31 2212.3,-430.9 2226.47,-433.43"/>
<polygon fill="#63b8ff" stroke="#63b8ff" points="2183.87,-422.28 2173.41,-423.98 2182.64,-429.18 2183.87,-422.28"/>
</a>
</g>
</g>
</g>
</svg>
