<?xml version="1.0" encoding="UTF-8" standalone="no"?>
<!DOCTYPE svg PUBLIC "-//W3C//DTD SVG 1.1//EN"
 "http://www.w3.org/Graphics/SVG/1.1/DTD/svg11.dtd">
<!-- Generated by graphviz version 2.43.0 (0)
 -->
<!-- Title: fiftyone.caching.LruPutCache&lt; K, V &gt; Pages: 1 -->
<svg width="312pt" height="225pt"
 viewBox="0.00 0.00 311.50 225.00" xmlns="http://www.w3.org/2000/svg" xmlns:xlink="http://www.w3.org/1999/xlink">
<g id="graph0" class="graph" transform="scale(1 1) rotate(0) translate(4 221)">
<title>fiftyone.caching.LruPutCache&lt; K, V &gt;</title>
<!-- Node1 -->
<g id="Node000001" class="node">
<title>Node1</title>
<g id="a_Node000001"><a xlink:title="Uses the LruCacheBase to implement the PutCache interface.">
<polygon fill="#999999" stroke="#666666" points="230,-30 72,-30 72,0 230,0 230,-30"/>
<text text-anchor="start" x="80" y="-18" font-family="Helvetica,sans-Serif" font-size="10.00">fiftyone.caching.LruPutCache</text>
<text text-anchor="middle" x="151" y="-7" font-family="Helvetica,sans-Serif" font-size="10.00">&lt; K, V &gt;</text>
</a>
</g>
</g>
<!-- Node2 -->
<g id="Node000002" class="node">
<title>Node2</title>
<g id="a_Node000002"><a xlink:href="classfiftyone_1_1caching_1_1_lru_cache_base.html" target="_top" xlink:title="This is a Least Recently Used (LRU) cache with multiple linked lists in place of the usual single lin...">
<polygon fill="white" stroke="#666666" points="142,-96 0,-96 0,-66 142,-66 142,-96"/>
<text text-anchor="start" x="8" y="-84" font-family="Helvetica,sans-Serif" font-size="10.00">fiftyone.caching.LruCache</text>
<text text-anchor="middle" x="71" y="-73" font-family="Helvetica,sans-Serif" font-size="10.00">Base&lt; K, V &gt;</text>
</a>
</g>
</g>
<!-- Node2&#45;&gt;Node1 -->
<g id="edge1_Node000001_Node000002" class="edge">
<title>Node2&#45;&gt;Node1</title>
<g id="a_edge1_Node000001_Node000002"><a xlink:title=" ">
<path fill="none" stroke="#63b8ff" d="M96.65,-59.48C108.61,-49.91 122.53,-38.77 133.3,-30.16"/>
<polygon fill="#63b8ff" stroke="#63b8ff" points="94.38,-56.82 88.75,-65.8 98.75,-62.28 94.38,-56.82"/>
</a>
</g>
</g>
<!-- Node3 -->
<g id="Node000003" class="node">
<title>Node3</title>
<g id="a_Node000003"><a xlink:href="interfacefiftyone_1_1caching_1_1_cache.html" target="_top" xlink:title="Base cache interface which declares only the get method and the types of key and value stored in the ...">
<polygon fill="white" stroke="#666666" points="226.5,-162 99.5,-162 99.5,-132 226.5,-132 226.5,-162"/>
<text text-anchor="start" x="107.5" y="-150" font-family="Helvetica,sans-Serif" font-size="10.00">fiftyone.caching.Cache</text>
<text text-anchor="middle" x="163" y="-139" font-family="Helvetica,sans-Serif" font-size="10.00">&lt; K, V &gt;</text>
</a>
</g>
</g>
<!-- Node3&#45;&gt;Node2 -->
<g id="edge2_Node000002_Node000003" class="edge">
<title>Node3&#45;&gt;Node2</title>
<g id="a_edge2_Node000002_Node000003"><a xlink:title=" ">
<path fill="none" stroke="#63b8ff" d="M134.29,-126.03C120.37,-116.34 103.97,-104.94 91.36,-96.16"/>
<polygon fill="#63b8ff" stroke="#63b8ff" points="132.37,-128.96 142.58,-131.8 136.37,-123.21 132.37,-128.96"/>
</a>
</g>
</g>
<!-- Node5 -->
<g id="Node000005" class="node">
<title>Node5</title>
<g id="a_Node000005"><a xlink:href="interfacefiftyone_1_1caching_1_1_put_cache.html" target="_top" xlink:title="A cache that supports a thread safe put method for inserting to cache.">
<polygon fill="white" stroke="#666666" points="303.5,-96 160.5,-96 160.5,-66 303.5,-66 303.5,-96"/>
<text text-anchor="start" x="168.5" y="-84" font-family="Helvetica,sans-Serif" font-size="10.00">fiftyone.caching.PutCache</text>
<text text-anchor="middle" x="232" y="-73" font-family="Helvetica,sans-Serif" font-size="10.00">&lt; K, V &gt;</text>
</a>
</g>
</g>
<!-- Node3&#45;&gt;Node5 -->
<g id="edge6_Node000005_Node000003" class="edge">
<title>Node3&#45;&gt;Node5</title>
<g id="a_edge6_Node000005_Node000003"><a xlink:title=" ">
<path fill="none" stroke="#63b8ff" d="M185.72,-124.92C195.9,-115.49 207.63,-104.61 216.73,-96.16"/>
<polygon fill="#63b8ff" stroke="#63b8ff" points="183.26,-122.43 178.31,-131.8 188.03,-127.56 183.26,-122.43"/>
</a>
</g>
</g>
<!-- Node4 -->
<g id="Node000004" class="node">
<title>Node4</title>
<g id="a_Node000004"><a xlink:title=" ">
<polygon fill="white" stroke="#bfbfbf" points="149.5,-217 84.5,-217 84.5,-198 149.5,-198 149.5,-217"/>
<text text-anchor="middle" x="117" y="-205" font-family="Helvetica,sans-Serif" font-size="10.00">Closeable</text>
</a>
</g>
</g>
<!-- Node4&#45;&gt;Node2 -->
<g id="edge4_Node000002_Node000004" class="edge">
<title>Node4&#45;&gt;Node2</title>
<g id="a_edge4_Node000002_Node000004"><a xlink:title=" ">
<path fill="none" stroke="#63b8ff" d="M104.84,-189.32C99.65,-181.32 93.89,-171.49 90,-162 80.95,-139.94 75.62,-112.62 73.01,-96.29"/>
<polygon fill="#63b8ff" stroke="#63b8ff" points="102.04,-191.42 110.54,-197.74 107.83,-187.49 102.04,-191.42"/>
</a>
</g>
</g>
<!-- Node4&#45;&gt;Node3 -->
<g id="edge3_Node000003_Node000004" class="edge">
<title>Node4&#45;&gt;Node3</title>
<g id="a_edge3_Node000003_Node000004"><a xlink:title=" ">
<path fill="none" stroke="#63b8ff" d="M130.07,-189.88C136.96,-181.11 145.33,-170.48 151.9,-162.11"/>
<polygon fill="#63b8ff" stroke="#63b8ff" points="127.22,-187.84 123.79,-197.87 132.72,-192.17 127.22,-187.84"/>
</a>
</g>
</g>
<!-- Node5&#45;&gt;Node1 -->
<g id="edge5_Node000001_Node000005" class="edge">
<title>Node5&#45;&gt;Node1</title>
<g id="a_edge5_Node000001_Node000005"><a xlink:title=" ">
<path fill="none" stroke="#63b8ff" d="M206.03,-59.48C193.92,-49.91 179.82,-38.77 168.93,-30.16"/>
<polygon fill="#63b8ff" stroke="#63b8ff" points="204.01,-62.34 214.02,-65.8 208.35,-56.85 204.01,-62.34"/>
</a>
</g>
</g>
</g>
</svg>
