<?xml version="1.0" encoding="UTF-8" standalone="no"?>
<!DOCTYPE svg PUBLIC "-//W3C//DTD SVG 1.1//EN"
 "http://www.w3.org/Graphics/SVG/1.1/DTD/svg11.dtd">
<!-- Generated by graphviz version 2.43.0 (0)
 -->
<!-- Title: fiftyone.pipeline.engines.flowelements.OnPremiseAspectEngine&lt; TData extends AspectData, TProperty extends AspectPropertyMetaData &gt; Pages: 1 -->
<svg width="2880pt" height="251pt"
 viewBox="0.00 0.00 2880.00 250.50" xmlns="http://www.w3.org/2000/svg" xmlns:xlink="http://www.w3.org/1999/xlink">
<g id="graph0" class="graph" transform="scale(1 1) rotate(0) translate(4 246.5)">
<title>fiftyone.pipeline.engines.flowelements.OnPremiseAspectEngine&lt; TData extends AspectData, TProperty extends AspectPropertyMetaData &gt;</title>
<!-- Node1 -->
<g id="Node000001" class="node">
<title>Node1</title>
<g id="a_Node000001"><a xlink:title="Aspect engine interface which processes data internally using a data file and populates the results.">
<polygon fill="#999999" stroke="#666666" points="1674,-157.5 1426,-157.5 1426,-105.5 1674,-105.5 1674,-157.5"/>
<text text-anchor="start" x="1434" y="-145.5" font-family="Helvetica,sans-Serif" font-size="10.00">fiftyone.pipeline.engines.flowelements.</text>
<text text-anchor="start" x="1434" y="-134.5" font-family="Helvetica,sans-Serif" font-size="10.00">OnPremiseAspectEngine&lt; TData extends</text>
<text text-anchor="start" x="1434" y="-123.5" font-family="Helvetica,sans-Serif" font-size="10.00"> AspectData, TProperty extends AspectProperty</text>
<text text-anchor="middle" x="1550" y="-112.5" font-family="Helvetica,sans-Serif" font-size="10.00">MetaData &gt;</text>
</a>
</g>
</g>
<!-- Node11 -->
<g id="Node000011" class="node">
<title>Node11</title>
<g id="a_Node000011"><a xlink:href="interfacefiftyone_1_1pipeline_1_1engines_1_1fiftyone_1_1flowelements_1_1_fifty_one_aspect_engine.html" target="_top" xlink:title="51Degrees specific Engine interface.">
<polygon fill="white" stroke="#666666" points="2224.5,-207.5 1935.5,-207.5 1935.5,-155.5 2224.5,-155.5 2224.5,-207.5"/>
<text text-anchor="start" x="1943.5" y="-195.5" font-family="Helvetica,sans-Serif" font-size="10.00">fiftyone.pipeline.engines.fiftyone.flowelements.</text>
<text text-anchor="start" x="1943.5" y="-184.5" font-family="Helvetica,sans-Serif" font-size="10.00">FiftyOneAspectEngine&lt; TData extends</text>
<text text-anchor="start" x="1943.5" y="-173.5" font-family="Helvetica,sans-Serif" font-size="10.00"> AspectData, TProperty extends FiftyOneAspectProperty</text>
<text text-anchor="middle" x="2080" y="-162.5" font-family="Helvetica,sans-Serif" font-size="10.00">MetaData &gt;</text>
</a>
</g>
</g>
<!-- Node1&#45;&gt;Node11 -->
<g id="edge14_Node000001_Node000011" class="edge">
<title>Node1&#45;&gt;Node11</title>
<g id="a_edge14_Node000001_Node000011"><a xlink:title=" ">
<path fill="none" stroke="#63b8ff" d="M1684.21,-146.71C1686.83,-146.98 1689.43,-147.24 1692,-147.5 1772.36,-155.59 1862.22,-163.55 1935.11,-169.73"/>
<polygon fill="#63b8ff" stroke="#63b8ff" points="1684.33,-143.2 1674.02,-145.65 1683.6,-150.16 1684.33,-143.2"/>
</a>
</g>
</g>
<!-- Node12 -->
<g id="Node000012" class="node">
<title>Node12</title>
<g id="a_Node000012"><a xlink:href="interfacefiftyone_1_1pipeline_1_1engines_1_1flowelements_1_1_on_premise_aspect_engine.html" target="_top" xlink:title=" ">
<polygon fill="white" stroke="#666666" points="2184.5,-137 1975.5,-137 1975.5,-96 2184.5,-96 2184.5,-137"/>
<text text-anchor="start" x="1983.5" y="-125" font-family="Helvetica,sans-Serif" font-size="10.00">fiftyone.pipeline.engines.flowelements.</text>
<text text-anchor="start" x="1983.5" y="-114" font-family="Helvetica,sans-Serif" font-size="10.00">OnPremiseAspectEngine&lt; TData,</text>
<text text-anchor="middle" x="2080" y="-103" font-family="Helvetica,sans-Serif" font-size="10.00"> TProperty &gt;</text>
</a>
</g>
</g>
<!-- Node1&#45;&gt;Node12 -->
<g id="edge16_Node000001_Node000012" class="edge">
<title>Node1&#45;&gt;Node12</title>
<g id="a_edge16_Node000001_Node000012"><a xlink:title=" ">
<path fill="none" stroke="orange" stroke-dasharray="5,2" d="M1684.16,-127.72C1774.41,-125.15 1891.96,-121.81 1975.26,-119.45"/>
<polygon fill="orange" stroke="orange" points="1684.02,-124.22 1674.13,-128 1684.22,-131.22 1684.02,-124.22"/>
</a>
</g>
<text text-anchor="start" x="1751" y="-132" font-family="Helvetica,sans-Serif" font-size="10.00" fill="grey">&lt; TData, TProperty &gt;</text>
</g>
<!-- Node16 -->
<g id="Node000016" class="node">
<title>Node16</title>
<g id="a_Node000016"><a xlink:href="interfacefiftyone_1_1pipeline_1_1engines_1_1flowelements_1_1_on_premise_aspect_engine.html" target="_top" xlink:title=" ">
<polygon fill="white" stroke="#666666" points="2226,-63 1934,-63 1934,0 2226,0 2226,-63"/>
<text text-anchor="start" x="1942" y="-51" font-family="Helvetica,sans-Serif" font-size="10.00">fiftyone.pipeline.engines.flowelements.</text>
<text text-anchor="start" x="1942" y="-40" font-family="Helvetica,sans-Serif" font-size="10.00">OnPremiseAspectEngine&lt;? extends</text>
<text text-anchor="start" x="1942" y="-29" font-family="Helvetica,sans-Serif" font-size="10.00"> fiftyone.pipeline.engines.data.AspectData,</text>
<text text-anchor="start" x="1942" y="-18" font-family="Helvetica,sans-Serif" font-size="10.00"> ? extends fiftyone.pipeline.engines.data.AspectProperty</text>
<text text-anchor="middle" x="2080" y="-7" font-family="Helvetica,sans-Serif" font-size="10.00">MetaData &gt;</text>
</a>
</g>
</g>
<!-- Node1&#45;&gt;Node16 -->
<g id="edge20_Node000001_Node000016" class="edge">
<title>Node1&#45;&gt;Node16</title>
<g id="a_edge20_Node000001_Node000016"><a xlink:title=" ">
<path fill="none" stroke="orange" stroke-dasharray="5,2" d="M1588.04,-98.97C1614.89,-77.62 1653.15,-51.49 1692,-39.5 1769.38,-15.62 1859.65,-12.44 1933.54,-15.78"/>
<polygon fill="orange" stroke="orange" points="1585.65,-96.41 1580.09,-105.43 1590.06,-101.84 1585.65,-96.41"/>
</a>
</g>
<text text-anchor="start" x="1695" y="-105" font-family="Helvetica,sans-Serif" font-size="10.00" fill="grey">&lt;? extends fiftyone</text>
<text text-anchor="start" x="1695" y="-90" font-family="Helvetica,sans-Serif" font-size="10.00" fill="grey">  ::pipeline::engines</text>
<text text-anchor="start" x="1695" y="-75" font-family="Helvetica,sans-Serif" font-size="10.00" fill="grey">  ::data::AspectData, </text>
<text text-anchor="start" x="1695" y="-60" font-family="Helvetica,sans-Serif" font-size="10.00" fill="grey">  ? extends fiftyone::pipeline</text>
<text text-anchor="start" x="1695" y="-45" font-family="Helvetica,sans-Serif" font-size="10.00" fill="grey">  ::engines::data::AspectPropertyMetaData &gt;</text>
</g>
<!-- Node2 -->
<g id="Node000002" class="node">
<title>Node2</title>
<g id="a_Node000002"><a xlink:href="interfacefiftyone_1_1pipeline_1_1engines_1_1flowelements_1_1_aspect_engine.html" target="_top" xlink:title=" ">
<polygon fill="white" stroke="#666666" points="1389,-146.5 1180,-146.5 1180,-116.5 1389,-116.5 1389,-146.5"/>
<text text-anchor="start" x="1188" y="-134.5" font-family="Helvetica,sans-Serif" font-size="10.00">fiftyone.pipeline.engines.flowelements.</text>
<text text-anchor="middle" x="1284.5" y="-123.5" font-family="Helvetica,sans-Serif" font-size="10.00">AspectEngine&lt; TData, TProperty &gt;</text>
</a>
</g>
</g>
<!-- Node2&#45;&gt;Node1 -->
<g id="edge1_Node000001_Node000002" class="edge">
<title>Node2&#45;&gt;Node1</title>
<g id="a_edge1_Node000001_Node000002"><a xlink:title=" ">
<path fill="none" stroke="#63b8ff" d="M1399.42,-131.5C1408.11,-131.5 1416.92,-131.5 1425.67,-131.5"/>
<polygon fill="#63b8ff" stroke="#63b8ff" points="1399.26,-128 1389.26,-131.5 1399.26,-135 1399.26,-128"/>
</a>
</g>
</g>
<!-- Node3 -->
<g id="Node000003" class="node">
<title>Node3</title>
<g id="a_Node000003"><a xlink:href="interfacefiftyone_1_1pipeline_1_1engines_1_1flowelements_1_1_aspect_engine.html" target="_top" xlink:title="AspectEngines are a subset of FlowElements.">
<polygon fill="white" stroke="#666666" points="1032,-152 787,-152 787,-111 1032,-111 1032,-152"/>
<text text-anchor="start" x="795" y="-140" font-family="Helvetica,sans-Serif" font-size="10.00">fiftyone.pipeline.engines.flowelements.</text>
<text text-anchor="start" x="795" y="-129" font-family="Helvetica,sans-Serif" font-size="10.00">AspectEngine&lt; TData extends AspectData,</text>
<text text-anchor="middle" x="909.5" y="-118" font-family="Helvetica,sans-Serif" font-size="10.00"> TProperty extends AspectPropertyMetaData &gt;</text>
</a>
</g>
</g>
<!-- Node3&#45;&gt;Node2 -->
<g id="edge2_Node000002_Node000003" class="edge">
<title>Node3&#45;&gt;Node2</title>
<g id="a_edge2_Node000002_Node000003"><a xlink:title=" ">
<path fill="none" stroke="orange" stroke-dasharray="5,2" d="M1042.28,-131.5C1087.43,-131.5 1137.27,-131.5 1179.87,-131.5"/>
<polygon fill="orange" stroke="orange" points="1042.12,-128 1032.12,-131.5 1042.12,-135 1042.12,-128"/>
</a>
</g>
<text text-anchor="start" x="1053" y="-137" font-family="Helvetica,sans-Serif" font-size="10.00" fill="grey">&lt; TData, TProperty &gt;</text>
</g>
<!-- Node4 -->
<g id="Node000004" class="node">
<title>Node4</title>
<g id="a_Node000004"><a xlink:href="interfacefiftyone_1_1pipeline_1_1core_1_1flowelements_1_1_flow_element.html" target="_top" xlink:title="A component that processes a FlowData (by examining its evidence, or by examining data processed by o...">
<polygon fill="white" stroke="#666666" points="697,-152 444,-152 444,-111 697,-111 697,-152"/>
<text text-anchor="start" x="452" y="-140" font-family="Helvetica,sans-Serif" font-size="10.00">fiftyone.pipeline.core.flowelements.</text>
<text text-anchor="start" x="452" y="-129" font-family="Helvetica,sans-Serif" font-size="10.00">FlowElement&lt; TData extends ElementData,</text>
<text text-anchor="middle" x="570.5" y="-118" font-family="Helvetica,sans-Serif" font-size="10.00"> TProperty extends ElementPropertyMetaData &gt;</text>
</a>
</g>
</g>
<!-- Node4&#45;&gt;Node3 -->
<g id="edge3_Node000003_Node000004" class="edge">
<title>Node4&#45;&gt;Node3</title>
<g id="a_edge3_Node000003_Node000004"><a xlink:title=" ">
<path fill="none" stroke="#63b8ff" d="M707.47,-131.5C733.74,-131.5 761.11,-131.5 786.88,-131.5"/>
<polygon fill="#63b8ff" stroke="#63b8ff" points="707.47,-128 697.47,-131.5 707.47,-135 707.47,-128"/>
</a>
</g>
</g>
<!-- Node5 -->
<g id="Node000005" class="node">
<title>Node5</title>
<g id="a_Node000005"><a xlink:title=" ">
<polygon fill="white" stroke="#bfbfbf" points="324,-141 237,-141 237,-122 324,-122 324,-141"/>
<text text-anchor="middle" x="280.5" y="-129" font-family="Helvetica,sans-Serif" font-size="10.00">AutoCloseable</text>
</a>
</g>
</g>
<!-- Node5&#45;&gt;Node4 -->
<g id="edge4_Node000004_Node000005" class="edge">
<title>Node5&#45;&gt;Node4</title>
<g id="a_edge4_Node000004_Node000005"><a xlink:title=" ">
<path fill="none" stroke="#63b8ff" d="M334.37,-131.5C365.15,-131.5 405.37,-131.5 443.82,-131.5"/>
<polygon fill="#63b8ff" stroke="#63b8ff" points="334.31,-128 324.31,-131.5 334.31,-135 334.31,-128"/>
</a>
</g>
</g>
<!-- Node6 -->
<g id="Node000006" class="node">
<title>Node6</title>
<g id="a_Node000006"><a xlink:href="interfacefiftyone_1_1pipeline_1_1core_1_1data_1_1_element_data.html" target="_top" xlink:title="Represents property values that have be determined by a specific FlowElement based on the supplied ev...">
<polygon fill="white" stroke="#666666" points="354,-200.5 207,-200.5 207,-170.5 354,-170.5 354,-200.5"/>
<text text-anchor="start" x="215" y="-188.5" font-family="Helvetica,sans-Serif" font-size="10.00">fiftyone.pipeline.core.data.</text>
<text text-anchor="middle" x="280.5" y="-177.5" font-family="Helvetica,sans-Serif" font-size="10.00">ElementData</text>
</a>
</g>
</g>
<!-- Node6&#45;&gt;Node4 -->
<g id="edge5_Node000004_Node000006" class="edge">
<title>Node6&#45;&gt;Node4</title>
<g id="a_edge5_Node000004_Node000006"><a xlink:title=" ">
<path fill="none" stroke="orange" stroke-dasharray="5,2" d="M363.97,-169.04C366.68,-168.52 369.36,-168 372,-167.5 398.88,-162.38 427.84,-157.01 455.08,-152.03"/>
<polygon fill="orange" stroke="orange" points="363.24,-165.62 354.09,-170.96 364.58,-172.49 363.24,-165.62"/>
</a>
</g>
<text text-anchor="start" x="384" y="-173" font-family="Helvetica,sans-Serif" font-size="10.00" fill="grey">TData</text>
</g>
<!-- Node9 -->
<g id="Node000009" class="node">
<title>Node9</title>
<g id="a_Node000009"><a xlink:href="interfacefiftyone_1_1pipeline_1_1engines_1_1data_1_1_aspect_data.html" target="_top" xlink:title="Represents a specialized ElementData instance that is generated by an AspectEngine.">
<polygon fill="white" stroke="#666666" points="652.5,-211.5 488.5,-211.5 488.5,-181.5 652.5,-181.5 652.5,-211.5"/>
<text text-anchor="start" x="496.5" y="-199.5" font-family="Helvetica,sans-Serif" font-size="10.00">fiftyone.pipeline.engines.data.</text>
<text text-anchor="middle" x="570.5" y="-188.5" font-family="Helvetica,sans-Serif" font-size="10.00">AspectData</text>
</a>
</g>
</g>
<!-- Node6&#45;&gt;Node9 -->
<g id="edge9_Node000009_Node000006" class="edge">
<title>Node6&#45;&gt;Node9</title>
<g id="a_edge9_Node000009_Node000006"><a xlink:title=" ">
<path fill="none" stroke="#63b8ff" d="M364.44,-188.67C403.42,-190.16 449.73,-191.93 488.47,-193.41"/>
<polygon fill="#63b8ff" stroke="#63b8ff" points="364.3,-185.16 354.17,-188.28 364.03,-192.15 364.3,-185.16"/>
</a>
</g>
</g>
<!-- Node7 -->
<g id="Node000007" class="node">
<title>Node7</title>
<g id="a_Node000007"><a xlink:href="interfacefiftyone_1_1pipeline_1_1core_1_1data_1_1_data.html" target="_top" xlink:title="Represents a collection of property values.">
<polygon fill="white" stroke="#666666" points="170,-195 0,-195 0,-176 170,-176 170,-195"/>
<text text-anchor="middle" x="85" y="-183" font-family="Helvetica,sans-Serif" font-size="10.00">fiftyone.pipeline.core.data.Data</text>
</a>
</g>
</g>
<!-- Node7&#45;&gt;Node6 -->
<g id="edge6_Node000006_Node000007" class="edge">
<title>Node7&#45;&gt;Node6</title>
<g id="a_edge6_Node000006_Node000007"><a xlink:title=" ">
<path fill="none" stroke="#63b8ff" d="M180.11,-185.5C189.07,-185.5 198.06,-185.5 206.77,-185.5"/>
<polygon fill="#63b8ff" stroke="#63b8ff" points="180.03,-182 170.03,-185.5 180.03,-189 180.03,-182"/>
</a>
</g>
</g>
<!-- Node8 -->
<g id="Node000008" class="node">
<title>Node8</title>
<g id="a_Node000008"><a xlink:href="interfacefiftyone_1_1pipeline_1_1core_1_1data_1_1_element_property_meta_data.html" target="_top" xlink:title="Defines details of a property that can be returned by a FlowElement.">
<polygon fill="white" stroke="#666666" points="354,-92.5 207,-92.5 207,-62.5 354,-62.5 354,-92.5"/>
<text text-anchor="start" x="215" y="-80.5" font-family="Helvetica,sans-Serif" font-size="10.00">fiftyone.pipeline.core.data.</text>
<text text-anchor="middle" x="280.5" y="-69.5" font-family="Helvetica,sans-Serif" font-size="10.00">ElementPropertyMetaData</text>
</a>
</g>
</g>
<!-- Node8&#45;&gt;Node4 -->
<g id="edge7_Node000004_Node000008" class="edge">
<title>Node8&#45;&gt;Node4</title>
<g id="a_edge7_Node000004_Node000008"><a xlink:title=" ">
<path fill="none" stroke="orange" stroke-dasharray="5,2" d="M364.13,-92.99C394.02,-98.6 428.24,-105.01 460.07,-110.98"/>
<polygon fill="orange" stroke="orange" points="364.65,-89.53 354.17,-91.13 363.36,-96.41 364.65,-89.53"/>
</a>
</g>
<text text-anchor="start" x="375" y="-110" font-family="Helvetica,sans-Serif" font-size="10.00" fill="grey">TProperty</text>
</g>
<!-- Node10 -->
<g id="Node000010" class="node">
<title>Node10</title>
<g id="a_Node000010"><a xlink:href="interfacefiftyone_1_1pipeline_1_1engines_1_1data_1_1_aspect_property_meta_data.html" target="_top" xlink:title="Holds details about a property that can be returned by an AspectEngine.">
<polygon fill="white" stroke="#666666" points="652.5,-81.5 488.5,-81.5 488.5,-51.5 652.5,-51.5 652.5,-81.5"/>
<text text-anchor="start" x="496.5" y="-69.5" font-family="Helvetica,sans-Serif" font-size="10.00">fiftyone.pipeline.engines.data.</text>
<text text-anchor="middle" x="570.5" y="-58.5" font-family="Helvetica,sans-Serif" font-size="10.00">AspectPropertyMetaData</text>
</a>
</g>
</g>
<!-- Node8&#45;&gt;Node10 -->
<g id="edge11_Node000010_Node000008" class="edge">
<title>Node8&#45;&gt;Node10</title>
<g id="a_edge11_Node000010_Node000008"><a xlink:title=" ">
<path fill="none" stroke="#63b8ff" d="M364.44,-74.33C403.42,-72.84 449.73,-71.07 488.47,-69.59"/>
<polygon fill="#63b8ff" stroke="#63b8ff" points="364.03,-70.85 354.17,-74.72 364.3,-77.84 364.03,-70.85"/>
</a>
</g>
</g>
<!-- Node9&#45;&gt;Node1 -->
<g id="edge12_Node000001_Node000009" class="edge">
<title>Node9&#45;&gt;Node1</title>
<g id="a_edge12_Node000001_Node000009"><a xlink:title=" ">
<path fill="none" stroke="orange" stroke-dasharray="5,2" d="M662.8,-194.86C814.1,-191.49 1126.2,-181.74 1389,-155.5 1401.02,-154.3 1413.51,-152.83 1425.99,-151.2"/>
<polygon fill="orange" stroke="orange" points="662.55,-191.37 652.63,-195.08 662.71,-198.36 662.55,-191.37"/>
</a>
</g>
<text text-anchor="start" x="1091" y="-185" font-family="Helvetica,sans-Serif" font-size="10.00" fill="grey">TData</text>
</g>
<!-- Node9&#45;&gt;Node3 -->
<g id="edge8_Node000003_Node000009" class="edge">
<title>Node9&#45;&gt;Node3</title>
<g id="a_edge8_Node000003_Node000009"><a xlink:title=" ">
<path fill="none" stroke="orange" stroke-dasharray="5,2" d="M648.59,-179.27C670.06,-174.63 693.41,-169.73 715,-165.5 738.35,-160.93 763.34,-156.32 787.34,-152.04"/>
<polygon fill="orange" stroke="orange" points="647.58,-175.91 638.55,-181.45 649.07,-182.75 647.58,-175.91"/>
</a>
</g>
<text text-anchor="start" x="727" y="-171" font-family="Helvetica,sans-Serif" font-size="10.00" fill="grey">TData</text>
</g>
<!-- Node10&#45;&gt;Node1 -->
<g id="edge13_Node000001_Node000010" class="edge">
<title>Node10&#45;&gt;Node1</title>
<g id="a_edge13_Node000001_Node000010"><a xlink:title=" ">
<path fill="none" stroke="orange" stroke-dasharray="5,2" d="M662.8,-68.14C814.1,-71.51 1126.2,-81.26 1389,-107.5 1401.02,-108.7 1413.51,-110.17 1425.99,-111.8"/>
<polygon fill="orange" stroke="orange" points="662.71,-64.64 652.63,-67.92 662.55,-71.63 662.71,-64.64"/>
</a>
</g>
<text text-anchor="start" x="1082" y="-95" font-family="Helvetica,sans-Serif" font-size="10.00" fill="grey">TProperty</text>
</g>
<!-- Node10&#45;&gt;Node3 -->
<g id="edge10_Node000003_Node000010" class="edge">
<title>Node10&#45;&gt;Node3</title>
<g id="a_edge10_Node000003_Node000010"><a xlink:title=" ">
<path fill="none" stroke="orange" stroke-dasharray="5,2" d="M659.67,-83.51C703.26,-91.91 756.21,-102.13 802.04,-110.97"/>
<polygon fill="orange" stroke="orange" points="660.14,-80.03 649.66,-81.58 658.82,-86.91 660.14,-80.03"/>
</a>
</g>
<text text-anchor="start" x="718" y="-109" font-family="Helvetica,sans-Serif" font-size="10.00" fill="grey">TProperty</text>
</g>
<!-- Node11&#45;&gt;Node11 -->
<g id="edge15_Node000011_Node000011" class="edge">
<title>Node11&#45;&gt;Node11</title>
<g id="a_edge15_Node000011_Node000011"><a xlink:title=" ">
<path fill="none" stroke="orange" stroke-dasharray="5,2" d="M2052.59,-217.26C2057.11,-222.2 2066.25,-225.5 2080,-225.5 2101.46,-225.5 2111.69,-217.46 2110.68,-207.7"/>
<polygon fill="orange" stroke="orange" points="2055.86,-216.03 2049.32,-207.7 2049.24,-218.29 2055.86,-216.03"/>
</a>
</g>
<text text-anchor="start" x="2027" y="-231" font-family="Helvetica,sans-Serif" font-size="10.00" fill="grey">&lt; TData, TProperty &gt;</text>
</g>
<!-- Node13 -->
<g id="Node000013" class="node">
<title>Node13</title>
<g id="a_Node000013"><a xlink:href="classfiftyone_1_1pipeline_1_1engines_1_1flowelements_1_1_on_premise_aspect_engine_base.html" target="_top" xlink:title="Base class for on&#45;premise aspect engines.">
<polygon fill="white" stroke="#666666" points="2476,-142.5 2263,-142.5 2263,-90.5 2476,-90.5 2476,-142.5"/>
<text text-anchor="start" x="2271" y="-130.5" font-family="Helvetica,sans-Serif" font-size="10.00">fiftyone.pipeline.engines.flowelements.</text>
<text text-anchor="start" x="2271" y="-119.5" font-family="Helvetica,sans-Serif" font-size="10.00">OnPremiseAspectEngineBase&lt; TData</text>
<text text-anchor="start" x="2271" y="-108.5" font-family="Helvetica,sans-Serif" font-size="10.00"> extends AspectData, TProperty extends</text>
<text text-anchor="middle" x="2369.5" y="-97.5" font-family="Helvetica,sans-Serif" font-size="10.00"> AspectPropertyMetaData &gt;</text>
</a>
</g>
</g>
<!-- Node12&#45;&gt;Node13 -->
<g id="edge17_Node000012_Node000013" class="edge">
<title>Node12&#45;&gt;Node13</title>
<g id="a_edge17_Node000012_Node000013"><a xlink:title=" ">
<path fill="none" stroke="#63b8ff" d="M2195.01,-116.5C2217.41,-116.5 2240.82,-116.5 2262.93,-116.5"/>
<polygon fill="#63b8ff" stroke="#63b8ff" points="2194.79,-113 2184.79,-116.5 2194.79,-120 2194.79,-113"/>
</a>
</g>
</g>
<!-- Node14 -->
<g id="Node000014" class="node">
<title>Node14</title>
<g id="a_Node000014"><a xlink:href="classfiftyone_1_1pipeline_1_1engines_1_1fiftyone_1_1flowelements_1_1_fifty_one_on_premise_aspect_engine_base.html" target="_top" xlink:title="51Degrees specific engine base class.">
<polygon fill="white" stroke="#666666" points="2872,-175.5 2624,-175.5 2624,-123.5 2872,-123.5 2872,-175.5"/>
<text text-anchor="start" x="2632" y="-163.5" font-family="Helvetica,sans-Serif" font-size="10.00">fiftyone.pipeline.engines.fiftyone.flowelements.</text>
<text text-anchor="start" x="2632" y="-152.5" font-family="Helvetica,sans-Serif" font-size="10.00">FiftyOneOnPremiseAspectEngineBase</text>
<text text-anchor="start" x="2632" y="-141.5" font-family="Helvetica,sans-Serif" font-size="10.00">&lt; TData extends AspectData, TProperty</text>
<text text-anchor="middle" x="2748" y="-130.5" font-family="Helvetica,sans-Serif" font-size="10.00"> extends FiftyOneAspectPropertyMetaData &gt;</text>
</a>
</g>
</g>
<!-- Node13&#45;&gt;Node14 -->
<g id="edge18_Node000013_Node000014" class="edge">
<title>Node13&#45;&gt;Node14</title>
<g id="a_edge18_Node000013_Node000014"><a xlink:title=" ">
<path fill="none" stroke="#63b8ff" d="M2486.2,-126.64C2529.81,-130.46 2579.54,-134.82 2623.81,-138.7"/>
<polygon fill="#63b8ff" stroke="#63b8ff" points="2486.39,-123.14 2476.13,-125.76 2485.78,-130.12 2486.39,-123.14"/>
</a>
</g>
</g>
<!-- Node15 -->
<g id="Node000015" class="node">
<title>Node15</title>
<g id="a_Node000015"><a xlink:href="classfiftyone_1_1pipeline_1_1engines_1_1flowelements_1_1_on_premise_aspect_engine_base.html" target="_top" xlink:title=" ">
<polygon fill="white" stroke="#666666" points="2852.5,-105 2643.5,-105 2643.5,-64 2852.5,-64 2852.5,-105"/>
<text text-anchor="start" x="2651.5" y="-93" font-family="Helvetica,sans-Serif" font-size="10.00">fiftyone.pipeline.engines.flowelements.</text>
<text text-anchor="start" x="2651.5" y="-82" font-family="Helvetica,sans-Serif" font-size="10.00">OnPremiseAspectEngineBase&lt; TData,</text>
<text text-anchor="middle" x="2748" y="-71" font-family="Helvetica,sans-Serif" font-size="10.00"> TProperty &gt;</text>
</a>
</g>
</g>
<!-- Node13&#45;&gt;Node15 -->
<g id="edge19_Node000013_Node000015" class="edge">
<title>Node13&#45;&gt;Node15</title>
<g id="a_edge19_Node000013_Node000015"><a xlink:title=" ">
<path fill="none" stroke="orange" stroke-dasharray="5,2" d="M2486.37,-106.65C2536.51,-102.39 2594.73,-97.44 2643.41,-93.3"/>
<polygon fill="orange" stroke="orange" points="2485.8,-103.19 2476.13,-107.52 2486.39,-110.16 2485.8,-103.19"/>
</a>
</g>
<text text-anchor="start" x="2497" y="-111" font-family="Helvetica,sans-Serif" font-size="10.00" fill="grey">&lt; TData, TProperty &gt;</text>
</g>
</g>
</svg>
