<?xml version="1.0" encoding="UTF-8" standalone="no"?>
<!DOCTYPE svg PUBLIC "-//W3C//DTD SVG 1.1//EN"
 "http://www.w3.org/Graphics/SVG/1.1/DTD/svg11.dtd">
<!-- Generated by graphviz version 2.43.0 (0)
 -->
<!-- Title: fiftyone.pipeline.engines.fiftyone.data.CloseableIterable&lt; T &gt; Pages: 1 -->
<svg width="815pt" height="86pt"
 viewBox="0.00 0.00 815.00 86.00" xmlns="http://www.w3.org/2000/svg" xmlns:xlink="http://www.w3.org/1999/xlink">
<g id="graph0" class="graph" transform="scale(1 1) rotate(0) translate(4 82)">
<title>fiftyone.pipeline.engines.fiftyone.data.CloseableIterable&lt; T &gt;</title>
<!-- Node1 -->
<g id="Node000001" class="node">
<title>Node1</title>
<g id="a_Node000001"><a xlink:title="An iterable class which also implements auto&#45;closable.">
<polygon fill="#999999" stroke="#666666" points="327,-54 123,-54 123,-24 327,-24 327,-54"/>
<text text-anchor="start" x="131" y="-42" font-family="Helvetica,sans-Serif" font-size="10.00">fiftyone.pipeline.engines.fiftyone.data.</text>
<text text-anchor="middle" x="225" y="-31" font-family="Helvetica,sans-Serif" font-size="10.00">CloseableIterable&lt; T &gt;</text>
</a>
</g>
</g>
<!-- Node4 -->
<g id="Node000004" class="node">
<title>Node4</title>
<g id="a_Node000004"><a xlink:href="classfiftyone_1_1pipeline_1_1engines_1_1fiftyone_1_1data_1_1_closeable_iterable_default.html" target="_top" xlink:title="Default implementation of CloseableIterable.">
<polygon fill="white" stroke="#666666" points="567,-78 363,-78 363,-48 567,-48 567,-78"/>
<text text-anchor="start" x="371" y="-66" font-family="Helvetica,sans-Serif" font-size="10.00">fiftyone.pipeline.engines.fiftyone.data.</text>
<text text-anchor="middle" x="465" y="-55" font-family="Helvetica,sans-Serif" font-size="10.00">CloseableIterableDefault&lt; T &gt;</text>
</a>
</g>
</g>
<!-- Node1&#45;&gt;Node4 -->
<g id="edge3_Node000001_Node000004" class="edge">
<title>Node1&#45;&gt;Node4</title>
<g id="a_edge3_Node000001_Node000004"><a xlink:title=" ">
<path fill="none" stroke="#63b8ff" d="M337.25,-50.22C345.78,-51.08 354.36,-51.94 362.81,-52.8"/>
<polygon fill="#63b8ff" stroke="#63b8ff" points="337.58,-46.73 327.28,-49.21 336.88,-53.7 337.58,-46.73"/>
</a>
</g>
</g>
<!-- Node5 -->
<g id="Node000005" class="node">
<title>Node5</title>
<g id="a_Node000005"><a xlink:href="classfiftyone_1_1pipeline_1_1engines_1_1fiftyone_1_1data_1_1_collection_iterable_base.html" target="_top" xlink:title=" ">
<polygon fill="white" stroke="#bfbfbf" points="567,-30 363,-30 363,0 567,0 567,-30"/>
<text text-anchor="start" x="371" y="-18" font-family="Helvetica,sans-Serif" font-size="10.00">fiftyone.pipeline.engines.fiftyone.data.</text>
<text text-anchor="middle" x="465" y="-7" font-family="Helvetica,sans-Serif" font-size="10.00">CollectionIterableBase&lt; T &gt;</text>
</a>
</g>
</g>
<!-- Node1&#45;&gt;Node5 -->
<g id="edge4_Node000001_Node000005" class="edge">
<title>Node1&#45;&gt;Node5</title>
<g id="a_edge4_Node000001_Node000005"><a xlink:title=" ">
<path fill="none" stroke="#63b8ff" d="M337.25,-27.78C345.78,-26.92 354.36,-26.06 362.81,-25.2"/>
<polygon fill="#63b8ff" stroke="#63b8ff" points="336.88,-24.3 327.28,-28.79 337.58,-31.27 336.88,-24.3"/>
</a>
</g>
</g>
<!-- Node2 -->
<g id="Node000002" class="node">
<title>Node2</title>
<g id="a_Node000002"><a xlink:title=" ">
<polygon fill="white" stroke="#bfbfbf" points="85,-67.5 2,-67.5 2,-48.5 85,-48.5 85,-67.5"/>
<text text-anchor="middle" x="43.5" y="-55.5" font-family="Helvetica,sans-Serif" font-size="10.00">Iterable&lt; T &gt;</text>
</a>
</g>
</g>
<!-- Node2&#45;&gt;Node1 -->
<g id="edge1_Node000001_Node000002" class="edge">
<title>Node2&#45;&gt;Node1</title>
<g id="a_edge1_Node000001_Node000002"><a xlink:title=" ">
<path fill="none" stroke="#63b8ff" d="M95.45,-52.61C104.09,-51.69 113.33,-50.71 122.74,-49.72"/>
<polygon fill="#63b8ff" stroke="#63b8ff" points="94.81,-49.16 85.23,-53.69 95.54,-56.12 94.81,-49.16"/>
</a>
</g>
</g>
<!-- Node3 -->
<g id="Node000003" class="node">
<title>Node3</title>
<g id="a_Node000003"><a xlink:title=" ">
<polygon fill="white" stroke="#bfbfbf" points="87,-30.5 0,-30.5 0,-11.5 87,-11.5 87,-30.5"/>
<text text-anchor="middle" x="43.5" y="-18.5" font-family="Helvetica,sans-Serif" font-size="10.00">AutoCloseable</text>
</a>
</g>
</g>
<!-- Node3&#45;&gt;Node1 -->
<g id="edge2_Node000001_Node000003" class="edge">
<title>Node3&#45;&gt;Node1</title>
<g id="a_edge2_Node000001_Node000003"><a xlink:title=" ">
<path fill="none" stroke="#63b8ff" d="M97.15,-26.28C105.36,-27.1 114.08,-27.98 122.95,-28.87"/>
<polygon fill="#63b8ff" stroke="#63b8ff" points="97.34,-22.78 87.04,-25.27 96.64,-29.75 97.34,-22.78"/>
</a>
</g>
</g>
<!-- Node6 -->
<g id="Node000006" class="node">
<title>Node6</title>
<g id="a_Node000006"><a xlink:href="classfiftyone_1_1pipeline_1_1engines_1_1fiftyone_1_1data_1_1_collection_iterable_cached_base.html" target="_top" xlink:title=" ">
<polygon fill="white" stroke="#bfbfbf" points="807,-30 603,-30 603,0 807,0 807,-30"/>
<text text-anchor="start" x="611" y="-18" font-family="Helvetica,sans-Serif" font-size="10.00">fiftyone.pipeline.engines.fiftyone.data.</text>
<text text-anchor="middle" x="705" y="-7" font-family="Helvetica,sans-Serif" font-size="10.00">CollectionIterableCachedBase&lt; T &gt;</text>
</a>
</g>
</g>
<!-- Node5&#45;&gt;Node6 -->
<g id="edge5_Node000005_Node000006" class="edge">
<title>Node5&#45;&gt;Node6</title>
<g id="a_edge5_Node000005_Node000006"><a xlink:title=" ">
<path fill="none" stroke="#63b8ff" d="M577.53,-15C585.96,-15 594.45,-15 602.81,-15"/>
<polygon fill="#63b8ff" stroke="#63b8ff" points="577.28,-11.5 567.28,-15 577.28,-18.5 577.28,-11.5"/>
</a>
</g>
</g>
</g>
</svg>
