<?xml version="1.0" encoding="UTF-8" standalone="no"?>
<!DOCTYPE svg PUBLIC "-//W3C//DTD SVG 1.1//EN"
 "http://www.w3.org/Graphics/SVG/1.1/DTD/svg11.dtd">
<!-- Generated by graphviz version 2.43.0 (0)
 -->
<!-- Title: fiftyone.caching.CacheBuilder Pages: 1 -->
<svg width="542pt" height="86pt"
 viewBox="0.00 0.00 542.00 86.00" xmlns="http://www.w3.org/2000/svg" xmlns:xlink="http://www.w3.org/1999/xlink">
<g id="graph0" class="graph" transform="scale(1 1) rotate(0) translate(4 82)">
<title>fiftyone.caching.CacheBuilder</title>
<!-- Node1 -->
<g id="Node000001" class="node">
<title>Node1</title>
<g id="a_Node000001"><a xlink:title="Builder interface used to build caches.">
<polygon fill="#999999" stroke="#666666" points="161,-48.5 0,-48.5 0,-29.5 161,-29.5 161,-48.5"/>
<text text-anchor="middle" x="80.5" y="-36.5" font-family="Helvetica,sans-Serif" font-size="10.00">fiftyone.caching.CacheBuilder</text>
</a>
</g>
</g>
<!-- Node2 -->
<g id="Node000002" class="node">
<title>Node2</title>
<g id="a_Node000002"><a xlink:href="interfacefiftyone_1_1caching_1_1_loading_cache_builder.html" target="_top" xlink:title="Provides a method to build caches that implement LoadingCache.">
<polygon fill="white" stroke="#666666" points="336,-78 201,-78 201,-48 336,-48 336,-78"/>
<text text-anchor="start" x="209" y="-66" font-family="Helvetica,sans-Serif" font-size="10.00">fiftyone.caching.Loading</text>
<text text-anchor="middle" x="268.5" y="-55" font-family="Helvetica,sans-Serif" font-size="10.00">CacheBuilder</text>
</a>
</g>
</g>
<!-- Node1&#45;&gt;Node2 -->
<g id="edge1_Node000001_Node000002" class="edge">
<title>Node1&#45;&gt;Node2</title>
<g id="a_edge1_Node000001_Node000002"><a xlink:title=" ">
<path fill="none" stroke="#63b8ff" d="M165.21,-49.8C177.12,-51.34 189.23,-52.9 200.75,-54.39"/>
<polygon fill="#63b8ff" stroke="#63b8ff" points="165.64,-46.33 155.28,-48.52 164.75,-53.27 165.64,-46.33"/>
</a>
</g>
</g>
<!-- Node4 -->
<g id="Node000004" class="node">
<title>Node4</title>
<g id="a_Node000004"><a xlink:href="interfacefiftyone_1_1caching_1_1_put_cache_builder.html" target="_top" xlink:title=" ">
<polygon fill="white" stroke="#bfbfbf" points="340,-30 197,-30 197,0 340,0 340,-30"/>
<text text-anchor="start" x="205" y="-18" font-family="Helvetica,sans-Serif" font-size="10.00">fiftyone.caching.PutCache</text>
<text text-anchor="middle" x="268.5" y="-7" font-family="Helvetica,sans-Serif" font-size="10.00">Builder</text>
</a>
</g>
</g>
<!-- Node1&#45;&gt;Node4 -->
<g id="edge3_Node000001_Node000004" class="edge">
<title>Node1&#45;&gt;Node4</title>
<g id="a_edge3_Node000001_Node000004"><a xlink:title=" ">
<path fill="none" stroke="#63b8ff" d="M165.31,-28.19C175.85,-26.83 186.54,-25.45 196.84,-24.12"/>
<polygon fill="#63b8ff" stroke="#63b8ff" points="164.75,-24.73 155.28,-29.48 165.64,-31.67 164.75,-24.73"/>
</a>
</g>
</g>
<!-- Node3 -->
<g id="Node000003" class="node">
<title>Node3</title>
<g id="a_Node000003"><a xlink:href="classfiftyone_1_1caching_1_1_lru_loading_cache_1_1_builder.html" target="_top" xlink:title="Implementation of CacheBuilder for LruLoadingCache caches.">
<polygon fill="white" stroke="#666666" points="530,-78 380,-78 380,-48 530,-48 530,-78"/>
<text text-anchor="start" x="388" y="-66" font-family="Helvetica,sans-Serif" font-size="10.00">fiftyone.caching.LruLoading</text>
<text text-anchor="middle" x="455" y="-55" font-family="Helvetica,sans-Serif" font-size="10.00">Cache&lt; K, V &gt;.Builder</text>
</a>
</g>
</g>
<!-- Node2&#45;&gt;Node3 -->
<g id="edge2_Node000002_Node000003" class="edge">
<title>Node2&#45;&gt;Node3</title>
<g id="a_edge2_Node000002_Node000003"><a xlink:title=" ">
<path fill="none" stroke="#63b8ff" d="M346.25,-63C357.41,-63 368.88,-63 379.99,-63"/>
<polygon fill="#63b8ff" stroke="#63b8ff" points="346.11,-59.5 336.11,-63 346.11,-66.5 346.11,-59.5"/>
</a>
</g>
</g>
<!-- Node5 -->
<g id="Node000005" class="node">
<title>Node5</title>
<g id="a_Node000005"><a xlink:href="classfiftyone_1_1caching_1_1_lru_put_cache_1_1_builder.html" target="_top" xlink:title="Implementation of CacheBuilder for LruPutCache caches.">
<polygon fill="white" stroke="#666666" points="534,-30 376,-30 376,0 534,0 534,-30"/>
<text text-anchor="start" x="384" y="-18" font-family="Helvetica,sans-Serif" font-size="10.00">fiftyone.caching.LruPutCache</text>
<text text-anchor="middle" x="455" y="-7" font-family="Helvetica,sans-Serif" font-size="10.00">&lt; K, V &gt;.Builder</text>
</a>
</g>
</g>
<!-- Node4&#45;&gt;Node5 -->
<g id="edge4_Node000004_Node000005" class="edge">
<title>Node4&#45;&gt;Node5</title>
<g id="a_edge4_Node000004_Node000005"><a xlink:title=" ">
<path fill="none" stroke="#63b8ff" d="M350.29,-15C358.76,-15 367.37,-15 375.81,-15"/>
<polygon fill="#63b8ff" stroke="#63b8ff" points="350.04,-11.5 340.04,-15 350.04,-18.5 350.04,-11.5"/>
</a>
</g>
</g>
</g>
</svg>
