<?xml version="1.0" encoding="UTF-8" standalone="no"?>
<!DOCTYPE svg PUBLIC "-//W3C//DTD SVG 1.1//EN"
 "http://www.w3.org/Graphics/SVG/1.1/DTD/svg11.dtd">
<!-- Generated by graphviz version 2.43.0 (0)
 -->
<!-- Title: fiftyone.pipeline.engines.data.AspectPropertyMetaData Pages: 1 -->
<svg width="846pt" height="86pt"
 viewBox="0.00 0.00 846.00 86.00" xmlns="http://www.w3.org/2000/svg" xmlns:xlink="http://www.w3.org/1999/xlink">
<g id="graph0" class="graph" transform="scale(1 1) rotate(0) translate(4 82)">
<title>fiftyone.pipeline.engines.data.AspectPropertyMetaData</title>
<!-- Node1 -->
<g id="Node000001" class="node">
<title>Node1</title>
<g id="a_Node000001"><a xlink:title="Holds details about a property that can be returned by an AspectEngine.">
<polygon fill="#999999" stroke="#666666" points="347,-54 183,-54 183,-24 347,-24 347,-54"/>
<text text-anchor="start" x="191" y="-42" font-family="Helvetica,sans-Serif" font-size="10.00">fiftyone.pipeline.engines.data.</text>
<text text-anchor="middle" x="265" y="-31" font-family="Helvetica,sans-Serif" font-size="10.00">AspectPropertyMetaData</text>
</a>
</g>
</g>
<!-- Node3 -->
<g id="Node000003" class="node">
<title>Node3</title>
<g id="a_Node000003"><a xlink:href="classfiftyone_1_1pipeline_1_1engines_1_1data_1_1_aspect_property_meta_data_default.html" target="_top" xlink:title="Basic implementation of the AspectPropertyMetaData interface.">
<polygon fill="white" stroke="#666666" points="572.5,-78 397.5,-78 397.5,-48 572.5,-48 572.5,-78"/>
<text text-anchor="start" x="405.5" y="-66" font-family="Helvetica,sans-Serif" font-size="10.00">fiftyone.pipeline.engines.data.</text>
<text text-anchor="middle" x="485" y="-55" font-family="Helvetica,sans-Serif" font-size="10.00">AspectPropertyMetaDataDefault</text>
</a>
</g>
</g>
<!-- Node1&#45;&gt;Node3 -->
<g id="edge2_Node000001_Node000003" class="edge">
<title>Node1&#45;&gt;Node3</title>
<g id="a_edge2_Node000001_Node000003"><a xlink:title=" ">
<path fill="none" stroke="#63b8ff" d="M357.23,-49.04C370.49,-50.5 384.11,-52 397.28,-53.45"/>
<polygon fill="#63b8ff" stroke="#63b8ff" points="357.5,-45.55 347.18,-47.94 356.73,-52.51 357.5,-45.55"/>
</a>
</g>
</g>
<!-- Node5 -->
<g id="Node000005" class="node">
<title>Node5</title>
<g id="a_Node000005"><a xlink:href="interfacefiftyone_1_1pipeline_1_1engines_1_1fiftyone_1_1data_1_1_fifty_one_aspect_property_meta_data.html" target="_top" xlink:title="51Degrees specific meta data.">
<polygon fill="white" stroke="#666666" points="587,-30 383,-30 383,0 587,0 587,-30"/>
<text text-anchor="start" x="391" y="-18" font-family="Helvetica,sans-Serif" font-size="10.00">fiftyone.pipeline.engines.fiftyone.data.</text>
<text text-anchor="middle" x="485" y="-7" font-family="Helvetica,sans-Serif" font-size="10.00">FiftyOneAspectPropertyMetaData</text>
</a>
</g>
</g>
<!-- Node1&#45;&gt;Node5 -->
<g id="edge4_Node000001_Node000005" class="edge">
<title>Node1&#45;&gt;Node5</title>
<g id="a_edge4_Node000001_Node000005"><a xlink:title=" ">
<path fill="none" stroke="#63b8ff" d="M357.35,-28.94C365.77,-28.02 374.32,-27.07 382.82,-26.14"/>
<polygon fill="#63b8ff" stroke="#63b8ff" points="356.73,-25.49 347.18,-30.06 357.5,-32.45 356.73,-25.49"/>
</a>
</g>
</g>
<!-- Node2 -->
<g id="Node000002" class="node">
<title>Node2</title>
<g id="a_Node000002"><a xlink:href="interfacefiftyone_1_1pipeline_1_1core_1_1data_1_1_element_property_meta_data.html" target="_top" xlink:title="Defines details of a property that can be returned by a FlowElement.">
<polygon fill="white" stroke="#666666" points="147,-54 0,-54 0,-24 147,-24 147,-54"/>
<text text-anchor="start" x="8" y="-42" font-family="Helvetica,sans-Serif" font-size="10.00">fiftyone.pipeline.core.data.</text>
<text text-anchor="middle" x="73.5" y="-31" font-family="Helvetica,sans-Serif" font-size="10.00">ElementPropertyMetaData</text>
</a>
</g>
</g>
<!-- Node2&#45;&gt;Node1 -->
<g id="edge1_Node000001_Node000002" class="edge">
<title>Node2&#45;&gt;Node1</title>
<g id="a_edge1_Node000001_Node000002"><a xlink:title=" ">
<path fill="none" stroke="#63b8ff" d="M157.46,-39C165.92,-39 174.51,-39 182.95,-39"/>
<polygon fill="#63b8ff" stroke="#63b8ff" points="157.22,-35.5 147.22,-39 157.22,-42.5 157.22,-35.5"/>
</a>
</g>
</g>
<!-- Node4 -->
<g id="Node000004" class="node">
<title>Node4</title>
<g id="a_Node000004"><a xlink:href="classfiftyone_1_1pipeline_1_1engines_1_1fiftyone_1_1data_1_1_fifty_one_aspect_property_meta_data_default.html" target="_top" xlink:title=" ">
<polygon fill="white" stroke="#bfbfbf" points="838,-54 623,-54 623,-24 838,-24 838,-54"/>
<text text-anchor="start" x="631" y="-42" font-family="Helvetica,sans-Serif" font-size="10.00">fiftyone.pipeline.engines.fiftyone.data.</text>
<text text-anchor="middle" x="730.5" y="-31" font-family="Helvetica,sans-Serif" font-size="10.00">FiftyOneAspectPropertyMetaDataDefault</text>
</a>
</g>
</g>
<!-- Node3&#45;&gt;Node4 -->
<g id="edge3_Node000003_Node000004" class="edge">
<title>Node3&#45;&gt;Node4</title>
<g id="a_edge3_Node000003_Node000004"><a xlink:title=" ">
<path fill="none" stroke="#63b8ff" d="M582.55,-53.48C595.77,-52.18 609.4,-50.84 622.78,-49.52"/>
<polygon fill="#63b8ff" stroke="#63b8ff" points="582.14,-50.01 572.53,-54.47 582.83,-56.97 582.14,-50.01"/>
</a>
</g>
</g>
<!-- Node5&#45;&gt;Node4 -->
<g id="edge5_Node000005_Node000004" class="edge">
<title>Node5&#45;&gt;Node4</title>
<g id="a_edge5_Node000005_Node000004"><a xlink:title=" ">
<path fill="none" stroke="#63b8ff" d="M597.13,-25.95C605.66,-26.79 614.26,-27.64 622.77,-28.48"/>
<polygon fill="#63b8ff" stroke="#63b8ff" points="597.45,-22.47 587.15,-24.97 596.76,-29.43 597.45,-22.47"/>
</a>
</g>
</g>
</g>
</svg>
