<?xml version="1.0" encoding="UTF-8" standalone="no"?>
<!DOCTYPE svg PUBLIC "-//W3C//DTD SVG 1.1//EN"
 "http://www.w3.org/Graphics/SVG/1.1/DTD/svg11.dtd">
<!-- Generated by graphviz version 2.43.0 (0)
 -->
<!-- Title: fiftyone.common.wrappers.data.BinaryWriter.WritableSeekable Pages: 1 -->
<svg width="183pt" height="93pt"
 viewBox="0.00 0.00 183.00 93.00" xmlns="http://www.w3.org/2000/svg" xmlns:xlink="http://www.w3.org/1999/xlink">
<g id="graph0" class="graph" transform="scale(1 1) rotate(0) translate(4 89)">
<title>fiftyone.common.wrappers.data.BinaryWriter.WritableSeekable</title>
<!-- Node1 -->
<g id="Node000001" class="node">
<title>Node1</title>
<g id="a_Node000001"><a xlink:title=" ">
<polygon fill="#999999" stroke="#666666" points="175,-30 0,-30 0,0 175,0 175,-30"/>
<text text-anchor="start" x="8" y="-18" font-family="Helvetica,sans-Serif" font-size="10.00">fiftyone.common.wrappers.data.</text>
<text text-anchor="middle" x="87.5" y="-7" font-family="Helvetica,sans-Serif" font-size="10.00">BinaryWriter.WritableSeekable</text>
</a>
</g>
</g>
<!-- Node2 -->
<g id="Node000002" class="node">
<title>Node2</title>
<g id="a_Node000002"><a xlink:title=" ">
<polygon fill="white" stroke="#bfbfbf" points="79,-85 14,-85 14,-66 79,-66 79,-85"/>
<text text-anchor="middle" x="46.5" y="-73" font-family="Helvetica,sans-Serif" font-size="10.00">Closeable</text>
</a>
</g>
</g>
<!-- Node2&#45;&gt;Node1 -->
<g id="edge1_Node000001_Node000002" class="edge">
<title>Node2&#45;&gt;Node1</title>
<g id="a_edge1_Node000001_Node000002"><a xlink:title=" ">
<path fill="none" stroke="#63b8ff" d="M58.34,-57.61C64.45,-48.89 71.81,-38.39 77.61,-30.11"/>
<polygon fill="#63b8ff" stroke="#63b8ff" points="55.42,-55.67 52.55,-65.87 61.16,-59.69 55.42,-55.67"/>
</a>
</g>
</g>
<!-- Node3 -->
<g id="Node000003" class="node">
<title>Node3</title>
<g id="a_Node000003"><a xlink:title=" ">
<polygon fill="white" stroke="#bfbfbf" points="161.5,-85 97.5,-85 97.5,-66 161.5,-66 161.5,-85"/>
<text text-anchor="middle" x="129.5" y="-73" font-family="Helvetica,sans-Serif" font-size="10.00">Flushable</text>
</a>
</g>
</g>
<!-- Node3&#45;&gt;Node1 -->
<g id="edge2_Node000001_Node000003" class="edge">
<title>Node3&#45;&gt;Node1</title>
<g id="a_edge2_Node000001_Node000003"><a xlink:title=" ">
<path fill="none" stroke="#63b8ff" d="M117.37,-57.61C111.12,-48.89 103.57,-38.39 97.63,-30.11"/>
<polygon fill="#63b8ff" stroke="#63b8ff" points="114.63,-59.79 123.3,-65.87 120.31,-55.7 114.63,-59.79"/>
</a>
</g>
</g>
</g>
</svg>
