<?xml version="1.0" encoding="UTF-8" standalone="no"?>
<!DOCTYPE svg PUBLIC "-//W3C//DTD SVG 1.1//EN"
 "http://www.w3.org/Graphics/SVG/1.1/DTD/svg11.dtd">
<!-- Generated by graphviz version 2.43.0 (0)
 -->
<!-- Title: fiftyone.pipeline.engines.caching.DataKeyedCache&lt; V &gt; Pages: 1 -->
<svg width="1597pt" height="203pt"
 viewBox="0.00 0.00 1597.00 203.00" xmlns="http://www.w3.org/2000/svg" xmlns:xlink="http://www.w3.org/1999/xlink">
<g id="graph0" class="graph" transform="scale(1 1) rotate(0) translate(4 199)">
<title>fiftyone.pipeline.engines.caching.DataKeyedCache&lt; V &gt;</title>
<!-- Node1 -->
<g id="Node000001" class="node">
<title>Node1</title>
<g id="a_Node000001"><a xlink:title="Represents a put cache where the key is a FlowData instance.">
<polygon fill="#999999" stroke="#666666" points="626,-74 446,-74 446,-44 626,-44 626,-74"/>
<text text-anchor="start" x="454" y="-62" font-family="Helvetica,sans-Serif" font-size="10.00">fiftyone.pipeline.engines.caching.</text>
<text text-anchor="middle" x="536" y="-51" font-family="Helvetica,sans-Serif" font-size="10.00">DataKeyedCache&lt; V &gt;</text>
</a>
</g>
</g>
<!-- Node5 -->
<g id="Node000005" class="node">
<title>Node5</title>
<g id="a_Node000005"><a xlink:href="classfiftyone_1_1pipeline_1_1engines_1_1caching_1_1_data_keyed_cache_base.html" target="_top" xlink:title="Abstract base class for caches that use FlowData as the key.">
<polygon fill="white" stroke="#666666" points="938,-110 758,-110 758,-80 938,-80 938,-110"/>
<text text-anchor="start" x="766" y="-98" font-family="Helvetica,sans-Serif" font-size="10.00">fiftyone.pipeline.engines.caching.</text>
<text text-anchor="middle" x="848" y="-87" font-family="Helvetica,sans-Serif" font-size="10.00">DataKeyedCacheBase&lt; V &gt;</text>
</a>
</g>
</g>
<!-- Node1&#45;&gt;Node5 -->
<g id="edge4_Node000001_Node000005" class="edge">
<title>Node1&#45;&gt;Node5</title>
<g id="a_edge4_Node000001_Node000005"><a xlink:title=" ">
<path fill="none" stroke="#63b8ff" d="M636.56,-70.56C675.55,-75.09 719.93,-80.24 757.84,-84.65"/>
<polygon fill="#63b8ff" stroke="#63b8ff" points="636.59,-67.04 626.25,-69.36 635.78,-73.99 636.59,-67.04"/>
</a>
</g>
</g>
<!-- Node12 -->
<g id="Node000012" class="node">
<title>Node12</title>
<g id="a_Node000012"><a xlink:href="interfacefiftyone_1_1pipeline_1_1engines_1_1caching_1_1_data_keyed_cache.html" target="_top" xlink:title=" ">
<polygon fill="white" stroke="#666666" points="941,-50 755,-50 755,-20 941,-20 941,-50"/>
<text text-anchor="start" x="763" y="-38" font-family="Helvetica,sans-Serif" font-size="10.00">fiftyone.pipeline.engines.caching.</text>
<text text-anchor="middle" x="848" y="-27" font-family="Helvetica,sans-Serif" font-size="10.00">DataKeyedCache&lt; ElementData &gt;</text>
</a>
</g>
</g>
<!-- Node1&#45;&gt;Node12 -->
<g id="edge11_Node000001_Node000012" class="edge">
<title>Node1&#45;&gt;Node12</title>
<g id="a_edge11_Node000001_Node000012"><a xlink:title=" ">
<path fill="none" stroke="orange" stroke-dasharray="5,2" d="M636.31,-51.31C674.35,-48.37 717.55,-45.02 754.88,-42.13"/>
<polygon fill="orange" stroke="orange" points="635.95,-47.83 626.25,-52.09 636.49,-54.81 635.95,-47.83"/>
</a>
</g>
<text text-anchor="start" x="647.5" y="-56.5" font-family="Helvetica,sans-Serif" font-size="10.00" fill="grey">&lt; ElementData &gt;</text>
</g>
<!-- Node2 -->
<g id="Node000002" class="node">
<title>Node2</title>
<g id="a_Node000002"><a xlink:href="interfacefiftyone_1_1caching_1_1_put_cache.html" target="_top" xlink:title="A cache that supports a thread safe put method for inserting to cache.">
<polygon fill="white" stroke="#666666" points="409,-74 266,-74 266,-44 409,-44 409,-74"/>
<text text-anchor="start" x="274" y="-62" font-family="Helvetica,sans-Serif" font-size="10.00">fiftyone.caching.PutCache</text>
<text text-anchor="middle" x="337.5" y="-51" font-family="Helvetica,sans-Serif" font-size="10.00">&lt; K, V &gt;</text>
</a>
</g>
</g>
<!-- Node2&#45;&gt;Node1 -->
<g id="edge1_Node000001_Node000002" class="edge">
<title>Node2&#45;&gt;Node1</title>
<g id="a_edge1_Node000001_Node000002"><a xlink:title=" ">
<path fill="none" stroke="#63b8ff" d="M419.31,-59C428.05,-59 436.97,-59 445.79,-59"/>
<polygon fill="#63b8ff" stroke="#63b8ff" points="419.16,-55.5 409.16,-59 419.16,-62.5 419.16,-55.5"/>
</a>
</g>
</g>
<!-- Node3 -->
<g id="Node000003" class="node">
<title>Node3</title>
<g id="a_Node000003"><a xlink:href="interfacefiftyone_1_1caching_1_1_cache.html" target="_top" xlink:title="Base cache interface which declares only the get method and the types of key and value stored in the ...">
<polygon fill="white" stroke="#666666" points="229,-74 102,-74 102,-44 229,-44 229,-74"/>
<text text-anchor="start" x="110" y="-62" font-family="Helvetica,sans-Serif" font-size="10.00">fiftyone.caching.Cache</text>
<text text-anchor="middle" x="165.5" y="-51" font-family="Helvetica,sans-Serif" font-size="10.00">&lt; K, V &gt;</text>
</a>
</g>
</g>
<!-- Node3&#45;&gt;Node2 -->
<g id="edge2_Node000002_Node000003" class="edge">
<title>Node3&#45;&gt;Node2</title>
<g id="a_edge2_Node000002_Node000003"><a xlink:title=" ">
<path fill="none" stroke="#63b8ff" d="M239.5,-59C248.26,-59 257.19,-59 265.92,-59"/>
<polygon fill="#63b8ff" stroke="#63b8ff" points="239.32,-55.5 229.32,-59 239.32,-62.5 239.32,-55.5"/>
</a>
</g>
</g>
<!-- Node4 -->
<g id="Node000004" class="node">
<title>Node4</title>
<g id="a_Node000004"><a xlink:title=" ">
<polygon fill="white" stroke="#bfbfbf" points="65,-68.5 0,-68.5 0,-49.5 65,-49.5 65,-68.5"/>
<text text-anchor="middle" x="32.5" y="-56.5" font-family="Helvetica,sans-Serif" font-size="10.00">Closeable</text>
</a>
</g>
</g>
<!-- Node4&#45;&gt;Node3 -->
<g id="edge3_Node000003_Node000004" class="edge">
<title>Node4&#45;&gt;Node3</title>
<g id="a_edge3_Node000003_Node000004"><a xlink:title=" ">
<path fill="none" stroke="#63b8ff" d="M75.48,-59C83.87,-59 92.86,-59 101.78,-59"/>
<polygon fill="#63b8ff" stroke="#63b8ff" points="75.21,-55.5 65.21,-59 75.21,-62.5 75.21,-55.5"/>
</a>
</g>
</g>
<!-- Node6 -->
<g id="Node000006" class="node">
<title>Node6</title>
<g id="a_Node000006"><a xlink:href="classfiftyone_1_1pipeline_1_1engines_1_1trackers_1_1_tracker_base.html" target="_top" xlink:title="The abstract base class for trackers.">
<polygon fill="white" stroke="#666666" points="1266,-174 1084,-174 1084,-144 1266,-144 1266,-174"/>
<text text-anchor="start" x="1092" y="-162" font-family="Helvetica,sans-Serif" font-size="10.00">fiftyone.pipeline.engines.trackers.</text>
<text text-anchor="middle" x="1175" y="-151" font-family="Helvetica,sans-Serif" font-size="10.00">TrackerBase&lt; T &gt;</text>
</a>
</g>
</g>
<!-- Node5&#45;&gt;Node6 -->
<g id="edge5_Node000005_Node000006" class="edge">
<title>Node5&#45;&gt;Node6</title>
<g id="a_edge5_Node000005_Node000006"><a xlink:title=" ">
<path fill="none" stroke="#63b8ff" d="M909.43,-112.76C925.46,-117.12 942.81,-121.52 959,-125 999.73,-133.75 1045.26,-141.27 1083.89,-146.99"/>
<polygon fill="#63b8ff" stroke="#63b8ff" points="910.22,-109.34 899.65,-110.06 908.36,-116.09 910.22,-109.34"/>
</a>
</g>
</g>
<!-- Node9 -->
<g id="Node000009" class="node">
<title>Node9</title>
<g id="a_Node000009"><a xlink:href="classfiftyone_1_1pipeline_1_1engines_1_1caching_1_1_data_keyed_cache_base.html" target="_top" xlink:title=" ">
<polygon fill="white" stroke="#666666" points="1280,-126 1070,-126 1070,-96 1280,-96 1280,-126"/>
<text text-anchor="start" x="1078" y="-114" font-family="Helvetica,sans-Serif" font-size="10.00">fiftyone.pipeline.engines.caching.</text>
<text text-anchor="middle" x="1175" y="-103" font-family="Helvetica,sans-Serif" font-size="10.00">DataKeyedCacheBase&lt; ElementData &gt;</text>
</a>
</g>
</g>
<!-- Node5&#45;&gt;Node9 -->
<g id="edge8_Node000005_Node000009" class="edge">
<title>Node5&#45;&gt;Node9</title>
<g id="a_edge8_Node000005_Node000009"><a xlink:title=" ">
<path fill="none" stroke="orange" stroke-dasharray="5,2" d="M948.4,-99.89C986.83,-101.79 1030.83,-103.95 1069.71,-105.87"/>
<polygon fill="orange" stroke="orange" points="948.4,-96.39 938.24,-99.39 948.05,-103.38 948.4,-96.39"/>
</a>
</g>
<text text-anchor="start" x="962.5" y="-109.5" font-family="Helvetica,sans-Serif" font-size="10.00" fill="grey">&lt; ElementData &gt;</text>
</g>
<!-- Node11 -->
<g id="Node000011" class="node">
<title>Node11</title>
<g id="a_Node000011"><a xlink:href="classfiftyone_1_1pipeline_1_1engines_1_1caching_1_1_data_keyed_cache_base.html" target="_top" xlink:title=" ">
<polygon fill="white" stroke="#666666" points="1265,-78 1085,-78 1085,-48 1265,-48 1265,-78"/>
<text text-anchor="start" x="1093" y="-66" font-family="Helvetica,sans-Serif" font-size="10.00">fiftyone.pipeline.engines.caching.</text>
<text text-anchor="middle" x="1175" y="-55" font-family="Helvetica,sans-Serif" font-size="10.00">DataKeyedCacheBase&lt; T &gt;</text>
</a>
</g>
</g>
<!-- Node5&#45;&gt;Node11 -->
<g id="edge10_Node000005_Node000011" class="edge">
<title>Node5&#45;&gt;Node11</title>
<g id="a_edge10_Node000005_Node000011"><a xlink:title=" ">
<path fill="none" stroke="orange" stroke-dasharray="5,2" d="M948.31,-80.23C951.92,-79.8 955.49,-79.39 959,-79 1000.3,-74.47 1046.2,-70.86 1084.96,-68.22"/>
<polygon fill="orange" stroke="orange" points="947.58,-76.8 938.08,-81.5 948.44,-83.74 947.58,-76.8"/>
</a>
</g>
<text text-anchor="start" x="991.5" y="-84.5" font-family="Helvetica,sans-Serif" font-size="10.00" fill="grey">&lt; T &gt;</text>
</g>
<!-- Node7 -->
<g id="Node000007" class="node">
<title>Node7</title>
<g id="a_Node000007"><a xlink:href="classfiftyone_1_1pipeline_1_1engines_1_1fiftyone_1_1trackers_1_1_share_usage_tracker.html" target="_top" xlink:title="A tracker used by share usage to attempt to avoid repeatedly sending data relating to the same user s...">
<polygon fill="white" stroke="#666666" points="1589,-195 1368,-195 1368,-165 1589,-165 1589,-195"/>
<text text-anchor="start" x="1376" y="-183" font-family="Helvetica,sans-Serif" font-size="10.00">fiftyone.pipeline.engines.fiftyone.trackers.</text>
<text text-anchor="middle" x="1478.5" y="-172" font-family="Helvetica,sans-Serif" font-size="10.00">ShareUsageTracker&lt; Date &gt;</text>
</a>
</g>
</g>
<!-- Node6&#45;&gt;Node7 -->
<g id="edge6_Node000006_Node000007" class="edge">
<title>Node6&#45;&gt;Node7</title>
<g id="a_edge6_Node000006_Node000007"><a xlink:title=" ">
<path fill="none" stroke="#63b8ff" d="M1276.32,-165.99C1305.71,-168.03 1337.99,-170.28 1367.93,-172.37"/>
<polygon fill="#63b8ff" stroke="#63b8ff" points="1276.27,-162.48 1266.05,-165.27 1275.78,-169.46 1276.27,-162.48"/>
</a>
</g>
</g>
<!-- Node8 -->
<g id="Node000008" class="node">
<title>Node8</title>
<g id="a_Node000008"><a xlink:href="classfiftyone_1_1pipeline_1_1engines_1_1trackers_1_1_tracker_base.html" target="_top" xlink:title=" ">
<polygon fill="white" stroke="#666666" points="1569.5,-147 1387.5,-147 1387.5,-117 1569.5,-117 1569.5,-147"/>
<text text-anchor="start" x="1395.5" y="-135" font-family="Helvetica,sans-Serif" font-size="10.00">fiftyone.pipeline.engines.trackers.</text>
<text text-anchor="middle" x="1478.5" y="-124" font-family="Helvetica,sans-Serif" font-size="10.00">TrackerBase&lt; Date &gt;</text>
</a>
</g>
</g>
<!-- Node6&#45;&gt;Node8 -->
<g id="edge7_Node000006_Node000008" class="edge">
<title>Node6&#45;&gt;Node8</title>
<g id="a_edge7_Node000006_Node000008"><a xlink:title=" ">
<path fill="none" stroke="orange" stroke-dasharray="5,2" d="M1276.28,-148.08C1283.63,-147.36 1290.93,-146.65 1298,-146 1326.95,-143.33 1358.55,-140.75 1387.06,-138.55"/>
<polygon fill="orange" stroke="orange" points="1275.85,-144.61 1266.25,-149.09 1276.55,-151.58 1275.85,-144.61"/>
</a>
</g>
<text text-anchor="start" x="1301" y="-151.5" font-family="Helvetica,sans-Serif" font-size="10.00" fill="grey">&lt; Date &gt;</text>
</g>
<!-- Node10 -->
<g id="Node000010" class="node">
<title>Node10</title>
<g id="a_Node000010"><a xlink:href="classfiftyone_1_1pipeline_1_1engines_1_1caching_1_1_flow_cache_default.html" target="_top" xlink:title="Default implementation of FlowCache using the DataKeyedCacheBase.">
<polygon fill="white" stroke="#666666" points="1568.5,-94 1388.5,-94 1388.5,-64 1568.5,-64 1568.5,-94"/>
<text text-anchor="start" x="1396.5" y="-82" font-family="Helvetica,sans-Serif" font-size="10.00">fiftyone.pipeline.engines.caching.</text>
<text text-anchor="middle" x="1478.5" y="-71" font-family="Helvetica,sans-Serif" font-size="10.00">FlowCacheDefault</text>
</a>
</g>
</g>
<!-- Node9&#45;&gt;Node10 -->
<g id="edge9_Node000009_Node000010" class="edge">
<title>Node9&#45;&gt;Node10</title>
<g id="a_edge9_Node000009_Node000010"><a xlink:title=" ">
<path fill="none" stroke="#63b8ff" d="M1290.18,-98.88C1322.68,-95.43 1357.6,-91.73 1388.37,-88.46"/>
<polygon fill="#63b8ff" stroke="#63b8ff" points="1289.76,-95.41 1280.18,-99.94 1290.49,-102.37 1289.76,-95.41"/>
</a>
</g>
</g>
<!-- Node13 -->
<g id="Node000013" class="node">
<title>Node13</title>
<g id="a_Node000013"><a xlink:href="interfacefiftyone_1_1pipeline_1_1engines_1_1caching_1_1_flow_cache.html" target="_top" xlink:title="Used to cache results from individual flow elements in the pipeline.">
<polygon fill="white" stroke="#666666" points="1265,-30 1085,-30 1085,0 1265,0 1265,-30"/>
<text text-anchor="start" x="1093" y="-18" font-family="Helvetica,sans-Serif" font-size="10.00">fiftyone.pipeline.engines.caching.</text>
<text text-anchor="middle" x="1175" y="-7" font-family="Helvetica,sans-Serif" font-size="10.00">FlowCache</text>
</a>
</g>
</g>
<!-- Node12&#45;&gt;Node13 -->
<g id="edge12_Node000012_Node000013" class="edge">
<title>Node12&#45;&gt;Node13</title>
<g id="a_edge12_Node000012_Node000013"><a xlink:title=" ">
<path fill="none" stroke="#63b8ff" d="M951.43,-28.7C994.26,-26.06 1043.57,-23.03 1084.87,-20.48"/>
<polygon fill="#63b8ff" stroke="#63b8ff" points="951.03,-25.21 941.26,-29.32 951.46,-32.2 951.03,-25.21"/>
</a>
</g>
</g>
<!-- Node13&#45;&gt;Node10 -->
<g id="edge13_Node000013_Node000010" class="edge">
<title>Node13&#45;&gt;Node10</title>
<g id="a_edge13_Node000013_Node000010"><a xlink:title=" ">
<path fill="none" stroke="#63b8ff" d="M1256.49,-32.09C1303.28,-42.02 1361.71,-54.42 1406.73,-63.98"/>
<polygon fill="#63b8ff" stroke="#63b8ff" points="1257.2,-28.66 1246.69,-30.01 1255.74,-35.51 1257.2,-28.66"/>
</a>
</g>
</g>
</g>
</svg>
