<?xml version="1.0" encoding="UTF-8" standalone="no"?>
<!DOCTYPE svg PUBLIC "-//W3C//DTD SVG 1.1//EN"
 "http://www.w3.org/Graphics/SVG/1.1/DTD/svg11.dtd">
<!-- Generated by graphviz version 2.43.0 (0)
 -->
<!-- Title: fiftyone.caching.Cache&lt; K, V &gt; Pages: 1 -->
<svg width="1810pt" height="313pt"
 viewBox="0.00 0.00 1810.00 313.00" xmlns="http://www.w3.org/2000/svg" xmlns:xlink="http://www.w3.org/1999/xlink">
<g id="graph0" class="graph" transform="scale(1 1) rotate(0) translate(4 309)">
<title>fiftyone.caching.Cache&lt; K, V &gt;</title>
<!-- Node1 -->
<g id="Node000001" class="node">
<title>Node1</title>
<g id="a_Node000001"><a xlink:title="Base cache interface which declares only the get method and the types of key and value stored in the ...">
<polygon fill="#999999" stroke="#666666" points="229,-201 102,-201 102,-171 229,-171 229,-201"/>
<text text-anchor="start" x="110" y="-189" font-family="Helvetica,sans-Serif" font-size="10.00">fiftyone.caching.Cache</text>
<text text-anchor="middle" x="165.5" y="-178" font-family="Helvetica,sans-Serif" font-size="10.00">&lt; K, V &gt;</text>
</a>
</g>
</g>
<!-- Node3 -->
<g id="Node000003" class="node">
<title>Node3</title>
<g id="a_Node000003"><a xlink:href="interfacefiftyone_1_1caching_1_1_loading_cache.html" target="_top" xlink:title="Extension of general cache contract to provide for getting a value with a particular value loaded.">
<polygon fill="white" stroke="#666666" points="480,-282 345,-282 345,-252 480,-252 480,-282"/>
<text text-anchor="start" x="353" y="-270" font-family="Helvetica,sans-Serif" font-size="10.00">fiftyone.caching.Loading</text>
<text text-anchor="middle" x="412.5" y="-259" font-family="Helvetica,sans-Serif" font-size="10.00">Cache&lt; K, V &gt;</text>
</a>
</g>
</g>
<!-- Node1&#45;&gt;Node3 -->
<g id="edge2_Node000001_Node000003" class="edge">
<title>Node1&#45;&gt;Node3</title>
<g id="a_edge2_Node000001_Node000003"><a xlink:title=" ">
<path fill="none" stroke="#63b8ff" d="M215.08,-204.61C225.57,-208.48 236.62,-212.46 247,-216 284.78,-228.88 327.89,-242.2 360.5,-251.99"/>
<polygon fill="#63b8ff" stroke="#63b8ff" points="216.24,-201.3 205.65,-201.09 213.8,-207.86 216.24,-201.3"/>
</a>
</g>
</g>
<!-- Node5 -->
<g id="Node000005" class="node">
<title>Node5</title>
<g id="a_Node000005"><a xlink:href="classfiftyone_1_1caching_1_1_lru_cache_base.html" target="_top" xlink:title="This is a Least Recently Used (LRU) cache with multiple linked lists in place of the usual single lin...">
<polygon fill="white" stroke="#666666" points="483.5,-233 341.5,-233 341.5,-203 483.5,-203 483.5,-233"/>
<text text-anchor="start" x="349.5" y="-221" font-family="Helvetica,sans-Serif" font-size="10.00">fiftyone.caching.LruCache</text>
<text text-anchor="middle" x="412.5" y="-210" font-family="Helvetica,sans-Serif" font-size="10.00">Base&lt; K, V &gt;</text>
</a>
</g>
</g>
<!-- Node1&#45;&gt;Node5 -->
<g id="edge4_Node000001_Node000005" class="edge">
<title>Node1&#45;&gt;Node5</title>
<g id="a_edge4_Node000001_Node000005"><a xlink:title=" ">
<path fill="none" stroke="#63b8ff" d="M239.51,-195.54C271.65,-199.73 309.27,-204.65 341.11,-208.81"/>
<polygon fill="#63b8ff" stroke="#63b8ff" points="239.64,-192.02 229.28,-194.2 238.74,-198.96 239.64,-192.02"/>
</a>
</g>
</g>
<!-- Node7 -->
<g id="Node000007" class="node">
<title>Node7</title>
<g id="a_Node000007"><a xlink:href="interfacefiftyone_1_1caching_1_1_put_cache.html" target="_top" xlink:title="A cache that supports a thread safe put method for inserting to cache.">
<polygon fill="white" stroke="#666666" points="484,-183 341,-183 341,-153 484,-153 484,-183"/>
<text text-anchor="start" x="349" y="-171" font-family="Helvetica,sans-Serif" font-size="10.00">fiftyone.caching.PutCache</text>
<text text-anchor="middle" x="412.5" y="-160" font-family="Helvetica,sans-Serif" font-size="10.00">&lt; K, V &gt;</text>
</a>
</g>
</g>
<!-- Node1&#45;&gt;Node7 -->
<g id="edge7_Node000001_Node000007" class="edge">
<title>Node1&#45;&gt;Node7</title>
<g id="a_edge7_Node000001_Node000007"><a xlink:title=" ">
<path fill="none" stroke="#63b8ff" d="M239.46,-180.64C271.47,-178.29 308.91,-175.54 340.67,-173.2"/>
<polygon fill="#63b8ff" stroke="#63b8ff" points="238.99,-177.16 229.28,-181.39 239.51,-184.15 238.99,-177.16"/>
</a>
</g>
</g>
<!-- Node20 -->
<g id="Node000020" class="node">
<title>Node20</title>
<g id="a_Node000020"><a xlink:href="interfacefiftyone_1_1caching_1_1_cache.html" target="_top" xlink:title=" ">
<polygon fill="white" stroke="#666666" points="476,-83 349,-83 349,-53 476,-53 476,-83"/>
<text text-anchor="start" x="357" y="-71" font-family="Helvetica,sans-Serif" font-size="10.00">fiftyone.caching.Cache</text>
<text text-anchor="middle" x="412.5" y="-60" font-family="Helvetica,sans-Serif" font-size="10.00">&lt; Integer, V &gt;</text>
</a>
</g>
</g>
<!-- Node1&#45;&gt;Node20 -->
<g id="edge22_Node000001_Node000020" class="edge">
<title>Node1&#45;&gt;Node20</title>
<g id="a_edge22_Node000001_Node000020"><a xlink:title=" ">
<path fill="none" stroke="orange" stroke-dasharray="5,2" d="M207.31,-166.35C255.92,-142.93 336.06,-104.34 380.09,-83.13"/>
<polygon fill="orange" stroke="orange" points="205.52,-163.32 198.03,-170.82 208.56,-169.63 205.52,-163.32"/>
</a>
</g>
<text text-anchor="start" x="250" y="-150.5" font-family="Helvetica,sans-Serif" font-size="10.00" fill="grey">&lt; Integer, V &gt;</text>
</g>
<!-- Node2 -->
<g id="Node000002" class="node">
<title>Node2</title>
<g id="a_Node000002"><a xlink:title=" ">
<polygon fill="white" stroke="#bfbfbf" points="65,-195.5 0,-195.5 0,-176.5 65,-176.5 65,-195.5"/>
<text text-anchor="middle" x="32.5" y="-183.5" font-family="Helvetica,sans-Serif" font-size="10.00">Closeable</text>
</a>
</g>
</g>
<!-- Node2&#45;&gt;Node1 -->
<g id="edge1_Node000001_Node000002" class="edge">
<title>Node2&#45;&gt;Node1</title>
<g id="a_edge1_Node000001_Node000002"><a xlink:title=" ">
<path fill="none" stroke="#63b8ff" d="M75.48,-186C83.87,-186 92.86,-186 101.78,-186"/>
<polygon fill="#63b8ff" stroke="#63b8ff" points="75.21,-182.5 65.21,-186 75.21,-189.5 75.21,-182.5"/>
</a>
</g>
</g>
<!-- Node4 -->
<g id="Node000004" class="node">
<title>Node4</title>
<g id="a_Node000004"><a xlink:href="classfiftyone_1_1caching_1_1_lru_loading_cache.html" target="_top" xlink:title="Uses the LruCacheBase to implement the LoadingCache interface.">
<polygon fill="white" stroke="#666666" points="824,-283 674,-283 674,-253 824,-253 824,-283"/>
<text text-anchor="start" x="682" y="-271" font-family="Helvetica,sans-Serif" font-size="10.00">fiftyone.caching.LruLoading</text>
<text text-anchor="middle" x="749" y="-260" font-family="Helvetica,sans-Serif" font-size="10.00">Cache&lt; K, V &gt;</text>
</a>
</g>
</g>
<!-- Node3&#45;&gt;Node4 -->
<g id="edge3_Node000003_Node000004" class="edge">
<title>Node3&#45;&gt;Node4</title>
<g id="a_edge3_Node000003_Node000004"><a xlink:title=" ">
<path fill="none" stroke="#63b8ff" d="M490.46,-267.23C545.61,-267.39 619.48,-267.62 673.96,-267.78"/>
<polygon fill="#63b8ff" stroke="#63b8ff" points="490.4,-263.73 480.39,-267.2 490.38,-270.73 490.4,-263.73"/>
</a>
</g>
</g>
<!-- Node5&#45;&gt;Node4 -->
<g id="edge5_Node000005_Node000004" class="edge">
<title>Node5&#45;&gt;Node4</title>
<g id="a_edge5_Node000005_Node000004"><a xlink:title=" ">
<path fill="none" stroke="#63b8ff" d="M493.64,-229.98C548.41,-238.17 620.48,-248.94 673.91,-256.93"/>
<polygon fill="#63b8ff" stroke="#63b8ff" points="494.03,-226.5 483.62,-228.48 492.99,-233.42 494.03,-226.5"/>
</a>
</g>
</g>
<!-- Node6 -->
<g id="Node000006" class="node">
<title>Node6</title>
<g id="a_Node000006"><a xlink:href="classfiftyone_1_1caching_1_1_lru_put_cache.html" target="_top" xlink:title="Uses the LruCacheBase to implement the PutCache interface.">
<polygon fill="white" stroke="#666666" points="828,-234 670,-234 670,-204 828,-204 828,-234"/>
<text text-anchor="start" x="678" y="-222" font-family="Helvetica,sans-Serif" font-size="10.00">fiftyone.caching.LruPutCache</text>
<text text-anchor="middle" x="749" y="-211" font-family="Helvetica,sans-Serif" font-size="10.00">&lt; K, V &gt;</text>
</a>
</g>
</g>
<!-- Node5&#45;&gt;Node6 -->
<g id="edge6_Node000005_Node000006" class="edge">
<title>Node5&#45;&gt;Node6</title>
<g id="a_edge6_Node000005_Node000006"><a xlink:title=" ">
<path fill="none" stroke="#63b8ff" d="M493.73,-218.24C547.09,-218.4 616.83,-218.61 669.78,-218.77"/>
<polygon fill="#63b8ff" stroke="#63b8ff" points="493.63,-214.74 483.62,-218.21 493.61,-221.74 493.63,-214.74"/>
</a>
</g>
</g>
<!-- Node7&#45;&gt;Node6 -->
<g id="edge8_Node000007_Node000006" class="edge">
<title>Node7&#45;&gt;Node6</title>
<g id="a_edge8_Node000007_Node000006"><a xlink:title=" ">
<path fill="none" stroke="#63b8ff" d="M494.14,-180.29C547.51,-188.43 617.14,-199.05 669.97,-207.1"/>
<polygon fill="#63b8ff" stroke="#63b8ff" points="494.44,-176.8 484.03,-178.75 493.39,-183.72 494.44,-176.8"/>
</a>
</g>
</g>
<!-- Node8 -->
<g id="Node000008" class="node">
<title>Node8</title>
<g id="a_Node000008"><a xlink:href="interfacefiftyone_1_1pipeline_1_1engines_1_1caching_1_1_data_keyed_cache.html" target="_top" xlink:title="Represents a put cache where the key is a FlowData instance.">
<polygon fill="white" stroke="#666666" points="839,-186 659,-186 659,-156 839,-156 839,-186"/>
<text text-anchor="start" x="667" y="-174" font-family="Helvetica,sans-Serif" font-size="10.00">fiftyone.pipeline.engines.caching.</text>
<text text-anchor="middle" x="749" y="-163" font-family="Helvetica,sans-Serif" font-size="10.00">DataKeyedCache&lt; V &gt;</text>
</a>
</g>
</g>
<!-- Node7&#45;&gt;Node8 -->
<g id="edge9_Node000007_Node000008" class="edge">
<title>Node7&#45;&gt;Node8</title>
<g id="a_edge9_Node000007_Node000008"><a xlink:title=" ">
<path fill="none" stroke="#63b8ff" d="M494.09,-168.72C543.77,-169.17 607.54,-169.74 658.75,-170.2"/>
<polygon fill="#63b8ff" stroke="#63b8ff" points="494.06,-165.22 484.03,-168.63 494,-172.22 494.06,-165.22"/>
</a>
</g>
</g>
<!-- Node18 -->
<g id="Node000018" class="node">
<title>Node18</title>
<g id="a_Node000018"><a xlink:href="interfacefiftyone_1_1caching_1_1_put_cache.html" target="_top" xlink:title=" ">
<polygon fill="white" stroke="#666666" points="820.5,-138 677.5,-138 677.5,-108 820.5,-108 820.5,-138"/>
<text text-anchor="start" x="685.5" y="-126" font-family="Helvetica,sans-Serif" font-size="10.00">fiftyone.caching.PutCache</text>
<text text-anchor="middle" x="749" y="-115" font-family="Helvetica,sans-Serif" font-size="10.00">&lt; FlowData, V &gt;</text>
</a>
</g>
</g>
<!-- Node7&#45;&gt;Node18 -->
<g id="edge20_Node000007_Node000018" class="edge">
<title>Node7&#45;&gt;Node18</title>
<g id="a_edge20_Node000007_Node000018"><a xlink:title=" ">
<path fill="none" stroke="orange" stroke-dasharray="5,2" d="M485.63,-150.95C491.15,-149.87 496.66,-148.87 502,-148 560.79,-138.41 628.11,-131.87 677.45,-127.89"/>
<polygon fill="orange" stroke="orange" points="484.8,-147.54 475.69,-152.95 486.18,-154.4 484.8,-147.54"/>
</a>
</g>
<text text-anchor="start" x="530.5" y="-153.5" font-family="Helvetica,sans-Serif" font-size="10.00" fill="grey">&lt; FlowData, V &gt;</text>
</g>
<!-- Node19 -->
<g id="Node000019" class="node">
<title>Node19</title>
<g id="a_Node000019"><a xlink:href="interfacefiftyone_1_1caching_1_1_put_cache.html" target="_top" xlink:title=" ">
<polygon fill="white" stroke="#666666" points="828,-89.5 670,-89.5 670,-48.5 828,-48.5 828,-89.5"/>
<text text-anchor="start" x="678" y="-77.5" font-family="Helvetica,sans-Serif" font-size="10.00">fiftyone.caching.PutCache</text>
<text text-anchor="start" x="678" y="-66.5" font-family="Helvetica,sans-Serif" font-size="10.00">&lt; fiftyone.pipeline.core.data.</text>
<text text-anchor="middle" x="749" y="-55.5" font-family="Helvetica,sans-Serif" font-size="10.00">DataKey, V &gt;</text>
</a>
</g>
</g>
<!-- Node7&#45;&gt;Node19 -->
<g id="edge21_Node000007_Node000019" class="edge">
<title>Node7&#45;&gt;Node19</title>
<g id="a_edge21_Node000007_Node000019"><a xlink:title=" ">
<path fill="none" stroke="orange" stroke-dasharray="5,2" d="M433.81,-145.62C450.39,-128.91 475.38,-107.13 502,-96 555.11,-73.79 620.03,-67.43 669.83,-66.42"/>
<polygon fill="orange" stroke="orange" points="431.23,-143.25 426.8,-152.88 436.26,-148.11 431.23,-143.25"/>
</a>
</g>
<text text-anchor="start" x="505.5" y="-117" font-family="Helvetica,sans-Serif" font-size="10.00" fill="grey">&lt; fiftyone::pipeline</text>
<text text-anchor="start" x="505.5" y="-102" font-family="Helvetica,sans-Serif" font-size="10.00" fill="grey">  ::core::data::DataKey, V &gt;</text>
</g>
<!-- Node9 -->
<g id="Node000009" class="node">
<title>Node9</title>
<g id="a_Node000009"><a xlink:href="classfiftyone_1_1pipeline_1_1engines_1_1caching_1_1_data_keyed_cache_base.html" target="_top" xlink:title="Abstract base class for caches that use FlowData as the key.">
<polygon fill="white" stroke="#666666" points="1151,-220 971,-220 971,-190 1151,-190 1151,-220"/>
<text text-anchor="start" x="979" y="-208" font-family="Helvetica,sans-Serif" font-size="10.00">fiftyone.pipeline.engines.caching.</text>
<text text-anchor="middle" x="1061" y="-197" font-family="Helvetica,sans-Serif" font-size="10.00">DataKeyedCacheBase&lt; V &gt;</text>
</a>
</g>
</g>
<!-- Node8&#45;&gt;Node9 -->
<g id="edge10_Node000008_Node000009" class="edge">
<title>Node8&#45;&gt;Node9</title>
<g id="a_edge10_Node000008_Node000009"><a xlink:title=" ">
<path fill="none" stroke="#63b8ff" d="M849.56,-181.92C888.55,-186.2 932.93,-191.06 970.84,-195.22"/>
<polygon fill="#63b8ff" stroke="#63b8ff" points="849.57,-178.4 839.25,-180.79 848.81,-185.36 849.57,-178.4"/>
</a>
</g>
</g>
<!-- Node16 -->
<g id="Node000016" class="node">
<title>Node16</title>
<g id="a_Node000016"><a xlink:href="interfacefiftyone_1_1pipeline_1_1engines_1_1caching_1_1_data_keyed_cache.html" target="_top" xlink:title=" ">
<polygon fill="white" stroke="#666666" points="1154,-160 968,-160 968,-130 1154,-130 1154,-160"/>
<text text-anchor="start" x="976" y="-148" font-family="Helvetica,sans-Serif" font-size="10.00">fiftyone.pipeline.engines.caching.</text>
<text text-anchor="middle" x="1061" y="-137" font-family="Helvetica,sans-Serif" font-size="10.00">DataKeyedCache&lt; ElementData &gt;</text>
</a>
</g>
</g>
<!-- Node8&#45;&gt;Node16 -->
<g id="edge17_Node000008_Node000016" class="edge">
<title>Node8&#45;&gt;Node16</title>
<g id="a_edge17_Node000008_Node000016"><a xlink:title=" ">
<path fill="none" stroke="orange" stroke-dasharray="5,2" d="M849.33,-158.74C851.91,-158.48 854.47,-158.23 857,-158 893.22,-154.64 933.16,-151.88 967.95,-149.78"/>
<polygon fill="orange" stroke="orange" points="848.88,-155.26 839.29,-159.77 849.59,-162.23 848.88,-155.26"/>
</a>
</g>
<text text-anchor="start" x="860.5" y="-163.5" font-family="Helvetica,sans-Serif" font-size="10.00" fill="grey">&lt; ElementData &gt;</text>
</g>
<!-- Node10 -->
<g id="Node000010" class="node">
<title>Node10</title>
<g id="a_Node000010"><a xlink:href="classfiftyone_1_1pipeline_1_1engines_1_1trackers_1_1_tracker_base.html" target="_top" xlink:title="The abstract base class for trackers.">
<polygon fill="white" stroke="#666666" points="1479,-284 1297,-284 1297,-254 1479,-254 1479,-284"/>
<text text-anchor="start" x="1305" y="-272" font-family="Helvetica,sans-Serif" font-size="10.00">fiftyone.pipeline.engines.trackers.</text>
<text text-anchor="middle" x="1388" y="-261" font-family="Helvetica,sans-Serif" font-size="10.00">TrackerBase&lt; T &gt;</text>
</a>
</g>
</g>
<!-- Node9&#45;&gt;Node10 -->
<g id="edge11_Node000009_Node000010" class="edge">
<title>Node9&#45;&gt;Node10</title>
<g id="a_edge11_Node000009_Node000010"><a xlink:title=" ">
<path fill="none" stroke="#63b8ff" d="M1120.49,-222.92C1137.04,-227.6 1155.14,-232.34 1172,-236 1212.69,-244.82 1258.21,-252.17 1296.85,-257.67"/>
<polygon fill="#63b8ff" stroke="#63b8ff" points="1120.99,-219.42 1110.41,-220.03 1119.06,-226.15 1120.99,-219.42"/>
</a>
</g>
</g>
<!-- Node13 -->
<g id="Node000013" class="node">
<title>Node13</title>
<g id="a_Node000013"><a xlink:href="classfiftyone_1_1pipeline_1_1engines_1_1caching_1_1_data_keyed_cache_base.html" target="_top" xlink:title=" ">
<polygon fill="white" stroke="#666666" points="1493,-236 1283,-236 1283,-206 1493,-206 1493,-236"/>
<text text-anchor="start" x="1291" y="-224" font-family="Helvetica,sans-Serif" font-size="10.00">fiftyone.pipeline.engines.caching.</text>
<text text-anchor="middle" x="1388" y="-213" font-family="Helvetica,sans-Serif" font-size="10.00">DataKeyedCacheBase&lt; ElementData &gt;</text>
</a>
</g>
</g>
<!-- Node9&#45;&gt;Node13 -->
<g id="edge14_Node000009_Node000013" class="edge">
<title>Node9&#45;&gt;Node13</title>
<g id="a_edge14_Node000009_Node000013"><a xlink:title=" ">
<path fill="none" stroke="orange" stroke-dasharray="5,2" d="M1161.4,-209.89C1199.83,-211.79 1243.83,-213.95 1282.71,-215.87"/>
<polygon fill="orange" stroke="orange" points="1161.4,-206.39 1151.24,-209.39 1161.05,-213.38 1161.4,-206.39"/>
</a>
</g>
<text text-anchor="start" x="1175.5" y="-220.5" font-family="Helvetica,sans-Serif" font-size="10.00" fill="grey">&lt; ElementData &gt;</text>
</g>
<!-- Node15 -->
<g id="Node000015" class="node">
<title>Node15</title>
<g id="a_Node000015"><a xlink:href="classfiftyone_1_1pipeline_1_1engines_1_1caching_1_1_data_keyed_cache_base.html" target="_top" xlink:title=" ">
<polygon fill="white" stroke="#666666" points="1478,-188 1298,-188 1298,-158 1478,-158 1478,-188"/>
<text text-anchor="start" x="1306" y="-176" font-family="Helvetica,sans-Serif" font-size="10.00">fiftyone.pipeline.engines.caching.</text>
<text text-anchor="middle" x="1388" y="-165" font-family="Helvetica,sans-Serif" font-size="10.00">DataKeyedCacheBase&lt; T &gt;</text>
</a>
</g>
</g>
<!-- Node9&#45;&gt;Node15 -->
<g id="edge16_Node000009_Node000015" class="edge">
<title>Node9&#45;&gt;Node15</title>
<g id="a_edge16_Node000009_Node000015"><a xlink:title=" ">
<path fill="none" stroke="orange" stroke-dasharray="5,2" d="M1161.32,-191.2C1164.92,-190.78 1168.49,-190.38 1172,-190 1213.32,-185.55 1259.23,-181.77 1297.98,-178.9"/>
<polygon fill="orange" stroke="orange" points="1160.61,-187.75 1151.1,-192.41 1161.44,-194.71 1160.61,-187.75"/>
</a>
</g>
<text text-anchor="start" x="1204.5" y="-195.5" font-family="Helvetica,sans-Serif" font-size="10.00" fill="grey">&lt; T &gt;</text>
</g>
<!-- Node11 -->
<g id="Node000011" class="node">
<title>Node11</title>
<g id="a_Node000011"><a xlink:href="classfiftyone_1_1pipeline_1_1engines_1_1fiftyone_1_1trackers_1_1_share_usage_tracker.html" target="_top" xlink:title="A tracker used by share usage to attempt to avoid repeatedly sending data relating to the same user s...">
<polygon fill="white" stroke="#666666" points="1802,-305 1581,-305 1581,-275 1802,-275 1802,-305"/>
<text text-anchor="start" x="1589" y="-293" font-family="Helvetica,sans-Serif" font-size="10.00">fiftyone.pipeline.engines.fiftyone.trackers.</text>
<text text-anchor="middle" x="1691.5" y="-282" font-family="Helvetica,sans-Serif" font-size="10.00">ShareUsageTracker&lt; Date &gt;</text>
</a>
</g>
</g>
<!-- Node10&#45;&gt;Node11 -->
<g id="edge12_Node000010_Node000011" class="edge">
<title>Node10&#45;&gt;Node11</title>
<g id="a_edge12_Node000010_Node000011"><a xlink:title=" ">
<path fill="none" stroke="#63b8ff" d="M1489.32,-275.99C1518.71,-278.03 1550.99,-280.28 1580.93,-282.37"/>
<polygon fill="#63b8ff" stroke="#63b8ff" points="1489.27,-272.48 1479.05,-275.27 1488.78,-279.46 1489.27,-272.48"/>
</a>
</g>
</g>
<!-- Node12 -->
<g id="Node000012" class="node">
<title>Node12</title>
<g id="a_Node000012"><a xlink:href="classfiftyone_1_1pipeline_1_1engines_1_1trackers_1_1_tracker_base.html" target="_top" xlink:title=" ">
<polygon fill="white" stroke="#666666" points="1782.5,-257 1600.5,-257 1600.5,-227 1782.5,-227 1782.5,-257"/>
<text text-anchor="start" x="1608.5" y="-245" font-family="Helvetica,sans-Serif" font-size="10.00">fiftyone.pipeline.engines.trackers.</text>
<text text-anchor="middle" x="1691.5" y="-234" font-family="Helvetica,sans-Serif" font-size="10.00">TrackerBase&lt; Date &gt;</text>
</a>
</g>
</g>
<!-- Node10&#45;&gt;Node12 -->
<g id="edge13_Node000010_Node000012" class="edge">
<title>Node10&#45;&gt;Node12</title>
<g id="a_edge13_Node000010_Node000012"><a xlink:title=" ">
<path fill="none" stroke="orange" stroke-dasharray="5,2" d="M1489.28,-258.08C1496.63,-257.36 1503.93,-256.65 1511,-256 1539.95,-253.33 1571.55,-250.75 1600.06,-248.55"/>
<polygon fill="orange" stroke="orange" points="1488.85,-254.61 1479.25,-259.09 1489.55,-261.58 1488.85,-254.61"/>
</a>
</g>
<text text-anchor="start" x="1514" y="-261.5" font-family="Helvetica,sans-Serif" font-size="10.00" fill="grey">&lt; Date &gt;</text>
</g>
<!-- Node14 -->
<g id="Node000014" class="node">
<title>Node14</title>
<g id="a_Node000014"><a xlink:href="classfiftyone_1_1pipeline_1_1engines_1_1caching_1_1_flow_cache_default.html" target="_top" xlink:title="Default implementation of FlowCache using the DataKeyedCacheBase.">
<polygon fill="white" stroke="#666666" points="1781.5,-204 1601.5,-204 1601.5,-174 1781.5,-174 1781.5,-204"/>
<text text-anchor="start" x="1609.5" y="-192" font-family="Helvetica,sans-Serif" font-size="10.00">fiftyone.pipeline.engines.caching.</text>
<text text-anchor="middle" x="1691.5" y="-181" font-family="Helvetica,sans-Serif" font-size="10.00">FlowCacheDefault</text>
</a>
</g>
</g>
<!-- Node13&#45;&gt;Node14 -->
<g id="edge15_Node000013_Node000014" class="edge">
<title>Node13&#45;&gt;Node14</title>
<g id="a_edge15_Node000013_Node000014"><a xlink:title=" ">
<path fill="none" stroke="#63b8ff" d="M1503.18,-208.88C1535.68,-205.43 1570.6,-201.73 1601.37,-198.46"/>
<polygon fill="#63b8ff" stroke="#63b8ff" points="1502.76,-205.41 1493.18,-209.94 1503.49,-212.37 1502.76,-205.41"/>
</a>
</g>
</g>
<!-- Node17 -->
<g id="Node000017" class="node">
<title>Node17</title>
<g id="a_Node000017"><a xlink:href="interfacefiftyone_1_1pipeline_1_1engines_1_1caching_1_1_flow_cache.html" target="_top" xlink:title="Used to cache results from individual flow elements in the pipeline.">
<polygon fill="white" stroke="#666666" points="1478,-140 1298,-140 1298,-110 1478,-110 1478,-140"/>
<text text-anchor="start" x="1306" y="-128" font-family="Helvetica,sans-Serif" font-size="10.00">fiftyone.pipeline.engines.caching.</text>
<text text-anchor="middle" x="1388" y="-117" font-family="Helvetica,sans-Serif" font-size="10.00">FlowCache</text>
</a>
</g>
</g>
<!-- Node16&#45;&gt;Node17 -->
<g id="edge18_Node000016_Node000017" class="edge">
<title>Node16&#45;&gt;Node17</title>
<g id="a_edge18_Node000016_Node000017"><a xlink:title=" ">
<path fill="none" stroke="#63b8ff" d="M1164.43,-138.7C1207.26,-136.06 1256.57,-133.03 1297.87,-130.48"/>
<polygon fill="#63b8ff" stroke="#63b8ff" points="1164.03,-135.21 1154.26,-139.32 1164.46,-142.2 1164.03,-135.21"/>
</a>
</g>
</g>
<!-- Node17&#45;&gt;Node14 -->
<g id="edge19_Node000017_Node000014" class="edge">
<title>Node17&#45;&gt;Node14</title>
<g id="a_edge19_Node000017_Node000014"><a xlink:title=" ">
<path fill="none" stroke="#63b8ff" d="M1469.49,-142.09C1516.28,-152.02 1574.71,-164.42 1619.73,-173.98"/>
<polygon fill="#63b8ff" stroke="#63b8ff" points="1470.2,-138.66 1459.69,-140.01 1468.74,-145.51 1470.2,-138.66"/>
</a>
</g>
</g>
<!-- Node21 -->
<g id="Node000021" class="node">
<title>Node21</title>
<g id="a_Node000021"><a xlink:href="classfiftyone_1_1caching_1_1_no_cache.html" target="_top" xlink:title=" ">
<polygon fill="white" stroke="#bfbfbf" points="819,-30 679,-30 679,0 819,0 819,-30"/>
<text text-anchor="start" x="687" y="-18" font-family="Helvetica,sans-Serif" font-size="10.00">fiftyone.caching.NoCache</text>
<text text-anchor="middle" x="749" y="-7" font-family="Helvetica,sans-Serif" font-size="10.00">&lt; V extends Closeable &gt;</text>
</a>
</g>
</g>
<!-- Node20&#45;&gt;Node21 -->
<g id="edge23_Node000020_Node000021" class="edge">
<title>Node20&#45;&gt;Node21</title>
<g id="a_edge23_Node000020_Node000021"><a xlink:title=" ">
<path fill="none" stroke="#63b8ff" d="M483.23,-50.74C489.56,-49.39 495.88,-48.12 502,-47 561.31,-36.14 629.32,-27.58 678.78,-22.06"/>
<polygon fill="#63b8ff" stroke="#63b8ff" points="482.32,-47.36 473.31,-52.92 483.82,-54.2 482.32,-47.36"/>
</a>
</g>
</g>
</g>
</svg>
