<?xml version="1.0" encoding="UTF-8" standalone="no"?>
<!DOCTYPE svg PUBLIC "-//W3C//DTD SVG 1.1//EN"
 "http://www.w3.org/Graphics/SVG/1.1/DTD/svg11.dtd">
<!-- Generated by graphviz version 2.43.0 (0)
 -->
<!-- Title: fiftyone.pipeline.engines.services.DataUpdateService Pages: 1 -->
<svg width="258pt" height="170pt"
 viewBox="0.00 0.00 257.50 170.00" xmlns="http://www.w3.org/2000/svg" xmlns:xlink="http://www.w3.org/1999/xlink">
<g id="graph0" class="graph" transform="scale(1 1) rotate(0) translate(4 166)">
<title>fiftyone.pipeline.engines.services.DataUpdateService</title>
<!-- Node1 -->
<g id="Node000001" class="node">
<title>Node1</title>
<g id="a_Node000001"><a xlink:title="The data update service keeps AspectEngine’s data files up to date.">
<polygon fill="#999999" stroke="#666666" points="191,-96 8,-96 8,-66 191,-66 191,-96"/>
<text text-anchor="start" x="16" y="-84" font-family="Helvetica,sans-Serif" font-size="10.00">fiftyone.pipeline.engines.services.</text>
<text text-anchor="middle" x="99.5" y="-73" font-family="Helvetica,sans-Serif" font-size="10.00">DataUpdateService</text>
</a>
</g>
</g>
<!-- Node4 -->
<g id="Node000004" class="node">
<title>Node4</title>
<g id="a_Node000004"><a xlink:href="classfiftyone_1_1pipeline_1_1engines_1_1services_1_1_data_update_service_default.html" target="_top" xlink:title="Default singleton implementation of the DataUpdateService.">
<polygon fill="white" stroke="#666666" points="191,-30 8,-30 8,0 191,0 191,-30"/>
<text text-anchor="start" x="16" y="-18" font-family="Helvetica,sans-Serif" font-size="10.00">fiftyone.pipeline.engines.services.</text>
<text text-anchor="middle" x="99.5" y="-7" font-family="Helvetica,sans-Serif" font-size="10.00">DataUpdateServiceDefault</text>
</a>
</g>
</g>
<!-- Node1&#45;&gt;Node4 -->
<g id="edge3_Node000001_Node000004" class="edge">
<title>Node1&#45;&gt;Node4</title>
<g id="a_edge3_Node000001_Node000004"><a xlink:title=" ">
<path fill="none" stroke="#63b8ff" d="M99.5,-55.54C99.5,-46.96 99.5,-37.61 99.5,-30.16"/>
<polygon fill="#63b8ff" stroke="#63b8ff" points="96,-55.8 99.5,-65.8 103,-55.8 96,-55.8"/>
</a>
</g>
</g>
<!-- Node2 -->
<g id="Node000002" class="node">
<title>Node2</title>
<g id="a_Node000002"><a xlink:title=" ">
<polygon fill="white" stroke="#bfbfbf" points="65,-156.5 0,-156.5 0,-137.5 65,-137.5 65,-156.5"/>
<text text-anchor="middle" x="32.5" y="-144.5" font-family="Helvetica,sans-Serif" font-size="10.00">Closeable</text>
</a>
</g>
</g>
<!-- Node2&#45;&gt;Node1 -->
<g id="edge1_Node000001_Node000002" class="edge">
<title>Node2&#45;&gt;Node1</title>
<g id="a_edge1_Node000001_Node000002"><a xlink:title=" ">
<path fill="none" stroke="#63b8ff" d="M48.82,-130.41C59.78,-119.94 74.1,-106.26 84.72,-96.12"/>
<polygon fill="#63b8ff" stroke="#63b8ff" points="46.35,-127.93 41.54,-137.37 51.18,-132.99 46.35,-127.93"/>
</a>
</g>
</g>
<!-- Node3 -->
<g id="Node000003" class="node">
<title>Node3</title>
<g id="a_Node000003"><a xlink:href="interfacefiftyone_1_1pipeline_1_1core_1_1services_1_1_pipeline_service.html" target="_top" xlink:title="Service interface used by PipelineBuilder to hand out services to elements which required them.">
<polygon fill="white" stroke="#666666" points="249.5,-162 83.5,-162 83.5,-132 249.5,-132 249.5,-162"/>
<text text-anchor="start" x="91.5" y="-150" font-family="Helvetica,sans-Serif" font-size="10.00">fiftyone.pipeline.core.services.</text>
<text text-anchor="middle" x="166.5" y="-139" font-family="Helvetica,sans-Serif" font-size="10.00">PipelineService</text>
</a>
</g>
</g>
<!-- Node3&#45;&gt;Node1 -->
<g id="edge2_Node000001_Node000003" class="edge">
<title>Node3&#45;&gt;Node1</title>
<g id="a_edge2_Node000001_Node000003"><a xlink:title=" ">
<path fill="none" stroke="#63b8ff" d="M144.15,-124.65C134.33,-115.27 123.08,-104.53 114.33,-96.16"/>
<polygon fill="#63b8ff" stroke="#63b8ff" points="141.98,-127.42 151.63,-131.8 146.82,-122.36 141.98,-127.42"/>
</a>
</g>
</g>
</g>
</svg>
