<?xml version="1.0" encoding="UTF-8" standalone="no"?>
<!DOCTYPE svg PUBLIC "-//W3C//DTD SVG 1.1//EN"
 "http://www.w3.org/Graphics/SVG/1.1/DTD/svg11.dtd">
<!-- Generated by graphviz version 2.43.0 (0)
 -->
<!-- Title: fiftyone.pipeline.engines.caching.DataKeyedCache&lt; V &gt; Pages: 1 -->
<svg width="188pt" height="225pt"
 viewBox="0.00 0.00 188.00 225.00" xmlns="http://www.w3.org/2000/svg" xmlns:xlink="http://www.w3.org/1999/xlink">
<g id="graph0" class="graph" transform="scale(1 1) rotate(0) translate(4 221)">
<title>fiftyone.pipeline.engines.caching.DataKeyedCache&lt; V &gt;</title>
<!-- Node1 -->
<g id="Node000001" class="node">
<title>Node1</title>
<g id="a_Node000001"><a xlink:title="Represents a put cache where the key is a FlowData instance.">
<polygon fill="#999999" stroke="#666666" points="180,-30 0,-30 0,0 180,0 180,-30"/>
<text text-anchor="start" x="8" y="-18" font-family="Helvetica,sans-Serif" font-size="10.00">fiftyone.pipeline.engines.caching.</text>
<text text-anchor="middle" x="90" y="-7" font-family="Helvetica,sans-Serif" font-size="10.00">DataKeyedCache&lt; V &gt;</text>
</a>
</g>
</g>
<!-- Node2 -->
<g id="Node000002" class="node">
<title>Node2</title>
<g id="a_Node000002"><a xlink:href="interfacefiftyone_1_1caching_1_1_put_cache.html" target="_top" xlink:title="A cache that supports a thread safe put method for inserting to cache.">
<polygon fill="white" stroke="#666666" points="161.5,-96 18.5,-96 18.5,-66 161.5,-66 161.5,-96"/>
<text text-anchor="start" x="26.5" y="-84" font-family="Helvetica,sans-Serif" font-size="10.00">fiftyone.caching.PutCache</text>
<text text-anchor="middle" x="90" y="-73" font-family="Helvetica,sans-Serif" font-size="10.00">&lt; K, V &gt;</text>
</a>
</g>
</g>
<!-- Node2&#45;&gt;Node1 -->
<g id="edge1_Node000001_Node000002" class="edge">
<title>Node2&#45;&gt;Node1</title>
<g id="a_edge1_Node000001_Node000002"><a xlink:title=" ">
<path fill="none" stroke="#63b8ff" d="M90,-55.54C90,-46.96 90,-37.61 90,-30.16"/>
<polygon fill="#63b8ff" stroke="#63b8ff" points="86.5,-55.8 90,-65.8 93.5,-55.8 86.5,-55.8"/>
</a>
</g>
</g>
<!-- Node3 -->
<g id="Node000003" class="node">
<title>Node3</title>
<g id="a_Node000003"><a xlink:href="interfacefiftyone_1_1caching_1_1_cache.html" target="_top" xlink:title="Base cache interface which declares only the get method and the types of key and value stored in the ...">
<polygon fill="white" stroke="#666666" points="153.5,-162 26.5,-162 26.5,-132 153.5,-132 153.5,-162"/>
<text text-anchor="start" x="34.5" y="-150" font-family="Helvetica,sans-Serif" font-size="10.00">fiftyone.caching.Cache</text>
<text text-anchor="middle" x="90" y="-139" font-family="Helvetica,sans-Serif" font-size="10.00">&lt; K, V &gt;</text>
</a>
</g>
</g>
<!-- Node3&#45;&gt;Node2 -->
<g id="edge2_Node000002_Node000003" class="edge">
<title>Node3&#45;&gt;Node2</title>
<g id="a_edge2_Node000002_Node000003"><a xlink:title=" ">
<path fill="none" stroke="#63b8ff" d="M90,-121.54C90,-112.96 90,-103.61 90,-96.16"/>
<polygon fill="#63b8ff" stroke="#63b8ff" points="86.5,-121.8 90,-131.8 93.5,-121.8 86.5,-121.8"/>
</a>
</g>
</g>
<!-- Node4 -->
<g id="Node000004" class="node">
<title>Node4</title>
<g id="a_Node000004"><a xlink:title=" ">
<polygon fill="white" stroke="#bfbfbf" points="122.5,-217 57.5,-217 57.5,-198 122.5,-198 122.5,-217"/>
<text text-anchor="middle" x="90" y="-205" font-family="Helvetica,sans-Serif" font-size="10.00">Closeable</text>
</a>
</g>
</g>
<!-- Node4&#45;&gt;Node3 -->
<g id="edge3_Node000003_Node000004" class="edge">
<title>Node4&#45;&gt;Node3</title>
<g id="a_edge3_Node000003_Node000004"><a xlink:title=" ">
<path fill="none" stroke="#63b8ff" d="M90,-187.65C90,-179.36 90,-169.78 90,-162.11"/>
<polygon fill="#63b8ff" stroke="#63b8ff" points="86.5,-187.87 90,-197.87 93.5,-187.87 86.5,-187.87"/>
</a>
</g>
</g>
</g>
</svg>
