<?xml version="1.0" encoding="UTF-8" standalone="no"?>
<!DOCTYPE svg PUBLIC "-//W3C//DTD SVG 1.1//EN"
 "http://www.w3.org/Graphics/SVG/1.1/DTD/svg11.dtd">
<!-- Generated by graphviz version 2.43.0 (0)
 -->
<!-- Title: fiftyone.pipeline.engines.data.MultiProfileData&lt; T extends AspectData &gt; Pages: 1 -->
<svg width="178pt" height="255pt"
 viewBox="0.00 0.00 178.00 255.00" xmlns="http://www.w3.org/2000/svg" xmlns:xlink="http://www.w3.org/1999/xlink">
<g id="graph0" class="graph" transform="scale(1 1) rotate(0) translate(4 251)">
<title>fiftyone.pipeline.engines.data.MultiProfileData&lt; T extends AspectData &gt;</title>
<!-- Node1 -->
<g id="Node000001" class="node">
<title>Node1</title>
<g id="a_Node000001"><a xlink:title="Specialised implementation of AspectData where the instance contains a list of profiles.">
<polygon fill="#999999" stroke="#666666" points="167,-41 3,-41 3,0 167,0 167,-41"/>
<text text-anchor="start" x="11" y="-29" font-family="Helvetica,sans-Serif" font-size="10.00">fiftyone.pipeline.engines.data.</text>
<text text-anchor="start" x="11" y="-18" font-family="Helvetica,sans-Serif" font-size="10.00">MultiProfileData&lt; T extends</text>
<text text-anchor="middle" x="85" y="-7" font-family="Helvetica,sans-Serif" font-size="10.00"> AspectData &gt;</text>
</a>
</g>
</g>
<!-- Node2 -->
<g id="Node000002" class="node">
<title>Node2</title>
<g id="a_Node000002"><a xlink:href="interfacefiftyone_1_1pipeline_1_1engines_1_1data_1_1_aspect_data.html" target="_top" xlink:title="Represents a specialized ElementData instance that is generated by an AspectEngine.">
<polygon fill="white" stroke="#666666" points="167,-124 3,-124 3,-94 167,-94 167,-124"/>
<text text-anchor="start" x="11" y="-112" font-family="Helvetica,sans-Serif" font-size="10.00">fiftyone.pipeline.engines.data.</text>
<text text-anchor="middle" x="85" y="-101" font-family="Helvetica,sans-Serif" font-size="10.00">AspectData</text>
</a>
</g>
</g>
<!-- Node2&#45;&gt;Node1 -->
<g id="edge1_Node000001_Node000002" class="edge">
<title>Node2&#45;&gt;Node1</title>
<g id="a_edge1_Node000001_Node000002"><a xlink:title=" ">
<path fill="none" stroke="#63b8ff" d="M83.34,-83.96C83.2,-81.28 83.08,-78.58 83,-76 82.64,-64.45 83.08,-51.54 83.63,-41.17"/>
<polygon fill="#63b8ff" stroke="#63b8ff" points="79.84,-84.22 83.93,-93.99 86.83,-83.8 79.84,-84.22"/>
</a>
</g>
</g>
<!-- Node2&#45;&gt;Node1 -->
<g id="edge4_Node000001_Node000002" class="edge">
<title>Node2&#45;&gt;Node1</title>
<g id="a_edge4_Node000001_Node000002"><a xlink:title=" ">
<path fill="none" stroke="orange" stroke-dasharray="5,2" d="M85,-83.36C85,-70.03 85,-53.8 85,-41.31"/>
<polygon fill="orange" stroke="orange" points="81.5,-83.72 85,-93.72 88.5,-83.72 81.5,-83.72"/>
</a>
</g>
<text text-anchor="start" x="88.5" y="-64.5" font-family="Helvetica,sans-Serif" font-size="10.00" fill="grey">T</text>
</g>
<!-- Node3 -->
<g id="Node000003" class="node">
<title>Node3</title>
<g id="a_Node000003"><a xlink:href="interfacefiftyone_1_1pipeline_1_1core_1_1data_1_1_element_data.html" target="_top" xlink:title="Represents property values that have be determined by a specific FlowElement based on the supplied ev...">
<polygon fill="white" stroke="#666666" points="158.5,-191 11.5,-191 11.5,-161 158.5,-161 158.5,-191"/>
<text text-anchor="start" x="19.5" y="-179" font-family="Helvetica,sans-Serif" font-size="10.00">fiftyone.pipeline.core.data.</text>
<text text-anchor="middle" x="85" y="-168" font-family="Helvetica,sans-Serif" font-size="10.00">ElementData</text>
</a>
</g>
</g>
<!-- Node3&#45;&gt;Node2 -->
<g id="edge2_Node000002_Node000003" class="edge">
<title>Node3&#45;&gt;Node2</title>
<g id="a_edge2_Node000002_Node000003"><a xlink:title=" ">
<path fill="none" stroke="#63b8ff" d="M85,-150.61C85,-141.65 85,-131.82 85,-124.08"/>
<polygon fill="#63b8ff" stroke="#63b8ff" points="81.5,-150.9 85,-160.9 88.5,-150.9 81.5,-150.9"/>
</a>
</g>
</g>
<!-- Node4 -->
<g id="Node000004" class="node">
<title>Node4</title>
<g id="a_Node000004"><a xlink:href="interfacefiftyone_1_1pipeline_1_1core_1_1data_1_1_data.html" target="_top" xlink:title="Represents a collection of property values.">
<polygon fill="white" stroke="#666666" points="170,-247 0,-247 0,-228 170,-228 170,-247"/>
<text text-anchor="middle" x="85" y="-235" font-family="Helvetica,sans-Serif" font-size="10.00">fiftyone.pipeline.core.data.Data</text>
</a>
</g>
</g>
<!-- Node4&#45;&gt;Node3 -->
<g id="edge3_Node000003_Node000004" class="edge">
<title>Node4&#45;&gt;Node3</title>
<g id="a_edge3_Node000003_Node000004"><a xlink:title=" ">
<path fill="none" stroke="#63b8ff" d="M85,-217.73C85,-209.09 85,-199 85,-191.02"/>
<polygon fill="#63b8ff" stroke="#63b8ff" points="81.5,-217.98 85,-227.98 88.5,-217.98 81.5,-217.98"/>
</a>
</g>
</g>
</g>
</svg>
