<?xml version="1.0" encoding="UTF-8" standalone="no"?>
<!DOCTYPE svg PUBLIC "-//W3C//DTD SVG 1.1//EN"
 "http://www.w3.org/Graphics/SVG/1.1/DTD/svg11.dtd">
<!-- Generated by graphviz version 2.43.0 (0)
 -->
<!-- Title: fiftyone.pipeline.core.services.PipelineService Pages: 1 -->
<svg width="612pt" height="134pt"
 viewBox="0.00 0.00 612.00 134.00" xmlns="http://www.w3.org/2000/svg" xmlns:xlink="http://www.w3.org/1999/xlink">
<g id="graph0" class="graph" transform="scale(1 1) rotate(0) translate(4 130)">
<title>fiftyone.pipeline.core.services.PipelineService</title>
<!-- Node1 -->
<g id="Node000001" class="node">
<title>Node1</title>
<g id="a_Node000001"><a xlink:title="Service interface used by PipelineBuilder to hand out services to elements which required them.">
<polygon fill="#999999" stroke="#666666" points="166,-78 0,-78 0,-48 166,-48 166,-78"/>
<text text-anchor="start" x="8" y="-66" font-family="Helvetica,sans-Serif" font-size="10.00">fiftyone.pipeline.core.services.</text>
<text text-anchor="middle" x="83" y="-55" font-family="Helvetica,sans-Serif" font-size="10.00">PipelineService</text>
</a>
</g>
</g>
<!-- Node2 -->
<g id="Node000002" class="node">
<title>Node2</title>
<g id="a_Node000002"><a xlink:href="interfacefiftyone_1_1pipeline_1_1engines_1_1services_1_1_data_update_service.html" target="_top" xlink:title="The data update service keeps AspectEngine’s data files up to date.">
<polygon fill="white" stroke="#666666" points="385,-126 202,-126 202,-96 385,-96 385,-126"/>
<text text-anchor="start" x="210" y="-114" font-family="Helvetica,sans-Serif" font-size="10.00">fiftyone.pipeline.engines.services.</text>
<text text-anchor="middle" x="293.5" y="-103" font-family="Helvetica,sans-Serif" font-size="10.00">DataUpdateService</text>
</a>
</g>
</g>
<!-- Node1&#45;&gt;Node2 -->
<g id="edge1_Node000001_Node000002" class="edge">
<title>Node1&#45;&gt;Node2</title>
<g id="a_edge1_Node000001_Node000002"><a xlink:title=" ">
<path fill="none" stroke="#63b8ff" d="M159.16,-80.3C181.47,-85.44 205.71,-91.02 227.33,-96"/>
<polygon fill="#63b8ff" stroke="#63b8ff" points="159.93,-76.89 149.4,-78.06 158.36,-83.71 159.93,-76.89"/>
</a>
</g>
</g>
<!-- Node4 -->
<g id="Node000004" class="node">
<title>Node4</title>
<g id="a_Node000004"><a xlink:href="interfacefiftyone_1_1pipeline_1_1engines_1_1services_1_1_http_client.html" target="_top" xlink:title="Interface used by the DataUpdateService to process HTTP requests.">
<polygon fill="white" stroke="#666666" points="385,-78 202,-78 202,-48 385,-48 385,-78"/>
<text text-anchor="start" x="210" y="-66" font-family="Helvetica,sans-Serif" font-size="10.00">fiftyone.pipeline.engines.services.</text>
<text text-anchor="middle" x="293.5" y="-55" font-family="Helvetica,sans-Serif" font-size="10.00">HttpClient</text>
</a>
</g>
</g>
<!-- Node1&#45;&gt;Node4 -->
<g id="edge3_Node000001_Node000004" class="edge">
<title>Node1&#45;&gt;Node4</title>
<g id="a_edge3_Node000001_Node000004"><a xlink:title=" ">
<path fill="none" stroke="#63b8ff" d="M176.37,-63C184.84,-63 193.41,-63 201.86,-63"/>
<polygon fill="#63b8ff" stroke="#63b8ff" points="176.11,-59.5 166.11,-63 176.11,-66.5 176.11,-59.5"/>
</a>
</g>
</g>
<!-- Node6 -->
<g id="Node000006" class="node">
<title>Node6</title>
<g id="a_Node000006"><a xlink:href="interfacefiftyone_1_1pipeline_1_1engines_1_1services_1_1_missing_property_service.html" target="_top" xlink:title="Service used by AspectEngines to report the reason for a property not being present in the results.">
<polygon fill="white" stroke="#666666" points="385,-30 202,-30 202,0 385,0 385,-30"/>
<text text-anchor="start" x="210" y="-18" font-family="Helvetica,sans-Serif" font-size="10.00">fiftyone.pipeline.engines.services.</text>
<text text-anchor="middle" x="293.5" y="-7" font-family="Helvetica,sans-Serif" font-size="10.00">MissingPropertyService</text>
</a>
</g>
</g>
<!-- Node1&#45;&gt;Node6 -->
<g id="edge5_Node000001_Node000006" class="edge">
<title>Node1&#45;&gt;Node6</title>
<g id="a_edge5_Node000001_Node000006"><a xlink:title=" ">
<path fill="none" stroke="#63b8ff" d="M159.16,-45.7C181.47,-40.56 205.71,-34.98 227.33,-30"/>
<polygon fill="#63b8ff" stroke="#63b8ff" points="158.36,-42.29 149.4,-47.94 159.93,-49.11 158.36,-42.29"/>
</a>
</g>
</g>
<!-- Node3 -->
<g id="Node000003" class="node">
<title>Node3</title>
<g id="a_Node000003"><a xlink:href="classfiftyone_1_1pipeline_1_1engines_1_1services_1_1_data_update_service_default.html" target="_top" xlink:title="Default singleton implementation of the DataUpdateService.">
<polygon fill="white" stroke="#666666" points="604,-126 421,-126 421,-96 604,-96 604,-126"/>
<text text-anchor="start" x="429" y="-114" font-family="Helvetica,sans-Serif" font-size="10.00">fiftyone.pipeline.engines.services.</text>
<text text-anchor="middle" x="512.5" y="-103" font-family="Helvetica,sans-Serif" font-size="10.00">DataUpdateServiceDefault</text>
</a>
</g>
</g>
<!-- Node2&#45;&gt;Node3 -->
<g id="edge2_Node000002_Node000003" class="edge">
<title>Node2&#45;&gt;Node3</title>
<g id="a_edge2_Node000002_Node000003"><a xlink:title=" ">
<path fill="none" stroke="#63b8ff" d="M395.5,-111C403.92,-111 412.41,-111 420.74,-111"/>
<polygon fill="#63b8ff" stroke="#63b8ff" points="395.27,-107.5 385.27,-111 395.27,-114.5 395.27,-107.5"/>
</a>
</g>
</g>
<!-- Node5 -->
<g id="Node000005" class="node">
<title>Node5</title>
<g id="a_Node000005"><a xlink:href="classfiftyone_1_1pipeline_1_1engines_1_1services_1_1_http_client_default.html" target="_top" xlink:title=" ">
<polygon fill="white" stroke="#bfbfbf" points="604,-78 421,-78 421,-48 604,-48 604,-78"/>
<text text-anchor="start" x="429" y="-66" font-family="Helvetica,sans-Serif" font-size="10.00">fiftyone.pipeline.engines.services.</text>
<text text-anchor="middle" x="512.5" y="-55" font-family="Helvetica,sans-Serif" font-size="10.00">HttpClientDefault</text>
</a>
</g>
</g>
<!-- Node4&#45;&gt;Node5 -->
<g id="edge4_Node000004_Node000005" class="edge">
<title>Node4&#45;&gt;Node5</title>
<g id="a_edge4_Node000004_Node000005"><a xlink:title=" ">
<path fill="none" stroke="#63b8ff" d="M395.5,-63C403.92,-63 412.41,-63 420.74,-63"/>
<polygon fill="#63b8ff" stroke="#63b8ff" points="395.27,-59.5 385.27,-63 395.27,-66.5 395.27,-59.5"/>
</a>
</g>
</g>
<!-- Node7 -->
<g id="Node000007" class="node">
<title>Node7</title>
<g id="a_Node000007"><a xlink:href="classfiftyone_1_1pipeline_1_1engines_1_1services_1_1_missing_property_service_default.html" target="_top" xlink:title="Default implementation of the MissingPropertyService interface.">
<polygon fill="white" stroke="#666666" points="604,-30 421,-30 421,0 604,0 604,-30"/>
<text text-anchor="start" x="429" y="-18" font-family="Helvetica,sans-Serif" font-size="10.00">fiftyone.pipeline.engines.services.</text>
<text text-anchor="middle" x="512.5" y="-7" font-family="Helvetica,sans-Serif" font-size="10.00">MissingPropertyServiceDefault</text>
</a>
</g>
</g>
<!-- Node6&#45;&gt;Node7 -->
<g id="edge6_Node000006_Node000007" class="edge">
<title>Node6&#45;&gt;Node7</title>
<g id="a_edge6_Node000006_Node000007"><a xlink:title=" ">
<path fill="none" stroke="#63b8ff" d="M395.5,-15C403.92,-15 412.41,-15 420.74,-15"/>
<polygon fill="#63b8ff" stroke="#63b8ff" points="395.27,-11.5 385.27,-15 395.27,-18.5 395.27,-11.5"/>
</a>
</g>
</g>
</g>
</svg>
