<?xml version="1.0" encoding="UTF-8" standalone="no"?>
<!DOCTYPE svg PUBLIC "-//W3C//DTD SVG 1.1//EN"
 "http://www.w3.org/Graphics/SVG/1.1/DTD/svg11.dtd">
<!-- Generated by graphviz version 2.43.0 (0)
 -->
<!-- Title: fiftyone.pipeline.engines.fiftyone.flowelements.FiftyOneAspectEngine&lt; TData extends AspectData, TProperty extends FiftyOneAspectPropertyMetaData &gt; Pages: 1 -->
<svg width="2061pt" height="261pt"
 viewBox="0.00 0.00 2061.00 260.50" xmlns="http://www.w3.org/2000/svg" xmlns:xlink="http://www.w3.org/1999/xlink">
<g id="graph0" class="graph" transform="scale(1 1) rotate(0) translate(4 256.5)">
<title>fiftyone.pipeline.engines.fiftyone.flowelements.FiftyOneAspectEngine&lt; TData extends AspectData, TProperty extends FiftyOneAspectPropertyMetaData &gt;</title>
<!-- Node1 -->
<g id="Node000001" class="node">
<title>Node1</title>
<g id="a_Node000001"><a xlink:title="51Degrees specific Engine interface.">
<polygon fill="#999999" stroke="#666666" points="2053,-150.5 1764,-150.5 1764,-98.5 2053,-98.5 2053,-150.5"/>
<text text-anchor="start" x="1772" y="-138.5" font-family="Helvetica,sans-Serif" font-size="10.00">fiftyone.pipeline.engines.fiftyone.flowelements.</text>
<text text-anchor="start" x="1772" y="-127.5" font-family="Helvetica,sans-Serif" font-size="10.00">FiftyOneAspectEngine&lt; TData extends</text>
<text text-anchor="start" x="1772" y="-116.5" font-family="Helvetica,sans-Serif" font-size="10.00"> AspectData, TProperty extends FiftyOneAspectProperty</text>
<text text-anchor="middle" x="1908.5" y="-105.5" font-family="Helvetica,sans-Serif" font-size="10.00">MetaData &gt;</text>
</a>
</g>
</g>
<!-- Node2 -->
<g id="Node000002" class="node">
<title>Node2</title>
<g id="a_Node000002"><a xlink:href="interfacefiftyone_1_1pipeline_1_1engines_1_1flowelements_1_1_on_premise_aspect_engine.html" target="_top" xlink:title="Aspect engine interface which processes data internally using a data file and populates the results.">
<polygon fill="white" stroke="#666666" points="1727,-150.5 1479,-150.5 1479,-98.5 1727,-98.5 1727,-150.5"/>
<text text-anchor="start" x="1487" y="-138.5" font-family="Helvetica,sans-Serif" font-size="10.00">fiftyone.pipeline.engines.flowelements.</text>
<text text-anchor="start" x="1487" y="-127.5" font-family="Helvetica,sans-Serif" font-size="10.00">OnPremiseAspectEngine&lt; TData extends</text>
<text text-anchor="start" x="1487" y="-116.5" font-family="Helvetica,sans-Serif" font-size="10.00"> AspectData, TProperty extends AspectProperty</text>
<text text-anchor="middle" x="1603" y="-105.5" font-family="Helvetica,sans-Serif" font-size="10.00">MetaData &gt;</text>
</a>
</g>
</g>
<!-- Node2&#45;&gt;Node1 -->
<g id="edge1_Node000001_Node000002" class="edge">
<title>Node2&#45;&gt;Node1</title>
<g id="a_edge1_Node000001_Node000002"><a xlink:title=" ">
<path fill="none" stroke="#63b8ff" d="M1737.03,-124.5C1745.95,-124.5 1754.96,-124.5 1763.92,-124.5"/>
<polygon fill="#63b8ff" stroke="#63b8ff" points="1737.01,-121 1727.01,-124.5 1737.01,-128 1737.01,-121"/>
</a>
</g>
</g>
<!-- Node3 -->
<g id="Node000003" class="node">
<title>Node3</title>
<g id="a_Node000003"><a xlink:href="interfacefiftyone_1_1pipeline_1_1engines_1_1flowelements_1_1_aspect_engine.html" target="_top" xlink:title=" ">
<polygon fill="white" stroke="#666666" points="1389,-139.5 1180,-139.5 1180,-109.5 1389,-109.5 1389,-139.5"/>
<text text-anchor="start" x="1188" y="-127.5" font-family="Helvetica,sans-Serif" font-size="10.00">fiftyone.pipeline.engines.flowelements.</text>
<text text-anchor="middle" x="1284.5" y="-116.5" font-family="Helvetica,sans-Serif" font-size="10.00">AspectEngine&lt; TData, TProperty &gt;</text>
</a>
</g>
</g>
<!-- Node3&#45;&gt;Node2 -->
<g id="edge2_Node000002_Node000003" class="edge">
<title>Node3&#45;&gt;Node2</title>
<g id="a_edge2_Node000002_Node000003"><a xlink:title=" ">
<path fill="none" stroke="#63b8ff" d="M1399.32,-124.5C1425.13,-124.5 1452.66,-124.5 1478.85,-124.5"/>
<polygon fill="#63b8ff" stroke="#63b8ff" points="1399.13,-121 1389.13,-124.5 1399.13,-128 1399.13,-121"/>
</a>
</g>
</g>
<!-- Node4 -->
<g id="Node000004" class="node">
<title>Node4</title>
<g id="a_Node000004"><a xlink:href="interfacefiftyone_1_1pipeline_1_1engines_1_1flowelements_1_1_aspect_engine.html" target="_top" xlink:title="AspectEngines are a subset of FlowElements.">
<polygon fill="white" stroke="#666666" points="1032,-145 787,-145 787,-104 1032,-104 1032,-145"/>
<text text-anchor="start" x="795" y="-133" font-family="Helvetica,sans-Serif" font-size="10.00">fiftyone.pipeline.engines.flowelements.</text>
<text text-anchor="start" x="795" y="-122" font-family="Helvetica,sans-Serif" font-size="10.00">AspectEngine&lt; TData extends AspectData,</text>
<text text-anchor="middle" x="909.5" y="-111" font-family="Helvetica,sans-Serif" font-size="10.00"> TProperty extends AspectPropertyMetaData &gt;</text>
</a>
</g>
</g>
<!-- Node4&#45;&gt;Node3 -->
<g id="edge3_Node000003_Node000004" class="edge">
<title>Node4&#45;&gt;Node3</title>
<g id="a_edge3_Node000003_Node000004"><a xlink:title=" ">
<path fill="none" stroke="orange" stroke-dasharray="5,2" d="M1042.28,-124.5C1087.43,-124.5 1137.27,-124.5 1179.87,-124.5"/>
<polygon fill="orange" stroke="orange" points="1042.12,-121 1032.12,-124.5 1042.12,-128 1042.12,-121"/>
</a>
</g>
<text text-anchor="start" x="1053" y="-130" font-family="Helvetica,sans-Serif" font-size="10.00" fill="grey">&lt; TData, TProperty &gt;</text>
</g>
<!-- Node5 -->
<g id="Node000005" class="node">
<title>Node5</title>
<g id="a_Node000005"><a xlink:href="interfacefiftyone_1_1pipeline_1_1core_1_1flowelements_1_1_flow_element.html" target="_top" xlink:title="A component that processes a FlowData (by examining its evidence, or by examining data processed by o...">
<polygon fill="white" stroke="#666666" points="697,-145 444,-145 444,-104 697,-104 697,-145"/>
<text text-anchor="start" x="452" y="-133" font-family="Helvetica,sans-Serif" font-size="10.00">fiftyone.pipeline.core.flowelements.</text>
<text text-anchor="start" x="452" y="-122" font-family="Helvetica,sans-Serif" font-size="10.00">FlowElement&lt; TData extends ElementData,</text>
<text text-anchor="middle" x="570.5" y="-111" font-family="Helvetica,sans-Serif" font-size="10.00"> TProperty extends ElementPropertyMetaData &gt;</text>
</a>
</g>
</g>
<!-- Node5&#45;&gt;Node4 -->
<g id="edge4_Node000004_Node000005" class="edge">
<title>Node5&#45;&gt;Node4</title>
<g id="a_edge4_Node000004_Node000005"><a xlink:title=" ">
<path fill="none" stroke="#63b8ff" d="M707.47,-124.5C733.74,-124.5 761.11,-124.5 786.88,-124.5"/>
<polygon fill="#63b8ff" stroke="#63b8ff" points="707.47,-121 697.47,-124.5 707.47,-128 707.47,-121"/>
</a>
</g>
</g>
<!-- Node6 -->
<g id="Node000006" class="node">
<title>Node6</title>
<g id="a_Node000006"><a xlink:title=" ">
<polygon fill="white" stroke="#bfbfbf" points="324,-134 237,-134 237,-115 324,-115 324,-134"/>
<text text-anchor="middle" x="280.5" y="-122" font-family="Helvetica,sans-Serif" font-size="10.00">AutoCloseable</text>
</a>
</g>
</g>
<!-- Node6&#45;&gt;Node5 -->
<g id="edge5_Node000005_Node000006" class="edge">
<title>Node6&#45;&gt;Node5</title>
<g id="a_edge5_Node000005_Node000006"><a xlink:title=" ">
<path fill="none" stroke="#63b8ff" d="M334.37,-124.5C365.15,-124.5 405.37,-124.5 443.82,-124.5"/>
<polygon fill="#63b8ff" stroke="#63b8ff" points="334.31,-121 324.31,-124.5 334.31,-128 334.31,-121"/>
</a>
</g>
</g>
<!-- Node7 -->
<g id="Node000007" class="node">
<title>Node7</title>
<g id="a_Node000007"><a xlink:href="interfacefiftyone_1_1pipeline_1_1core_1_1data_1_1_element_data.html" target="_top" xlink:title="Represents property values that have be determined by a specific FlowElement based on the supplied ev...">
<polygon fill="white" stroke="#666666" points="354,-193.5 207,-193.5 207,-163.5 354,-163.5 354,-193.5"/>
<text text-anchor="start" x="215" y="-181.5" font-family="Helvetica,sans-Serif" font-size="10.00">fiftyone.pipeline.core.data.</text>
<text text-anchor="middle" x="280.5" y="-170.5" font-family="Helvetica,sans-Serif" font-size="10.00">ElementData</text>
</a>
</g>
</g>
<!-- Node7&#45;&gt;Node5 -->
<g id="edge6_Node000005_Node000007" class="edge">
<title>Node7&#45;&gt;Node5</title>
<g id="a_edge6_Node000005_Node000007"><a xlink:title=" ">
<path fill="none" stroke="orange" stroke-dasharray="5,2" d="M363.97,-162.04C366.68,-161.52 369.36,-161 372,-160.5 398.88,-155.38 427.84,-150.01 455.08,-145.03"/>
<polygon fill="orange" stroke="orange" points="363.24,-158.62 354.09,-163.96 364.58,-165.49 363.24,-158.62"/>
</a>
</g>
<text text-anchor="start" x="384" y="-166" font-family="Helvetica,sans-Serif" font-size="10.00" fill="grey">TData</text>
</g>
<!-- Node10 -->
<g id="Node000010" class="node">
<title>Node10</title>
<g id="a_Node000010"><a xlink:href="interfacefiftyone_1_1pipeline_1_1engines_1_1data_1_1_aspect_data.html" target="_top" xlink:title="Represents a specialized ElementData instance that is generated by an AspectEngine.">
<polygon fill="white" stroke="#666666" points="652.5,-204.5 488.5,-204.5 488.5,-174.5 652.5,-174.5 652.5,-204.5"/>
<text text-anchor="start" x="496.5" y="-192.5" font-family="Helvetica,sans-Serif" font-size="10.00">fiftyone.pipeline.engines.data.</text>
<text text-anchor="middle" x="570.5" y="-181.5" font-family="Helvetica,sans-Serif" font-size="10.00">AspectData</text>
</a>
</g>
</g>
<!-- Node7&#45;&gt;Node10 -->
<g id="edge10_Node000010_Node000007" class="edge">
<title>Node7&#45;&gt;Node10</title>
<g id="a_edge10_Node000010_Node000007"><a xlink:title=" ">
<path fill="none" stroke="#63b8ff" d="M364.44,-181.67C403.42,-183.16 449.73,-184.93 488.47,-186.41"/>
<polygon fill="#63b8ff" stroke="#63b8ff" points="364.3,-178.16 354.17,-181.28 364.03,-185.15 364.3,-178.16"/>
</a>
</g>
</g>
<!-- Node8 -->
<g id="Node000008" class="node">
<title>Node8</title>
<g id="a_Node000008"><a xlink:href="interfacefiftyone_1_1pipeline_1_1core_1_1data_1_1_data.html" target="_top" xlink:title="Represents a collection of property values.">
<polygon fill="white" stroke="#666666" points="170,-188 0,-188 0,-169 170,-169 170,-188"/>
<text text-anchor="middle" x="85" y="-176" font-family="Helvetica,sans-Serif" font-size="10.00">fiftyone.pipeline.core.data.Data</text>
</a>
</g>
</g>
<!-- Node8&#45;&gt;Node7 -->
<g id="edge7_Node000007_Node000008" class="edge">
<title>Node8&#45;&gt;Node7</title>
<g id="a_edge7_Node000007_Node000008"><a xlink:title=" ">
<path fill="none" stroke="#63b8ff" d="M180.11,-178.5C189.07,-178.5 198.06,-178.5 206.77,-178.5"/>
<polygon fill="#63b8ff" stroke="#63b8ff" points="180.03,-175 170.03,-178.5 180.03,-182 180.03,-175"/>
</a>
</g>
</g>
<!-- Node9 -->
<g id="Node000009" class="node">
<title>Node9</title>
<g id="a_Node000009"><a xlink:href="interfacefiftyone_1_1pipeline_1_1core_1_1data_1_1_element_property_meta_data.html" target="_top" xlink:title="Defines details of a property that can be returned by a FlowElement.">
<polygon fill="white" stroke="#666666" points="354,-85.5 207,-85.5 207,-55.5 354,-55.5 354,-85.5"/>
<text text-anchor="start" x="215" y="-73.5" font-family="Helvetica,sans-Serif" font-size="10.00">fiftyone.pipeline.core.data.</text>
<text text-anchor="middle" x="280.5" y="-62.5" font-family="Helvetica,sans-Serif" font-size="10.00">ElementPropertyMetaData</text>
</a>
</g>
</g>
<!-- Node9&#45;&gt;Node5 -->
<g id="edge8_Node000005_Node000009" class="edge">
<title>Node9&#45;&gt;Node5</title>
<g id="a_edge8_Node000005_Node000009"><a xlink:title=" ">
<path fill="none" stroke="orange" stroke-dasharray="5,2" d="M364.13,-85.99C394.02,-91.6 428.24,-98.01 460.07,-103.98"/>
<polygon fill="orange" stroke="orange" points="364.65,-82.53 354.17,-84.13 363.36,-89.41 364.65,-82.53"/>
</a>
</g>
<text text-anchor="start" x="375" y="-103" font-family="Helvetica,sans-Serif" font-size="10.00" fill="grey">TProperty</text>
</g>
<!-- Node11 -->
<g id="Node000011" class="node">
<title>Node11</title>
<g id="a_Node000011"><a xlink:href="interfacefiftyone_1_1pipeline_1_1engines_1_1data_1_1_aspect_property_meta_data.html" target="_top" xlink:title="Holds details about a property that can be returned by an AspectEngine.">
<polygon fill="white" stroke="#666666" points="652.5,-74.5 488.5,-74.5 488.5,-44.5 652.5,-44.5 652.5,-74.5"/>
<text text-anchor="start" x="496.5" y="-62.5" font-family="Helvetica,sans-Serif" font-size="10.00">fiftyone.pipeline.engines.data.</text>
<text text-anchor="middle" x="570.5" y="-51.5" font-family="Helvetica,sans-Serif" font-size="10.00">AspectPropertyMetaData</text>
</a>
</g>
</g>
<!-- Node9&#45;&gt;Node11 -->
<g id="edge12_Node000011_Node000009" class="edge">
<title>Node9&#45;&gt;Node11</title>
<g id="a_edge12_Node000011_Node000009"><a xlink:title=" ">
<path fill="none" stroke="#63b8ff" d="M364.44,-67.33C403.42,-65.84 449.73,-64.07 488.47,-62.59"/>
<polygon fill="#63b8ff" stroke="#63b8ff" points="364.03,-63.85 354.17,-67.72 364.3,-70.84 364.03,-63.85"/>
</a>
</g>
</g>
<!-- Node10&#45;&gt;Node1 -->
<g id="edge15_Node000001_Node000010" class="edge">
<title>Node10&#45;&gt;Node1</title>
<g id="a_edge15_Node000001_Node000010"><a xlink:title=" ">
<path fill="none" stroke="orange" stroke-dasharray="5,2" d="M651.04,-206.55C719.07,-219.65 819.76,-235.5 908.5,-235.5 908.5,-235.5 908.5,-235.5 1604,-235.5 1702.46,-235.5 1808.56,-183.33 1865.55,-150.52"/>
<polygon fill="orange" stroke="orange" points="651.31,-203.04 640.83,-204.56 649.97,-209.91 651.31,-203.04"/>
</a>
</g>
<text text-anchor="start" x="1269.5" y="-241" font-family="Helvetica,sans-Serif" font-size="10.00" fill="grey">TData</text>
</g>
<!-- Node10&#45;&gt;Node2 -->
<g id="edge13_Node000002_Node000010" class="edge">
<title>Node10&#45;&gt;Node2</title>
<g id="a_edge13_Node000002_Node000010"><a xlink:title=" ">
<path fill="none" stroke="orange" stroke-dasharray="5,2" d="M662.7,-186.77C813.86,-181.84 1125.76,-169.91 1389,-148.5 1418.12,-146.13 1449.4,-142.96 1478.79,-139.7"/>
<polygon fill="orange" stroke="orange" points="662.42,-183.28 652.54,-187.1 662.65,-190.28 662.42,-183.28"/>
</a>
</g>
<text text-anchor="start" x="1091" y="-175" font-family="Helvetica,sans-Serif" font-size="10.00" fill="grey">TData</text>
</g>
<!-- Node10&#45;&gt;Node4 -->
<g id="edge9_Node000004_Node000010" class="edge">
<title>Node10&#45;&gt;Node4</title>
<g id="a_edge9_Node000004_Node000010"><a xlink:title=" ">
<path fill="none" stroke="orange" stroke-dasharray="5,2" d="M648.59,-172.27C670.06,-167.63 693.41,-162.73 715,-158.5 738.35,-153.93 763.34,-149.32 787.34,-145.04"/>
<polygon fill="orange" stroke="orange" points="647.58,-168.91 638.55,-174.45 649.07,-175.75 647.58,-168.91"/>
</a>
</g>
<text text-anchor="start" x="727" y="-164" font-family="Helvetica,sans-Serif" font-size="10.00" fill="grey">TData</text>
</g>
<!-- Node11&#45;&gt;Node2 -->
<g id="edge14_Node000002_Node000011" class="edge">
<title>Node11&#45;&gt;Node2</title>
<g id="a_edge14_Node000002_Node000011"><a xlink:title=" ">
<path fill="none" stroke="orange" stroke-dasharray="5,2" d="M662.7,-62.23C813.86,-67.16 1125.76,-79.09 1389,-100.5 1418.12,-102.87 1449.4,-106.04 1478.79,-109.3"/>
<polygon fill="orange" stroke="orange" points="662.65,-58.72 652.54,-61.9 662.42,-65.72 662.65,-58.72"/>
</a>
</g>
<text text-anchor="start" x="1082" y="-90" font-family="Helvetica,sans-Serif" font-size="10.00" fill="grey">TProperty</text>
</g>
<!-- Node11&#45;&gt;Node4 -->
<g id="edge11_Node000004_Node000011" class="edge">
<title>Node11&#45;&gt;Node4</title>
<g id="a_edge11_Node000004_Node000011"><a xlink:title=" ">
<path fill="none" stroke="orange" stroke-dasharray="5,2" d="M659.67,-76.51C703.26,-84.91 756.21,-95.13 802.04,-103.97"/>
<polygon fill="orange" stroke="orange" points="660.14,-73.03 649.66,-74.58 658.82,-79.91 660.14,-73.03"/>
</a>
</g>
<text text-anchor="start" x="718" y="-101" font-family="Helvetica,sans-Serif" font-size="10.00" fill="grey">TProperty</text>
</g>
<!-- Node12 -->
<g id="Node000012" class="node">
<title>Node12</title>
<g id="a_Node000012"><a xlink:href="interfacefiftyone_1_1pipeline_1_1engines_1_1fiftyone_1_1data_1_1_fifty_one_aspect_property_meta_data.html" target="_top" xlink:title="51Degrees specific meta data.">
<polygon fill="white" stroke="#666666" points="1011.5,-31.5 807.5,-31.5 807.5,-1.5 1011.5,-1.5 1011.5,-31.5"/>
<text text-anchor="start" x="815.5" y="-19.5" font-family="Helvetica,sans-Serif" font-size="10.00">fiftyone.pipeline.engines.fiftyone.data.</text>
<text text-anchor="middle" x="909.5" y="-8.5" font-family="Helvetica,sans-Serif" font-size="10.00">FiftyOneAspectPropertyMetaData</text>
</a>
</g>
</g>
<!-- Node11&#45;&gt;Node12 -->
<g id="edge17_Node000012_Node000011" class="edge">
<title>Node11&#45;&gt;Node12</title>
<g id="a_edge17_Node000012_Node000011"><a xlink:title=" ">
<path fill="none" stroke="#63b8ff" d="M662.62,-47.87C707.31,-42.17 761.27,-35.29 807.24,-29.42"/>
<polygon fill="#63b8ff" stroke="#63b8ff" points="662.13,-44.41 652.65,-49.15 663.01,-51.35 662.13,-44.41"/>
</a>
</g>
</g>
<!-- Node12&#45;&gt;Node1 -->
<g id="edge16_Node000001_Node000012" class="edge">
<title>Node12&#45;&gt;Node1</title>
<g id="a_edge16_Node000001_Node000012"><a xlink:title=" ">
<path fill="none" stroke="orange" stroke-dasharray="5,2" d="M1021.94,-22.84C1179.51,-32.62 1476.21,-54.07 1727,-89.5 1744.86,-92.02 1763.63,-95.14 1782.03,-98.46"/>
<polygon fill="orange" stroke="orange" points="1021.96,-19.33 1011.76,-22.21 1021.52,-26.32 1021.96,-19.33"/>
</a>
</g>
<text text-anchor="start" x="1410" y="-64" font-family="Helvetica,sans-Serif" font-size="10.00" fill="grey">TProperty</text>
</g>
<!-- Node13 -->
<g id="Node000013" class="node">
<title>Node13</title>
<g id="a_Node000013"><a xlink:title=" ">
<polygon fill="white" stroke="#bfbfbf" points="603,-19 538,-19 538,0 603,0 603,-19"/>
<text text-anchor="middle" x="570.5" y="-7" font-family="Helvetica,sans-Serif" font-size="10.00">Closeable</text>
</a>
</g>
</g>
<!-- Node13&#45;&gt;Node12 -->
<g id="edge18_Node000012_Node000013" class="edge">
<title>Node13&#45;&gt;Node12</title>
<g id="a_edge18_Node000012_Node000013"><a xlink:title=" ">
<path fill="none" stroke="#63b8ff" d="M613.26,-10.37C661.46,-11.37 742.41,-13.05 807.37,-14.4"/>
<polygon fill="#63b8ff" stroke="#63b8ff" points="613.27,-6.87 603.2,-10.16 613.13,-13.87 613.27,-6.87"/>
</a>
</g>
</g>
</g>
</svg>
