<?xml version="1.0" encoding="UTF-8" standalone="no"?>
<!DOCTYPE svg PUBLIC "-//W3C//DTD SVG 1.1//EN"
 "http://www.w3.org/Graphics/SVG/1.1/DTD/svg11.dtd">
<!-- Generated by graphviz version 2.43.0 (0)
 -->
<!-- Title: fiftyone.pipeline.web.mvc.components.FlowDataProvider Pages: 1 -->
<svg width="217pt" height="170pt"
 viewBox="0.00 0.00 217.00 170.00" xmlns="http://www.w3.org/2000/svg" xmlns:xlink="http://www.w3.org/1999/xlink">
<g id="graph0" class="graph" transform="scale(1 1) rotate(0) translate(4 166)">
<title>fiftyone.pipeline.web.mvc.components.FlowDataProvider</title>
<!-- Node1 -->
<g id="Node000001" class="node">
<title>Node1</title>
<g id="a_Node000001"><a xlink:title="Spring framework component for the FlowDataProviderCore.">
<polygon fill="#999999" stroke="#666666" points="209,-96 0,-96 0,-66 209,-66 209,-96"/>
<text text-anchor="start" x="8" y="-84" font-family="Helvetica,sans-Serif" font-size="10.00">fiftyone.pipeline.web.mvc.components.</text>
<text text-anchor="middle" x="104.5" y="-73" font-family="Helvetica,sans-Serif" font-size="10.00">FlowDataProvider</text>
</a>
</g>
</g>
<!-- Node3 -->
<g id="Node000003" class="node">
<title>Node3</title>
<g id="a_Node000003"><a xlink:href="classfiftyone_1_1pipeline_1_1web_1_1mvc_1_1components_1_1_flow_data_provider_1_1_default.html" target="_top" xlink:title=" ">
<polygon fill="white" stroke="#bfbfbf" points="209,-30 0,-30 0,0 209,0 209,-30"/>
<text text-anchor="start" x="8" y="-18" font-family="Helvetica,sans-Serif" font-size="10.00">fiftyone.pipeline.web.mvc.components.</text>
<text text-anchor="middle" x="104.5" y="-7" font-family="Helvetica,sans-Serif" font-size="10.00">FlowDataProvider.Default</text>
</a>
</g>
</g>
<!-- Node1&#45;&gt;Node3 -->
<g id="edge2_Node000001_Node000003" class="edge">
<title>Node1&#45;&gt;Node3</title>
<g id="a_edge2_Node000001_Node000003"><a xlink:title=" ">
<path fill="none" stroke="#63b8ff" d="M104.5,-55.54C104.5,-46.96 104.5,-37.61 104.5,-30.16"/>
<polygon fill="#63b8ff" stroke="#63b8ff" points="101,-55.8 104.5,-65.8 108,-55.8 101,-55.8"/>
</a>
</g>
</g>
<!-- Node2 -->
<g id="Node000002" class="node">
<title>Node2</title>
<g id="a_Node000002"><a xlink:href="interfacefiftyone_1_1pipeline_1_1web_1_1services_1_1_flow_data_provider_core.html" target="_top" xlink:title="Provider to be injected into controllers to get the pre&#45;processed FlowData for the request being serv...">
<polygon fill="white" stroke="#666666" points="187,-162 22,-162 22,-132 187,-132 187,-162"/>
<text text-anchor="start" x="30" y="-150" font-family="Helvetica,sans-Serif" font-size="10.00">fiftyone.pipeline.web.services.</text>
<text text-anchor="middle" x="104.5" y="-139" font-family="Helvetica,sans-Serif" font-size="10.00">FlowDataProviderCore</text>
</a>
</g>
</g>
<!-- Node2&#45;&gt;Node1 -->
<g id="edge1_Node000001_Node000002" class="edge">
<title>Node2&#45;&gt;Node1</title>
<g id="a_edge1_Node000001_Node000002"><a xlink:title=" ">
<path fill="none" stroke="#63b8ff" d="M104.5,-121.54C104.5,-112.96 104.5,-103.61 104.5,-96.16"/>
<polygon fill="#63b8ff" stroke="#63b8ff" points="101,-121.8 104.5,-131.8 108,-121.8 101,-121.8"/>
</a>
</g>
</g>
</g>
</svg>
