<?xml version="1.0" encoding="UTF-8" standalone="no"?>
<!DOCTYPE svg PUBLIC "-//W3C//DTD SVG 1.1//EN"
 "http://www.w3.org/Graphics/SVG/1.1/DTD/svg11.dtd">
<!-- Generated by graphviz version 2.43.0 (0)
 -->
<!-- Title: fiftyone.pipeline.engines.data.AspectData Pages: 1 -->
<svg width="1321pt" height="98pt"
 viewBox="0.00 0.00 1321.00 97.50" xmlns="http://www.w3.org/2000/svg" xmlns:xlink="http://www.w3.org/1999/xlink">
<g id="graph0" class="graph" transform="scale(1 1) rotate(0) translate(4 93.5)">
<title>fiftyone.pipeline.engines.data.AspectData</title>
<!-- Node1 -->
<g id="Node000001" class="node">
<title>Node1</title>
<g id="a_Node000001"><a xlink:title="Represents a specialized ElementData instance that is generated by an AspectEngine.">
<polygon fill="#999999" stroke="#666666" points="553,-62.5 389,-62.5 389,-32.5 553,-32.5 553,-62.5"/>
<text text-anchor="start" x="397" y="-50.5" font-family="Helvetica,sans-Serif" font-size="10.00">fiftyone.pipeline.engines.data.</text>
<text text-anchor="middle" x="471" y="-39.5" font-family="Helvetica,sans-Serif" font-size="10.00">AspectData</text>
</a>
</g>
</g>
<!-- Node4 -->
<g id="Node000004" class="node">
<title>Node4</title>
<g id="a_Node000004"><a xlink:href="classfiftyone_1_1pipeline_1_1engines_1_1data_1_1_aspect_data_base.html" target="_top" xlink:title="Abstract base class for AspectData which overrides the.">
<polygon fill="white" stroke="#666666" points="753,-89.5 589,-89.5 589,-59.5 753,-59.5 753,-89.5"/>
<text text-anchor="start" x="597" y="-77.5" font-family="Helvetica,sans-Serif" font-size="10.00">fiftyone.pipeline.engines.data.</text>
<text text-anchor="middle" x="671" y="-66.5" font-family="Helvetica,sans-Serif" font-size="10.00">AspectDataBase</text>
</a>
</g>
</g>
<!-- Node1&#45;&gt;Node4 -->
<g id="edge3_Node000001_Node000004" class="edge">
<title>Node1&#45;&gt;Node4</title>
<g id="a_edge3_Node000001_Node000004"><a xlink:title=" ">
<path fill="none" stroke="#63b8ff" d="M563.08,-59.92C571.63,-61.09 580.25,-62.26 588.7,-63.41"/>
<polygon fill="#63b8ff" stroke="#63b8ff" points="563.49,-56.44 553.11,-58.56 562.54,-63.38 563.49,-56.44"/>
</a>
</g>
</g>
<!-- Node7 -->
<g id="Node000007" class="node">
<title>Node7</title>
<g id="a_Node000007"><a xlink:href="interfacefiftyone_1_1pipeline_1_1engines_1_1data_1_1_multi_profile_data.html" target="_top" xlink:title="Specialised implementation of AspectData where the instance contains a list of profiles.">
<polygon fill="white" stroke="#666666" points="753,-41 589,-41 589,0 753,0 753,-41"/>
<text text-anchor="start" x="597" y="-29" font-family="Helvetica,sans-Serif" font-size="10.00">fiftyone.pipeline.engines.data.</text>
<text text-anchor="start" x="597" y="-18" font-family="Helvetica,sans-Serif" font-size="10.00">MultiProfileData&lt; T extends</text>
<text text-anchor="middle" x="671" y="-7" font-family="Helvetica,sans-Serif" font-size="10.00"> AspectData &gt;</text>
</a>
</g>
</g>
<!-- Node1&#45;&gt;Node7 -->
<g id="edge6_Node000001_Node000007" class="edge">
<title>Node1&#45;&gt;Node7</title>
<g id="a_edge6_Node000001_Node000007"><a xlink:title=" ">
<path fill="none" stroke="#63b8ff" d="M563.08,-35.08C571.63,-33.91 580.25,-32.74 588.7,-31.59"/>
<polygon fill="#63b8ff" stroke="#63b8ff" points="562.54,-31.62 553.11,-36.44 563.49,-38.56 562.54,-31.62"/>
</a>
</g>
</g>
<!-- Node2 -->
<g id="Node000002" class="node">
<title>Node2</title>
<g id="a_Node000002"><a xlink:href="interfacefiftyone_1_1pipeline_1_1core_1_1data_1_1_element_data.html" target="_top" xlink:title="Represents property values that have be determined by a specific FlowElement based on the supplied ev...">
<polygon fill="white" stroke="#666666" points="353,-62.5 206,-62.5 206,-32.5 353,-32.5 353,-62.5"/>
<text text-anchor="start" x="214" y="-50.5" font-family="Helvetica,sans-Serif" font-size="10.00">fiftyone.pipeline.core.data.</text>
<text text-anchor="middle" x="279.5" y="-39.5" font-family="Helvetica,sans-Serif" font-size="10.00">ElementData</text>
</a>
</g>
</g>
<!-- Node2&#45;&gt;Node1 -->
<g id="edge1_Node000001_Node000002" class="edge">
<title>Node2&#45;&gt;Node1</title>
<g id="a_edge1_Node000001_Node000002"><a xlink:title=" ">
<path fill="none" stroke="#63b8ff" d="M363.46,-47.5C371.92,-47.5 380.51,-47.5 388.95,-47.5"/>
<polygon fill="#63b8ff" stroke="#63b8ff" points="363.22,-44 353.22,-47.5 363.22,-51 363.22,-44"/>
</a>
</g>
</g>
<!-- Node3 -->
<g id="Node000003" class="node">
<title>Node3</title>
<g id="a_Node000003"><a xlink:href="interfacefiftyone_1_1pipeline_1_1core_1_1data_1_1_data.html" target="_top" xlink:title="Represents a collection of property values.">
<polygon fill="white" stroke="#666666" points="170,-57 0,-57 0,-38 170,-38 170,-57"/>
<text text-anchor="middle" x="85" y="-45" font-family="Helvetica,sans-Serif" font-size="10.00">fiftyone.pipeline.core.data.Data</text>
</a>
</g>
</g>
<!-- Node3&#45;&gt;Node2 -->
<g id="edge2_Node000002_Node000003" class="edge">
<title>Node3&#45;&gt;Node2</title>
<g id="a_edge2_Node000002_Node000003"><a xlink:title=" ">
<path fill="none" stroke="#63b8ff" d="M180.27,-47.5C188.91,-47.5 197.57,-47.5 205.97,-47.5"/>
<polygon fill="#63b8ff" stroke="#63b8ff" points="180.15,-44 170.15,-47.5 180.15,-51 180.15,-44"/>
</a>
</g>
</g>
<!-- Node5 -->
<g id="Node000005" class="node">
<title>Node5</title>
<g id="a_Node000005"><a xlink:href="classfiftyone_1_1pipeline_1_1cloudrequestengine_1_1flowelements_1_1_cloud_request_data_internal.html" target="_top" xlink:title=" ">
<polygon fill="white" stroke="#bfbfbf" points="1055,-89.5 789,-89.5 789,-59.5 1055,-59.5 1055,-89.5"/>
<text text-anchor="start" x="797" y="-77.5" font-family="Helvetica,sans-Serif" font-size="10.00">fiftyone.pipeline.cloudrequestengine.flowelements.</text>
<text text-anchor="middle" x="922" y="-66.5" font-family="Helvetica,sans-Serif" font-size="10.00">CloudRequestDataInternal</text>
</a>
</g>
</g>
<!-- Node4&#45;&gt;Node5 -->
<g id="edge4_Node000004_Node000005" class="edge">
<title>Node4&#45;&gt;Node5</title>
<g id="a_edge4_Node000004_Node000005"><a xlink:title=" ">
<path fill="none" stroke="#63b8ff" d="M763.29,-74.5C771.66,-74.5 780.25,-74.5 788.9,-74.5"/>
<polygon fill="#63b8ff" stroke="#63b8ff" points="763.19,-71 753.19,-74.5 763.19,-78 763.19,-71"/>
</a>
</g>
</g>
<!-- Node6 -->
<g id="Node000006" class="node">
<title>Node6</title>
<g id="a_Node000006"><a xlink:href="classfiftyone_1_1pipeline_1_1cloudrequestengine_1_1data_1_1_cloud_request_data.html" target="_top" xlink:title=" ">
<polygon fill="white" stroke="#bfbfbf" points="1313,-89.5 1091,-89.5 1091,-59.5 1313,-59.5 1313,-89.5"/>
<text text-anchor="start" x="1099" y="-77.5" font-family="Helvetica,sans-Serif" font-size="10.00">fiftyone.pipeline.cloudrequestengine.data.</text>
<text text-anchor="middle" x="1202" y="-66.5" font-family="Helvetica,sans-Serif" font-size="10.00">CloudRequestData</text>
</a>
</g>
</g>
<!-- Node5&#45;&gt;Node6 -->
<g id="edge5_Node000005_Node000006" class="edge">
<title>Node5&#45;&gt;Node6</title>
<g id="a_edge5_Node000005_Node000006"><a xlink:title=" ">
<path fill="none" stroke="#63b8ff" d="M1065.14,-74.5C1073.7,-74.5 1082.25,-74.5 1090.66,-74.5"/>
<polygon fill="#63b8ff" stroke="#63b8ff" points="1065.08,-71 1055.08,-74.5 1065.08,-78 1065.08,-71"/>
</a>
</g>
</g>
</g>
</svg>
