<?xml version="1.0" encoding="UTF-8" standalone="no"?>
<!DOCTYPE svg PUBLIC "-//W3C//DTD SVG 1.1//EN"
 "http://www.w3.org/Graphics/SVG/1.1/DTD/svg11.dtd">
<!-- Generated by graphviz version 2.43.0 (0)
 -->
<!-- Title: fiftyone.common.wrappers.data.Source Pages: 1 -->
<svg width="434pt" height="86pt"
 viewBox="0.00 0.00 434.00 86.00" xmlns="http://www.w3.org/2000/svg" xmlns:xlink="http://www.w3.org/1999/xlink">
<g id="graph0" class="graph" transform="scale(1 1) rotate(0) translate(4 82)">
<title>fiftyone.common.wrappers.data.Source</title>
<!-- Node1 -->
<g id="Node000001" class="node">
<title>Node1</title>
<g id="a_Node000001"><a xlink:title=" ">
<polygon fill="#999999" stroke="#666666" points="175,-54 0,-54 0,-24 175,-24 175,-54"/>
<text text-anchor="start" x="8" y="-42" font-family="Helvetica,sans-Serif" font-size="10.00">fiftyone.common.wrappers.data.</text>
<text text-anchor="middle" x="87.5" y="-31" font-family="Helvetica,sans-Serif" font-size="10.00">Source</text>
</a>
</g>
</g>
<!-- Node2 -->
<g id="Node000002" class="node">
<title>Node2</title>
<g id="a_Node000002"><a xlink:href="classfiftyone_1_1common_1_1wrappers_1_1data_1_1direct_1_1_source_memory.html" target="_top" xlink:title=" ">
<polygon fill="white" stroke="#bfbfbf" points="421.5,-78 215.5,-78 215.5,-48 421.5,-48 421.5,-78"/>
<text text-anchor="start" x="223.5" y="-66" font-family="Helvetica,sans-Serif" font-size="10.00">fiftyone.common.wrappers.data.direct.</text>
<text text-anchor="middle" x="318.5" y="-55" font-family="Helvetica,sans-Serif" font-size="10.00">SourceMemory</text>
</a>
</g>
</g>
<!-- Node1&#45;&gt;Node2 -->
<g id="edge1_Node000001_Node000002" class="edge">
<title>Node1&#45;&gt;Node2</title>
<g id="a_edge1_Node000001_Node000002"><a xlink:title=" ">
<path fill="none" stroke="#63b8ff" d="M185.04,-49.12C195.08,-50.17 205.31,-51.24 215.41,-52.3"/>
<polygon fill="#63b8ff" stroke="#63b8ff" points="185.39,-45.63 175.08,-48.07 184.66,-52.6 185.39,-45.63"/>
</a>
</g>
</g>
<!-- Node3 -->
<g id="Node000003" class="node">
<title>Node3</title>
<g id="a_Node000003"><a xlink:href="classfiftyone_1_1common_1_1wrappers_1_1data_1_1indirect_1_1_source_file.html" target="_top" xlink:title=" ">
<polygon fill="white" stroke="#bfbfbf" points="426,-30 211,-30 211,0 426,0 426,-30"/>
<text text-anchor="start" x="219" y="-18" font-family="Helvetica,sans-Serif" font-size="10.00">fiftyone.common.wrappers.data.indirect.</text>
<text text-anchor="middle" x="318.5" y="-7" font-family="Helvetica,sans-Serif" font-size="10.00">SourceFile</text>
</a>
</g>
</g>
<!-- Node1&#45;&gt;Node3 -->
<g id="edge2_Node000001_Node000003" class="edge">
<title>Node1&#45;&gt;Node3</title>
<g id="a_edge2_Node000001_Node000003"><a xlink:title=" ">
<path fill="none" stroke="#63b8ff" d="M185.27,-28.86C193.69,-27.98 202.25,-27.08 210.74,-26.19"/>
<polygon fill="#63b8ff" stroke="#63b8ff" points="184.66,-25.4 175.08,-29.93 185.39,-32.37 184.66,-25.4"/>
</a>
</g>
</g>
</g>
</svg>
