<?xml version="1.0" encoding="UTF-8" standalone="no"?>
<!DOCTYPE svg PUBLIC "-//W3C//DTD SVG 1.1//EN"
 "http://www.w3.org/Graphics/SVG/1.1/DTD/svg11.dtd">
<!-- Generated by graphviz version 2.43.0 (0)
 -->
<!-- Title: fiftyone.pipeline.core.flowelements.Pipeline Pages: 1 -->
<svg width="199pt" height="225pt"
 viewBox="0.00 0.00 199.00 225.00" xmlns="http://www.w3.org/2000/svg" xmlns:xlink="http://www.w3.org/1999/xlink">
<g id="graph0" class="graph" transform="scale(1 1) rotate(0) translate(4 221)">
<title>fiftyone.pipeline.core.flowelements.Pipeline</title>
<!-- Node1 -->
<g id="Node000001" class="node">
<title>Node1</title>
<g id="a_Node000001"><a xlink:title="The Pipeline groups together FlowElements and is a factory for FlowData which serves as the evidence,...">
<polygon fill="#999999" stroke="#666666" points="191,-162 0,-162 0,-132 191,-132 191,-162"/>
<text text-anchor="start" x="8" y="-150" font-family="Helvetica,sans-Serif" font-size="10.00">fiftyone.pipeline.core.flowelements.</text>
<text text-anchor="middle" x="95.5" y="-139" font-family="Helvetica,sans-Serif" font-size="10.00">Pipeline</text>
</a>
</g>
</g>
<!-- Node3 -->
<g id="Node000003" class="node">
<title>Node3</title>
<g id="a_Node000003"><a xlink:href="interfacefiftyone_1_1pipeline_1_1core_1_1flowelements_1_1_pipeline_internal.html" target="_top" xlink:title="Internal interface for a pipeline.">
<polygon fill="white" stroke="#666666" points="191,-96 0,-96 0,-66 191,-66 191,-96"/>
<text text-anchor="start" x="8" y="-84" font-family="Helvetica,sans-Serif" font-size="10.00">fiftyone.pipeline.core.flowelements.</text>
<text text-anchor="middle" x="95.5" y="-73" font-family="Helvetica,sans-Serif" font-size="10.00">PipelineInternal</text>
</a>
</g>
</g>
<!-- Node1&#45;&gt;Node3 -->
<g id="edge2_Node000001_Node000003" class="edge">
<title>Node1&#45;&gt;Node3</title>
<g id="a_edge2_Node000001_Node000003"><a xlink:title=" ">
<path fill="none" stroke="#63b8ff" d="M95.5,-121.54C95.5,-112.96 95.5,-103.61 95.5,-96.16"/>
<polygon fill="#63b8ff" stroke="#63b8ff" points="92,-121.8 95.5,-131.8 99,-121.8 92,-121.8"/>
</a>
</g>
</g>
<!-- Node2 -->
<g id="Node000002" class="node">
<title>Node2</title>
<g id="a_Node000002"><a xlink:title=" ">
<polygon fill="white" stroke="#bfbfbf" points="139,-217 52,-217 52,-198 139,-198 139,-217"/>
<text text-anchor="middle" x="95.5" y="-205" font-family="Helvetica,sans-Serif" font-size="10.00">AutoCloseable</text>
</a>
</g>
</g>
<!-- Node2&#45;&gt;Node1 -->
<g id="edge1_Node000001_Node000002" class="edge">
<title>Node2&#45;&gt;Node1</title>
<g id="a_edge1_Node000001_Node000002"><a xlink:title=" ">
<path fill="none" stroke="#63b8ff" d="M95.5,-187.65C95.5,-179.36 95.5,-169.78 95.5,-162.11"/>
<polygon fill="#63b8ff" stroke="#63b8ff" points="92,-187.87 95.5,-197.87 99,-187.87 92,-187.87"/>
</a>
</g>
</g>
<!-- Node4 -->
<g id="Node000004" class="node">
<title>Node4</title>
<g id="a_Node000004"><a xlink:title=" ">
<polygon fill="white" stroke="#666666" points="191,-30 0,-30 0,0 191,0 191,-30"/>
<text text-anchor="start" x="8" y="-18" font-family="Helvetica,sans-Serif" font-size="10.00">fiftyone.pipeline.core.flowelements.</text>
<text text-anchor="middle" x="95.5" y="-7" font-family="Helvetica,sans-Serif" font-size="10.00">PipelineDefault</text>
</a>
</g>
</g>
<!-- Node3&#45;&gt;Node4 -->
<g id="edge3_Node000003_Node000004" class="edge">
<title>Node3&#45;&gt;Node4</title>
<g id="a_edge3_Node000003_Node000004"><a xlink:title=" ">
<path fill="none" stroke="#63b8ff" d="M95.5,-55.54C95.5,-46.96 95.5,-37.61 95.5,-30.16"/>
<polygon fill="#63b8ff" stroke="#63b8ff" points="92,-55.8 95.5,-65.8 99,-55.8 92,-55.8"/>
</a>
</g>
</g>
</g>
</svg>
