<?xml version="1.0" encoding="UTF-8" standalone="no"?>
<!DOCTYPE svg PUBLIC "-//W3C//DTD SVG 1.1//EN"
 "http://www.w3.org/Graphics/SVG/1.1/DTD/svg11.dtd">
<!-- Generated by graphviz version 2.43.0 (0)
 -->
<!-- Title: fiftyone.pipeline.engines.services.update.FutureFactory Pages: 1 -->
<svg width="228pt" height="159pt"
 viewBox="0.00 0.00 228.00 159.00" xmlns="http://www.w3.org/2000/svg" xmlns:xlink="http://www.w3.org/1999/xlink">
<g id="graph0" class="graph" transform="scale(1 1) rotate(0) translate(4 155)">
<title>fiftyone.pipeline.engines.services.update.FutureFactory</title>
<!-- Node1 -->
<g id="Node000001" class="node">
<title>Node1</title>
<g id="a_Node000001"><a xlink:title=" ">
<polygon fill="#999999" stroke="#666666" points="220,-96 0,-96 0,-66 220,-66 220,-96"/>
<text text-anchor="start" x="8" y="-84" font-family="Helvetica,sans-Serif" font-size="10.00">fiftyone.pipeline.engines.services.update.</text>
<text text-anchor="middle" x="110" y="-73" font-family="Helvetica,sans-Serif" font-size="10.00">FutureFactory</text>
</a>
</g>
</g>
<!-- Node3 -->
<g id="Node000003" class="node">
<title>Node3</title>
<g id="a_Node000003"><a xlink:href="classfiftyone_1_1pipeline_1_1engines_1_1services_1_1update_1_1_future_factory_default.html" target="_top" xlink:title=" ">
<polygon fill="white" stroke="#bfbfbf" points="220,-30 0,-30 0,0 220,0 220,-30"/>
<text text-anchor="start" x="8" y="-18" font-family="Helvetica,sans-Serif" font-size="10.00">fiftyone.pipeline.engines.services.update.</text>
<text text-anchor="middle" x="110" y="-7" font-family="Helvetica,sans-Serif" font-size="10.00">FutureFactoryDefault</text>
</a>
</g>
</g>
<!-- Node1&#45;&gt;Node3 -->
<g id="edge2_Node000001_Node000003" class="edge">
<title>Node1&#45;&gt;Node3</title>
<g id="a_edge2_Node000001_Node000003"><a xlink:title=" ">
<path fill="none" stroke="#63b8ff" d="M110,-55.54C110,-46.96 110,-37.61 110,-30.16"/>
<polygon fill="#63b8ff" stroke="#63b8ff" points="106.5,-55.8 110,-65.8 113.5,-55.8 106.5,-55.8"/>
</a>
</g>
</g>
<!-- Node2 -->
<g id="Node000002" class="node">
<title>Node2</title>
<g id="a_Node000002"><a xlink:title=" ">
<polygon fill="white" stroke="#bfbfbf" points="142.5,-151 77.5,-151 77.5,-132 142.5,-132 142.5,-151"/>
<text text-anchor="middle" x="110" y="-139" font-family="Helvetica,sans-Serif" font-size="10.00">Closeable</text>
</a>
</g>
</g>
<!-- Node2&#45;&gt;Node1 -->
<g id="edge1_Node000001_Node000002" class="edge">
<title>Node2&#45;&gt;Node1</title>
<g id="a_edge1_Node000001_Node000002"><a xlink:title=" ">
<path fill="none" stroke="#63b8ff" d="M110,-121.65C110,-113.36 110,-103.78 110,-96.11"/>
<polygon fill="#63b8ff" stroke="#63b8ff" points="106.5,-121.87 110,-131.87 113.5,-121.87 106.5,-121.87"/>
</a>
</g>
</g>
</g>
</svg>
