<?xml version="1.0" encoding="UTF-8" standalone="no"?>
<!DOCTYPE svg PUBLIC "-//W3C//DTD SVG 1.1//EN"
 "http://www.w3.org/Graphics/SVG/1.1/DTD/svg11.dtd">
<!-- Generated by graphviz version 2.43.0 (0)
 -->
<!-- Title: fiftyone.pipeline.core.data.factories.ElementDataFactory&lt; T extends ElementData &gt; Pages: 1 -->
<svg width="989pt" height="86pt"
 viewBox="0.00 0.00 989.00 86.00" xmlns="http://www.w3.org/2000/svg" xmlns:xlink="http://www.w3.org/1999/xlink">
<g id="graph0" class="graph" transform="scale(1 1) rotate(0) translate(4 82)">
<title>fiftyone.pipeline.core.data.factories.ElementDataFactory&lt; T extends ElementData &gt;</title>
<!-- Node1 -->
<g id="Node000001" class="node">
<title>Node1</title>
<g id="a_Node000001"><a xlink:title="Factory class used to create a new ElementData instance for a FlowElement.">
<polygon fill="#999999" stroke="#666666" points="596,-59.5 403,-59.5 403,-18.5 596,-18.5 596,-59.5"/>
<text text-anchor="start" x="411" y="-47.5" font-family="Helvetica,sans-Serif" font-size="10.00">fiftyone.pipeline.core.data.factories.</text>
<text text-anchor="start" x="411" y="-36.5" font-family="Helvetica,sans-Serif" font-size="10.00">ElementDataFactory&lt; T extends</text>
<text text-anchor="middle" x="499.5" y="-25.5" font-family="Helvetica,sans-Serif" font-size="10.00"> ElementData &gt;</text>
</a>
</g>
</g>
<!-- Node4 -->
<g id="Node000004" class="node">
<title>Node4</title>
<g id="a_Node000004"><a xlink:href="interfacefiftyone_1_1pipeline_1_1core_1_1data_1_1factories_1_1_element_data_factory.html" target="_top" xlink:title=" ">
<polygon fill="white" stroke="#666666" points="981,-78 752,-78 752,-48 981,-48 981,-78"/>
<text text-anchor="start" x="760" y="-66" font-family="Helvetica,sans-Serif" font-size="10.00">fiftyone.pipeline.core.data.factories.</text>
<text text-anchor="middle" x="866.5" y="-55" font-family="Helvetica,sans-Serif" font-size="10.00">ElementDataFactory&lt; CloudRequestData &gt;</text>
</a>
</g>
</g>
<!-- Node1&#45;&gt;Node4 -->
<g id="edge3_Node000001_Node000004" class="edge">
<title>Node1&#45;&gt;Node4</title>
<g id="a_edge3_Node000001_Node000004"><a xlink:title=" ">
<path fill="none" stroke="orange" stroke-dasharray="5,2" d="M606.59,-45.98C652.13,-48.97 705.41,-52.47 751.76,-55.52"/>
<polygon fill="orange" stroke="orange" points="606.61,-42.47 596.4,-45.31 606.15,-49.45 606.61,-42.47"/>
</a>
</g>
<text text-anchor="start" x="617" y="-58.5" font-family="Helvetica,sans-Serif" font-size="10.00" fill="grey">&lt; CloudRequestData &gt;</text>
</g>
<!-- Node5 -->
<g id="Node000005" class="node">
<title>Node5</title>
<g id="a_Node000005"><a xlink:href="interfacefiftyone_1_1pipeline_1_1core_1_1data_1_1factories_1_1_element_data_factory.html" target="_top" xlink:title=" ">
<polygon fill="white" stroke="#666666" points="963,-30 770,-30 770,0 963,0 963,-30"/>
<text text-anchor="start" x="778" y="-18" font-family="Helvetica,sans-Serif" font-size="10.00">fiftyone.pipeline.core.data.factories.</text>
<text text-anchor="middle" x="866.5" y="-7" font-family="Helvetica,sans-Serif" font-size="10.00">ElementDataFactory&lt; T &gt;</text>
</a>
</g>
</g>
<!-- Node1&#45;&gt;Node5 -->
<g id="edge4_Node000001_Node000005" class="edge">
<title>Node1&#45;&gt;Node5</title>
<g id="a_edge4_Node000001_Node000005"><a xlink:title=" ">
<path fill="none" stroke="orange" stroke-dasharray="5,2" d="M606.25,-25.67C608.86,-25.43 611.45,-25.21 614,-25 665.39,-20.82 722.84,-18.36 769.85,-16.94"/>
<polygon fill="orange" stroke="orange" points="605.74,-22.2 596.12,-26.63 606.4,-29.17 605.74,-22.2"/>
</a>
</g>
<text text-anchor="start" x="660" y="-30.5" font-family="Helvetica,sans-Serif" font-size="10.00" fill="grey">&lt; T &gt;</text>
</g>
<!-- Node2 -->
<g id="Node000002" class="node">
<title>Node2</title>
<g id="a_Node000002"><a xlink:href="interfacefiftyone_1_1pipeline_1_1core_1_1data_1_1_element_data.html" target="_top" xlink:title="Represents property values that have be determined by a specific FlowElement based on the supplied ev...">
<polygon fill="white" stroke="#666666" points="354,-54 207,-54 207,-24 354,-24 354,-54"/>
<text text-anchor="start" x="215" y="-42" font-family="Helvetica,sans-Serif" font-size="10.00">fiftyone.pipeline.core.data.</text>
<text text-anchor="middle" x="280.5" y="-31" font-family="Helvetica,sans-Serif" font-size="10.00">ElementData</text>
</a>
</g>
</g>
<!-- Node2&#45;&gt;Node1 -->
<g id="edge1_Node000001_Node000002" class="edge">
<title>Node2&#45;&gt;Node1</title>
<g id="a_edge1_Node000001_Node000002"><a xlink:title=" ">
<path fill="none" stroke="orange" stroke-dasharray="5,2" d="M364.1,-39C376.77,-39 389.93,-39 402.85,-39"/>
<polygon fill="orange" stroke="orange" points="364.06,-35.5 354.06,-39 364.06,-42.5 364.06,-35.5"/>
</a>
</g>
<text text-anchor="start" x="375.5" y="-44.5" font-family="Helvetica,sans-Serif" font-size="10.00" fill="grey">T</text>
</g>
<!-- Node3 -->
<g id="Node000003" class="node">
<title>Node3</title>
<g id="a_Node000003"><a xlink:href="interfacefiftyone_1_1pipeline_1_1core_1_1data_1_1_data.html" target="_top" xlink:title="Represents a collection of property values.">
<polygon fill="white" stroke="#666666" points="170,-48.5 0,-48.5 0,-29.5 170,-29.5 170,-48.5"/>
<text text-anchor="middle" x="85" y="-36.5" font-family="Helvetica,sans-Serif" font-size="10.00">fiftyone.pipeline.core.data.Data</text>
</a>
</g>
</g>
<!-- Node3&#45;&gt;Node2 -->
<g id="edge2_Node000002_Node000003" class="edge">
<title>Node3&#45;&gt;Node2</title>
<g id="a_edge2_Node000002_Node000003"><a xlink:title=" ">
<path fill="none" stroke="#63b8ff" d="M180.11,-39C189.07,-39 198.06,-39 206.77,-39"/>
<polygon fill="#63b8ff" stroke="#63b8ff" points="180.03,-35.5 170.03,-39 180.03,-42.5 180.03,-35.5"/>
</a>
</g>
</g>
</g>
</svg>
