<?xml version="1.0" encoding="UTF-8" standalone="no"?>
<!DOCTYPE svg PUBLIC "-//W3C//DTD SVG 1.1//EN"
 "http://www.w3.org/Graphics/SVG/1.1/DTD/svg11.dtd">
<!-- Generated by graphviz version 2.43.0 (0)
 -->
<!-- Title: fiftyone.pipeline.engines.data.AspectEngineDataFile Pages: 1 -->
<svg width="753pt" height="86pt"
 viewBox="0.00 0.00 753.00 86.00" xmlns="http://www.w3.org/2000/svg" xmlns:xlink="http://www.w3.org/1999/xlink">
<g id="graph0" class="graph" transform="scale(1 1) rotate(0) translate(4 82)">
<title>fiftyone.pipeline.engines.data.AspectEngineDataFile</title>
<!-- Node1 -->
<g id="Node000001" class="node">
<title>Node1</title>
<g id="a_Node000001"><a xlink:title="Interface for the details of a data file used by an Aspect engine.">
<polygon fill="#999999" stroke="#666666" points="265,-54 101,-54 101,-24 265,-24 265,-54"/>
<text text-anchor="start" x="109" y="-42" font-family="Helvetica,sans-Serif" font-size="10.00">fiftyone.pipeline.engines.data.</text>
<text text-anchor="middle" x="183" y="-31" font-family="Helvetica,sans-Serif" font-size="10.00">AspectEngineDataFile</text>
</a>
</g>
</g>
<!-- Node3 -->
<g id="Node000003" class="node">
<title>Node3</title>
<g id="a_Node000003"><a xlink:href="classfiftyone_1_1pipeline_1_1engines_1_1data_1_1_aspect_engine_data_file_default.html" target="_top" xlink:title="Default implementation of the AspectEngineDataFile interface.">
<polygon fill="white" stroke="#666666" points="485,-78 321,-78 321,-48 485,-48 485,-78"/>
<text text-anchor="start" x="329" y="-66" font-family="Helvetica,sans-Serif" font-size="10.00">fiftyone.pipeline.engines.data.</text>
<text text-anchor="middle" x="403" y="-55" font-family="Helvetica,sans-Serif" font-size="10.00">AspectEngineDataFileDefault</text>
</a>
</g>
</g>
<!-- Node1&#45;&gt;Node3 -->
<g id="edge2_Node000001_Node000003" class="edge">
<title>Node1&#45;&gt;Node3</title>
<g id="a_edge2_Node000001_Node000003"><a xlink:title=" ">
<path fill="none" stroke="#63b8ff" d="M275.49,-49.07C290.52,-50.73 306,-52.43 320.76,-54.06"/>
<polygon fill="#63b8ff" stroke="#63b8ff" points="275.5,-45.55 265.18,-47.94 274.73,-52.51 275.5,-45.55"/>
</a>
</g>
</g>
<!-- Node5 -->
<g id="Node000005" class="node">
<title>Node5</title>
<g id="a_Node000005"><a xlink:href="interfacefiftyone_1_1pipeline_1_1engines_1_1fiftyone_1_1data_1_1_fifty_one_data_file.html" target="_top" xlink:title="51Degrees specific data file.">
<polygon fill="white" stroke="#666666" points="505,-30 301,-30 301,0 505,0 505,-30"/>
<text text-anchor="start" x="309" y="-18" font-family="Helvetica,sans-Serif" font-size="10.00">fiftyone.pipeline.engines.fiftyone.data.</text>
<text text-anchor="middle" x="403" y="-7" font-family="Helvetica,sans-Serif" font-size="10.00">FiftyOneDataFile</text>
</a>
</g>
</g>
<!-- Node1&#45;&gt;Node5 -->
<g id="edge4_Node000001_Node000005" class="edge">
<title>Node1&#45;&gt;Node5</title>
<g id="a_edge4_Node000001_Node000005"><a xlink:title=" ">
<path fill="none" stroke="#63b8ff" d="M275.35,-28.94C283.77,-28.02 292.32,-27.07 300.82,-26.14"/>
<polygon fill="#63b8ff" stroke="#63b8ff" points="274.73,-25.49 265.18,-30.06 275.5,-32.45 274.73,-25.49"/>
</a>
</g>
</g>
<!-- Node2 -->
<g id="Node000002" class="node">
<title>Node2</title>
<g id="a_Node000002"><a xlink:title=" ">
<polygon fill="white" stroke="#bfbfbf" points="65,-48.5 0,-48.5 0,-29.5 65,-29.5 65,-48.5"/>
<text text-anchor="middle" x="32.5" y="-36.5" font-family="Helvetica,sans-Serif" font-size="10.00">Closeable</text>
</a>
</g>
</g>
<!-- Node2&#45;&gt;Node1 -->
<g id="edge1_Node000001_Node000002" class="edge">
<title>Node2&#45;&gt;Node1</title>
<g id="a_edge1_Node000001_Node000002"><a xlink:title=" ">
<path fill="none" stroke="#63b8ff" d="M75.46,-39C83.44,-39 92.04,-39 100.77,-39"/>
<polygon fill="#63b8ff" stroke="#63b8ff" points="75.36,-35.5 65.36,-39 75.36,-42.5 75.36,-35.5"/>
</a>
</g>
</g>
<!-- Node4 -->
<g id="Node000004" class="node">
<title>Node4</title>
<g id="a_Node000004"><a xlink:href="classfiftyone_1_1pipeline_1_1engines_1_1fiftyone_1_1data_1_1_fifty_one_data_file_default.html" target="_top" xlink:title="Default implementation of the FiftyOneDataFile interface.">
<polygon fill="white" stroke="#666666" points="745,-54 541,-54 541,-24 745,-24 745,-54"/>
<text text-anchor="start" x="549" y="-42" font-family="Helvetica,sans-Serif" font-size="10.00">fiftyone.pipeline.engines.fiftyone.data.</text>
<text text-anchor="middle" x="643" y="-31" font-family="Helvetica,sans-Serif" font-size="10.00">FiftyOneDataFileDefault</text>
</a>
</g>
</g>
<!-- Node3&#45;&gt;Node4 -->
<g id="edge3_Node000003_Node000004" class="edge">
<title>Node3&#45;&gt;Node4</title>
<g id="a_edge3_Node000003_Node000004"><a xlink:title=" ">
<path fill="none" stroke="#63b8ff" d="M495.44,-53.78C510.32,-52.28 525.82,-50.72 540.92,-49.19"/>
<polygon fill="#63b8ff" stroke="#63b8ff" points="494.84,-50.32 485.24,-54.81 495.54,-57.29 494.84,-50.32"/>
</a>
</g>
</g>
<!-- Node5&#45;&gt;Node4 -->
<g id="edge5_Node000005_Node000004" class="edge">
<title>Node5&#45;&gt;Node4</title>
<g id="a_edge5_Node000005_Node000004"><a xlink:title=" ">
<path fill="none" stroke="#63b8ff" d="M515.25,-26.22C523.78,-27.08 532.36,-27.94 540.81,-28.8"/>
<polygon fill="#63b8ff" stroke="#63b8ff" points="515.58,-22.73 505.28,-25.21 514.88,-29.7 515.58,-22.73"/>
</a>
</g>
</g>
</g>
</svg>
