<?xml version="1.0" encoding="UTF-8" standalone="no"?>
<!DOCTYPE svg PUBLIC "-//W3C//DTD SVG 1.1//EN"
 "http://www.w3.org/Graphics/SVG/1.1/DTD/svg11.dtd">
<!-- Generated by graphviz version 2.43.0 (0)
 -->
<!-- Title: fiftyone.common.wrappers.io.FileWrapper Pages: 1 -->
<svg width="368pt" height="86pt"
 viewBox="0.00 0.00 368.00 86.00" xmlns="http://www.w3.org/2000/svg" xmlns:xlink="http://www.w3.org/1999/xlink">
<g id="graph0" class="graph" transform="scale(1 1) rotate(0) translate(4 82)">
<title>fiftyone.common.wrappers.io.FileWrapper</title>
<!-- Node1 -->
<g id="Node000001" class="node">
<title>Node1</title>
<g id="a_Node000001"><a xlink:title="Interface for a data file.">
<polygon fill="#999999" stroke="#666666" points="162,-54 0,-54 0,-24 162,-24 162,-54"/>
<text text-anchor="start" x="8" y="-42" font-family="Helvetica,sans-Serif" font-size="10.00">fiftyone.common.wrappers.io.</text>
<text text-anchor="middle" x="81" y="-31" font-family="Helvetica,sans-Serif" font-size="10.00">FileWrapper</text>
</a>
</g>
</g>
<!-- Node2 -->
<g id="Node000002" class="node">
<title>Node2</title>
<g id="a_Node000002"><a xlink:href="classfiftyone_1_1common_1_1wrappers_1_1io_1_1_file_wrapper_default.html" target="_top" xlink:title="Default implementation of FileWrapper using basic file operations.">
<polygon fill="white" stroke="#666666" points="360,-78 198,-78 198,-48 360,-48 360,-78"/>
<text text-anchor="start" x="206" y="-66" font-family="Helvetica,sans-Serif" font-size="10.00">fiftyone.common.wrappers.io.</text>
<text text-anchor="middle" x="279" y="-55" font-family="Helvetica,sans-Serif" font-size="10.00">FileWrapperDefault</text>
</a>
</g>
</g>
<!-- Node1&#45;&gt;Node2 -->
<g id="edge1_Node000001_Node000002" class="edge">
<title>Node1&#45;&gt;Node2</title>
<g id="a_edge1_Node000001_Node000002"><a xlink:title=" ">
<path fill="none" stroke="#63b8ff" d="M172.08,-50.03C180.7,-51.09 189.41,-52.15 197.93,-53.2"/>
<polygon fill="#63b8ff" stroke="#63b8ff" points="172.35,-46.54 162,-48.8 171.5,-53.49 172.35,-46.54"/>
</a>
</g>
</g>
<!-- Node3 -->
<g id="Node000003" class="node">
<title>Node3</title>
<g id="a_Node000003"><a xlink:href="classfiftyone_1_1common_1_1wrappers_1_1io_1_1_file_wrapper_memory.html" target="_top" xlink:title="In memory implementation of the FileWrapperFactory.">
<polygon fill="white" stroke="#666666" points="360,-30 198,-30 198,0 360,0 360,-30"/>
<text text-anchor="start" x="206" y="-18" font-family="Helvetica,sans-Serif" font-size="10.00">fiftyone.common.wrappers.io.</text>
<text text-anchor="middle" x="279" y="-7" font-family="Helvetica,sans-Serif" font-size="10.00">FileWrapperMemory</text>
</a>
</g>
</g>
<!-- Node1&#45;&gt;Node3 -->
<g id="edge2_Node000001_Node000003" class="edge">
<title>Node1&#45;&gt;Node3</title>
<g id="a_edge2_Node000001_Node000003"><a xlink:title=" ">
<path fill="none" stroke="#63b8ff" d="M172.08,-27.97C180.7,-26.91 189.41,-25.85 197.93,-24.8"/>
<polygon fill="#63b8ff" stroke="#63b8ff" points="171.5,-24.51 162,-29.2 172.35,-31.46 171.5,-24.51"/>
</a>
</g>
</g>
</g>
</svg>
