<?xml version="1.0" encoding="UTF-8" standalone="no"?>
<!DOCTYPE svg PUBLIC "-//W3C//DTD SVG 1.1//EN"
 "http://www.w3.org/Graphics/SVG/1.1/DTD/svg11.dtd">
<!-- Generated by graphviz version 2.43.0 (0)
 -->
<!-- Title: pipelineflow Pages: 1 -->
<svg width="153pt" height="129pt"
 viewBox="0.00 0.00 152.61 129.00" xmlns="http://www.w3.org/2000/svg" xmlns:xlink="http://www.w3.org/1999/xlink">
<g id="graph0" class="graph" transform="scale(1 1) rotate(0) translate(4 125)">
<title>pipelineflow</title>
<!-- P -->
<g id="node1" class="node">
<title>P</title>
<polygon fill="none" stroke="black" points="35.61,-84.5 35.61,-120.5 91.61,-120.5 91.61,-84.5 35.61,-84.5"/>
<text text-anchor="middle" x="63.61" y="-100" font-family="Helvetica,sans-Serif" font-size="10.00">Pipeline</text>
</g>
<!-- FD -->
<g id="node2" class="node">
<title>FD</title>
<g id="a_node2"><a xlink:href="_concepts__data__flow_data.html#Concepts_Data_FlowData" target="_top" xlink:title="Flow Data">
<polygon fill="none" stroke="black" points="30.61,-0.5 30.61,-36.5 96.61,-36.5 96.61,-0.5 30.61,-0.5"/>
<text text-anchor="middle" x="63.61" y="-16" font-family="Helvetica,sans-Serif" font-size="10.00">Flow Data</text>
</a>
</g>
</g>
<!-- P&#45;&gt;FD -->
<g id="edge1" class="edge">
<title>P&#45;&gt;FD</title>
<path fill="none" stroke="black" d="M35.51,-92.46C23.12,-86.91 9.76,-78.43 2.61,-66 -4.99,-52.78 6.42,-42.08 21.35,-34.3"/>
<polygon fill="black" stroke="black" points="22.85,-37.46 30.43,-30.05 19.89,-31.11 22.85,-37.46"/>
<text text-anchor="middle" x="18.11" y="-58" font-family="Helvetica,sans-Serif" font-size="10.00">create</text>
</g>
<!-- P&#45;&gt;FD -->
<g id="edge3" class="edge">
<title>P&#45;&gt;FD</title>
<path fill="none" stroke="green" d="M62.44,-84.17C62.1,-78.4 61.78,-71.92 61.61,-66 61.44,-59.79 61.55,-53.12 61.79,-46.82"/>
<polygon fill="green" stroke="green" points="65.29,-46.88 62.29,-36.72 58.3,-46.54 65.29,-46.88"/>
</g>
<!-- FD&#45;&gt;P -->
<g id="edge2" class="edge">
<title>FD&#45;&gt;P</title>
<path fill="none" stroke="green" d="M63.61,-36.58C63.61,-47.36 63.61,-61.51 63.61,-73.86"/>
<polygon fill="green" stroke="green" points="60.11,-74.11 63.61,-84.11 67.11,-74.11 60.11,-74.11"/>
<text text-anchor="middle" x="82.61" y="-58" font-family="Helvetica,sans-Serif" font-size="10.00">process</text>
</g>
<!-- FD&#45;&gt;P -->
<g id="edge4" class="edge">
<title>FD&#45;&gt;P</title>
<path fill="none" stroke="black" d="M93.4,-36.6C103.34,-44.67 110.74,-54.95 105.61,-66 103.71,-70.11 101.07,-73.91 98.03,-77.38"/>
<polygon fill="black" stroke="black" points="95.54,-74.92 90.88,-84.44 100.45,-79.9 95.54,-74.92"/>
<text text-anchor="middle" x="125.61" y="-58" font-family="Helvetica,sans-Serif" font-size="10.00">dispose</text>
</g>
</g>
</svg>
