<?xml version="1.0" encoding="UTF-8" standalone="no"?>
<!DOCTYPE svg PUBLIC "-//W3C//DTD SVG 1.1//EN"
 "http://www.w3.org/Graphics/SVG/1.1/DTD/svg11.dtd">
<!-- Generated by graphviz version 2.43.0 (0)
 -->
<!-- Title: %3 Pages: 1 -->
<svg width="458pt" height="229pt"
 viewBox="0.00 0.00 458.00 229.00" xmlns="http://www.w3.org/2000/svg" xmlns:xlink="http://www.w3.org/1999/xlink">
<g id="graph0" class="graph" transform="scale(1 1) rotate(0) translate(0 229)">
<title>%3</title>
<g id="clust1" class="cluster">
<title>clusterEngine</title>
<polygon fill="transparent" stroke="black" points="8,-8 8,-221 450,-221 450,-8 8,-8"/>
<text text-anchor="start" x="163.5" y="-210" font-family="Helvetica,sans-Serif" font-size="10.00">Engine with </text>
<text text-anchor="start" x="224.5" y="-210" font-family="Helvetica,sans-Serif" font-weight="bold" font-size="10.00">result cache</text>
</g>
<!-- key -->
<g id="node1" class="node">
<title>key</title>
<polygon fill="none" stroke="black" points="16,-146 16,-182 110,-182 110,-146 16,-146"/>
<text text-anchor="middle" x="63" y="-167" font-family="Helvetica,sans-Serif" font-size="10.00">Create data key</text>
<text text-anchor="middle" x="63" y="-156" font-family="Helvetica,sans-Serif" font-size="10.00">from evidence</text>
</g>
<!-- cache -->
<g id="node3" class="node">
<title>cache</title>
<polygon fill="none" stroke="black" points="227,-194 138,-164 227,-134 316,-164 227,-194"/>
<text text-anchor="middle" x="227" y="-167" font-family="Helvetica,sans-Serif" font-size="10.00">Does key</text>
<text text-anchor="middle" x="227" y="-156" font-family="Helvetica,sans-Serif" font-size="10.00">exist in cache?</text>
</g>
<!-- getaspectdata -->
<g id="node2" class="node">
<title>getaspectdata</title>
<polygon fill="none" stroke="black" points="348,-146 348,-182 442,-182 442,-146 348,-146"/>
<text text-anchor="middle" x="395" y="-167" font-family="Helvetica,sans-Serif" font-size="10.00">Get aspect data</text>
<text text-anchor="middle" x="395" y="-156" font-family="Helvetica,sans-Serif" font-size="10.00">from cache</text>
</g>
<!-- addtoflow -->
<g id="node7" class="node">
<title>addtoflow</title>
<polygon fill="none" stroke="black" points="308.5,-16.5 308.5,-52.5 423.5,-52.5 423.5,-16.5 308.5,-16.5"/>
<text text-anchor="middle" x="366" y="-37.5" font-family="Helvetica,sans-Serif" font-size="10.00">Add aspect data to</text>
<text text-anchor="middle" x="366" y="-26.5" font-family="Helvetica,sans-Serif" font-size="10.00">flow data and return</text>
</g>
<!-- getaspectdata&#45;&gt;addtoflow -->
<g id="edge7" class="edge">
<title>getaspectdata&#45;&gt;addtoflow</title>
<path fill="none" stroke="black" d="M405.18,-145.97C415.32,-126.6 427.7,-94.48 415,-70 413.01,-66.16 410.36,-62.65 407.34,-59.47"/>
<polygon fill="black" stroke="black" points="409.5,-56.71 399.71,-52.66 404.83,-61.93 409.5,-56.71"/>
</g>
<!-- cache&#45;&gt;getaspectdata -->
<g id="edge3" class="edge">
<title>cache&#45;&gt;getaspectdata</title>
</g>
<!-- data -->
<g id="node4" class="node">
<title>data</title>
<polygon fill="none" stroke="black" points="34.5,-70.5 34.5,-106.5 143.5,-106.5 143.5,-70.5 34.5,-70.5"/>
<text text-anchor="middle" x="89" y="-86" font-family="Helvetica,sans-Serif" font-size="10.00">Create aspect data</text>
</g>
<!-- cache&#45;&gt;data -->
<g id="edge2" class="edge">
<title>cache&#45;&gt;data</title>
<path fill="none" stroke="black" d="M193.59,-145.21C174.5,-135.04 150.4,-122.2 130.15,-111.42"/>
<polygon fill="black" stroke="black" points="131.62,-108.23 121.15,-106.62 128.33,-114.41 131.62,-108.23"/>
<text text-anchor="middle" x="159.5" y="-118" font-family="Helvetica,sans-Serif" font-size="10.00">no</text>
</g>
<!-- process -->
<g id="node5" class="node">
<title>process</title>
<polygon fill="none" stroke="black" points="171.5,-70.5 171.5,-106.5 260.5,-106.5 260.5,-70.5 171.5,-70.5"/>
<text text-anchor="middle" x="216" y="-91.5" font-family="Helvetica,sans-Serif" font-size="10.00">Normal engine</text>
<text text-anchor="middle" x="216" y="-80.5" font-family="Helvetica,sans-Serif" font-size="10.00">processing</text>
</g>
<!-- addtocache -->
<g id="node6" class="node">
<title>addtocache</title>
<polygon fill="none" stroke="black" points="288.5,-70.5 288.5,-106.5 407.5,-106.5 407.5,-70.5 288.5,-70.5"/>
<text text-anchor="middle" x="348" y="-91.5" font-family="Helvetica,sans-Serif" font-size="10.00">Add aspect data to</text>
<text text-anchor="middle" x="348" y="-80.5" font-family="Helvetica,sans-Serif" font-size="10.00">cache using data key</text>
</g>
<!-- addtocache&#45;&gt;addtoflow -->
<g id="edge6" class="edge">
<title>addtocache&#45;&gt;addtoflow</title>
<path fill="none" stroke="black" d="M353.89,-70.47C354.79,-67.9 355.72,-65.19 356.67,-62.46"/>
<polygon fill="black" stroke="black" points="360.07,-63.34 360.03,-52.74 353.45,-61.05 360.07,-63.34"/>
</g>
</g>
</svg>
