<?xml version="1.0" encoding="UTF-8" standalone="no"?>
<!DOCTYPE svg PUBLIC "-//W3C//DTD SVG 1.1//EN"
 "http://www.w3.org/Graphics/SVG/1.1/DTD/svg11.dtd">
<!-- Generated by graphviz version 2.43.0 (0)
 -->
<!-- Title: FiftyOne.Pipeline.Engines.FiftyOne.FlowElements.PropertyKeyedEngine&lt; TData, TProfile &gt; Pages: 1 -->
<svg width="334pt" height="453pt"
 viewBox="0.00 0.00 333.50 453.00" xmlns="http://www.w3.org/2000/svg" xmlns:xlink="http://www.w3.org/1999/xlink">
<g id="graph0" class="graph" transform="scale(1 1) rotate(0) translate(4 449)">
<title>FiftyOne.Pipeline.Engines.FiftyOne.FlowElements.PropertyKeyedEngine&lt; TData, TProfile &gt;</title>
<!-- Node0 -->
<g id="node1" class="node">
<title>Node0</title>
<g id="a_node1"><a xlink:title="Base class for engines that use an index of property values to profile ids to populate one or more pr...">
<polygon fill="#bfbfbf" stroke="black" points="71.5,-0.5 71.5,-41.5 245.5,-41.5 245.5,-0.5 71.5,-0.5"/>
<text text-anchor="start" x="79.5" y="-29.5" font-family="Helvetica,sans-Serif" font-size="10.00">FiftyOne.Pipeline.Engines.</text>
<text text-anchor="start" x="79.5" y="-18.5" font-family="Helvetica,sans-Serif" font-size="10.00">FiftyOne.FlowElements.Property</text>
<text text-anchor="middle" x="158.5" y="-7.5" font-family="Helvetica,sans-Serif" font-size="10.00">KeyedEngine&lt; TData, TProfile &gt;</text>
</a>
</g>
</g>
<!-- Node1 -->
<g id="node2" class="node">
<title>Node1</title>
<g id="a_node2"><a xlink:href="class_fifty_one_1_1_pipeline_1_1_engines_1_1_flow_elements_1_1_aspect_engine_base.html" target="_top" xlink:title=" ">
<polygon fill="none" stroke="black" points="77.5,-79.5 77.5,-120.5 239.5,-120.5 239.5,-79.5 77.5,-79.5"/>
<text text-anchor="start" x="85.5" y="-108.5" font-family="Helvetica,sans-Serif" font-size="10.00">AspectEngineBase&lt; TData,</text>
<text text-anchor="start" x="85.5" y="-97.5" font-family="Helvetica,sans-Serif" font-size="10.00"> IFiftyOneAspectPropertyMeta</text>
<text text-anchor="middle" x="158.5" y="-86.5" font-family="Helvetica,sans-Serif" font-size="10.00">Data &gt;</text>
</a>
</g>
</g>
<!-- Node1&#45;&gt;Node0 -->
<g id="edge1" class="edge">
<title>Node1&#45;&gt;Node0</title>
<path fill="none" stroke="midnightblue" d="M158.5,-68.91C158.5,-59.79 158.5,-50.02 158.5,-41.76"/>
<polygon fill="midnightblue" stroke="midnightblue" points="155,-69.17 158.5,-79.17 162,-69.17 155,-69.17"/>
</g>
<!-- Node2 -->
<g id="node3" class="node">
<title>Node2</title>
<g id="a_node3"><a xlink:href="class_fifty_one_1_1_pipeline_1_1_engines_1_1_flow_elements_1_1_aspect_engine_base.html" target="_top" xlink:title="Base class for 51Degrees aspect engines.">
<polygon fill="none" stroke="black" points="69,-179.5 69,-220.5 248,-220.5 248,-179.5 69,-179.5"/>
<text text-anchor="start" x="77" y="-208.5" font-family="Helvetica,sans-Serif" font-size="10.00">FiftyOne.Pipeline.Engines.</text>
<text text-anchor="start" x="77" y="-197.5" font-family="Helvetica,sans-Serif" font-size="10.00">FlowElements.AspectEngineBase</text>
<text text-anchor="middle" x="158.5" y="-186.5" font-family="Helvetica,sans-Serif" font-size="10.00">&lt; T, TMeta &gt;</text>
</a>
</g>
</g>
<!-- Node2&#45;&gt;Node1 -->
<g id="edge2" class="edge">
<title>Node2&#45;&gt;Node1</title>
<path fill="none" stroke="orange" stroke-dasharray="5,2" d="M158.5,-168.92C158.5,-153.29 158.5,-134.61 158.5,-120.8"/>
<polygon fill="orange" stroke="orange" points="155,-169.17 158.5,-179.17 162,-169.17 155,-169.17"/>
<text text-anchor="start" x="158.5" y="-153" font-family="Helvetica,sans-Serif" font-size="10.00"> &lt; TData, IFiftyOneAspect</text>
<text text-anchor="middle" x="222" y="-142" font-family="Helvetica,sans-Serif" font-size="10.00">PropertyMetaData &gt;</text>
</g>
<!-- Node3 -->
<g id="node4" class="node">
<title>Node3</title>
<g id="a_node4"><a xlink:href="class_fifty_one_1_1_pipeline_1_1_core_1_1_flow_elements_1_1_flow_element_base.html" target="_top" xlink:title="Abstract base class for Flow Elements.">
<polygon fill="none" stroke="black" points="19,-258.5 19,-288.5 144,-288.5 144,-258.5 19,-258.5"/>
<text text-anchor="start" x="27" y="-276.5" font-family="Helvetica,sans-Serif" font-size="10.00">FlowElementBase&lt; T,</text>
<text text-anchor="middle" x="81.5" y="-265.5" font-family="Helvetica,sans-Serif" font-size="10.00"> TMeta &gt;</text>
</a>
</g>
</g>
<!-- Node3&#45;&gt;Node2 -->
<g id="edge3" class="edge">
<title>Node3&#45;&gt;Node2</title>
<path fill="none" stroke="midnightblue" d="M104.32,-251.31C114.82,-241.56 127.21,-230.05 137.49,-220.51"/>
<polygon fill="midnightblue" stroke="midnightblue" points="101.66,-249 96.71,-258.37 106.42,-254.13 101.66,-249"/>
</g>
<!-- Node4 -->
<g id="node5" class="node">
<title>Node4</title>
<g id="a_node5"><a xlink:href="interface_fifty_one_1_1_pipeline_1_1_core_1_1_flow_elements_1_1_i_flow_element.html" target="_top" xlink:title=" ">
<polygon fill="none" stroke="black" points="1,-342 1,-361 150,-361 150,-342 1,-342"/>
<text text-anchor="middle" x="75.5" y="-349" font-family="Helvetica,sans-Serif" font-size="10.00">IFlowElement&lt; T, TMeta &gt;</text>
</a>
</g>
</g>
<!-- Node4&#45;&gt;Node3 -->
<g id="edge4" class="edge">
<title>Node4&#45;&gt;Node3</title>
<path fill="none" stroke="midnightblue" d="M76.98,-331.78C78.03,-318.4 79.43,-300.69 80.39,-288.52"/>
<polygon fill="midnightblue" stroke="midnightblue" points="73.49,-331.54 76.19,-341.78 80.46,-332.09 73.49,-331.54"/>
</g>
<!-- Node5 -->
<g id="node6" class="node">
<title>Node5</title>
<g id="a_node6"><a xlink:href="interface_fifty_one_1_1_pipeline_1_1_core_1_1_flow_elements_1_1_i_flow_element.html" target="_top" xlink:title="IFlowElement is the basic building block of a pipeline.">
<polygon fill="none" stroke="black" points="0,-414.5 0,-444.5 151,-444.5 151,-414.5 0,-414.5"/>
<text text-anchor="start" x="8" y="-432.5" font-family="Helvetica,sans-Serif" font-size="10.00">FiftyOne.Pipeline.Core.Flow</text>
<text text-anchor="middle" x="75.5" y="-421.5" font-family="Helvetica,sans-Serif" font-size="10.00">Elements.IFlowElement</text>
</a>
</g>
</g>
<!-- Node5&#45;&gt;Node4 -->
<g id="edge5" class="edge">
<title>Node5&#45;&gt;Node4</title>
<path fill="none" stroke="orange" stroke-dasharray="5,2" d="M75.5,-404.17C75.5,-389.4 75.5,-371.45 75.5,-361.06"/>
<polygon fill="orange" stroke="orange" points="72,-404.2 75.5,-414.2 79,-404.21 72,-404.2"/>
<text text-anchor="middle" x="110" y="-388" font-family="Helvetica,sans-Serif" font-size="10.00"> &lt; T, TMeta &gt;</text>
</g>
<!-- Node6 -->
<g id="node7" class="node">
<title>Node6</title>
<g id="a_node7"><a xlink:href="interface_fifty_one_1_1_pipeline_1_1_engines_1_1_flow_elements_1_1_i_aspect_engine.html" target="_top" xlink:title=" ">
<polygon fill="none" stroke="black" points="169,-264 169,-283 320,-283 320,-264 169,-264"/>
<text text-anchor="middle" x="244.5" y="-271" font-family="Helvetica,sans-Serif" font-size="10.00">IAspectEngine&lt; T, TMeta &gt;</text>
</a>
</g>
</g>
<!-- Node6&#45;&gt;Node2 -->
<g id="edge6" class="edge">
<title>Node6&#45;&gt;Node2</title>
<path fill="none" stroke="midnightblue" d="M226.23,-257.31C213.37,-246.62 196.04,-232.21 182.13,-220.64"/>
<polygon fill="midnightblue" stroke="midnightblue" points="224.03,-260.03 233.95,-263.73 228.5,-254.65 224.03,-260.03"/>
</g>
<!-- Node7 -->
<g id="node8" class="node">
<title>Node7</title>
<g id="a_node8"><a xlink:href="interface_fifty_one_1_1_pipeline_1_1_engines_1_1_flow_elements_1_1_i_aspect_engine.html" target="_top" xlink:title="Interface representing 51Degrees on&#45;premise aspect engines.">
<polygon fill="none" stroke="black" points="167.5,-336.5 167.5,-366.5 325.5,-366.5 325.5,-336.5 167.5,-336.5"/>
<text text-anchor="start" x="175.5" y="-354.5" font-family="Helvetica,sans-Serif" font-size="10.00">FiftyOne.Pipeline.Engines.</text>
<text text-anchor="middle" x="246.5" y="-343.5" font-family="Helvetica,sans-Serif" font-size="10.00">FlowElements.IAspectEngine</text>
</a>
</g>
</g>
<!-- Node7&#45;&gt;Node6 -->
<g id="edge7" class="edge">
<title>Node7&#45;&gt;Node6</title>
<path fill="none" stroke="orange" stroke-dasharray="5,2" d="M245.86,-326.17C245.47,-311.4 245,-293.45 244.73,-283.06"/>
<polygon fill="orange" stroke="orange" points="242.36,-326.3 246.12,-336.2 249.36,-326.12 242.36,-326.3"/>
<text text-anchor="middle" x="280" y="-310" font-family="Helvetica,sans-Serif" font-size="10.00"> &lt; T, TMeta &gt;</text>
</g>
</g>
</svg>
