<?xml version="1.0" encoding="UTF-8" standalone="no"?>
<!DOCTYPE svg PUBLIC "-//W3C//DTD SVG 1.1//EN"
 "http://www.w3.org/Graphics/SVG/1.1/DTD/svg11.dtd">
<!-- Generated by graphviz version 2.43.0 (0)
 -->
<!-- Title: FiftyOne.Pipeline.Engines.FlowElements.AspectEngineBase&lt; T, TMeta &gt; Pages: 1 -->
<svg width="1985pt" height="173pt"
 viewBox="0.00 0.00 1985.00 173.00" xmlns="http://www.w3.org/2000/svg" xmlns:xlink="http://www.w3.org/1999/xlink">
<g id="graph0" class="graph" transform="scale(1 1) rotate(0) translate(4 169)">
<title>FiftyOne.Pipeline.Engines.FlowElements.AspectEngineBase&lt; T, TMeta &gt;</title>
<!-- Node0 -->
<g id="node1" class="node">
<title>Node0</title>
<g id="a_node1"><a xlink:title="Base class for 51Degrees aspect engines.">
<polygon fill="#bfbfbf" stroke="black" points="707,-32.5 707,-73.5 886,-73.5 886,-32.5 707,-32.5"/>
<text text-anchor="start" x="715" y="-61.5" font-family="Helvetica,sans-Serif" font-size="10.00">FiftyOne.Pipeline.Engines.</text>
<text text-anchor="start" x="715" y="-50.5" font-family="Helvetica,sans-Serif" font-size="10.00">FlowElements.AspectEngineBase</text>
<text text-anchor="middle" x="796.5" y="-39.5" font-family="Helvetica,sans-Serif" font-size="10.00">&lt; T, TMeta &gt;</text>
</a>
</g>
</g>
<!-- Node6 -->
<g id="node7" class="node">
<title>Node6</title>
<g id="a_node7"><a xlink:href="class_fifty_one_1_1_pipeline_1_1_engines_1_1_flow_elements_1_1_on_premise_aspect_engine_base.html" target="_top" xlink:title="Base class for 51Degrees on&#45;premise aspect engines.">
<polygon fill="none" stroke="black" points="1086,-61 1086,-113 1252,-113 1252,-61 1086,-61"/>
<text text-anchor="start" x="1094" y="-101" font-family="Helvetica,sans-Serif" font-size="10.00">FiftyOne::Pipeline</text>
<text text-anchor="start" x="1094" y="-90" font-family="Helvetica,sans-Serif" font-size="10.00">::Engines::FlowElements</text>
<text text-anchor="start" x="1094" y="-79" font-family="Helvetica,sans-Serif" font-size="10.00">::OnPremiseAspectEngineBase</text>
<text text-anchor="middle" x="1169" y="-68" font-family="Helvetica,sans-Serif" font-size="10.00">&lt; T, TMeta &gt;</text>
</a>
</g>
</g>
<!-- Node0&#45;&gt;Node6 -->
<g id="edge6" class="edge">
<title>Node0&#45;&gt;Node6</title>
<path fill="none" stroke="midnightblue" d="M896.25,-64.23C898.86,-64.49 901.45,-64.75 904,-65 964.88,-70.97 1033.76,-76.67 1085.89,-80.78"/>
<polygon fill="midnightblue" stroke="midnightblue" points="896.41,-60.73 886.1,-63.18 895.69,-67.69 896.41,-60.73"/>
</g>
<!-- Node11 -->
<g id="node12" class="node">
<title>Node11</title>
<g id="a_node12"><a xlink:href="class_fifty_one_1_1_pipeline_1_1_engines_1_1_flow_elements_1_1_aspect_engine_base.html" target="_top" xlink:title=" ">
<polygon fill="none" stroke="black" points="1049,-0.5 1049,-41.5 1289,-41.5 1289,-0.5 1049,-0.5"/>
<text text-anchor="start" x="1057" y="-29.5" font-family="Helvetica,sans-Serif" font-size="10.00">FiftyOne.Pipeline.Engines.</text>
<text text-anchor="start" x="1057" y="-18.5" font-family="Helvetica,sans-Serif" font-size="10.00">FlowElements.AspectEngineBase</text>
<text text-anchor="middle" x="1169" y="-7.5" font-family="Helvetica,sans-Serif" font-size="10.00">&lt; TData, IFiftyOneAspectPropertyMetaData &gt;</text>
</a>
</g>
</g>
<!-- Node0&#45;&gt;Node11 -->
<g id="edge11" class="edge">
<title>Node0&#45;&gt;Node11</title>
<path fill="none" stroke="orange" stroke-dasharray="5,2" d="M896.26,-43.69C898.87,-43.46 901.45,-43.23 904,-43 951.3,-38.81 1003.39,-34.42 1048.71,-30.67"/>
<polygon fill="orange" stroke="orange" points="895.76,-40.22 886.12,-44.61 896.39,-47.19 895.76,-40.22"/>
<text text-anchor="start" x="904" y="-57" font-family="Helvetica,sans-Serif" font-size="10.00"> &lt; TData, IFiftyOneAspect</text>
<text text-anchor="middle" x="967.5" y="-46" font-family="Helvetica,sans-Serif" font-size="10.00">PropertyMetaData &gt;</text>
</g>
<!-- Node1 -->
<g id="node2" class="node">
<title>Node1</title>
<g id="a_node2"><a xlink:href="class_fifty_one_1_1_pipeline_1_1_core_1_1_flow_elements_1_1_flow_element_base.html" target="_top" xlink:title="Abstract base class for Flow Elements.">
<polygon fill="none" stroke="black" points="532,-61 532,-91 657,-91 657,-61 532,-61"/>
<text text-anchor="start" x="540" y="-79" font-family="Helvetica,sans-Serif" font-size="10.00">FlowElementBase&lt; T,</text>
<text text-anchor="middle" x="594.5" y="-68" font-family="Helvetica,sans-Serif" font-size="10.00"> TMeta &gt;</text>
</a>
</g>
</g>
<!-- Node1&#45;&gt;Node0 -->
<g id="edge1" class="edge">
<title>Node1&#45;&gt;Node0</title>
<path fill="none" stroke="midnightblue" d="M667.27,-67.75C680.11,-66.27 693.62,-64.72 706.86,-63.19"/>
<polygon fill="midnightblue" stroke="midnightblue" points="666.67,-64.29 657.14,-68.91 667.47,-71.25 666.67,-64.29"/>
</g>
<!-- Node2 -->
<g id="node3" class="node">
<title>Node2</title>
<g id="a_node3"><a xlink:href="interface_fifty_one_1_1_pipeline_1_1_core_1_1_flow_elements_1_1_i_flow_element.html" target="_top" xlink:title=" ">
<polygon fill="none" stroke="black" points="260.5,-66.5 260.5,-85.5 409.5,-85.5 409.5,-66.5 260.5,-66.5"/>
<text text-anchor="middle" x="335" y="-73.5" font-family="Helvetica,sans-Serif" font-size="10.00">IFlowElement&lt; T, TMeta &gt;</text>
</a>
</g>
</g>
<!-- Node2&#45;&gt;Node1 -->
<g id="edge2" class="edge">
<title>Node2&#45;&gt;Node1</title>
<path fill="none" stroke="midnightblue" d="M419.92,-76C456.39,-76 498.35,-76 531.88,-76"/>
<polygon fill="midnightblue" stroke="midnightblue" points="419.79,-72.5 409.79,-76 419.79,-79.5 419.79,-72.5"/>
</g>
<!-- Node3 -->
<g id="node4" class="node">
<title>Node3</title>
<g id="a_node4"><a xlink:href="interface_fifty_one_1_1_pipeline_1_1_core_1_1_flow_elements_1_1_i_flow_element.html" target="_top" xlink:title="IFlowElement is the basic building block of a pipeline.">
<polygon fill="none" stroke="black" points="0,-61 0,-91 151,-91 151,-61 0,-61"/>
<text text-anchor="start" x="8" y="-79" font-family="Helvetica,sans-Serif" font-size="10.00">FiftyOne.Pipeline.Core.Flow</text>
<text text-anchor="middle" x="75.5" y="-68" font-family="Helvetica,sans-Serif" font-size="10.00">Elements.IFlowElement</text>
</a>
</g>
</g>
<!-- Node3&#45;&gt;Node2 -->
<g id="edge3" class="edge">
<title>Node3&#45;&gt;Node2</title>
<path fill="none" stroke="orange" stroke-dasharray="5,2" d="M161.54,-76C193.48,-76 229.5,-76 260.32,-76"/>
<polygon fill="orange" stroke="orange" points="161.33,-72.5 151.33,-76 161.33,-79.5 161.33,-72.5"/>
<text text-anchor="middle" x="203.5" y="-79" font-family="Helvetica,sans-Serif" font-size="10.00"> &lt; T, TMeta &gt;</text>
</g>
<!-- Node4 -->
<g id="node5" class="node">
<title>Node4</title>
<g id="a_node5"><a xlink:href="interface_fifty_one_1_1_pipeline_1_1_engines_1_1_flow_elements_1_1_i_aspect_engine.html" target="_top" xlink:title=" ">
<polygon fill="none" stroke="black" points="519,-22.5 519,-41.5 670,-41.5 670,-22.5 519,-22.5"/>
<text text-anchor="middle" x="594.5" y="-29.5" font-family="Helvetica,sans-Serif" font-size="10.00">IAspectEngine&lt; T, TMeta &gt;</text>
</a>
</g>
</g>
<!-- Node4&#45;&gt;Node0 -->
<g id="edge4" class="edge">
<title>Node4&#45;&gt;Node0</title>
<path fill="none" stroke="midnightblue" d="M680.38,-40.91C689.07,-41.83 697.93,-42.75 706.67,-43.67"/>
<polygon fill="midnightblue" stroke="midnightblue" points="680.57,-37.41 670.26,-39.85 679.84,-44.37 680.57,-37.41"/>
</g>
<!-- Node5 -->
<g id="node6" class="node">
<title>Node5</title>
<g id="a_node6"><a xlink:href="interface_fifty_one_1_1_pipeline_1_1_engines_1_1_flow_elements_1_1_i_aspect_engine.html" target="_top" xlink:title="Interface representing 51Degrees on&#45;premise aspect engines.">
<polygon fill="none" stroke="black" points="256,-17 256,-47 414,-47 414,-17 256,-17"/>
<text text-anchor="start" x="264" y="-35" font-family="Helvetica,sans-Serif" font-size="10.00">FiftyOne.Pipeline.Engines.</text>
<text text-anchor="middle" x="335" y="-24" font-family="Helvetica,sans-Serif" font-size="10.00">FlowElements.IAspectEngine</text>
</a>
</g>
</g>
<!-- Node5&#45;&gt;Node4 -->
<g id="edge5" class="edge">
<title>Node5&#45;&gt;Node4</title>
<path fill="none" stroke="orange" stroke-dasharray="5,2" d="M424.56,-32C455.2,-32 489.22,-32 518.65,-32"/>
<polygon fill="orange" stroke="orange" points="424.31,-28.5 414.31,-32 424.31,-35.5 424.31,-28.5"/>
<text text-anchor="middle" x="466.5" y="-35" font-family="Helvetica,sans-Serif" font-size="10.00"> &lt; T, TMeta &gt;</text>
</g>
<!-- Node7 -->
<g id="node8" class="node">
<title>Node7</title>
<g id="a_node8"><a xlink:href="class_fifty_one_1_1_pipeline_1_1_engines_1_1_flow_elements_1_1_on_premise_aspect_engine_base.html" target="_top" xlink:title=" ">
<polygon fill="none" stroke="black" points="1470,-123.5 1470,-164.5 1731,-164.5 1731,-123.5 1470,-123.5"/>
<text text-anchor="start" x="1478" y="-152.5" font-family="Helvetica,sans-Serif" font-size="10.00">FiftyOne.Pipeline.Engines.</text>
<text text-anchor="start" x="1478" y="-141.5" font-family="Helvetica,sans-Serif" font-size="10.00">FlowElements.OnPremiseAspectEngine</text>
<text text-anchor="middle" x="1600.5" y="-130.5" font-family="Helvetica,sans-Serif" font-size="10.00">Base&lt; IStarSignData, IAspectPropertyMetaData &gt;</text>
</a>
</g>
</g>
<!-- Node6&#45;&gt;Node7 -->
<g id="edge7" class="edge">
<title>Node6&#45;&gt;Node7</title>
<path fill="none" stroke="orange" stroke-dasharray="5,2" d="M1262.31,-104.78C1277.23,-107.38 1292.52,-109.89 1307,-112 1360.08,-119.74 1418.82,-126.51 1469.65,-131.81"/>
<polygon fill="orange" stroke="orange" points="1262.52,-101.26 1252.07,-102.96 1261.3,-108.15 1262.52,-101.26"/>
<text text-anchor="start" x="1317.5" y="-143" font-family="Helvetica,sans-Serif" font-size="10.00"> &lt; IStarSignData, IAspect</text>
<text text-anchor="middle" x="1379.5" y="-132" font-family="Helvetica,sans-Serif" font-size="10.00">PropertyMetaData &gt;</text>
</g>
<!-- Node9 -->
<g id="node10" class="node">
<title>Node9</title>
<g id="a_node10"><a xlink:href="class_fifty_one_1_1_pipeline_1_1_engines_1_1_flow_elements_1_1_on_premise_aspect_engine_base.html" target="_top" xlink:title=" ">
<polygon fill="none" stroke="black" points="1480,-63.5 1480,-104.5 1721,-104.5 1721,-63.5 1480,-63.5"/>
<text text-anchor="start" x="1488" y="-92.5" font-family="Helvetica,sans-Serif" font-size="10.00">FiftyOne.Pipeline.Engines.</text>
<text text-anchor="start" x="1488" y="-81.5" font-family="Helvetica,sans-Serif" font-size="10.00">FlowElements.OnPremiseAspectEngine</text>
<text text-anchor="middle" x="1600.5" y="-70.5" font-family="Helvetica,sans-Serif" font-size="10.00">Base&lt; T, IFiftyOneAspectPropertyMetaData &gt;</text>
</a>
</g>
</g>
<!-- Node6&#45;&gt;Node9 -->
<g id="edge9" class="edge">
<title>Node6&#45;&gt;Node9</title>
<path fill="none" stroke="orange" stroke-dasharray="5,2" d="M1262.08,-86.36C1325.75,-85.91 1411.07,-85.32 1479.98,-84.83"/>
<polygon fill="orange" stroke="orange" points="1262.03,-82.86 1252.05,-86.43 1262.07,-89.86 1262.03,-82.86"/>
<text text-anchor="start" x="1307" y="-100" font-family="Helvetica,sans-Serif" font-size="10.00"> &lt; T, IFiftyOneAspectProperty</text>
<text text-anchor="middle" x="1379.5" y="-89" font-family="Helvetica,sans-Serif" font-size="10.00">MetaData &gt;</text>
</g>
<!-- Node8 -->
<g id="node9" class="node">
<title>Node8</title>
<g id="a_node9"><a xlink:href="class_examples_1_1_on_premise_engine_1_1_flow_elements_1_1_simple_on_premise_engine.html" target="_top" xlink:title="[class] [constructor]">
<polygon fill="none" stroke="black" points="1768,-129 1768,-159 1977,-159 1977,-129 1768,-129"/>
<text text-anchor="start" x="1776" y="-147" font-family="Helvetica,sans-Serif" font-size="10.00">Examples.OnPremiseEngine.</text>
<text text-anchor="middle" x="1872.5" y="-136" font-family="Helvetica,sans-Serif" font-size="10.00">FlowElements.SimpleOnPremiseEngine</text>
</a>
</g>
</g>
<!-- Node7&#45;&gt;Node8 -->
<g id="edge8" class="edge">
<title>Node7&#45;&gt;Node8</title>
<path fill="none" stroke="midnightblue" d="M1741.62,-144C1750.36,-144 1759.07,-144 1767.61,-144"/>
<polygon fill="midnightblue" stroke="midnightblue" points="1741.36,-140.5 1731.36,-144 1741.36,-147.5 1741.36,-140.5"/>
</g>
<!-- Node10 -->
<g id="node11" class="node">
<title>Node10</title>
<g id="a_node11"><a xlink:href="class_fifty_one_1_1_pipeline_1_1_engines_1_1_fifty_one_1_1_flow_elements_1_1_fifty_one_on_premise_aspect_engine_base.html" target="_top" xlink:title="51Degrees specific Engine base class.">
<polygon fill="none" stroke="black" points="1778.5,-63.5 1778.5,-104.5 1966.5,-104.5 1966.5,-63.5 1778.5,-63.5"/>
<text text-anchor="start" x="1786.5" y="-92.5" font-family="Helvetica,sans-Serif" font-size="10.00">FiftyOne.Pipeline.Engines.</text>
<text text-anchor="start" x="1786.5" y="-81.5" font-family="Helvetica,sans-Serif" font-size="10.00">FiftyOne.FlowElements.FiftyOne</text>
<text text-anchor="middle" x="1872.5" y="-70.5" font-family="Helvetica,sans-Serif" font-size="10.00">OnPremiseAspectEngineBase&lt; T &gt;</text>
</a>
</g>
</g>
<!-- Node9&#45;&gt;Node10 -->
<g id="edge10" class="edge">
<title>Node9&#45;&gt;Node10</title>
<path fill="none" stroke="midnightblue" d="M1731.48,-84C1747.3,-84 1763.21,-84 1778.34,-84"/>
<polygon fill="midnightblue" stroke="midnightblue" points="1731.11,-80.5 1721.11,-84 1731.1,-87.5 1731.11,-80.5"/>
</g>
<!-- Node12 -->
<g id="node13" class="node">
<title>Node12</title>
<g id="a_node13"><a xlink:href="class_fifty_one_1_1_pipeline_1_1_engines_1_1_fifty_one_1_1_flow_elements_1_1_property_keyed_engine.html" target="_top" xlink:title="Base class for engines that use an index of property values to profile ids to populate one or more pr...">
<polygon fill="none" stroke="black" points="1513.5,-0.5 1513.5,-41.5 1687.5,-41.5 1687.5,-0.5 1513.5,-0.5"/>
<text text-anchor="start" x="1521.5" y="-29.5" font-family="Helvetica,sans-Serif" font-size="10.00">FiftyOne.Pipeline.Engines.</text>
<text text-anchor="start" x="1521.5" y="-18.5" font-family="Helvetica,sans-Serif" font-size="10.00">FiftyOne.FlowElements.Property</text>
<text text-anchor="middle" x="1600.5" y="-7.5" font-family="Helvetica,sans-Serif" font-size="10.00">KeyedEngine&lt; TData, TProfile &gt;</text>
</a>
</g>
</g>
<!-- Node11&#45;&gt;Node12 -->
<g id="edge12" class="edge">
<title>Node11&#45;&gt;Node12</title>
<path fill="none" stroke="midnightblue" d="M1299.18,-21C1368.46,-21 1451.94,-21 1513.28,-21"/>
<polygon fill="midnightblue" stroke="midnightblue" points="1299.07,-17.5 1289.07,-21 1299.07,-24.5 1299.07,-17.5"/>
</g>
</g>
</svg>
