<?xml version="1.0" encoding="UTF-8" standalone="no"?>
<!DOCTYPE svg PUBLIC "-//W3C//DTD SVG 1.1//EN"
 "http://www.w3.org/Graphics/SVG/1.1/DTD/svg11.dtd">
<!-- Generated by graphviz version 2.43.0 (0)
 -->
<!-- Title: EvidenceCopyElement Pages: 1 -->
<svg width="1249pt" height="95pt"
 viewBox="0.00 0.00 1249.00 94.50" xmlns="http://www.w3.org/2000/svg" xmlns:xlink="http://www.w3.org/1999/xlink">
<g id="graph0" class="graph" transform="scale(1 1) rotate(0) translate(4 90.5)">
<title>EvidenceCopyElement</title>
<!-- Node5 -->
<g id="node1" class="node">
<title>Node5</title>
<g id="a_node1"><a xlink:title="Element that just copies the evidence into its element data.">
<polygon fill="#bfbfbf" stroke="black" points="1115,-19 1115,-38 1241,-38 1241,-19 1115,-19"/>
<text text-anchor="middle" x="1178" y="-26" font-family="Helvetica,sans-Serif" font-size="10.00">EvidenceCopyElement</text>
</a>
</g>
</g>
<!-- Node6 -->
<g id="node2" class="node">
<title>Node6</title>
<g id="a_node2"><a xlink:href="class_fifty_one_1_1_pipeline_1_1_core_1_1_flow_elements_1_1_flow_element_base.html" target="_top" xlink:title=" ">
<polygon fill="none" stroke="black" points="776,-49.5 776,-79.5 988,-79.5 988,-49.5 776,-49.5"/>
<text text-anchor="start" x="784" y="-67.5" font-family="Helvetica,sans-Serif" font-size="10.00">FlowElementBase&lt; Evidence</text>
<text text-anchor="middle" x="882" y="-56.5" font-family="Helvetica,sans-Serif" font-size="10.00">CopyData, ElementPropertyMetaData &gt;</text>
</a>
</g>
</g>
<!-- Node6&#45;&gt;Node5 -->
<g id="edge1" class="edge">
<title>Node6&#45;&gt;Node5</title>
<path fill="none" stroke="midnightblue" d="M998.32,-50.56C1030.28,-46.68 1064.99,-42.45 1097,-38.5 1102.83,-37.78 1108.91,-37.03 1114.98,-36.27"/>
<polygon fill="midnightblue" stroke="midnightblue" points="997.55,-47.13 988.05,-51.81 998.39,-54.08 997.55,-47.13"/>
</g>
<!-- Node7 -->
<g id="node3" class="node">
<title>Node7</title>
<g id="a_node3"><a xlink:href="class_fifty_one_1_1_pipeline_1_1_core_1_1_flow_elements_1_1_flow_element_base.html" target="_top" xlink:title="Abstract base class for Flow Elements.">
<polygon fill="none" stroke="black" points="442,-44 442,-85 595,-85 595,-44 442,-44"/>
<text text-anchor="start" x="450" y="-73" font-family="Helvetica,sans-Serif" font-size="10.00">FiftyOne.Pipeline.Core.Flow</text>
<text text-anchor="start" x="450" y="-62" font-family="Helvetica,sans-Serif" font-size="10.00">Elements.FlowElementBase</text>
<text text-anchor="middle" x="518.5" y="-51" font-family="Helvetica,sans-Serif" font-size="10.00">&lt; T, TMeta &gt;</text>
</a>
</g>
</g>
<!-- Node7&#45;&gt;Node6 -->
<g id="edge2" class="edge">
<title>Node7&#45;&gt;Node6</title>
<path fill="none" stroke="orange" stroke-dasharray="5,2" d="M605.31,-64.5C656.41,-64.5 721.65,-64.5 775.84,-64.5"/>
<polygon fill="orange" stroke="orange" points="605.28,-61 595.28,-64.5 605.28,-68 605.28,-61"/>
<text text-anchor="start" x="613" y="-78.5" font-family="Helvetica,sans-Serif" font-size="10.00"> &lt; EvidenceCopyData,</text>
<text text-anchor="middle" x="685.5" y="-67.5" font-family="Helvetica,sans-Serif" font-size="10.00"> ElementPropertyMetaData &gt;</text>
</g>
<!-- Node8 -->
<g id="node4" class="node">
<title>Node8</title>
<g id="a_node4"><a xlink:href="interface_fifty_one_1_1_pipeline_1_1_core_1_1_flow_elements_1_1_i_flow_element.html" target="_top" xlink:title=" ">
<polygon fill="none" stroke="black" points="256,-55 256,-74 405,-74 405,-55 256,-55"/>
<text text-anchor="middle" x="330.5" y="-62" font-family="Helvetica,sans-Serif" font-size="10.00">IFlowElement&lt; T, TMeta &gt;</text>
</a>
</g>
</g>
<!-- Node8&#45;&gt;Node7 -->
<g id="edge3" class="edge">
<title>Node8&#45;&gt;Node7</title>
<path fill="none" stroke="midnightblue" d="M415.3,-64.5C424.12,-64.5 433.05,-64.5 441.78,-64.5"/>
<polygon fill="midnightblue" stroke="midnightblue" points="415.01,-61 405.01,-64.5 415.01,-68 415.01,-61"/>
</g>
<!-- Node9 -->
<g id="node5" class="node">
<title>Node9</title>
<g id="a_node5"><a xlink:href="interface_fifty_one_1_1_pipeline_1_1_core_1_1_flow_elements_1_1_i_flow_element.html" target="_top" xlink:title="IFlowElement is the basic building block of a pipeline.">
<polygon fill="none" stroke="black" points="0,-49.5 0,-79.5 151,-79.5 151,-49.5 0,-49.5"/>
<text text-anchor="start" x="8" y="-67.5" font-family="Helvetica,sans-Serif" font-size="10.00">FiftyOne.Pipeline.Core.Flow</text>
<text text-anchor="middle" x="75.5" y="-56.5" font-family="Helvetica,sans-Serif" font-size="10.00">Elements.IFlowElement</text>
</a>
</g>
</g>
<!-- Node9&#45;&gt;Node8 -->
<g id="edge4" class="edge">
<title>Node9&#45;&gt;Node8</title>
<path fill="none" stroke="orange" stroke-dasharray="5,2" d="M161.29,-64.5C191.95,-64.5 226.3,-64.5 255.93,-64.5"/>
<polygon fill="orange" stroke="orange" points="161.04,-61 151.04,-64.5 161.04,-68 161.04,-61"/>
<text text-anchor="middle" x="203.5" y="-67.5" font-family="Helvetica,sans-Serif" font-size="10.00"> &lt; T, TMeta &gt;</text>
</g>
<!-- Node10 -->
<g id="node6" class="node">
<title>Node10</title>
<g id="a_node6"><a xlink:href="interface_fifty_one_1_1_pipeline_1_1_core_1_1_data_1_1_i_evidence_key_filter.html" target="_top" xlink:title="Represents an object that filters evidence key names based on some criteria.">
<polygon fill="none" stroke="black" points="805,-0.5 805,-30.5 959,-30.5 959,-0.5 805,-0.5"/>
<text text-anchor="start" x="813" y="-18.5" font-family="Helvetica,sans-Serif" font-size="10.00">FiftyOne.Pipeline.Core.Data.</text>
<text text-anchor="middle" x="882" y="-7.5" font-family="Helvetica,sans-Serif" font-size="10.00">IEvidenceKeyFilter</text>
</a>
</g>
</g>
<!-- Node10&#45;&gt;Node5 -->
<g id="edge5" class="edge">
<title>Node10&#45;&gt;Node5</title>
<path fill="none" stroke="#9a32cd" stroke-dasharray="5,2" d="M969.18,-19.31C1015.78,-21.37 1072.28,-23.87 1114.6,-25.74"/>
<polygon fill="#9a32cd" stroke="#9a32cd" points="969.24,-15.81 959.09,-18.86 968.93,-22.8 969.24,-15.81"/>
<text text-anchor="middle" x="1051.5" y="-28.5" font-family="Helvetica,sans-Serif" font-size="10.00"> EvidenceKeyFilter</text>
</g>
</g>
</svg>
