<?xml version="1.0" encoding="UTF-8" standalone="no"?>
<!DOCTYPE svg PUBLIC "-//W3C//DTD SVG 1.1//EN"
 "http://www.w3.org/Graphics/SVG/1.1/DTD/svg11.dtd">
<!-- Generated by graphviz version 2.43.0 (0)
 -->
<!-- Title: FiftyOne.Pipeline.Translation.FlowElements.ITranslationEngine Pages: 1 -->
<svg width="251pt" height="264pt"
 viewBox="0.00 0.00 251.00 264.00" xmlns="http://www.w3.org/2000/svg" xmlns:xlink="http://www.w3.org/1999/xlink">
<g id="graph0" class="graph" transform="scale(1 1) rotate(0) translate(4 260)">
<title>FiftyOne.Pipeline.Translation.FlowElements.ITranslationEngine</title>
<!-- Node0 -->
<g id="node1" class="node">
<title>Node0</title>
<g id="a_node1"><a xlink:title="Flow element that translates values from a single source element and stores translated values under i...">
<polygon fill="#bfbfbf" stroke="black" points="6,-68.5 6,-98.5 184,-98.5 184,-68.5 6,-68.5"/>
<text text-anchor="start" x="14" y="-86.5" font-family="Helvetica,sans-Serif" font-size="10.00">FiftyOne.Pipeline.Translation.</text>
<text text-anchor="middle" x="95" y="-75.5" font-family="Helvetica,sans-Serif" font-size="10.00">FlowElements.ITranslationEngine</text>
</a>
</g>
</g>
<!-- Node3 -->
<g id="node4" class="node">
<title>Node3</title>
<g id="a_node4"><a xlink:href="class_fifty_one_1_1_pipeline_1_1_translation_1_1_flow_elements_1_1_translation_engine.html" target="_top" xlink:title=" ">
<polygon fill="none" stroke="black" points="7.5,-0.5 7.5,-30.5 182.5,-30.5 182.5,-0.5 7.5,-0.5"/>
<text text-anchor="start" x="15.5" y="-18.5" font-family="Helvetica,sans-Serif" font-size="10.00">FiftyOne.Pipeline.Translation.</text>
<text text-anchor="middle" x="95" y="-7.5" font-family="Helvetica,sans-Serif" font-size="10.00">FlowElements.TranslationEngine</text>
</a>
</g>
</g>
<!-- Node0&#45;&gt;Node3 -->
<g id="edge3" class="edge">
<title>Node0&#45;&gt;Node3</title>
<path fill="none" stroke="midnightblue" d="M95,-58.03C95,-48.86 95,-38.74 95,-30.79"/>
<polygon fill="midnightblue" stroke="midnightblue" points="91.5,-58.18 95,-68.18 98.5,-58.18 91.5,-58.18"/>
</g>
<!-- Node1 -->
<g id="node2" class="node">
<title>Node1</title>
<g id="a_node2"><a xlink:href="interface_fifty_one_1_1_pipeline_1_1_core_1_1_flow_elements_1_1_i_flow_element.html" target="_top" xlink:title=" ">
<polygon fill="none" stroke="black" points="0,-136.5 0,-166.5 190,-166.5 190,-136.5 0,-136.5"/>
<text text-anchor="start" x="8" y="-154.5" font-family="Helvetica,sans-Serif" font-size="10.00">IFlowElement&lt; ITranslation</text>
<text text-anchor="middle" x="95" y="-143.5" font-family="Helvetica,sans-Serif" font-size="10.00">Data, IElementPropertyMetaData &gt;</text>
</a>
</g>
</g>
<!-- Node1&#45;&gt;Node0 -->
<g id="edge1" class="edge">
<title>Node1&#45;&gt;Node0</title>
<path fill="none" stroke="midnightblue" d="M95,-126.03C95,-116.86 95,-106.74 95,-98.79"/>
<polygon fill="midnightblue" stroke="midnightblue" points="91.5,-126.18 95,-136.18 98.5,-126.18 91.5,-126.18"/>
</g>
<!-- Node2 -->
<g id="node3" class="node">
<title>Node2</title>
<g id="a_node3"><a xlink:href="interface_fifty_one_1_1_pipeline_1_1_core_1_1_flow_elements_1_1_i_flow_element.html" target="_top" xlink:title="IFlowElement is the basic building block of a pipeline.">
<polygon fill="none" stroke="black" points="19.5,-225.5 19.5,-255.5 170.5,-255.5 170.5,-225.5 19.5,-225.5"/>
<text text-anchor="start" x="27.5" y="-243.5" font-family="Helvetica,sans-Serif" font-size="10.00">FiftyOne.Pipeline.Core.Flow</text>
<text text-anchor="middle" x="95" y="-232.5" font-family="Helvetica,sans-Serif" font-size="10.00">Elements.IFlowElement</text>
</a>
</g>
</g>
<!-- Node2&#45;&gt;Node1 -->
<g id="edge2" class="edge">
<title>Node2&#45;&gt;Node1</title>
<path fill="none" stroke="orange" stroke-dasharray="5,2" d="M95,-215.09C95,-199.44 95,-179.68 95,-166.6"/>
<polygon fill="orange" stroke="orange" points="91.5,-215.13 95,-225.13 98.5,-215.13 91.5,-215.13"/>
<text text-anchor="start" x="95" y="-199" font-family="Helvetica,sans-Serif" font-size="10.00"> &lt; ITranslationData,</text>
<text text-anchor="middle" x="169" y="-188" font-family="Helvetica,sans-Serif" font-size="10.00"> IElementPropertyMetaData &gt;</text>
</g>
</g>
</svg>
