<?xml version="1.0" encoding="UTF-8" standalone="no"?>
<!DOCTYPE svg PUBLIC "-//W3C//DTD SVG 1.1//EN"
 "http://www.w3.org/Graphics/SVG/1.1/DTD/svg11.dtd">
<!-- Generated by graphviz version 2.43.0 (0)
 -->
<!-- Title: FiftyOne.Pipeline.Core.Data.IElementData Pages: 1 -->
<svg width="915pt" height="613pt"
 viewBox="0.00 0.00 915.00 613.00" xmlns="http://www.w3.org/2000/svg" xmlns:xlink="http://www.w3.org/1999/xlink">
<g id="graph0" class="graph" transform="scale(1 1) rotate(0) translate(4 609)">
<title>FiftyOne.Pipeline.Core.Data.IElementData</title>
<!-- Node0 -->
<g id="node1" class="node">
<title>Node0</title>
<g id="a_node1"><a xlink:title="Represents property values that have been determined by a specific FlowElement based on the supplied ...">
<polygon fill="#bfbfbf" stroke="black" points="79,-219.5 79,-249.5 233,-249.5 233,-219.5 79,-219.5"/>
<text text-anchor="start" x="87" y="-237.5" font-family="Helvetica,sans-Serif" font-size="10.00">FiftyOne.Pipeline.Core.Data.</text>
<text text-anchor="middle" x="156" y="-226.5" font-family="Helvetica,sans-Serif" font-size="10.00">IElementData</text>
</a>
</g>
</g>
<!-- Node2 -->
<g id="node3" class="node">
<title>Node2</title>
<g id="a_node3"><a xlink:href="interface_examples_1_1_custom_flow_element_1_1_data_1_1_i_star_sign_data.html" target="_top" xlink:title=" ">
<polygon fill="none" stroke="black" points="273.5,-394.5 273.5,-424.5 445.5,-424.5 445.5,-394.5 273.5,-394.5"/>
<text text-anchor="start" x="281.5" y="-412.5" font-family="Helvetica,sans-Serif" font-size="10.00">Examples.CustomFlowElement.</text>
<text text-anchor="middle" x="359.5" y="-401.5" font-family="Helvetica,sans-Serif" font-size="10.00">Data.IStarSignData</text>
</a>
</g>
</g>
<!-- Node0&#45;&gt;Node2 -->
<g id="edge2" class="edge">
<title>Node0&#45;&gt;Node2</title>
<path fill="none" stroke="midnightblue" d="M168.37,-258.69C185.42,-292.32 220.86,-352.75 269,-385.5 274.05,-388.94 279.58,-391.88 285.33,-394.41"/>
<polygon fill="midnightblue" stroke="midnightblue" points="171.42,-256.98 163.86,-249.57 165.15,-260.08 171.42,-256.98"/>
</g>
<!-- Node4 -->
<g id="node5" class="node">
<title>Node4</title>
<g id="a_node5"><a xlink:href="class_fifty_one_1_1_pipeline_1_1_core_1_1_data_1_1_element_data_base.html" target="_top" xlink:title="This class stores property values that have been determined by a specific FlowElement based on the su...">
<polygon fill="none" stroke="black" points="282.5,-247.5 282.5,-277.5 436.5,-277.5 436.5,-247.5 282.5,-247.5"/>
<text text-anchor="start" x="290.5" y="-265.5" font-family="Helvetica,sans-Serif" font-size="10.00">FiftyOne.Pipeline.Core.Data.</text>
<text text-anchor="middle" x="359.5" y="-254.5" font-family="Helvetica,sans-Serif" font-size="10.00">ElementDataBase</text>
</a>
</g>
</g>
<!-- Node0&#45;&gt;Node4 -->
<g id="edge4" class="edge">
<title>Node0&#45;&gt;Node4</title>
<path fill="none" stroke="midnightblue" d="M243.44,-246.51C256.33,-248.3 269.55,-250.14 282.21,-251.9"/>
<polygon fill="midnightblue" stroke="midnightblue" points="243.57,-243 233.18,-245.09 242.6,-249.93 243.57,-243"/>
</g>
<!-- Node16 -->
<g id="node17" class="node">
<title>Node16</title>
<g id="a_node17"><a xlink:href="interface_fifty_one_1_1_pipeline_1_1_engines_1_1_data_1_1_i_aspect_data.html" target="_top" xlink:title="Represents an ElementData instance that is generated by an IAspectEngine.">
<polygon fill="none" stroke="black" points="288,-476.5 288,-506.5 431,-506.5 431,-476.5 288,-476.5"/>
<text text-anchor="start" x="296" y="-494.5" font-family="Helvetica,sans-Serif" font-size="10.00">FiftyOne.Pipeline.Engines.</text>
<text text-anchor="middle" x="359.5" y="-483.5" font-family="Helvetica,sans-Serif" font-size="10.00">Data.IAspectData</text>
</a>
</g>
</g>
<!-- Node0&#45;&gt;Node16 -->
<g id="edge17" class="edge">
<title>Node0&#45;&gt;Node16</title>
<path fill="none" stroke="midnightblue" d="M166.08,-258.97C181.99,-299.31 218.1,-380.64 269,-434.5 285.45,-451.91 308.27,-466.33 326.75,-476.32"/>
<polygon fill="midnightblue" stroke="midnightblue" points="169.35,-257.71 162.48,-249.64 162.82,-260.23 169.35,-257.71"/>
</g>
<!-- Node20 -->
<g id="node21" class="node">
<title>Node20</title>
<g id="a_node21"><a xlink:href="interface_fifty_one_1_1_pipeline_1_1_engines_1_1_fifty_one_1_1_data_1_1_i_set_headers_data.html" target="_top" xlink:title="The IElementData interface for SetHeadersElement.">
<polygon fill="none" stroke="black" points="275,-345.5 275,-375.5 444,-375.5 444,-345.5 275,-345.5"/>
<text text-anchor="start" x="283" y="-363.5" font-family="Helvetica,sans-Serif" font-size="10.00">FiftyOne.Pipeline.Engines.</text>
<text text-anchor="middle" x="359.5" y="-352.5" font-family="Helvetica,sans-Serif" font-size="10.00">FiftyOne.Data.ISetHeadersData</text>
</a>
</g>
</g>
<!-- Node0&#45;&gt;Node20 -->
<g id="edge24" class="edge">
<title>Node0&#45;&gt;Node20</title>
<path fill="none" stroke="midnightblue" d="M176.13,-257.43C196.74,-280.68 231.64,-316.07 269,-336.5 275.21,-339.9 281.93,-342.83 288.8,-345.37"/>
<polygon fill="midnightblue" stroke="midnightblue" points="178.65,-255 169.45,-249.75 173.37,-259.6 178.65,-255"/>
</g>
<!-- Node21 -->
<g id="node22" class="node">
<title>Node21</title>
<g id="a_node22"><a xlink:href="interface_fifty_one_1_1_pipeline_1_1_ip_splitter_1_1_i_split_ip_data.html" target="_top" xlink:title=" ">
<polygon fill="none" stroke="black" points="285,-296.5 285,-326.5 434,-326.5 434,-296.5 285,-296.5"/>
<text text-anchor="start" x="293" y="-314.5" font-family="Helvetica,sans-Serif" font-size="10.00">FiftyOne.Pipeline.IpSplitter.</text>
<text text-anchor="middle" x="359.5" y="-303.5" font-family="Helvetica,sans-Serif" font-size="10.00">ISplitIpData</text>
</a>
</g>
</g>
<!-- Node0&#45;&gt;Node21 -->
<g id="edge26" class="edge">
<title>Node0&#45;&gt;Node21</title>
<path fill="none" stroke="midnightblue" d="M195,-254.02C216.38,-264.52 243.77,-277.19 269,-286.5 278.69,-290.07 289.12,-293.42 299.33,-296.44"/>
<polygon fill="midnightblue" stroke="midnightblue" points="196.44,-250.82 185.92,-249.51 193.33,-257.09 196.44,-250.82"/>
</g>
<!-- Node22 -->
<g id="node23" class="node">
<title>Node22</title>
<g id="a_node23"><a xlink:href="interface_fifty_one_1_1_pipeline_1_1_java_script_builder_1_1_data_1_1_i_java_script_builder_element_data.html" target="_top" xlink:title="The IElementData interface for JavaScriptBuilderElement.">
<polygon fill="none" stroke="black" points="276.5,-187 276.5,-228 442.5,-228 442.5,-187 276.5,-187"/>
<text text-anchor="start" x="284.5" y="-216" font-family="Helvetica,sans-Serif" font-size="10.00">FiftyOne.Pipeline.JavaScript</text>
<text text-anchor="start" x="284.5" y="-205" font-family="Helvetica,sans-Serif" font-size="10.00">Builder.Data.IJavaScriptBuilder</text>
<text text-anchor="middle" x="359.5" y="-194" font-family="Helvetica,sans-Serif" font-size="10.00">ElementData</text>
</a>
</g>
</g>
<!-- Node0&#45;&gt;Node22 -->
<g id="edge28" class="edge">
<title>Node0&#45;&gt;Node22</title>
<path fill="none" stroke="midnightblue" d="M243.23,-222.95C254.26,-221.47 265.53,-219.96 276.49,-218.49"/>
<polygon fill="midnightblue" stroke="midnightblue" points="242.63,-219.5 233.18,-224.29 243.55,-226.43 242.63,-219.5"/>
</g>
<!-- Node23 -->
<g id="node24" class="node">
<title>Node23</title>
<g id="a_node24"><a xlink:href="interface_fifty_one_1_1_pipeline_1_1_json_builder_1_1_data_1_1_i_json_builder_element_data.html" target="_top" xlink:title="The IElementData interface for JsonBuilderElement.">
<polygon fill="none" stroke="black" points="277.5,-137.5 277.5,-167.5 441.5,-167.5 441.5,-137.5 277.5,-137.5"/>
<text text-anchor="start" x="285.5" y="-155.5" font-family="Helvetica,sans-Serif" font-size="10.00">FiftyOne.Pipeline.JsonBuilder.</text>
<text text-anchor="middle" x="359.5" y="-144.5" font-family="Helvetica,sans-Serif" font-size="10.00">Data.IJsonBuilderElementData</text>
</a>
</g>
</g>
<!-- Node0&#45;&gt;Node23 -->
<g id="edge30" class="edge">
<title>Node0&#45;&gt;Node23</title>
<path fill="none" stroke="midnightblue" d="M191.86,-214.49C213.56,-202.62 242.32,-187.9 269,-177.5 278.32,-173.87 288.38,-170.53 298.26,-167.55"/>
<polygon fill="midnightblue" stroke="midnightblue" points="190.07,-211.48 183.02,-219.39 193.46,-217.6 190.07,-211.48"/>
</g>
<!-- Node24 -->
<g id="node25" class="node">
<title>Node24</title>
<g id="a_node25"><a xlink:href="interface_fifty_one_1_1_pipeline_1_1_math_1_1_i_math_data.html" target="_top" xlink:title=" ">
<polygon fill="none" stroke="black" points="269,-99 269,-118 450,-118 450,-99 269,-99"/>
<text text-anchor="middle" x="359.5" y="-106" font-family="Helvetica,sans-Serif" font-size="10.00">FiftyOne.Pipeline.Math.IMathData</text>
</a>
</g>
</g>
<!-- Node0&#45;&gt;Node24 -->
<g id="edge32" class="edge">
<title>Node0&#45;&gt;Node24</title>
<path fill="none" stroke="midnightblue" d="M174.67,-211.22C194.75,-186.49 229.86,-148.17 269,-127.5 276.3,-123.64 284.33,-120.57 292.49,-118.12"/>
<polygon fill="midnightblue" stroke="midnightblue" points="171.69,-209.35 168.21,-219.35 177.17,-213.7 171.69,-209.35"/>
</g>
<!-- Node25 -->
<g id="node26" class="node">
<title>Node25</title>
<g id="a_node26"><a xlink:href="interface_fifty_one_1_1_pipeline_1_1_translation_1_1_data_1_1_i_translation_data.html" target="_top" xlink:title="Element data marker interface for FlowElements.TranslationEngine.">
<polygon fill="none" stroke="black" points="280.5,-49.5 280.5,-79.5 438.5,-79.5 438.5,-49.5 280.5,-49.5"/>
<text text-anchor="start" x="288.5" y="-67.5" font-family="Helvetica,sans-Serif" font-size="10.00">FiftyOne.Pipeline.Translation.</text>
<text text-anchor="middle" x="359.5" y="-56.5" font-family="Helvetica,sans-Serif" font-size="10.00">Data.ITranslationData</text>
</a>
</g>
</g>
<!-- Node0&#45;&gt;Node25 -->
<g id="edge34" class="edge">
<title>Node0&#45;&gt;Node25</title>
<path fill="none" stroke="midnightblue" d="M169.43,-209.93C187.12,-177.46 222.62,-120.74 269,-89.5 274.75,-85.62 281.1,-82.35 287.68,-79.57"/>
<polygon fill="midnightblue" stroke="midnightblue" points="166.12,-208.7 164.52,-219.17 172.3,-211.98 166.12,-208.7"/>
</g>
<!-- Node26 -->
<g id="node27" class="node">
<title>Node26</title>
<g id="a_node27"><a xlink:href="interface_simple_client_side_element_1_1_data_1_1_i_star_sign_data.html" target="_top" xlink:title="[class]">
<polygon fill="none" stroke="black" points="288,-0.5 288,-30.5 431,-30.5 431,-0.5 288,-0.5"/>
<text text-anchor="start" x="296" y="-18.5" font-family="Helvetica,sans-Serif" font-size="10.00">SimpleClientSideElement.</text>
<text text-anchor="middle" x="359.5" y="-7.5" font-family="Helvetica,sans-Serif" font-size="10.00">Data.IStarSignData</text>
</a>
</g>
</g>
<!-- Node0&#45;&gt;Node26 -->
<g id="edge36" class="edge">
<title>Node0&#45;&gt;Node26</title>
<path fill="none" stroke="midnightblue" d="M164.28,-209.74C177.83,-168.08 210.95,-84.16 269,-39.5 274.61,-35.18 280.94,-31.64 287.57,-28.74"/>
<polygon fill="midnightblue" stroke="midnightblue" points="160.91,-208.78 161.25,-219.37 167.59,-210.88 160.91,-208.78"/>
</g>
<!-- Node1 -->
<g id="node2" class="node">
<title>Node1</title>
<g id="a_node2"><a xlink:href="interface_fifty_one_1_1_pipeline_1_1_core_1_1_data_1_1_i_data.html" target="_top" xlink:title="Represents property values">
<polygon fill="none" stroke="black" points="0,-225 0,-244 43,-244 43,-225 0,-225"/>
<text text-anchor="middle" x="21.5" y="-232" font-family="Helvetica,sans-Serif" font-size="10.00">IData</text>
</a>
</g>
</g>
<!-- Node1&#45;&gt;Node0 -->
<g id="edge1" class="edge">
<title>Node1&#45;&gt;Node0</title>
<path fill="none" stroke="midnightblue" d="M53.27,-234.5C61.13,-234.5 69.93,-234.5 78.98,-234.5"/>
<polygon fill="midnightblue" stroke="midnightblue" points="53.2,-231 43.2,-234.5 53.2,-238 53.2,-231"/>
</g>
<!-- Node3 -->
<g id="node4" class="node">
<title>Node3</title>
<g id="a_node4"><a xlink:href="class_examples_1_1_custom_flow_element_1_1_data_1_1_star_sign_data.html" target="_top" xlink:title="[class]">
<polygon fill="none" stroke="black" points="513.5,-378.5 513.5,-408.5 685.5,-408.5 685.5,-378.5 513.5,-378.5"/>
<text text-anchor="start" x="521.5" y="-396.5" font-family="Helvetica,sans-Serif" font-size="10.00">Examples.CustomFlowElement.</text>
<text text-anchor="middle" x="599.5" y="-385.5" font-family="Helvetica,sans-Serif" font-size="10.00">Data.StarSignData</text>
</a>
</g>
</g>
<!-- Node2&#45;&gt;Node3 -->
<g id="edge3" class="edge">
<title>Node2&#45;&gt;Node3</title>
<path fill="none" stroke="midnightblue" d="M455.91,-403.09C474.94,-401.81 494.8,-400.47 513.44,-399.22"/>
<polygon fill="midnightblue" stroke="midnightblue" points="455.49,-399.61 445.75,-403.77 455.96,-406.59 455.49,-399.61"/>
</g>
<!-- Node4&#45;&gt;Node3 -->
<g id="edge6" class="edge">
<title>Node4&#45;&gt;Node3</title>
<path fill="none" stroke="midnightblue" d="M444.4,-283.14C446.35,-284.5 448.22,-285.95 450,-287.5 480.06,-313.59 455.14,-344.36 486,-369.5 494.05,-376.06 503.47,-380.94 513.38,-384.56"/>
<polygon fill="midnightblue" stroke="midnightblue" points="445.84,-279.91 435.47,-277.72 442.21,-285.9 445.84,-279.91"/>
</g>
<!-- Node5 -->
<g id="node6" class="node">
<title>Node5</title>
<g id="a_node6"><a xlink:href="class_evidence_copy_data.html" target="_top" xlink:title="Data type for the EvidenceCopyElement.">
<polygon fill="none" stroke="black" points="545,-242 545,-261 654,-261 654,-242 545,-242"/>
<text text-anchor="middle" x="599.5" y="-249" font-family="Helvetica,sans-Serif" font-size="10.00">EvidenceCopyData</text>
</a>
</g>
</g>
<!-- Node4&#45;&gt;Node5 -->
<g id="edge5" class="edge">
<title>Node4&#45;&gt;Node5</title>
<path fill="none" stroke="midnightblue" d="M446.83,-258.51C479.6,-257 515.96,-255.31 544.86,-253.98"/>
<polygon fill="midnightblue" stroke="midnightblue" points="446.61,-255.02 436.79,-258.97 446.94,-262.01 446.61,-255.02"/>
</g>
<!-- Node6 -->
<g id="node7" class="node">
<title>Node6</title>
<g id="a_node7"><a xlink:href="class_fifty_one_1_1_pipeline_1_1_engines_1_1_data_1_1_aspect_data_base.html" target="_top" xlink:title="Base class for element data instances that are generated by an IAspectEngine.">
<polygon fill="none" stroke="black" points="528,-427.5 528,-457.5 671,-457.5 671,-427.5 528,-427.5"/>
<text text-anchor="start" x="536" y="-445.5" font-family="Helvetica,sans-Serif" font-size="10.00">FiftyOne.Pipeline.Engines.</text>
<text text-anchor="middle" x="599.5" y="-434.5" font-family="Helvetica,sans-Serif" font-size="10.00">Data.AspectDataBase</text>
</a>
</g>
</g>
<!-- Node4&#45;&gt;Node6 -->
<g id="edge7" class="edge">
<title>Node4&#45;&gt;Node6</title>
<path fill="none" stroke="midnightblue" d="M444.87,-282.93C446.67,-284.35 448.38,-285.87 450,-287.5 492.61,-330.29 442.08,-377.06 486,-418.5 497.47,-429.33 512.58,-435.76 527.98,-439.47"/>
<polygon fill="midnightblue" stroke="midnightblue" points="446.77,-279.99 436.53,-277.28 442.85,-285.79 446.77,-279.99"/>
</g>
<!-- Node9 -->
<g id="node10" class="node">
<title>Node9</title>
<g id="a_node10"><a xlink:href="class_fifty_one_1_1_pipeline_1_1_engines_1_1_fifty_one_1_1_data_1_1_set_headers_data.html" target="_top" xlink:title="Element data instance for SetHeadersElement See the Specification">
<polygon fill="none" stroke="black" points="516.5,-329.5 516.5,-359.5 682.5,-359.5 682.5,-329.5 516.5,-329.5"/>
<text text-anchor="start" x="524.5" y="-347.5" font-family="Helvetica,sans-Serif" font-size="10.00">FiftyOne.Pipeline.Engines.</text>
<text text-anchor="middle" x="599.5" y="-336.5" font-family="Helvetica,sans-Serif" font-size="10.00">FiftyOne.Data.SetHeadersData</text>
</a>
</g>
</g>
<!-- Node4&#45;&gt;Node9 -->
<g id="edge10" class="edge">
<title>Node4&#45;&gt;Node9</title>
<path fill="none" stroke="midnightblue" d="M437.48,-281.38C441.8,-283.25 446.01,-285.28 450,-287.5 468.97,-298.04 466.71,-310.55 486,-320.5 495.41,-325.35 505.74,-329.22 516.22,-332.31"/>
<polygon fill="midnightblue" stroke="midnightblue" points="438.45,-278 427.86,-277.57 435.87,-284.51 438.45,-278"/>
</g>
<!-- Node10 -->
<g id="node11" class="node">
<title>Node10</title>
<g id="a_node11"><a xlink:href="class_fifty_one_1_1_pipeline_1_1_ip_splitter_1_1_split_ip_data.html" target="_top" xlink:title=" ">
<polygon fill="none" stroke="black" points="525,-280.5 525,-310.5 674,-310.5 674,-280.5 525,-280.5"/>
<text text-anchor="start" x="533" y="-298.5" font-family="Helvetica,sans-Serif" font-size="10.00">FiftyOne.Pipeline.IpSplitter.</text>
<text text-anchor="middle" x="599.5" y="-287.5" font-family="Helvetica,sans-Serif" font-size="10.00">SplitIpData</text>
</a>
</g>
</g>
<!-- Node4&#45;&gt;Node10 -->
<g id="edge11" class="edge">
<title>Node4&#45;&gt;Node10</title>
<path fill="none" stroke="midnightblue" d="M446.82,-274.47C472.34,-278.01 500.02,-281.85 524.67,-285.26"/>
<polygon fill="midnightblue" stroke="midnightblue" points="447.17,-270.98 436.79,-273.08 446.21,-277.92 447.17,-270.98"/>
</g>
<!-- Node11 -->
<g id="node12" class="node">
<title>Node11</title>
<g id="a_node12"><a xlink:href="class_fifty_one_1_1_pipeline_1_1_java_script_builder_1_1_data_1_1_java_script_builder_element_data.html" target="_top" xlink:title="The IElementData class for JavaScriptBuilderElement.">
<polygon fill="none" stroke="black" points="486,-192.5 486,-222.5 713,-222.5 713,-192.5 486,-192.5"/>
<text text-anchor="start" x="494" y="-210.5" font-family="Helvetica,sans-Serif" font-size="10.00">FiftyOne.Pipeline.JavaScript</text>
<text text-anchor="middle" x="599.5" y="-199.5" font-family="Helvetica,sans-Serif" font-size="10.00">Builder.Data.JavaScriptBuilderElementData</text>
</a>
</g>
</g>
<!-- Node4&#45;&gt;Node11 -->
<g id="edge12" class="edge">
<title>Node4&#45;&gt;Node11</title>
<path fill="none" stroke="midnightblue" d="M432.79,-245.01C450.2,-240.86 468.76,-236.48 486,-232.5 500.23,-229.22 515.5,-225.77 530.04,-222.53"/>
<polygon fill="midnightblue" stroke="midnightblue" points="431.6,-241.7 422.69,-247.43 433.23,-248.5 431.6,-241.7"/>
</g>
<!-- Node12 -->
<g id="node13" class="node">
<title>Node12</title>
<g id="a_node13"><a xlink:href="class_fifty_one_1_1_pipeline_1_1_json_builder_1_1_data_1_1_json_builder_element_data.html" target="_top" xlink:title="JsonBuilderElement data class.">
<polygon fill="none" stroke="black" points="519,-143.5 519,-173.5 680,-173.5 680,-143.5 519,-143.5"/>
<text text-anchor="start" x="527" y="-161.5" font-family="Helvetica,sans-Serif" font-size="10.00">FiftyOne.Pipeline.JsonBuilder.</text>
<text text-anchor="middle" x="599.5" y="-150.5" font-family="Helvetica,sans-Serif" font-size="10.00">Data.JsonBuilderElementData</text>
</a>
</g>
</g>
<!-- Node4&#45;&gt;Node12 -->
<g id="edge13" class="edge">
<title>Node4&#45;&gt;Node12</title>
<path fill="none" stroke="midnightblue" d="M441.59,-242.91C444.52,-241.25 447.33,-239.45 450,-237.5 473.58,-220.25 461.9,-199.01 486,-182.5 495.8,-175.78 507.13,-170.89 518.73,-167.34"/>
<polygon fill="midnightblue" stroke="midnightblue" points="439.9,-239.85 432.55,-247.48 443.06,-246.1 439.9,-239.85"/>
</g>
<!-- Node13 -->
<g id="node14" class="node">
<title>Node13</title>
<g id="a_node14"><a xlink:href="class_fifty_one_1_1_pipeline_1_1_math_1_1_math_data.html" target="_top" xlink:title=" ">
<polygon fill="none" stroke="black" points="510.5,-104 510.5,-123 688.5,-123 688.5,-104 510.5,-104"/>
<text text-anchor="middle" x="599.5" y="-111" font-family="Helvetica,sans-Serif" font-size="10.00">FiftyOne.Pipeline.Math.MathData</text>
</a>
</g>
</g>
<!-- Node4&#45;&gt;Node13 -->
<g id="edge14" class="edge">
<title>Node4&#45;&gt;Node13</title>
<path fill="none" stroke="midnightblue" d="M444.73,-241.93C446.57,-240.55 448.33,-239.07 450,-237.5 485.62,-203.98 448.8,-165.26 486,-133.5 493.17,-127.38 501.55,-122.84 510.44,-119.51"/>
<polygon fill="midnightblue" stroke="midnightblue" points="442.74,-239.05 436.24,-247.43 446.54,-244.93 442.74,-239.05"/>
</g>
<!-- Node14 -->
<g id="node15" class="node">
<title>Node14</title>
<g id="a_node15"><a xlink:href="class_fifty_one_1_1_pipeline_1_1_translation_1_1_data_1_1_translation_data.html" target="_top" xlink:title="Data object populated by FlowElements.TranslationEngine.">
<polygon fill="none" stroke="black" points="520.5,-53.5 520.5,-83.5 678.5,-83.5 678.5,-53.5 520.5,-53.5"/>
<text text-anchor="start" x="528.5" y="-71.5" font-family="Helvetica,sans-Serif" font-size="10.00">FiftyOne.Pipeline.Translation.</text>
<text text-anchor="middle" x="599.5" y="-60.5" font-family="Helvetica,sans-Serif" font-size="10.00">Data.TranslationData</text>
</a>
</g>
</g>
<!-- Node4&#45;&gt;Node14 -->
<g id="edge15" class="edge">
<title>Node4&#45;&gt;Node14</title>
<path fill="none" stroke="midnightblue" d="M444.92,-242.12C446.7,-240.68 448.4,-239.14 450,-237.5 495.74,-190.56 439.21,-140.39 486,-94.5 495.52,-85.17 507.68,-78.93 520.48,-74.8"/>
<polygon fill="midnightblue" stroke="midnightblue" points="442.89,-239.27 436.63,-247.82 446.85,-245.04 442.89,-239.27"/>
</g>
<!-- Node15 -->
<g id="node16" class="node">
<title>Node15</title>
<g id="a_node16"><a xlink:href="class_simple_client_side_element_1_1_data_1_1_star_sign_data.html" target="_top" xlink:title="[class]">
<polygon fill="none" stroke="black" points="528,-1.5 528,-31.5 671,-31.5 671,-1.5 528,-1.5"/>
<text text-anchor="start" x="536" y="-19.5" font-family="Helvetica,sans-Serif" font-size="10.00">SimpleClientSideElement.</text>
<text text-anchor="middle" x="599.5" y="-8.5" font-family="Helvetica,sans-Serif" font-size="10.00">Data.StarSignData</text>
</a>
</g>
</g>
<!-- Node4&#45;&gt;Node15 -->
<g id="edge16" class="edge">
<title>Node4&#45;&gt;Node15</title>
<path fill="none" stroke="midnightblue" d="M444.91,-242.38C446.7,-240.86 448.41,-239.24 450,-237.5 509.19,-172.8 425.63,-107.1 486,-43.5 497.06,-31.85 512.2,-24.84 527.78,-20.71"/>
<polygon fill="midnightblue" stroke="midnightblue" points="442.64,-239.7 436.5,-248.34 446.68,-245.41 442.64,-239.7"/>
</g>
<!-- Node7 -->
<g id="node8" class="node">
<title>Node7</title>
<g id="a_node8"><a xlink:href="class_examples_1_1_cloud_engine_1_1_data_1_1_star_sign_data.html" target="_top" xlink:title="[class]">
<polygon fill="none" stroke="black" points="749,-537.5 749,-567.5 907,-567.5 907,-537.5 749,-537.5"/>
<text text-anchor="start" x="757" y="-555.5" font-family="Helvetica,sans-Serif" font-size="10.00">Examples.CloudEngine.Data.</text>
<text text-anchor="middle" x="828" y="-544.5" font-family="Helvetica,sans-Serif" font-size="10.00">StarSignData</text>
</a>
</g>
</g>
<!-- Node6&#45;&gt;Node7 -->
<g id="edge8" class="edge">
<title>Node6&#45;&gt;Node7</title>
<path fill="none" stroke="midnightblue" d="M680.74,-455.94C691.83,-459.05 702.87,-462.86 713,-467.5 723.32,-472.23 777.7,-514.07 807.47,-537.23"/>
<polygon fill="midnightblue" stroke="midnightblue" points="681.57,-452.54 671.01,-453.38 679.79,-459.31 681.57,-452.54"/>
</g>
<!-- Node8 -->
<g id="node9" class="node">
<title>Node8</title>
<g id="a_node9"><a xlink:href="class_examples_1_1_on_premise_engine_1_1_data_1_1_star_sign_data.html" target="_top" xlink:title="[class]">
<polygon fill="none" stroke="black" points="749.5,-451.5 749.5,-481.5 906.5,-481.5 906.5,-451.5 749.5,-451.5"/>
<text text-anchor="start" x="757.5" y="-469.5" font-family="Helvetica,sans-Serif" font-size="10.00">Examples.OnPremiseEngine.</text>
<text text-anchor="middle" x="828" y="-458.5" font-family="Helvetica,sans-Serif" font-size="10.00">Data.StarSignData</text>
</a>
</g>
</g>
<!-- Node6&#45;&gt;Node8 -->
<g id="edge9" class="edge">
<title>Node6&#45;&gt;Node8</title>
<path fill="none" stroke="midnightblue" d="M681.27,-451.06C703.41,-453.4 727.36,-455.94 749.33,-458.27"/>
<polygon fill="midnightblue" stroke="midnightblue" points="681.55,-447.57 671.23,-450 680.81,-454.53 681.55,-447.57"/>
</g>
<!-- Node16&#45;&gt;Node6 -->
<g id="edge22" class="edge">
<title>Node16&#45;&gt;Node6</title>
<path fill="none" stroke="midnightblue" d="M441.41,-474.84C469.38,-469.08 500.49,-462.68 527.6,-457.1"/>
<polygon fill="midnightblue" stroke="midnightblue" points="440.35,-471.49 431.26,-476.93 441.76,-478.34 440.35,-471.49"/>
</g>
<!-- Node17 -->
<g id="node18" class="node">
<title>Node17</title>
<g id="a_node18"><a xlink:href="interface_examples_1_1_cloud_engine_1_1_data_1_1_i_star_sign_data.html" target="_top" xlink:title="[class]">
<polygon fill="none" stroke="black" points="520.5,-574.5 520.5,-604.5 678.5,-604.5 678.5,-574.5 520.5,-574.5"/>
<text text-anchor="start" x="528.5" y="-592.5" font-family="Helvetica,sans-Serif" font-size="10.00">Examples.CloudEngine.Data.</text>
<text text-anchor="middle" x="599.5" y="-581.5" font-family="Helvetica,sans-Serif" font-size="10.00">IStarSignData</text>
</a>
</g>
</g>
<!-- Node16&#45;&gt;Node17 -->
<g id="edge18" class="edge">
<title>Node16&#45;&gt;Node17</title>
<path fill="none" stroke="midnightblue" d="M389.67,-512.4C414.26,-529.08 450.95,-551.84 486,-565.5 496.89,-569.74 508.67,-573.3 520.38,-576.26"/>
<polygon fill="midnightblue" stroke="midnightblue" points="391.41,-509.34 381.19,-506.55 387.44,-515.11 391.41,-509.34"/>
</g>
<!-- Node18 -->
<g id="node19" class="node">
<title>Node18</title>
<g id="a_node19"><a xlink:href="interface_examples_1_1_on_premise_engine_1_1_data_1_1_i_star_sign_data.html" target="_top" xlink:title="[class]">
<polygon fill="none" stroke="black" points="521,-476.5 521,-506.5 678,-506.5 678,-476.5 521,-476.5"/>
<text text-anchor="start" x="529" y="-494.5" font-family="Helvetica,sans-Serif" font-size="10.00">Examples.OnPremiseEngine.</text>
<text text-anchor="middle" x="599.5" y="-483.5" font-family="Helvetica,sans-Serif" font-size="10.00">Data.IStarSignData</text>
</a>
</g>
</g>
<!-- Node16&#45;&gt;Node18 -->
<g id="edge20" class="edge">
<title>Node16&#45;&gt;Node18</title>
<path fill="none" stroke="midnightblue" d="M441.35,-491.5C467.08,-491.5 495.46,-491.5 520.94,-491.5"/>
<polygon fill="midnightblue" stroke="midnightblue" points="441.26,-488 431.26,-491.5 441.26,-495 441.26,-488"/>
</g>
<!-- Node19 -->
<g id="node20" class="node">
<title>Node19</title>
<g id="a_node20"><a xlink:href="interface_fifty_one_1_1_pipeline_1_1_engines_1_1_data_1_1_i_multi_profile_data.html" target="_top" xlink:title="Represents a specific type of IAspectData that contains multiple IAspectData instances.">
<polygon fill="none" stroke="black" points="523,-525.5 523,-555.5 676,-555.5 676,-525.5 523,-525.5"/>
<text text-anchor="start" x="531" y="-543.5" font-family="Helvetica,sans-Serif" font-size="10.00">FiftyOne.Pipeline.Engines.</text>
<text text-anchor="middle" x="599.5" y="-532.5" font-family="Helvetica,sans-Serif" font-size="10.00">Data.IMultiProfileData&lt; T &gt;</text>
</a>
</g>
</g>
<!-- Node16&#45;&gt;Node19 -->
<g id="edge23" class="edge">
<title>Node16&#45;&gt;Node19</title>
<path fill="none" stroke="midnightblue" d="M441.18,-508.11C468.5,-513.74 498.85,-519.98 525.53,-525.48"/>
<polygon fill="midnightblue" stroke="midnightblue" points="441.76,-504.66 431.26,-506.07 440.35,-511.51 441.76,-504.66"/>
</g>
<!-- Node17&#45;&gt;Node7 -->
<g id="edge19" class="edge">
<title>Node17&#45;&gt;Node7</title>
<path fill="none" stroke="midnightblue" d="M688.7,-575.09C708.5,-571.86 729.37,-568.45 748.73,-565.29"/>
<polygon fill="midnightblue" stroke="midnightblue" points="688.07,-571.65 678.77,-576.71 689.2,-578.56 688.07,-571.65"/>
</g>
<!-- Node18&#45;&gt;Node8 -->
<g id="edge21" class="edge">
<title>Node18&#45;&gt;Node8</title>
<path fill="none" stroke="midnightblue" d="M688.25,-481.81C708.43,-479.59 729.76,-477.23 749.47,-475.06"/>
<polygon fill="midnightblue" stroke="midnightblue" points="687.69,-478.36 678.13,-482.93 688.46,-485.31 687.69,-478.36"/>
</g>
<!-- Node20&#45;&gt;Node9 -->
<g id="edge25" class="edge">
<title>Node20&#45;&gt;Node9</title>
<path fill="none" stroke="midnightblue" d="M454.07,-354.21C474.63,-352.83 496.26,-351.37 516.33,-350.02"/>
<polygon fill="midnightblue" stroke="midnightblue" points="453.82,-350.72 444.08,-354.88 454.29,-357.7 453.82,-350.72"/>
</g>
<!-- Node21&#45;&gt;Node10 -->
<g id="edge27" class="edge">
<title>Node21&#45;&gt;Node10</title>
<path fill="none" stroke="midnightblue" d="M444.46,-305.86C470.65,-304.09 499.33,-302.17 524.76,-300.46"/>
<polygon fill="midnightblue" stroke="midnightblue" points="443.92,-302.38 434.17,-306.55 444.39,-309.37 443.92,-302.38"/>
</g>
<!-- Node22&#45;&gt;Node11 -->
<g id="edge29" class="edge">
<title>Node22&#45;&gt;Node11</title>
<path fill="none" stroke="midnightblue" d="M452.91,-207.5C463.63,-207.5 474.65,-207.5 485.61,-207.5"/>
<polygon fill="midnightblue" stroke="midnightblue" points="452.74,-204 442.74,-207.5 452.74,-211 452.74,-204"/>
</g>
<!-- Node23&#45;&gt;Node12 -->
<g id="edge31" class="edge">
<title>Node23&#45;&gt;Node12</title>
<path fill="none" stroke="midnightblue" d="M451.79,-154.8C473.88,-155.36 497.32,-155.95 518.83,-156.49"/>
<polygon fill="midnightblue" stroke="midnightblue" points="451.83,-151.3 441.74,-154.55 451.65,-158.3 451.83,-151.3"/>
</g>
<!-- Node24&#45;&gt;Node13 -->
<g id="edge33" class="edge">
<title>Node24&#45;&gt;Node13</title>
<path fill="none" stroke="midnightblue" d="M460.35,-110.6C476.88,-110.94 493.91,-111.3 510.13,-111.64"/>
<polygon fill="midnightblue" stroke="midnightblue" points="460.21,-107.09 450.14,-110.38 460.06,-114.09 460.21,-107.09"/>
</g>
<!-- Node25&#45;&gt;Node14 -->
<g id="edge35" class="edge">
<title>Node25&#45;&gt;Node14</title>
<path fill="none" stroke="midnightblue" d="M449.01,-65.99C472.37,-66.38 497.41,-66.8 520.19,-67.18"/>
<polygon fill="midnightblue" stroke="midnightblue" points="448.82,-62.48 438.76,-65.82 448.7,-69.48 448.82,-62.48"/>
</g>
<!-- Node26&#45;&gt;Node15 -->
<g id="edge37" class="edge">
<title>Node26&#45;&gt;Node15</title>
<path fill="none" stroke="midnightblue" d="M441.41,-15.84C469.38,-15.96 500.49,-16.09 527.6,-16.2"/>
<polygon fill="midnightblue" stroke="midnightblue" points="441.28,-12.34 431.26,-15.8 441.25,-19.34 441.28,-12.34"/>
</g>
</g>
</svg>
