<?xml version="1.0" encoding="UTF-8" standalone="no"?>
<!DOCTYPE svg PUBLIC "-//W3C//DTD SVG 1.1//EN"
 "http://www.w3.org/Graphics/SVG/1.1/DTD/svg11.dtd">
<!-- Generated by graphviz version 2.43.0 (0)
 -->
<!-- Title: FiftyOne.Pipeline.Core.Data.IData Pages: 1 -->
<svg width="1026pt" height="655pt"
 viewBox="0.00 0.00 1026.00 655.00" xmlns="http://www.w3.org/2000/svg" xmlns:xlink="http://www.w3.org/1999/xlink">
<g id="graph0" class="graph" transform="scale(1 1) rotate(0) translate(4 651)">
<title>FiftyOne.Pipeline.Core.Data.IData</title>
<!-- Node0 -->
<g id="node1" class="node">
<title>Node0</title>
<g id="a_node1"><a xlink:title="Represents property values">
<polygon fill="#bfbfbf" stroke="black" points="0,-159.5 0,-189.5 154,-189.5 154,-159.5 0,-159.5"/>
<text text-anchor="start" x="8" y="-177.5" font-family="Helvetica,sans-Serif" font-size="10.00">FiftyOne.Pipeline.Core.Data.</text>
<text text-anchor="middle" x="77" y="-166.5" font-family="Helvetica,sans-Serif" font-size="10.00">IData</text>
</a>
</g>
</g>
<!-- Node1 -->
<g id="node2" class="node">
<title>Node1</title>
<g id="a_node2"><a xlink:href="class_fifty_one_1_1_pipeline_1_1_core_1_1_data_1_1_data_base.html" target="_top" xlink:title="This class stores data values as key/value pairs where the key is a string and the value can be any t...">
<polygon fill="none" stroke="black" points="190,-159.5 190,-189.5 344,-189.5 344,-159.5 190,-159.5"/>
<text text-anchor="start" x="198" y="-177.5" font-family="Helvetica,sans-Serif" font-size="10.00">FiftyOne.Pipeline.Core.Data.</text>
<text text-anchor="middle" x="267" y="-166.5" font-family="Helvetica,sans-Serif" font-size="10.00">DataBase</text>
</a>
</g>
</g>
<!-- Node0&#45;&gt;Node1 -->
<g id="edge1" class="edge">
<title>Node0&#45;&gt;Node1</title>
<path fill="none" stroke="midnightblue" d="M164.42,-174.5C172.86,-174.5 181.37,-174.5 189.7,-174.5"/>
<polygon fill="midnightblue" stroke="midnightblue" points="164.2,-171 154.2,-174.5 164.2,-178 164.2,-171"/>
</g>
<!-- Node16 -->
<g id="node17" class="node">
<title>Node16</title>
<g id="a_node17"><a xlink:href="interface_fifty_one_1_1_pipeline_1_1_core_1_1_data_1_1_i_element_data.html" target="_top" xlink:title="Represents property values that have been determined by a specific FlowElement based on the supplied ...">
<polygon fill="none" stroke="black" points="190,-245.5 190,-275.5 344,-275.5 344,-245.5 190,-245.5"/>
<text text-anchor="start" x="198" y="-263.5" font-family="Helvetica,sans-Serif" font-size="10.00">FiftyOne.Pipeline.Core.Data.</text>
<text text-anchor="middle" x="267" y="-252.5" font-family="Helvetica,sans-Serif" font-size="10.00">IElementData</text>
</a>
</g>
</g>
<!-- Node0&#45;&gt;Node16 -->
<g id="edge16" class="edge">
<title>Node0&#45;&gt;Node16</title>
<path fill="none" stroke="midnightblue" d="M120.43,-193.91C154.57,-209.53 201.85,-231.16 233.15,-245.47"/>
<polygon fill="midnightblue" stroke="midnightblue" points="121.73,-190.65 111.18,-189.68 118.82,-197.02 121.73,-190.65"/>
</g>
<!-- Node29 -->
<g id="node30" class="node">
<title>Node29</title>
<g id="a_node30"><a xlink:href="interface_fifty_one_1_1_pipeline_1_1_core_1_1_data_1_1_i_evidence.html" target="_top" xlink:title="Interface to the evidence that is passed in to a Pipeline as part of a FlowData object See the Specif...">
<polygon fill="none" stroke="black" points="190,-37.5 190,-67.5 344,-67.5 344,-37.5 190,-37.5"/>
<text text-anchor="start" x="198" y="-55.5" font-family="Helvetica,sans-Serif" font-size="10.00">FiftyOne.Pipeline.Core.Data.</text>
<text text-anchor="middle" x="267" y="-44.5" font-family="Helvetica,sans-Serif" font-size="10.00">IEvidence</text>
</a>
</g>
</g>
<!-- Node0&#45;&gt;Node29 -->
<g id="edge41" class="edge">
<title>Node0&#45;&gt;Node29</title>
<path fill="none" stroke="midnightblue" d="M110.01,-153.73C147.74,-129.24 209.5,-89.17 242.87,-67.51"/>
<polygon fill="midnightblue" stroke="midnightblue" points="107.91,-150.92 101.43,-159.3 111.72,-156.79 107.91,-150.92"/>
</g>
<!-- Node2 -->
<g id="node3" class="node">
<title>Node2</title>
<g id="a_node3"><a xlink:href="class_fifty_one_1_1_pipeline_1_1_core_1_1_data_1_1_element_data_base.html" target="_top" xlink:title="This class stores property values that have been determined by a specific FlowElement based on the su...">
<polygon fill="none" stroke="black" points="393.5,-245.5 393.5,-275.5 547.5,-275.5 547.5,-245.5 393.5,-245.5"/>
<text text-anchor="start" x="401.5" y="-263.5" font-family="Helvetica,sans-Serif" font-size="10.00">FiftyOne.Pipeline.Core.Data.</text>
<text text-anchor="middle" x="470.5" y="-252.5" font-family="Helvetica,sans-Serif" font-size="10.00">ElementDataBase</text>
</a>
</g>
</g>
<!-- Node1&#45;&gt;Node2 -->
<g id="edge2" class="edge">
<title>Node1&#45;&gt;Node2</title>
<path fill="none" stroke="midnightblue" d="M299.75,-194.81C321.63,-208.12 351.74,-225.09 380,-236.5 388.2,-239.81 397.01,-242.81 405.79,-245.47"/>
<polygon fill="midnightblue" stroke="midnightblue" points="301.55,-191.81 291.2,-189.55 297.88,-197.77 301.55,-191.81"/>
</g>
<!-- Node15 -->
<g id="node16" class="node">
<title>Node15</title>
<g id="a_node16"><a xlink:href="class_fifty_one_1_1_pipeline_1_1_core_1_1_data_1_1_evidence.html" target="_top" xlink:title="This class contains the evidence that is passed in to a Pipeline as part of a FlowData object See the...">
<polygon fill="none" stroke="black" points="393.5,-0.5 393.5,-30.5 547.5,-30.5 547.5,-0.5 393.5,-0.5"/>
<text text-anchor="start" x="401.5" y="-18.5" font-family="Helvetica,sans-Serif" font-size="10.00">FiftyOne.Pipeline.Core.Data.</text>
<text text-anchor="middle" x="470.5" y="-7.5" font-family="Helvetica,sans-Serif" font-size="10.00">Evidence</text>
</a>
</g>
</g>
<!-- Node1&#45;&gt;Node15 -->
<g id="edge15" class="edge">
<title>Node1&#45;&gt;Node15</title>
<path fill="none" stroke="midnightblue" d="M286.26,-150.95C314.84,-114.33 368.13,-47.11 380,-39.5 385.42,-36.03 391.33,-33.05 397.44,-30.51"/>
<polygon fill="midnightblue" stroke="midnightblue" points="283.28,-149.09 279.89,-159.13 288.8,-153.39 283.28,-149.09"/>
</g>
<!-- Node3 -->
<g id="node4" class="node">
<title>Node3</title>
<g id="a_node4"><a xlink:href="class_evidence_copy_data.html" target="_top" xlink:title="Data type for the EvidenceCopyElement.">
<polygon fill="none" stroke="black" points="656,-246 656,-265 765,-265 765,-246 656,-246"/>
<text text-anchor="middle" x="710.5" y="-253" font-family="Helvetica,sans-Serif" font-size="10.00">EvidenceCopyData</text>
</a>
</g>
</g>
<!-- Node2&#45;&gt;Node3 -->
<g id="edge3" class="edge">
<title>Node2&#45;&gt;Node3</title>
<path fill="none" stroke="midnightblue" d="M557.83,-258.69C590.6,-258 626.96,-257.23 655.86,-256.63"/>
<polygon fill="midnightblue" stroke="midnightblue" points="557.71,-255.19 547.79,-258.9 557.86,-262.19 557.71,-255.19"/>
</g>
<!-- Node4 -->
<g id="node5" class="node">
<title>Node4</title>
<g id="a_node5"><a xlink:href="class_examples_1_1_custom_flow_element_1_1_data_1_1_star_sign_data.html" target="_top" xlink:title="[class]">
<polygon fill="none" stroke="black" points="624.5,-98.5 624.5,-128.5 796.5,-128.5 796.5,-98.5 624.5,-98.5"/>
<text text-anchor="start" x="632.5" y="-116.5" font-family="Helvetica,sans-Serif" font-size="10.00">Examples.CustomFlowElement.</text>
<text text-anchor="middle" x="710.5" y="-105.5" font-family="Helvetica,sans-Serif" font-size="10.00">Data.StarSignData</text>
</a>
</g>
</g>
<!-- Node2&#45;&gt;Node4 -->
<g id="edge4" class="edge">
<title>Node2&#45;&gt;Node4</title>
<path fill="none" stroke="midnightblue" d="M556.26,-240.43C557.9,-239.19 559.49,-237.89 561,-236.5 595.51,-204.86 561.68,-168.23 597,-137.5 604.91,-130.62 614.31,-125.55 624.25,-121.84"/>
<polygon fill="midnightblue" stroke="midnightblue" points="554.11,-237.65 547.59,-246 557.89,-243.54 554.11,-237.65"/>
</g>
<!-- Node5 -->
<g id="node6" class="node">
<title>Node5</title>
<g id="a_node6"><a xlink:href="class_fifty_one_1_1_pipeline_1_1_engines_1_1_data_1_1_aspect_data_base.html" target="_top" xlink:title="Base class for element data instances that are generated by an IAspectEngine.">
<polygon fill="none" stroke="black" points="639,-469.5 639,-499.5 782,-499.5 782,-469.5 639,-469.5"/>
<text text-anchor="start" x="647" y="-487.5" font-family="Helvetica,sans-Serif" font-size="10.00">FiftyOne.Pipeline.Engines.</text>
<text text-anchor="middle" x="710.5" y="-476.5" font-family="Helvetica,sans-Serif" font-size="10.00">Data.AspectDataBase</text>
</a>
</g>
</g>
<!-- Node2&#45;&gt;Node5 -->
<g id="edge5" class="edge">
<title>Node2&#45;&gt;Node5</title>
<path fill="none" stroke="midnightblue" d="M556.02,-280.79C557.77,-282.25 559.44,-283.82 561,-285.5 615.16,-343.57 541.06,-404.15 597,-460.5 608.19,-471.77 623.27,-478.35 638.76,-482.07"/>
<polygon fill="midnightblue" stroke="midnightblue" points="558.01,-277.91 547.83,-274.99 553.97,-283.63 558.01,-277.91"/>
</g>
<!-- Node8 -->
<g id="node9" class="node">
<title>Node8</title>
<g id="a_node9"><a xlink:href="class_fifty_one_1_1_pipeline_1_1_engines_1_1_fifty_one_1_1_data_1_1_set_headers_data.html" target="_top" xlink:title="Element data instance for SetHeadersElement See the Specification">
<polygon fill="none" stroke="black" points="627.5,-49.5 627.5,-79.5 793.5,-79.5 793.5,-49.5 627.5,-49.5"/>
<text text-anchor="start" x="635.5" y="-67.5" font-family="Helvetica,sans-Serif" font-size="10.00">FiftyOne.Pipeline.Engines.</text>
<text text-anchor="middle" x="710.5" y="-56.5" font-family="Helvetica,sans-Serif" font-size="10.00">FiftyOne.Data.SetHeadersData</text>
</a>
</g>
</g>
<!-- Node2&#45;&gt;Node8 -->
<g id="edge8" class="edge">
<title>Node2&#45;&gt;Node8</title>
<path fill="none" stroke="midnightblue" d="M555.93,-241.09C557.7,-239.66 559.4,-238.14 561,-236.5 608.31,-188.08 548.46,-135.68 597,-88.5 605.52,-80.22 616.16,-74.49 627.47,-70.57"/>
<polygon fill="midnightblue" stroke="midnightblue" points="553.94,-238.21 547.64,-246.73 557.88,-244 553.94,-238.21"/>
</g>
<!-- Node9 -->
<g id="node10" class="node">
<title>Node9</title>
<g id="a_node10"><a xlink:href="class_fifty_one_1_1_pipeline_1_1_ip_splitter_1_1_split_ip_data.html" target="_top" xlink:title=" ">
<polygon fill="none" stroke="black" points="636,-420.5 636,-450.5 785,-450.5 785,-420.5 636,-420.5"/>
<text text-anchor="start" x="644" y="-438.5" font-family="Helvetica,sans-Serif" font-size="10.00">FiftyOne.Pipeline.IpSplitter.</text>
<text text-anchor="middle" x="710.5" y="-427.5" font-family="Helvetica,sans-Serif" font-size="10.00">SplitIpData</text>
</a>
</g>
</g>
<!-- Node2&#45;&gt;Node9 -->
<g id="edge9" class="edge">
<title>Node2&#45;&gt;Node9</title>
<path fill="none" stroke="midnightblue" d="M556.4,-281.39C558.01,-282.68 559.54,-284.05 561,-285.5 602.3,-326.56 554.44,-371.74 597,-411.5 607.73,-421.52 621.57,-427.76 635.85,-431.58"/>
<polygon fill="midnightblue" stroke="midnightblue" points="558.13,-278.33 547.91,-275.57 554.18,-284.11 558.13,-278.33"/>
</g>
<!-- Node10 -->
<g id="node11" class="node">
<title>Node10</title>
<g id="a_node11"><a xlink:href="class_fifty_one_1_1_pipeline_1_1_java_script_builder_1_1_data_1_1_java_script_builder_element_data.html" target="_top" xlink:title="The IElementData class for JavaScriptBuilderElement.">
<polygon fill="none" stroke="black" points="597,-371.5 597,-401.5 824,-401.5 824,-371.5 597,-371.5"/>
<text text-anchor="start" x="605" y="-389.5" font-family="Helvetica,sans-Serif" font-size="10.00">FiftyOne.Pipeline.JavaScript</text>
<text text-anchor="middle" x="710.5" y="-378.5" font-family="Helvetica,sans-Serif" font-size="10.00">Builder.Data.JavaScriptBuilderElementData</text>
</a>
</g>
</g>
<!-- Node2&#45;&gt;Node10 -->
<g id="edge10" class="edge">
<title>Node2&#45;&gt;Node10</title>
<path fill="none" stroke="midnightblue" d="M554.73,-280.77C556.91,-282.24 559.01,-283.81 561,-285.5 589.82,-309.92 567.43,-338.99 597,-362.5 601.3,-365.92 605.97,-368.88 610.89,-371.44"/>
<polygon fill="midnightblue" stroke="midnightblue" points="556.33,-277.65 545.93,-275.61 552.79,-283.69 556.33,-277.65"/>
</g>
<!-- Node11 -->
<g id="node12" class="node">
<title>Node11</title>
<g id="a_node12"><a xlink:href="class_fifty_one_1_1_pipeline_1_1_json_builder_1_1_data_1_1_json_builder_element_data.html" target="_top" xlink:title="JsonBuilderElement data class.">
<polygon fill="none" stroke="black" points="630,-322.5 630,-352.5 791,-352.5 791,-322.5 630,-322.5"/>
<text text-anchor="start" x="638" y="-340.5" font-family="Helvetica,sans-Serif" font-size="10.00">FiftyOne.Pipeline.JsonBuilder.</text>
<text text-anchor="middle" x="710.5" y="-329.5" font-family="Helvetica,sans-Serif" font-size="10.00">Data.JsonBuilderElementData</text>
</a>
</g>
</g>
<!-- Node2&#45;&gt;Node11 -->
<g id="edge11" class="edge">
<title>Node2&#45;&gt;Node11</title>
<path fill="none" stroke="midnightblue" d="M546.38,-279.13C551.41,-281.08 556.33,-283.2 561,-285.5 578.94,-294.34 578.83,-304.14 597,-312.5 607.27,-317.22 618.49,-321.08 629.73,-324.22"/>
<polygon fill="midnightblue" stroke="midnightblue" points="547.21,-275.71 536.61,-275.6 544.83,-282.29 547.21,-275.71"/>
</g>
<!-- Node12 -->
<g id="node13" class="node">
<title>Node12</title>
<g id="a_node13"><a xlink:href="class_fifty_one_1_1_pipeline_1_1_math_1_1_math_data.html" target="_top" xlink:title=" ">
<polygon fill="none" stroke="black" points="621.5,-284 621.5,-303 799.5,-303 799.5,-284 621.5,-284"/>
<text text-anchor="middle" x="710.5" y="-291" font-family="Helvetica,sans-Serif" font-size="10.00">FiftyOne.Pipeline.Math.MathData</text>
</a>
</g>
</g>
<!-- Node2&#45;&gt;Node12 -->
<g id="edge12" class="edge">
<title>Node2&#45;&gt;Node12</title>
<path fill="none" stroke="midnightblue" d="M557.74,-272.46C585.09,-276.25 614.95,-280.39 640.89,-283.99"/>
<polygon fill="midnightblue" stroke="midnightblue" points="558.17,-268.98 547.79,-271.08 557.21,-275.92 558.17,-268.98"/>
</g>
<!-- Node13 -->
<g id="node14" class="node">
<title>Node13</title>
<g id="a_node14"><a xlink:href="class_fifty_one_1_1_pipeline_1_1_translation_1_1_data_1_1_translation_data.html" target="_top" xlink:title="Data object populated by FlowElements.TranslationEngine.">
<polygon fill="none" stroke="black" points="631.5,-196.5 631.5,-226.5 789.5,-226.5 789.5,-196.5 631.5,-196.5"/>
<text text-anchor="start" x="639.5" y="-214.5" font-family="Helvetica,sans-Serif" font-size="10.00">FiftyOne.Pipeline.Translation.</text>
<text text-anchor="middle" x="710.5" y="-203.5" font-family="Helvetica,sans-Serif" font-size="10.00">Data.TranslationData</text>
</a>
</g>
</g>
<!-- Node2&#45;&gt;Node13 -->
<g id="edge13" class="edge">
<title>Node2&#45;&gt;Node13</title>
<path fill="none" stroke="midnightblue" d="M554.62,-243.39C581.33,-237.89 610.7,-231.84 636.61,-226.51"/>
<polygon fill="midnightblue" stroke="midnightblue" points="553.61,-240.02 544.53,-245.47 555.03,-246.88 553.61,-240.02"/>
</g>
<!-- Node14 -->
<g id="node15" class="node">
<title>Node14</title>
<g id="a_node15"><a xlink:href="class_simple_client_side_element_1_1_data_1_1_star_sign_data.html" target="_top" xlink:title="[class]">
<polygon fill="none" stroke="black" points="639,-147.5 639,-177.5 782,-177.5 782,-147.5 639,-147.5"/>
<text text-anchor="start" x="647" y="-165.5" font-family="Helvetica,sans-Serif" font-size="10.00">SimpleClientSideElement.</text>
<text text-anchor="middle" x="710.5" y="-154.5" font-family="Helvetica,sans-Serif" font-size="10.00">Data.StarSignData</text>
</a>
</g>
</g>
<!-- Node2&#45;&gt;Node14 -->
<g id="edge14" class="edge">
<title>Node2&#45;&gt;Node14</title>
<path fill="none" stroke="midnightblue" d="M553.87,-240.89C556.33,-239.52 558.71,-238.06 561,-236.5 583.31,-221.25 574.37,-202.26 597,-187.5 609.49,-179.36 624.23,-173.84 638.86,-170.1"/>
<polygon fill="midnightblue" stroke="midnightblue" points="552.1,-237.86 544.69,-245.43 555.21,-244.14 552.1,-237.86"/>
</g>
<!-- Node6 -->
<g id="node7" class="node">
<title>Node6</title>
<g id="a_node7"><a xlink:href="class_examples_1_1_cloud_engine_1_1_data_1_1_star_sign_data.html" target="_top" xlink:title="[class]">
<polygon fill="none" stroke="black" points="860,-579.5 860,-609.5 1018,-609.5 1018,-579.5 860,-579.5"/>
<text text-anchor="start" x="868" y="-597.5" font-family="Helvetica,sans-Serif" font-size="10.00">Examples.CloudEngine.Data.</text>
<text text-anchor="middle" x="939" y="-586.5" font-family="Helvetica,sans-Serif" font-size="10.00">StarSignData</text>
</a>
</g>
</g>
<!-- Node5&#45;&gt;Node6 -->
<g id="edge6" class="edge">
<title>Node5&#45;&gt;Node6</title>
<path fill="none" stroke="midnightblue" d="M791.74,-497.94C802.83,-501.05 813.87,-504.86 824,-509.5 834.32,-514.23 888.7,-556.07 918.47,-579.23"/>
<polygon fill="midnightblue" stroke="midnightblue" points="792.57,-494.54 782.01,-495.38 790.79,-501.31 792.57,-494.54"/>
</g>
<!-- Node7 -->
<g id="node8" class="node">
<title>Node7</title>
<g id="a_node8"><a xlink:href="class_examples_1_1_on_premise_engine_1_1_data_1_1_star_sign_data.html" target="_top" xlink:title="[class]">
<polygon fill="none" stroke="black" points="860.5,-493.5 860.5,-523.5 1017.5,-523.5 1017.5,-493.5 860.5,-493.5"/>
<text text-anchor="start" x="868.5" y="-511.5" font-family="Helvetica,sans-Serif" font-size="10.00">Examples.OnPremiseEngine.</text>
<text text-anchor="middle" x="939" y="-500.5" font-family="Helvetica,sans-Serif" font-size="10.00">Data.StarSignData</text>
</a>
</g>
</g>
<!-- Node5&#45;&gt;Node7 -->
<g id="edge7" class="edge">
<title>Node5&#45;&gt;Node7</title>
<path fill="none" stroke="midnightblue" d="M792.27,-493.06C814.41,-495.4 838.36,-497.94 860.33,-500.27"/>
<polygon fill="midnightblue" stroke="midnightblue" points="792.55,-489.57 782.23,-492 791.81,-496.53 792.55,-489.57"/>
</g>
<!-- Node16&#45;&gt;Node2 -->
<g id="edge19" class="edge">
<title>Node16&#45;&gt;Node2</title>
<path fill="none" stroke="midnightblue" d="M354.44,-260.5C367.33,-260.5 380.55,-260.5 393.21,-260.5"/>
<polygon fill="midnightblue" stroke="midnightblue" points="354.18,-257 344.18,-260.5 354.18,-264 354.18,-257"/>
</g>
<!-- Node17 -->
<g id="node18" class="node">
<title>Node17</title>
<g id="a_node18"><a xlink:href="interface_examples_1_1_custom_flow_element_1_1_data_1_1_i_star_sign_data.html" target="_top" xlink:title=" ">
<polygon fill="none" stroke="black" points="384.5,-98.5 384.5,-128.5 556.5,-128.5 556.5,-98.5 384.5,-98.5"/>
<text text-anchor="start" x="392.5" y="-116.5" font-family="Helvetica,sans-Serif" font-size="10.00">Examples.CustomFlowElement.</text>
<text text-anchor="middle" x="470.5" y="-105.5" font-family="Helvetica,sans-Serif" font-size="10.00">Data.IStarSignData</text>
</a>
</g>
</g>
<!-- Node16&#45;&gt;Node17 -->
<g id="edge17" class="edge">
<title>Node16&#45;&gt;Node17</title>
<path fill="none" stroke="midnightblue" d="M299.46,-239.36C314.1,-228.55 331.09,-214.51 344,-199.5 364.78,-175.34 354.7,-156.87 380,-137.5 384.47,-134.08 389.39,-131.14 394.56,-128.62"/>
<polygon fill="midnightblue" stroke="midnightblue" points="297.23,-236.65 291.16,-245.34 301.32,-242.33 297.23,-236.65"/>
</g>
<!-- Node18 -->
<g id="node19" class="node">
<title>Node18</title>
<g id="a_node19"><a xlink:href="interface_fifty_one_1_1_pipeline_1_1_engines_1_1_data_1_1_i_aspect_data.html" target="_top" xlink:title="Represents an ElementData instance that is generated by an IAspectEngine.">
<polygon fill="none" stroke="black" points="399,-518.5 399,-548.5 542,-548.5 542,-518.5 399,-518.5"/>
<text text-anchor="start" x="407" y="-536.5" font-family="Helvetica,sans-Serif" font-size="10.00">FiftyOne.Pipeline.Engines.</text>
<text text-anchor="middle" x="470.5" y="-525.5" font-family="Helvetica,sans-Serif" font-size="10.00">Data.IAspectData</text>
</a>
</g>
</g>
<!-- Node16&#45;&gt;Node18 -->
<g id="edge20" class="edge">
<title>Node16&#45;&gt;Node18</title>
<path fill="none" stroke="midnightblue" d="M275.09,-285.29C288.87,-329.75 323.02,-423.95 380,-483.5 394.27,-498.42 413.99,-510.08 431.28,-518.38"/>
<polygon fill="midnightblue" stroke="midnightblue" points="278.41,-284.16 272.17,-275.6 271.71,-286.19 278.41,-284.16"/>
</g>
<!-- Node22 -->
<g id="node23" class="node">
<title>Node22</title>
<g id="a_node23"><a xlink:href="interface_fifty_one_1_1_pipeline_1_1_engines_1_1_fifty_one_1_1_data_1_1_i_set_headers_data.html" target="_top" xlink:title="The IElementData interface for SetHeadersElement.">
<polygon fill="none" stroke="black" points="386,-49.5 386,-79.5 555,-79.5 555,-49.5 386,-49.5"/>
<text text-anchor="start" x="394" y="-67.5" font-family="Helvetica,sans-Serif" font-size="10.00">FiftyOne.Pipeline.Engines.</text>
<text text-anchor="middle" x="470.5" y="-56.5" font-family="Helvetica,sans-Serif" font-size="10.00">FiftyOne.Data.ISetHeadersData</text>
</a>
</g>
</g>
<!-- Node16&#45;&gt;Node22 -->
<g id="edge27" class="edge">
<title>Node16&#45;&gt;Node22</title>
<path fill="none" stroke="midnightblue" d="M302.22,-239.58C316.87,-229.13 333.08,-215.33 344,-199.5 373.46,-156.81 342.39,-124.21 380,-88.5 383.62,-85.07 387.67,-82.11 392,-79.57"/>
<polygon fill="midnightblue" stroke="midnightblue" points="300.09,-236.8 293.83,-245.34 304.05,-242.57 300.09,-236.8"/>
</g>
<!-- Node23 -->
<g id="node24" class="node">
<title>Node23</title>
<g id="a_node24"><a xlink:href="interface_fifty_one_1_1_pipeline_1_1_ip_splitter_1_1_i_split_ip_data.html" target="_top" xlink:title=" ">
<polygon fill="none" stroke="black" points="396,-443.5 396,-473.5 545,-473.5 545,-443.5 396,-443.5"/>
<text text-anchor="start" x="404" y="-461.5" font-family="Helvetica,sans-Serif" font-size="10.00">FiftyOne.Pipeline.IpSplitter.</text>
<text text-anchor="middle" x="470.5" y="-450.5" font-family="Helvetica,sans-Serif" font-size="10.00">ISplitIpData</text>
</a>
</g>
</g>
<!-- Node16&#45;&gt;Node23 -->
<g id="edge29" class="edge">
<title>Node16&#45;&gt;Node23</title>
<path fill="none" stroke="midnightblue" d="M277.31,-285.33C292.76,-323.11 327.31,-394.74 380,-433.5 385.2,-437.32 390.96,-440.56 396.97,-443.31"/>
<polygon fill="midnightblue" stroke="midnightblue" points="280.4,-283.63 273.46,-275.63 273.89,-286.21 280.4,-283.63"/>
</g>
<!-- Node24 -->
<g id="node25" class="node">
<title>Node24</title>
<g id="a_node25"><a xlink:href="interface_fifty_one_1_1_pipeline_1_1_java_script_builder_1_1_data_1_1_i_java_script_builder_element_data.html" target="_top" xlink:title="The IElementData interface for JavaScriptBuilderElement.">
<polygon fill="none" stroke="black" points="387.5,-383 387.5,-424 553.5,-424 553.5,-383 387.5,-383"/>
<text text-anchor="start" x="395.5" y="-412" font-family="Helvetica,sans-Serif" font-size="10.00">FiftyOne.Pipeline.JavaScript</text>
<text text-anchor="start" x="395.5" y="-401" font-family="Helvetica,sans-Serif" font-size="10.00">Builder.Data.IJavaScriptBuilder</text>
<text text-anchor="middle" x="470.5" y="-390" font-family="Helvetica,sans-Serif" font-size="10.00">ElementData</text>
</a>
</g>
</g>
<!-- Node16&#45;&gt;Node24 -->
<g id="edge31" class="edge">
<title>Node16&#45;&gt;Node24</title>
<path fill="none" stroke="midnightblue" d="M285.28,-283.5C305.44,-308.85 341.02,-349.24 380,-373.5 385.57,-376.96 391.58,-380.08 397.76,-382.87"/>
<polygon fill="midnightblue" stroke="midnightblue" points="287.97,-281.25 279.05,-275.52 282.45,-285.56 287.97,-281.25"/>
</g>
<!-- Node25 -->
<g id="node26" class="node">
<title>Node25</title>
<g id="a_node26"><a xlink:href="interface_fifty_one_1_1_pipeline_1_1_json_builder_1_1_data_1_1_i_json_builder_element_data.html" target="_top" xlink:title="The IElementData interface for JsonBuilderElement.">
<polygon fill="none" stroke="black" points="388.5,-333.5 388.5,-363.5 552.5,-363.5 552.5,-333.5 388.5,-333.5"/>
<text text-anchor="start" x="396.5" y="-351.5" font-family="Helvetica,sans-Serif" font-size="10.00">FiftyOne.Pipeline.JsonBuilder.</text>
<text text-anchor="middle" x="470.5" y="-340.5" font-family="Helvetica,sans-Serif" font-size="10.00">Data.IJsonBuilderElementData</text>
</a>
</g>
</g>
<!-- Node16&#45;&gt;Node25 -->
<g id="edge33" class="edge">
<title>Node16&#45;&gt;Node25</title>
<path fill="none" stroke="midnightblue" d="M299.74,-281.07C321.62,-294.56 351.74,-311.8 380,-323.5 388.94,-327.2 398.61,-330.54 408.17,-333.49"/>
<polygon fill="midnightblue" stroke="midnightblue" points="301.53,-278.07 291.2,-275.74 297.83,-284 301.53,-278.07"/>
</g>
<!-- Node26 -->
<g id="node27" class="node">
<title>Node26</title>
<g id="a_node27"><a xlink:href="interface_fifty_one_1_1_pipeline_1_1_math_1_1_i_math_data.html" target="_top" xlink:title=" ">
<polygon fill="none" stroke="black" points="380,-295 380,-314 561,-314 561,-295 380,-295"/>
<text text-anchor="middle" x="470.5" y="-302" font-family="Helvetica,sans-Serif" font-size="10.00">FiftyOne.Pipeline.Math.IMathData</text>
</a>
</g>
</g>
<!-- Node16&#45;&gt;Node26 -->
<g id="edge35" class="edge">
<title>Node16&#45;&gt;Node26</title>
<path fill="none" stroke="midnightblue" d="M344.74,-277.74C356.54,-280.36 368.59,-283.02 380,-285.5 394.28,-288.61 409.85,-291.94 423.95,-294.93"/>
<polygon fill="midnightblue" stroke="midnightblue" points="345.42,-274.31 334.9,-275.55 343.9,-281.14 345.42,-274.31"/>
</g>
<!-- Node27 -->
<g id="node28" class="node">
<title>Node27</title>
<g id="a_node28"><a xlink:href="interface_fifty_one_1_1_pipeline_1_1_translation_1_1_data_1_1_i_translation_data.html" target="_top" xlink:title="Element data marker interface for FlowElements.TranslationEngine.">
<polygon fill="none" stroke="black" points="391.5,-196.5 391.5,-226.5 549.5,-226.5 549.5,-196.5 391.5,-196.5"/>
<text text-anchor="start" x="399.5" y="-214.5" font-family="Helvetica,sans-Serif" font-size="10.00">FiftyOne.Pipeline.Translation.</text>
<text text-anchor="middle" x="470.5" y="-203.5" font-family="Helvetica,sans-Serif" font-size="10.00">Data.ITranslationData</text>
</a>
</g>
</g>
<!-- Node16&#45;&gt;Node27 -->
<g id="edge37" class="edge">
<title>Node16&#45;&gt;Node27</title>
<path fill="none" stroke="midnightblue" d="M339.57,-243.1C361.86,-237.68 386.24,-231.75 407.79,-226.51"/>
<polygon fill="midnightblue" stroke="midnightblue" points="338.72,-239.7 329.83,-245.47 340.37,-246.5 338.72,-239.7"/>
</g>
<!-- Node28 -->
<g id="node29" class="node">
<title>Node28</title>
<g id="a_node29"><a xlink:href="interface_simple_client_side_element_1_1_data_1_1_i_star_sign_data.html" target="_top" xlink:title="[class]">
<polygon fill="none" stroke="black" points="399,-147.5 399,-177.5 542,-177.5 542,-147.5 399,-147.5"/>
<text text-anchor="start" x="407" y="-165.5" font-family="Helvetica,sans-Serif" font-size="10.00">SimpleClientSideElement.</text>
<text text-anchor="middle" x="470.5" y="-154.5" font-family="Helvetica,sans-Serif" font-size="10.00">Data.IStarSignData</text>
</a>
</g>
</g>
<!-- Node16&#45;&gt;Node28 -->
<g id="edge39" class="edge">
<title>Node16&#45;&gt;Node28</title>
<path fill="none" stroke="midnightblue" d="M295.32,-239.28C317.19,-223.15 349.2,-201.44 380,-187.5 388.23,-183.77 397.14,-180.48 406.05,-177.61"/>
<polygon fill="midnightblue" stroke="midnightblue" points="293.08,-236.58 287.17,-245.37 297.27,-242.18 293.08,-236.58"/>
</g>
<!-- Node17&#45;&gt;Node4 -->
<g id="edge18" class="edge">
<title>Node17&#45;&gt;Node4</title>
<path fill="none" stroke="midnightblue" d="M566.91,-113.5C585.94,-113.5 605.8,-113.5 624.44,-113.5"/>
<polygon fill="midnightblue" stroke="midnightblue" points="566.75,-110 556.75,-113.5 566.75,-117 566.75,-110"/>
</g>
<!-- Node18&#45;&gt;Node5 -->
<g id="edge25" class="edge">
<title>Node18&#45;&gt;Node5</title>
<path fill="none" stroke="midnightblue" d="M552.41,-516.84C580.38,-511.08 611.49,-504.68 638.6,-499.1"/>
<polygon fill="midnightblue" stroke="midnightblue" points="551.35,-513.49 542.26,-518.93 552.76,-520.34 551.35,-513.49"/>
</g>
<!-- Node19 -->
<g id="node20" class="node">
<title>Node19</title>
<g id="a_node20"><a xlink:href="interface_examples_1_1_cloud_engine_1_1_data_1_1_i_star_sign_data.html" target="_top" xlink:title="[class]">
<polygon fill="none" stroke="black" points="631.5,-616.5 631.5,-646.5 789.5,-646.5 789.5,-616.5 631.5,-616.5"/>
<text text-anchor="start" x="639.5" y="-634.5" font-family="Helvetica,sans-Serif" font-size="10.00">Examples.CloudEngine.Data.</text>
<text text-anchor="middle" x="710.5" y="-623.5" font-family="Helvetica,sans-Serif" font-size="10.00">IStarSignData</text>
</a>
</g>
</g>
<!-- Node18&#45;&gt;Node19 -->
<g id="edge21" class="edge">
<title>Node18&#45;&gt;Node19</title>
<path fill="none" stroke="midnightblue" d="M500.67,-554.4C525.26,-571.08 561.95,-593.84 597,-607.5 607.89,-611.74 619.67,-615.3 631.38,-618.26"/>
<polygon fill="midnightblue" stroke="midnightblue" points="502.41,-551.34 492.19,-548.55 498.44,-557.11 502.41,-551.34"/>
</g>
<!-- Node20 -->
<g id="node21" class="node">
<title>Node20</title>
<g id="a_node21"><a xlink:href="interface_examples_1_1_on_premise_engine_1_1_data_1_1_i_star_sign_data.html" target="_top" xlink:title="[class]">
<polygon fill="none" stroke="black" points="632,-518.5 632,-548.5 789,-548.5 789,-518.5 632,-518.5"/>
<text text-anchor="start" x="640" y="-536.5" font-family="Helvetica,sans-Serif" font-size="10.00">Examples.OnPremiseEngine.</text>
<text text-anchor="middle" x="710.5" y="-525.5" font-family="Helvetica,sans-Serif" font-size="10.00">Data.IStarSignData</text>
</a>
</g>
</g>
<!-- Node18&#45;&gt;Node20 -->
<g id="edge23" class="edge">
<title>Node18&#45;&gt;Node20</title>
<path fill="none" stroke="midnightblue" d="M552.35,-533.5C578.08,-533.5 606.46,-533.5 631.94,-533.5"/>
<polygon fill="midnightblue" stroke="midnightblue" points="552.26,-530 542.26,-533.5 552.26,-537 552.26,-530"/>
</g>
<!-- Node21 -->
<g id="node22" class="node">
<title>Node21</title>
<g id="a_node22"><a xlink:href="interface_fifty_one_1_1_pipeline_1_1_engines_1_1_data_1_1_i_multi_profile_data.html" target="_top" xlink:title="Represents a specific type of IAspectData that contains multiple IAspectData instances.">
<polygon fill="none" stroke="black" points="634,-567.5 634,-597.5 787,-597.5 787,-567.5 634,-567.5"/>
<text text-anchor="start" x="642" y="-585.5" font-family="Helvetica,sans-Serif" font-size="10.00">FiftyOne.Pipeline.Engines.</text>
<text text-anchor="middle" x="710.5" y="-574.5" font-family="Helvetica,sans-Serif" font-size="10.00">Data.IMultiProfileData&lt; T &gt;</text>
</a>
</g>
</g>
<!-- Node18&#45;&gt;Node21 -->
<g id="edge26" class="edge">
<title>Node18&#45;&gt;Node21</title>
<path fill="none" stroke="midnightblue" d="M552.18,-550.11C579.5,-555.74 609.85,-561.98 636.53,-567.48"/>
<polygon fill="midnightblue" stroke="midnightblue" points="552.76,-546.66 542.26,-548.07 551.35,-553.51 552.76,-546.66"/>
</g>
<!-- Node19&#45;&gt;Node6 -->
<g id="edge22" class="edge">
<title>Node19&#45;&gt;Node6</title>
<path fill="none" stroke="midnightblue" d="M799.7,-617.09C819.5,-613.86 840.37,-610.45 859.73,-607.29"/>
<polygon fill="midnightblue" stroke="midnightblue" points="799.07,-613.65 789.77,-618.71 800.2,-620.56 799.07,-613.65"/>
</g>
<!-- Node20&#45;&gt;Node7 -->
<g id="edge24" class="edge">
<title>Node20&#45;&gt;Node7</title>
<path fill="none" stroke="midnightblue" d="M799.25,-523.81C819.43,-521.59 840.76,-519.23 860.47,-517.06"/>
<polygon fill="midnightblue" stroke="midnightblue" points="798.69,-520.36 789.13,-524.93 799.46,-527.31 798.69,-520.36"/>
</g>
<!-- Node22&#45;&gt;Node8 -->
<g id="edge28" class="edge">
<title>Node22&#45;&gt;Node8</title>
<path fill="none" stroke="midnightblue" d="M565.35,-64.5C585.83,-64.5 607.35,-64.5 627.33,-64.5"/>
<polygon fill="midnightblue" stroke="midnightblue" points="565.08,-61 555.08,-64.5 565.08,-68 565.08,-61"/>
</g>
<!-- Node23&#45;&gt;Node9 -->
<g id="edge30" class="edge">
<title>Node23&#45;&gt;Node9</title>
<path fill="none" stroke="midnightblue" d="M555.46,-450.39C581.65,-447.86 610.33,-445.08 635.76,-442.63"/>
<polygon fill="midnightblue" stroke="midnightblue" points="554.79,-446.93 545.17,-451.38 555.47,-453.9 554.79,-446.93"/>
</g>
<!-- Node24&#45;&gt;Node10 -->
<g id="edge32" class="edge">
<title>Node24&#45;&gt;Node10</title>
<path fill="none" stroke="midnightblue" d="M563.91,-396.9C574.63,-396.13 585.65,-395.35 596.61,-394.56"/>
<polygon fill="midnightblue" stroke="midnightblue" points="563.46,-393.42 553.74,-397.63 563.96,-400.4 563.46,-393.42"/>
</g>
<!-- Node25&#45;&gt;Node11 -->
<g id="edge34" class="edge">
<title>Node25&#45;&gt;Node11</title>
<path fill="none" stroke="midnightblue" d="M562.79,-344.28C584.88,-343.26 608.32,-342.18 629.83,-341.18"/>
<polygon fill="midnightblue" stroke="midnightblue" points="562.57,-340.79 552.74,-344.75 562.89,-347.78 562.57,-340.79"/>
</g>
<!-- Node26&#45;&gt;Node12 -->
<g id="edge36" class="edge">
<title>Node26&#45;&gt;Node12</title>
<path fill="none" stroke="midnightblue" d="M571.35,-299.89C587.88,-299.12 604.91,-298.33 621.13,-297.58"/>
<polygon fill="midnightblue" stroke="midnightblue" points="570.97,-296.4 561.14,-300.36 571.29,-303.39 570.97,-296.4"/>
</g>
<!-- Node27&#45;&gt;Node13 -->
<g id="edge38" class="edge">
<title>Node27&#45;&gt;Node13</title>
<path fill="none" stroke="midnightblue" d="M560.01,-211.5C583.37,-211.5 608.41,-211.5 631.19,-211.5"/>
<polygon fill="midnightblue" stroke="midnightblue" points="559.76,-208 549.76,-211.5 559.76,-215 559.76,-208"/>
</g>
<!-- Node28&#45;&gt;Node14 -->
<g id="edge40" class="edge">
<title>Node28&#45;&gt;Node14</title>
<path fill="none" stroke="midnightblue" d="M552.41,-162.5C580.38,-162.5 611.49,-162.5 638.6,-162.5"/>
<polygon fill="midnightblue" stroke="midnightblue" points="552.26,-159 542.26,-162.5 552.26,-166 552.26,-159"/>
</g>
<!-- Node29&#45;&gt;Node15 -->
<g id="edge42" class="edge">
<title>Node29&#45;&gt;Node15</title>
<path fill="none" stroke="midnightblue" d="M354.05,-36.7C367.07,-34.31 380.42,-31.86 393.21,-29.51"/>
<polygon fill="midnightblue" stroke="midnightblue" points="353.38,-33.26 344.18,-38.51 354.65,-40.15 353.38,-33.26"/>
</g>
</g>
</svg>
