<?xml version="1.0" encoding="UTF-8" standalone="no"?>
<!DOCTYPE svg PUBLIC "-//W3C//DTD SVG 1.1//EN"
 "http://www.w3.org/Graphics/SVG/1.1/DTD/svg11.dtd">
<!-- Generated by graphviz version 2.43.0 (0)
 -->
<!-- Title: %3 Pages: 1 -->
<svg width="378pt" height="245pt"
 viewBox="0.00 0.00 378.00 245.00" xmlns="http://www.w3.org/2000/svg" xmlns:xlink="http://www.w3.org/1999/xlink">
<g id="graph0" class="graph" transform="scale(1 1) rotate(0) translate(4 241)">
<title>%3</title>
<g id="clust1" class="cluster">
<title>clusterDataKey</title>
<polygon fill="transparent" stroke="black" points="8,-71 8,-166 130,-166 130,-71 8,-71"/>
<text text-anchor="start" x="43.5" y="-155" font-family="Helvetica,sans-Serif" font-weight="bold" font-size="10.00">Data key</text>
</g>
<g id="clust2" class="cluster">
<title>clusterCache</title>
<polygon fill="transparent" stroke="black" points="150,-8 150,-229 362,-229 362,-8 150,-8"/>
<text text-anchor="start" x="228" y="-217" font-family="Helvetica,sans-Serif" font-size="10.00">Cache keys</text>
</g>
<!-- Keys -->
<g id="node1" class="node">
<title>Keys</title>
<path fill="#cb3d36" stroke="transparent" d="M110,-138.5C110,-138.5 28,-138.5 28,-138.5 22,-138.5 16,-132.5 16,-126.5 16,-126.5 16,-91.5 16,-91.5 16,-85.5 22,-79.5 28,-79.5 28,-79.5 110,-79.5 110,-79.5 116,-79.5 122,-85.5 122,-91.5 122,-91.5 122,-126.5 122,-126.5 122,-132.5 116,-138.5 110,-138.5"/>
<path fill="#cb3d36" stroke="transparent" d="M36,-83.5C36,-83.5 102,-83.5 102,-83.5 108,-83.5 114,-89.5 114,-95.5 114,-95.5 114,-122.5 114,-122.5 114,-128.5 108,-134.5 102,-134.5 102,-134.5 36,-134.5 36,-134.5 30,-134.5 24,-128.5 24,-122.5 24,-122.5 24,-95.5 24,-95.5 24,-89.5 30,-83.5 36,-83.5"/>
<polygon fill="#cb3d36" stroke="transparent" points="24,-117 24,-134 114,-134 114,-117 24,-117"/>
<polygon fill="none" stroke="black" points="24,-117 24,-134 114,-134 114,-117 24,-117"/>
<text text-anchor="start" x="31" y="-123" font-family="Helvetica,sans-Serif" font-size="10.00" fill="white">Latitude = 51.3</text>
<polygon fill="#cb3d36" stroke="transparent" points="24,-100 24,-117 114,-117 114,-100 24,-100"/>
<polygon fill="none" stroke="black" points="24,-100 24,-117 114,-117 114,-100 24,-100"/>
<text text-anchor="start" x="27" y="-106" font-family="Helvetica,sans-Serif" font-size="10.00" fill="white">Longitude = 11.5</text>
<polygon fill="#cb3d36" stroke="transparent" points="24,-83 24,-100 114,-100 114,-83 24,-83"/>
<polygon fill="none" stroke="black" points="24,-83 24,-100 114,-100 114,-83 24,-83"/>
<text text-anchor="start" x="31" y="-89" font-family="Helvetica,sans-Serif" font-size="10.00" fill="white">Hash = 123456</text>
</g>
<!-- Keys2 -->
<g id="node3" class="node">
<title>Keys2</title>
<path fill="#cb3d36" stroke="transparent" d="M342,-134C342,-134 170,-134 170,-134 164,-134 158,-128 158,-122 158,-122 158,-96 158,-96 158,-90 164,-84 170,-84 170,-84 342,-84 342,-84 348,-84 354,-90 354,-96 354,-96 354,-122 354,-122 354,-128 348,-134 342,-134"/>
<polygon fill="lightgreen" stroke="transparent" points="166,-109 166,-130 260,-130 260,-109 166,-109"/>
<polygon fill="none" stroke="black" points="166,-109 166,-130 260,-130 260,-109 166,-109"/>
<text text-anchor="start" x="175" y="-117" font-family="Helvetica,sans-Serif" font-size="10.00">Latitude = 51.3</text>
<polygon fill="lightgreen" stroke="transparent" points="260,-88 260,-130 346,-130 346,-88 260,-88"/>
<polygon fill="none" stroke="black" points="260,-88 260,-130 346,-130 346,-88 260,-88"/>
<text text-anchor="start" x="265" y="-106.5" font-family="Helvetica,sans-Serif" font-size="10.00">Hash = 123456</text>
<polygon fill="lightgreen" stroke="transparent" points="166,-88 166,-109 260,-109 260,-88 166,-88"/>
<polygon fill="none" stroke="black" points="166,-88 166,-109 260,-109 260,-88 166,-88"/>
<text text-anchor="start" x="171" y="-96" font-family="Helvetica,sans-Serif" font-size="10.00">Longitude = 11.5</text>
</g>
<!-- Keys&#45;&gt;Keys2 -->
<g id="edge1" class="edge">
<title>Keys&#45;&gt;Keys2</title>
<path fill="none" stroke="black" d="M122.03,-109C130.18,-109 138.85,-109 147.72,-109"/>
<polygon fill="black" stroke="black" points="147.78,-112.5 157.78,-109 147.78,-105.5 147.78,-112.5"/>
</g>
<!-- Keys1 -->
<g id="node2" class="node">
<title>Keys1</title>
<path fill="#cb3d36" stroke="transparent" d="M342,-202C342,-202 170,-202 170,-202 164,-202 158,-196 158,-190 158,-190 158,-164 158,-164 158,-158 164,-152 170,-152 170,-152 342,-152 342,-152 348,-152 354,-158 354,-164 354,-164 354,-190 354,-190 354,-196 348,-202 342,-202"/>
<polygon fill="#cb3d36" stroke="transparent" points="166,-177 166,-198 260,-198 260,-177 166,-177"/>
<polygon fill="none" stroke="black" points="166,-177 166,-198 260,-198 260,-177 166,-177"/>
<text text-anchor="start" x="178" y="-185" font-family="Helvetica,sans-Serif" font-size="10.00" fill="white">Latitude = 1.6</text>
<polygon fill="lightgreen" stroke="transparent" points="260,-156 260,-198 346,-198 346,-156 260,-156"/>
<polygon fill="none" stroke="black" points="260,-156 260,-198 346,-198 346,-156 260,-156"/>
<text text-anchor="start" x="265" y="-174.5" font-family="Helvetica,sans-Serif" font-size="10.00">Hash = 123456</text>
<polygon fill="#cb3d36" stroke="transparent" points="166,-156 166,-177 260,-177 260,-156 166,-156"/>
<polygon fill="none" stroke="black" points="166,-156 166,-177 260,-177 260,-156 166,-156"/>
<text text-anchor="start" x="171" y="-164" font-family="Helvetica,sans-Serif" font-size="10.00" fill="white">Longitude = 48.6</text>
</g>
<!-- Keys3 -->
<g id="node4" class="node">
<title>Keys3</title>
<path fill="#cb3d36" stroke="transparent" d="M341,-66C341,-66 171,-66 171,-66 165,-66 159,-60 159,-54 159,-54 159,-28 159,-28 159,-22 165,-16 171,-16 171,-16 341,-16 341,-16 347,-16 353,-22 353,-28 353,-28 353,-54 353,-54 353,-60 347,-66 341,-66"/>
<polygon fill="#cb3d36" stroke="transparent" points="167,-41 167,-62 259,-62 259,-41 167,-41"/>
<polygon fill="none" stroke="black" points="167,-41 167,-62 259,-62 259,-41 167,-41"/>
<text text-anchor="start" x="172" y="-49" font-family="Helvetica,sans-Serif" font-size="10.00" fill="white">Latitude = 149.1</text>
<polygon fill="#cb3d36" stroke="transparent" points="259,-20 259,-62 345,-62 345,-20 259,-20"/>
<polygon fill="none" stroke="black" points="259,-20 259,-62 345,-62 345,-20 259,-20"/>
<text text-anchor="start" x="264" y="-38.5" font-family="Helvetica,sans-Serif" font-size="10.00" fill="white">Hash = 725528</text>
<polygon fill="#cb3d36" stroke="transparent" points="167,-20 167,-41 259,-41 259,-20 167,-20"/>
<polygon fill="none" stroke="black" points="167,-20 167,-41 259,-41 259,-20 167,-20"/>
<text text-anchor="start" x="174" y="-28" font-family="Helvetica,sans-Serif" font-size="10.00" fill="white">Longitude = 4.0</text>
</g>
</g>
</svg>
