<?xml version="1.0" encoding="UTF-8" standalone="no"?>
<!DOCTYPE svg PUBLIC "-//W3C//DTD SVG 1.1//EN"
 "http://www.w3.org/Graphics/SVG/1.1/DTD/svg11.dtd">
<!-- Generated by graphviz version 2.38.0 (20140413.2041)
 -->
<!-- Title: P Pages: 1 -->
<svg width="249pt" height="152pt"
 viewBox="0.00 0.00 249.00 152.00" xmlns="http://www.w3.org/2000/svg" xmlns:xlink="http://www.w3.org/1999/xlink">
<g id="graph0" class="graph" transform="scale(1 1) rotate(0) translate(4 148)">
<title>P</title>
<g id="clust1" class="cluster"><title>clusterFD</title>
<g id="a_clust1"><a xlink:href="_concepts__data__flow_data.html#Concepts_Data_FlowData" target="_top" xlink:title="Flow Data">
<polygon fill="none" stroke="black" points="8,-8 8,-136 101,-136 101,-8 8,-8"/>
<text text-anchor="middle" x="54.5" y="-124" font-family="Helvetica,sans-Serif" font-size="10.00">Flow Data</text>
</a>
</g>
</g>
<!-- E -->
<g id="node1" class="node"><title>E</title>
<g id="a_node1"><a xlink:href="_concepts__data__evidence.html#Concepts_Data_Evidence" target="_top" xlink:title="Evidence">
<polygon fill="none" stroke="black" points="26,-72 26,-108 83,-108 83,-72 26,-72"/>
<text text-anchor="middle" x="54.5" y="-87.5" font-family="Helvetica,sans-Serif" font-size="10.00">Evidence</text>
</a>
</g>
</g>
<!-- FE -->
<g id="node3" class="node"><title>FE</title>
<g id="a_node3"><a xlink:href="_concepts__flow_elements__index.html#Concepts_FlowElements_Index" target="_top" xlink:title="Flow Element">
<polygon fill="none" stroke="black" points="164,-46 164,-82 241,-82 241,-46 164,-46"/>
<text text-anchor="middle" x="202.5" y="-61.5" font-family="Helvetica,sans-Serif" font-size="10.00">Flow Element</text>
</a>
</g>
</g>
<!-- E&#45;&gt;FE -->
<g id="edge1" class="edge"><title>E&#45;&gt;FE</title>
<path fill="none" stroke="black" d="M100.506,-81.9852C117.407,-78.9754 136.667,-75.5455 153.804,-72.4937"/>
<polygon fill="black" stroke="black" points="154.637,-75.9006 163.869,-70.7015 153.41,-69.009 154.637,-75.9006"/>
<text text-anchor="middle" x="128.5" y="-83" font-family="Helvetica,sans-Serif" font-size="10.00">process</text>
</g>
<!-- ED -->
<g id="node2" class="node"><title>ED</title>
<g id="a_node2"><a xlink:href="_concepts__data__element_data.html#Concepts_Data_ElementData" target="_top" xlink:title="Element Data">
<polygon fill="none" stroke="black" points="16,-17 16,-53 93,-53 93,-17 16,-17"/>
<text text-anchor="middle" x="54.5" y="-32.5" font-family="Helvetica,sans-Serif" font-size="10.00">Element Data</text>
</a>
</g>
</g>
<!-- FE&#45;&gt;ED -->
<g id="edge2" class="edge"><title>FE&#45;&gt;ED</title>
<path fill="none" stroke="black" d="M163.775,-56.5067C145.266,-52.8303 122.775,-48.3628 103.097,-44.4541"/>
<polygon fill="black" stroke="black" points="103.589,-40.9836 93.0986,-42.4682 102.225,-47.8495 103.589,-40.9836"/>
<text text-anchor="middle" x="128.5" y="-56" font-family="Helvetica,sans-Serif" font-size="10.00">output</text>
</g>
</g>
</svg>
