<?xml version="1.0" encoding="UTF-8" standalone="no"?>
<!DOCTYPE svg PUBLIC "-//W3C//DTD SVG 1.1//EN"
 "http://www.w3.org/Graphics/SVG/1.1/DTD/svg11.dtd">
<!-- Generated by graphviz version 2.38.0 (20140413.2041)
 -->
<!-- Title: H Pages: 1 -->
<svg width="282pt" height="377pt"
 viewBox="0.00 0.00 281.80 376.80" xmlns="http://www.w3.org/2000/svg" xmlns:xlink="http://www.w3.org/1999/xlink">
<g id="graph0" class="graph" transform="scale(1 1) rotate(0) translate(14.4 362.4)">
<title>H</title>
<g id="clust2" class="cluster"><title>clusterAspectEngine</title>
<g id="a_clust2"><a xlink:href="_concepts__flow_elements__aspect_engine.html#Concepts_FlowElements_AspectEngine" target="_top" xlink:title="&lt;B&gt;Aspect Engine&lt;/B&gt;">
<polygon fill="none" stroke="black" points="31,-117 31,-210 179,-210 179,-117 31,-117"/>
<text text-anchor="start" x="71" y="-199" font-family="Helvetica,sans-Serif" font-weight="bold" font-size="10.00">Aspect Engine</text>
</a>
</g>
</g>
<g id="clust1" class="cluster"><title>clusterFlowElement</title>
<g id="a_clust1"><a xlink:href="_concepts__flow_elements__flow_element.html#Concepts_FlowElements_FlowElement" target="_top" xlink:title="&lt;B&gt;Flow Element&lt;/B&gt;">
<polygon fill="none" stroke="black" points="35,-247 35,-340 175,-340 175,-247 35,-247"/>
<text text-anchor="start" x="72" y="-329" font-family="Helvetica,sans-Serif" font-weight="bold" font-size="10.00">Flow Element</text>
</a>
</g>
</g>
<g id="clust3" class="cluster"><title>clusterOnPremiseAspectEngine</title>
<g id="a_clust3"><a xlink:href="_concepts__flow_elements__on_premise_engine.html#Concepts_FlowElements_OnPremiseEngine" target="_top" xlink:title="&lt;B&gt;On&#45;Premise Engine&lt;/B&gt;">
<polygon fill="none" stroke="black" points="8,-8 8,-80 116,-80 116,-8 8,-8"/>
<text text-anchor="start" x="16" y="-69" font-family="Helvetica,sans-Serif" font-weight="bold" font-size="10.00">On&#45;Premise Engine</text>
</a>
</g>
</g>
<!-- FE -->
<g id="node1" class="node"><title>FE</title>
<polygon fill="none" stroke="black" points="43.5,-255.5 43.5,-312.5 166.5,-312.5 166.5,-255.5 43.5,-255.5"/>
<text text-anchor="middle" x="105" y="-300.5" font-family="Helvetica,sans-Serif" font-size="10.00">Element Properties</text>
<polyline fill="none" stroke="black" points="43.5,-293.5 166.5,-293.5 "/>
<text text-anchor="middle" x="105" y="-281.5" font-family="Helvetica,sans-Serif" font-size="10.00">Element Data</text>
<polyline fill="none" stroke="black" points="43.5,-274.5 166.5,-274.5 "/>
<text text-anchor="middle" x="105" y="-262.5" font-family="Helvetica,sans-Serif" font-size="10.00">Logging of Process calls</text>
</g>
<!-- AE -->
<g id="node2" class="node"><title>AE</title>
<polygon fill="none" stroke="black" points="39.5,-125.5 39.5,-182.5 170.5,-182.5 170.5,-125.5 39.5,-125.5"/>
<text text-anchor="middle" x="105" y="-170.5" font-family="Helvetica,sans-Serif" font-size="10.00">Result Caching</text>
<polyline fill="none" stroke="black" points="39.5,-163.5 170.5,-163.5 "/>
<text text-anchor="middle" x="105" y="-151.5" font-family="Helvetica,sans-Serif" font-size="10.00">Lazy Loading</text>
<polyline fill="none" stroke="black" points="39.5,-144.5 170.5,-144.5 "/>
<text text-anchor="middle" x="105" y="-132.5" font-family="Helvetica,sans-Serif" font-size="10.00">Missing Property Handling</text>
</g>
<!-- FE&#45;&gt;AE -->
<g id="edge1" class="edge"><title>FE&#45;&gt;AE</title>
<path fill="none" stroke="black" d="M105,-247.116C105,-238.708 105,-229.492 105,-220.241"/>
<polygon fill="black" stroke="black" points="108.5,-219.906 105,-209.906 101.5,-219.906 108.5,-219.906"/>
</g>
<!-- OPE -->
<g id="node3" class="node"><title>OPE</title>
<polygon fill="none" stroke="black" points="17.5,-16.5 17.5,-52.5 106.5,-52.5 106.5,-16.5 17.5,-16.5"/>
<text text-anchor="middle" x="62" y="-32" font-family="Helvetica,sans-Serif" font-size="10.00">Data file updates</text>
</g>
<!-- AE&#45;&gt;OPE -->
<g id="edge2" class="edge"><title>AE&#45;&gt;OPE</title>
<path fill="none" stroke="black" d="M91.8269,-117.004C88.6252,-108.255 85.1321,-98.7097 81.7005,-89.3328"/>
<polygon fill="black" stroke="black" points="84.9604,-88.0563 78.2369,-79.8682 78.3868,-90.462 84.9604,-88.0563"/>
</g>
<!-- CE -->
<g id="node4" class="node"><title>CE</title>
<g id="a_node4"><a xlink:href="_concepts__flow_elements__cloud_engine.html#Concepts_FlowElements_CloudEngine" target="_top" xlink:title="Cloud Engine">
<polygon fill="none" stroke="black" points="179,-16.5 179,-52.5 253,-52.5 253,-16.5 179,-16.5"/>
<text text-anchor="middle" x="216" y="-32" font-family="Helvetica,sans-Serif" font-size="10.00">Cloud Engine</text>
</a>
</g>
</g>
<!-- AE&#45;&gt;CE -->
<g id="edge3" class="edge"><title>AE&#45;&gt;CE</title>
<path fill="none" stroke="black" d="M138.776,-117.246C156.237,-98.7629 177.103,-76.6744 192.742,-60.1203"/>
<polygon fill="black" stroke="black" points="195.442,-62.3586 199.765,-52.6858 190.354,-57.5515 195.442,-62.3586"/>
</g>
</g>
</svg>
