<?xml version="1.0" encoding="UTF-8" standalone="no"?>
<!DOCTYPE svg PUBLIC "-//W3C//DTD SVG 1.1//EN"
 "http://www.w3.org/Graphics/SVG/1.1/DTD/svg11.dtd">
<!-- Generated by graphviz version 2.38.0 (20140413.2041)
 -->
<!-- Title: P Pages: 1 -->
<svg width="241pt" height="129pt"
 viewBox="0.00 0.00 240.72 129.00" xmlns="http://www.w3.org/2000/svg" xmlns:xlink="http://www.w3.org/1999/xlink">
<g id="graph0" class="graph" transform="scale(1 1) rotate(0) translate(4 125)">
<title>P</title>
<!-- E1 -->
<g id="node1" class="node"><title>E1</title>
<polygon fill="none" stroke="black" points="32.7236,-84.5 32.7236,-120.5 100.724,-120.5 100.724,-84.5 32.7236,-84.5"/>
<text text-anchor="middle" x="66.7236" y="-100" font-family="Helvetica,sans-Serif" font-size="10.00">date of birth</text>
</g>
<!-- FE -->
<g id="node3" class="node"><title>FE</title>
<polygon fill="none" stroke="black" points="85.2236,-0.5 85.2236,-36.5 158.224,-36.5 158.224,-0.5 85.2236,-0.5"/>
<text text-anchor="middle" x="121.724" y="-16" font-family="Helvetica,sans-Serif" font-size="10.00">Age Element</text>
</g>
<!-- E1&#45;&gt;FE -->
<g id="edge1" class="edge"><title>E1&#45;&gt;FE</title>
<path fill="none" stroke="black" d="M32.6461,-90.9179C12.2749,-82.7485 -7.63117,-70.2735 3.72357,-55 20.0457,-33.0448 49.506,-24.1658 74.9056,-20.7777"/>
<polygon fill="black" stroke="black" points="75.5631,-24.227 85.1278,-19.6701 74.809,-17.2677 75.5631,-24.227"/>
<text text-anchor="middle" x="42.2236" y="-58" font-family="Helvetica,sans-Serif" font-size="10.00">do you want this?</text>
</g>
<!-- E2 -->
<g id="node2" class="node"><title>E2</title>
<polygon fill="none" stroke="black" points="147.224,-84.5 147.224,-120.5 208.224,-120.5 208.224,-84.5 147.224,-84.5"/>
<text text-anchor="middle" x="177.724" y="-100" font-family="Helvetica,sans-Serif" font-size="10.00">hometown</text>
</g>
<!-- E2&#45;&gt;FE -->
<g id="edge3" class="edge"><title>E2&#45;&gt;FE</title>
<path fill="none" stroke="black" d="M158.218,-84.1805C152.764,-78.718 147.13,-72.4234 142.724,-66 138.549,-59.9144 134.867,-52.8649 131.8,-46.1235"/>
<polygon fill="black" stroke="black" points="134.892,-44.4498 127.76,-36.615 128.449,-47.1874 134.892,-44.4498"/>
<text text-anchor="middle" x="181.224" y="-58" font-family="Helvetica,sans-Serif" font-size="10.00">do you want this?</text>
</g>
<!-- FE&#45;&gt;E1 -->
<g id="edge2" class="edge"><title>FE&#45;&gt;E1</title>
<path fill="none" stroke="black" d="M110.265,-36.5838C102.675,-47.9 92.578,-62.9534 84.0183,-75.7151"/>
<polygon fill="black" stroke="black" points="81.0513,-73.8554 78.3877,-84.1099 86.8648,-77.7546 81.0513,-73.8554"/>
<text text-anchor="middle" x="105.724" y="-58" font-family="Helvetica,sans-Serif" font-size="10.00">yes</text>
</g>
<!-- FE&#45;&gt;E2 -->
<g id="edge4" class="edge"><title>FE&#45;&gt;E2</title>
<path fill="none" stroke="black" d="M158.283,-22.5642C179.992,-26.4835 205.904,-35.2957 219.724,-55 225.205,-62.8153 221.994,-70.7363 215.405,-77.7723"/>
<polygon fill="black" stroke="black" points="213.021,-75.2085 207.888,-84.4766 217.68,-80.4328 213.021,-75.2085"/>
<text text-anchor="middle" x="227.224" y="-58" font-family="Helvetica,sans-Serif" font-size="10.00">no</text>
</g>
</g>
</svg>
