<?xml version="1.0" encoding="UTF-8" standalone="no"?>
<!DOCTYPE svg PUBLIC "-//W3C//DTD SVG 1.1//EN"
 "http://www.w3.org/Graphics/SVG/1.1/DTD/svg11.dtd">
<!-- Generated by graphviz version 2.38.0 (20140413.2041)
 -->
<!-- Title: P Pages: 1 -->
<svg width="364pt" height="152pt"
 viewBox="0.00 0.00 364.20 152.00" xmlns="http://www.w3.org/2000/svg" xmlns:xlink="http://www.w3.org/1999/xlink">
<g id="graph0" class="graph" transform="scale(1 1) rotate(0) translate(4 148)">
<title>P</title>
<g id="clust1" class="cluster"><title>clusterP</title>
<polygon fill="none" stroke="black" points="82,-8 82,-136 274.2,-136 274.2,-8 82,-8"/>
<text text-anchor="middle" x="178.1" y="-124" font-family="Helvetica,sans-Serif" font-size="10.00">Pipeline</text>
</g>
<!-- i -->
<g id="node1" class="node"><title>i</title>
<text text-anchor="middle" x="27" y="-59.5" font-family="Helvetica,sans-Serif" font-size="10.00">in</text>
</g>
<!-- I1 -->
<g id="node2" class="node"><title>I1</title>
<ellipse fill="black" stroke="black" cx="91.8" cy="-62" rx="1.8" ry="1.8"/>
</g>
<!-- i&#45;&gt;I1 -->
<g id="edge1" class="edge"><title>i&#45;&gt;I1</title>
<path fill="none" stroke="black" d="M54.269,-62C69.3267,-62 86.0025,-62 89.9361,-62"/>
</g>
<!-- E1 -->
<g id="node3" class="node"><title>E1</title>
<polygon fill="none" stroke="black" points="129.6,-17 129.6,-53 226.6,-53 226.6,-17 129.6,-17"/>
<text text-anchor="middle" x="178.1" y="-32.5" font-family="Helvetica,sans-Serif" font-size="10.00">Flow Element (E1)</text>
</g>
<!-- I1&#45;&gt;E1 -->
<g id="edge2" class="edge"><title>I1&#45;&gt;E1</title>
<path fill="none" stroke="black" d="M93.7467,-61.6968C96.8314,-60.7088 107.108,-57.4173 119.444,-53.4664"/>
<polygon fill="black" stroke="black" points="120.737,-56.7274 129.193,-50.3439 118.602,-50.0609 120.737,-56.7274"/>
</g>
<!-- E2 -->
<g id="node4" class="node"><title>E2</title>
<polygon fill="none" stroke="black" points="129.6,-72 129.6,-108 226.6,-108 226.6,-72 129.6,-72"/>
<text text-anchor="middle" x="178.1" y="-87.5" font-family="Helvetica,sans-Serif" font-size="10.00">Flow Element (E2)</text>
</g>
<!-- I1&#45;&gt;E2 -->
<g id="edge5" class="edge"><title>I1&#45;&gt;E2</title>
<path fill="none" stroke="black" d="M93.7467,-62.3145C96.8314,-63.339 107.108,-66.7524 119.444,-70.8496"/>
<polygon fill="black" stroke="black" points="118.6,-74.2572 129.193,-74.0878 120.806,-67.6141 118.6,-74.2572"/>
</g>
<!-- I2 -->
<g id="node5" class="node"><title>I2</title>
<ellipse fill="black" stroke="black" cx="264.4" cy="-62" rx="1.8" ry="1.8"/>
</g>
<!-- E1&#45;&gt;I2 -->
<g id="edge3" class="edge"><title>E1&#45;&gt;I2</title>
<path fill="none" stroke="black" d="M226.67,-50.236C243.401,-55.5948 258.974,-60.5825 262.606,-61.7457"/>
</g>
<!-- E2&#45;&gt;I2 -->
<g id="edge6" class="edge"><title>E2&#45;&gt;I2</title>
<path fill="none" stroke="black" d="M226.67,-74.1998C243.401,-68.6425 258.974,-63.47 262.606,-62.2637"/>
</g>
<!-- o -->
<g id="node6" class="node"><title>o</title>
<text text-anchor="middle" x="329.2" y="-59.5" font-family="Helvetica,sans-Serif" font-size="10.00">out</text>
</g>
<!-- I2&#45;&gt;o -->
<g id="edge4" class="edge"><title>I2&#45;&gt;o</title>
<path fill="none" stroke="black" d="M266.49,-62C269.841,-62 280.463,-62 291.971,-62"/>
<polygon fill="black" stroke="black" points="292.152,-65.5001 302.152,-62 292.152,-58.5001 292.152,-65.5001"/>
</g>
</g>
</svg>
