<?xml version="1.0" encoding="UTF-8" standalone="no"?>
<!DOCTYPE svg PUBLIC "-//W3C//DTD SVG 1.1//EN"
 "http://www.w3.org/Graphics/SVG/1.1/DTD/svg11.dtd">
<!-- Generated by graphviz version 2.38.0 (20140413.2041)
 -->
<!-- Title: %3 Pages: 1 -->
<svg width="331pt" height="246pt"
 viewBox="0.00 0.00 330.50 246.00" xmlns="http://www.w3.org/2000/svg" xmlns:xlink="http://www.w3.org/1999/xlink">
<g id="graph0" class="graph" transform="scale(1 1) rotate(0) translate(4 242)">
<title>%3</title>
<!-- W -->
<g id="node1" class="node"><title>W</title>
<polygon fill="none" stroke="black" points="76,-201.5 76,-237.5 205,-237.5 205,-201.5 76,-201.5"/>
<text text-anchor="middle" x="140.5" y="-217" font-family="Helvetica,sans-Serif" font-size="10.00">Web server using Pipeline</text>
</g>
<!-- D -->
<g id="node2" class="node"><title>D</title>
<polygon fill="none" stroke="black" points="0,-106.5 0,-142.5 135,-142.5 135,-106.5 0,-106.5"/>
<text text-anchor="middle" x="67.5" y="-122" font-family="Helvetica,sans-Serif" font-size="10.00">51Degrees data processing</text>
</g>
<!-- W&#45;&gt;D -->
<g id="edge1" class="edge"><title>W&#45;&gt;D</title>
<path fill="none" stroke="black" d="M116.177,-201.254C109.618,-195.884 102.862,-189.62 97.5,-183 89.9814,-173.717 83.5421,-162.253 78.5789,-152.009"/>
<polygon fill="black" stroke="black" points="81.6436,-150.296 74.2855,-142.673 75.2839,-153.221 81.6436,-150.296"/>
<text text-anchor="middle" x="143.5" y="-175" font-family="Helvetica,sans-Serif" font-size="10.00">Evidence shared with</text>
<text text-anchor="middle" x="143.5" y="-164" font-family="Helvetica,sans-Serif" font-size="10.00">51Degrees</text>
</g>
<!-- F -->
<g id="node3" class="node"><title>F</title>
<polygon fill="none" stroke="black" points="65.5,-0.5 65.5,-36.5 195.5,-36.5 195.5,-0.5 65.5,-0.5"/>
<text text-anchor="middle" x="130.5" y="-16" font-family="Helvetica,sans-Serif" font-size="10.00">51Degrees data file export</text>
</g>
<!-- D&#45;&gt;F -->
<g id="edge2" class="edge"><title>D&#45;&gt;F</title>
<path fill="none" stroke="black" d="M59.4837,-106.435C53.85,-91.7281 48.8718,-70.4821 58.5,-55 61.444,-50.266 65.2258,-46.1447 69.5118,-42.5602"/>
<polygon fill="black" stroke="black" points="71.6244,-45.352 77.6988,-36.6714 67.537,-39.6693 71.6244,-45.352"/>
<text text-anchor="middle" x="124" y="-80" font-family="Helvetica,sans-Serif" font-size="10.00">New evidence values identified</text>
<text text-anchor="middle" x="124" y="-69" font-family="Helvetica,sans-Serif" font-size="10.00">and associated with</text>
<text text-anchor="middle" x="124" y="-58" font-family="Helvetica,sans-Serif" font-size="10.00">appropriate data</text>
</g>
<!-- F&#45;&gt;W -->
<g id="edge3" class="edge"><title>F&#45;&gt;W</title>
<path fill="none" stroke="black" d="M171.559,-36.5433C178.744,-41.4214 185.264,-47.5075 189.5,-55 217.498,-104.522 215.361,-132.329 189.5,-183 187.288,-187.333 184.273,-191.261 180.818,-194.787"/>
<polygon fill="black" stroke="black" points="178.422,-192.233 173.223,-201.464 183.044,-197.49 178.422,-192.233"/>
<text text-anchor="middle" x="266" y="-133" font-family="Helvetica,sans-Serif" font-size="10.00">Updated data file contains</text>
<text text-anchor="middle" x="266" y="-122" font-family="Helvetica,sans-Serif" font-size="10.00">exact mappings for newly</text>
<text text-anchor="middle" x="266" y="-111" font-family="Helvetica,sans-Serif" font-size="10.00">identified evidence.</text>
</g>
</g>
</svg>
