<?xml version="1.0" encoding="UTF-8" standalone="no"?>
<!DOCTYPE svg PUBLIC "-//W3C//DTD SVG 1.1//EN"
 "http://www.w3.org/Graphics/SVG/1.1/DTD/svg11.dtd">
<!-- Generated by graphviz version 2.38.0 (20140413.2041)
 -->
<!-- Title: P Pages: 1 -->
<svg width="247pt" height="152pt"
 viewBox="0.00 0.00 247.00 152.00" xmlns="http://www.w3.org/2000/svg" xmlns:xlink="http://www.w3.org/1999/xlink">
<g id="graph0" class="graph" transform="scale(1 1) rotate(0) translate(4 148)">
<title>P</title>
<g id="clust1" class="cluster"><title>clusterFD</title>
<g id="a_clust1"><a xlink:href="_concepts__data__flow_data.html#Concepts_Data_FlowData" target="_top" xlink:title="Flow Data">
<polygon fill="none" stroke="black" points="8,-8 8,-136 100,-136 100,-8 8,-8"/>
<text text-anchor="middle" x="54" y="-124" font-family="Helvetica,sans-Serif" font-size="10.00">Flow Data</text>
</a>
</g>
</g>
<!-- E -->
<g id="node1" class="node"><title>E</title>
<g id="a_node1"><a xlink:href="_concepts__data__evidence.html#Concepts_Data_Evidence" target="_top" xlink:title="Evidence">
<polygon fill="none" stroke="black" points="26,-72 26,-108 82,-108 82,-72 26,-72"/>
<text text-anchor="middle" x="54" y="-87.5" font-family="Helvetica,sans-Serif" font-size="10.00">Evidence</text>
</a>
</g>
</g>
<!-- FE -->
<g id="node3" class="node"><title>FE</title>
<g id="a_node3"><a xlink:href="_concepts__flow_elements__index.html#Concepts_FlowElements_Index" target="_top" xlink:title="Flow Element">
<polygon fill="none" stroke="black" points="163,-46 163,-82 239,-82 239,-46 163,-46"/>
<text text-anchor="middle" x="201" y="-61.5" font-family="Helvetica,sans-Serif" font-size="10.00">Flow Element</text>
</a>
</g>
</g>
<!-- E&#45;&gt;FE -->
<g id="edge1" class="edge"><title>E&#45;&gt;FE</title>
<path fill="none" stroke="black" d="M99.7546,-81.975C116.622,-78.9505 135.85,-75.5028 152.923,-72.4414"/>
<polygon fill="black" stroke="black" points="153.772,-75.8451 162.997,-70.635 152.536,-68.955 153.772,-75.8451"/>
<text text-anchor="middle" x="127.5" y="-83" font-family="Helvetica,sans-Serif" font-size="10.00">process</text>
</g>
<!-- ED -->
<g id="node2" class="node"><title>ED</title>
<g id="a_node2"><a xlink:href="_concepts__data__element_data.html#Concepts_Data_ElementData" target="_top" xlink:title="Element Data">
<polygon fill="none" stroke="black" points="16,-17 16,-53 92,-53 92,-17 16,-17"/>
<text text-anchor="middle" x="54" y="-32.5" font-family="Helvetica,sans-Serif" font-size="10.00">Element Data</text>
</a>
</g>
</g>
<!-- FE&#45;&gt;ED -->
<g id="edge2" class="edge"><title>FE&#45;&gt;ED</title>
<path fill="none" stroke="black" d="M162.785,-56.5571C144.368,-52.8737 121.934,-48.3867 102.31,-44.4621"/>
<polygon fill="black" stroke="black" points="102.833,-40.9974 92.3411,-42.4682 101.46,-47.8615 102.833,-40.9974"/>
<text text-anchor="middle" x="127.5" y="-56" font-family="Helvetica,sans-Serif" font-size="10.00">output</text>
</g>
</g>
</svg>
