<?xml version="1.0" encoding="UTF-8" standalone="no"?>
<!DOCTYPE svg PUBLIC "-//W3C//DTD SVG 1.1//EN"
 "http://www.w3.org/Graphics/SVG/1.1/DTD/svg11.dtd">
<!-- Generated by graphviz version 2.38.0 (20140413.2041)
 -->
<!-- Title: %3 Pages: 1 -->
<svg width="506pt" height="109pt"
 viewBox="0.00 0.00 506.00 109.00" xmlns="http://www.w3.org/2000/svg" xmlns:xlink="http://www.w3.org/1999/xlink">
<g id="graph0" class="graph" transform="scale(1 1) rotate(0) translate(4 105)">
<title>%3</title>
<g id="clust1" class="cluster"><title>clusterPipeline</title>
<g id="a_clust1"><a xlink:href="_concepts__pipeline.html#Concepts_Pipeline" target="_top" xlink:title="Pipeline">
<polygon fill="none" stroke="black" points="83,-8 83,-93 415,-93 415,-8 83,-8"/>
<text text-anchor="middle" x="249" y="-81" font-family="Helvetica,sans-Serif" font-size="10.00">Pipeline</text>
</a>
</g>
</g>
<!-- arrow1 -->
<g id="node1" class="node"><title>arrow1</title>
<text text-anchor="middle" x="27" y="-38.5" font-family="Helvetica,sans-Serif" font-size="10.00">1</text>
</g>
<!-- structH -->
<g id="node2" class="node"><title>structH</title>
<g id="a_node2"><a xlink:href="_device_detection__overview.html#DeviceDetection_Overview" target="_top" xlink:title="&lt;DDH&gt;DeviceDetectionEngine\n(Hardware)|{&lt;DK&gt;Element data key|&lt;DKV&gt;device}">
<polygon fill="none" stroke="black" points="91,-16.5 91,-65.5 228,-65.5 228,-16.5 91,-16.5"/>
<text text-anchor="middle" x="159.5" y="-53.5" font-family="Helvetica,sans-Serif" font-size="10.00">DeviceDetectionEngine</text>
<text text-anchor="middle" x="159.5" y="-42.5" font-family="Helvetica,sans-Serif" font-size="10.00">(Hardware)</text>
<polyline fill="none" stroke="black" points="91,-35.5 228,-35.5 "/>
<text text-anchor="middle" x="137.5" y="-23.5" font-family="Helvetica,sans-Serif" font-size="10.00">Element data key</text>
<polyline fill="none" stroke="black" points="184,-16.5 184,-35.5 "/>
<text text-anchor="middle" x="206" y="-23.5" font-family="Helvetica,sans-Serif" font-size="10.00">device</text>
</a>
</g>
</g>
<!-- arrow1&#45;&gt;structH -->
<g id="edge1" class="edge"><title>arrow1&#45;&gt;structH</title>
<path fill="none" stroke="black" d="M54.095,-41C62.0445,-41 71.2244,-41 80.7747,-41"/>
<polygon fill="black" stroke="black" points="80.8252,-44.5001 90.8251,-41 80.8251,-37.5001 80.8252,-44.5001"/>
</g>
<!-- structP -->
<g id="node3" class="node"><title>structP</title>
<g id="a_node3"><a xlink:href="_device_detection__overview.html#DeviceDetection_Overview" target="_top" xlink:title="&lt;DDH&gt;DeviceDetectionEngine\n(Platform/OS)|{&lt;DK&gt;Element data key|&lt;DKV&gt;device}">
<polygon fill="none" stroke="black" points="270,-16.5 270,-65.5 407,-65.5 407,-16.5 270,-16.5"/>
<text text-anchor="middle" x="338.5" y="-53.5" font-family="Helvetica,sans-Serif" font-size="10.00">DeviceDetectionEngine</text>
<text text-anchor="middle" x="338.5" y="-42.5" font-family="Helvetica,sans-Serif" font-size="10.00">(Platform/OS)</text>
<polyline fill="none" stroke="black" points="270,-35.5 407,-35.5 "/>
<text text-anchor="middle" x="316.5" y="-23.5" font-family="Helvetica,sans-Serif" font-size="10.00">Element data key</text>
<polyline fill="none" stroke="black" points="363,-16.5 363,-35.5 "/>
<text text-anchor="middle" x="385" y="-23.5" font-family="Helvetica,sans-Serif" font-size="10.00">device</text>
</a>
</g>
</g>
<!-- structH&#45;&gt;structP -->
<g id="edge2" class="edge"><title>structH&#45;&gt;structP</title>
<path fill="none" stroke="black" d="M228.174,-41C238.528,-41 249.285,-41 259.834,-41"/>
<polygon fill="black" stroke="black" points="259.864,-44.5001 269.864,-41 259.864,-37.5001 259.864,-44.5001"/>
<text text-anchor="middle" x="249" y="-44" font-family="Helvetica,sans-Serif" font-size="10.00">2</text>
</g>
<!-- arrow3 -->
<g id="node4" class="node"><title>arrow3</title>
<text text-anchor="middle" x="471" y="-38.5" font-family="Helvetica,sans-Serif" font-size="10.00">3</text>
</g>
<!-- structP&#45;&gt;arrow3 -->
<g id="edge3" class="edge"><title>structP&#45;&gt;arrow3</title>
<path fill="none" stroke="black" d="M407.044,-41C416.227,-41 425.349,-41 433.682,-41"/>
<polygon fill="black" stroke="black" points="433.761,-44.5001 443.761,-41 433.761,-37.5001 433.761,-44.5001"/>
</g>
</g>
</svg>
