<?xml version="1.0" encoding="UTF-8" standalone="no"?>
<!DOCTYPE svg PUBLIC "-//W3C//DTD SVG 1.1//EN"
 "http://www.w3.org/Graphics/SVG/1.1/DTD/svg11.dtd">
<!-- Generated by graphviz version 2.38.0 (20140413.2041)
 -->
<!-- Title: D Pages: 1 -->
<svg width="152pt" height="118pt"
 viewBox="0.00 0.00 151.50 118.00" xmlns="http://www.w3.org/2000/svg" xmlns:xlink="http://www.w3.org/1999/xlink">
<g id="graph0" class="graph" transform="scale(1 1) rotate(0) translate(4 114)">
<title>D</title>
<!-- P -->
<g id="node1" class="node"><title>P</title>
<g id="a_node1"><a xlink:href="_concepts__flow_elements__fifty_one_on_premise_engine.html#Concepts_FlowElements_FiftyOneOnPremiseEngine_Properties" target="_top" xlink:title="Properties">
<polygon fill="none" stroke="black" points="6,-0.5 6,-36.5 67,-36.5 67,-0.5 6,-0.5"/>
<text text-anchor="middle" x="36.5" y="-16" font-family="Helvetica,sans-Serif" font-size="10.00">Properties</text>
</a>
</g>
</g>
<!-- V -->
<g id="node2" class="node"><title>V</title>
<g id="a_node2"><a xlink:href="_concepts__flow_elements__fifty_one_on_premise_engine.html#Concepts_FlowElements_FiftyOneOnPremiseEngine_Values" target="_top" xlink:title="Values">
<polygon fill="none" stroke="black" points="87.5,-0.5 87.5,-36.5 141.5,-36.5 141.5,-0.5 87.5,-0.5"/>
<text text-anchor="middle" x="114.5" y="-16" font-family="Helvetica,sans-Serif" font-size="10.00">Values</text>
</a>
</g>
</g>
<!-- P&#45;&gt;V -->
<g id="edge1" class="edge"><title>P&#45;&gt;V</title>
<path fill="none" stroke="black" d="M67.2734,-18.5C70.4903,-18.5 73.7071,-18.5 76.924,-18.5"/>
<polygon fill="black" stroke="black" points="77.1971,-18.5001 87.1972,-23 82.1971,-18.5 87.1971,-18.5 87.1971,-18.5 87.1971,-18.5 82.1971,-18.5 87.1971,-14 77.1971,-18.5001 77.1971,-18.5001"/>
</g>
<!-- C -->
<g id="node3" class="node"><title>C</title>
<g id="a_node3"><a xlink:href="_concepts__flow_elements__fifty_one_on_premise_engine.html#Concepts_FlowElements_FiftyOneOnPremiseEngine_Components" target="_top" xlink:title="Components">
<polygon fill="none" stroke="black" points="0,-73.5 0,-109.5 71,-109.5 71,-73.5 0,-73.5"/>
<text text-anchor="middle" x="35.5" y="-89" font-family="Helvetica,sans-Serif" font-size="10.00">Components</text>
</a>
</g>
</g>
<!-- C&#45;&gt;P -->
<g id="edge2" class="edge"><title>C&#45;&gt;P</title>
<path fill="none" stroke="black" d="M35.7421,-73.3129C35.8551,-65.2895 35.9923,-55.5475 36.1187,-46.5691"/>
<polygon fill="black" stroke="black" points="36.1192,-46.5279 40.7597,-36.5923 36.1897,-41.5283 36.2602,-36.5288 36.2602,-36.5288 36.2602,-36.5288 36.1897,-41.5283 31.7606,-36.4654 36.1192,-46.5279 36.1192,-46.5279"/>
</g>
<!-- PF -->
<g id="node4" class="node"><title>PF</title>
<g id="a_node4"><a xlink:href="_concepts__flow_elements__fifty_one_on_premise_engine.html#Concepts_FlowElements_FiftyOneOnPremiseEngine_Profiles" target="_top" xlink:title="Profiles">
<polygon fill="none" stroke="black" points="89.5,-73.5 89.5,-109.5 143.5,-109.5 143.5,-73.5 89.5,-73.5"/>
<text text-anchor="middle" x="116.5" y="-89" font-family="Helvetica,sans-Serif" font-size="10.00">Profiles</text>
</a>
</g>
</g>
<!-- C&#45;&gt;PF -->
<g id="edge3" class="edge"><title>C&#45;&gt;PF</title>
<path fill="none" stroke="black" d="M71.2539,-91.5C73.883,-91.5 76.512,-91.5 79.141,-91.5"/>
<polygon fill="black" stroke="black" points="79.2816,-91.5001 89.2817,-96 84.2816,-91.5 89.2816,-91.5 89.2816,-91.5 89.2816,-91.5 84.2816,-91.5 89.2816,-87 79.2816,-91.5001 79.2816,-91.5001"/>
</g>
<!-- PF&#45;&gt;V -->
<g id="edge4" class="edge"><title>PF&#45;&gt;V</title>
<path fill="none" stroke="black" d="M116.016,-73.3129C115.79,-65.2895 115.515,-55.5475 115.263,-46.5691"/>
<polygon fill="black" stroke="black" points="115.261,-46.5249 119.478,-36.4021 115.121,-41.5269 114.98,-36.5288 114.98,-36.5288 114.98,-36.5288 115.121,-41.5269 110.481,-36.6556 115.261,-46.5249 115.261,-46.5249"/>
</g>
</g>
</svg>
