<?xml version="1.0" encoding="UTF-8" standalone="no"?>
<!DOCTYPE svg PUBLIC "-//W3C//DTD SVG 1.1//EN"
 "http://www.w3.org/Graphics/SVG/1.1/DTD/svg11.dtd">
<!-- Generated by graphviz version 2.38.0 (20140413.2041)
 -->
<!-- Title: D Pages: 1 -->
<svg width="152pt" height="118pt"
 viewBox="0.00 0.00 152.00 118.00" xmlns="http://www.w3.org/2000/svg" xmlns:xlink="http://www.w3.org/1999/xlink">
<g id="graph0" class="graph" transform="scale(1 1) rotate(0) translate(4 114)">
<title>D</title>
<!-- P -->
<g id="node1" class="node"><title>P</title>
<g id="a_node1"><a xlink:href="_concepts__flow_elements__fifty_one_on_premise_engine.html#Concepts_FlowElements_FiftyOneOnPremiseEngine_Properties" target="_top" xlink:title="Properties">
<polygon fill="none" stroke="black" points="6.5,-0.5 6.5,-36.5 67.5,-36.5 67.5,-0.5 6.5,-0.5"/>
<text text-anchor="middle" x="37" y="-16" font-family="Helvetica,sans-Serif" font-size="10.00">Properties</text>
</a>
</g>
</g>
<!-- V -->
<g id="node2" class="node"><title>V</title>
<g id="a_node2"><a xlink:href="_concepts__flow_elements__fifty_one_on_premise_engine.html#Concepts_FlowElements_FiftyOneOnPremiseEngine_Values" target="_top" xlink:title="Values">
<polygon fill="none" stroke="black" points="88,-0.5 88,-36.5 142,-36.5 142,-0.5 88,-0.5"/>
<text text-anchor="middle" x="115" y="-16" font-family="Helvetica,sans-Serif" font-size="10.00">Values</text>
</a>
</g>
</g>
<!-- P&#45;&gt;V -->
<g id="edge1" class="edge"><title>P&#45;&gt;V</title>
<path fill="none" stroke="black" d="M67.7734,-18.5C70.9903,-18.5 74.2071,-18.5 77.424,-18.5"/>
<polygon fill="black" stroke="black" points="77.6971,-18.5001 87.6972,-23 82.6971,-18.5 87.6971,-18.5 87.6971,-18.5 87.6971,-18.5 82.6971,-18.5 87.6971,-14 77.6971,-18.5001 77.6971,-18.5001"/>
</g>
<!-- C -->
<g id="node3" class="node"><title>C</title>
<g id="a_node3"><a xlink:href="_concepts__flow_elements__fifty_one_on_premise_engine.html#Concepts_FlowElements_FiftyOneOnPremiseEngine_Components" target="_top" xlink:title="Components">
<polygon fill="none" stroke="black" points="0,-73.5 0,-109.5 72,-109.5 72,-73.5 0,-73.5"/>
<text text-anchor="middle" x="36" y="-89" font-family="Helvetica,sans-Serif" font-size="10.00">Components</text>
</a>
</g>
</g>
<!-- C&#45;&gt;P -->
<g id="edge2" class="edge"><title>C&#45;&gt;P</title>
<path fill="none" stroke="black" d="M36.2421,-73.3129C36.3551,-65.2895 36.4923,-55.5475 36.6187,-46.5691"/>
<polygon fill="black" stroke="black" points="36.6192,-46.5279 41.2597,-36.5923 36.6897,-41.5283 36.7602,-36.5288 36.7602,-36.5288 36.7602,-36.5288 36.6897,-41.5283 32.2606,-36.4654 36.6192,-46.5279 36.6192,-46.5279"/>
</g>
<!-- PF -->
<g id="node4" class="node"><title>PF</title>
<g id="a_node4"><a xlink:href="_concepts__flow_elements__fifty_one_on_premise_engine.html#Concepts_FlowElements_FiftyOneOnPremiseEngine_Profiles" target="_top" xlink:title="Profiles">
<polygon fill="none" stroke="black" points="90,-73.5 90,-109.5 144,-109.5 144,-73.5 90,-73.5"/>
<text text-anchor="middle" x="117" y="-89" font-family="Helvetica,sans-Serif" font-size="10.00">Profiles</text>
</a>
</g>
</g>
<!-- C&#45;&gt;PF -->
<g id="edge3" class="edge"><title>C&#45;&gt;PF</title>
<path fill="none" stroke="black" d="M72.0703,-91.5C74.681,-91.5 77.2916,-91.5 79.9023,-91.5"/>
<polygon fill="black" stroke="black" points="79.972,-91.5001 89.972,-96 84.972,-91.5 89.972,-91.5 89.972,-91.5 89.972,-91.5 84.972,-91.5 89.9719,-87 79.972,-91.5001 79.972,-91.5001"/>
</g>
<!-- PF&#45;&gt;V -->
<g id="edge4" class="edge"><title>PF&#45;&gt;V</title>
<path fill="none" stroke="black" d="M116.516,-73.3129C116.29,-65.2895 116.015,-55.5475 115.763,-46.5691"/>
<polygon fill="black" stroke="black" points="115.761,-46.5249 119.978,-36.4021 115.621,-41.5269 115.48,-36.5288 115.48,-36.5288 115.48,-36.5288 115.621,-41.5269 110.981,-36.6556 115.761,-46.5249 115.761,-46.5249"/>
</g>
</g>
</svg>
