<?xml version="1.0" encoding="UTF-8" standalone="no"?>
<!DOCTYPE svg PUBLIC "-//W3C//DTD SVG 1.1//EN"
 "http://www.w3.org/Graphics/SVG/1.1/DTD/svg11.dtd">
<!-- Generated by graphviz version 2.38.0 (20140413.2041)
 -->
<!-- Title: H Pages: 1 -->
<svg width="362pt" height="337pt"
 viewBox="0.00 0.00 361.50 337.00" xmlns="http://www.w3.org/2000/svg" xmlns:xlink="http://www.w3.org/1999/xlink">
<g id="graph0" class="graph" transform="scale(1 1) rotate(0) translate(4 333)">
<title>H</title>
<!-- FE -->
<g id="node1" class="node"><title>FE</title>
<g id="a_node1"><a xlink:href="_concepts__flow_elements__flow_element.html#Concepts_FlowElements_FlowElement" target="_top" xlink:title="Flow Element">
<polygon fill="none" stroke="black" points="276.5,-292.5 276.5,-328.5 353.5,-328.5 353.5,-292.5 276.5,-292.5"/>
<text text-anchor="middle" x="315" y="-308" font-family="Helvetica,sans-Serif" font-size="10.00">Flow Element</text>
</a>
</g>
</g>
<!-- AE -->
<g id="node2" class="node"><title>AE</title>
<g id="a_node2"><a xlink:href="_concepts__flow_elements__aspect_engine.html#Concepts_FlowElements_AspectEngine" target="_top" xlink:title="Aspect Engine">
<polygon fill="none" stroke="black" points="234,-219.5 234,-255.5 314,-255.5 314,-219.5 234,-219.5"/>
<text text-anchor="middle" x="274" y="-235" font-family="Helvetica,sans-Serif" font-size="10.00">Aspect Engine</text>
</a>
</g>
</g>
<!-- FE&#45;&gt;AE -->
<g id="edge1" class="edge"><title>FE&#45;&gt;AE</title>
<path fill="none" stroke="black" d="M305.075,-292.313C300.24,-283.941 294.325,-273.697 288.958,-264.403"/>
<polygon fill="black" stroke="black" points="291.865,-262.438 283.834,-255.529 285.803,-265.939 291.865,-262.438"/>
</g>
<!-- I -->
<g id="node6" class="node"><title>I</title>
<polygon fill="none" stroke="black" points="201.5,-0.5 201.5,-36.5 290.5,-36.5 290.5,-0.5 201.5,-0.5"/>
<text text-anchor="middle" x="246" y="-16" font-family="Helvetica,sans-Serif" font-size="10.00">Implementations</text>
</g>
<!-- FE&#45;&gt;I -->
<g id="edge5" class="edge"><title>FE&#45;&gt;I</title>
<path fill="none" stroke="black" stroke-dasharray="5,2" d="M319.484,-292.487C329.231,-251.784 348.526,-146.701 310,-73 303.859,-61.2526 293.928,-51.0663 283.702,-42.8266"/>
<polygon fill="black" stroke="black" points="285.596,-39.8709 275.504,-36.6431 281.38,-45.4594 285.596,-39.8709"/>
</g>
<!-- OPE -->
<g id="node4" class="node"><title>OPE</title>
<g id="a_node4"><a xlink:href="_concepts__flow_elements__on_premise_engine.html#Concepts_FlowElements_OnPremiseEngine" target="_top" xlink:title="On&#45;Premise Engine">
<polygon fill="none" stroke="black" points="129.5,-146.5 129.5,-182.5 230.5,-182.5 230.5,-146.5 129.5,-146.5"/>
<text text-anchor="middle" x="180" y="-162" font-family="Helvetica,sans-Serif" font-size="10.00">On&#45;Premise Engine</text>
</a>
</g>
</g>
<!-- AE&#45;&gt;OPE -->
<g id="edge2" class="edge"><title>AE&#45;&gt;OPE</title>
<path fill="none" stroke="black" d="M251.245,-219.313C239.122,-210.156 224.034,-198.76 210.869,-188.816"/>
<polygon fill="black" stroke="black" points="212.634,-185.763 202.545,-182.529 208.415,-191.349 212.634,-185.763"/>
</g>
<!-- CE -->
<g id="node5" class="node"><title>CE</title>
<g id="a_node5"><a xlink:href="_concepts__flow_elements__cloud_engine.html#Concepts_FlowElements_CloudEngine" target="_top" xlink:title="Cloud Engine">
<polygon fill="none" stroke="black" points="208.5,-73.5 208.5,-109.5 283.5,-109.5 283.5,-73.5 208.5,-73.5"/>
<text text-anchor="middle" x="246" y="-89" font-family="Helvetica,sans-Serif" font-size="10.00">Cloud Engine</text>
</a>
</g>
</g>
<!-- AE&#45;&gt;CE -->
<g id="edge4" class="edge"><title>AE&#45;&gt;CE</title>
<path fill="none" stroke="black" d="M270.678,-219.416C265.879,-194.733 256.957,-148.851 251.258,-119.541"/>
<polygon fill="black" stroke="black" points="254.662,-118.71 249.318,-109.562 247.791,-120.046 254.662,-118.71"/>
</g>
<!-- AE&#45;&gt;I -->
<g id="edge6" class="edge"><title>AE&#45;&gt;I</title>
<path fill="none" stroke="black" stroke-dasharray="5,2" d="M280.909,-219.163C292.011,-188.606 310.764,-123.606 292,-73 288.022,-62.272 280.823,-52.2503 273.283,-43.8475"/>
<polygon fill="black" stroke="black" points="275.793,-41.4078 266.345,-36.6121 270.74,-46.2525 275.793,-41.4078"/>
</g>
<!-- FODE -->
<g id="node3" class="node"><title>FODE</title>
<g id="a_node3"><a xlink:href="_concepts__flow_elements__fifty_one_on_premise_engine.html#Concepts_FlowElements_FiftyOneOnPremiseEngine" target="_top" xlink:title="51Degrees On&#45;Premise Engine">
<polygon fill="none" stroke="black" points="0,-73.5 0,-109.5 152,-109.5 152,-73.5 0,-73.5"/>
<text text-anchor="middle" x="76" y="-89" font-family="Helvetica,sans-Serif" font-size="10.00">51Degrees On&#45;Premise Engine</text>
</a>
</g>
</g>
<!-- FODE&#45;&gt;I -->
<g id="edge7" class="edge"><title>FODE&#45;&gt;I</title>
<path fill="none" stroke="black" stroke-dasharray="5,2" d="M116.719,-73.4937C140.411,-63.5991 170.47,-51.045 195.64,-40.5327"/>
<polygon fill="black" stroke="black" points="197.145,-43.6971 205.024,-36.6136 194.447,-37.2379 197.145,-43.6971"/>
</g>
<!-- OPE&#45;&gt;FODE -->
<g id="edge3" class="edge"><title>OPE&#45;&gt;FODE</title>
<path fill="none" stroke="black" d="M155.089,-146.494C141.426,-137.166 124.3,-125.474 109.482,-115.358"/>
<polygon fill="black" stroke="black" points="111.3,-112.361 101.068,-109.614 107.353,-118.143 111.3,-112.361"/>
</g>
<!-- OPE&#45;&gt;I -->
<g id="edge8" class="edge"><title>OPE&#45;&gt;I</title>
<path fill="none" stroke="black" stroke-dasharray="5,2" d="M181.003,-146.304C182.681,-127.438 187.148,-96.6904 199,-73 204.252,-62.5029 212.072,-52.4337 219.834,-43.9186"/>
<polygon fill="black" stroke="black" points="222.483,-46.2121 226.87,-36.5679 217.426,-41.3717 222.483,-46.2121"/>
</g>
<!-- CE&#45;&gt;I -->
<g id="edge9" class="edge"><title>CE&#45;&gt;I</title>
<path fill="none" stroke="black" stroke-dasharray="5,2" d="M246,-73.3129C246,-65.2895 246,-55.5475 246,-46.5691"/>
<polygon fill="black" stroke="black" points="249.5,-46.5288 246,-36.5288 242.5,-46.5289 249.5,-46.5288"/>
</g>
</g>
</svg>
