<?xml version="1.0" encoding="UTF-8" standalone="no"?>
<!DOCTYPE svg PUBLIC "-//W3C//DTD SVG 1.1//EN"
 "http://www.w3.org/Graphics/SVG/1.1/DTD/svg11.dtd">
<!-- Generated by graphviz version 2.38.0 (20140413.2041)
 -->
<!-- Title: %3 Pages: 1 -->
<svg width="424pt" height="245pt"
 viewBox="0.00 0.00 424.00 245.00" xmlns="http://www.w3.org/2000/svg" xmlns:xlink="http://www.w3.org/1999/xlink">
<g id="graph0" class="graph" transform="scale(1 1) rotate(0) translate(4 241)">
<title>%3</title>
<g id="clust1" class="cluster"><title>clusterDataKey</title>
<polygon fill="none" stroke="black" points="8,-81 8,-156 196,-156 196,-81 8,-81"/>
<text text-anchor="start" x="81" y="-145" font-family="Helvetica,sans-Serif" font-weight="bold" font-size="10.00">Data key</text>
</g>
<g id="clust2" class="cluster"><title>clusterCache</title>
<polygon fill="none" stroke="black" points="216,-8 216,-229 408,-229 408,-8 216,-8"/>
<text text-anchor="start" x="286" y="-217" font-family="Helvetica,sans-Serif" font-size="10.00">Cache keys</text>
</g>
<!-- Keys -->
<g id="node1" class="node"><title>Keys</title>
<polygon fill="none" stroke="black" points="16,-90 16,-128 188,-128 188,-90 16,-90"/>
<text text-anchor="middle" x="60.5" y="-116" font-family="Helvetica,sans-Serif" font-size="10.00">Latitude = 51.3</text>
<polyline fill="none" stroke="black" points="16,-109 105,-109 "/>
<text text-anchor="middle" x="60.5" y="-97" font-family="Helvetica,sans-Serif" font-size="10.00">Longitude = 11.5</text>
<polyline fill="none" stroke="black" points="105,-90 105,-128 "/>
<text text-anchor="middle" x="146.5" y="-106.5" font-family="Helvetica,sans-Serif" font-size="10.00">Hash = 123456</text>
</g>
<!-- Keys2 -->
<g id="node3" class="node"><title>Keys2</title>
<polygon fill="lightgreen" stroke="none" points="232,-109 232,-130 315,-130 315,-109 232,-109"/>
<polygon fill="none" stroke="black" points="232,-109 232,-130 315,-130 315,-109 232,-109"/>
<text text-anchor="start" x="240.5" y="-117" font-family="Helvetica,sans-Serif" font-size="10.00">Latitude = 51.3</text>
<polygon fill="lightgreen" stroke="none" points="315,-88 315,-130 392,-130 392,-88 315,-88"/>
<polygon fill="none" stroke="black" points="315,-88 315,-130 392,-130 392,-88 315,-88"/>
<text text-anchor="start" x="320" y="-106.5" font-family="Helvetica,sans-Serif" font-size="10.00">Hash = 123456</text>
<polygon fill="lightgreen" stroke="none" points="232,-88 232,-109 315,-109 315,-88 232,-88"/>
<polygon fill="none" stroke="black" points="232,-88 232,-109 315,-109 315,-88 232,-88"/>
<text text-anchor="start" x="237" y="-96" font-family="Helvetica,sans-Serif" font-size="10.00">Longitude = 11.5</text>
</g>
<!-- Keys&#45;&gt;Keys2 -->
<g id="edge1" class="edge"><title>Keys&#45;&gt;Keys2</title>
<path fill="none" stroke="black" d="M188.202,-109C196.669,-109 205.308,-109 213.884,-109"/>
<polygon fill="black" stroke="black" points="213.909,-112.5 223.909,-109 213.909,-105.5 213.909,-112.5"/>
</g>
<!-- Keys1 -->
<g id="node2" class="node"><title>Keys1</title>
<polygon fill="none" stroke="black" points="232,-177 232,-198 315,-198 315,-177 232,-177"/>
<text text-anchor="start" x="243" y="-185" font-family="Helvetica,sans-Serif" font-size="10.00">Latitude = 1.6</text>
<polygon fill="lightgreen" stroke="none" points="315,-156 315,-198 392,-198 392,-156 315,-156"/>
<polygon fill="none" stroke="black" points="315,-156 315,-198 392,-198 392,-156 315,-156"/>
<text text-anchor="start" x="320" y="-174.5" font-family="Helvetica,sans-Serif" font-size="10.00">Hash = 123456</text>
<polygon fill="none" stroke="black" points="232,-156 232,-177 315,-177 315,-156 232,-156"/>
<text text-anchor="start" x="237" y="-164" font-family="Helvetica,sans-Serif" font-size="10.00">Longitude = 48.6</text>
</g>
<!-- Keys3 -->
<g id="node4" class="node"><title>Keys3</title>
<polygon fill="none" stroke="black" points="233,-41 233,-62 314,-62 314,-41 233,-41"/>
<text text-anchor="start" x="238" y="-49" font-family="Helvetica,sans-Serif" font-size="10.00">Latitude = 149.1</text>
<polygon fill="none" stroke="black" points="314,-20 314,-62 391,-62 391,-20 314,-20"/>
<text text-anchor="start" x="319" y="-38.5" font-family="Helvetica,sans-Serif" font-size="10.00">Hash = 725528</text>
<polygon fill="none" stroke="black" points="233,-20 233,-41 314,-41 314,-20 233,-20"/>
<text text-anchor="start" x="239.5" y="-28" font-family="Helvetica,sans-Serif" font-size="10.00">Longitude = 4.0</text>
</g>
</g>
</svg>
