<?xml version="1.0" encoding="UTF-8" standalone="no"?>
<!DOCTYPE svg PUBLIC "-//W3C//DTD SVG 1.1//EN"
 "http://www.w3.org/Graphics/SVG/1.1/DTD/svg11.dtd">
<!-- Generated by graphviz version 2.38.0 (20140413.2041)
 -->
<!-- Title: %3 Pages: 1 -->
<svg width="408pt" height="238pt"
 viewBox="0.00 0.00 408.00 238.00" xmlns="http://www.w3.org/2000/svg" xmlns:xlink="http://www.w3.org/1999/xlink">
<g id="graph0" class="graph" transform="scale(1 1) rotate(0) translate(4 234)">
<title>%3</title>
<g id="clust1" class="cluster"><title>clusterWebServer</title>
<polygon fill="none" stroke="black" points="256,-8 256,-222 392,-222 392,-8 256,-8"/>
<text text-anchor="middle" x="324" y="-210" font-family="Helvetica,sans-Serif" font-size="10.00">Web server</text>
</g>
<g id="clust2" class="cluster"><title>clusterClient</title>
<polygon fill="none" stroke="black" points="8,-65 8,-198 141,-198 141,-65 8,-65"/>
<text text-anchor="middle" x="74.5" y="-186" font-family="Helvetica,sans-Serif" font-size="10.00">Client</text>
</g>
<!-- Process1 -->
<g id="node1" class="node"><title>Process1</title>
<polygon fill="none" stroke="black" points="264,-109.5 264,-194.5 384,-194.5 384,-109.5 264,-109.5"/>
<text text-anchor="middle" x="324" y="-182.5" font-family="Helvetica,sans-Serif" font-size="10.00">Pipeline has geo engine</text>
<text text-anchor="middle" x="324" y="-171.5" font-family="Helvetica,sans-Serif" font-size="10.00">that needs lat and long.</text>
<text text-anchor="middle" x="324" y="-160.5" font-family="Helvetica,sans-Serif" font-size="10.00">As neither are available</text>
<text text-anchor="middle" x="324" y="-149.5" font-family="Helvetica,sans-Serif" font-size="10.00">in the evidence, it</text>
<text text-anchor="middle" x="324" y="-138.5" font-family="Helvetica,sans-Serif" font-size="10.00">populates a JavaScript</text>
<text text-anchor="middle" x="324" y="-127.5" font-family="Helvetica,sans-Serif" font-size="10.00">property with code</text>
<text text-anchor="middle" x="324" y="-116.5" font-family="Helvetica,sans-Serif" font-size="10.00">to get these values.</text>
</g>
<!-- ProcessB -->
<g id="node4" class="node"><title>ProcessB</title>
<polygon fill="none" stroke="black" points="16,-73.5 16,-114.5 133,-114.5 133,-73.5 16,-73.5"/>
<text text-anchor="middle" x="74.5" y="-102.5" font-family="Helvetica,sans-Serif" font-size="10.00">JavaScript runs on</text>
<text text-anchor="middle" x="74.5" y="-91.5" font-family="Helvetica,sans-Serif" font-size="10.00">client and sets cookies</text>
<text text-anchor="middle" x="74.5" y="-80.5" font-family="Helvetica,sans-Serif" font-size="10.00">for lat and long.</text>
</g>
<!-- Process1&#45;&gt;ProcessB -->
<g id="edge2" class="edge"><title>Process1&#45;&gt;ProcessB</title>
<path fill="none" stroke="black" d="M263.979,-131.14C257.941,-129.286 251.87,-127.534 246,-126 212.476,-117.24 174.648,-109.891 143.156,-104.453"/>
<polygon fill="black" stroke="black" points="143.612,-100.981 133.167,-102.756 142.439,-107.882 143.612,-100.981"/>
<text text-anchor="middle" x="198.5" y="-140" font-family="Helvetica,sans-Serif" font-size="10.00">2. Response includes</text>
<text text-anchor="middle" x="198.5" y="-129" font-family="Helvetica,sans-Serif" font-size="10.00">JavaScript</text>
</g>
<!-- Process2 -->
<g id="node2" class="node"><title>Process2</title>
<polygon fill="none" stroke="black" points="266.5,-16 266.5,-90 381.5,-90 381.5,-16 266.5,-16"/>
<text text-anchor="middle" x="324" y="-78" font-family="Helvetica,sans-Serif" font-size="10.00">Pipeline takes cookies</text>
<text text-anchor="middle" x="324" y="-67" font-family="Helvetica,sans-Serif" font-size="10.00">as evidence.</text>
<text text-anchor="middle" x="324" y="-56" font-family="Helvetica,sans-Serif" font-size="10.00">Geo engine uses</text>
<text text-anchor="middle" x="324" y="-45" font-family="Helvetica,sans-Serif" font-size="10.00">lat and long values</text>
<text text-anchor="middle" x="324" y="-34" font-family="Helvetica,sans-Serif" font-size="10.00">to determine postal</text>
<text text-anchor="middle" x="324" y="-23" font-family="Helvetica,sans-Serif" font-size="10.00">address.</text>
</g>
<!-- Start -->
<g id="node3" class="node"><title>Start</title>
<polygon fill="none" stroke="black" points="47.5,-134 47.5,-170 101.5,-170 101.5,-134 47.5,-134"/>
<text text-anchor="middle" x="74.5" y="-149.5" font-family="Helvetica,sans-Serif" font-size="10.00">Start</text>
</g>
<!-- Start&#45;&gt;Process1 -->
<g id="edge1" class="edge"><title>Start&#45;&gt;Process1</title>
<path fill="none" stroke="black" d="M101.519,-152C137.339,-152 203.154,-152 253.764,-152"/>
<polygon fill="black" stroke="black" points="253.993,-155.5 263.993,-152 253.993,-148.5 253.993,-155.5"/>
<text text-anchor="middle" x="198.5" y="-155" font-family="Helvetica,sans-Serif" font-size="10.00">1. Inital request</text>
</g>
<!-- ProcessB&#45;&gt;Process2 -->
<g id="edge3" class="edge"><title>ProcessB&#45;&gt;Process2</title>
<path fill="none" stroke="black" d="M112.068,-73.4819C124.103,-67.7123 137.791,-62.1553 151,-59 185.091,-50.8567 224.054,-48.9165 256.266,-49.2044"/>
<polygon fill="black" stroke="black" points="256.416,-52.7072 266.472,-49.3711 256.531,-45.7081 256.416,-52.7072"/>
<text text-anchor="middle" x="198.5" y="-73" font-family="Helvetica,sans-Serif" font-size="10.00">3. Second request</text>
<text text-anchor="middle" x="198.5" y="-62" font-family="Helvetica,sans-Serif" font-size="10.00">includes cookies</text>
</g>
</g>
</svg>
