<?xml version="1.0" encoding="UTF-8" standalone="no"?>
<!DOCTYPE svg PUBLIC "-//W3C//DTD SVG 1.1//EN"
 "http://www.w3.org/Graphics/SVG/1.1/DTD/svg11.dtd">
<!-- Generated by graphviz version 2.38.0 (20140413.2041)
 -->
<!-- Title: %3 Pages: 1 -->
<svg width="338pt" height="246pt"
 viewBox="0.00 0.00 338.00 246.00" xmlns="http://www.w3.org/2000/svg" xmlns:xlink="http://www.w3.org/1999/xlink">
<g id="graph0" class="graph" transform="scale(1 1) rotate(0) translate(4 242)">
<title>%3</title>
<!-- W -->
<g id="node1" class="node"><title>W</title>
<polygon fill="none" stroke="black" points="78.5,-201.5 78.5,-237.5 209.5,-237.5 209.5,-201.5 78.5,-201.5"/>
<text text-anchor="middle" x="144" y="-217" font-family="Helvetica,sans-Serif" font-size="10.00">Web server using Pipeline</text>
</g>
<!-- D -->
<g id="node2" class="node"><title>D</title>
<polygon fill="none" stroke="black" points="0,-106.5 0,-142.5 136,-142.5 136,-106.5 0,-106.5"/>
<text text-anchor="middle" x="68" y="-122" font-family="Helvetica,sans-Serif" font-size="10.00">51Degrees data processing</text>
</g>
<!-- W&#45;&gt;D -->
<g id="edge1" class="edge"><title>W&#45;&gt;D</title>
<path fill="none" stroke="black" d="M120.294,-201.478C113.601,-196.024 106.618,-189.659 101,-183 93.0444,-173.571 85.9655,-161.957 80.424,-151.641"/>
<polygon fill="black" stroke="black" points="83.4752,-149.922 75.7859,-142.633 77.2515,-153.126 83.4752,-149.922"/>
<text text-anchor="middle" x="148" y="-175" font-family="Helvetica,sans-Serif" font-size="10.00">Evidence shared with</text>
<text text-anchor="middle" x="148" y="-164" font-family="Helvetica,sans-Serif" font-size="10.00">51Degrees</text>
</g>
<!-- F -->
<g id="node3" class="node"><title>F</title>
<polygon fill="none" stroke="black" points="67.5,-0.5 67.5,-36.5 198.5,-36.5 198.5,-0.5 67.5,-0.5"/>
<text text-anchor="middle" x="133" y="-16" font-family="Helvetica,sans-Serif" font-size="10.00">51Degrees data file export</text>
</g>
<!-- D&#45;&gt;F -->
<g id="edge2" class="edge"><title>D&#45;&gt;F</title>
<path fill="none" stroke="black" d="M59.9425,-106.41C54.2823,-91.6858 49.2886,-70.43 59,-55 61.9886,-50.2516 65.8084,-46.1241 70.1331,-42.5388"/>
<polygon fill="black" stroke="black" points="72.2793,-45.3072 78.3924,-36.6538 68.2173,-39.6063 72.2793,-45.3072"/>
<text text-anchor="middle" x="127" y="-80" font-family="Helvetica,sans-Serif" font-size="10.00">New evidence values identified</text>
<text text-anchor="middle" x="127" y="-69" font-family="Helvetica,sans-Serif" font-size="10.00">and associated with</text>
<text text-anchor="middle" x="127" y="-58" font-family="Helvetica,sans-Serif" font-size="10.00">appropriate data</text>
</g>
<!-- F&#45;&gt;W -->
<g id="edge3" class="edge"><title>F&#45;&gt;W</title>
<path fill="none" stroke="black" d="M176.732,-36.5931C184.036,-41.4307 190.645,-47.4886 195,-55 223.533,-104.216 221.338,-132.575 195,-183 192.746,-187.315 189.702,-191.212 186.217,-194.704"/>
<polygon fill="black" stroke="black" points="183.845,-192.128 178.554,-201.307 188.414,-197.43 183.845,-192.128"/>
<text text-anchor="middle" x="272.5" y="-133" font-family="Helvetica,sans-Serif" font-size="10.00">Updated data file contains</text>
<text text-anchor="middle" x="272.5" y="-122" font-family="Helvetica,sans-Serif" font-size="10.00">exact mappings for newly</text>
<text text-anchor="middle" x="272.5" y="-111" font-family="Helvetica,sans-Serif" font-size="10.00">identified evidence.</text>
</g>
</g>
</svg>
