<?xml version="1.0" encoding="UTF-8" standalone="no"?>
<!DOCTYPE svg PUBLIC "-//W3C//DTD SVG 1.1//EN"
 "http://www.w3.org/Graphics/SVG/1.1/DTD/svg11.dtd">
<!-- Generated by graphviz version 2.38.0 (20140413.2041)
 -->
<!-- Title: %3 Pages: 1 -->
<svg width="428pt" height="229pt"
 viewBox="0.00 0.00 428.00 229.00" xmlns="http://www.w3.org/2000/svg" xmlns:xlink="http://www.w3.org/1999/xlink">
<g id="graph0" class="graph" transform="scale(1 1) rotate(0) translate(0 229)">
<title>%3</title>
<g id="clust1" class="cluster"><title>clusterEngine</title>
<polygon fill="none" stroke="black" points="8,-8 8,-221 420,-221 420,-8 8,-8"/>
<text text-anchor="start" x="158" y="-210" font-family="Helvetica,sans-Serif" font-size="10.00">Engine with </text>
<text text-anchor="start" x="212" y="-210" font-family="Helvetica,sans-Serif" font-weight="bold" font-size="10.00">result cache</text>
</g>
<!-- key -->
<g id="node1" class="node"><title>key</title>
<polygon fill="none" stroke="black" points="16,-146 16,-182 102,-182 102,-146 16,-146"/>
<text text-anchor="middle" x="59" y="-167" font-family="Helvetica,sans-Serif" font-size="10.00">Create data key</text>
<text text-anchor="middle" x="59" y="-156" font-family="Helvetica,sans-Serif" font-size="10.00">from evidence</text>
</g>
<!-- cache -->
<g id="node3" class="node"><title>cache</title>
<polygon fill="none" stroke="black" points="213,-194 130,-164 213,-134 296,-164 213,-194"/>
<text text-anchor="middle" x="213" y="-167" font-family="Helvetica,sans-Serif" font-size="10.00">Does key</text>
<text text-anchor="middle" x="213" y="-156" font-family="Helvetica,sans-Serif" font-size="10.00">exist in cache?</text>
</g>
<!-- key&#45;&gt;cache -->
<g id="edge1" class="edge"><title>key&#45;&gt;cache</title>
<path fill="none" stroke="black" d="M102.012,-164C107.792,-164 113.573,-164 119.354,-164"/>
<polygon fill="black" stroke="black" points="119.759,-167.5 129.759,-164 119.759,-160.5 119.759,-167.5"/>
</g>
<!-- getaspectdata -->
<g id="node2" class="node"><title>getaspectdata</title>
<polygon fill="none" stroke="black" points="326,-146 326,-182 412,-182 412,-146 326,-146"/>
<text text-anchor="middle" x="369" y="-167" font-family="Helvetica,sans-Serif" font-size="10.00">Get aspect data</text>
<text text-anchor="middle" x="369" y="-156" font-family="Helvetica,sans-Serif" font-size="10.00">from cache</text>
</g>
<!-- addtoflow -->
<g id="node7" class="node"><title>addtoflow</title>
<polygon fill="none" stroke="black" points="300.5,-16.5 300.5,-52.5 401.5,-52.5 401.5,-16.5 300.5,-16.5"/>
<text text-anchor="middle" x="351" y="-37.5" font-family="Helvetica,sans-Serif" font-size="10.00">Add aspect data to</text>
<text text-anchor="middle" x="351" y="-26.5" font-family="Helvetica,sans-Serif" font-size="10.00">flow data and return</text>
</g>
<!-- getaspectdata&#45;&gt;addtoflow -->
<g id="edge7" class="edge"><title>getaspectdata&#45;&gt;addtoflow</title>
<path fill="none" stroke="black" d="M377.367,-145.929C385.526,-126.797 395.316,-95.1635 385,-70 383.651,-66.7101 381.821,-63.5659 379.704,-60.6089"/>
<polygon fill="black" stroke="black" points="382.258,-58.2082 373.145,-52.8058 376.9,-62.7126 382.258,-58.2082"/>
</g>
<!-- cache&#45;&gt;getaspectdata -->
<g id="edge3" class="edge"><title>cache&#45;&gt;getaspectdata</title>
<path fill="none" stroke="black" d="M296.024,-164C302.644,-164 309.214,-164 315.545,-164"/>
<polygon fill="black" stroke="black" points="315.938,-167.5 325.938,-164 315.938,-160.5 315.938,-167.5"/>
<text text-anchor="middle" x="311" y="-170" font-family="Helvetica,sans-Serif" font-size="10.00">yes</text>
</g>
<!-- data -->
<g id="node4" class="node"><title>data</title>
<polygon fill="none" stroke="black" points="34.5,-70.5 34.5,-106.5 133.5,-106.5 133.5,-70.5 34.5,-70.5"/>
<text text-anchor="middle" x="84" y="-86" font-family="Helvetica,sans-Serif" font-size="10.00">Create aspect data</text>
</g>
<!-- cache&#45;&gt;data -->
<g id="edge2" class="edge"><title>cache&#45;&gt;data</title>
<path fill="none" stroke="black" d="M181.773,-145.208C164.087,-135.131 141.804,-122.435 122.98,-111.709"/>
<polygon fill="black" stroke="black" points="124.473,-108.532 114.051,-106.622 121.007,-114.614 124.473,-108.532"/>
<text text-anchor="middle" x="149.5" y="-118" font-family="Helvetica,sans-Serif" font-size="10.00">no</text>
</g>
<!-- process -->
<g id="node5" class="node"><title>process</title>
<polygon fill="none" stroke="black" points="161.5,-70.5 161.5,-106.5 240.5,-106.5 240.5,-70.5 161.5,-70.5"/>
<text text-anchor="middle" x="201" y="-91.5" font-family="Helvetica,sans-Serif" font-size="10.00">Normal engine</text>
<text text-anchor="middle" x="201" y="-80.5" font-family="Helvetica,sans-Serif" font-size="10.00">processing</text>
</g>
<!-- data&#45;&gt;process -->
<g id="edge4" class="edge"><title>data&#45;&gt;process</title>
<path fill="none" stroke="black" d="M133.816,-88.5C139.557,-88.5 145.298,-88.5 151.039,-88.5"/>
<polygon fill="black" stroke="black" points="151.372,-92.0001 161.372,-88.5 151.372,-85.0001 151.372,-92.0001"/>
</g>
<!-- addtocache -->
<g id="node6" class="node"><title>addtocache</title>
<polygon fill="none" stroke="black" points="268,-70.5 268,-106.5 378,-106.5 378,-70.5 268,-70.5"/>
<text text-anchor="middle" x="323" y="-91.5" font-family="Helvetica,sans-Serif" font-size="10.00">Add aspect data to</text>
<text text-anchor="middle" x="323" y="-80.5" font-family="Helvetica,sans-Serif" font-size="10.00">cache using data key</text>
</g>
<!-- process&#45;&gt;addtocache -->
<g id="edge5" class="edge"><title>process&#45;&gt;addtocache</title>
<path fill="none" stroke="black" d="M240.555,-88.5C246.258,-88.5 251.961,-88.5 257.664,-88.5"/>
<polygon fill="black" stroke="black" points="257.929,-92.0001 267.929,-88.5 257.929,-85.0001 257.929,-92.0001"/>
</g>
<!-- addtocache&#45;&gt;addtoflow -->
<g id="edge6" class="edge"><title>addtocache&#45;&gt;addtoflow</title>
<path fill="none" stroke="black" d="M332.168,-70.4733C333.699,-67.6297 335.318,-64.623 336.938,-61.6143"/>
<polygon fill="black" stroke="black" points="340.056,-63.2071 341.715,-52.743 333.893,-59.8884 340.056,-63.2071"/>
</g>
</g>
</svg>
