<?xml version="1.0" encoding="UTF-8" standalone="no"?>
<!DOCTYPE svg PUBLIC "-//W3C//DTD SVG 1.1//EN"
 "http://www.w3.org/Graphics/SVG/1.1/DTD/svg11.dtd">
<!-- Generated by graphviz version 2.38.0 (20140413.2041)
 -->
<!-- Title: P Pages: 1 -->
<svg width="243pt" height="129pt"
 viewBox="0.00 0.00 242.78 129.00" xmlns="http://www.w3.org/2000/svg" xmlns:xlink="http://www.w3.org/1999/xlink">
<g id="graph0" class="graph" transform="scale(1 1) rotate(0) translate(4 125)">
<title>P</title>
<!-- E1 -->
<g id="node1" class="node"><title>E1</title>
<polygon fill="none" stroke="black" points="33.7757,-84.5 33.7757,-120.5 101.776,-120.5 101.776,-84.5 33.7757,-84.5"/>
<text text-anchor="middle" x="67.7757" y="-100" font-family="Helvetica,sans-Serif" font-size="10.00">date of birth</text>
</g>
<!-- FE -->
<g id="node3" class="node"><title>FE</title>
<polygon fill="none" stroke="black" points="86.2757,-0.5 86.2757,-36.5 159.276,-36.5 159.276,-0.5 86.2757,-0.5"/>
<text text-anchor="middle" x="122.776" y="-16" font-family="Helvetica,sans-Serif" font-size="10.00">Age Element</text>
</g>
<!-- E1&#45;&gt;FE -->
<g id="edge1" class="edge"><title>E1&#45;&gt;FE</title>
<path fill="none" stroke="black" d="M33.6285,-91.1802C12.7943,-83.0569 -7.79597,-70.5277 3.77572,-55 20.3805,-32.7186 50.4304,-23.8747 76.1776,-20.5854"/>
<polygon fill="black" stroke="black" points="76.576,-24.063 86.1619,-19.5508 75.8544,-17.1003 76.576,-24.063"/>
<text text-anchor="middle" x="42.7757" y="-58" font-family="Helvetica,sans-Serif" font-size="10.00">do you want this?</text>
</g>
<!-- E2 -->
<g id="node2" class="node"><title>E2</title>
<polygon fill="none" stroke="black" points="147.776,-84.5 147.776,-120.5 209.776,-120.5 209.776,-84.5 147.776,-84.5"/>
<text text-anchor="middle" x="178.776" y="-100" font-family="Helvetica,sans-Serif" font-size="10.00">hometown</text>
</g>
<!-- E2&#45;&gt;FE -->
<g id="edge3" class="edge"><title>E2&#45;&gt;FE</title>
<path fill="none" stroke="black" d="M159.27,-84.1805C153.816,-78.718 148.182,-72.4234 143.776,-66 139.601,-59.9144 135.92,-52.8649 132.852,-46.1235"/>
<polygon fill="black" stroke="black" points="135.944,-44.4498 128.812,-36.615 129.502,-47.1874 135.944,-44.4498"/>
<text text-anchor="middle" x="182.776" y="-58" font-family="Helvetica,sans-Serif" font-size="10.00">do you want this?</text>
</g>
<!-- FE&#45;&gt;E1 -->
<g id="edge2" class="edge"><title>FE&#45;&gt;E1</title>
<path fill="none" stroke="black" d="M111.317,-36.5838C103.727,-47.9 93.6301,-62.9534 85.0705,-75.7151"/>
<polygon fill="black" stroke="black" points="82.1035,-73.8554 79.4398,-84.1099 87.9169,-77.7546 82.1035,-73.8554"/>
<text text-anchor="middle" x="106.776" y="-58" font-family="Helvetica,sans-Serif" font-size="10.00">yes</text>
</g>
<!-- FE&#45;&gt;E2 -->
<g id="edge4" class="edge"><title>FE&#45;&gt;E2</title>
<path fill="none" stroke="black" d="M159.697,-22.4567C181.624,-26.3343 207.799,-35.1404 221.776,-55 227.281,-62.823 224.079,-70.6993 217.451,-77.6891"/>
<polygon fill="black" stroke="black" points="215.075,-75.117 209.877,-84.3487 219.698,-80.374 215.075,-75.117"/>
<text text-anchor="middle" x="229.276" y="-58" font-family="Helvetica,sans-Serif" font-size="10.00">no</text>
</g>
</g>
</svg>
