<?xml version="1.0" encoding="UTF-8" standalone="no"?>
<!DOCTYPE svg PUBLIC "-//W3C//DTD SVG 1.1//EN"
 "http://www.w3.org/Graphics/SVG/1.1/DTD/svg11.dtd">
<!-- Generated by graphviz version 2.38.0 (20140413.2041)
 -->
<!-- Title: P Pages: 1 -->
<svg width="301pt" height="156pt"
 viewBox="0.00 0.00 301.00 156.00" xmlns="http://www.w3.org/2000/svg" xmlns:xlink="http://www.w3.org/1999/xlink">
<g id="graph0" class="graph" transform="scale(1 1) rotate(0) translate(4 152)">
<title>P</title>
<g id="clust1" class="cluster"><title>clusterFD</title>
<g id="a_clust1"><a xlink:href="_concepts__data__flow_data.html#Concepts_Data_FlowData" target="_top" xlink:title="Flow Data">
<polygon fill="none" stroke="black" points="8,-8 8,-140 157,-140 157,-8 8,-8"/>
<text text-anchor="middle" x="82.5" y="-128" font-family="Helvetica,sans-Serif" font-size="10.00">Flow Data</text>
</a>
</g>
</g>
<!-- structE -->
<g id="node1" class="node"><title>structE</title>
<g id="a_node1"><a xlink:href="_concepts__data__evidence.html#Concepts_Data_Evidence" target="_top" xlink:title="&lt;f0&gt;Evidence|{&lt;f1&gt;date of birth|&lt;f2&gt;18/12/1992}">
<polygon fill="none" stroke="black" points="16,-74 16,-112 149,-112 149,-74 16,-74"/>
<text text-anchor="middle" x="82.5" y="-100" font-family="Helvetica,sans-Serif" font-size="10.00">Evidence</text>
<polyline fill="none" stroke="black" points="16,-93 149,-93 "/>
<text text-anchor="middle" x="50" y="-81" font-family="Helvetica,sans-Serif" font-size="10.00">date of birth</text>
<polyline fill="none" stroke="black" points="84,-74 84,-93 "/>
<text text-anchor="middle" x="116.5" y="-81" font-family="Helvetica,sans-Serif" font-size="10.00">18/12/1992</text>
</a>
</g>
</g>
<!-- FE -->
<g id="node3" class="node"><title>FE</title>
<polygon fill="none" stroke="black" points="220,-49 220,-85 293,-85 293,-49 220,-49"/>
<text text-anchor="middle" x="256.5" y="-64.5" font-family="Helvetica,sans-Serif" font-size="10.00">Age Element</text>
</g>
<!-- structE&#45;&gt;FE -->
<g id="edge1" class="edge"><title>structE&#45;&gt;FE</title>
<path fill="none" stroke="black" d="M156.652,-81.9422C174.598,-79.2294 193.308,-76.4011 209.56,-73.9444"/>
<polygon fill="black" stroke="black" points="210.154,-77.3945 219.518,-72.4391 209.108,-70.4731 210.154,-77.3945"/>
<text text-anchor="middle" x="184.5" y="-83" font-family="Helvetica,sans-Serif" font-size="10.00">process</text>
</g>
<!-- structED -->
<g id="node2" class="node"><title>structED</title>
<g id="a_node2"><a xlink:href="_concepts__data__element_data.html#Concepts_Data_ElementData" target="_top" xlink:title="&lt;f0&gt;Element Data|{&lt;f1&gt;age|&lt;f2&gt;26}">
<polygon fill="none" stroke="black" points="44,-17 44,-55 121,-55 121,-17 44,-17"/>
<text text-anchor="middle" x="82.5" y="-43" font-family="Helvetica,sans-Serif" font-size="10.00">Element Data</text>
<polyline fill="none" stroke="black" points="44,-36 121,-36 "/>
<text text-anchor="middle" x="64.5" y="-24" font-family="Helvetica,sans-Serif" font-size="10.00">age</text>
<polyline fill="none" stroke="black" points="85,-17 85,-36 "/>
<text text-anchor="middle" x="103" y="-24" font-family="Helvetica,sans-Serif" font-size="10.00">26</text>
</a>
</g>
</g>
<!-- FE&#45;&gt;structED -->
<g id="edge2" class="edge"><title>FE&#45;&gt;structED</title>
<path fill="none" stroke="black" d="M219.898,-60.5834C194.239,-55.9587 159.33,-49.667 131.252,-44.6064"/>
<polygon fill="black" stroke="black" points="131.708,-41.1324 121.246,-42.8031 130.467,-48.0214 131.708,-41.1324"/>
<text text-anchor="middle" x="184.5" y="-60" font-family="Helvetica,sans-Serif" font-size="10.00">output</text>
</g>
</g>
</svg>
