<?xml version="1.0" encoding="UTF-8" standalone="no"?>
<!DOCTYPE svg PUBLIC "-//W3C//DTD SVG 1.1//EN"
 "http://www.w3.org/Graphics/SVG/1.1/DTD/svg11.dtd">
<!-- Generated by graphviz version 2.38.0 (20140413.2041)
 -->
<!-- Title: %3 Pages: 1 -->
<svg width="407pt" height="239pt"
 viewBox="0.00 0.00 407.00 239.00" xmlns="http://www.w3.org/2000/svg" xmlns:xlink="http://www.w3.org/1999/xlink">
<g id="graph0" class="graph" transform="scale(1 1) rotate(0) translate(4 235)">
<title>%3</title>
<g id="clust2" class="cluster"><title>clusterClient</title>
<polygon fill="none" stroke="black" points="8,-66 8,-199 141,-199 141,-66 8,-66"/>
<text text-anchor="middle" x="74.5" y="-187" font-family="Helvetica,sans-Serif" font-size="10.00">Client</text>
</g>
<g id="clust1" class="cluster"><title>clusterWebServer</title>
<polygon fill="none" stroke="black" points="255,-8 255,-223 391,-223 391,-8 255,-8"/>
<text text-anchor="middle" x="323" y="-211" font-family="Helvetica,sans-Serif" font-size="10.00">Web server</text>
</g>
<!-- Process1 -->
<g id="node1" class="node"><title>Process1</title>
<polygon fill="none" stroke="black" points="263,-110.5 263,-195.5 383,-195.5 383,-110.5 263,-110.5"/>
<text text-anchor="middle" x="323" y="-183.5" font-family="Helvetica,sans-Serif" font-size="10.00">Pipeline has geo engine</text>
<text text-anchor="middle" x="323" y="-172.5" font-family="Helvetica,sans-Serif" font-size="10.00">that needs lat and long.</text>
<text text-anchor="middle" x="323" y="-161.5" font-family="Helvetica,sans-Serif" font-size="10.00">As neither are available</text>
<text text-anchor="middle" x="323" y="-150.5" font-family="Helvetica,sans-Serif" font-size="10.00">in the evidence, it</text>
<text text-anchor="middle" x="323" y="-139.5" font-family="Helvetica,sans-Serif" font-size="10.00">populates a JavaScript</text>
<text text-anchor="middle" x="323" y="-128.5" font-family="Helvetica,sans-Serif" font-size="10.00">property with code</text>
<text text-anchor="middle" x="323" y="-117.5" font-family="Helvetica,sans-Serif" font-size="10.00">to get these values.</text>
</g>
<!-- ProcessB -->
<g id="node4" class="node"><title>ProcessB</title>
<polygon fill="none" stroke="black" points="16,-74.5 16,-115.5 133,-115.5 133,-74.5 16,-74.5"/>
<text text-anchor="middle" x="74.5" y="-103.5" font-family="Helvetica,sans-Serif" font-size="10.00">JavaScript runs on</text>
<text text-anchor="middle" x="74.5" y="-92.5" font-family="Helvetica,sans-Serif" font-size="10.00">client and sets cookies</text>
<text text-anchor="middle" x="74.5" y="-81.5" font-family="Helvetica,sans-Serif" font-size="10.00">for lat and long.</text>
</g>
<!-- Process1&#45;&gt;ProcessB -->
<g id="edge2" class="edge"><title>Process1&#45;&gt;ProcessB</title>
<path fill="none" stroke="black" d="M262.977,-132.146C256.939,-130.291 250.869,-128.537 245,-127 211.801,-118.306 174.359,-110.984 143.126,-105.546"/>
<polygon fill="black" stroke="black" points="143.664,-102.088 133.216,-103.848 142.481,-108.987 143.664,-102.088"/>
<text text-anchor="middle" x="198" y="-141" font-family="Helvetica,sans-Serif" font-size="10.00">2. Response includes</text>
<text text-anchor="middle" x="198" y="-130" font-family="Helvetica,sans-Serif" font-size="10.00">JavaScript</text>
</g>
<!-- Process2 -->
<g id="node2" class="node"><title>Process2</title>
<polygon fill="none" stroke="black" points="265.5,-17 265.5,-91 380.5,-91 380.5,-17 265.5,-17"/>
<text text-anchor="middle" x="323" y="-79" font-family="Helvetica,sans-Serif" font-size="10.00">Pipeline takes cookies</text>
<text text-anchor="middle" x="323" y="-68" font-family="Helvetica,sans-Serif" font-size="10.00">as evidence.</text>
<text text-anchor="middle" x="323" y="-57" font-family="Helvetica,sans-Serif" font-size="10.00">Geo engine uses</text>
<text text-anchor="middle" x="323" y="-46" font-family="Helvetica,sans-Serif" font-size="10.00">lat and long values</text>
<text text-anchor="middle" x="323" y="-35" font-family="Helvetica,sans-Serif" font-size="10.00">to determine postal</text>
<text text-anchor="middle" x="323" y="-24" font-family="Helvetica,sans-Serif" font-size="10.00">address.</text>
</g>
<!-- Start -->
<g id="node3" class="node"><title>Start</title>
<polygon fill="none" stroke="black" points="47.5,-135 47.5,-171 101.5,-171 101.5,-135 47.5,-135"/>
<text text-anchor="middle" x="74.5" y="-150.5" font-family="Helvetica,sans-Serif" font-size="10.00">Start</text>
</g>
<!-- Start&#45;&gt;Process1 -->
<g id="edge1" class="edge"><title>Start&#45;&gt;Process1</title>
<path fill="none" stroke="black" d="M101.88,-153C137.61,-153 202.681,-153 252.841,-153"/>
<polygon fill="black" stroke="black" points="252.982,-156.5 262.982,-153 252.982,-149.5 252.982,-156.5"/>
<text text-anchor="middle" x="198" y="-156" font-family="Helvetica,sans-Serif" font-size="10.00">1. Inital request</text>
</g>
<!-- ProcessB&#45;&gt;Process2 -->
<g id="edge3" class="edge"><title>ProcessB&#45;&gt;Process2</title>
<path fill="none" stroke="black" d="M112.069,-74.4836C124.103,-68.714 137.791,-63.1566 151,-60 184.762,-51.9317 223.33,-49.979 255.283,-50.2398"/>
<polygon fill="black" stroke="black" points="255.357,-53.7413 265.411,-50.3974 255.466,-46.7422 255.357,-53.7413"/>
<text text-anchor="middle" x="198" y="-74" font-family="Helvetica,sans-Serif" font-size="10.00">3. Second request</text>
<text text-anchor="middle" x="198" y="-63" font-family="Helvetica,sans-Serif" font-size="10.00">includes cookies</text>
</g>
</g>
</svg>
