<?xml version="1.0" encoding="UTF-8" standalone="no"?>
<!DOCTYPE svg PUBLIC "-//W3C//DTD SVG 1.1//EN"
 "http://www.w3.org/Graphics/SVG/1.1/DTD/svg11.dtd">
<!-- Generated by graphviz version 2.38.0 (20140413.2041)
 -->
<!-- Title: H Pages: 1 -->
<svg width="360pt" height="337pt"
 viewBox="0.00 0.00 359.50 337.00" xmlns="http://www.w3.org/2000/svg" xmlns:xlink="http://www.w3.org/1999/xlink">
<g id="graph0" class="graph" transform="scale(1 1) rotate(0) translate(4 333)">
<title>H</title>
<!-- FE -->
<g id="node1" class="node"><title>FE</title>
<g id="a_node1"><a xlink:href="_concepts__flow_elements__flow_element.html#Concepts_FlowElements_FlowElement" target="_top" xlink:title="Flow Element">
<polygon fill="none" stroke="black" points="275.5,-292.5 275.5,-328.5 351.5,-328.5 351.5,-292.5 275.5,-292.5"/>
<text text-anchor="middle" x="313.5" y="-308" font-family="Helvetica,sans-Serif" font-size="10.00">Flow Element</text>
</a>
</g>
</g>
<!-- AE -->
<g id="node2" class="node"><title>AE</title>
<g id="a_node2"><a xlink:href="_concepts__flow_elements__aspect_engine.html#Concepts_FlowElements_AspectEngine" target="_top" xlink:title="Aspect Engine">
<polygon fill="none" stroke="black" points="232.5,-219.5 232.5,-255.5 312.5,-255.5 312.5,-219.5 232.5,-219.5"/>
<text text-anchor="middle" x="272.5" y="-235" font-family="Helvetica,sans-Serif" font-size="10.00">Aspect Engine</text>
</a>
</g>
</g>
<!-- FE&#45;&gt;AE -->
<g id="edge1" class="edge"><title>FE&#45;&gt;AE</title>
<path fill="none" stroke="black" d="M303.575,-292.313C298.74,-283.941 292.825,-273.697 287.458,-264.403"/>
<polygon fill="black" stroke="black" points="290.365,-262.438 282.334,-255.529 284.303,-265.939 290.365,-262.438"/>
</g>
<!-- I -->
<g id="node6" class="node"><title>I</title>
<g id="a_node6"><a xlink:href="" target="_top" xlink:title="Implementations">
<polygon fill="none" stroke="black" points="200.5,-0.5 200.5,-36.5 288.5,-36.5 288.5,-0.5 200.5,-0.5"/>
<text text-anchor="middle" x="244.5" y="-16" font-family="Helvetica,sans-Serif" font-size="10.00">Implementations</text>
</a>
</g>
</g>
<!-- FE&#45;&gt;I -->
<g id="edge5" class="edge"><title>FE&#45;&gt;I</title>
<path fill="none" stroke="black" stroke-dasharray="5,2" d="M317.984,-292.487C327.731,-251.784 347.026,-146.701 308.5,-73 302.359,-61.2526 292.428,-51.0663 282.202,-42.8266"/>
<polygon fill="black" stroke="black" points="284.096,-39.8709 274.004,-36.6431 279.88,-45.4594 284.096,-39.8709"/>
</g>
<!-- OPE -->
<g id="node4" class="node"><title>OPE</title>
<g id="a_node4"><a xlink:href="_concepts__flow_elements__on_premise_engine.html#Concepts_FlowElements_OnPremiseEngine" target="_top" xlink:title="On&#45;Premise Engine">
<polygon fill="none" stroke="black" points="129,-146.5 129,-182.5 230,-182.5 230,-146.5 129,-146.5"/>
<text text-anchor="middle" x="179.5" y="-162" font-family="Helvetica,sans-Serif" font-size="10.00">On&#45;Premise Engine</text>
</a>
</g>
</g>
<!-- AE&#45;&gt;OPE -->
<g id="edge2" class="edge"><title>AE&#45;&gt;OPE</title>
<path fill="none" stroke="black" d="M249.987,-219.313C237.993,-210.156 223.066,-198.76 210.04,-188.816"/>
<polygon fill="black" stroke="black" points="211.878,-185.815 201.805,-182.529 207.63,-191.379 211.878,-185.815"/>
</g>
<!-- CE -->
<g id="node5" class="node"><title>CE</title>
<g id="a_node5"><a xlink:href="_concepts__flow_elements__cloud_engine.html#Concepts_FlowElements_CloudEngine" target="_top" xlink:title="Cloud Engine">
<polygon fill="none" stroke="black" points="207.5,-73.5 207.5,-109.5 281.5,-109.5 281.5,-73.5 207.5,-73.5"/>
<text text-anchor="middle" x="244.5" y="-89" font-family="Helvetica,sans-Serif" font-size="10.00">Cloud Engine</text>
</a>
</g>
</g>
<!-- AE&#45;&gt;CE -->
<g id="edge4" class="edge"><title>AE&#45;&gt;CE</title>
<path fill="none" stroke="black" d="M269.178,-219.416C264.379,-194.733 255.457,-148.851 249.758,-119.541"/>
<polygon fill="black" stroke="black" points="253.162,-118.71 247.818,-109.562 246.291,-120.046 253.162,-118.71"/>
</g>
<!-- AE&#45;&gt;I -->
<g id="edge6" class="edge"><title>AE&#45;&gt;I</title>
<path fill="none" stroke="black" stroke-dasharray="5,2" d="M279.409,-219.163C290.511,-188.606 309.264,-123.606 290.5,-73 286.522,-62.272 279.323,-52.2503 271.783,-43.8475"/>
<polygon fill="black" stroke="black" points="274.293,-41.4078 264.845,-36.6121 269.24,-46.2525 274.293,-41.4078"/>
</g>
<!-- FODE -->
<g id="node3" class="node"><title>FODE</title>
<g id="a_node3"><a xlink:href="_concepts__flow_elements__fifty_one_on_premise_engine.html#Concepts_FlowElements_FiftyOneOnPremiseEngine" target="_top" xlink:title="51Degrees On&#45;Premise Engine">
<polygon fill="none" stroke="black" points="0,-73.5 0,-109.5 151,-109.5 151,-73.5 0,-73.5"/>
<text text-anchor="middle" x="75.5" y="-89" font-family="Helvetica,sans-Serif" font-size="10.00">51Degrees On&#45;Premise Engine</text>
</a>
</g>
</g>
<!-- FODE&#45;&gt;I -->
<g id="edge7" class="edge"><title>FODE&#45;&gt;I</title>
<path fill="none" stroke="black" stroke-dasharray="5,2" d="M115.98,-73.4937C139.532,-63.5991 169.414,-51.045 194.436,-40.5327"/>
<polygon fill="black" stroke="black" points="195.901,-43.7137 203.765,-36.6136 193.19,-37.2601 195.901,-43.7137"/>
</g>
<!-- OPE&#45;&gt;FODE -->
<g id="edge3" class="edge"><title>OPE&#45;&gt;FODE</title>
<path fill="none" stroke="black" d="M154.589,-146.494C140.926,-137.166 123.8,-125.474 108.982,-115.358"/>
<polygon fill="black" stroke="black" points="110.8,-112.361 100.568,-109.614 106.853,-118.143 110.8,-112.361"/>
</g>
<!-- OPE&#45;&gt;I -->
<g id="edge8" class="edge"><title>OPE&#45;&gt;I</title>
<path fill="none" stroke="black" stroke-dasharray="5,2" d="M180.551,-146.328C182.271,-127.483 186.774,-96.7531 198.5,-73 203.648,-62.5721 211.304,-52.5207 218.9,-44.0007"/>
<polygon fill="black" stroke="black" points="221.51,-46.3339 225.785,-36.64 216.398,-41.552 221.51,-46.3339"/>
</g>
<!-- CE&#45;&gt;I -->
<g id="edge9" class="edge"><title>CE&#45;&gt;I</title>
<path fill="none" stroke="black" stroke-dasharray="5,2" d="M244.5,-73.3129C244.5,-65.2895 244.5,-55.5475 244.5,-46.5691"/>
<polygon fill="black" stroke="black" points="248,-46.5288 244.5,-36.5288 241,-46.5289 248,-46.5288"/>
</g>
</g>
</svg>
