<?xml version="1.0" encoding="UTF-8" standalone="no"?>
<!DOCTYPE svg PUBLIC "-//W3C//DTD SVG 1.1//EN"
 "http://www.w3.org/Graphics/SVG/1.1/DTD/svg11.dtd">
<!-- Generated by graphviz version 2.38.0 (20140413.2041)
 -->
<!-- Title: P Pages: 1 -->
<svg width="365pt" height="152pt"
 viewBox="0.00 0.00 365.20 152.00" xmlns="http://www.w3.org/2000/svg" xmlns:xlink="http://www.w3.org/1999/xlink">
<g id="graph0" class="graph" transform="scale(1 1) rotate(0) translate(4 148)">
<title>P</title>
<g id="clust1" class="cluster"><title>clusterP</title>
<polygon fill="none" stroke="black" points="82,-8 82,-136 275.2,-136 275.2,-8 82,-8"/>
<text text-anchor="middle" x="178.6" y="-124" font-family="Helvetica,sans-Serif" font-size="10.00">Pipeline</text>
</g>
<!-- i -->
<g id="node1" class="node"><title>i</title>
<text text-anchor="middle" x="27" y="-59.5" font-family="Helvetica,sans-Serif" font-size="10.00">in</text>
</g>
<!-- I1 -->
<g id="node2" class="node"><title>I1</title>
<ellipse fill="black" stroke="black" cx="91.8" cy="-62" rx="1.8" ry="1.8"/>
</g>
<!-- i&#45;&gt;I1 -->
<g id="edge1" class="edge"><title>i&#45;&gt;I1</title>
<path fill="none" stroke="black" d="M54.269,-62C69.3267,-62 86.0025,-62 89.9361,-62"/>
</g>
<!-- E1 -->
<g id="node3" class="node"><title>E1</title>
<polygon fill="none" stroke="black" points="129.6,-17 129.6,-53 227.6,-53 227.6,-17 129.6,-17"/>
<text text-anchor="middle" x="178.6" y="-32.5" font-family="Helvetica,sans-Serif" font-size="10.00">Flow Element (E1)</text>
</g>
<!-- I1&#45;&gt;E1 -->
<g id="edge2" class="edge"><title>I1&#45;&gt;E1</title>
<path fill="none" stroke="black" d="M93.7523,-61.6968C96.8553,-60.7088 107.193,-57.4173 119.602,-53.4664"/>
<polygon fill="black" stroke="black" points="120.942,-56.7129 129.409,-50.3439 118.818,-50.0428 120.942,-56.7129"/>
</g>
<!-- E2 -->
<g id="node4" class="node"><title>E2</title>
<polygon fill="none" stroke="black" points="129.6,-72 129.6,-108 227.6,-108 227.6,-72 129.6,-72"/>
<text text-anchor="middle" x="178.6" y="-87.5" font-family="Helvetica,sans-Serif" font-size="10.00">Flow Element (E2)</text>
</g>
<!-- I1&#45;&gt;E2 -->
<g id="edge5" class="edge"><title>I1&#45;&gt;E2</title>
<path fill="none" stroke="black" d="M93.7523,-62.3145C96.8553,-63.339 107.193,-66.7524 119.602,-70.8496"/>
<polygon fill="black" stroke="black" points="118.816,-74.2759 129.409,-74.0878 121.011,-67.6289 118.816,-74.2759"/>
</g>
<!-- I2 -->
<g id="node5" class="node"><title>I2</title>
<ellipse fill="black" stroke="black" cx="265.4" cy="-62" rx="1.8" ry="1.8"/>
</g>
<!-- E1&#45;&gt;I2 -->
<g id="edge3" class="edge"><title>E1&#45;&gt;I2</title>
<path fill="none" stroke="black" d="M227.945,-50.3929C244.608,-55.6984 260.022,-60.606 263.615,-61.75"/>
</g>
<!-- E2&#45;&gt;I2 -->
<g id="edge6" class="edge"><title>E2&#45;&gt;I2</title>
<path fill="none" stroke="black" d="M227.945,-74.037C244.608,-68.535 260.022,-63.4457 263.615,-62.2593"/>
</g>
<!-- o -->
<g id="node6" class="node"><title>o</title>
<text text-anchor="middle" x="330.2" y="-59.5" font-family="Helvetica,sans-Serif" font-size="10.00">out</text>
</g>
<!-- I2&#45;&gt;o -->
<g id="edge4" class="edge"><title>I2&#45;&gt;o</title>
<path fill="none" stroke="black" d="M267.49,-62C270.841,-62 281.463,-62 292.971,-62"/>
<polygon fill="black" stroke="black" points="293.152,-65.5001 303.152,-62 293.152,-58.5001 293.152,-65.5001"/>
</g>
</g>
</svg>
