<?xml version="1.0" encoding="UTF-8" standalone="no"?>
<!DOCTYPE svg PUBLIC "-//W3C//DTD SVG 1.1//EN"
 "http://www.w3.org/Graphics/SVG/1.1/DTD/svg11.dtd">
<!-- Generated by graphviz version 2.38.0 (20140413.2041)
 -->
<!-- Title: pipelineflow Pages: 1 -->
<svg width="142pt" height="129pt"
 viewBox="0.00 0.00 142.50 129.00" xmlns="http://www.w3.org/2000/svg" xmlns:xlink="http://www.w3.org/1999/xlink">
<g id="graph0" class="graph" transform="scale(1 1) rotate(0) translate(4 125)">
<title>pipelineflow</title>
<!-- P -->
<g id="node1" class="node"><title>P</title>
<polygon fill="none" stroke="black" points="33.4998,-84.5 33.4998,-120.5 87.4998,-120.5 87.4998,-84.5 33.4998,-84.5"/>
<text text-anchor="middle" x="60.4998" y="-100" font-family="Helvetica,sans-Serif" font-size="10.00">Pipeline</text>
</g>
<!-- FD -->
<g id="node2" class="node"><title>FD</title>
<g id="a_node2"><a xlink:href="_concepts__data__flow_data.html#Concepts_Data_FlowData" target="_top" xlink:title="Flow Data">
<polygon fill="none" stroke="black" points="30.4998,-0.5 30.4998,-36.5 90.4998,-36.5 90.4998,-0.5 30.4998,-0.5"/>
<text text-anchor="middle" x="60.4998" y="-16" font-family="Helvetica,sans-Serif" font-size="10.00">Flow Data</text>
</a>
</g>
</g>
<!-- P&#45;&gt;FD -->
<g id="edge1" class="edge"><title>P&#45;&gt;FD</title>
<path fill="none" stroke="black" d="M33.4402,-91.9802C21.7308,-86.3559 9.19452,-77.9469 2.49976,-66 -4.81492,-52.9468 6.39162,-42.1795 20.8438,-34.3049"/>
<polygon fill="black" stroke="black" points="22.6696,-37.3086 30.1252,-29.781 19.6026,-31.0163 22.6696,-37.3086"/>
<text text-anchor="middle" x="16.4998" y="-58" font-family="Helvetica,sans-Serif" font-size="10.00">create</text>
</g>
<!-- P&#45;&gt;FD -->
<g id="edge3" class="edge"><title>P&#45;&gt;FD</title>
<path fill="none" stroke="green" d="M59.1751,-84.2797C58.6494,-75.5157 58.2269,-64.6926 58.4998,-55 58.5727,-52.4084 58.6756,-49.7116 58.7965,-47.0139"/>
<polygon fill="green" stroke="green" points="62.3022,-46.9945 59.328,-36.8257 55.3117,-46.6298 62.3022,-46.9945"/>
</g>
<!-- FD&#45;&gt;P -->
<g id="edge2" class="edge"><title>FD&#45;&gt;P</title>
<path fill="none" stroke="green" d="M60.4998,-36.5838C60.4998,-47.3559 60.4998,-61.5146 60.4998,-73.8593"/>
<polygon fill="green" stroke="green" points="56.9999,-74.1099 60.4998,-84.1099 63.9999,-74.1099 56.9999,-74.1099"/>
<text text-anchor="middle" x="77.9998" y="-58" font-family="Helvetica,sans-Serif" font-size="10.00">process</text>
</g>
<!-- FD&#45;&gt;P -->
<g id="edge4" class="edge"><title>FD&#45;&gt;P</title>
<path fill="none" stroke="black" d="M87.9174,-36.6244C97.2783,-44.7739 104.313,-55.1101 99.4998,-66 97.7509,-69.9569 95.319,-73.6624 92.5158,-77.0747"/>
<polygon fill="black" stroke="black" points="89.8175,-74.8327 85.4479,-84.4845 94.8827,-79.6642 89.8175,-74.8327"/>
<text text-anchor="middle" x="117.5" y="-58" font-family="Helvetica,sans-Serif" font-size="10.00">dispose</text>
</g>
</g>
</svg>
