<?xml version="1.0" encoding="UTF-8" standalone="no"?>
<!DOCTYPE svg PUBLIC "-//W3C//DTD SVG 1.1//EN"
 "http://www.w3.org/Graphics/SVG/1.1/DTD/svg11.dtd">
<!-- Generated by graphviz version 2.38.0 (20140413.2041)
 -->
<!-- Title: pipelineflow Pages: 1 -->
<svg width="142pt" height="129pt"
 viewBox="0.00 0.00 142.48 129.00" xmlns="http://www.w3.org/2000/svg" xmlns:xlink="http://www.w3.org/1999/xlink">
<g id="graph0" class="graph" transform="scale(1 1) rotate(0) translate(4 125)">
<title>pipelineflow</title>
<!-- P -->
<g id="node1" class="node"><title>P</title>
<polygon fill="none" stroke="black" points="33.4804,-84.5 33.4804,-120.5 87.4804,-120.5 87.4804,-84.5 33.4804,-84.5"/>
<text text-anchor="middle" x="60.4804" y="-100" font-family="Helvetica,sans-Serif" font-size="10.00">Pipeline</text>
</g>
<!-- FD -->
<g id="node2" class="node"><title>FD</title>
<g id="a_node2"><a xlink:href="_concepts__data__flow_data.html#Concepts_Data_FlowData" target="_top" xlink:title="Flow Data">
<polygon fill="none" stroke="black" points="29.4804,-0.5 29.4804,-36.5 91.4804,-36.5 91.4804,-0.5 29.4804,-0.5"/>
<text text-anchor="middle" x="60.4804" y="-16" font-family="Helvetica,sans-Serif" font-size="10.00">Flow Data</text>
</a>
</g>
</g>
<!-- P&#45;&gt;FD -->
<g id="edge1" class="edge"><title>P&#45;&gt;FD</title>
<path fill="none" stroke="black" d="M33.4208,-91.9802C21.7114,-86.3559 9.17511,-77.9469 2.48035,-66 -4.72983,-53.1333 6.05581,-42.4876 20.2071,-34.6441"/>
<polygon fill="black" stroke="black" points="21.9158,-37.7036 29.3224,-30.1277 18.808,-31.4313 21.9158,-37.7036"/>
<text text-anchor="middle" x="16.4804" y="-58" font-family="Helvetica,sans-Serif" font-size="10.00">create</text>
</g>
<!-- P&#45;&gt;FD -->
<g id="edge3" class="edge"><title>P&#45;&gt;FD</title>
<path fill="none" stroke="green" d="M59.1557,-84.2797C58.6299,-75.5157 58.2075,-64.6926 58.4804,-55 58.5533,-52.4084 58.6561,-49.7116 58.7771,-47.0139"/>
<polygon fill="green" stroke="green" points="62.2828,-46.9945 59.3086,-36.8257 55.2923,-46.6298 62.2828,-46.9945"/>
</g>
<!-- FD&#45;&gt;P -->
<g id="edge2" class="edge"><title>FD&#45;&gt;P</title>
<path fill="none" stroke="green" d="M60.4804,-36.5838C60.4804,-47.3559 60.4804,-61.5146 60.4804,-73.8593"/>
<polygon fill="green" stroke="green" points="56.9805,-74.1099 60.4804,-84.1099 63.9805,-74.1099 56.9805,-74.1099"/>
<text text-anchor="middle" x="77.9804" y="-58" font-family="Helvetica,sans-Serif" font-size="10.00">process</text>
</g>
<!-- FD&#45;&gt;P -->
<g id="edge4" class="edge"><title>FD&#45;&gt;P</title>
<path fill="none" stroke="black" d="M87.8979,-36.6244C97.2589,-44.7739 104.294,-55.1101 99.4804,-66 97.7315,-69.9569 95.2996,-73.6624 92.4964,-77.0747"/>
<polygon fill="black" stroke="black" points="89.798,-74.8327 85.4285,-84.4845 94.8633,-79.6642 89.798,-74.8327"/>
<text text-anchor="middle" x="117.48" y="-58" font-family="Helvetica,sans-Serif" font-size="10.00">dispose</text>
</g>
</g>
</svg>
