<?xml version="1.0" encoding="UTF-8" standalone="no"?>
<!DOCTYPE svg PUBLIC "-//W3C//DTD SVG 1.1//EN"
 "http://www.w3.org/Graphics/SVG/1.1/DTD/svg11.dtd">
<!-- Generated by graphviz version 2.38.0 (20140413.2041)
 -->
<!-- Title: %3 Pages: 1 -->
<svg width="428pt" height="229pt"
 viewBox="0.00 0.00 428.00 229.00" xmlns="http://www.w3.org/2000/svg" xmlns:xlink="http://www.w3.org/1999/xlink">
<g id="graph0" class="graph" transform="scale(1 1) rotate(0) translate(0 229)">
<title>%3</title>
<g id="clust1" class="cluster"><title>clusterEngine</title>
<polygon fill="none" stroke="black" points="8,-8 8,-221 420,-221 420,-8 8,-8"/>
<text text-anchor="start" x="158" y="-210" font-family="Helvetica,sans-Serif" font-size="10.00">Engine with </text>
<text text-anchor="start" x="213" y="-210" font-family="Helvetica,sans-Serif" font-weight="bold" font-size="10.00">result cache</text>
</g>
<!-- key -->
<g id="node1" class="node"><title>key</title>
<polygon fill="none" stroke="black" points="16,-146 16,-182 102,-182 102,-146 16,-146"/>
<text text-anchor="middle" x="59" y="-167" font-family="Helvetica,sans-Serif" font-size="10.00">Create data key</text>
<text text-anchor="middle" x="59" y="-156" font-family="Helvetica,sans-Serif" font-size="10.00">from evidence</text>
</g>
<!-- cache -->
<g id="node3" class="node"><title>cache</title>
<polygon fill="none" stroke="black" points="213,-194 130,-164 213,-134 296,-164 213,-194"/>
<text text-anchor="middle" x="213" y="-167" font-family="Helvetica,sans-Serif" font-size="10.00">Does key</text>
<text text-anchor="middle" x="213" y="-156" font-family="Helvetica,sans-Serif" font-size="10.00">exist in cache?</text>
</g>
<!-- key&#45;&gt;cache -->
<g id="edge1" class="edge"><title>key&#45;&gt;cache</title>
<path fill="none" stroke="black" d="M102.012,-164C107.792,-164 113.573,-164 119.354,-164"/>
<polygon fill="black" stroke="black" points="119.759,-167.5 129.759,-164 119.759,-160.5 119.759,-167.5"/>
</g>
<!-- getaspectdata -->
<g id="node2" class="node"><title>getaspectdata</title>
<polygon fill="none" stroke="black" points="326,-146 326,-182 412,-182 412,-146 326,-146"/>
<text text-anchor="middle" x="369" y="-167" font-family="Helvetica,sans-Serif" font-size="10.00">Get aspect data</text>
<text text-anchor="middle" x="369" y="-156" font-family="Helvetica,sans-Serif" font-size="10.00">from cache</text>
</g>
<!-- addtoflow -->
<g id="node7" class="node"><title>addtoflow</title>
<polygon fill="none" stroke="black" points="299.5,-16.5 299.5,-52.5 402.5,-52.5 402.5,-16.5 299.5,-16.5"/>
<text text-anchor="middle" x="351" y="-37.5" font-family="Helvetica,sans-Serif" font-size="10.00">Add aspect data to</text>
<text text-anchor="middle" x="351" y="-26.5" font-family="Helvetica,sans-Serif" font-size="10.00">flow data and return</text>
</g>
<!-- getaspectdata&#45;&gt;addtoflow -->
<g id="edge7" class="edge"><title>getaspectdata&#45;&gt;addtoflow</title>
<path fill="none" stroke="black" d="M377.726,-145.918C386.247,-126.777 396.517,-95.1345 386,-70 384.565,-66.5712 382.605,-63.3104 380.341,-60.2596"/>
<polygon fill="black" stroke="black" points="382.982,-57.9631 373.785,-52.7036 377.695,-62.5506 382.982,-57.9631"/>
</g>
<!-- cache&#45;&gt;getaspectdata -->
<g id="edge3" class="edge"><title>cache&#45;&gt;getaspectdata</title>
<path fill="none" stroke="black" d="M296.024,-164C302.644,-164 309.214,-164 315.545,-164"/>
<polygon fill="black" stroke="black" points="315.938,-167.5 325.938,-164 315.938,-160.5 315.938,-167.5"/>
<text text-anchor="middle" x="311" y="-170" font-family="Helvetica,sans-Serif" font-size="10.00">yes</text>
</g>
<!-- data -->
<g id="node4" class="node"><title>data</title>
<polygon fill="none" stroke="black" points="33,-70.5 33,-106.5 133,-106.5 133,-70.5 33,-70.5"/>
<text text-anchor="middle" x="83" y="-86" font-family="Helvetica,sans-Serif" font-size="10.00">Create aspect data</text>
</g>
<!-- cache&#45;&gt;data -->
<g id="edge2" class="edge"><title>cache&#45;&gt;data</title>
<path fill="none" stroke="black" d="M181.531,-145.208C163.626,-135.085 141.048,-122.319 122.023,-111.563"/>
<polygon fill="black" stroke="black" points="123.712,-108.497 113.284,-106.622 120.267,-114.591 123.712,-108.497"/>
<text text-anchor="middle" x="149.5" y="-118" font-family="Helvetica,sans-Serif" font-size="10.00">no</text>
</g>
<!-- process -->
<g id="node5" class="node"><title>process</title>
<polygon fill="none" stroke="black" points="161,-70.5 161,-106.5 241,-106.5 241,-70.5 161,-70.5"/>
<text text-anchor="middle" x="201" y="-91.5" font-family="Helvetica,sans-Serif" font-size="10.00">Normal engine</text>
<text text-anchor="middle" x="201" y="-80.5" font-family="Helvetica,sans-Serif" font-size="10.00">processing</text>
</g>
<!-- data&#45;&gt;process -->
<g id="edge4" class="edge"><title>data&#45;&gt;process</title>
<path fill="none" stroke="black" d="M133.242,-88.5C138.977,-88.5 144.712,-88.5 150.446,-88.5"/>
<polygon fill="black" stroke="black" points="150.769,-92.0001 160.769,-88.5 150.769,-85.0001 150.769,-92.0001"/>
</g>
<!-- addtocache -->
<g id="node6" class="node"><title>addtocache</title>
<polygon fill="none" stroke="black" points="269,-70.5 269,-106.5 379,-106.5 379,-70.5 269,-70.5"/>
<text text-anchor="middle" x="324" y="-91.5" font-family="Helvetica,sans-Serif" font-size="10.00">Add aspect data to</text>
<text text-anchor="middle" x="324" y="-80.5" font-family="Helvetica,sans-Serif" font-size="10.00">cache using data key</text>
</g>
<!-- process&#45;&gt;addtocache -->
<g id="edge5" class="edge"><title>process&#45;&gt;addtocache</title>
<path fill="none" stroke="black" d="M241.359,-88.5C247.076,-88.5 252.792,-88.5 258.509,-88.5"/>
<polygon fill="black" stroke="black" points="258.799,-92.0001 268.799,-88.5 258.799,-85.0001 258.799,-92.0001"/>
</g>
<!-- addtocache&#45;&gt;addtoflow -->
<g id="edge6" class="edge"><title>addtocache&#45;&gt;addtoflow</title>
<path fill="none" stroke="black" d="M332.841,-70.4733C334.271,-67.7186 335.781,-64.8108 337.294,-61.8963"/>
<polygon fill="black" stroke="black" points="340.545,-63.2309 342.047,-52.743 334.332,-60.0051 340.545,-63.2309"/>
</g>
</g>
</svg>
