<?xml version="1.0" encoding="UTF-8" standalone="no"?>
<!DOCTYPE svg PUBLIC "-//W3C//DTD SVG 1.1//EN"
 "http://www.w3.org/Graphics/SVG/1.1/DTD/svg11.dtd">
<!-- Generated by graphviz version 2.38.0 (20140413.2041)
 -->
<!-- Title: %3 Pages: 1 -->
<svg width="508pt" height="109pt"
 viewBox="0.00 0.00 508.00 109.00" xmlns="http://www.w3.org/2000/svg" xmlns:xlink="http://www.w3.org/1999/xlink">
<g id="graph0" class="graph" transform="scale(1 1) rotate(0) translate(4 105)">
<title>%3</title>
<g id="clust1" class="cluster"><title>clusterPipeline</title>
<g id="a_clust1"><a xlink:href="_concepts__pipeline.html#Concepts_Pipeline" target="_top" xlink:title="Pipeline">
<polygon fill="none" stroke="black" points="83,-8 83,-93 417,-93 417,-8 83,-8"/>
<text text-anchor="middle" x="250" y="-81" font-family="Helvetica,sans-Serif" font-size="10.00">Pipeline</text>
</a>
</g>
</g>
<!-- arrow1 -->
<g id="node1" class="node"><title>arrow1</title>
<text text-anchor="middle" x="27" y="-38.5" font-family="Helvetica,sans-Serif" font-size="10.00">1</text>
</g>
<!-- structH -->
<g id="node2" class="node"><title>structH</title>
<g id="a_node2"><a xlink:href="_device_detection__overview.html#DeviceDetection_Overview" target="_top" xlink:title="&lt;DDH&gt;DeviceDetectionEngine\n(Hardware)|{&lt;DK&gt;Element data key|&lt;DKV&gt;device}">
<polygon fill="none" stroke="black" points="91,-16.5 91,-65.5 229,-65.5 229,-16.5 91,-16.5"/>
<text text-anchor="middle" x="160" y="-53.5" font-family="Helvetica,sans-Serif" font-size="10.00">DeviceDetectionEngine</text>
<text text-anchor="middle" x="160" y="-42.5" font-family="Helvetica,sans-Serif" font-size="10.00">(Hardware)</text>
<polyline fill="none" stroke="black" points="91,-35.5 229,-35.5 "/>
<text text-anchor="middle" x="137.5" y="-23.5" font-family="Helvetica,sans-Serif" font-size="10.00">Element data key</text>
<polyline fill="none" stroke="black" points="184,-16.5 184,-35.5 "/>
<text text-anchor="middle" x="206.5" y="-23.5" font-family="Helvetica,sans-Serif" font-size="10.00">device</text>
</a>
</g>
</g>
<!-- arrow1&#45;&gt;structH -->
<g id="edge1" class="edge"><title>arrow1&#45;&gt;structH</title>
<path fill="none" stroke="black" d="M54.195,-41C62.1195,-41 71.2621,-41 80.7772,-41"/>
<polygon fill="black" stroke="black" points="80.7925,-44.5001 90.7924,-41 80.7924,-37.5001 80.7925,-44.5001"/>
</g>
<!-- structP -->
<g id="node3" class="node"><title>structP</title>
<g id="a_node3"><a xlink:href="_device_detection__overview.html#DeviceDetection_Overview" target="_top" xlink:title="&lt;DDH&gt;DeviceDetectionEngine\n(Platform/OS)|{&lt;DK&gt;Element data key|&lt;DKV&gt;device}">
<polygon fill="none" stroke="black" points="271,-16.5 271,-65.5 409,-65.5 409,-16.5 271,-16.5"/>
<text text-anchor="middle" x="340" y="-53.5" font-family="Helvetica,sans-Serif" font-size="10.00">DeviceDetectionEngine</text>
<text text-anchor="middle" x="340" y="-42.5" font-family="Helvetica,sans-Serif" font-size="10.00">(Platform/OS)</text>
<polyline fill="none" stroke="black" points="271,-35.5 409,-35.5 "/>
<text text-anchor="middle" x="317.5" y="-23.5" font-family="Helvetica,sans-Serif" font-size="10.00">Element data key</text>
<polyline fill="none" stroke="black" points="364,-16.5 364,-35.5 "/>
<text text-anchor="middle" x="386.5" y="-23.5" font-family="Helvetica,sans-Serif" font-size="10.00">device</text>
</a>
</g>
</g>
<!-- structH&#45;&gt;structP -->
<g id="edge2" class="edge"><title>structH&#45;&gt;structP</title>
<path fill="none" stroke="black" d="M229.056,-41C239.469,-41 250.287,-41 260.895,-41"/>
<polygon fill="black" stroke="black" points="260.982,-44.5001 270.982,-41 260.982,-37.5001 260.982,-44.5001"/>
<text text-anchor="middle" x="250" y="-44" font-family="Helvetica,sans-Serif" font-size="10.00">2</text>
</g>
<!-- arrow3 -->
<g id="node4" class="node"><title>arrow3</title>
<text text-anchor="middle" x="473" y="-38.5" font-family="Helvetica,sans-Serif" font-size="10.00">3</text>
</g>
<!-- structP&#45;&gt;arrow3 -->
<g id="edge3" class="edge"><title>structP&#45;&gt;arrow3</title>
<path fill="none" stroke="black" d="M409.186,-41C418.366,-41 427.475,-41 435.791,-41"/>
<polygon fill="black" stroke="black" points="435.846,-44.5001 445.846,-41 435.846,-37.5001 435.846,-44.5001"/>
</g>
</g>
</svg>
