<?xml version="1.0" encoding="UTF-8" standalone="no"?>
<!DOCTYPE svg PUBLIC "-//W3C//DTD SVG 1.1//EN"
 "http://www.w3.org/Graphics/SVG/1.1/DTD/svg11.dtd">
<!-- Generated by graphviz version 2.38.0 (20140413.2041)
 -->
<!-- Title: H Pages: 1 -->
<svg width="283pt" height="377pt"
 viewBox="0.00 0.00 283.30 376.80" xmlns="http://www.w3.org/2000/svg" xmlns:xlink="http://www.w3.org/1999/xlink">
<g id="graph0" class="graph" transform="scale(1 1) rotate(0) translate(14.4 362.4)">
<title>H</title>
<g id="clust1" class="cluster"><title>clusterFlowElement</title>
<g id="a_clust1"><a xlink:href="_concepts__flow_elements__flow_element.html#Concepts_FlowElements_FlowElement" target="_top" xlink:title="&lt;B&gt;Flow Element&lt;/B&gt;">
<polygon fill="none" stroke="black" points="36,-247 36,-340 176,-340 176,-247 36,-247"/>
<text text-anchor="start" x="74" y="-329" font-family="Helvetica,sans-Serif" font-weight="bold" font-size="10.00">Flow Element</text>
</a>
</g>
</g>
<g id="clust2" class="cluster"><title>clusterAspectEngine</title>
<g id="a_clust2"><a xlink:href="_concepts__flow_elements__aspect_engine.html#Concepts_FlowElements_AspectEngine" target="_top" xlink:title="&lt;B&gt;Aspect Engine&lt;/B&gt;">
<polygon fill="none" stroke="black" points="32,-117 32,-210 180,-210 180,-117 32,-117"/>
<text text-anchor="start" x="71.5" y="-199" font-family="Helvetica,sans-Serif" font-weight="bold" font-size="10.00">Aspect Engine</text>
</a>
</g>
</g>
<g id="clust3" class="cluster"><title>clusterOnPremiseAspectEngine</title>
<g id="a_clust3"><a xlink:href="_concepts__flow_elements__on_premise_engine.html#Concepts_FlowElements_OnPremiseEngine" target="_top" xlink:title="&lt;B&gt;On&#45;Premise Engine&lt;/B&gt;">
<polygon fill="none" stroke="black" points="8,-8 8,-80 116,-80 116,-8 8,-8"/>
<text text-anchor="start" x="16.5" y="-69" font-family="Helvetica,sans-Serif" font-weight="bold" font-size="10.00">On&#45;Premise Engine</text>
</a>
</g>
</g>
<!-- FE -->
<g id="node1" class="node"><title>FE</title>
<polygon fill="none" stroke="black" points="44,-255.5 44,-312.5 168,-312.5 168,-255.5 44,-255.5"/>
<text text-anchor="middle" x="106" y="-300.5" font-family="Helvetica,sans-Serif" font-size="10.00">Element Properties</text>
<polyline fill="none" stroke="black" points="44,-293.5 168,-293.5 "/>
<text text-anchor="middle" x="106" y="-281.5" font-family="Helvetica,sans-Serif" font-size="10.00">Element Data</text>
<polyline fill="none" stroke="black" points="44,-274.5 168,-274.5 "/>
<text text-anchor="middle" x="106" y="-262.5" font-family="Helvetica,sans-Serif" font-size="10.00">Logging of Process calls</text>
</g>
<!-- AE -->
<g id="node2" class="node"><title>AE</title>
<polygon fill="none" stroke="black" points="40.5,-125.5 40.5,-182.5 171.5,-182.5 171.5,-125.5 40.5,-125.5"/>
<text text-anchor="middle" x="106" y="-170.5" font-family="Helvetica,sans-Serif" font-size="10.00">Result Caching</text>
<polyline fill="none" stroke="black" points="40.5,-163.5 171.5,-163.5 "/>
<text text-anchor="middle" x="106" y="-151.5" font-family="Helvetica,sans-Serif" font-size="10.00">Lazy Loading</text>
<polyline fill="none" stroke="black" points="40.5,-144.5 171.5,-144.5 "/>
<text text-anchor="middle" x="106" y="-132.5" font-family="Helvetica,sans-Serif" font-size="10.00">Missing Property Handling</text>
</g>
<!-- FE&#45;&gt;AE -->
<g id="edge1" class="edge"><title>FE&#45;&gt;AE</title>
<path fill="none" stroke="black" d="M106,-247.116C106,-238.708 106,-229.492 106,-220.241"/>
<polygon fill="black" stroke="black" points="109.5,-219.906 106,-209.906 102.5,-219.906 109.5,-219.906"/>
</g>
<!-- OPE -->
<g id="node3" class="node"><title>OPE</title>
<polygon fill="none" stroke="black" points="16.5,-16.5 16.5,-52.5 107.5,-52.5 107.5,-16.5 16.5,-16.5"/>
<text text-anchor="middle" x="62" y="-32" font-family="Helvetica,sans-Serif" font-size="10.00">Data file updates</text>
</g>
<!-- AE&#45;&gt;OPE -->
<g id="edge2" class="edge"><title>AE&#45;&gt;OPE</title>
<path fill="none" stroke="black" d="M92.5205,-117.004C89.2444,-108.255 85.67,-98.7097 82.1587,-89.3328"/>
<polygon fill="black" stroke="black" points="85.3991,-88.0057 78.6145,-79.8682 78.8437,-90.4606 85.3991,-88.0057"/>
</g>
<!-- CE -->
<g id="node4" class="node"><title>CE</title>
<g id="a_node4"><a xlink:href="_concepts__flow_elements__cloud_engine.html#Concepts_FlowElements_CloudEngine" target="_top" xlink:title="Cloud Engine">
<polygon fill="none" stroke="black" points="179.5,-16.5 179.5,-52.5 254.5,-52.5 254.5,-16.5 179.5,-16.5"/>
<text text-anchor="middle" x="217" y="-32" font-family="Helvetica,sans-Serif" font-size="10.00">Cloud Engine</text>
</a>
</g>
</g>
<!-- AE&#45;&gt;CE -->
<g id="edge3" class="edge"><title>AE&#45;&gt;CE</title>
<path fill="none" stroke="black" d="M139.776,-117.246C157.237,-98.7629 178.103,-76.6744 193.742,-60.1203"/>
<polygon fill="black" stroke="black" points="196.442,-62.3586 200.765,-52.6858 191.354,-57.5515 196.442,-62.3586"/>
</g>
</g>
</svg>
