<?xml version="1.0" encoding="UTF-8" standalone="no"?>
<!DOCTYPE svg PUBLIC "-//W3C//DTD SVG 1.1//EN"
 "http://www.w3.org/Graphics/SVG/1.1/DTD/svg11.dtd">
<!-- Generated by graphviz version 2.43.0 (0)
 -->
<!-- Title: EngineDeviceDetectionSwig Pages: 1 -->
<svg width="162pt" height="82pt"
 viewBox="0.00 0.00 162.00 82.00" xmlns="http://www.w3.org/2000/svg" xmlns:xlink="http://www.w3.org/1999/xlink">
<g id="graph0" class="graph" transform="scale(1 1) rotate(0) translate(4 78)">
<title>EngineDeviceDetectionSwig</title>
<!-- Node1 -->
<g id="Node000001" class="node">
<title>Node1</title>
<g id="a_Node000001"><a xlink:title=" ">
<polygon fill="#999999" stroke="#666666" points="154,-19 0,-19 0,0 154,0 154,-19"/>
<text text-anchor="middle" x="77" y="-7" font-family="Helvetica,sans-Serif" font-size="10.00">EngineDeviceDetectionSwig</text>
</a>
</g>
</g>
<!-- Node2 -->
<g id="Node000002" class="node">
<title>Node2</title>
<g id="a_Node000002"><a xlink:href="class_engine_base_swig.html" target="_top" xlink:title=" ">
<polygon fill="white" stroke="#bfbfbf" points="125.5,-74 28.5,-74 28.5,-55 125.5,-55 125.5,-74"/>
<text text-anchor="middle" x="77" y="-62" font-family="Helvetica,sans-Serif" font-size="10.00">EngineBaseSwig</text>
</a>
</g>
</g>
<!-- Node2&#45;&gt;Node1 -->
<g id="edge1_Node000001_Node000002" class="edge">
<title>Node2&#45;&gt;Node1</title>
<g id="a_edge1_Node000001_Node000002"><a xlink:title=" ">
<path fill="none" stroke="#63b8ff" d="M57.65,-45.24C55.66,-36.37 56.98,-26.14 61.61,-19.09"/>
<polygon fill="#63b8ff" stroke="#63b8ff" points="54.5,-46.8 61.5,-54.75 60.99,-44.17 54.5,-46.8"/>
</a>
</g>
</g>
<!-- Node2&#45;&gt;Node1 -->
<g id="edge2_Node000001_Node000002" class="edge">
<title>Node2&#45;&gt;Node1</title>
<g id="a_edge2_Node000001_Node000002"><a xlink:title=" ">
<path fill="none" stroke="#63b8ff" d="M70.51,-44.66C69.91,-35.93 70.36,-25.99 71.87,-19.09"/>
<polygon fill="#63b8ff" stroke="#63b8ff" points="67.06,-45.29 71.83,-54.75 74,-44.38 67.06,-45.29"/>
</a>
</g>
</g>
<!-- Node2&#45;&gt;Node1 -->
<g id="edge3_Node000001_Node000002" class="edge">
<title>Node2&#45;&gt;Node1</title>
<g id="a_edge3_Node000001_Node000002"><a xlink:title=" ">
<path fill="none" stroke="#63b8ff" d="M83.49,-44.66C84.09,-35.93 83.64,-25.99 82.13,-19.09"/>
<polygon fill="#63b8ff" stroke="#63b8ff" points="80,-44.38 82.17,-54.75 86.94,-45.29 80,-44.38"/>
</a>
</g>
</g>
<!-- Node2&#45;&gt;Node1 -->
<g id="edge4_Node000001_Node000002" class="edge">
<title>Node2&#45;&gt;Node1</title>
<g id="a_edge4_Node000001_Node000002"><a xlink:title=" ">
<path fill="none" stroke="#63b8ff" d="M96.35,-45.24C98.34,-36.37 97.02,-26.14 92.39,-19.09"/>
<polygon fill="#63b8ff" stroke="#63b8ff" points="93.01,-44.17 92.5,-54.75 99.5,-46.8 93.01,-44.17"/>
</a>
</g>
</g>
</g>
</svg>
