<?xml version="1.0" encoding="UTF-8" standalone="no"?>
<!DOCTYPE svg PUBLIC "-//W3C//DTD SVG 1.1//EN"
 "http://www.w3.org/Graphics/SVG/1.1/DTD/svg11.dtd">
<!-- Generated by graphviz version 2.43.0 (0)
 -->
<!-- Title: EvidenceBaseSwig Pages: 1 -->
<svg width="173pt" height="137pt"
 viewBox="0.00 0.00 173.00 137.00" xmlns="http://www.w3.org/2000/svg" xmlns:xlink="http://www.w3.org/1999/xlink">
<g id="graph0" class="graph" transform="scale(1 1) rotate(0) translate(4 133)">
<title>EvidenceBaseSwig</title>
<!-- Node1 -->
<g id="Node000001" class="node">
<title>Node1</title>
<g id="a_Node000001"><a xlink:title=" ">
<polygon fill="#999999" stroke="#666666" points="136.5,-74 28.5,-74 28.5,-55 136.5,-55 136.5,-74"/>
<text text-anchor="middle" x="82.5" y="-62" font-family="Helvetica,sans-Serif" font-size="10.00">EvidenceBaseSwig</text>
</a>
</g>
</g>
<!-- Node3 -->
<g id="Node000003" class="node">
<title>Node3</title>
<g id="a_Node000003"><a xlink:href="class_evidence_device_detection_swig.html" target="_top" xlink:title=" ">
<polygon fill="white" stroke="#bfbfbf" points="165,-19 0,-19 0,0 165,0 165,-19"/>
<text text-anchor="middle" x="82.5" y="-7" font-family="Helvetica,sans-Serif" font-size="10.00">EvidenceDeviceDetectionSwig</text>
</a>
</g>
</g>
<!-- Node1&#45;&gt;Node3 -->
<g id="edge3_Node000001_Node000003" class="edge">
<title>Node1&#45;&gt;Node3</title>
<g id="a_edge3_Node000001_Node000003"><a xlink:title=" ">
<path fill="none" stroke="#63b8ff" d="M76.01,-44.66C75.41,-35.93 75.86,-25.99 77.37,-19.09"/>
<polygon fill="#63b8ff" stroke="#63b8ff" points="72.56,-45.29 77.33,-54.75 79.5,-44.38 72.56,-45.29"/>
</a>
</g>
</g>
<!-- Node1&#45;&gt;Node3 -->
<g id="edge4_Node000001_Node000003" class="edge">
<title>Node1&#45;&gt;Node3</title>
<g id="a_edge4_Node000001_Node000003"><a xlink:title=" ">
<path fill="none" stroke="#63b8ff" d="M88.99,-44.66C89.59,-35.93 89.14,-25.99 87.63,-19.09"/>
<polygon fill="#63b8ff" stroke="#63b8ff" points="85.5,-44.38 87.67,-54.75 92.44,-45.29 85.5,-44.38"/>
</a>
</g>
</g>
<!-- Node2 -->
<g id="Node000002" class="node">
<title>Node2</title>
<g id="a_Node000002"><a xlink:href="class_map_string_string_swig.html" target="_top" xlink:title=" ">
<polygon fill="white" stroke="#bfbfbf" points="141.5,-129 23.5,-129 23.5,-110 141.5,-110 141.5,-129"/>
<text text-anchor="middle" x="82.5" y="-117" font-family="Helvetica,sans-Serif" font-size="10.00">MapStringStringSwig</text>
</a>
</g>
</g>
<!-- Node2&#45;&gt;Node1 -->
<g id="edge1_Node000001_Node000002" class="edge">
<title>Node2&#45;&gt;Node1</title>
<g id="a_edge1_Node000001_Node000002"><a xlink:title=" ">
<path fill="none" stroke="#63b8ff" d="M76.01,-99.66C75.41,-90.93 75.86,-80.99 77.37,-74.09"/>
<polygon fill="#63b8ff" stroke="#63b8ff" points="72.56,-100.29 77.33,-109.75 79.5,-99.38 72.56,-100.29"/>
</a>
</g>
</g>
<!-- Node2&#45;&gt;Node1 -->
<g id="edge2_Node000001_Node000002" class="edge">
<title>Node2&#45;&gt;Node1</title>
<g id="a_edge2_Node000001_Node000002"><a xlink:title=" ">
<path fill="none" stroke="#63b8ff" d="M88.99,-99.66C89.59,-90.93 89.14,-80.99 87.63,-74.09"/>
<polygon fill="#63b8ff" stroke="#63b8ff" points="85.5,-99.38 87.67,-109.75 92.44,-100.29 85.5,-99.38"/>
</a>
</g>
</g>
</g>
</svg>
