<?xml version="1.0" encoding="UTF-8" standalone="no"?>
<!DOCTYPE svg PUBLIC "-//W3C//DTD SVG 1.1//EN"
 "http://www.w3.org/Graphics/SVG/1.1/DTD/svg11.dtd">
<!-- Generated by graphviz version 2.38.0 (20140413.2041)
 -->
<!-- Title: P Pages: 1 -->
<svg width="418pt" height="97pt"
 viewBox="0.00 0.00 418.00 97.00" xmlns="http://www.w3.org/2000/svg" xmlns:xlink="http://www.w3.org/1999/xlink">
<g id="graph0" class="graph" transform="scale(1 1) rotate(0) translate(4 93)">
<title>P</title>
<g id="clust1" class="cluster"><title>clusterP</title>
<polygon fill="none" stroke="black" points="82,-8 82,-81 328,-81 328,-8 82,-8"/>
<text text-anchor="middle" x="205" y="-69" font-family="Helvetica,sans-Serif" font-size="10.00">Pipeline</text>
</g>
<!-- i -->
<g id="node1" class="node"><title>i</title>
<text text-anchor="middle" x="27" y="-32.5" font-family="Helvetica,sans-Serif" font-size="10.00">in</text>
</g>
<!-- E1 -->
<g id="node2" class="node"><title>E1</title>
<polygon fill="none" stroke="black" points="90,-17 90,-53 187,-53 187,-17 90,-17"/>
<text text-anchor="middle" x="138.5" y="-32.5" font-family="Helvetica,sans-Serif" font-size="10.00">Flow Element (E1)</text>
</g>
<!-- i&#45;&gt;E1 -->
<g id="edge1" class="edge"><title>i&#45;&gt;E1</title>
<path fill="none" stroke="black" d="M54.228,-35C61.951,-35 70.7244,-35 79.6086,-35"/>
<polygon fill="black" stroke="black" points="79.636,-38.5001 89.636,-35 79.6359,-31.5001 79.636,-38.5001"/>
</g>
<!-- E2 -->
<g id="node3" class="node"><title>E2</title>
<polygon fill="none" stroke="black" points="223,-17 223,-53 320,-53 320,-17 223,-17"/>
<text text-anchor="middle" x="271.5" y="-32.5" font-family="Helvetica,sans-Serif" font-size="10.00">Flow Element (E2)</text>
</g>
<!-- E1&#45;&gt;E2 -->
<g id="edge2" class="edge"><title>E1&#45;&gt;E2</title>
<path fill="none" stroke="black" d="M187.165,-35C195.382,-35 204.005,-35 212.46,-35"/>
<polygon fill="black" stroke="black" points="212.651,-38.5001 222.651,-35 212.651,-31.5001 212.651,-38.5001"/>
</g>
<!-- o -->
<g id="node4" class="node"><title>o</title>
<text text-anchor="middle" x="383" y="-32.5" font-family="Helvetica,sans-Serif" font-size="10.00">out</text>
</g>
<!-- E2&#45;&gt;o -->
<g id="edge3" class="edge"><title>E2&#45;&gt;o</title>
<path fill="none" stroke="black" d="M320.21,-35C328.705,-35 337.431,-35 345.549,-35"/>
<polygon fill="black" stroke="black" points="345.803,-38.5001 355.802,-35 345.802,-31.5001 345.803,-38.5001"/>
</g>
</g>
</svg>
