<?xml version="1.0" encoding="UTF-8" standalone="no"?>
<!DOCTYPE svg PUBLIC "-//W3C//DTD SVG 1.1//EN"
 "http://www.w3.org/Graphics/SVG/1.1/DTD/svg11.dtd">
<!-- Generated by graphviz version 2.43.0 (0)
 -->
<!-- Title: fiftyone.devicedetection.hash.engine.onpremise.interop.swig.ResultsHashSwig Pages: 1 -->
<svg width="1154pt" height="38pt"
 viewBox="0.00 0.00 1154.00 38.00" xmlns="http://www.w3.org/2000/svg" xmlns:xlink="http://www.w3.org/1999/xlink">
<g id="graph0" class="graph" transform="scale(1 1) rotate(0) translate(4 34)">
<title>fiftyone.devicedetection.hash.engine.onpremise.interop.swig.ResultsHashSwig</title>
<!-- Node1 -->
<g id="Node000001" class="node">
<title>Node1</title>
<g id="a_Node000001"><a xlink:title=" ">
<polygon fill="#999999" stroke="#666666" points="1146,-30 829,-30 829,0 1146,0 1146,-30"/>
<text text-anchor="start" x="837" y="-18" font-family="Helvetica,sans-Serif" font-size="10.00">fiftyone.devicedetection.hash.engine.onpremise.interop.swig.</text>
<text text-anchor="middle" x="987.5" y="-7" font-family="Helvetica,sans-Serif" font-size="10.00">ResultsHashSwig</text>
</a>
</g>
</g>
<!-- Node2 -->
<g id="Node000002" class="node">
<title>Node2</title>
<g id="a_Node000002"><a xlink:href="classfiftyone_1_1devicedetection_1_1hash_1_1engine_1_1onpremise_1_1interop_1_1swig_1_1_results_device_detection_swig.html" target="_top" xlink:title=" ">
<polygon fill="white" stroke="#bfbfbf" points="793,-30 476,-30 476,0 793,0 793,-30"/>
<text text-anchor="start" x="484" y="-18" font-family="Helvetica,sans-Serif" font-size="10.00">fiftyone.devicedetection.hash.engine.onpremise.interop.swig.</text>
<text text-anchor="middle" x="634.5" y="-7" font-family="Helvetica,sans-Serif" font-size="10.00">ResultsDeviceDetectionSwig</text>
</a>
</g>
</g>
<!-- Node2&#45;&gt;Node1 -->
<g id="edge1_Node000001_Node000002" class="edge">
<title>Node2&#45;&gt;Node1</title>
<g id="a_edge1_Node000001_Node000002"><a xlink:title=" ">
<path fill="none" stroke="#63b8ff" d="M803.13,-15C811.74,-15 820.38,-15 828.96,-15"/>
<polygon fill="#63b8ff" stroke="#63b8ff" points="803.03,-11.5 793.03,-15 803.03,-18.5 803.03,-11.5"/>
</a>
</g>
</g>
<!-- Node3 -->
<g id="Node000003" class="node">
<title>Node3</title>
<g id="a_Node000003"><a xlink:href="classfiftyone_1_1devicedetection_1_1hash_1_1engine_1_1onpremise_1_1interop_1_1swig_1_1_results_base_swig.html" target="_top" xlink:title=" ">
<polygon fill="white" stroke="#bfbfbf" points="440,-30 123,-30 123,0 440,0 440,-30"/>
<text text-anchor="start" x="131" y="-18" font-family="Helvetica,sans-Serif" font-size="10.00">fiftyone.devicedetection.hash.engine.onpremise.interop.swig.</text>
<text text-anchor="middle" x="281.5" y="-7" font-family="Helvetica,sans-Serif" font-size="10.00">ResultsBaseSwig</text>
</a>
</g>
</g>
<!-- Node3&#45;&gt;Node2 -->
<g id="edge2_Node000002_Node000003" class="edge">
<title>Node3&#45;&gt;Node2</title>
<g id="a_edge2_Node000002_Node000003"><a xlink:title=" ">
<path fill="none" stroke="#63b8ff" d="M450.13,-15C458.74,-15 467.38,-15 475.96,-15"/>
<polygon fill="#63b8ff" stroke="#63b8ff" points="450.03,-11.5 440.03,-15 450.03,-18.5 450.03,-11.5"/>
</a>
</g>
</g>
<!-- Node4 -->
<g id="Node000004" class="node">
<title>Node4</title>
<g id="a_Node000004"><a xlink:title=" ">
<polygon fill="white" stroke="#bfbfbf" points="87,-24.5 0,-24.5 0,-5.5 87,-5.5 87,-24.5"/>
<text text-anchor="middle" x="43.5" y="-12.5" font-family="Helvetica,sans-Serif" font-size="10.00">AutoCloseable</text>
</a>
</g>
</g>
<!-- Node4&#45;&gt;Node3 -->
<g id="edge3_Node000003_Node000004" class="edge">
<title>Node4&#45;&gt;Node3</title>
<g id="a_edge3_Node000003_Node000004"><a xlink:title=" ">
<path fill="none" stroke="#63b8ff" d="M97.32,-15C105.26,-15 113.77,-15 122.61,-15"/>
<polygon fill="#63b8ff" stroke="#63b8ff" points="97.24,-11.5 87.24,-15 97.24,-18.5 97.24,-11.5"/>
</a>
</g>
</g>
</g>
</svg>
