<?xml version="1.0" encoding="UTF-8" standalone="no"?>
<!DOCTYPE svg PUBLIC "-//W3C//DTD SVG 1.1//EN"
 "http://www.w3.org/Graphics/SVG/1.1/DTD/svg11.dtd">
<!-- Generated by graphviz version 2.43.0 (0)
 -->
<!-- Title: fiftyone.devicedetection.hash.engine.onpremise.flowelements.DeviceDataHashDefault Pages: 1 -->
<svg width="1173pt" height="117pt"
 viewBox="0.00 0.00 1173.00 116.50" xmlns="http://www.w3.org/2000/svg" xmlns:xlink="http://www.w3.org/1999/xlink">
<g id="graph0" class="graph" transform="scale(1 1) rotate(0) translate(4 112.5)">
<title>fiftyone.devicedetection.hash.engine.onpremise.flowelements.DeviceDataHashDefault</title>
<!-- Node1 -->
<g id="Node000001" class="node">
<title>Node1</title>
<g id="a_Node000001"><a xlink:title="Internal implementation of the DeviceDataHash interface.">
<polygon fill="#999999" stroke="#666666" points="1165,-62.5 842,-62.5 842,-32.5 1165,-32.5 1165,-62.5"/>
<text text-anchor="start" x="850" y="-50.5" font-family="Helvetica,sans-Serif" font-size="10.00">fiftyone.devicedetection.hash.engine.onpremise.flowelements.</text>
<text text-anchor="middle" x="1003.5" y="-39.5" font-family="Helvetica,sans-Serif" font-size="10.00">DeviceDataHashDefault</text>
</a>
</g>
</g>
<!-- Node2 -->
<g id="Node000002" class="node">
<title>Node2</title>
<g id="a_Node000002"><a xlink:href="classfiftyone_1_1devicedetection_1_1shared_1_1_device_data_base_on_premise.html" target="_top" xlink:title="Base class used for all 51Degrees on&#45;premise device detection results classes.">
<polygon fill="white" stroke="#666666" points="806,-107.5 633,-107.5 633,-77.5 806,-77.5 806,-107.5"/>
<text text-anchor="start" x="641" y="-95.5" font-family="Helvetica,sans-Serif" font-size="10.00">fiftyone.devicedetection.shared.</text>
<text text-anchor="middle" x="719.5" y="-84.5" font-family="Helvetica,sans-Serif" font-size="10.00">DeviceDataBaseOnPremise</text>
</a>
</g>
</g>
<!-- Node2&#45;&gt;Node1 -->
<g id="edge1_Node000001_Node000002" class="edge">
<title>Node2&#45;&gt;Node1</title>
<g id="a_edge1_Node000001_Node000002"><a xlink:title=" ">
<path fill="none" stroke="#63b8ff" d="M816.22,-77.23C845.94,-72.48 878.68,-67.26 908.3,-62.53"/>
<polygon fill="#63b8ff" stroke="#63b8ff" points="815.58,-73.78 806.26,-78.82 816.68,-80.7 815.58,-73.78"/>
</a>
</g>
</g>
<!-- Node3 -->
<g id="Node000003" class="node">
<title>Node3</title>
<g id="a_Node000003"><a xlink:href="classfiftyone_1_1devicedetection_1_1shared_1_1_device_data_base.html" target="_top" xlink:title=" ">
<polygon fill="white" stroke="#bfbfbf" points="544,-108.5 371,-108.5 371,-78.5 544,-78.5 544,-108.5"/>
<text text-anchor="start" x="379" y="-96.5" font-family="Helvetica,sans-Serif" font-size="10.00">fiftyone.devicedetection.shared.</text>
<text text-anchor="middle" x="457.5" y="-85.5" font-family="Helvetica,sans-Serif" font-size="10.00">DeviceDataBase</text>
</a>
</g>
</g>
<!-- Node3&#45;&gt;Node2 -->
<g id="edge2_Node000002_Node000003" class="edge">
<title>Node3&#45;&gt;Node2</title>
<g id="a_edge2_Node000002_Node000003"><a xlink:title=" ">
<path fill="none" stroke="#63b8ff" d="M554.46,-93.13C580.11,-93.03 607.67,-92.93 632.74,-92.83"/>
<polygon fill="#63b8ff" stroke="#63b8ff" points="554.34,-89.63 544.35,-93.17 554.37,-96.63 554.34,-89.63"/>
</a>
</g>
</g>
<!-- Node4 -->
<g id="Node000004" class="node">
<title>Node4</title>
<g id="a_Node000004"><a xlink:title=" ">
<polygon fill="white" stroke="#bfbfbf" points="244,-103 147,-103 147,-84 244,-84 244,-103"/>
<text text-anchor="middle" x="195.5" y="-91" font-family="Helvetica,sans-Serif" font-size="10.00">AspectDataBase</text>
</a>
</g>
</g>
<!-- Node4&#45;&gt;Node3 -->
<g id="edge3_Node000003_Node000004" class="edge">
<title>Node4&#45;&gt;Node3</title>
<g id="a_edge3_Node000003_Node000004"><a xlink:title=" ">
<path fill="none" stroke="#63b8ff" d="M254.49,-93.5C288.76,-93.5 332.78,-93.5 370.98,-93.5"/>
<polygon fill="#63b8ff" stroke="#63b8ff" points="254.19,-90 244.19,-93.5 254.19,-97 254.19,-90"/>
</a>
</g>
</g>
<!-- Node5 -->
<g id="Node000005" class="node">
<title>Node5</title>
<g id="a_Node000005"><a xlink:href="interfacefiftyone_1_1devicedetection_1_1shared_1_1_device_data.html" target="_top" xlink:title="Interface exposing typed accessors for properties related to a device returned by a device detection ...">
<polygon fill="white" stroke="#666666" points="282,-63.5 109,-63.5 109,-33.5 282,-33.5 282,-63.5"/>
<text text-anchor="start" x="117" y="-51.5" font-family="Helvetica,sans-Serif" font-size="10.00">fiftyone.devicedetection.shared.</text>
<text text-anchor="middle" x="195.5" y="-40.5" font-family="Helvetica,sans-Serif" font-size="10.00">DeviceData</text>
</a>
</g>
</g>
<!-- Node5&#45;&gt;Node3 -->
<g id="edge4_Node000003_Node000005" class="edge">
<title>Node5&#45;&gt;Node3</title>
<g id="a_edge4_Node000003_Node000005"><a xlink:title=" ">
<path fill="none" stroke="#63b8ff" d="M292.46,-65.11C318.11,-69.55 345.67,-74.32 370.74,-78.66"/>
<polygon fill="#63b8ff" stroke="#63b8ff" points="292.8,-61.62 282.35,-63.36 291.61,-68.51 292.8,-61.62"/>
</a>
</g>
</g>
<!-- Node7 -->
<g id="Node000007" class="node">
<title>Node7</title>
<g id="a_Node000007"><a xlink:href="interfacefiftyone_1_1devicedetection_1_1hash_1_1engine_1_1onpremise_1_1data_1_1_device_data_hash.html" target="_top" xlink:title="Hash specific interface for DeviceData.">
<polygon fill="white" stroke="#666666" points="597,-60.5 318,-60.5 318,-30.5 597,-30.5 597,-60.5"/>
<text text-anchor="start" x="326" y="-48.5" font-family="Helvetica,sans-Serif" font-size="10.00">fiftyone.devicedetection.hash.engine.onpremise.data.</text>
<text text-anchor="middle" x="457.5" y="-37.5" font-family="Helvetica,sans-Serif" font-size="10.00">DeviceDataHash</text>
</a>
</g>
</g>
<!-- Node5&#45;&gt;Node7 -->
<g id="edge7_Node000007_Node000005" class="edge">
<title>Node5&#45;&gt;Node7</title>
<g id="a_edge7_Node000007_Node000005"><a xlink:title=" ">
<path fill="none" stroke="#63b8ff" d="M292.62,-47.39C300.82,-47.3 309.21,-47.2 317.65,-47.1"/>
<polygon fill="#63b8ff" stroke="#63b8ff" points="292.31,-43.89 282.35,-47.51 292.39,-50.89 292.31,-43.89"/>
</a>
</g>
</g>
<!-- Node6 -->
<g id="Node000006" class="node">
<title>Node6</title>
<g id="a_Node000006"><a xlink:title=" ">
<polygon fill="white" stroke="#bfbfbf" points="73,-58 0,-58 0,-39 73,-39 73,-58"/>
<text text-anchor="middle" x="36.5" y="-46" font-family="Helvetica,sans-Serif" font-size="10.00">AspectData</text>
</a>
</g>
</g>
<!-- Node6&#45;&gt;Node5 -->
<g id="edge5_Node000005_Node000006" class="edge">
<title>Node6&#45;&gt;Node5</title>
<g id="a_edge5_Node000005_Node000006"><a xlink:title=" ">
<path fill="none" stroke="#63b8ff" d="M83.36,-48.5C91.42,-48.5 100.04,-48.5 108.78,-48.5"/>
<polygon fill="#63b8ff" stroke="#63b8ff" points="83.13,-45 73.13,-48.5 83.13,-52 83.13,-45"/>
</a>
</g>
</g>
<!-- Node7&#45;&gt;Node1 -->
<g id="edge6_Node000001_Node000007" class="edge">
<title>Node7&#45;&gt;Node1</title>
<g id="a_edge6_Node000001_Node000007"><a xlink:title=" ">
<path fill="none" stroke="#63b8ff" d="M607.34,-46.05C680.06,-46.31 767.66,-46.64 841.89,-46.91"/>
<polygon fill="#63b8ff" stroke="#63b8ff" points="607.19,-42.55 597.18,-46.01 607.17,-49.55 607.19,-42.55"/>
</a>
</g>
</g>
<!-- Node8 -->
<g id="Node000008" class="node">
<title>Node8</title>
<g id="a_Node000008"><a xlink:title=" ">
<polygon fill="white" stroke="#bfbfbf" points="763,-19 676,-19 676,0 763,0 763,-19"/>
<text text-anchor="middle" x="719.5" y="-7" font-family="Helvetica,sans-Serif" font-size="10.00">AutoCloseable</text>
</a>
</g>
</g>
<!-- Node8&#45;&gt;Node1 -->
<g id="edge8_Node000001_Node000008" class="edge">
<title>Node8&#45;&gt;Node1</title>
<g id="a_edge8_Node000001_Node000008"><a xlink:title=" ">
<path fill="none" stroke="#63b8ff" d="M772.95,-16.57C806.12,-21.04 850.28,-26.99 891.01,-32.48"/>
<polygon fill="#63b8ff" stroke="#63b8ff" points="773.4,-13.1 763.02,-15.23 772.47,-20.03 773.4,-13.1"/>
</a>
</g>
</g>
</g>
</svg>
