<?xml version="1.0" encoding="UTF-8" standalone="no"?>
<!DOCTYPE svg PUBLIC "-//W3C//DTD SVG 1.1//EN"
 "http://www.w3.org/Graphics/SVG/1.1/DTD/svg11.dtd">
<!-- Generated by graphviz version 2.43.0 (0)
 -->
<!-- Title: fiftyone.devicedetection.hash.engine.onpremise.interop.swig.ConfigBaseSwig Pages: 1 -->
<svg width="1031pt" height="38pt"
 viewBox="0.00 0.00 1031.00 38.00" xmlns="http://www.w3.org/2000/svg" xmlns:xlink="http://www.w3.org/1999/xlink">
<g id="graph0" class="graph" transform="scale(1 1) rotate(0) translate(4 34)">
<title>fiftyone.devicedetection.hash.engine.onpremise.interop.swig.ConfigBaseSwig</title>
<!-- Node1 -->
<g id="Node000001" class="node">
<title>Node1</title>
<g id="a_Node000001"><a xlink:title=" ">
<polygon fill="#999999" stroke="#666666" points="317,-30 0,-30 0,0 317,0 317,-30"/>
<text text-anchor="start" x="8" y="-18" font-family="Helvetica,sans-Serif" font-size="10.00">fiftyone.devicedetection.hash.engine.onpremise.interop.swig.</text>
<text text-anchor="middle" x="158.5" y="-7" font-family="Helvetica,sans-Serif" font-size="10.00">ConfigBaseSwig</text>
</a>
</g>
</g>
<!-- Node2 -->
<g id="Node000002" class="node">
<title>Node2</title>
<g id="a_Node000002"><a xlink:href="classfiftyone_1_1devicedetection_1_1hash_1_1engine_1_1onpremise_1_1interop_1_1swig_1_1_config_device_detection_swig.html" target="_top" xlink:title=" ">
<polygon fill="white" stroke="#bfbfbf" points="670,-30 353,-30 353,0 670,0 670,-30"/>
<text text-anchor="start" x="361" y="-18" font-family="Helvetica,sans-Serif" font-size="10.00">fiftyone.devicedetection.hash.engine.onpremise.interop.swig.</text>
<text text-anchor="middle" x="511.5" y="-7" font-family="Helvetica,sans-Serif" font-size="10.00">ConfigDeviceDetectionSwig</text>
</a>
</g>
</g>
<!-- Node1&#45;&gt;Node2 -->
<g id="edge1_Node000001_Node000002" class="edge">
<title>Node1&#45;&gt;Node2</title>
<g id="a_edge1_Node000001_Node000002"><a xlink:title=" ">
<path fill="none" stroke="#63b8ff" d="M327.13,-15C335.74,-15 344.38,-15 352.96,-15"/>
<polygon fill="#63b8ff" stroke="#63b8ff" points="327.03,-11.5 317.03,-15 327.03,-18.5 327.03,-11.5"/>
</a>
</g>
</g>
<!-- Node3 -->
<g id="Node000003" class="node">
<title>Node3</title>
<g id="a_Node000003"><a xlink:href="classfiftyone_1_1devicedetection_1_1hash_1_1engine_1_1onpremise_1_1interop_1_1swig_1_1_config_hash_swig.html" target="_top" xlink:title=" ">
<polygon fill="white" stroke="#bfbfbf" points="1023,-30 706,-30 706,0 1023,0 1023,-30"/>
<text text-anchor="start" x="714" y="-18" font-family="Helvetica,sans-Serif" font-size="10.00">fiftyone.devicedetection.hash.engine.onpremise.interop.swig.</text>
<text text-anchor="middle" x="864.5" y="-7" font-family="Helvetica,sans-Serif" font-size="10.00">ConfigHashSwig</text>
</a>
</g>
</g>
<!-- Node2&#45;&gt;Node3 -->
<g id="edge2_Node000002_Node000003" class="edge">
<title>Node2&#45;&gt;Node3</title>
<g id="a_edge2_Node000002_Node000003"><a xlink:title=" ">
<path fill="none" stroke="#63b8ff" d="M680.13,-15C688.74,-15 697.38,-15 705.96,-15"/>
<polygon fill="#63b8ff" stroke="#63b8ff" points="680.03,-11.5 670.03,-15 680.03,-18.5 680.03,-11.5"/>
</a>
</g>
</g>
</g>
</svg>
