<?xml version="1.0" encoding="UTF-8" standalone="no"?>
<!DOCTYPE svg PUBLIC "-//W3C//DTD SVG 1.1//EN"
 "http://www.w3.org/Graphics/SVG/1.1/DTD/svg11.dtd">
<!-- Generated by graphviz version 2.43.0 (0)
 -->
<!-- Title: fiftyone.devicedetection.examples.console.UpdateDataFile Pages: 1 -->
<svg width="752pt" height="40pt"
 viewBox="0.00 0.00 752.00 40.00" xmlns="http://www.w3.org/2000/svg" xmlns:xlink="http://www.w3.org/1999/xlink">
<g id="graph0" class="graph" transform="scale(1 1) rotate(0) translate(4 36)">
<title>fiftyone.devicedetection.examples.console.UpdateDataFile</title>
<!-- Node1 -->
<g id="Node000001" class="node">
<title>Node1</title>
<g id="a_Node000001"><a xlink:title="This example illustrates various parameters that can be adjusted when using the on&#45;premise device det...">
<polygon fill="#999999" stroke="#666666" points="744,-30 515,-30 515,0 744,0 744,-30"/>
<text text-anchor="start" x="523" y="-18" font-family="Helvetica,sans-Serif" font-size="10.00">fiftyone.devicedetection.examples.console.</text>
<text text-anchor="middle" x="629.5" y="-7" font-family="Helvetica,sans-Serif" font-size="10.00">UpdateDataFile</text>
</a>
</g>
</g>
<!-- Node2 -->
<g id="Node000002" class="node">
<title>Node2</title>
<g id="a_Node000002"><a xlink:title=" ">
<polygon fill="white" stroke="#bfbfbf" points="379,-30 150,-30 150,0 379,0 379,-30"/>
<text text-anchor="start" x="158" y="-18" font-family="Helvetica,sans-Serif" font-size="10.00">fiftyone.devicedetection.examples.console.</text>
<text text-anchor="middle" x="264.5" y="-7" font-family="Helvetica,sans-Serif" font-size="10.00">UpdateDataFile.UpdateCompletionListener</text>
</a>
</g>
</g>
<!-- Node2&#45;&gt;Node1 -->
<g id="edge1_Node000001_Node000002" class="edge">
<title>Node2&#45;&gt;Node1</title>
<g id="a_edge1_Node000001_Node000002"><a xlink:title=" ">
<path fill="none" stroke="#9a32cd" stroke-dasharray="5,2" d="M389.57,-15C430.14,-15 474.97,-15 514.73,-15"/>
<polygon fill="#9a32cd" stroke="#9a32cd" points="389.36,-11.5 379.36,-15 389.36,-18.5 389.36,-11.5"/>
</a>
</g>
<text text-anchor="start" x="400" y="-20.5" font-family="Helvetica,sans-Serif" font-size="10.00" fill="grey">completionListener</text>
</g>
<!-- Node3 -->
<g id="Node000003" class="node">
<title>Node3</title>
<g id="a_Node000003"><a xlink:title=" ">
<polygon fill="white" stroke="#bfbfbf" points="113,-24.5 0,-24.5 0,-5.5 113,-5.5 113,-24.5"/>
<text text-anchor="middle" x="56.5" y="-12.5" font-family="Helvetica,sans-Serif" font-size="10.00">OnUpdateComplete</text>
</a>
</g>
</g>
<!-- Node3&#45;&gt;Node2 -->
<g id="edge2_Node000002_Node000003" class="edge">
<title>Node3&#45;&gt;Node2</title>
<g id="a_edge2_Node000002_Node000003"><a xlink:title=" ">
<path fill="none" stroke="#63b8ff" d="M123.4,-15C131.89,-15 140.77,-15 149.77,-15"/>
<polygon fill="#63b8ff" stroke="#63b8ff" points="123.25,-11.5 113.25,-15 123.25,-18.5 123.25,-11.5"/>
</a>
</g>
</g>
</g>
</svg>
