<?xml version="1.0" encoding="UTF-8" standalone="no"?>
<!DOCTYPE svg PUBLIC "-//W3C//DTD SVG 1.1//EN"
 "http://www.w3.org/Graphics/SVG/1.1/DTD/svg11.dtd">
<!-- Generated by graphviz version 2.43.0 (0)
 -->
<!-- Title: fiftyone.devicedetection.examples.console.comparison.DetectionImplFiftyOneDegrees.FiftyOneSolution Pages: 1 -->
<svg width="782pt" height="86pt"
 viewBox="0.00 0.00 782.00 86.00" xmlns="http://www.w3.org/2000/svg" xmlns:xlink="http://www.w3.org/1999/xlink">
<g id="graph0" class="graph" transform="scale(1 1) rotate(0) translate(4 82)">
<title>fiftyone.devicedetection.examples.console.comparison.DetectionImplFiftyOneDegrees.FiftyOneSolution</title>
<!-- Node1 -->
<g id="Node000001" class="node">
<title>Node1</title>
<g id="a_Node000001"><a xlink:title=" ">
<polygon fill="#999999" stroke="#666666" points="774,-46 485,-46 485,-16 774,-16 774,-46"/>
<text text-anchor="start" x="493" y="-34" font-family="Helvetica,sans-Serif" font-size="10.00">fiftyone.devicedetection.examples.console.comparison.</text>
<text text-anchor="middle" x="629.5" y="-23" font-family="Helvetica,sans-Serif" font-size="10.00">DetectionImplFiftyOneDegrees.FiftyOneSolution</text>
</a>
</g>
</g>
<!-- Node2 -->
<g id="Node000002" class="node">
<title>Node2</title>
<g id="a_Node000002"><a xlink:href="interfacefiftyone_1_1devicedetection_1_1examples_1_1console_1_1comparison_1_1_detection_1_1_solution.html" target="_top" xlink:title="The thing that actually does the detection.">
<polygon fill="white" stroke="#666666" points="413,-78 124,-78 124,-48 413,-48 413,-78"/>
<text text-anchor="start" x="132" y="-66" font-family="Helvetica,sans-Serif" font-size="10.00">fiftyone.devicedetection.examples.console.comparison.</text>
<text text-anchor="middle" x="268.5" y="-55" font-family="Helvetica,sans-Serif" font-size="10.00">Detection.Solution</text>
</a>
</g>
</g>
<!-- Node2&#45;&gt;Node1 -->
<g id="edge1_Node000001_Node000002" class="edge">
<title>Node2&#45;&gt;Node1</title>
<g id="a_edge1_Node000001_Node000002"><a xlink:title=" ">
<path fill="none" stroke="#63b8ff" d="M423.2,-49.3C443.68,-47.47 464.61,-45.61 484.91,-43.8"/>
<polygon fill="#63b8ff" stroke="#63b8ff" points="422.84,-45.82 413.19,-50.19 423.46,-52.79 422.84,-45.82"/>
</a>
</g>
</g>
<!-- Node3 -->
<g id="Node000003" class="node">
<title>Node3</title>
<g id="a_Node000003"><a xlink:title=" ">
<polygon fill="white" stroke="#bfbfbf" points="87,-72.5 0,-72.5 0,-53.5 87,-53.5 87,-72.5"/>
<text text-anchor="middle" x="43.5" y="-60.5" font-family="Helvetica,sans-Serif" font-size="10.00">AutoCloseable</text>
</a>
</g>
</g>
<!-- Node3&#45;&gt;Node2 -->
<g id="edge2_Node000002_Node000003" class="edge">
<title>Node3&#45;&gt;Node2</title>
<g id="a_edge2_Node000002_Node000003"><a xlink:title=" ">
<path fill="none" stroke="#63b8ff" d="M97.4,-63C105.7,-63 114.6,-63 123.82,-63"/>
<polygon fill="#63b8ff" stroke="#63b8ff" points="97.23,-59.5 87.23,-63 97.23,-66.5 97.23,-59.5"/>
</a>
</g>
</g>
<!-- Node4 -->
<g id="Node000004" class="node">
<title>Node4</title>
<g id="a_Node000004"><a xlink:href="classfiftyone_1_1devicedetection_1_1examples_1_1console_1_1comparison_1_1_detection_impl_fifty_one_degrees_1_1_fifty_one_config.html" target="_top" xlink:title=" ">
<polygon fill="white" stroke="#bfbfbf" points="413,-30 124,-30 124,0 413,0 413,-30"/>
<text text-anchor="start" x="132" y="-18" font-family="Helvetica,sans-Serif" font-size="10.00">fiftyone.devicedetection.examples.console.comparison.</text>
<text text-anchor="middle" x="268.5" y="-7" font-family="Helvetica,sans-Serif" font-size="10.00">DetectionImplFiftyOneDegrees.FiftyOneConfig</text>
</a>
</g>
</g>
<!-- Node4&#45;&gt;Node1 -->
<g id="edge3_Node000001_Node000004" class="edge">
<title>Node4&#45;&gt;Node1</title>
<g id="a_edge3_Node000001_Node000004"><a xlink:title=" ">
<path fill="none" stroke="#9a32cd" stroke-dasharray="5,2" d="M423.2,-21.85C443.68,-22.76 464.61,-23.7 484.91,-24.6"/>
<polygon fill="#9a32cd" stroke="#9a32cd" points="423.34,-18.35 413.19,-21.4 423.03,-25.35 423.34,-18.35"/>
</a>
</g>
<text text-anchor="start" x="434" y="-29.5" font-family="Helvetica,sans-Serif" font-size="10.00" fill="grey">config</text>
</g>
</g>
</svg>
