<?xml version="1.0" encoding="UTF-8" standalone="no"?>
<!DOCTYPE svg PUBLIC "-//W3C//DTD SVG 1.1//EN"
 "http://www.w3.org/Graphics/SVG/1.1/DTD/svg11.dtd">
<!-- Generated by graphviz version 2.43.0 (0)
 -->
<!-- Title: fiftyone.devicedetection.shared.DeviceDataBase Pages: 1 -->
<svg width="1130pt" height="86pt"
 viewBox="0.00 0.00 1130.00 86.00" xmlns="http://www.w3.org/2000/svg" xmlns:xlink="http://www.w3.org/1999/xlink">
<g id="graph0" class="graph" transform="scale(1 1) rotate(0) translate(4 82)">
<title>fiftyone.devicedetection.shared.DeviceDataBase</title>
<!-- Node1 -->
<g id="Node000001" class="node">
<title>Node1</title>
<g id="a_Node000001"><a xlink:title=" ">
<polygon fill="#999999" stroke="#666666" points="491,-54 318,-54 318,-24 491,-24 491,-54"/>
<text text-anchor="start" x="326" y="-42" font-family="Helvetica,sans-Serif" font-size="10.00">fiftyone.devicedetection.shared.</text>
<text text-anchor="middle" x="404.5" y="-31" font-family="Helvetica,sans-Serif" font-size="10.00">DeviceDataBase</text>
</a>
</g>
</g>
<!-- Node5 -->
<g id="Node000005" class="node">
<title>Node5</title>
<g id="a_Node000005"><a xlink:href="classfiftyone_1_1devicedetection_1_1cloud_1_1flowelements_1_1_device_data_cloud_internal.html" target="_top" xlink:title="Internal implementation of the DeviceDataCloud interface.">
<polygon fill="white" stroke="#666666" points="763,-78 527,-78 527,-48 763,-48 763,-78"/>
<text text-anchor="start" x="535" y="-66" font-family="Helvetica,sans-Serif" font-size="10.00">fiftyone.devicedetection.cloud.flowelements.</text>
<text text-anchor="middle" x="645" y="-55" font-family="Helvetica,sans-Serif" font-size="10.00">DeviceDataCloudInternal</text>
</a>
</g>
</g>
<!-- Node1&#45;&gt;Node5 -->
<g id="edge4_Node000001_Node000005" class="edge">
<title>Node1&#45;&gt;Node5</title>
<g id="a_edge4_Node000001_Node000005"><a xlink:title=" ">
<path fill="none" stroke="#63b8ff" d="M501.33,-48.64C509.65,-49.48 518.13,-50.33 526.6,-51.19"/>
<polygon fill="#63b8ff" stroke="#63b8ff" points="501.57,-45.15 491.27,-47.63 500.87,-52.11 501.57,-45.15"/>
</a>
</g>
</g>
<!-- Node6 -->
<g id="Node000006" class="node">
<title>Node6</title>
<g id="a_Node000006"><a xlink:href="classfiftyone_1_1devicedetection_1_1shared_1_1_device_data_base_on_premise.html" target="_top" xlink:title="Base class used for all 51Degrees on&#45;premise device detection results classes.">
<polygon fill="white" stroke="#666666" points="731.5,-30 558.5,-30 558.5,0 731.5,0 731.5,-30"/>
<text text-anchor="start" x="566.5" y="-18" font-family="Helvetica,sans-Serif" font-size="10.00">fiftyone.devicedetection.shared.</text>
<text text-anchor="middle" x="645" y="-7" font-family="Helvetica,sans-Serif" font-size="10.00">DeviceDataBaseOnPremise</text>
</a>
</g>
</g>
<!-- Node1&#45;&gt;Node6 -->
<g id="edge5_Node000001_Node000006" class="edge">
<title>Node1&#45;&gt;Node6</title>
<g id="a_edge5_Node000001_Node000006"><a xlink:title=" ">
<path fill="none" stroke="#63b8ff" d="M501.32,-29.36C520.12,-27.47 539.74,-25.49 558.19,-23.63"/>
<polygon fill="#63b8ff" stroke="#63b8ff" points="500.87,-25.89 491.27,-30.37 501.57,-32.85 500.87,-25.89"/>
</a>
</g>
</g>
<!-- Node2 -->
<g id="Node000002" class="node">
<title>Node2</title>
<g id="a_Node000002"><a xlink:title=" ">
<polygon fill="white" stroke="#bfbfbf" points="244,-70.5 147,-70.5 147,-51.5 244,-51.5 244,-70.5"/>
<text text-anchor="middle" x="195.5" y="-58.5" font-family="Helvetica,sans-Serif" font-size="10.00">AspectDataBase</text>
</a>
</g>
</g>
<!-- Node2&#45;&gt;Node1 -->
<g id="edge1_Node000001_Node000002" class="edge">
<title>Node2&#45;&gt;Node1</title>
<g id="a_edge1_Node000001_Node000002"><a xlink:title=" ">
<path fill="none" stroke="#63b8ff" d="M254.27,-54.86C273.96,-52.77 296.41,-50.38 317.81,-48.11"/>
<polygon fill="#63b8ff" stroke="#63b8ff" points="253.82,-51.39 244.25,-55.93 254.56,-58.35 253.82,-51.39"/>
</a>
</g>
</g>
<!-- Node3 -->
<g id="Node000003" class="node">
<title>Node3</title>
<g id="a_Node000003"><a xlink:href="interfacefiftyone_1_1devicedetection_1_1shared_1_1_device_data.html" target="_top" xlink:title="Interface exposing typed accessors for properties related to a device returned by a device detection ...">
<polygon fill="white" stroke="#666666" points="282,-33 109,-33 109,-3 282,-3 282,-33"/>
<text text-anchor="start" x="117" y="-21" font-family="Helvetica,sans-Serif" font-size="10.00">fiftyone.devicedetection.shared.</text>
<text text-anchor="middle" x="195.5" y="-10" font-family="Helvetica,sans-Serif" font-size="10.00">DeviceData</text>
</a>
</g>
</g>
<!-- Node3&#45;&gt;Node1 -->
<g id="edge2_Node000001_Node000003" class="edge">
<title>Node3&#45;&gt;Node1</title>
<g id="a_edge2_Node000001_Node000003"><a xlink:title=" ">
<path fill="none" stroke="#63b8ff" d="M292.2,-27.71C300.76,-28.58 309.4,-29.45 317.88,-30.31"/>
<polygon fill="#63b8ff" stroke="#63b8ff" points="292.49,-24.22 282.19,-26.69 291.78,-31.18 292.49,-24.22"/>
</a>
</g>
</g>
<!-- Node4 -->
<g id="Node000004" class="node">
<title>Node4</title>
<g id="a_Node000004"><a xlink:title=" ">
<polygon fill="white" stroke="#bfbfbf" points="73,-27.5 0,-27.5 0,-8.5 73,-8.5 73,-27.5"/>
<text text-anchor="middle" x="36.5" y="-15.5" font-family="Helvetica,sans-Serif" font-size="10.00">AspectData</text>
</a>
</g>
</g>
<!-- Node4&#45;&gt;Node3 -->
<g id="edge3_Node000003_Node000004" class="edge">
<title>Node4&#45;&gt;Node3</title>
<g id="a_edge3_Node000003_Node000004"><a xlink:title=" ">
<path fill="none" stroke="#63b8ff" d="M83.36,-18C91.42,-18 100.04,-18 108.78,-18"/>
<polygon fill="#63b8ff" stroke="#63b8ff" points="83.13,-14.5 73.13,-18 83.13,-21.5 83.13,-14.5"/>
</a>
</g>
</g>
<!-- Node7 -->
<g id="Node000007" class="node">
<title>Node7</title>
<g id="a_Node000007"><a xlink:href="classfiftyone_1_1devicedetection_1_1hash_1_1engine_1_1onpremise_1_1flowelements_1_1_device_data_hash_default.html" target="_top" xlink:title="Internal implementation of the DeviceDataHash interface.">
<polygon fill="white" stroke="#666666" points="1122,-30 799,-30 799,0 1122,0 1122,-30"/>
<text text-anchor="start" x="807" y="-18" font-family="Helvetica,sans-Serif" font-size="10.00">fiftyone.devicedetection.hash.engine.onpremise.flowelements.</text>
<text text-anchor="middle" x="960.5" y="-7" font-family="Helvetica,sans-Serif" font-size="10.00">DeviceDataHashDefault</text>
</a>
</g>
</g>
<!-- Node6&#45;&gt;Node7 -->
<g id="edge6_Node000006_Node000007" class="edge">
<title>Node6&#45;&gt;Node7</title>
<g id="a_edge6_Node000006_Node000007"><a xlink:title=" ">
<path fill="none" stroke="#63b8ff" d="M741.88,-15C760,-15 779.41,-15 798.89,-15"/>
<polygon fill="#63b8ff" stroke="#63b8ff" points="741.67,-11.5 731.67,-15 741.67,-18.5 741.67,-11.5"/>
</a>
</g>
</g>
</g>
</svg>
