<?xml version="1.0" encoding="UTF-8" standalone="no"?>
<!DOCTYPE svg PUBLIC "-//W3C//DTD SVG 1.1//EN"
 "http://www.w3.org/Graphics/SVG/1.1/DTD/svg11.dtd">
<!-- Generated by graphviz version 2.43.0 (0)
 -->
<!-- Title: fiftyone.devicedetection.examples.console.comparison.Comparer Pages: 1 -->
<svg width="297pt" height="177pt"
 viewBox="0.00 0.00 297.00 177.00" xmlns="http://www.w3.org/2000/svg" xmlns:xlink="http://www.w3.org/1999/xlink">
<g id="graph0" class="graph" transform="scale(1 1) rotate(0) translate(4 173)">
<title>fiftyone.devicedetection.examples.console.comparison.Comparer</title>
<!-- Node1 -->
<g id="Node000001" class="node">
<title>Node1</title>
<g id="a_Node000001"><a xlink:title="Unlike other examples, use of this example requires a 51Degrees Enterprise data file,...">
<polygon fill="#999999" stroke="#666666" points="289,-30 0,-30 0,0 289,0 289,-30"/>
<text text-anchor="start" x="8" y="-18" font-family="Helvetica,sans-Serif" font-size="10.00">fiftyone.devicedetection.examples.console.comparison.</text>
<text text-anchor="middle" x="144.5" y="-7" font-family="Helvetica,sans-Serif" font-size="10.00">Comparer</text>
</a>
</g>
</g>
<!-- Node2 -->
<g id="Node000002" class="node">
<title>Node2</title>
<g id="a_Node000002"><a xlink:href="interfacefiftyone_1_1devicedetection_1_1examples_1_1console_1_1comparison_1_1_detection_1_1_solution.html" target="_top" xlink:title="The thing that actually does the detection.">
<polygon fill="white" stroke="#666666" points="289,-113 0,-113 0,-83 289,-83 289,-113"/>
<text text-anchor="start" x="8" y="-101" font-family="Helvetica,sans-Serif" font-size="10.00">fiftyone.devicedetection.examples.console.comparison.</text>
<text text-anchor="middle" x="144.5" y="-90" font-family="Helvetica,sans-Serif" font-size="10.00">Detection.Solution</text>
</a>
</g>
</g>
<!-- Node2&#45;&gt;Node1 -->
<g id="edge1_Node000001_Node000002" class="edge">
<title>Node2&#45;&gt;Node1</title>
<g id="a_edge1_Node000001_Node000002"><a xlink:title=" ">
<path fill="none" stroke="#9a32cd" stroke-dasharray="5,2" d="M144.5,-72.59C144.5,-58.75 144.5,-41.91 144.5,-30.22"/>
<polygon fill="#9a32cd" stroke="#9a32cd" points="141,-72.89 144.5,-82.89 148,-72.89 141,-72.89"/>
</a>
</g>
<text text-anchor="start" x="148" y="-53.5" font-family="Helvetica,sans-Serif" font-size="10.00" fill="grey">DEFAULT_SOLUTIONS</text>
</g>
<!-- Node3 -->
<g id="Node000003" class="node">
<title>Node3</title>
<g id="a_Node000003"><a xlink:title=" ">
<polygon fill="white" stroke="#bfbfbf" points="188,-169 101,-169 101,-150 188,-150 188,-169"/>
<text text-anchor="middle" x="144.5" y="-157" font-family="Helvetica,sans-Serif" font-size="10.00">AutoCloseable</text>
</a>
</g>
</g>
<!-- Node3&#45;&gt;Node2 -->
<g id="edge2_Node000002_Node000003" class="edge">
<title>Node3&#45;&gt;Node2</title>
<g id="a_edge2_Node000002_Node000003"><a xlink:title=" ">
<path fill="none" stroke="#63b8ff" d="M144.5,-139.73C144.5,-131.09 144.5,-121 144.5,-113.02"/>
<polygon fill="#63b8ff" stroke="#63b8ff" points="141,-139.98 144.5,-149.98 148,-139.98 141,-139.98"/>
</a>
</g>
</g>
</g>
</svg>
