<?xml version="1.0" encoding="UTF-8" standalone="no"?>
<!DOCTYPE svg PUBLIC "-//W3C//DTD SVG 1.1//EN"
 "http://www.w3.org/Graphics/SVG/1.1/DTD/svg11.dtd">
<!-- Generated by graphviz version 2.43.0 (0)
 -->
<!-- Title: fiftyone.devicedetection.examples.console.comparison.Detection.Properties Pages: 1 -->
<svg width="947pt" height="182pt"
 viewBox="0.00 0.00 947.00 182.00" xmlns="http://www.w3.org/2000/svg" xmlns:xlink="http://www.w3.org/1999/xlink">
<g id="graph0" class="graph" transform="scale(1 1) rotate(0) translate(4 178)">
<title>fiftyone.devicedetection.examples.console.comparison.Detection.Properties</title>
<!-- Node1 -->
<g id="Node000001" class="node">
<title>Node1</title>
<g id="a_Node000001"><a xlink:title="The results of a detection.">
<polygon fill="#999999" stroke="#666666" points="289,-102 0,-102 0,-72 289,-72 289,-102"/>
<text text-anchor="start" x="8" y="-90" font-family="Helvetica,sans-Serif" font-size="10.00">fiftyone.devicedetection.examples.console.comparison.</text>
<text text-anchor="middle" x="144.5" y="-79" font-family="Helvetica,sans-Serif" font-size="10.00">Detection.Properties</text>
</a>
</g>
</g>
<!-- Node2 -->
<g id="Node000002" class="node">
<title>Node2</title>
<g id="a_Node000002"><a xlink:href="classfiftyone_1_1devicedetection_1_1examples_1_1console_1_1comparison_1_1_detection_1_1_properties_1_1_base.html" target="_top" xlink:title=" ">
<polygon fill="white" stroke="#bfbfbf" points="614,-102 325,-102 325,-72 614,-72 614,-102"/>
<text text-anchor="start" x="333" y="-90" font-family="Helvetica,sans-Serif" font-size="10.00">fiftyone.devicedetection.examples.console.comparison.</text>
<text text-anchor="middle" x="469.5" y="-79" font-family="Helvetica,sans-Serif" font-size="10.00">Detection.Properties.Base</text>
</a>
</g>
</g>
<!-- Node1&#45;&gt;Node2 -->
<g id="edge1_Node000001_Node000002" class="edge">
<title>Node1&#45;&gt;Node2</title>
<g id="a_edge1_Node000001_Node000002"><a xlink:title=" ">
<path fill="none" stroke="#63b8ff" d="M299.1,-87C307.68,-87 316.28,-87 324.82,-87"/>
<polygon fill="#63b8ff" stroke="#63b8ff" points="299.05,-83.5 289.05,-87 299.05,-90.5 299.05,-83.5"/>
</a>
</g>
</g>
<!-- Node3 -->
<g id="Node000003" class="node">
<title>Node3</title>
<g id="a_Node000003"><a xlink:href="classfiftyone_1_1devicedetection_1_1examples_1_1console_1_1comparison_1_1_detection_impl_brows_cap_1_1_brows_cap_properties.html" target="_top" xlink:title=" ">
<polygon fill="white" stroke="#bfbfbf" points="939,-174 650,-174 650,-144 939,-144 939,-174"/>
<text text-anchor="start" x="658" y="-162" font-family="Helvetica,sans-Serif" font-size="10.00">fiftyone.devicedetection.examples.console.comparison.</text>
<text text-anchor="middle" x="794.5" y="-151" font-family="Helvetica,sans-Serif" font-size="10.00">DetectionImplBrowsCap.BrowsCapProperties</text>
</a>
</g>
</g>
<!-- Node2&#45;&gt;Node3 -->
<g id="edge2_Node000002_Node000003" class="edge">
<title>Node2&#45;&gt;Node3</title>
<g id="a_edge2_Node000002_Node000003"><a xlink:title=" ">
<path fill="none" stroke="#63b8ff" d="M531.58,-104.89C566.13,-114.61 610.26,-126.38 650,-135 664.81,-138.21 680.56,-141.24 696,-143.98"/>
<polygon fill="#63b8ff" stroke="#63b8ff" points="532.21,-101.43 521.64,-102.07 530.3,-108.16 532.21,-101.43"/>
</a>
</g>
</g>
<!-- Node4 -->
<g id="Node000004" class="node">
<title>Node4</title>
<g id="a_Node000004"><a xlink:href="classfiftyone_1_1devicedetection_1_1examples_1_1console_1_1comparison_1_1_detection_impl_device_14a499038d23bd9bd2df6ff4c84ed1a9.html" target="_top" xlink:title=" ">
<polygon fill="white" stroke="#bfbfbf" points="939,-126 650,-126 650,-96 939,-96 939,-126"/>
<text text-anchor="start" x="658" y="-114" font-family="Helvetica,sans-Serif" font-size="10.00">fiftyone.devicedetection.examples.console.comparison.</text>
<text text-anchor="middle" x="794.5" y="-103" font-family="Helvetica,sans-Serif" font-size="10.00">DetectionImplDeviceAtlas.DeviceAtlasProperties</text>
</a>
</g>
</g>
<!-- Node2&#45;&gt;Node4 -->
<g id="edge3_Node000002_Node000004" class="edge">
<title>Node2&#45;&gt;Node4</title>
<g id="a_edge3_Node000002_Node000004"><a xlink:title=" ">
<path fill="none" stroke="#63b8ff" d="M624.1,-98.41C632.68,-99.05 641.28,-99.69 649.82,-100.32"/>
<polygon fill="#63b8ff" stroke="#63b8ff" points="624.29,-94.92 614.05,-97.67 623.77,-101.9 624.29,-94.92"/>
</a>
</g>
</g>
<!-- Node5 -->
<g id="Node000005" class="node">
<title>Node5</title>
<g id="a_Node000005"><a xlink:href="classfiftyone_1_1devicedetection_1_1examples_1_1console_1_1comparison_1_1_detection_impl_fifty_ofa40f9aee0c441f6c56f47484e599f2e.html" target="_top" xlink:title=" ">
<polygon fill="white" stroke="#bfbfbf" points="939,-78 650,-78 650,-48 939,-48 939,-78"/>
<text text-anchor="start" x="658" y="-66" font-family="Helvetica,sans-Serif" font-size="10.00">fiftyone.devicedetection.examples.console.comparison.</text>
<text text-anchor="middle" x="794.5" y="-55" font-family="Helvetica,sans-Serif" font-size="10.00">DetectionImplFiftyOneDegrees.FiftyOneProperties</text>
</a>
</g>
</g>
<!-- Node2&#45;&gt;Node5 -->
<g id="edge4_Node000002_Node000005" class="edge">
<title>Node2&#45;&gt;Node5</title>
<g id="a_edge4_Node000002_Node000005"><a xlink:title=" ">
<path fill="none" stroke="#63b8ff" d="M624.1,-75.59C632.68,-74.95 641.28,-74.31 649.82,-73.68"/>
<polygon fill="#63b8ff" stroke="#63b8ff" points="623.77,-72.1 614.05,-76.33 624.29,-79.08 623.77,-72.1"/>
</a>
</g>
</g>
<!-- Node6 -->
<g id="Node000006" class="node">
<title>Node6</title>
<g id="a_Node000006"><a xlink:href="classfiftyone_1_1devicedetection_1_1examples_1_1console_1_1comparison_1_1_detection_impl_scientia_mobile_1_1_wurfl_properties.html" target="_top" xlink:title=" ">
<polygon fill="white" stroke="#bfbfbf" points="939,-30 650,-30 650,0 939,0 939,-30"/>
<text text-anchor="start" x="658" y="-18" font-family="Helvetica,sans-Serif" font-size="10.00">fiftyone.devicedetection.examples.console.comparison.</text>
<text text-anchor="middle" x="794.5" y="-7" font-family="Helvetica,sans-Serif" font-size="10.00">DetectionImplScientiaMobile.WurflProperties</text>
</a>
</g>
</g>
<!-- Node2&#45;&gt;Node6 -->
<g id="edge5_Node000002_Node000006" class="edge">
<title>Node2&#45;&gt;Node6</title>
<g id="a_edge5_Node000002_Node000006"><a xlink:title=" ">
<path fill="none" stroke="#63b8ff" d="M531.58,-69.11C566.13,-59.39 610.26,-47.62 650,-39 664.81,-35.79 680.56,-32.76 696,-30.02"/>
<polygon fill="#63b8ff" stroke="#63b8ff" points="530.3,-65.84 521.64,-71.93 532.21,-72.57 530.3,-65.84"/>
</a>
</g>
</g>
</g>
</svg>
