<?xml version="1.0" encoding="UTF-8" standalone="no"?>
<!DOCTYPE svg PUBLIC "-//W3C//DTD SVG 1.1//EN"
 "http://www.w3.org/Graphics/SVG/1.1/DTD/svg11.dtd">
<!-- Generated by graphviz version 2.43.0 (0)
 -->
<!-- Title: fiftyone.devicedetection.hash.engine.onpremise.data.DeviceDataHash Pages: 1 -->
<svg width="964pt" height="38pt"
 viewBox="0.00 0.00 964.00 38.00" xmlns="http://www.w3.org/2000/svg" xmlns:xlink="http://www.w3.org/1999/xlink">
<g id="graph0" class="graph" transform="scale(1 1) rotate(0) translate(4 34)">
<title>fiftyone.devicedetection.hash.engine.onpremise.data.DeviceDataHash</title>
<!-- Node1 -->
<g id="Node000001" class="node">
<title>Node1</title>
<g id="a_Node000001"><a xlink:title="Hash specific interface for DeviceData.">
<polygon fill="#999999" stroke="#666666" points="597,-30 318,-30 318,0 597,0 597,-30"/>
<text text-anchor="start" x="326" y="-18" font-family="Helvetica,sans-Serif" font-size="10.00">fiftyone.devicedetection.hash.engine.onpremise.data.</text>
<text text-anchor="middle" x="457.5" y="-7" font-family="Helvetica,sans-Serif" font-size="10.00">DeviceDataHash</text>
</a>
</g>
</g>
<!-- Node4 -->
<g id="Node000004" class="node">
<title>Node4</title>
<g id="a_Node000004"><a xlink:href="classfiftyone_1_1devicedetection_1_1hash_1_1engine_1_1onpremise_1_1flowelements_1_1_device_data_hash_default.html" target="_top" xlink:title="Internal implementation of the DeviceDataHash interface.">
<polygon fill="white" stroke="#666666" points="956,-30 633,-30 633,0 956,0 956,-30"/>
<text text-anchor="start" x="641" y="-18" font-family="Helvetica,sans-Serif" font-size="10.00">fiftyone.devicedetection.hash.engine.onpremise.flowelements.</text>
<text text-anchor="middle" x="794.5" y="-7" font-family="Helvetica,sans-Serif" font-size="10.00">DeviceDataHashDefault</text>
</a>
</g>
</g>
<!-- Node1&#45;&gt;Node4 -->
<g id="edge3_Node000001_Node000004" class="edge">
<title>Node1&#45;&gt;Node4</title>
<g id="a_edge3_Node000001_Node000004"><a xlink:title=" ">
<path fill="none" stroke="#63b8ff" d="M607.44,-15C615.89,-15 624.4,-15 632.89,-15"/>
<polygon fill="#63b8ff" stroke="#63b8ff" points="607.18,-11.5 597.18,-15 607.18,-18.5 607.18,-11.5"/>
</a>
</g>
</g>
<!-- Node2 -->
<g id="Node000002" class="node">
<title>Node2</title>
<g id="a_Node000002"><a xlink:href="interfacefiftyone_1_1devicedetection_1_1shared_1_1_device_data.html" target="_top" xlink:title="Interface exposing typed accessors for properties related to a device returned by a device detection ...">
<polygon fill="white" stroke="#666666" points="282,-30 109,-30 109,0 282,0 282,-30"/>
<text text-anchor="start" x="117" y="-18" font-family="Helvetica,sans-Serif" font-size="10.00">fiftyone.devicedetection.shared.</text>
<text text-anchor="middle" x="195.5" y="-7" font-family="Helvetica,sans-Serif" font-size="10.00">DeviceData</text>
</a>
</g>
</g>
<!-- Node2&#45;&gt;Node1 -->
<g id="edge1_Node000001_Node000002" class="edge">
<title>Node2&#45;&gt;Node1</title>
<g id="a_edge1_Node000001_Node000002"><a xlink:title=" ">
<path fill="none" stroke="#63b8ff" d="M292.62,-15C300.82,-15 309.21,-15 317.65,-15"/>
<polygon fill="#63b8ff" stroke="#63b8ff" points="292.35,-11.5 282.35,-15 292.35,-18.5 292.35,-11.5"/>
</a>
</g>
</g>
<!-- Node3 -->
<g id="Node000003" class="node">
<title>Node3</title>
<g id="a_Node000003"><a xlink:title=" ">
<polygon fill="white" stroke="#bfbfbf" points="73,-24.5 0,-24.5 0,-5.5 73,-5.5 73,-24.5"/>
<text text-anchor="middle" x="36.5" y="-12.5" font-family="Helvetica,sans-Serif" font-size="10.00">AspectData</text>
</a>
</g>
</g>
<!-- Node3&#45;&gt;Node2 -->
<g id="edge2_Node000002_Node000003" class="edge">
<title>Node3&#45;&gt;Node2</title>
<g id="a_edge2_Node000002_Node000003"><a xlink:title=" ">
<path fill="none" stroke="#63b8ff" d="M83.36,-15C91.42,-15 100.04,-15 108.78,-15"/>
<polygon fill="#63b8ff" stroke="#63b8ff" points="83.13,-11.5 73.13,-15 83.13,-18.5 83.13,-11.5"/>
</a>
</g>
</g>
</g>
</svg>
