<?xml version="1.0" encoding="UTF-8" standalone="no"?>
<!DOCTYPE svg PUBLIC "-//W3C//DTD SVG 1.1//EN"
 "http://www.w3.org/Graphics/SVG/1.1/DTD/svg11.dtd">
<!-- Generated by graphviz version 2.43.0 (0)
 -->
<!-- Title: fiftyone.devicedetection.shared.DeviceData Pages: 1 -->
<svg width="1191pt" height="134pt"
 viewBox="0.00 0.00 1191.00 134.00" xmlns="http://www.w3.org/2000/svg" xmlns:xlink="http://www.w3.org/1999/xlink">
<g id="graph0" class="graph" transform="scale(1 1) rotate(0) translate(4 130)">
<title>fiftyone.devicedetection.shared.DeviceData</title>
<!-- Node1 -->
<g id="Node000001" class="node">
<title>Node1</title>
<g id="a_Node000001"><a xlink:title="Interface exposing typed accessors for properties related to a device returned by a device detection ...">
<polygon fill="#999999" stroke="#666666" points="282,-80 109,-80 109,-50 282,-50 282,-80"/>
<text text-anchor="start" x="117" y="-68" font-family="Helvetica,sans-Serif" font-size="10.00">fiftyone.devicedetection.shared.</text>
<text text-anchor="middle" x="195.5" y="-57" font-family="Helvetica,sans-Serif" font-size="10.00">DeviceData</text>
</a>
</g>
</g>
<!-- Node3 -->
<g id="Node000003" class="node">
<title>Node3</title>
<g id="a_Node000003"><a xlink:href="interfacefiftyone_1_1devicedetection_1_1cloud_1_1data_1_1_device_data_cloud.html" target="_top" xlink:title="Cloud specific interface for DeviceData.">
<polygon fill="white" stroke="#666666" points="509,-80 318,-80 318,-50 509,-50 509,-80"/>
<text text-anchor="start" x="326" y="-68" font-family="Helvetica,sans-Serif" font-size="10.00">fiftyone.devicedetection.cloud.data.</text>
<text text-anchor="middle" x="413.5" y="-57" font-family="Helvetica,sans-Serif" font-size="10.00">DeviceDataCloud</text>
</a>
</g>
</g>
<!-- Node1&#45;&gt;Node3 -->
<g id="edge2_Node000001_Node000003" class="edge">
<title>Node1&#45;&gt;Node3</title>
<g id="a_edge2_Node000001_Node000003"><a xlink:title=" ">
<path fill="none" stroke="#63b8ff" d="M292.37,-65C300.77,-65 309.28,-65 317.67,-65"/>
<polygon fill="#63b8ff" stroke="#63b8ff" points="292.18,-61.5 282.18,-65 292.18,-68.5 292.18,-61.5"/>
</a>
</g>
</g>
<!-- Node5 -->
<g id="Node000005" class="node">
<title>Node5</title>
<g id="a_Node000005"><a xlink:href="interfacefiftyone_1_1devicedetection_1_1hash_1_1engine_1_1onpremise_1_1data_1_1_device_data_hash.html" target="_top" xlink:title="Hash specific interface for DeviceData.">
<polygon fill="white" stroke="#666666" points="824,-126 545,-126 545,-96 824,-96 824,-126"/>
<text text-anchor="start" x="553" y="-114" font-family="Helvetica,sans-Serif" font-size="10.00">fiftyone.devicedetection.hash.engine.onpremise.data.</text>
<text text-anchor="middle" x="684.5" y="-103" font-family="Helvetica,sans-Serif" font-size="10.00">DeviceDataHash</text>
</a>
</g>
</g>
<!-- Node1&#45;&gt;Node5 -->
<g id="edge4_Node000001_Node000005" class="edge">
<title>Node1&#45;&gt;Node5</title>
<g id="a_edge4_Node000001_Node000005"><a xlink:title=" ">
<path fill="none" stroke="#63b8ff" d="M274,-81.93C288.57,-84.65 303.7,-87.17 318,-89 392.56,-98.56 476.22,-103.99 544.67,-107.05"/>
<polygon fill="#63b8ff" stroke="#63b8ff" points="274.51,-78.46 264.03,-80.02 273.2,-85.34 274.51,-78.46"/>
</a>
</g>
</g>
<!-- Node7 -->
<g id="Node000007" class="node">
<title>Node7</title>
<g id="a_Node000007"><a xlink:href="classfiftyone_1_1devicedetection_1_1shared_1_1_device_data_base.html" target="_top" xlink:title=" ">
<polygon fill="white" stroke="#bfbfbf" points="500,-32 327,-32 327,-2 500,-2 500,-32"/>
<text text-anchor="start" x="335" y="-20" font-family="Helvetica,sans-Serif" font-size="10.00">fiftyone.devicedetection.shared.</text>
<text text-anchor="middle" x="413.5" y="-9" font-family="Helvetica,sans-Serif" font-size="10.00">DeviceDataBase</text>
</a>
</g>
</g>
<!-- Node1&#45;&gt;Node7 -->
<g id="edge6_Node000001_Node000007" class="edge">
<title>Node1&#45;&gt;Node7</title>
<g id="a_edge6_Node000001_Node000007"><a xlink:title=" ">
<path fill="none" stroke="#63b8ff" d="M274.05,-47.77C297.25,-42.61 322.49,-37 344.99,-32"/>
<polygon fill="#63b8ff" stroke="#63b8ff" points="273.25,-44.36 264.25,-49.94 274.77,-51.19 273.25,-44.36"/>
</a>
</g>
</g>
<!-- Node2 -->
<g id="Node000002" class="node">
<title>Node2</title>
<g id="a_Node000002"><a xlink:title=" ">
<polygon fill="white" stroke="#bfbfbf" points="73,-74.5 0,-74.5 0,-55.5 73,-55.5 73,-74.5"/>
<text text-anchor="middle" x="36.5" y="-62.5" font-family="Helvetica,sans-Serif" font-size="10.00">AspectData</text>
</a>
</g>
</g>
<!-- Node2&#45;&gt;Node1 -->
<g id="edge1_Node000001_Node000002" class="edge">
<title>Node2&#45;&gt;Node1</title>
<g id="a_edge1_Node000001_Node000002"><a xlink:title=" ">
<path fill="none" stroke="#63b8ff" d="M83.36,-65C91.42,-65 100.04,-65 108.78,-65"/>
<polygon fill="#63b8ff" stroke="#63b8ff" points="83.13,-61.5 73.13,-65 83.13,-68.5 83.13,-61.5"/>
</a>
</g>
</g>
<!-- Node4 -->
<g id="Node000004" class="node">
<title>Node4</title>
<g id="a_Node000004"><a xlink:href="classfiftyone_1_1devicedetection_1_1cloud_1_1flowelements_1_1_device_data_cloud_internal.html" target="_top" xlink:title="Internal implementation of the DeviceDataCloud interface.">
<polygon fill="white" stroke="#666666" points="802.5,-78 566.5,-78 566.5,-48 802.5,-48 802.5,-78"/>
<text text-anchor="start" x="574.5" y="-66" font-family="Helvetica,sans-Serif" font-size="10.00">fiftyone.devicedetection.cloud.flowelements.</text>
<text text-anchor="middle" x="684.5" y="-55" font-family="Helvetica,sans-Serif" font-size="10.00">DeviceDataCloudInternal</text>
</a>
</g>
</g>
<!-- Node3&#45;&gt;Node4 -->
<g id="edge3_Node000003_Node000004" class="edge">
<title>Node3&#45;&gt;Node4</title>
<g id="a_edge3_Node000003_Node000004"><a xlink:title=" ">
<path fill="none" stroke="#63b8ff" d="M519.38,-64.22C534.8,-64.11 550.77,-63.99 566.41,-63.87"/>
<polygon fill="#63b8ff" stroke="#63b8ff" points="519.31,-60.72 509.34,-64.29 519.37,-67.72 519.31,-60.72"/>
</a>
</g>
</g>
<!-- Node6 -->
<g id="Node000006" class="node">
<title>Node6</title>
<g id="a_Node000006"><a xlink:href="classfiftyone_1_1devicedetection_1_1hash_1_1engine_1_1onpremise_1_1flowelements_1_1_device_data_hash_default.html" target="_top" xlink:title="Internal implementation of the DeviceDataHash interface.">
<polygon fill="white" stroke="#666666" points="1183,-78 860,-78 860,-48 1183,-48 1183,-78"/>
<text text-anchor="start" x="868" y="-66" font-family="Helvetica,sans-Serif" font-size="10.00">fiftyone.devicedetection.hash.engine.onpremise.flowelements.</text>
<text text-anchor="middle" x="1021.5" y="-55" font-family="Helvetica,sans-Serif" font-size="10.00">DeviceDataHashDefault</text>
</a>
</g>
</g>
<!-- Node5&#45;&gt;Node6 -->
<g id="edge5_Node000005_Node000006" class="edge">
<title>Node5&#45;&gt;Node6</title>
<g id="a_edge5_Node000005_Node000006"><a xlink:title=" ">
<path fill="none" stroke="#63b8ff" d="M800.5,-94.52C837.9,-89.16 879.19,-83.25 915.8,-78"/>
<polygon fill="#63b8ff" stroke="#63b8ff" points="799.98,-91.06 790.58,-95.94 800.97,-97.99 799.98,-91.06"/>
</a>
</g>
</g>
<!-- Node7&#45;&gt;Node4 -->
<g id="edge7_Node000007_Node000004" class="edge">
<title>Node7&#45;&gt;Node4</title>
<g id="a_edge7_Node000007_Node000004"><a xlink:title=" ">
<path fill="none" stroke="#63b8ff" d="M510.47,-33.41C538.25,-38.16 568.43,-43.32 595.69,-47.98"/>
<polygon fill="#63b8ff" stroke="#63b8ff" points="510.8,-29.92 500.35,-31.68 509.62,-36.82 510.8,-29.92"/>
</a>
</g>
</g>
<!-- Node8 -->
<g id="Node000008" class="node">
<title>Node8</title>
<g id="a_Node000008"><a xlink:href="classfiftyone_1_1devicedetection_1_1shared_1_1_device_data_base_on_premise.html" target="_top" xlink:title="Base class used for all 51Degrees on&#45;premise device detection results classes.">
<polygon fill="white" stroke="#666666" points="771,-30 598,-30 598,0 771,0 771,-30"/>
<text text-anchor="start" x="606" y="-18" font-family="Helvetica,sans-Serif" font-size="10.00">fiftyone.devicedetection.shared.</text>
<text text-anchor="middle" x="684.5" y="-7" font-family="Helvetica,sans-Serif" font-size="10.00">DeviceDataBaseOnPremise</text>
</a>
</g>
</g>
<!-- Node7&#45;&gt;Node8 -->
<g id="edge8_Node000007_Node000008" class="edge">
<title>Node7&#45;&gt;Node8</title>
<g id="a_edge8_Node000007_Node000008"><a xlink:title=" ">
<path fill="none" stroke="#63b8ff" d="M510.68,-16.28C539.03,-16.07 569.87,-15.84 597.54,-15.64"/>
<polygon fill="#63b8ff" stroke="#63b8ff" points="510.33,-12.79 500.35,-16.36 510.38,-19.79 510.33,-12.79"/>
</a>
</g>
</g>
<!-- Node8&#45;&gt;Node6 -->
<g id="edge9_Node000008_Node000006" class="edge">
<title>Node8&#45;&gt;Node6</title>
<g id="a_edge9_Node000008_Node000006"><a xlink:title=" ">
<path fill="none" stroke="#63b8ff" d="M781.29,-28.73C823.31,-34.75 872.75,-41.83 915.74,-47.99"/>
<polygon fill="#63b8ff" stroke="#63b8ff" points="781.73,-25.25 771.34,-27.3 780.74,-32.18 781.73,-25.25"/>
</a>
</g>
</g>
</g>
</svg>
