<?xml version="1.0" encoding="UTF-8" standalone="no"?>
<!DOCTYPE svg PUBLIC "-//W3C//DTD SVG 1.1//EN"
 "http://www.w3.org/Graphics/SVG/1.1/DTD/svg11.dtd">
<!-- Generated by graphviz version 2.43.0 (0)
 -->
<!-- Title: fiftyone_devicedetection_onpremise.DeviceDetectionHashEngineModule.EvidenceBaseSwig Pages: 1 -->
<svg width="772pt" height="49pt"
 viewBox="0.00 0.00 772.00 49.00" xmlns="http://www.w3.org/2000/svg" xmlns:xlink="http://www.w3.org/1999/xlink">
<g id="graph0" class="graph" transform="scale(1 1) rotate(0) translate(4 45)">
<title>fiftyone_devicedetection_onpremise.DeviceDetectionHashEngineModule.EvidenceBaseSwig</title>
<!-- Node1 -->
<g id="Node000001" class="node">
<title>Node1</title>
<g id="a_Node000001"><a xlink:title=" ">
<polygon fill="#999999" stroke="#666666" points="491,-41 309,-41 309,0 491,0 491,-41"/>
<text text-anchor="start" x="317" y="-29" font-family="Helvetica,sans-Serif" font-size="10.00">fiftyone_devicedetection</text>
<text text-anchor="start" x="317" y="-18" font-family="Helvetica,sans-Serif" font-size="10.00">_onpremise.DeviceDetectionHash</text>
<text text-anchor="middle" x="400" y="-7" font-family="Helvetica,sans-Serif" font-size="10.00">EngineModule.EvidenceBaseSwig</text>
</a>
</g>
</g>
<!-- Node4 -->
<g id="Node000004" class="node">
<title>Node4</title>
<g id="a_Node000004"><a xlink:href="classfiftyone__devicedetection__onpremise_1_1_device_detection_hash_engine_module_1_1_evidence_device_detection_swig.html" target="_top" xlink:title=" ">
<polygon fill="white" stroke="#666666" points="764,-41 527,-41 527,0 764,0 764,-41"/>
<text text-anchor="start" x="535" y="-29" font-family="Helvetica,sans-Serif" font-size="10.00">fiftyone_devicedetection</text>
<text text-anchor="start" x="535" y="-18" font-family="Helvetica,sans-Serif" font-size="10.00">_onpremise.DeviceDetectionHash</text>
<text text-anchor="middle" x="645.5" y="-7" font-family="Helvetica,sans-Serif" font-size="10.00">EngineModule.EvidenceDeviceDetectionSwig</text>
</a>
</g>
</g>
<!-- Node1&#45;&gt;Node4 -->
<g id="edge3_Node000001_Node000004" class="edge">
<title>Node1&#45;&gt;Node4</title>
<g id="a_edge3_Node000001_Node000004"><a xlink:title=" ">
<path fill="none" stroke="#63b8ff" d="M501.39,-20.5C509.71,-20.5 518.16,-20.5 526.59,-20.5"/>
<polygon fill="#63b8ff" stroke="#63b8ff" points="501.32,-17 491.32,-20.5 501.32,-24 501.32,-17"/>
</a>
</g>
</g>
<!-- Node2 -->
<g id="Node000002" class="node">
<title>Node2</title>
<g id="a_Node000002"><a xlink:href="classfiftyone__devicedetection__onpremise_1_1_device_detection_hash_engine_module_1_1_map_string_string_swig.html" target="_top" xlink:title=" ">
<polygon fill="white" stroke="#666666" points="273,-41 83,-41 83,0 273,0 273,-41"/>
<text text-anchor="start" x="91" y="-29" font-family="Helvetica,sans-Serif" font-size="10.00">fiftyone_devicedetection</text>
<text text-anchor="start" x="91" y="-18" font-family="Helvetica,sans-Serif" font-size="10.00">_onpremise.DeviceDetectionHash</text>
<text text-anchor="middle" x="178" y="-7" font-family="Helvetica,sans-Serif" font-size="10.00">EngineModule.MapStringStringSwig</text>
</a>
</g>
</g>
<!-- Node2&#45;&gt;Node1 -->
<g id="edge1_Node000001_Node000002" class="edge">
<title>Node2&#45;&gt;Node1</title>
<g id="a_edge1_Node000001_Node000002"><a xlink:title=" ">
<path fill="none" stroke="#63b8ff" d="M283.52,-20.5C291.96,-20.5 300.45,-20.5 308.78,-20.5"/>
<polygon fill="#63b8ff" stroke="#63b8ff" points="283.26,-17 273.26,-20.5 283.26,-24 283.26,-17"/>
</a>
</g>
</g>
<!-- Node3 -->
<g id="Node000003" class="node">
<title>Node3</title>
<g id="a_Node000003"><a xlink:title=" ">
<polygon fill="white" stroke="#666666" points="47,-30 0,-30 0,-11 47,-11 47,-30"/>
<text text-anchor="middle" x="23.5" y="-18" font-family="Helvetica,sans-Serif" font-size="10.00">object</text>
</a>
</g>
</g>
<!-- Node3&#45;&gt;Node2 -->
<g id="edge2_Node000002_Node000003" class="edge">
<title>Node3&#45;&gt;Node2</title>
<g id="a_edge2_Node000002_Node000003"><a xlink:title=" ">
<path fill="none" stroke="#63b8ff" d="M57.09,-20.5C64.94,-20.5 73.74,-20.5 82.89,-20.5"/>
<polygon fill="#63b8ff" stroke="#63b8ff" points="57,-17 47,-20.5 57,-24 57,-17"/>
</a>
</g>
</g>
</g>
</svg>
