<?xml version="1.0" encoding="UTF-8" standalone="no"?>
<!DOCTYPE svg PUBLIC "-//W3C//DTD SVG 1.1//EN"
 "http://www.w3.org/Graphics/SVG/1.1/DTD/svg11.dtd">
<!-- Generated by graphviz version 2.43.0 (0)
 -->
<!-- Title: fiftyone_devicedetection_onpremise.DeviceDetectionHashEngineModule.ResultsDeviceDetectionSwig Pages: 1 -->
<svg width="756pt" height="49pt"
 viewBox="0.00 0.00 756.00 49.00" xmlns="http://www.w3.org/2000/svg" xmlns:xlink="http://www.w3.org/1999/xlink">
<g id="graph0" class="graph" transform="scale(1 1) rotate(0) translate(4 45)">
<title>fiftyone_devicedetection_onpremise.DeviceDetectionHashEngineModule.ResultsDeviceDetectionSwig</title>
<!-- Node1 -->
<g id="Node000001" class="node">
<title>Node1</title>
<g id="a_Node000001"><a xlink:title=" ">
<polygon fill="#999999" stroke="#666666" points="530,-41 301,-41 301,0 530,0 530,-41"/>
<text text-anchor="start" x="309" y="-29" font-family="Helvetica,sans-Serif" font-size="10.00">fiftyone_devicedetection</text>
<text text-anchor="start" x="309" y="-18" font-family="Helvetica,sans-Serif" font-size="10.00">_onpremise.DeviceDetectionHash</text>
<text text-anchor="middle" x="415.5" y="-7" font-family="Helvetica,sans-Serif" font-size="10.00">EngineModule.ResultsDeviceDetectionSwig</text>
</a>
</g>
</g>
<!-- Node4 -->
<g id="Node000004" class="node">
<title>Node4</title>
<g id="a_Node000004"><a xlink:href="classfiftyone__devicedetection__onpremise_1_1_device_detection_hash_engine_module_1_1_results_hash_swig.html" target="_top" xlink:title=" ">
<polygon fill="white" stroke="#666666" points="748,-41 566,-41 566,0 748,0 748,-41"/>
<text text-anchor="start" x="574" y="-29" font-family="Helvetica,sans-Serif" font-size="10.00">fiftyone_devicedetection</text>
<text text-anchor="start" x="574" y="-18" font-family="Helvetica,sans-Serif" font-size="10.00">_onpremise.DeviceDetectionHash</text>
<text text-anchor="middle" x="657" y="-7" font-family="Helvetica,sans-Serif" font-size="10.00">EngineModule.ResultsHashSwig</text>
</a>
</g>
</g>
<!-- Node1&#45;&gt;Node4 -->
<g id="edge3_Node000001_Node000004" class="edge">
<title>Node1&#45;&gt;Node4</title>
<g id="a_edge3_Node000001_Node000004"><a xlink:title=" ">
<path fill="none" stroke="#63b8ff" d="M540.38,-20.5C548.97,-20.5 557.54,-20.5 565.89,-20.5"/>
<polygon fill="#63b8ff" stroke="#63b8ff" points="540.29,-17 530.29,-20.5 540.29,-24 540.29,-17"/>
</a>
</g>
</g>
<!-- Node2 -->
<g id="Node000002" class="node">
<title>Node2</title>
<g id="a_Node000002"><a xlink:href="classfiftyone__devicedetection__onpremise_1_1_device_detection_hash_engine_module_1_1_results_base_swig.html" target="_top" xlink:title=" ">
<polygon fill="white" stroke="#666666" points="265,-41 83,-41 83,0 265,0 265,-41"/>
<text text-anchor="start" x="91" y="-29" font-family="Helvetica,sans-Serif" font-size="10.00">fiftyone_devicedetection</text>
<text text-anchor="start" x="91" y="-18" font-family="Helvetica,sans-Serif" font-size="10.00">_onpremise.DeviceDetectionHash</text>
<text text-anchor="middle" x="174" y="-7" font-family="Helvetica,sans-Serif" font-size="10.00">EngineModule.ResultsBaseSwig</text>
</a>
</g>
</g>
<!-- Node2&#45;&gt;Node1 -->
<g id="edge1_Node000001_Node000002" class="edge">
<title>Node2&#45;&gt;Node1</title>
<g id="a_edge1_Node000001_Node000002"><a xlink:title=" ">
<path fill="none" stroke="#63b8ff" d="M275.41,-20.5C283.84,-20.5 292.4,-20.5 300.93,-20.5"/>
<polygon fill="#63b8ff" stroke="#63b8ff" points="275.2,-17 265.2,-20.5 275.2,-24 275.2,-17"/>
</a>
</g>
</g>
<!-- Node3 -->
<g id="Node000003" class="node">
<title>Node3</title>
<g id="a_Node000003"><a xlink:title=" ">
<polygon fill="white" stroke="#666666" points="47,-30 0,-30 0,-11 47,-11 47,-30"/>
<text text-anchor="middle" x="23.5" y="-18" font-family="Helvetica,sans-Serif" font-size="10.00">object</text>
</a>
</g>
</g>
<!-- Node3&#45;&gt;Node2 -->
<g id="edge2_Node000002_Node000003" class="edge">
<title>Node3&#45;&gt;Node2</title>
<g id="a_edge2_Node000002_Node000003"><a xlink:title=" ">
<path fill="none" stroke="#63b8ff" d="M57.17,-20.5C65.04,-20.5 73.84,-20.5 82.97,-20.5"/>
<polygon fill="#63b8ff" stroke="#63b8ff" points="57.05,-17 47.05,-20.5 57.05,-24 57.05,-17"/>
</a>
</g>
</g>
</g>
</svg>
