<?xml version="1.0" encoding="UTF-8" standalone="no"?>
<!DOCTYPE svg PUBLIC "-//W3C//DTD SVG 1.1//EN"
 "http://www.w3.org/Graphics/SVG/1.1/DTD/svg11.dtd">
<!-- Generated by graphviz version 2.40.1 (20161225.0304)
 -->
<!-- Title: P Pages: 1 -->
<svg width="365pt" height="152pt"
 viewBox="0.00 0.00 365.20 152.00" xmlns="http://www.w3.org/2000/svg" xmlns:xlink="http://www.w3.org/1999/xlink">
<g id="graph0" class="graph" transform="scale(1 1) rotate(0) translate(4 148)">
<title>P</title>
<g id="clust1" class="cluster">
<title>clusterP</title>
<polygon fill="transparent" stroke="#000000" points="82,-8 82,-136 275.2,-136 275.2,-8 82,-8"/>
<text text-anchor="middle" x="178.6" y="-124" font-family="Helvetica,sans-Serif" font-size="10.00" fill="#000000">Pipeline</text>
</g>
<!-- i -->
<g id="node1" class="node">
<title>i</title>
<text text-anchor="middle" x="27" y="-59.5" font-family="Helvetica,sans-Serif" font-size="10.00" fill="#000000">in</text>
</g>
<!-- I1 -->
<g id="node2" class="node">
<title>I1</title>
<ellipse fill="#000000" stroke="#000000" cx="91.8" cy="-62" rx="1.8" ry="1.8"/>
</g>
<!-- i&#45;&gt;I1 -->
<g id="edge1" class="edge">
<title>i&#45;&gt;I1</title>
<path fill="none" stroke="#000000" d="M54.1056,-62C68.533,-62 84.4001,-62 89.843,-62"/>
</g>
<!-- E1 -->
<g id="node3" class="node">
<title>E1</title>
<polygon fill="none" stroke="#000000" points="129.6,-17 129.6,-53 227.6,-53 227.6,-17 129.6,-17"/>
<text text-anchor="middle" x="178.6" y="-32.5" font-family="Helvetica,sans-Serif" font-size="10.00" fill="#000000">Flow Element (E1)</text>
</g>
<!-- I1&#45;&gt;E1 -->
<g id="edge2" class="edge">
<title>I1&#45;&gt;E1</title>
<path fill="none" stroke="#000000" d="M93.6129,-61.4361C97.5702,-60.2051 107.5806,-57.0913 119.4019,-53.4141"/>
<polygon fill="#000000" stroke="#000000" points="120.6805,-56.6819 129.1896,-50.3696 118.6013,-49.9978 120.6805,-56.6819"/>
</g>
<!-- E2 -->
<g id="node4" class="node">
<title>E2</title>
<polygon fill="none" stroke="#000000" points="129.6,-72 129.6,-108 227.6,-108 227.6,-72 129.6,-72"/>
<text text-anchor="middle" x="178.6" y="-87.5" font-family="Helvetica,sans-Serif" font-size="10.00" fill="#000000">Flow Element (E2)</text>
</g>
<!-- I1&#45;&gt;E2 -->
<g id="edge5" class="edge">
<title>I1&#45;&gt;E2</title>
<path fill="none" stroke="#000000" d="M93.6129,-62.5848C97.5702,-63.8614 107.5806,-67.0905 119.4019,-70.9039"/>
<polygon fill="#000000" stroke="#000000" points="118.598,-74.322 129.1896,-74.0612 120.747,-67.6601 118.598,-74.322"/>
</g>
<!-- I2 -->
<g id="node5" class="node">
<title>I2</title>
<ellipse fill="#000000" stroke="#000000" cx="265.4" cy="-62" rx="1.8" ry="1.8"/>
</g>
<!-- E1&#45;&gt;I2 -->
<g id="edge3" class="edge">
<title>E1&#45;&gt;I2</title>
<path fill="none" stroke="#000000" d="M227.8331,-50.3144C243.7508,-55.2658 258.6022,-59.8855 263.6119,-61.4438"/>
</g>
<!-- E2&#45;&gt;I2 -->
<g id="edge6" class="edge">
<title>E2&#45;&gt;I2</title>
<path fill="none" stroke="#000000" d="M227.8331,-74.1184C243.7508,-68.9836 258.6022,-64.1928 263.6119,-62.5768"/>
</g>
<!-- o -->
<g id="node6" class="node">
<title>o</title>
<text text-anchor="middle" x="330.2" y="-59.5" font-family="Helvetica,sans-Serif" font-size="10.00" fill="#000000">out</text>
</g>
<!-- I2&#45;&gt;o -->
<g id="edge4" class="edge">
<title>I2&#45;&gt;o</title>
<path fill="none" stroke="#000000" d="M267.2695,-62C271.3685,-62 281.6715,-62 292.7814,-62"/>
<polygon fill="#000000" stroke="#000000" points="293.0564,-65.5001 303.0563,-62 293.0563,-58.5001 293.0564,-65.5001"/>
</g>
</g>
</svg>
