<?xml version="1.0" encoding="UTF-8" standalone="no"?>
<!DOCTYPE svg PUBLIC "-//W3C//DTD SVG 1.1//EN"
 "http://www.w3.org/Graphics/SVG/1.1/DTD/svg11.dtd">
<!-- Generated by graphviz version 2.40.1 (20161225.0304)
 -->
<!-- Title: %3 Pages: 1 -->
<svg width="408pt" height="238pt"
 viewBox="0.00 0.00 408.00 238.00" xmlns="http://www.w3.org/2000/svg" xmlns:xlink="http://www.w3.org/1999/xlink">
<g id="graph0" class="graph" transform="scale(1 1) rotate(0) translate(4 234)">
<title>%3</title>
<g id="clust1" class="cluster">
<title>clusterWebServer</title>
<polygon fill="transparent" stroke="#000000" points="256,-8 256,-222 392,-222 392,-8 256,-8"/>
<text text-anchor="middle" x="324" y="-210" font-family="Helvetica,sans-Serif" font-size="10.00" fill="#000000">Web server</text>
</g>
<g id="clust2" class="cluster">
<title>clusterClient</title>
<polygon fill="transparent" stroke="#000000" points="8,-65 8,-198 141,-198 141,-65 8,-65"/>
<text text-anchor="middle" x="74.5" y="-186" font-family="Helvetica,sans-Serif" font-size="10.00" fill="#000000">Client</text>
</g>
<!-- Process1 -->
<g id="node1" class="node">
<title>Process1</title>
<polygon fill="none" stroke="#000000" points="264,-109.5 264,-194.5 384,-194.5 384,-109.5 264,-109.5"/>
<text text-anchor="middle" x="324" y="-182.5" font-family="Helvetica,sans-Serif" font-size="10.00" fill="#000000">Pipeline has geo engine</text>
<text text-anchor="middle" x="324" y="-171.5" font-family="Helvetica,sans-Serif" font-size="10.00" fill="#000000">that needs lat and long.</text>
<text text-anchor="middle" x="324" y="-160.5" font-family="Helvetica,sans-Serif" font-size="10.00" fill="#000000">As neither are available</text>
<text text-anchor="middle" x="324" y="-149.5" font-family="Helvetica,sans-Serif" font-size="10.00" fill="#000000">in the evidence, it</text>
<text text-anchor="middle" x="324" y="-138.5" font-family="Helvetica,sans-Serif" font-size="10.00" fill="#000000">populates a JavaScript</text>
<text text-anchor="middle" x="324" y="-127.5" font-family="Helvetica,sans-Serif" font-size="10.00" fill="#000000">property with code</text>
<text text-anchor="middle" x="324" y="-116.5" font-family="Helvetica,sans-Serif" font-size="10.00" fill="#000000">to get these values.</text>
</g>
<!-- ProcessB -->
<g id="node4" class="node">
<title>ProcessB</title>
<polygon fill="none" stroke="#000000" points="16,-73.5 16,-114.5 133,-114.5 133,-73.5 16,-73.5"/>
<text text-anchor="middle" x="74.5" y="-102.5" font-family="Helvetica,sans-Serif" font-size="10.00" fill="#000000">JavaScript runs on</text>
<text text-anchor="middle" x="74.5" y="-91.5" font-family="Helvetica,sans-Serif" font-size="10.00" fill="#000000">client and sets cookies</text>
<text text-anchor="middle" x="74.5" y="-80.5" font-family="Helvetica,sans-Serif" font-size="10.00" fill="#000000">for lat and long.</text>
</g>
<!-- Process1&#45;&gt;ProcessB -->
<g id="edge2" class="edge">
<title>Process1&#45;&gt;ProcessB</title>
<path fill="none" stroke="#000000" d="M263.7772,-131.0171C257.8033,-129.2098 251.8041,-127.5013 246,-126 212.5287,-117.3424 174.8096,-110.0434 143.2853,-104.6126"/>
<polygon fill="#000000" stroke="#000000" points="143.7256,-101.1374 133.2811,-102.9157 142.5549,-108.0388 143.7256,-101.1374"/>
<text text-anchor="middle" x="198.5" y="-140" font-family="Helvetica,sans-Serif" font-size="10.00" fill="#000000">2. Response includes</text>
<text text-anchor="middle" x="198.5" y="-129" font-family="Helvetica,sans-Serif" font-size="10.00" fill="#000000">JavaScript</text>
</g>
<!-- Process2 -->
<g id="node2" class="node">
<title>Process2</title>
<polygon fill="none" stroke="#000000" points="266.5,-16 266.5,-90 381.5,-90 381.5,-16 266.5,-16"/>
<text text-anchor="middle" x="324" y="-78" font-family="Helvetica,sans-Serif" font-size="10.00" fill="#000000">Pipeline takes cookies</text>
<text text-anchor="middle" x="324" y="-67" font-family="Helvetica,sans-Serif" font-size="10.00" fill="#000000">as evidence.</text>
<text text-anchor="middle" x="324" y="-56" font-family="Helvetica,sans-Serif" font-size="10.00" fill="#000000">Geo engine uses</text>
<text text-anchor="middle" x="324" y="-45" font-family="Helvetica,sans-Serif" font-size="10.00" fill="#000000">lat and long values</text>
<text text-anchor="middle" x="324" y="-34" font-family="Helvetica,sans-Serif" font-size="10.00" fill="#000000">to determine postal</text>
<text text-anchor="middle" x="324" y="-23" font-family="Helvetica,sans-Serif" font-size="10.00" fill="#000000">address.</text>
</g>
<!-- Start -->
<g id="node3" class="node">
<title>Start</title>
<polygon fill="none" stroke="#000000" points="47.5,-134 47.5,-170 101.5,-170 101.5,-134 47.5,-134"/>
<text text-anchor="middle" x="74.5" y="-149.5" font-family="Helvetica,sans-Serif" font-size="10.00" fill="#000000">Start</text>
</g>
<!-- Start&#45;&gt;Process1 -->
<g id="edge1" class="edge">
<title>Start&#45;&gt;Process1</title>
<path fill="none" stroke="#000000" d="M101.6758,-152C137.8323,-152 203.0618,-152 253.5491,-152"/>
<polygon fill="#000000" stroke="#000000" points="253.7596,-155.5001 263.7596,-152 253.7596,-148.5001 253.7596,-155.5001"/>
<text text-anchor="middle" x="198.5" y="-155" font-family="Helvetica,sans-Serif" font-size="10.00" fill="#000000">1. Inital request</text>
</g>
<!-- ProcessB&#45;&gt;Process2 -->
<g id="edge3" class="edge">
<title>ProcessB&#45;&gt;Process2</title>
<path fill="none" stroke="#000000" d="M114.8653,-73.3697C126.2686,-68.438 138.8791,-63.7963 151,-61 185.1027,-53.1325 223.9603,-50.7657 256.1979,-50.5238"/>
<polygon fill="#000000" stroke="#000000" points="256.4204,-54.0237 266.4176,-50.5157 256.4148,-47.0237 256.4204,-54.0237"/>
<text text-anchor="middle" x="198.5" y="-75" font-family="Helvetica,sans-Serif" font-size="10.00" fill="#000000">3. Second request</text>
<text text-anchor="middle" x="198.5" y="-64" font-family="Helvetica,sans-Serif" font-size="10.00" fill="#000000">includes cookies</text>
</g>
</g>
</svg>
