<?xml version="1.0" encoding="UTF-8" standalone="no"?>
<!DOCTYPE svg PUBLIC "-//W3C//DTD SVG 1.1//EN"
 "http://www.w3.org/Graphics/SVG/1.1/DTD/svg11.dtd">
<!-- Generated by graphviz version 2.40.1 (20161225.0304)
 -->
<!-- Title: P Pages: 1 -->
<svg width="301pt" height="156pt"
 viewBox="0.00 0.00 301.00 156.00" xmlns="http://www.w3.org/2000/svg" xmlns:xlink="http://www.w3.org/1999/xlink">
<g id="graph0" class="graph" transform="scale(1 1) rotate(0) translate(4 152)">
<title>P</title>
<g id="clust1" class="cluster">
<title>clusterFD</title>
<g id="a_clust1"><a xlink:href="_concepts__data__flow_data.html#Concepts_Data_FlowData" target="_top" xlink:title="Flow Data">
<polygon fill="transparent" stroke="#000000" points="8,-8 8,-140 157,-140 157,-8 8,-8"/>
<text text-anchor="middle" x="82.5" y="-128" font-family="Helvetica,sans-Serif" font-size="10.00" fill="#000000">Flow Data</text>
</a>
</g>
</g>
<!-- structE -->
<g id="node1" class="node">
<title>structE</title>
<g id="a_node1"><a xlink:href="_concepts__data__evidence.html#Concepts_Data_Evidence" target="_top" xlink:title="&lt;f0&gt;Evidence|{&lt;f1&gt;date of birth|&lt;f2&gt;18/12/1992}">
<polygon fill="none" stroke="#000000" points="16,-74 16,-112 149,-112 149,-74 16,-74"/>
<text text-anchor="middle" x="82.5" y="-100" font-family="Helvetica,sans-Serif" font-size="10.00" fill="#000000">Evidence</text>
<polyline fill="none" stroke="#000000" points="16,-93 149,-93 "/>
<text text-anchor="middle" x="50" y="-81" font-family="Helvetica,sans-Serif" font-size="10.00" fill="#000000">date of birth</text>
<polyline fill="none" stroke="#000000" points="84,-74 84,-93 "/>
<text text-anchor="middle" x="116.5" y="-81" font-family="Helvetica,sans-Serif" font-size="10.00" fill="#000000">18/12/1992</text>
</a>
</g>
</g>
<!-- FE -->
<g id="node3" class="node">
<title>FE</title>
<polygon fill="none" stroke="#000000" points="220,-49 220,-85 293,-85 293,-49 220,-49"/>
<text text-anchor="middle" x="256.5" y="-64.5" font-family="Helvetica,sans-Serif" font-size="10.00" fill="#000000">Age Element</text>
</g>
<!-- structE&#45;&gt;FE -->
<g id="edge1" class="edge">
<title>structE&#45;&gt;FE</title>
<path fill="none" stroke="#000000" d="M156.9983,-81.8681C174.936,-79.1877 193.5978,-76.3992 209.8475,-73.9711"/>
<polygon fill="#000000" stroke="#000000" points="210.452,-77.4197 219.825,-72.4802 209.4175,-70.4965 210.452,-77.4197"/>
<text text-anchor="middle" x="184.5" y="-83" font-family="Helvetica,sans-Serif" font-size="10.00" fill="#000000">process</text>
</g>
<!-- structED -->
<g id="node2" class="node">
<title>structED</title>
<g id="a_node2"><a xlink:href="_concepts__data__element_data.html#Concepts_Data_ElementData" target="_top" xlink:title="&lt;f0&gt;Element Data|{&lt;f1&gt;age|&lt;f2&gt;26}">
<polygon fill="none" stroke="#000000" points="44,-17 44,-55 121,-55 121,-17 44,-17"/>
<text text-anchor="middle" x="82.5" y="-43" font-family="Helvetica,sans-Serif" font-size="10.00" fill="#000000">Element Data</text>
<polyline fill="none" stroke="#000000" points="44,-36 121,-36 "/>
<text text-anchor="middle" x="64.5" y="-24" font-family="Helvetica,sans-Serif" font-size="10.00" fill="#000000">age</text>
<polyline fill="none" stroke="#000000" points="85,-17 85,-36 "/>
<text text-anchor="middle" x="103" y="-24" font-family="Helvetica,sans-Serif" font-size="10.00" fill="#000000">26</text>
</a>
</g>
</g>
<!-- FE&#45;&gt;structED -->
<g id="edge2" class="edge">
<title>FE&#45;&gt;structED</title>
<path fill="none" stroke="#000000" d="M219.7785,-60.4577C193.9892,-55.863 159.2255,-49.6695 131.1346,-44.6648"/>
<polygon fill="#000000" stroke="#000000" points="131.5751,-41.1882 121.1162,-42.8799 130.3473,-48.0797 131.5751,-41.1882"/>
<text text-anchor="middle" x="184.5" y="-59" font-family="Helvetica,sans-Serif" font-size="10.00" fill="#000000">output</text>
</g>
</g>
</svg>
