<?xml version="1.0" encoding="UTF-8" standalone="no"?>
<!DOCTYPE svg PUBLIC "-//W3C//DTD SVG 1.1//EN"
 "http://www.w3.org/Graphics/SVG/1.1/DTD/svg11.dtd">
<!-- Generated by graphviz version 2.40.1 (20161225.0304)
 -->
<!-- Title: P Pages: 1 -->
<svg width="249pt" height="152pt"
 viewBox="0.00 0.00 249.00 152.00" xmlns="http://www.w3.org/2000/svg" xmlns:xlink="http://www.w3.org/1999/xlink">
<g id="graph0" class="graph" transform="scale(1 1) rotate(0) translate(4 148)">
<title>P</title>
<g id="clust1" class="cluster">
<title>clusterFD</title>
<g id="a_clust1"><a xlink:href="_concepts__data__flow_data.html#Concepts_Data_FlowData" target="_top" xlink:title="Flow Data">
<polygon fill="transparent" stroke="#000000" points="8,-8 8,-136 101,-136 101,-8 8,-8"/>
<text text-anchor="middle" x="54.5" y="-124" font-family="Helvetica,sans-Serif" font-size="10.00" fill="#000000">Flow Data</text>
</a>
</g>
</g>
<!-- E -->
<g id="node1" class="node">
<title>E</title>
<g id="a_node1"><a xlink:href="_concepts__data__evidence.html#Concepts_Data_Evidence" target="_top" xlink:title="Evidence">
<polygon fill="none" stroke="#000000" points="26,-72 26,-108 83,-108 83,-72 26,-72"/>
<text text-anchor="middle" x="54.5" y="-87.5" font-family="Helvetica,sans-Serif" font-size="10.00" fill="#000000">Evidence</text>
</a>
</g>
</g>
<!-- FE -->
<g id="node3" class="node">
<title>FE</title>
<g id="a_node3"><a xlink:href="_concepts__flow_elements__index.html#Concepts_FlowElements_Index" target="_top" xlink:title="Flow Element">
<polygon fill="none" stroke="#000000" points="164,-46 164,-82 241,-82 241,-46 164,-46"/>
<text text-anchor="middle" x="202.5" y="-61.5" font-family="Helvetica,sans-Serif" font-size="10.00" fill="#000000">Flow Element</text>
</a>
</g>
</g>
<!-- E&#45;&gt;FE -->
<g id="edge1" class="edge">
<title>E&#45;&gt;FE</title>
<path fill="none" stroke="#000000" d="M100.9954,-81.8319C117.8184,-78.8765 136.8525,-75.5327 153.8552,-72.5457"/>
<polygon fill="#000000" stroke="#000000" points="154.7334,-75.9451 163.977,-70.7676 153.5222,-69.0507 154.7334,-75.9451"/>
<text text-anchor="middle" x="128.5" y="-82" font-family="Helvetica,sans-Serif" font-size="10.00" fill="#000000">process</text>
</g>
<!-- ED -->
<g id="node2" class="node">
<title>ED</title>
<g id="a_node2"><a xlink:href="_concepts__data__element_data.html#Concepts_Data_ElementData" target="_top" xlink:title="Element Data">
<polygon fill="none" stroke="#000000" points="16,-17 16,-53 93,-53 93,-17 16,-17"/>
<text text-anchor="middle" x="54.5" y="-32.5" font-family="Helvetica,sans-Serif" font-size="10.00" fill="#000000">Element Data</text>
</a>
</g>
</g>
<!-- FE&#45;&gt;ED -->
<g id="edge2" class="edge">
<title>FE&#45;&gt;ED</title>
<path fill="none" stroke="#000000" d="M163.8744,-56.4315C145.3858,-52.8087 123.0446,-48.431 103.3862,-44.5791"/>
<polygon fill="#000000" stroke="#000000" points="103.8717,-41.1077 93.3853,-42.6194 102.5256,-47.9771 103.8717,-41.1077"/>
<text text-anchor="middle" x="128.5" y="-55" font-family="Helvetica,sans-Serif" font-size="10.00" fill="#000000">output</text>
</g>
</g>
</svg>
