<?xml version="1.0" encoding="UTF-8" standalone="no"?>
<!DOCTYPE svg PUBLIC "-//W3C//DTD SVG 1.1//EN"
 "http://www.w3.org/Graphics/SVG/1.1/DTD/svg11.dtd">
<!-- Generated by graphviz version 2.40.1 (20161225.0304)
 -->
<!-- Title: P Pages: 1 -->
<svg width="420pt" height="97pt"
 viewBox="0.00 0.00 420.00 97.00" xmlns="http://www.w3.org/2000/svg" xmlns:xlink="http://www.w3.org/1999/xlink">
<g id="graph0" class="graph" transform="scale(1 1) rotate(0) translate(4 93)">
<title>P</title>
<g id="clust1" class="cluster">
<title>clusterP</title>
<polygon fill="transparent" stroke="#000000" points="82,-8 82,-81 330,-81 330,-8 82,-8"/>
<text text-anchor="middle" x="206" y="-69" font-family="Helvetica,sans-Serif" font-size="10.00" fill="#000000">Pipeline</text>
</g>
<!-- i -->
<g id="node1" class="node">
<title>i</title>
<text text-anchor="middle" x="27" y="-32.5" font-family="Helvetica,sans-Serif" font-size="10.00" fill="#000000">in</text>
</g>
<!-- E1 -->
<g id="node2" class="node">
<title>E1</title>
<polygon fill="none" stroke="#000000" points="90,-17 90,-53 188,-53 188,-17 90,-17"/>
<text text-anchor="middle" x="139" y="-32.5" font-family="Helvetica,sans-Serif" font-size="10.00" fill="#000000">Flow Element (E1)</text>
</g>
<!-- i&#45;&gt;E1 -->
<g id="edge1" class="edge">
<title>i&#45;&gt;E1</title>
<path fill="none" stroke="#000000" d="M54.1121,-35C61.9203,-35 70.7603,-35 79.7128,-35"/>
<polygon fill="#000000" stroke="#000000" points="79.8192,-38.5001 89.8191,-35 79.8191,-31.5001 79.8192,-38.5001"/>
</g>
<!-- E2 -->
<g id="node3" class="node">
<title>E2</title>
<polygon fill="none" stroke="#000000" points="224,-17 224,-53 322,-53 322,-17 224,-17"/>
<text text-anchor="middle" x="273" y="-32.5" font-family="Helvetica,sans-Serif" font-size="10.00" fill="#000000">Flow Element (E2)</text>
</g>
<!-- E1&#45;&gt;E2 -->
<g id="edge2" class="edge">
<title>E1&#45;&gt;E2</title>
<path fill="none" stroke="#000000" d="M188.1358,-35C196.4198,-35 205.097,-35 213.6082,-35"/>
<polygon fill="#000000" stroke="#000000" points="213.8702,-38.5001 223.8702,-35 213.8701,-31.5001 213.8702,-38.5001"/>
</g>
<!-- o -->
<g id="node4" class="node">
<title>o</title>
<text text-anchor="middle" x="385" y="-32.5" font-family="Helvetica,sans-Serif" font-size="10.00" fill="#000000">out</text>
</g>
<!-- E2&#45;&gt;o -->
<g id="edge3" class="edge">
<title>E2&#45;&gt;o</title>
<path fill="none" stroke="#000000" d="M322.1248,-35C330.7207,-35 339.5361,-35 347.7441,-35"/>
<polygon fill="#000000" stroke="#000000" points="347.7539,-38.5001 357.7539,-35 347.7538,-31.5001 347.7539,-38.5001"/>
</g>
</g>
</svg>
