<?xml version="1.0" encoding="UTF-8" standalone="no"?>
<!DOCTYPE svg PUBLIC "-//W3C//DTD SVG 1.1//EN"
 "http://www.w3.org/Graphics/SVG/1.1/DTD/svg11.dtd">
<!-- Generated by graphviz version 2.40.1 (20161225.0304)
 -->
<!-- Title: H Pages: 1 -->
<svg width="283pt" height="377pt"
 viewBox="0.00 0.00 283.30 376.80" xmlns="http://www.w3.org/2000/svg" xmlns:xlink="http://www.w3.org/1999/xlink">
<g id="graph0" class="graph" transform="scale(1 1) rotate(0) translate(14.4 362.4)">
<title>H</title>
<g id="clust1" class="cluster">
<title>clusterFlowElement</title>
<g id="a_clust1"><a xlink:href="_concepts__flow_elements__flow_element.html#Concepts_FlowElements_FlowElement" target="_top" xlink:title="&lt;B&gt;Flow Element&lt;/B&gt;">
<polygon fill="transparent" stroke="#000000" points="36,-247 36,-340 176,-340 176,-247 36,-247"/>
<text text-anchor="start" x="74" y="-329" font-family="Helvetica,sans-Serif" font-weight="bold" font-size="10.00" fill="#000000">Flow Element</text>
</a>
</g>
</g>
<g id="clust2" class="cluster">
<title>clusterAspectEngine</title>
<g id="a_clust2"><a xlink:href="_concepts__flow_elements__aspect_engine.html#Concepts_FlowElements_AspectEngine" target="_top" xlink:title="&lt;B&gt;Aspect Engine&lt;/B&gt;">
<polygon fill="transparent" stroke="#000000" points="32,-117 32,-210 180,-210 180,-117 32,-117"/>
<text text-anchor="start" x="71.5" y="-199" font-family="Helvetica,sans-Serif" font-weight="bold" font-size="10.00" fill="#000000">Aspect Engine</text>
</a>
</g>
</g>
<g id="clust3" class="cluster">
<title>clusterOnPremiseAspectEngine</title>
<g id="a_clust3"><a xlink:href="_concepts__flow_elements__on_premise_engine.html#Concepts_FlowElements_OnPremiseEngine" target="_top" xlink:title="&lt;B&gt;On&#45;Premise Engine&lt;/B&gt;">
<polygon fill="transparent" stroke="#000000" points="8,-8 8,-80 116,-80 116,-8 8,-8"/>
<text text-anchor="start" x="16.5" y="-69" font-family="Helvetica,sans-Serif" font-weight="bold" font-size="10.00" fill="#000000">On&#45;Premise Engine</text>
</a>
</g>
</g>
<!-- FE -->
<g id="node1" class="node">
<title>FE</title>
<polygon fill="none" stroke="#000000" points="44,-255.5 44,-312.5 168,-312.5 168,-255.5 44,-255.5"/>
<text text-anchor="middle" x="106" y="-300.5" font-family="Helvetica,sans-Serif" font-size="10.00" fill="#000000">Element Properties</text>
<polyline fill="none" stroke="#000000" points="44,-293.5 168,-293.5 "/>
<text text-anchor="middle" x="106" y="-281.5" font-family="Helvetica,sans-Serif" font-size="10.00" fill="#000000">Element Data</text>
<polyline fill="none" stroke="#000000" points="44,-274.5 168,-274.5 "/>
<text text-anchor="middle" x="106" y="-262.5" font-family="Helvetica,sans-Serif" font-size="10.00" fill="#000000">Logging of Process calls</text>
</g>
<!-- AE -->
<g id="node2" class="node">
<title>AE</title>
<polygon fill="none" stroke="#000000" points="40.5,-125.5 40.5,-182.5 171.5,-182.5 171.5,-125.5 40.5,-125.5"/>
<text text-anchor="middle" x="106" y="-170.5" font-family="Helvetica,sans-Serif" font-size="10.00" fill="#000000">Result Caching</text>
<polyline fill="none" stroke="#000000" points="40.5,-163.5 171.5,-163.5 "/>
<text text-anchor="middle" x="106" y="-151.5" font-family="Helvetica,sans-Serif" font-size="10.00" fill="#000000">Lazy Loading</text>
<polyline fill="none" stroke="#000000" points="40.5,-144.5 171.5,-144.5 "/>
<text text-anchor="middle" x="106" y="-132.5" font-family="Helvetica,sans-Serif" font-size="10.00" fill="#000000">Missing Property Handling</text>
</g>
<!-- FE&#45;&gt;AE -->
<g id="edge1" class="edge">
<title>FE&#45;&gt;AE</title>
<path fill="none" stroke="#000000" d="M106,-247.0045C106,-238.6449 106,-229.5211 106,-220.3613"/>
<polygon fill="#000000" stroke="#000000" points="109.5001,-219.9976 106,-209.9977 102.5001,-219.9977 109.5001,-219.9976"/>
</g>
<!-- OPE -->
<g id="node3" class="node">
<title>OPE</title>
<polygon fill="none" stroke="#000000" points="16.5,-16.5 16.5,-52.5 107.5,-52.5 107.5,-16.5 16.5,-16.5"/>
<text text-anchor="middle" x="62" y="-32" font-family="Helvetica,sans-Serif" font-size="10.00" fill="#000000">Data file updates</text>
</g>
<!-- AE&#45;&gt;OPE -->
<g id="edge2" class="edge">
<title>AE&#45;&gt;OPE</title>
<path fill="none" stroke="#000000" d="M92.378,-117.0038C89.1596,-108.2629 85.6599,-98.7582 82.2188,-89.4124"/>
<polygon fill="#000000" stroke="#000000" points="85.4919,-88.172 78.7521,-79.9973 78.923,-90.5907 85.4919,-88.172"/>
</g>
<!-- CE -->
<g id="node4" class="node">
<title>CE</title>
<g id="a_node4"><a xlink:href="_concepts__flow_elements__cloud_engine.html#Concepts_FlowElements_CloudEngine" target="_top" xlink:title="Cloud Engine">
<polygon fill="none" stroke="#000000" points="179.5,-16.5 179.5,-52.5 254.5,-52.5 254.5,-16.5 179.5,-16.5"/>
<text text-anchor="middle" x="217" y="-32" font-family="Helvetica,sans-Serif" font-size="10.00" fill="#000000">Cloud Engine</text>
</a>
</g>
</g>
<!-- AE&#45;&gt;CE -->
<g id="edge3" class="edge">
<title>AE&#45;&gt;CE</title>
<path fill="none" stroke="#000000" d="M140.3643,-117.0042C157.4272,-98.6347 177.6234,-76.8919 192.9983,-60.3396"/>
<polygon fill="#000000" stroke="#000000" points="195.7103,-62.5628 199.9516,-52.8539 190.5815,-57.7988 195.7103,-62.5628"/>
</g>
</g>
</svg>
