<?xml version="1.0" encoding="UTF-8" standalone="no"?>
<!DOCTYPE svg PUBLIC "-//W3C//DTD SVG 1.1//EN"
 "http://www.w3.org/Graphics/SVG/1.1/DTD/svg11.dtd">
<!-- Generated by graphviz version 2.40.1 (20161225.0304)
 -->
<!-- Title: %3 Pages: 1 -->
<svg width="546pt" height="109pt"
 viewBox="0.00 0.00 546.00 109.00" xmlns="http://www.w3.org/2000/svg" xmlns:xlink="http://www.w3.org/1999/xlink">
<g id="graph0" class="graph" transform="scale(1 1) rotate(0) translate(4 105)">
<title>%3</title>
<g id="clust1" class="cluster">
<title>clusterPipeline</title>
<g id="a_clust1"><a xlink:href="_concepts__pipeline.html#Concepts_Pipeline" target="_top" xlink:title="Pipeline">
<polygon fill="transparent" stroke="#000000" points="83,-8 83,-93 455,-93 455,-8 83,-8"/>
<text text-anchor="middle" x="269" y="-81" font-family="Helvetica,sans-Serif" font-size="10.00" fill="#000000">Pipeline</text>
</a>
</g>
</g>
<!-- arrow1 -->
<g id="node1" class="node">
<title>arrow1</title>
<text text-anchor="middle" x="27" y="-38.5" font-family="Helvetica,sans-Serif" font-size="10.00" fill="#000000">1</text>
</g>
<!-- structH -->
<g id="node2" class="node">
<title>structH</title>
<g id="a_node2"><a xlink:href="_device_detection__overview.html#DeviceDetection_Overview" target="_top" xlink:title="&lt;DDH&gt;DeviceDetectionEngine\n(Hardware)|{&lt;DK&gt;Element data key|&lt;DKV&gt;device}">
<polygon fill="none" stroke="#000000" points="91,-16.5 91,-65.5 229,-65.5 229,-16.5 91,-16.5"/>
<text text-anchor="middle" x="160" y="-53.5" font-family="Helvetica,sans-Serif" font-size="10.00" fill="#000000">DeviceDetectionEngine</text>
<text text-anchor="middle" x="160" y="-42.5" font-family="Helvetica,sans-Serif" font-size="10.00" fill="#000000">(Hardware)</text>
<polyline fill="none" stroke="#000000" points="91,-35.5 229,-35.5 "/>
<text text-anchor="middle" x="137.5" y="-23.5" font-family="Helvetica,sans-Serif" font-size="10.00" fill="#000000">Element data key</text>
<polyline fill="none" stroke="#000000" points="184,-16.5 184,-35.5 "/>
<text text-anchor="middle" x="206.5" y="-23.5" font-family="Helvetica,sans-Serif" font-size="10.00" fill="#000000">device</text>
</a>
</g>
</g>
<!-- arrow1&#45;&gt;structH -->
<g id="edge1" class="edge">
<title>arrow1&#45;&gt;structH</title>
<path fill="none" stroke="#000000" d="M54.2355,-41C62.1048,-41 71.117,-41 80.488,-41"/>
<polygon fill="#000000" stroke="#000000" points="80.7602,-44.5001 90.7602,-41 80.7602,-37.5001 80.7602,-44.5001"/>
</g>
<!-- structP -->
<g id="node3" class="node">
<title>structP</title>
<g id="a_node3"><a xlink:href="_device_detection__overview.html#DeviceDetection_Overview" target="_top" xlink:title="&lt;DDH&gt;DeviceDetectionEngine\n(Platform/OS)|{&lt;DK&gt;Element data key|&lt;DKV&gt;device}">
<polygon fill="none" stroke="#000000" points="309,-16.5 309,-65.5 447,-65.5 447,-16.5 309,-16.5"/>
<text text-anchor="middle" x="378" y="-53.5" font-family="Helvetica,sans-Serif" font-size="10.00" fill="#000000">DeviceDetectionEngine</text>
<text text-anchor="middle" x="378" y="-42.5" font-family="Helvetica,sans-Serif" font-size="10.00" fill="#000000">(Platform/OS)</text>
<polyline fill="none" stroke="#000000" points="309,-35.5 447,-35.5 "/>
<text text-anchor="middle" x="355.5" y="-23.5" font-family="Helvetica,sans-Serif" font-size="10.00" fill="#000000">Element data key</text>
<polyline fill="none" stroke="#000000" points="402,-16.5 402,-35.5 "/>
<text text-anchor="middle" x="424.5" y="-23.5" font-family="Helvetica,sans-Serif" font-size="10.00" fill="#000000">device</text>
</a>
</g>
</g>
<!-- structH&#45;&gt;structP -->
<g id="edge2" class="edge">
<title>structH&#45;&gt;structP</title>
<path fill="none" stroke="#000000" d="M229.2761,-41C251.3319,-41 275.9015,-41 298.6147,-41"/>
<polygon fill="#000000" stroke="#000000" points="298.9042,-44.5001 308.9041,-41 298.9041,-37.5001 298.9042,-44.5001"/>
<text text-anchor="middle" x="269" y="-44" font-family="Helvetica,sans-Serif" font-size="10.00" fill="#000000">2</text>
</g>
<!-- arrow3 -->
<g id="node4" class="node">
<title>arrow3</title>
<text text-anchor="middle" x="511" y="-38.5" font-family="Helvetica,sans-Serif" font-size="10.00" fill="#000000">3</text>
</g>
<!-- structP&#45;&gt;arrow3 -->
<g id="edge3" class="edge">
<title>structP&#45;&gt;arrow3</title>
<path fill="none" stroke="#000000" d="M447.2269,-41C456.3692,-41 465.4426,-41 473.7546,-41"/>
<polygon fill="#000000" stroke="#000000" points="473.8236,-44.5001 483.8235,-41 473.8235,-37.5001 473.8236,-44.5001"/>
</g>
</g>
</svg>
