<?xml version="1.0" encoding="UTF-8" standalone="no"?>
<!DOCTYPE svg PUBLIC "-//W3C//DTD SVG 1.1//EN"
 "http://www.w3.org/Graphics/SVG/1.1/DTD/svg11.dtd">
<!-- Generated by graphviz version 2.40.1 (20161225.0304)
 -->
<!-- Title: H Pages: 1 -->
<svg width="359pt" height="337pt"
 viewBox="0.00 0.00 358.50 337.00" xmlns="http://www.w3.org/2000/svg" xmlns:xlink="http://www.w3.org/1999/xlink">
<g id="graph0" class="graph" transform="scale(1 1) rotate(0) translate(4 333)">
<title>H</title>
<!-- FE -->
<g id="node1" class="node">
<title>FE</title>
<g id="a_node1"><a xlink:href="_concepts__flow_elements__flow_element.html#Concepts_FlowElements_FlowElement" target="_top" xlink:title="Flow Element">
<polygon fill="none" stroke="#000000" points="273.5,-292.5 273.5,-328.5 350.5,-328.5 350.5,-292.5 273.5,-292.5"/>
<text text-anchor="middle" x="312" y="-308" font-family="Helvetica,sans-Serif" font-size="10.00" fill="#000000">Flow Element</text>
</a>
</g>
</g>
<!-- AE -->
<g id="node2" class="node">
<title>AE</title>
<g id="a_node2"><a xlink:href="_concepts__flow_elements__aspect_engine.html#Concepts_FlowElements_AspectEngine" target="_top" xlink:title="Aspect Engine">
<polygon fill="none" stroke="#000000" points="238,-219.5 238,-255.5 318,-255.5 318,-219.5 238,-219.5"/>
<text text-anchor="middle" x="278" y="-235" font-family="Helvetica,sans-Serif" font-size="10.00" fill="#000000">Aspect Engine</text>
</a>
</g>
</g>
<!-- FE&#45;&gt;AE -->
<g id="edge1" class="edge">
<title>FE&#45;&gt;AE</title>
<path fill="none" stroke="#000000" d="M303.5955,-292.4551C299.7132,-284.1196 295.0194,-274.0416 290.717,-264.8042"/>
<polygon fill="#000000" stroke="#000000" points="293.8205,-263.1776 286.4256,-255.5904 287.475,-266.1331 293.8205,-263.1776"/>
</g>
<!-- I -->
<g id="node6" class="node">
<title>I</title>
<polygon fill="none" stroke="#000000" points="201.5,-.5 201.5,-36.5 290.5,-36.5 290.5,-.5 201.5,-.5"/>
<text text-anchor="middle" x="246" y="-16" font-family="Helvetica,sans-Serif" font-size="10.00" fill="#000000">Implementations</text>
</g>
<!-- FE&#45;&gt;I -->
<g id="edge5" class="edge">
<title>FE&#45;&gt;I</title>
<path fill="none" stroke="#000000" stroke-dasharray="5,2" d="M318.395,-292.0912C321.6849,-281.6479 325.3445,-268.2539 327,-256 334.8851,-197.6365 316.7557,-85.6456 310,-73 303.8142,-61.4211 294.0736,-51.2504 284.0401,-42.9278"/>
<polygon fill="#000000" stroke="#000000" points="286.0324,-40.0432 275.993,-36.658 281.7301,-45.5651 286.0324,-40.0432"/>
</g>
<!-- OPE -->
<g id="node4" class="node">
<title>OPE</title>
<g id="a_node4"><a xlink:href="_concepts__flow_elements__on_premise_engine.html#Concepts_FlowElements_OnPremiseEngine" target="_top" xlink:title="On&#45;Premise Engine">
<polygon fill="none" stroke="#000000" points="129.5,-146.5 129.5,-182.5 230.5,-182.5 230.5,-146.5 129.5,-146.5"/>
<text text-anchor="middle" x="180" y="-162" font-family="Helvetica,sans-Serif" font-size="10.00" fill="#000000">On&#45;Premise Engine</text>
</a>
</g>
</g>
<!-- AE&#45;&gt;OPE -->
<g id="edge2" class="edge">
<title>AE&#45;&gt;OPE</title>
<path fill="none" stroke="#000000" d="M253.7753,-219.4551C241.2895,-210.1545 225.8914,-198.6844 212.398,-188.6332"/>
<polygon fill="#000000" stroke="#000000" points="214.3961,-185.7573 204.2857,-182.5904 210.2145,-191.371 214.3961,-185.7573"/>
</g>
<!-- CE -->
<g id="node5" class="node">
<title>CE</title>
<g id="a_node5"><a xlink:href="_concepts__flow_elements__cloud_engine.html#Concepts_FlowElements_CloudEngine" target="_top" xlink:title="Cloud Engine">
<polygon fill="none" stroke="#000000" points="208.5,-73.5 208.5,-109.5 283.5,-109.5 283.5,-73.5 208.5,-73.5"/>
<text text-anchor="middle" x="246" y="-89" font-family="Helvetica,sans-Serif" font-size="10.00" fill="#000000">Cloud Engine</text>
</a>
</g>
</g>
<!-- AE&#45;&gt;CE -->
<g id="edge4" class="edge">
<title>AE&#45;&gt;CE</title>
<path fill="none" stroke="#000000" d="M274.0119,-219.3042C268.5505,-194.3868 258.6891,-149.3938 252.2439,-119.9877"/>
<polygon fill="#000000" stroke="#000000" points="255.5983,-118.9439 250.0384,-109.9251 248.7606,-120.4426 255.5983,-118.9439"/>
</g>
<!-- AE&#45;&gt;I -->
<g id="edge6" class="edge">
<title>AE&#45;&gt;I</title>
<path fill="none" stroke="#000000" stroke-dasharray="5,2" d="M284.6706,-219.2955C294.9776,-188.2177 311.7314,-123.4022 293,-73 289.1079,-62.5272 282.2002,-52.7211 274.8586,-44.3937"/>
<polygon fill="#000000" stroke="#000000" points="277.1818,-41.7562 267.771,-36.8893 272.0928,-46.5626 277.1818,-41.7562"/>
</g>
<!-- FODE -->
<g id="node3" class="node">
<title>FODE</title>
<g id="a_node3"><a xlink:href="_concepts__flow_elements__fifty_one_on_premise_engine.html#Concepts_FlowElements_FiftyOneOnPremiseEngine" target="_top" xlink:title="51Degrees On&#45;Premise Engine">
<polygon fill="none" stroke="#000000" points="0,-73.5 0,-109.5 152,-109.5 152,-73.5 0,-73.5"/>
<text text-anchor="middle" x="76" y="-89" font-family="Helvetica,sans-Serif" font-size="10.00" fill="#000000">51Degrees On&#45;Premise Engine</text>
</a>
</g>
</g>
<!-- FODE&#45;&gt;I -->
<g id="edge7" class="edge">
<title>FODE&#45;&gt;I</title>
<path fill="none" stroke="#000000" stroke-dasharray="5,2" d="M118.0225,-73.4551C141.1117,-63.5403 169.9424,-51.16 194.391,-40.6615"/>
<polygon fill="#000000" stroke="#000000" points="196.0641,-43.7522 203.8718,-36.5904 193.3021,-37.3201 196.0641,-43.7522"/>
</g>
<!-- OPE&#45;&gt;FODE -->
<g id="edge3" class="edge">
<title>OPE&#45;&gt;FODE</title>
<path fill="none" stroke="#000000" d="M154.2921,-146.4551C140.917,-137.0667 124.3925,-125.4678 109.9768,-115.3491"/>
<polygon fill="#000000" stroke="#000000" points="111.9683,-112.4709 101.7726,-109.5904 107.9467,-118.2003 111.9683,-112.4709"/>
</g>
<!-- OPE&#45;&gt;I -->
<g id="edge8" class="edge">
<title>OPE&#45;&gt;I</title>
<path fill="none" stroke="#000000" stroke-dasharray="5,2" d="M181.3598,-146.4587C183.3752,-127.3667 188.2783,-96.7717 200,-73 205.1147,-62.6273 212.621,-52.5684 220.0926,-43.9753"/>
<polygon fill="#000000" stroke="#000000" points="222.7289,-46.2786 226.8751,-36.5287 217.5538,-41.565 222.7289,-46.2786"/>
</g>
<!-- CE&#45;&gt;I -->
<g id="edge9" class="edge">
<title>CE&#45;&gt;I</title>
<path fill="none" stroke="#000000" stroke-dasharray="5,2" d="M246,-73.4551C246,-65.3828 246,-55.6764 246,-46.6817"/>
<polygon fill="#000000" stroke="#000000" points="249.5001,-46.5903 246,-36.5904 242.5001,-46.5904 249.5001,-46.5903"/>
</g>
</g>
</svg>
