<?xml version="1.0" encoding="UTF-8" standalone="no"?>
<!DOCTYPE svg PUBLIC "-//W3C//DTD SVG 1.1//EN"
 "http://www.w3.org/Graphics/SVG/1.1/DTD/svg11.dtd">
<!-- Generated by graphviz version 2.40.1 (20161225.0304)
 -->
<!-- Title: P Pages: 1 -->
<svg width="243pt" height="129pt"
 viewBox="0.00 0.00 242.79 129.00" xmlns="http://www.w3.org/2000/svg" xmlns:xlink="http://www.w3.org/1999/xlink">
<g id="graph0" class="graph" transform="scale(1 1) rotate(0) translate(4 125)">
<title>P</title>
<!-- E1 -->
<g id="node1" class="node">
<title>E1</title>
<polygon fill="none" stroke="#000000" points="33.787,-84.5 33.787,-120.5 101.787,-120.5 101.787,-84.5 33.787,-84.5"/>
<text text-anchor="middle" x="67.787" y="-100" font-family="Helvetica,sans-Serif" font-size="10.00" fill="#000000">date of birth</text>
</g>
<!-- FE -->
<g id="node3" class="node">
<title>FE</title>
<polygon fill="none" stroke="#000000" points="86.287,-.5 86.287,-36.5 159.287,-36.5 159.287,-.5 86.287,-.5"/>
<text text-anchor="middle" x="122.787" y="-16" font-family="Helvetica,sans-Serif" font-size="10.00" fill="#000000">Age Element</text>
</g>
<!-- E1&#45;&gt;FE -->
<g id="edge1" class="edge">
<title>E1&#45;&gt;FE</title>
<path fill="none" stroke="#000000" d="M33.624,-91.8535C12.782,-83.5048 -7.8109,-70.6886 3.787,-55 12.664,-42.9921 46.6391,-33.3114 76.0261,-26.945"/>
<polygon fill="#000000" stroke="#000000" points="77.1028,-30.296 86.1806,-24.8329 75.6773,-23.4427 77.1028,-30.296"/>
<text text-anchor="middle" x="42.787" y="-58" font-family="Helvetica,sans-Serif" font-size="10.00" fill="#000000">do you want this?</text>
</g>
<!-- E2 -->
<g id="node2" class="node">
<title>E2</title>
<polygon fill="none" stroke="#000000" points="147.787,-84.5 147.787,-120.5 209.787,-120.5 209.787,-84.5 147.787,-84.5"/>
<text text-anchor="middle" x="178.787" y="-100" font-family="Helvetica,sans-Serif" font-size="10.00" fill="#000000">hometown</text>
</g>
<!-- E2&#45;&gt;FE -->
<g id="edge3" class="edge">
<title>E2&#45;&gt;FE</title>
<path fill="none" stroke="#000000" d="M158.9073,-84.2661C153.5673,-78.7369 148.0876,-72.4182 143.787,-66 139.7405,-59.9608 136.1598,-53.0142 133.153,-46.3307"/>
<polygon fill="#000000" stroke="#000000" points="136.2742,-44.724 129.1707,-36.8633 129.8218,-47.4381 136.2742,-44.724"/>
<text text-anchor="middle" x="182.787" y="-58" font-family="Helvetica,sans-Serif" font-size="10.00" fill="#000000">do you want this?</text>
</g>
<!-- FE&#45;&gt;E1 -->
<g id="edge2" class="edge">
<title>FE&#45;&gt;E1</title>
<path fill="none" stroke="#000000" d="M110.8762,-36.6912C103.3853,-48.1317 93.5901,-63.0916 85.232,-75.8567"/>
<polygon fill="#000000" stroke="#000000" points="82.271,-73.9898 79.7212,-84.2733 88.1273,-77.8243 82.271,-73.9898"/>
<text text-anchor="middle" x="106.787" y="-58" font-family="Helvetica,sans-Serif" font-size="10.00" fill="#000000">yes</text>
</g>
<!-- FE&#45;&gt;E2 -->
<g id="edge4" class="edge">
<title>FE&#45;&gt;E2</title>
<path fill="none" stroke="#000000" d="M159.5103,-27.3482C184.4935,-34.1964 214.323,-44.293 221.787,-55 227.3214,-62.9389 224.1279,-70.9678 217.4995,-78.1086"/>
<polygon fill="#000000" stroke="#000000" points="215.0213,-75.6301 209.9223,-84.9172 219.6999,-80.8369 215.0213,-75.6301"/>
<text text-anchor="middle" x="229.287" y="-58" font-family="Helvetica,sans-Serif" font-size="10.00" fill="#000000">no</text>
</g>
</g>
</svg>
