<?xml version="1.0" encoding="UTF-8" standalone="no"?>
<!DOCTYPE svg PUBLIC "-//W3C//DTD SVG 1.1//EN"
 "http://www.w3.org/Graphics/SVG/1.1/DTD/svg11.dtd">
<!-- Generated by graphviz version 2.40.1 (20161225.0304)
 -->
<!-- Title: pipelineflow Pages: 1 -->
<svg width="142pt" height="129pt"
 viewBox="0.00 0.00 142.47 129.00" xmlns="http://www.w3.org/2000/svg" xmlns:xlink="http://www.w3.org/1999/xlink">
<g id="graph0" class="graph" transform="scale(1 1) rotate(0) translate(4 125)">
<title>pipelineflow</title>
<!-- P -->
<g id="node1" class="node">
<title>P</title>
<polygon fill="none" stroke="#000000" points="33.4715,-84.5 33.4715,-120.5 87.4715,-120.5 87.4715,-84.5 33.4715,-84.5"/>
<text text-anchor="middle" x="60.4715" y="-100" font-family="Helvetica,sans-Serif" font-size="10.00" fill="#000000">Pipeline</text>
</g>
<!-- FD -->
<g id="node2" class="node">
<title>FD</title>
<g id="a_node2"><a xlink:href="_concepts__data__flow_data.html#Concepts_Data_FlowData" target="_top" xlink:title="Flow Data">
<polygon fill="none" stroke="#000000" points="29.4715,-.5 29.4715,-36.5 91.4715,-36.5 91.4715,-.5 29.4715,-.5"/>
<text text-anchor="middle" x="60.4715" y="-16" font-family="Helvetica,sans-Serif" font-size="10.00" fill="#000000">Flow Data</text>
</a>
</g>
</g>
<!-- P&#45;&gt;FD -->
<g id="edge1" class="edge">
<title>P&#45;&gt;FD</title>
<path fill="none" stroke="#000000" d="M33.3913,-92.5306C21.6773,-86.7082 9.1432,-78.0813 2.4715,-66 -4.7188,-52.9794 6.069,-42.1179 20.2165,-34.0826"/>
<polygon fill="#000000" stroke="#000000" points="22.0003,-37.1022 29.3288,-29.4507 18.8284,-30.8621 22.0003,-37.1022"/>
<text text-anchor="middle" x="16.4715" y="-58" font-family="Helvetica,sans-Serif" font-size="10.00" fill="#000000">create</text>
</g>
<!-- P&#45;&gt;FD -->
<g id="edge3" class="edge">
<title>P&#45;&gt;FD</title>
<path fill="none" stroke="#00ff00" d="M59.2786,-84.3136C58.9478,-78.4685 58.6348,-71.9633 58.4715,-66 58.3008,-59.763 58.4053,-53.0676 58.6373,-46.7284"/>
<polygon fill="#00ff00" stroke="#00ff00" points="62.1428,-46.6953 59.1222,-36.5401 55.1507,-46.3624 62.1428,-46.6953"/>
</g>
<!-- FD&#45;&gt;P -->
<g id="edge2" class="edge">
<title>FD&#45;&gt;P</title>
<path fill="none" stroke="#00ff00" d="M60.4715,-36.6912C60.4715,-47.5817 60.4715,-61.6613 60.4715,-74.001"/>
<polygon fill="#00ff00" stroke="#00ff00" points="56.9716,-74.2732 60.4715,-84.2733 63.9716,-74.2733 56.9716,-74.2732"/>
<text text-anchor="middle" x="77.9715" y="-58" font-family="Helvetica,sans-Serif" font-size="10.00" fill="#000000">process</text>
</g>
<!-- FD&#45;&gt;P -->
<g id="edge4" class="edge">
<title>FD&#45;&gt;P</title>
<path fill="none" stroke="#000000" d="M88.615,-36.7199C97.5981,-44.948 104.142,-55.2322 99.4715,-66 97.8571,-69.7221 95.6554,-73.2381 93.1144,-76.5096"/>
<polygon fill="#000000" stroke="#000000" points="90.3481,-74.3505 86.2401,-84.1166 95.5417,-79.0439 90.3481,-74.3505"/>
<text text-anchor="middle" x="117.4715" y="-58" font-family="Helvetica,sans-Serif" font-size="10.00" fill="#000000">dispose</text>
</g>
</g>
</svg>
