<?xml version="1.0" encoding="UTF-8" standalone="no"?>
<!DOCTYPE svg PUBLIC "-//W3C//DTD SVG 1.1//EN"
 "http://www.w3.org/Graphics/SVG/1.1/DTD/svg11.dtd">
<!-- Generated by graphviz version 2.40.1 (20161225.0304)
 -->
<!-- Title: %3 Pages: 1 -->
<svg width="209pt" height="152pt"
 viewBox="0.00 0.00 209.00 152.00" xmlns="http://www.w3.org/2000/svg" xmlns:xlink="http://www.w3.org/1999/xlink">
<g id="graph0" class="graph" transform="scale(1 1) rotate(0) translate(4 148)">
<title>%3</title>
<g id="clust1" class="cluster">
<title>clusterFlowData</title>
<g id="a_clust1"><a xlink:href="_concepts__data__flow_data.html#Concepts_Data_FlowData" target="_top" xlink:title="Flow data">
<polygon fill="transparent" stroke="#000000" points="8,-8 8,-136 106,-136 106,-8 8,-8"/>
<text text-anchor="middle" x="57" y="-124" font-family="Helvetica,sans-Serif" font-size="10.00" fill="#000000">Flow data</text>
</a>
</g>
</g>
<g id="clust2" class="cluster">
<title>clusterEvidence</title>
<g id="a_clust2"><a xlink:href="_concepts__data__evidence.html#Concepts_Data_Evidence" target="_top" xlink:title="Evidence">
<polygon fill="transparent" stroke="#000000" points="16,-16 16,-109 98,-109 98,-16 16,-16"/>
<text text-anchor="middle" x="57" y="-97" font-family="Helvetica,sans-Serif" font-size="10.00" fill="#000000">Evidence</text>
</a>
</g>
</g>
<g id="clust3" class="cluster">
<title>clusterDataKey</title>
<polygon fill="transparent" stroke="#000000" points="118,-15 118,-90 193,-90 193,-15 118,-15"/>
<text text-anchor="start" x="135.5" y="-79" font-family="Helvetica,sans-Serif" font-weight="bold" font-size="10.00" fill="#000000">Data key</text>
</g>
<!-- Keys1 -->
<g id="node1" class="node">
<title>Keys1</title>
<polygon fill="none" stroke="#000000" points="24,-24.5 24,-81.5 90,-81.5 90,-24.5 24,-24.5"/>
<text text-anchor="middle" x="57" y="-69.5" font-family="Helvetica,sans-Serif" font-size="10.00" fill="#000000">User&#45;Agent</text>
<polyline fill="none" stroke="#000000" points="24,-62.5 90,-62.5 "/>
<text text-anchor="middle" x="57" y="-50.5" font-family="Helvetica,sans-Serif" font-size="10.00" fill="#000000">Latitude</text>
<polyline fill="none" stroke="#000000" points="24,-43.5 90,-43.5 "/>
<text text-anchor="middle" x="57" y="-31.5" font-family="Helvetica,sans-Serif" font-size="10.00" fill="#000000">Longitude</text>
</g>
<!-- Keys2 -->
<g id="node2" class="node">
<title>Keys2</title>
<polygon fill="none" stroke="#000000" points="126,-24 126,-62 185,-62 185,-24 126,-24"/>
<text text-anchor="middle" x="155.5" y="-50" font-family="Helvetica,sans-Serif" font-size="10.00" fill="#000000">Latitude</text>
<polyline fill="none" stroke="#000000" points="126,-43 185,-43 "/>
<text text-anchor="middle" x="155.5" y="-31" font-family="Helvetica,sans-Serif" font-size="10.00" fill="#000000">Longitude</text>
</g>
<!-- Keys1&#45;&gt;Keys2 -->
<g id="edge1" class="edge">
<title>Keys1:lat&#45;&gt;Keys2:lat</title>
<path fill="none" stroke="#000000" d="M90,-53C101.7101,-53 106.9018,-53 115.2509,-53"/>
<polygon fill="#000000" stroke="#000000" points="115.5,-56.5001 125.5,-53 115.5,-49.5001 115.5,-56.5001"/>
</g>
<!-- Keys1&#45;&gt;Keys2 -->
<g id="edge2" class="edge">
<title>Keys1:lon&#45;&gt;Keys2:lon</title>
<path fill="none" stroke="#000000" d="M90,-34C101.7147,-34 106.9008,-33.4492 115.2492,-33.1651"/>
<polygon fill="#000000" stroke="#000000" points="115.5577,-36.6607 125.5,-33 115.4449,-29.6616 115.5577,-36.6607"/>
</g>
</g>
</svg>
