<?xml version="1.0" encoding="utf-8"?>
<svg xmlns:xlink="http://www.w3.org/1999/xlink" viewBox="0 0 126.6396484375 70.45840454101562" version="1.1" style="font-synthesis: none;" xmlns="http://www.w3.org/2000/svg">
  <style></style>
  <defs />
  <style>	</style>
  <path d="M 0 0 L 126.6396484375 0 L 126.6396484375 70.45840454101562 L 0 70.45840454101562 Z " stroke="none" fill-rule="nonzero" fill="#FFFFFF" fill-opacity="0" transform="matrix(1,0,0,1,0,0)" />
  <path d="M 0 -58.45840072631836 L 126.6396484375 -58.45840072631836 L 126.6396484375 0 L 0 0 Z " stroke="none" fill-rule="evenodd" fill="#000000" fill-opacity="0" transform="matrix(1,0,0,-1,0,0)" />
  <path d="M 14.186666488647461 12.973332405090332 C 14.186666488647461 13.029333114624023, 14.149333000183105 13.15999984741211, 13.981332778930664 13.15999984741211 C 13.925333023071289 13.15999984741211, 13.906665802001953 13.141332626342773, 13.701333045959473 12.935999870300293 L 12.39466667175293 11.498665809631348 C 12.226666450500488 11.75999927520752, 11.368000030517578 13.15999984741211, 9.295999526977539 13.15999984741211 C 5.133333206176758 13.15999984741211, 0.9333332777023315 9.034666061401367, 0.9333332777023315 4.703999996185303 C 0.9333332777023315 1.6239999532699585, 3.135999917984009 -0.41066664457321167, 5.991999626159668 -0.41066664457321167 C 7.615999698638916 -0.41066664457321167, 9.034666061401367 0.335999995470047, 10.023999214172363 1.1946666240692139 C 11.75999927520752 2.7253332138061523, 12.077332496643066 4.423999786376953, 12.077332496643066 4.480000019073486 C 12.077332496643066 4.666666507720947, 11.85333251953125 4.666666507720947, 11.85333251953125 4.666666507720947 C 11.7413330078125 4.666666507720947, 11.64799976348877 4.629333019256592, 11.610666275024414 4.480000019073486 C 11.442666053771973 3.938666582107544, 11.013333320617676 2.613333225250244, 9.725333213806152 1.5306665897369385 C 8.437333106994629 0.48533332347869873, 7.261332988739014 0.1679999977350235, 6.290666580200195 0.1679999977350235 C 4.610666275024414 0.1679999977350235, 2.631999969482422 1.1386666297912598, 2.631999969482422 4.050666332244873 C 2.631999969482422 5.11466646194458, 3.0239999294281006 8.138666152954102, 4.890666484832764 10.32266616821289 C 6.029333114624023 11.64799976348877, 7.783999919891357 12.58133316040039, 9.445332527160645 12.58133316040039 C 11.349332809448242 12.58133316040039, 12.450666427612305 11.144000053405762, 12.450666427612305 8.978666305541992 C 12.450666427612305 8.231999397277832, 12.39466667175293 8.213333129882812, 12.39466667175293 8.026666641235352 C 12.39466667175293 7.839999675750732, 12.59999942779541 7.839999675750732, 12.674666404724121 7.839999675750732 C 12.917332649230957 7.839999675750732, 12.917332649230957 7.877333164215088, 13.010665893554688 8.213333129882812 Z " stroke="none" fill-rule="nonzero" fill="#000000" fill-opacity="1" transform="matrix(1,0,0,-1,0,38.507469177246094)" />
  <path d="M 6.402667045593262 3.684800148010254 C 6.402667045593262 4.913066864013672, 5.657866954803467 5.7754669189453125, 4.66480016708374 5.7754669189453125 C 4.011466979980469 5.7754669189453125, 3.3842668533325195 5.30506706237793, 2.953066825866699 4.795466899871826 C 2.8224000930786133 5.5010666847229, 2.260533332824707 5.7754669189453125, 1.777066707611084 5.7754669189453125 C 1.1759999990463257 5.7754669189453125, 0.9277333617210388 5.265866756439209, 0.8101333379745483 5.030666828155518 C 0.5749333500862122 4.586400032043457, 0.40506666898727417 3.8024001121520996, 0.40506666898727417 3.763200044631958 C 0.40506666898727417 3.632533550262451, 0.5618667006492615 3.632533550262451, 0.5618667006492615 3.632533550262451 C 0.6925333738327026 3.632533550262451, 0.7056000232696533 3.6456000804901123, 0.784000039100647 3.9330668449401855 C 1.0061333179473877 4.860800266265869, 1.26746666431427 5.488000392913818, 1.737866759300232 5.488000392913818 C 1.9600000381469727 5.488000392913818, 2.1429333686828613 5.383466720581055, 2.1429333686828613 4.886933326721191 C 2.1429333686828613 4.586400032043457, 2.1037333011627197 4.442667007446289, 2.051466703414917 4.22053337097168 L 0.5879999995231628 -1.5941333770751953 C 0.4834666848182678 -2.038400173187256, 0.45733335614204407 -2.1298668384552, -0.11760000139474869 -2.1298668384552 C -0.274399995803833 -2.1298668384552, -0.41813334822654724 -2.1298668384552, -0.41813334822654724 -2.378133535385132 C -0.41813334822654724 -2.4826667308807373, -0.35280001163482666 -2.53493332862854, -0.24826668202877045 -2.53493332862854 C 0.10453333705663681 -2.53493332862854, 0.4834666848182678 -2.4957334995269775, 0.8493333458900452 -2.4957334995269775 C 1.2805334329605103 -2.4957334995269775, 1.7248001098632812 -2.53493332862854, 2.1429333686828613 -2.53493332862854 C 2.2082667350769043 -2.53493332862854, 2.378133535385132 -2.53493332862854, 2.378133535385132 -2.2736001014709473 C 2.378133535385132 -2.1298668384552, 2.247466802597046 -2.1298668384552, 2.0645334720611572 -2.1298668384552 C 1.4112000465393066 -2.1298668384552, 1.4112000465393066 -2.038400173187256, 1.4112000465393066 -1.9208000898361206 C 1.4112000465393066 -1.7640000581741333, 1.9600000381469727 0.36586669087409973, 2.051466703414917 0.6925333738327026 C 2.2213335037231445 0.31360000371932983, 2.587200164794922 -0.14373333752155304, 3.2536001205444336 -0.14373333752155304 C 4.769333362579346 -0.14373333752155304, 6.402667045593262 1.7640000581741333, 6.402667045593262 3.684800148010254 Z M 5.461866855621338 4.2597336769104 C 5.461866855621338 3.488800048828125, 5.030666828155518 1.9861334562301636, 4.795466899871826 1.4896000623703003 C 4.351200103759766 0.5749333500862122, 3.7240002155303955 0.14373333752155304, 3.2405333518981934 0.14373333752155304 C 2.378133535385132 0.14373333752155304, 2.2082667350769043 1.228266716003418, 2.2082667350769043 1.3066667318344116 C 2.2082667350769043 1.3066667318344116, 2.2082667350769043 1.3589333295822144, 2.247466802597046 1.5157333612442017 L 2.8877334594726562 4.076800346374512 C 2.9792001247406006 4.429600238800049, 3.3320000171661377 4.795466899871826, 3.567200183868408 4.991466999053955 C 4.024533271789551 5.396533489227295, 4.403466701507568 5.488000392913818, 4.625600337982178 5.488000392913818 C 5.148266792297363 5.488000392913818, 5.461866855621338 5.030666828155518, 5.461866855621338 4.2597336769104 Z " stroke="none" fill-rule="nonzero" fill="#000000" fill-opacity="1" transform="matrix(1,0,0,-1,13.34666633605957,43.11813545227051)" />
  <path d="M -1.5493333339691162 11.368000030517578 L -1.5493333339691162 11.946666717529297 L -8.288000106811523 11.946666717529297 L -8.288000106811523 11.368000030517578 Z " stroke="none" fill-rule="nonzero" fill="#000000" fill-opacity="1" transform="matrix(1,0,0,-1,14.86893367767334,33.74746894836426)" />
  <path d="M 13.477333068847656 6.477333068847656 C 13.477333068847656 6.682666301727295, 13.309332847595215 6.850666522979736, 13.103999137878418 6.850666522979736 L 1.4186666011810303 6.850666522979736 C 1.213333249092102 6.850666522979736, 1.0453332662582397 6.682666301727295, 1.0453332662582397 6.477333068847656 C 1.0453332662582397 6.271999835968018, 1.213333249092102 6.103999614715576, 1.4186666011810303 6.103999614715576 L 13.103999137878418 6.103999614715576 C 13.309332847595215 6.103999614715576, 13.477333068847656 6.271999835968018, 13.477333068847656 6.477333068847656 Z M 13.477333068847656 2.8559999465942383 C 13.477333068847656 3.061333179473877, 13.309332847595215 3.2293331623077393, 13.103999137878418 3.2293331623077393 L 1.4186666011810303 3.2293331623077393 C 1.213333249092102 3.2293331623077393, 1.0453332662582397 3.061333179473877, 1.0453332662582397 2.8559999465942383 C 1.0453332662582397 2.6506664752960205, 1.213333249092102 2.482666492462158, 1.4186666011810303 2.482666492462158 L 13.103999137878418 2.482666492462158 C 13.309332847595215 2.482666492462158, 13.477333068847656 2.6506664752960205, 13.477333068847656 2.8559999465942383 Z " stroke="none" fill-rule="nonzero" fill="#000000" fill-opacity="1" transform="matrix(1,0,0,-1,23.808090209960938,38.507469177246094)" />
  <path d="M 3.7109334468841553 8.166666984558105 C 3.7109334468841553 8.428000450134277, 3.5280001163482666 8.637066841125488, 3.2274668216705322 8.637066841125488 C 2.874666690826416 8.637066841125488, 2.521866798400879 8.297333717346191, 2.521866798400879 7.944533824920654 C 2.521866798400879 7.696267127990723, 2.7048001289367676 7.474133491516113, 3.018400192260742 7.474133491516113 C 3.3189334869384766 7.474133491516113, 3.7109334468841553 7.774666786193848, 3.7109334468841553 8.166666984558105 Z M 3.828533411026001 1.8685333728790283 C 3.828533411026001 1.9992001056671143, 3.7109334468841553 1.9992001056671143, 3.6717333793640137 1.9992001056671143 C 3.541066884994507 1.9992001056671143, 3.541066884994507 1.9600000381469727, 3.475733518600464 1.7640000581741333 C 3.2405333518981934 0.9408000111579895, 2.809333324432373 0.14373333752155304, 2.1429333686828613 0.14373333752155304 C 1.9208000898361206 0.14373333752155304, 1.8293334245681763 0.274399995803833, 1.8293334245681763 0.5749333500862122 C 1.8293334245681763 0.9016000032424927, 1.90773344039917 1.0845333337783813, 2.2082667350769043 1.881600022315979 L 2.7178666591644287 3.2536001205444336 C 2.874666690826416 3.632533550262451, 2.874666690826416 3.6586668491363525, 3.005333423614502 4.011466979980469 C 3.1098668575286865 4.272799968719482, 3.1752002239227295 4.455733299255371, 3.1752002239227295 4.703999996185303 C 3.1752002239227295 5.2920002937316895, 2.7570667266845703 5.7754669189453125, 2.1037333011627197 5.7754669189453125 C 0.8754667043685913 5.7754669189453125, 0.3789333403110504 3.880800247192383, 0.3789333403110504 3.763200044631958 C 0.3789333403110504 3.632533550262451, 0.5357333421707153 3.632533550262451, 0.5357333421707153 3.632533550262451 C 0.6664000153541565 3.632533550262451, 0.6794666647911072 3.6586668491363525, 0.7448000311851501 3.8677334785461426 C 1.097599983215332 5.0960001945495605, 1.6202666759490967 5.488000392913818, 2.0645334720611572 5.488000392913818 C 2.1690666675567627 5.488000392913818, 2.391200065612793 5.488000392913818, 2.391200065612793 5.06986665725708 C 2.391200065612793 4.795466899871826, 2.2997334003448486 4.521066665649414, 2.247466802597046 4.390399932861328 C 2.1429333686828613 4.050666809082031, 1.5549334287643433 2.53493332862854, 1.3458666801452637 1.9730666875839233 C 1.2152000665664673 1.633333444595337, 1.0453333854675293 1.2021334171295166, 1.0453333854675293 0.9277333617210388 C 1.0453333854675293 0.31360000371932983, 1.4896000623703003 -0.14373333752155304, 2.11680006980896 -0.14373333752155304 C 3.345066785812378 -0.14373333752155304, 3.828533411026001 1.7509334087371826, 3.828533411026001 1.8685333728790283 Z " stroke="none" fill-rule="nonzero" fill="#000000" fill-opacity="1" transform="matrix(1,0,0,-1,61.9316463470459,27.02933692932129)" />
  <path d="M 2.652533531188965 0.013066667132079601 C 2.652533531188965 0.8754667043685913, 2.32586669921875 1.3850667476654053, 1.8162667751312256 1.3850667476654053 C 1.3850667476654053 1.3850667476654053, 1.123733401298523 1.05840003490448, 1.123733401298523 0.6925333738327026 C 1.123733401298523 0.3397333323955536, 1.3850667476654053 0, 1.8162667751312256 0 C 1.9730666875839233 0, 2.1429333686828613 0.052266668528318405, 2.2736001014709473 0.1698666661977768 C 2.312800168991089 0.19600000977516174, 2.3389334678649902 0.20906667411327362, 2.3389334678649902 0.20906667411327362 C 2.3389334678649902 0.20906667411327362, 2.3650667667388916 0.19600000977516174, 2.3650667667388916 0.013066667132079601 C 2.3650667667388916 -0.953866720199585, 1.90773344039917 -1.737866759300232, 1.4765334129333496 -2.1690666675567627 C 1.332800030708313 -2.312800168991089, 1.332800030708313 -2.3389334678649902, 1.332800030708313 -2.378133535385132 C 1.332800030708313 -2.469600200653076, 1.398133397102356 -2.521866798400879, 1.463466763496399 -2.521866798400879 C 1.607200026512146 -2.521866798400879, 2.652533531188965 -1.5157333612442017, 2.652533531188965 0.013066667132079601 Z " stroke="none" fill-rule="nonzero" fill="#000000" fill-opacity="1" transform="matrix(1,0,0,-1,66.43964672088623,27.02933692932129)" />
  <path d="M 6.402667045593262 3.684800148010254 C 6.402667045593262 4.913066864013672, 5.657866954803467 5.7754669189453125, 4.66480016708374 5.7754669189453125 C 4.011466979980469 5.7754669189453125, 3.3842668533325195 5.30506706237793, 2.953066825866699 4.795466899871826 C 2.8224000930786133 5.5010666847229, 2.260533332824707 5.7754669189453125, 1.777066707611084 5.7754669189453125 C 1.1759999990463257 5.7754669189453125, 0.9277333617210388 5.265866756439209, 0.8101333379745483 5.030666828155518 C 0.5749333500862122 4.586400032043457, 0.40506666898727417 3.8024001121520996, 0.40506666898727417 3.763200044631958 C 0.40506666898727417 3.632533550262451, 0.5618667006492615 3.632533550262451, 0.5618667006492615 3.632533550262451 C 0.6925333738327026 3.632533550262451, 0.7056000232696533 3.6456000804901123, 0.784000039100647 3.9330668449401855 C 1.0061333179473877 4.860800266265869, 1.26746666431427 5.488000392913818, 1.737866759300232 5.488000392913818 C 1.9600000381469727 5.488000392913818, 2.1429333686828613 5.383466720581055, 2.1429333686828613 4.886933326721191 C 2.1429333686828613 4.586400032043457, 2.1037333011627197 4.442667007446289, 2.051466703414917 4.22053337097168 L 0.5879999995231628 -1.5941333770751953 C 0.4834666848182678 -2.038400173187256, 0.45733335614204407 -2.1298668384552, -0.11760000139474869 -2.1298668384552 C -0.274399995803833 -2.1298668384552, -0.41813334822654724 -2.1298668384552, -0.41813334822654724 -2.378133535385132 C -0.41813334822654724 -2.4826667308807373, -0.35280001163482666 -2.53493332862854, -0.24826668202877045 -2.53493332862854 C 0.10453333705663681 -2.53493332862854, 0.4834666848182678 -2.4957334995269775, 0.8493333458900452 -2.4957334995269775 C 1.2805334329605103 -2.4957334995269775, 1.7248001098632812 -2.53493332862854, 2.1429333686828613 -2.53493332862854 C 2.2082667350769043 -2.53493332862854, 2.378133535385132 -2.53493332862854, 2.378133535385132 -2.2736001014709473 C 2.378133535385132 -2.1298668384552, 2.247466802597046 -2.1298668384552, 2.0645334720611572 -2.1298668384552 C 1.4112000465393066 -2.1298668384552, 1.4112000465393066 -2.038400173187256, 1.4112000465393066 -1.9208000898361206 C 1.4112000465393066 -1.7640000581741333, 1.9600000381469727 0.36586669087409973, 2.051466703414917 0.6925333738327026 C 2.2213335037231445 0.31360000371932983, 2.587200164794922 -0.14373333752155304, 3.2536001205444336 -0.14373333752155304 C 4.769333362579346 -0.14373333752155304, 6.402667045593262 1.7640000581741333, 6.402667045593262 3.684800148010254 Z M 5.461866855621338 4.2597336769104 C 5.461866855621338 3.488800048828125, 5.030666828155518 1.9861334562301636, 4.795466899871826 1.4896000623703003 C 4.351200103759766 0.5749333500862122, 3.7240002155303955 0.14373333752155304, 3.2405333518981934 0.14373333752155304 C 2.378133535385132 0.14373333752155304, 2.2082667350769043 1.228266716003418, 2.2082667350769043 1.3066667318344116 C 2.2082667350769043 1.3066667318344116, 2.2082667350769043 1.3589333295822144, 2.247466802597046 1.5157333612442017 L 2.8877334594726562 4.076800346374512 C 2.9792001247406006 4.429600238800049, 3.3320000171661377 4.795466899871826, 3.567200183868408 4.991466999053955 C 4.024533271789551 5.396533489227295, 4.403466701507568 5.488000392913818, 4.625600337982178 5.488000392913818 C 5.148266792297363 5.488000392913818, 5.461866855621338 5.030666828155518, 5.461866855621338 4.2597336769104 Z " stroke="none" fill-rule="nonzero" fill="#000000" fill-opacity="1" transform="matrix(1,0,0,-1,70.07218027114868,27.02933692932129)" />
  <path d="M 18.647998809814453 -0.018666666001081467 L 18.181333541870117 -0.018666666001081467 C 17.71466636657715 -1.4186666011810303, 16.463998794555664 -2.55733323097229, 14.87733268737793 -3.0986666679382324 C 14.578665733337402 -3.191999912261963, 13.290666580200195 -3.6399998664855957, 10.546666145324707 -3.6399998664855957 L 2.613333225250244 -3.6399998664855957 L 9.090666770935059 4.368000030517578 C 9.221332550048828 4.535999774932861, 9.258666038513184 4.5920000076293945, 9.258666038513184 4.666666507720947 C 9.258666038513184 4.7413330078125, 9.239999771118164 4.759999752044678, 9.127999305725098 4.927999973297119 L 3.061333179473877 13.25333309173584 L 10.453332901000977 13.25333309173584 C 12.58133316040039 13.25333309173584, 16.874666213989258 13.122666358947754, 18.181333541870117 9.631999969482422 L 18.647998809814453 9.631999969482422 L 17.042665481567383 13.999999046325684 L 1.5679999589920044 13.999999046325684 C 1.0640000104904175 13.999999046325684, 1.0453332662582397 13.981332778930664, 1.0453332662582397 13.402666091918945 L 7.85866641998291 4.0320000648498535 L 1.2319999933242798 -4.162666320800781 C 1.0826666355133057 -4.3493332862854, 1.0640000104904175 -4.386666297912598, 1.0640000104904175 -4.461333274841309 C 1.0640000104904175 -4.666666507720947, 1.2319999933242798 -4.666666507720947, 1.5679999589920044 -4.666666507720947 L 17.042665481567383 -4.666666507720947 Z " stroke="none" fill-rule="nonzero" fill="#000000" fill-opacity="1" transform="matrix(1,0,0,-1,42.21964645385742,19.74933671951294)" />
  <path d="M 13.641600608825684 8.780799865722656 C 13.641600608825684 8.92453384399414, 13.510933876037598 8.92453384399414, 13.288800239562988 8.92453384399414 L 11.564000129699707 8.92453384399414 C 11.22426700592041 8.92453384399414, 11.211200714111328 8.92453384399414, 11.054400444030762 8.67626667022705 L 6.285067081451416 1.228266716003418 L 5.265866756439209 8.624000549316406 C 5.2266669273376465 8.92453384399414, 5.200533390045166 8.92453384399414, 4.860800266265869 8.92453384399414 L 3.070666790008545 8.92453384399414 C 2.8224000930786133 8.92453384399414, 2.678666830062866 8.92453384399414, 2.678666830062866 8.67626667022705 C 2.678666830062866 8.5194673538208, 2.796266794204712 8.5194673538208, 3.0576000213623047 8.5194673538208 C 3.2274668216705322 8.5194673538208, 3.4626667499542236 8.506400108337402, 3.619466781616211 8.49333381652832 C 3.828533411026001 8.46720027923584, 3.906933546066284 8.428000450134277, 3.906933546066284 8.28426742553711 C 3.906933546066284 8.232000350952148, 3.893866777420044 8.192800521850586, 3.8546667098999023 8.03600025177002 L 2.195199966430664 1.3850667476654053 C 2.0645334720611572 0.8624000549316406, 1.842400074005127 0.444266676902771, 0.784000039100647 0.40506666898727417 C 0.718666672706604 0.40506666898727417, 0.548799991607666 0.3920000195503235, 0.548799991607666 0.15680000185966492 C 0.548799991607666 0.03920000046491623, 0.6272000074386597 0, 0.7317333817481995 0 C 1.1498667001724243 0, 1.607200026512146 0.03920000046491623, 2.038400173187256 0.03920000046491623 C 2.4826667308807373 0.03920000046491623, 2.953066825866699 0, 3.3842668533325195 0 C 3.4496002197265625 0, 3.619466781616211 0, 3.619466781616211 0.2613333463668823 C 3.619466781616211 0.40506666898727417, 3.475733518600464 0.40506666898727417, 3.3842668533325195 0.40506666898727417 C 2.6394667625427246 0.41813334822654724, 2.4957334995269775 0.6794666647911072, 2.4957334995269775 0.9800000190734863 C 2.4957334995269775 1.0714666843414307, 2.5088000297546387 1.1368000507354736, 2.5480000972747803 1.2805334329605103 L 4.325067043304443 8.401866912841797 L 4.338133335113525 8.401866912841797 L 5.461866855621338 0.30053335428237915 C 5.488000392913818 0.14373333752155304, 5.5010666847229 0, 5.657866954803467 0 C 5.801599979400635 0, 5.880000114440918 0.14373333752155304, 5.945333480834961 0.23520000278949738 L 11.22426700592041 8.506400108337402 L 11.237333297729492 8.506400108337402 L 9.368800163269043 1.019200086593628 C 9.238133430480957 0.509600043296814, 9.211999893188477 0.40506666898727417, 8.179733276367188 0.40506666898727417 C 7.957600116729736 0.40506666898727417, 7.813867092132568 0.40506666898727417, 7.813867092132568 0.15680000185966492 C 7.813867092132568 0, 7.970666885375977 0, 8.009866714477539 0 L 9.630133628845215 0.03920000046491623 C 10.16586685180664 0.03920000046491623, 10.727733612060547 0, 11.263466835021973 0 C 11.341867446899414 0, 11.511734008789062 0, 11.511734008789062 0.2613333463668823 C 11.511734008789062 0.40506666898727417, 11.394133567810059 0.40506666898727417, 11.145867347717285 0.40506666898727417 C 10.662400245666504 0.40506666898727417, 10.296533584594727 0.40506666898727417, 10.296533584594727 0.6402667164802551 C 10.296533584594727 0.6925333738327026, 10.296533584594727 0.718666672706604, 10.36186695098877 0.953866720199585 L 12.099733352661133 7.918400287628174 C 12.217333793640137 8.388800621032715, 12.243467330932617 8.5194673538208, 13.223466873168945 8.5194673538208 C 13.52400016784668 8.5194673538208, 13.641600608825684 8.5194673538208, 13.641600608825684 8.780799865722656 Z " stroke="none" fill-rule="nonzero" fill="#000000" fill-opacity="1" transform="matrix(1,0,0,-1,80.02338027954102,8.924535751342773)" />
  <path d="M 4.573333263397217 2.631999969482422 C 4.573333263397217 3.5093331336975098, 4.041333198547363 4.125333309173584, 3.3319997787475586 4.125333309173584 C 2.865333318710327 4.125333309173584, 2.4173333644866943 3.7893331050872803, 2.1093332767486572 3.425333261489868 C 2.0160000324249268 3.929333209991455, 1.6146665811538696 4.125333309173584, 1.2693332433700562 4.125333309173584 C 0.8399999737739563 4.125333309173584, 0.6626666188240051 3.7613332271575928, 0.578666627407074 3.5933332443237305 C 0.41066664457321167 3.2759997844696045, 0.289333313703537 2.7159998416900635, 0.289333313703537 2.687999963760376 C 0.289333313703537 2.5946664810180664, 0.4013333320617676 2.5946664810180664, 0.4013333320617676 2.5946664810180664 C 0.4946666359901428 2.5946664810180664, 0.5040000081062317 2.6039998531341553, 0.5600000023841858 2.809333324432373 C 0.7186666131019592 3.4719998836517334, 0.9053332805633545 3.919999837875366, 1.241333246231079 3.919999837875366 C 1.399999976158142 3.919999837875366, 1.5306665897369385 3.8453330993652344, 1.5306665897369385 3.490666627883911 C 1.5306665897369385 3.2759997844696045, 1.5026665925979614 3.173333168029785, 1.4653332233428955 3.0146665573120117 L 0.41999998688697815 -1.1386666297912598 C 0.3453333079814911 -1.4559999704360962, 0.3266666531562805 -1.5213333368301392, -0.08399999886751175 -1.5213333368301392 C -0.19599999487400055 -1.5213333368301392, -0.29866665601730347 -1.5213333368301392, -0.29866665601730347 -1.6986665725708008 C -0.29866665601730347 -1.7733333110809326, -0.25200000405311584 -1.810666561126709, -0.17733332514762878 -1.810666561126709 C 0.07466666400432587 -1.810666561126709, 0.3453333079814911 -1.782666563987732, 0.606666624546051 -1.782666563987732 C 0.9146666526794434 -1.782666563987732, 1.2319999933242798 -1.810666561126709, 1.5306665897369385 -1.810666561126709 C 1.5773333311080933 -1.810666561126709, 1.6986665725708008 -1.810666561126709, 1.6986665725708008 -1.6239999532699585 C 1.6986665725708008 -1.5213333368301392, 1.6053333282470703 -1.5213333368301392, 1.4746665954589844 -1.5213333368301392 C 1.0080000162124634 -1.5213333368301392, 1.0080000162124634 -1.4559999704360962, 1.0080000162124634 -1.371999979019165 C 1.0080000162124634 -1.2599999904632568, 1.399999976158142 0.26133331656455994, 1.4653332233428955 0.4946666359901428 C 1.5866665840148926 0.2239999920129776, 1.847999930381775 -0.10266666114330292, 2.3239998817443848 -0.10266666114330292 C 3.4066665172576904 -0.10266666114330292, 4.573333263397217 1.2599999904632568, 4.573333263397217 2.631999969482422 Z M 3.9013330936431885 3.0426666736602783 C 3.9013330936431885 2.491999864578247, 3.5933332443237305 1.4186666011810303, 3.425333261489868 1.0640000104904175 C 3.107999801635742 0.41066664457321167, 2.6599998474121094 0.10266666114330292, 2.314666509628296 0.10266666114330292 C 1.6986665725708008 0.10266666114330292, 1.5773333311080933 0.8773332834243774, 1.5773333311080933 0.9333332777023315 C 1.5773333311080933 0.9333332777023315, 1.5773333311080933 0.9706666469573975, 1.6053333282470703 1.0826666355133057 L 2.062666654586792 2.9119999408721924 C 2.128000020980835 3.1639997959136963, 2.379999876022339 3.425333261489868, 2.547999858856201 3.565333127975464 C 2.874666452407837 3.8546664714813232, 3.1453332901000977 3.919999837875366, 3.303999900817871 3.919999837875366 C 3.677333116531372 3.919999837875366, 3.9013330936431885 3.5933332443237305, 3.9013330936431885 3.0426666736602783 Z " stroke="none" fill-rule="nonzero" fill="#000000" fill-opacity="1" transform="matrix(1,0,0,-1,92.69804763793945,12.152002573013306)" />
  <path d="M 9.434133529663086 3.266666889190674 C 9.434133529663086 3.410400152206421, 9.316534042358398 3.5280001163482666, 9.172800064086914 3.5280001163482666 L 0.9930667281150818 3.5280001163482666 C 0.8493333458900452 3.5280001163482666, 0.7317333817481995 3.410400152206421, 0.7317333817481995 3.266666889190674 C 0.7317333817481995 3.1229333877563477, 0.8493333458900452 3.005333423614502, 0.9930667281150818 3.005333423614502 L 9.172800064086914 3.005333423614502 C 9.316534042358398 3.005333423614502, 9.434133529663086 3.1229333877563477, 9.434133529663086 3.266666889190674 Z " stroke="none" fill-rule="nonzero" fill="#000000" fill-opacity="1" transform="matrix(1,0,0,-1,98.12444686889648,8.924535751342773)" />
  <path d="M 7.461066722869873 1.8685333728790283 C 7.461066722869873 1.9992001056671143, 7.343466758728027 1.9992001056671143, 7.304266929626465 1.9992001056671143 C 7.173600196838379 1.9992001056671143, 7.173600196838379 1.9600000381469727, 7.108266830444336 1.7640000581741333 C 6.846933364868164 0.8754667043685913, 6.415733337402344 0.14373333752155304, 5.7754669189453125 0.14373333752155304 C 5.553333759307861 0.14373333752155304, 5.461866855621338 0.274399995803833, 5.461866855621338 0.5749333500862122 C 5.461866855621338 0.9016000032424927, 5.579466819763184 1.2152000665664673, 5.697066783905029 1.502666711807251 C 5.945333480834961 2.195199966430664, 6.494133472442627 3.632533550262451, 6.494133472442627 4.377333641052246 C 6.494133472442627 5.252799987792969, 5.932266712188721 5.7754669189453125, 4.991466999053955 5.7754669189453125 C 3.81546688079834 5.7754669189453125, 3.1752002239227295 4.939200401306152, 2.953066825866699 4.63866662979126 C 2.8877334594726562 5.370400428771973, 2.3519999980926514 5.7754669189453125, 1.7509334087371826 5.7754669189453125 C 1.1498667001724243 5.7754669189453125, 0.9016000032424927 5.265866756439209, 0.7709333896636963 5.030666828155518 C 0.5618667006492615 4.586400032043457, 0.3789333403110504 3.81546688079834, 0.3789333403110504 3.763200044631958 C 0.3789333403110504 3.632533550262451, 0.5357333421707153 3.632533550262451, 0.5357333421707153 3.632533550262451 C 0.6664000153541565 3.632533550262451, 0.6794666647911072 3.6456000804901123, 0.7578666806221008 3.9330668449401855 C 0.9800000190734863 4.860800266265869, 1.2413333654403687 5.488000392913818, 1.711733341217041 5.488000392913818 C 1.9730666875839233 5.488000392913818, 2.11680006980896 5.318133354187012, 2.11680006980896 4.886933326721191 C 2.11680006980896 4.6125335693359375, 2.0776000022888184 4.468800067901611, 1.90773344039917 3.7893335819244385 L 1.1498667001724243 0.7709333896636963 C 1.1106667518615723 0.5749333500862122, 1.0322667360305786 0.274399995803833, 1.0322667360305786 0.20906667411327362 C 1.0322667360305786 -0.026133334264159203, 1.2152000665664673 -0.14373333752155304, 1.4112000465393066 -0.14373333752155304 C 1.568000078201294 -0.14373333752155304, 1.8032000064849854 -0.03920000046491623, 1.8946667909622192 0.2221333384513855 C 1.90773344039917 0.24826668202877045, 2.0645334720611572 0.8624000549316406, 2.1429333686828613 1.189066767692566 L 2.4304001331329346 2.3650667667388916 C 2.5088000297546387 2.652533531188965, 2.587200164794922 2.940000057220459, 2.652533531188965 3.2405333518981934 L 2.8224000930786133 3.893866777420044 C 3.018400192260742 4.298933506011963, 3.7109334468841553 5.488000392913818, 4.952266693115234 5.488000392913818 C 5.540266990661621 5.488000392913818, 5.657866954803467 5.004533290863037, 5.657866954803467 4.573333263397217 C 5.657866954803467 3.763200044631958, 5.017600059509277 2.0906667709350586, 4.808533668518066 1.5288000106811523 C 4.690933704376221 1.228266716003418, 4.6778669357299805 1.0714666843414307, 4.6778669357299805 0.9277333617210388 C 4.6778669357299805 0.31360000371932983, 5.135200023651123 -0.14373333752155304, 5.749333381652832 -0.14373333752155304 C 6.97760009765625 -0.14373333752155304, 7.461066722869873 1.7640000581741333, 7.461066722869873 1.8685333728790283 Z " stroke="none" fill-rule="nonzero" fill="#000000" fill-opacity="1" transform="matrix(1,0,0,-1,108.29031372070312,8.924535751342773)" />
  <path d="M 2.6506664752960205 5.8333330154418945 C 2.6506664752960205 6.019999980926514, 2.5199999809265137 6.169332981109619, 2.305333137512207 6.169332981109619 C 2.053333282470703 6.169332981109619, 1.8013333082199097 5.926666259765625, 1.8013333082199097 5.674666404724121 C 1.8013333082199097 5.49733304977417, 1.931999921798706 5.3386664390563965, 2.1559998989105225 5.3386664390563965 C 2.37066650390625 5.3386664390563965, 2.6506664752960205 5.553333282470703, 2.6506664752960205 5.8333330154418945 Z M 2.734666585922241 1.3346666097640991 C 2.734666585922241 1.4279999732971191, 2.6506664752960205 1.4279999732971191, 2.622666597366333 1.4279999732971191 C 2.5293333530426025 1.4279999732971191, 2.5293333530426025 1.399999976158142, 2.482666492462158 1.2599999904632568 C 2.314666509628296 0.671999990940094, 2.006666660308838 0.10266666114330292, 1.5306665897369385 0.10266666114330292 C 1.371999979019165 0.10266666114330292, 1.306666612625122 0.19599999487400055, 1.306666612625122 0.41066664457321167 C 1.306666612625122 0.6439999938011169, 1.3626666069030762 0.7746666669845581, 1.5773333311080933 1.343999981880188 L 1.941333293914795 2.3239998817443848 C 2.053333282470703 2.5946664810180664, 2.053333282470703 2.613333225250244, 2.1466665267944336 2.865333318710327 C 2.2213332653045654 3.051999807357788, 2.2679998874664307 3.182666540145874, 2.2679998874664307 3.359999895095825 C 2.2679998874664307 3.7799999713897705, 1.969333291053772 4.125333309173584, 1.5026665925979614 4.125333309173584 C 0.625333309173584 4.125333309173584, 0.2706666588783264 2.7719998359680176, 0.2706666588783264 2.687999963760376 C 0.2706666588783264 2.5946664810180664, 0.3826666474342346 2.5946664810180664, 0.3826666474342346 2.5946664810180664 C 0.47599998116493225 2.5946664810180664, 0.48533332347869873 2.613333225250244, 0.5320000052452087 2.7626664638519287 C 0.7839999794960022 3.6399998664855957, 1.157333254814148 3.919999837875366, 1.4746665954589844 3.919999837875366 C 1.5493333339691162 3.919999837875366, 1.7079999446868896 3.919999837875366, 1.7079999446868896 3.621333122253418 C 1.7079999446868896 3.425333261489868, 1.6426665782928467 3.2293331623077393, 1.6053333282470703 3.135999917984009 C 1.5306665897369385 2.8933331966400146, 1.1106666326522827 1.810666561126709, 0.9613332748413086 1.4093332290649414 C 0.8679999709129333 1.1666666269302368, 0.746666669845581 0.8586666584014893, 0.746666669845581 0.6626666188240051 C 0.746666669845581 0.2239999920129776, 1.0640000104904175 -0.10266666114330292, 1.5119999647140503 -0.10266666114330292 C 2.3893332481384277 -0.10266666114330292, 2.734666585922241 1.250666618347168, 2.734666585922241 1.3346666097640991 Z " stroke="none" fill-rule="nonzero" fill="#000000" fill-opacity="1" transform="matrix(1,0,0,-1,116.13031387329102,12.152002573013306)" />
  <path d="M 1.8946665525436401 0.009333333000540733 C 1.8946665525436401 0.625333309173584, 1.6613333225250244 0.9893332719802856, 1.2973332405090332 0.9893332719802856 C 0.9893332719802856 0.9893332719802856, 0.8026666641235352 0.7559999823570251, 0.8026666641235352 0.4946666359901428 C 0.8026666641235352 0.24266666173934937, 0.9893332719802856 0, 1.2973332405090332 0 C 1.4093332290649414 0, 1.5306665897369385 0.03733333200216293, 1.6239999532699585 0.12133333086967468 C 1.6519999504089355 0.14000000059604645, 1.6706665754318237 0.14933332800865173, 1.6706665754318237 0.14933332800865173 C 1.6706665754318237 0.14933332800865173, 1.6893333196640015 0.14000000059604645, 1.6893333196640015 0.009333333000540733 C 1.6893333196640015 -0.6813333034515381, 1.3626666069030762 -1.241333246231079, 1.0546666383743286 -1.5493333339691162 C 0.9519999623298645 -1.6519999504089355, 0.9519999623298645 -1.6706665754318237, 0.9519999623298645 -1.6986665725708008 C 0.9519999623298645 -1.7639999389648438, 0.9986666440963745 -1.8013333082199097, 1.0453332662582397 -1.8013333082199097 C 1.1480000019073486 -1.8013333082199097, 1.8946665525436401 -1.0826666355133057, 1.8946665525436401 0.009333333000540733 Z " stroke="none" fill-rule="nonzero" fill="#000000" fill-opacity="1" transform="matrix(1,0,0,-1,119.35031366348267,12.152002573013306)" />
  <path d="M 4.573333263397217 2.631999969482422 C 4.573333263397217 3.5093331336975098, 4.041333198547363 4.125333309173584, 3.3319997787475586 4.125333309173584 C 2.865333318710327 4.125333309173584, 2.4173333644866943 3.7893331050872803, 2.1093332767486572 3.425333261489868 C 2.0160000324249268 3.929333209991455, 1.6146665811538696 4.125333309173584, 1.2693332433700562 4.125333309173584 C 0.8399999737739563 4.125333309173584, 0.6626666188240051 3.7613332271575928, 0.578666627407074 3.5933332443237305 C 0.41066664457321167 3.2759997844696045, 0.289333313703537 2.7159998416900635, 0.289333313703537 2.687999963760376 C 0.289333313703537 2.5946664810180664, 0.4013333320617676 2.5946664810180664, 0.4013333320617676 2.5946664810180664 C 0.4946666359901428 2.5946664810180664, 0.5040000081062317 2.6039998531341553, 0.5600000023841858 2.809333324432373 C 0.7186666131019592 3.4719998836517334, 0.9053332805633545 3.919999837875366, 1.241333246231079 3.919999837875366 C 1.399999976158142 3.919999837875366, 1.5306665897369385 3.8453330993652344, 1.5306665897369385 3.490666627883911 C 1.5306665897369385 3.2759997844696045, 1.5026665925979614 3.173333168029785, 1.4653332233428955 3.0146665573120117 L 0.41999998688697815 -1.1386666297912598 C 0.3453333079814911 -1.4559999704360962, 0.3266666531562805 -1.5213333368301392, -0.08399999886751175 -1.5213333368301392 C -0.19599999487400055 -1.5213333368301392, -0.29866665601730347 -1.5213333368301392, -0.29866665601730347 -1.6986665725708008 C -0.29866665601730347 -1.7733333110809326, -0.25200000405311584 -1.810666561126709, -0.17733332514762878 -1.810666561126709 C 0.07466666400432587 -1.810666561126709, 0.3453333079814911 -1.782666563987732, 0.606666624546051 -1.782666563987732 C 0.9146666526794434 -1.782666563987732, 1.2319999933242798 -1.810666561126709, 1.5306665897369385 -1.810666561126709 C 1.5773333311080933 -1.810666561126709, 1.6986665725708008 -1.810666561126709, 1.6986665725708008 -1.6239999532699585 C 1.6986665725708008 -1.5213333368301392, 1.6053333282470703 -1.5213333368301392, 1.4746665954589844 -1.5213333368301392 C 1.0080000162124634 -1.5213333368301392, 1.0080000162124634 -1.4559999704360962, 1.0080000162124634 -1.371999979019165 C 1.0080000162124634 -1.2599999904632568, 1.399999976158142 0.26133331656455994, 1.4653332233428955 0.4946666359901428 C 1.5866665840148926 0.2239999920129776, 1.847999930381775 -0.10266666114330292, 2.3239998817443848 -0.10266666114330292 C 3.4066665172576904 -0.10266666114330292, 4.573333263397217 1.2599999904632568, 4.573333263397217 2.631999969482422 Z M 3.9013330936431885 3.0426666736602783 C 3.9013330936431885 2.491999864578247, 3.5933332443237305 1.4186666011810303, 3.425333261489868 1.0640000104904175 C 3.107999801635742 0.41066664457321167, 2.6599998474121094 0.10266666114330292, 2.314666509628296 0.10266666114330292 C 1.6986665725708008 0.10266666114330292, 1.5773333311080933 0.8773332834243774, 1.5773333311080933 0.9333332777023315 C 1.5773333311080933 0.9333332777023315, 1.5773333311080933 0.9706666469573975, 1.6053333282470703 1.0826666355133057 L 2.062666654586792 2.9119999408721924 C 2.128000020980835 3.1639997959136963, 2.379999876022339 3.425333261489868, 2.547999858856201 3.565333127975464 C 2.874666452407837 3.8546664714813232, 3.1453332901000977 3.919999837875366, 3.303999900817871 3.919999837875366 C 3.677333116531372 3.919999837875366, 3.9013330936431885 3.5933332443237305, 3.9013330936431885 3.0426666736602783 Z " stroke="none" fill-rule="nonzero" fill="#000000" fill-opacity="1" transform="matrix(1,0,0,-1,121.94498014450073,12.152002573013306)" />
  <path d="M 13.641600608825684 8.780799865722656 C 13.641600608825684 8.92453384399414, 13.510933876037598 8.92453384399414, 13.288800239562988 8.92453384399414 L 11.564000129699707 8.92453384399414 C 11.22426700592041 8.92453384399414, 11.211200714111328 8.92453384399414, 11.054400444030762 8.67626667022705 L 6.285067081451416 1.228266716003418 L 5.265866756439209 8.624000549316406 C 5.2266669273376465 8.92453384399414, 5.200533390045166 8.92453384399414, 4.860800266265869 8.92453384399414 L 3.070666790008545 8.92453384399414 C 2.8224000930786133 8.92453384399414, 2.678666830062866 8.92453384399414, 2.678666830062866 8.67626667022705 C 2.678666830062866 8.5194673538208, 2.796266794204712 8.5194673538208, 3.0576000213623047 8.5194673538208 C 3.2274668216705322 8.5194673538208, 3.4626667499542236 8.506400108337402, 3.619466781616211 8.49333381652832 C 3.828533411026001 8.46720027923584, 3.906933546066284 8.428000450134277, 3.906933546066284 8.28426742553711 C 3.906933546066284 8.232000350952148, 3.893866777420044 8.192800521850586, 3.8546667098999023 8.03600025177002 L 2.195199966430664 1.3850667476654053 C 2.0645334720611572 0.8624000549316406, 1.842400074005127 0.444266676902771, 0.784000039100647 0.40506666898727417 C 0.718666672706604 0.40506666898727417, 0.548799991607666 0.3920000195503235, 0.548799991607666 0.15680000185966492 C 0.548799991607666 0.03920000046491623, 0.6272000074386597 0, 0.7317333817481995 0 C 1.1498667001724243 0, 1.607200026512146 0.03920000046491623, 2.038400173187256 0.03920000046491623 C 2.4826667308807373 0.03920000046491623, 2.953066825866699 0, 3.3842668533325195 0 C 3.4496002197265625 0, 3.619466781616211 0, 3.619466781616211 0.2613333463668823 C 3.619466781616211 0.40506666898727417, 3.475733518600464 0.40506666898727417, 3.3842668533325195 0.40506666898727417 C 2.6394667625427246 0.41813334822654724, 2.4957334995269775 0.6794666647911072, 2.4957334995269775 0.9800000190734863 C 2.4957334995269775 1.0714666843414307, 2.5088000297546387 1.1368000507354736, 2.5480000972747803 1.2805334329605103 L 4.325067043304443 8.401866912841797 L 4.338133335113525 8.401866912841797 L 5.461866855621338 0.30053335428237915 C 5.488000392913818 0.14373333752155304, 5.5010666847229 0, 5.657866954803467 0 C 5.801599979400635 0, 5.880000114440918 0.14373333752155304, 5.945333480834961 0.23520000278949738 L 11.22426700592041 8.506400108337402 L 11.237333297729492 8.506400108337402 L 9.368800163269043 1.019200086593628 C 9.238133430480957 0.509600043296814, 9.211999893188477 0.40506666898727417, 8.179733276367188 0.40506666898727417 C 7.957600116729736 0.40506666898727417, 7.813867092132568 0.40506666898727417, 7.813867092132568 0.15680000185966492 C 7.813867092132568 0, 7.970666885375977 0, 8.009866714477539 0 L 9.630133628845215 0.03920000046491623 C 10.16586685180664 0.03920000046491623, 10.727733612060547 0, 11.263466835021973 0 C 11.341867446899414 0, 11.511734008789062 0, 11.511734008789062 0.2613333463668823 C 11.511734008789062 0.40506666898727417, 11.394133567810059 0.40506666898727417, 11.145867347717285 0.40506666898727417 C 10.662400245666504 0.40506666898727417, 10.296533584594727 0.40506666898727417, 10.296533584594727 0.6402667164802551 C 10.296533584594727 0.6925333738327026, 10.296533584594727 0.718666672706604, 10.36186695098877 0.953866720199585 L 12.099733352661133 7.918400287628174 C 12.217333793640137 8.388800621032715, 12.243467330932617 8.5194673538208, 13.223466873168945 8.5194673538208 C 13.52400016784668 8.5194673538208, 13.641600608825684 8.5194673538208, 13.641600608825684 8.780799865722656 Z " stroke="none" fill-rule="nonzero" fill="#000000" fill-opacity="1" transform="matrix(1,0,0,-1,94.64684677124023,26.189335823059082)" />
  <path d="M 4.573333263397217 2.631999969482422 C 4.573333263397217 3.5093331336975098, 4.041333198547363 4.125333309173584, 3.3319997787475586 4.125333309173584 C 2.865333318710327 4.125333309173584, 2.4173333644866943 3.7893331050872803, 2.1093332767486572 3.425333261489868 C 2.0160000324249268 3.929333209991455, 1.6146665811538696 4.125333309173584, 1.2693332433700562 4.125333309173584 C 0.8399999737739563 4.125333309173584, 0.6626666188240051 3.7613332271575928, 0.578666627407074 3.5933332443237305 C 0.41066664457321167 3.2759997844696045, 0.289333313703537 2.7159998416900635, 0.289333313703537 2.687999963760376 C 0.289333313703537 2.5946664810180664, 0.4013333320617676 2.5946664810180664, 0.4013333320617676 2.5946664810180664 C 0.4946666359901428 2.5946664810180664, 0.5040000081062317 2.6039998531341553, 0.5600000023841858 2.809333324432373 C 0.7186666131019592 3.4719998836517334, 0.9053332805633545 3.919999837875366, 1.241333246231079 3.919999837875366 C 1.399999976158142 3.919999837875366, 1.5306665897369385 3.8453330993652344, 1.5306665897369385 3.490666627883911 C 1.5306665897369385 3.2759997844696045, 1.5026665925979614 3.173333168029785, 1.4653332233428955 3.0146665573120117 L 0.41999998688697815 -1.1386666297912598 C 0.3453333079814911 -1.4559999704360962, 0.3266666531562805 -1.5213333368301392, -0.08399999886751175 -1.5213333368301392 C -0.19599999487400055 -1.5213333368301392, -0.29866665601730347 -1.5213333368301392, -0.29866665601730347 -1.6986665725708008 C -0.29866665601730347 -1.7733333110809326, -0.25200000405311584 -1.810666561126709, -0.17733332514762878 -1.810666561126709 C 0.07466666400432587 -1.810666561126709, 0.3453333079814911 -1.782666563987732, 0.606666624546051 -1.782666563987732 C 0.9146666526794434 -1.782666563987732, 1.2319999933242798 -1.810666561126709, 1.5306665897369385 -1.810666561126709 C 1.5773333311080933 -1.810666561126709, 1.6986665725708008 -1.810666561126709, 1.6986665725708008 -1.6239999532699585 C 1.6986665725708008 -1.5213333368301392, 1.6053333282470703 -1.5213333368301392, 1.4746665954589844 -1.5213333368301392 C 1.0080000162124634 -1.5213333368301392, 1.0080000162124634 -1.4559999704360962, 1.0080000162124634 -1.371999979019165 C 1.0080000162124634 -1.2599999904632568, 1.399999976158142 0.26133331656455994, 1.4653332233428955 0.4946666359901428 C 1.5866665840148926 0.2239999920129776, 1.847999930381775 -0.10266666114330292, 2.3239998817443848 -0.10266666114330292 C 3.4066665172576904 -0.10266666114330292, 4.573333263397217 1.2599999904632568, 4.573333263397217 2.631999969482422 Z M 3.9013330936431885 3.0426666736602783 C 3.9013330936431885 2.491999864578247, 3.5933332443237305 1.4186666011810303, 3.425333261489868 1.0640000104904175 C 3.107999801635742 0.41066664457321167, 2.6599998474121094 0.10266666114330292, 2.314666509628296 0.10266666114330292 C 1.6986665725708008 0.10266666114330292, 1.5773333311080933 0.8773332834243774, 1.5773333311080933 0.9333332777023315 C 1.5773333311080933 0.9333332777023315, 1.5773333311080933 0.9706666469573975, 1.6053333282470703 1.0826666355133057 L 2.062666654586792 2.9119999408721924 C 2.128000020980835 3.1639997959136963, 2.379999876022339 3.425333261489868, 2.547999858856201 3.565333127975464 C 2.874666452407837 3.8546664714813232, 3.1453332901000977 3.919999837875366, 3.303999900817871 3.919999837875366 C 3.677333116531372 3.919999837875366, 3.9013330936431885 3.5933332443237305, 3.9013330936431885 3.0426666736602783 Z " stroke="none" fill-rule="nonzero" fill="#000000" fill-opacity="1" transform="matrix(1,0,0,-1,107.32151412963867,29.416802644729614)" />
  <path d="M 37.803733825683594 4.666666507720947 L 84.41999816894531 4.666666507720947 " stroke="#000000" stroke-opacity="1" stroke-width="0.746666669845581" stroke-linecap="butt" stroke-linejoin="miter" fill="none" transform="matrix(1,0,0,-1,42.21964645385742,19.74933624267578)" />
  <path d="M 16.44533348083496 12.543999671936035 C 16.44533348083496 12.543999671936035, 16.44533348083496 12.749332427978516, 16.202665328979492 12.749332427978516 C 15.586666107177734 12.749332427978516, 14.933332443237305 12.69333267211914, 14.317333221435547 12.69333267211914 C 13.682665824890137 12.69333267211914, 13.029333114624023 12.749332427978516, 12.41333293914795 12.749332427978516 C 12.301332473754883 12.749332427978516, 12.077332496643066 12.749332427978516, 12.077332496643066 12.375999450683594 C 12.077332496643066 12.170666694641113, 12.263999938964844 12.170666694641113, 12.41333293914795 12.170666694641113 C 13.477333068847656 12.151999473571777, 13.682665824890137 11.75999927520752, 13.682665824890137 11.349332809448242 C 13.682665824890137 11.293333053588867, 13.645333290100098 11.013333320617676, 13.626666069030762 10.957332611083984 L 11.535999298095703 2.6506664752960205 L 7.410666465759277 12.39466667175293 C 7.261332988739014 12.730666160583496, 7.242666244506836 12.749332427978516, 6.813333034515381 12.749332427978516 L 4.311999797821045 12.749332427978516 C 3.938666582107544 12.749332427978516, 3.7706665992736816 12.749332427978516, 3.7706665992736816 12.375999450683594 C 3.7706665992736816 12.170666694641113, 3.938666582107544 12.170666694641113, 4.293333053588867 12.170666694641113 C 4.386666297912598 12.170666694641113, 5.562666416168213 12.170666694641113, 5.562666416168213 12.002666473388672 L 3.061333179473877 1.9786665439605713 C 2.874666452407837 1.2319999933242798, 2.55733323097229 0.6346666216850281, 1.0453332662582397 0.578666627407074 C 0.9333332777023315 0.578666627407074, 0.7279999852180481 0.5600000023841858, 0.7279999852180481 0.20533332228660583 C 0.7279999852180481 0.07466666400432587, 0.8213332891464233 0, 0.9706666469573975 0 C 1.5679999589920044 0, 2.2213332653045654 0.0559999980032444, 2.8373332023620605 0.0559999980032444 C 3.4719998836517334 0.0559999980032444, 4.144000053405762 0, 4.759999752044678 0 C 4.853332996368408 0, 5.095999717712402 0, 5.095999717712402 0.3733333349227905 C 5.095999717712402 0.5600000023841858, 4.927999973297119 0.578666627407074, 4.722666263580322 0.578666627407074 C 3.6399998664855957 0.6159999966621399, 3.490666627883911 1.0266666412353516, 3.490666627883911 1.399999976158142 C 3.490666627883911 1.5306665897369385, 3.5093331336975098 1.6239999532699585, 3.565333127975464 1.8293333053588867 L 6.029333114624023 11.685333251953125 C 6.103999614715576 11.573332786560059, 6.103999614715576 11.535999298095703, 6.197333335876465 11.349332809448242 L 10.845333099365234 0.35466665029525757 C 10.97599983215332 0.03733333200216293, 11.031999588012695 0, 11.199999809265137 0 C 11.405332565307617 0, 11.405332565307617 0.0559999980032444, 11.498665809631348 0.3919999897480011 L 14.11199951171875 10.78933334350586 C 14.298666000366211 11.535999298095703, 14.634666442871094 12.114665985107422, 16.128000259399414 12.170666694641113 C 16.221332550048828 12.170666694641113, 16.44533348083496 12.189332962036133, 16.44533348083496 12.543999671936035 Z " stroke="none" fill-rule="nonzero" fill="#000000" fill-opacity="1" transform="matrix(1,0,0,-1,73.64871215820312,51.3128023147583)" />
  <path d="M 6.402667045593262 3.684800148010254 C 6.402667045593262 4.913066864013672, 5.657866954803467 5.7754669189453125, 4.66480016708374 5.7754669189453125 C 4.011466979980469 5.7754669189453125, 3.3842668533325195 5.30506706237793, 2.953066825866699 4.795466899871826 C 2.8224000930786133 5.5010666847229, 2.260533332824707 5.7754669189453125, 1.777066707611084 5.7754669189453125 C 1.1759999990463257 5.7754669189453125, 0.9277333617210388 5.265866756439209, 0.8101333379745483 5.030666828155518 C 0.5749333500862122 4.586400032043457, 0.40506666898727417 3.8024001121520996, 0.40506666898727417 3.763200044631958 C 0.40506666898727417 3.632533550262451, 0.5618667006492615 3.632533550262451, 0.5618667006492615 3.632533550262451 C 0.6925333738327026 3.632533550262451, 0.7056000232696533 3.6456000804901123, 0.784000039100647 3.9330668449401855 C 1.0061333179473877 4.860800266265869, 1.26746666431427 5.488000392913818, 1.737866759300232 5.488000392913818 C 1.9600000381469727 5.488000392913818, 2.1429333686828613 5.383466720581055, 2.1429333686828613 4.886933326721191 C 2.1429333686828613 4.586400032043457, 2.1037333011627197 4.442667007446289, 2.051466703414917 4.22053337097168 L 0.5879999995231628 -1.5941333770751953 C 0.4834666848182678 -2.038400173187256, 0.45733335614204407 -2.1298668384552, -0.11760000139474869 -2.1298668384552 C -0.274399995803833 -2.1298668384552, -0.41813334822654724 -2.1298668384552, -0.41813334822654724 -2.378133535385132 C -0.41813334822654724 -2.4826667308807373, -0.35280001163482666 -2.53493332862854, -0.24826668202877045 -2.53493332862854 C 0.10453333705663681 -2.53493332862854, 0.4834666848182678 -2.4957334995269775, 0.8493333458900452 -2.4957334995269775 C 1.2805334329605103 -2.4957334995269775, 1.7248001098632812 -2.53493332862854, 2.1429333686828613 -2.53493332862854 C 2.2082667350769043 -2.53493332862854, 2.378133535385132 -2.53493332862854, 2.378133535385132 -2.2736001014709473 C 2.378133535385132 -2.1298668384552, 2.247466802597046 -2.1298668384552, 2.0645334720611572 -2.1298668384552 C 1.4112000465393066 -2.1298668384552, 1.4112000465393066 -2.038400173187256, 1.4112000465393066 -1.9208000898361206 C 1.4112000465393066 -1.7640000581741333, 1.9600000381469727 0.36586669087409973, 2.051466703414917 0.6925333738327026 C 2.2213335037231445 0.31360000371932983, 2.587200164794922 -0.14373333752155304, 3.2536001205444336 -0.14373333752155304 C 4.769333362579346 -0.14373333752155304, 6.402667045593262 1.7640000581741333, 6.402667045593262 3.684800148010254 Z M 5.461866855621338 4.2597336769104 C 5.461866855621338 3.488800048828125, 5.030666828155518 1.9861334562301636, 4.795466899871826 1.4896000623703003 C 4.351200103759766 0.5749333500862122, 3.7240002155303955 0.14373333752155304, 3.2405333518981934 0.14373333752155304 C 2.378133535385132 0.14373333752155304, 2.2082667350769043 1.228266716003418, 2.2082667350769043 1.3066667318344116 C 2.2082667350769043 1.3066667318344116, 2.2082667350769043 1.3589333295822144, 2.247466802597046 1.5157333612442017 L 2.8877334594726562 4.076800346374512 C 2.9792001247406006 4.429600238800049, 3.3320000171661377 4.795466899871826, 3.567200183868408 4.991466999053955 C 4.024533271789551 5.396533489227295, 4.403466701507568 5.488000392913818, 4.625600337982178 5.488000392913818 C 5.148266792297363 5.488000392913818, 5.461866855621338 5.030666828155518, 5.461866855621338 4.2597336769104 Z " stroke="none" fill-rule="nonzero" fill="#000000" fill-opacity="1" transform="matrix(1,0,0,-1,88.63804531097412,55.923468589782715)" />
  <path d="M 42.21964645385742 4.666666507720947 L 126.6396484375 4.666666507720947 " stroke="#000000" stroke-opacity="1" stroke-width="0.746666669845581" stroke-linecap="butt" stroke-linejoin="miter" fill="none" transform="matrix(1,0,0,-1,0,38.507469177246094)" />
</svg>