<?xml version="1.0" encoding="UTF-8" standalone="no"?>
<!DOCTYPE svg PUBLIC "-//W3C//DTD SVG 1.1//EN"
 "http://www.w3.org/Graphics/SVG/1.1/DTD/svg11.dtd">
<!-- Generated by graphviz version 2.43.0 (0)
 -->
<!-- Title: H Pages: 1 -->
<svg width="304pt" height="378pt"
 viewBox="0.00 0.00 303.80 377.80" xmlns="http://www.w3.org/2000/svg" xmlns:xlink="http://www.w3.org/1999/xlink">
<g id="graph0" class="graph" transform="scale(1 1) rotate(0) translate(14.4 363.4)">
<title>H</title>
<g id="clust1" class="cluster">
<title>clusterFlowElement</title>
<g id="a_clust1"><a xlink:href="_pipeline_api__concepts__flow_elements__flow_element.html#PipelineApi_Concepts_FlowElements_FlowElement" target="_top" xlink:title="&lt;B&gt;Flow Element&lt;/B&gt;">
<polygon fill="transparent" stroke="black" points="38,-247 38,-341 194,-341 194,-247 38,-247"/>
<text text-anchor="start" x="78" y="-330" font-family="Helvetica,sans-Serif" font-weight="bold" font-size="10.00">Flow Element</text>
</a>
</g>
</g>
<g id="clust2" class="cluster">
<title>clusterAspectEngine</title>
<g id="a_clust2"><a xlink:href="_pipeline_api__concepts__flow_elements__aspect_engine.html#PipelineApi_Concepts_FlowElements_AspectEngine" target="_top" xlink:title="&lt;B&gt;Aspect Engine&lt;/B&gt;">
<polygon fill="transparent" stroke="black" points="32,-116 32,-210 200,-210 200,-116 32,-116"/>
<text text-anchor="start" x="75.5" y="-199" font-family="Helvetica,sans-Serif" font-weight="bold" font-size="10.00">Aspect Engine</text>
</a>
</g>
</g>
<g id="clust3" class="cluster">
<title>clusterOnPremiseAspectEngine</title>
<g id="a_clust3"><a xlink:href="_pipeline_api__concepts__flow_elements__on_premise_engine.html#PipelineApi_Concepts_FlowElements_OnPremiseEngine" target="_top" xlink:title="&lt;B&gt;On&#45;Premise Engine&lt;/B&gt;">
<polygon fill="transparent" stroke="black" points="8,-8 8,-79 133,-79 133,-8 8,-8"/>
<text text-anchor="start" x="16" y="-68" font-family="Helvetica,sans-Serif" font-weight="bold" font-size="10.00">On&#45;Premise Engine</text>
</a>
</g>
</g>
<!-- FE -->
<g id="node1" class="node">
<title>FE</title>
<path fill="#cb3d36" stroke="transparent" d="M174,-314C174,-314 58,-314 58,-314 52,-314 46,-308 46,-302 46,-302 46,-267 46,-267 46,-261 52,-255 58,-255 58,-255 174,-255 174,-255 180,-255 186,-261 186,-267 186,-267 186,-302 186,-302 186,-308 180,-314 174,-314"/>
<path fill="#cb3d36" stroke="transparent" d="M66,-259C66,-259 166,-259 166,-259 172,-259 178,-265 178,-271 178,-271 178,-298 178,-298 178,-304 172,-310 166,-310 166,-310 66,-310 66,-310 60,-310 54,-304 54,-298 54,-298 54,-271 54,-271 54,-265 60,-259 66,-259"/>
<polygon fill="#cb3d36" stroke="transparent" points="54,-292.5 54,-309.5 178,-309.5 178,-292.5 54,-292.5"/>
<polygon fill="none" stroke="black" points="54,-292.5 54,-309.5 178,-309.5 178,-292.5 54,-292.5"/>
<text text-anchor="start" x="69" y="-298.5" font-family="Helvetica,sans-Serif" font-size="10.00" fill="white">Element Properties</text>
<polygon fill="#cb3d36" stroke="transparent" points="54,-275.5 54,-292.5 178,-292.5 178,-275.5 54,-275.5"/>
<polygon fill="none" stroke="black" points="54,-275.5 54,-292.5 178,-292.5 178,-275.5 54,-275.5"/>
<text text-anchor="start" x="82.5" y="-281.5" font-family="Helvetica,sans-Serif" font-size="10.00" fill="white">Element Data</text>
<polygon fill="#cb3d36" stroke="transparent" points="54,-258.5 54,-275.5 178,-275.5 178,-258.5 54,-258.5"/>
<polygon fill="none" stroke="black" points="54,-258.5 54,-275.5 178,-275.5 178,-258.5 54,-258.5"/>
<text text-anchor="start" x="57" y="-264.5" font-family="Helvetica,sans-Serif" font-size="10.00" fill="white">Logging of Process calls</text>
</g>
<!-- AE -->
<g id="node2" class="node">
<title>AE</title>
<path fill="#cb3d36" stroke="transparent" d="M179.5,-183C179.5,-183 52.5,-183 52.5,-183 46.5,-183 40.5,-177 40.5,-171 40.5,-171 40.5,-136 40.5,-136 40.5,-130 46.5,-124 52.5,-124 52.5,-124 179.5,-124 179.5,-124 185.5,-124 191.5,-130 191.5,-136 191.5,-136 191.5,-171 191.5,-171 191.5,-177 185.5,-183 179.5,-183"/>
<path fill="#cb3d36" stroke="transparent" d="M60.5,-128C60.5,-128 171.5,-128 171.5,-128 177.5,-128 183.5,-134 183.5,-140 183.5,-140 183.5,-167 183.5,-167 183.5,-173 177.5,-179 171.5,-179 171.5,-179 60.5,-179 60.5,-179 54.5,-179 48.5,-173 48.5,-167 48.5,-167 48.5,-140 48.5,-140 48.5,-134 54.5,-128 60.5,-128"/>
<polygon fill="#cb3d36" stroke="transparent" points="49,-161.5 49,-178.5 184,-178.5 184,-161.5 49,-161.5"/>
<polygon fill="none" stroke="black" points="49,-161.5 49,-178.5 184,-178.5 184,-161.5 49,-161.5"/>
<text text-anchor="start" x="80" y="-167.5" font-family="Helvetica,sans-Serif" font-size="10.00" fill="white">Result Caching</text>
<polygon fill="#cb3d36" stroke="transparent" points="49,-144.5 49,-161.5 184,-161.5 184,-144.5 49,-144.5"/>
<polygon fill="none" stroke="black" points="49,-144.5 49,-161.5 184,-161.5 184,-144.5 49,-144.5"/>
<text text-anchor="start" x="84.5" y="-150.5" font-family="Helvetica,sans-Serif" font-size="10.00" fill="white">Lazy Loading</text>
<polygon fill="#cb3d36" stroke="transparent" points="49,-127.5 49,-144.5 184,-144.5 184,-127.5 49,-127.5"/>
<polygon fill="none" stroke="black" points="49,-127.5 49,-144.5 184,-144.5 184,-127.5 49,-127.5"/>
<text text-anchor="start" x="52" y="-133.5" font-family="Helvetica,sans-Serif" font-size="10.00" fill="white">Missing Property Handling</text>
</g>
<!-- FE&#45;&gt;AE -->
<g id="edge1" class="edge">
<title>FE&#45;&gt;AE</title>
<path fill="none" stroke="black" d="M116,-247C116,-238.61 116,-229.43 116,-220.21"/>
<polygon fill="black" stroke="black" points="119.5,-220 116,-210 112.5,-220 119.5,-220"/>
</g>
<!-- OPE -->
<g id="node3" class="node">
<title>OPE</title>
<path fill="#cb3d36" stroke="transparent" d="M111,-52C111,-52 29,-52 29,-52 23,-52 17,-46 17,-40 17,-40 17,-28 17,-28 17,-22 23,-16 29,-16 29,-16 111,-16 111,-16 117,-16 123,-22 123,-28 123,-28 123,-40 123,-40 123,-46 117,-52 111,-52"/>
<path fill="#cb3d36" stroke="transparent" d="M30.67,-25.5C30.67,-25.5 109.33,-25.5 109.33,-25.5 112.17,-25.5 115,-28.33 115,-31.17 115,-31.17 115,-36.83 115,-36.83 115,-39.67 112.17,-42.5 109.33,-42.5 109.33,-42.5 30.67,-42.5 30.67,-42.5 27.83,-42.5 25,-39.67 25,-36.83 25,-36.83 25,-31.17 25,-31.17 25,-28.33 27.83,-25.5 30.67,-25.5"/>
<polygon fill="#cb3d36" stroke="transparent" points="25,-25 25,-42 115,-42 115,-25 25,-25"/>
<polygon fill="none" stroke="black" points="25,-25 25,-42 115,-42 115,-25 25,-25"/>
<text text-anchor="start" x="28" y="-31" font-family="Helvetica,sans-Serif" font-size="10.00" fill="white">Data file updates</text>
</g>
<!-- AE&#45;&gt;OPE -->
<g id="edge2" class="edge">
<title>AE&#45;&gt;OPE</title>
<path fill="none" stroke="black" d="M101.71,-116C98.31,-107.32 94.62,-97.88 90.99,-88.61"/>
<polygon fill="black" stroke="black" points="94.13,-87.03 87.22,-79 87.61,-89.58 94.13,-87.03"/>
</g>
<!-- CE -->
<g id="node4" class="node">
<title>CE</title>
<g id="a_node4"><a xlink:href="_pipeline_api__concepts__flow_elements__cloud_engine.html#PipelineApi_Concepts_FlowElements_CloudEngine" target="_top" xlink:title="Cloud Engine">
<path fill="#cb3d36" stroke="black" d="M263,-52C263,-52 207,-52 207,-52 201,-52 195,-46 195,-40 195,-40 195,-28 195,-28 195,-22 201,-16 207,-16 207,-16 263,-16 263,-16 269,-16 275,-22 275,-28 275,-28 275,-40 275,-40 275,-46 269,-52 263,-52"/>
<text text-anchor="middle" x="235" y="-31.5" font-family="Helvetica,sans-Serif" font-size="10.00" fill="white">Cloud Engine</text>
</a>
</g>
</g>
<!-- AE&#45;&gt;CE -->
<g id="edge3" class="edge">
<title>AE&#45;&gt;CE</title>
<path fill="none" stroke="black" d="M152.96,-116C171.68,-97.52 193.88,-75.6 210.47,-59.22"/>
<polygon fill="black" stroke="black" points="212.95,-61.69 217.61,-52.17 208.03,-56.71 212.95,-61.69"/>
</g>
</g>
</svg>
