<?xml version="1.0" encoding="UTF-8" standalone="no"?>
<!DOCTYPE svg PUBLIC "-//W3C//DTD SVG 1.1//EN"
 "http://www.w3.org/Graphics/SVG/1.1/DTD/svg11.dtd">
<!-- Generated by graphviz version 2.43.0 (0)
 -->
<!-- Title: P Pages: 1 -->
<svg width="264pt" height="149pt"
 viewBox="0.00 0.00 264.00 149.00" xmlns="http://www.w3.org/2000/svg" xmlns:xlink="http://www.w3.org/1999/xlink">
<g id="graph0" class="graph" transform="scale(1 1) rotate(0) translate(4 145)">
<title>P</title>
<g id="clust1" class="cluster">
<title>clusterFD</title>
<g id="a_clust1"><a xlink:href="_pipeline_api__concepts__data__flow_data.html#PipelineApi_Concepts_Data_FlowData" target="_top" xlink:title="Flow Data">
<polygon fill="transparent" stroke="black" points="8,-8 8,-133 107,-133 107,-8 8,-8"/>
<text text-anchor="middle" x="57.5" y="-121" font-family="Helvetica,sans-Serif" font-size="10.00">Flow Data</text>
</a>
</g>
</g>
<!-- E -->
<g id="node1" class="node">
<title>E</title>
<g id="a_node1"><a xlink:href="_pipeline_api__concepts__data__evidence.html#PipelineApi_Concepts_Data_Evidence" target="_top" xlink:title="Evidence">
<path fill="#cb3d36" stroke="black" d="M76,-106C76,-106 39,-106 39,-106 33,-106 27,-100 27,-94 27,-94 27,-82 27,-82 27,-76 33,-70 39,-70 39,-70 76,-70 76,-70 82,-70 88,-76 88,-82 88,-82 88,-94 88,-94 88,-100 82,-106 76,-106"/>
<text text-anchor="middle" x="57.5" y="-85.5" font-family="Helvetica,sans-Serif" font-size="10.00" fill="white">Evidence</text>
</a>
</g>
</g>
<!-- FE -->
<g id="node3" class="node">
<title>FE</title>
<g id="a_node3"><a xlink:href="_pipeline_api__concepts__flow_elements__index.html#PipelineApi_Concepts_FlowElements_Index" target="_top" xlink:title="Flow Element">
<path fill="#cb3d36" stroke="black" d="M244,-81C244,-81 185,-81 185,-81 179,-81 173,-75 173,-69 173,-69 173,-57 173,-57 173,-51 179,-45 185,-45 185,-45 244,-45 244,-45 250,-45 256,-51 256,-57 256,-57 256,-69 256,-69 256,-75 250,-81 244,-81"/>
<text text-anchor="middle" x="214.5" y="-60.5" font-family="Helvetica,sans-Serif" font-size="10.00" fill="white">Flow Element</text>
</a>
</g>
</g>
<!-- E&#45;&gt;FE -->
<g id="edge1" class="edge">
<title>E&#45;&gt;FE</title>
<path fill="none" stroke="black" d="M107,-80.18C124.81,-77.31 145,-74.05 162.99,-71.15"/>
<polygon fill="black" stroke="black" points="163.65,-74.59 172.97,-69.54 162.54,-67.67 163.65,-74.59"/>
<text text-anchor="middle" x="136" y="-81" font-family="Helvetica,sans-Serif" font-size="10.00">process</text>
</g>
<!-- ED -->
<g id="node2" class="node">
<title>ED</title>
<g id="a_node2"><a xlink:href="_pipeline_api__concepts__data__element_data.html#PipelineApi_Concepts_Data_ElementData" target="_top" xlink:title="Element Data">
<path fill="#cb3d36" stroke="black" d="M87,-52C87,-52 28,-52 28,-52 22,-52 16,-46 16,-40 16,-40 16,-28 16,-28 16,-22 22,-16 28,-16 28,-16 87,-16 87,-16 93,-16 99,-22 99,-28 99,-28 99,-40 99,-40 99,-46 93,-52 87,-52"/>
<text text-anchor="middle" x="57.5" y="-31.5" font-family="Helvetica,sans-Serif" font-size="10.00" fill="white">Element Data</text>
</a>
</g>
</g>
<!-- FE&#45;&gt;ED -->
<g id="edge2" class="edge">
<title>FE&#45;&gt;ED</title>
<path fill="none" stroke="black" d="M172.78,-55.38C153.28,-51.73 129.73,-47.33 109.09,-43.47"/>
<polygon fill="black" stroke="black" points="109.7,-40.02 99.22,-41.62 108.41,-46.9 109.7,-40.02"/>
<text text-anchor="middle" x="136" y="-54" font-family="Helvetica,sans-Serif" font-size="10.00">output</text>
</g>
</g>
</svg>
