<?xml version="1.0" encoding="UTF-8" standalone="no"?>
<!DOCTYPE svg PUBLIC "-//W3C//DTD SVG 1.1//EN"
 "http://www.w3.org/Graphics/SVG/1.1/DTD/svg11.dtd">
<!-- Generated by graphviz version 2.43.0 (0)
 -->
<!-- Title: H Pages: 1 -->
<svg width="379pt" height="337pt"
 viewBox="0.00 0.00 379.00 337.00" xmlns="http://www.w3.org/2000/svg" xmlns:xlink="http://www.w3.org/1999/xlink">
<g id="graph0" class="graph" transform="scale(1 1) rotate(0) translate(4 333)">
<title>H</title>
<!-- FE -->
<g id="node1" class="node">
<title>FE</title>
<g id="a_node1"><a xlink:href="_pipeline_api__concepts__flow_elements__flow_element.html#PipelineApi_Concepts_FlowElements_FlowElement" target="_top" xlink:title="Flow Element">
<polygon fill="none" stroke="black" points="288,-292.5 288,-328.5 371,-328.5 371,-292.5 288,-292.5"/>
<text text-anchor="middle" x="329.5" y="-308" font-family="Helvetica,sans-Serif" font-size="10.00">Flow Element</text>
</a>
</g>
</g>
<!-- AE -->
<g id="node2" class="node">
<title>AE</title>
<g id="a_node2"><a xlink:href="_pipeline_api__concepts__flow_elements__aspect_engine.html#PipelineApi_Concepts_FlowElements_AspectEngine" target="_top" xlink:title="Aspect Engine">
<polygon fill="none" stroke="black" points="251.5,-219.5 251.5,-255.5 337.5,-255.5 337.5,-219.5 251.5,-219.5"/>
<text text-anchor="middle" x="294.5" y="-235" font-family="Helvetica,sans-Serif" font-size="10.00">Aspect Engine</text>
</a>
</g>
</g>
<!-- FE&#45;&gt;AE -->
<g id="edge1" class="edge">
<title>FE&#45;&gt;AE</title>
<path fill="none" stroke="black" d="M321.03,-292.31C316.94,-284.03 311.96,-273.91 307.41,-264.69"/>
<polygon fill="black" stroke="black" points="310.46,-262.95 302.89,-255.53 304.18,-266.05 310.46,-262.95"/>
</g>
<!-- I -->
<g id="node6" class="node">
<title>I</title>
<polygon fill="none" stroke="black" points="211.5,-0.5 211.5,-36.5 311.5,-36.5 311.5,-0.5 211.5,-0.5"/>
<text text-anchor="middle" x="261.5" y="-16" font-family="Helvetica,sans-Serif" font-size="10.00">Implementations</text>
</g>
<!-- FE&#45;&gt;I -->
<g id="edge5" class="edge">
<title>FE&#45;&gt;I</title>
<path fill="none" stroke="black" stroke-dasharray="5,2" d="M336.39,-292.48C340.21,-282.12 344.56,-268.52 346.5,-256 355.4,-198.58 337.89,-89.79 328.5,-73 321.84,-61.09 311.37,-50.86 300.66,-42.62"/>
<polygon fill="black" stroke="black" points="302.64,-39.73 292.48,-36.71 298.54,-45.41 302.64,-39.73"/>
</g>
<!-- OPE -->
<g id="node4" class="node">
<title>OPE</title>
<g id="a_node4"><a xlink:href="_pipeline_api__concepts__flow_elements__on_premise_engine.html#PipelineApi_Concepts_FlowElements_OnPremiseEngine" target="_top" xlink:title="On&#45;Premise Engine">
<polygon fill="none" stroke="black" points="138.5,-146.5 138.5,-182.5 248.5,-182.5 248.5,-146.5 138.5,-146.5"/>
<text text-anchor="middle" x="193.5" y="-162" font-family="Helvetica,sans-Serif" font-size="10.00">On&#45;Premise Engine</text>
</a>
</g>
</g>
<!-- AE&#45;&gt;OPE -->
<g id="edge2" class="edge">
<title>AE&#45;&gt;OPE</title>
<path fill="none" stroke="black" d="M270.31,-219.49C257.16,-210.25 240.72,-198.69 226.42,-188.64"/>
<polygon fill="black" stroke="black" points="228.04,-185.5 217.84,-182.61 224.01,-191.23 228.04,-185.5"/>
</g>
<!-- CE -->
<g id="node5" class="node">
<title>CE</title>
<g id="a_node5"><a xlink:href="_pipeline_api__concepts__flow_elements__cloud_engine.html#PipelineApi_Concepts_FlowElements_CloudEngine" target="_top" xlink:title="Cloud Engine">
<polygon fill="none" stroke="black" points="221.5,-73.5 221.5,-109.5 301.5,-109.5 301.5,-73.5 221.5,-73.5"/>
<text text-anchor="middle" x="261.5" y="-89" font-family="Helvetica,sans-Serif" font-size="10.00">Cloud Engine</text>
</a>
</g>
</g>
<!-- AE&#45;&gt;CE -->
<g id="edge4" class="edge">
<title>AE&#45;&gt;CE</title>
<path fill="none" stroke="black" d="M290.58,-219.42C284.93,-194.73 274.41,-148.85 267.7,-119.54"/>
<polygon fill="black" stroke="black" points="271.06,-118.53 265.41,-109.56 264.23,-120.09 271.06,-118.53"/>
</g>
<!-- AE&#45;&gt;I -->
<g id="edge6" class="edge">
<title>AE&#45;&gt;I</title>
<path fill="none" stroke="black" stroke-dasharray="5,2" d="M301.23,-219.09C312,-188.42 330.03,-123.24 310.5,-73 306.27,-62.12 298.69,-52.11 290.73,-43.77"/>
<polygon fill="black" stroke="black" points="292.99,-41.09 283.4,-36.59 288.1,-46.09 292.99,-41.09"/>
</g>
<!-- FODE -->
<g id="node3" class="node">
<title>FODE</title>
<g id="a_node3"><a xlink:href="_pipeline_api__concepts__flow_elements__fifty_one_on_premise_engine.html#PipelineApi_Concepts_FlowElements_FiftyOneOnPremiseEngine" target="_top" xlink:title="51Degrees On&#45;Premise Engine">
<polygon fill="none" stroke="black" points="0,-73.5 0,-109.5 165,-109.5 165,-73.5 0,-73.5"/>
<text text-anchor="middle" x="82.5" y="-89" font-family="Helvetica,sans-Serif" font-size="10.00">51Degrees On&#45;Premise Engine</text>
</a>
</g>
</g>
<!-- FODE&#45;&gt;I -->
<g id="edge7" class="edge">
<title>FODE&#45;&gt;I</title>
<path fill="none" stroke="black" stroke-dasharray="5,2" d="M125.37,-73.49C150.43,-63.56 182.25,-50.93 208.82,-40.39"/>
<polygon fill="black" stroke="black" points="210.35,-43.55 218.35,-36.61 207.77,-37.05 210.35,-43.55"/>
</g>
<!-- OPE&#45;&gt;FODE -->
<g id="edge3" class="edge">
<title>OPE&#45;&gt;FODE</title>
<path fill="none" stroke="black" d="M166.91,-146.49C152.19,-137.08 133.71,-125.26 117.79,-115.07"/>
<polygon fill="black" stroke="black" points="119.57,-112.05 109.26,-109.61 115.79,-117.95 119.57,-112.05"/>
</g>
<!-- OPE&#45;&gt;I -->
<g id="edge8" class="edge">
<title>OPE&#45;&gt;I</title>
<path fill="none" stroke="black" stroke-dasharray="5,2" d="M194.41,-146.26C196.01,-127.35 200.4,-96.57 212.5,-73 217.87,-62.53 225.85,-52.58 233.81,-44.16"/>
<polygon fill="black" stroke="black" points="236.47,-46.45 241.05,-36.89 231.51,-41.51 236.47,-46.45"/>
</g>
<!-- CE&#45;&gt;I -->
<g id="edge9" class="edge">
<title>CE&#45;&gt;I</title>
<path fill="none" stroke="black" stroke-dasharray="5,2" d="M261.5,-73.31C261.5,-65.29 261.5,-55.55 261.5,-46.57"/>
<polygon fill="black" stroke="black" points="265,-46.53 261.5,-36.53 258,-46.53 265,-46.53"/>
</g>
</g>
</svg>
