<?xml version="1.0" encoding="UTF-8" standalone="no"?>
<!DOCTYPE svg PUBLIC "-//W3C//DTD SVG 1.1//EN"
 "http://www.w3.org/Graphics/SVG/1.1/DTD/svg11.dtd">
<!-- Generated by graphviz version 2.43.0 (0)
 -->
<!-- Title: P Pages: 1 -->
<svg width="264pt" height="152pt"
 viewBox="0.00 0.00 264.00 152.00" xmlns="http://www.w3.org/2000/svg" xmlns:xlink="http://www.w3.org/1999/xlink">
<g id="graph0" class="graph" transform="scale(1 1) rotate(0) translate(4 148)">
<title>P</title>
<g id="clust1" class="cluster">
<title>clusterFD</title>
<g id="a_clust1"><a xlink:href="_pipeline_api__concepts__data__flow_data.html#PipelineApi_Concepts_Data_FlowData" target="_top" xlink:title="Flow Data">
<polygon fill="transparent" stroke="black" points="8,-8 8,-136 107,-136 107,-8 8,-8"/>
<text text-anchor="middle" x="57.5" y="-124" font-family="Helvetica,sans-Serif" font-size="10.00">Flow Data</text>
</a>
</g>
</g>
<!-- E -->
<g id="node1" class="node">
<title>E</title>
<g id="a_node1"><a xlink:href="_pipeline_api__concepts__data__evidence.html#PipelineApi_Concepts_Data_Evidence" target="_top" xlink:title="Evidence">
<polygon fill="none" stroke="black" points="27,-72 27,-108 88,-108 88,-72 27,-72"/>
<text text-anchor="middle" x="57.5" y="-87.5" font-family="Helvetica,sans-Serif" font-size="10.00">Evidence</text>
</a>
</g>
</g>
<!-- FE -->
<g id="node3" class="node">
<title>FE</title>
<g id="a_node3"><a xlink:href="_pipeline_api__concepts__flow_elements__index.html#PipelineApi_Concepts_FlowElements_Index" target="_top" xlink:title="Flow Element">
<polygon fill="none" stroke="black" points="173,-46 173,-82 256,-82 256,-46 173,-46"/>
<text text-anchor="middle" x="214.5" y="-61.5" font-family="Helvetica,sans-Serif" font-size="10.00">Flow Element</text>
</a>
</g>
</g>
<!-- E&#45;&gt;FE -->
<g id="edge1" class="edge">
<title>E&#45;&gt;FE</title>
<path fill="none" stroke="black" d="M107,-81.87C124.81,-78.88 145,-75.49 162.99,-72.47"/>
<polygon fill="black" stroke="black" points="163.68,-75.91 172.97,-70.8 162.53,-69 163.68,-75.91"/>
<text text-anchor="middle" x="136" y="-83" font-family="Helvetica,sans-Serif" font-size="10.00">process</text>
</g>
<!-- ED -->
<g id="node2" class="node">
<title>ED</title>
<g id="a_node2"><a xlink:href="_pipeline_api__concepts__data__element_data.html#PipelineApi_Concepts_Data_ElementData" target="_top" xlink:title="Element Data">
<polygon fill="none" stroke="black" points="16,-17 16,-53 99,-53 99,-17 16,-17"/>
<text text-anchor="middle" x="57.5" y="-32.5" font-family="Helvetica,sans-Serif" font-size="10.00">Element Data</text>
</a>
</g>
</g>
<!-- FE&#45;&gt;ED -->
<g id="edge2" class="edge">
<title>FE&#45;&gt;ED</title>
<path fill="none" stroke="black" d="M172.78,-56.38C153.28,-52.73 129.73,-48.33 109.09,-44.47"/>
<polygon fill="black" stroke="black" points="109.7,-41.02 99.22,-42.62 108.41,-47.9 109.7,-41.02"/>
<text text-anchor="middle" x="136" y="-55" font-family="Helvetica,sans-Serif" font-size="10.00">output</text>
</g>
</g>
</svg>
