<?xml version="1.0" encoding="UTF-8" standalone="no"?>
<!DOCTYPE svg PUBLIC "-//W3C//DTD SVG 1.1//EN"
 "http://www.w3.org/Graphics/SVG/1.1/DTD/svg11.dtd">
<!-- Generated by graphviz version 2.43.0 (0)
 -->
<!-- Title: pipelineflow Pages: 1 -->
<svg width="153pt" height="127pt"
 viewBox="0.00 0.00 152.62 127.00" xmlns="http://www.w3.org/2000/svg" xmlns:xlink="http://www.w3.org/1999/xlink">
<g id="graph0" class="graph" transform="scale(1 1) rotate(0) translate(4 123)">
<title>pipelineflow</title>
<!-- P -->
<g id="node1" class="node">
<title>P</title>
<path fill="#cb3d36" stroke="black" d="M79.62,-119C79.62,-119 47.62,-119 47.62,-119 41.62,-119 35.62,-113 35.62,-107 35.62,-107 35.62,-95 35.62,-95 35.62,-89 41.62,-83 47.62,-83 47.62,-83 79.62,-83 79.62,-83 85.62,-83 91.62,-89 91.62,-95 91.62,-95 91.62,-107 91.62,-107 91.62,-113 85.62,-119 79.62,-119"/>
<text text-anchor="middle" x="63.62" y="-98.5" font-family="Helvetica,sans-Serif" font-size="10.00" fill="white">Pipeline</text>
</g>
<!-- FD -->
<g id="node2" class="node">
<title>FD</title>
<g id="a_node2"><a xlink:href="_pipeline_api__concepts__data__flow_data.html#PipelineApi_Concepts_Data_FlowData" target="_top" xlink:title="Flow Data">
<path fill="#cb3d36" stroke="black" d="M84.62,-36C84.62,-36 42.62,-36 42.62,-36 36.62,-36 30.62,-30 30.62,-24 30.62,-24 30.62,-12 30.62,-12 30.62,-6 36.62,0 42.62,0 42.62,0 84.62,0 84.62,0 90.62,0 96.62,-6 96.62,-12 96.62,-12 96.62,-24 96.62,-24 96.62,-30 90.62,-36 84.62,-36"/>
<text text-anchor="middle" x="63.62" y="-15.5" font-family="Helvetica,sans-Serif" font-size="10.00" fill="white">Flow Data</text>
</a>
</g>
</g>
<!-- P&#45;&gt;FD -->
<g id="edge1" class="edge">
<title>P&#45;&gt;FD</title>
<path fill="none" stroke="black" d="M35.53,-91.18C23.13,-85.73 9.78,-77.36 2.62,-65 -5,-51.86 6.41,-41.27 21.34,-33.57"/>
<polygon fill="black" stroke="black" points="22.81,-36.75 30.43,-29.38 19.88,-30.4 22.81,-36.75"/>
<text text-anchor="middle" x="18.12" y="-57" font-family="Helvetica,sans-Serif" font-size="10.00">create</text>
</g>
<!-- P&#45;&gt;FD -->
<g id="edge3" class="edge">
<title>P&#45;&gt;FD</title>
<path fill="none" stroke="green" d="M62.45,-82.92C62.11,-77.22 61.78,-70.84 61.62,-65 61.44,-58.86 61.55,-52.26 61.79,-46.02"/>
<polygon fill="green" stroke="green" points="65.29,-46.2 62.29,-36.04 58.3,-45.85 65.29,-46.2"/>
</g>
<!-- FD&#45;&gt;P -->
<g id="edge2" class="edge">
<title>FD&#45;&gt;P</title>
<path fill="none" stroke="green" d="M63.62,-36.15C63.62,-46.78 63.62,-60.66 63.62,-72.77"/>
<polygon fill="green" stroke="green" points="60.12,-72.82 63.62,-82.82 67.12,-72.82 60.12,-72.82"/>
<text text-anchor="middle" x="82.62" y="-57" font-family="Helvetica,sans-Serif" font-size="10.00">process</text>
</g>
<!-- FD&#45;&gt;P -->
<g id="edge4" class="edge">
<title>FD&#45;&gt;P</title>
<path fill="none" stroke="black" d="M93.68,-36.09C103.49,-44.04 110.71,-54.13 105.62,-65 103.81,-68.87 101.33,-72.46 98.49,-75.75"/>
<polygon fill="black" stroke="black" points="95.94,-73.34 91.31,-82.87 100.87,-78.31 95.94,-73.34"/>
<text text-anchor="middle" x="125.62" y="-57" font-family="Helvetica,sans-Serif" font-size="10.00">dispose</text>
</g>
</g>
</svg>
