<?xml version="1.0" encoding="UTF-8" standalone="no"?>
<!DOCTYPE svg PUBLIC "-//W3C//DTD SVG 1.1//EN"
 "http://www.w3.org/Graphics/SVG/1.1/DTD/svg11.dtd">
<!-- Generated by graphviz version 2.43.0 (0)
 -->
<!-- Title: %3 Pages: 1 -->
<svg width="464pt" height="245pt"
 viewBox="0.00 0.00 464.00 245.00" xmlns="http://www.w3.org/2000/svg" xmlns:xlink="http://www.w3.org/1999/xlink">
<g id="graph0" class="graph" transform="scale(1 1) rotate(0) translate(4 241)">
<title>%3</title>
<g id="clust1" class="cluster">
<title>clusterDataKey</title>
<polygon fill="transparent" stroke="black" points="8,-81 8,-156 216,-156 216,-81 8,-81"/>
<text text-anchor="start" x="86.5" y="-145" font-family="Helvetica,sans-Serif" font-weight="bold" font-size="10.00">Data key</text>
</g>
<g id="clust2" class="cluster">
<title>clusterCache</title>
<polygon fill="transparent" stroke="black" points="236,-8 236,-229 448,-229 448,-8 236,-8"/>
<text text-anchor="start" x="314" y="-217" font-family="Helvetica,sans-Serif" font-size="10.00">Cache keys</text>
</g>
<!-- Keys -->
<g id="node1" class="node">
<title>Keys</title>
<polygon fill="none" stroke="black" points="16,-90 16,-128 208,-128 208,-90 16,-90"/>
<text text-anchor="middle" x="66" y="-116" font-family="Helvetica,sans-Serif" font-size="10.00">Latitude = 51.3</text>
<polyline fill="none" stroke="black" points="16,-109 116,-109 "/>
<text text-anchor="middle" x="66" y="-97" font-family="Helvetica,sans-Serif" font-size="10.00">Longitude = 11.5</text>
<polyline fill="none" stroke="black" points="116,-90 116,-128 "/>
<text text-anchor="middle" x="162" y="-106.5" font-family="Helvetica,sans-Serif" font-size="10.00">Hash = 123456</text>
</g>
<!-- Keys2 -->
<g id="node3" class="node">
<title>Keys2</title>
<polygon fill="lightgreen" stroke="transparent" points="252,-109 252,-130 346,-130 346,-109 252,-109"/>
<polygon fill="none" stroke="black" points="252,-109 252,-130 346,-130 346,-109 252,-109"/>
<text text-anchor="start" x="261" y="-117" font-family="Helvetica,sans-Serif" font-size="10.00">Latitude = 51.3</text>
<polygon fill="lightgreen" stroke="transparent" points="346,-88 346,-130 432,-130 432,-88 346,-88"/>
<polygon fill="none" stroke="black" points="346,-88 346,-130 432,-130 432,-88 346,-88"/>
<text text-anchor="start" x="351" y="-106.5" font-family="Helvetica,sans-Serif" font-size="10.00">Hash = 123456</text>
<polygon fill="lightgreen" stroke="transparent" points="252,-88 252,-109 346,-109 346,-88 252,-88"/>
<polygon fill="none" stroke="black" points="252,-88 252,-109 346,-109 346,-88 252,-88"/>
<text text-anchor="start" x="257" y="-96" font-family="Helvetica,sans-Serif" font-size="10.00">Longitude = 11.5</text>
</g>
<!-- Keys&#45;&gt;Keys2 -->
<g id="edge1" class="edge">
<title>Keys&#45;&gt;Keys2</title>
<path fill="none" stroke="black" d="M208.04,-109C216.56,-109 225.22,-109 233.84,-109"/>
<polygon fill="black" stroke="black" points="233.91,-112.5 243.91,-109 233.91,-105.5 233.91,-112.5"/>
</g>
<!-- Keys1 -->
<g id="node2" class="node">
<title>Keys1</title>
<polygon fill="none" stroke="black" points="252,-177 252,-198 346,-198 346,-177 252,-177"/>
<text text-anchor="start" x="264" y="-185" font-family="Helvetica,sans-Serif" font-size="10.00">Latitude = 1.6</text>
<polygon fill="lightgreen" stroke="transparent" points="346,-156 346,-198 432,-198 432,-156 346,-156"/>
<polygon fill="none" stroke="black" points="346,-156 346,-198 432,-198 432,-156 346,-156"/>
<text text-anchor="start" x="351" y="-174.5" font-family="Helvetica,sans-Serif" font-size="10.00">Hash = 123456</text>
<polygon fill="none" stroke="black" points="252,-156 252,-177 346,-177 346,-156 252,-156"/>
<text text-anchor="start" x="257" y="-164" font-family="Helvetica,sans-Serif" font-size="10.00">Longitude = 48.6</text>
</g>
<!-- Keys3 -->
<g id="node4" class="node">
<title>Keys3</title>
<polygon fill="none" stroke="black" points="253,-41 253,-62 345,-62 345,-41 253,-41"/>
<text text-anchor="start" x="258" y="-49" font-family="Helvetica,sans-Serif" font-size="10.00">Latitude = 149.1</text>
<polygon fill="none" stroke="black" points="345,-20 345,-62 431,-62 431,-20 345,-20"/>
<text text-anchor="start" x="350" y="-38.5" font-family="Helvetica,sans-Serif" font-size="10.00">Hash = 725528</text>
<polygon fill="none" stroke="black" points="253,-20 253,-41 345,-41 345,-20 253,-20"/>
<text text-anchor="start" x="260" y="-28" font-family="Helvetica,sans-Serif" font-size="10.00">Longitude = 4.0</text>
</g>
</g>
</svg>
