<?xml version="1.0" encoding="UTF-8" standalone="no"?>
<!DOCTYPE svg PUBLIC "-//W3C//DTD SVG 1.1//EN"
 "http://www.w3.org/Graphics/SVG/1.1/DTD/svg11.dtd">
<!-- Generated by graphviz version 2.43.0 (0)
 -->
<!-- Title: %3 Pages: 1 -->
<svg width="340pt" height="154pt"
 viewBox="0.00 0.00 340.00 154.00" xmlns="http://www.w3.org/2000/svg" xmlns:xlink="http://www.w3.org/1999/xlink">
<g id="graph0" class="graph" transform="scale(1 1) rotate(0) translate(4 150)">
<title>%3</title>
<g id="clust1" class="cluster">
<title>clusterFlowData</title>
<g id="a_clust1"><a xlink:href="_pipeline_api__concepts__data__flow_data.html#PipelineApi_Concepts_Data_FlowData" target="_top" xlink:title="Flow data">
<polygon fill="transparent" stroke="black" points="8,-8 8,-138 117,-138 117,-8 8,-8"/>
<text text-anchor="middle" x="62.5" y="-126" font-family="Helvetica,sans-Serif" font-size="10.00">Flow data</text>
</a>
</g>
</g>
<g id="clust2" class="cluster">
<title>clusterEvidence</title>
<g id="a_clust2"><a xlink:href="_pipeline_api__concepts__data__evidence.html#PipelineApi_Concepts_Data_Evidence" target="_top" xlink:title="Evidence">
<polygon fill="transparent" stroke="black" points="16,-16 16,-111 109,-111 109,-16 16,-16"/>
<text text-anchor="middle" x="62.5" y="-99" font-family="Helvetica,sans-Serif" font-size="10.00">Evidence</text>
</a>
</g>
</g>
<g id="clust3" class="cluster">
<title>clusterDataKey</title>
<polygon fill="transparent" stroke="black" points="237,-25 237,-102 324,-102 324,-25 237,-25"/>
<text text-anchor="start" x="255" y="-91" font-family="Helvetica,sans-Serif" font-weight="bold" font-size="10.00">Data key</text>
</g>
<!-- Keys1 -->
<g id="node1" class="node">
<title>Keys1</title>
<path fill="#cb3d36" stroke="transparent" d="M89,-83.5C89,-83.5 36,-83.5 36,-83.5 30,-83.5 24,-77.5 24,-71.5 24,-71.5 24,-36.5 24,-36.5 24,-30.5 30,-24.5 36,-24.5 36,-24.5 89,-24.5 89,-24.5 95,-24.5 101,-30.5 101,-36.5 101,-36.5 101,-71.5 101,-71.5 101,-77.5 95,-83.5 89,-83.5"/>
<path fill="#cb3d36" stroke="transparent" d="M44,-28.5C44,-28.5 81,-28.5 81,-28.5 87,-28.5 93,-34.5 93,-40.5 93,-40.5 93,-67.5 93,-67.5 93,-73.5 87,-79.5 81,-79.5 81,-79.5 44,-79.5 44,-79.5 38,-79.5 32,-73.5 32,-67.5 32,-67.5 32,-40.5 32,-40.5 32,-34.5 38,-28.5 44,-28.5"/>
<polygon fill="#cb3d36" stroke="transparent" points="32.5,-62 32.5,-79 93.5,-79 93.5,-62 32.5,-62"/>
<polygon fill="none" stroke="black" points="32.5,-62 32.5,-79 93.5,-79 93.5,-62 32.5,-62"/>
<text text-anchor="start" x="35.5" y="-68" font-family="Helvetica,sans-Serif" font-size="10.00" fill="white">User&#45;Agent</text>
<polygon fill="#cb3d36" stroke="transparent" points="32.5,-45 32.5,-62 93.5,-62 93.5,-45 32.5,-45"/>
<polygon fill="none" stroke="black" points="32.5,-45 32.5,-62 93.5,-62 93.5,-45 32.5,-45"/>
<text text-anchor="start" x="43" y="-51" font-family="Helvetica,sans-Serif" font-size="10.00" fill="white">Latitude</text>
<polygon fill="#cb3d36" stroke="transparent" points="32.5,-28 32.5,-45 93.5,-45 93.5,-28 32.5,-28"/>
<polygon fill="none" stroke="black" points="32.5,-28 32.5,-45 93.5,-45 93.5,-28 32.5,-28"/>
<text text-anchor="start" x="38.5" y="-34" font-family="Helvetica,sans-Serif" font-size="10.00" fill="white">Longitude</text>
</g>
<!-- Keys2 -->
<g id="node2" class="node">
<title>Keys2</title>
<path fill="#cb3d36" stroke="transparent" d="M304,-75C304,-75 257,-75 257,-75 251,-75 245,-69 245,-63 245,-63 245,-45 245,-45 245,-39 251,-33 257,-33 257,-33 304,-33 304,-33 310,-33 316,-39 316,-45 316,-45 316,-63 316,-63 316,-69 310,-75 304,-75"/>
<path fill="#cb3d36" stroke="transparent" d="M264.33,-37C264.33,-37 296.67,-37 296.67,-37 302.33,-37 308,-42.67 308,-48.33 308,-48.33 308,-59.67 308,-59.67 308,-65.33 302.33,-71 296.67,-71 296.67,-71 264.33,-71 264.33,-71 258.67,-71 253,-65.33 253,-59.67 253,-59.67 253,-48.33 253,-48.33 253,-42.67 258.67,-37 264.33,-37"/>
<polygon fill="#cb3d36" stroke="transparent" points="253.5,-54 253.5,-71 308.5,-71 308.5,-54 253.5,-54"/>
<polygon fill="none" stroke="black" points="253.5,-54 253.5,-71 308.5,-71 308.5,-54 253.5,-54"/>
<text text-anchor="start" x="261" y="-60" font-family="Helvetica,sans-Serif" font-size="10.00" fill="white">Latitude</text>
<polygon fill="#cb3d36" stroke="transparent" points="253.5,-37 253.5,-54 308.5,-54 308.5,-37 253.5,-37"/>
<polygon fill="none" stroke="black" points="253.5,-37 253.5,-54 308.5,-54 308.5,-37 253.5,-37"/>
<text text-anchor="start" x="256.5" y="-43" font-family="Helvetica,sans-Serif" font-size="10.00" fill="white">Longitude</text>
</g>
<!-- Keys1&#45;&gt;Keys2 -->
<g id="edge1" class="edge">
<title>Keys1&#45;&gt;Keys2</title>
<path fill="none" stroke="black" d="M101.12,-54C138.29,-54 195.16,-54 234.66,-54"/>
<polygon fill="black" stroke="black" points="234.8,-57.5 244.8,-54 234.8,-50.5 234.8,-57.5"/>
<text text-anchor="middle" x="176" y="-57" font-family="Helvetica,sans-Serif" font-size="10.00">extract location data</text>
</g>
</g>
</svg>
