<?xml version="1.0" encoding="UTF-8" standalone="no"?>
<!DOCTYPE svg PUBLIC "-//W3C//DTD SVG 1.1//EN"
 "http://www.w3.org/Graphics/SVG/1.1/DTD/svg11.dtd">
<!-- Generated by graphviz version 2.43.0 (0)
 -->
<!-- Title: H Pages: 1 -->
<svg width="379pt" height="332pt"
 viewBox="0.00 0.00 379.00 332.00" xmlns="http://www.w3.org/2000/svg" xmlns:xlink="http://www.w3.org/1999/xlink">
<g id="graph0" class="graph" transform="scale(1 1) rotate(0) translate(4 328)">
<title>H</title>
<!-- FE -->
<g id="node1" class="node">
<title>FE</title>
<g id="a_node1"><a xlink:href="_pipeline_api__concepts__flow_elements__flow_element.html#PipelineApi_Concepts_FlowElements_FlowElement" target="_top" xlink:title="Flow Element">
<path fill="#cb3d36" stroke="black" d="M359,-324C359,-324 300,-324 300,-324 294,-324 288,-318 288,-312 288,-312 288,-300 288,-300 288,-294 294,-288 300,-288 300,-288 359,-288 359,-288 365,-288 371,-294 371,-300 371,-300 371,-312 371,-312 371,-318 365,-324 359,-324"/>
<text text-anchor="middle" x="329.5" y="-303.5" font-family="Helvetica,sans-Serif" font-size="10.00" fill="white">Flow Element</text>
</a>
</g>
</g>
<!-- AE -->
<g id="node2" class="node">
<title>AE</title>
<g id="a_node2"><a xlink:href="_pipeline_api__concepts__flow_elements__aspect_engine.html#PipelineApi_Concepts_FlowElements_AspectEngine" target="_top" xlink:title="Aspect Engine">
<path fill="#cb3d36" stroke="black" d="M325.5,-252C325.5,-252 263.5,-252 263.5,-252 257.5,-252 251.5,-246 251.5,-240 251.5,-240 251.5,-228 251.5,-228 251.5,-222 257.5,-216 263.5,-216 263.5,-216 325.5,-216 325.5,-216 331.5,-216 337.5,-222 337.5,-228 337.5,-228 337.5,-240 337.5,-240 337.5,-246 331.5,-252 325.5,-252"/>
<text text-anchor="middle" x="294.5" y="-231.5" font-family="Helvetica,sans-Serif" font-size="10.00" fill="white">Aspect Engine</text>
</a>
</g>
</g>
<!-- FE&#45;&gt;AE -->
<g id="edge1" class="edge">
<title>FE&#45;&gt;AE</title>
<path fill="none" stroke="black" d="M320.85,-287.7C316.86,-279.73 312.05,-270.1 307.63,-261.26"/>
<polygon fill="black" stroke="black" points="310.65,-259.48 303.05,-252.1 304.39,-262.61 310.65,-259.48"/>
</g>
<!-- I -->
<g id="node6" class="node">
<title>I</title>
<path fill="#cb3d36" stroke="black" d="M299.5,-36C299.5,-36 223.5,-36 223.5,-36 217.5,-36 211.5,-30 211.5,-24 211.5,-24 211.5,-12 211.5,-12 211.5,-6 217.5,0 223.5,0 223.5,0 299.5,0 299.5,0 305.5,0 311.5,-6 311.5,-12 311.5,-12 311.5,-24 311.5,-24 311.5,-30 305.5,-36 299.5,-36"/>
<text text-anchor="middle" x="261.5" y="-15.5" font-family="Helvetica,sans-Serif" font-size="10.00" fill="white">Implementations</text>
</g>
<!-- FE&#45;&gt;I -->
<g id="edge5" class="edge">
<title>FE&#45;&gt;I</title>
<path fill="none" stroke="black" stroke-dasharray="5,2" d="M336.57,-287.67C340.34,-277.47 344.59,-264.22 346.5,-252 355.45,-194.79 336.19,-87.43 327.5,-72 320.96,-60.38 310.76,-50.34 300.32,-42.22"/>
<polygon fill="black" stroke="black" points="302.11,-39.19 291.97,-36.12 297.98,-44.84 302.11,-39.19"/>
</g>
<!-- OPE -->
<g id="node4" class="node">
<title>OPE</title>
<g id="a_node4"><a xlink:href="_pipeline_api__concepts__flow_elements__on_premise_engine.html#PipelineApi_Concepts_FlowElements_OnPremiseEngine" target="_top" xlink:title="On&#45;Premise Engine">
<path fill="#cb3d36" stroke="black" d="M236.5,-180C236.5,-180 150.5,-180 150.5,-180 144.5,-180 138.5,-174 138.5,-168 138.5,-168 138.5,-156 138.5,-156 138.5,-150 144.5,-144 150.5,-144 150.5,-144 236.5,-144 236.5,-144 242.5,-144 248.5,-150 248.5,-156 248.5,-156 248.5,-168 248.5,-168 248.5,-174 242.5,-180 236.5,-180"/>
<text text-anchor="middle" x="193.5" y="-159.5" font-family="Helvetica,sans-Serif" font-size="10.00" fill="white">On&#45;Premise Engine</text>
</a>
</g>
</g>
<!-- AE&#45;&gt;OPE -->
<g id="edge2" class="edge">
<title>AE&#45;&gt;OPE</title>
<path fill="none" stroke="black" d="M269.79,-215.88C256.83,-206.89 240.77,-195.76 226.73,-186.03"/>
<polygon fill="black" stroke="black" points="228.52,-183.01 218.3,-180.19 224.53,-188.76 228.52,-183.01"/>
</g>
<!-- CE -->
<g id="node5" class="node">
<title>CE</title>
<g id="a_node5"><a xlink:href="_pipeline_api__concepts__flow_elements__cloud_engine.html#PipelineApi_Concepts_FlowElements_CloudEngine" target="_top" xlink:title="Cloud Engine">
<path fill="#cb3d36" stroke="black" d="M289.5,-108C289.5,-108 233.5,-108 233.5,-108 227.5,-108 221.5,-102 221.5,-96 221.5,-96 221.5,-84 221.5,-84 221.5,-78 227.5,-72 233.5,-72 233.5,-72 289.5,-72 289.5,-72 295.5,-72 301.5,-78 301.5,-84 301.5,-84 301.5,-96 301.5,-96 301.5,-102 295.5,-108 289.5,-108"/>
<text text-anchor="middle" x="261.5" y="-87.5" font-family="Helvetica,sans-Serif" font-size="10.00" fill="white">Cloud Engine</text>
</a>
</g>
</g>
<!-- AE&#45;&gt;CE -->
<g id="edge4" class="edge">
<title>AE&#45;&gt;CE</title>
<path fill="none" stroke="black" d="M290.52,-215.87C284.87,-191.56 274.47,-146.82 267.78,-118.01"/>
<polygon fill="black" stroke="black" points="271.17,-117.14 265.49,-108.19 264.35,-118.72 271.17,-117.14"/>
</g>
<!-- AE&#45;&gt;I -->
<g id="edge6" class="edge">
<title>AE&#45;&gt;I</title>
<path fill="none" stroke="black" stroke-dasharray="5,2" d="M301.19,-215.85C311.91,-185.63 329.85,-121.44 310.5,-72 306.3,-61.28 298.81,-51.43 290.92,-43.2"/>
<polygon fill="black" stroke="black" points="293.26,-40.59 283.65,-36.13 288.38,-45.61 293.26,-40.59"/>
</g>
<!-- FODE -->
<g id="node3" class="node">
<title>FODE</title>
<g id="a_node3"><a xlink:href="_pipeline_api__concepts__flow_elements__fifty_one_on_premise_engine.html#PipelineApi_Concepts_FlowElements_FiftyOneOnPremiseEngine" target="_top" xlink:title="51Degrees On&#45;Premise Engine">
<path fill="#cb3d36" stroke="black" d="M153,-108C153,-108 12,-108 12,-108 6,-108 0,-102 0,-96 0,-96 0,-84 0,-84 0,-78 6,-72 12,-72 12,-72 153,-72 153,-72 159,-72 165,-78 165,-84 165,-84 165,-96 165,-96 165,-102 159,-108 153,-108"/>
<text text-anchor="middle" x="82.5" y="-87.5" font-family="Helvetica,sans-Serif" font-size="10.00" fill="white">51Degrees On&#45;Premise Engine</text>
</a>
</g>
</g>
<!-- FODE&#45;&gt;I -->
<g id="edge7" class="edge">
<title>FODE&#45;&gt;I</title>
<path fill="none" stroke="black" stroke-dasharray="5,2" d="M126.29,-71.88C151.08,-62.18 182.28,-49.98 208.46,-39.74"/>
<polygon fill="black" stroke="black" points="209.82,-42.97 217.85,-36.07 207.27,-36.45 209.82,-42.97"/>
</g>
<!-- OPE&#45;&gt;FODE -->
<g id="edge3" class="edge">
<title>OPE&#45;&gt;FODE</title>
<path fill="none" stroke="black" d="M166.35,-143.88C151.97,-134.81 134.12,-123.55 118.59,-113.76"/>
<polygon fill="black" stroke="black" points="120.08,-110.56 109.76,-108.19 116.35,-116.48 120.08,-110.56"/>
</g>
<!-- OPE&#45;&gt;I -->
<g id="edge8" class="edge">
<title>OPE&#45;&gt;I</title>
<path fill="none" stroke="black" stroke-dasharray="5,2" d="M194.48,-143.69C196.13,-125.06 200.57,-95 212.5,-72 217.89,-61.61 225.87,-51.74 233.83,-43.41"/>
<polygon fill="black" stroke="black" points="236.44,-45.74 241.06,-36.21 231.51,-40.78 236.44,-45.74"/>
</g>
<!-- CE&#45;&gt;I -->
<g id="edge9" class="edge">
<title>CE&#45;&gt;I</title>
<path fill="none" stroke="black" stroke-dasharray="5,2" d="M261.5,-71.7C261.5,-63.98 261.5,-54.71 261.5,-46.11"/>
<polygon fill="black" stroke="black" points="265,-46.1 261.5,-36.1 258,-46.1 265,-46.1"/>
</g>
</g>
</svg>
