<?xml version="1.0" encoding="UTF-8" standalone="no"?>
<!DOCTYPE svg PUBLIC "-//W3C//DTD SVG 1.1//EN"
 "http://www.w3.org/Graphics/SVG/1.1/DTD/svg11.dtd">
<!-- Generated by graphviz version 2.43.0 (0)
 -->
<!-- Title: %3 Pages: 1 -->
<svg width="527pt" height="113pt"
 viewBox="0.00 0.00 527.00 113.00" xmlns="http://www.w3.org/2000/svg" xmlns:xlink="http://www.w3.org/1999/xlink">
<g id="graph0" class="graph" transform="scale(1 1) rotate(0) translate(4 109)">
<title>%3</title>
<g id="clust1" class="cluster">
<title>clusterPipeline</title>
<g id="a_clust1"><a xlink:href="_pipeline_api__concepts__pipeline.html#PipelineApi_Concepts_Pipeline" target="_top" xlink:title="Pipeline">
<polygon fill="transparent" stroke="black" points="83,-8 83,-97 436,-97 436,-8 83,-8"/>
<text text-anchor="middle" x="259.5" y="-85" font-family="Helvetica,sans-Serif" font-size="10.00">Pipeline</text>
</a>
</g>
</g>
<!-- arrow1 -->
<g id="node1" class="node">
<title>arrow1</title>
<path fill="#cb3d36" stroke="transparent" d="M42,-61C42,-61 12,-61 12,-61 6,-61 0,-55 0,-49 0,-49 0,-37 0,-37 0,-31 6,-25 12,-25 12,-25 42,-25 42,-25 48,-25 54,-31 54,-37 54,-37 54,-49 54,-49 54,-55 48,-61 42,-61"/>
<text text-anchor="middle" x="27" y="-40.5" font-family="Helvetica,sans-Serif" font-size="10.00" fill="white">1</text>
</g>
<!-- structH -->
<g id="node2" class="node">
<title>structH</title>
<g id="a_node2"><a xlink:href="_device_detection__overview.html#DeviceDetection_Overview" target="_top" xlink:title="&lt;TABLE&gt;">
<path fill="#cb3d36" stroke="transparent" d="M226,-69.5C226,-69.5 103,-69.5 103,-69.5 97,-69.5 91,-63.5 91,-57.5 91,-57.5 91,-28.5 91,-28.5 91,-22.5 97,-16.5 103,-16.5 103,-16.5 226,-16.5 226,-16.5 232,-16.5 238,-22.5 238,-28.5 238,-28.5 238,-57.5 238,-57.5 238,-63.5 232,-69.5 226,-69.5"/>
<path fill="#cb3d36" stroke="transparent" d="M111,-20.5C111,-20.5 218,-20.5 218,-20.5 224,-20.5 230,-26.5 230,-32.5 230,-32.5 230,-53.5 230,-53.5 230,-59.5 224,-65.5 218,-65.5 218,-65.5 111,-65.5 111,-65.5 105,-65.5 99,-59.5 99,-53.5 99,-53.5 99,-32.5 99,-32.5 99,-26.5 105,-20.5 111,-20.5"/>
<polygon fill="#cb3d36" stroke="transparent" points="99.5,-37 99.5,-65 230.5,-65 230.5,-37 99.5,-37"/>
<polygon fill="none" stroke="black" points="99.5,-37 99.5,-65 230.5,-65 230.5,-37 99.5,-37"/>
<text text-anchor="start" x="107.5" y="-54" font-family="Helvetica,sans-Serif" font-size="10.00" fill="white">DeviceDetectionEngine</text>
<text text-anchor="start" x="137.5" y="-43" font-family="Helvetica,sans-Serif" font-size="10.00" fill="white">(Hardware)</text>
<polygon fill="#cb3d36" stroke="transparent" points="99.5,-20 99.5,-37 191.5,-37 191.5,-20 99.5,-20"/>
<polygon fill="none" stroke="black" points="99.5,-20 99.5,-37 191.5,-37 191.5,-20 99.5,-20"/>
<text text-anchor="start" x="102.5" y="-26" font-family="Helvetica,sans-Serif" font-size="10.00" fill="white">Element data key</text>
<polygon fill="#cb3d36" stroke="transparent" points="191.5,-20 191.5,-37 230.5,-37 230.5,-20 191.5,-20"/>
<polygon fill="none" stroke="black" points="191.5,-20 191.5,-37 230.5,-37 230.5,-20 191.5,-20"/>
<text text-anchor="start" x="194.5" y="-26" font-family="Helvetica,sans-Serif" font-size="10.00" fill="white">device</text>
</a>
</g>
</g>
<!-- arrow1&#45;&gt;structH -->
<g id="edge1" class="edge">
<title>arrow1&#45;&gt;structH</title>
<path fill="none" stroke="black" d="M54.13,-43C62.06,-43 71.24,-43 80.83,-43"/>
<polygon fill="black" stroke="black" points="80.95,-46.5 90.95,-43 80.95,-39.5 80.95,-46.5"/>
</g>
<!-- structP -->
<g id="node3" class="node">
<title>structP</title>
<g id="a_node3"><a xlink:href="_device_detection__overview.html#DeviceDetection_Overview" target="_top" xlink:title="&lt;TABLE&gt;">
<path fill="#cb3d36" stroke="transparent" d="M416,-69.5C416,-69.5 293,-69.5 293,-69.5 287,-69.5 281,-63.5 281,-57.5 281,-57.5 281,-28.5 281,-28.5 281,-22.5 287,-16.5 293,-16.5 293,-16.5 416,-16.5 416,-16.5 422,-16.5 428,-22.5 428,-28.5 428,-28.5 428,-57.5 428,-57.5 428,-63.5 422,-69.5 416,-69.5"/>
<path fill="#cb3d36" stroke="transparent" d="M301,-20.5C301,-20.5 408,-20.5 408,-20.5 414,-20.5 420,-26.5 420,-32.5 420,-32.5 420,-53.5 420,-53.5 420,-59.5 414,-65.5 408,-65.5 408,-65.5 301,-65.5 301,-65.5 295,-65.5 289,-59.5 289,-53.5 289,-53.5 289,-32.5 289,-32.5 289,-26.5 295,-20.5 301,-20.5"/>
<polygon fill="#cb3d36" stroke="transparent" points="289.5,-37 289.5,-65 420.5,-65 420.5,-37 289.5,-37"/>
<polygon fill="none" stroke="black" points="289.5,-37 289.5,-65 420.5,-65 420.5,-37 289.5,-37"/>
<text text-anchor="start" x="297.5" y="-54" font-family="Helvetica,sans-Serif" font-size="10.00" fill="white">DeviceDetectionEngine</text>
<text text-anchor="start" x="321.5" y="-43" font-family="Helvetica,sans-Serif" font-size="10.00" fill="white">(Platform/OS)</text>
<polygon fill="#cb3d36" stroke="transparent" points="289.5,-20 289.5,-37 381.5,-37 381.5,-20 289.5,-20"/>
<polygon fill="none" stroke="black" points="289.5,-20 289.5,-37 381.5,-37 381.5,-20 289.5,-20"/>
<text text-anchor="start" x="292.5" y="-26" font-family="Helvetica,sans-Serif" font-size="10.00" fill="white">Element data key</text>
<polygon fill="#cb3d36" stroke="transparent" points="381.5,-20 381.5,-37 420.5,-37 420.5,-20 381.5,-20"/>
<polygon fill="none" stroke="black" points="381.5,-20 381.5,-37 420.5,-37 420.5,-20 381.5,-20"/>
<text text-anchor="start" x="384.5" y="-26" font-family="Helvetica,sans-Serif" font-size="10.00" fill="white">device</text>
</a>
</g>
</g>
<!-- structH&#45;&gt;structP -->
<g id="edge2" class="edge">
<title>structH&#45;&gt;structP</title>
<path fill="none" stroke="black" d="M238.19,-43C248.76,-43 259.71,-43 270.46,-43"/>
<polygon fill="black" stroke="black" points="270.7,-46.5 280.7,-43 270.7,-39.5 270.7,-46.5"/>
<text text-anchor="middle" x="259.5" y="-46" font-family="Helvetica,sans-Serif" font-size="10.00">2</text>
</g>
<!-- arrow3 -->
<g id="node4" class="node">
<title>arrow3</title>
<path fill="#cb3d36" stroke="transparent" d="M507,-61C507,-61 477,-61 477,-61 471,-61 465,-55 465,-49 465,-49 465,-37 465,-37 465,-31 471,-25 477,-25 477,-25 507,-25 507,-25 513,-25 519,-31 519,-37 519,-37 519,-49 519,-49 519,-55 513,-61 507,-61"/>
<text text-anchor="middle" x="492" y="-40.5" font-family="Helvetica,sans-Serif" font-size="10.00" fill="white">3</text>
</g>
<!-- structP&#45;&gt;arrow3 -->
<g id="edge3" class="edge">
<title>structP&#45;&gt;arrow3</title>
<path fill="none" stroke="black" d="M428.01,-43C437.3,-43 446.47,-43 454.82,-43"/>
<polygon fill="black" stroke="black" points="454.9,-46.5 464.9,-43 454.9,-39.5 454.9,-46.5"/>
</g>
</g>
</svg>
