<?xml version="1.0" encoding="UTF-8" standalone="no"?>
<!DOCTYPE svg PUBLIC "-//W3C//DTD SVG 1.1//EN"
 "http://www.w3.org/Graphics/SVG/1.1/DTD/svg11.dtd">
<!-- Generated by graphviz version 2.43.0 (0)
 -->
<!-- Title: P Pages: 1 -->
<svg width="373pt" height="149pt"
 viewBox="0.00 0.00 373.20 149.00" xmlns="http://www.w3.org/2000/svg" xmlns:xlink="http://www.w3.org/1999/xlink">
<g id="graph0" class="graph" transform="scale(1 1) rotate(0) translate(4 145)">
<title>P</title>
<g id="clust1" class="cluster">
<title>clusterP</title>
<polygon fill="transparent" stroke="black" points="82,-8 82,-133 283.2,-133 283.2,-8 82,-8"/>
<text text-anchor="middle" x="182.6" y="-121" font-family="Helvetica,sans-Serif" font-size="10.00">Pipeline</text>
</g>
<!-- i -->
<g id="node1" class="node">
<title>i</title>
<path fill="#cb3d36" stroke="transparent" d="M42,-79C42,-79 12,-79 12,-79 6,-79 0,-73 0,-67 0,-67 0,-55 0,-55 0,-49 6,-43 12,-43 12,-43 42,-43 42,-43 48,-43 54,-49 54,-55 54,-55 54,-67 54,-67 54,-73 48,-79 42,-79"/>
<text text-anchor="middle" x="27" y="-58.5" font-family="Helvetica,sans-Serif" font-size="10.00" fill="white">in</text>
</g>
<!-- I1 -->
<g id="node2" class="node">
<title>I1</title>
<ellipse fill="#cb3d36" stroke="black" cx="91.8" cy="-61" rx="1.8" ry="1.8"/>
</g>
<!-- i&#45;&gt;I1 -->
<g id="edge1" class="edge">
<title>i&#45;&gt;I1</title>
<path fill="none" stroke="black" d="M54.27,-61C69.33,-61 86,-61 89.94,-61"/>
</g>
<!-- E1 -->
<g id="node3" class="node">
<title>E1</title>
<path fill="#cb3d36" stroke="black" d="M223.6,-52C223.6,-52 141.6,-52 141.6,-52 135.6,-52 129.6,-46 129.6,-40 129.6,-40 129.6,-28 129.6,-28 129.6,-22 135.6,-16 141.6,-16 141.6,-16 223.6,-16 223.6,-16 229.6,-16 235.6,-22 235.6,-28 235.6,-28 235.6,-40 235.6,-40 235.6,-46 229.6,-52 223.6,-52"/>
<text text-anchor="middle" x="182.6" y="-31.5" font-family="Helvetica,sans-Serif" font-size="10.00" fill="white">Flow Element (E1)</text>
</g>
<!-- I1&#45;&gt;E1 -->
<g id="edge2" class="edge">
<title>I1&#45;&gt;E1</title>
<path fill="none" stroke="black" d="M93.8,-60.7C96.93,-59.75 107.07,-56.66 119.42,-52.91"/>
<polygon fill="black" stroke="black" points="120.66,-56.19 129.21,-49.93 118.62,-49.49 120.66,-56.19"/>
</g>
<!-- E2 -->
<g id="node4" class="node">
<title>E2</title>
<path fill="#cb3d36" stroke="black" d="M223.6,-106C223.6,-106 141.6,-106 141.6,-106 135.6,-106 129.6,-100 129.6,-94 129.6,-94 129.6,-82 129.6,-82 129.6,-76 135.6,-70 141.6,-70 141.6,-70 223.6,-70 223.6,-70 229.6,-70 235.6,-76 235.6,-82 235.6,-82 235.6,-94 235.6,-94 235.6,-100 229.6,-106 223.6,-106"/>
<text text-anchor="middle" x="182.6" y="-85.5" font-family="Helvetica,sans-Serif" font-size="10.00" fill="white">Flow Element (E2)</text>
</g>
<!-- I1&#45;&gt;E2 -->
<g id="edge5" class="edge">
<title>I1&#45;&gt;E2</title>
<path fill="none" stroke="black" d="M93.8,-61.3C96.93,-62.25 107.07,-65.34 119.42,-69.09"/>
<polygon fill="black" stroke="black" points="118.62,-72.51 129.21,-72.07 120.66,-65.81 118.62,-72.51"/>
</g>
<!-- I2 -->
<g id="node5" class="node">
<title>I2</title>
<ellipse fill="#cb3d36" stroke="black" cx="273.4" cy="-61" rx="1.8" ry="1.8"/>
</g>
<!-- E1&#45;&gt;I2 -->
<g id="edge3" class="edge">
<title>E1&#45;&gt;I2</title>
<path fill="none" stroke="black" d="M235.77,-49.86C252.38,-54.91 267.49,-59.51 271.42,-60.7"/>
</g>
<!-- E2&#45;&gt;I2 -->
<g id="edge6" class="edge">
<title>E2&#45;&gt;I2</title>
<path fill="none" stroke="black" d="M235.77,-72.14C252.38,-67.09 267.49,-62.49 271.42,-61.3"/>
</g>
<!-- o -->
<g id="node6" class="node">
<title>o</title>
<path fill="#cb3d36" stroke="transparent" d="M353.2,-79C353.2,-79 323.2,-79 323.2,-79 317.2,-79 311.2,-73 311.2,-67 311.2,-67 311.2,-55 311.2,-55 311.2,-49 317.2,-43 323.2,-43 323.2,-43 353.2,-43 353.2,-43 359.2,-43 365.2,-49 365.2,-55 365.2,-55 365.2,-67 365.2,-67 365.2,-73 359.2,-79 353.2,-79"/>
<text text-anchor="middle" x="338.2" y="-58.5" font-family="Helvetica,sans-Serif" font-size="10.00" fill="white">out</text>
</g>
<!-- I2&#45;&gt;o -->
<g id="edge4" class="edge">
<title>I2&#45;&gt;o</title>
<path fill="none" stroke="black" d="M275.49,-61C278.84,-61 289.46,-61 300.97,-61"/>
<polygon fill="black" stroke="black" points="301.15,-64.5 311.15,-61 301.15,-57.5 301.15,-64.5"/>
</g>
</g>
</svg>
