<?xml version="1.0" encoding="UTF-8" standalone="no"?>
<!DOCTYPE svg PUBLIC "-//W3C//DTD SVG 1.1//EN"
 "http://www.w3.org/Graphics/SVG/1.1/DTD/svg11.dtd">
<!-- Generated by graphviz version 2.43.0 (0)
 -->
<!-- Title: %3 Pages: 1 -->
<svg width="210pt" height="370pt"
 viewBox="0.00 0.00 209.50 370.00" xmlns="http://www.w3.org/2000/svg" xmlns:xlink="http://www.w3.org/1999/xlink">
<g id="graph0" class="graph" transform="scale(1 1) rotate(0) translate(0 370)">
<title>%3</title>
<!-- key -->
<g id="node1" class="node">
<title>key</title>
<path fill="#cb3d36" stroke="black" d="M124,-370C124,-370 54,-370 54,-370 48,-370 42,-364 42,-358 42,-358 42,-346 42,-346 42,-340 48,-334 54,-334 54,-334 124,-334 124,-334 130,-334 136,-340 136,-346 136,-346 136,-358 136,-358 136,-364 130,-370 124,-370"/>
<text text-anchor="middle" x="89" y="-355" font-family="Helvetica,sans-Serif" font-size="10.00" fill="white">Create data key</text>
<text text-anchor="middle" x="89" y="-344" font-family="Helvetica,sans-Serif" font-size="10.00" fill="white">from evidence</text>
</g>
<!-- cache -->
<g id="node3" class="node">
<title>cache</title>
<path fill="#cb3d36" stroke="black" d="M77.63,-313.17C77.63,-313.17 11.37,-290.83 11.37,-290.83 5.69,-288.92 5.69,-285.08 11.37,-283.17 11.37,-283.17 77.63,-260.83 77.63,-260.83 83.31,-258.92 94.69,-258.92 100.37,-260.83 100.37,-260.83 166.63,-283.17 166.63,-283.17 172.31,-285.08 172.31,-288.92 166.63,-290.83 166.63,-290.83 100.37,-313.17 100.37,-313.17 94.69,-315.08 83.31,-315.08 77.63,-313.17"/>
<text text-anchor="middle" x="89" y="-290" font-family="Helvetica,sans-Serif" font-size="10.00" fill="white">Does key</text>
<text text-anchor="middle" x="89" y="-279" font-family="Helvetica,sans-Serif" font-size="10.00" fill="white">exist in cache?</text>
</g>
<!-- key&#45;&gt;cache -->
<g id="edge1" class="edge">
<title>key&#45;&gt;cache</title>
<path fill="none" stroke="black" d="M89,-333.78C89,-331.79 89,-329.7 89,-327.56"/>
<polygon fill="black" stroke="black" points="92.5,-327.31 89,-317.31 85.5,-327.31 92.5,-327.31"/>
</g>
<!-- getaspectdata -->
<g id="node2" class="node">
<title>getaspectdata</title>
<path fill="#cb3d36" stroke="black" d="M105,-186C105,-186 35,-186 35,-186 29,-186 23,-180 23,-174 23,-174 23,-162 23,-162 23,-156 29,-150 35,-150 35,-150 105,-150 105,-150 111,-150 117,-156 117,-162 117,-162 117,-174 117,-174 117,-180 111,-186 105,-186"/>
<text text-anchor="middle" x="70" y="-171" font-family="Helvetica,sans-Serif" font-size="10.00" fill="white">Get aspect data</text>
<text text-anchor="middle" x="70" y="-160" font-family="Helvetica,sans-Serif" font-size="10.00" fill="white">from cache</text>
</g>
<!-- addtoflow -->
<g id="node7" class="node">
<title>addtoflow</title>
<path fill="#cb3d36" stroke="black" d="M123.5,-36C123.5,-36 32.5,-36 32.5,-36 26.5,-36 20.5,-30 20.5,-24 20.5,-24 20.5,-12 20.5,-12 20.5,-6 26.5,0 32.5,0 32.5,0 123.5,0 123.5,0 129.5,0 135.5,-6 135.5,-12 135.5,-12 135.5,-24 135.5,-24 135.5,-30 129.5,-36 123.5,-36"/>
<text text-anchor="middle" x="78" y="-21" font-family="Helvetica,sans-Serif" font-size="10.00" fill="white">Add aspect data to</text>
<text text-anchor="middle" x="78" y="-10" font-family="Helvetica,sans-Serif" font-size="10.00" fill="white">flow data and return</text>
</g>
<!-- getaspectdata&#45;&gt;addtoflow -->
<g id="edge7" class="edge">
<title>getaspectdata&#45;&gt;addtoflow</title>
<path fill="none" stroke="black" d="M70.93,-149.73C72.31,-124.33 74.88,-76.65 76.52,-46.43"/>
<polygon fill="black" stroke="black" points="80.03,-46.33 77.07,-36.16 73.04,-45.95 80.03,-46.33"/>
</g>
<!-- cache&#45;&gt;getaspectdata -->
<g id="edge3" class="edge">
<title>cache&#45;&gt;getaspectdata</title>
<path fill="none" stroke="black" d="M84.5,-258.27C81.44,-239.43 77.41,-214.63 74.38,-195.96"/>
<polygon fill="black" stroke="black" points="77.82,-195.33 72.76,-186.02 70.91,-196.46 77.82,-195.33"/>
<text text-anchor="middle" x="92" y="-241" font-family="Helvetica,sans-Serif" font-size="10.00">yes</text>
</g>
<!-- data -->
<g id="node4" class="node">
<title>data</title>
<path fill="#cb3d36" stroke="black" d="M191.5,-230C191.5,-230 106.5,-230 106.5,-230 100.5,-230 94.5,-224 94.5,-218 94.5,-218 94.5,-206 94.5,-206 94.5,-200 100.5,-194 106.5,-194 106.5,-194 191.5,-194 191.5,-194 197.5,-194 203.5,-200 203.5,-206 203.5,-206 203.5,-218 203.5,-218 203.5,-224 197.5,-230 191.5,-230"/>
<text text-anchor="middle" x="149" y="-209.5" font-family="Helvetica,sans-Serif" font-size="10.00" fill="white">Create aspect data</text>
</g>
<!-- cache&#45;&gt;data -->
<g id="edge2" class="edge">
<title>cache&#45;&gt;data</title>
<path fill="none" stroke="black" d="M107.98,-262.9C114.41,-255.09 121.61,-246.33 128.17,-238.35"/>
<polygon fill="black" stroke="black" points="131.06,-240.34 134.7,-230.39 125.65,-235.9 131.06,-240.34"/>
<text text-anchor="middle" x="134.5" y="-241" font-family="Helvetica,sans-Serif" font-size="10.00">no</text>
</g>
<!-- process -->
<g id="node5" class="node">
<title>process</title>
<path fill="#cb3d36" stroke="black" d="M181.5,-142C181.5,-142 116.5,-142 116.5,-142 110.5,-142 104.5,-136 104.5,-130 104.5,-130 104.5,-118 104.5,-118 104.5,-112 110.5,-106 116.5,-106 116.5,-106 181.5,-106 181.5,-106 187.5,-106 193.5,-112 193.5,-118 193.5,-118 193.5,-130 193.5,-130 193.5,-136 187.5,-142 181.5,-142"/>
<text text-anchor="middle" x="149" y="-127" font-family="Helvetica,sans-Serif" font-size="10.00" fill="white">Normal engine</text>
<text text-anchor="middle" x="149" y="-116" font-family="Helvetica,sans-Serif" font-size="10.00" fill="white">processing</text>
</g>
<!-- data&#45;&gt;process -->
<g id="edge4" class="edge">
<title>data&#45;&gt;process</title>
<path fill="none" stroke="black" d="M149,-193.6C149,-181.75 149,-165.82 149,-152.29"/>
<polygon fill="black" stroke="black" points="152.5,-152.08 149,-142.08 145.5,-152.08 152.5,-152.08"/>
</g>
<!-- addtocache -->
<g id="node6" class="node">
<title>addtocache</title>
<path fill="#cb3d36" stroke="black" d="M197.5,-89C197.5,-89 102.5,-89 102.5,-89 96.5,-89 90.5,-83 90.5,-77 90.5,-77 90.5,-65 90.5,-65 90.5,-59 96.5,-53 102.5,-53 102.5,-53 197.5,-53 197.5,-53 203.5,-53 209.5,-59 209.5,-65 209.5,-65 209.5,-77 209.5,-77 209.5,-83 203.5,-89 197.5,-89"/>
<text text-anchor="middle" x="150" y="-74" font-family="Helvetica,sans-Serif" font-size="10.00" fill="white">Add aspect data to</text>
<text text-anchor="middle" x="150" y="-63" font-family="Helvetica,sans-Serif" font-size="10.00" fill="white">cache using data key</text>
</g>
<!-- process&#45;&gt;addtocache -->
<g id="edge5" class="edge">
<title>process&#45;&gt;addtocache</title>
<path fill="none" stroke="black" d="M149.34,-105.73C149.38,-103.66 149.42,-101.5 149.46,-99.32"/>
<polygon fill="black" stroke="black" points="152.96,-99.32 149.66,-89.25 145.97,-99.18 152.96,-99.32"/>
</g>
<!-- addtocache&#45;&gt;addtoflow -->
<g id="edge6" class="edge">
<title>addtocache&#45;&gt;addtoflow</title>
<path fill="none" stroke="black" d="M125.62,-52.73C120.82,-49.33 115.7,-45.7 110.67,-42.14"/>
<polygon fill="black" stroke="black" points="112.53,-39.17 102.35,-36.25 108.49,-44.88 112.53,-39.17"/>
</g>
</g>
</svg>
