<?xml version="1.0" encoding="UTF-8" standalone="no"?>
<!DOCTYPE svg PUBLIC "-//W3C//DTD SVG 1.1//EN"
 "http://www.w3.org/Graphics/SVG/1.1/DTD/svg11.dtd">
<!-- Generated by graphviz version 2.43.0 (0)
 -->
<!-- Title: %3 Pages: 1 -->
<svg width="546pt" height="273pt"
 viewBox="0.00 0.00 546.00 273.00" xmlns="http://www.w3.org/2000/svg" xmlns:xlink="http://www.w3.org/1999/xlink">
<g id="graph0" class="graph" transform="scale(1 1) rotate(0) translate(4 269)">
<title>%3</title>
<g id="clust1" class="cluster">
<title>clusterWebServer</title>
<polygon fill="transparent" stroke="black" points="345,-44 345,-257 530,-257 530,-44 345,-44"/>
<text text-anchor="middle" x="437.5" y="-245" font-family="Helvetica,sans-Serif" font-size="10.00">Web server</text>
</g>
<g id="clust2" class="cluster">
<title>clusterClient</title>
<polygon fill="transparent" stroke="black" points="8,-8 8,-231 197,-231 197,-8 8,-8"/>
<text text-anchor="middle" x="102.5" y="-219" font-family="Helvetica,sans-Serif" font-size="10.00">Client</text>
</g>
<!-- Process1 -->
<g id="node1" class="node">
<title>Process1</title>
<path fill="#cb3d36" stroke="black" d="M492,-229.5C492,-229.5 383,-229.5 383,-229.5 377,-229.5 371,-223.5 371,-217.5 371,-217.5 371,-156.5 371,-156.5 371,-150.5 377,-144.5 383,-144.5 383,-144.5 492,-144.5 492,-144.5 498,-144.5 504,-150.5 504,-156.5 504,-156.5 504,-217.5 504,-217.5 504,-223.5 498,-229.5 492,-229.5"/>
<text text-anchor="middle" x="437.5" y="-217.5" font-family="Helvetica,sans-Serif" font-size="10.00" fill="white">Pipeline has geo engine</text>
<text text-anchor="middle" x="437.5" y="-206.5" font-family="Helvetica,sans-Serif" font-size="10.00" fill="white">that needs lat and long.</text>
<text text-anchor="middle" x="437.5" y="-195.5" font-family="Helvetica,sans-Serif" font-size="10.00" fill="white">As neither are available</text>
<text text-anchor="middle" x="437.5" y="-184.5" font-family="Helvetica,sans-Serif" font-size="10.00" fill="white">in the evidence, it</text>
<text text-anchor="middle" x="437.5" y="-173.5" font-family="Helvetica,sans-Serif" font-size="10.00" fill="white">populates a JavaScript</text>
<text text-anchor="middle" x="437.5" y="-162.5" font-family="Helvetica,sans-Serif" font-size="10.00" fill="white">property with code</text>
<text text-anchor="middle" x="437.5" y="-151.5" font-family="Helvetica,sans-Serif" font-size="10.00" fill="white">to get these values.</text>
</g>
<!-- ProcessB -->
<g id="node4" class="node">
<title>ProcessB</title>
<path fill="#cb3d36" stroke="black" d="M177,-150C177,-150 28,-150 28,-150 22,-150 16,-144 16,-138 16,-138 16,-110 16,-110 16,-104 22,-98 28,-98 28,-98 177,-98 177,-98 183,-98 189,-104 189,-110 189,-110 189,-138 189,-138 189,-144 183,-150 177,-150"/>
<text text-anchor="middle" x="102.5" y="-138" font-family="Helvetica,sans-Serif" font-size="10.00" fill="white">JavaScript runs on client</text>
<text text-anchor="middle" x="102.5" y="-127" font-family="Helvetica,sans-Serif" font-size="10.00" fill="white">and gets lat and long values.</text>
<text text-anchor="middle" x="102.5" y="-116" font-family="Helvetica,sans-Serif" font-size="10.00" fill="white">A request is then sent</text>
<text text-anchor="middle" x="102.5" y="-105" font-family="Helvetica,sans-Serif" font-size="10.00" fill="white">to the server in the background.</text>
</g>
<!-- Process1&#45;&gt;ProcessB -->
<g id="edge2" class="edge">
<title>Process1&#45;&gt;ProcessB</title>
<path fill="none" stroke="black" d="M370.88,-170.63C358.98,-167.9 346.65,-165.24 335,-163 278.52,-152.15 263.69,-153.68 207,-144 204.34,-143.55 201.65,-143.08 198.93,-142.6"/>
<polygon fill="black" stroke="black" points="199.47,-139.14 189.01,-140.83 198.24,-146.03 199.47,-139.14"/>
<text text-anchor="middle" x="271" y="-188" font-family="Helvetica,sans-Serif" font-size="10.00">2. Response includes</text>
<text text-anchor="middle" x="271" y="-177" font-family="Helvetica,sans-Serif" font-size="10.00">JavaScript and JSON</text>
<text text-anchor="middle" x="271" y="-166" font-family="Helvetica,sans-Serif" font-size="10.00">data object</text>
</g>
<!-- Process2 -->
<g id="node2" class="node">
<title>Process2</title>
<path fill="#cb3d36" stroke="black" d="M510,-126C510,-126 365,-126 365,-126 359,-126 353,-120 353,-114 353,-114 353,-64 353,-64 353,-58 359,-52 365,-52 365,-52 510,-52 510,-52 516,-52 522,-58 522,-64 522,-64 522,-114 522,-114 522,-120 516,-126 510,-126"/>
<text text-anchor="middle" x="437.5" y="-114" font-family="Helvetica,sans-Serif" font-size="10.00" fill="white">Pipeline consumes lat and long</text>
<text text-anchor="middle" x="437.5" y="-103" font-family="Helvetica,sans-Serif" font-size="10.00" fill="white">as evidence.</text>
<text text-anchor="middle" x="437.5" y="-92" font-family="Helvetica,sans-Serif" font-size="10.00" fill="white">Geo engine uses these</text>
<text text-anchor="middle" x="437.5" y="-81" font-family="Helvetica,sans-Serif" font-size="10.00" fill="white">values to determine postal</text>
<text text-anchor="middle" x="437.5" y="-70" font-family="Helvetica,sans-Serif" font-size="10.00" fill="white">address and populates JSON</text>
<text text-anchor="middle" x="437.5" y="-59" font-family="Helvetica,sans-Serif" font-size="10.00" fill="white">response accordingly.</text>
</g>
<!-- ProcessC -->
<g id="node5" class="node">
<title>ProcessC</title>
<path fill="#cb3d36" stroke="black" d="M170,-79.5C170,-79.5 35,-79.5 35,-79.5 29,-79.5 23,-73.5 23,-67.5 23,-67.5 23,-28.5 23,-28.5 23,-22.5 29,-16.5 35,-16.5 35,-16.5 170,-16.5 170,-16.5 176,-16.5 182,-22.5 182,-28.5 182,-28.5 182,-67.5 182,-67.5 182,-73.5 176,-79.5 170,-79.5"/>
<text text-anchor="middle" x="102.5" y="-67.5" font-family="Helvetica,sans-Serif" font-size="10.00" fill="white">JavaScript updates existing</text>
<text text-anchor="middle" x="102.5" y="-56.5" font-family="Helvetica,sans-Serif" font-size="10.00" fill="white">JSON payload from response.</text>
<text text-anchor="middle" x="102.5" y="-45.5" font-family="Helvetica,sans-Serif" font-size="10.00" fill="white">An event is triggered to</text>
<text text-anchor="middle" x="102.5" y="-34.5" font-family="Helvetica,sans-Serif" font-size="10.00" fill="white">let subscribers know that</text>
<text text-anchor="middle" x="102.5" y="-23.5" font-family="Helvetica,sans-Serif" font-size="10.00" fill="white">new data is available.</text>
</g>
<!-- Process2&#45;&gt;ProcessC -->
<g id="edge4" class="edge">
<title>Process2&#45;&gt;ProcessC</title>
<path fill="none" stroke="black" d="M352.95,-55.18C346.94,-53.54 340.92,-52.11 335,-51 288.46,-42.26 235.73,-40.93 192.36,-42.04"/>
<polygon fill="black" stroke="black" points="192.01,-38.55 182.12,-42.35 192.22,-45.55 192.01,-38.55"/>
<text text-anchor="middle" x="271" y="-87" font-family="Helvetica,sans-Serif" font-size="10.00">4. Response contains</text>
<text text-anchor="middle" x="271" y="-76" font-family="Helvetica,sans-Serif" font-size="10.00">updated JSON data</text>
<text text-anchor="middle" x="271" y="-65" font-family="Helvetica,sans-Serif" font-size="10.00">object with postal</text>
<text text-anchor="middle" x="271" y="-54" font-family="Helvetica,sans-Serif" font-size="10.00">address</text>
</g>
<!-- Start -->
<g id="node3" class="node">
<title>Start</title>
<path fill="#cb3d36" stroke="black" d="M117.5,-204C117.5,-204 87.5,-204 87.5,-204 81.5,-204 75.5,-198 75.5,-192 75.5,-192 75.5,-180 75.5,-180 75.5,-174 81.5,-168 87.5,-168 87.5,-168 117.5,-168 117.5,-168 123.5,-168 129.5,-174 129.5,-180 129.5,-180 129.5,-192 129.5,-192 129.5,-198 123.5,-204 117.5,-204"/>
<text text-anchor="middle" x="102.5" y="-183.5" font-family="Helvetica,sans-Serif" font-size="10.00" fill="white">Start</text>
</g>
<!-- Start&#45;&gt;Process1 -->
<g id="edge1" class="edge">
<title>Start&#45;&gt;Process1</title>
<path fill="none" stroke="black" d="M129.78,-190.55C150.64,-193.92 180.59,-198.22 207,-200 263.76,-203.82 278.23,-203.62 335,-200 343.35,-199.47 352.06,-198.69 360.71,-197.78"/>
<polygon fill="black" stroke="black" points="361.27,-201.24 370.83,-196.65 360.5,-194.28 361.27,-201.24"/>
<text text-anchor="middle" x="271" y="-205" font-family="Helvetica,sans-Serif" font-size="10.00">1. Inital request</text>
</g>
<!-- ProcessB&#45;&gt;Process2 -->
<g id="edge3" class="edge">
<title>ProcessB&#45;&gt;Process2</title>
<path fill="none" stroke="black" d="M189.04,-113.06C195.12,-112.34 201.15,-111.65 207,-111 251.56,-106.07 301.07,-101.24 342.66,-97.37"/>
<polygon fill="black" stroke="black" points="343.14,-100.84 352.78,-96.43 342.5,-93.87 343.14,-100.84"/>
<text text-anchor="middle" x="271" y="-136" font-family="Helvetica,sans-Serif" font-size="10.00">3. Background request</text>
<text text-anchor="middle" x="271" y="-125" font-family="Helvetica,sans-Serif" font-size="10.00">includes lat and long from</text>
<text text-anchor="middle" x="271" y="-114" font-family="Helvetica,sans-Serif" font-size="10.00">client</text>
</g>
</g>
</svg>
