<?xml version="1.0" encoding="UTF-8" standalone="no"?>
<!DOCTYPE svg PUBLIC "-//W3C//DTD SVG 1.1//EN"
 "http://www.w3.org/Graphics/SVG/1.1/DTD/svg11.dtd">
<!-- Generated by graphviz version 2.43.0 (0)
 -->
<!-- Title: D Pages: 1 -->
<svg width="158pt" height="116pt"
 viewBox="0.00 0.00 158.00 116.00" xmlns="http://www.w3.org/2000/svg" xmlns:xlink="http://www.w3.org/1999/xlink">
<g id="graph0" class="graph" transform="scale(1 1) rotate(0) translate(4 112)">
<title>D</title>
<!-- P -->
<g id="node1" class="node">
<title>P</title>
<g id="a_node1"><a xlink:href="_pipeline_api__concepts__flow_elements__fifty_one_on_premise_engine.html#PipelineApi_Concepts_FlowElements_FiftyOneOnPremiseEngine_Properties" target="_top" xlink:title="Properties">
<path fill="#cb3d36" stroke="black" d="M61,-36C61,-36 19,-36 19,-36 13,-36 7,-30 7,-24 7,-24 7,-12 7,-12 7,-6 13,0 19,0 19,0 61,0 61,0 67,0 73,-6 73,-12 73,-12 73,-24 73,-24 73,-30 67,-36 61,-36"/>
<text text-anchor="middle" x="40" y="-15.5" font-family="Helvetica,sans-Serif" font-size="10.00" fill="white">Properties</text>
</a>
</g>
</g>
<!-- V -->
<g id="node2" class="node">
<title>V</title>
<g id="a_node2"><a xlink:href="_pipeline_api__concepts__flow_elements__fifty_one_on_premise_engine.html#PipelineApi_Concepts_FlowElements_FiftyOneOnPremiseEngine_Values" target="_top" xlink:title="Values">
<path fill="#cb3d36" stroke="black" d="M136,-36C136,-36 106,-36 106,-36 100,-36 94,-30 94,-24 94,-24 94,-12 94,-12 94,-6 100,0 106,0 106,0 136,0 136,0 142,0 148,-6 148,-12 148,-12 148,-24 148,-24 148,-30 142,-36 136,-36"/>
<text text-anchor="middle" x="121" y="-15.5" font-family="Helvetica,sans-Serif" font-size="10.00" fill="white">Values</text>
</a>
</g>
</g>
<!-- P&#45;&gt;V -->
<g id="edge1" class="edge">
<title>P&#45;&gt;V</title>
<path fill="none" stroke="black" d="M73.22,-18C76.64,-18 80.07,-18 83.49,-18"/>
<polygon fill="black" stroke="black" points="83.75,-18 93.75,-22.5 88.75,-18 93.75,-18 93.75,-18 93.75,-18 88.75,-18 93.75,-13.5 83.75,-18 83.75,-18"/>
</g>
<!-- C -->
<g id="node3" class="node">
<title>C</title>
<g id="a_node3"><a xlink:href="_pipeline_api__concepts__flow_elements__fifty_one_on_premise_engine.html#PipelineApi_Concepts_FlowElements_FiftyOneOnPremiseEngine_Components" target="_top" xlink:title="Components">
<path fill="#cb3d36" stroke="black" d="M66,-108C66,-108 12,-108 12,-108 6,-108 0,-102 0,-96 0,-96 0,-84 0,-84 0,-78 6,-72 12,-72 12,-72 66,-72 66,-72 72,-72 78,-78 78,-84 78,-84 78,-96 78,-96 78,-102 72,-108 66,-108"/>
<text text-anchor="middle" x="39" y="-87.5" font-family="Helvetica,sans-Serif" font-size="10.00" fill="white">Components</text>
</a>
</g>
</g>
<!-- C&#45;&gt;P -->
<g id="edge2" class="edge">
<title>C&#45;&gt;P</title>
<path fill="none" stroke="black" d="M39.25,-71.7C39.36,-63.98 39.49,-54.71 39.61,-46.11"/>
<polygon fill="black" stroke="black" points="39.61,-46.1 44.26,-36.17 39.68,-41.1 39.76,-36.1 39.76,-36.1 39.76,-36.1 39.68,-41.1 35.26,-36.04 39.61,-46.1 39.61,-46.1"/>
</g>
<!-- PF -->
<g id="node4" class="node">
<title>PF</title>
<g id="a_node4"><a xlink:href="_pipeline_api__concepts__flow_elements__fifty_one_on_premise_engine.html#PipelineApi_Concepts_FlowElements_FiftyOneOnPremiseEngine_Profiles" target="_top" xlink:title="Profiles">
<path fill="#cb3d36" stroke="black" d="M138,-108C138,-108 108,-108 108,-108 102,-108 96,-102 96,-96 96,-96 96,-84 96,-84 96,-78 102,-72 108,-72 108,-72 138,-72 138,-72 144,-72 150,-78 150,-84 150,-84 150,-96 150,-96 150,-102 144,-108 138,-108"/>
<text text-anchor="middle" x="123" y="-87.5" font-family="Helvetica,sans-Serif" font-size="10.00" fill="white">Profiles</text>
</a>
</g>
</g>
<!-- C&#45;&gt;PF -->
<g id="edge3" class="edge">
<title>C&#45;&gt;PF</title>
<path fill="none" stroke="black" d="M78.05,-90C80.66,-90 83.27,-90 85.88,-90"/>
<polygon fill="black" stroke="black" points="85.96,-90 95.96,-94.5 90.96,-90 95.96,-90 95.96,-90 95.96,-90 90.96,-90 95.96,-85.5 85.96,-90 85.96,-90"/>
</g>
<!-- PF&#45;&gt;V -->
<g id="edge4" class="edge">
<title>PF&#45;&gt;V</title>
<path fill="none" stroke="black" d="M122.51,-71.7C122.29,-63.98 122.02,-54.71 121.77,-46.11"/>
<polygon fill="black" stroke="black" points="121.77,-46.1 125.99,-35.98 121.63,-41.1 121.49,-36.1 121.49,-36.1 121.49,-36.1 121.63,-41.1 116.99,-36.23 121.77,-46.1 121.77,-46.1"/>
</g>
</g>
</svg>
