<?xml version="1.0" encoding="UTF-8" standalone="no"?>
<!DOCTYPE svg PUBLIC "-//W3C//DTD SVG 1.1//EN"
 "http://www.w3.org/Graphics/SVG/1.1/DTD/svg11.dtd">
<!-- Generated by graphviz version 2.43.0 (0)
 -->
<!-- Title: D Pages: 1 -->
<svg width="158pt" height="118pt"
 viewBox="0.00 0.00 158.00 118.00" xmlns="http://www.w3.org/2000/svg" xmlns:xlink="http://www.w3.org/1999/xlink">
<g id="graph0" class="graph" transform="scale(1 1) rotate(0) translate(4 114)">
<title>D</title>
<!-- P -->
<g id="node1" class="node">
<title>P</title>
<g id="a_node1"><a xlink:href="@ref PipelineApi_Concepts_FlowElements_FiftyOneOnPremiseEngine_Properties" xlink:title="Properties">
<polygon fill="none" stroke="black" points="7,-0.5 7,-36.5 73,-36.5 73,-0.5 7,-0.5"/>
<text text-anchor="middle" x="40" y="-16" font-family="Helvetica,sans-Serif" font-size="10.00">Properties</text>
</a>
</g>
</g>
<!-- V -->
<g id="node2" class="node">
<title>V</title>
<g id="a_node2"><a xlink:href="@ref PipelineApi_Concepts_FlowElements_FiftyOneOnPremiseEngine_Values" xlink:title="Values">
<polygon fill="none" stroke="black" points="94,-0.5 94,-36.5 148,-36.5 148,-0.5 94,-0.5"/>
<text text-anchor="middle" x="121" y="-16" font-family="Helvetica,sans-Serif" font-size="10.00">Values</text>
</a>
</g>
</g>
<!-- C -->
<g id="node3" class="node">
<title>C</title>
<g id="a_node3"><a xlink:href="@ref PipelineApi_Concepts_FlowElements_FiftyOneOnPremiseEngine_Components" xlink:title="Components">
<polygon fill="none" stroke="black" points="0,-73.5 0,-109.5 78,-109.5 78,-73.5 0,-73.5"/>
<text text-anchor="middle" x="39" y="-89" font-family="Helvetica,sans-Serif" font-size="10.00">Components</text>
</a>
</g>
</g>
<!-- C&#45;&gt;P -->
<g id="edge2" class="edge">
<title>C&#45;&gt;P</title>
<path fill="none" stroke="black" d="M39.24,-73.31C39.36,-65.29 39.49,-55.55 39.62,-46.57"/>
<polygon fill="black" stroke="black" points="39.62,-46.53 44.26,-36.59 39.69,-41.53 39.76,-36.53 39.76,-36.53 39.76,-36.53 39.69,-41.53 35.26,-36.47 39.62,-46.53 39.62,-46.53"/>
</g>
<!-- PF -->
<g id="node4" class="node">
<title>PF</title>
<g id="a_node4"><a xlink:href="@ref PipelineApi_Concepts_FlowElements_FiftyOneOnPremiseEngine_Profiles" xlink:title="Profiles">
<polygon fill="none" stroke="black" points="96,-73.5 96,-109.5 150,-109.5 150,-73.5 96,-73.5"/>
<text text-anchor="middle" x="123" y="-89" font-family="Helvetica,sans-Serif" font-size="10.00">Profiles</text>
</a>
</g>
</g>
<!-- PF&#45;&gt;V -->
<g id="edge4" class="edge">
<title>PF&#45;&gt;V</title>
<path fill="none" stroke="black" d="M122.52,-73.31C122.29,-65.29 122.02,-55.55 121.76,-46.57"/>
<polygon fill="black" stroke="black" points="121.76,-46.52 125.98,-36.4 121.62,-41.53 121.48,-36.53 121.48,-36.53 121.48,-36.53 121.62,-41.53 116.98,-36.66 121.76,-46.52 121.76,-46.52"/>
</g>
</g>
</svg>
