<?xml version="1.0" encoding="UTF-8" standalone="no"?>
<!DOCTYPE svg PUBLIC "-//W3C//DTD SVG 1.1//EN"
 "http://www.w3.org/Graphics/SVG/1.1/DTD/svg11.dtd">
<!-- Generated by graphviz version 2.43.0 (0)
 -->
<!-- Title: P Pages: 1 -->
<svg width="436pt" height="97pt"
 viewBox="0.00 0.00 436.00 97.00" xmlns="http://www.w3.org/2000/svg" xmlns:xlink="http://www.w3.org/1999/xlink">
<g id="graph0" class="graph" transform="scale(1 1) rotate(0) translate(4 93)">
<title>P</title>
<g id="clust1" class="cluster">
<title>clusterP</title>
<polygon fill="transparent" stroke="black" points="82,-8 82,-81 346,-81 346,-8 82,-8"/>
<text text-anchor="middle" x="214" y="-69" font-family="Helvetica,sans-Serif" font-size="10.00">Pipeline</text>
</g>
<!-- i -->
<g id="node1" class="node">
<title>i</title>
<text text-anchor="middle" x="27" y="-32.5" font-family="Helvetica,sans-Serif" font-size="10.00">in</text>
</g>
<!-- E1 -->
<g id="node2" class="node">
<title>E1</title>
<polygon fill="none" stroke="black" points="90,-17 90,-53 196,-53 196,-17 90,-17"/>
<text text-anchor="middle" x="143" y="-32.5" font-family="Helvetica,sans-Serif" font-size="10.00">Flow Element (E1)</text>
</g>
<!-- i&#45;&gt;E1 -->
<g id="edge1" class="edge">
<title>i&#45;&gt;E1</title>
<path fill="none" stroke="black" d="M54.15,-35C61.89,-35 70.71,-35 79.71,-35"/>
<polygon fill="black" stroke="black" points="79.9,-38.5 89.9,-35 79.9,-31.5 79.9,-38.5"/>
</g>
<!-- E2 -->
<g id="node3" class="node">
<title>E2</title>
<polygon fill="none" stroke="black" points="232,-17 232,-53 338,-53 338,-17 232,-17"/>
<text text-anchor="middle" x="285" y="-32.5" font-family="Helvetica,sans-Serif" font-size="10.00">Flow Element (E2)</text>
</g>
<!-- E1&#45;&gt;E2 -->
<g id="edge2" class="edge">
<title>E1&#45;&gt;E2</title>
<path fill="none" stroke="black" d="M196.13,-35C204.42,-35 213.07,-35 221.57,-35"/>
<polygon fill="black" stroke="black" points="221.83,-38.5 231.83,-35 221.83,-31.5 221.83,-38.5"/>
</g>
<!-- o -->
<g id="node4" class="node">
<title>o</title>
<text text-anchor="middle" x="401" y="-32.5" font-family="Helvetica,sans-Serif" font-size="10.00">out</text>
</g>
<!-- E2&#45;&gt;o -->
<g id="edge3" class="edge">
<title>E2&#45;&gt;o</title>
<path fill="none" stroke="black" d="M338.33,-35C346.88,-35 355.56,-35 363.62,-35"/>
<polygon fill="black" stroke="black" points="363.77,-38.5 373.77,-35 363.77,-31.5 363.77,-38.5"/>
</g>
</g>
</svg>
