<?xml version="1.0" encoding="UTF-8" standalone="no"?>
<!DOCTYPE svg PUBLIC "-//W3C//DTD SVG 1.1//EN"
 "http://www.w3.org/Graphics/SVG/1.1/DTD/svg11.dtd">
<!-- Generated by graphviz version 2.43.0 (0)
 -->
<!-- Title: %3 Pages: 1 -->
<svg width="535pt" height="109pt"
 viewBox="0.00 0.00 535.00 109.00" xmlns="http://www.w3.org/2000/svg" xmlns:xlink="http://www.w3.org/1999/xlink">
<g id="graph0" class="graph" transform="scale(1 1) rotate(0) translate(4 105)">
<title>%3</title>
<g id="clust1" class="cluster">
<title>clusterPipeline</title>
<g id="a_clust1"><a xlink:href="_pipeline_api__concepts__pipeline.html#PipelineApi_Concepts_Pipeline" target="_top" xlink:title="Pipeline">
<polygon fill="transparent" stroke="black" points="83,-8 83,-93 444,-93 444,-8 83,-8"/>
<text text-anchor="middle" x="263.5" y="-81" font-family="Helvetica,sans-Serif" font-size="10.00">Pipeline</text>
</a>
</g>
</g>
<!-- arrow1 -->
<g id="node1" class="node">
<title>arrow1</title>
<text text-anchor="middle" x="27" y="-38.5" font-family="Helvetica,sans-Serif" font-size="10.00">1</text>
</g>
<!-- structH -->
<g id="node2" class="node">
<title>structH</title>
<g id="a_node2"><a xlink:href="_device_detection__overview.html#DeviceDetection_Overview" target="_top" xlink:title="&lt;DDH&gt;DeviceDetectionEngine\n(Hardware)|{&lt;DK&gt;Element data key|&lt;DKV&gt;device}">
<polygon fill="none" stroke="black" points="91,-16.5 91,-65.5 242,-65.5 242,-16.5 91,-16.5"/>
<text text-anchor="middle" x="166.5" y="-53.5" font-family="Helvetica,sans-Serif" font-size="10.00">DeviceDetectionEngine</text>
<text text-anchor="middle" x="166.5" y="-42.5" font-family="Helvetica,sans-Serif" font-size="10.00">(Hardware)</text>
<polyline fill="none" stroke="black" points="91,-35.5 242,-35.5 "/>
<text text-anchor="middle" x="142" y="-23.5" font-family="Helvetica,sans-Serif" font-size="10.00">Element data key</text>
<polyline fill="none" stroke="black" points="193,-16.5 193,-35.5 "/>
<text text-anchor="middle" x="217.5" y="-23.5" font-family="Helvetica,sans-Serif" font-size="10.00">device</text>
</a>
</g>
</g>
<!-- arrow1&#45;&gt;structH -->
<g id="edge1" class="edge">
<title>arrow1&#45;&gt;structH</title>
<path fill="none" stroke="black" d="M54.19,-41C62.05,-41 71.14,-41 80.67,-41"/>
<polygon fill="black" stroke="black" points="80.72,-44.5 90.72,-41 80.72,-37.5 80.72,-44.5"/>
</g>
<!-- structP -->
<g id="node3" class="node">
<title>structP</title>
<g id="a_node3"><a xlink:href="_device_detection__overview.html#DeviceDetection_Overview" target="_top" xlink:title="&lt;DDH&gt;DeviceDetectionEngine\n(Platform/OS)|{&lt;DK&gt;Element data key|&lt;DKV&gt;device}">
<polygon fill="none" stroke="black" points="285,-16.5 285,-65.5 436,-65.5 436,-16.5 285,-16.5"/>
<text text-anchor="middle" x="360.5" y="-53.5" font-family="Helvetica,sans-Serif" font-size="10.00">DeviceDetectionEngine</text>
<text text-anchor="middle" x="360.5" y="-42.5" font-family="Helvetica,sans-Serif" font-size="10.00">(Platform/OS)</text>
<polyline fill="none" stroke="black" points="285,-35.5 436,-35.5 "/>
<text text-anchor="middle" x="336" y="-23.5" font-family="Helvetica,sans-Serif" font-size="10.00">Element data key</text>
<polyline fill="none" stroke="black" points="387,-16.5 387,-35.5 "/>
<text text-anchor="middle" x="411.5" y="-23.5" font-family="Helvetica,sans-Serif" font-size="10.00">device</text>
</a>
</g>
</g>
<!-- structH&#45;&gt;structP -->
<g id="edge2" class="edge">
<title>structH&#45;&gt;structP</title>
<path fill="none" stroke="black" d="M242.01,-41C252.63,-41 263.63,-41 274.43,-41"/>
<polygon fill="black" stroke="black" points="274.72,-44.5 284.72,-41 274.72,-37.5 274.72,-44.5"/>
<text text-anchor="middle" x="263.5" y="-44" font-family="Helvetica,sans-Serif" font-size="10.00">2</text>
</g>
<!-- arrow3 -->
<g id="node4" class="node">
<title>arrow3</title>
<text text-anchor="middle" x="500" y="-38.5" font-family="Helvetica,sans-Serif" font-size="10.00">3</text>
</g>
<!-- structP&#45;&gt;arrow3 -->
<g id="edge3" class="edge">
<title>structP&#45;&gt;arrow3</title>
<path fill="none" stroke="black" d="M436.29,-41C445.4,-41 454.36,-41 462.54,-41"/>
<polygon fill="black" stroke="black" points="462.78,-44.5 472.78,-41 462.78,-37.5 462.78,-44.5"/>
</g>
</g>
</svg>
