<?xml version="1.0" encoding="UTF-8" standalone="no"?>
<!DOCTYPE svg PUBLIC "-//W3C//DTD SVG 1.1//EN"
 "http://www.w3.org/Graphics/SVG/1.1/DTD/svg11.dtd">
<!-- Generated by graphviz version 2.43.0 (0)
 -->
<!-- Title: H Pages: 1 -->
<svg width="301pt" height="377pt"
 viewBox="0.00 0.00 300.80 376.80" xmlns="http://www.w3.org/2000/svg" xmlns:xlink="http://www.w3.org/1999/xlink">
<g id="graph0" class="graph" transform="scale(1 1) rotate(0) translate(14.4 362.4)">
<title>H</title>
<g id="clust1" class="cluster">
<title>clusterFlowElement</title>
<g id="a_clust1"><a xlink:href="_concepts__flow_elements__flow_element.html#Concepts_FlowElements_FlowElement" target="_top" xlink:title="&lt;B&gt;Flow Element&lt;/B&gt;">
<polygon fill="transparent" stroke="black" points="37,-247 37,-340 187,-340 187,-247 37,-247"/>
<text text-anchor="start" x="74" y="-329" font-family="Helvetica,sans-Serif" font-weight="bold" font-size="10.00">Flow Element</text>
</a>
</g>
</g>
<g id="clust2" class="cluster">
<title>clusterAspectEngine</title>
<g id="a_clust2"><a xlink:href="_concepts__flow_elements__aspect_engine.html#Concepts_FlowElements_AspectEngine" target="_top" xlink:title="&lt;B&gt;Aspect Engine&lt;/B&gt;">
<polygon fill="transparent" stroke="black" points="31,-117 31,-210 193,-210 193,-117 31,-117"/>
<text text-anchor="start" x="71.5" y="-199" font-family="Helvetica,sans-Serif" font-weight="bold" font-size="10.00">Aspect Engine</text>
</a>
</g>
</g>
<g id="clust3" class="cluster">
<title>clusterOnPremiseAspectEngine</title>
<g id="a_clust3"><a xlink:href="_concepts__flow_elements__on_premise_engine.html#Concepts_FlowElements_OnPremiseEngine" target="_top" xlink:title="&lt;B&gt;On&#45;Premise Engine&lt;/B&gt;">
<polygon fill="transparent" stroke="black" points="8,-8 8,-80 133,-80 133,-8 8,-8"/>
<text text-anchor="start" x="16" y="-69" font-family="Helvetica,sans-Serif" font-weight="bold" font-size="10.00">On&#45;Premise Engine</text>
</a>
</g>
</g>
<!-- FE -->
<g id="node1" class="node">
<title>FE</title>
<polygon fill="none" stroke="black" points="45,-255.5 45,-312.5 179,-312.5 179,-255.5 45,-255.5"/>
<text text-anchor="middle" x="112" y="-300.5" font-family="Helvetica,sans-Serif" font-size="10.00">Element Properties</text>
<polyline fill="none" stroke="black" points="45,-293.5 179,-293.5 "/>
<text text-anchor="middle" x="112" y="-281.5" font-family="Helvetica,sans-Serif" font-size="10.00">Element Data</text>
<polyline fill="none" stroke="black" points="45,-274.5 179,-274.5 "/>
<text text-anchor="middle" x="112" y="-262.5" font-family="Helvetica,sans-Serif" font-size="10.00">Logging of Process calls</text>
</g>
<!-- AE -->
<g id="node2" class="node">
<title>AE</title>
<polygon fill="none" stroke="black" points="39.5,-125.5 39.5,-182.5 184.5,-182.5 184.5,-125.5 39.5,-125.5"/>
<text text-anchor="middle" x="112" y="-170.5" font-family="Helvetica,sans-Serif" font-size="10.00">Result Caching</text>
<polyline fill="none" stroke="black" points="39.5,-163.5 184.5,-163.5 "/>
<text text-anchor="middle" x="112" y="-151.5" font-family="Helvetica,sans-Serif" font-size="10.00">Lazy Loading</text>
<polyline fill="none" stroke="black" points="39.5,-144.5 184.5,-144.5 "/>
<text text-anchor="middle" x="112" y="-132.5" font-family="Helvetica,sans-Serif" font-size="10.00">Missing Property Handling</text>
</g>
<!-- FE&#45;&gt;AE -->
<g id="edge1" class="edge">
<title>FE&#45;&gt;AE</title>
<path fill="none" stroke="black" d="M112,-247C112,-238.65 112,-229.5 112,-220.31"/>
<polygon fill="black" stroke="black" points="115.5,-220 112,-210 108.5,-220 115.5,-220"/>
</g>
<!-- OPE -->
<g id="node3" class="node">
<title>OPE</title>
<polygon fill="none" stroke="black" points="20,-16.5 20,-52.5 120,-52.5 120,-16.5 20,-16.5"/>
<text text-anchor="middle" x="70" y="-32" font-family="Helvetica,sans-Serif" font-size="10.00">Data file updates</text>
</g>
<!-- AE&#45;&gt;OPE -->
<g id="edge2" class="edge">
<title>AE&#45;&gt;OPE</title>
<path fill="none" stroke="black" d="M99.13,-117C96.02,-108.29 92.62,-98.78 89.28,-89.44"/>
<polygon fill="black" stroke="black" points="92.57,-88.24 85.91,-80 85.98,-90.59 92.57,-88.24"/>
</g>
<!-- CE -->
<g id="node4" class="node">
<title>CE</title>
<g id="a_node4"><a xlink:href="_concepts__flow_elements__cloud_engine.html#Concepts_FlowElements_CloudEngine" target="_top" xlink:title="Cloud Engine">
<polygon fill="none" stroke="black" points="192,-16.5 192,-52.5 272,-52.5 272,-16.5 192,-16.5"/>
<text text-anchor="middle" x="232" y="-32" font-family="Helvetica,sans-Serif" font-size="10.00">Cloud Engine</text>
</a>
</g>
</g>
<!-- AE&#45;&gt;CE -->
<g id="edge3" class="edge">
<title>AE&#45;&gt;CE</title>
<path fill="none" stroke="black" d="M148.76,-117C167.68,-98.48 190.25,-76.38 207.12,-59.87"/>
<polygon fill="black" stroke="black" points="209.75,-62.18 214.45,-52.69 204.85,-57.18 209.75,-62.18"/>
</g>
</g>
</svg>
