<?xml version="1.0" encoding="UTF-8" standalone="no"?>
<!DOCTYPE svg PUBLIC "-//W3C//DTD SVG 1.1//EN"
 "http://www.w3.org/Graphics/SVG/1.1/DTD/svg11.dtd">
<!-- Generated by graphviz version 2.43.0 (0)
 -->
<!-- Title: %3 Pages: 1 -->
<svg width="377pt" height="243pt"
 viewBox="0.00 0.00 376.50 243.00" xmlns="http://www.w3.org/2000/svg" xmlns:xlink="http://www.w3.org/1999/xlink">
<g id="graph0" class="graph" transform="scale(1 1) rotate(0) translate(4 239)">
<title>%3</title>
<!-- W -->
<g id="node1" class="node">
<title>W</title>
<path fill="#cb3d36" stroke="black" d="M207,-235C207,-235 88,-235 88,-235 82,-235 76,-229 76,-223 76,-223 76,-211 76,-211 76,-205 82,-199 88,-199 88,-199 207,-199 207,-199 213,-199 219,-205 219,-211 219,-211 219,-223 219,-223 219,-229 213,-235 207,-235"/>
<text text-anchor="middle" x="147.5" y="-214.5" font-family="Helvetica,sans-Serif" font-size="10.00" fill="white">Web server using Pipeline</text>
</g>
<!-- D -->
<g id="node2" class="node">
<title>D</title>
<path fill="#cb3d36" stroke="black" d="M137,-141C137,-141 12,-141 12,-141 6,-141 0,-135 0,-129 0,-129 0,-117 0,-117 0,-111 6,-105 12,-105 12,-105 137,-105 137,-105 143,-105 149,-111 149,-117 149,-117 149,-129 149,-129 149,-135 143,-141 137,-141"/>
<text text-anchor="middle" x="74.5" y="-120.5" font-family="Helvetica,sans-Serif" font-size="10.00" fill="white">51Degrees data processing</text>
</g>
<!-- W&#45;&gt;D -->
<g id="edge1" class="edge">
<title>W&#45;&gt;D</title>
<path fill="none" stroke="black" d="M128.98,-198.84C123.44,-193.35 117.51,-187.11 112.5,-181 104.53,-171.28 96.67,-159.88 90.18,-149.83"/>
<polygon fill="black" stroke="black" points="92.95,-147.66 84.65,-141.08 87.03,-151.4 92.95,-147.66"/>
<text text-anchor="middle" x="165" y="-173" font-family="Helvetica,sans-Serif" font-size="10.00">Evidence shared with</text>
<text text-anchor="middle" x="165" y="-162" font-family="Helvetica,sans-Serif" font-size="10.00">51Degrees</text>
</g>
<!-- F -->
<g id="node3" class="node">
<title>F</title>
<path fill="#cb3d36" stroke="black" d="M207.5,-36C207.5,-36 85.5,-36 85.5,-36 79.5,-36 73.5,-30 73.5,-24 73.5,-24 73.5,-12 73.5,-12 73.5,-6 79.5,0 85.5,0 85.5,0 207.5,0 207.5,0 213.5,0 219.5,-6 219.5,-12 219.5,-12 219.5,-24 219.5,-24 219.5,-30 213.5,-36 207.5,-36"/>
<text text-anchor="middle" x="146.5" y="-15.5" font-family="Helvetica,sans-Serif" font-size="10.00" fill="white">51Degrees data file export</text>
</g>
<!-- D&#45;&gt;F -->
<g id="edge2" class="edge">
<title>D&#45;&gt;F</title>
<path fill="none" stroke="black" d="M65.55,-104.95C59.21,-90.28 53.45,-69.15 63.5,-54 66.58,-49.36 70.41,-45.33 74.72,-41.84"/>
<polygon fill="black" stroke="black" points="76.74,-44.69 82.95,-36.1 72.74,-38.95 76.74,-44.69"/>
<text text-anchor="middle" x="140.5" y="-79" font-family="Helvetica,sans-Serif" font-size="10.00">New evidence values identified</text>
<text text-anchor="middle" x="140.5" y="-68" font-family="Helvetica,sans-Serif" font-size="10.00">and associated with</text>
<text text-anchor="middle" x="140.5" y="-57" font-family="Helvetica,sans-Serif" font-size="10.00">appropriate data</text>
</g>
<!-- F&#45;&gt;W -->
<g id="edge3" class="edge">
<title>F&#45;&gt;W</title>
<path fill="none" stroke="black" d="M198.92,-36.15C206.31,-40.79 212.93,-46.65 217.5,-54 247.31,-101.93 247.17,-132.99 217.5,-181 214.71,-185.51 211.15,-189.45 207.12,-192.91"/>
<polygon fill="black" stroke="black" points="204.85,-190.22 198.85,-198.95 208.99,-195.87 204.85,-190.22"/>
<text text-anchor="middle" x="304" y="-131.5" font-family="Helvetica,sans-Serif" font-size="10.00">Updated data file contains</text>
<text text-anchor="middle" x="304" y="-120.5" font-family="Helvetica,sans-Serif" font-size="10.00">exact mappings for newly</text>
<text text-anchor="middle" x="304" y="-109.5" font-family="Helvetica,sans-Serif" font-size="10.00">identified evidence.</text>
</g>
</g>
</svg>
