<?xml version="1.0" encoding="UTF-8" standalone="no"?>
<!DOCTYPE svg PUBLIC "-//W3C//DTD SVG 1.1//EN"
 "http://www.w3.org/Graphics/SVG/1.1/DTD/svg11.dtd">
<!-- Generated by graphviz version 2.43.0 (0)
 -->
<!-- Title: Graphical Class Hierarchy Pages: 1 -->
<svg width="330pt" height="66pt"
 viewBox="0.00 0.00 330.00 66.00" xmlns="http://www.w3.org/2000/svg" xmlns:xlink="http://www.w3.org/1999/xlink">
<g id="graph0" class="graph" transform="scale(1 1) rotate(0) translate(4 62)">
<title>Graphical Class Hierarchy</title>
<!-- Node170 -->
<g id="node1" class="node">
<title>Node170</title>
<g id="a_node1"><a xlink:title=" ">
<polygon fill="none" stroke="#bfbfbf" points="0,-38.5 0,-57.5 79,-57.5 79,-38.5 0,-38.5"/>
<text text-anchor="middle" x="39.5" y="-45.5" font-family="Helvetica,sans-Serif" font-size="10.00">IComparable</text>
</a>
</g>
</g>
<!-- Node0 -->
<g id="node2" class="node">
<title>Node0</title>
<g id="a_node2"><a xlink:href="class_program_1_1_key.html" target="_top" xlink:title="Key used for each metric.">
<polygon fill="none" stroke="black" points="115,-19.5 115,-38.5 194,-38.5 194,-19.5 115,-19.5"/>
<text text-anchor="middle" x="154.5" y="-26.5" font-family="Helvetica,sans-Serif" font-size="10.00">Program.Key</text>
</a>
</g>
</g>
<!-- Node170&#45;&gt;Node0 -->
<g id="edge1" class="edge">
<title>Node170&#45;&gt;Node0</title>
<path fill="none" stroke="midnightblue" d="M89,-39.85C97.59,-38.4 106.44,-36.91 114.72,-35.52"/>
<polygon fill="midnightblue" stroke="midnightblue" points="88.35,-36.4 79.07,-41.51 89.51,-43.31 88.35,-36.4"/>
</g>
<!-- Node1 -->
<g id="node3" class="node">
<title>Node1</title>
<g id="a_node3"><a xlink:href="class_program_1_1_metric.html" target="_top" xlink:title=" ">
<polygon fill="none" stroke="black" points="230,-19.5 230,-38.5 322,-38.5 322,-19.5 230,-19.5"/>
<text text-anchor="middle" x="276" y="-26.5" font-family="Helvetica,sans-Serif" font-size="10.00">Program.Metric</text>
</a>
</g>
</g>
<!-- Node0&#45;&gt;Node1 -->
<g id="edge2" class="edge">
<title>Node0&#45;&gt;Node1</title>
<path fill="none" stroke="midnightblue" d="M204.35,-29C212.75,-29 221.45,-29 229.75,-29"/>
<polygon fill="midnightblue" stroke="midnightblue" points="204.3,-25.5 194.3,-29 204.3,-32.5 204.3,-25.5"/>
</g>
<!-- Node136 -->
<g id="node4" class="node">
<title>Node136</title>
<g id="a_node4"><a xlink:title=" ">
<polygon fill="none" stroke="#bfbfbf" points="5.5,-0.5 5.5,-19.5 73.5,-19.5 73.5,-0.5 5.5,-0.5"/>
<text text-anchor="middle" x="39.5" y="-7.5" font-family="Helvetica,sans-Serif" font-size="10.00">IEquatable</text>
</a>
</g>
</g>
<!-- Node136&#45;&gt;Node0 -->
<g id="edge3" class="edge">
<title>Node136&#45;&gt;Node0</title>
<path fill="none" stroke="midnightblue" d="M83.77,-17.28C94.01,-19 104.86,-20.82 114.88,-22.51"/>
<polygon fill="midnightblue" stroke="midnightblue" points="84.23,-13.8 73.79,-15.6 83.07,-20.71 84.23,-13.8"/>
</g>
</g>
</svg>
