<?xml version="1.0" encoding="UTF-8" standalone="no"?>
<!DOCTYPE svg PUBLIC "-//W3C//DTD SVG 1.1//EN"
 "http://www.w3.org/Graphics/SVG/1.1/DTD/svg11.dtd">
<!-- Generated by graphviz version 2.43.0 (0)
 -->
<!-- Title: ElementData Pages: 1 -->
<svg width="255pt" height="137pt"
 viewBox="0.00 0.00 255.00 137.00" xmlns="http://www.w3.org/2000/svg" xmlns:xlink="http://www.w3.org/1999/xlink">
<g id="graph0" class="graph" transform="scale(1 1) rotate(0) translate(4 133)">
<title>ElementData</title>
<!-- Node1 -->
<g id="Node000001" class="node">
<title>Node1</title>
<g id="a_Node000001"><a xlink:title="Stores information created by a flowElement based on flowData.">
<polygon fill="#999999" stroke="#666666" points="161.5,-129 81.5,-129 81.5,-110 161.5,-110 161.5,-129"/>
<text text-anchor="middle" x="121.5" y="-117" font-family="Helvetica,sans-Serif" font-size="10.00">ElementData</text>
</a>
</g>
</g>
<!-- Node2 -->
<g id="Node000002" class="node">
<title>Node2</title>
<g id="a_Node000002"><a xlink:href="class_aspect_data.html" target="_top" xlink:title="Extension of elementData which allows for a missing property service to be called when an accessed pr...">
<polygon fill="white" stroke="#666666" points="98,-74 25,-74 25,-55 98,-55 98,-74"/>
<text text-anchor="middle" x="61.5" y="-62" font-family="Helvetica,sans-Serif" font-size="10.00">AspectData</text>
</a>
</g>
</g>
<!-- Node1&#45;&gt;Node2 -->
<g id="edge1_Node000001_Node000002" class="edge">
<title>Node1&#45;&gt;Node2</title>
<g id="a_edge1_Node000001_Node000002"><a xlink:title=" ">
<path fill="none" stroke="#63b8ff" d="M104.32,-103.32C93.62,-93.87 80.24,-82.06 71.32,-74.17"/>
<polygon fill="#63b8ff" stroke="#63b8ff" points="102.05,-105.99 111.86,-109.98 106.68,-100.74 102.05,-105.99"/>
</a>
</g>
</g>
<!-- Node4 -->
<g id="Node000004" class="node">
<title>Node4</title>
<g id="a_Node000004"><a xlink:href="class_element_data_dictionary.html" target="_top" xlink:title="A basic extension of elementData with dictionary object storage / lookup.">
<polygon fill="white" stroke="#666666" points="247,-74 116,-74 116,-55 247,-55 247,-74"/>
<text text-anchor="middle" x="181.5" y="-62" font-family="Helvetica,sans-Serif" font-size="10.00">ElementDataDictionary</text>
</a>
</g>
</g>
<!-- Node1&#45;&gt;Node4 -->
<g id="edge3_Node000001_Node000004" class="edge">
<title>Node1&#45;&gt;Node4</title>
<g id="a_edge3_Node000001_Node000004"><a xlink:title=" ">
<path fill="none" stroke="#63b8ff" d="M138.68,-103.32C149.38,-93.87 162.76,-82.06 171.68,-74.17"/>
<polygon fill="#63b8ff" stroke="#63b8ff" points="136.32,-100.74 131.14,-109.98 140.95,-105.99 136.32,-100.74"/>
</a>
</g>
</g>
<!-- Node3 -->
<g id="Node000003" class="node">
<title>Node3</title>
<g id="a_Node000003"><a xlink:href="class_aspect_data_dictionary.html" target="_top" xlink:title="Extension of elementDataDictionary which stores a {key,value} dictionary of elements like elementData...">
<polygon fill="white" stroke="#666666" points="123,-19 0,-19 0,0 123,0 123,-19"/>
<text text-anchor="middle" x="61.5" y="-7" font-family="Helvetica,sans-Serif" font-size="10.00">AspectDataDictionary</text>
</a>
</g>
</g>
<!-- Node2&#45;&gt;Node3 -->
<g id="edge2_Node000002_Node000003" class="edge">
<title>Node2&#45;&gt;Node3</title>
<g id="a_edge2_Node000002_Node000003"><a xlink:title=" ">
<path fill="none" stroke="#63b8ff" d="M61.5,-44.66C61.5,-35.93 61.5,-25.99 61.5,-19.09"/>
<polygon fill="#63b8ff" stroke="#63b8ff" points="58,-44.75 61.5,-54.75 65,-44.75 58,-44.75"/>
</a>
</g>
</g>
</g>
</svg>
