<?xml version="1.0" encoding="UTF-8" standalone="no"?>
<!DOCTYPE svg PUBLIC "-//W3C//DTD SVG 1.1//EN"
 "http://www.w3.org/Graphics/SVG/1.1/DTD/svg11.dtd">
<!-- Generated by graphviz version 2.43.0 (0)
 -->
<!-- Title: CloudEngine Pages: 1 -->
<svg width="88pt" height="137pt"
 viewBox="0.00 0.00 88.00 137.00" xmlns="http://www.w3.org/2000/svg" xmlns:xlink="http://www.w3.org/1999/xlink">
<g id="graph0" class="graph" transform="scale(1 1) rotate(0) translate(4 133)">
<title>CloudEngine</title>
<!-- Node1 -->
<g id="Node000001" class="node">
<title>Node1</title>
<g id="a_Node000001"><a xlink:title="This is a template for all 51Degrees cloud engines.">
<polygon fill="#999999" stroke="#666666" points="78.5,-19 1.5,-19 1.5,0 78.5,0 78.5,-19"/>
<text text-anchor="middle" x="40" y="-7" font-family="Helvetica,sans-Serif" font-size="10.00">CloudEngine</text>
</a>
</g>
</g>
<!-- Node2 -->
<g id="Node000002" class="node">
<title>Node2</title>
<g id="a_Node000002"><a xlink:href="class_engine.html" target="_top" xlink:title="An Engine is an extension of a FlowElement which adds options such as restricting to a subset of prop...">
<polygon fill="white" stroke="#666666" points="65,-74 15,-74 15,-55 65,-55 65,-74"/>
<text text-anchor="middle" x="40" y="-62" font-family="Helvetica,sans-Serif" font-size="10.00">Engine</text>
</a>
</g>
</g>
<!-- Node2&#45;&gt;Node1 -->
<g id="edge1_Node000001_Node000002" class="edge">
<title>Node2&#45;&gt;Node1</title>
<g id="a_edge1_Node000001_Node000002"><a xlink:title=" ">
<path fill="none" stroke="#63b8ff" d="M40,-44.66C40,-35.93 40,-25.99 40,-19.09"/>
<polygon fill="#63b8ff" stroke="#63b8ff" points="36.5,-44.75 40,-54.75 43.5,-44.75 36.5,-44.75"/>
</a>
</g>
</g>
<!-- Node3 -->
<g id="Node000003" class="node">
<title>Node3</title>
<g id="a_Node000003"><a xlink:href="class_flow_element.html" target="_top" xlink:title="A FlowElement is placed inside a pipeline It receives Evidence via a FlowData object It uses this to ...">
<polygon fill="white" stroke="#666666" points="80,-129 0,-129 0,-110 80,-110 80,-129"/>
<text text-anchor="middle" x="40" y="-117" font-family="Helvetica,sans-Serif" font-size="10.00">FlowElement</text>
</a>
</g>
</g>
<!-- Node3&#45;&gt;Node2 -->
<g id="edge2_Node000002_Node000003" class="edge">
<title>Node3&#45;&gt;Node2</title>
<g id="a_edge2_Node000002_Node000003"><a xlink:title=" ">
<path fill="none" stroke="#63b8ff" d="M40,-99.66C40,-90.93 40,-80.99 40,-74.09"/>
<polygon fill="#63b8ff" stroke="#63b8ff" points="36.5,-99.75 40,-109.75 43.5,-99.75 36.5,-99.75"/>
</a>
</g>
</g>
</g>
</svg>
