<?xml version="1.0" encoding="UTF-8" standalone="no"?>
<!DOCTYPE svg PUBLIC "-//W3C//DTD SVG 1.1//EN"
 "http://www.w3.org/Graphics/SVG/1.1/DTD/svg11.dtd">
<!-- Generated by graphviz version 2.43.0 (0)
 -->
<!-- Title: FlowElement Pages: 1 -->
<svg width="417pt" height="323pt"
 viewBox="0.00 0.00 417.00 323.00" xmlns="http://www.w3.org/2000/svg" xmlns:xlink="http://www.w3.org/1999/xlink">
<g id="graph0" class="graph" transform="scale(1 1) rotate(0) translate(4 319)">
<title>FlowElement</title>
<!-- Node1 -->
<g id="Node000001" class="node">
<title>Node1</title>
<g id="a_Node000001"><a xlink:title="A FlowElement is placed inside a pipeline It receives Evidence via a FlowData object It uses this to ...">
<polygon fill="#999999" stroke="#666666" points="80,-167 0,-167 0,-148 80,-148 80,-167"/>
<text text-anchor="middle" x="40" y="-155" font-family="Helvetica,sans-Serif" font-size="10.00">FlowElement</text>
</a>
</g>
</g>
<!-- Node2 -->
<g id="Node000002" class="node">
<title>Node2</title>
<g id="a_Node000002"><a xlink:href="class_async.html" target="_top" xlink:title=" ">
<polygon fill="white" stroke="#bfbfbf" points="209,-315 163,-315 163,-296 209,-296 209,-315"/>
<text text-anchor="middle" x="186" y="-303" font-family="Helvetica,sans-Serif" font-size="10.00">Async</text>
</a>
</g>
</g>
<!-- Node1&#45;&gt;Node2 -->
<g id="edge1_Node000001_Node000002" class="edge">
<title>Node1&#45;&gt;Node2</title>
<g id="a_edge1_Node000001_Node000002"><a xlink:title=" ">
<path fill="none" stroke="#63b8ff" d="M46.76,-176.71C56.34,-205.3 78.33,-258.78 116,-287.5 129.49,-297.78 148.3,-302.21 162.88,-304.11"/>
<polygon fill="#63b8ff" stroke="#63b8ff" points="50.06,-175.53 43.69,-167.07 43.39,-177.66 50.06,-175.53"/>
</a>
</g>
</g>
<!-- Node3 -->
<g id="Node000003" class="node">
<title>Node3</title>
<g id="a_Node000003"><a xlink:href="class_engine.html" target="_top" xlink:title="An Engine is an extension of a FlowElement which adds options such as restricting to a subset of prop...">
<polygon fill="white" stroke="#666666" points="211,-278 161,-278 161,-259 211,-259 211,-278"/>
<text text-anchor="middle" x="186" y="-266" font-family="Helvetica,sans-Serif" font-size="10.00">Engine</text>
</a>
</g>
</g>
<!-- Node1&#45;&gt;Node3 -->
<g id="edge2_Node000001_Node000003" class="edge">
<title>Node1&#45;&gt;Node3</title>
<g id="a_edge2_Node000001_Node000003"><a xlink:title=" ">
<path fill="none" stroke="#63b8ff" d="M51.04,-176.08C63.48,-197.31 86.67,-231.55 116,-250.5 129.41,-259.17 146.83,-263.67 160.81,-266"/>
<polygon fill="#63b8ff" stroke="#63b8ff" points="53.93,-174.07 45.96,-167.09 47.83,-177.51 53.93,-174.07"/>
</a>
</g>
</g>
<!-- Node7 -->
<g id="Node000007" class="node">
<title>Node7</title>
<g id="a_Node000007"><a xlink:href="class_j_s_o_n_bundler_element.html" target="_top" xlink:title="The JSONBundler aggregates all properties from FlowElements into a JSON object It is used for retriev...">
<polygon fill="white" stroke="#666666" points="245.5,-241 126.5,-241 126.5,-222 245.5,-222 245.5,-241"/>
<text text-anchor="middle" x="186" y="-229" font-family="Helvetica,sans-Serif" font-size="10.00">JSONBundlerElement</text>
</a>
</g>
</g>
<!-- Node1&#45;&gt;Node7 -->
<g id="edge6_Node000001_Node000007" class="edge">
<title>Node1&#45;&gt;Node7</title>
<g id="a_edge6_Node000001_Node000007"><a xlink:title=" ">
<path fill="none" stroke="#63b8ff" d="M58.96,-174.08C73.39,-186.57 94.7,-203.26 116,-213.5 123.03,-216.88 130.78,-219.69 138.46,-222"/>
<polygon fill="#63b8ff" stroke="#63b8ff" points="61.11,-171.31 51.31,-167.28 56.46,-176.54 61.11,-171.31"/>
</a>
</g>
</g>
<!-- Node8 -->
<g id="Node000008" class="node">
<title>Node8</title>
<g id="a_Node000008"><a xlink:href="class_java_script_builder_element.html" target="_top" xlink:title="The JavaScriptBuilder aggregates JavaScript properties from FlowElements in the pipeline.">
<polygon fill="white" stroke="#666666" points="256,-204 116,-204 116,-185 256,-185 256,-204"/>
<text text-anchor="middle" x="186" y="-192" font-family="Helvetica,sans-Serif" font-size="10.00">JavaScriptBuilderElement</text>
</a>
</g>
</g>
<!-- Node1&#45;&gt;Node8 -->
<g id="edge7_Node000001_Node000008" class="edge">
<title>Node1&#45;&gt;Node8</title>
<g id="a_edge7_Node000001_Node000008"><a xlink:title=" ">
<path fill="none" stroke="#63b8ff" d="M87.91,-169.55C107.23,-174.52 129.32,-180.19 147.54,-184.88"/>
<polygon fill="#63b8ff" stroke="#63b8ff" points="88.64,-166.13 78.08,-167.03 86.9,-172.91 88.64,-166.13"/>
</a>
</g>
</g>
<!-- Node9 -->
<g id="Node000009" class="node">
<title>Node9</title>
<g id="a_Node000009"><a xlink:href="class_never_run.html" target="_top" xlink:title=" ">
<polygon fill="white" stroke="#bfbfbf" points="218.5,-167 153.5,-167 153.5,-148 218.5,-148 218.5,-167"/>
<text text-anchor="middle" x="186" y="-155" font-family="Helvetica,sans-Serif" font-size="10.00">NeverRun</text>
</a>
</g>
</g>
<!-- Node1&#45;&gt;Node9 -->
<g id="edge8_Node000001_Node000009" class="edge">
<title>Node1&#45;&gt;Node9</title>
<g id="a_edge8_Node000001_Node000009"><a xlink:title=" ">
<path fill="none" stroke="#63b8ff" d="M90.63,-157.5C111.45,-157.5 135.05,-157.5 153.44,-157.5"/>
<polygon fill="#63b8ff" stroke="#63b8ff" points="90.35,-154 80.35,-157.5 90.35,-161 90.35,-154"/>
</a>
</g>
</g>
<!-- Node10 -->
<g id="Node000010" class="node">
<title>Node10</title>
<g id="a_Node000010"><a xlink:href="class_sequence_element.html" target="_top" xlink:title="The SequenceElement stores session data regarding requests for client side JavaScript from the JavaSc...">
<polygon fill="white" stroke="#666666" points="238,-130 134,-130 134,-111 238,-111 238,-130"/>
<text text-anchor="middle" x="186" y="-118" font-family="Helvetica,sans-Serif" font-size="10.00">SequenceElement</text>
</a>
</g>
</g>
<!-- Node1&#45;&gt;Node10 -->
<g id="edge9_Node000001_Node000010" class="edge">
<title>Node1&#45;&gt;Node10</title>
<g id="a_edge9_Node000001_Node000010"><a xlink:title=" ">
<path fill="none" stroke="#63b8ff" d="M87.91,-145.45C107.23,-140.48 129.32,-134.81 147.54,-130.12"/>
<polygon fill="#63b8ff" stroke="#63b8ff" points="86.9,-142.09 78.08,-147.97 88.64,-148.87 86.9,-142.09"/>
</a>
</g>
</g>
<!-- Node11 -->
<g id="Node000011" class="node">
<title>Node11</title>
<g id="a_Node000011"><a xlink:href="class_set_headers_element.html" target="_top" xlink:title="Set response headers element class.">
<polygon fill="white" stroke="#666666" points="242.5,-93 129.5,-93 129.5,-74 242.5,-74 242.5,-93"/>
<text text-anchor="middle" x="186" y="-81" font-family="Helvetica,sans-Serif" font-size="10.00">SetHeadersElement</text>
</a>
</g>
</g>
<!-- Node1&#45;&gt;Node11 -->
<g id="edge10_Node000001_Node000011" class="edge">
<title>Node1&#45;&gt;Node11</title>
<g id="a_edge10_Node000001_Node000011"><a xlink:title=" ">
<path fill="none" stroke="#63b8ff" d="M59.05,-141.31C73.53,-129.09 94.86,-112.73 116,-102.5 123.83,-98.71 132.54,-95.57 141.05,-93.01"/>
<polygon fill="#63b8ff" stroke="#63b8ff" points="56.65,-138.77 51.37,-147.95 61.23,-144.06 56.65,-138.77"/>
</a>
</g>
</g>
<!-- Node12 -->
<g id="Node000012" class="node">
<title>Node12</title>
<g id="a_Node000012"><a xlink:href="class_stop.html" target="_top" xlink:title=" ">
<polygon fill="white" stroke="#bfbfbf" points="205,-56 167,-56 167,-37 205,-37 205,-56"/>
<text text-anchor="middle" x="186" y="-44" font-family="Helvetica,sans-Serif" font-size="10.00">Stop</text>
</a>
</g>
</g>
<!-- Node1&#45;&gt;Node12 -->
<g id="edge11_Node000001_Node000012" class="edge">
<title>Node1&#45;&gt;Node12</title>
<g id="a_edge11_Node000001_Node000012"><a xlink:title=" ">
<path fill="none" stroke="#63b8ff" d="M51.33,-138.87C63.91,-117.91 87.09,-84.35 116,-65.5 131.4,-55.46 152.06,-50.68 166.74,-48.43"/>
<polygon fill="#63b8ff" stroke="#63b8ff" points="48.16,-137.36 46.17,-147.77 54.22,-140.87 48.16,-137.36"/>
</a>
</g>
</g>
<!-- Node13 -->
<g id="Node000013" class="node">
<title>Node13</title>
<g id="a_Node000013"><a xlink:href="class_sync.html" target="_top" xlink:title=" ">
<polygon fill="white" stroke="#bfbfbf" points="206,-19 166,-19 166,0 206,0 206,-19"/>
<text text-anchor="middle" x="186" y="-7" font-family="Helvetica,sans-Serif" font-size="10.00">Sync</text>
</a>
</g>
</g>
<!-- Node1&#45;&gt;Node13 -->
<g id="edge12_Node000001_Node000013" class="edge">
<title>Node1&#45;&gt;Node13</title>
<g id="a_edge12_Node000001_Node000013"><a xlink:title=" ">
<path fill="none" stroke="#63b8ff" d="M46.76,-138.29C56.34,-109.7 78.33,-56.22 116,-27.5 130.47,-16.47 151.08,-12.17 166,-10.51"/>
<polygon fill="#63b8ff" stroke="#63b8ff" points="43.39,-137.34 43.69,-147.93 50.06,-139.47 43.39,-137.34"/>
</a>
</g>
</g>
<!-- Node4 -->
<g id="Node000004" class="node">
<title>Node4</title>
<g id="a_Node000004"><a xlink:href="class_cloud_engine.html" target="_top" xlink:title="This is a template for all 51Degrees cloud engines.">
<polygon fill="white" stroke="#666666" points="389,-315 312,-315 312,-296 389,-296 389,-315"/>
<text text-anchor="middle" x="350.5" y="-303" font-family="Helvetica,sans-Serif" font-size="10.00">CloudEngine</text>
</a>
</g>
</g>
<!-- Node3&#45;&gt;Node4 -->
<g id="edge3_Node000003_Node000004" class="edge">
<title>Node3&#45;&gt;Node4</title>
<g id="a_edge3_Node000003_Node000004"><a xlink:title=" ">
<path fill="none" stroke="#63b8ff" d="M221.29,-276.31C247.77,-282.34 284.39,-290.67 311.71,-296.9"/>
<polygon fill="#63b8ff" stroke="#63b8ff" points="221.86,-272.85 211.33,-274.04 220.3,-279.67 221.86,-272.85"/>
</a>
</g>
</g>
<!-- Node5 -->
<g id="Node000005" class="node">
<title>Node5</title>
<g id="a_Node000005"><a xlink:href="class_cloud_request_engine.html" target="_top" xlink:title=" ">
<polygon fill="white" stroke="#bfbfbf" points="409,-278 292,-278 292,-259 409,-259 409,-278"/>
<text text-anchor="middle" x="350.5" y="-266" font-family="Helvetica,sans-Serif" font-size="10.00">CloudRequestEngine</text>
</a>
</g>
</g>
<!-- Node3&#45;&gt;Node5 -->
<g id="edge4_Node000003_Node000005" class="edge">
<title>Node3&#45;&gt;Node5</title>
<g id="a_edge4_Node000003_Node000005"><a xlink:title=" ">
<path fill="none" stroke="#63b8ff" d="M221.43,-268.5C241.9,-268.5 268.37,-268.5 291.94,-268.5"/>
<polygon fill="#63b8ff" stroke="#63b8ff" points="221.33,-265 211.33,-268.5 221.33,-272 221.33,-265"/>
</a>
</g>
</g>
<!-- Node6 -->
<g id="Node000006" class="node">
<title>Node6</title>
<g id="a_Node000006"><a xlink:href="class_share_usage.html" target="_top" xlink:title="The ShareUsage element sends usage data to 51Degrees in zipped batches.">
<polygon fill="white" stroke="#666666" points="388,-241 313,-241 313,-222 388,-222 388,-241"/>
<text text-anchor="middle" x="350.5" y="-229" font-family="Helvetica,sans-Serif" font-size="10.00">ShareUsage</text>
</a>
</g>
</g>
<!-- Node3&#45;&gt;Node6 -->
<g id="edge5_Node000003_Node000006" class="edge">
<title>Node3&#45;&gt;Node6</title>
<g id="a_edge5_Node000003_Node000006"><a xlink:title=" ">
<path fill="none" stroke="#63b8ff" d="M221.43,-260.66C248.3,-254.54 285.55,-246.06 312.94,-239.82"/>
<polygon fill="#63b8ff" stroke="#63b8ff" points="220.3,-257.33 211.33,-262.96 221.86,-264.15 220.3,-257.33"/>
</a>
</g>
</g>
</g>
</svg>
