<?xml version="1.0" encoding="UTF-8" standalone="no"?>
<!DOCTYPE svg PUBLIC "-//W3C//DTD SVG 1.1//EN"
 "http://www.w3.org/Graphics/SVG/1.1/DTD/svg11.dtd">
<!-- Generated by graphviz version 2.43.0 (0)
 -->
<!-- Title: DataKeyedCache Pages: 1 -->
<svg width="172pt" height="137pt"
 viewBox="0.00 0.00 171.50 137.00" xmlns="http://www.w3.org/2000/svg" xmlns:xlink="http://www.w3.org/1999/xlink">
<g id="graph0" class="graph" transform="scale(1 1) rotate(0) translate(4 133)">
<title>DataKeyedCache</title>
<!-- Node1 -->
<g id="Node000001" class="node">
<title>Node1</title>
<g id="a_Node000001"><a xlink:title="A simple cache getter that takes a cache key and returns an element if it is found in the cache.">
<polygon fill="#999999" stroke="#666666" points="120.5,-129 20.5,-129 20.5,-110 120.5,-110 120.5,-129"/>
<text text-anchor="middle" x="70.5" y="-117" font-family="Helvetica,sans-Serif" font-size="10.00">DataKeyedCache</text>
</a>
</g>
</g>
<!-- Node2 -->
<g id="Node000002" class="node">
<title>Node2</title>
<g id="a_Node000002"><a xlink:href="class_l_r_ucache.html" target="_top" xlink:title="An instance of DataKeyed cache using a least recently used (LRU) method.">
<polygon fill="white" stroke="#666666" points="65,-74 0,-74 0,-55 65,-55 65,-74"/>
<text text-anchor="middle" x="32.5" y="-62" font-family="Helvetica,sans-Serif" font-size="10.00">LRUcache</text>
</a>
</g>
</g>
<!-- Node1&#45;&gt;Node2 -->
<g id="edge1_Node000001_Node000002" class="edge">
<title>Node1&#45;&gt;Node2</title>
<g id="a_edge1_Node000001_Node000002"><a xlink:title=" ">
<path fill="none" stroke="#63b8ff" d="M58.23,-101.39C51.69,-92.27 43.93,-81.45 38.66,-74.09"/>
<polygon fill="#63b8ff" stroke="#63b8ff" points="55.55,-103.66 64.23,-109.75 61.24,-99.58 55.55,-103.66"/>
</a>
</g>
</g>
<!-- Node3 -->
<g id="Node000003" class="node">
<title>Node3</title>
<g id="a_Node000003"><a xlink:href="class_tracker.html" target="_top" xlink:title="A tracker is an instance of datakeyed cache which, if a result is found in the cache,...">
<polygon fill="white" stroke="#666666" points="134,-74 83,-74 83,-55 134,-55 134,-74"/>
<text text-anchor="middle" x="108.5" y="-62" font-family="Helvetica,sans-Serif" font-size="10.00">Tracker</text>
</a>
</g>
</g>
<!-- Node1&#45;&gt;Node3 -->
<g id="edge2_Node000001_Node000003" class="edge">
<title>Node1&#45;&gt;Node3</title>
<g id="a_edge2_Node000001_Node000003"><a xlink:title=" ">
<path fill="none" stroke="#63b8ff" d="M82.77,-101.39C89.31,-92.27 97.07,-81.45 102.34,-74.09"/>
<polygon fill="#63b8ff" stroke="#63b8ff" points="79.76,-99.58 76.77,-109.75 85.45,-103.66 79.76,-99.58"/>
</a>
</g>
</g>
<!-- Node4 -->
<g id="Node000004" class="node">
<title>Node4</title>
<g id="a_Node000004"><a xlink:href="class_share_usage_tracker.html" target="_top" xlink:title="The ShareUsageTracker is used by the ShareUsageElement to determine whether to put evidence into a bu...">
<polygon fill="white" stroke="#666666" points="163.5,-19 53.5,-19 53.5,0 163.5,0 163.5,-19"/>
<text text-anchor="middle" x="108.5" y="-7" font-family="Helvetica,sans-Serif" font-size="10.00">ShareUsageTracker</text>
</a>
</g>
</g>
<!-- Node3&#45;&gt;Node4 -->
<g id="edge3_Node000003_Node000004" class="edge">
<title>Node3&#45;&gt;Node4</title>
<g id="a_edge3_Node000003_Node000004"><a xlink:title=" ">
<path fill="none" stroke="#63b8ff" d="M108.5,-44.66C108.5,-35.93 108.5,-25.99 108.5,-19.09"/>
<polygon fill="#63b8ff" stroke="#63b8ff" points="105,-44.75 108.5,-54.75 112,-44.75 105,-44.75"/>
</a>
</g>
</g>
</g>
</svg>
