<?xml version="1.0" encoding="UTF-8" standalone="no"?>
<!DOCTYPE svg PUBLIC "-//W3C//DTD SVG 1.1//EN"
 "http://www.w3.org/Graphics/SVG/1.1/DTD/svg11.dtd">
<!-- Generated by graphviz version 2.43.0 (0)
 -->
<!-- Title: ConfigDeviceDetectionSwig Pages: 1 -->
<svg width="160pt" height="82pt"
 viewBox="0.00 0.00 160.00 82.00" xmlns="http://www.w3.org/2000/svg" xmlns:xlink="http://www.w3.org/1999/xlink">
<g id="graph0" class="graph" transform="scale(1 1) rotate(0) translate(4 78)">
<title>ConfigDeviceDetectionSwig</title>
<!-- Node1 -->
<g id="Node000001" class="node">
<title>Node1</title>
<g id="a_Node000001"><a xlink:title=" ">
<polygon fill="#999999" stroke="#666666" points="152,-19 0,-19 0,0 152,0 152,-19"/>
<text text-anchor="middle" x="76" y="-7" font-family="Helvetica,sans-Serif" font-size="10.00">ConfigDeviceDetectionSwig</text>
</a>
</g>
</g>
<!-- Node2 -->
<g id="Node000002" class="node">
<title>Node2</title>
<g id="a_Node000002"><a xlink:href="class_config_base_swig.html" target="_top" xlink:title=" ">
<polygon fill="white" stroke="#bfbfbf" points="123.5,-74 28.5,-74 28.5,-55 123.5,-55 123.5,-74"/>
<text text-anchor="middle" x="76" y="-62" font-family="Helvetica,sans-Serif" font-size="10.00">ConfigBaseSwig</text>
</a>
</g>
</g>
<!-- Node2&#45;&gt;Node1 -->
<g id="edge1_Node000001_Node000002" class="edge">
<title>Node2&#45;&gt;Node1</title>
<g id="a_edge1_Node000001_Node000002"><a xlink:title=" ">
<path fill="none" stroke="#63b8ff" d="M56.65,-45.24C54.66,-36.37 55.98,-26.14 60.61,-19.09"/>
<polygon fill="#63b8ff" stroke="#63b8ff" points="53.5,-46.8 60.5,-54.75 59.99,-44.17 53.5,-46.8"/>
</a>
</g>
</g>
<!-- Node2&#45;&gt;Node1 -->
<g id="edge2_Node000001_Node000002" class="edge">
<title>Node2&#45;&gt;Node1</title>
<g id="a_edge2_Node000001_Node000002"><a xlink:title=" ">
<path fill="none" stroke="#63b8ff" d="M69.51,-44.66C68.91,-35.93 69.36,-25.99 70.87,-19.09"/>
<polygon fill="#63b8ff" stroke="#63b8ff" points="66.06,-45.29 70.83,-54.75 73,-44.38 66.06,-45.29"/>
</a>
</g>
</g>
<!-- Node2&#45;&gt;Node1 -->
<g id="edge3_Node000001_Node000002" class="edge">
<title>Node2&#45;&gt;Node1</title>
<g id="a_edge3_Node000001_Node000002"><a xlink:title=" ">
<path fill="none" stroke="#63b8ff" d="M82.49,-44.66C83.09,-35.93 82.64,-25.99 81.13,-19.09"/>
<polygon fill="#63b8ff" stroke="#63b8ff" points="79,-44.38 81.17,-54.75 85.94,-45.29 79,-44.38"/>
</a>
</g>
</g>
<!-- Node2&#45;&gt;Node1 -->
<g id="edge4_Node000001_Node000002" class="edge">
<title>Node2&#45;&gt;Node1</title>
<g id="a_edge4_Node000001_Node000002"><a xlink:title=" ">
<path fill="none" stroke="#63b8ff" d="M95.35,-45.24C97.34,-36.37 96.02,-26.14 91.39,-19.09"/>
<polygon fill="#63b8ff" stroke="#63b8ff" points="92.01,-44.17 91.5,-54.75 98.5,-46.8 92.01,-44.17"/>
</a>
</g>
</g>
</g>
</svg>
