<?xml version="1.0" encoding="UTF-8" standalone="no"?>
<!DOCTYPE svg PUBLIC "-//W3C//DTD SVG 1.1//EN"
 "http://www.w3.org/Graphics/SVG/1.1/DTD/svg11.dtd">
<!-- Generated by graphviz version 2.43.0 (0)
 -->
<!-- Title: ResultsBaseSwig Pages: 1 -->
<svg width="165pt" height="137pt"
 viewBox="0.00 0.00 165.00 137.00" xmlns="http://www.w3.org/2000/svg" xmlns:xlink="http://www.w3.org/1999/xlink">
<g id="graph0" class="graph" transform="scale(1 1) rotate(0) translate(4 133)">
<title>ResultsBaseSwig</title>
<!-- Node1 -->
<g id="Node000001" class="node">
<title>Node1</title>
<g id="a_Node000001"><a xlink:title=" ">
<polygon fill="#999999" stroke="#666666" points="128.5,-129 28.5,-129 28.5,-110 128.5,-110 128.5,-129"/>
<text text-anchor="middle" x="78.5" y="-117" font-family="Helvetica,sans-Serif" font-size="10.00">ResultsBaseSwig</text>
</a>
</g>
</g>
<!-- Node2 -->
<g id="Node000002" class="node">
<title>Node2</title>
<g id="a_Node000002"><a xlink:href="class_results_device_detection_swig.html" target="_top" xlink:title=" ">
<polygon fill="white" stroke="#bfbfbf" points="157,-74 0,-74 0,-55 157,-55 157,-74"/>
<text text-anchor="middle" x="78.5" y="-62" font-family="Helvetica,sans-Serif" font-size="10.00">ResultsDeviceDetectionSwig</text>
</a>
</g>
</g>
<!-- Node1&#45;&gt;Node2 -->
<g id="edge1_Node000001_Node000002" class="edge">
<title>Node1&#45;&gt;Node2</title>
<g id="a_edge1_Node000001_Node000002"><a xlink:title=" ">
<path fill="none" stroke="#63b8ff" d="M59.15,-100.24C57.16,-91.37 58.48,-81.14 63.11,-74.09"/>
<polygon fill="#63b8ff" stroke="#63b8ff" points="56,-101.8 63,-109.75 62.49,-99.17 56,-101.8"/>
</a>
</g>
</g>
<!-- Node1&#45;&gt;Node2 -->
<g id="edge6_Node000001_Node000002" class="edge">
<title>Node1&#45;&gt;Node2</title>
<g id="a_edge6_Node000001_Node000002"><a xlink:title=" ">
<path fill="none" stroke="#63b8ff" d="M72.01,-99.66C71.41,-90.93 71.86,-80.99 73.37,-74.09"/>
<polygon fill="#63b8ff" stroke="#63b8ff" points="68.56,-100.29 73.33,-109.75 75.5,-99.38 68.56,-100.29"/>
</a>
</g>
</g>
<!-- Node1&#45;&gt;Node2 -->
<g id="edge7_Node000001_Node000002" class="edge">
<title>Node1&#45;&gt;Node2</title>
<g id="a_edge7_Node000001_Node000002"><a xlink:title=" ">
<path fill="none" stroke="#63b8ff" d="M84.99,-99.66C85.59,-90.93 85.14,-80.99 83.63,-74.09"/>
<polygon fill="#63b8ff" stroke="#63b8ff" points="81.5,-99.38 83.67,-109.75 88.44,-100.29 81.5,-99.38"/>
</a>
</g>
</g>
<!-- Node1&#45;&gt;Node2 -->
<g id="edge8_Node000001_Node000002" class="edge">
<title>Node1&#45;&gt;Node2</title>
<g id="a_edge8_Node000001_Node000002"><a xlink:title=" ">
<path fill="none" stroke="#63b8ff" d="M97.85,-100.24C99.84,-91.37 98.52,-81.14 93.89,-74.09"/>
<polygon fill="#63b8ff" stroke="#63b8ff" points="94.51,-99.17 94,-109.75 101,-101.8 94.51,-99.17"/>
</a>
</g>
</g>
<!-- Node3 -->
<g id="Node000003" class="node">
<title>Node3</title>
<g id="a_Node000003"><a xlink:href="class_results_hash_swig.html" target="_top" xlink:title=" ">
<polygon fill="white" stroke="#bfbfbf" points="129,-19 28,-19 28,0 129,0 129,-19"/>
<text text-anchor="middle" x="78.5" y="-7" font-family="Helvetica,sans-Serif" font-size="10.00">ResultsHashSwig</text>
</a>
</g>
</g>
<!-- Node2&#45;&gt;Node3 -->
<g id="edge2_Node000002_Node000003" class="edge">
<title>Node2&#45;&gt;Node3</title>
<g id="a_edge2_Node000002_Node000003"><a xlink:title=" ">
<path fill="none" stroke="#63b8ff" d="M59.15,-45.24C57.16,-36.37 58.48,-26.14 63.11,-19.09"/>
<polygon fill="#63b8ff" stroke="#63b8ff" points="56,-46.8 63,-54.75 62.49,-44.17 56,-46.8"/>
</a>
</g>
</g>
<!-- Node2&#45;&gt;Node3 -->
<g id="edge3_Node000002_Node000003" class="edge">
<title>Node2&#45;&gt;Node3</title>
<g id="a_edge3_Node000002_Node000003"><a xlink:title=" ">
<path fill="none" stroke="#63b8ff" d="M72.01,-44.66C71.41,-35.93 71.86,-25.99 73.37,-19.09"/>
<polygon fill="#63b8ff" stroke="#63b8ff" points="68.56,-45.29 73.33,-54.75 75.5,-44.38 68.56,-45.29"/>
</a>
</g>
</g>
<!-- Node2&#45;&gt;Node3 -->
<g id="edge4_Node000002_Node000003" class="edge">
<title>Node2&#45;&gt;Node3</title>
<g id="a_edge4_Node000002_Node000003"><a xlink:title=" ">
<path fill="none" stroke="#63b8ff" d="M84.99,-44.66C85.59,-35.93 85.14,-25.99 83.63,-19.09"/>
<polygon fill="#63b8ff" stroke="#63b8ff" points="81.5,-44.38 83.67,-54.75 88.44,-45.29 81.5,-44.38"/>
</a>
</g>
</g>
<!-- Node2&#45;&gt;Node3 -->
<g id="edge5_Node000002_Node000003" class="edge">
<title>Node2&#45;&gt;Node3</title>
<g id="a_edge5_Node000002_Node000003"><a xlink:title=" ">
<path fill="none" stroke="#63b8ff" d="M97.85,-45.24C99.84,-36.37 98.52,-26.14 93.89,-19.09"/>
<polygon fill="#63b8ff" stroke="#63b8ff" points="94.51,-44.17 94,-54.75 101,-46.8 94.51,-44.17"/>
</a>
</g>
</g>
</g>
</svg>
