<?xml version="1.0" encoding="UTF-8" standalone="no"?>
<!DOCTYPE svg PUBLIC "-//W3C//DTD SVG 1.1//EN"
 "http://www.w3.org/Graphics/SVG/1.1/DTD/svg11.dtd">
<!-- Generated by graphviz version 2.43.0 (0)
 -->
<!-- Title: fiftyone\pipeline\devicedetection\DeviceDetectionOnPremise Pages: 1 -->
<svg width="234pt" height="222pt"
 viewBox="0.00 0.00 234.00 222.00" xmlns="http://www.w3.org/2000/svg" xmlns:xlink="http://www.w3.org/1999/xlink">
<g id="graph0" class="graph" transform="scale(1 1) rotate(0) translate(4 218)">
<title>fiftyone\pipeline\devicedetection\DeviceDetectionOnPremise</title>
<!-- Node1 -->
<g id="Node000001" class="node">
<title>Node1</title>
<g id="a_Node000001"><a xlink:title=" ">
<polygon fill="#999999" stroke="#666666" points="176,-30 0,-30 0,0 176,0 176,-30"/>
<text text-anchor="start" x="8" y="-18" font-family="Helvetica,sans-Serif" font-size="10.00">fiftyone\pipeline\devicedetection</text>
<text text-anchor="middle" x="88" y="-7" font-family="Helvetica,sans-Serif" font-size="10.00">\DeviceDetectionOnPremise</text>
</a>
</g>
</g>
<!-- Node2 -->
<g id="Node000002" class="node">
<title>Node2</title>
<g id="a_Node000002"><a xlink:title=" ">
<polygon fill="white" stroke="#bfbfbf" points="82,-102 32,-102 32,-83 82,-83 82,-102"/>
<text text-anchor="middle" x="57" y="-90" font-family="Helvetica,sans-Serif" font-size="10.00">Engine</text>
</a>
</g>
</g>
<!-- Node2&#45;&gt;Node1 -->
<g id="edge1_Node000001_Node000002" class="edge">
<title>Node2&#45;&gt;Node1</title>
<g id="a_edge1_Node000001_Node000002"><a xlink:title=" ">
<path fill="none" stroke="#63b8ff" d="M64.45,-73.37C69.88,-60.13 77.15,-42.43 82.17,-30.21"/>
<polygon fill="#63b8ff" stroke="#63b8ff" points="61.12,-72.26 60.56,-82.84 67.59,-74.92 61.12,-72.26"/>
</a>
</g>
</g>
<!-- Node3 -->
<g id="Node000003" class="node">
<title>Node3</title>
<g id="a_Node000003"><a xlink:href="class_engine_hash_swig.html" target="_top" xlink:title=" ">
<polygon fill="white" stroke="#bfbfbf" points="198,-102 100,-102 100,-83 198,-83 198,-102"/>
<text text-anchor="middle" x="149" y="-90" font-family="Helvetica,sans-Serif" font-size="10.00">EngineHashSwig</text>
</a>
</g>
</g>
<!-- Node3&#45;&gt;Node1 -->
<g id="edge2_Node000001_Node000003" class="edge">
<title>Node3&#45;&gt;Node1</title>
<g id="a_edge2_Node000001_Node000003"><a xlink:title=" ">
<path fill="none" stroke="#9a32cd" stroke-dasharray="5,2" d="M135.6,-74.92C124.79,-61.54 109.74,-42.91 99.48,-30.21"/>
<polygon fill="#9a32cd" stroke="#9a32cd" points="133,-77.26 142,-82.84 138.44,-72.86 133,-77.26"/>
</a>
</g>
<text text-anchor="start" x="130" y="-53.5" font-family="Helvetica,sans-Serif" font-size="10.00" fill="grey">$engine</text>
</g>
<!-- Node4 -->
<g id="Node000004" class="node">
<title>Node4</title>
<g id="a_Node000004"><a xlink:href="class_engine_device_detection_swig.html" target="_top" xlink:title=" ">
<polygon fill="white" stroke="#bfbfbf" points="226,-158 72,-158 72,-139 226,-139 226,-158"/>
<text text-anchor="middle" x="149" y="-146" font-family="Helvetica,sans-Serif" font-size="10.00">EngineDeviceDetectionSwig</text>
</a>
</g>
</g>
<!-- Node4&#45;&gt;Node3 -->
<g id="edge3_Node000003_Node000004" class="edge">
<title>Node4&#45;&gt;Node3</title>
<g id="a_edge3_Node000003_Node000004"><a xlink:title=" ">
<path fill="none" stroke="#63b8ff" d="M142.53,-128.6C141.9,-119.64 142.34,-109.36 143.87,-102.25"/>
<polygon fill="#63b8ff" stroke="#63b8ff" points="139.07,-129.12 143.83,-138.58 146.01,-128.21 139.07,-129.12"/>
</a>
</g>
</g>
<!-- Node4&#45;&gt;Node3 -->
<g id="edge6_Node000003_Node000004" class="edge">
<title>Node4&#45;&gt;Node3</title>
<g id="a_edge6_Node000003_Node000004"><a xlink:title=" ">
<path fill="none" stroke="#63b8ff" d="M155.47,-128.6C156.1,-119.64 155.66,-109.36 154.13,-102.25"/>
<polygon fill="#63b8ff" stroke="#63b8ff" points="151.99,-128.21 154.17,-138.58 158.93,-129.12 151.99,-128.21"/>
</a>
</g>
</g>
<!-- Node5 -->
<g id="Node000005" class="node">
<title>Node5</title>
<g id="a_Node000005"><a xlink:href="class_engine_base_swig.html" target="_top" xlink:title=" ">
<polygon fill="white" stroke="#bfbfbf" points="197.5,-214 100.5,-214 100.5,-195 197.5,-195 197.5,-214"/>
<text text-anchor="middle" x="149" y="-202" font-family="Helvetica,sans-Serif" font-size="10.00">EngineBaseSwig</text>
</a>
</g>
</g>
<!-- Node5&#45;&gt;Node4 -->
<g id="edge4_Node000004_Node000005" class="edge">
<title>Node5&#45;&gt;Node4</title>
<g id="a_edge4_Node000004_Node000005"><a xlink:title=" ">
<path fill="none" stroke="#63b8ff" d="M142.53,-184.6C141.9,-175.64 142.34,-165.36 143.87,-158.25"/>
<polygon fill="#63b8ff" stroke="#63b8ff" points="139.07,-185.12 143.83,-194.58 146.01,-184.21 139.07,-185.12"/>
</a>
</g>
</g>
<!-- Node5&#45;&gt;Node4 -->
<g id="edge5_Node000004_Node000005" class="edge">
<title>Node5&#45;&gt;Node4</title>
<g id="a_edge5_Node000004_Node000005"><a xlink:title=" ">
<path fill="none" stroke="#63b8ff" d="M155.47,-184.6C156.1,-175.64 155.66,-165.36 154.13,-158.25"/>
<polygon fill="#63b8ff" stroke="#63b8ff" points="151.99,-184.21 154.17,-194.58 158.93,-185.12 151.99,-184.21"/>
</a>
</g>
</g>
</g>
</svg>
