<?xml version="1.0" encoding="UTF-8" standalone="no"?>
<!DOCTYPE svg PUBLIC "-//W3C//DTD SVG 1.1//EN"
 "http://www.w3.org/Graphics/SVG/1.1/DTD/svg11.dtd">
<!-- Generated by graphviz version 2.43.0 (0)
 -->
<!-- Title: ConfigBaseSwig Pages: 1 -->
<svg width="160pt" height="137pt"
 viewBox="0.00 0.00 160.00 137.00" xmlns="http://www.w3.org/2000/svg" xmlns:xlink="http://www.w3.org/1999/xlink">
<g id="graph0" class="graph" transform="scale(1 1) rotate(0) translate(4 133)">
<title>ConfigBaseSwig</title>
<!-- Node1 -->
<g id="Node000001" class="node">
<title>Node1</title>
<g id="a_Node000001"><a xlink:title=" ">
<polygon fill="#999999" stroke="#666666" points="123.5,-129 28.5,-129 28.5,-110 123.5,-110 123.5,-129"/>
<text text-anchor="middle" x="76" y="-117" font-family="Helvetica,sans-Serif" font-size="10.00">ConfigBaseSwig</text>
</a>
</g>
</g>
<!-- Node2 -->
<g id="Node000002" class="node">
<title>Node2</title>
<g id="a_Node000002"><a xlink:href="class_config_device_detection_swig.html" target="_top" xlink:title=" ">
<polygon fill="white" stroke="#bfbfbf" points="152,-74 0,-74 0,-55 152,-55 152,-74"/>
<text text-anchor="middle" x="76" y="-62" font-family="Helvetica,sans-Serif" font-size="10.00">ConfigDeviceDetectionSwig</text>
</a>
</g>
</g>
<!-- Node1&#45;&gt;Node2 -->
<g id="edge1_Node000001_Node000002" class="edge">
<title>Node1&#45;&gt;Node2</title>
<g id="a_edge1_Node000001_Node000002"><a xlink:title=" ">
<path fill="none" stroke="#63b8ff" d="M69.51,-99.66C68.91,-90.93 69.36,-80.99 70.87,-74.09"/>
<polygon fill="#63b8ff" stroke="#63b8ff" points="66.06,-100.29 70.83,-109.75 73,-99.38 66.06,-100.29"/>
</a>
</g>
</g>
<!-- Node1&#45;&gt;Node2 -->
<g id="edge4_Node000001_Node000002" class="edge">
<title>Node1&#45;&gt;Node2</title>
<g id="a_edge4_Node000001_Node000002"><a xlink:title=" ">
<path fill="none" stroke="#63b8ff" d="M82.49,-99.66C83.09,-90.93 82.64,-80.99 81.13,-74.09"/>
<polygon fill="#63b8ff" stroke="#63b8ff" points="79,-99.38 81.17,-109.75 85.94,-100.29 79,-99.38"/>
</a>
</g>
</g>
<!-- Node3 -->
<g id="Node000003" class="node">
<title>Node3</title>
<g id="a_Node000003"><a xlink:href="class_config_hash_swig.html" target="_top" xlink:title=" ">
<polygon fill="white" stroke="#bfbfbf" points="123.5,-19 28.5,-19 28.5,0 123.5,0 123.5,-19"/>
<text text-anchor="middle" x="76" y="-7" font-family="Helvetica,sans-Serif" font-size="10.00">ConfigHashSwig</text>
</a>
</g>
</g>
<!-- Node2&#45;&gt;Node3 -->
<g id="edge2_Node000002_Node000003" class="edge">
<title>Node2&#45;&gt;Node3</title>
<g id="a_edge2_Node000002_Node000003"><a xlink:title=" ">
<path fill="none" stroke="#63b8ff" d="M69.51,-44.66C68.91,-35.93 69.36,-25.99 70.87,-19.09"/>
<polygon fill="#63b8ff" stroke="#63b8ff" points="66.06,-45.29 70.83,-54.75 73,-44.38 66.06,-45.29"/>
</a>
</g>
</g>
<!-- Node2&#45;&gt;Node3 -->
<g id="edge3_Node000002_Node000003" class="edge">
<title>Node2&#45;&gt;Node3</title>
<g id="a_edge3_Node000002_Node000003"><a xlink:title=" ">
<path fill="none" stroke="#63b8ff" d="M82.49,-44.66C83.09,-35.93 82.64,-25.99 81.13,-19.09"/>
<polygon fill="#63b8ff" stroke="#63b8ff" points="79,-44.38 81.17,-54.75 85.94,-45.29 79,-44.38"/>
</a>
</g>
</g>
</g>
</svg>
