<?xml version="1.0" encoding="utf-8"?>
<svg xmlns:xlink="http://www.w3.org/1999/xlink" viewBox="0 0 127.11253356933594 57.68479919433594" version="1.1" style="font-synthesis: none;" xmlns="http://www.w3.org/2000/svg">
  <style></style>
  <defs />
  <style>	</style>
  <path d="M 0 0 L 127.11253356933594 0 L 127.11253356933594 57.68479919433594 L 0 57.68479919433594 Z " stroke="none" fill-rule="nonzero" fill="#FFFFFF" fill-opacity="0" transform="matrix(1,0,0,1,0,0)" />
  <path d="M 0 -45.68479919433594 L 127.11253356933594 -45.68479919433594 L 127.11253356933594 0 L 0 0 Z " stroke="none" fill-rule="evenodd" fill="#000000" fill-opacity="0" transform="matrix(1,0,0,-1,0,0)" />
  <path d="M 14.186666488647461 12.973332405090332 C 14.186666488647461 13.029333114624023, 14.149333000183105 13.15999984741211, 13.981332778930664 13.15999984741211 C 13.925333023071289 13.15999984741211, 13.906665802001953 13.141332626342773, 13.701333045959473 12.935999870300293 L 12.39466667175293 11.498665809631348 C 12.226666450500488 11.75999927520752, 11.368000030517578 13.15999984741211, 9.295999526977539 13.15999984741211 C 5.133333206176758 13.15999984741211, 0.9333332777023315 9.034666061401367, 0.9333332777023315 4.703999996185303 C 0.9333332777023315 1.6239999532699585, 3.135999917984009 -0.41066664457321167, 5.991999626159668 -0.41066664457321167 C 7.615999698638916 -0.41066664457321167, 9.034666061401367 0.335999995470047, 10.023999214172363 1.1946666240692139 C 11.75999927520752 2.7253332138061523, 12.077332496643066 4.423999786376953, 12.077332496643066 4.480000019073486 C 12.077332496643066 4.666666507720947, 11.85333251953125 4.666666507720947, 11.85333251953125 4.666666507720947 C 11.7413330078125 4.666666507720947, 11.64799976348877 4.629333019256592, 11.610666275024414 4.480000019073486 C 11.442666053771973 3.938666582107544, 11.013333320617676 2.613333225250244, 9.725333213806152 1.5306665897369385 C 8.437333106994629 0.48533332347869873, 7.261332988739014 0.1679999977350235, 6.290666580200195 0.1679999977350235 C 4.610666275024414 0.1679999977350235, 2.631999969482422 1.1386666297912598, 2.631999969482422 4.050666332244873 C 2.631999969482422 5.11466646194458, 3.0239999294281006 8.138666152954102, 4.890666484832764 10.32266616821289 C 6.029333114624023 11.64799976348877, 7.783999919891357 12.58133316040039, 9.445332527160645 12.58133316040039 C 11.349332809448242 12.58133316040039, 12.450666427612305 11.144000053405762, 12.450666427612305 8.978666305541992 C 12.450666427612305 8.231999397277832, 12.39466667175293 8.213333129882812, 12.39466667175293 8.026666641235352 C 12.39466667175293 7.839999675750732, 12.59999942779541 7.839999675750732, 12.674666404724121 7.839999675750732 C 12.917332649230957 7.839999675750732, 12.917332649230957 7.877333164215088, 13.010665893554688 8.213333129882812 Z " stroke="none" fill-rule="nonzero" fill="#000000" fill-opacity="1" transform="matrix(1,0,0,-1,0,25.38666534423828)" />
  <path d="M 6.402667045593262 3.684800148010254 C 6.402667045593262 4.913066864013672, 5.657866954803467 5.7754669189453125, 4.66480016708374 5.7754669189453125 C 4.011466979980469 5.7754669189453125, 3.3842668533325195 5.30506706237793, 2.953066825866699 4.795466899871826 C 2.8224000930786133 5.5010666847229, 2.260533332824707 5.7754669189453125, 1.777066707611084 5.7754669189453125 C 1.1759999990463257 5.7754669189453125, 0.9277333617210388 5.265866756439209, 0.8101333379745483 5.030666828155518 C 0.5749333500862122 4.586400032043457, 0.40506666898727417 3.8024001121520996, 0.40506666898727417 3.763200044631958 C 0.40506666898727417 3.632533550262451, 0.5618667006492615 3.632533550262451, 0.5618667006492615 3.632533550262451 C 0.6925333738327026 3.632533550262451, 0.7056000232696533 3.6456000804901123, 0.784000039100647 3.9330668449401855 C 1.0061333179473877 4.860800266265869, 1.26746666431427 5.488000392913818, 1.737866759300232 5.488000392913818 C 1.9600000381469727 5.488000392913818, 2.1429333686828613 5.383466720581055, 2.1429333686828613 4.886933326721191 C 2.1429333686828613 4.586400032043457, 2.1037333011627197 4.442667007446289, 2.051466703414917 4.22053337097168 L 0.5879999995231628 -1.5941333770751953 C 0.4834666848182678 -2.038400173187256, 0.45733335614204407 -2.1298668384552, -0.11760000139474869 -2.1298668384552 C -0.274399995803833 -2.1298668384552, -0.41813334822654724 -2.1298668384552, -0.41813334822654724 -2.378133535385132 C -0.41813334822654724 -2.4826667308807373, -0.35280001163482666 -2.53493332862854, -0.24826668202877045 -2.53493332862854 C 0.10453333705663681 -2.53493332862854, 0.4834666848182678 -2.4957334995269775, 0.8493333458900452 -2.4957334995269775 C 1.2805334329605103 -2.4957334995269775, 1.7248001098632812 -2.53493332862854, 2.1429333686828613 -2.53493332862854 C 2.2082667350769043 -2.53493332862854, 2.378133535385132 -2.53493332862854, 2.378133535385132 -2.2736001014709473 C 2.378133535385132 -2.1298668384552, 2.247466802597046 -2.1298668384552, 2.0645334720611572 -2.1298668384552 C 1.4112000465393066 -2.1298668384552, 1.4112000465393066 -2.038400173187256, 1.4112000465393066 -1.9208000898361206 C 1.4112000465393066 -1.7640000581741333, 1.9600000381469727 0.36586669087409973, 2.051466703414917 0.6925333738327026 C 2.2213335037231445 0.31360000371932983, 2.587200164794922 -0.14373333752155304, 3.2536001205444336 -0.14373333752155304 C 4.769333362579346 -0.14373333752155304, 6.402667045593262 1.7640000581741333, 6.402667045593262 3.684800148010254 Z M 5.461866855621338 4.2597336769104 C 5.461866855621338 3.488800048828125, 5.030666828155518 1.9861334562301636, 4.795466899871826 1.4896000623703003 C 4.351200103759766 0.5749333500862122, 3.7240002155303955 0.14373333752155304, 3.2405333518981934 0.14373333752155304 C 2.378133535385132 0.14373333752155304, 2.2082667350769043 1.228266716003418, 2.2082667350769043 1.3066667318344116 C 2.2082667350769043 1.3066667318344116, 2.2082667350769043 1.3589333295822144, 2.247466802597046 1.5157333612442017 L 2.8877334594726562 4.076800346374512 C 2.9792001247406006 4.429600238800049, 3.3320000171661377 4.795466899871826, 3.567200183868408 4.991466999053955 C 4.024533271789551 5.396533489227295, 4.403466701507568 5.488000392913818, 4.625600337982178 5.488000392913818 C 5.148266792297363 5.488000392913818, 5.461866855621338 5.030666828155518, 5.461866855621338 4.2597336769104 Z " stroke="none" fill-rule="nonzero" fill="#000000" fill-opacity="1" transform="matrix(1,0,0,-1,13.34666633605957,29.997331619262695)" />
  <path d="M 13.477333068847656 6.477333068847656 C 13.477333068847656 6.682666301727295, 13.309332847595215 6.850666522979736, 13.103999137878418 6.850666522979736 L 1.4186666011810303 6.850666522979736 C 1.213333249092102 6.850666522979736, 1.0453332662582397 6.682666301727295, 1.0453332662582397 6.477333068847656 C 1.0453332662582397 6.271999835968018, 1.213333249092102 6.103999614715576, 1.4186666011810303 6.103999614715576 L 13.103999137878418 6.103999614715576 C 13.309332847595215 6.103999614715576, 13.477333068847656 6.271999835968018, 13.477333068847656 6.477333068847656 Z M 13.477333068847656 2.8559999465942383 C 13.477333068847656 3.061333179473877, 13.309332847595215 3.2293331623077393, 13.103999137878418 3.2293331623077393 L 1.4186666011810303 3.2293331623077393 C 1.213333249092102 3.2293331623077393, 1.0453332662582397 3.061333179473877, 1.0453332662582397 2.8559999465942383 C 1.0453332662582397 2.6506664752960205, 1.213333249092102 2.482666492462158, 1.4186666011810303 2.482666492462158 L 13.103999137878418 2.482666492462158 C 13.309332847595215 2.482666492462158, 13.477333068847656 2.6506664752960205, 13.477333068847656 2.8559999465942383 Z " stroke="none" fill-rule="nonzero" fill="#000000" fill-opacity="1" transform="matrix(1,0,0,-1,24.853422164916992,25.38666534423828)" />
  <path d="M 3.7109334468841553 8.166666984558105 C 3.7109334468841553 8.428000450134277, 3.5280001163482666 8.637066841125488, 3.2274668216705322 8.637066841125488 C 2.874666690826416 8.637066841125488, 2.521866798400879 8.297333717346191, 2.521866798400879 7.944533824920654 C 2.521866798400879 7.696267127990723, 2.7048001289367676 7.474133491516113, 3.018400192260742 7.474133491516113 C 3.3189334869384766 7.474133491516113, 3.7109334468841553 7.774666786193848, 3.7109334468841553 8.166666984558105 Z M 3.828533411026001 1.8685333728790283 C 3.828533411026001 1.9992001056671143, 3.7109334468841553 1.9992001056671143, 3.6717333793640137 1.9992001056671143 C 3.541066884994507 1.9992001056671143, 3.541066884994507 1.9600000381469727, 3.475733518600464 1.7640000581741333 C 3.2405333518981934 0.9408000111579895, 2.809333324432373 0.14373333752155304, 2.1429333686828613 0.14373333752155304 C 1.9208000898361206 0.14373333752155304, 1.8293334245681763 0.274399995803833, 1.8293334245681763 0.5749333500862122 C 1.8293334245681763 0.9016000032424927, 1.90773344039917 1.0845333337783813, 2.2082667350769043 1.881600022315979 L 2.7178666591644287 3.2536001205444336 C 2.874666690826416 3.632533550262451, 2.874666690826416 3.6586668491363525, 3.005333423614502 4.011466979980469 C 3.1098668575286865 4.272799968719482, 3.1752002239227295 4.455733299255371, 3.1752002239227295 4.703999996185303 C 3.1752002239227295 5.2920002937316895, 2.7570667266845703 5.7754669189453125, 2.1037333011627197 5.7754669189453125 C 0.8754667043685913 5.7754669189453125, 0.3789333403110504 3.880800247192383, 0.3789333403110504 3.763200044631958 C 0.3789333403110504 3.632533550262451, 0.5357333421707153 3.632533550262451, 0.5357333421707153 3.632533550262451 C 0.6664000153541565 3.632533550262451, 0.6794666647911072 3.6586668491363525, 0.7448000311851501 3.8677334785461426 C 1.097599983215332 5.0960001945495605, 1.6202666759490967 5.488000392913818, 2.0645334720611572 5.488000392913818 C 2.1690666675567627 5.488000392913818, 2.391200065612793 5.488000392913818, 2.391200065612793 5.06986665725708 C 2.391200065612793 4.795466899871826, 2.2997334003448486 4.521066665649414, 2.247466802597046 4.390399932861328 C 2.1429333686828613 4.050666809082031, 1.5549334287643433 2.53493332862854, 1.3458666801452637 1.9730666875839233 C 1.2152000665664673 1.633333444595337, 1.0453333854675293 1.2021334171295166, 1.0453333854675293 0.9277333617210388 C 1.0453333854675293 0.31360000371932983, 1.4896000623703003 -0.14373333752155304, 2.11680006980896 -0.14373333752155304 C 3.345066785812378 -0.14373333752155304, 3.828533411026001 1.7509334087371826, 3.828533411026001 1.8685333728790283 Z " stroke="none" fill-rule="nonzero" fill="#000000" fill-opacity="1" transform="matrix(1,0,0,-1,54.488311767578125,45.54106521606445)" />
  <path d="M 25.89066505432129 -2.426666498184204 L 25.423999786376953 -2.426666498184204 C 24.695999145507812 -4.368000030517578, 22.71733283996582 -5.637332916259766, 20.57066535949707 -6.197333335876465 C 20.178665161132812 -6.290666580200195, 18.349332809448242 -6.775999546051025, 14.76533317565918 -6.775999546051025 L 3.5093331336975098 -6.775999546051025 L 13.010665893554688 4.368000030517578 C 13.141332626342773 4.517333030700684, 13.178666114807129 4.573333263397217, 13.178666114807129 4.666666507720947 C 13.178666114807129 4.666666507720947, 13.178666114807129 4.759999752044678, 13.047999382019043 4.946666717529297 L 4.3493332862854 16.83733367919922 L 14.578665733337402 16.83733367919922 C 17.079999923706055 16.83733367919922, 18.77866554260254 16.576000213623047, 18.946666717529297 16.538665771484375 C 19.954666137695312 16.389331817626953, 21.57866668701172 16.071998596191406, 23.053333282470703 15.138666152954102 C 23.51999855041504 14.839999198913574, 24.78933334350586 13.999999046325684, 25.423999786376953 12.48799991607666 L 25.89066505432129 12.48799991607666 L 23.631999969482422 17.733333587646484 L 1.5679999589920044 17.733333587646484 C 1.1386666297912598 17.733333587646484, 1.1200000047683716 17.71466636657715, 1.0640000104904175 17.6026668548584 C 1.0453332662582397 17.54666519165039, 1.0453332662582397 17.191999435424805, 1.0453332662582397 16.986665725708008 L 10.920000076293945 3.4719998836517334 L 1.250666618347168 -7.85866641998291 C 1.0640000104904175 -8.082666397094727, 1.0640000104904175 -8.194665908813477, 1.0640000104904175 -8.194665908813477 C 1.0640000104904175 -8.399999618530273, 1.2319999933242798 -8.399999618530273, 1.5679999589920044 -8.399999618530273 L 23.631999969482422 -8.399999618530273 Z " stroke="none" fill-rule="nonzero" fill="#000000" fill-opacity="1" transform="matrix(1,0,0,-1,43.264976501464844,25.38666582107544)" />
  <path d="M 19.487998962402344 12.543999671936035 C 19.487998962402344 12.749332427978516, 19.301332473754883 12.749332427978516, 18.983999252319336 12.749332427978516 L 16.51999855041504 12.749332427978516 C 16.034666061401367 12.749332427978516, 16.01599884033203 12.749332427978516, 15.791999816894531 12.39466667175293 L 8.978666305541992 1.7546665668487549 L 7.5226664543151855 12.319999694824219 C 7.466666221618652 12.749332427978516, 7.429333209991455 12.749332427978516, 6.943999767303467 12.749332427978516 L 4.386666297912598 12.749332427978516 C 4.0320000648498535 12.749332427978516, 3.8266665935516357 12.749332427978516, 3.8266665935516357 12.39466667175293 C 3.8266665935516357 12.170666694641113, 3.994666576385498 12.170666694641113, 4.368000030517578 12.170666694641113 C 4.610666275024414 12.170666694641113, 4.946666717529297 12.151999473571777, 5.170666694641113 12.133333206176758 C 5.469333171844482 12.095999717712402, 5.581333160400391 12.039999961853027, 5.581333160400391 11.83466625213623 C 5.581333160400391 11.75999927520752, 5.562666416168213 11.703999519348145, 5.506666660308838 11.479999542236328 L 3.135999917984009 1.9786665439605713 C 2.9493331909179688 1.2319999933242798, 2.631999969482422 0.6346666216850281, 1.1200000047683716 0.578666627407074 C 1.0266666412353516 0.578666627407074, 0.7839999794960022 0.5600000023841858, 0.7839999794960022 0.2239999920129776 C 0.7839999794960022 0.0559999980032444, 0.8959999680519104 0, 1.0453332662582397 0 C 1.6426665782928467 0, 2.2960000038146973 0.0559999980032444, 2.9119999408721924 0.0559999980032444 C 3.5466666221618652 0.0559999980032444, 4.2186665534973145 0, 4.834666728973389 0 C 4.927999973297119 0, 5.170666694641113 0, 5.170666694641113 0.3733333349227905 C 5.170666694641113 0.578666627407074, 4.965332984924316 0.578666627407074, 4.834666728973389 0.578666627407074 C 3.7706665992736816 0.5973333120346069, 3.565333127975464 0.9706666469573975, 3.565333127975464 1.399999976158142 C 3.565333127975464 1.5306665897369385, 3.5839998722076416 1.6239999532699585, 3.6399998664855957 1.8293333053588867 L 6.178666591644287 12.002666473388672 L 6.197333335876465 12.002666473388672 L 7.802666187286377 0.42933332920074463 C 7.839999675750732 0.20533332228660583, 7.85866641998291 0, 8.082666397094727 0 C 8.288000106811523 0, 8.399999618530273 0.20533332228660583, 8.493332862854004 0.335999995470047 L 16.034666061401367 12.151999473571777 L 16.053333282470703 12.151999473571777 L 13.383999824523926 1.4559999704360962 C 13.197333335876465 0.7279999852180481, 13.15999984741211 0.578666627407074, 11.685333251953125 0.578666627407074 C 11.368000030517578 0.578666627407074, 11.162666320800781 0.578666627407074, 11.162666320800781 0.2239999920129776 C 11.162666320800781 0, 11.386666297912598 0, 11.442666053771973 0 L 13.757332801818848 0.0559999980032444 C 14.522665977478027 0.0559999980032444, 15.325332641601562 0, 16.090665817260742 0 C 16.202665328979492 0, 16.44533348083496 0, 16.44533348083496 0.3733333349227905 C 16.44533348083496 0.578666627407074, 16.277332305908203 0.578666627407074, 15.922666549682617 0.578666627407074 C 15.231999397277832 0.578666627407074, 14.709332466125488 0.578666627407074, 14.709332466125488 0.9146666526794434 C 14.709332466125488 0.9893332719802856, 14.709332466125488 1.0266666412353516, 14.802665710449219 1.3626666069030762 L 17.28533363342285 11.311999320983887 C 17.453332901000977 11.983999252319336, 17.490665435791016 12.170666694641113, 18.89066505432129 12.170666694641113 C 19.31999969482422 12.170666694641113, 19.487998962402344 12.170666694641113, 19.487998962402344 12.543999671936035 Z " stroke="none" fill-rule="nonzero" fill="#000000" fill-opacity="1" transform="matrix(1,0,0,-1,72.552978515625,12.749332427978516)" />
  <path d="M 13.477333068847656 4.666666507720947 C 13.477333068847656 4.871999740600586, 13.309332847595215 5.039999961853027, 13.103999137878418 5.039999961853027 L 1.4186666011810303 5.039999961853027 C 1.213333249092102 5.039999961853027, 1.0453332662582397 4.871999740600586, 1.0453332662582397 4.666666507720947 C 1.0453332662582397 4.461333274841309, 1.213333249092102 4.293333053588867, 1.4186666011810303 4.293333053588867 L 13.103999137878418 4.293333053588867 C 13.309332847595215 4.293333053588867, 13.477333068847656 4.461333274841309, 13.477333068847656 4.666666507720947 Z " stroke="none" fill-rule="nonzero" fill="#000000" fill-opacity="1" transform="matrix(1,0,0,-1,93.77075576782227,12.749332427978516)" />
  <path d="M 10.658666610717773 2.6693332195281982 C 10.658666610717773 2.8559999465942383, 10.490666389465332 2.8559999465942383, 10.434666633605957 2.8559999465942383 C 10.24799919128418 2.8559999465942383, 10.24799919128418 2.799999952316284, 10.15466594696045 2.5199999809265137 C 9.781332969665527 1.250666618347168, 9.165332794189453 0.20533332228660583, 8.250666618347168 0.20533332228660583 C 7.933332920074463 0.20533332228660583, 7.802666187286377 0.3919999897480011, 7.802666187286377 0.8213332891464233 C 7.802666187286377 1.2879999876022339, 7.970666408538818 1.7359999418258667, 8.138666152954102 2.1466665267944336 C 8.493332862854004 3.135999917984009, 9.27733325958252 5.189332962036133, 9.27733325958252 6.25333309173584 C 9.27733325958252 7.503999710083008, 8.474666595458984 8.250666618347168, 7.130666255950928 8.250666618347168 C 5.450666427612305 8.250666618347168, 4.535999774932861 7.055999755859375, 4.2186665534973145 6.62666654586792 C 4.125333309173584 7.671999931335449, 3.359999895095825 8.250666618347168, 2.501333236694336 8.250666618347168 C 1.6426665782928467 8.250666618347168, 1.2879999876022339 7.5226664543151855, 1.1013332605361938 7.186666488647461 C 0.8026666641235352 6.551999568939209, 0.5413333177566528 5.450666427612305, 0.5413333177566528 5.375999927520752 C 0.5413333177566528 5.189332962036133, 0.7653332948684692 5.189332962036133, 0.7653332948684692 5.189332962036133 C 0.9519999623298645 5.189332962036133, 0.9706666469573975 5.2079997062683105, 1.0826666355133057 5.618666648864746 C 1.399999976158142 6.943999767303467, 1.7733333110809326 7.839999675750732, 2.445333242416382 7.839999675750732 C 2.818666458129883 7.839999675750732, 3.0239999294281006 7.597332954406738, 3.0239999294281006 6.981333255767822 C 3.0239999294281006 6.5893330574035645, 2.9679999351501465 6.383999824523926, 2.7253332138061523 5.413332939147949 L 1.6426665782928467 1.1013332605361938 C 1.5866665840148926 0.8213332891464233, 1.4746665954589844 0.3919999897480011, 1.4746665954589844 0.29866665601730347 C 1.4746665954589844 -0.03733333200216293, 1.7359999418258667 -0.20533332228660583, 2.0160000324249268 -0.20533332228660583 C 2.240000009536743 -0.20533332228660583, 2.5759999752044678 -0.0559999980032444, 2.7066664695739746 0.31733331084251404 C 2.7253332138061523 0.35466665029525757, 2.9493331909179688 1.2319999933242798, 3.061333179473877 1.6986665725708008 L 3.4719998836517334 3.378666639328003 C 3.5839998722076416 3.7893331050872803, 3.69599986076355 4.199999809265137, 3.7893331050872803 4.629333019256592 L 4.0320000648498535 5.562666416168213 C 4.311999797821045 6.141333103179932, 5.301332950592041 7.839999675750732, 7.074666500091553 7.839999675750732 C 7.914666175842285 7.839999675750732, 8.082666397094727 7.1493330001831055, 8.082666397094727 6.5333333015441895 C 8.082666397094727 5.375999927520752, 7.167999744415283 2.986666679382324, 6.869333267211914 2.184000015258789 C 6.701333045959473 1.7546665668487549, 6.682666301727295 1.5306665897369385, 6.682666301727295 1.3253332376480103 C 6.682666301727295 0.4479999840259552, 7.335999965667725 -0.20533332228660583, 8.213333129882812 -0.20533332228660583 C 9.967999458312988 -0.20533332228660583, 10.658666610717773 2.5199999809265137, 10.658666610717773 2.6693332195281982 Z " stroke="none" fill-rule="nonzero" fill="#000000" fill-opacity="1" transform="matrix(1,0,0,-1,111.40453338623047,12.749332427978516)" />
  <path d="M 3.7109334468841553 8.166666984558105 C 3.7109334468841553 8.428000450134277, 3.5280001163482666 8.637066841125488, 3.2274668216705322 8.637066841125488 C 2.874666690826416 8.637066841125488, 2.521866798400879 8.297333717346191, 2.521866798400879 7.944533824920654 C 2.521866798400879 7.696267127990723, 2.7048001289367676 7.474133491516113, 3.018400192260742 7.474133491516113 C 3.3189334869384766 7.474133491516113, 3.7109334468841553 7.774666786193848, 3.7109334468841553 8.166666984558105 Z M 3.828533411026001 1.8685333728790283 C 3.828533411026001 1.9992001056671143, 3.7109334468841553 1.9992001056671143, 3.6717333793640137 1.9992001056671143 C 3.541066884994507 1.9992001056671143, 3.541066884994507 1.9600000381469727, 3.475733518600464 1.7640000581741333 C 3.2405333518981934 0.9408000111579895, 2.809333324432373 0.14373333752155304, 2.1429333686828613 0.14373333752155304 C 1.9208000898361206 0.14373333752155304, 1.8293334245681763 0.274399995803833, 1.8293334245681763 0.5749333500862122 C 1.8293334245681763 0.9016000032424927, 1.90773344039917 1.0845333337783813, 2.2082667350769043 1.881600022315979 L 2.7178666591644287 3.2536001205444336 C 2.874666690826416 3.632533550262451, 2.874666690826416 3.6586668491363525, 3.005333423614502 4.011466979980469 C 3.1098668575286865 4.272799968719482, 3.1752002239227295 4.455733299255371, 3.1752002239227295 4.703999996185303 C 3.1752002239227295 5.2920002937316895, 2.7570667266845703 5.7754669189453125, 2.1037333011627197 5.7754669189453125 C 0.8754667043685913 5.7754669189453125, 0.3789333403110504 3.880800247192383, 0.3789333403110504 3.763200044631958 C 0.3789333403110504 3.632533550262451, 0.5357333421707153 3.632533550262451, 0.5357333421707153 3.632533550262451 C 0.6664000153541565 3.632533550262451, 0.6794666647911072 3.6586668491363525, 0.7448000311851501 3.8677334785461426 C 1.097599983215332 5.0960001945495605, 1.6202666759490967 5.488000392913818, 2.0645334720611572 5.488000392913818 C 2.1690666675567627 5.488000392913818, 2.391200065612793 5.488000392913818, 2.391200065612793 5.06986665725708 C 2.391200065612793 4.795466899871826, 2.2997334003448486 4.521066665649414, 2.247466802597046 4.390399932861328 C 2.1429333686828613 4.050666809082031, 1.5549334287643433 2.53493332862854, 1.3458666801452637 1.9730666875839233 C 1.2152000665664673 1.633333444595337, 1.0453333854675293 1.2021334171295166, 1.0453333854675293 0.9277333617210388 C 1.0453333854675293 0.31360000371932983, 1.4896000623703003 -0.14373333752155304, 2.11680006980896 -0.14373333752155304 C 3.345066785812378 -0.14373333752155304, 3.828533411026001 1.7509334087371826, 3.828533411026001 1.8685333728790283 Z " stroke="none" fill-rule="nonzero" fill="#000000" fill-opacity="1" transform="matrix(1,0,0,-1,122.60453033447266,17.35999870300293)" />
  <path d="M 19.487998962402344 12.543999671936035 C 19.487998962402344 12.749332427978516, 19.301332473754883 12.749332427978516, 18.983999252319336 12.749332427978516 L 16.51999855041504 12.749332427978516 C 16.034666061401367 12.749332427978516, 16.01599884033203 12.749332427978516, 15.791999816894531 12.39466667175293 L 8.978666305541992 1.7546665668487549 L 7.5226664543151855 12.319999694824219 C 7.466666221618652 12.749332427978516, 7.429333209991455 12.749332427978516, 6.943999767303467 12.749332427978516 L 4.386666297912598 12.749332427978516 C 4.0320000648498535 12.749332427978516, 3.8266665935516357 12.749332427978516, 3.8266665935516357 12.39466667175293 C 3.8266665935516357 12.170666694641113, 3.994666576385498 12.170666694641113, 4.368000030517578 12.170666694641113 C 4.610666275024414 12.170666694641113, 4.946666717529297 12.151999473571777, 5.170666694641113 12.133333206176758 C 5.469333171844482 12.095999717712402, 5.581333160400391 12.039999961853027, 5.581333160400391 11.83466625213623 C 5.581333160400391 11.75999927520752, 5.562666416168213 11.703999519348145, 5.506666660308838 11.479999542236328 L 3.135999917984009 1.9786665439605713 C 2.9493331909179688 1.2319999933242798, 2.631999969482422 0.6346666216850281, 1.1200000047683716 0.578666627407074 C 1.0266666412353516 0.578666627407074, 0.7839999794960022 0.5600000023841858, 0.7839999794960022 0.2239999920129776 C 0.7839999794960022 0.0559999980032444, 0.8959999680519104 0, 1.0453332662582397 0 C 1.6426665782928467 0, 2.2960000038146973 0.0559999980032444, 2.9119999408721924 0.0559999980032444 C 3.5466666221618652 0.0559999980032444, 4.2186665534973145 0, 4.834666728973389 0 C 4.927999973297119 0, 5.170666694641113 0, 5.170666694641113 0.3733333349227905 C 5.170666694641113 0.578666627407074, 4.965332984924316 0.578666627407074, 4.834666728973389 0.578666627407074 C 3.7706665992736816 0.5973333120346069, 3.565333127975464 0.9706666469573975, 3.565333127975464 1.399999976158142 C 3.565333127975464 1.5306665897369385, 3.5839998722076416 1.6239999532699585, 3.6399998664855957 1.8293333053588867 L 6.178666591644287 12.002666473388672 L 6.197333335876465 12.002666473388672 L 7.802666187286377 0.42933332920074463 C 7.839999675750732 0.20533332228660583, 7.85866641998291 0, 8.082666397094727 0 C 8.288000106811523 0, 8.399999618530273 0.20533332228660583, 8.493332862854004 0.335999995470047 L 16.034666061401367 12.151999473571777 L 16.053333282470703 12.151999473571777 L 13.383999824523926 1.4559999704360962 C 13.197333335876465 0.7279999852180481, 13.15999984741211 0.578666627407074, 11.685333251953125 0.578666627407074 C 11.368000030517578 0.578666627407074, 11.162666320800781 0.578666627407074, 11.162666320800781 0.2239999920129776 C 11.162666320800781 0, 11.386666297912598 0, 11.442666053771973 0 L 13.757332801818848 0.0559999980032444 C 14.522665977478027 0.0559999980032444, 15.325332641601562 0, 16.090665817260742 0 C 16.202665328979492 0, 16.44533348083496 0, 16.44533348083496 0.3733333349227905 C 16.44533348083496 0.578666627407074, 16.277332305908203 0.578666627407074, 15.922666549682617 0.578666627407074 C 15.231999397277832 0.578666627407074, 14.709332466125488 0.578666627407074, 14.709332466125488 0.9146666526794434 C 14.709332466125488 0.9893332719802856, 14.709332466125488 1.0266666412353516, 14.802665710449219 1.3626666069030762 L 17.28533363342285 11.311999320983887 C 17.453332901000977 11.983999252319336, 17.490665435791016 12.170666694641113, 18.89066505432129 12.170666694641113 C 19.31999969482422 12.170666694641113, 19.487998962402344 12.170666694641113, 19.487998962402344 12.543999671936035 Z " stroke="none" fill-rule="nonzero" fill="#000000" fill-opacity="1" transform="matrix(1,0,0,-1,90.7794189453125,38.19199848175049)" />
  <path d="M 72.552978515625 4.666666507720947 L 127.11253356933594 4.666666507720947 " stroke="#000000" stroke-opacity="1" stroke-width="0.746666669845581" stroke-linecap="butt" stroke-linejoin="miter" fill="none" transform="matrix(1,0,0,-1,0,25.38666534423828)" />
</svg>