<?xml version="1.0" encoding="UTF-8" standalone="no"?>
<!DOCTYPE svg PUBLIC "-//W3C//DTD SVG 1.1//EN"
 "http://www.w3.org/Graphics/SVG/1.1/DTD/svg11.dtd">
<!-- Generated by graphviz version 2.43.0 (0)
 -->
<!-- Title: %3 Pages: 1 -->
<svg width="440pt" height="237pt"
 viewBox="0.00 0.00 440.00 237.00" xmlns="http://www.w3.org/2000/svg" xmlns:xlink="http://www.w3.org/1999/xlink">
<g id="graph0" class="graph" transform="scale(1 1) rotate(0) translate(4 233)">
<title>%3</title>
<g id="clust1" class="cluster">
<title>clusterWebServer</title>
<polygon fill="transparent" stroke="black" points="275,-8 275,-221 424,-221 424,-8 275,-8"/>
<text text-anchor="middle" x="349.5" y="-209" font-family="Helvetica,sans-Serif" font-size="10.00">Web server</text>
</g>
<g id="clust2" class="cluster">
<title>clusterClient</title>
<polygon fill="transparent" stroke="black" points="8,-65 8,-196 152,-196 152,-65 8,-65"/>
<text text-anchor="middle" x="80" y="-184" font-family="Helvetica,sans-Serif" font-size="10.00">Client</text>
</g>
<!-- Process1 -->
<g id="node1" class="node">
<title>Process1</title>
<path fill="#cb3d36" stroke="black" d="M404,-193.5C404,-193.5 295,-193.5 295,-193.5 289,-193.5 283,-187.5 283,-181.5 283,-181.5 283,-120.5 283,-120.5 283,-114.5 289,-108.5 295,-108.5 295,-108.5 404,-108.5 404,-108.5 410,-108.5 416,-114.5 416,-120.5 416,-120.5 416,-181.5 416,-181.5 416,-187.5 410,-193.5 404,-193.5"/>
<text text-anchor="middle" x="349.5" y="-181.5" font-family="Helvetica,sans-Serif" font-size="10.00" fill="white">Pipeline has geo engine</text>
<text text-anchor="middle" x="349.5" y="-170.5" font-family="Helvetica,sans-Serif" font-size="10.00" fill="white">that needs lat and long.</text>
<text text-anchor="middle" x="349.5" y="-159.5" font-family="Helvetica,sans-Serif" font-size="10.00" fill="white">As neither are available</text>
<text text-anchor="middle" x="349.5" y="-148.5" font-family="Helvetica,sans-Serif" font-size="10.00" fill="white">in the evidence, it</text>
<text text-anchor="middle" x="349.5" y="-137.5" font-family="Helvetica,sans-Serif" font-size="10.00" fill="white">populates a JavaScript</text>
<text text-anchor="middle" x="349.5" y="-126.5" font-family="Helvetica,sans-Serif" font-size="10.00" fill="white">property with code</text>
<text text-anchor="middle" x="349.5" y="-115.5" font-family="Helvetica,sans-Serif" font-size="10.00" fill="white">to get these values.</text>
</g>
<!-- ProcessB -->
<g id="node4" class="node">
<title>ProcessB</title>
<path fill="#cb3d36" stroke="black" d="M132,-114.5C132,-114.5 28,-114.5 28,-114.5 22,-114.5 16,-108.5 16,-102.5 16,-102.5 16,-85.5 16,-85.5 16,-79.5 22,-73.5 28,-73.5 28,-73.5 132,-73.5 132,-73.5 138,-73.5 144,-79.5 144,-85.5 144,-85.5 144,-102.5 144,-102.5 144,-108.5 138,-114.5 132,-114.5"/>
<text text-anchor="middle" x="80" y="-102.5" font-family="Helvetica,sans-Serif" font-size="10.00" fill="white">JavaScript runs on</text>
<text text-anchor="middle" x="80" y="-91.5" font-family="Helvetica,sans-Serif" font-size="10.00" fill="white">client and sets cookies</text>
<text text-anchor="middle" x="80" y="-80.5" font-family="Helvetica,sans-Serif" font-size="10.00" fill="white">for lat and long.</text>
</g>
<!-- Process1&#45;&gt;ProcessB -->
<g id="edge2" class="edge">
<title>Process1&#45;&gt;ProcessB</title>
<path fill="none" stroke="black" d="M282.64,-129.59C276.7,-127.93 270.76,-126.38 265,-125 228.88,-116.37 188.21,-109.26 154.31,-104.03"/>
<polygon fill="black" stroke="black" points="154.43,-100.51 144.02,-102.47 153.38,-107.43 154.43,-100.51"/>
<text text-anchor="middle" x="213.5" y="-139" font-family="Helvetica,sans-Serif" font-size="10.00">2. Response includes</text>
<text text-anchor="middle" x="213.5" y="-128" font-family="Helvetica,sans-Serif" font-size="10.00">JavaScript</text>
</g>
<!-- Process2 -->
<g id="node2" class="node">
<title>Process2</title>
<path fill="#cb3d36" stroke="black" d="M400,-90C400,-90 299,-90 299,-90 293,-90 287,-84 287,-78 287,-78 287,-28 287,-28 287,-22 293,-16 299,-16 299,-16 400,-16 400,-16 406,-16 412,-22 412,-28 412,-28 412,-78 412,-78 412,-84 406,-90 400,-90"/>
<text text-anchor="middle" x="349.5" y="-78" font-family="Helvetica,sans-Serif" font-size="10.00" fill="white">Pipeline takes cookies</text>
<text text-anchor="middle" x="349.5" y="-67" font-family="Helvetica,sans-Serif" font-size="10.00" fill="white">as evidence.</text>
<text text-anchor="middle" x="349.5" y="-56" font-family="Helvetica,sans-Serif" font-size="10.00" fill="white">Geo engine uses</text>
<text text-anchor="middle" x="349.5" y="-45" font-family="Helvetica,sans-Serif" font-size="10.00" fill="white">lat and long values</text>
<text text-anchor="middle" x="349.5" y="-34" font-family="Helvetica,sans-Serif" font-size="10.00" fill="white">to determine postal</text>
<text text-anchor="middle" x="349.5" y="-23" font-family="Helvetica,sans-Serif" font-size="10.00" fill="white">address.</text>
</g>
<!-- Start -->
<g id="node3" class="node">
<title>Start</title>
<path fill="#cb3d36" stroke="black" d="M95,-169C95,-169 65,-169 65,-169 59,-169 53,-163 53,-157 53,-157 53,-145 53,-145 53,-139 59,-133 65,-133 65,-133 95,-133 95,-133 101,-133 107,-139 107,-145 107,-145 107,-157 107,-157 107,-163 101,-169 95,-169"/>
<text text-anchor="middle" x="80" y="-148.5" font-family="Helvetica,sans-Serif" font-size="10.00" fill="white">Start</text>
</g>
<!-- Start&#45;&gt;Process1 -->
<g id="edge1" class="edge">
<title>Start&#45;&gt;Process1</title>
<path fill="none" stroke="black" d="M107.14,-151C145.13,-151 217.14,-151 272.65,-151"/>
<polygon fill="black" stroke="black" points="272.81,-154.5 282.81,-151 272.81,-147.5 272.81,-154.5"/>
<text text-anchor="middle" x="213.5" y="-154" font-family="Helvetica,sans-Serif" font-size="10.00">1. Inital request</text>
</g>
<!-- ProcessB&#45;&gt;Process2 -->
<g id="edge3" class="edge">
<title>ProcessB&#45;&gt;Process2</title>
<path fill="none" stroke="black" d="M122.1,-73.39C134.61,-68.04 148.6,-62.96 162,-60 199.29,-51.76 241.78,-49.62 276.77,-49.72"/>
<polygon fill="black" stroke="black" points="276.87,-53.22 286.9,-49.81 276.93,-46.22 276.87,-53.22"/>
<text text-anchor="middle" x="213.5" y="-74" font-family="Helvetica,sans-Serif" font-size="10.00">3. Second request</text>
<text text-anchor="middle" x="213.5" y="-63" font-family="Helvetica,sans-Serif" font-size="10.00">includes cookies</text>
</g>
</g>
</svg>
