<?xml version="1.0" encoding="UTF-8" standalone="no"?>
<!DOCTYPE svg PUBLIC "-//W3C//DTD SVG 1.1//EN"
 "http://www.w3.org/Graphics/SVG/1.1/DTD/svg11.dtd">
<!-- Generated by graphviz version 2.43.0 (0)
 -->
<!-- Title: P Pages: 1 -->
<svg width="321pt" height="161pt"
 viewBox="0.00 0.00 321.00 161.00" xmlns="http://www.w3.org/2000/svg" xmlns:xlink="http://www.w3.org/1999/xlink">
<g id="graph0" class="graph" transform="scale(1 1) rotate(0) translate(4 157)">
<title>P</title>
<g id="clust1" class="cluster">
<title>clusterFD</title>
<g id="a_clust1"><a xlink:href="_pipeline_api__concepts__data__flow_data.html#PipelineApi_Concepts_Data_FlowData" target="_top" xlink:title="Flow Data">
<polygon fill="transparent" stroke="black" points="8,-8 8,-145 168,-145 168,-8 8,-8"/>
<text text-anchor="middle" x="88" y="-133" font-family="Helvetica,sans-Serif" font-size="10.00">Flow Data</text>
</a>
</g>
</g>
<!-- structE -->
<g id="node1" class="node">
<title>structE</title>
<g id="a_node1"><a xlink:href="_pipeline_api__concepts__data__evidence.html#PipelineApi_Concepts_Data_Evidence" target="_top" xlink:title="&lt;TABLE&gt;">
<path fill="#cb3d36" stroke="transparent" d="M148,-118C148,-118 28,-118 28,-118 22,-118 16,-112 16,-106 16,-106 16,-88 16,-88 16,-82 22,-76 28,-76 28,-76 148,-76 148,-76 154,-76 160,-82 160,-88 160,-88 160,-106 160,-106 160,-112 154,-118 148,-118"/>
<path fill="#cb3d36" stroke="transparent" d="M35.33,-80C35.33,-80 140.67,-80 140.67,-80 146.33,-80 152,-85.67 152,-91.33 152,-91.33 152,-102.67 152,-102.67 152,-108.33 146.33,-114 140.67,-114 140.67,-114 35.33,-114 35.33,-114 29.67,-114 24,-108.33 24,-102.67 24,-102.67 24,-91.33 24,-91.33 24,-85.67 29.67,-80 35.33,-80"/>
<polygon fill="#cb3d36" stroke="transparent" points="24,-97 24,-114 152,-114 152,-97 24,-97"/>
<polygon fill="none" stroke="black" points="24,-97 24,-114 152,-114 152,-97 24,-97"/>
<text text-anchor="start" x="65.5" y="-103" font-family="Helvetica,sans-Serif" font-size="10.00" fill="white">Evidence</text>
<polygon fill="#cb3d36" stroke="transparent" points="24,-80 24,-97 91,-97 91,-80 24,-80"/>
<polygon fill="none" stroke="black" points="24,-80 24,-97 91,-97 91,-80 24,-80"/>
<text text-anchor="start" x="27" y="-86" font-family="Helvetica,sans-Serif" font-size="10.00" fill="white">date of birth</text>
<polygon fill="#cb3d36" stroke="transparent" points="91,-80 91,-97 152,-97 152,-80 91,-80"/>
<polygon fill="none" stroke="black" points="91,-80 91,-97 152,-97 152,-80 91,-80"/>
<text text-anchor="start" x="94" y="-86" font-family="Helvetica,sans-Serif" font-size="10.00" fill="white">18/12/1992</text>
</a>
</g>
</g>
<!-- FE -->
<g id="node3" class="node">
<title>FE</title>
<path fill="#cb3d36" stroke="black" d="M301,-88C301,-88 246,-88 246,-88 240,-88 234,-82 234,-76 234,-76 234,-64 234,-64 234,-58 240,-52 246,-52 246,-52 301,-52 301,-52 307,-52 313,-58 313,-64 313,-64 313,-76 313,-76 313,-82 307,-88 301,-88"/>
<text text-anchor="middle" x="273.5" y="-67.5" font-family="Helvetica,sans-Serif" font-size="10.00" fill="white">Age Element</text>
</g>
<!-- structE&#45;&gt;FE -->
<g id="edge1" class="edge">
<title>structE&#45;&gt;FE</title>
<path fill="none" stroke="black" d="M168,-85.38C186.95,-82.59 206.65,-79.69 223.76,-77.17"/>
<polygon fill="black" stroke="black" points="224.52,-80.6 233.91,-75.68 223.51,-73.67 224.52,-80.6"/>
<text text-anchor="middle" x="197" y="-86" font-family="Helvetica,sans-Serif" font-size="10.00">process</text>
</g>
<!-- structED -->
<g id="node2" class="node">
<title>structED</title>
<g id="a_node2"><a xlink:href="_pipeline_api__concepts__data__element_data.html#PipelineApi_Concepts_Data_ElementData" target="_top" xlink:title="&lt;TABLE&gt;">
<path fill="#cb3d36" stroke="transparent" d="M120.5,-58C120.5,-58 55.5,-58 55.5,-58 49.5,-58 43.5,-52 43.5,-46 43.5,-46 43.5,-28 43.5,-28 43.5,-22 49.5,-16 55.5,-16 55.5,-16 120.5,-16 120.5,-16 126.5,-16 132.5,-22 132.5,-28 132.5,-28 132.5,-46 132.5,-46 132.5,-52 126.5,-58 120.5,-58"/>
<path fill="#cb3d36" stroke="transparent" d="M62.83,-20C62.83,-20 113.17,-20 113.17,-20 118.83,-20 124.5,-25.67 124.5,-31.33 124.5,-31.33 124.5,-42.67 124.5,-42.67 124.5,-48.33 118.83,-54 113.17,-54 113.17,-54 62.83,-54 62.83,-54 57.17,-54 51.5,-48.33 51.5,-42.67 51.5,-42.67 51.5,-31.33 51.5,-31.33 51.5,-25.67 57.17,-20 62.83,-20"/>
<polygon fill="#cb3d36" stroke="transparent" points="52,-37 52,-54 125,-54 125,-37 52,-37"/>
<polygon fill="none" stroke="black" points="52,-37 52,-54 125,-54 125,-37 52,-37"/>
<text text-anchor="start" x="55" y="-43" font-family="Helvetica,sans-Serif" font-size="10.00" fill="white">Element Data</text>
<polygon fill="#cb3d36" stroke="transparent" points="52,-20 52,-37 91,-37 91,-20 52,-20"/>
<polygon fill="none" stroke="black" points="52,-20 52,-37 91,-37 91,-20 52,-20"/>
<text text-anchor="start" x="62" y="-26" font-family="Helvetica,sans-Serif" font-size="10.00" fill="white">age</text>
<polygon fill="#cb3d36" stroke="transparent" points="91,-20 91,-37 125,-37 125,-20 91,-20"/>
<polygon fill="none" stroke="black" points="91,-20 91,-37 125,-37 125,-20 91,-20"/>
<text text-anchor="start" x="101.5" y="-26" font-family="Helvetica,sans-Serif" font-size="10.00" fill="white">26</text>
</a>
</g>
</g>
<!-- FE&#45;&gt;structED -->
<g id="edge2" class="edge">
<title>FE&#45;&gt;structED</title>
<path fill="none" stroke="black" d="M233.89,-63.06C207.5,-58.31 172.16,-51.95 142.99,-46.71"/>
<polygon fill="black" stroke="black" points="143.41,-43.23 132.95,-44.9 142.18,-50.12 143.41,-43.23"/>
<text text-anchor="middle" x="197" y="-62" font-family="Helvetica,sans-Serif" font-size="10.00">output</text>
</g>
</g>
</svg>
