<?xml version="1.0" encoding="UTF-8" standalone="no"?>
<!DOCTYPE svg PUBLIC "-//W3C//DTD SVG 1.1//EN"
 "http://www.w3.org/Graphics/SVG/1.1/DTD/svg11.dtd">
<!-- Generated by graphviz version 2.43.0 (0)
 -->
<!-- Title: P Pages: 1 -->
<svg width="265pt" height="127pt"
 viewBox="0.00 0.00 264.95 127.00" xmlns="http://www.w3.org/2000/svg" xmlns:xlink="http://www.w3.org/1999/xlink">
<g id="graph0" class="graph" transform="scale(1 1) rotate(0) translate(4 123)">
<title>P</title>
<!-- E1 -->
<g id="node1" class="node">
<title>E1</title>
<path fill="#cb3d36" stroke="black" d="M99.45,-119C99.45,-119 46.45,-119 46.45,-119 40.45,-119 34.45,-113 34.45,-107 34.45,-107 34.45,-95 34.45,-95 34.45,-89 40.45,-83 46.45,-83 46.45,-83 99.45,-83 99.45,-83 105.45,-83 111.45,-89 111.45,-95 111.45,-95 111.45,-107 111.45,-107 111.45,-113 105.45,-119 99.45,-119"/>
<text text-anchor="middle" x="72.95" y="-98.5" font-family="Helvetica,sans-Serif" font-size="10.00" fill="white">date of birth</text>
</g>
<!-- FE -->
<g id="node3" class="node">
<title>FE</title>
<path fill="#cb3d36" stroke="black" d="M160.45,-36C160.45,-36 105.45,-36 105.45,-36 99.45,-36 93.45,-30 93.45,-24 93.45,-24 93.45,-12 93.45,-12 93.45,-6 99.45,0 105.45,0 105.45,0 160.45,0 160.45,0 166.45,0 172.45,-6 172.45,-12 172.45,-12 172.45,-24 172.45,-24 172.45,-30 166.45,-36 160.45,-36"/>
<text text-anchor="middle" x="132.95" y="-15.5" font-family="Helvetica,sans-Serif" font-size="10.00" fill="white">Age Element</text>
</g>
<!-- E1&#45;&gt;FE -->
<g id="edge1" class="edge">
<title>E1&#45;&gt;FE</title>
<path fill="none" stroke="black" d="M34.32,-89.58C12.58,-81.74 -8.03,-69.67 3.95,-54 13.78,-41.15 51.16,-31.92 83.17,-26.17"/>
<polygon fill="black" stroke="black" points="84.07,-29.57 93.33,-24.43 82.89,-22.67 84.07,-29.57"/>
<text text-anchor="middle" x="47.45" y="-57" font-family="Helvetica,sans-Serif" font-size="10.00">do you want this?</text>
</g>
<!-- E2 -->
<g id="node2" class="node">
<title>E2</title>
<path fill="#cb3d36" stroke="black" d="M215.95,-119C215.95,-119 171.95,-119 171.95,-119 165.95,-119 159.95,-113 159.95,-107 159.95,-107 159.95,-95 159.95,-95 159.95,-89 165.95,-83 171.95,-83 171.95,-83 215.95,-83 215.95,-83 221.95,-83 227.95,-89 227.95,-95 227.95,-95 227.95,-107 227.95,-107 227.95,-113 221.95,-119 215.95,-119"/>
<text text-anchor="middle" x="193.95" y="-98.5" font-family="Helvetica,sans-Serif" font-size="10.00" fill="white">hometown</text>
</g>
<!-- E2&#45;&gt;FE -->
<g id="edge3" class="edge">
<title>E2&#45;&gt;FE</title>
<path fill="none" stroke="black" d="M171.81,-82.84C165.86,-77.55 159.75,-71.41 154.95,-65 150.53,-59.1 146.66,-52.16 143.45,-45.5"/>
<polygon fill="black" stroke="black" points="146.51,-43.76 139.22,-36.07 140.12,-46.63 146.51,-43.76"/>
<text text-anchor="middle" x="198.45" y="-57" font-family="Helvetica,sans-Serif" font-size="10.00">do you want this?</text>
</g>
<!-- FE&#45;&gt;E1 -->
<g id="edge2" class="edge">
<title>FE&#45;&gt;E1</title>
<path fill="none" stroke="black" d="M120.25,-36.15C111.98,-47.32 101.05,-62.07 91.78,-74.59"/>
<polygon fill="black" stroke="black" points="88.82,-72.7 85.68,-82.82 94.44,-76.87 88.82,-72.7"/>
<text text-anchor="middle" x="115.95" y="-57" font-family="Helvetica,sans-Serif" font-size="10.00">yes</text>
</g>
<!-- FE&#45;&gt;E2 -->
<g id="edge4" class="edge">
<title>FE&#45;&gt;E2</title>
<path fill="none" stroke="black" d="M172.66,-20.57C196.92,-23.84 226.2,-32.4 241.95,-54 248.05,-62.35 244,-70.49 236.16,-77.55"/>
<polygon fill="black" stroke="black" points="233.92,-74.85 228.08,-83.69 238.16,-80.43 233.92,-74.85"/>
<text text-anchor="middle" x="250.45" y="-57" font-family="Helvetica,sans-Serif" font-size="10.00">no</text>
</g>
</g>
</svg>
