<?xml version="1.0" encoding="UTF-8" standalone="no"?>
<!DOCTYPE svg PUBLIC "-//W3C//DTD SVG 1.1//EN"
 "http://www.w3.org/Graphics/SVG/1.1/DTD/svg11.dtd">
<!-- Generated by graphviz version 2.43.0 (0)
 -->
<!-- Title: %3 Pages: 1 -->
<svg width="546pt" height="275pt"
 viewBox="0.00 0.00 546.00 275.00" xmlns="http://www.w3.org/2000/svg" xmlns:xlink="http://www.w3.org/1999/xlink">
<g id="graph0" class="graph" transform="scale(1 1) rotate(0) translate(4 271)">
<title>%3</title>
<g id="clust1" class="cluster">
<title>clusterWebServer</title>
<polygon fill="transparent" stroke="black" points="345,-45 345,-259 530,-259 530,-45 345,-45"/>
<text text-anchor="middle" x="437.5" y="-247" font-family="Helvetica,sans-Serif" font-size="10.00">Web server</text>
</g>
<g id="clust2" class="cluster">
<title>clusterClient</title>
<polygon fill="transparent" stroke="black" points="8,-8 8,-234 197,-234 197,-8 8,-8"/>
<text text-anchor="middle" x="102.5" y="-222" font-family="Helvetica,sans-Serif" font-size="10.00">Client</text>
</g>
<!-- Process1 -->
<g id="node1" class="node">
<title>Process1</title>
<polygon fill="none" stroke="black" points="371,-146.5 371,-231.5 504,-231.5 504,-146.5 371,-146.5"/>
<text text-anchor="middle" x="437.5" y="-219.5" font-family="Helvetica,sans-Serif" font-size="10.00">Pipeline has geo engine</text>
<text text-anchor="middle" x="437.5" y="-208.5" font-family="Helvetica,sans-Serif" font-size="10.00">that needs lat and long.</text>
<text text-anchor="middle" x="437.5" y="-197.5" font-family="Helvetica,sans-Serif" font-size="10.00">As neither are available</text>
<text text-anchor="middle" x="437.5" y="-186.5" font-family="Helvetica,sans-Serif" font-size="10.00">in the evidence, it</text>
<text text-anchor="middle" x="437.5" y="-175.5" font-family="Helvetica,sans-Serif" font-size="10.00">populates a JavaScript</text>
<text text-anchor="middle" x="437.5" y="-164.5" font-family="Helvetica,sans-Serif" font-size="10.00">property with code</text>
<text text-anchor="middle" x="437.5" y="-153.5" font-family="Helvetica,sans-Serif" font-size="10.00">to get these values.</text>
</g>
<!-- ProcessB -->
<g id="node4" class="node">
<title>ProcessB</title>
<polygon fill="none" stroke="black" points="16,-99 16,-151 189,-151 189,-99 16,-99"/>
<text text-anchor="middle" x="102.5" y="-139" font-family="Helvetica,sans-Serif" font-size="10.00">JavaScript runs on client</text>
<text text-anchor="middle" x="102.5" y="-128" font-family="Helvetica,sans-Serif" font-size="10.00">and gets lat and long values.</text>
<text text-anchor="middle" x="102.5" y="-117" font-family="Helvetica,sans-Serif" font-size="10.00">A request is then sent</text>
<text text-anchor="middle" x="102.5" y="-106" font-family="Helvetica,sans-Serif" font-size="10.00">to the server in the background.</text>
</g>
<!-- Process1&#45;&gt;ProcessB -->
<g id="edge2" class="edge">
<title>Process1&#45;&gt;ProcessB</title>
<path fill="none" stroke="black" d="M370.88,-172.63C358.98,-169.9 346.65,-167.24 335,-165 278.52,-154.15 263.65,-155.94 207,-146 204.47,-145.56 201.91,-145.1 199.33,-144.63"/>
<polygon fill="black" stroke="black" points="199.75,-141.15 189.28,-142.77 198.47,-148.03 199.75,-141.15"/>
<text text-anchor="middle" x="271" y="-190" font-family="Helvetica,sans-Serif" font-size="10.00">2. Response includes</text>
<text text-anchor="middle" x="271" y="-179" font-family="Helvetica,sans-Serif" font-size="10.00">JavaScript and JSON</text>
<text text-anchor="middle" x="271" y="-168" font-family="Helvetica,sans-Serif" font-size="10.00">data object</text>
</g>
<!-- Process2 -->
<g id="node2" class="node">
<title>Process2</title>
<polygon fill="none" stroke="black" points="353,-53 353,-127 522,-127 522,-53 353,-53"/>
<text text-anchor="middle" x="437.5" y="-115" font-family="Helvetica,sans-Serif" font-size="10.00">Pipeline consumes lat and long</text>
<text text-anchor="middle" x="437.5" y="-104" font-family="Helvetica,sans-Serif" font-size="10.00">as evidence.</text>
<text text-anchor="middle" x="437.5" y="-93" font-family="Helvetica,sans-Serif" font-size="10.00">Geo engine uses these</text>
<text text-anchor="middle" x="437.5" y="-82" font-family="Helvetica,sans-Serif" font-size="10.00">values to determine postal</text>
<text text-anchor="middle" x="437.5" y="-71" font-family="Helvetica,sans-Serif" font-size="10.00">address and populates JSON</text>
<text text-anchor="middle" x="437.5" y="-60" font-family="Helvetica,sans-Serif" font-size="10.00">response accordingly.</text>
</g>
<!-- ProcessC -->
<g id="node5" class="node">
<title>ProcessC</title>
<polygon fill="none" stroke="black" points="23,-16.5 23,-79.5 182,-79.5 182,-16.5 23,-16.5"/>
<text text-anchor="middle" x="102.5" y="-67.5" font-family="Helvetica,sans-Serif" font-size="10.00">JavaScript updates existing</text>
<text text-anchor="middle" x="102.5" y="-56.5" font-family="Helvetica,sans-Serif" font-size="10.00">JSON payload from response.</text>
<text text-anchor="middle" x="102.5" y="-45.5" font-family="Helvetica,sans-Serif" font-size="10.00">An event is triggered to</text>
<text text-anchor="middle" x="102.5" y="-34.5" font-family="Helvetica,sans-Serif" font-size="10.00">let subscribers know that</text>
<text text-anchor="middle" x="102.5" y="-23.5" font-family="Helvetica,sans-Serif" font-size="10.00">new data is available.</text>
</g>
<!-- Process2&#45;&gt;ProcessC -->
<g id="edge4" class="edge">
<title>Process2&#45;&gt;ProcessC</title>
<path fill="none" stroke="black" d="M352.91,-57.13C346.91,-55.52 340.9,-54.11 335,-53 288.45,-44.26 235.72,-42.51 192.36,-43.16"/>
<polygon fill="black" stroke="black" points="192.05,-39.66 182.12,-43.36 192.18,-46.66 192.05,-39.66"/>
<text text-anchor="middle" x="271" y="-89" font-family="Helvetica,sans-Serif" font-size="10.00">4. Response contains</text>
<text text-anchor="middle" x="271" y="-78" font-family="Helvetica,sans-Serif" font-size="10.00">updated JSON data</text>
<text text-anchor="middle" x="271" y="-67" font-family="Helvetica,sans-Serif" font-size="10.00">object with postal</text>
<text text-anchor="middle" x="271" y="-56" font-family="Helvetica,sans-Serif" font-size="10.00">address</text>
</g>
<!-- Start -->
<g id="node3" class="node">
<title>Start</title>
<polygon fill="none" stroke="black" points="75.5,-170 75.5,-206 129.5,-206 129.5,-170 75.5,-170"/>
<text text-anchor="middle" x="102.5" y="-185.5" font-family="Helvetica,sans-Serif" font-size="10.00">Start</text>
</g>
<!-- Start&#45;&gt;Process1 -->
<g id="edge1" class="edge">
<title>Start&#45;&gt;Process1</title>
<path fill="none" stroke="black" d="M129.78,-192.55C150.64,-195.92 180.59,-200.22 207,-202 263.76,-205.82 278.23,-205.62 335,-202 343.35,-201.47 352.06,-200.69 360.71,-199.78"/>
<polygon fill="black" stroke="black" points="361.27,-203.24 370.83,-198.65 360.5,-196.28 361.27,-203.24"/>
<text text-anchor="middle" x="271" y="-207" font-family="Helvetica,sans-Serif" font-size="10.00">1. Inital request</text>
</g>
<!-- ProcessB&#45;&gt;Process2 -->
<g id="edge3" class="edge">
<title>ProcessB&#45;&gt;Process2</title>
<path fill="none" stroke="black" d="M189.05,-114.98C195.13,-114.3 201.16,-113.63 207,-113 251.59,-108.18 301.1,-103.18 342.69,-99.07"/>
<polygon fill="black" stroke="black" points="343.2,-102.54 352.8,-98.07 342.51,-95.57 343.2,-102.54"/>
<text text-anchor="middle" x="271" y="-138" font-family="Helvetica,sans-Serif" font-size="10.00">3. Background request</text>
<text text-anchor="middle" x="271" y="-127" font-family="Helvetica,sans-Serif" font-size="10.00">includes lat and long from</text>
<text text-anchor="middle" x="271" y="-116" font-family="Helvetica,sans-Serif" font-size="10.00">client</text>
</g>
</g>
</svg>
