<?xml version="1.0" encoding="UTF-8" standalone="no"?>
<!DOCTYPE svg PUBLIC "-//W3C//DTD SVG 1.1//EN"
 "http://www.w3.org/Graphics/SVG/1.1/DTD/svg11.dtd">
<!-- Generated by graphviz version 2.40.1 (20161225.0304)
 -->
<!-- Title: %3 Pages: 1 -->
<svg width="339pt" height="246pt"
 viewBox="0.00 0.00 339.00 246.00" xmlns="http://www.w3.org/2000/svg" xmlns:xlink="http://www.w3.org/1999/xlink">
<g id="graph0" class="graph" transform="scale(1 1) rotate(0) translate(4 242)">
<title>%3</title>
<!-- W -->
<g id="node1" class="node">
<title>W</title>
<polygon fill="none" stroke="#000000" points="67.5,-201.5 67.5,-237.5 198.5,-237.5 198.5,-201.5 67.5,-201.5"/>
<text text-anchor="middle" x="133" y="-217" font-family="Helvetica,sans-Serif" font-size="10.00" fill="#000000">Web server using Pipeline</text>
</g>
<!-- D -->
<g id="node2" class="node">
<title>D</title>
<polygon fill="none" stroke="#000000" points="0,-106.5 0,-142.5 136,-142.5 136,-106.5 0,-106.5"/>
<text text-anchor="middle" x="68" y="-122" font-family="Helvetica,sans-Serif" font-size="10.00" fill="#000000">51Degrees data processing</text>
</g>
<!-- W&#45;&gt;D -->
<g id="edge1" class="edge">
<title>W&#45;&gt;D</title>
<path fill="none" stroke="#000000" d="M115.6175,-201.1667C110.6438,-195.5356 105.3865,-189.1874 101,-183 94.0295,-173.1677 87.3082,-161.7388 81.7712,-151.6052"/>
<polygon fill="#000000" stroke="#000000" points="84.8404,-149.9222 77.046,-142.746 78.664,-153.2166 84.8404,-149.9222"/>
<text text-anchor="middle" x="148" y="-175" font-family="Helvetica,sans-Serif" font-size="10.00" fill="#000000">Evidence shared with</text>
<text text-anchor="middle" x="148" y="-164" font-family="Helvetica,sans-Serif" font-size="10.00" fill="#000000">51Degrees</text>
</g>
<!-- F -->
<g id="node3" class="node">
<title>F</title>
<polygon fill="none" stroke="#000000" points="67.5,-.5 67.5,-36.5 198.5,-36.5 198.5,-.5 67.5,-.5"/>
<text text-anchor="middle" x="133" y="-16" font-family="Helvetica,sans-Serif" font-size="10.00" fill="#000000">51Degrees data file export</text>
</g>
<!-- D&#45;&gt;F -->
<g id="edge2" class="edge">
<title>D&#45;&gt;F</title>
<path fill="none" stroke="#000000" d="M59.5806,-106.2935C54.0469,-91.4132 49.4276,-70.3951 59,-55 61.9311,-50.286 65.6703,-46.1628 69.9059,-42.5596"/>
<polygon fill="#000000" stroke="#000000" points="72.0078,-45.3585 77.9986,-36.62 67.866,-39.7152 72.0078,-45.3585"/>
<text text-anchor="middle" x="127" y="-80" font-family="Helvetica,sans-Serif" font-size="10.00" fill="#000000">New evidence values identified</text>
<text text-anchor="middle" x="127" y="-69" font-family="Helvetica,sans-Serif" font-size="10.00" fill="#000000">and associated with</text>
<text text-anchor="middle" x="127" y="-58" font-family="Helvetica,sans-Serif" font-size="10.00" fill="#000000">appropriate data</text>
</g>
<!-- F&#45;&gt;W -->
<g id="edge3" class="edge">
<title>F&#45;&gt;W</title>
<path fill="none" stroke="#000000" d="M177.3799,-36.7122C184.4338,-41.5946 190.7844,-47.6264 195,-55 223.2354,-104.3874 223.2354,-133.6126 195,-183 192.4311,-187.4933 189.0694,-191.4883 185.2389,-195.0286"/>
<polygon fill="#000000" stroke="#000000" points="183.0217,-192.32 177.3799,-201.2878 187.3827,-197.7956 183.0217,-192.32"/>
<text text-anchor="middle" x="273.5" y="-133" font-family="Helvetica,sans-Serif" font-size="10.00" fill="#000000">Updated data file contains</text>
<text text-anchor="middle" x="273.5" y="-122" font-family="Helvetica,sans-Serif" font-size="10.00" fill="#000000">exact mappings for newly</text>
<text text-anchor="middle" x="273.5" y="-111" font-family="Helvetica,sans-Serif" font-size="10.00" fill="#000000">identified evidence.</text>
</g>
</g>
</svg>
