<?xml version="1.0" encoding="UTF-8" standalone="no"?>
<!DOCTYPE svg PUBLIC "-//W3C//DTD SVG 1.1//EN"
 "http://www.w3.org/Graphics/SVG/1.1/DTD/svg11.dtd">
<!-- Generated by graphviz version 2.43.0 (0)
 -->
<!-- Title: %3 Pages: 1 -->
<svg width="220pt" height="152pt"
 viewBox="0.00 0.00 220.00 152.00" xmlns="http://www.w3.org/2000/svg" xmlns:xlink="http://www.w3.org/1999/xlink">
<g id="graph0" class="graph" transform="scale(1 1) rotate(0) translate(4 148)">
<title>%3</title>
<g id="clust1" class="cluster">
<title>clusterFlowData</title>
<g id="a_clust1"><a xlink:href="_concepts__data__flow_data.html#Concepts_Data_FlowData" target="_top" xlink:title="Flow data">
<polygon fill="transparent" stroke="black" points="8,-8 8,-136 111,-136 111,-8 8,-8"/>
<text text-anchor="middle" x="59.5" y="-124" font-family="Helvetica,sans-Serif" font-size="10.00">Flow data</text>
</a>
</g>
</g>
<g id="clust2" class="cluster">
<title>clusterEvidence</title>
<g id="a_clust2"><a xlink:href="_concepts__data__evidence.html#Concepts_Data_Evidence" target="_top" xlink:title="Evidence">
<polygon fill="transparent" stroke="black" points="16,-16 16,-109 103,-109 103,-16 16,-16"/>
<text text-anchor="middle" x="59.5" y="-97" font-family="Helvetica,sans-Serif" font-size="10.00">Evidence</text>
</a>
</g>
</g>
<g id="clust3" class="cluster">
<title>clusterDataKey</title>
<polygon fill="transparent" stroke="black" points="123,-15 123,-90 204,-90 204,-15 123,-15"/>
<text text-anchor="start" x="138" y="-79" font-family="Helvetica,sans-Serif" font-weight="bold" font-size="10.00">Data key</text>
</g>
<!-- Keys1 -->
<g id="node1" class="node">
<title>Keys1</title>
<polygon fill="none" stroke="black" points="24,-24.5 24,-81.5 95,-81.5 95,-24.5 24,-24.5"/>
<text text-anchor="middle" x="59.5" y="-69.5" font-family="Helvetica,sans-Serif" font-size="10.00">User&#45;Agent</text>
<polyline fill="none" stroke="black" points="24,-62.5 95,-62.5 "/>
<text text-anchor="middle" x="59.5" y="-50.5" font-family="Helvetica,sans-Serif" font-size="10.00">Latitude</text>
<polyline fill="none" stroke="black" points="24,-43.5 95,-43.5 "/>
<text text-anchor="middle" x="59.5" y="-31.5" font-family="Helvetica,sans-Serif" font-size="10.00">Longitude</text>
</g>
<!-- Keys2 -->
<g id="node2" class="node">
<title>Keys2</title>
<polygon fill="none" stroke="black" points="131,-24 131,-62 196,-62 196,-24 131,-24"/>
<text text-anchor="middle" x="163.5" y="-50" font-family="Helvetica,sans-Serif" font-size="10.00">Latitude</text>
<polyline fill="none" stroke="black" points="131,-43 196,-43 "/>
<text text-anchor="middle" x="163.5" y="-31" font-family="Helvetica,sans-Serif" font-size="10.00">Longitude</text>
</g>
<!-- Keys1&#45;&gt;Keys2 -->
<g id="edge1" class="edge">
<title>Keys1:lat&#45;&gt;Keys2:lat</title>
<path fill="none" stroke="black" d="M96.5,-53C107.04,-53 111.9,-53 119.25,-53"/>
<polygon fill="black" stroke="black" points="119.5,-56.5 129.5,-53 119.5,-49.5 119.5,-56.5"/>
</g>
<!-- Keys1&#45;&gt;Keys2 -->
<g id="edge2" class="edge">
<title>Keys1:lon&#45;&gt;Keys2:lon</title>
<path fill="none" stroke="black" d="M96.5,-34C107.05,-34 111.9,-33.48 119.24,-33.19"/>
<polygon fill="black" stroke="black" points="119.57,-36.69 129.5,-33 119.44,-29.69 119.57,-36.69"/>
</g>
</g>
</svg>
