<?xml version="1.0" encoding="UTF-8" standalone="no"?>
<!DOCTYPE svg PUBLIC "-//W3C//DTD SVG 1.1//EN"
 "http://www.w3.org/Graphics/SVG/1.1/DTD/svg11.dtd">
<!-- Generated by graphviz version 2.40.1 (20161225.0304)
 -->
<!-- Title: %3 Pages: 1 -->
<svg width="495pt" height="275pt"
 viewBox="0.00 0.00 495.00 275.00" xmlns="http://www.w3.org/2000/svg" xmlns:xlink="http://www.w3.org/1999/xlink">
<g id="graph0" class="graph" transform="scale(1 1) rotate(0) translate(4 271)">
<title>%3</title>
<g id="clust1" class="cluster">
<title>clusterWebServer</title>
<polygon fill="transparent" stroke="#000000" points="311,-45 311,-259 479,-259 479,-45 311,-45"/>
<text text-anchor="middle" x="395" y="-247" font-family="Helvetica,sans-Serif" font-size="10.00" fill="#000000">Web server</text>
</g>
<g id="clust2" class="cluster">
<title>clusterClient</title>
<polygon fill="transparent" stroke="#000000" points="8,-8 8,-234 179,-234 179,-8 8,-8"/>
<text text-anchor="middle" x="93.5" y="-222" font-family="Helvetica,sans-Serif" font-size="10.00" fill="#000000">Client</text>
</g>
<!-- Process1 -->
<g id="node1" class="node">
<title>Process1</title>
<polygon fill="none" stroke="#000000" points="335,-146.5 335,-231.5 455,-231.5 455,-146.5 335,-146.5"/>
<text text-anchor="middle" x="395" y="-219.5" font-family="Helvetica,sans-Serif" font-size="10.00" fill="#000000">Pipeline has geo engine</text>
<text text-anchor="middle" x="395" y="-208.5" font-family="Helvetica,sans-Serif" font-size="10.00" fill="#000000">that needs lat and long.</text>
<text text-anchor="middle" x="395" y="-197.5" font-family="Helvetica,sans-Serif" font-size="10.00" fill="#000000">As neither are available</text>
<text text-anchor="middle" x="395" y="-186.5" font-family="Helvetica,sans-Serif" font-size="10.00" fill="#000000">in the evidence, it</text>
<text text-anchor="middle" x="395" y="-175.5" font-family="Helvetica,sans-Serif" font-size="10.00" fill="#000000">populates a JavaScript</text>
<text text-anchor="middle" x="395" y="-164.5" font-family="Helvetica,sans-Serif" font-size="10.00" fill="#000000">property with code</text>
<text text-anchor="middle" x="395" y="-153.5" font-family="Helvetica,sans-Serif" font-size="10.00" fill="#000000">to get these values.</text>
</g>
<!-- ProcessB -->
<g id="node4" class="node">
<title>ProcessB</title>
<polygon fill="none" stroke="#000000" points="16,-99 16,-151 171,-151 171,-99 16,-99"/>
<text text-anchor="middle" x="93.5" y="-139" font-family="Helvetica,sans-Serif" font-size="10.00" fill="#000000">JavaScript runs on client</text>
<text text-anchor="middle" x="93.5" y="-128" font-family="Helvetica,sans-Serif" font-size="10.00" fill="#000000">and gets lat and long values.</text>
<text text-anchor="middle" x="93.5" y="-117" font-family="Helvetica,sans-Serif" font-size="10.00" fill="#000000">A request is then sent</text>
<text text-anchor="middle" x="93.5" y="-106" font-family="Helvetica,sans-Serif" font-size="10.00" fill="#000000">to the server in the background.</text>
</g>
<!-- Process1&#45;&gt;ProcessB -->
<g id="edge2" class="edge">
<title>Process1&#45;&gt;ProcessB</title>
<path fill="none" stroke="#000000" d="M334.9969,-172.9001C323.7387,-170.1013 312.0392,-167.3415 301,-165 251.6098,-154.5239 238.5588,-155.6467 189,-146 186.3573,-145.4856 183.6755,-144.9543 180.9697,-144.4103"/>
<polygon fill="#000000" stroke="#000000" points="181.5919,-140.9652 171.0936,-142.3916 180.1901,-147.8234 181.5919,-140.9652"/>
<text text-anchor="middle" x="245" y="-190" font-family="Helvetica,sans-Serif" font-size="10.00" fill="#000000">2. Response includes</text>
<text text-anchor="middle" x="245" y="-179" font-family="Helvetica,sans-Serif" font-size="10.00" fill="#000000">JavaScript and JSON</text>
<text text-anchor="middle" x="245" y="-168" font-family="Helvetica,sans-Serif" font-size="10.00" fill="#000000">data object</text>
</g>
<!-- Process2 -->
<g id="node2" class="node">
<title>Process2</title>
<polygon fill="none" stroke="#000000" points="319,-53 319,-127 471,-127 471,-53 319,-53"/>
<text text-anchor="middle" x="395" y="-115" font-family="Helvetica,sans-Serif" font-size="10.00" fill="#000000">Pipeline consumes lat and long</text>
<text text-anchor="middle" x="395" y="-104" font-family="Helvetica,sans-Serif" font-size="10.00" fill="#000000">as evidence.</text>
<text text-anchor="middle" x="395" y="-93" font-family="Helvetica,sans-Serif" font-size="10.00" fill="#000000">Geo engine uses these</text>
<text text-anchor="middle" x="395" y="-82" font-family="Helvetica,sans-Serif" font-size="10.00" fill="#000000">values to determine postal</text>
<text text-anchor="middle" x="395" y="-71" font-family="Helvetica,sans-Serif" font-size="10.00" fill="#000000">address and populates JSON</text>
<text text-anchor="middle" x="395" y="-60" font-family="Helvetica,sans-Serif" font-size="10.00" fill="#000000">response accordingly.</text>
</g>
<!-- ProcessC -->
<g id="node5" class="node">
<title>ProcessC</title>
<polygon fill="none" stroke="#000000" points="19,-16.5 19,-79.5 168,-79.5 168,-16.5 19,-16.5"/>
<text text-anchor="middle" x="93.5" y="-67.5" font-family="Helvetica,sans-Serif" font-size="10.00" fill="#000000">JavaScript updates existing</text>
<text text-anchor="middle" x="93.5" y="-56.5" font-family="Helvetica,sans-Serif" font-size="10.00" fill="#000000">JSON payload from response.</text>
<text text-anchor="middle" x="93.5" y="-45.5" font-family="Helvetica,sans-Serif" font-size="10.00" fill="#000000">An event is triggered to</text>
<text text-anchor="middle" x="93.5" y="-34.5" font-family="Helvetica,sans-Serif" font-size="10.00" fill="#000000">let subscribers know that</text>
<text text-anchor="middle" x="93.5" y="-23.5" font-family="Helvetica,sans-Serif" font-size="10.00" fill="#000000">new data is available.</text>
</g>
<!-- Process2&#45;&gt;ProcessC -->
<g id="edge4" class="edge">
<title>Process2&#45;&gt;ProcessC</title>
<path fill="none" stroke="#000000" d="M318.981,-57.5285C312.9699,-55.7474 306.9306,-54.1994 301,-53 261.2901,-44.9694 216.4376,-43.0281 178.6186,-43.3765"/>
<polygon fill="#000000" stroke="#000000" points="178.0951,-39.8838 168.1483,-43.5323 178.1993,-46.883 178.0951,-39.8838"/>
<text text-anchor="middle" x="245" y="-89" font-family="Helvetica,sans-Serif" font-size="10.00" fill="#000000">4. Response contains</text>
<text text-anchor="middle" x="245" y="-78" font-family="Helvetica,sans-Serif" font-size="10.00" fill="#000000">updated JSON data</text>
<text text-anchor="middle" x="245" y="-67" font-family="Helvetica,sans-Serif" font-size="10.00" fill="#000000">object with postal</text>
<text text-anchor="middle" x="245" y="-56" font-family="Helvetica,sans-Serif" font-size="10.00" fill="#000000">address</text>
</g>
<!-- Start -->
<g id="node3" class="node">
<title>Start</title>
<polygon fill="none" stroke="#000000" points="66.5,-170 66.5,-206 120.5,-206 120.5,-170 66.5,-170"/>
<text text-anchor="middle" x="93.5" y="-185.5" font-family="Helvetica,sans-Serif" font-size="10.00" fill="#000000">Start</text>
</g>
<!-- Start&#45;&gt;Process1 -->
<g id="edge1" class="edge">
<title>Start&#45;&gt;Process1</title>
<path fill="none" stroke="#000000" d="M120.5528,-193.0385C139.6109,-196.3244 165.7693,-200.3063 189,-202 238.646,-205.6196 251.3397,-205.4177 301,-202 308.7428,-201.4671 316.8192,-200.6901 324.8441,-199.7769"/>
<polygon fill="#000000" stroke="#000000" points="325.4446,-203.2299 334.9525,-198.5555 324.6048,-196.2805 325.4446,-203.2299"/>
<text text-anchor="middle" x="245" y="-207" font-family="Helvetica,sans-Serif" font-size="10.00" fill="#000000">1. Inital request</text>
</g>
<!-- ProcessB&#45;&gt;Process2 -->
<g id="edge3" class="edge">
<title>ProcessB&#45;&gt;Process2</title>
<path fill="none" stroke="#000000" d="M171.1479,-115.1522C177.1873,-114.414 183.1922,-113.6891 189,-113 228.1973,-108.3494 271.6234,-103.4616 308.4585,-99.3937"/>
<polygon fill="#000000" stroke="#000000" points="309.1077,-102.8434 318.6641,-98.2689 308.3409,-95.8855 309.1077,-102.8434"/>
<text text-anchor="middle" x="245" y="-138" font-family="Helvetica,sans-Serif" font-size="10.00" fill="#000000">3. Background request</text>
<text text-anchor="middle" x="245" y="-127" font-family="Helvetica,sans-Serif" font-size="10.00" fill="#000000">includes lat and long from</text>
<text text-anchor="middle" x="245" y="-116" font-family="Helvetica,sans-Serif" font-size="10.00" fill="#000000">client</text>
</g>
</g>
</svg>
