<?xml version="1.0" encoding="UTF-8" standalone="no"?>
<!DOCTYPE svg PUBLIC "-//W3C//DTD SVG 1.1//EN"
 "http://www.w3.org/Graphics/SVG/1.1/DTD/svg11.dtd">
<!-- Generated by graphviz version 2.43.0 (0)
 -->
<!-- Title: %3 Pages: 1 -->
<svg width="377pt" height="246pt"
 viewBox="0.00 0.00 376.50 246.00" xmlns="http://www.w3.org/2000/svg" xmlns:xlink="http://www.w3.org/1999/xlink">
<g id="graph0" class="graph" transform="scale(1 1) rotate(0) translate(4 242)">
<title>%3</title>
<!-- W -->
<g id="node1" class="node">
<title>W</title>
<polygon fill="none" stroke="black" points="76,-201.5 76,-237.5 219,-237.5 219,-201.5 76,-201.5"/>
<text text-anchor="middle" x="147.5" y="-217" font-family="Helvetica,sans-Serif" font-size="10.00">Web server using Pipeline</text>
</g>
<!-- D -->
<g id="node2" class="node">
<title>D</title>
<polygon fill="none" stroke="black" points="0,-106.5 0,-142.5 149,-142.5 149,-106.5 0,-106.5"/>
<text text-anchor="middle" x="74.5" y="-122" font-family="Helvetica,sans-Serif" font-size="10.00">51Degrees data processing</text>
</g>
<!-- W&#45;&gt;D -->
<g id="edge1" class="edge">
<title>W&#45;&gt;D</title>
<path fill="none" stroke="black" d="M129.35,-201.44C123.7,-195.79 117.62,-189.32 112.5,-183 104.46,-173.08 96.52,-161.43 89.99,-151.23"/>
<polygon fill="black" stroke="black" points="92.93,-149.33 84.65,-142.71 87,-153.04 92.93,-149.33"/>
<text text-anchor="middle" x="165" y="-175" font-family="Helvetica,sans-Serif" font-size="10.00">Evidence shared with</text>
<text text-anchor="middle" x="165" y="-164" font-family="Helvetica,sans-Serif" font-size="10.00">51Degrees</text>
</g>
<!-- F -->
<g id="node3" class="node">
<title>F</title>
<polygon fill="none" stroke="black" points="73.5,-0.5 73.5,-36.5 219.5,-36.5 219.5,-0.5 73.5,-0.5"/>
<text text-anchor="middle" x="146.5" y="-16" font-family="Helvetica,sans-Serif" font-size="10.00">51Degrees data file export</text>
</g>
<!-- D&#45;&gt;F -->
<g id="edge2" class="edge">
<title>D&#45;&gt;F</title>
<path fill="none" stroke="black" d="M65.54,-106.34C59.18,-91.56 53.42,-70.28 63.5,-55 66.68,-50.18 70.67,-46.01 75.17,-42.4"/>
<polygon fill="black" stroke="black" points="77.49,-45.05 83.74,-36.5 73.52,-39.29 77.49,-45.05"/>
<text text-anchor="middle" x="140.5" y="-80" font-family="Helvetica,sans-Serif" font-size="10.00">New evidence values identified</text>
<text text-anchor="middle" x="140.5" y="-69" font-family="Helvetica,sans-Serif" font-size="10.00">and associated with</text>
<text text-anchor="middle" x="140.5" y="-58" font-family="Helvetica,sans-Serif" font-size="10.00">appropriate data</text>
</g>
<!-- F&#45;&gt;W -->
<g id="edge3" class="edge">
<title>F&#45;&gt;W</title>
<path fill="none" stroke="black" d="M198.23,-36.57C205.9,-41.34 212.79,-47.38 217.5,-55 247.41,-103.39 247.27,-134.52 217.5,-183 214.6,-187.72 210.86,-191.83 206.62,-195.41"/>
<polygon fill="black" stroke="black" points="204.54,-192.6 198.51,-201.31 208.66,-198.26 204.54,-192.6"/>
<text text-anchor="middle" x="304" y="-133" font-family="Helvetica,sans-Serif" font-size="10.00">Updated data file contains</text>
<text text-anchor="middle" x="304" y="-122" font-family="Helvetica,sans-Serif" font-size="10.00">exact mappings for newly</text>
<text text-anchor="middle" x="304" y="-111" font-family="Helvetica,sans-Serif" font-size="10.00">identified evidence.</text>
</g>
</g>
</svg>
