<?xml version="1.0" encoding="UTF-8" standalone="no"?>
<!DOCTYPE svg PUBLIC "-//W3C//DTD SVG 1.1//EN"
 "http://www.w3.org/Graphics/SVG/1.1/DTD/svg11.dtd">
<!-- Generated by graphviz version 2.40.1 (20161225.0304)
 -->
<!-- Title: %3 Pages: 1 -->
<svg width="482pt" height="265pt"
 viewBox="0.00 0.00 482.00 265.00" xmlns="http://www.w3.org/2000/svg" xmlns:xlink="http://www.w3.org/1999/xlink">
<g id="graph0" class="graph" transform="scale(1 1) rotate(0) translate(0 265)">
<title>%3</title>
<g id="clust1" class="cluster">
<title>clusterEngine</title>
<polygon fill="transparent" stroke="#000000" points="8,-8 8,-257 474,-257 474,-8 8,-8"/>
<text text-anchor="start" x="185" y="-246" font-family="Helvetica,sans-Serif" font-size="10.00" fill="#000000">Engine with </text>
<text text-anchor="start" x="240" y="-246" font-family="Helvetica,sans-Serif" font-weight="bold" font-size="10.00" fill="#000000">result cache</text>
</g>
<!-- key -->
<g id="node1" class="node">
<title>key</title>
<polygon fill="none" stroke="#000000" points="16,-182 16,-218 102,-218 102,-182 16,-182"/>
<text text-anchor="middle" x="59" y="-203" font-family="Helvetica,sans-Serif" font-size="10.00" fill="#000000">Create data key</text>
<text text-anchor="middle" x="59" y="-192" font-family="Helvetica,sans-Serif" font-size="10.00" fill="#000000">from evidence</text>
</g>
<!-- cache -->
<g id="node3" class="node">
<title>cache</title>
<polygon fill="none" stroke="#000000" points="241,-230 158,-200 241,-170 324,-200 241,-230"/>
<text text-anchor="middle" x="241" y="-203" font-family="Helvetica,sans-Serif" font-size="10.00" fill="#000000">Does key</text>
<text text-anchor="middle" x="241" y="-192" font-family="Helvetica,sans-Serif" font-size="10.00" fill="#000000">exist in cache?</text>
</g>
<!-- getaspectdata -->
<g id="node2" class="node">
<title>getaspectdata</title>
<polygon fill="none" stroke="#000000" points="380,-182 380,-218 466,-218 466,-182 380,-182"/>
<text text-anchor="middle" x="423" y="-203" font-family="Helvetica,sans-Serif" font-size="10.00" fill="#000000">Get aspect data</text>
<text text-anchor="middle" x="423" y="-192" font-family="Helvetica,sans-Serif" font-size="10.00" fill="#000000">from cache</text>
</g>
<!-- addtoflow -->
<g id="node7" class="node">
<title>addtoflow</title>
<polygon fill="none" stroke="#000000" points="345.5,-16.5 345.5,-52.5 448.5,-52.5 448.5,-16.5 345.5,-16.5"/>
<text text-anchor="middle" x="397" y="-37.5" font-family="Helvetica,sans-Serif" font-size="10.00" fill="#000000">Add aspect data to</text>
<text text-anchor="middle" x="397" y="-26.5" font-family="Helvetica,sans-Serif" font-size="10.00" fill="#000000">flow data and return</text>
</g>
<!-- getaspectdata&#45;&gt;addtoflow -->
<g id="edge7" class="edge">
<title>getaspectdata&#45;&gt;addtoflow</title>
<path fill="none" stroke="#000000" d="M437.2172,-181.6262C443.2871,-172.0038 449,-159.7053 449,-147.5 449,-147.5 449,-147.5 449,-70.5 449,-66.8766 448.1359,-63.5891 446.6305,-60.6112"/>
<polygon fill="#000000" stroke="#000000" points="449.3023,-58.3447 440.4133,-52.5797 443.767,-62.6297 449.3023,-58.3447"/>
</g>
<!-- cache&#45;&gt;getaspectdata -->
<g id="edge3" class="edge">
<title>cache&#45;&gt;getaspectdata</title>
</g>
<!-- data -->
<g id="node4" class="node">
<title>data</title>
<polygon fill="none" stroke="#000000" points="32,-88.5 32,-124.5 132,-124.5 132,-88.5 32,-88.5"/>
<text text-anchor="middle" x="82" y="-104" font-family="Helvetica,sans-Serif" font-size="10.00" fill="#000000">Create aspect data</text>
</g>
<!-- cache&#45;&gt;data -->
<g id="edge2" class="edge">
<title>cache&#45;&gt;data</title>
<path fill="none" stroke="#000000" d="M209.2061,-181.3036C183.9655,-166.4608 148.5439,-145.6312 121.4867,-129.7202"/>
<polygon fill="#000000" stroke="#000000" points="123.0525,-126.5807 112.6583,-124.5286 119.5042,-132.6147 123.0525,-126.5807"/>
<text text-anchor="middle" x="163.5" y="-145" font-family="Helvetica,sans-Serif" font-size="10.00" fill="#000000">no</text>
</g>
<!-- process -->
<g id="node5" class="node">
<title>process</title>
<polygon fill="none" stroke="#000000" points="188,-88.5 188,-124.5 268,-124.5 268,-88.5 188,-88.5"/>
<text text-anchor="middle" x="228" y="-109.5" font-family="Helvetica,sans-Serif" font-size="10.00" fill="#000000">Normal engine</text>
<text text-anchor="middle" x="228" y="-98.5" font-family="Helvetica,sans-Serif" font-size="10.00" fill="#000000">processing</text>
</g>
<!-- addtocache -->
<g id="node6" class="node">
<title>addtocache</title>
<polygon fill="none" stroke="#000000" points="324,-88.5 324,-124.5 434,-124.5 434,-88.5 324,-88.5"/>
<text text-anchor="middle" x="379" y="-109.5" font-family="Helvetica,sans-Serif" font-size="10.00" fill="#000000">Add aspect data to</text>
<text text-anchor="middle" x="379" y="-98.5" font-family="Helvetica,sans-Serif" font-size="10.00" fill="#000000">cache using data key</text>
</g>
<!-- addtocache&#45;&gt;addtoflow -->
<g id="edge6" class="edge">
<title>addtocache&#45;&gt;addtoflow</title>
<path fill="none" stroke="#000000" d="M383.5422,-88.3314C385.4884,-80.5463 387.8068,-71.2729 389.9663,-62.6347"/>
<polygon fill="#000000" stroke="#000000" points="393.3668,-63.4636 392.3967,-52.9133 386.5758,-61.7658 393.3668,-63.4636"/>
</g>
</g>
</svg>
