<?xml version="1.0" encoding="UTF-8" standalone="no"?>
<!DOCTYPE svg PUBLIC "-//W3C//DTD SVG 1.1//EN"
 "http://www.w3.org/Graphics/SVG/1.1/DTD/svg11.dtd">
<!-- Generated by graphviz version 2.40.1 (20161225.0304)
 -->
<!-- Title: D Pages: 1 -->
<svg width="152pt" height="118pt"
 viewBox="0.00 0.00 152.00 118.00" xmlns="http://www.w3.org/2000/svg" xmlns:xlink="http://www.w3.org/1999/xlink">
<g id="graph0" class="graph" transform="scale(1 1) rotate(0) translate(4 114)">
<title>D</title>
<!-- P -->
<g id="node1" class="node">
<title>P</title>
<g id="a_node1"><a xlink:href="@ref Concepts_FlowElements_FiftyOneOnPremiseEngine_Properties" xlink:title="Properties">
<polygon fill="none" stroke="#000000" points="7.5,-.5 7.5,-36.5 68.5,-36.5 68.5,-.5 7.5,-.5"/>
<text text-anchor="middle" x="38" y="-16" font-family="Helvetica,sans-Serif" font-size="10.00" fill="#000000">Properties</text>
</a>
</g>
</g>
<!-- V -->
<g id="node2" class="node">
<title>V</title>
<g id="a_node2"><a xlink:href="@ref Concepts_FlowElements_FiftyOneOnPremiseEngine_Values" xlink:title="Values">
<polygon fill="none" stroke="#000000" points="88,-.5 88,-36.5 142,-36.5 142,-.5 88,-.5"/>
<text text-anchor="middle" x="115" y="-16" font-family="Helvetica,sans-Serif" font-size="10.00" fill="#000000">Values</text>
</a>
</g>
</g>
<!-- C -->
<g id="node3" class="node">
<title>C</title>
<g id="a_node3"><a xlink:href="@ref Concepts_FlowElements_FiftyOneOnPremiseEngine_Components" xlink:title="Components">
<polygon fill="none" stroke="#000000" points="0,-73.5 0,-109.5 72,-109.5 72,-73.5 0,-73.5"/>
<text text-anchor="middle" x="36" y="-89" font-family="Helvetica,sans-Serif" font-size="10.00" fill="#000000">Components</text>
</a>
</g>
</g>
<!-- C&#45;&gt;P -->
<g id="edge2" class="edge">
<title>C&#45;&gt;P</title>
<path fill="none" stroke="#000000" d="M36.4944,-73.4551C36.7155,-65.3828 36.9815,-55.6764 37.2279,-46.6817"/>
<polygon fill="#000000" stroke="#000000" points="37.2304,-46.5866 42.0027,-36.7136 37.3674,-41.5885 37.5044,-36.5904 37.5044,-36.5904 37.5044,-36.5904 37.3674,-41.5885 33.0061,-36.4671 37.2304,-46.5866 37.2304,-46.5866"/>
</g>
<!-- PF -->
<g id="node4" class="node">
<title>PF</title>
<g id="a_node4"><a xlink:href="@ref Concepts_FlowElements_FiftyOneOnPremiseEngine_Profiles" xlink:title="Profiles">
<polygon fill="none" stroke="#000000" points="90,-73.5 90,-109.5 144,-109.5 144,-73.5 90,-73.5"/>
<text text-anchor="middle" x="117" y="-89" font-family="Helvetica,sans-Serif" font-size="10.00" fill="#000000">Profiles</text>
</a>
</g>
</g>
<!-- PF&#45;&gt;V -->
<g id="edge4" class="edge">
<title>PF&#45;&gt;V</title>
<path fill="none" stroke="#000000" d="M116.5056,-73.4551C116.2845,-65.3828 116.0185,-55.6764 115.7721,-46.6817"/>
<polygon fill="#000000" stroke="#000000" points="115.7696,-46.5866 119.9939,-36.4671 115.6326,-41.5885 115.4956,-36.5904 115.4956,-36.5904 115.4956,-36.5904 115.6326,-41.5885 110.9973,-36.7136 115.7696,-46.5866 115.7696,-46.5866"/>
</g>
</g>
</svg>
