<?xml version="1.0" encoding="UTF-8" standalone="no"?>
<!DOCTYPE svg PUBLIC "-//W3C//DTD SVG 1.1//EN"
 "http://www.w3.org/Graphics/SVG/1.1/DTD/svg11.dtd">
<!-- Generated by graphviz version 2.43.0 (0)
 -->
<!-- Title: P Pages: 1 -->
<svg width="373pt" height="152pt"
 viewBox="0.00 0.00 373.20 152.00" xmlns="http://www.w3.org/2000/svg" xmlns:xlink="http://www.w3.org/1999/xlink">
<g id="graph0" class="graph" transform="scale(1 1) rotate(0) translate(4 148)">
<title>P</title>
<g id="clust1" class="cluster">
<title>clusterP</title>
<polygon fill="transparent" stroke="black" points="82,-8 82,-136 283.2,-136 283.2,-8 82,-8"/>
<text text-anchor="middle" x="182.6" y="-124" font-family="Helvetica,sans-Serif" font-size="10.00">Pipeline</text>
</g>
<!-- i -->
<g id="node1" class="node">
<title>i</title>
<text text-anchor="middle" x="27" y="-59.5" font-family="Helvetica,sans-Serif" font-size="10.00">in</text>
</g>
<!-- I1 -->
<g id="node2" class="node">
<title>I1</title>
<ellipse fill="black" stroke="black" cx="91.8" cy="-62" rx="1.8" ry="1.8"/>
</g>
<!-- i&#45;&gt;I1 -->
<g id="edge1" class="edge">
<title>i&#45;&gt;I1</title>
<path fill="none" stroke="black" d="M54.27,-62C69.33,-62 86,-62 89.94,-62"/>
</g>
<!-- E1 -->
<g id="node3" class="node">
<title>E1</title>
<polygon fill="none" stroke="black" points="129.6,-17 129.6,-53 235.6,-53 235.6,-17 129.6,-17"/>
<text text-anchor="middle" x="182.6" y="-32.5" font-family="Helvetica,sans-Serif" font-size="10.00">Flow Element (E1)</text>
</g>
<!-- I1&#45;&gt;E1 -->
<g id="edge2" class="edge">
<title>I1&#45;&gt;E1</title>
<path fill="none" stroke="black" d="M93.8,-61.7C96.93,-60.75 107.07,-57.66 119.42,-53.91"/>
<polygon fill="black" stroke="black" points="120.66,-57.19 129.21,-50.93 118.62,-50.49 120.66,-57.19"/>
</g>
<!-- E2 -->
<g id="node4" class="node">
<title>E2</title>
<polygon fill="none" stroke="black" points="129.6,-72 129.6,-108 235.6,-108 235.6,-72 129.6,-72"/>
<text text-anchor="middle" x="182.6" y="-87.5" font-family="Helvetica,sans-Serif" font-size="10.00">Flow Element (E2)</text>
</g>
<!-- I1&#45;&gt;E2 -->
<g id="edge5" class="edge">
<title>I1&#45;&gt;E2</title>
<path fill="none" stroke="black" d="M93.8,-62.31C96.93,-63.3 107.07,-66.5 119.42,-70.39"/>
<polygon fill="black" stroke="black" points="118.62,-73.81 129.21,-73.48 120.72,-67.13 118.62,-73.81"/>
</g>
<!-- I2 -->
<g id="node5" class="node">
<title>I2</title>
<ellipse fill="black" stroke="black" cx="273.4" cy="-62" rx="1.8" ry="1.8"/>
</g>
<!-- E1&#45;&gt;I2 -->
<g id="edge3" class="edge">
<title>E1&#45;&gt;I2</title>
<path fill="none" stroke="black" d="M235.77,-50.86C252.38,-55.91 267.49,-60.51 271.42,-61.7"/>
</g>
<!-- E2&#45;&gt;I2 -->
<g id="edge6" class="edge">
<title>E2&#45;&gt;I2</title>
<path fill="none" stroke="black" d="M235.77,-73.55C252.38,-68.31 267.49,-63.55 271.42,-62.31"/>
</g>
<!-- o -->
<g id="node6" class="node">
<title>o</title>
<text text-anchor="middle" x="338.2" y="-59.5" font-family="Helvetica,sans-Serif" font-size="10.00">out</text>
</g>
<!-- I2&#45;&gt;o -->
<g id="edge4" class="edge">
<title>I2&#45;&gt;o</title>
<path fill="none" stroke="black" d="M275.49,-62C278.84,-62 289.46,-62 300.97,-62"/>
<polygon fill="black" stroke="black" points="301.15,-65.5 311.15,-62 301.15,-58.5 301.15,-65.5"/>
</g>
</g>
</svg>
