<?xml version="1.0" encoding="UTF-8" standalone="no"?>
<!DOCTYPE svg PUBLIC "-//W3C//DTD SVG 1.1//EN"
 "http://www.w3.org/Graphics/SVG/1.1/DTD/svg11.dtd">
<!-- Generated by graphviz version 2.43.0 (0)
 -->
<!-- Title: fiftyone.pipeline.web.services.ClientsidePropertyServiceCore.Default Pages: 1 -->
<svg width="609pt" height="86pt"
 viewBox="0.00 0.00 609.00 86.00" xmlns="http://www.w3.org/2000/svg" xmlns:xlink="http://www.w3.org/1999/xlink">
<g id="graph0" class="graph" transform="scale(1 1) rotate(0) translate(4 82)">
<title>fiftyone.pipeline.web.services.ClientsidePropertyServiceCore.Default</title>
<!-- Node1 -->
<g id="Node000001" class="node">
<title>Node1</title>
<g id="a_Node000001"><a xlink:title="Default implementation of the ClientsidePropertyServiceCore interface.">
<polygon fill="#999999" stroke="#666666" points="601,-54 397,-54 397,-24 601,-24 601,-54"/>
<text text-anchor="start" x="405" y="-42" font-family="Helvetica,sans-Serif" font-size="10.00">fiftyone.pipeline.web.services.</text>
<text text-anchor="middle" x="499" y="-31" font-family="Helvetica,sans-Serif" font-size="10.00">ClientsidePropertyServiceCore.Default</text>
</a>
</g>
</g>
<!-- Node2 -->
<g id="Node000002" class="node">
<title>Node2</title>
<g id="a_Node000002"><a xlink:href="interfacefiftyone_1_1pipeline_1_1web_1_1services_1_1_clientside_property_service_core.html" target="_top" xlink:title="Class that provides functionality for the &#39;Client side overrides&#39; feature.">
<polygon fill="white" stroke="#666666" points="302,-78 137,-78 137,-48 302,-48 302,-78"/>
<text text-anchor="start" x="145" y="-66" font-family="Helvetica,sans-Serif" font-size="10.00">fiftyone.pipeline.web.services.</text>
<text text-anchor="middle" x="219.5" y="-55" font-family="Helvetica,sans-Serif" font-size="10.00">ClientsidePropertyServiceCore</text>
</a>
</g>
</g>
<!-- Node2&#45;&gt;Node1 -->
<g id="edge1_Node000001_Node000002" class="edge">
<title>Node2&#45;&gt;Node1</title>
<g id="a_edge1_Node000001_Node000002"><a xlink:title=" ">
<path fill="none" stroke="#63b8ff" d="M312.49,-55.04C339.55,-52.7 369.3,-50.13 396.9,-47.74"/>
<polygon fill="#63b8ff" stroke="#63b8ff" points="311.92,-51.58 302.26,-55.93 312.52,-58.55 311.92,-51.58"/>
</a>
</g>
</g>
<!-- Node3 -->
<g id="Node000003" class="node">
<title>Node3</title>
<g id="a_Node000003"><a xlink:href="interfacefiftyone_1_1pipeline_1_1core_1_1flowelements_1_1_pipeline.html" target="_top" xlink:title="The Pipeline groups together FlowElements and is a factory for FlowData which serves as the evidence,...">
<polygon fill="white" stroke="#666666" points="315,-30 124,-30 124,0 315,0 315,-30"/>
<text text-anchor="start" x="132" y="-18" font-family="Helvetica,sans-Serif" font-size="10.00">fiftyone.pipeline.core.flowelements.</text>
<text text-anchor="middle" x="219.5" y="-7" font-family="Helvetica,sans-Serif" font-size="10.00">Pipeline</text>
</a>
</g>
</g>
<!-- Node3&#45;&gt;Node1 -->
<g id="edge2_Node000001_Node000003" class="edge">
<title>Node3&#45;&gt;Node1</title>
<g id="a_edge2_Node000001_Node000003"><a xlink:title=" ">
<path fill="none" stroke="#9a32cd" stroke-dasharray="5,2" d="M325.64,-23.47C343.45,-24.95 361.76,-26.5 379,-28 384.79,-28.5 390.73,-29.03 396.73,-29.57"/>
<polygon fill="#9a32cd" stroke="#9a32cd" points="325.48,-19.94 315.22,-22.61 324.9,-26.92 325.48,-19.94"/>
</a>
</g>
<text text-anchor="start" x="336" y="-33.5" font-family="Helvetica,sans-Serif" font-size="10.00" fill="grey">pipeline</text>
</g>
<!-- Node4 -->
<g id="Node000004" class="node">
<title>Node4</title>
<g id="a_Node000004"><a xlink:title=" ">
<polygon fill="white" stroke="#bfbfbf" points="87,-24.5 0,-24.5 0,-5.5 87,-5.5 87,-24.5"/>
<text text-anchor="middle" x="43.5" y="-12.5" font-family="Helvetica,sans-Serif" font-size="10.00">AutoCloseable</text>
</a>
</g>
</g>
<!-- Node4&#45;&gt;Node3 -->
<g id="edge3_Node000003_Node000004" class="edge">
<title>Node4&#45;&gt;Node3</title>
<g id="a_edge3_Node000003_Node000004"><a xlink:title=" ">
<path fill="none" stroke="#63b8ff" d="M97.15,-15C105.65,-15 114.68,-15 123.81,-15"/>
<polygon fill="#63b8ff" stroke="#63b8ff" points="97.07,-11.5 87.07,-15 97.07,-18.5 97.07,-11.5"/>
</a>
</g>
</g>
</g>
</svg>
