<?xml version="1.0" encoding="UTF-8" standalone="no"?>
<!DOCTYPE svg PUBLIC "-//W3C//DTD SVG 1.1//EN"
 "http://www.w3.org/Graphics/SVG/1.1/DTD/svg11.dtd">
<!-- Generated by graphviz version 2.43.0 (0)
 -->
<!-- Title: fiftyone.pipeline.web.mvc.services.FiftyOneJSService.Default Pages: 1 -->
<svg width="778pt" height="95pt"
 viewBox="0.00 0.00 778.00 95.00" xmlns="http://www.w3.org/2000/svg" xmlns:xlink="http://www.w3.org/1999/xlink">
<g id="graph0" class="graph" transform="scale(1 1) rotate(0) translate(4 91)">
<title>fiftyone.pipeline.web.mvc.services.FiftyOneJSService.Default</title>
<!-- Node1 -->
<g id="Node000001" class="node">
<title>Node1</title>
<g id="a_Node000001"><a xlink:title=" ">
<polygon fill="#999999" stroke="#666666" points="770,-62 581,-62 581,-32 770,-32 770,-62"/>
<text text-anchor="start" x="589" y="-50" font-family="Helvetica,sans-Serif" font-size="10.00">fiftyone.pipeline.web.mvc.services.</text>
<text text-anchor="middle" x="675.5" y="-39" font-family="Helvetica,sans-Serif" font-size="10.00">FiftyOneJSService.Default</text>
</a>
</g>
</g>
<!-- Node2 -->
<g id="Node000002" class="node">
<title>Node2</title>
<g id="a_Node000002"><a xlink:href="classfiftyone_1_1pipeline_1_1web_1_1services_1_1_fifty_one_j_s_service_core_1_1_default.html" target="_top" xlink:title="Default implementation of the FiftyOneJSServiceCore service.">
<polygon fill="white" stroke="#666666" points="532,-39 367,-39 367,-9 532,-9 532,-39"/>
<text text-anchor="start" x="375" y="-27" font-family="Helvetica,sans-Serif" font-size="10.00">fiftyone.pipeline.web.services.</text>
<text text-anchor="middle" x="449.5" y="-16" font-family="Helvetica,sans-Serif" font-size="10.00">FiftyOneJSServiceCore.Default</text>
</a>
</g>
</g>
<!-- Node2&#45;&gt;Node1 -->
<g id="edge1_Node000001_Node000002" class="edge">
<title>Node2&#45;&gt;Node1</title>
<g id="a_edge1_Node000001_Node000002"><a xlink:title=" ">
<path fill="none" stroke="#63b8ff" d="M542.16,-33.41C554.94,-34.72 568.09,-36.07 580.9,-37.39"/>
<polygon fill="#63b8ff" stroke="#63b8ff" points="542.31,-29.91 532,-32.37 541.59,-36.87 542.31,-29.91"/>
</a>
</g>
</g>
<!-- Node3 -->
<g id="Node000003" class="node">
<title>Node3</title>
<g id="a_Node000003"><a xlink:href="interfacefiftyone_1_1pipeline_1_1web_1_1services_1_1_fifty_one_j_s_service_core.html" target="_top" xlink:title="Service that provides the 51Degrees javascript when requested.">
<polygon fill="white" stroke="#666666" points="165,-82 0,-82 0,-52 165,-52 165,-82"/>
<text text-anchor="start" x="8" y="-70" font-family="Helvetica,sans-Serif" font-size="10.00">fiftyone.pipeline.web.services.</text>
<text text-anchor="middle" x="82.5" y="-59" font-family="Helvetica,sans-Serif" font-size="10.00">FiftyOneJSServiceCore</text>
</a>
</g>
</g>
<!-- Node3&#45;&gt;Node2 -->
<g id="edge2_Node000002_Node000003" class="edge">
<title>Node3&#45;&gt;Node2</title>
<g id="a_edge2_Node000002_Node000003"><a xlink:title=" ">
<path fill="none" stroke="#63b8ff" d="M175.46,-56.17C234.35,-49.23 310.1,-40.31 366.86,-33.62"/>
<polygon fill="#63b8ff" stroke="#63b8ff" points="174.93,-52.7 165.41,-57.35 175.75,-59.66 174.93,-52.7"/>
</a>
</g>
</g>
<!-- Node5 -->
<g id="Node000005" class="node">
<title>Node5</title>
<g id="a_Node000005"><a xlink:href="interfacefiftyone_1_1pipeline_1_1web_1_1mvc_1_1services_1_1_fifty_one_j_s_service.html" target="_top" xlink:title="Spring framework service for the FiftyOneJSServiceCore.">
<polygon fill="white" stroke="#666666" points="544,-87 355,-87 355,-57 544,-57 544,-87"/>
<text text-anchor="start" x="363" y="-75" font-family="Helvetica,sans-Serif" font-size="10.00">fiftyone.pipeline.web.mvc.services.</text>
<text text-anchor="middle" x="449.5" y="-64" font-family="Helvetica,sans-Serif" font-size="10.00">FiftyOneJSService</text>
</a>
</g>
</g>
<!-- Node3&#45;&gt;Node5 -->
<g id="edge5_Node000005_Node000003" class="edge">
<title>Node3&#45;&gt;Node5</title>
<g id="a_edge5_Node000005_Node000003"><a xlink:title=" ">
<path fill="none" stroke="#63b8ff" d="M175.48,-68.26C230.34,-69.01 299.82,-69.96 354.95,-70.72"/>
<polygon fill="#63b8ff" stroke="#63b8ff" points="175.46,-64.76 165.41,-68.12 175.36,-71.76 175.46,-64.76"/>
</a>
</g>
</g>
<!-- Node4 -->
<g id="Node000004" class="node">
<title>Node4</title>
<g id="a_Node000004"><a xlink:href="interfacefiftyone_1_1pipeline_1_1web_1_1services_1_1_clientside_property_service_core.html" target="_top" xlink:title="Class that provides functionality for the &#39;Client side overrides&#39; feature.">
<polygon fill="white" stroke="#666666" points="165,-30 0,-30 0,0 165,0 165,-30"/>
<text text-anchor="start" x="8" y="-18" font-family="Helvetica,sans-Serif" font-size="10.00">fiftyone.pipeline.web.services.</text>
<text text-anchor="middle" x="82.5" y="-7" font-family="Helvetica,sans-Serif" font-size="10.00">ClientsidePropertyServiceCore</text>
</a>
</g>
</g>
<!-- Node4&#45;&gt;Node2 -->
<g id="edge3_Node000002_Node000004" class="edge">
<title>Node4&#45;&gt;Node2</title>
<g id="a_edge3_Node000002_Node000004"><a xlink:title=" ">
<path fill="none" stroke="#9a32cd" stroke-dasharray="5,2" d="M175.25,-13.87C223.42,-13.65 283.42,-13.97 337,-16 346.7,-16.37 356.86,-16.9 366.94,-17.51"/>
<polygon fill="#9a32cd" stroke="#9a32cd" points="175.14,-10.37 165.16,-13.92 175.18,-17.37 175.14,-10.37"/>
</a>
</g>
<text text-anchor="start" x="186" y="-21.5" font-family="Helvetica,sans-Serif" font-size="10.00" fill="grey">clientsidePropertyServiceCore</text>
</g>
<!-- Node5&#45;&gt;Node1 -->
<g id="edge4_Node000001_Node000005" class="edge">
<title>Node5&#45;&gt;Node1</title>
<g id="a_edge4_Node000001_Node000005"><a xlink:title=" ">
<path fill="none" stroke="#63b8ff" d="M554.18,-60.43C563.07,-59.44 572.02,-58.44 580.82,-57.46"/>
<polygon fill="#63b8ff" stroke="#63b8ff" points="553.75,-56.95 544.2,-61.54 554.52,-63.91 553.75,-56.95"/>
</a>
</g>
</g>
</g>
</svg>
