<?xml version="1.0" encoding="UTF-8" standalone="no"?>
<!DOCTYPE svg PUBLIC "-//W3C//DTD SVG 1.1//EN"
 "http://www.w3.org/Graphics/SVG/1.1/DTD/svg11.dtd">
<!-- Generated by graphviz version 2.43.0 (0)
 -->
<!-- Title: fiftyone.pipeline.core.flowelements.PipelineBuilderBase&lt; T extends PipelineBuilderBase &gt; Pages: 1 -->
<svg width="1339pt" height="191pt"
 viewBox="0.00 0.00 1339.00 191.00" xmlns="http://www.w3.org/2000/svg" xmlns:xlink="http://www.w3.org/1999/xlink">
<g id="graph0" class="graph" transform="scale(1 1) rotate(0) translate(4 187)">
<title>fiftyone.pipeline.core.flowelements.PipelineBuilderBase&lt; T extends PipelineBuilderBase &gt;</title>
<!-- Node1 -->
<g id="Node000001" class="node">
<title>Node1</title>
<g id="a_Node000001"><a xlink:title="Abstract base class for all Pipeline builders.">
<polygon fill="#999999" stroke="#666666" points="431,-83.5 240,-83.5 240,-42.5 431,-42.5 431,-83.5"/>
<text text-anchor="start" x="248" y="-71.5" font-family="Helvetica,sans-Serif" font-size="10.00">fiftyone.pipeline.core.flowelements.</text>
<text text-anchor="start" x="248" y="-60.5" font-family="Helvetica,sans-Serif" font-size="10.00">PipelineBuilderBase&lt; T extends</text>
<text text-anchor="middle" x="335.5" y="-49.5" font-family="Helvetica,sans-Serif" font-size="10.00"> PipelineBuilderBase &gt;</text>
</a>
</g>
</g>
<!-- Node3 -->
<g id="Node000003" class="node">
<title>Node3</title>
<g id="a_Node000003"><a xlink:href="classfiftyone_1_1pipeline_1_1engines_1_1flowelements_1_1_pre_packaged_pipeline_builder_base.html" target="_top" xlink:title="Base class for pipeline builders that will produce a pipeline with specific flow elements.">
<polygon fill="white" stroke="#666666" points="818,-148 570,-148 570,-96 818,-96 818,-148"/>
<text text-anchor="start" x="578" y="-136" font-family="Helvetica,sans-Serif" font-size="10.00">fiftyone.pipeline.engines.flowelements.</text>
<text text-anchor="start" x="578" y="-125" font-family="Helvetica,sans-Serif" font-size="10.00">PrePackagedPipelineBuilderBase</text>
<text text-anchor="start" x="578" y="-114" font-family="Helvetica,sans-Serif" font-size="10.00">&lt; TBuilder extends PrePackagedPipelineBuilder</text>
<text text-anchor="middle" x="694" y="-103" font-family="Helvetica,sans-Serif" font-size="10.00">Base&lt; TBuilder &gt; &gt;</text>
</a>
</g>
</g>
<!-- Node1&#45;&gt;Node3 -->
<g id="edge3_Node000001_Node000003" class="edge">
<title>Node1&#45;&gt;Node3</title>
<g id="a_edge3_Node000001_Node000003"><a xlink:title=" ">
<path fill="none" stroke="#63b8ff" d="M441.33,-82.67C443.91,-83.13 446.47,-83.57 449,-84 488.19,-90.71 531.02,-97.54 569.69,-103.53"/>
<polygon fill="#63b8ff" stroke="#63b8ff" points="441.75,-79.19 431.3,-80.91 440.54,-86.09 441.75,-79.19"/>
</a>
</g>
</g>
<!-- Node4 -->
<g id="Node000004" class="node">
<title>Node4</title>
<g id="a_Node000004"><a xlink:href="classfiftyone_1_1pipeline_1_1core_1_1flowelements_1_1_pipeline_builder_base.html" target="_top" xlink:title=" ">
<polygon fill="white" stroke="#666666" points="799,-78 589,-78 589,-48 799,-48 799,-78"/>
<text text-anchor="start" x="597" y="-66" font-family="Helvetica,sans-Serif" font-size="10.00">fiftyone.pipeline.core.flowelements.</text>
<text text-anchor="middle" x="694" y="-55" font-family="Helvetica,sans-Serif" font-size="10.00">PipelineBuilderBase&lt; PipelineBuilder &gt;</text>
</a>
</g>
</g>
<!-- Node1&#45;&gt;Node4 -->
<g id="edge5_Node000001_Node000004" class="edge">
<title>Node1&#45;&gt;Node4</title>
<g id="a_edge5_Node000001_Node000004"><a xlink:title=" ">
<path fill="none" stroke="orange" stroke-dasharray="5,2" d="M441.21,-63C487.74,-63 542.39,-63 588.86,-63"/>
<polygon fill="orange" stroke="orange" points="441.1,-59.5 431.1,-63 441.1,-66.5 441.1,-59.5"/>
</a>
</g>
<text text-anchor="start" x="452.5" y="-68.5" font-family="Helvetica,sans-Serif" font-size="10.00" fill="grey">&lt; PipelineBuilder &gt;</text>
</g>
<!-- Node7 -->
<g id="Node000007" class="node">
<title>Node7</title>
<g id="a_Node000007"><a xlink:href="classfiftyone_1_1pipeline_1_1core_1_1flowelements_1_1_pipeline_builder_base.html" target="_top" xlink:title=" ">
<polygon fill="white" stroke="#666666" points="789.5,-30 598.5,-30 598.5,0 789.5,0 789.5,-30"/>
<text text-anchor="start" x="606.5" y="-18" font-family="Helvetica,sans-Serif" font-size="10.00">fiftyone.pipeline.core.flowelements.</text>
<text text-anchor="middle" x="694" y="-7" font-family="Helvetica,sans-Serif" font-size="10.00">PipelineBuilderBase&lt; TBuilder &gt;</text>
</a>
</g>
</g>
<!-- Node1&#45;&gt;Node7 -->
<g id="edge8_Node000001_Node000007" class="edge">
<title>Node1&#45;&gt;Node7</title>
<g id="a_edge8_Node000001_Node000007"><a xlink:title=" ">
<path fill="none" stroke="orange" stroke-dasharray="5,2" d="M441.31,-43.17C443.9,-42.77 446.46,-42.38 449,-42 498.11,-34.71 553.06,-28.46 598.35,-23.82"/>
<polygon fill="orange" stroke="orange" points="440.56,-39.75 431.25,-44.79 441.68,-46.66 440.56,-39.75"/>
</a>
</g>
<text text-anchor="start" x="468.5" y="-47.5" font-family="Helvetica,sans-Serif" font-size="10.00" fill="grey">&lt; TBuilder &gt;</text>
</g>
<!-- Node2 -->
<g id="Node000002" class="node">
<title>Node2</title>
<g id="a_Node000002"><a xlink:href="classfiftyone_1_1pipeline_1_1core_1_1flowelements_1_1_pipeline_builder_base.html" target="_top" xlink:title="Abstract base class for all Pipeline builders.">
<polygon fill="white" stroke="#666666" points="191,-83.5 0,-83.5 0,-42.5 191,-42.5 191,-83.5"/>
<text text-anchor="start" x="8" y="-71.5" font-family="Helvetica,sans-Serif" font-size="10.00">fiftyone.pipeline.core.flowelements.</text>
<text text-anchor="start" x="8" y="-60.5" font-family="Helvetica,sans-Serif" font-size="10.00">PipelineBuilderBase&lt; T extends</text>
<text text-anchor="middle" x="95.5" y="-49.5" font-family="Helvetica,sans-Serif" font-size="10.00"> PipelineBuilderBase &gt;</text>
</a>
</g>
</g>
<!-- Node2&#45;&gt;Node1 -->
<g id="edge1_Node000001_Node000002" class="edge">
<title>Node2&#45;&gt;Node1</title>
<g id="a_edge1_Node000001_Node000002"><a xlink:title=" ">
<path fill="none" stroke="orange" stroke-dasharray="5,2" d="M201.41,-63C214.15,-63 227.11,-63 239.69,-63"/>
<polygon fill="orange" stroke="orange" points="201.25,-59.5 191.25,-63 201.25,-66.5 201.25,-59.5"/>
</a>
</g>
<text text-anchor="start" x="212.5" y="-68.5" font-family="Helvetica,sans-Serif" font-size="10.00" fill="grey">T</text>
</g>
<!-- Node2&#45;&gt;Node2 -->
<g id="edge2_Node000002_Node000002" class="edge">
<title>Node2&#45;&gt;Node2</title>
<g id="a_edge2_Node000002_Node000002"><a xlink:title=" ">
<path fill="none" stroke="orange" stroke-dasharray="5,2" d="M75.09,-93.82C78.27,-98.4 85.07,-101.5 95.5,-101.5 112.61,-101.5 119.96,-93.15 117.56,-83.6"/>
<polygon fill="orange" stroke="orange" points="78.49,-92.91 73.44,-83.6 71.58,-94.03 78.49,-92.91"/>
</a>
</g>
<text text-anchor="start" x="92.5" y="-107" font-family="Helvetica,sans-Serif" font-size="10.00" fill="grey">T</text>
</g>
<!-- Node3&#45;&gt;Node3 -->
<g id="edge4_Node000003_Node000003" class="edge">
<title>Node3&#45;&gt;Node3</title>
<g id="a_edge4_Node000003_Node000003"><a xlink:title=" ">
<path fill="none" stroke="orange" stroke-dasharray="5,2" d="M670.56,-158.12C674.57,-162.86 682.39,-166 694,-166 712.58,-166 721.44,-157.96 720.57,-148.2"/>
<polygon fill="orange" stroke="orange" points="673.77,-156.69 667.43,-148.2 667.1,-158.79 673.77,-156.69"/>
</a>
</g>
<text text-anchor="start" x="662" y="-171.5" font-family="Helvetica,sans-Serif" font-size="10.00" fill="grey">&lt; TBuilder &gt;</text>
</g>
<!-- Node5 -->
<g id="Node000005" class="node">
<title>Node5</title>
<g id="a_Node000005"><a xlink:href="classfiftyone_1_1pipeline_1_1core_1_1flowelements_1_1_pipeline_builder.html" target="_top" xlink:title="The PipelineBuilder follows the fluent builder pattern.">
<polygon fill="white" stroke="#666666" points="1046,-78 855,-78 855,-48 1046,-48 1046,-78"/>
<text text-anchor="start" x="863" y="-66" font-family="Helvetica,sans-Serif" font-size="10.00">fiftyone.pipeline.core.flowelements.</text>
<text text-anchor="middle" x="950.5" y="-55" font-family="Helvetica,sans-Serif" font-size="10.00">PipelineBuilder</text>
</a>
</g>
</g>
<!-- Node4&#45;&gt;Node5 -->
<g id="edge6_Node000004_Node000005" class="edge">
<title>Node4&#45;&gt;Node5</title>
<g id="a_edge6_Node000004_Node000005"><a xlink:title=" ">
<path fill="none" stroke="#63b8ff" d="M809.66,-63C824.76,-63 840.1,-63 854.82,-63"/>
<polygon fill="#63b8ff" stroke="#63b8ff" points="809.25,-59.5 799.25,-63 809.25,-66.5 809.25,-59.5"/>
</a>
</g>
</g>
<!-- Node6 -->
<g id="Node000006" class="node">
<title>Node6</title>
<g id="a_Node000006"><a xlink:href="classfiftyone_1_1pipeline_1_1engines_1_1fiftyone_1_1flowelements_1_1_fifty_one_pipeline_builder.html" target="_top" xlink:title="Pipeline builder class that allows the 51Degrees share usage element to be enabled/disabled.">
<polygon fill="white" stroke="#666666" points="1331,-78 1083,-78 1083,-48 1331,-48 1331,-78"/>
<text text-anchor="start" x="1091" y="-66" font-family="Helvetica,sans-Serif" font-size="10.00">fiftyone.pipeline.engines.fiftyone.flowelements.</text>
<text text-anchor="middle" x="1207" y="-55" font-family="Helvetica,sans-Serif" font-size="10.00">FiftyOnePipelineBuilder</text>
</a>
</g>
</g>
<!-- Node5&#45;&gt;Node6 -->
<g id="edge7_Node000005_Node000006" class="edge">
<title>Node5&#45;&gt;Node6</title>
<g id="a_edge7_Node000005_Node000006"><a xlink:title=" ">
<path fill="none" stroke="#63b8ff" d="M1056.37,-63C1065.04,-63 1073.85,-63 1082.64,-63"/>
<polygon fill="#63b8ff" stroke="#63b8ff" points="1056.27,-59.5 1046.27,-63 1056.27,-66.5 1056.27,-59.5"/>
</a>
</g>
</g>
</g>
</svg>
