<?xml version="1.0" encoding="UTF-8" standalone="no"?>
<!DOCTYPE svg PUBLIC "-//W3C//DTD SVG 1.1//EN"
 "http://www.w3.org/Graphics/SVG/1.1/DTD/svg11.dtd">
<!-- Generated by graphviz version 2.43.0 (0)
 -->
<!-- Title: fiftyone.pipeline.engines.fiftyone.flowelements.FiftyOneOnPremiseAspectEngineBuilderBase&lt; TBuilder extends FiftyOneOnPremiseAspectEngineBuilderBase&lt; TBuilder, TEngine, TEngine extends FiftyOneAspectEngine &gt; Pages: 1 -->
<svg width="3258pt" height="391pt"
 viewBox="0.00 0.00 3258.00 390.50" xmlns="http://www.w3.org/2000/svg" xmlns:xlink="http://www.w3.org/1999/xlink">
<g id="graph0" class="graph" transform="scale(1 1) rotate(0) translate(4 386.5)">
<title>fiftyone.pipeline.engines.fiftyone.flowelements.FiftyOneOnPremiseAspectEngineBuilderBase&lt; TBuilder extends FiftyOneOnPremiseAspectEngineBuilderBase&lt; TBuilder, TEngine, TEngine extends FiftyOneAspectEngine &gt;</title>
<!-- Node1 -->
<g id="Node000001" class="node">
<title>Node1</title>
<g id="a_Node000001"><a xlink:title="Abstract base class that exposes the common options that all 51Degrees on&#45;premise engine builders usi...">
<polygon fill="#999999" stroke="#666666" points="3250,-183.5 2905,-183.5 2905,-131.5 3250,-131.5 3250,-183.5"/>
<text text-anchor="start" x="2913" y="-171.5" font-family="Helvetica,sans-Serif" font-size="10.00">fiftyone.pipeline.engines.fiftyone.flowelements.</text>
<text text-anchor="start" x="2913" y="-160.5" font-family="Helvetica,sans-Serif" font-size="10.00">FiftyOneOnPremiseAspectEngineBuilderBase</text>
<text text-anchor="start" x="2913" y="-149.5" font-family="Helvetica,sans-Serif" font-size="10.00">&lt; TBuilder extends FiftyOneOnPremiseAspectEngineBuilder</text>
<text text-anchor="middle" x="3077.5" y="-138.5" font-family="Helvetica,sans-Serif" font-size="10.00">Base&lt; TBuilder, TEngine, TEngine extends FiftyOneAspectEngine &gt;</text>
</a>
</g>
</g>
<!-- Node2 -->
<g id="Node000002" class="node">
<title>Node2</title>
<g id="a_Node000002"><a xlink:href="classfiftyone_1_1pipeline_1_1engines_1_1flowelements_1_1_single_file_aspect_engine_builder_base.html" target="_top" xlink:title="Abstract base class that exposes the common options that all on&#45;premise engine builders using a singl...">
<polygon fill="white" stroke="#666666" points="2868,-156 2601,-156 2601,-93 2868,-93 2868,-156"/>
<text text-anchor="start" x="2609" y="-144" font-family="Helvetica,sans-Serif" font-size="10.00">fiftyone.pipeline.engines.flowelements.</text>
<text text-anchor="start" x="2609" y="-133" font-family="Helvetica,sans-Serif" font-size="10.00">SingleFileAspectEngineBuilderBase</text>
<text text-anchor="start" x="2609" y="-122" font-family="Helvetica,sans-Serif" font-size="10.00">&lt; TBuilder extends OnPremiseAspectEngineBuilder</text>
<text text-anchor="start" x="2609" y="-111" font-family="Helvetica,sans-Serif" font-size="10.00">Base&lt; TBuilder, TEngine, TEngine extends</text>
<text text-anchor="middle" x="2734.5" y="-100" font-family="Helvetica,sans-Serif" font-size="10.00"> OnPremiseAspectEngine &gt;</text>
</a>
</g>
</g>
<!-- Node2&#45;&gt;Node1 -->
<g id="edge1_Node000001_Node000002" class="edge">
<title>Node2&#45;&gt;Node1</title>
<g id="a_edge1_Node000001_Node000002"><a xlink:title=" ">
<path fill="none" stroke="#63b8ff" d="M2878.47,-138.34C2887.16,-139.18 2895.96,-140.03 2904.75,-140.88"/>
<polygon fill="#63b8ff" stroke="#63b8ff" points="2878.61,-134.83 2868.32,-137.35 2877.93,-141.8 2878.61,-134.83"/>
</a>
</g>
</g>
<!-- Node3 -->
<g id="Node000003" class="node">
<title>Node3</title>
<g id="a_Node000003"><a xlink:href="classfiftyone_1_1pipeline_1_1engines_1_1flowelements_1_1_on_premise_aspect_engine_builder_base.html" target="_top" xlink:title=" ">
<polygon fill="white" stroke="#666666" points="2519,-93 2310,-93 2310,-52 2519,-52 2519,-93"/>
<text text-anchor="start" x="2318" y="-81" font-family="Helvetica,sans-Serif" font-size="10.00">fiftyone.pipeline.engines.flowelements.</text>
<text text-anchor="start" x="2318" y="-70" font-family="Helvetica,sans-Serif" font-size="10.00">OnPremiseAspectEngineBuilderBase</text>
<text text-anchor="middle" x="2414.5" y="-59" font-family="Helvetica,sans-Serif" font-size="10.00">&lt; TBuilder, TEngine &gt;</text>
</a>
</g>
</g>
<!-- Node3&#45;&gt;Node2 -->
<g id="edge2_Node000002_Node000003" class="edge">
<title>Node3&#45;&gt;Node2</title>
<g id="a_edge2_Node000002_Node000003"><a xlink:title=" ">
<path fill="none" stroke="#63b8ff" d="M2529.07,-91.07C2552.36,-94.88 2577.07,-98.92 2600.96,-102.83"/>
<polygon fill="#63b8ff" stroke="#63b8ff" points="2529.62,-87.61 2519.19,-89.45 2528.49,-94.52 2529.62,-87.61"/>
</a>
</g>
</g>
<!-- Node4 -->
<g id="Node000004" class="node">
<title>Node4</title>
<g id="a_Node000004"><a xlink:href="classfiftyone_1_1pipeline_1_1engines_1_1flowelements_1_1_on_premise_aspect_engine_builder_base.html" target="_top" xlink:title="Abstract base class that exposes the common options that all 51Degrees on&#45;premise engine builders sho...">
<polygon fill="white" stroke="#666666" points="2148,-96 1881,-96 1881,-33 2148,-33 2148,-96"/>
<text text-anchor="start" x="1889" y="-84" font-family="Helvetica,sans-Serif" font-size="10.00">fiftyone.pipeline.engines.flowelements.</text>
<text text-anchor="start" x="1889" y="-73" font-family="Helvetica,sans-Serif" font-size="10.00">OnPremiseAspectEngineBuilderBase</text>
<text text-anchor="start" x="1889" y="-62" font-family="Helvetica,sans-Serif" font-size="10.00">&lt; TBuilder extends OnPremiseAspectEngineBuilder</text>
<text text-anchor="start" x="1889" y="-51" font-family="Helvetica,sans-Serif" font-size="10.00">Base&lt; TBuilder, TEngine, TEngine extends</text>
<text text-anchor="middle" x="2014.5" y="-40" font-family="Helvetica,sans-Serif" font-size="10.00"> OnPremiseAspectEngine &gt;</text>
</a>
</g>
</g>
<!-- Node4&#45;&gt;Node3 -->
<g id="edge3_Node000003_Node000004" class="edge">
<title>Node4&#45;&gt;Node3</title>
<g id="a_edge3_Node000003_Node000004"><a xlink:title=" ">
<path fill="none" stroke="orange" stroke-dasharray="5,2" d="M2158.3,-67.37C2208.37,-68.38 2263.61,-69.49 2309.86,-70.42"/>
<polygon fill="orange" stroke="orange" points="2158.1,-63.87 2148.03,-67.16 2157.96,-70.86 2158.1,-63.87"/>
</a>
</g>
<text text-anchor="start" x="2180.5" y="-76" font-family="Helvetica,sans-Serif" font-size="10.00" fill="grey">&lt; TBuilder, TEngine &gt;</text>
</g>
<!-- Node5 -->
<g id="Node000005" class="node">
<title>Node5</title>
<g id="a_Node000005"><a xlink:href="classfiftyone_1_1pipeline_1_1engines_1_1flowelements_1_1_aspect_engine_builder_base.html" target="_top" xlink:title=" ">
<polygon fill="white" stroke="#666666" points="1768.5,-41 1559.5,-41 1559.5,0 1768.5,0 1768.5,-41"/>
<text text-anchor="start" x="1567.5" y="-29" font-family="Helvetica,sans-Serif" font-size="10.00">fiftyone.pipeline.engines.flowelements.</text>
<text text-anchor="start" x="1567.5" y="-18" font-family="Helvetica,sans-Serif" font-size="10.00">AspectEngineBuilderBase&lt; TBuilder,</text>
<text text-anchor="middle" x="1664" y="-7" font-family="Helvetica,sans-Serif" font-size="10.00"> TEngine &gt;</text>
</a>
</g>
</g>
<!-- Node5&#45;&gt;Node4 -->
<g id="edge4_Node000004_Node000005" class="edge">
<title>Node5&#45;&gt;Node4</title>
<g id="a_edge4_Node000004_Node000005"><a xlink:title=" ">
<path fill="none" stroke="#63b8ff" d="M1778.64,-34.85C1811.28,-38.97 1847.16,-43.5 1880.84,-47.75"/>
<polygon fill="#63b8ff" stroke="#63b8ff" points="1778.98,-31.36 1768.62,-33.58 1778.1,-38.31 1778.98,-31.36"/>
</a>
</g>
</g>
<!-- Node6 -->
<g id="Node000006" class="node">
<title>Node6</title>
<g id="a_Node000006"><a xlink:href="classfiftyone_1_1pipeline_1_1engines_1_1flowelements_1_1_aspect_engine_builder_base.html" target="_top" xlink:title="Abstract base class that exposes the common options that all 51Degrees engine builders should make us...">
<polygon fill="white" stroke="#666666" points="1389,-127 1180,-127 1180,-64 1389,-64 1389,-127"/>
<text text-anchor="start" x="1188" y="-115" font-family="Helvetica,sans-Serif" font-size="10.00">fiftyone.pipeline.engines.flowelements.</text>
<text text-anchor="start" x="1188" y="-104" font-family="Helvetica,sans-Serif" font-size="10.00">AspectEngineBuilderBase&lt; TBuilder</text>
<text text-anchor="start" x="1188" y="-93" font-family="Helvetica,sans-Serif" font-size="10.00"> extends AspectEngineBuilderBase</text>
<text text-anchor="start" x="1188" y="-82" font-family="Helvetica,sans-Serif" font-size="10.00">&lt; TBuilder, TEngine, TEngine extends</text>
<text text-anchor="middle" x="1284.5" y="-71" font-family="Helvetica,sans-Serif" font-size="10.00"> AspectEngine &gt;</text>
</a>
</g>
</g>
<!-- Node6&#45;&gt;Node5 -->
<g id="edge5_Node000005_Node000006" class="edge">
<title>Node6&#45;&gt;Node5</title>
<g id="a_edge5_Node000005_Node000006"><a xlink:title=" ">
<path fill="none" stroke="orange" stroke-dasharray="5,2" d="M1399.23,-72.91C1450.2,-62.78 1509.88,-50.92 1559.58,-41.05"/>
<polygon fill="orange" stroke="orange" points="1398.28,-69.53 1389.15,-74.91 1399.64,-76.39 1398.28,-69.53"/>
</a>
</g>
<text text-anchor="start" x="1410.5" y="-77" font-family="Helvetica,sans-Serif" font-size="10.00" fill="grey">&lt; TBuilder, TEngine &gt;</text>
</g>
<!-- Node7 -->
<g id="Node000007" class="node">
<title>Node7</title>
<g id="a_Node000007"><a xlink:href="classfiftyone_1_1pipeline_1_1engines_1_1configuration_1_1_cache_configuration.html" target="_top" xlink:title="Contains everything needed to build a cache.">
<polygon fill="white" stroke="#666666" points="1012.5,-98.5 806.5,-98.5 806.5,-68.5 1012.5,-68.5 1012.5,-98.5"/>
<text text-anchor="start" x="814.5" y="-86.5" font-family="Helvetica,sans-Serif" font-size="10.00">fiftyone.pipeline.engines.configuration.</text>
<text text-anchor="middle" x="909.5" y="-75.5" font-family="Helvetica,sans-Serif" font-size="10.00">CacheConfiguration</text>
</a>
</g>
</g>
<!-- Node7&#45;&gt;Node6 -->
<g id="edge6_Node000006_Node000007" class="edge">
<title>Node7&#45;&gt;Node6</title>
<g id="a_edge6_Node000006_Node000007"><a xlink:title=" ">
<path fill="none" stroke="#9a32cd" stroke-dasharray="5,2" d="M1022.73,-85.57C1066.23,-86.53 1116.45,-87.83 1162,-89.5 1167.8,-89.71 1173.76,-89.95 1179.78,-90.2"/>
<polygon fill="#9a32cd" stroke="#9a32cd" points="1022.77,-82.07 1012.69,-85.35 1022.62,-89.06 1022.77,-82.07"/>
</a>
</g>
<text text-anchor="start" x="1076" y="-95" font-family="Helvetica,sans-Serif" font-size="10.00" fill="grey">cacheConfig</text>
</g>
<!-- Node8 -->
<g id="Node000008" class="node">
<title>Node8</title>
<g id="a_Node000008"><a xlink:href="interfacefiftyone_1_1pipeline_1_1engines_1_1flowelements_1_1_aspect_engine.html" target="_top" xlink:title="AspectEngines are a subset of FlowElements.">
<polygon fill="white" stroke="#666666" points="1032,-250 787,-250 787,-209 1032,-209 1032,-250"/>
<text text-anchor="start" x="795" y="-238" font-family="Helvetica,sans-Serif" font-size="10.00">fiftyone.pipeline.engines.flowelements.</text>
<text text-anchor="start" x="795" y="-227" font-family="Helvetica,sans-Serif" font-size="10.00">AspectEngine&lt; TData extends AspectData,</text>
<text text-anchor="middle" x="909.5" y="-216" font-family="Helvetica,sans-Serif" font-size="10.00"> TProperty extends AspectPropertyMetaData &gt;</text>
</a>
</g>
</g>
<!-- Node8&#45;&gt;Node6 -->
<g id="edge7_Node000006_Node000008" class="edge">
<title>Node8&#45;&gt;Node6</title>
<g id="a_edge7_Node000006_Node000008"><a xlink:title=" ">
<path fill="none" stroke="orange" stroke-dasharray="5,2" d="M952.03,-203.67C979.11,-187.72 1015.69,-167.82 1050,-154.5 1091.41,-138.42 1138.67,-125.52 1179.79,-115.94"/>
<polygon fill="orange" stroke="orange" points="950.02,-200.79 943.22,-208.92 953.61,-206.81 950.02,-200.79"/>
</a>
</g>
<text text-anchor="start" x="1086" y="-160" font-family="Helvetica,sans-Serif" font-size="10.00" fill="grey">TEngine</text>
</g>
<!-- Node17 -->
<g id="Node000017" class="node">
<title>Node17</title>
<g id="a_Node000017"><a xlink:href="interfacefiftyone_1_1pipeline_1_1engines_1_1flowelements_1_1_aspect_engine.html" target="_top" xlink:title=" ">
<polygon fill="white" stroke="#666666" points="1389,-251.5 1180,-251.5 1180,-221.5 1389,-221.5 1389,-251.5"/>
<text text-anchor="start" x="1188" y="-239.5" font-family="Helvetica,sans-Serif" font-size="10.00">fiftyone.pipeline.engines.flowelements.</text>
<text text-anchor="middle" x="1284.5" y="-228.5" font-family="Helvetica,sans-Serif" font-size="10.00">AspectEngine&lt; TData, TProperty &gt;</text>
</a>
</g>
</g>
<!-- Node8&#45;&gt;Node17 -->
<g id="edge19_Node000017_Node000008" class="edge">
<title>Node8&#45;&gt;Node17</title>
<g id="a_edge19_Node000017_Node000008"><a xlink:title=" ">
<path fill="none" stroke="orange" stroke-dasharray="5,2" d="M1042.28,-231.97C1087.43,-232.82 1137.27,-233.76 1179.87,-234.56"/>
<polygon fill="orange" stroke="orange" points="1042.18,-228.47 1032.12,-231.78 1042.05,-235.47 1042.18,-228.47"/>
</a>
</g>
<text text-anchor="start" x="1053" y="-239" font-family="Helvetica,sans-Serif" font-size="10.00" fill="grey">&lt; TData, TProperty &gt;</text>
</g>
<!-- Node9 -->
<g id="Node000009" class="node">
<title>Node9</title>
<g id="a_Node000009"><a xlink:href="interfacefiftyone_1_1pipeline_1_1core_1_1flowelements_1_1_flow_element.html" target="_top" xlink:title="A component that processes a FlowData (by examining its evidence, or by examining data processed by o...">
<polygon fill="white" stroke="#666666" points="697,-250 444,-250 444,-209 697,-209 697,-250"/>
<text text-anchor="start" x="452" y="-238" font-family="Helvetica,sans-Serif" font-size="10.00">fiftyone.pipeline.core.flowelements.</text>
<text text-anchor="start" x="452" y="-227" font-family="Helvetica,sans-Serif" font-size="10.00">FlowElement&lt; TData extends ElementData,</text>
<text text-anchor="middle" x="570.5" y="-216" font-family="Helvetica,sans-Serif" font-size="10.00"> TProperty extends ElementPropertyMetaData &gt;</text>
</a>
</g>
</g>
<!-- Node9&#45;&gt;Node8 -->
<g id="edge8_Node000008_Node000009" class="edge">
<title>Node9&#45;&gt;Node8</title>
<g id="a_edge8_Node000008_Node000009"><a xlink:title=" ">
<path fill="none" stroke="#63b8ff" d="M707.47,-229.5C733.74,-229.5 761.11,-229.5 786.88,-229.5"/>
<polygon fill="#63b8ff" stroke="#63b8ff" points="707.47,-226 697.47,-229.5 707.47,-233 707.47,-226"/>
</a>
</g>
</g>
<!-- Node10 -->
<g id="Node000010" class="node">
<title>Node10</title>
<g id="a_Node000010"><a xlink:title=" ">
<polygon fill="white" stroke="#bfbfbf" points="324,-239 237,-239 237,-220 324,-220 324,-239"/>
<text text-anchor="middle" x="280.5" y="-227" font-family="Helvetica,sans-Serif" font-size="10.00">AutoCloseable</text>
</a>
</g>
</g>
<!-- Node10&#45;&gt;Node9 -->
<g id="edge9_Node000009_Node000010" class="edge">
<title>Node10&#45;&gt;Node9</title>
<g id="a_edge9_Node000009_Node000010"><a xlink:title=" ">
<path fill="none" stroke="#63b8ff" d="M334.37,-229.5C365.15,-229.5 405.37,-229.5 443.82,-229.5"/>
<polygon fill="#63b8ff" stroke="#63b8ff" points="334.31,-226 324.31,-229.5 334.31,-233 334.31,-226"/>
</a>
</g>
</g>
<!-- Node11 -->
<g id="Node000011" class="node">
<title>Node11</title>
<g id="a_Node000011"><a xlink:href="interfacefiftyone_1_1pipeline_1_1core_1_1data_1_1_element_data.html" target="_top" xlink:title="Represents property values that have be determined by a specific FlowElement based on the supplied ev...">
<polygon fill="white" stroke="#666666" points="354,-298.5 207,-298.5 207,-268.5 354,-268.5 354,-298.5"/>
<text text-anchor="start" x="215" y="-286.5" font-family="Helvetica,sans-Serif" font-size="10.00">fiftyone.pipeline.core.data.</text>
<text text-anchor="middle" x="280.5" y="-275.5" font-family="Helvetica,sans-Serif" font-size="10.00">ElementData</text>
</a>
</g>
</g>
<!-- Node11&#45;&gt;Node9 -->
<g id="edge10_Node000009_Node000011" class="edge">
<title>Node11&#45;&gt;Node9</title>
<g id="a_edge10_Node000009_Node000011"><a xlink:title=" ">
<path fill="none" stroke="orange" stroke-dasharray="5,2" d="M363.97,-267.04C366.68,-266.52 369.36,-266 372,-265.5 398.88,-260.38 427.84,-255.01 455.08,-250.03"/>
<polygon fill="orange" stroke="orange" points="363.24,-263.62 354.09,-268.96 364.58,-270.49 363.24,-263.62"/>
</a>
</g>
<text text-anchor="start" x="384" y="-271" font-family="Helvetica,sans-Serif" font-size="10.00" fill="grey">TData</text>
</g>
<!-- Node14 -->
<g id="Node000014" class="node">
<title>Node14</title>
<g id="a_Node000014"><a xlink:href="interfacefiftyone_1_1pipeline_1_1engines_1_1data_1_1_aspect_data.html" target="_top" xlink:title="Represents a specialized ElementData instance that is generated by an AspectEngine.">
<polygon fill="white" stroke="#666666" points="652.5,-309.5 488.5,-309.5 488.5,-279.5 652.5,-279.5 652.5,-309.5"/>
<text text-anchor="start" x="496.5" y="-297.5" font-family="Helvetica,sans-Serif" font-size="10.00">fiftyone.pipeline.engines.data.</text>
<text text-anchor="middle" x="570.5" y="-286.5" font-family="Helvetica,sans-Serif" font-size="10.00">AspectData</text>
</a>
</g>
</g>
<!-- Node11&#45;&gt;Node14 -->
<g id="edge14_Node000014_Node000011" class="edge">
<title>Node11&#45;&gt;Node14</title>
<g id="a_edge14_Node000014_Node000011"><a xlink:title=" ">
<path fill="none" stroke="#63b8ff" d="M364.44,-286.67C403.42,-288.16 449.73,-289.93 488.47,-291.41"/>
<polygon fill="#63b8ff" stroke="#63b8ff" points="364.3,-283.16 354.17,-286.28 364.03,-290.15 364.3,-283.16"/>
</a>
</g>
</g>
<!-- Node12 -->
<g id="Node000012" class="node">
<title>Node12</title>
<g id="a_Node000012"><a xlink:href="interfacefiftyone_1_1pipeline_1_1core_1_1data_1_1_data.html" target="_top" xlink:title="Represents a collection of property values.">
<polygon fill="white" stroke="#666666" points="170,-293 0,-293 0,-274 170,-274 170,-293"/>
<text text-anchor="middle" x="85" y="-281" font-family="Helvetica,sans-Serif" font-size="10.00">fiftyone.pipeline.core.data.Data</text>
</a>
</g>
</g>
<!-- Node12&#45;&gt;Node11 -->
<g id="edge11_Node000011_Node000012" class="edge">
<title>Node12&#45;&gt;Node11</title>
<g id="a_edge11_Node000011_Node000012"><a xlink:title=" ">
<path fill="none" stroke="#63b8ff" d="M180.11,-283.5C189.07,-283.5 198.06,-283.5 206.77,-283.5"/>
<polygon fill="#63b8ff" stroke="#63b8ff" points="180.03,-280 170.03,-283.5 180.03,-287 180.03,-280"/>
</a>
</g>
</g>
<!-- Node13 -->
<g id="Node000013" class="node">
<title>Node13</title>
<g id="a_Node000013"><a xlink:href="interfacefiftyone_1_1pipeline_1_1core_1_1data_1_1_element_property_meta_data.html" target="_top" xlink:title="Defines details of a property that can be returned by a FlowElement.">
<polygon fill="white" stroke="#666666" points="354,-190.5 207,-190.5 207,-160.5 354,-160.5 354,-190.5"/>
<text text-anchor="start" x="215" y="-178.5" font-family="Helvetica,sans-Serif" font-size="10.00">fiftyone.pipeline.core.data.</text>
<text text-anchor="middle" x="280.5" y="-167.5" font-family="Helvetica,sans-Serif" font-size="10.00">ElementPropertyMetaData</text>
</a>
</g>
</g>
<!-- Node13&#45;&gt;Node9 -->
<g id="edge12_Node000009_Node000013" class="edge">
<title>Node13&#45;&gt;Node9</title>
<g id="a_edge12_Node000009_Node000013"><a xlink:title=" ">
<path fill="none" stroke="orange" stroke-dasharray="5,2" d="M364.13,-190.99C394.02,-196.6 428.24,-203.01 460.07,-208.98"/>
<polygon fill="orange" stroke="orange" points="364.65,-187.53 354.17,-189.13 363.36,-194.41 364.65,-187.53"/>
</a>
</g>
<text text-anchor="start" x="375" y="-208" font-family="Helvetica,sans-Serif" font-size="10.00" fill="grey">TProperty</text>
</g>
<!-- Node15 -->
<g id="Node000015" class="node">
<title>Node15</title>
<g id="a_Node000015"><a xlink:href="interfacefiftyone_1_1pipeline_1_1engines_1_1data_1_1_aspect_property_meta_data.html" target="_top" xlink:title="Holds details about a property that can be returned by an AspectEngine.">
<polygon fill="white" stroke="#666666" points="652.5,-179.5 488.5,-179.5 488.5,-149.5 652.5,-149.5 652.5,-179.5"/>
<text text-anchor="start" x="496.5" y="-167.5" font-family="Helvetica,sans-Serif" font-size="10.00">fiftyone.pipeline.engines.data.</text>
<text text-anchor="middle" x="570.5" y="-156.5" font-family="Helvetica,sans-Serif" font-size="10.00">AspectPropertyMetaData</text>
</a>
</g>
</g>
<!-- Node13&#45;&gt;Node15 -->
<g id="edge16_Node000015_Node000013" class="edge">
<title>Node13&#45;&gt;Node15</title>
<g id="a_edge16_Node000015_Node000013"><a xlink:title=" ">
<path fill="none" stroke="#63b8ff" d="M364.44,-172.33C403.42,-170.84 449.73,-169.07 488.47,-167.59"/>
<polygon fill="#63b8ff" stroke="#63b8ff" points="364.03,-168.85 354.17,-172.72 364.3,-175.84 364.03,-168.85"/>
</a>
</g>
</g>
<!-- Node14&#45;&gt;Node8 -->
<g id="edge13_Node000008_Node000014" class="edge">
<title>Node14&#45;&gt;Node8</title>
<g id="a_edge13_Node000008_Node000014"><a xlink:title=" ">
<path fill="none" stroke="orange" stroke-dasharray="5,2" d="M648.59,-277.27C670.06,-272.63 693.41,-267.73 715,-263.5 738.35,-258.93 763.34,-254.32 787.34,-250.04"/>
<polygon fill="orange" stroke="orange" points="647.58,-273.91 638.55,-279.45 649.07,-280.75 647.58,-273.91"/>
</a>
</g>
<text text-anchor="start" x="727" y="-269" font-family="Helvetica,sans-Serif" font-size="10.00" fill="grey">TData</text>
</g>
<!-- Node16 -->
<g id="Node000016" class="node">
<title>Node16</title>
<g id="a_Node000016"><a xlink:href="interfacefiftyone_1_1pipeline_1_1engines_1_1flowelements_1_1_on_premise_aspect_engine.html" target="_top" xlink:title="Aspect engine interface which processes data internally using a data file and populates the results.">
<polygon fill="white" stroke="#666666" points="1788,-127.5 1540,-127.5 1540,-75.5 1788,-75.5 1788,-127.5"/>
<text text-anchor="start" x="1548" y="-115.5" font-family="Helvetica,sans-Serif" font-size="10.00">fiftyone.pipeline.engines.flowelements.</text>
<text text-anchor="start" x="1548" y="-104.5" font-family="Helvetica,sans-Serif" font-size="10.00">OnPremiseAspectEngine&lt; TData extends</text>
<text text-anchor="start" x="1548" y="-93.5" font-family="Helvetica,sans-Serif" font-size="10.00"> AspectData, TProperty extends AspectProperty</text>
<text text-anchor="middle" x="1664" y="-82.5" font-family="Helvetica,sans-Serif" font-size="10.00">MetaData &gt;</text>
</a>
</g>
</g>
<!-- Node14&#45;&gt;Node16 -->
<g id="edge20_Node000016_Node000014" class="edge">
<title>Node14&#45;&gt;Node16</title>
<g id="a_edge20_Node000016_Node000014"><a xlink:title=" ">
<path fill="none" stroke="orange" stroke-dasharray="5,2" d="M662.99,-293.17C861.8,-289.92 1320.93,-280.35 1389,-260.5 1484.3,-232.71 1581.43,-165.07 1630.43,-127.58"/>
<polygon fill="orange" stroke="orange" points="662.8,-289.67 652.85,-293.33 662.91,-296.67 662.8,-289.67"/>
</a>
</g>
<text text-anchor="start" x="1091" y="-289" font-family="Helvetica,sans-Serif" font-size="10.00" fill="grey">TData</text>
</g>
<!-- Node18 -->
<g id="Node000018" class="node">
<title>Node18</title>
<g id="a_Node000018"><a xlink:href="interfacefiftyone_1_1pipeline_1_1engines_1_1fiftyone_1_1flowelements_1_1_fifty_one_aspect_engine.html" target="_top" xlink:title="51Degrees specific Engine interface.">
<polygon fill="white" stroke="#666666" points="2159,-232.5 1870,-232.5 1870,-180.5 2159,-180.5 2159,-232.5"/>
<text text-anchor="start" x="1878" y="-220.5" font-family="Helvetica,sans-Serif" font-size="10.00">fiftyone.pipeline.engines.fiftyone.flowelements.</text>
<text text-anchor="start" x="1878" y="-209.5" font-family="Helvetica,sans-Serif" font-size="10.00">FiftyOneAspectEngine&lt; TData extends</text>
<text text-anchor="start" x="1878" y="-198.5" font-family="Helvetica,sans-Serif" font-size="10.00"> AspectData, TProperty extends FiftyOneAspectProperty</text>
<text text-anchor="middle" x="2014.5" y="-187.5" font-family="Helvetica,sans-Serif" font-size="10.00">MetaData &gt;</text>
</a>
</g>
</g>
<!-- Node14&#45;&gt;Node18 -->
<g id="edge28_Node000018_Node000014" class="edge">
<title>Node14&#45;&gt;Node18</title>
<g id="a_edge28_Node000018_Node000014"><a xlink:title=" ">
<path fill="none" stroke="orange" stroke-dasharray="5,2" d="M624.23,-312.71C689.95,-333.74 806.13,-365.5 908.5,-365.5 908.5,-365.5 908.5,-365.5 1665,-365.5 1791.36,-365.5 1922.12,-277.92 1981.15,-232.76"/>
<polygon fill="orange" stroke="orange" points="625.1,-309.31 614.51,-309.56 622.95,-315.97 625.1,-309.31"/>
</a>
</g>
<text text-anchor="start" x="1269.5" y="-371" font-family="Helvetica,sans-Serif" font-size="10.00" fill="grey">TData</text>
</g>
<!-- Node19 -->
<g id="Node000019" class="node">
<title>Node19</title>
<g id="a_Node000019"><a xlink:href="interfacefiftyone_1_1pipeline_1_1engines_1_1flowelements_1_1_on_premise_aspect_engine.html" target="_top" xlink:title="Aspect engine interface which processes data internally using a data file and populates the results.">
<polygon fill="white" stroke="#666666" points="1788,-259.5 1540,-259.5 1540,-207.5 1788,-207.5 1788,-259.5"/>
<text text-anchor="start" x="1548" y="-247.5" font-family="Helvetica,sans-Serif" font-size="10.00">fiftyone.pipeline.engines.flowelements.</text>
<text text-anchor="start" x="1548" y="-236.5" font-family="Helvetica,sans-Serif" font-size="10.00">OnPremiseAspectEngine&lt; TData extends</text>
<text text-anchor="start" x="1548" y="-225.5" font-family="Helvetica,sans-Serif" font-size="10.00"> AspectData, TProperty extends AspectProperty</text>
<text text-anchor="middle" x="1664" y="-214.5" font-family="Helvetica,sans-Serif" font-size="10.00">MetaData &gt;</text>
</a>
</g>
</g>
<!-- Node14&#45;&gt;Node19 -->
<g id="edge26_Node000019_Node000014" class="edge">
<title>Node14&#45;&gt;Node19</title>
<g id="a_edge26_Node000019_Node000014"><a xlink:title=" ">
<path fill="none" stroke="orange" stroke-dasharray="5,2" d="M662.76,-302.55C680.09,-303.78 698.09,-304.85 715,-305.5 738.98,-306.42 745,-305.73 769,-305.5 1044.59,-302.83 1115.29,-325.8 1389,-293.5 1448.48,-286.48 1514.06,-272.36 1566.14,-259.57"/>
<polygon fill="orange" stroke="orange" points="662.87,-299.05 652.64,-301.81 662.36,-306.03 662.87,-299.05"/>
</a>
</g>
<text text-anchor="start" x="1091" y="-316" font-family="Helvetica,sans-Serif" font-size="10.00" fill="grey">TData</text>
</g>
<!-- Node15&#45;&gt;Node8 -->
<g id="edge15_Node000008_Node000015" class="edge">
<title>Node15&#45;&gt;Node8</title>
<g id="a_edge15_Node000008_Node000015"><a xlink:title=" ">
<path fill="none" stroke="orange" stroke-dasharray="5,2" d="M659.67,-181.51C703.26,-189.91 756.21,-200.13 802.04,-208.97"/>
<polygon fill="orange" stroke="orange" points="660.14,-178.03 649.66,-179.58 658.82,-184.91 660.14,-178.03"/>
</a>
</g>
<text text-anchor="start" x="718" y="-206" font-family="Helvetica,sans-Serif" font-size="10.00" fill="grey">TProperty</text>
</g>
<!-- Node15&#45;&gt;Node16 -->
<g id="edge21_Node000016_Node000015" class="edge">
<title>Node15&#45;&gt;Node16</title>
<g id="a_edge21_Node000016_Node000015"><a xlink:title=" ">
<path fill="none" stroke="orange" stroke-dasharray="5,2" d="M602.41,-143.96C642.83,-118.42 716.79,-76.17 787,-59.5 1052.54,3.53 1375.7,-42.3 1545.6,-75.44"/>
<polygon fill="orange" stroke="orange" points="600.36,-141.11 593.83,-149.45 604.14,-147.01 600.36,-141.11"/>
</a>
</g>
<text text-anchor="start" x="1082" y="-35" font-family="Helvetica,sans-Serif" font-size="10.00" fill="grey">TProperty</text>
</g>
<!-- Node15&#45;&gt;Node19 -->
<g id="edge27_Node000019_Node000015" class="edge">
<title>Node15&#45;&gt;Node19</title>
<g id="a_edge27_Node000019_Node000015"><a xlink:title=" ">
<path fill="none" stroke="orange" stroke-dasharray="5,2" d="M662.91,-169.33C814.06,-177.45 1125.54,-194.67 1389,-212.5 1438.39,-215.84 1492.74,-219.92 1539.94,-223.6"/>
<polygon fill="orange" stroke="orange" points="662.93,-165.83 652.75,-168.79 662.55,-172.82 662.93,-165.83"/>
</a>
</g>
<text text-anchor="start" x="1082" y="-203" font-family="Helvetica,sans-Serif" font-size="10.00" fill="grey">TProperty</text>
</g>
<!-- Node20 -->
<g id="Node000020" class="node">
<title>Node20</title>
<g id="a_Node000020"><a xlink:href="interfacefiftyone_1_1pipeline_1_1engines_1_1fiftyone_1_1data_1_1_fifty_one_aspect_property_meta_data.html" target="_top" xlink:title="51Degrees specific meta data.">
<polygon fill="white" stroke="#666666" points="1011.5,-146.5 807.5,-146.5 807.5,-116.5 1011.5,-116.5 1011.5,-146.5"/>
<text text-anchor="start" x="815.5" y="-134.5" font-family="Helvetica,sans-Serif" font-size="10.00">fiftyone.pipeline.engines.fiftyone.data.</text>
<text text-anchor="middle" x="909.5" y="-123.5" font-family="Helvetica,sans-Serif" font-size="10.00">FiftyOneAspectPropertyMetaData</text>
</a>
</g>
</g>
<!-- Node15&#45;&gt;Node20 -->
<g id="edge30_Node000020_Node000015" class="edge">
<title>Node15&#45;&gt;Node20</title>
<g id="a_edge30_Node000020_Node000015"><a xlink:title=" ">
<path fill="none" stroke="#63b8ff" d="M662.62,-155.58C707.31,-151.2 761.27,-145.92 807.24,-141.42"/>
<polygon fill="#63b8ff" stroke="#63b8ff" points="662.26,-152.1 652.65,-156.55 662.94,-159.06 662.26,-152.1"/>
</a>
</g>
</g>
<!-- Node16&#45;&gt;Node2 -->
<g id="edge22_Node000002_Node000016" class="edge">
<title>Node16&#45;&gt;Node2</title>
<g id="a_edge22_Node000002_Node000016"><a xlink:title=" ">
<path fill="none" stroke="orange" stroke-dasharray="5,2" d="M1798.21,-107.25C1800.83,-107.34 1803.43,-107.42 1806,-107.5 2088.92,-116.11 2420.52,-120.91 2600.62,-123.07"/>
<polygon fill="orange" stroke="orange" points="1798.15,-103.75 1788.03,-106.91 1797.91,-110.75 1798.15,-103.75"/>
</a>
</g>
<text text-anchor="start" x="2214.5" y="-124" font-family="Helvetica,sans-Serif" font-size="10.00" fill="grey">TEngine</text>
</g>
<!-- Node16&#45;&gt;Node4 -->
<g id="edge17_Node000004_Node000016" class="edge">
<title>Node16&#45;&gt;Node4</title>
<g id="a_edge17_Node000004_Node000016"><a xlink:title=" ">
<path fill="none" stroke="orange" stroke-dasharray="5,2" d="M1798.62,-87.31C1825.58,-84.45 1853.92,-81.44 1880.84,-78.58"/>
<polygon fill="orange" stroke="orange" points="1797.93,-83.87 1788.36,-88.4 1798.67,-90.83 1797.93,-83.87"/>
</a>
</g>
<text text-anchor="start" x="1809" y="-92" font-family="Helvetica,sans-Serif" font-size="10.00" fill="grey">TEngine</text>
</g>
<!-- Node17&#45;&gt;Node16 -->
<g id="edge18_Node000016_Node000017" class="edge">
<title>Node17&#45;&gt;Node16</title>
<g id="a_edge18_Node000016_Node000017"><a xlink:title=" ">
<path fill="none" stroke="#63b8ff" d="M1304.68,-213.8C1326.68,-189.47 1365.14,-151.88 1407,-133.5 1448.11,-115.45 1496.28,-106.63 1539.68,-102.57"/>
<polygon fill="#63b8ff" stroke="#63b8ff" points="1301.88,-211.69 1297.87,-221.5 1307.12,-216.33 1301.88,-211.69"/>
</a>
</g>
</g>
<!-- Node17&#45;&gt;Node19 -->
<g id="edge25_Node000019_Node000017" class="edge">
<title>Node17&#45;&gt;Node19</title>
<g id="a_edge25_Node000019_Node000017"><a xlink:title=" ">
<path fill="none" stroke="#63b8ff" d="M1399.39,-235.59C1443.72,-235.24 1494.63,-234.84 1539.81,-234.48"/>
<polygon fill="#63b8ff" stroke="#63b8ff" points="1399.12,-232.1 1389.15,-235.68 1399.18,-239.1 1399.12,-232.1"/>
</a>
</g>
</g>
<!-- Node18&#45;&gt;Node1 -->
<g id="edge23_Node000001_Node000018" class="edge">
<title>Node18&#45;&gt;Node1</title>
<g id="a_edge23_Node000001_Node000018"><a xlink:title=" ">
<path fill="none" stroke="orange" stroke-dasharray="5,2" d="M2169.21,-199.4C2364.64,-190.38 2701.07,-174.84 2904.75,-165.43"/>
<polygon fill="orange" stroke="orange" points="2168.97,-195.91 2159.14,-199.87 2169.29,-202.9 2168.97,-195.91"/>
</a>
</g>
<text text-anchor="start" x="2540" y="-187" font-family="Helvetica,sans-Serif" font-size="10.00" fill="grey">TEngine</text>
</g>
<!-- Node19&#45;&gt;Node18 -->
<g id="edge24_Node000018_Node000019" class="edge">
<title>Node19&#45;&gt;Node18</title>
<g id="a_edge24_Node000018_Node000019"><a xlink:title=" ">
<path fill="none" stroke="#63b8ff" d="M1798.62,-223.15C1821.91,-221.34 1846.21,-219.46 1869.76,-217.64"/>
<polygon fill="#63b8ff" stroke="#63b8ff" points="1798.06,-219.68 1788.36,-223.94 1798.6,-226.66 1798.06,-219.68"/>
</a>
</g>
</g>
<!-- Node20&#45;&gt;Node18 -->
<g id="edge29_Node000018_Node000020" class="edge">
<title>Node20&#45;&gt;Node18</title>
<g id="a_edge29_Node000018_Node000020"><a xlink:title=" ">
<path fill="none" stroke="orange" stroke-dasharray="5,2" d="M1021.61,-131.09C1065.38,-131.39 1116.07,-132.29 1162,-134.5 1230.58,-137.8 1645.26,-173.98 1869.61,-193.76"/>
<polygon fill="orange" stroke="orange" points="1021.53,-127.59 1011.51,-131.04 1021.49,-134.59 1021.53,-127.59"/>
</a>
</g>
<text text-anchor="start" x="1440.5" y="-169" font-family="Helvetica,sans-Serif" font-size="10.00" fill="grey">TProperty</text>
</g>
<!-- Node21 -->
<g id="Node000021" class="node">
<title>Node21</title>
<g id="a_Node000021"><a xlink:title=" ">
<polygon fill="white" stroke="#bfbfbf" points="603,-20 538,-20 538,-1 603,-1 603,-20"/>
<text text-anchor="middle" x="570.5" y="-8" font-family="Helvetica,sans-Serif" font-size="10.00">Closeable</text>
</a>
</g>
</g>
<!-- Node21&#45;&gt;Node20 -->
<g id="edge31_Node000020_Node000021" class="edge">
<title>Node21&#45;&gt;Node20</title>
<g id="a_edge31_Node000020_Node000021"><a xlink:title=" ">
<path fill="none" stroke="#63b8ff" d="M598.19,-24.92C638.16,-45.95 716.41,-84.97 787,-107.5 797.55,-110.87 808.77,-113.85 819.97,-116.47"/>
<polygon fill="#63b8ff" stroke="#63b8ff" points="599.59,-21.7 589.12,-20.11 596.31,-27.88 599.59,-21.7"/>
</a>
</g>
</g>
</g>
</svg>
