<?xml version="1.0" encoding="UTF-8" standalone="no"?>
<!DOCTYPE svg PUBLIC "-//W3C//DTD SVG 1.1//EN"
 "http://www.w3.org/Graphics/SVG/1.1/DTD/svg11.dtd">
<!-- Generated by graphviz version 2.43.0 (0)
 -->
<!-- Title: fiftyone.pipeline.engines.fiftyone.flowelements.FiftyOnePipelineBuilder Pages: 1 -->
<svg width="1061pt" height="127pt"
 viewBox="0.00 0.00 1061.00 126.50" xmlns="http://www.w3.org/2000/svg" xmlns:xlink="http://www.w3.org/1999/xlink">
<g id="graph0" class="graph" transform="scale(1 1) rotate(0) translate(4 122.5)">
<title>fiftyone.pipeline.engines.fiftyone.flowelements.FiftyOnePipelineBuilder</title>
<!-- Node1 -->
<g id="Node000001" class="node">
<title>Node1</title>
<g id="a_Node000001"><a xlink:title="Pipeline builder class that allows the 51Degrees share usage element to be enabled/disabled.">
<polygon fill="#999999" stroke="#666666" points="1053,-42 805,-42 805,-12 1053,-12 1053,-42"/>
<text text-anchor="start" x="813" y="-30" font-family="Helvetica,sans-Serif" font-size="10.00">fiftyone.pipeline.engines.fiftyone.flowelements.</text>
<text text-anchor="middle" x="929" y="-19" font-family="Helvetica,sans-Serif" font-size="10.00">FiftyOnePipelineBuilder</text>
</a>
</g>
</g>
<!-- Node2 -->
<g id="Node000002" class="node">
<title>Node2</title>
<g id="a_Node000002"><a xlink:href="classfiftyone_1_1pipeline_1_1core_1_1flowelements_1_1_pipeline_builder.html" target="_top" xlink:title="The PipelineBuilder follows the fluent builder pattern.">
<polygon fill="white" stroke="#666666" points="768,-42 577,-42 577,-12 768,-12 768,-42"/>
<text text-anchor="start" x="585" y="-30" font-family="Helvetica,sans-Serif" font-size="10.00">fiftyone.pipeline.core.flowelements.</text>
<text text-anchor="middle" x="672.5" y="-19" font-family="Helvetica,sans-Serif" font-size="10.00">PipelineBuilder</text>
</a>
</g>
</g>
<!-- Node2&#45;&gt;Node1 -->
<g id="edge1_Node000001_Node000002" class="edge">
<title>Node2&#45;&gt;Node1</title>
<g id="a_edge1_Node000001_Node000002"><a xlink:title=" ">
<path fill="none" stroke="#63b8ff" d="M778.37,-27C787.04,-27 795.85,-27 804.64,-27"/>
<polygon fill="#63b8ff" stroke="#63b8ff" points="778.27,-23.5 768.27,-27 778.27,-30.5 778.27,-23.5"/>
</a>
</g>
</g>
<!-- Node3 -->
<g id="Node000003" class="node">
<title>Node3</title>
<g id="a_Node000003"><a xlink:href="classfiftyone_1_1pipeline_1_1core_1_1flowelements_1_1_pipeline_builder_base.html" target="_top" xlink:title=" ">
<polygon fill="white" stroke="#666666" points="540,-78 330,-78 330,-48 540,-48 540,-78"/>
<text text-anchor="start" x="338" y="-66" font-family="Helvetica,sans-Serif" font-size="10.00">fiftyone.pipeline.core.flowelements.</text>
<text text-anchor="middle" x="435" y="-55" font-family="Helvetica,sans-Serif" font-size="10.00">PipelineBuilderBase&lt; PipelineBuilder &gt;</text>
</a>
</g>
</g>
<!-- Node3&#45;&gt;Node2 -->
<g id="edge2_Node000002_Node000003" class="edge">
<title>Node3&#45;&gt;Node2</title>
<g id="a_edge2_Node000002_Node000003"><a xlink:title=" ">
<path fill="none" stroke="#63b8ff" d="M544.16,-46.47C555.09,-44.8 566.12,-43.11 576.89,-41.46"/>
<polygon fill="#63b8ff" stroke="#63b8ff" points="543.52,-43.02 534.17,-47.99 544.58,-49.94 543.52,-43.02"/>
</a>
</g>
</g>
<!-- Node4 -->
<g id="Node000004" class="node">
<title>Node4</title>
<g id="a_Node000004"><a xlink:href="classfiftyone_1_1pipeline_1_1core_1_1flowelements_1_1_pipeline_builder_base.html" target="_top" xlink:title="Abstract base class for all Pipeline builders.">
<polygon fill="white" stroke="#666666" points="191,-83.5 0,-83.5 0,-42.5 191,-42.5 191,-83.5"/>
<text text-anchor="start" x="8" y="-71.5" font-family="Helvetica,sans-Serif" font-size="10.00">fiftyone.pipeline.core.flowelements.</text>
<text text-anchor="start" x="8" y="-60.5" font-family="Helvetica,sans-Serif" font-size="10.00">PipelineBuilderBase&lt; T extends</text>
<text text-anchor="middle" x="95.5" y="-49.5" font-family="Helvetica,sans-Serif" font-size="10.00"> PipelineBuilderBase &gt;</text>
</a>
</g>
</g>
<!-- Node4&#45;&gt;Node3 -->
<g id="edge3_Node000003_Node000004" class="edge">
<title>Node4&#45;&gt;Node3</title>
<g id="a_edge3_Node000003_Node000004"><a xlink:title=" ">
<path fill="none" stroke="orange" stroke-dasharray="5,2" d="M201.65,-63C242.44,-63 289.04,-63 329.74,-63"/>
<polygon fill="orange" stroke="orange" points="201.41,-59.5 191.41,-63 201.41,-66.5 201.41,-59.5"/>
</a>
</g>
<text text-anchor="start" x="212.5" y="-68.5" font-family="Helvetica,sans-Serif" font-size="10.00" fill="grey">&lt; PipelineBuilder &gt;</text>
</g>
<!-- Node4&#45;&gt;Node4 -->
<g id="edge4_Node000004_Node000004" class="edge">
<title>Node4&#45;&gt;Node4</title>
<g id="a_edge4_Node000004_Node000004"><a xlink:title=" ">
<path fill="none" stroke="orange" stroke-dasharray="5,2" d="M67.28,-93.46C71.48,-98.24 80.89,-101.5 95.5,-101.5 118.88,-101.5 128.93,-93.15 125.64,-83.6"/>
<polygon fill="orange" stroke="orange" points="70.71,-92.74 65.36,-83.6 63.84,-94.08 70.71,-92.74"/>
</a>
</g>
<text text-anchor="start" x="92.5" y="-107" font-family="Helvetica,sans-Serif" font-size="10.00" fill="grey">T</text>
</g>
<!-- Node5 -->
<g id="Node000005" class="node">
<title>Node5</title>
<g id="a_Node000005"><a xlink:href="interfacefiftyone_1_1pipeline_1_1core_1_1flowelements_1_1_pipeline_builder_from_configuration.html" target="_top" xlink:title="Pipeline builders implementing this interface are capable of building a Pipeline based on a supplied ...">
<polygon fill="white" stroke="#666666" points="530.5,-30 339.5,-30 339.5,0 530.5,0 530.5,-30"/>
<text text-anchor="start" x="347.5" y="-18" font-family="Helvetica,sans-Serif" font-size="10.00">fiftyone.pipeline.core.flowelements.</text>
<text text-anchor="middle" x="435" y="-7" font-family="Helvetica,sans-Serif" font-size="10.00">PipelineBuilderFromConfiguration</text>
</a>
</g>
</g>
<!-- Node5&#45;&gt;Node2 -->
<g id="edge5_Node000002_Node000005" class="edge">
<title>Node5&#45;&gt;Node2</title>
<g id="a_edge5_Node000002_Node000005"><a xlink:title=" ">
<path fill="none" stroke="#63b8ff" d="M540.82,-20.34C552.84,-20.95 565.05,-21.58 576.93,-22.18"/>
<polygon fill="#63b8ff" stroke="#63b8ff" points="540.93,-16.84 530.77,-19.83 540.58,-23.83 540.93,-16.84"/>
</a>
</g>
</g>
</g>
</svg>
