<?xml version="1.0" encoding="UTF-8" standalone="no"?>
<!DOCTYPE svg PUBLIC "-//W3C//DTD SVG 1.1//EN"
 "http://www.w3.org/Graphics/SVG/1.1/DTD/svg11.dtd">
<!-- Generated by graphviz version 2.43.0 (0)
 -->
<!-- Title: fiftyone.pipeline.core.data.DataBase Pages: 1 -->
<svg width="1435pt" height="182pt"
 viewBox="0.00 0.00 1435.00 182.00" xmlns="http://www.w3.org/2000/svg" xmlns:xlink="http://www.w3.org/1999/xlink">
<g id="graph0" class="graph" transform="scale(1 1) rotate(0) translate(4 178)">
<title>fiftyone.pipeline.core.data.DataBase</title>
<!-- Node1 -->
<g id="Node000001" class="node">
<title>Node1</title>
<g id="a_Node000001"><a xlink:title="This implementation of Data stores data values as key/value pairs in a Map where the key is a string ...">
<polygon fill="#999999" stroke="#666666" points="353,-78 206,-78 206,-48 353,-48 353,-78"/>
<text text-anchor="start" x="214" y="-66" font-family="Helvetica,sans-Serif" font-size="10.00">fiftyone.pipeline.core.data.</text>
<text text-anchor="middle" x="279.5" y="-55" font-family="Helvetica,sans-Serif" font-size="10.00">DataBase</text>
</a>
</g>
</g>
<!-- Node3 -->
<g id="Node000003" class="node">
<title>Node3</title>
<g id="a_Node000003"><a xlink:href="classfiftyone_1_1pipeline_1_1core_1_1data_1_1_element_data_base.html" target="_top" xlink:title="Base implementation of ElementData.">
<polygon fill="white" stroke="#666666" points="558,-102 411,-102 411,-72 558,-72 558,-102"/>
<text text-anchor="start" x="419" y="-90" font-family="Helvetica,sans-Serif" font-size="10.00">fiftyone.pipeline.core.data.</text>
<text text-anchor="middle" x="484.5" y="-79" font-family="Helvetica,sans-Serif" font-size="10.00">ElementDataBase</text>
</a>
</g>
</g>
<!-- Node1&#45;&gt;Node3 -->
<g id="edge2_Node000001_Node000003" class="edge">
<title>Node1&#45;&gt;Node3</title>
<g id="a_edge2_Node000001_Node000003"><a xlink:title=" ">
<path fill="none" stroke="#63b8ff" d="M363.46,-72.81C379.2,-74.67 395.56,-76.6 410.95,-78.42"/>
<polygon fill="#63b8ff" stroke="#63b8ff" points="363.56,-69.3 353.21,-71.6 362.73,-76.25 363.56,-69.3"/>
</a>
</g>
</g>
<!-- Node10 -->
<g id="Node000010" class="node">
<title>Node10</title>
<g id="a_Node000010"><a xlink:title=" ">
<polygon fill="white" stroke="#666666" points="580,-54 389,-54 389,-24 580,-24 580,-54"/>
<text text-anchor="start" x="397" y="-42" font-family="Helvetica,sans-Serif" font-size="10.00">fiftyone.pipeline.core.flowelements.</text>
<text text-anchor="middle" x="484.5" y="-31" font-family="Helvetica,sans-Serif" font-size="10.00">EvidenceDefault</text>
</a>
</g>
</g>
<!-- Node1&#45;&gt;Node10 -->
<g id="edge9_Node000001_Node000010" class="edge">
<title>Node1&#45;&gt;Node10</title>
<g id="a_edge9_Node000001_Node000010"><a xlink:title=" ">
<path fill="none" stroke="#63b8ff" d="M363.4,-53.2C371.83,-52.2 380.44,-51.18 388.99,-50.17"/>
<polygon fill="#63b8ff" stroke="#63b8ff" points="362.73,-49.75 353.21,-54.4 363.56,-56.7 362.73,-49.75"/>
</a>
</g>
</g>
<!-- Node2 -->
<g id="Node000002" class="node">
<title>Node2</title>
<g id="a_Node000002"><a xlink:href="interfacefiftyone_1_1pipeline_1_1core_1_1data_1_1_data.html" target="_top" xlink:title="Represents a collection of property values.">
<polygon fill="white" stroke="#666666" points="170,-72.5 0,-72.5 0,-53.5 170,-53.5 170,-72.5"/>
<text text-anchor="middle" x="85" y="-60.5" font-family="Helvetica,sans-Serif" font-size="10.00">fiftyone.pipeline.core.data.Data</text>
</a>
</g>
</g>
<!-- Node2&#45;&gt;Node1 -->
<g id="edge1_Node000001_Node000002" class="edge">
<title>Node2&#45;&gt;Node1</title>
<g id="a_edge1_Node000001_Node000002"><a xlink:title=" ">
<path fill="none" stroke="#63b8ff" d="M180.27,-63C188.91,-63 197.57,-63 205.97,-63"/>
<polygon fill="#63b8ff" stroke="#63b8ff" points="180.15,-59.5 170.15,-63 180.15,-66.5 180.15,-59.5"/>
</a>
</g>
</g>
<!-- Node4 -->
<g id="Node000004" class="node">
<title>Node4</title>
<g id="a_Node000004"><a xlink:href="classfiftyone_1_1pipeline_1_1engines_1_1data_1_1_aspect_data_base.html" target="_top" xlink:title="Abstract base class for AspectData which overrides the.">
<polygon fill="white" stroke="#666666" points="823.5,-174 659.5,-174 659.5,-144 823.5,-144 823.5,-174"/>
<text text-anchor="start" x="667.5" y="-162" font-family="Helvetica,sans-Serif" font-size="10.00">fiftyone.pipeline.engines.data.</text>
<text text-anchor="middle" x="741.5" y="-151" font-family="Helvetica,sans-Serif" font-size="10.00">AspectDataBase</text>
</a>
</g>
</g>
<!-- Node3&#45;&gt;Node4 -->
<g id="edge3_Node000003_Node000004" class="edge">
<title>Node3&#45;&gt;Node4</title>
<g id="a_edge3_Node000003_Node000004"><a xlink:title=" ">
<path fill="none" stroke="#63b8ff" d="M531.05,-105.82C555.85,-115.54 587.26,-127 616,-135 629.89,-138.87 644.82,-142.32 659.36,-145.33"/>
<polygon fill="#63b8ff" stroke="#63b8ff" points="532.13,-102.48 521.55,-102.05 529.55,-108.99 532.13,-102.48"/>
</a>
</g>
</g>
<!-- Node7 -->
<g id="Node000007" class="node">
<title>Node7</title>
<g id="a_Node000007"><a xlink:href="classfiftyone_1_1pipeline_1_1engines_1_1fiftyone_1_1data_1_1_set_headers_data.html" target="_top" xlink:title="Data containing the result of SetHeadersElement.">
<polygon fill="white" stroke="#666666" points="843.5,-126 639.5,-126 639.5,-96 843.5,-96 843.5,-126"/>
<text text-anchor="start" x="647.5" y="-114" font-family="Helvetica,sans-Serif" font-size="10.00">fiftyone.pipeline.engines.fiftyone.data.</text>
<text text-anchor="middle" x="741.5" y="-103" font-family="Helvetica,sans-Serif" font-size="10.00">SetHeadersData</text>
</a>
</g>
</g>
<!-- Node3&#45;&gt;Node7 -->
<g id="edge6_Node000003_Node000007" class="edge">
<title>Node3&#45;&gt;Node7</title>
<g id="a_edge6_Node000003_Node000007"><a xlink:title=" ">
<path fill="none" stroke="#63b8ff" d="M568.44,-94.81C591,-96.93 615.69,-99.25 639.14,-101.46"/>
<polygon fill="#63b8ff" stroke="#63b8ff" points="568.52,-91.3 558.23,-93.85 567.86,-98.27 568.52,-91.3"/>
</a>
</g>
</g>
<!-- Node8 -->
<g id="Node000008" class="node">
<title>Node8</title>
<g id="a_Node000008"><a xlink:href="classfiftyone_1_1pipeline_1_1javascriptbuilder_1_1flowelements_1_1_java_script_builder_data_internal.html" target="_top" xlink:title="[class]">
<polygon fill="white" stroke="#666666" points="867,-78 616,-78 616,-48 867,-48 867,-78"/>
<text text-anchor="start" x="624" y="-66" font-family="Helvetica,sans-Serif" font-size="10.00">fiftyone.pipeline.javascriptbuilder.flowelements.</text>
<text text-anchor="middle" x="741.5" y="-55" font-family="Helvetica,sans-Serif" font-size="10.00">JavaScriptBuilderDataInternal</text>
</a>
</g>
</g>
<!-- Node3&#45;&gt;Node8 -->
<g id="edge7_Node000003_Node000008" class="edge">
<title>Node3&#45;&gt;Node8</title>
<g id="a_edge7_Node000003_Node000008"><a xlink:title=" ">
<path fill="none" stroke="#63b8ff" d="M568.51,-79.19C583.59,-77.77 599.63,-76.26 615.61,-74.75"/>
<polygon fill="#63b8ff" stroke="#63b8ff" points="567.86,-75.73 558.23,-80.15 568.52,-82.7 567.86,-75.73"/>
</a>
</g>
</g>
<!-- Node9 -->
<g id="Node000009" class="node">
<title>Node9</title>
<g id="a_Node000009"><a xlink:href="classfiftyone_1_1pipeline_1_1jsonbuilder_1_1flowelements_1_1_json_builder_data_internal.html" target="_top" xlink:title="[class]">
<polygon fill="white" stroke="#666666" points="853.5,-30 629.5,-30 629.5,0 853.5,0 853.5,-30"/>
<text text-anchor="start" x="637.5" y="-18" font-family="Helvetica,sans-Serif" font-size="10.00">fiftyone.pipeline.jsonbuilder.flowelements.</text>
<text text-anchor="middle" x="741.5" y="-7" font-family="Helvetica,sans-Serif" font-size="10.00">JsonBuilderDataInternal</text>
</a>
</g>
</g>
<!-- Node3&#45;&gt;Node9 -->
<g id="edge8_Node000003_Node000009" class="edge">
<title>Node3&#45;&gt;Node9</title>
<g id="a_edge8_Node000003_Node000009"><a xlink:title=" ">
<path fill="none" stroke="#63b8ff" d="M565.48,-68.76C570.46,-66.99 575.33,-65.07 580,-63 597.57,-55.19 598.21,-46.3 616,-39 624.45,-35.53 633.44,-32.56 642.56,-30.01"/>
<polygon fill="#63b8ff" stroke="#63b8ff" points="564.2,-65.5 555.82,-71.99 566.42,-72.14 564.2,-65.5"/>
</a>
</g>
</g>
<!-- Node5 -->
<g id="Node000005" class="node">
<title>Node5</title>
<g id="a_Node000005"><a xlink:href="classfiftyone_1_1pipeline_1_1cloudrequestengine_1_1flowelements_1_1_cloud_request_data_internal.html" target="_top" xlink:title=" ">
<polygon fill="white" stroke="#bfbfbf" points="1169,-174 903,-174 903,-144 1169,-144 1169,-174"/>
<text text-anchor="start" x="911" y="-162" font-family="Helvetica,sans-Serif" font-size="10.00">fiftyone.pipeline.cloudrequestengine.flowelements.</text>
<text text-anchor="middle" x="1036" y="-151" font-family="Helvetica,sans-Serif" font-size="10.00">CloudRequestDataInternal</text>
</a>
</g>
</g>
<!-- Node4&#45;&gt;Node5 -->
<g id="edge4_Node000004_Node000005" class="edge">
<title>Node4&#45;&gt;Node5</title>
<g id="a_edge4_Node000004_Node000005"><a xlink:title=" ">
<path fill="none" stroke="#63b8ff" d="M833.84,-159C855.75,-159 879.58,-159 902.92,-159"/>
<polygon fill="#63b8ff" stroke="#63b8ff" points="833.59,-155.5 823.59,-159 833.59,-162.5 833.59,-155.5"/>
</a>
</g>
</g>
<!-- Node6 -->
<g id="Node000006" class="node">
<title>Node6</title>
<g id="a_Node000006"><a xlink:href="classfiftyone_1_1pipeline_1_1cloudrequestengine_1_1data_1_1_cloud_request_data.html" target="_top" xlink:title=" ">
<polygon fill="white" stroke="#bfbfbf" points="1427,-174 1205,-174 1205,-144 1427,-144 1427,-174"/>
<text text-anchor="start" x="1213" y="-162" font-family="Helvetica,sans-Serif" font-size="10.00">fiftyone.pipeline.cloudrequestengine.data.</text>
<text text-anchor="middle" x="1316" y="-151" font-family="Helvetica,sans-Serif" font-size="10.00">CloudRequestData</text>
</a>
</g>
</g>
<!-- Node5&#45;&gt;Node6 -->
<g id="edge5_Node000005_Node000006" class="edge">
<title>Node5&#45;&gt;Node6</title>
<g id="a_edge5_Node000005_Node000006"><a xlink:title=" ">
<path fill="none" stroke="#63b8ff" d="M1179.14,-159C1187.7,-159 1196.25,-159 1204.66,-159"/>
<polygon fill="#63b8ff" stroke="#63b8ff" points="1179.08,-155.5 1169.08,-159 1179.08,-162.5 1179.08,-155.5"/>
</a>
</g>
</g>
</g>
</svg>
