<?xml version="1.0" encoding="UTF-8" standalone="no"?>
<!DOCTYPE svg PUBLIC "-//W3C//DTD SVG 1.1//EN"
 "http://www.w3.org/Graphics/SVG/1.1/DTD/svg11.dtd">
<!-- Generated by graphviz version 2.43.0 (0)
 -->
<!-- Title: fiftyone.pipeline.engines.flowelements.CloudAspectEngineBuilderBase&lt; TBuilder extends CloudAspectEngineBuilderBase&lt; TBuilder, TEngine, TEngine extends CloudAspectEngine &gt; Pages: 1 -->
<svg width="2111pt" height="183pt"
 viewBox="0.00 0.00 2111.00 182.68" xmlns="http://www.w3.org/2000/svg" xmlns:xlink="http://www.w3.org/1999/xlink">
<g id="graph0" class="graph" transform="scale(1 1) rotate(0) translate(4 178.68)">
<title>fiftyone.pipeline.engines.flowelements.CloudAspectEngineBuilderBase&lt; TBuilder extends CloudAspectEngineBuilderBase&lt; TBuilder, TEngine, TEngine extends CloudAspectEngine &gt;</title>
<!-- Node1 -->
<g id="Node000001" class="node">
<title>Node1</title>
<g id="a_Node000001"><a xlink:title="Abstract base class for all cloud engine builders.">
<polygon fill="#999999" stroke="#666666" points="2103,-127.18 1870,-127.18 1870,-64.18 2103,-64.18 2103,-127.18"/>
<text text-anchor="start" x="1878" y="-115.18" font-family="Helvetica,sans-Serif" font-size="10.00">fiftyone.pipeline.engines.flowelements.</text>
<text text-anchor="start" x="1878" y="-104.18" font-family="Helvetica,sans-Serif" font-size="10.00">CloudAspectEngineBuilderBase&lt;</text>
<text text-anchor="start" x="1878" y="-93.18" font-family="Helvetica,sans-Serif" font-size="10.00"> TBuilder extends CloudAspectEngineBuilder</text>
<text text-anchor="start" x="1878" y="-82.18" font-family="Helvetica,sans-Serif" font-size="10.00">Base&lt; TBuilder, TEngine, TEngine extends</text>
<text text-anchor="middle" x="1986.5" y="-71.18" font-family="Helvetica,sans-Serif" font-size="10.00"> CloudAspectEngine &gt;</text>
</a>
</g>
</g>
<!-- Node2 -->
<g id="Node000002" class="node">
<title>Node2</title>
<g id="a_Node000002"><a xlink:href="classfiftyone_1_1pipeline_1_1engines_1_1flowelements_1_1_aspect_engine_builder_base.html" target="_top" xlink:title=" ">
<polygon fill="white" stroke="#666666" points="1768.5,-84.18 1559.5,-84.18 1559.5,-43.18 1768.5,-43.18 1768.5,-84.18"/>
<text text-anchor="start" x="1567.5" y="-72.18" font-family="Helvetica,sans-Serif" font-size="10.00">fiftyone.pipeline.engines.flowelements.</text>
<text text-anchor="start" x="1567.5" y="-61.18" font-family="Helvetica,sans-Serif" font-size="10.00">AspectEngineBuilderBase&lt; TBuilder,</text>
<text text-anchor="middle" x="1664" y="-50.18" font-family="Helvetica,sans-Serif" font-size="10.00"> TEngine &gt;</text>
</a>
</g>
</g>
<!-- Node2&#45;&gt;Node1 -->
<g id="edge1_Node000001_Node000002" class="edge">
<title>Node2&#45;&gt;Node1</title>
<g id="a_edge1_Node000001_Node000002"><a xlink:title=" ">
<path fill="none" stroke="#63b8ff" d="M1778.94,-75.06C1808.41,-78 1840.18,-81.17 1869.75,-84.12"/>
<polygon fill="#63b8ff" stroke="#63b8ff" points="1778.91,-71.54 1768.61,-74.03 1778.22,-78.5 1778.91,-71.54"/>
</a>
</g>
</g>
<!-- Node3 -->
<g id="Node000003" class="node">
<title>Node3</title>
<g id="a_Node000003"><a xlink:href="classfiftyone_1_1pipeline_1_1engines_1_1flowelements_1_1_aspect_engine_builder_base.html" target="_top" xlink:title="Abstract base class that exposes the common options that all 51Degrees engine builders should make us...">
<polygon fill="white" stroke="#666666" points="1389,-95.18 1180,-95.18 1180,-32.18 1389,-32.18 1389,-95.18"/>
<text text-anchor="start" x="1188" y="-83.18" font-family="Helvetica,sans-Serif" font-size="10.00">fiftyone.pipeline.engines.flowelements.</text>
<text text-anchor="start" x="1188" y="-72.18" font-family="Helvetica,sans-Serif" font-size="10.00">AspectEngineBuilderBase&lt; TBuilder</text>
<text text-anchor="start" x="1188" y="-61.18" font-family="Helvetica,sans-Serif" font-size="10.00"> extends AspectEngineBuilderBase</text>
<text text-anchor="start" x="1188" y="-50.18" font-family="Helvetica,sans-Serif" font-size="10.00">&lt; TBuilder, TEngine, TEngine extends</text>
<text text-anchor="middle" x="1284.5" y="-39.18" font-family="Helvetica,sans-Serif" font-size="10.00"> AspectEngine &gt;</text>
</a>
</g>
</g>
<!-- Node3&#45;&gt;Node2 -->
<g id="edge2_Node000002_Node000003" class="edge">
<title>Node3&#45;&gt;Node2</title>
<g id="a_edge2_Node000002_Node000003"><a xlink:title=" ">
<path fill="none" stroke="orange" stroke-dasharray="5,2" d="M1399.2,-63.68C1450.07,-63.68 1509.62,-63.68 1559.25,-63.68"/>
<polygon fill="orange" stroke="orange" points="1399.15,-60.18 1389.15,-63.68 1399.15,-67.18 1399.15,-60.18"/>
</a>
</g>
<text text-anchor="start" x="1410.5" y="-69.18" font-family="Helvetica,sans-Serif" font-size="10.00" fill="grey">&lt; TBuilder, TEngine &gt;</text>
</g>
<!-- Node4 -->
<g id="Node000004" class="node">
<title>Node4</title>
<g id="a_Node000004"><a xlink:href="interfacefiftyone_1_1pipeline_1_1engines_1_1flowelements_1_1_aspect_engine.html" target="_top" xlink:title="AspectEngines are a subset of FlowElements.">
<polygon fill="white" stroke="#666666" points="1032,-106.18 787,-106.18 787,-65.18 1032,-65.18 1032,-106.18"/>
<text text-anchor="start" x="795" y="-94.18" font-family="Helvetica,sans-Serif" font-size="10.00">fiftyone.pipeline.engines.flowelements.</text>
<text text-anchor="start" x="795" y="-83.18" font-family="Helvetica,sans-Serif" font-size="10.00">AspectEngine&lt; TData extends AspectData,</text>
<text text-anchor="middle" x="909.5" y="-72.18" font-family="Helvetica,sans-Serif" font-size="10.00"> TProperty extends AspectPropertyMetaData &gt;</text>
</a>
</g>
</g>
<!-- Node4&#45;&gt;Node3 -->
<g id="edge3_Node000003_Node000004" class="edge">
<title>Node4&#45;&gt;Node3</title>
<g id="a_edge3_Node000003_Node000004"><a xlink:title=" ">
<path fill="none" stroke="orange" stroke-dasharray="5,2" d="M1042.28,-77.91C1087.43,-75.25 1137.27,-72.31 1179.87,-69.79"/>
<polygon fill="orange" stroke="orange" points="1041.89,-74.42 1032.12,-78.51 1042.31,-81.41 1041.89,-74.42"/>
</a>
</g>
<text text-anchor="start" x="1086" y="-83.18" font-family="Helvetica,sans-Serif" font-size="10.00" fill="grey">TEngine</text>
</g>
<!-- Node13 -->
<g id="Node000013" class="node">
<title>Node13</title>
<g id="a_Node000013"><a xlink:href="interfacefiftyone_1_1pipeline_1_1engines_1_1flowelements_1_1_aspect_engine.html" target="_top" xlink:title=" ">
<polygon fill="white" stroke="#666666" points="1389,-143.68 1180,-143.68 1180,-113.68 1389,-113.68 1389,-143.68"/>
<text text-anchor="start" x="1188" y="-131.68" font-family="Helvetica,sans-Serif" font-size="10.00">fiftyone.pipeline.engines.flowelements.</text>
<text text-anchor="middle" x="1284.5" y="-120.68" font-family="Helvetica,sans-Serif" font-size="10.00">AspectEngine&lt; TData, TProperty &gt;</text>
</a>
</g>
</g>
<!-- Node4&#45;&gt;Node13 -->
<g id="edge15_Node000013_Node000004" class="edge">
<title>Node4&#45;&gt;Node13</title>
<g id="a_edge15_Node000013_Node000004"><a xlink:title=" ">
<path fill="none" stroke="orange" stroke-dasharray="5,2" d="M1042.28,-100.87C1087.43,-106.08 1137.27,-111.82 1179.87,-116.73"/>
<polygon fill="orange" stroke="orange" points="1042.45,-97.37 1032.12,-99.7 1041.65,-104.32 1042.45,-97.37"/>
</a>
</g>
<text text-anchor="start" x="1053" y="-119.18" font-family="Helvetica,sans-Serif" font-size="10.00" fill="grey">&lt; TData, TProperty &gt;</text>
</g>
<!-- Node5 -->
<g id="Node000005" class="node">
<title>Node5</title>
<g id="a_Node000005"><a xlink:href="interfacefiftyone_1_1pipeline_1_1core_1_1flowelements_1_1_flow_element.html" target="_top" xlink:title="A component that processes a FlowData (by examining its evidence, or by examining data processed by o...">
<polygon fill="white" stroke="#666666" points="697,-106.18 444,-106.18 444,-65.18 697,-65.18 697,-106.18"/>
<text text-anchor="start" x="452" y="-94.18" font-family="Helvetica,sans-Serif" font-size="10.00">fiftyone.pipeline.core.flowelements.</text>
<text text-anchor="start" x="452" y="-83.18" font-family="Helvetica,sans-Serif" font-size="10.00">FlowElement&lt; TData extends ElementData,</text>
<text text-anchor="middle" x="570.5" y="-72.18" font-family="Helvetica,sans-Serif" font-size="10.00"> TProperty extends ElementPropertyMetaData &gt;</text>
</a>
</g>
</g>
<!-- Node5&#45;&gt;Node4 -->
<g id="edge4_Node000004_Node000005" class="edge">
<title>Node5&#45;&gt;Node4</title>
<g id="a_edge4_Node000004_Node000005"><a xlink:title=" ">
<path fill="none" stroke="#63b8ff" d="M707.47,-85.68C733.74,-85.68 761.11,-85.68 786.88,-85.68"/>
<polygon fill="#63b8ff" stroke="#63b8ff" points="707.47,-82.18 697.47,-85.68 707.47,-89.18 707.47,-82.18"/>
</a>
</g>
</g>
<!-- Node6 -->
<g id="Node000006" class="node">
<title>Node6</title>
<g id="a_Node000006"><a xlink:title=" ">
<polygon fill="white" stroke="#bfbfbf" points="324,-95.18 237,-95.18 237,-76.18 324,-76.18 324,-95.18"/>
<text text-anchor="middle" x="280.5" y="-83.18" font-family="Helvetica,sans-Serif" font-size="10.00">AutoCloseable</text>
</a>
</g>
</g>
<!-- Node6&#45;&gt;Node5 -->
<g id="edge5_Node000005_Node000006" class="edge">
<title>Node6&#45;&gt;Node5</title>
<g id="a_edge5_Node000005_Node000006"><a xlink:title=" ">
<path fill="none" stroke="#63b8ff" d="M334.37,-85.68C365.15,-85.68 405.37,-85.68 443.82,-85.68"/>
<polygon fill="#63b8ff" stroke="#63b8ff" points="334.31,-82.18 324.31,-85.68 334.31,-89.18 334.31,-82.18"/>
</a>
</g>
</g>
<!-- Node7 -->
<g id="Node000007" class="node">
<title>Node7</title>
<g id="a_Node000007"><a xlink:href="interfacefiftyone_1_1pipeline_1_1core_1_1data_1_1_element_data.html" target="_top" xlink:title="Represents property values that have be determined by a specific FlowElement based on the supplied ev...">
<polygon fill="white" stroke="#666666" points="354,-46.68 207,-46.68 207,-16.68 354,-16.68 354,-46.68"/>
<text text-anchor="start" x="215" y="-34.68" font-family="Helvetica,sans-Serif" font-size="10.00">fiftyone.pipeline.core.data.</text>
<text text-anchor="middle" x="280.5" y="-23.68" font-family="Helvetica,sans-Serif" font-size="10.00">ElementData</text>
</a>
</g>
</g>
<!-- Node7&#45;&gt;Node5 -->
<g id="edge6_Node000005_Node000007" class="edge">
<title>Node7&#45;&gt;Node5</title>
<g id="a_edge6_Node000005_Node000007"><a xlink:title=" ">
<path fill="none" stroke="orange" stroke-dasharray="5,2" d="M364.13,-47.17C394.02,-52.78 428.24,-59.2 460.07,-65.16"/>
<polygon fill="orange" stroke="orange" points="364.65,-43.71 354.17,-45.31 363.36,-50.59 364.65,-43.71"/>
</a>
</g>
<text text-anchor="start" x="384" y="-64.18" font-family="Helvetica,sans-Serif" font-size="10.00" fill="grey">TData</text>
</g>
<!-- Node10 -->
<g id="Node000010" class="node">
<title>Node10</title>
<g id="a_Node000010"><a xlink:href="interfacefiftyone_1_1pipeline_1_1engines_1_1data_1_1_aspect_data.html" target="_top" xlink:title="Represents a specialized ElementData instance that is generated by an AspectEngine.">
<polygon fill="white" stroke="#666666" points="652.5,-35.68 488.5,-35.68 488.5,-5.68 652.5,-5.68 652.5,-35.68"/>
<text text-anchor="start" x="496.5" y="-23.68" font-family="Helvetica,sans-Serif" font-size="10.00">fiftyone.pipeline.engines.data.</text>
<text text-anchor="middle" x="570.5" y="-12.68" font-family="Helvetica,sans-Serif" font-size="10.00">AspectData</text>
</a>
</g>
</g>
<!-- Node7&#45;&gt;Node10 -->
<g id="edge10_Node000010_Node000007" class="edge">
<title>Node7&#45;&gt;Node10</title>
<g id="a_edge10_Node000010_Node000007"><a xlink:title=" ">
<path fill="none" stroke="#63b8ff" d="M364.44,-28.51C403.42,-27.02 449.73,-25.26 488.47,-23.78"/>
<polygon fill="#63b8ff" stroke="#63b8ff" points="364.03,-25.03 354.17,-28.9 364.3,-32.02 364.03,-25.03"/>
</a>
</g>
</g>
<!-- Node8 -->
<g id="Node000008" class="node">
<title>Node8</title>
<g id="a_Node000008"><a xlink:href="interfacefiftyone_1_1pipeline_1_1core_1_1data_1_1_data.html" target="_top" xlink:title="Represents a collection of property values.">
<polygon fill="white" stroke="#666666" points="170,-41.18 0,-41.18 0,-22.18 170,-22.18 170,-41.18"/>
<text text-anchor="middle" x="85" y="-29.18" font-family="Helvetica,sans-Serif" font-size="10.00">fiftyone.pipeline.core.data.Data</text>
</a>
</g>
</g>
<!-- Node8&#45;&gt;Node7 -->
<g id="edge7_Node000007_Node000008" class="edge">
<title>Node8&#45;&gt;Node7</title>
<g id="a_edge7_Node000007_Node000008"><a xlink:title=" ">
<path fill="none" stroke="#63b8ff" d="M180.11,-31.68C189.07,-31.68 198.06,-31.68 206.77,-31.68"/>
<polygon fill="#63b8ff" stroke="#63b8ff" points="180.03,-28.18 170.03,-31.68 180.03,-35.18 180.03,-28.18"/>
</a>
</g>
</g>
<!-- Node9 -->
<g id="Node000009" class="node">
<title>Node9</title>
<g id="a_Node000009"><a xlink:href="interfacefiftyone_1_1pipeline_1_1core_1_1data_1_1_element_property_meta_data.html" target="_top" xlink:title="Defines details of a property that can be returned by a FlowElement.">
<polygon fill="white" stroke="#666666" points="354,-154.68 207,-154.68 207,-124.68 354,-124.68 354,-154.68"/>
<text text-anchor="start" x="215" y="-142.68" font-family="Helvetica,sans-Serif" font-size="10.00">fiftyone.pipeline.core.data.</text>
<text text-anchor="middle" x="280.5" y="-131.68" font-family="Helvetica,sans-Serif" font-size="10.00">ElementPropertyMetaData</text>
</a>
</g>
</g>
<!-- Node9&#45;&gt;Node5 -->
<g id="edge8_Node000005_Node000009" class="edge">
<title>Node9&#45;&gt;Node5</title>
<g id="a_edge8_Node000005_Node000009"><a xlink:title=" ">
<path fill="none" stroke="orange" stroke-dasharray="5,2" d="M363.97,-123.22C366.68,-122.7 369.36,-122.18 372,-121.68 398.88,-116.56 427.84,-111.19 455.08,-106.21"/>
<polygon fill="orange" stroke="orange" points="363.24,-119.8 354.09,-125.14 364.58,-126.67 363.24,-119.8"/>
</a>
</g>
<text text-anchor="start" x="375" y="-127.18" font-family="Helvetica,sans-Serif" font-size="10.00" fill="grey">TProperty</text>
</g>
<!-- Node11 -->
<g id="Node000011" class="node">
<title>Node11</title>
<g id="a_Node000011"><a xlink:href="interfacefiftyone_1_1pipeline_1_1engines_1_1data_1_1_aspect_property_meta_data.html" target="_top" xlink:title="Holds details about a property that can be returned by an AspectEngine.">
<polygon fill="white" stroke="#666666" points="652.5,-165.68 488.5,-165.68 488.5,-135.68 652.5,-135.68 652.5,-165.68"/>
<text text-anchor="start" x="496.5" y="-153.68" font-family="Helvetica,sans-Serif" font-size="10.00">fiftyone.pipeline.engines.data.</text>
<text text-anchor="middle" x="570.5" y="-142.68" font-family="Helvetica,sans-Serif" font-size="10.00">AspectPropertyMetaData</text>
</a>
</g>
</g>
<!-- Node9&#45;&gt;Node11 -->
<g id="edge12_Node000011_Node000009" class="edge">
<title>Node9&#45;&gt;Node11</title>
<g id="a_edge12_Node000011_Node000009"><a xlink:title=" ">
<path fill="none" stroke="#63b8ff" d="M364.44,-142.85C403.42,-144.34 449.73,-146.11 488.47,-147.59"/>
<polygon fill="#63b8ff" stroke="#63b8ff" points="364.3,-139.34 354.17,-142.46 364.03,-146.34 364.3,-139.34"/>
</a>
</g>
</g>
<!-- Node10&#45;&gt;Node4 -->
<g id="edge9_Node000004_Node000010" class="edge">
<title>Node10&#45;&gt;Node4</title>
<g id="a_edge9_Node000004_Node000010"><a xlink:title=" ">
<path fill="none" stroke="orange" stroke-dasharray="5,2" d="M659.67,-37.69C703.26,-46.09 756.21,-56.31 802.04,-65.15"/>
<polygon fill="orange" stroke="orange" points="660.14,-34.21 649.66,-35.76 658.82,-41.09 660.14,-34.21"/>
</a>
</g>
<text text-anchor="start" x="727" y="-63.18" font-family="Helvetica,sans-Serif" font-size="10.00" fill="grey">TData</text>
</g>
<!-- Node12 -->
<g id="Node000012" class="node">
<title>Node12</title>
<g id="a_Node000012"><a xlink:href="interfacefiftyone_1_1pipeline_1_1engines_1_1flowelements_1_1_cloud_aspect_engine.html" target="_top" xlink:title="Aspect engine interface which is specific to a cloud engine.">
<polygon fill="white" stroke="#666666" points="1788,-154.68 1540,-154.68 1540,-102.68 1788,-102.68 1788,-154.68"/>
<text text-anchor="start" x="1548" y="-142.68" font-family="Helvetica,sans-Serif" font-size="10.00">fiftyone.pipeline.engines.flowelements.</text>
<text text-anchor="start" x="1548" y="-131.68" font-family="Helvetica,sans-Serif" font-size="10.00">CloudAspectEngine&lt; TData extends</text>
<text text-anchor="start" x="1548" y="-120.68" font-family="Helvetica,sans-Serif" font-size="10.00"> AspectData, TProperty extends AspectProperty</text>
<text text-anchor="middle" x="1664" y="-109.68" font-family="Helvetica,sans-Serif" font-size="10.00">MetaData &gt;</text>
</a>
</g>
</g>
<!-- Node10&#45;&gt;Node12 -->
<g id="edge16_Node000012_Node000010" class="edge">
<title>Node10&#45;&gt;Node12</title>
<g id="a_edge16_Node000012_Node000010"><a xlink:title=" ">
<path fill="none" stroke="orange" stroke-dasharray="5,2" d="M662.84,-12.96C814.51,-1.92 1127.52,13.34 1389,-22.68 1449.78,-31.05 1473.96,-21.51 1522,-59.68 1535.08,-70.07 1526.99,-82.2 1540,-92.68 1544.59,-96.38 1549.55,-99.7 1554.75,-102.68"/>
<polygon fill="orange" stroke="orange" points="662.36,-9.49 652.64,-13.72 662.87,-16.47 662.36,-9.49"/>
</a>
</g>
<text text-anchor="start" x="1091" y="-9.18" font-family="Helvetica,sans-Serif" font-size="10.00" fill="grey">TData</text>
</g>
<!-- Node11&#45;&gt;Node4 -->
<g id="edge11_Node000004_Node000011" class="edge">
<title>Node11&#45;&gt;Node4</title>
<g id="a_edge11_Node000004_Node000011"><a xlink:title=" ">
<path fill="none" stroke="orange" stroke-dasharray="5,2" d="M659.67,-133.67C703.26,-125.27 756.21,-115.05 802.04,-106.21"/>
<polygon fill="orange" stroke="orange" points="658.82,-130.27 649.66,-135.6 660.14,-137.15 658.82,-130.27"/>
</a>
</g>
<text text-anchor="start" x="718" y="-127.18" font-family="Helvetica,sans-Serif" font-size="10.00" fill="grey">TProperty</text>
</g>
<!-- Node11&#45;&gt;Node12 -->
<g id="edge17_Node000012_Node000011" class="edge">
<title>Node11&#45;&gt;Node12</title>
<g id="a_edge17_Node000012_Node000011"><a xlink:title=" ">
<path fill="none" stroke="orange" stroke-dasharray="5,2" d="M662.92,-153.28C814.08,-157.06 1125.58,-162.57 1389,-152.68 1438.39,-150.83 1492.63,-146.55 1539.72,-142.11"/>
<polygon fill="orange" stroke="orange" points="662.85,-149.78 652.76,-153.03 662.67,-156.78 662.85,-149.78"/>
</a>
</g>
<text text-anchor="start" x="1082" y="-163.18" font-family="Helvetica,sans-Serif" font-size="10.00" fill="grey">TProperty</text>
</g>
<!-- Node12&#45;&gt;Node1 -->
<g id="edge13_Node000001_Node000012" class="edge">
<title>Node12&#45;&gt;Node1</title>
<g id="a_edge13_Node000001_Node000012"><a xlink:title=" ">
<path fill="none" stroke="orange" stroke-dasharray="5,2" d="M1798.57,-114.93C1822.3,-112.48 1846.82,-109.96 1870,-107.57"/>
<polygon fill="orange" stroke="orange" points="1798.04,-111.46 1788.46,-115.97 1798.76,-118.43 1798.04,-111.46"/>
</a>
</g>
<text text-anchor="start" x="1809" y="-120.18" font-family="Helvetica,sans-Serif" font-size="10.00" fill="grey">TEngine</text>
</g>
<!-- Node13&#45;&gt;Node12 -->
<g id="edge14_Node000012_Node000013" class="edge">
<title>Node13&#45;&gt;Node12</title>
<g id="a_edge14_Node000012_Node000013"><a xlink:title=" ">
<path fill="none" stroke="#63b8ff" d="M1399.39,-128.68C1443.72,-128.68 1494.63,-128.68 1539.81,-128.68"/>
<polygon fill="#63b8ff" stroke="#63b8ff" points="1399.15,-125.18 1389.15,-128.68 1399.15,-132.18 1399.15,-125.18"/>
</a>
</g>
</g>
</g>
</svg>
