<?xml version="1.0" encoding="UTF-8" standalone="no"?>
<!DOCTYPE svg PUBLIC "-//W3C//DTD SVG 1.1//EN"
 "http://www.w3.org/Graphics/SVG/1.1/DTD/svg11.dtd">
<!-- Generated by graphviz version 2.43.0 (0)
 -->
<!-- Title: fiftyone.pipeline.engines.data.AspectPropertyMetaDataDefault Pages: 1 -->
<svg width="835pt" height="86pt"
 viewBox="0.00 0.00 835.00 86.00" xmlns="http://www.w3.org/2000/svg" xmlns:xlink="http://www.w3.org/1999/xlink">
<g id="graph0" class="graph" transform="scale(1 1) rotate(0) translate(4 82)">
<title>fiftyone.pipeline.engines.data.AspectPropertyMetaDataDefault</title>
<!-- Node1 -->
<g id="Node000001" class="node">
<title>Node1</title>
<g id="a_Node000001"><a xlink:title="Basic implementation of the AspectPropertyMetaData interface.">
<polygon fill="#999999" stroke="#666666" points="576,-54 401,-54 401,-24 576,-24 576,-54"/>
<text text-anchor="start" x="409" y="-42" font-family="Helvetica,sans-Serif" font-size="10.00">fiftyone.pipeline.engines.data.</text>
<text text-anchor="middle" x="488.5" y="-31" font-family="Helvetica,sans-Serif" font-size="10.00">AspectPropertyMetaDataDefault</text>
</a>
</g>
</g>
<!-- Node5 -->
<g id="Node000005" class="node">
<title>Node5</title>
<g id="a_Node000005"><a xlink:href="classfiftyone_1_1pipeline_1_1engines_1_1fiftyone_1_1data_1_1_fifty_one_aspect_property_meta_data_default.html" target="_top" xlink:title=" ">
<polygon fill="white" stroke="#bfbfbf" points="827,-54 612,-54 612,-24 827,-24 827,-54"/>
<text text-anchor="start" x="620" y="-42" font-family="Helvetica,sans-Serif" font-size="10.00">fiftyone.pipeline.engines.fiftyone.data.</text>
<text text-anchor="middle" x="719.5" y="-31" font-family="Helvetica,sans-Serif" font-size="10.00">FiftyOneAspectPropertyMetaDataDefault</text>
</a>
</g>
</g>
<!-- Node1&#45;&gt;Node5 -->
<g id="edge5_Node000001_Node000005" class="edge">
<title>Node1&#45;&gt;Node5</title>
<g id="a_edge5_Node000001_Node000005"><a xlink:title=" ">
<path fill="none" stroke="#63b8ff" d="M586.27,-39C594.69,-39 603.25,-39 611.74,-39"/>
<polygon fill="#63b8ff" stroke="#63b8ff" points="586.08,-35.5 576.08,-39 586.08,-42.5 586.08,-35.5"/>
</a>
</g>
</g>
<!-- Node2 -->
<g id="Node000002" class="node">
<title>Node2</title>
<g id="a_Node000002"><a xlink:href="classfiftyone_1_1pipeline_1_1core_1_1data_1_1_element_property_meta_data_default.html" target="_top" xlink:title="Default implementation of the ElementPropertyMetaData interface.">
<polygon fill="white" stroke="#666666" points="365,-78 183,-78 183,-48 365,-48 365,-78"/>
<text text-anchor="start" x="191" y="-66" font-family="Helvetica,sans-Serif" font-size="10.00">fiftyone.pipeline.core.data.</text>
<text text-anchor="middle" x="274" y="-55" font-family="Helvetica,sans-Serif" font-size="10.00">ElementPropertyMetaDataDefault</text>
</a>
</g>
</g>
<!-- Node2&#45;&gt;Node1 -->
<g id="edge1_Node000001_Node000002" class="edge">
<title>Node2&#45;&gt;Node1</title>
<g id="a_edge1_Node000001_Node000002"><a xlink:title=" ">
<path fill="none" stroke="#63b8ff" d="M375.19,-51.68C383.81,-50.71 392.47,-49.73 400.97,-48.77"/>
<polygon fill="#63b8ff" stroke="#63b8ff" points="374.66,-48.22 365.12,-52.82 375.45,-55.18 374.66,-48.22"/>
</a>
</g>
</g>
<!-- Node3 -->
<g id="Node000003" class="node">
<title>Node3</title>
<g id="a_Node000003"><a xlink:href="interfacefiftyone_1_1pipeline_1_1core_1_1data_1_1_element_property_meta_data.html" target="_top" xlink:title="Defines details of a property that can be returned by a FlowElement.">
<polygon fill="white" stroke="#666666" points="147,-54 0,-54 0,-24 147,-24 147,-54"/>
<text text-anchor="start" x="8" y="-42" font-family="Helvetica,sans-Serif" font-size="10.00">fiftyone.pipeline.core.data.</text>
<text text-anchor="middle" x="73.5" y="-31" font-family="Helvetica,sans-Serif" font-size="10.00">ElementPropertyMetaData</text>
</a>
</g>
</g>
<!-- Node3&#45;&gt;Node2 -->
<g id="edge2_Node000002_Node000003" class="edge">
<title>Node3&#45;&gt;Node2</title>
<g id="a_edge2_Node000002_Node000003"><a xlink:title=" ">
<path fill="none" stroke="#63b8ff" d="M157.21,-49C165.65,-50.02 174.26,-51.06 182.77,-52.09"/>
<polygon fill="#63b8ff" stroke="#63b8ff" points="157.35,-45.49 147.01,-47.77 156.51,-52.44 157.35,-45.49"/>
</a>
</g>
</g>
<!-- Node4 -->
<g id="Node000004" class="node">
<title>Node4</title>
<g id="a_Node000004"><a xlink:href="interfacefiftyone_1_1pipeline_1_1engines_1_1data_1_1_aspect_property_meta_data.html" target="_top" xlink:title="Holds details about a property that can be returned by an AspectEngine.">
<polygon fill="white" stroke="#666666" points="356,-30 192,-30 192,0 356,0 356,-30"/>
<text text-anchor="start" x="200" y="-18" font-family="Helvetica,sans-Serif" font-size="10.00">fiftyone.pipeline.engines.data.</text>
<text text-anchor="middle" x="274" y="-7" font-family="Helvetica,sans-Serif" font-size="10.00">AspectPropertyMetaData</text>
</a>
</g>
</g>
<!-- Node3&#45;&gt;Node4 -->
<g id="edge4_Node000004_Node000003" class="edge">
<title>Node3&#45;&gt;Node4</title>
<g id="a_edge4_Node000004_Node000003"><a xlink:title=" ">
<path fill="none" stroke="#63b8ff" d="M157.05,-29.02C168.6,-27.62 180.45,-26.19 191.97,-24.8"/>
<polygon fill="#63b8ff" stroke="#63b8ff" points="156.51,-25.56 147.01,-30.23 157.35,-32.51 156.51,-25.56"/>
</a>
</g>
</g>
<!-- Node4&#45;&gt;Node1 -->
<g id="edge3_Node000001_Node000004" class="edge">
<title>Node4&#45;&gt;Node1</title>
<g id="a_edge3_Node000001_Node000004"><a xlink:title=" ">
<path fill="none" stroke="#63b8ff" d="M366.29,-25.31C377.81,-26.61 389.56,-27.94 401,-29.23"/>
<polygon fill="#63b8ff" stroke="#63b8ff" points="366.58,-21.82 356.25,-24.18 365.79,-28.78 366.58,-21.82"/>
</a>
</g>
</g>
</g>
</svg>
