<?xml version="1.0" encoding="UTF-8" standalone="no"?>
<!DOCTYPE svg PUBLIC "-//W3C//DTD SVG 1.1//EN"
 "http://www.w3.org/Graphics/SVG/1.1/DTD/svg11.dtd">
<!-- Generated by graphviz version 2.43.0 (0)
 -->
<!-- Title: fiftyone.pipeline.engines.fiftyone.data.SetHeadersData Pages: 1 -->
<svg width="320pt" height="225pt"
 viewBox="0.00 0.00 320.00 225.00" xmlns="http://www.w3.org/2000/svg" xmlns:xlink="http://www.w3.org/1999/xlink">
<g id="graph0" class="graph" transform="scale(1 1) rotate(0) translate(4 221)">
<title>fiftyone.pipeline.engines.fiftyone.data.SetHeadersData</title>
<!-- Node1 -->
<g id="Node000001" class="node">
<title>Node1</title>
<g id="a_Node000001"><a xlink:title="Data containing the result of SetHeadersElement.">
<polygon fill="#999999" stroke="#666666" points="257.5,-30 53.5,-30 53.5,0 257.5,0 257.5,-30"/>
<text text-anchor="start" x="61.5" y="-18" font-family="Helvetica,sans-Serif" font-size="10.00">fiftyone.pipeline.engines.fiftyone.data.</text>
<text text-anchor="middle" x="155.5" y="-7" font-family="Helvetica,sans-Serif" font-size="10.00">SetHeadersData</text>
</a>
</g>
</g>
<!-- Node2 -->
<g id="Node000002" class="node">
<title>Node2</title>
<g id="a_Node000002"><a xlink:href="classfiftyone_1_1pipeline_1_1core_1_1data_1_1_element_data_base.html" target="_top" xlink:title="Base implementation of ElementData.">
<polygon fill="white" stroke="#666666" points="229,-96 82,-96 82,-66 229,-66 229,-96"/>
<text text-anchor="start" x="90" y="-84" font-family="Helvetica,sans-Serif" font-size="10.00">fiftyone.pipeline.core.data.</text>
<text text-anchor="middle" x="155.5" y="-73" font-family="Helvetica,sans-Serif" font-size="10.00">ElementDataBase</text>
</a>
</g>
</g>
<!-- Node2&#45;&gt;Node1 -->
<g id="edge1_Node000001_Node000002" class="edge">
<title>Node2&#45;&gt;Node1</title>
<g id="a_edge1_Node000001_Node000002"><a xlink:title=" ">
<path fill="none" stroke="#63b8ff" d="M155.5,-55.54C155.5,-46.96 155.5,-37.61 155.5,-30.16"/>
<polygon fill="#63b8ff" stroke="#63b8ff" points="152,-55.8 155.5,-65.8 159,-55.8 152,-55.8"/>
</a>
</g>
</g>
<!-- Node3 -->
<g id="Node000003" class="node">
<title>Node3</title>
<g id="a_Node000003"><a xlink:href="classfiftyone_1_1pipeline_1_1core_1_1data_1_1_data_base.html" target="_top" xlink:title="This implementation of Data stores data values as key/value pairs in a Map where the key is a string ...">
<polygon fill="white" stroke="#666666" points="147,-162 0,-162 0,-132 147,-132 147,-162"/>
<text text-anchor="start" x="8" y="-150" font-family="Helvetica,sans-Serif" font-size="10.00">fiftyone.pipeline.core.data.</text>
<text text-anchor="middle" x="73.5" y="-139" font-family="Helvetica,sans-Serif" font-size="10.00">DataBase</text>
</a>
</g>
</g>
<!-- Node3&#45;&gt;Node2 -->
<g id="edge2_Node000002_Node000003" class="edge">
<title>Node3&#45;&gt;Node2</title>
<g id="a_edge2_Node000002_Node000003"><a xlink:title=" ">
<path fill="none" stroke="#63b8ff" d="M99.79,-125.48C112.05,-115.91 126.32,-104.77 137.35,-96.16"/>
<polygon fill="#63b8ff" stroke="#63b8ff" points="97.43,-122.88 91.7,-131.8 101.74,-128.4 97.43,-122.88"/>
</a>
</g>
</g>
<!-- Node4 -->
<g id="Node000004" class="node">
<title>Node4</title>
<g id="a_Node000004"><a xlink:href="interfacefiftyone_1_1pipeline_1_1core_1_1data_1_1_data.html" target="_top" xlink:title="Represents a collection of property values.">
<polygon fill="white" stroke="#666666" points="240.5,-217 70.5,-217 70.5,-198 240.5,-198 240.5,-217"/>
<text text-anchor="middle" x="155.5" y="-205" font-family="Helvetica,sans-Serif" font-size="10.00">fiftyone.pipeline.core.data.Data</text>
</a>
</g>
</g>
<!-- Node4&#45;&gt;Node3 -->
<g id="edge3_Node000003_Node000004" class="edge">
<title>Node4&#45;&gt;Node3</title>
<g id="a_edge3_Node000003_Node000004"><a xlink:title=" ">
<path fill="none" stroke="#63b8ff" d="M135.22,-192.03C122.42,-182.9 105.98,-171.17 93.28,-162.11"/>
<polygon fill="#63b8ff" stroke="#63b8ff" points="133.23,-194.91 143.4,-197.87 137.29,-189.21 133.23,-194.91"/>
</a>
</g>
</g>
<!-- Node5 -->
<g id="Node000005" class="node">
<title>Node5</title>
<g id="a_Node000005"><a xlink:href="interfacefiftyone_1_1pipeline_1_1core_1_1data_1_1_element_data.html" target="_top" xlink:title="Represents property values that have be determined by a specific FlowElement based on the supplied ev...">
<polygon fill="white" stroke="#666666" points="312,-162 165,-162 165,-132 312,-132 312,-162"/>
<text text-anchor="start" x="173" y="-150" font-family="Helvetica,sans-Serif" font-size="10.00">fiftyone.pipeline.core.data.</text>
<text text-anchor="middle" x="238.5" y="-139" font-family="Helvetica,sans-Serif" font-size="10.00">ElementData</text>
</a>
</g>
</g>
<!-- Node4&#45;&gt;Node5 -->
<g id="edge5_Node000005_Node000004" class="edge">
<title>Node4&#45;&gt;Node5</title>
<g id="a_edge5_Node000005_Node000004"><a xlink:title=" ">
<path fill="none" stroke="#63b8ff" d="M176.03,-192.03C188.98,-182.9 205.62,-171.17 218.47,-162.11"/>
<polygon fill="#63b8ff" stroke="#63b8ff" points="173.9,-189.25 167.75,-197.87 177.94,-194.97 173.9,-189.25"/>
</a>
</g>
</g>
<!-- Node5&#45;&gt;Node2 -->
<g id="edge4_Node000002_Node000005" class="edge">
<title>Node5&#45;&gt;Node2</title>
<g id="a_edge4_Node000002_Node000005"><a xlink:title=" ">
<path fill="none" stroke="#63b8ff" d="M211.89,-125.48C199.48,-115.91 185.03,-104.77 173.87,-96.16"/>
<polygon fill="#63b8ff" stroke="#63b8ff" points="210.02,-128.46 220.08,-131.8 214.3,-122.92 210.02,-128.46"/>
</a>
</g>
</g>
</g>
</svg>
