<?xml version="1.0" encoding="UTF-8" standalone="no"?>
<!DOCTYPE svg PUBLIC "-//W3C//DTD SVG 1.1//EN"
 "http://www.w3.org/Graphics/SVG/1.1/DTD/svg11.dtd">
<!-- Generated by graphviz version 2.43.0 (0)
 -->
<!-- Title: fiftyone.pipeline.cloudrequestengine.data.CloudRequestData Pages: 1 -->
<svg width="1321pt" height="86pt"
 viewBox="0.00 0.00 1321.00 86.00" xmlns="http://www.w3.org/2000/svg" xmlns:xlink="http://www.w3.org/1999/xlink">
<g id="graph0" class="graph" transform="scale(1 1) rotate(0) translate(4 82)">
<title>fiftyone.pipeline.cloudrequestengine.data.CloudRequestData</title>
<!-- Node1 -->
<g id="Node000001" class="node">
<title>Node1</title>
<g id="a_Node000001"><a xlink:title=" ">
<polygon fill="#999999" stroke="#666666" points="1313,-54 1091,-54 1091,-24 1313,-24 1313,-54"/>
<text text-anchor="start" x="1099" y="-42" font-family="Helvetica,sans-Serif" font-size="10.00">fiftyone.pipeline.cloudrequestengine.data.</text>
<text text-anchor="middle" x="1202" y="-31" font-family="Helvetica,sans-Serif" font-size="10.00">CloudRequestData</text>
</a>
</g>
</g>
<!-- Node2 -->
<g id="Node000002" class="node">
<title>Node2</title>
<g id="a_Node000002"><a xlink:href="classfiftyone_1_1pipeline_1_1cloudrequestengine_1_1flowelements_1_1_cloud_request_data_internal.html" target="_top" xlink:title=" ">
<polygon fill="white" stroke="#bfbfbf" points="1055,-54 789,-54 789,-24 1055,-24 1055,-54"/>
<text text-anchor="start" x="797" y="-42" font-family="Helvetica,sans-Serif" font-size="10.00">fiftyone.pipeline.cloudrequestengine.flowelements.</text>
<text text-anchor="middle" x="922" y="-31" font-family="Helvetica,sans-Serif" font-size="10.00">CloudRequestDataInternal</text>
</a>
</g>
</g>
<!-- Node2&#45;&gt;Node1 -->
<g id="edge1_Node000001_Node000002" class="edge">
<title>Node2&#45;&gt;Node1</title>
<g id="a_edge1_Node000001_Node000002"><a xlink:title=" ">
<path fill="none" stroke="#63b8ff" d="M1065.14,-39C1073.7,-39 1082.25,-39 1090.66,-39"/>
<polygon fill="#63b8ff" stroke="#63b8ff" points="1065.08,-35.5 1055.08,-39 1065.08,-42.5 1065.08,-35.5"/>
</a>
</g>
</g>
<!-- Node3 -->
<g id="Node000003" class="node">
<title>Node3</title>
<g id="a_Node000003"><a xlink:href="classfiftyone_1_1pipeline_1_1engines_1_1data_1_1_aspect_data_base.html" target="_top" xlink:title="Abstract base class for AspectData which overrides the.">
<polygon fill="white" stroke="#666666" points="753,-54 589,-54 589,-24 753,-24 753,-54"/>
<text text-anchor="start" x="597" y="-42" font-family="Helvetica,sans-Serif" font-size="10.00">fiftyone.pipeline.engines.data.</text>
<text text-anchor="middle" x="671" y="-31" font-family="Helvetica,sans-Serif" font-size="10.00">AspectDataBase</text>
</a>
</g>
</g>
<!-- Node3&#45;&gt;Node2 -->
<g id="edge2_Node000002_Node000003" class="edge">
<title>Node3&#45;&gt;Node2</title>
<g id="a_edge2_Node000002_Node000003"><a xlink:title=" ">
<path fill="none" stroke="#63b8ff" d="M763.29,-39C771.66,-39 780.25,-39 788.9,-39"/>
<polygon fill="#63b8ff" stroke="#63b8ff" points="763.19,-35.5 753.19,-39 763.19,-42.5 763.19,-35.5"/>
</a>
</g>
</g>
<!-- Node4 -->
<g id="Node000004" class="node">
<title>Node4</title>
<g id="a_Node000004"><a xlink:href="classfiftyone_1_1pipeline_1_1core_1_1data_1_1_element_data_base.html" target="_top" xlink:title="Base implementation of ElementData.">
<polygon fill="white" stroke="#666666" points="544.5,-78 397.5,-78 397.5,-48 544.5,-48 544.5,-78"/>
<text text-anchor="start" x="405.5" y="-66" font-family="Helvetica,sans-Serif" font-size="10.00">fiftyone.pipeline.core.data.</text>
<text text-anchor="middle" x="471" y="-55" font-family="Helvetica,sans-Serif" font-size="10.00">ElementDataBase</text>
</a>
</g>
</g>
<!-- Node4&#45;&gt;Node3 -->
<g id="edge3_Node000003_Node000004" class="edge">
<title>Node4&#45;&gt;Node3</title>
<g id="a_edge3_Node000003_Node000004"><a xlink:title=" ">
<path fill="none" stroke="#63b8ff" d="M554.81,-52.96C566.02,-51.6 577.52,-50.21 588.71,-48.85"/>
<polygon fill="#63b8ff" stroke="#63b8ff" points="554.11,-49.52 544.6,-54.2 554.95,-56.47 554.11,-49.52"/>
</a>
</g>
</g>
<!-- Node5 -->
<g id="Node000005" class="node">
<title>Node5</title>
<g id="a_Node000005"><a xlink:href="classfiftyone_1_1pipeline_1_1core_1_1data_1_1_data_base.html" target="_top" xlink:title="This implementation of Data stores data values as key/value pairs in a Map where the key is a string ...">
<polygon fill="white" stroke="#666666" points="353,-78 206,-78 206,-48 353,-48 353,-78"/>
<text text-anchor="start" x="214" y="-66" font-family="Helvetica,sans-Serif" font-size="10.00">fiftyone.pipeline.core.data.</text>
<text text-anchor="middle" x="279.5" y="-55" font-family="Helvetica,sans-Serif" font-size="10.00">DataBase</text>
</a>
</g>
</g>
<!-- Node5&#45;&gt;Node4 -->
<g id="edge4_Node000004_Node000005" class="edge">
<title>Node5&#45;&gt;Node4</title>
<g id="a_edge4_Node000004_Node000005"><a xlink:title=" ">
<path fill="none" stroke="#63b8ff" d="M363.53,-63C374.83,-63 386.37,-63 397.47,-63"/>
<polygon fill="#63b8ff" stroke="#63b8ff" points="363.22,-59.5 353.22,-63 363.22,-66.5 363.22,-59.5"/>
</a>
</g>
</g>
<!-- Node6 -->
<g id="Node000006" class="node">
<title>Node6</title>
<g id="a_Node000006"><a xlink:href="interfacefiftyone_1_1pipeline_1_1core_1_1data_1_1_data.html" target="_top" xlink:title="Represents a collection of property values.">
<polygon fill="white" stroke="#666666" points="170,-48.5 0,-48.5 0,-29.5 170,-29.5 170,-48.5"/>
<text text-anchor="middle" x="85" y="-36.5" font-family="Helvetica,sans-Serif" font-size="10.00">fiftyone.pipeline.core.data.Data</text>
</a>
</g>
</g>
<!-- Node6&#45;&gt;Node5 -->
<g id="edge5_Node000005_Node000006" class="edge">
<title>Node6&#45;&gt;Node5</title>
<g id="a_edge5_Node000005_Node000006"><a xlink:title=" ">
<path fill="none" stroke="#63b8ff" d="M172.55,-49.79C183.73,-51.18 195.08,-52.6 206,-53.96"/>
<polygon fill="#63b8ff" stroke="#63b8ff" points="172.71,-46.28 162.36,-48.52 171.85,-53.23 172.71,-46.28"/>
</a>
</g>
</g>
<!-- Node7 -->
<g id="Node000007" class="node">
<title>Node7</title>
<g id="a_Node000007"><a xlink:href="interfacefiftyone_1_1pipeline_1_1core_1_1data_1_1_element_data.html" target="_top" xlink:title="Represents property values that have be determined by a specific FlowElement based on the supplied ev...">
<polygon fill="white" stroke="#666666" points="353,-30 206,-30 206,0 353,0 353,-30"/>
<text text-anchor="start" x="214" y="-18" font-family="Helvetica,sans-Serif" font-size="10.00">fiftyone.pipeline.core.data.</text>
<text text-anchor="middle" x="279.5" y="-7" font-family="Helvetica,sans-Serif" font-size="10.00">ElementData</text>
</a>
</g>
</g>
<!-- Node6&#45;&gt;Node7 -->
<g id="edge7_Node000007_Node000006" class="edge">
<title>Node6&#45;&gt;Node7</title>
<g id="a_edge7_Node000007_Node000006"><a xlink:title=" ">
<path fill="none" stroke="#63b8ff" d="M172.55,-28.21C183.73,-26.82 195.08,-25.4 206,-24.04"/>
<polygon fill="#63b8ff" stroke="#63b8ff" points="171.85,-24.77 162.36,-29.48 172.71,-31.72 171.85,-24.77"/>
</a>
</g>
</g>
<!-- Node7&#45;&gt;Node4 -->
<g id="edge6_Node000004_Node000007" class="edge">
<title>Node7&#45;&gt;Node4</title>
<g id="a_edge6_Node000004_Node000007"><a xlink:title=" ">
<path fill="none" stroke="#63b8ff" d="M349.9,-32.58C369.88,-37.64 391.47,-43.11 410.77,-48"/>
<polygon fill="#63b8ff" stroke="#63b8ff" points="350.49,-29.12 339.94,-30.06 348.77,-35.9 350.49,-29.12"/>
</a>
</g>
</g>
<!-- Node8 -->
<g id="Node000008" class="node">
<title>Node8</title>
<g id="a_Node000008"><a xlink:href="interfacefiftyone_1_1pipeline_1_1engines_1_1data_1_1_aspect_data.html" target="_top" xlink:title="Represents a specialized ElementData instance that is generated by an AspectEngine.">
<polygon fill="white" stroke="#666666" points="553,-30 389,-30 389,0 553,0 553,-30"/>
<text text-anchor="start" x="397" y="-18" font-family="Helvetica,sans-Serif" font-size="10.00">fiftyone.pipeline.engines.data.</text>
<text text-anchor="middle" x="471" y="-7" font-family="Helvetica,sans-Serif" font-size="10.00">AspectData</text>
</a>
</g>
</g>
<!-- Node7&#45;&gt;Node8 -->
<g id="edge9_Node000008_Node000007" class="edge">
<title>Node7&#45;&gt;Node8</title>
<g id="a_edge9_Node000008_Node000007"><a xlink:title=" ">
<path fill="none" stroke="#63b8ff" d="M363.46,-15C371.92,-15 380.51,-15 388.95,-15"/>
<polygon fill="#63b8ff" stroke="#63b8ff" points="363.22,-11.5 353.22,-15 363.22,-18.5 363.22,-11.5"/>
</a>
</g>
</g>
<!-- Node8&#45;&gt;Node3 -->
<g id="edge8_Node000003_Node000008" class="edge">
<title>Node8&#45;&gt;Node3</title>
<g id="a_edge8_Node000003_Node000008"><a xlink:title=" ">
<path fill="none" stroke="#63b8ff" d="M563.08,-26.04C571.63,-27.08 580.25,-28.12 588.7,-29.15"/>
<polygon fill="#63b8ff" stroke="#63b8ff" points="563.45,-22.56 553.11,-24.83 562.61,-29.51 563.45,-22.56"/>
</a>
</g>
</g>
</g>
</svg>
