<?xml version="1.0" encoding="UTF-8" standalone="no"?>
<!DOCTYPE svg PUBLIC "-//W3C//DTD SVG 1.1//EN"
 "http://www.w3.org/Graphics/SVG/1.1/DTD/svg11.dtd">
<!-- Generated by graphviz version 2.43.0 (0)
 -->
<!-- Title: fiftyone.pipeline.engines.fiftyone.flowelements.FiftyOneOnPremiseAspectEngineBase&lt; TData extends AspectData, TProperty extends FiftyOneAspectPropertyMetaData &gt; Pages: 1 -->
<svg width="3640pt" height="630pt"
 viewBox="0.00 0.00 3640.00 630.00" xmlns="http://www.w3.org/2000/svg" xmlns:xlink="http://www.w3.org/1999/xlink">
<g id="graph0" class="graph" transform="scale(1 1) rotate(0) translate(4 626)">
<title>fiftyone.pipeline.engines.fiftyone.flowelements.FiftyOneOnPremiseAspectEngineBase&lt; TData extends AspectData, TProperty extends FiftyOneAspectPropertyMetaData &gt;</title>
<!-- Node1 -->
<g id="Node000001" class="node">
<title>Node1</title>
<g id="a_Node000001"><a xlink:title="51Degrees specific engine base class.">
<polygon fill="#999999" stroke="#666666" points="3632,-326 3384,-326 3384,-274 3632,-274 3632,-326"/>
<text text-anchor="start" x="3392" y="-314" font-family="Helvetica,sans-Serif" font-size="10.00">fiftyone.pipeline.engines.fiftyone.flowelements.</text>
<text text-anchor="start" x="3392" y="-303" font-family="Helvetica,sans-Serif" font-size="10.00">FiftyOneOnPremiseAspectEngineBase</text>
<text text-anchor="start" x="3392" y="-292" font-family="Helvetica,sans-Serif" font-size="10.00">&lt; TData extends AspectData, TProperty</text>
<text text-anchor="middle" x="3508" y="-281" font-family="Helvetica,sans-Serif" font-size="10.00"> extends FiftyOneAspectPropertyMetaData &gt;</text>
</a>
</g>
</g>
<!-- Node2 -->
<g id="Node000002" class="node">
<title>Node2</title>
<g id="a_Node000002"><a xlink:href="classfiftyone_1_1pipeline_1_1engines_1_1flowelements_1_1_on_premise_aspect_engine_base.html" target="_top" xlink:title="Base class for on&#45;premise aspect engines.">
<polygon fill="white" stroke="#666666" points="2913,-289 2700,-289 2700,-237 2913,-237 2913,-289"/>
<text text-anchor="start" x="2708" y="-277" font-family="Helvetica,sans-Serif" font-size="10.00">fiftyone.pipeline.engines.flowelements.</text>
<text text-anchor="start" x="2708" y="-266" font-family="Helvetica,sans-Serif" font-size="10.00">OnPremiseAspectEngineBase&lt; TData</text>
<text text-anchor="start" x="2708" y="-255" font-family="Helvetica,sans-Serif" font-size="10.00"> extends AspectData, TProperty extends</text>
<text text-anchor="middle" x="2806.5" y="-244" font-family="Helvetica,sans-Serif" font-size="10.00"> AspectPropertyMetaData &gt;</text>
</a>
</g>
</g>
<!-- Node2&#45;&gt;Node1 -->
<g id="edge1_Node000001_Node000002" class="edge">
<title>Node2&#45;&gt;Node1</title>
<g id="a_edge1_Node000001_Node000002"><a xlink:title=" ">
<path fill="none" stroke="#63b8ff" d="M2923.52,-269.14C3050.75,-275.87 3254.05,-286.62 3383.98,-293.49"/>
<polygon fill="#63b8ff" stroke="#63b8ff" points="2923.53,-265.63 2913.36,-268.6 2923.16,-272.62 2923.53,-265.63"/>
</a>
</g>
</g>
<!-- Node3 -->
<g id="Node000003" class="node">
<title>Node3</title>
<g id="a_Node000003"><a xlink:href="classfiftyone_1_1pipeline_1_1engines_1_1flowelements_1_1_aspect_engine_base.html" target="_top" xlink:title=" ">
<polygon fill="white" stroke="#666666" points="2625,-278 2413,-278 2413,-248 2625,-248 2625,-278"/>
<text text-anchor="start" x="2421" y="-266" font-family="Helvetica,sans-Serif" font-size="10.00">fiftyone.pipeline.engines.flowelements.</text>
<text text-anchor="middle" x="2519" y="-255" font-family="Helvetica,sans-Serif" font-size="10.00">AspectEngineBase&lt; TData, TProperty &gt;</text>
</a>
</g>
</g>
<!-- Node3&#45;&gt;Node2 -->
<g id="edge2_Node000002_Node000003" class="edge">
<title>Node3&#45;&gt;Node2</title>
<g id="a_edge2_Node000002_Node000003"><a xlink:title=" ">
<path fill="none" stroke="#63b8ff" d="M2635.15,-263C2656.47,-263 2678.65,-263 2699.67,-263"/>
<polygon fill="#63b8ff" stroke="#63b8ff" points="2635.09,-259.5 2625.09,-263 2635.09,-266.5 2635.09,-259.5"/>
</a>
</g>
</g>
<!-- Node4 -->
<g id="Node000004" class="node">
<title>Node4</title>
<g id="a_Node000004"><a xlink:href="classfiftyone_1_1pipeline_1_1engines_1_1flowelements_1_1_aspect_engine_base.html" target="_top" xlink:title="Base class for AspectEngines to extend.">
<polygon fill="white" stroke="#666666" points="2265,-289 2017,-289 2017,-237 2265,-237 2265,-289"/>
<text text-anchor="start" x="2025" y="-277" font-family="Helvetica,sans-Serif" font-size="10.00">fiftyone.pipeline.engines.flowelements.</text>
<text text-anchor="start" x="2025" y="-266" font-family="Helvetica,sans-Serif" font-size="10.00">AspectEngineBase&lt; TData extends</text>
<text text-anchor="start" x="2025" y="-255" font-family="Helvetica,sans-Serif" font-size="10.00"> AspectData, TProperty extends AspectProperty</text>
<text text-anchor="middle" x="2141" y="-244" font-family="Helvetica,sans-Serif" font-size="10.00">MetaData &gt;</text>
</a>
</g>
</g>
<!-- Node4&#45;&gt;Node3 -->
<g id="edge3_Node000003_Node000004" class="edge">
<title>Node4&#45;&gt;Node3</title>
<g id="a_edge3_Node000003_Node000004"><a xlink:title=" ">
<path fill="none" stroke="orange" stroke-dasharray="5,2" d="M2275.28,-263C2320.45,-263 2370.23,-263 2412.9,-263"/>
<polygon fill="orange" stroke="orange" points="2275.12,-259.5 2265.12,-263 2275.12,-266.5 2275.12,-259.5"/>
</a>
</g>
<text text-anchor="start" x="2286" y="-268.5" font-family="Helvetica,sans-Serif" font-size="10.00" fill="grey">&lt; TData, TProperty &gt;</text>
</g>
<!-- Node5 -->
<g id="Node000005" class="node">
<title>Node5</title>
<g id="a_Node000005"><a xlink:href="classfiftyone_1_1pipeline_1_1core_1_1flowelements_1_1_flow_element_base.html" target="_top" xlink:title="Provides a base class from which authors may create new FlowElements.">
<polygon fill="white" stroke="#666666" points="1383,-425 1192,-425 1192,-373 1383,-373 1383,-425"/>
<text text-anchor="start" x="1200" y="-413" font-family="Helvetica,sans-Serif" font-size="10.00">fiftyone.pipeline.core.flowelements.</text>
<text text-anchor="start" x="1200" y="-402" font-family="Helvetica,sans-Serif" font-size="10.00">FlowElementBase&lt; TData extends</text>
<text text-anchor="start" x="1200" y="-391" font-family="Helvetica,sans-Serif" font-size="10.00"> ElementData, TProperty extends</text>
<text text-anchor="middle" x="1287.5" y="-380" font-family="Helvetica,sans-Serif" font-size="10.00"> ElementPropertyMetaData &gt;</text>
</a>
</g>
</g>
<!-- Node5&#45;&gt;Node4 -->
<g id="edge4_Node000004_Node000005" class="edge">
<title>Node5&#45;&gt;Node4</title>
<g id="a_edge4_Node000004_Node000005"><a xlink:title=" ">
<path fill="none" stroke="#63b8ff" d="M1393.46,-410.4C1539.22,-421.15 1806.68,-422.16 1999,-314 2008.33,-308.75 2007.62,-303.15 2017,-298 2022.94,-294.74 2029.2,-291.76 2035.64,-289.04"/>
<polygon fill="#63b8ff" stroke="#63b8ff" points="1393.41,-406.88 1383.18,-409.61 1392.88,-413.86 1393.41,-406.88"/>
</a>
</g>
</g>
<!-- Node6 -->
<g id="Node000006" class="node">
<title>Node6</title>
<g id="a_Node000006"><a xlink:href="interfacefiftyone_1_1pipeline_1_1core_1_1flowelements_1_1_flow_element.html" target="_top" xlink:title=" ">
<polygon fill="white" stroke="#666666" points="1036,-319 845,-319 845,-289 1036,-289 1036,-319"/>
<text text-anchor="start" x="853" y="-307" font-family="Helvetica,sans-Serif" font-size="10.00">fiftyone.pipeline.core.flowelements.</text>
<text text-anchor="middle" x="940.5" y="-296" font-family="Helvetica,sans-Serif" font-size="10.00">FlowElement&lt; TData, TProperty &gt;</text>
</a>
</g>
</g>
<!-- Node6&#45;&gt;Node5 -->
<g id="edge5_Node000005_Node000006" class="edge">
<title>Node6&#45;&gt;Node5</title>
<g id="a_edge5_Node000005_Node000006"><a xlink:title=" ">
<path fill="none" stroke="#63b8ff" d="M1018.44,-321.55C1057.3,-330.99 1104.99,-343.47 1147,-357 1155.17,-359.63 1156.87,-361.25 1165,-364 1173.94,-367.02 1183.31,-370.01 1192.71,-372.9"/>
<polygon fill="#63b8ff" stroke="#63b8ff" points="1018.79,-318.03 1008.24,-319.09 1017.14,-324.84 1018.79,-318.03"/>
</a>
</g>
</g>
<!-- Node15 -->
<g id="Node000015" class="node">
<title>Node15</title>
<g id="a_Node000015"><a xlink:href="interfacefiftyone_1_1pipeline_1_1engines_1_1flowelements_1_1_aspect_engine.html" target="_top" xlink:title="AspectEngines are a subset of FlowElements.">
<polygon fill="white" stroke="#666666" points="1410,-354.5 1165,-354.5 1165,-313.5 1410,-313.5 1410,-354.5"/>
<text text-anchor="start" x="1173" y="-342.5" font-family="Helvetica,sans-Serif" font-size="10.00">fiftyone.pipeline.engines.flowelements.</text>
<text text-anchor="start" x="1173" y="-331.5" font-family="Helvetica,sans-Serif" font-size="10.00">AspectEngine&lt; TData extends AspectData,</text>
<text text-anchor="middle" x="1287.5" y="-320.5" font-family="Helvetica,sans-Serif" font-size="10.00"> TProperty extends AspectPropertyMetaData &gt;</text>
</a>
</g>
</g>
<!-- Node6&#45;&gt;Node15 -->
<g id="edge17_Node000015_Node000006" class="edge">
<title>Node6&#45;&gt;Node15</title>
<g id="a_edge17_Node000015_Node000006"><a xlink:title=" ">
<path fill="none" stroke="#63b8ff" d="M1046.61,-313.14C1083.91,-316.38 1126.2,-320.06 1164.77,-323.41"/>
<polygon fill="#63b8ff" stroke="#63b8ff" points="1046.49,-309.62 1036.23,-312.24 1045.89,-316.59 1046.49,-309.62"/>
</a>
</g>
</g>
<!-- Node7 -->
<g id="Node000007" class="node">
<title>Node7</title>
<g id="a_Node000007"><a xlink:href="interfacefiftyone_1_1pipeline_1_1core_1_1flowelements_1_1_flow_element.html" target="_top" xlink:title="A component that processes a FlowData (by examining its evidence, or by examining data processed by o...">
<polygon fill="white" stroke="#666666" points="697,-324.5 444,-324.5 444,-283.5 697,-283.5 697,-324.5"/>
<text text-anchor="start" x="452" y="-312.5" font-family="Helvetica,sans-Serif" font-size="10.00">fiftyone.pipeline.core.flowelements.</text>
<text text-anchor="start" x="452" y="-301.5" font-family="Helvetica,sans-Serif" font-size="10.00">FlowElement&lt; TData extends ElementData,</text>
<text text-anchor="middle" x="570.5" y="-290.5" font-family="Helvetica,sans-Serif" font-size="10.00"> TProperty extends ElementPropertyMetaData &gt;</text>
</a>
</g>
</g>
<!-- Node7&#45;&gt;Node6 -->
<g id="edge6_Node000006_Node000007" class="edge">
<title>Node7&#45;&gt;Node6</title>
<g id="a_edge6_Node000006_Node000007"><a xlink:title=" ">
<path fill="none" stroke="orange" stroke-dasharray="5,2" d="M707.12,-304C752.92,-304 803.03,-304 844.95,-304"/>
<polygon fill="orange" stroke="orange" points="707.12,-300.5 697.12,-304 707.12,-307.5 707.12,-300.5"/>
</a>
</g>
<text text-anchor="start" x="718" y="-309.5" font-family="Helvetica,sans-Serif" font-size="10.00" fill="grey">&lt; TData, TProperty &gt;</text>
</g>
<!-- Node8 -->
<g id="Node000008" class="node">
<title>Node8</title>
<g id="a_Node000008"><a xlink:title=" ">
<polygon fill="white" stroke="#bfbfbf" points="324,-319.5 237,-319.5 237,-300.5 324,-300.5 324,-319.5"/>
<text text-anchor="middle" x="280.5" y="-307.5" font-family="Helvetica,sans-Serif" font-size="10.00">AutoCloseable</text>
</a>
</g>
</g>
<!-- Node8&#45;&gt;Node7 -->
<g id="edge7_Node000007_Node000008" class="edge">
<title>Node8&#45;&gt;Node7</title>
<g id="a_edge7_Node000007_Node000008"><a xlink:title=" ">
<path fill="none" stroke="#63b8ff" d="M334.37,-308.9C365.15,-308.26 405.37,-307.42 443.82,-306.62"/>
<polygon fill="#63b8ff" stroke="#63b8ff" points="334.23,-305.4 324.31,-309.11 334.38,-312.4 334.23,-305.4"/>
</a>
</g>
</g>
<!-- Node9 -->
<g id="Node000009" class="node">
<title>Node9</title>
<g id="a_Node000009"><a xlink:href="interfacefiftyone_1_1pipeline_1_1core_1_1data_1_1_element_data.html" target="_top" xlink:title="Represents property values that have be determined by a specific FlowElement based on the supplied ev...">
<polygon fill="white" stroke="#666666" points="354,-416 207,-416 207,-386 354,-386 354,-416"/>
<text text-anchor="start" x="215" y="-404" font-family="Helvetica,sans-Serif" font-size="10.00">fiftyone.pipeline.core.data.</text>
<text text-anchor="middle" x="280.5" y="-393" font-family="Helvetica,sans-Serif" font-size="10.00">ElementData</text>
</a>
</g>
</g>
<!-- Node9&#45;&gt;Node5 -->
<g id="edge13_Node000005_Node000009" class="edge">
<title>Node9&#45;&gt;Node5</title>
<g id="a_edge13_Node000005_Node000009"><a xlink:title=" ">
<path fill="none" stroke="orange" stroke-dasharray="5,2" d="M364.4,-400.84C549.59,-400.47 995.93,-399.58 1191.73,-399.19"/>
<polygon fill="orange" stroke="orange" points="364.17,-397.34 354.18,-400.86 364.19,-404.34 364.17,-397.34"/>
</a>
</g>
<text text-anchor="start" x="756" y="-405.5" font-family="Helvetica,sans-Serif" font-size="10.00" fill="grey">TData</text>
</g>
<!-- Node9&#45;&gt;Node7 -->
<g id="edge8_Node000007_Node000009" class="edge">
<title>Node9&#45;&gt;Node7</title>
<g id="a_edge8_Node000007_Node000009"><a xlink:title=" ">
<path fill="none" stroke="orange" stroke-dasharray="5,2" d="M323.11,-381.73C355.54,-367.23 401.98,-347.59 444,-334 454.34,-330.66 465.26,-327.5 476.18,-324.59"/>
<polygon fill="orange" stroke="orange" points="321.61,-378.57 313.93,-385.86 324.48,-384.95 321.61,-378.57"/>
</a>
</g>
<text text-anchor="start" x="384" y="-364.5" font-family="Helvetica,sans-Serif" font-size="10.00" fill="grey">TData</text>
</g>
<!-- Node16 -->
<g id="Node000016" class="node">
<title>Node16</title>
<g id="a_Node000016"><a xlink:href="interfacefiftyone_1_1pipeline_1_1engines_1_1data_1_1_aspect_data.html" target="_top" xlink:title="Represents a specialized ElementData instance that is generated by an AspectEngine.">
<polygon fill="white" stroke="#666666" points="1022.5,-506 858.5,-506 858.5,-476 1022.5,-476 1022.5,-506"/>
<text text-anchor="start" x="866.5" y="-494" font-family="Helvetica,sans-Serif" font-size="10.00">fiftyone.pipeline.engines.data.</text>
<text text-anchor="middle" x="940.5" y="-483" font-family="Helvetica,sans-Serif" font-size="10.00">AspectData</text>
</a>
</g>
</g>
<!-- Node9&#45;&gt;Node16 -->
<g id="edge19_Node000016_Node000009" class="edge">
<title>Node9&#45;&gt;Node16</title>
<g id="a_edge19_Node000016_Node000009"><a xlink:title=" ">
<path fill="none" stroke="#63b8ff" d="M364.25,-413.87C366.87,-414.26 369.45,-414.63 372,-415 544.91,-439.95 747.88,-466.46 858.14,-480.63"/>
<polygon fill="#63b8ff" stroke="#63b8ff" points="364.5,-410.37 354.09,-412.36 363.47,-417.29 364.5,-410.37"/>
</a>
</g>
</g>
<!-- Node10 -->
<g id="Node000010" class="node">
<title>Node10</title>
<g id="a_Node000010"><a xlink:href="interfacefiftyone_1_1pipeline_1_1core_1_1data_1_1_data.html" target="_top" xlink:title="Represents a collection of property values.">
<polygon fill="white" stroke="#666666" points="170,-410.5 0,-410.5 0,-391.5 170,-391.5 170,-410.5"/>
<text text-anchor="middle" x="85" y="-398.5" font-family="Helvetica,sans-Serif" font-size="10.00">fiftyone.pipeline.core.data.Data</text>
</a>
</g>
</g>
<!-- Node10&#45;&gt;Node9 -->
<g id="edge9_Node000009_Node000010" class="edge">
<title>Node10&#45;&gt;Node9</title>
<g id="a_edge9_Node000009_Node000010"><a xlink:title=" ">
<path fill="none" stroke="#63b8ff" d="M180.11,-401C189.07,-401 198.06,-401 206.77,-401"/>
<polygon fill="#63b8ff" stroke="#63b8ff" points="180.03,-397.5 170.03,-401 180.03,-404.5 180.03,-397.5"/>
</a>
</g>
</g>
<!-- Node11 -->
<g id="Node000011" class="node">
<title>Node11</title>
<g id="a_Node000011"><a xlink:href="interfacefiftyone_1_1pipeline_1_1core_1_1data_1_1_element_property_meta_data.html" target="_top" xlink:title="Defines details of a property that can be returned by a FlowElement.">
<polygon fill="white" stroke="#666666" points="354,-212 207,-212 207,-182 354,-182 354,-212"/>
<text text-anchor="start" x="215" y="-200" font-family="Helvetica,sans-Serif" font-size="10.00">fiftyone.pipeline.core.data.</text>
<text text-anchor="middle" x="280.5" y="-189" font-family="Helvetica,sans-Serif" font-size="10.00">ElementPropertyMetaData</text>
</a>
</g>
</g>
<!-- Node11&#45;&gt;Node5 -->
<g id="edge14_Node000005_Node000011" class="edge">
<title>Node11&#45;&gt;Node5</title>
<g id="a_edge14_Node000005_Node000011"><a xlink:title=" ">
<path fill="none" stroke="orange" stroke-dasharray="5,2" d="M364.1,-200.61C448.09,-204.79 581.88,-212.84 697,-226 772.79,-234.66 967.56,-246.31 1036,-280 1045.87,-284.86 1044.53,-291.4 1054,-297 1091.37,-319.12 1114.21,-298.53 1147,-327 1160.81,-338.99 1151,-352.23 1165,-364 1172.98,-370.71 1182.18,-376.14 1191.88,-380.52"/>
<polygon fill="orange" stroke="orange" points="364.27,-197.12 354.11,-200.12 363.93,-204.11 364.27,-197.12"/>
</a>
</g>
<text text-anchor="start" x="747" y="-244.5" font-family="Helvetica,sans-Serif" font-size="10.00" fill="grey">TProperty</text>
</g>
<!-- Node11&#45;&gt;Node7 -->
<g id="edge10_Node000007_Node000011" class="edge">
<title>Node11&#45;&gt;Node7</title>
<g id="a_edge10_Node000007_Node000011"><a xlink:title=" ">
<path fill="none" stroke="orange" stroke-dasharray="5,2" d="M341.2,-215.62C345.57,-217.33 349.88,-219.13 354,-221 396.27,-240.18 400.95,-256.63 444,-274 452.62,-277.48 461.75,-280.62 470.98,-283.43"/>
<polygon fill="orange" stroke="orange" points="342.16,-212.25 331.57,-212.02 339.71,-218.8 342.16,-212.25"/>
</a>
</g>
<text text-anchor="start" x="375" y="-270.5" font-family="Helvetica,sans-Serif" font-size="10.00" fill="grey">TProperty</text>
</g>
<!-- Node17 -->
<g id="Node000017" class="node">
<title>Node17</title>
<g id="a_Node000017"><a xlink:href="interfacefiftyone_1_1pipeline_1_1engines_1_1data_1_1_aspect_property_meta_data.html" target="_top" xlink:title="Holds details about a property that can be returned by an AspectEngine.">
<polygon fill="white" stroke="#666666" points="1022.5,-170 858.5,-170 858.5,-140 1022.5,-140 1022.5,-170"/>
<text text-anchor="start" x="866.5" y="-158" font-family="Helvetica,sans-Serif" font-size="10.00">fiftyone.pipeline.engines.data.</text>
<text text-anchor="middle" x="940.5" y="-147" font-family="Helvetica,sans-Serif" font-size="10.00">AspectPropertyMetaData</text>
</a>
</g>
</g>
<!-- Node11&#45;&gt;Node17 -->
<g id="edge21_Node000017_Node000011" class="edge">
<title>Node11&#45;&gt;Node17</title>
<g id="a_edge21_Node000017_Node000011"><a xlink:title=" ">
<path fill="none" stroke="#63b8ff" d="M364.17,-191.72C491.11,-183.62 732.51,-168.21 858.45,-160.17"/>
<polygon fill="#63b8ff" stroke="#63b8ff" points="363.87,-188.23 354.12,-192.36 364.32,-195.22 363.87,-188.23"/>
</a>
</g>
</g>
<!-- Node12 -->
<g id="Node000012" class="node">
<title>Node12</title>
<g id="a_Node000012"><a xlink:href="interfacefiftyone_1_1pipeline_1_1core_1_1typed_1_1_typed_key.html" target="_top" xlink:title=" ">
<polygon fill="white" stroke="#666666" points="1017,-373 864,-373 864,-343 1017,-343 1017,-373"/>
<text text-anchor="start" x="872" y="-361" font-family="Helvetica,sans-Serif" font-size="10.00">fiftyone.pipeline.core.typed.</text>
<text text-anchor="middle" x="940.5" y="-350" font-family="Helvetica,sans-Serif" font-size="10.00">TypedKey&lt; TData &gt;</text>
</a>
</g>
</g>
<!-- Node12&#45;&gt;Node5 -->
<g id="edge11_Node000005_Node000012" class="edge">
<title>Node12&#45;&gt;Node5</title>
<g id="a_edge11_Node000005_Node000012"><a xlink:title=" ">
<path fill="none" stroke="#9a32cd" stroke-dasharray="5,2" d="M1027.61,-360.22C1064.49,-361.89 1107.98,-364.83 1147,-370 1161.59,-371.93 1176.94,-374.53 1191.89,-377.39"/>
<polygon fill="#9a32cd" stroke="#9a32cd" points="1027.53,-356.71 1017.39,-359.78 1027.23,-363.7 1027.53,-356.71"/>
</a>
</g>
<text text-anchor="start" x="1077.5" y="-375.5" font-family="Helvetica,sans-Serif" font-size="10.00" fill="grey">typedKey</text>
</g>
<!-- Node13 -->
<g id="Node000013" class="node">
<title>Node13</title>
<g id="a_Node000013"><a xlink:href="interfacefiftyone_1_1pipeline_1_1core_1_1typed_1_1_typed_key.html" target="_top" xlink:title="Holds a name and a type to allow for type safe operations on named values.">
<polygon fill="white" stroke="#666666" points="647,-373 494,-373 494,-343 647,-343 647,-373"/>
<text text-anchor="start" x="502" y="-361" font-family="Helvetica,sans-Serif" font-size="10.00">fiftyone.pipeline.core.typed.</text>
<text text-anchor="middle" x="570.5" y="-350" font-family="Helvetica,sans-Serif" font-size="10.00">TypedKey&lt; T &gt;</text>
</a>
</g>
</g>
<!-- Node13&#45;&gt;Node12 -->
<g id="edge12_Node000012_Node000013" class="edge">
<title>Node13&#45;&gt;Node12</title>
<g id="a_edge12_Node000012_Node000013"><a xlink:title=" ">
<path fill="none" stroke="orange" stroke-dasharray="5,2" d="M657.54,-358C720.04,-358 803.83,-358 863.79,-358"/>
<polygon fill="orange" stroke="orange" points="657.3,-354.5 647.3,-358 657.3,-361.5 657.3,-354.5"/>
</a>
</g>
<text text-anchor="start" x="745" y="-363.5" font-family="Helvetica,sans-Serif" font-size="10.00" fill="grey">&lt; TData &gt;</text>
</g>
<!-- Node14 -->
<g id="Node000014" class="node">
<title>Node14</title>
<g id="a_Node000014"><a xlink:href="interfacefiftyone_1_1pipeline_1_1engines_1_1flowelements_1_1_aspect_engine.html" target="_top" xlink:title=" ">
<polygon fill="white" stroke="#666666" points="1859,-348 1650,-348 1650,-318 1859,-318 1859,-348"/>
<text text-anchor="start" x="1658" y="-336" font-family="Helvetica,sans-Serif" font-size="10.00">fiftyone.pipeline.engines.flowelements.</text>
<text text-anchor="middle" x="1754.5" y="-325" font-family="Helvetica,sans-Serif" font-size="10.00">AspectEngine&lt; TData, TProperty &gt;</text>
</a>
</g>
</g>
<!-- Node14&#45;&gt;Node4 -->
<g id="edge15_Node000004_Node000014" class="edge">
<title>Node14&#45;&gt;Node4</title>
<g id="a_edge15_Node000004_Node000014"><a xlink:title=" ">
<path fill="none" stroke="#63b8ff" d="M1847.93,-316.17C1898.55,-306.96 1961.95,-295.42 2016.73,-285.44"/>
<polygon fill="#63b8ff" stroke="#63b8ff" points="1847.2,-312.75 1837.98,-317.98 1848.45,-319.64 1847.2,-312.75"/>
</a>
</g>
</g>
<!-- Node27 -->
<g id="Node000027" class="node">
<title>Node27</title>
<g id="a_Node000027"><a xlink:href="interfacefiftyone_1_1pipeline_1_1engines_1_1flowelements_1_1_on_premise_aspect_engine.html" target="_top" xlink:title="Aspect engine interface which processes data internally using a data file and populates the results.">
<polygon fill="white" stroke="#666666" points="2265,-359 2017,-359 2017,-307 2265,-307 2265,-359"/>
<text text-anchor="start" x="2025" y="-347" font-family="Helvetica,sans-Serif" font-size="10.00">fiftyone.pipeline.engines.flowelements.</text>
<text text-anchor="start" x="2025" y="-336" font-family="Helvetica,sans-Serif" font-size="10.00">OnPremiseAspectEngine&lt; TData extends</text>
<text text-anchor="start" x="2025" y="-325" font-family="Helvetica,sans-Serif" font-size="10.00"> AspectData, TProperty extends AspectProperty</text>
<text text-anchor="middle" x="2141" y="-314" font-family="Helvetica,sans-Serif" font-size="10.00">MetaData &gt;</text>
</a>
</g>
</g>
<!-- Node14&#45;&gt;Node27 -->
<g id="edge34_Node000027_Node000014" class="edge">
<title>Node14&#45;&gt;Node27</title>
<g id="a_edge34_Node000027_Node000014"><a xlink:title=" ">
<path fill="none" stroke="#63b8ff" d="M1869.14,-333C1915.58,-333 1969.41,-333 2016.79,-333"/>
<polygon fill="#63b8ff" stroke="#63b8ff" points="1869.04,-329.5 1859.04,-333 1869.04,-336.5 1869.04,-329.5"/>
</a>
</g>
</g>
<!-- Node15&#45;&gt;Node14 -->
<g id="edge16_Node000014_Node000015" class="edge">
<title>Node15&#45;&gt;Node14</title>
<g id="a_edge16_Node000014_Node000015"><a xlink:title=" ">
<path fill="none" stroke="orange" stroke-dasharray="5,2" d="M1420.23,-333.72C1493.04,-333.56 1582.2,-333.37 1649.97,-333.22"/>
<polygon fill="orange" stroke="orange" points="1420.06,-330.22 1410.07,-333.74 1420.07,-337.22 1420.06,-330.22"/>
</a>
</g>
<text text-anchor="start" x="1477" y="-338.5" font-family="Helvetica,sans-Serif" font-size="10.00" fill="grey">&lt; TData, TProperty &gt;</text>
</g>
<!-- Node16&#45;&gt;Node1 -->
<g id="edge46_Node000001_Node000016" class="edge">
<title>Node16&#45;&gt;Node1</title>
<g id="a_edge46_Node000001_Node000016"><a xlink:title=" ">
<path fill="none" stroke="orange" stroke-dasharray="5,2" d="M966.9,-512.54C988.62,-529.77 1021.44,-553.1 1054,-566 1151.42,-604.58 1181.72,-605 1286.5,-605 1286.5,-605 1286.5,-605 3224,-605 3375.69,-605 3468.95,-399.76 3497.56,-326"/>
<polygon fill="orange" stroke="orange" points="968.84,-509.61 958.87,-506.04 964.44,-515.05 968.84,-509.61"/>
</a>
</g>
<text text-anchor="start" x="2324" y="-610.5" font-family="Helvetica,sans-Serif" font-size="10.00" fill="grey">TData</text>
</g>
<!-- Node16&#45;&gt;Node2 -->
<g id="edge37_Node000002_Node000016" class="edge">
<title>Node16&#45;&gt;Node2</title>
<g id="a_edge37_Node000002_Node000016"><a xlink:title=" ">
<path fill="none" stroke="orange" stroke-dasharray="5,2" d="M1033.12,-504.96C1040.18,-505.75 1047.2,-506.45 1054,-507 1219.71,-520.51 1261.75,-513.22 1428,-515 1696.12,-517.87 2407.46,-519.76 2625,-363 2651.97,-343.57 2635.46,-318.02 2662,-298 2673.26,-289.51 2686.3,-283.05 2699.85,-278.14"/>
<polygon fill="orange" stroke="orange" points="1033.13,-501.43 1022.79,-503.74 1032.31,-508.39 1033.13,-501.43"/>
</a>
</g>
<text text-anchor="start" x="1923" y="-513.5" font-family="Helvetica,sans-Serif" font-size="10.00" fill="grey">TData</text>
</g>
<!-- Node16&#45;&gt;Node4 -->
<g id="edge30_Node000004_Node000016" class="edge">
<title>Node16&#45;&gt;Node4</title>
<g id="a_edge30_Node000004_Node000016"><a xlink:title=" ">
<path fill="none" stroke="orange" stroke-dasharray="5,2" d="M1033.03,-485.52C1233,-473.03 1703.45,-440.79 1859,-405 1923.69,-390.12 1953,-400.85 1999,-353 2016.83,-334.46 1998.46,-315.83 2017,-298 2020.36,-294.77 2024,-291.83 2027.84,-289.16"/>
<polygon fill="orange" stroke="orange" points="1032.61,-482.04 1022.85,-486.15 1033.04,-489.02 1032.61,-482.04"/>
</a>
</g>
<text text-anchor="start" x="1515" y="-461.5" font-family="Helvetica,sans-Serif" font-size="10.00" fill="grey">TData</text>
</g>
<!-- Node16&#45;&gt;Node15 -->
<g id="edge18_Node000015_Node000016" class="edge">
<title>Node16&#45;&gt;Node15</title>
<g id="a_edge18_Node000015_Node000016"><a xlink:title=" ">
<path fill="none" stroke="orange" stroke-dasharray="5,2" d="M980.68,-471.26C1002.26,-460.44 1029.55,-446.87 1054,-435 1095.14,-415.03 1112.39,-420.89 1147,-391 1157.92,-381.57 1153.2,-372.29 1165,-364 1170.07,-360.44 1175.51,-357.3 1181.19,-354.53"/>
<polygon fill="orange" stroke="orange" points="978.87,-468.25 971.5,-475.86 982.01,-474.51 978.87,-468.25"/>
</a>
</g>
<text text-anchor="start" x="1085.5" y="-440.5" font-family="Helvetica,sans-Serif" font-size="10.00" fill="grey">TData</text>
</g>
<!-- Node16&#45;&gt;Node27 -->
<g id="edge35_Node000027_Node000016" class="edge">
<title>Node16&#45;&gt;Node27</title>
<g id="a_edge35_Node000027_Node000016"><a xlink:title=" ">
<path fill="none" stroke="orange" stroke-dasharray="5,2" d="M1032.71,-492.46C1272.99,-495.77 1910.98,-501.03 1999,-465 2052.38,-443.15 2097.68,-391.08 2121.66,-359.25"/>
<polygon fill="orange" stroke="orange" points="1032.65,-488.96 1022.6,-492.32 1032.55,-495.96 1032.65,-488.96"/>
</a>
</g>
<text text-anchor="start" x="1515" y="-499.5" font-family="Helvetica,sans-Serif" font-size="10.00" fill="grey">TData</text>
</g>
<!-- Node29 -->
<g id="Node000029" class="node">
<title>Node29</title>
<g id="a_Node000029"><a xlink:href="interfacefiftyone_1_1pipeline_1_1engines_1_1fiftyone_1_1flowelements_1_1_fifty_one_aspect_engine.html" target="_top" xlink:title="51Degrees specific Engine interface.">
<polygon fill="white" stroke="#666666" points="2951,-359 2662,-359 2662,-307 2951,-307 2951,-359"/>
<text text-anchor="start" x="2670" y="-347" font-family="Helvetica,sans-Serif" font-size="10.00">fiftyone.pipeline.engines.fiftyone.flowelements.</text>
<text text-anchor="start" x="2670" y="-336" font-family="Helvetica,sans-Serif" font-size="10.00">FiftyOneAspectEngine&lt; TData extends</text>
<text text-anchor="start" x="2670" y="-325" font-family="Helvetica,sans-Serif" font-size="10.00"> AspectData, TProperty extends FiftyOneAspectProperty</text>
<text text-anchor="middle" x="2806.5" y="-314" font-family="Helvetica,sans-Serif" font-size="10.00">MetaData &gt;</text>
</a>
</g>
</g>
<!-- Node16&#45;&gt;Node29 -->
<g id="edge42_Node000029_Node000016" class="edge">
<title>Node16&#45;&gt;Node29</title>
<g id="a_edge42_Node000029_Node000016"><a xlink:title=" ">
<path fill="none" stroke="orange" stroke-dasharray="5,2" d="M976.93,-511.06C998.53,-522.34 1027.07,-535.61 1054,-543 1154.18,-570.5 1182.62,-567 1286.5,-567 1286.5,-567 1286.5,-567 2520,-567 2576.31,-567 2596.25,-570.85 2644,-541 2717.08,-495.32 2770.1,-404.14 2792.98,-359.23"/>
<polygon fill="orange" stroke="orange" points="978.3,-507.83 967.83,-506.21 975.01,-514 978.3,-507.83"/>
</a>
</g>
<text text-anchor="start" x="1923" y="-572.5" font-family="Helvetica,sans-Serif" font-size="10.00" fill="grey">TData</text>
</g>
<!-- Node17&#45;&gt;Node2 -->
<g id="edge38_Node000002_Node000017" class="edge">
<title>Node17&#45;&gt;Node2</title>
<g id="a_edge38_Node000002_Node000017"><a xlink:title=" ">
<path fill="none" stroke="orange" stroke-dasharray="5,2" d="M990.41,-136.47C1056.55,-113.12 1178.67,-76 1286.5,-76 1286.5,-76 1286.5,-76 2520,-76 2636.13,-76 2741.79,-185.62 2784.94,-237"/>
<polygon fill="orange" stroke="orange" points="988.91,-133.29 980.67,-139.95 991.27,-139.88 988.91,-133.29"/>
</a>
</g>
<text text-anchor="start" x="1914" y="-81.5" font-family="Helvetica,sans-Serif" font-size="10.00" fill="grey">TProperty</text>
</g>
<!-- Node17&#45;&gt;Node4 -->
<g id="edge31_Node000004_Node000017" class="edge">
<title>Node17&#45;&gt;Node4</title>
<g id="a_edge31_Node000004_Node000017"><a xlink:title=" ">
<path fill="none" stroke="orange" stroke-dasharray="5,2" d="M1032.84,-152.21C1198.08,-148.14 1557.5,-143.75 1859,-171 1921.8,-176.68 1938.93,-174.83 1999,-194 2032.62,-204.73 2068.31,-222.26 2095.37,-236.97"/>
<polygon fill="orange" stroke="orange" points="1032.63,-148.71 1022.72,-152.47 1032.8,-155.71 1032.63,-148.71"/>
</a>
</g>
<text text-anchor="start" x="1506" y="-162.5" font-family="Helvetica,sans-Serif" font-size="10.00" fill="grey">TProperty</text>
</g>
<!-- Node17&#45;&gt;Node15 -->
<g id="edge20_Node000015_Node000017" class="edge">
<title>Node17&#45;&gt;Node15</title>
<g id="a_edge20_Node000015_Node000017"><a xlink:title=" ">
<path fill="none" stroke="orange" stroke-dasharray="5,2" d="M1011.07,-174.3C1020.12,-178.8 1028.75,-184.3 1036,-191 1049.72,-203.69 1041.6,-215.02 1054,-229 1092.69,-272.65 1111.78,-275.14 1165,-299 1177.12,-304.43 1190.29,-309.25 1203.35,-313.45"/>
<polygon fill="orange" stroke="orange" points="1012.47,-171.1 1001.92,-170.14 1009.57,-177.47 1012.47,-171.1"/>
</a>
</g>
<text text-anchor="start" x="1076.5" y="-295.5" font-family="Helvetica,sans-Serif" font-size="10.00" fill="grey">TProperty</text>
</g>
<!-- Node17&#45;&gt;Node27 -->
<g id="edge36_Node000027_Node000017" class="edge">
<title>Node17&#45;&gt;Node27</title>
<g id="a_edge36_Node000027_Node000017"><a xlink:title=" ">
<path fill="none" stroke="orange" stroke-dasharray="5,2" d="M1032.69,-165.11C1079.52,-172.1 1130.2,-183.05 1147,-199 1169.36,-220.23 1141.12,-246.49 1165,-266 1224.83,-314.89 1781.95,-303.32 1859,-309 1910.76,-312.81 1967.83,-317.58 2016.94,-321.86"/>
<polygon fill="orange" stroke="orange" points="1033.17,-161.64 1022.77,-163.68 1032.17,-168.57 1033.17,-161.64"/>
</a>
</g>
<text text-anchor="start" x="1506" y="-310.5" font-family="Helvetica,sans-Serif" font-size="10.00" fill="grey">TProperty</text>
</g>
<!-- Node30 -->
<g id="Node000030" class="node">
<title>Node30</title>
<g id="a_Node000030"><a xlink:href="interfacefiftyone_1_1pipeline_1_1engines_1_1fiftyone_1_1data_1_1_fifty_one_aspect_property_meta_data.html" target="_top" xlink:title="51Degrees specific meta data.">
<polygon fill="white" stroke="#666666" points="1632,-50 1428,-50 1428,-20 1632,-20 1632,-50"/>
<text text-anchor="start" x="1436" y="-38" font-family="Helvetica,sans-Serif" font-size="10.00">fiftyone.pipeline.engines.fiftyone.data.</text>
<text text-anchor="middle" x="1530" y="-27" font-family="Helvetica,sans-Serif" font-size="10.00">FiftyOneAspectPropertyMetaData</text>
</a>
</g>
</g>
<!-- Node17&#45;&gt;Node30 -->
<g id="edge44_Node000030_Node000017" class="edge">
<title>Node17&#45;&gt;Node30</title>
<g id="a_edge44_Node000030_Node000017"><a xlink:title=" ">
<path fill="none" stroke="#63b8ff" d="M961.05,-131.95C981.61,-109.56 1016.18,-76.83 1054,-62 1175.88,-14.2 1328.92,-15.24 1427.82,-22.96"/>
<polygon fill="#63b8ff" stroke="#63b8ff" points="958.19,-129.9 954.13,-139.68 963.41,-134.57 958.19,-129.9"/>
</a>
</g>
</g>
<!-- Node18 -->
<g id="Node000018" class="node">
<title>Node18</title>
<g id="a_Node000018"><a xlink:href="interfacefiftyone_1_1pipeline_1_1engines_1_1services_1_1_missing_property_service.html" target="_top" xlink:title="Service used by AspectEngines to report the reason for a property not being present in the results.">
<polygon fill="white" stroke="#666666" points="1846,-258 1663,-258 1663,-228 1846,-228 1846,-258"/>
<text text-anchor="start" x="1671" y="-246" font-family="Helvetica,sans-Serif" font-size="10.00">fiftyone.pipeline.engines.services.</text>
<text text-anchor="middle" x="1754.5" y="-235" font-family="Helvetica,sans-Serif" font-size="10.00">MissingPropertyService</text>
</a>
</g>
</g>
<!-- Node18&#45;&gt;Node4 -->
<g id="edge22_Node000004_Node000018" class="edge">
<title>Node18&#45;&gt;Node4</title>
<g id="a_edge22_Node000004_Node000018"><a xlink:title=" ">
<path fill="none" stroke="#9a32cd" stroke-dasharray="5,2" d="M1856.31,-236.75C1863.31,-236.45 1870.26,-236.19 1877,-236 1931.2,-234.44 1945.02,-230.88 1999,-236 2004.83,-236.55 2010.78,-237.23 2016.77,-238.01"/>
<polygon fill="#9a32cd" stroke="#9a32cd" points="1855.87,-233.26 1846.04,-237.21 1856.19,-240.25 1855.87,-233.26"/>
</a>
</g>
<text text-anchor="start" x="1880" y="-241.5" font-family="Helvetica,sans-Serif" font-size="10.00" fill="grey">missingPropertyService</text>
</g>
<!-- Node19 -->
<g id="Node000019" class="node">
<title>Node19</title>
<g id="a_Node000019"><a xlink:href="interfacefiftyone_1_1pipeline_1_1core_1_1services_1_1_pipeline_service.html" target="_top" xlink:title="Service interface used by PipelineBuilder to hand out services to elements which required them.">
<polygon fill="white" stroke="#666666" points="1370.5,-257 1204.5,-257 1204.5,-227 1370.5,-227 1370.5,-257"/>
<text text-anchor="start" x="1212.5" y="-245" font-family="Helvetica,sans-Serif" font-size="10.00">fiftyone.pipeline.core.services.</text>
<text text-anchor="middle" x="1287.5" y="-234" font-family="Helvetica,sans-Serif" font-size="10.00">PipelineService</text>
</a>
</g>
</g>
<!-- Node19&#45;&gt;Node18 -->
<g id="edge23_Node000018_Node000019" class="edge">
<title>Node19&#45;&gt;Node18</title>
<g id="a_edge23_Node000018_Node000019"><a xlink:title=" ">
<path fill="none" stroke="#63b8ff" d="M1380.6,-242.2C1462.41,-242.37 1581.31,-242.63 1662.72,-242.8"/>
<polygon fill="#63b8ff" stroke="#63b8ff" points="1380.57,-238.7 1370.56,-242.18 1380.55,-245.7 1380.57,-238.7"/>
</a>
</g>
</g>
<!-- Node20 -->
<g id="Node000020" class="node">
<title>Node20</title>
<g id="a_Node000020"><a xlink:href="interfacefiftyone_1_1pipeline_1_1engines_1_1caching_1_1_flow_cache.html" target="_top" xlink:title="Used to cache results from individual flow elements in the pipeline.">
<polygon fill="white" stroke="#666666" points="1844.5,-210 1664.5,-210 1664.5,-180 1844.5,-180 1844.5,-210"/>
<text text-anchor="start" x="1672.5" y="-198" font-family="Helvetica,sans-Serif" font-size="10.00">fiftyone.pipeline.engines.caching.</text>
<text text-anchor="middle" x="1754.5" y="-187" font-family="Helvetica,sans-Serif" font-size="10.00">FlowCache</text>
</a>
</g>
</g>
<!-- Node20&#45;&gt;Node4 -->
<g id="edge24_Node000004_Node000020" class="edge">
<title>Node20&#45;&gt;Node4</title>
<g id="a_edge24_Node000004_Node000020"><a xlink:title=" ">
<path fill="none" stroke="#9a32cd" stroke-dasharray="5,2" d="M1855.01,-196.36C1899.45,-198.5 1952.24,-203.17 1999,-213 2025.43,-218.56 2053.66,-227.85 2077.86,-236.93"/>
<polygon fill="#9a32cd" stroke="#9a32cd" points="1854.92,-192.86 1844.78,-195.91 1854.61,-199.85 1854.92,-192.86"/>
</a>
</g>
<text text-anchor="start" x="1924" y="-218.5" font-family="Helvetica,sans-Serif" font-size="10.00" fill="grey">cache</text>
</g>
<!-- Node21 -->
<g id="Node000021" class="node">
<title>Node21</title>
<g id="a_Node000021"><a xlink:href="interfacefiftyone_1_1pipeline_1_1engines_1_1caching_1_1_data_keyed_cache.html" target="_top" xlink:title=" ">
<polygon fill="white" stroke="#666666" points="1380.5,-209 1194.5,-209 1194.5,-179 1380.5,-179 1380.5,-209"/>
<text text-anchor="start" x="1202.5" y="-197" font-family="Helvetica,sans-Serif" font-size="10.00">fiftyone.pipeline.engines.caching.</text>
<text text-anchor="middle" x="1287.5" y="-186" font-family="Helvetica,sans-Serif" font-size="10.00">DataKeyedCache&lt; ElementData &gt;</text>
</a>
</g>
</g>
<!-- Node21&#45;&gt;Node20 -->
<g id="edge25_Node000020_Node000021" class="edge">
<title>Node21&#45;&gt;Node20</title>
<g id="a_edge25_Node000020_Node000021"><a xlink:title=" ">
<path fill="none" stroke="#63b8ff" d="M1390.71,-194.22C1472.53,-194.4 1586.13,-194.64 1664.3,-194.81"/>
<polygon fill="#63b8ff" stroke="#63b8ff" points="1390.65,-190.72 1380.65,-194.2 1390.64,-197.72 1390.65,-190.72"/>
</a>
</g>
</g>
<!-- Node22 -->
<g id="Node000022" class="node">
<title>Node22</title>
<g id="a_Node000022"><a xlink:href="interfacefiftyone_1_1pipeline_1_1engines_1_1caching_1_1_data_keyed_cache.html" target="_top" xlink:title="Represents a put cache where the key is a FlowData instance.">
<polygon fill="white" stroke="#666666" points="1030.5,-230 850.5,-230 850.5,-200 1030.5,-200 1030.5,-230"/>
<text text-anchor="start" x="858.5" y="-218" font-family="Helvetica,sans-Serif" font-size="10.00">fiftyone.pipeline.engines.caching.</text>
<text text-anchor="middle" x="940.5" y="-207" font-family="Helvetica,sans-Serif" font-size="10.00">DataKeyedCache&lt; V &gt;</text>
</a>
</g>
</g>
<!-- Node22&#45;&gt;Node21 -->
<g id="edge26_Node000021_Node000022" class="edge">
<title>Node22&#45;&gt;Node21</title>
<g id="a_edge26_Node000021_Node000022"><a xlink:title=" ">
<path fill="none" stroke="orange" stroke-dasharray="5,2" d="M1040.95,-208.95C1089.27,-206.01 1146.95,-202.49 1194.27,-199.61"/>
<polygon fill="orange" stroke="orange" points="1040.56,-205.46 1030.79,-209.56 1040.99,-212.45 1040.56,-205.46"/>
</a>
</g>
<text text-anchor="start" x="1057.5" y="-213.5" font-family="Helvetica,sans-Serif" font-size="10.00" fill="grey">&lt; ElementData &gt;</text>
</g>
<!-- Node23 -->
<g id="Node000023" class="node">
<title>Node23</title>
<g id="a_Node000023"><a xlink:href="interfacefiftyone_1_1caching_1_1_put_cache.html" target="_top" xlink:title="A cache that supports a thread safe put method for inserting to cache.">
<polygon fill="white" stroke="#666666" points="642,-265 499,-265 499,-235 642,-235 642,-265"/>
<text text-anchor="start" x="507" y="-253" font-family="Helvetica,sans-Serif" font-size="10.00">fiftyone.caching.PutCache</text>
<text text-anchor="middle" x="570.5" y="-242" font-family="Helvetica,sans-Serif" font-size="10.00">&lt; K, V &gt;</text>
</a>
</g>
</g>
<!-- Node23&#45;&gt;Node22 -->
<g id="edge27_Node000022_Node000023" class="edge">
<title>Node23&#45;&gt;Node22</title>
<g id="a_edge27_Node000022_Node000023"><a xlink:title=" ">
<path fill="none" stroke="#63b8ff" d="M652.28,-245.38C702.61,-242.16 768.67,-237.31 827,-231 834.55,-230.18 842.38,-229.25 850.22,-228.25"/>
<polygon fill="#63b8ff" stroke="#63b8ff" points="651.87,-241.9 642.11,-246.03 652.31,-248.89 651.87,-241.9"/>
</a>
</g>
</g>
<!-- Node24 -->
<g id="Node000024" class="node">
<title>Node24</title>
<g id="a_Node000024"><a xlink:href="interfacefiftyone_1_1caching_1_1_cache.html" target="_top" xlink:title="Base cache interface which declares only the get method and the types of key and value stored in the ...">
<polygon fill="white" stroke="#666666" points="344,-260 217,-260 217,-230 344,-230 344,-260"/>
<text text-anchor="start" x="225" y="-248" font-family="Helvetica,sans-Serif" font-size="10.00">fiftyone.caching.Cache</text>
<text text-anchor="middle" x="280.5" y="-237" font-family="Helvetica,sans-Serif" font-size="10.00">&lt; K, V &gt;</text>
</a>
</g>
</g>
<!-- Node24&#45;&gt;Node23 -->
<g id="edge28_Node000023_Node000024" class="edge">
<title>Node24&#45;&gt;Node23</title>
<g id="a_edge28_Node000023_Node000024"><a xlink:title=" ">
<path fill="none" stroke="#63b8ff" d="M354.47,-246.27C398.79,-247.04 455.08,-248.01 498.95,-248.78"/>
<polygon fill="#63b8ff" stroke="#63b8ff" points="354.41,-242.77 344.35,-246.09 354.28,-249.76 354.41,-242.77"/>
</a>
</g>
</g>
<!-- Node25 -->
<g id="Node000025" class="node">
<title>Node25</title>
<g id="a_Node000025"><a xlink:title=" ">
<polygon fill="white" stroke="#bfbfbf" points="117.5,-73.5 52.5,-73.5 52.5,-54.5 117.5,-54.5 117.5,-73.5"/>
<text text-anchor="middle" x="85" y="-61.5" font-family="Helvetica,sans-Serif" font-size="10.00">Closeable</text>
</a>
</g>
</g>
<!-- Node25&#45;&gt;Node24 -->
<g id="edge29_Node000024_Node000025" class="edge">
<title>Node25&#45;&gt;Node24</title>
<g id="a_edge29_Node000024_Node000025"><a xlink:title=" ">
<path fill="none" stroke="#63b8ff" d="M95.51,-82.69C113.1,-115.44 153.84,-183.29 207,-221 211.87,-224.45 217.26,-227.43 222.85,-230"/>
<polygon fill="#63b8ff" stroke="#63b8ff" points="98.55,-80.95 90.81,-73.73 92.35,-84.21 98.55,-80.95"/>
</a>
</g>
</g>
<!-- Node25&#45;&gt;Node30 -->
<g id="edge45_Node000030_Node000025" class="edge">
<title>Node25&#45;&gt;Node30</title>
<g id="a_edge45_Node000030_Node000025"><a xlink:title=" ">
<path fill="none" stroke="#63b8ff" d="M111.63,-49.68C147.86,-30.81 216.65,0 279.5,0 279.5,0 279.5,0 1101.5,0 1238.77,0 1273.52,-0.27 1410,-15 1422.08,-16.3 1434.8,-18.04 1447.24,-19.96"/>
<polygon fill="#63b8ff" stroke="#63b8ff" points="109.91,-46.63 102.73,-54.42 113.2,-52.81 109.91,-46.63"/>
</a>
</g>
</g>
<!-- Node26 -->
<g id="Node000026" class="node">
<title>Node26</title>
<g id="a_Node000026"><a xlink:href="interfacefiftyone_1_1pipeline_1_1engines_1_1flowelements_1_1_on_premise_aspect_engine.html" target="_top" xlink:title=" ">
<polygon fill="white" stroke="#666666" points="2623.5,-353.5 2414.5,-353.5 2414.5,-312.5 2623.5,-312.5 2623.5,-353.5"/>
<text text-anchor="start" x="2422.5" y="-341.5" font-family="Helvetica,sans-Serif" font-size="10.00">fiftyone.pipeline.engines.flowelements.</text>
<text text-anchor="start" x="2422.5" y="-330.5" font-family="Helvetica,sans-Serif" font-size="10.00">OnPremiseAspectEngine&lt; TData,</text>
<text text-anchor="middle" x="2519" y="-319.5" font-family="Helvetica,sans-Serif" font-size="10.00"> TProperty &gt;</text>
</a>
</g>
</g>
<!-- Node26&#45;&gt;Node2 -->
<g id="edge32_Node000002_Node000026" class="edge">
<title>Node26&#45;&gt;Node2</title>
<g id="a_edge32_Node000002_Node000026"><a xlink:title=" ">
<path fill="none" stroke="#63b8ff" d="M2613.36,-309.95C2629.57,-305.96 2646.28,-301.86 2662,-298 2674.2,-295.01 2686.99,-291.88 2699.7,-288.77"/>
<polygon fill="#63b8ff" stroke="#63b8ff" points="2612.21,-306.63 2603.34,-312.42 2613.88,-313.43 2612.21,-306.63"/>
</a>
</g>
</g>
<!-- Node26&#45;&gt;Node29 -->
<g id="edge41_Node000029_Node000026" class="edge">
<title>Node26&#45;&gt;Node29</title>
<g id="a_edge41_Node000029_Node000026"><a xlink:title=" ">
<path fill="none" stroke="#63b8ff" d="M2634.04,-333C2643.1,-333 2652.32,-333 2661.55,-333"/>
<polygon fill="#63b8ff" stroke="#63b8ff" points="2633.88,-329.5 2623.88,-333 2633.88,-336.5 2633.88,-329.5"/>
</a>
</g>
</g>
<!-- Node27&#45;&gt;Node26 -->
<g id="edge33_Node000026_Node000027" class="edge">
<title>Node27&#45;&gt;Node26</title>
<g id="a_edge33_Node000026_Node000027"><a xlink:title=" ">
<path fill="none" stroke="orange" stroke-dasharray="5,2" d="M2275.4,-333C2321.08,-333 2371.47,-333 2414.44,-333"/>
<polygon fill="orange" stroke="orange" points="2275.12,-329.5 2265.12,-333 2275.12,-336.5 2275.12,-329.5"/>
</a>
</g>
<text text-anchor="start" x="2286" y="-338.5" font-family="Helvetica,sans-Serif" font-size="10.00" fill="grey">&lt; TData, TProperty &gt;</text>
</g>
<!-- Node28 -->
<g id="Node000028" class="node">
<title>Node28</title>
<g id="a_Node000028"><a xlink:href="interfacefiftyone_1_1pipeline_1_1engines_1_1fiftyone_1_1flowelements_1_1_fifty_one_aspect_engine.html" target="_top" xlink:title=" ">
<polygon fill="white" stroke="#666666" points="3347,-335 3099,-335 3099,-305 3347,-305 3347,-335"/>
<text text-anchor="start" x="3107" y="-323" font-family="Helvetica,sans-Serif" font-size="10.00">fiftyone.pipeline.engines.fiftyone.flowelements.</text>
<text text-anchor="middle" x="3223" y="-312" font-family="Helvetica,sans-Serif" font-size="10.00">FiftyOneAspectEngine&lt; TData, TProperty &gt;</text>
</a>
</g>
</g>
<!-- Node28&#45;&gt;Node1 -->
<g id="edge39_Node000001_Node000028" class="edge">
<title>Node28&#45;&gt;Node1</title>
<g id="a_edge39_Node000001_Node000028"><a xlink:title=" ">
<path fill="none" stroke="#63b8ff" d="M3357.52,-310.56C3366.24,-309.95 3375.01,-309.33 3383.68,-308.72"/>
<polygon fill="#63b8ff" stroke="#63b8ff" points="3357.03,-307.09 3347.3,-311.29 3357.53,-314.07 3357.03,-307.09"/>
</a>
</g>
</g>
<!-- Node29&#45;&gt;Node28 -->
<g id="edge40_Node000028_Node000029" class="edge">
<title>Node29&#45;&gt;Node28</title>
<g id="a_edge40_Node000028_Node000029"><a xlink:title=" ">
<path fill="none" stroke="orange" stroke-dasharray="5,2" d="M2961.25,-328.18C3006.66,-326.75 3055.75,-325.21 3098.95,-323.86"/>
<polygon fill="orange" stroke="orange" points="2960.9,-324.69 2951.02,-328.5 2961.12,-331.68 2960.9,-324.69"/>
</a>
</g>
<text text-anchor="start" x="2972" y="-332.5" font-family="Helvetica,sans-Serif" font-size="10.00" fill="grey">&lt; TData, TProperty &gt;</text>
</g>
<!-- Node30&#45;&gt;Node1 -->
<g id="edge47_Node000001_Node000030" class="edge">
<title>Node30&#45;&gt;Node1</title>
<g id="a_edge47_Node000001_Node000030"><a xlink:title=" ">
<path fill="none" stroke="orange" stroke-dasharray="5,2" d="M1642.65,-33.31C1724.2,-32.22 1837.46,-31 1937,-31 1937,-31 1937,-31 3224,-31 3363.98,-31 3462.27,-206.03 3495.05,-273.72"/>
<polygon fill="orange" stroke="orange" points="1642.31,-29.81 1632.36,-33.45 1642.41,-36.81 1642.31,-29.81"/>
</a>
</g>
<text text-anchor="start" x="2495" y="-36.5" font-family="Helvetica,sans-Serif" font-size="10.00" fill="grey">TProperty</text>
</g>
<!-- Node30&#45;&gt;Node29 -->
<g id="edge43_Node000029_Node000030" class="edge">
<title>Node30&#45;&gt;Node29</title>
<g id="a_edge43_Node000029_Node000030"><a xlink:title=" ">
<path fill="none" stroke="orange" stroke-dasharray="5,2" d="M1624,-51.84C1886.44,-99.41 2614.53,-231.87 2625,-239 2650.59,-256.41 2636.9,-279.89 2662,-298 2666.47,-301.23 2671.2,-304.16 2676.12,-306.82"/>
<polygon fill="orange" stroke="orange" points="1624.57,-48.38 1614.11,-50.04 1623.32,-55.27 1624.57,-48.38"/>
</a>
</g>
<text text-anchor="start" x="2117" y="-173.5" font-family="Helvetica,sans-Serif" font-size="10.00" fill="grey">TProperty</text>
</g>
</g>
</svg>
