<?xml version="1.0" encoding="UTF-8" standalone="no"?>
<!DOCTYPE svg PUBLIC "-//W3C//DTD SVG 1.1//EN"
 "http://www.w3.org/Graphics/SVG/1.1/DTD/svg11.dtd">
<!-- Generated by graphviz version 2.43.0 (0)
 -->
<!-- Title: fiftyone.pipeline.engines.fiftyone.trackers.ShareUsageTracker Pages: 1 -->
<svg width="1324pt" height="86pt"
 viewBox="0.00 0.00 1324.00 86.00" xmlns="http://www.w3.org/2000/svg" xmlns:xlink="http://www.w3.org/1999/xlink">
<g id="graph0" class="graph" transform="scale(1 1) rotate(0) translate(4 82)">
<title>fiftyone.pipeline.engines.fiftyone.trackers.ShareUsageTracker</title>
<!-- Node1 -->
<g id="Node000001" class="node">
<title>Node1</title>
<g id="a_Node000001"><a xlink:title="A tracker used by share usage to attempt to avoid repeatedly sending data relating to the same user s...">
<polygon fill="#999999" stroke="#666666" points="1316,-54 1095,-54 1095,-24 1316,-24 1316,-54"/>
<text text-anchor="start" x="1103" y="-42" font-family="Helvetica,sans-Serif" font-size="10.00">fiftyone.pipeline.engines.fiftyone.trackers.</text>
<text text-anchor="middle" x="1205.5" y="-31" font-family="Helvetica,sans-Serif" font-size="10.00">ShareUsageTracker</text>
</a>
</g>
</g>
<!-- Node2 -->
<g id="Node000002" class="node">
<title>Node2</title>
<g id="a_Node000002"><a xlink:href="classfiftyone_1_1pipeline_1_1engines_1_1trackers_1_1_tracker_base.html" target="_top" xlink:title="The abstract base class for trackers.">
<polygon fill="white" stroke="#666666" points="1059,-54 877,-54 877,-24 1059,-24 1059,-54"/>
<text text-anchor="start" x="885" y="-42" font-family="Helvetica,sans-Serif" font-size="10.00">fiftyone.pipeline.engines.trackers.</text>
<text text-anchor="middle" x="968" y="-31" font-family="Helvetica,sans-Serif" font-size="10.00">TrackerBase&lt; T &gt;</text>
</a>
</g>
</g>
<!-- Node2&#45;&gt;Node1 -->
<g id="edge1_Node000001_Node000002" class="edge">
<title>Node2&#45;&gt;Node1</title>
<g id="a_edge1_Node000001_Node000002"><a xlink:title=" ">
<path fill="none" stroke="#63b8ff" d="M1069.26,-39C1077.7,-39 1086.26,-39 1094.76,-39"/>
<polygon fill="#63b8ff" stroke="#63b8ff" points="1069.04,-35.5 1059.04,-39 1069.04,-42.5 1069.04,-35.5"/>
</a>
</g>
</g>
<!-- Node3 -->
<g id="Node000003" class="node">
<title>Node3</title>
<g id="a_Node000003"><a xlink:href="classfiftyone_1_1pipeline_1_1engines_1_1caching_1_1_data_keyed_cache_base.html" target="_top" xlink:title="Abstract base class for caches that use FlowData as the key.">
<polygon fill="white" stroke="#666666" points="840,-78 660,-78 660,-48 840,-48 840,-78"/>
<text text-anchor="start" x="668" y="-66" font-family="Helvetica,sans-Serif" font-size="10.00">fiftyone.pipeline.engines.caching.</text>
<text text-anchor="middle" x="750" y="-55" font-family="Helvetica,sans-Serif" font-size="10.00">DataKeyedCacheBase&lt; V &gt;</text>
</a>
</g>
</g>
<!-- Node3&#45;&gt;Node2 -->
<g id="edge2_Node000002_Node000003" class="edge">
<title>Node3&#45;&gt;Node2</title>
<g id="a_edge2_Node000002_Node000003"><a xlink:title=" ">
<path fill="none" stroke="#63b8ff" d="M850.08,-51.99C858.95,-51.01 867.91,-50.01 876.71,-49.03"/>
<polygon fill="#63b8ff" stroke="#63b8ff" points="849.65,-48.52 840.1,-53.1 850.43,-55.47 849.65,-48.52"/>
</a>
</g>
</g>
<!-- Node4 -->
<g id="Node000004" class="node">
<title>Node4</title>
<g id="a_Node000004"><a xlink:href="interfacefiftyone_1_1pipeline_1_1engines_1_1caching_1_1_data_keyed_cache.html" target="_top" xlink:title="Represents a put cache where the key is a FlowData instance.">
<polygon fill="white" stroke="#666666" points="623,-78 443,-78 443,-48 623,-48 623,-78"/>
<text text-anchor="start" x="451" y="-66" font-family="Helvetica,sans-Serif" font-size="10.00">fiftyone.pipeline.engines.caching.</text>
<text text-anchor="middle" x="533" y="-55" font-family="Helvetica,sans-Serif" font-size="10.00">DataKeyedCache&lt; V &gt;</text>
</a>
</g>
</g>
<!-- Node4&#45;&gt;Node3 -->
<g id="edge3_Node000003_Node000004" class="edge">
<title>Node4&#45;&gt;Node3</title>
<g id="a_edge3_Node000003_Node000004"><a xlink:title=" ">
<path fill="none" stroke="#63b8ff" d="M633.01,-63C641.92,-63 650.9,-63 659.72,-63"/>
<polygon fill="#63b8ff" stroke="#63b8ff" points="633,-59.5 623,-63 633,-66.5 633,-59.5"/>
</a>
</g>
</g>
<!-- Node5 -->
<g id="Node000005" class="node">
<title>Node5</title>
<g id="a_Node000005"><a xlink:href="interfacefiftyone_1_1caching_1_1_put_cache.html" target="_top" xlink:title="A cache that supports a thread safe put method for inserting to cache.">
<polygon fill="white" stroke="#666666" points="407,-78 264,-78 264,-48 407,-48 407,-78"/>
<text text-anchor="start" x="272" y="-66" font-family="Helvetica,sans-Serif" font-size="10.00">fiftyone.caching.PutCache</text>
<text text-anchor="middle" x="335.5" y="-55" font-family="Helvetica,sans-Serif" font-size="10.00">&lt; K, V &gt;</text>
</a>
</g>
</g>
<!-- Node5&#45;&gt;Node4 -->
<g id="edge4_Node000004_Node000005" class="edge">
<title>Node5&#45;&gt;Node4</title>
<g id="a_edge4_Node000004_Node000005"><a xlink:title=" ">
<path fill="none" stroke="#63b8ff" d="M417.25,-63C425.68,-63 434.28,-63 442.8,-63"/>
<polygon fill="#63b8ff" stroke="#63b8ff" points="417.08,-59.5 407.08,-63 417.08,-66.5 417.08,-59.5"/>
</a>
</g>
</g>
<!-- Node6 -->
<g id="Node000006" class="node">
<title>Node6</title>
<g id="a_Node000006"><a xlink:href="interfacefiftyone_1_1caching_1_1_cache.html" target="_top" xlink:title="Base cache interface which declares only the get method and the types of key and value stored in the ...">
<polygon fill="white" stroke="#666666" points="228,-78 101,-78 101,-48 228,-48 228,-78"/>
<text text-anchor="start" x="109" y="-66" font-family="Helvetica,sans-Serif" font-size="10.00">fiftyone.caching.Cache</text>
<text text-anchor="middle" x="164.5" y="-55" font-family="Helvetica,sans-Serif" font-size="10.00">&lt; K, V &gt;</text>
</a>
</g>
</g>
<!-- Node6&#45;&gt;Node5 -->
<g id="edge5_Node000005_Node000006" class="edge">
<title>Node6&#45;&gt;Node5</title>
<g id="a_edge5_Node000005_Node000006"><a xlink:title=" ">
<path fill="none" stroke="#63b8ff" d="M238.56,-63C246.95,-63 255.49,-63 263.84,-63"/>
<polygon fill="#63b8ff" stroke="#63b8ff" points="238.43,-59.5 228.43,-63 238.43,-66.5 238.43,-59.5"/>
</a>
</g>
</g>
<!-- Node7 -->
<g id="Node000007" class="node">
<title>Node7</title>
<g id="a_Node000007"><a xlink:title=" ">
<polygon fill="white" stroke="#bfbfbf" points="65,-72.5 0,-72.5 0,-53.5 65,-53.5 65,-72.5"/>
<text text-anchor="middle" x="32.5" y="-60.5" font-family="Helvetica,sans-Serif" font-size="10.00">Closeable</text>
</a>
</g>
</g>
<!-- Node7&#45;&gt;Node6 -->
<g id="edge6_Node000006_Node000007" class="edge">
<title>Node7&#45;&gt;Node6</title>
<g id="a_edge6_Node000006_Node000007"><a xlink:title=" ">
<path fill="none" stroke="#63b8ff" d="M75.54,-63C83.6,-63 92.2,-63 100.75,-63"/>
<polygon fill="#63b8ff" stroke="#63b8ff" points="75.3,-59.5 65.3,-63 75.3,-66.5 75.3,-59.5"/>
</a>
</g>
</g>
<!-- Node8 -->
<g id="Node000008" class="node">
<title>Node8</title>
<g id="a_Node000008"><a xlink:href="interfacefiftyone_1_1pipeline_1_1engines_1_1trackers_1_1_tracker.html" target="_top" xlink:title="Represents a &#39;tracker&#39;.">
<polygon fill="white" stroke="#666666" points="841,-30 659,-30 659,0 841,0 841,-30"/>
<text text-anchor="start" x="667" y="-18" font-family="Helvetica,sans-Serif" font-size="10.00">fiftyone.pipeline.engines.trackers.</text>
<text text-anchor="middle" x="750" y="-7" font-family="Helvetica,sans-Serif" font-size="10.00">Tracker</text>
</a>
</g>
</g>
<!-- Node8&#45;&gt;Node2 -->
<g id="edge7_Node000002_Node000008" class="edge">
<title>Node8&#45;&gt;Node2</title>
<g id="a_edge7_Node000002_Node000008"><a xlink:title=" ">
<path fill="none" stroke="#63b8ff" d="M851.06,-26.12C859.63,-27.07 868.27,-28.03 876.76,-28.97"/>
<polygon fill="#63b8ff" stroke="#63b8ff" points="851.36,-22.63 841.04,-25 850.59,-29.59 851.36,-22.63"/>
</a>
</g>
</g>
</g>
</svg>
