<?xml version="1.0" encoding="UTF-8" standalone="no"?>
<!DOCTYPE svg PUBLIC "-//W3C//DTD SVG 1.1//EN"
 "http://www.w3.org/Graphics/SVG/1.1/DTD/svg11.dtd">
<!-- Generated by graphviz version 2.43.0 (0)
 -->
<!-- Title: fiftyone.pipeline.web.services.FiftyOneJSServiceCore.Default Pages: 1 -->
<svg width="528pt" height="86pt"
 viewBox="0.00 0.00 528.00 86.00" xmlns="http://www.w3.org/2000/svg" xmlns:xlink="http://www.w3.org/1999/xlink">
<g id="graph0" class="graph" transform="scale(1 1) rotate(0) translate(4 82)">
<title>fiftyone.pipeline.web.services.FiftyOneJSServiceCore.Default</title>
<!-- Node1 -->
<g id="Node000001" class="node">
<title>Node1</title>
<g id="a_Node000001"><a xlink:title="Default implementation of the FiftyOneJSServiceCore service.">
<polygon fill="#999999" stroke="#666666" points="520,-54 355,-54 355,-24 520,-24 520,-54"/>
<text text-anchor="start" x="363" y="-42" font-family="Helvetica,sans-Serif" font-size="10.00">fiftyone.pipeline.web.services.</text>
<text text-anchor="middle" x="437.5" y="-31" font-family="Helvetica,sans-Serif" font-size="10.00">FiftyOneJSServiceCore.Default</text>
</a>
</g>
</g>
<!-- Node2 -->
<g id="Node000002" class="node">
<title>Node2</title>
<g id="a_Node000002"><a xlink:href="interfacefiftyone_1_1pipeline_1_1web_1_1services_1_1_fifty_one_j_s_service_core.html" target="_top" xlink:title="Service that provides the 51Degrees javascript when requested.">
<polygon fill="white" stroke="#666666" points="165,-78 0,-78 0,-48 165,-48 165,-78"/>
<text text-anchor="start" x="8" y="-66" font-family="Helvetica,sans-Serif" font-size="10.00">fiftyone.pipeline.web.services.</text>
<text text-anchor="middle" x="82.5" y="-55" font-family="Helvetica,sans-Serif" font-size="10.00">FiftyOneJSServiceCore</text>
</a>
</g>
</g>
<!-- Node2&#45;&gt;Node1 -->
<g id="edge1_Node000001_Node000002" class="edge">
<title>Node2&#45;&gt;Node1</title>
<g id="a_edge1_Node000001_Node000002"><a xlink:title=" ">
<path fill="none" stroke="#63b8ff" d="M175.56,-56.74C231.09,-52.97 301.2,-48.2 354.77,-44.56"/>
<polygon fill="#63b8ff" stroke="#63b8ff" points="175.11,-53.26 165.37,-57.43 175.59,-60.25 175.11,-53.26"/>
</a>
</g>
</g>
<!-- Node3 -->
<g id="Node000003" class="node">
<title>Node3</title>
<g id="a_Node000003"><a xlink:href="interfacefiftyone_1_1pipeline_1_1web_1_1services_1_1_clientside_property_service_core.html" target="_top" xlink:title="Class that provides functionality for the &#39;Client side overrides&#39; feature.">
<polygon fill="white" stroke="#666666" points="165,-30 0,-30 0,0 165,0 165,-30"/>
<text text-anchor="start" x="8" y="-18" font-family="Helvetica,sans-Serif" font-size="10.00">fiftyone.pipeline.web.services.</text>
<text text-anchor="middle" x="82.5" y="-7" font-family="Helvetica,sans-Serif" font-size="10.00">ClientsidePropertyServiceCore</text>
</a>
</g>
</g>
<!-- Node3&#45;&gt;Node1 -->
<g id="edge2_Node000001_Node000003" class="edge">
<title>Node3&#45;&gt;Node1</title>
<g id="a_edge2_Node000001_Node000003"><a xlink:title=" ">
<path fill="none" stroke="#9a32cd" stroke-dasharray="5,2" d="M175.36,-16.4C223.56,-17.7 283.55,-20.2 337,-25 342.82,-25.52 348.82,-26.15 354.86,-26.84"/>
<polygon fill="#9a32cd" stroke="#9a32cd" points="175.35,-12.9 165.26,-16.15 175.17,-19.9 175.35,-12.9"/>
</a>
</g>
<text text-anchor="start" x="186" y="-30.5" font-family="Helvetica,sans-Serif" font-size="10.00" fill="grey">clientsidePropertyServiceCore</text>
</g>
</g>
</svg>
