<?xml version="1.0" encoding="UTF-8" standalone="no"?>
<!DOCTYPE svg PUBLIC "-//W3C//DTD SVG 1.1//EN"
 "http://www.w3.org/Graphics/SVG/1.1/DTD/svg11.dtd">
<!-- Generated by graphviz version 2.43.0 (0)
 -->
<!-- Title: fiftyone.pipeline.engines.flowelements.CloudPipelineBuilderBase&lt; TBuilder extends CloudPipelineBuilderBase&lt; TBuilder &gt; &gt; Pages: 1 -->
<svg width="811pt" height="160pt"
 viewBox="0.00 0.00 811.00 159.50" xmlns="http://www.w3.org/2000/svg" xmlns:xlink="http://www.w3.org/1999/xlink">
<g id="graph0" class="graph" transform="scale(1 1) rotate(0) translate(4 155.5)">
<title>fiftyone.pipeline.engines.flowelements.CloudPipelineBuilderBase&lt; TBuilder extends CloudPipelineBuilderBase&lt; TBuilder &gt; &gt;</title>
<!-- Node1 -->
<g id="Node000001" class="node">
<title>Node1</title>
<g id="a_Node000001"><a xlink:title="Base class for pipeline builders that will produce a pipeline with specific flow elements.">
<polygon fill="#999999" stroke="#666666" points="783.5,-151.5 574.5,-151.5 574.5,-99.5 783.5,-99.5 783.5,-151.5"/>
<text text-anchor="start" x="582.5" y="-139.5" font-family="Helvetica,sans-Serif" font-size="10.00">fiftyone.pipeline.engines.flowelements.</text>
<text text-anchor="start" x="582.5" y="-128.5" font-family="Helvetica,sans-Serif" font-size="10.00">CloudPipelineBuilderBase&lt; TBuilder</text>
<text text-anchor="start" x="582.5" y="-117.5" font-family="Helvetica,sans-Serif" font-size="10.00"> extends CloudPipelineBuilderBase</text>
<text text-anchor="middle" x="679" y="-106.5" font-family="Helvetica,sans-Serif" font-size="10.00">&lt; TBuilder &gt; &gt;</text>
</a>
</g>
</g>
<!-- Node2 -->
<g id="Node000002" class="node">
<title>Node2</title>
<g id="a_Node000002"><a xlink:href="classfiftyone_1_1pipeline_1_1engines_1_1flowelements_1_1_pre_packaged_pipeline_builder_base.html" target="_top" xlink:title=" ">
<polygon fill="white" stroke="#666666" points="449,-114 240,-114 240,-73 449,-73 449,-114"/>
<text text-anchor="start" x="248" y="-102" font-family="Helvetica,sans-Serif" font-size="10.00">fiftyone.pipeline.engines.flowelements.</text>
<text text-anchor="start" x="248" y="-91" font-family="Helvetica,sans-Serif" font-size="10.00">PrePackagedPipelineBuilderBase</text>
<text text-anchor="middle" x="344.5" y="-80" font-family="Helvetica,sans-Serif" font-size="10.00">&lt; TBuilder &gt;</text>
</a>
</g>
</g>
<!-- Node2&#45;&gt;Node1 -->
<g id="edge1_Node000001_Node000002" class="edge">
<title>Node2&#45;&gt;Node1</title>
<g id="a_edge1_Node000001_Node000002"><a xlink:title=" ">
<path fill="none" stroke="#63b8ff" d="M459.27,-110.64C461.87,-110.94 464.45,-111.23 467,-111.5 501.86,-115.23 540.08,-118.13 574.29,-120.29"/>
<polygon fill="#63b8ff" stroke="#63b8ff" points="459.5,-107.14 449.16,-109.43 458.67,-114.09 459.5,-107.14"/>
</a>
</g>
</g>
<!-- Node3 -->
<g id="Node000003" class="node">
<title>Node3</title>
<g id="a_Node000003"><a xlink:href="classfiftyone_1_1pipeline_1_1engines_1_1flowelements_1_1_pre_packaged_pipeline_builder_base.html" target="_top" xlink:title="Base class for pipeline builders that will produce a pipeline with specific flow elements.">
<polygon fill="white" stroke="#666666" points="803,-79.5 555,-79.5 555,-27.5 803,-27.5 803,-79.5"/>
<text text-anchor="start" x="563" y="-67.5" font-family="Helvetica,sans-Serif" font-size="10.00">fiftyone.pipeline.engines.flowelements.</text>
<text text-anchor="start" x="563" y="-56.5" font-family="Helvetica,sans-Serif" font-size="10.00">PrePackagedPipelineBuilderBase</text>
<text text-anchor="start" x="563" y="-45.5" font-family="Helvetica,sans-Serif" font-size="10.00">&lt; TBuilder extends PrePackagedPipelineBuilder</text>
<text text-anchor="middle" x="679" y="-34.5" font-family="Helvetica,sans-Serif" font-size="10.00">Base&lt; TBuilder &gt; &gt;</text>
</a>
</g>
</g>
<!-- Node2&#45;&gt;Node3 -->
<g id="edge6_Node000003_Node000002" class="edge">
<title>Node2&#45;&gt;Node3</title>
<g id="a_edge6_Node000003_Node000002"><a xlink:title=" ">
<path fill="none" stroke="orange" stroke-dasharray="5,2" d="M459.47,-80.65C484.99,-77.7 511.92,-74.54 537,-71.5 542.88,-70.79 548.9,-70.05 554.97,-69.3"/>
<polygon fill="orange" stroke="orange" points="458.92,-77.19 449.39,-81.81 459.72,-84.14 458.92,-77.19"/>
</a>
</g>
<text text-anchor="start" x="482" y="-85" font-family="Helvetica,sans-Serif" font-size="10.00" fill="grey">TBuilder</text>
</g>
<!-- Node3&#45;&gt;Node2 -->
<g id="edge2_Node000002_Node000003" class="edge">
<title>Node3&#45;&gt;Node2</title>
<g id="a_edge2_Node000002_Node000003"><a xlink:title=" ">
<path fill="none" stroke="orange" stroke-dasharray="5,2" d="M544.52,-47.97C518.69,-48.64 491.91,-50.54 467,-54.5 443.7,-58.2 418.76,-65.58 397.57,-72.92"/>
<polygon fill="orange" stroke="orange" points="544.83,-51.47 554.76,-47.77 544.69,-44.47 544.83,-51.47"/>
</a>
</g>
<text text-anchor="start" x="470" y="-60" font-family="Helvetica,sans-Serif" font-size="10.00" fill="grey">&lt; TBuilder &gt;</text>
</g>
<!-- Node4 -->
<g id="Node000004" class="node">
<title>Node4</title>
<g id="a_Node000004"><a xlink:href="classfiftyone_1_1pipeline_1_1core_1_1flowelements_1_1_pipeline_builder_base.html" target="_top" xlink:title="Abstract base class for all Pipeline builders.">
<polygon fill="white" stroke="#666666" points="440,-41 249,-41 249,0 440,0 440,-41"/>
<text text-anchor="start" x="257" y="-29" font-family="Helvetica,sans-Serif" font-size="10.00">fiftyone.pipeline.core.flowelements.</text>
<text text-anchor="start" x="257" y="-18" font-family="Helvetica,sans-Serif" font-size="10.00">PipelineBuilderBase&lt; T extends</text>
<text text-anchor="middle" x="344.5" y="-7" font-family="Helvetica,sans-Serif" font-size="10.00"> PipelineBuilderBase &gt;</text>
</a>
</g>
</g>
<!-- Node4&#45;&gt;Node3 -->
<g id="edge3_Node000003_Node000004" class="edge">
<title>Node4&#45;&gt;Node3</title>
<g id="a_edge3_Node000003_Node000004"><a xlink:title=" ">
<path fill="none" stroke="#63b8ff" d="M450.35,-27.01C478.52,-29.07 508.95,-31.59 537,-34.5 542.77,-35.1 548.68,-35.75 554.63,-36.43"/>
<polygon fill="#63b8ff" stroke="#63b8ff" points="450.31,-23.49 440.08,-26.27 449.8,-30.48 450.31,-23.49"/>
</a>
</g>
</g>
<!-- Node5 -->
<g id="Node000005" class="node">
<title>Node5</title>
<g id="a_Node000005"><a xlink:href="classfiftyone_1_1pipeline_1_1core_1_1flowelements_1_1_pipeline_builder_base.html" target="_top" xlink:title="Abstract base class for all Pipeline builders.">
<polygon fill="white" stroke="#666666" points="191,-41 0,-41 0,0 191,0 191,-41"/>
<text text-anchor="start" x="8" y="-29" font-family="Helvetica,sans-Serif" font-size="10.00">fiftyone.pipeline.core.flowelements.</text>
<text text-anchor="start" x="8" y="-18" font-family="Helvetica,sans-Serif" font-size="10.00">PipelineBuilderBase&lt; T extends</text>
<text text-anchor="middle" x="95.5" y="-7" font-family="Helvetica,sans-Serif" font-size="10.00"> PipelineBuilderBase &gt;</text>
</a>
</g>
</g>
<!-- Node5&#45;&gt;Node4 -->
<g id="edge4_Node000004_Node000005" class="edge">
<title>Node5&#45;&gt;Node4</title>
<g id="a_edge4_Node000004_Node000005"><a xlink:title=" ">
<path fill="none" stroke="orange" stroke-dasharray="5,2" d="M201.57,-20.5C217.31,-20.5 233.46,-20.5 248.96,-20.5"/>
<polygon fill="orange" stroke="orange" points="201.29,-17 191.29,-20.5 201.29,-24 201.29,-17"/>
</a>
</g>
<text text-anchor="start" x="212.5" y="-26" font-family="Helvetica,sans-Serif" font-size="10.00" fill="grey">T</text>
</g>
<!-- Node5&#45;&gt;Node5 -->
<g id="edge5_Node000005_Node000005" class="edge">
<title>Node5&#45;&gt;Node5</title>
<g id="a_edge5_Node000005_Node000005"><a xlink:title=" ">
<path fill="none" stroke="orange" stroke-dasharray="5,2" d="M75.09,-51.32C78.27,-55.9 85.07,-59 95.5,-59 112.61,-59 119.96,-50.65 117.56,-41.1"/>
<polygon fill="orange" stroke="orange" points="78.49,-50.41 73.44,-41.1 71.58,-51.53 78.49,-50.41"/>
</a>
</g>
<text text-anchor="start" x="92.5" y="-64.5" font-family="Helvetica,sans-Serif" font-size="10.00" fill="grey">T</text>
</g>
</g>
</svg>
