<?xml version="1.0" encoding="UTF-8" standalone="no"?>
<!DOCTYPE svg PUBLIC "-//W3C//DTD SVG 1.1//EN"
 "http://www.w3.org/Graphics/SVG/1.1/DTD/svg11.dtd">
<!-- Generated by graphviz version 2.43.0 (0)
 -->
<!-- Title: fiftyone.pipeline.engines.trackers.TrackerBase&lt; T &gt; Pages: 1 -->
<svg width="1381pt" height="98pt"
 viewBox="0.00 0.00 1381.00 98.00" xmlns="http://www.w3.org/2000/svg" xmlns:xlink="http://www.w3.org/1999/xlink">
<g id="graph0" class="graph" transform="scale(1 1) rotate(0) translate(4 94)">
<title>fiftyone.pipeline.engines.trackers.TrackerBase&lt; T &gt;</title>
<!-- Node1 -->
<g id="Node000001" class="node">
<title>Node1</title>
<g id="a_Node000001"><a xlink:title="The abstract base class for trackers.">
<polygon fill="#999999" stroke="#666666" points="1064,-54 882,-54 882,-24 1064,-24 1064,-54"/>
<text text-anchor="start" x="890" y="-42" font-family="Helvetica,sans-Serif" font-size="10.00">fiftyone.pipeline.engines.trackers.</text>
<text text-anchor="middle" x="973" y="-31" font-family="Helvetica,sans-Serif" font-size="10.00">TrackerBase&lt; T &gt;</text>
</a>
</g>
</g>
<!-- Node8 -->
<g id="Node000008" class="node">
<title>Node8</title>
<g id="a_Node000008"><a xlink:href="classfiftyone_1_1pipeline_1_1engines_1_1fiftyone_1_1trackers_1_1_share_usage_tracker.html" target="_top" xlink:title="A tracker used by share usage to attempt to avoid repeatedly sending data relating to the same user s...">
<polygon fill="white" stroke="#666666" points="1373,-78 1152,-78 1152,-48 1373,-48 1373,-78"/>
<text text-anchor="start" x="1160" y="-66" font-family="Helvetica,sans-Serif" font-size="10.00">fiftyone.pipeline.engines.fiftyone.trackers.</text>
<text text-anchor="middle" x="1262.5" y="-55" font-family="Helvetica,sans-Serif" font-size="10.00">ShareUsageTracker&lt; Date &gt;</text>
</a>
</g>
</g>
<!-- Node1&#45;&gt;Node8 -->
<g id="edge7_Node000001_Node000008" class="edge">
<title>Node1&#45;&gt;Node8</title>
<g id="a_edge7_Node000001_Node000008"><a xlink:title=" ">
<path fill="none" stroke="#63b8ff" d="M1074.42,-47.38C1099.48,-49.47 1126.47,-51.73 1151.95,-53.86"/>
<polygon fill="#63b8ff" stroke="#63b8ff" points="1074.43,-43.87 1064.18,-46.53 1073.85,-50.85 1074.43,-43.87"/>
</a>
</g>
</g>
<!-- Node9 -->
<g id="Node000009" class="node">
<title>Node9</title>
<g id="a_Node000009"><a xlink:href="classfiftyone_1_1pipeline_1_1engines_1_1trackers_1_1_tracker_base.html" target="_top" xlink:title=" ">
<polygon fill="white" stroke="#666666" points="1353.5,-30 1171.5,-30 1171.5,0 1353.5,0 1353.5,-30"/>
<text text-anchor="start" x="1179.5" y="-18" font-family="Helvetica,sans-Serif" font-size="10.00">fiftyone.pipeline.engines.trackers.</text>
<text text-anchor="middle" x="1262.5" y="-7" font-family="Helvetica,sans-Serif" font-size="10.00">TrackerBase&lt; Date &gt;</text>
</a>
</g>
</g>
<!-- Node1&#45;&gt;Node9 -->
<g id="edge8_Node000001_Node000009" class="edge">
<title>Node1&#45;&gt;Node9</title>
<g id="a_edge8_Node000001_Node000009"><a xlink:title=" ">
<path fill="none" stroke="orange" stroke-dasharray="5,2" d="M1074.27,-28.69C1076.87,-28.45 1079.45,-28.22 1082,-28 1110.95,-25.48 1142.55,-23.07 1171.06,-21.03"/>
<polygon fill="orange" stroke="orange" points="1073.78,-25.22 1064.14,-29.62 1074.42,-32.19 1073.78,-25.22"/>
</a>
</g>
<text text-anchor="start" x="1085" y="-33.5" font-family="Helvetica,sans-Serif" font-size="10.00" fill="grey">&lt; Date &gt;</text>
</g>
<!-- Node2 -->
<g id="Node000002" class="node">
<title>Node2</title>
<g id="a_Node000002"><a xlink:href="classfiftyone_1_1pipeline_1_1engines_1_1caching_1_1_data_keyed_cache_base.html" target="_top" xlink:title="Abstract base class for caches that use FlowData as the key.">
<polygon fill="white" stroke="#666666" points="844,-90 664,-90 664,-60 844,-60 844,-90"/>
<text text-anchor="start" x="672" y="-78" font-family="Helvetica,sans-Serif" font-size="10.00">fiftyone.pipeline.engines.caching.</text>
<text text-anchor="middle" x="754" y="-67" font-family="Helvetica,sans-Serif" font-size="10.00">DataKeyedCacheBase&lt; V &gt;</text>
</a>
</g>
</g>
<!-- Node2&#45;&gt;Node1 -->
<g id="edge1_Node000001_Node000002" class="edge">
<title>Node2&#45;&gt;Node1</title>
<g id="a_edge1_Node000001_Node000002"><a xlink:title=" ">
<path fill="none" stroke="#63b8ff" d="M854.14,-58.55C863.34,-57.03 872.63,-55.49 881.74,-53.97"/>
<polygon fill="#63b8ff" stroke="#63b8ff" points="853.49,-55.11 844.2,-60.2 854.64,-62.02 853.49,-55.11"/>
</a>
</g>
</g>
<!-- Node3 -->
<g id="Node000003" class="node">
<title>Node3</title>
<g id="a_Node000003"><a xlink:href="interfacefiftyone_1_1pipeline_1_1engines_1_1caching_1_1_data_keyed_cache.html" target="_top" xlink:title="Represents a put cache where the key is a FlowData instance.">
<polygon fill="white" stroke="#666666" points="626,-90 446,-90 446,-60 626,-60 626,-90"/>
<text text-anchor="start" x="454" y="-78" font-family="Helvetica,sans-Serif" font-size="10.00">fiftyone.pipeline.engines.caching.</text>
<text text-anchor="middle" x="536" y="-67" font-family="Helvetica,sans-Serif" font-size="10.00">DataKeyedCache&lt; V &gt;</text>
</a>
</g>
</g>
<!-- Node3&#45;&gt;Node2 -->
<g id="edge2_Node000002_Node000003" class="edge">
<title>Node3&#45;&gt;Node2</title>
<g id="a_edge2_Node000002_Node000003"><a xlink:title=" ">
<path fill="none" stroke="#63b8ff" d="M636.37,-75C645.5,-75 654.72,-75 663.75,-75"/>
<polygon fill="#63b8ff" stroke="#63b8ff" points="636.1,-71.5 626.1,-75 636.1,-78.5 636.1,-71.5"/>
</a>
</g>
</g>
<!-- Node4 -->
<g id="Node000004" class="node">
<title>Node4</title>
<g id="a_Node000004"><a xlink:href="interfacefiftyone_1_1caching_1_1_put_cache.html" target="_top" xlink:title="A cache that supports a thread safe put method for inserting to cache.">
<polygon fill="white" stroke="#666666" points="409,-90 266,-90 266,-60 409,-60 409,-90"/>
<text text-anchor="start" x="274" y="-78" font-family="Helvetica,sans-Serif" font-size="10.00">fiftyone.caching.PutCache</text>
<text text-anchor="middle" x="337.5" y="-67" font-family="Helvetica,sans-Serif" font-size="10.00">&lt; K, V &gt;</text>
</a>
</g>
</g>
<!-- Node4&#45;&gt;Node3 -->
<g id="edge3_Node000003_Node000004" class="edge">
<title>Node4&#45;&gt;Node3</title>
<g id="a_edge3_Node000003_Node000004"><a xlink:title=" ">
<path fill="none" stroke="#63b8ff" d="M419.31,-75C428.05,-75 436.97,-75 445.79,-75"/>
<polygon fill="#63b8ff" stroke="#63b8ff" points="419.16,-71.5 409.16,-75 419.16,-78.5 419.16,-71.5"/>
</a>
</g>
</g>
<!-- Node5 -->
<g id="Node000005" class="node">
<title>Node5</title>
<g id="a_Node000005"><a xlink:href="interfacefiftyone_1_1caching_1_1_cache.html" target="_top" xlink:title="Base cache interface which declares only the get method and the types of key and value stored in the ...">
<polygon fill="white" stroke="#666666" points="229,-90 102,-90 102,-60 229,-60 229,-90"/>
<text text-anchor="start" x="110" y="-78" font-family="Helvetica,sans-Serif" font-size="10.00">fiftyone.caching.Cache</text>
<text text-anchor="middle" x="165.5" y="-67" font-family="Helvetica,sans-Serif" font-size="10.00">&lt; K, V &gt;</text>
</a>
</g>
</g>
<!-- Node5&#45;&gt;Node4 -->
<g id="edge4_Node000004_Node000005" class="edge">
<title>Node5&#45;&gt;Node4</title>
<g id="a_edge4_Node000004_Node000005"><a xlink:title=" ">
<path fill="none" stroke="#63b8ff" d="M239.5,-75C248.26,-75 257.19,-75 265.92,-75"/>
<polygon fill="#63b8ff" stroke="#63b8ff" points="239.32,-71.5 229.32,-75 239.32,-78.5 239.32,-71.5"/>
</a>
</g>
</g>
<!-- Node6 -->
<g id="Node000006" class="node">
<title>Node6</title>
<g id="a_Node000006"><a xlink:title=" ">
<polygon fill="white" stroke="#bfbfbf" points="65,-84.5 0,-84.5 0,-65.5 65,-65.5 65,-84.5"/>
<text text-anchor="middle" x="32.5" y="-72.5" font-family="Helvetica,sans-Serif" font-size="10.00">Closeable</text>
</a>
</g>
</g>
<!-- Node6&#45;&gt;Node5 -->
<g id="edge5_Node000005_Node000006" class="edge">
<title>Node6&#45;&gt;Node5</title>
<g id="a_edge5_Node000005_Node000006"><a xlink:title=" ">
<path fill="none" stroke="#63b8ff" d="M75.48,-75C83.87,-75 92.86,-75 101.78,-75"/>
<polygon fill="#63b8ff" stroke="#63b8ff" points="75.21,-71.5 65.21,-75 75.21,-78.5 75.21,-71.5"/>
</a>
</g>
</g>
<!-- Node7 -->
<g id="Node000007" class="node">
<title>Node7</title>
<g id="a_Node000007"><a xlink:href="interfacefiftyone_1_1pipeline_1_1engines_1_1trackers_1_1_tracker.html" target="_top" xlink:title="Represents a &#39;tracker&#39;.">
<polygon fill="white" stroke="#666666" points="845,-42 663,-42 663,-12 845,-12 845,-42"/>
<text text-anchor="start" x="671" y="-30" font-family="Helvetica,sans-Serif" font-size="10.00">fiftyone.pipeline.engines.trackers.</text>
<text text-anchor="middle" x="754" y="-19" font-family="Helvetica,sans-Serif" font-size="10.00">Tracker</text>
</a>
</g>
</g>
<!-- Node7&#45;&gt;Node1 -->
<g id="edge6_Node000001_Node000007" class="edge">
<title>Node7&#45;&gt;Node1</title>
<g id="a_edge6_Node000001_Node000007"><a xlink:title=" ">
<path fill="none" stroke="#63b8ff" d="M855.13,-32.54C864.02,-33.03 872.99,-33.52 881.79,-34.01"/>
<polygon fill="#63b8ff" stroke="#63b8ff" points="855.32,-29.04 845.14,-31.98 854.93,-36.03 855.32,-29.04"/>
</a>
</g>
</g>
</g>
</svg>
