<?xml version="1.0" encoding="UTF-8" standalone="no"?>
<!DOCTYPE svg PUBLIC "-//W3C//DTD SVG 1.1//EN"
 "http://www.w3.org/Graphics/SVG/1.1/DTD/svg11.dtd">
<!-- Generated by graphviz version 2.43.0 (0)
 -->
<!-- Title: fiftyone.pipeline.engines.flowelements.PrePackagedPipelineBuilderBase&lt; TBuilder extends PrePackagedPipelineBuilderBase&lt; TBuilder &gt; &gt; Pages: 1 -->
<svg width="1393pt" height="127pt"
 viewBox="0.00 0.00 1393.00 126.50" xmlns="http://www.w3.org/2000/svg" xmlns:xlink="http://www.w3.org/1999/xlink">
<g id="graph0" class="graph" transform="scale(1 1) rotate(0) translate(4 122.5)">
<title>fiftyone.pipeline.engines.flowelements.PrePackagedPipelineBuilderBase&lt; TBuilder extends PrePackagedPipelineBuilderBase&lt; TBuilder &gt; &gt;</title>
<!-- Node1 -->
<g id="Node000001" class="node">
<title>Node1</title>
<g id="a_Node000001"><a xlink:title="Base class for pipeline builders that will produce a pipeline with specific flow elements.">
<polygon fill="#999999" stroke="#666666" points="716,-97.5 468,-97.5 468,-45.5 716,-45.5 716,-97.5"/>
<text text-anchor="start" x="476" y="-85.5" font-family="Helvetica,sans-Serif" font-size="10.00">fiftyone.pipeline.engines.flowelements.</text>
<text text-anchor="start" x="476" y="-74.5" font-family="Helvetica,sans-Serif" font-size="10.00">PrePackagedPipelineBuilderBase</text>
<text text-anchor="start" x="476" y="-63.5" font-family="Helvetica,sans-Serif" font-size="10.00">&lt; TBuilder extends PrePackagedPipelineBuilder</text>
<text text-anchor="middle" x="592" y="-52.5" font-family="Helvetica,sans-Serif" font-size="10.00">Base&lt; TBuilder &gt; &gt;</text>
</a>
</g>
</g>
<!-- Node4 -->
<g id="Node000004" class="node">
<title>Node4</title>
<g id="a_Node000004"><a xlink:href="classfiftyone_1_1pipeline_1_1engines_1_1flowelements_1_1_pre_packaged_pipeline_builder_base.html" target="_top" xlink:title=" ">
<polygon fill="white" stroke="#666666" points="1031,-102 822,-102 822,-61 1031,-61 1031,-102"/>
<text text-anchor="start" x="830" y="-90" font-family="Helvetica,sans-Serif" font-size="10.00">fiftyone.pipeline.engines.flowelements.</text>
<text text-anchor="start" x="830" y="-79" font-family="Helvetica,sans-Serif" font-size="10.00">PrePackagedPipelineBuilderBase</text>
<text text-anchor="middle" x="926.5" y="-68" font-family="Helvetica,sans-Serif" font-size="10.00">&lt; TBuilder &gt;</text>
</a>
</g>
</g>
<!-- Node1&#45;&gt;Node4 -->
<g id="edge8_Node000004_Node000001" class="edge">
<title>Node1&#45;&gt;Node4</title>
<g id="a_edge8_Node000004_Node000001"><a xlink:title=" ">
<path fill="none" stroke="orange" stroke-dasharray="5,2" d="M726.28,-98.67C728.87,-98.97 731.45,-99.25 734,-99.5 764.96,-102.54 772.97,-101.79 804,-99.5 809.85,-99.07 815.84,-98.52 821.88,-97.89"/>
<polygon fill="orange" stroke="orange" points="726.57,-95.18 716.21,-97.42 725.7,-102.13 726.57,-95.18"/>
</a>
</g>
<text text-anchor="start" x="737" y="-107" font-family="Helvetica,sans-Serif" font-size="10.00" fill="grey">&lt; TBuilder &gt;</text>
</g>
<!-- Node1&#45;&gt;Node4 -->
<g id="edge9_Node000001_Node000004" class="edge">
<title>Node1&#45;&gt;Node4</title>
<g id="a_edge9_Node000001_Node000004"><a xlink:title=" ">
<path fill="none" stroke="orange" stroke-dasharray="5,2" d="M726.59,-75.52C758.36,-76.47 791.78,-77.48 821.97,-78.39"/>
<polygon fill="orange" stroke="orange" points="726.44,-72.01 716.34,-75.21 726.23,-79.01 726.44,-72.01"/>
</a>
</g>
<text text-anchor="start" x="737" y="-83" font-family="Helvetica,sans-Serif" font-size="10.00" fill="grey">&lt; TBuilder &gt;</text>
</g>
<!-- Node2 -->
<g id="Node000002" class="node">
<title>Node2</title>
<g id="a_Node000002"><a xlink:href="classfiftyone_1_1pipeline_1_1core_1_1flowelements_1_1_pipeline_builder_base.html" target="_top" xlink:title="Abstract base class for all Pipeline builders.">
<polygon fill="white" stroke="#666666" points="431,-41 240,-41 240,0 431,0 431,-41"/>
<text text-anchor="start" x="248" y="-29" font-family="Helvetica,sans-Serif" font-size="10.00">fiftyone.pipeline.core.flowelements.</text>
<text text-anchor="start" x="248" y="-18" font-family="Helvetica,sans-Serif" font-size="10.00">PipelineBuilderBase&lt; T extends</text>
<text text-anchor="middle" x="335.5" y="-7" font-family="Helvetica,sans-Serif" font-size="10.00"> PipelineBuilderBase &gt;</text>
</a>
</g>
</g>
<!-- Node2&#45;&gt;Node1 -->
<g id="edge1_Node000001_Node000002" class="edge">
<title>Node2&#45;&gt;Node1</title>
<g id="a_edge1_Node000001_Node000002"><a xlink:title=" ">
<path fill="none" stroke="#63b8ff" d="M441.09,-41.46C449.85,-43.21 458.76,-45 467.64,-46.78"/>
<polygon fill="#63b8ff" stroke="#63b8ff" points="441.76,-38.02 431.27,-39.49 440.38,-44.89 441.76,-38.02"/>
</a>
</g>
</g>
<!-- Node5 -->
<g id="Node000005" class="node">
<title>Node5</title>
<g id="a_Node000005"><a xlink:href="classfiftyone_1_1pipeline_1_1engines_1_1flowelements_1_1_pre_packaged_pipeline_builder_base.html" target="_top" xlink:title="Base class for pipeline builders that will produce a pipeline with specific flow elements.">
<polygon fill="white" stroke="#666666" points="1385,-67.5 1137,-67.5 1137,-15.5 1385,-15.5 1385,-67.5"/>
<text text-anchor="start" x="1145" y="-55.5" font-family="Helvetica,sans-Serif" font-size="10.00">fiftyone.pipeline.engines.flowelements.</text>
<text text-anchor="start" x="1145" y="-44.5" font-family="Helvetica,sans-Serif" font-size="10.00">PrePackagedPipelineBuilderBase</text>
<text text-anchor="start" x="1145" y="-33.5" font-family="Helvetica,sans-Serif" font-size="10.00">&lt; TBuilder extends PrePackagedPipelineBuilder</text>
<text text-anchor="middle" x="1261" y="-22.5" font-family="Helvetica,sans-Serif" font-size="10.00">Base&lt; TBuilder &gt; &gt;</text>
</a>
</g>
</g>
<!-- Node2&#45;&gt;Node5 -->
<g id="edge6_Node000005_Node000002" class="edge">
<title>Node2&#45;&gt;Node5</title>
<g id="a_edge6_Node000005_Node000002"><a xlink:title=" ">
<path fill="none" stroke="#63b8ff" d="M441.23,-20.5C591.38,-20.86 876.47,-22.91 1119,-32.5 1124.88,-32.73 1130.9,-33 1136.98,-33.3"/>
<polygon fill="#63b8ff" stroke="#63b8ff" points="441.1,-17 431.09,-20.47 441.09,-24 441.1,-17"/>
</a>
</g>
</g>
<!-- Node3 -->
<g id="Node000003" class="node">
<title>Node3</title>
<g id="a_Node000003"><a xlink:href="classfiftyone_1_1pipeline_1_1core_1_1flowelements_1_1_pipeline_builder_base.html" target="_top" xlink:title="Abstract base class for all Pipeline builders.">
<polygon fill="white" stroke="#666666" points="191,-41 0,-41 0,0 191,0 191,-41"/>
<text text-anchor="start" x="8" y="-29" font-family="Helvetica,sans-Serif" font-size="10.00">fiftyone.pipeline.core.flowelements.</text>
<text text-anchor="start" x="8" y="-18" font-family="Helvetica,sans-Serif" font-size="10.00">PipelineBuilderBase&lt; T extends</text>
<text text-anchor="middle" x="95.5" y="-7" font-family="Helvetica,sans-Serif" font-size="10.00"> PipelineBuilderBase &gt;</text>
</a>
</g>
</g>
<!-- Node3&#45;&gt;Node2 -->
<g id="edge2_Node000002_Node000003" class="edge">
<title>Node3&#45;&gt;Node2</title>
<g id="a_edge2_Node000002_Node000003"><a xlink:title=" ">
<path fill="none" stroke="orange" stroke-dasharray="5,2" d="M201.41,-20.5C214.15,-20.5 227.11,-20.5 239.69,-20.5"/>
<polygon fill="orange" stroke="orange" points="201.25,-17 191.25,-20.5 201.25,-24 201.25,-17"/>
</a>
</g>
<text text-anchor="start" x="212.5" y="-26" font-family="Helvetica,sans-Serif" font-size="10.00" fill="grey">T</text>
</g>
<!-- Node3&#45;&gt;Node3 -->
<g id="edge3_Node000003_Node000003" class="edge">
<title>Node3&#45;&gt;Node3</title>
<g id="a_edge3_Node000003_Node000003"><a xlink:title=" ">
<path fill="none" stroke="orange" stroke-dasharray="5,2" d="M75.09,-51.32C78.27,-55.9 85.07,-59 95.5,-59 112.61,-59 119.96,-50.65 117.56,-41.1"/>
<polygon fill="orange" stroke="orange" points="78.49,-50.41 73.44,-41.1 71.58,-51.53 78.49,-50.41"/>
</a>
</g>
<text text-anchor="start" x="92.5" y="-64.5" font-family="Helvetica,sans-Serif" font-size="10.00" fill="grey">T</text>
</g>
<!-- Node4&#45;&gt;Node1 -->
<g id="edge4_Node000001_Node000004" class="edge">
<title>Node4&#45;&gt;Node1</title>
<g id="a_edge4_Node000001_Node000004"><a xlink:title=" ">
<path fill="none" stroke="orange" stroke-dasharray="5,2" d="M864.04,-57.69C845.08,-51.46 823.94,-45.62 804,-42.5 768.47,-36.94 729.49,-39.79 694.8,-45.46"/>
<polygon fill="orange" stroke="orange" points="863.14,-61.08 873.73,-60.97 865.38,-54.45 863.14,-61.08"/>
</a>
</g>
<text text-anchor="start" x="749" y="-48" font-family="Helvetica,sans-Serif" font-size="10.00" fill="grey">TBuilder</text>
</g>
<!-- Node4&#45;&gt;Node5 -->
<g id="edge7_Node000005_Node000004" class="edge">
<title>Node4&#45;&gt;Node5</title>
<g id="a_edge7_Node000005_Node000004"><a xlink:title=" ">
<path fill="none" stroke="orange" stroke-dasharray="5,2" d="M1041.47,-68.65C1066.99,-65.7 1093.92,-62.54 1119,-59.5 1124.88,-58.79 1130.9,-58.05 1136.97,-57.3"/>
<polygon fill="orange" stroke="orange" points="1040.92,-65.19 1031.39,-69.81 1041.72,-72.14 1040.92,-65.19"/>
</a>
</g>
<text text-anchor="start" x="1064" y="-73" font-family="Helvetica,sans-Serif" font-size="10.00" fill="grey">TBuilder</text>
</g>
<!-- Node5&#45;&gt;Node4 -->
<g id="edge5_Node000004_Node000005" class="edge">
<title>Node5&#45;&gt;Node4</title>
<g id="a_edge5_Node000004_Node000005"><a xlink:title=" ">
<path fill="none" stroke="orange" stroke-dasharray="5,2" d="M1126.52,-35.97C1100.69,-36.64 1073.91,-38.54 1049,-42.5 1025.7,-46.2 1000.76,-53.58 979.57,-60.92"/>
<polygon fill="orange" stroke="orange" points="1126.83,-39.47 1136.76,-35.77 1126.69,-32.47 1126.83,-39.47"/>
</a>
</g>
<text text-anchor="start" x="1052" y="-48" font-family="Helvetica,sans-Serif" font-size="10.00" fill="grey">&lt; TBuilder &gt;</text>
</g>
</g>
</svg>
