<?xml version="1.0" encoding="UTF-8" standalone="no"?>
<!DOCTYPE svg PUBLIC "-//W3C//DTD SVG 1.1//EN"
 "http://www.w3.org/Graphics/SVG/1.1/DTD/svg11.dtd">
<!-- Generated by graphviz version 2.43.0 (0)
 -->
<!-- Title: fiftyone.pipeline.engines.flowelements.AspectEngineBase&lt; TData extends AspectData, TProperty extends AspectPropertyMetaData &gt; Pages: 1 -->
<svg width="2181pt" height="324pt"
 viewBox="0.00 0.00 2181.00 324.00" xmlns="http://www.w3.org/2000/svg" xmlns:xlink="http://www.w3.org/1999/xlink">
<g id="graph0" class="graph" transform="scale(1 1) rotate(0) translate(4 320)">
<title>fiftyone.pipeline.engines.flowelements.AspectEngineBase&lt; TData extends AspectData, TProperty extends AspectPropertyMetaData &gt;</title>
<!-- Node1 -->
<g id="Node000001" class="node">
<title>Node1</title>
<g id="a_Node000001"><a xlink:title="Base class for AspectEngines to extend.">
<polygon fill="#999999" stroke="#666666" points="2173,-209 1925,-209 1925,-157 2173,-157 2173,-209"/>
<text text-anchor="start" x="1933" y="-197" font-family="Helvetica,sans-Serif" font-size="10.00">fiftyone.pipeline.engines.flowelements.</text>
<text text-anchor="start" x="1933" y="-186" font-family="Helvetica,sans-Serif" font-size="10.00">AspectEngineBase&lt; TData extends</text>
<text text-anchor="start" x="1933" y="-175" font-family="Helvetica,sans-Serif" font-size="10.00"> AspectData, TProperty extends AspectProperty</text>
<text text-anchor="middle" x="2049" y="-164" font-family="Helvetica,sans-Serif" font-size="10.00">MetaData &gt;</text>
</a>
</g>
</g>
<!-- Node2 -->
<g id="Node000002" class="node">
<title>Node2</title>
<g id="a_Node000002"><a xlink:href="classfiftyone_1_1pipeline_1_1core_1_1flowelements_1_1_flow_element_base.html" target="_top" xlink:title="Provides a base class from which authors may create new FlowElements.">
<polygon fill="white" stroke="#666666" points="1383,-180 1192,-180 1192,-128 1383,-128 1383,-180"/>
<text text-anchor="start" x="1200" y="-168" font-family="Helvetica,sans-Serif" font-size="10.00">fiftyone.pipeline.core.flowelements.</text>
<text text-anchor="start" x="1200" y="-157" font-family="Helvetica,sans-Serif" font-size="10.00">FlowElementBase&lt; TData extends</text>
<text text-anchor="start" x="1200" y="-146" font-family="Helvetica,sans-Serif" font-size="10.00"> ElementData, TProperty extends</text>
<text text-anchor="middle" x="1287.5" y="-135" font-family="Helvetica,sans-Serif" font-size="10.00"> ElementPropertyMetaData &gt;</text>
</a>
</g>
</g>
<!-- Node2&#45;&gt;Node1 -->
<g id="edge1_Node000001_Node000002" class="edge">
<title>Node2&#45;&gt;Node1</title>
<g id="a_edge1_Node000001_Node000002"><a xlink:title=" ">
<path fill="none" stroke="#63b8ff" d="M1393.39,-158C1532.36,-163.31 1777.11,-172.66 1924.75,-178.29"/>
<polygon fill="#63b8ff" stroke="#63b8ff" points="1393.28,-154.5 1383.16,-157.61 1393.01,-161.49 1393.28,-154.5"/>
</a>
</g>
</g>
<!-- Node3 -->
<g id="Node000003" class="node">
<title>Node3</title>
<g id="a_Node000003"><a xlink:href="interfacefiftyone_1_1pipeline_1_1core_1_1flowelements_1_1_flow_element.html" target="_top" xlink:title=" ">
<polygon fill="white" stroke="#666666" points="1036,-164 845,-164 845,-134 1036,-134 1036,-164"/>
<text text-anchor="start" x="853" y="-152" font-family="Helvetica,sans-Serif" font-size="10.00">fiftyone.pipeline.core.flowelements.</text>
<text text-anchor="middle" x="940.5" y="-141" font-family="Helvetica,sans-Serif" font-size="10.00">FlowElement&lt; TData, TProperty &gt;</text>
</a>
</g>
</g>
<!-- Node3&#45;&gt;Node2 -->
<g id="edge2_Node000002_Node000003" class="edge">
<title>Node3&#45;&gt;Node2</title>
<g id="a_edge2_Node000002_Node000003"><a xlink:title=" ">
<path fill="none" stroke="#63b8ff" d="M1046.31,-150.52C1092.7,-151.19 1146.85,-151.98 1191.98,-152.63"/>
<polygon fill="#63b8ff" stroke="#63b8ff" points="1046.28,-147.02 1036.23,-150.37 1046.18,-154.02 1046.28,-147.02"/>
</a>
</g>
</g>
<!-- Node12 -->
<g id="Node000012" class="node">
<title>Node12</title>
<g id="a_Node000012"><a xlink:href="interfacefiftyone_1_1pipeline_1_1engines_1_1flowelements_1_1_aspect_engine.html" target="_top" xlink:title="AspectEngines are a subset of FlowElements.">
<polygon fill="white" stroke="#666666" points="1410,-243.5 1165,-243.5 1165,-202.5 1410,-202.5 1410,-243.5"/>
<text text-anchor="start" x="1173" y="-231.5" font-family="Helvetica,sans-Serif" font-size="10.00">fiftyone.pipeline.engines.flowelements.</text>
<text text-anchor="start" x="1173" y="-220.5" font-family="Helvetica,sans-Serif" font-size="10.00">AspectEngine&lt; TData extends AspectData,</text>
<text text-anchor="middle" x="1287.5" y="-209.5" font-family="Helvetica,sans-Serif" font-size="10.00"> TProperty extends AspectPropertyMetaData &gt;</text>
</a>
</g>
</g>
<!-- Node3&#45;&gt;Node12 -->
<g id="edge14_Node000012_Node000003" class="edge">
<title>Node3&#45;&gt;Node12</title>
<g id="a_edge14_Node000012_Node000003"><a xlink:title=" ">
<path fill="none" stroke="#63b8ff" d="M1021.63,-166.19C1072.14,-177.02 1137.64,-191.07 1190.87,-202.49"/>
<polygon fill="#63b8ff" stroke="#63b8ff" points="1022.24,-162.74 1011.73,-164.06 1020.78,-169.58 1022.24,-162.74"/>
</a>
</g>
</g>
<!-- Node4 -->
<g id="Node000004" class="node">
<title>Node4</title>
<g id="a_Node000004"><a xlink:href="interfacefiftyone_1_1pipeline_1_1core_1_1flowelements_1_1_flow_element.html" target="_top" xlink:title="A component that processes a FlowData (by examining its evidence, or by examining data processed by o...">
<polygon fill="white" stroke="#666666" points="697,-175.5 444,-175.5 444,-134.5 697,-134.5 697,-175.5"/>
<text text-anchor="start" x="452" y="-163.5" font-family="Helvetica,sans-Serif" font-size="10.00">fiftyone.pipeline.core.flowelements.</text>
<text text-anchor="start" x="452" y="-152.5" font-family="Helvetica,sans-Serif" font-size="10.00">FlowElement&lt; TData extends ElementData,</text>
<text text-anchor="middle" x="570.5" y="-141.5" font-family="Helvetica,sans-Serif" font-size="10.00"> TProperty extends ElementPropertyMetaData &gt;</text>
</a>
</g>
</g>
<!-- Node4&#45;&gt;Node3 -->
<g id="edge3_Node000003_Node000004" class="edge">
<title>Node4&#45;&gt;Node3</title>
<g id="a_edge3_Node000003_Node000004"><a xlink:title=" ">
<path fill="none" stroke="orange" stroke-dasharray="5,2" d="M707.12,-152.79C752.92,-152.04 803.03,-151.23 844.95,-150.54"/>
<polygon fill="orange" stroke="orange" points="707.06,-149.29 697.12,-152.95 707.17,-156.29 707.06,-149.29"/>
</a>
</g>
<text text-anchor="start" x="718" y="-157.5" font-family="Helvetica,sans-Serif" font-size="10.00" fill="grey">&lt; TData, TProperty &gt;</text>
</g>
<!-- Node5 -->
<g id="Node000005" class="node">
<title>Node5</title>
<g id="a_Node000005"><a xlink:title=" ">
<polygon fill="white" stroke="#bfbfbf" points="324,-126.5 237,-126.5 237,-107.5 324,-107.5 324,-126.5"/>
<text text-anchor="middle" x="280.5" y="-114.5" font-family="Helvetica,sans-Serif" font-size="10.00">AutoCloseable</text>
</a>
</g>
</g>
<!-- Node5&#45;&gt;Node4 -->
<g id="edge4_Node000004_Node000005" class="edge">
<title>Node5&#45;&gt;Node4</title>
<g id="a_edge4_Node000004_Node000005"><a xlink:title=" ">
<path fill="none" stroke="#63b8ff" d="M334.37,-123.98C365.15,-128.04 405.37,-133.34 443.82,-138.42"/>
<polygon fill="#63b8ff" stroke="#63b8ff" points="334.68,-120.49 324.31,-122.65 333.76,-127.43 334.68,-120.49"/>
</a>
</g>
</g>
<!-- Node6 -->
<g id="Node000006" class="node">
<title>Node6</title>
<g id="a_Node000006"><a xlink:href="interfacefiftyone_1_1pipeline_1_1core_1_1data_1_1_element_data.html" target="_top" xlink:title="Represents property values that have be determined by a specific FlowElement based on the supplied ev...">
<polygon fill="white" stroke="#666666" points="354,-267 207,-267 207,-237 354,-237 354,-267"/>
<text text-anchor="start" x="215" y="-255" font-family="Helvetica,sans-Serif" font-size="10.00">fiftyone.pipeline.core.data.</text>
<text text-anchor="middle" x="280.5" y="-244" font-family="Helvetica,sans-Serif" font-size="10.00">ElementData</text>
</a>
</g>
</g>
<!-- Node6&#45;&gt;Node2 -->
<g id="edge10_Node000002_Node000006" class="edge">
<title>Node6&#45;&gt;Node2</title>
<g id="a_edge10_Node000002_Node000006"><a xlink:title=" ">
<path fill="none" stroke="orange" stroke-dasharray="5,2" d="M364.36,-243.98C384.53,-242.03 406.04,-239.94 426,-238 704.44,-210.92 1033.54,-178.75 1191.96,-163.25"/>
<polygon fill="orange" stroke="orange" points="363.89,-240.51 354.27,-244.96 364.56,-247.48 363.89,-240.51"/>
</a>
</g>
<text text-anchor="start" x="756" y="-214.5" font-family="Helvetica,sans-Serif" font-size="10.00" fill="grey">TData</text>
</g>
<!-- Node6&#45;&gt;Node4 -->
<g id="edge5_Node000004_Node000006" class="edge">
<title>Node6&#45;&gt;Node4</title>
<g id="a_edge5_Node000004_Node000006"><a xlink:title=" ">
<path fill="none" stroke="orange" stroke-dasharray="5,2" d="M334.82,-233.66C347.03,-229.48 359.96,-225.07 372,-221 417.37,-205.65 468.69,-188.51 507.64,-175.54"/>
<polygon fill="orange" stroke="orange" points="333.53,-230.4 325.21,-236.95 335.8,-237.02 333.53,-230.4"/>
</a>
</g>
<text text-anchor="start" x="384" y="-226.5" font-family="Helvetica,sans-Serif" font-size="10.00" fill="grey">TData</text>
</g>
<!-- Node13 -->
<g id="Node000013" class="node">
<title>Node13</title>
<g id="a_Node000013"><a xlink:href="interfacefiftyone_1_1pipeline_1_1engines_1_1data_1_1_aspect_data.html" target="_top" xlink:title="Represents a specialized ElementData instance that is generated by an AspectEngine.">
<polygon fill="white" stroke="#666666" points="1022.5,-298 858.5,-298 858.5,-268 1022.5,-268 1022.5,-298"/>
<text text-anchor="start" x="866.5" y="-286" font-family="Helvetica,sans-Serif" font-size="10.00">fiftyone.pipeline.engines.data.</text>
<text text-anchor="middle" x="940.5" y="-275" font-family="Helvetica,sans-Serif" font-size="10.00">AspectData</text>
</a>
</g>
</g>
<!-- Node6&#45;&gt;Node13 -->
<g id="edge16_Node000013_Node000006" class="edge">
<title>Node6&#45;&gt;Node13</title>
<g id="a_edge16_Node000013_Node000006"><a xlink:title=" ">
<path fill="none" stroke="#63b8ff" d="M364.21,-265.22C366.84,-265.5 369.44,-265.76 372,-266 544.75,-281.89 748.2,-283.97 858.49,-283.71"/>
<polygon fill="#63b8ff" stroke="#63b8ff" points="364.35,-261.71 354.01,-264.02 363.54,-268.66 364.35,-261.71"/>
</a>
</g>
</g>
<!-- Node7 -->
<g id="Node000007" class="node">
<title>Node7</title>
<g id="a_Node000007"><a xlink:href="interfacefiftyone_1_1pipeline_1_1core_1_1data_1_1_data.html" target="_top" xlink:title="Represents a collection of property values.">
<polygon fill="white" stroke="#666666" points="170,-261.5 0,-261.5 0,-242.5 170,-242.5 170,-261.5"/>
<text text-anchor="middle" x="85" y="-249.5" font-family="Helvetica,sans-Serif" font-size="10.00">fiftyone.pipeline.core.data.Data</text>
</a>
</g>
</g>
<!-- Node7&#45;&gt;Node6 -->
<g id="edge6_Node000006_Node000007" class="edge">
<title>Node7&#45;&gt;Node6</title>
<g id="a_edge6_Node000006_Node000007"><a xlink:title=" ">
<path fill="none" stroke="#63b8ff" d="M180.11,-252C189.07,-252 198.06,-252 206.77,-252"/>
<polygon fill="#63b8ff" stroke="#63b8ff" points="180.03,-248.5 170.03,-252 180.03,-255.5 180.03,-248.5"/>
</a>
</g>
</g>
<!-- Node8 -->
<g id="Node000008" class="node">
<title>Node8</title>
<g id="a_Node000008"><a xlink:href="interfacefiftyone_1_1pipeline_1_1core_1_1data_1_1_element_property_meta_data.html" target="_top" xlink:title="Defines details of a property that can be returned by a FlowElement.">
<polygon fill="white" stroke="#666666" points="354,-175 207,-175 207,-145 354,-145 354,-175"/>
<text text-anchor="start" x="215" y="-163" font-family="Helvetica,sans-Serif" font-size="10.00">fiftyone.pipeline.core.data.</text>
<text text-anchor="middle" x="280.5" y="-152" font-family="Helvetica,sans-Serif" font-size="10.00">ElementPropertyMetaData</text>
</a>
</g>
</g>
<!-- Node8&#45;&gt;Node2 -->
<g id="edge11_Node000002_Node000008" class="edge">
<title>Node8&#45;&gt;Node2</title>
<g id="a_edge11_Node000002_Node000008"><a xlink:title=" ">
<path fill="none" stroke="orange" stroke-dasharray="5,2" d="M342.09,-141.28C346.17,-139.61 350.17,-137.85 354,-136 397.07,-115.2 398.17,-90.68 444,-77 570.06,-39.36 905.89,-57.52 1036,-77 1087.03,-84.64 1098.67,-92.93 1147,-111 1155.2,-114.07 1156.77,-116 1165,-119 1173.66,-122.16 1182.75,-125.22 1191.9,-128.13"/>
<polygon fill="orange" stroke="orange" points="340.54,-138.12 332.48,-145 343.07,-144.65 340.54,-138.12"/>
</a>
</g>
<text text-anchor="start" x="747" y="-63.5" font-family="Helvetica,sans-Serif" font-size="10.00" fill="grey">TProperty</text>
</g>
<!-- Node8&#45;&gt;Node4 -->
<g id="edge7_Node000004_Node000008" class="edge">
<title>Node8&#45;&gt;Node4</title>
<g id="a_edge7_Node000004_Node000008"><a xlink:title=" ">
<path fill="none" stroke="orange" stroke-dasharray="5,2" d="M364.26,-156.21C366.87,-156.13 369.45,-156.06 372,-156 395.22,-155.43 419.99,-155.09 443.85,-154.9"/>
<polygon fill="orange" stroke="orange" points="363.98,-152.72 354.1,-156.54 364.21,-159.71 363.98,-152.72"/>
</a>
</g>
<text text-anchor="start" x="375" y="-161.5" font-family="Helvetica,sans-Serif" font-size="10.00" fill="grey">TProperty</text>
</g>
<!-- Node14 -->
<g id="Node000014" class="node">
<title>Node14</title>
<g id="a_Node000014"><a xlink:href="interfacefiftyone_1_1pipeline_1_1engines_1_1data_1_1_aspect_property_meta_data.html" target="_top" xlink:title="Holds details about a property that can be returned by an AspectEngine.">
<polygon fill="white" stroke="#666666" points="1022.5,-250 858.5,-250 858.5,-220 1022.5,-220 1022.5,-250"/>
<text text-anchor="start" x="866.5" y="-238" font-family="Helvetica,sans-Serif" font-size="10.00">fiftyone.pipeline.engines.data.</text>
<text text-anchor="middle" x="940.5" y="-227" font-family="Helvetica,sans-Serif" font-size="10.00">AspectPropertyMetaData</text>
</a>
</g>
</g>
<!-- Node8&#45;&gt;Node14 -->
<g id="edge18_Node000014_Node000008" class="edge">
<title>Node8&#45;&gt;Node14</title>
<g id="a_edge18_Node000014_Node000008"><a xlink:title=" ">
<path fill="none" stroke="#63b8ff" d="M364.21,-173.58C389.75,-177.54 418,-181.69 444,-185 589.59,-203.53 759.97,-219.47 858.24,-228.11"/>
<polygon fill="#63b8ff" stroke="#63b8ff" points="364.61,-170.1 354.19,-172.01 363.53,-177.01 364.61,-170.1"/>
</a>
</g>
</g>
<!-- Node9 -->
<g id="Node000009" class="node">
<title>Node9</title>
<g id="a_Node000009"><a xlink:href="interfacefiftyone_1_1pipeline_1_1core_1_1typed_1_1_typed_key.html" target="_top" xlink:title=" ">
<polygon fill="white" stroke="#666666" points="1017,-116 864,-116 864,-86 1017,-86 1017,-116"/>
<text text-anchor="start" x="872" y="-104" font-family="Helvetica,sans-Serif" font-size="10.00">fiftyone.pipeline.core.typed.</text>
<text text-anchor="middle" x="940.5" y="-93" font-family="Helvetica,sans-Serif" font-size="10.00">TypedKey&lt; TData &gt;</text>
</a>
</g>
</g>
<!-- Node9&#45;&gt;Node2 -->
<g id="edge8_Node000002_Node000009" class="edge">
<title>Node9&#45;&gt;Node2</title>
<g id="a_edge8_Node000002_Node000009"><a xlink:title=" ">
<path fill="none" stroke="#9a32cd" stroke-dasharray="5,2" d="M1027.46,-111.9C1064.32,-116.78 1107.82,-122.82 1147,-129 1161.46,-131.28 1176.74,-133.85 1191.66,-136.45"/>
<polygon fill="#9a32cd" stroke="#9a32cd" points="1027.62,-108.39 1017.25,-110.55 1026.71,-115.33 1027.62,-108.39"/>
</a>
</g>
<text text-anchor="start" x="1077.5" y="-134.5" font-family="Helvetica,sans-Serif" font-size="10.00" fill="grey">typedKey</text>
</g>
<!-- Node10 -->
<g id="Node000010" class="node">
<title>Node10</title>
<g id="a_Node000010"><a xlink:href="interfacefiftyone_1_1pipeline_1_1core_1_1typed_1_1_typed_key.html" target="_top" xlink:title="Holds a name and a type to allow for type safe operations on named values.">
<polygon fill="white" stroke="#666666" points="647,-116 494,-116 494,-86 647,-86 647,-116"/>
<text text-anchor="start" x="502" y="-104" font-family="Helvetica,sans-Serif" font-size="10.00">fiftyone.pipeline.core.typed.</text>
<text text-anchor="middle" x="570.5" y="-93" font-family="Helvetica,sans-Serif" font-size="10.00">TypedKey&lt; T &gt;</text>
</a>
</g>
</g>
<!-- Node10&#45;&gt;Node9 -->
<g id="edge9_Node000009_Node000010" class="edge">
<title>Node10&#45;&gt;Node9</title>
<g id="a_edge9_Node000009_Node000010"><a xlink:title=" ">
<path fill="none" stroke="orange" stroke-dasharray="5,2" d="M657.54,-101C720.04,-101 803.83,-101 863.79,-101"/>
<polygon fill="orange" stroke="orange" points="657.3,-97.5 647.3,-101 657.3,-104.5 657.3,-97.5"/>
</a>
</g>
<text text-anchor="start" x="745" y="-106.5" font-family="Helvetica,sans-Serif" font-size="10.00" fill="grey">&lt; TData &gt;</text>
</g>
<!-- Node11 -->
<g id="Node000011" class="node">
<title>Node11</title>
<g id="a_Node000011"><a xlink:href="interfacefiftyone_1_1pipeline_1_1engines_1_1flowelements_1_1_aspect_engine.html" target="_top" xlink:title=" ">
<polygon fill="white" stroke="#666666" points="1767,-227 1558,-227 1558,-197 1767,-197 1767,-227"/>
<text text-anchor="start" x="1566" y="-215" font-family="Helvetica,sans-Serif" font-size="10.00">fiftyone.pipeline.engines.flowelements.</text>
<text text-anchor="middle" x="1662.5" y="-204" font-family="Helvetica,sans-Serif" font-size="10.00">AspectEngine&lt; TData, TProperty &gt;</text>
</a>
</g>
</g>
<!-- Node11&#45;&gt;Node1 -->
<g id="edge12_Node000001_Node000011" class="edge">
<title>Node11&#45;&gt;Node1</title>
<g id="a_edge12_Node000001_Node000011"><a xlink:title=" ">
<path fill="none" stroke="#63b8ff" d="M1777.14,-203.43C1823.58,-199.93 1877.41,-195.87 1924.79,-192.29"/>
<polygon fill="#63b8ff" stroke="#63b8ff" points="1776.75,-199.95 1767.04,-204.19 1777.28,-206.93 1776.75,-199.95"/>
</a>
</g>
</g>
<!-- Node12&#45;&gt;Node11 -->
<g id="edge13_Node000011_Node000012" class="edge">
<title>Node12&#45;&gt;Node11</title>
<g id="a_edge13_Node000011_Node000012"><a xlink:title=" ">
<path fill="none" stroke="orange" stroke-dasharray="5,2" d="M1420.28,-219.11C1465.43,-217.78 1515.27,-216.31 1557.87,-215.06"/>
<polygon fill="orange" stroke="orange" points="1420.01,-215.62 1410.12,-219.41 1420.22,-222.62 1420.01,-215.62"/>
</a>
</g>
<text text-anchor="start" x="1431" y="-223.5" font-family="Helvetica,sans-Serif" font-size="10.00" fill="grey">&lt; TData, TProperty &gt;</text>
</g>
<!-- Node13&#45;&gt;Node1 -->
<g id="edge27_Node000001_Node000013" class="edge">
<title>Node13&#45;&gt;Node1</title>
<g id="a_edge27_Node000001_Node000013"><a xlink:title=" ">
<path fill="none" stroke="orange" stroke-dasharray="5,2" d="M1020.92,-299.71C1031.99,-301.49 1043.25,-303 1054,-304 1095.16,-307.81 1105.67,-304.63 1147,-304 1321.73,-301.33 1365.82,-306.13 1540,-292 1641.43,-283.77 1666.44,-277.62 1767,-262 1829.46,-252.3 1846.1,-253.93 1907,-237 1933.9,-229.52 1962.82,-218.92 1987.42,-209.09"/>
<polygon fill="orange" stroke="orange" points="1021.27,-296.22 1010.83,-298.01 1020.11,-303.12 1021.27,-296.22"/>
</a>
</g>
<text text-anchor="start" x="1469" y="-304.5" font-family="Helvetica,sans-Serif" font-size="10.00" fill="grey">TData</text>
</g>
<!-- Node13&#45;&gt;Node12 -->
<g id="edge15_Node000012_Node000013" class="edge">
<title>Node13&#45;&gt;Node12</title>
<g id="a_edge15_Node000012_Node000013"><a xlink:title=" ">
<path fill="none" stroke="orange" stroke-dasharray="5,2" d="M1032.53,-269.02C1068.26,-263.37 1109.6,-256.62 1147,-250 1158.42,-247.98 1170.34,-245.79 1182.21,-243.56"/>
<polygon fill="orange" stroke="orange" points="1031.94,-265.57 1022.61,-270.59 1033.03,-272.49 1031.94,-265.57"/>
</a>
</g>
<text text-anchor="start" x="1085.5" y="-270.5" font-family="Helvetica,sans-Serif" font-size="10.00" fill="grey">TData</text>
</g>
<!-- Node14&#45;&gt;Node1 -->
<g id="edge28_Node000001_Node000014" class="edge">
<title>Node14&#45;&gt;Node1</title>
<g id="a_edge28_Node000001_Node000014"><a xlink:title=" ">
<path fill="none" stroke="orange" stroke-dasharray="5,2" d="M1029.42,-254.78C1031.68,-256.1 1033.88,-257.5 1036,-259 1047.77,-267.33 1041.28,-279.19 1054,-286 1090.44,-305.5 1105.7,-287.66 1147,-286 1423.23,-274.88 1492.71,-270.5 1767,-236 1820.07,-229.32 1878.25,-218.88 1927.83,-209.02"/>
<polygon fill="orange" stroke="orange" points="1030.86,-251.59 1020.37,-250.13 1027.66,-257.82 1030.86,-251.59"/>
</a>
</g>
<text text-anchor="start" x="1460" y="-276.5" font-family="Helvetica,sans-Serif" font-size="10.00" fill="grey">TProperty</text>
</g>
<!-- Node14&#45;&gt;Node12 -->
<g id="edge17_Node000012_Node000014" class="edge">
<title>Node14&#45;&gt;Node12</title>
<g id="a_edge17_Node000012_Node000014"><a xlink:title=" ">
<path fill="none" stroke="orange" stroke-dasharray="5,2" d="M1032.93,-231.82C1073.34,-230.41 1121.45,-228.74 1164.84,-227.23"/>
<polygon fill="orange" stroke="orange" points="1032.7,-228.33 1022.82,-232.17 1032.94,-235.32 1032.7,-228.33"/>
</a>
</g>
<text text-anchor="start" x="1076.5" y="-235.5" font-family="Helvetica,sans-Serif" font-size="10.00" fill="grey">TProperty</text>
</g>
<!-- Node15 -->
<g id="Node000015" class="node">
<title>Node15</title>
<g id="a_Node000015"><a xlink:href="interfacefiftyone_1_1pipeline_1_1engines_1_1services_1_1_missing_property_service.html" target="_top" xlink:title="Service used by AspectEngines to report the reason for a property not being present in the results.">
<polygon fill="white" stroke="#666666" points="1754,-124 1571,-124 1571,-94 1754,-94 1754,-124"/>
<text text-anchor="start" x="1579" y="-112" font-family="Helvetica,sans-Serif" font-size="10.00">fiftyone.pipeline.engines.services.</text>
<text text-anchor="middle" x="1662.5" y="-101" font-family="Helvetica,sans-Serif" font-size="10.00">MissingPropertyService</text>
</a>
</g>
</g>
<!-- Node15&#45;&gt;Node1 -->
<g id="edge19_Node000001_Node000015" class="edge">
<title>Node15&#45;&gt;Node1</title>
<g id="a_edge19_Node000001_Node000015"><a xlink:title=" ">
<path fill="none" stroke="#9a32cd" stroke-dasharray="5,2" d="M1764.18,-112.14C1808.41,-115.05 1860.71,-120.57 1907,-131 1934.23,-137.14 1963.33,-147.23 1987.98,-156.9"/>
<polygon fill="#9a32cd" stroke="#9a32cd" points="1764.2,-108.64 1754,-111.51 1763.77,-115.63 1764.2,-108.64"/>
</a>
</g>
<text text-anchor="start" x="1788" y="-136.5" font-family="Helvetica,sans-Serif" font-size="10.00" fill="grey">missingPropertyService</text>
</g>
<!-- Node16 -->
<g id="Node000016" class="node">
<title>Node16</title>
<g id="a_Node000016"><a xlink:href="interfacefiftyone_1_1pipeline_1_1core_1_1services_1_1_pipeline_service.html" target="_top" xlink:title="Service interface used by PipelineBuilder to hand out services to elements which required them.">
<polygon fill="white" stroke="#666666" points="1370.5,-110 1204.5,-110 1204.5,-80 1370.5,-80 1370.5,-110"/>
<text text-anchor="start" x="1212.5" y="-98" font-family="Helvetica,sans-Serif" font-size="10.00">fiftyone.pipeline.core.services.</text>
<text text-anchor="middle" x="1287.5" y="-87" font-family="Helvetica,sans-Serif" font-size="10.00">PipelineService</text>
</a>
</g>
</g>
<!-- Node16&#45;&gt;Node15 -->
<g id="edge20_Node000015_Node000016" class="edge">
<title>Node16&#45;&gt;Node15</title>
<g id="a_edge20_Node000015_Node000016"><a xlink:title=" ">
<path fill="none" stroke="#63b8ff" d="M1381.07,-98.47C1439.02,-100.65 1513.33,-103.44 1570.9,-105.6"/>
<polygon fill="#63b8ff" stroke="#63b8ff" points="1380.94,-94.97 1370.82,-98.09 1380.68,-101.96 1380.94,-94.97"/>
</a>
</g>
</g>
<!-- Node17 -->
<g id="Node000017" class="node">
<title>Node17</title>
<g id="a_Node000017"><a xlink:href="interfacefiftyone_1_1pipeline_1_1engines_1_1caching_1_1_flow_cache.html" target="_top" xlink:title="Used to cache results from individual flow elements in the pipeline.">
<polygon fill="white" stroke="#666666" points="1752.5,-50 1572.5,-50 1572.5,-20 1752.5,-20 1752.5,-50"/>
<text text-anchor="start" x="1580.5" y="-38" font-family="Helvetica,sans-Serif" font-size="10.00">fiftyone.pipeline.engines.caching.</text>
<text text-anchor="middle" x="1662.5" y="-27" font-family="Helvetica,sans-Serif" font-size="10.00">FlowCache</text>
</a>
</g>
</g>
<!-- Node17&#45;&gt;Node1 -->
<g id="edge21_Node000001_Node000017" class="edge">
<title>Node17&#45;&gt;Node1</title>
<g id="a_edge21_Node000001_Node000017"><a xlink:title=" ">
<path fill="none" stroke="#9a32cd" stroke-dasharray="5,2" d="M1762.68,-50.22C1807.84,-59.15 1861.3,-72.6 1907,-92 1946.56,-108.8 1987.34,-136.45 2014.8,-156.87"/>
<polygon fill="#9a32cd" stroke="#9a32cd" points="1763.06,-46.73 1752.58,-48.27 1761.73,-53.6 1763.06,-46.73"/>
</a>
</g>
<text text-anchor="start" x="1832" y="-97.5" font-family="Helvetica,sans-Serif" font-size="10.00" fill="grey">cache</text>
</g>
<!-- Node18 -->
<g id="Node000018" class="node">
<title>Node18</title>
<g id="a_Node000018"><a xlink:href="interfacefiftyone_1_1pipeline_1_1engines_1_1caching_1_1_data_keyed_cache.html" target="_top" xlink:title=" ">
<polygon fill="white" stroke="#666666" points="1380.5,-50 1194.5,-50 1194.5,-20 1380.5,-20 1380.5,-50"/>
<text text-anchor="start" x="1202.5" y="-38" font-family="Helvetica,sans-Serif" font-size="10.00">fiftyone.pipeline.engines.caching.</text>
<text text-anchor="middle" x="1287.5" y="-27" font-family="Helvetica,sans-Serif" font-size="10.00">DataKeyedCache&lt; ElementData &gt;</text>
</a>
</g>
</g>
<!-- Node18&#45;&gt;Node17 -->
<g id="edge22_Node000017_Node000018" class="edge">
<title>Node18&#45;&gt;Node17</title>
<g id="a_edge22_Node000017_Node000018"><a xlink:title=" ">
<path fill="none" stroke="#63b8ff" d="M1390.79,-35C1447.63,-35 1517.69,-35 1572.29,-35"/>
<polygon fill="#63b8ff" stroke="#63b8ff" points="1390.7,-31.5 1380.7,-35 1390.7,-38.5 1390.7,-31.5"/>
</a>
</g>
</g>
<!-- Node19 -->
<g id="Node000019" class="node">
<title>Node19</title>
<g id="a_Node000019"><a xlink:href="interfacefiftyone_1_1pipeline_1_1engines_1_1caching_1_1_data_keyed_cache.html" target="_top" xlink:title="Represents a put cache where the key is a FlowData instance.">
<polygon fill="white" stroke="#666666" points="1030.5,-30 850.5,-30 850.5,0 1030.5,0 1030.5,-30"/>
<text text-anchor="start" x="858.5" y="-18" font-family="Helvetica,sans-Serif" font-size="10.00">fiftyone.pipeline.engines.caching.</text>
<text text-anchor="middle" x="940.5" y="-7" font-family="Helvetica,sans-Serif" font-size="10.00">DataKeyedCache&lt; V &gt;</text>
</a>
</g>
</g>
<!-- Node19&#45;&gt;Node18 -->
<g id="edge23_Node000018_Node000019" class="edge">
<title>Node19&#45;&gt;Node18</title>
<g id="a_edge23_Node000018_Node000019"><a xlink:title=" ">
<path fill="none" stroke="orange" stroke-dasharray="5,2" d="M1040.95,-20.77C1089.27,-23.57 1146.95,-26.91 1194.27,-29.65"/>
<polygon fill="orange" stroke="orange" points="1040.98,-17.26 1030.79,-20.18 1040.58,-24.25 1040.98,-17.26"/>
</a>
</g>
<text text-anchor="start" x="1057.5" y="-32.5" font-family="Helvetica,sans-Serif" font-size="10.00" fill="grey">&lt; ElementData &gt;</text>
</g>
<!-- Node20 -->
<g id="Node000020" class="node">
<title>Node20</title>
<g id="a_Node000020"><a xlink:href="interfacefiftyone_1_1caching_1_1_put_cache.html" target="_top" xlink:title="A cache that supports a thread safe put method for inserting to cache.">
<polygon fill="white" stroke="#666666" points="642,-30 499,-30 499,0 642,0 642,-30"/>
<text text-anchor="start" x="507" y="-18" font-family="Helvetica,sans-Serif" font-size="10.00">fiftyone.caching.PutCache</text>
<text text-anchor="middle" x="570.5" y="-7" font-family="Helvetica,sans-Serif" font-size="10.00">&lt; K, V &gt;</text>
</a>
</g>
</g>
<!-- Node20&#45;&gt;Node19 -->
<g id="edge24_Node000019_Node000020" class="edge">
<title>Node20&#45;&gt;Node19</title>
<g id="a_edge24_Node000019_Node000020"><a xlink:title=" ">
<path fill="none" stroke="#63b8ff" d="M652.33,-15C710.86,-15 789.96,-15 850.33,-15"/>
<polygon fill="#63b8ff" stroke="#63b8ff" points="652.02,-11.5 642.02,-15 652.02,-18.5 652.02,-11.5"/>
</a>
</g>
</g>
<!-- Node21 -->
<g id="Node000021" class="node">
<title>Node21</title>
<g id="a_Node000021"><a xlink:href="interfacefiftyone_1_1caching_1_1_cache.html" target="_top" xlink:title="Base cache interface which declares only the get method and the types of key and value stored in the ...">
<polygon fill="white" stroke="#666666" points="344,-30 217,-30 217,0 344,0 344,-30"/>
<text text-anchor="start" x="225" y="-18" font-family="Helvetica,sans-Serif" font-size="10.00">fiftyone.caching.Cache</text>
<text text-anchor="middle" x="280.5" y="-7" font-family="Helvetica,sans-Serif" font-size="10.00">&lt; K, V &gt;</text>
</a>
</g>
</g>
<!-- Node21&#45;&gt;Node20 -->
<g id="edge25_Node000020_Node000021" class="edge">
<title>Node21&#45;&gt;Node20</title>
<g id="a_edge25_Node000020_Node000021"><a xlink:title=" ">
<path fill="none" stroke="#63b8ff" d="M354.47,-15C398.79,-15 455.08,-15 498.95,-15"/>
<polygon fill="#63b8ff" stroke="#63b8ff" points="354.35,-11.5 344.35,-15 354.35,-18.5 354.35,-11.5"/>
</a>
</g>
</g>
<!-- Node22 -->
<g id="Node000022" class="node">
<title>Node22</title>
<g id="a_Node000022"><a xlink:title=" ">
<polygon fill="white" stroke="#bfbfbf" points="117.5,-24.5 52.5,-24.5 52.5,-5.5 117.5,-5.5 117.5,-24.5"/>
<text text-anchor="middle" x="85" y="-12.5" font-family="Helvetica,sans-Serif" font-size="10.00">Closeable</text>
</a>
</g>
</g>
<!-- Node22&#45;&gt;Node21 -->
<g id="edge26_Node000021_Node000022" class="edge">
<title>Node22&#45;&gt;Node21</title>
<g id="a_edge26_Node000021_Node000022"><a xlink:title=" ">
<path fill="none" stroke="#63b8ff" d="M127.76,-15C153.71,-15 187.55,-15 216.69,-15"/>
<polygon fill="#63b8ff" stroke="#63b8ff" points="127.52,-11.5 117.52,-15 127.52,-18.5 127.52,-11.5"/>
</a>
</g>
</g>
</g>
</svg>
