<?xml version="1.0" encoding="UTF-8" standalone="no"?>
<!DOCTYPE svg PUBLIC "-//W3C//DTD SVG 1.1//EN"
 "http://www.w3.org/Graphics/SVG/1.1/DTD/svg11.dtd">
<!-- Generated by graphviz version 2.43.0 (0)
 -->
<!-- Title: fiftyone.pipeline.cloudrequestengine.flowelements.CloudRequestEngineDefault Pages: 1 -->
<svg width="2628pt" height="528pt"
 viewBox="0.00 0.00 2628.00 527.97" xmlns="http://www.w3.org/2000/svg" xmlns:xlink="http://www.w3.org/1999/xlink">
<g id="graph0" class="graph" transform="scale(1 1) rotate(0) translate(4 523.97)">
<title>fiftyone.pipeline.cloudrequestengine.flowelements.CloudRequestEngineDefault</title>
<!-- Node1 -->
<g id="Node000001" class="node">
<title>Node1</title>
<g id="a_Node000001"><a xlink:title="Engine that makes requests to the 51Degrees cloud service.">
<polygon fill="#999999" stroke="#666666" points="2620,-400.97 2354,-400.97 2354,-370.97 2620,-370.97 2620,-400.97"/>
<text text-anchor="start" x="2362" y="-388.97" font-family="Helvetica,sans-Serif" font-size="10.00">fiftyone.pipeline.cloudrequestengine.flowelements.</text>
<text text-anchor="middle" x="2487" y="-377.97" font-family="Helvetica,sans-Serif" font-size="10.00">CloudRequestEngineDefault</text>
</a>
</g>
</g>
<!-- Node2 -->
<g id="Node000002" class="node">
<title>Node2</title>
<g id="a_Node000002"><a xlink:href="classfiftyone_1_1pipeline_1_1engines_1_1flowelements_1_1_aspect_engine_base.html" target="_top" xlink:title="Base class for AspectEngines to extend.">
<polygon fill="white" stroke="#666666" points="2317,-297.97 2069,-297.97 2069,-245.97 2317,-245.97 2317,-297.97"/>
<text text-anchor="start" x="2077" y="-285.97" font-family="Helvetica,sans-Serif" font-size="10.00">fiftyone.pipeline.engines.flowelements.</text>
<text text-anchor="start" x="2077" y="-274.97" font-family="Helvetica,sans-Serif" font-size="10.00">AspectEngineBase&lt; TData extends</text>
<text text-anchor="start" x="2077" y="-263.97" font-family="Helvetica,sans-Serif" font-size="10.00"> AspectData, TProperty extends AspectProperty</text>
<text text-anchor="middle" x="2193" y="-252.97" font-family="Helvetica,sans-Serif" font-size="10.00">MetaData &gt;</text>
</a>
</g>
</g>
<!-- Node2&#45;&gt;Node1 -->
<g id="edge1_Node000001_Node000002" class="edge">
<title>Node2&#45;&gt;Node1</title>
<g id="a_edge1_Node000001_Node000002"><a xlink:title=" ">
<path fill="none" stroke="#63b8ff" d="M2269.95,-301.62C2326.86,-323.84 2402.39,-353.33 2447.42,-370.91"/>
<polygon fill="#63b8ff" stroke="#63b8ff" points="2271.21,-298.36 2260.62,-297.98 2268.67,-304.88 2271.21,-298.36"/>
</a>
</g>
</g>
<!-- Node3 -->
<g id="Node000003" class="node">
<title>Node3</title>
<g id="a_Node000003"><a xlink:href="classfiftyone_1_1pipeline_1_1core_1_1flowelements_1_1_flow_element_base.html" target="_top" xlink:title="Provides a base class from which authors may create new FlowElements.">
<polygon fill="white" stroke="#666666" points="1383,-232.97 1192,-232.97 1192,-180.97 1383,-180.97 1383,-232.97"/>
<text text-anchor="start" x="1200" y="-220.97" font-family="Helvetica,sans-Serif" font-size="10.00">fiftyone.pipeline.core.flowelements.</text>
<text text-anchor="start" x="1200" y="-209.97" font-family="Helvetica,sans-Serif" font-size="10.00">FlowElementBase&lt; TData extends</text>
<text text-anchor="start" x="1200" y="-198.97" font-family="Helvetica,sans-Serif" font-size="10.00"> ElementData, TProperty extends</text>
<text text-anchor="middle" x="1287.5" y="-187.97" font-family="Helvetica,sans-Serif" font-size="10.00"> ElementPropertyMetaData &gt;</text>
</a>
</g>
</g>
<!-- Node3&#45;&gt;Node2 -->
<g id="edge2_Node000002_Node000003" class="edge">
<title>Node3&#45;&gt;Node2</title>
<g id="a_edge2_Node000002_Node000003"><a xlink:title=" ">
<path fill="none" stroke="#63b8ff" d="M1393.14,-214.5C1561.05,-226.58 1889.87,-250.23 2068.84,-263.11"/>
<polygon fill="#63b8ff" stroke="#63b8ff" points="1393.28,-211 1383.06,-213.77 1392.78,-217.98 1393.28,-211"/>
</a>
</g>
</g>
<!-- Node4 -->
<g id="Node000004" class="node">
<title>Node4</title>
<g id="a_Node000004"><a xlink:href="interfacefiftyone_1_1pipeline_1_1core_1_1flowelements_1_1_flow_element.html" target="_top" xlink:title=" ">
<polygon fill="white" stroke="#666666" points="1036,-275.97 845,-275.97 845,-245.97 1036,-245.97 1036,-275.97"/>
<text text-anchor="start" x="853" y="-263.97" font-family="Helvetica,sans-Serif" font-size="10.00">fiftyone.pipeline.core.flowelements.</text>
<text text-anchor="middle" x="940.5" y="-252.97" font-family="Helvetica,sans-Serif" font-size="10.00">FlowElement&lt; TData, TProperty &gt;</text>
</a>
</g>
</g>
<!-- Node4&#45;&gt;Node3 -->
<g id="edge3_Node000003_Node000004" class="edge">
<title>Node4&#45;&gt;Node3</title>
<g id="a_edge3_Node000003_Node000004"><a xlink:title=" ">
<path fill="none" stroke="#63b8ff" d="M1029.45,-241.23C1031.71,-239.9 1033.9,-238.48 1036,-236.97 1048.01,-228.32 1041.05,-216.11 1054,-208.97 1095.36,-186.16 1147.47,-183.78 1191.88,-187.92"/>
<polygon fill="#63b8ff" stroke="#63b8ff" points="1027.68,-238.21 1020.43,-245.93 1030.92,-244.41 1027.68,-238.21"/>
</a>
</g>
</g>
<!-- Node13 -->
<g id="Node000013" class="node">
<title>Node13</title>
<g id="a_Node000013"><a xlink:href="interfacefiftyone_1_1pipeline_1_1engines_1_1flowelements_1_1_aspect_engine.html" target="_top" xlink:title="AspectEngines are a subset of FlowElements.">
<polygon fill="white" stroke="#666666" points="1410,-292.47 1165,-292.47 1165,-251.47 1410,-251.47 1410,-292.47"/>
<text text-anchor="start" x="1173" y="-280.47" font-family="Helvetica,sans-Serif" font-size="10.00">fiftyone.pipeline.engines.flowelements.</text>
<text text-anchor="start" x="1173" y="-269.47" font-family="Helvetica,sans-Serif" font-size="10.00">AspectEngine&lt; TData extends AspectData,</text>
<text text-anchor="middle" x="1287.5" y="-258.47" font-family="Helvetica,sans-Serif" font-size="10.00"> TProperty extends AspectPropertyMetaData &gt;</text>
</a>
</g>
</g>
<!-- Node4&#45;&gt;Node13 -->
<g id="edge15_Node000013_Node000004" class="edge">
<title>Node4&#45;&gt;Node13</title>
<g id="a_edge15_Node000013_Node000004"><a xlink:title=" ">
<path fill="none" stroke="#63b8ff" d="M1046.61,-264.32C1083.91,-265.51 1126.2,-266.86 1164.77,-268.09"/>
<polygon fill="#63b8ff" stroke="#63b8ff" points="1046.34,-260.81 1036.23,-263.99 1046.11,-267.81 1046.34,-260.81"/>
</a>
</g>
</g>
<!-- Node25 -->
<g id="Node000025" class="node">
<title>Node25</title>
<g id="a_Node000025"><a xlink:href="interfacefiftyone_1_1pipeline_1_1engines_1_1flowelements_1_1_aspect_engine.html" target="_top" xlink:title="AspectEngines are a subset of FlowElements.">
<polygon fill="white" stroke="#666666" points="1410,-393.47 1165,-393.47 1165,-352.47 1410,-352.47 1410,-393.47"/>
<text text-anchor="start" x="1173" y="-381.47" font-family="Helvetica,sans-Serif" font-size="10.00">fiftyone.pipeline.engines.flowelements.</text>
<text text-anchor="start" x="1173" y="-370.47" font-family="Helvetica,sans-Serif" font-size="10.00">AspectEngine&lt; TData extends AspectData,</text>
<text text-anchor="middle" x="1287.5" y="-359.47" font-family="Helvetica,sans-Serif" font-size="10.00"> TProperty extends AspectPropertyMetaData &gt;</text>
</a>
</g>
</g>
<!-- Node4&#45;&gt;Node25 -->
<g id="edge32_Node000025_Node000004" class="edge">
<title>Node4&#45;&gt;Node25</title>
<g id="a_edge32_Node000025_Node000004"><a xlink:title=" ">
<path fill="none" stroke="#63b8ff" d="M962.02,-283.71C982.87,-305.13 1017.24,-336.09 1054,-350.97 1088.48,-364.92 1128.11,-371.7 1164.77,-374.65"/>
<polygon fill="#63b8ff" stroke="#63b8ff" points="964.4,-281.13 954.97,-276.29 959.33,-285.95 964.4,-281.13"/>
</a>
</g>
</g>
<!-- Node5 -->
<g id="Node000005" class="node">
<title>Node5</title>
<g id="a_Node000005"><a xlink:href="interfacefiftyone_1_1pipeline_1_1core_1_1flowelements_1_1_flow_element.html" target="_top" xlink:title="A component that processes a FlowData (by examining its evidence, or by examining data processed by o...">
<polygon fill="white" stroke="#666666" points="697,-281.47 444,-281.47 444,-240.47 697,-240.47 697,-281.47"/>
<text text-anchor="start" x="452" y="-269.47" font-family="Helvetica,sans-Serif" font-size="10.00">fiftyone.pipeline.core.flowelements.</text>
<text text-anchor="start" x="452" y="-258.47" font-family="Helvetica,sans-Serif" font-size="10.00">FlowElement&lt; TData extends ElementData,</text>
<text text-anchor="middle" x="570.5" y="-247.47" font-family="Helvetica,sans-Serif" font-size="10.00"> TProperty extends ElementPropertyMetaData &gt;</text>
</a>
</g>
</g>
<!-- Node5&#45;&gt;Node4 -->
<g id="edge4_Node000004_Node000005" class="edge">
<title>Node5&#45;&gt;Node4</title>
<g id="a_edge4_Node000004_Node000005"><a xlink:title=" ">
<path fill="none" stroke="orange" stroke-dasharray="5,2" d="M707.12,-260.97C752.92,-260.97 803.03,-260.97 844.95,-260.97"/>
<polygon fill="orange" stroke="orange" points="707.12,-257.47 697.12,-260.97 707.12,-264.47 707.12,-257.47"/>
</a>
</g>
<text text-anchor="start" x="718" y="-266.47" font-family="Helvetica,sans-Serif" font-size="10.00" fill="grey">&lt; TData, TProperty &gt;</text>
</g>
<!-- Node6 -->
<g id="Node000006" class="node">
<title>Node6</title>
<g id="a_Node000006"><a xlink:title=" ">
<polygon fill="white" stroke="#bfbfbf" points="324,-270.47 237,-270.47 237,-251.47 324,-251.47 324,-270.47"/>
<text text-anchor="middle" x="280.5" y="-258.47" font-family="Helvetica,sans-Serif" font-size="10.00">AutoCloseable</text>
</a>
</g>
</g>
<!-- Node6&#45;&gt;Node5 -->
<g id="edge5_Node000005_Node000006" class="edge">
<title>Node6&#45;&gt;Node5</title>
<g id="a_edge5_Node000005_Node000006"><a xlink:title=" ">
<path fill="none" stroke="#63b8ff" d="M334.37,-260.97C365.15,-260.97 405.37,-260.97 443.82,-260.97"/>
<polygon fill="#63b8ff" stroke="#63b8ff" points="334.31,-257.47 324.31,-260.97 334.31,-264.47 334.31,-257.47"/>
</a>
</g>
</g>
<!-- Node7 -->
<g id="Node000007" class="node">
<title>Node7</title>
<g id="a_Node000007"><a xlink:href="interfacefiftyone_1_1pipeline_1_1core_1_1data_1_1_element_data.html" target="_top" xlink:title="Represents property values that have be determined by a specific FlowElement based on the supplied ev...">
<polygon fill="white" stroke="#666666" points="354,-340.97 207,-340.97 207,-310.97 354,-310.97 354,-340.97"/>
<text text-anchor="start" x="215" y="-328.97" font-family="Helvetica,sans-Serif" font-size="10.00">fiftyone.pipeline.core.data.</text>
<text text-anchor="middle" x="280.5" y="-317.97" font-family="Helvetica,sans-Serif" font-size="10.00">ElementData</text>
</a>
</g>
</g>
<!-- Node7&#45;&gt;Node3 -->
<g id="edge11_Node000003_Node000007" class="edge">
<title>Node7&#45;&gt;Node3</title>
<g id="a_edge11_Node000003_Node000007"><a xlink:title=" ">
<path fill="none" stroke="orange" stroke-dasharray="5,2" d="M364.26,-329.03C470.37,-331.25 646.69,-328.68 697,-289.97 715.72,-275.57 698.54,-256.9 715,-239.97 758.26,-195.47 784.16,-201.23 845,-188.97 936.08,-170.61 961.09,-185.08 1054,-183.97 1095.33,-183.47 1105.8,-180.6 1147,-183.97 1161.56,-185.16 1176.88,-187.04 1191.83,-189.23"/>
<polygon fill="orange" stroke="orange" points="364.3,-325.53 354.22,-328.8 364.14,-332.53 364.3,-325.53"/>
</a>
</g>
<text text-anchor="start" x="756" y="-245.47" font-family="Helvetica,sans-Serif" font-size="10.00" fill="grey">TData</text>
</g>
<!-- Node7&#45;&gt;Node5 -->
<g id="edge6_Node000005_Node000007" class="edge">
<title>Node7&#45;&gt;Node5</title>
<g id="a_edge6_Node000005_Node000007"><a xlink:title=" ">
<path fill="none" stroke="orange" stroke-dasharray="5,2" d="M330.63,-307.55C343.93,-303 358.4,-298.44 372,-294.97 395.01,-289.09 419.78,-283.93 443.75,-279.52"/>
<polygon fill="orange" stroke="orange" points="329.47,-304.25 321.18,-310.84 331.78,-310.86 329.47,-304.25"/>
</a>
</g>
<text text-anchor="start" x="384" y="-300.47" font-family="Helvetica,sans-Serif" font-size="10.00" fill="grey">TData</text>
</g>
<!-- Node14 -->
<g id="Node000014" class="node">
<title>Node14</title>
<g id="a_Node000014"><a xlink:href="interfacefiftyone_1_1pipeline_1_1engines_1_1data_1_1_aspect_data.html" target="_top" xlink:title="Represents a specialized ElementData instance that is generated by an AspectEngine.">
<polygon fill="white" stroke="#666666" points="1022.5,-402.97 858.5,-402.97 858.5,-372.97 1022.5,-372.97 1022.5,-402.97"/>
<text text-anchor="start" x="866.5" y="-390.97" font-family="Helvetica,sans-Serif" font-size="10.00">fiftyone.pipeline.engines.data.</text>
<text text-anchor="middle" x="940.5" y="-379.97" font-family="Helvetica,sans-Serif" font-size="10.00">AspectData</text>
</a>
</g>
</g>
<!-- Node7&#45;&gt;Node14 -->
<g id="edge17_Node000014_Node000007" class="edge">
<title>Node7&#45;&gt;Node14</title>
<g id="a_edge17_Node000014_Node000007"><a xlink:title=" ">
<path fill="none" stroke="#63b8ff" d="M364.23,-339C366.85,-339.34 369.44,-339.66 372,-339.97 544.55,-360.59 747.65,-375.52 858.03,-382.85"/>
<polygon fill="#63b8ff" stroke="#63b8ff" points="364.43,-335.5 354.05,-337.64 363.5,-342.44 364.43,-335.5"/>
</a>
</g>
</g>
<!-- Node8 -->
<g id="Node000008" class="node">
<title>Node8</title>
<g id="a_Node000008"><a xlink:href="interfacefiftyone_1_1pipeline_1_1core_1_1data_1_1_data.html" target="_top" xlink:title="Represents a collection of property values.">
<polygon fill="white" stroke="#666666" points="170,-335.47 0,-335.47 0,-316.47 170,-316.47 170,-335.47"/>
<text text-anchor="middle" x="85" y="-323.47" font-family="Helvetica,sans-Serif" font-size="10.00">fiftyone.pipeline.core.data.Data</text>
</a>
</g>
</g>
<!-- Node8&#45;&gt;Node7 -->
<g id="edge7_Node000007_Node000008" class="edge">
<title>Node8&#45;&gt;Node7</title>
<g id="a_edge7_Node000007_Node000008"><a xlink:title=" ">
<path fill="none" stroke="#63b8ff" d="M180.11,-325.97C189.07,-325.97 198.06,-325.97 206.77,-325.97"/>
<polygon fill="#63b8ff" stroke="#63b8ff" points="180.03,-322.47 170.03,-325.97 180.03,-329.47 180.03,-322.47"/>
</a>
</g>
</g>
<!-- Node9 -->
<g id="Node000009" class="node">
<title>Node9</title>
<g id="a_Node000009"><a xlink:href="interfacefiftyone_1_1pipeline_1_1core_1_1data_1_1_element_property_meta_data.html" target="_top" xlink:title="Defines details of a property that can be returned by a FlowElement.">
<polygon fill="white" stroke="#666666" points="354,-210.97 207,-210.97 207,-180.97 354,-180.97 354,-210.97"/>
<text text-anchor="start" x="215" y="-198.97" font-family="Helvetica,sans-Serif" font-size="10.00">fiftyone.pipeline.core.data.</text>
<text text-anchor="middle" x="280.5" y="-187.97" font-family="Helvetica,sans-Serif" font-size="10.00">ElementPropertyMetaData</text>
</a>
</g>
</g>
<!-- Node9&#45;&gt;Node3 -->
<g id="edge12_Node000003_Node000009" class="edge">
<title>Node9&#45;&gt;Node3</title>
<g id="a_edge12_Node000003_Node000009"><a xlink:title=" ">
<path fill="none" stroke="orange" stroke-dasharray="5,2" d="M308.1,-174.86C338.78,-151.97 391.74,-116.87 444,-102.97 745.97,-22.67 903.62,85 1147,-110.97 1169.02,-128.7 1144.95,-152.05 1165,-171.97 1172.71,-179.63 1181.98,-185.63 1191.92,-190.34"/>
<polygon fill="orange" stroke="orange" points="305.9,-172.13 300.05,-180.96 310.14,-177.7 305.9,-172.13"/>
</a>
</g>
<text text-anchor="start" x="747" y="-29.47" font-family="Helvetica,sans-Serif" font-size="10.00" fill="grey">TProperty</text>
</g>
<!-- Node9&#45;&gt;Node5 -->
<g id="edge8_Node000005_Node000009" class="edge">
<title>Node9&#45;&gt;Node5</title>
<g id="a_edge8_Node000005_Node000009"><a xlink:title=" ">
<path fill="none" stroke="orange" stroke-dasharray="5,2" d="M358.5,-213.35C395.43,-221.68 439.93,-231.73 478.52,-240.44"/>
<polygon fill="orange" stroke="orange" points="358.82,-209.83 348.3,-211.04 357.28,-216.66 358.82,-209.83"/>
</a>
</g>
<text text-anchor="start" x="375" y="-234.47" font-family="Helvetica,sans-Serif" font-size="10.00" fill="grey">TProperty</text>
</g>
<!-- Node15 -->
<g id="Node000015" class="node">
<title>Node15</title>
<g id="a_Node000015"><a xlink:href="interfacefiftyone_1_1pipeline_1_1engines_1_1data_1_1_aspect_property_meta_data.html" target="_top" xlink:title="Holds details about a property that can be returned by an AspectEngine.">
<polygon fill="white" stroke="#666666" points="1022.5,-227.97 858.5,-227.97 858.5,-197.97 1022.5,-197.97 1022.5,-227.97"/>
<text text-anchor="start" x="866.5" y="-215.97" font-family="Helvetica,sans-Serif" font-size="10.00">fiftyone.pipeline.engines.data.</text>
<text text-anchor="middle" x="940.5" y="-204.97" font-family="Helvetica,sans-Serif" font-size="10.00">AspectPropertyMetaData</text>
</a>
</g>
</g>
<!-- Node9&#45;&gt;Node15 -->
<g id="edge19_Node000015_Node000009" class="edge">
<title>Node9&#45;&gt;Node15</title>
<g id="a_edge19_Node000015_Node000009"><a xlink:title=" ">
<path fill="none" stroke="#63b8ff" d="M364.17,-198.1C491.11,-201.38 732.51,-207.62 858.45,-210.88"/>
<polygon fill="#63b8ff" stroke="#63b8ff" points="364.2,-194.6 354.12,-197.85 364.02,-201.6 364.2,-194.6"/>
</a>
</g>
</g>
<!-- Node10 -->
<g id="Node000010" class="node">
<title>Node10</title>
<g id="a_Node000010"><a xlink:href="interfacefiftyone_1_1pipeline_1_1core_1_1typed_1_1_typed_key.html" target="_top" xlink:title=" ">
<polygon fill="white" stroke="#666666" points="1017,-141.97 864,-141.97 864,-111.97 1017,-111.97 1017,-141.97"/>
<text text-anchor="start" x="872" y="-129.97" font-family="Helvetica,sans-Serif" font-size="10.00">fiftyone.pipeline.core.typed.</text>
<text text-anchor="middle" x="940.5" y="-118.97" font-family="Helvetica,sans-Serif" font-size="10.00">TypedKey&lt; TData &gt;</text>
</a>
</g>
</g>
<!-- Node10&#45;&gt;Node3 -->
<g id="edge9_Node000003_Node000010" class="edge">
<title>Node10&#45;&gt;Node3</title>
<g id="a_edge9_Node000003_Node000010"><a xlink:title=" ">
<path fill="none" stroke="#9a32cd" stroke-dasharray="5,2" d="M1027.33,-113.9C1066.58,-112.24 1112.01,-116.79 1147,-138.97 1161.11,-147.91 1151.97,-161.52 1165,-171.97 1173.05,-178.42 1182.24,-183.69 1191.88,-187.98"/>
<polygon fill="#9a32cd" stroke="#9a32cd" points="1027.02,-110.41 1017.23,-114.46 1027.41,-117.4 1027.02,-110.41"/>
</a>
</g>
<text text-anchor="start" x="1077.5" y="-144.47" font-family="Helvetica,sans-Serif" font-size="10.00" fill="grey">typedKey</text>
</g>
<!-- Node11 -->
<g id="Node000011" class="node">
<title>Node11</title>
<g id="a_Node000011"><a xlink:href="interfacefiftyone_1_1pipeline_1_1core_1_1typed_1_1_typed_key.html" target="_top" xlink:title="Holds a name and a type to allow for type safe operations on named values.">
<polygon fill="white" stroke="#666666" points="647,-141.97 494,-141.97 494,-111.97 647,-111.97 647,-141.97"/>
<text text-anchor="start" x="502" y="-129.97" font-family="Helvetica,sans-Serif" font-size="10.00">fiftyone.pipeline.core.typed.</text>
<text text-anchor="middle" x="570.5" y="-118.97" font-family="Helvetica,sans-Serif" font-size="10.00">TypedKey&lt; T &gt;</text>
</a>
</g>
</g>
<!-- Node11&#45;&gt;Node10 -->
<g id="edge10_Node000010_Node000011" class="edge">
<title>Node11&#45;&gt;Node10</title>
<g id="a_edge10_Node000010_Node000011"><a xlink:title=" ">
<path fill="none" stroke="orange" stroke-dasharray="5,2" d="M657.54,-126.97C720.04,-126.97 803.83,-126.97 863.79,-126.97"/>
<polygon fill="orange" stroke="orange" points="657.3,-123.47 647.3,-126.97 657.3,-130.47 657.3,-123.47"/>
</a>
</g>
<text text-anchor="start" x="745" y="-132.47" font-family="Helvetica,sans-Serif" font-size="10.00" fill="grey">&lt; TData &gt;</text>
</g>
<!-- Node12 -->
<g id="Node000012" class="node">
<title>Node12</title>
<g id="a_Node000012"><a xlink:href="interfacefiftyone_1_1pipeline_1_1engines_1_1flowelements_1_1_aspect_engine.html" target="_top" xlink:title=" ">
<polygon fill="white" stroke="#666666" points="1767,-286.97 1558,-286.97 1558,-256.97 1767,-256.97 1767,-286.97"/>
<text text-anchor="start" x="1566" y="-274.97" font-family="Helvetica,sans-Serif" font-size="10.00">fiftyone.pipeline.engines.flowelements.</text>
<text text-anchor="middle" x="1662.5" y="-263.97" font-family="Helvetica,sans-Serif" font-size="10.00">AspectEngine&lt; TData, TProperty &gt;</text>
</a>
</g>
</g>
<!-- Node12&#45;&gt;Node2 -->
<g id="edge13_Node000002_Node000012" class="edge">
<title>Node12&#45;&gt;Node2</title>
<g id="a_edge13_Node000002_Node000012"><a xlink:title=" ">
<path fill="none" stroke="#63b8ff" d="M1777.33,-271.97C1863.23,-271.97 1980.91,-271.97 2068.97,-271.97"/>
<polygon fill="#63b8ff" stroke="#63b8ff" points="1777.28,-268.47 1767.28,-271.97 1777.28,-275.47 1777.28,-268.47"/>
</a>
</g>
</g>
<!-- Node13&#45;&gt;Node12 -->
<g id="edge14_Node000012_Node000013" class="edge">
<title>Node13&#45;&gt;Node12</title>
<g id="a_edge14_Node000012_Node000013"><a xlink:title=" ">
<path fill="none" stroke="orange" stroke-dasharray="5,2" d="M1420.28,-271.97C1465.43,-271.97 1515.27,-271.97 1557.87,-271.97"/>
<polygon fill="orange" stroke="orange" points="1420.12,-268.47 1410.12,-271.97 1420.12,-275.47 1420.12,-268.47"/>
</a>
</g>
<text text-anchor="start" x="1431" y="-277.47" font-family="Helvetica,sans-Serif" font-size="10.00" fill="grey">&lt; TData, TProperty &gt;</text>
</g>
<!-- Node14&#45;&gt;Node2 -->
<g id="edge28_Node000002_Node000014" class="edge">
<title>Node14&#45;&gt;Node2</title>
<g id="a_edge28_Node000002_Node000014"><a xlink:title=" ">
<path fill="none" stroke="orange" stroke-dasharray="5,2" d="M1033.11,-402.09C1040.17,-402.84 1047.19,-403.49 1054,-403.97 1095.23,-406.89 1105.67,-404.13 1147,-403.97 1263.89,-403.52 1293.54,-412.03 1410,-401.97 1646.35,-381.55 1918.96,-329.69 2071.84,-297.99"/>
<polygon fill="orange" stroke="orange" points="1033.1,-398.57 1022.77,-400.91 1032.31,-405.52 1033.1,-398.57"/>
</a>
</g>
<text text-anchor="start" x="1469" y="-405.47" font-family="Helvetica,sans-Serif" font-size="10.00" fill="grey">TData</text>
</g>
<!-- Node14&#45;&gt;Node13 -->
<g id="edge16_Node000013_Node000014" class="edge">
<title>Node14&#45;&gt;Node13</title>
<g id="a_edge16_Node000013_Node000014"><a xlink:title=" ">
<path fill="none" stroke="orange" stroke-dasharray="5,2" d="M961.12,-364.97C981.73,-342.57 1016.34,-309.68 1054,-293.97 1088.43,-279.61 1128.14,-272.73 1164.89,-269.81"/>
<polygon fill="orange" stroke="orange" points="958.26,-362.92 954.18,-372.7 963.47,-367.6 958.26,-362.92"/>
</a>
</g>
<text text-anchor="start" x="1085.5" y="-299.47" font-family="Helvetica,sans-Serif" font-size="10.00" fill="grey">TData</text>
</g>
<!-- Node14&#45;&gt;Node25 -->
<g id="edge33_Node000025_Node000014" class="edge">
<title>Node14&#45;&gt;Node25</title>
<g id="a_edge33_Node000025_Node000014"><a xlink:title=" ">
<path fill="none" stroke="orange" stroke-dasharray="5,2" d="M1032.93,-383.99C1073.34,-382.24 1121.45,-380.15 1164.84,-378.26"/>
<polygon fill="orange" stroke="orange" points="1032.66,-380.5 1022.82,-384.43 1032.97,-387.5 1032.66,-380.5"/>
</a>
</g>
<text text-anchor="start" x="1085.5" y="-388.47" font-family="Helvetica,sans-Serif" font-size="10.00" fill="grey">TData</text>
</g>
<!-- Node15&#45;&gt;Node2 -->
<g id="edge29_Node000002_Node000015" class="edge">
<title>Node15&#45;&gt;Node2</title>
<g id="a_edge29_Node000002_Node000015"><a xlink:title=" ">
<path fill="none" stroke="orange" stroke-dasharray="5,2" d="M980.62,-193.02C998.98,-182.32 1020.23,-167.85 1036,-150.97 1047.14,-139.04 1039.91,-127.21 1054,-118.97 1089.68,-98.1 1105.67,-118.58 1147,-118.97 1549.1,-122.79 1675.98,-10.88 2051,-155.97 2099.93,-174.9 2144.52,-217.83 2169.94,-245.83"/>
<polygon fill="orange" stroke="orange" points="978.86,-190 971.88,-197.97 982.31,-196.09 978.86,-190"/>
</a>
</g>
<text text-anchor="start" x="1460" y="-109.47" font-family="Helvetica,sans-Serif" font-size="10.00" fill="grey">TProperty</text>
</g>
<!-- Node15&#45;&gt;Node13 -->
<g id="edge18_Node000013_Node000015" class="edge">
<title>Node15&#45;&gt;Node13</title>
<g id="a_edge18_Node000013_Node000015"><a xlink:title=" ">
<path fill="none" stroke="orange" stroke-dasharray="5,2" d="M1032.58,-225.74C1068.32,-231.01 1109.65,-237.41 1147,-243.97 1160.02,-246.26 1173.68,-248.81 1187.16,-251.42"/>
<polygon fill="orange" stroke="orange" points="1033.06,-222.28 1022.66,-224.29 1032.04,-229.2 1033.06,-222.28"/>
</a>
</g>
<text text-anchor="start" x="1076.5" y="-249.47" font-family="Helvetica,sans-Serif" font-size="10.00" fill="grey">TProperty</text>
</g>
<!-- Node15&#45;&gt;Node25 -->
<g id="edge34_Node000025_Node000015" class="edge">
<title>Node15&#45;&gt;Node25</title>
<g id="a_edge34_Node000025_Node000015"><a xlink:title=" ">
<path fill="none" stroke="orange" stroke-dasharray="5,2" d="M1031.35,-232.76C1032.97,-234.08 1034.53,-235.48 1036,-236.97 1059.81,-261.02 1029.63,-287.48 1054,-310.97 1084.38,-340.24 1106.13,-319.52 1147,-329.97 1172.54,-336.5 1200.35,-344.82 1224.37,-352.4"/>
<polygon fill="orange" stroke="orange" points="1032.97,-229.62 1022.75,-226.84 1029,-235.39 1032.97,-229.62"/>
</a>
</g>
<text text-anchor="start" x="1076.5" y="-335.47" font-family="Helvetica,sans-Serif" font-size="10.00" fill="grey">TProperty</text>
</g>
<!-- Node16 -->
<g id="Node000016" class="node">
<title>Node16</title>
<g id="a_Node000016"><a xlink:href="interfacefiftyone_1_1pipeline_1_1engines_1_1services_1_1_missing_property_service.html" target="_top" xlink:title="Service used by AspectEngines to report the reason for a property not being present in the results.">
<polygon fill="white" stroke="#666666" points="1754,-181.97 1571,-181.97 1571,-151.97 1754,-151.97 1754,-181.97"/>
<text text-anchor="start" x="1579" y="-169.97" font-family="Helvetica,sans-Serif" font-size="10.00">fiftyone.pipeline.engines.services.</text>
<text text-anchor="middle" x="1662.5" y="-158.97" font-family="Helvetica,sans-Serif" font-size="10.00">MissingPropertyService</text>
</a>
</g>
</g>
<!-- Node16&#45;&gt;Node2 -->
<g id="edge20_Node000002_Node000016" class="edge">
<title>Node16&#45;&gt;Node2</title>
<g id="a_edge20_Node000002_Node000016"><a xlink:title=" ">
<path fill="none" stroke="#9a32cd" stroke-dasharray="5,2" d="M1764.1,-159.87C1843.68,-157.27 1956.7,-160.38 2051,-188.97 2090.69,-201 2130.97,-226.31 2158.26,-245.83"/>
<polygon fill="#9a32cd" stroke="#9a32cd" points="1763.95,-156.37 1754.08,-160.23 1764.2,-163.37 1763.95,-156.37"/>
</a>
</g>
<text text-anchor="start" x="1860" y="-194.47" font-family="Helvetica,sans-Serif" font-size="10.00" fill="grey">missingPropertyService</text>
</g>
<!-- Node17 -->
<g id="Node000017" class="node">
<title>Node17</title>
<g id="a_Node000017"><a xlink:href="interfacefiftyone_1_1pipeline_1_1core_1_1services_1_1_pipeline_service.html" target="_top" xlink:title="Service interface used by PipelineBuilder to hand out services to elements which required them.">
<polygon fill="white" stroke="#666666" points="1370.5,-162.97 1204.5,-162.97 1204.5,-132.97 1370.5,-132.97 1370.5,-162.97"/>
<text text-anchor="start" x="1212.5" y="-150.97" font-family="Helvetica,sans-Serif" font-size="10.00">fiftyone.pipeline.core.services.</text>
<text text-anchor="middle" x="1287.5" y="-139.97" font-family="Helvetica,sans-Serif" font-size="10.00">PipelineService</text>
</a>
</g>
</g>
<!-- Node17&#45;&gt;Node16 -->
<g id="edge21_Node000016_Node000017" class="edge">
<title>Node17&#45;&gt;Node16</title>
<g id="a_edge21_Node000016_Node000017"><a xlink:title=" ">
<path fill="none" stroke="#63b8ff" d="M1381.07,-152.68C1439.02,-155.64 1513.33,-159.42 1570.9,-162.35"/>
<polygon fill="#63b8ff" stroke="#63b8ff" points="1380.98,-149.18 1370.82,-152.16 1380.63,-156.17 1380.98,-149.18"/>
</a>
</g>
</g>
<!-- Node18 -->
<g id="Node000018" class="node">
<title>Node18</title>
<g id="a_Node000018"><a xlink:href="interfacefiftyone_1_1pipeline_1_1engines_1_1caching_1_1_flow_cache.html" target="_top" xlink:title="Used to cache results from individual flow elements in the pipeline.">
<polygon fill="white" stroke="#666666" points="1752.5,-482.97 1572.5,-482.97 1572.5,-452.97 1752.5,-452.97 1752.5,-482.97"/>
<text text-anchor="start" x="1580.5" y="-470.97" font-family="Helvetica,sans-Serif" font-size="10.00">fiftyone.pipeline.engines.caching.</text>
<text text-anchor="middle" x="1662.5" y="-459.97" font-family="Helvetica,sans-Serif" font-size="10.00">FlowCache</text>
</a>
</g>
</g>
<!-- Node18&#45;&gt;Node2 -->
<g id="edge22_Node000002_Node000018" class="edge">
<title>Node18&#45;&gt;Node2</title>
<g id="a_edge22_Node000002_Node000018"><a xlink:title=" ">
<path fill="none" stroke="#9a32cd" stroke-dasharray="5,2" d="M1762.87,-463.05C1873.77,-457.19 2039.31,-447.16 2051,-438.97 2066.96,-427.78 2058.05,-415.1 2069,-398.97 2095.45,-359.98 2134.41,-322.09 2161.36,-297.99"/>
<polygon fill="#9a32cd" stroke="#9a32cd" points="1762.45,-459.57 1752.65,-463.59 1762.82,-466.56 1762.45,-459.57"/>
</a>
</g>
<text text-anchor="start" x="1904" y="-467.47" font-family="Helvetica,sans-Serif" font-size="10.00" fill="grey">cache</text>
</g>
<!-- Node19 -->
<g id="Node000019" class="node">
<title>Node19</title>
<g id="a_Node000019"><a xlink:href="interfacefiftyone_1_1pipeline_1_1engines_1_1caching_1_1_data_keyed_cache.html" target="_top" xlink:title=" ">
<polygon fill="white" stroke="#666666" points="1380.5,-482.97 1194.5,-482.97 1194.5,-452.97 1380.5,-452.97 1380.5,-482.97"/>
<text text-anchor="start" x="1202.5" y="-470.97" font-family="Helvetica,sans-Serif" font-size="10.00">fiftyone.pipeline.engines.caching.</text>
<text text-anchor="middle" x="1287.5" y="-459.97" font-family="Helvetica,sans-Serif" font-size="10.00">DataKeyedCache&lt; ElementData &gt;</text>
</a>
</g>
</g>
<!-- Node19&#45;&gt;Node18 -->
<g id="edge23_Node000018_Node000019" class="edge">
<title>Node19&#45;&gt;Node18</title>
<g id="a_edge23_Node000018_Node000019"><a xlink:title=" ">
<path fill="none" stroke="#63b8ff" d="M1390.79,-467.97C1447.63,-467.97 1517.69,-467.97 1572.29,-467.97"/>
<polygon fill="#63b8ff" stroke="#63b8ff" points="1390.7,-464.47 1380.7,-467.97 1390.7,-471.47 1390.7,-464.47"/>
</a>
</g>
</g>
<!-- Node20 -->
<g id="Node000020" class="node">
<title>Node20</title>
<g id="a_Node000020"><a xlink:href="interfacefiftyone_1_1pipeline_1_1engines_1_1caching_1_1_data_keyed_cache.html" target="_top" xlink:title="Represents a put cache where the key is a FlowData instance.">
<polygon fill="white" stroke="#666666" points="1030.5,-482.97 850.5,-482.97 850.5,-452.97 1030.5,-452.97 1030.5,-482.97"/>
<text text-anchor="start" x="858.5" y="-470.97" font-family="Helvetica,sans-Serif" font-size="10.00">fiftyone.pipeline.engines.caching.</text>
<text text-anchor="middle" x="940.5" y="-459.97" font-family="Helvetica,sans-Serif" font-size="10.00">DataKeyedCache&lt; V &gt;</text>
</a>
</g>
</g>
<!-- Node20&#45;&gt;Node19 -->
<g id="edge24_Node000019_Node000020" class="edge">
<title>Node20&#45;&gt;Node19</title>
<g id="a_edge24_Node000019_Node000020"><a xlink:title=" ">
<path fill="none" stroke="orange" stroke-dasharray="5,2" d="M1040.95,-467.97C1089.27,-467.97 1146.95,-467.97 1194.27,-467.97"/>
<polygon fill="orange" stroke="orange" points="1040.79,-464.47 1030.79,-467.97 1040.79,-471.47 1040.79,-464.47"/>
</a>
</g>
<text text-anchor="start" x="1057.5" y="-473.47" font-family="Helvetica,sans-Serif" font-size="10.00" fill="grey">&lt; ElementData &gt;</text>
</g>
<!-- Node21 -->
<g id="Node000021" class="node">
<title>Node21</title>
<g id="a_Node000021"><a xlink:href="interfacefiftyone_1_1caching_1_1_put_cache.html" target="_top" xlink:title="A cache that supports a thread safe put method for inserting to cache.">
<polygon fill="white" stroke="#666666" points="642,-482.97 499,-482.97 499,-452.97 642,-452.97 642,-482.97"/>
<text text-anchor="start" x="507" y="-470.97" font-family="Helvetica,sans-Serif" font-size="10.00">fiftyone.caching.PutCache</text>
<text text-anchor="middle" x="570.5" y="-459.97" font-family="Helvetica,sans-Serif" font-size="10.00">&lt; K, V &gt;</text>
</a>
</g>
</g>
<!-- Node21&#45;&gt;Node20 -->
<g id="edge25_Node000020_Node000021" class="edge">
<title>Node21&#45;&gt;Node20</title>
<g id="a_edge25_Node000020_Node000021"><a xlink:title=" ">
<path fill="none" stroke="#63b8ff" d="M652.33,-467.97C710.86,-467.97 789.96,-467.97 850.33,-467.97"/>
<polygon fill="#63b8ff" stroke="#63b8ff" points="652.02,-464.47 642.02,-467.97 652.02,-471.47 652.02,-464.47"/>
</a>
</g>
</g>
<!-- Node22 -->
<g id="Node000022" class="node">
<title>Node22</title>
<g id="a_Node000022"><a xlink:href="interfacefiftyone_1_1caching_1_1_cache.html" target="_top" xlink:title="Base cache interface which declares only the get method and the types of key and value stored in the ...">
<polygon fill="white" stroke="#666666" points="344,-482.97 217,-482.97 217,-452.97 344,-452.97 344,-482.97"/>
<text text-anchor="start" x="225" y="-470.97" font-family="Helvetica,sans-Serif" font-size="10.00">fiftyone.caching.Cache</text>
<text text-anchor="middle" x="280.5" y="-459.97" font-family="Helvetica,sans-Serif" font-size="10.00">&lt; K, V &gt;</text>
</a>
</g>
</g>
<!-- Node22&#45;&gt;Node21 -->
<g id="edge26_Node000021_Node000022" class="edge">
<title>Node22&#45;&gt;Node21</title>
<g id="a_edge26_Node000021_Node000022"><a xlink:title=" ">
<path fill="none" stroke="#63b8ff" d="M354.47,-467.97C398.79,-467.97 455.08,-467.97 498.95,-467.97"/>
<polygon fill="#63b8ff" stroke="#63b8ff" points="354.35,-464.47 344.35,-467.97 354.35,-471.47 354.35,-464.47"/>
</a>
</g>
</g>
<!-- Node23 -->
<g id="Node000023" class="node">
<title>Node23</title>
<g id="a_Node000023"><a xlink:title=" ">
<polygon fill="white" stroke="#bfbfbf" points="117.5,-477.47 52.5,-477.47 52.5,-458.47 117.5,-458.47 117.5,-477.47"/>
<text text-anchor="middle" x="85" y="-465.47" font-family="Helvetica,sans-Serif" font-size="10.00">Closeable</text>
</a>
</g>
</g>
<!-- Node23&#45;&gt;Node22 -->
<g id="edge27_Node000022_Node000023" class="edge">
<title>Node23&#45;&gt;Node22</title>
<g id="a_edge27_Node000022_Node000023"><a xlink:title=" ">
<path fill="none" stroke="#63b8ff" d="M127.76,-467.97C153.71,-467.97 187.55,-467.97 216.69,-467.97"/>
<polygon fill="#63b8ff" stroke="#63b8ff" points="127.52,-464.47 117.52,-467.97 127.52,-471.47 127.52,-464.47"/>
</a>
</g>
</g>
<!-- Node24 -->
<g id="Node000024" class="node">
<title>Node24</title>
<g id="a_Node000024"><a xlink:href="interfacefiftyone_1_1pipeline_1_1cloudrequestengine_1_1flowelements_1_1_cloud_request_engine.html" target="_top" xlink:title="Engine that makes requests to the 51Degrees cloud service based on the details passed at creation and...">
<polygon fill="white" stroke="#666666" points="2051,-519.97 1785,-519.97 1785,-489.97 2051,-489.97 2051,-519.97"/>
<text text-anchor="start" x="1793" y="-507.97" font-family="Helvetica,sans-Serif" font-size="10.00">fiftyone.pipeline.cloudrequestengine.flowelements.</text>
<text text-anchor="middle" x="1918" y="-496.97" font-family="Helvetica,sans-Serif" font-size="10.00">CloudRequestEngine</text>
</a>
</g>
</g>
<!-- Node24&#45;&gt;Node1 -->
<g id="edge30_Node000001_Node000024" class="edge">
<title>Node24&#45;&gt;Node1</title>
<g id="a_edge30_Node000001_Node000024"><a xlink:title=" ">
<path fill="none" stroke="#63b8ff" d="M2023.07,-488.17C2032.52,-486.48 2041.94,-484.73 2051,-482.97 2184.29,-457.02 2339.27,-421.06 2423.55,-401.01"/>
<polygon fill="#63b8ff" stroke="#63b8ff" points="2022.45,-484.72 2013.21,-489.91 2023.67,-491.62 2022.45,-484.72"/>
</a>
</g>
</g>
<!-- Node25&#45;&gt;Node24 -->
<g id="edge31_Node000024_Node000025" class="edge">
<title>Node25&#45;&gt;Node24</title>
<g id="a_edge31_Node000024_Node000025"><a xlink:title=" ">
<path fill="none" stroke="#63b8ff" d="M1333.33,-398.51C1360.3,-413.34 1395.58,-431.84 1428,-445.97 1484.18,-470.46 1497.79,-480.51 1558,-491.97 1632.13,-506.08 1716.39,-509.76 1784.64,-509.71"/>
<polygon fill="#63b8ff" stroke="#63b8ff" points="1334.96,-395.41 1324.52,-393.63 1331.57,-401.54 1334.96,-395.41"/>
</a>
</g>
</g>
</g>
</svg>
