<?xml version="1.0" encoding="UTF-8" standalone="no"?>
<!DOCTYPE svg PUBLIC "-//W3C//DTD SVG 1.1//EN"
 "http://www.w3.org/Graphics/SVG/1.1/DTD/svg11.dtd">
<!-- Generated by graphviz version 2.43.0 (0)
 -->
<!-- Title: fiftyone.pipeline.engines.flowelements.PrePackagedPipelineBuilderBase&lt; TBuilder extends PrePackagedPipelineBuilderBase&lt; TBuilder &gt; &gt; Pages: 1 -->
<svg width="1370pt" height="117pt"
 viewBox="0.00 0.00 1370.00 116.50" xmlns="http://www.w3.org/2000/svg" xmlns:xlink="http://www.w3.org/1999/xlink">
<g id="graph0" class="graph" transform="scale(1 1) rotate(0) translate(4 112.5)">
<title>fiftyone.pipeline.engines.flowelements.PrePackagedPipelineBuilderBase&lt; TBuilder extends PrePackagedPipelineBuilderBase&lt; TBuilder &gt; &gt;</title>
<!-- Node1 -->
<g id="Node000001" class="node">
<title>Node1</title>
<g id="a_Node000001"><a xlink:title="Base class for pipeline builders that will produce a pipeline with specific flow elements.">
<polygon fill="#999999" stroke="#666666" points="1362,-82 1114,-82 1114,-30 1362,-30 1362,-82"/>
<text text-anchor="start" x="1122" y="-70" font-family="Helvetica,sans-Serif" font-size="10.00">fiftyone.pipeline.engines.flowelements.</text>
<text text-anchor="start" x="1122" y="-59" font-family="Helvetica,sans-Serif" font-size="10.00">PrePackagedPipelineBuilderBase</text>
<text text-anchor="start" x="1122" y="-48" font-family="Helvetica,sans-Serif" font-size="10.00">&lt; TBuilder extends PrePackagedPipelineBuilder</text>
<text text-anchor="middle" x="1238" y="-37" font-family="Helvetica,sans-Serif" font-size="10.00">Base&lt; TBuilder &gt; &gt;</text>
</a>
</g>
</g>
<!-- Node2 -->
<g id="Node000002" class="node">
<title>Node2</title>
<g id="a_Node000002"><a xlink:href="classfiftyone_1_1pipeline_1_1core_1_1flowelements_1_1_pipeline_builder_base.html" target="_top" xlink:title="Abstract base class for all Pipeline builders.">
<polygon fill="white" stroke="#666666" points="431,-73.5 240,-73.5 240,-32.5 431,-32.5 431,-73.5"/>
<text text-anchor="start" x="248" y="-61.5" font-family="Helvetica,sans-Serif" font-size="10.00">fiftyone.pipeline.core.flowelements.</text>
<text text-anchor="start" x="248" y="-50.5" font-family="Helvetica,sans-Serif" font-size="10.00">PipelineBuilderBase&lt; T extends</text>
<text text-anchor="middle" x="335.5" y="-39.5" font-family="Helvetica,sans-Serif" font-size="10.00"> PipelineBuilderBase &gt;</text>
</a>
</g>
</g>
<!-- Node2&#45;&gt;Node1 -->
<g id="edge1_Node000001_Node000002" class="edge">
<title>Node2&#45;&gt;Node1</title>
<g id="a_edge1_Node000001_Node000002"><a xlink:title=" ">
<path fill="none" stroke="#63b8ff" d="M441.43,-59.88C450.41,-60.31 459.36,-60.7 468,-61 726.08,-69.95 790.77,-64.89 1049,-66 1069.89,-66.09 1075.12,-66.74 1096,-66 1101.89,-65.79 1107.91,-65.53 1113.99,-65.24"/>
<polygon fill="#63b8ff" stroke="#63b8ff" points="441.45,-56.37 431.28,-59.36 441.09,-63.36 441.45,-56.37"/>
</a>
</g>
</g>
<!-- Node5 -->
<g id="Node000005" class="node">
<title>Node5</title>
<g id="a_Node000005"><a xlink:href="classfiftyone_1_1pipeline_1_1engines_1_1flowelements_1_1_pre_packaged_pipeline_builder_base.html" target="_top" xlink:title="Base class for pipeline builders that will produce a pipeline with specific flow elements.">
<polygon fill="white" stroke="#666666" points="716,-52 468,-52 468,0 716,0 716,-52"/>
<text text-anchor="start" x="476" y="-40" font-family="Helvetica,sans-Serif" font-size="10.00">fiftyone.pipeline.engines.flowelements.</text>
<text text-anchor="start" x="476" y="-29" font-family="Helvetica,sans-Serif" font-size="10.00">PrePackagedPipelineBuilderBase</text>
<text text-anchor="start" x="476" y="-18" font-family="Helvetica,sans-Serif" font-size="10.00">&lt; TBuilder extends PrePackagedPipelineBuilder</text>
<text text-anchor="middle" x="592" y="-7" font-family="Helvetica,sans-Serif" font-size="10.00">Base&lt; TBuilder &gt; &gt;</text>
</a>
</g>
</g>
<!-- Node2&#45;&gt;Node5 -->
<g id="edge6_Node000005_Node000002" class="edge">
<title>Node2&#45;&gt;Node5</title>
<g id="a_edge6_Node000005_Node000002"><a xlink:title=" ">
<path fill="none" stroke="#63b8ff" d="M441.37,-41.87C450.04,-40.95 458.85,-40.02 467.64,-39.09"/>
<polygon fill="#63b8ff" stroke="#63b8ff" points="440.84,-38.41 431.27,-42.95 441.58,-45.37 440.84,-38.41"/>
</a>
</g>
</g>
<!-- Node3 -->
<g id="Node000003" class="node">
<title>Node3</title>
<g id="a_Node000003"><a xlink:href="classfiftyone_1_1pipeline_1_1core_1_1flowelements_1_1_pipeline_builder_base.html" target="_top" xlink:title="Abstract base class for all Pipeline builders.">
<polygon fill="white" stroke="#666666" points="191,-73.5 0,-73.5 0,-32.5 191,-32.5 191,-73.5"/>
<text text-anchor="start" x="8" y="-61.5" font-family="Helvetica,sans-Serif" font-size="10.00">fiftyone.pipeline.core.flowelements.</text>
<text text-anchor="start" x="8" y="-50.5" font-family="Helvetica,sans-Serif" font-size="10.00">PipelineBuilderBase&lt; T extends</text>
<text text-anchor="middle" x="95.5" y="-39.5" font-family="Helvetica,sans-Serif" font-size="10.00"> PipelineBuilderBase &gt;</text>
</a>
</g>
</g>
<!-- Node3&#45;&gt;Node2 -->
<g id="edge2_Node000002_Node000003" class="edge">
<title>Node3&#45;&gt;Node2</title>
<g id="a_edge2_Node000002_Node000003"><a xlink:title=" ">
<path fill="none" stroke="orange" stroke-dasharray="5,2" d="M201.41,-53C214.15,-53 227.11,-53 239.69,-53"/>
<polygon fill="orange" stroke="orange" points="201.25,-49.5 191.25,-53 201.25,-56.5 201.25,-49.5"/>
</a>
</g>
<text text-anchor="start" x="212.5" y="-58.5" font-family="Helvetica,sans-Serif" font-size="10.00" fill="grey">T</text>
</g>
<!-- Node3&#45;&gt;Node3 -->
<g id="edge3_Node000003_Node000003" class="edge">
<title>Node3&#45;&gt;Node3</title>
<g id="a_edge3_Node000003_Node000003"><a xlink:title=" ">
<path fill="none" stroke="orange" stroke-dasharray="5,2" d="M75.09,-83.82C78.27,-88.4 85.07,-91.5 95.5,-91.5 112.61,-91.5 119.96,-83.15 117.56,-73.6"/>
<polygon fill="orange" stroke="orange" points="78.49,-82.91 73.44,-73.6 71.58,-84.03 78.49,-82.91"/>
</a>
</g>
<text text-anchor="start" x="92.5" y="-97" font-family="Helvetica,sans-Serif" font-size="10.00" fill="grey">T</text>
</g>
<!-- Node4 -->
<g id="Node000004" class="node">
<title>Node4</title>
<g id="a_Node000004"><a xlink:href="classfiftyone_1_1pipeline_1_1engines_1_1flowelements_1_1_pre_packaged_pipeline_builder_base.html" target="_top" xlink:title=" ">
<polygon fill="white" stroke="#666666" points="1031,-51.5 822,-51.5 822,-10.5 1031,-10.5 1031,-51.5"/>
<text text-anchor="start" x="830" y="-39.5" font-family="Helvetica,sans-Serif" font-size="10.00">fiftyone.pipeline.engines.flowelements.</text>
<text text-anchor="start" x="830" y="-28.5" font-family="Helvetica,sans-Serif" font-size="10.00">PrePackagedPipelineBuilderBase</text>
<text text-anchor="middle" x="926.5" y="-17.5" font-family="Helvetica,sans-Serif" font-size="10.00">&lt; TBuilder &gt;</text>
</a>
</g>
</g>
<!-- Node4&#45;&gt;Node1 -->
<g id="edge4_Node000001_Node000004" class="edge">
<title>Node4&#45;&gt;Node1</title>
<g id="a_edge4_Node000001_Node000004"><a xlink:title=" ">
<path fill="none" stroke="orange" stroke-dasharray="5,2" d="M1041.43,-40.2C1064.99,-42.11 1089.92,-44.12 1113.79,-46.05"/>
<polygon fill="orange" stroke="orange" points="1041.67,-36.71 1031.42,-39.39 1041.11,-43.69 1041.67,-36.71"/>
</a>
</g>
<text text-anchor="start" x="1052.5" y="-50.5" font-family="Helvetica,sans-Serif" font-size="10.00" fill="grey">TBuilder</text>
</g>
<!-- Node4&#45;&gt;Node5 -->
<g id="edge7_Node000005_Node000004" class="edge">
<title>Node4&#45;&gt;Node5</title>
<g id="a_edge7_Node000005_Node000004"><a xlink:title=" ">
<path fill="none" stroke="orange" stroke-dasharray="5,2" d="M814.71,-9.14C811.1,-8.71 807.53,-8.33 804,-8 775.54,-5.33 744.9,-5.94 716.04,-8.09"/>
<polygon fill="orange" stroke="orange" points="814.57,-12.65 824.93,-10.46 815.46,-5.71 814.57,-12.65"/>
</a>
</g>
<text text-anchor="start" x="749" y="-13.5" font-family="Helvetica,sans-Serif" font-size="10.00" fill="grey">TBuilder</text>
</g>
<!-- Node5&#45;&gt;Node4 -->
<g id="edge5_Node000004_Node000005" class="edge">
<title>Node5&#45;&gt;Node4</title>
<g id="a_edge5_Node000004_Node000005"><a xlink:title=" ">
<path fill="none" stroke="orange" stroke-dasharray="5,2" d="M726.59,-28.01C758.36,-28.49 791.78,-28.99 821.97,-29.44"/>
<polygon fill="orange" stroke="orange" points="726.39,-24.51 716.34,-27.85 726.28,-31.5 726.39,-24.51"/>
</a>
</g>
<text text-anchor="start" x="737" y="-35.5" font-family="Helvetica,sans-Serif" font-size="10.00" fill="grey">&lt; TBuilder &gt;</text>
</g>
</g>
</svg>
