<?xml version="1.0" encoding="UTF-8" standalone="no"?>
<!DOCTYPE svg PUBLIC "-//W3C//DTD SVG 1.1//EN"
 "http://www.w3.org/Graphics/SVG/1.1/DTD/svg11.dtd">
<!-- Generated by graphviz version 2.43.0 (0)
 -->
<!-- Title: fiftyone.caching.LruCacheBase&lt; K, V &gt; Pages: 1 -->
<svg width="334pt" height="225pt"
 viewBox="0.00 0.00 334.00 225.00" xmlns="http://www.w3.org/2000/svg" xmlns:xlink="http://www.w3.org/1999/xlink">
<g id="graph0" class="graph" transform="scale(1 1) rotate(0) translate(4 221)">
<title>fiftyone.caching.LruCacheBase&lt; K, V &gt;</title>
<!-- Node1 -->
<g id="Node000001" class="node">
<title>Node1</title>
<g id="a_Node000001"><a xlink:title="This is a Least Recently Used (LRU) cache with multiple linked lists in place of the usual single lin...">
<polygon fill="#999999" stroke="#666666" points="232,-96 90,-96 90,-66 232,-66 232,-96"/>
<text text-anchor="start" x="98" y="-84" font-family="Helvetica,sans-Serif" font-size="10.00">fiftyone.caching.LruCache</text>
<text text-anchor="middle" x="161" y="-73" font-family="Helvetica,sans-Serif" font-size="10.00">Base&lt; K, V &gt;</text>
</a>
</g>
</g>
<!-- Node4 -->
<g id="Node000004" class="node">
<title>Node4</title>
<g id="a_Node000004"><a xlink:href="classfiftyone_1_1caching_1_1_lru_loading_cache.html" target="_top" xlink:title="Uses the LruCacheBase to implement the LoadingCache interface.">
<polygon fill="white" stroke="#666666" points="150,-30 0,-30 0,0 150,0 150,-30"/>
<text text-anchor="start" x="8" y="-18" font-family="Helvetica,sans-Serif" font-size="10.00">fiftyone.caching.LruLoading</text>
<text text-anchor="middle" x="75" y="-7" font-family="Helvetica,sans-Serif" font-size="10.00">Cache&lt; K, V &gt;</text>
</a>
</g>
</g>
<!-- Node1&#45;&gt;Node4 -->
<g id="edge4_Node000001_Node000004" class="edge">
<title>Node1&#45;&gt;Node4</title>
<g id="a_edge4_Node000001_Node000004"><a xlink:title=" ">
<path fill="none" stroke="#63b8ff" d="M133.79,-59.75C120.86,-50.13 105.71,-38.86 94.03,-30.16"/>
<polygon fill="#63b8ff" stroke="#63b8ff" points="131.8,-62.63 141.91,-65.8 135.98,-57.02 131.8,-62.63"/>
</a>
</g>
</g>
<!-- Node5 -->
<g id="Node000005" class="node">
<title>Node5</title>
<g id="a_Node000005"><a xlink:href="classfiftyone_1_1caching_1_1_lru_put_cache.html" target="_top" xlink:title="Uses the LruCacheBase to implement the PutCache interface.">
<polygon fill="white" stroke="#666666" points="326,-30 168,-30 168,0 326,0 326,-30"/>
<text text-anchor="start" x="176" y="-18" font-family="Helvetica,sans-Serif" font-size="10.00">fiftyone.caching.LruPutCache</text>
<text text-anchor="middle" x="247" y="-7" font-family="Helvetica,sans-Serif" font-size="10.00">&lt; K, V &gt;</text>
</a>
</g>
</g>
<!-- Node1&#45;&gt;Node5 -->
<g id="edge5_Node000001_Node000005" class="edge">
<title>Node1&#45;&gt;Node5</title>
<g id="a_edge5_Node000001_Node000005"><a xlink:title=" ">
<path fill="none" stroke="#63b8ff" d="M188.21,-59.75C201.14,-50.13 216.29,-38.86 227.97,-30.16"/>
<polygon fill="#63b8ff" stroke="#63b8ff" points="186.02,-57.02 180.09,-65.8 190.2,-62.63 186.02,-57.02"/>
</a>
</g>
</g>
<!-- Node2 -->
<g id="Node000002" class="node">
<title>Node2</title>
<g id="a_Node000002"><a xlink:href="interfacefiftyone_1_1caching_1_1_cache.html" target="_top" xlink:title="Base cache interface which declares only the get method and the types of key and value stored in the ...">
<polygon fill="white" stroke="#666666" points="270.5,-162 143.5,-162 143.5,-132 270.5,-132 270.5,-162"/>
<text text-anchor="start" x="151.5" y="-150" font-family="Helvetica,sans-Serif" font-size="10.00">fiftyone.caching.Cache</text>
<text text-anchor="middle" x="207" y="-139" font-family="Helvetica,sans-Serif" font-size="10.00">&lt; K, V &gt;</text>
</a>
</g>
</g>
<!-- Node2&#45;&gt;Node1 -->
<g id="edge1_Node000001_Node000002" class="edge">
<title>Node2&#45;&gt;Node1</title>
<g id="a_edge1_Node000001_Node000002"><a xlink:title=" ">
<path fill="none" stroke="#63b8ff" d="M190.85,-123.53C184.31,-114.43 176.95,-104.19 171.18,-96.16"/>
<polygon fill="#63b8ff" stroke="#63b8ff" points="188.11,-125.72 196.79,-131.8 193.8,-121.63 188.11,-125.72"/>
</a>
</g>
</g>
<!-- Node3 -->
<g id="Node000003" class="node">
<title>Node3</title>
<g id="a_Node000003"><a xlink:title=" ">
<polygon fill="white" stroke="#bfbfbf" points="193.5,-217 128.5,-217 128.5,-198 193.5,-198 193.5,-217"/>
<text text-anchor="middle" x="161" y="-205" font-family="Helvetica,sans-Serif" font-size="10.00">Closeable</text>
</a>
</g>
</g>
<!-- Node3&#45;&gt;Node1 -->
<g id="edge3_Node000001_Node000003" class="edge">
<title>Node3&#45;&gt;Node1</title>
<g id="a_edge3_Node000001_Node000003"><a xlink:title=" ">
<path fill="none" stroke="#63b8ff" d="M148.28,-189.61C143.07,-181.67 137.66,-171.81 135,-162 131.52,-149.13 131.83,-144.95 135,-132 138.16,-119.07 145.3,-105.77 151.3,-96.14"/>
<polygon fill="#63b8ff" stroke="#63b8ff" points="145.5,-191.75 154.11,-197.93 151.23,-187.73 145.5,-191.75"/>
</a>
</g>
</g>
<!-- Node3&#45;&gt;Node2 -->
<g id="edge2_Node000002_Node000003" class="edge">
<title>Node3&#45;&gt;Node2</title>
<g id="a_edge2_Node000002_Node000003"><a xlink:title=" ">
<path fill="none" stroke="#63b8ff" d="M174.07,-189.88C180.96,-181.11 189.33,-170.48 195.9,-162.11"/>
<polygon fill="#63b8ff" stroke="#63b8ff" points="171.22,-187.84 167.79,-197.87 176.72,-192.17 171.22,-187.84"/>
</a>
</g>
</g>
</g>
</svg>
