<?xml version="1.0" encoding="UTF-8" standalone="no"?>
<!DOCTYPE svg PUBLIC "-//W3C//DTD SVG 1.1//EN"
 "http://www.w3.org/Graphics/SVG/1.1/DTD/svg11.dtd">
<!-- Generated by graphviz version 2.43.0 (0)
 -->
<!-- Title: fiftyone.pipeline.engines.fiftyone.data.CloseableIterableDefault&lt; T &gt; Pages: 1 -->
<svg width="212pt" height="159pt"
 viewBox="0.00 0.00 212.00 159.00" xmlns="http://www.w3.org/2000/svg" xmlns:xlink="http://www.w3.org/1999/xlink">
<g id="graph0" class="graph" transform="scale(1 1) rotate(0) translate(4 155)">
<title>fiftyone.pipeline.engines.fiftyone.data.CloseableIterableDefault&lt; T &gt;</title>
<!-- Node1 -->
<g id="Node000001" class="node">
<title>Node1</title>
<g id="a_Node000001"><a xlink:title="Default implementation of CloseableIterable.">
<polygon fill="#999999" stroke="#666666" points="204,-30 0,-30 0,0 204,0 204,-30"/>
<text text-anchor="start" x="8" y="-18" font-family="Helvetica,sans-Serif" font-size="10.00">fiftyone.pipeline.engines.fiftyone.data.</text>
<text text-anchor="middle" x="102" y="-7" font-family="Helvetica,sans-Serif" font-size="10.00">CloseableIterableDefault&lt; T &gt;</text>
</a>
</g>
</g>
<!-- Node2 -->
<g id="Node000002" class="node">
<title>Node2</title>
<g id="a_Node000002"><a xlink:href="interfacefiftyone_1_1pipeline_1_1engines_1_1fiftyone_1_1data_1_1_closeable_iterable.html" target="_top" xlink:title="An iterable class which also implements auto&#45;closable.">
<polygon fill="white" stroke="#666666" points="204,-96 0,-96 0,-66 204,-66 204,-96"/>
<text text-anchor="start" x="8" y="-84" font-family="Helvetica,sans-Serif" font-size="10.00">fiftyone.pipeline.engines.fiftyone.data.</text>
<text text-anchor="middle" x="102" y="-73" font-family="Helvetica,sans-Serif" font-size="10.00">CloseableIterable&lt; T &gt;</text>
</a>
</g>
</g>
<!-- Node2&#45;&gt;Node1 -->
<g id="edge1_Node000001_Node000002" class="edge">
<title>Node2&#45;&gt;Node1</title>
<g id="a_edge1_Node000001_Node000002"><a xlink:title=" ">
<path fill="none" stroke="#63b8ff" d="M102,-55.54C102,-46.96 102,-37.61 102,-30.16"/>
<polygon fill="#63b8ff" stroke="#63b8ff" points="98.5,-55.8 102,-65.8 105.5,-55.8 98.5,-55.8"/>
</a>
</g>
</g>
<!-- Node3 -->
<g id="Node000003" class="node">
<title>Node3</title>
<g id="a_Node000003"><a xlink:title=" ">
<polygon fill="white" stroke="#bfbfbf" points="92.5,-151 9.5,-151 9.5,-132 92.5,-132 92.5,-151"/>
<text text-anchor="middle" x="51" y="-139" font-family="Helvetica,sans-Serif" font-size="10.00">Iterable&lt; T &gt;</text>
</a>
</g>
</g>
<!-- Node3&#45;&gt;Node2 -->
<g id="edge2_Node000002_Node000003" class="edge">
<title>Node3&#45;&gt;Node2</title>
<g id="a_edge2_Node000002_Node000003"><a xlink:title=" ">
<path fill="none" stroke="#63b8ff" d="M65.25,-124.15C72.94,-115.34 82.33,-104.56 89.69,-96.11"/>
<polygon fill="#63b8ff" stroke="#63b8ff" points="62.46,-122.03 58.53,-131.87 67.73,-126.63 62.46,-122.03"/>
</a>
</g>
</g>
<!-- Node4 -->
<g id="Node000004" class="node">
<title>Node4</title>
<g id="a_Node000004"><a xlink:title=" ">
<polygon fill="white" stroke="#bfbfbf" points="197.5,-151 110.5,-151 110.5,-132 197.5,-132 197.5,-151"/>
<text text-anchor="middle" x="154" y="-139" font-family="Helvetica,sans-Serif" font-size="10.00">AutoCloseable</text>
</a>
</g>
</g>
<!-- Node4&#45;&gt;Node2 -->
<g id="edge3_Node000002_Node000004" class="edge">
<title>Node4&#45;&gt;Node2</title>
<g id="a_edge3_Node000002_Node000004"><a xlink:title=" ">
<path fill="none" stroke="#63b8ff" d="M139.47,-124.15C131.63,-115.34 122.06,-104.56 114.55,-96.11"/>
<polygon fill="#63b8ff" stroke="#63b8ff" points="137.07,-126.72 146.33,-131.87 142.3,-122.07 137.07,-126.72"/>
</a>
</g>
</g>
</g>
</svg>
