<?xml version="1.0" encoding="UTF-8" standalone="no"?>
<!DOCTYPE svg PUBLIC "-//W3C//DTD SVG 1.1//EN"
 "http://www.w3.org/Graphics/SVG/1.1/DTD/svg11.dtd">
<!-- Generated by graphviz version 2.43.0 (0)
 -->
<!-- Title: fiftyone.pipeline.cloudrequestengine.flowelements.PropertyKeyedCloudEngineBase&lt; TData extends MultiProfileData&lt; TProfile &gt;, TProfile extends AspectData &gt; Pages: 1 -->
<svg width="2987pt" height="460pt"
 viewBox="0.00 0.00 2987.00 459.56" xmlns="http://www.w3.org/2000/svg" xmlns:xlink="http://www.w3.org/1999/xlink">
<g id="graph0" class="graph" transform="scale(1 1) rotate(0) translate(4 455.56)">
<title>fiftyone.pipeline.cloudrequestengine.flowelements.PropertyKeyedCloudEngineBase&lt; TData extends MultiProfileData&lt; TProfile &gt;, TProfile extends AspectData &gt;</title>
<!-- Node1 -->
<g id="Node000001" class="node">
<title>Node1</title>
<g id="a_Node000001"><a xlink:title="A specialised type of CloudAspectEngineBase that has the functionality to support returning a list of...">
<polygon fill="#999999" stroke="#666666" points="2979,-437.56 2713,-437.56 2713,-385.56 2979,-385.56 2979,-437.56"/>
<text text-anchor="start" x="2721" y="-425.56" font-family="Helvetica,sans-Serif" font-size="10.00">fiftyone.pipeline.cloudrequestengine.flowelements.</text>
<text text-anchor="start" x="2721" y="-414.56" font-family="Helvetica,sans-Serif" font-size="10.00">PropertyKeyedCloudEngineBase&lt; TData</text>
<text text-anchor="start" x="2721" y="-403.56" font-family="Helvetica,sans-Serif" font-size="10.00"> extends MultiProfileData&lt; TProfile</text>
<text text-anchor="middle" x="2846" y="-392.56" font-family="Helvetica,sans-Serif" font-size="10.00"> &gt;, TProfile extends AspectData &gt;</text>
</a>
</g>
</g>
<!-- Node2 -->
<g id="Node000002" class="node">
<title>Node2</title>
<g id="a_Node000002"><a xlink:href="classfiftyone_1_1pipeline_1_1cloudrequestengine_1_1flowelements_1_1_cloud_aspect_engine_base.html" target="_top" xlink:title=" ">
<polygon fill="white" stroke="#666666" points="2676,-393.56 2410,-393.56 2410,-363.56 2676,-363.56 2676,-393.56"/>
<text text-anchor="start" x="2418" y="-381.56" font-family="Helvetica,sans-Serif" font-size="10.00">fiftyone.pipeline.cloudrequestengine.flowelements.</text>
<text text-anchor="middle" x="2543" y="-370.56" font-family="Helvetica,sans-Serif" font-size="10.00">CloudAspectEngineBase&lt; TData &gt;</text>
</a>
</g>
</g>
<!-- Node2&#45;&gt;Node1 -->
<g id="edge1_Node000001_Node000002" class="edge">
<title>Node2&#45;&gt;Node1</title>
<g id="a_edge1_Node000001_Node000002"><a xlink:title=" ">
<path fill="none" stroke="#63b8ff" d="M2686.03,-394.13C2694.91,-395.1 2703.84,-396.08 2712.68,-397.05"/>
<polygon fill="#63b8ff" stroke="#63b8ff" points="2686.34,-390.64 2676.02,-393.03 2685.58,-397.6 2686.34,-390.64"/>
</a>
</g>
</g>
<!-- Node3 -->
<g id="Node000003" class="node">
<title>Node3</title>
<g id="a_Node000003"><a xlink:href="classfiftyone_1_1pipeline_1_1cloudrequestengine_1_1flowelements_1_1_cloud_aspect_engine_base.html" target="_top" xlink:title="Base class for 51Degrees Cloud Aspect Engines.">
<polygon fill="white" stroke="#666666" points="2316,-395.06 2050,-395.06 2050,-354.06 2316,-354.06 2316,-395.06"/>
<text text-anchor="start" x="2058" y="-383.06" font-family="Helvetica,sans-Serif" font-size="10.00">fiftyone.pipeline.cloudrequestengine.flowelements.</text>
<text text-anchor="start" x="2058" y="-372.06" font-family="Helvetica,sans-Serif" font-size="10.00">CloudAspectEngineBase&lt; TData extends</text>
<text text-anchor="middle" x="2183" y="-361.06" font-family="Helvetica,sans-Serif" font-size="10.00"> AspectData &gt;</text>
</a>
</g>
</g>
<!-- Node3&#45;&gt;Node2 -->
<g id="edge2_Node000002_Node000003" class="edge">
<title>Node3&#45;&gt;Node2</title>
<g id="a_edge2_Node000002_Node000003"><a xlink:title=" ">
<path fill="none" stroke="orange" stroke-dasharray="5,2" d="M2326.14,-376.15C2353.72,-376.45 2382.53,-376.78 2409.78,-377.08"/>
<polygon fill="orange" stroke="orange" points="2326.07,-372.65 2316.03,-376.03 2326,-379.64 2326.07,-372.65"/>
</a>
</g>
<text text-anchor="start" x="2337" y="-382.06" font-family="Helvetica,sans-Serif" font-size="10.00" fill="grey">&lt; TData &gt;</text>
</g>
<!-- Node4 -->
<g id="Node000004" class="node">
<title>Node4</title>
<g id="a_Node000004"><a xlink:href="classfiftyone_1_1pipeline_1_1engines_1_1flowelements_1_1_aspect_engine_base.html" target="_top" xlink:title="Base class for AspectEngines to extend.">
<polygon fill="white" stroke="#666666" points="2013,-248.56 1765,-248.56 1765,-196.56 2013,-196.56 2013,-248.56"/>
<text text-anchor="start" x="1773" y="-236.56" font-family="Helvetica,sans-Serif" font-size="10.00">fiftyone.pipeline.engines.flowelements.</text>
<text text-anchor="start" x="1773" y="-225.56" font-family="Helvetica,sans-Serif" font-size="10.00">AspectEngineBase&lt; TData extends</text>
<text text-anchor="start" x="1773" y="-214.56" font-family="Helvetica,sans-Serif" font-size="10.00"> AspectData, TProperty extends AspectProperty</text>
<text text-anchor="middle" x="1889" y="-203.56" font-family="Helvetica,sans-Serif" font-size="10.00">MetaData &gt;</text>
</a>
</g>
</g>
<!-- Node4&#45;&gt;Node3 -->
<g id="edge3_Node000003_Node000004" class="edge">
<title>Node4&#45;&gt;Node3</title>
<g id="a_edge3_Node000003_Node000004"><a xlink:title=" ">
<path fill="none" stroke="#63b8ff" d="M1949.18,-253.36C2006.71,-283.31 2092.5,-327.97 2142.29,-353.88"/>
<polygon fill="#63b8ff" stroke="#63b8ff" points="1950.68,-250.2 1940.2,-248.69 1947.45,-256.41 1950.68,-250.2"/>
</a>
</g>
</g>
<!-- Node5 -->
<g id="Node000005" class="node">
<title>Node5</title>
<g id="a_Node000005"><a xlink:href="classfiftyone_1_1pipeline_1_1core_1_1flowelements_1_1_flow_element_base.html" target="_top" xlink:title="Provides a base class from which authors may create new FlowElements.">
<polygon fill="white" stroke="#666666" points="1344,-131.56 1153,-131.56 1153,-79.56 1344,-79.56 1344,-131.56"/>
<text text-anchor="start" x="1161" y="-119.56" font-family="Helvetica,sans-Serif" font-size="10.00">fiftyone.pipeline.core.flowelements.</text>
<text text-anchor="start" x="1161" y="-108.56" font-family="Helvetica,sans-Serif" font-size="10.00">FlowElementBase&lt; TData extends</text>
<text text-anchor="start" x="1161" y="-97.56" font-family="Helvetica,sans-Serif" font-size="10.00"> ElementData, TProperty extends</text>
<text text-anchor="middle" x="1248.5" y="-86.56" font-family="Helvetica,sans-Serif" font-size="10.00"> ElementPropertyMetaData &gt;</text>
</a>
</g>
</g>
<!-- Node5&#45;&gt;Node4 -->
<g id="edge4_Node000004_Node000005" class="edge">
<title>Node5&#45;&gt;Node4</title>
<g id="a_edge4_Node000004_Node000005"><a xlink:title=" ">
<path fill="none" stroke="#63b8ff" d="M1354.3,-106.17C1456.29,-109.12 1614.8,-119.97 1747,-156.56 1780.34,-165.78 1815.59,-182.28 1842.51,-196.48"/>
<polygon fill="#63b8ff" stroke="#63b8ff" points="1354.39,-102.67 1344.3,-105.9 1354.2,-109.67 1354.39,-102.67"/>
</a>
</g>
</g>
<!-- Node6 -->
<g id="Node000006" class="node">
<title>Node6</title>
<g id="a_Node000006"><a xlink:href="interfacefiftyone_1_1pipeline_1_1core_1_1flowelements_1_1_flow_element.html" target="_top" xlink:title=" ">
<polygon fill="white" stroke="#666666" points="1036,-110.56 845,-110.56 845,-80.56 1036,-80.56 1036,-110.56"/>
<text text-anchor="start" x="853" y="-98.56" font-family="Helvetica,sans-Serif" font-size="10.00">fiftyone.pipeline.core.flowelements.</text>
<text text-anchor="middle" x="940.5" y="-87.56" font-family="Helvetica,sans-Serif" font-size="10.00">FlowElement&lt; TData, TProperty &gt;</text>
</a>
</g>
</g>
<!-- Node6&#45;&gt;Node5 -->
<g id="edge5_Node000005_Node000006" class="edge">
<title>Node6&#45;&gt;Node5</title>
<g id="a_edge5_Node000005_Node000006"><a xlink:title=" ">
<path fill="none" stroke="#63b8ff" d="M1046.35,-98.98C1080.94,-100.11 1119.19,-101.36 1152.96,-102.47"/>
<polygon fill="#63b8ff" stroke="#63b8ff" points="1046.33,-95.48 1036.22,-98.65 1046.11,-102.48 1046.33,-95.48"/>
</a>
</g>
</g>
<!-- Node13 -->
<g id="Node000013" class="node">
<title>Node13</title>
<g id="a_Node000013"><a xlink:href="interfacefiftyone_1_1pipeline_1_1engines_1_1flowelements_1_1_aspect_engine.html" target="_top" xlink:title="AspectEngines are a subset of FlowElements.">
<polygon fill="white" stroke="#666666" points="1371,-240.06 1126,-240.06 1126,-199.06 1371,-199.06 1371,-240.06"/>
<text text-anchor="start" x="1134" y="-228.06" font-family="Helvetica,sans-Serif" font-size="10.00">fiftyone.pipeline.engines.flowelements.</text>
<text text-anchor="start" x="1134" y="-217.06" font-family="Helvetica,sans-Serif" font-size="10.00">AspectEngine&lt; TData extends AspectData,</text>
<text text-anchor="middle" x="1248.5" y="-206.06" font-family="Helvetica,sans-Serif" font-size="10.00"> TProperty extends AspectPropertyMetaData &gt;</text>
</a>
</g>
</g>
<!-- Node6&#45;&gt;Node13 -->
<g id="edge15_Node000013_Node000006" class="edge">
<title>Node6&#45;&gt;Node13</title>
<g id="a_edge15_Node000013_Node000006"><a xlink:title=" ">
<path fill="none" stroke="#63b8ff" d="M988.09,-114.44C1044.39,-137.25 1138.77,-175.5 1196.84,-199.03"/>
<polygon fill="#63b8ff" stroke="#63b8ff" points="989.3,-111.15 978.72,-110.64 986.67,-117.64 989.3,-111.15"/>
</a>
</g>
</g>
<!-- Node7 -->
<g id="Node000007" class="node">
<title>Node7</title>
<g id="a_Node000007"><a xlink:href="interfacefiftyone_1_1pipeline_1_1core_1_1flowelements_1_1_flow_element.html" target="_top" xlink:title="A component that processes a FlowData (by examining its evidence, or by examining data processed by o...">
<polygon fill="white" stroke="#666666" points="697,-114.06 444,-114.06 444,-73.06 697,-73.06 697,-114.06"/>
<text text-anchor="start" x="452" y="-102.06" font-family="Helvetica,sans-Serif" font-size="10.00">fiftyone.pipeline.core.flowelements.</text>
<text text-anchor="start" x="452" y="-91.06" font-family="Helvetica,sans-Serif" font-size="10.00">FlowElement&lt; TData extends ElementData,</text>
<text text-anchor="middle" x="570.5" y="-80.06" font-family="Helvetica,sans-Serif" font-size="10.00"> TProperty extends ElementPropertyMetaData &gt;</text>
</a>
</g>
</g>
<!-- Node7&#45;&gt;Node6 -->
<g id="edge6_Node000006_Node000007" class="edge">
<title>Node7&#45;&gt;Node6</title>
<g id="a_edge6_Node000006_Node000007"><a xlink:title=" ">
<path fill="none" stroke="orange" stroke-dasharray="5,2" d="M707.12,-94.3C752.92,-94.54 803.03,-94.82 844.95,-95.04"/>
<polygon fill="orange" stroke="orange" points="707.13,-90.8 697.12,-94.24 707.1,-97.8 707.13,-90.8"/>
</a>
</g>
<text text-anchor="start" x="718" y="-101.06" font-family="Helvetica,sans-Serif" font-size="10.00" fill="grey">&lt; TData, TProperty &gt;</text>
</g>
<!-- Node8 -->
<g id="Node000008" class="node">
<title>Node8</title>
<g id="a_Node000008"><a xlink:title=" ">
<polygon fill="white" stroke="#bfbfbf" points="324,-103.06 237,-103.06 237,-84.06 324,-84.06 324,-103.06"/>
<text text-anchor="middle" x="280.5" y="-91.06" font-family="Helvetica,sans-Serif" font-size="10.00">AutoCloseable</text>
</a>
</g>
</g>
<!-- Node8&#45;&gt;Node7 -->
<g id="edge7_Node000007_Node000008" class="edge">
<title>Node8&#45;&gt;Node7</title>
<g id="a_edge7_Node000007_Node000008"><a xlink:title=" ">
<path fill="none" stroke="#63b8ff" d="M334.37,-93.56C365.15,-93.56 405.37,-93.56 443.82,-93.56"/>
<polygon fill="#63b8ff" stroke="#63b8ff" points="334.31,-90.06 324.31,-93.56 334.31,-97.06 334.31,-90.06"/>
</a>
</g>
</g>
<!-- Node9 -->
<g id="Node000009" class="node">
<title>Node9</title>
<g id="a_Node000009"><a xlink:href="interfacefiftyone_1_1pipeline_1_1core_1_1data_1_1_element_data.html" target="_top" xlink:title="Represents property values that have be determined by a specific FlowElement based on the supplied ev...">
<polygon fill="white" stroke="#666666" points="354,-173.56 207,-173.56 207,-143.56 354,-143.56 354,-173.56"/>
<text text-anchor="start" x="215" y="-161.56" font-family="Helvetica,sans-Serif" font-size="10.00">fiftyone.pipeline.core.data.</text>
<text text-anchor="middle" x="280.5" y="-150.56" font-family="Helvetica,sans-Serif" font-size="10.00">ElementData</text>
</a>
</g>
</g>
<!-- Node9&#45;&gt;Node5 -->
<g id="edge11_Node000005_Node000009" class="edge">
<title>Node9&#45;&gt;Node5</title>
<g id="a_edge11_Node000005_Node000009"><a xlink:title=" ">
<path fill="none" stroke="orange" stroke-dasharray="5,2" d="M364.23,-154.67C503.1,-148.07 791.86,-133.95 1036,-119.56 1074.2,-117.31 1116.27,-114.57 1152.76,-112.12"/>
<polygon fill="orange" stroke="orange" points="363.91,-151.18 354.09,-155.16 364.25,-158.18 363.91,-151.18"/>
</a>
</g>
<text text-anchor="start" x="756" y="-143.06" font-family="Helvetica,sans-Serif" font-size="10.00" fill="grey">TData</text>
</g>
<!-- Node9&#45;&gt;Node7 -->
<g id="edge8_Node000007_Node000009" class="edge">
<title>Node9&#45;&gt;Node7</title>
<g id="a_edge8_Node000007_Node000009"><a xlink:title=" ">
<path fill="none" stroke="orange" stroke-dasharray="5,2" d="M330.63,-140.14C343.93,-135.59 358.4,-131.03 372,-127.56 395.01,-121.68 419.78,-116.52 443.75,-112.11"/>
<polygon fill="orange" stroke="orange" points="329.47,-136.83 321.18,-143.43 331.78,-143.44 329.47,-136.83"/>
</a>
</g>
<text text-anchor="start" x="384" y="-133.06" font-family="Helvetica,sans-Serif" font-size="10.00" fill="grey">TData</text>
</g>
<!-- Node14 -->
<g id="Node000014" class="node">
<title>Node14</title>
<g id="a_Node000014"><a xlink:href="interfacefiftyone_1_1pipeline_1_1engines_1_1data_1_1_aspect_data.html" target="_top" xlink:title="Represents a specialized ElementData instance that is generated by an AspectEngine.">
<polygon fill="white" stroke="#666666" points="1022.5,-341.56 858.5,-341.56 858.5,-311.56 1022.5,-311.56 1022.5,-341.56"/>
<text text-anchor="start" x="866.5" y="-329.56" font-family="Helvetica,sans-Serif" font-size="10.00">fiftyone.pipeline.engines.data.</text>
<text text-anchor="middle" x="940.5" y="-318.56" font-family="Helvetica,sans-Serif" font-size="10.00">AspectData</text>
</a>
</g>
</g>
<!-- Node9&#45;&gt;Node14 -->
<g id="edge17_Node000014_Node000009" class="edge">
<title>Node9&#45;&gt;Node14</title>
<g id="a_edge17_Node000014_Node000009"><a xlink:title=" ">
<path fill="none" stroke="#63b8ff" d="M350.3,-176.12C480.01,-209.24 758.59,-280.37 880.42,-311.47"/>
<polygon fill="#63b8ff" stroke="#63b8ff" points="351.03,-172.7 340.47,-173.61 349.3,-179.48 351.03,-172.7"/>
</a>
</g>
</g>
<!-- Node10 -->
<g id="Node000010" class="node">
<title>Node10</title>
<g id="a_Node000010"><a xlink:href="interfacefiftyone_1_1pipeline_1_1core_1_1data_1_1_data.html" target="_top" xlink:title="Represents a collection of property values.">
<polygon fill="white" stroke="#666666" points="170,-168.06 0,-168.06 0,-149.06 170,-149.06 170,-168.06"/>
<text text-anchor="middle" x="85" y="-156.06" font-family="Helvetica,sans-Serif" font-size="10.00">fiftyone.pipeline.core.data.Data</text>
</a>
</g>
</g>
<!-- Node10&#45;&gt;Node9 -->
<g id="edge9_Node000009_Node000010" class="edge">
<title>Node10&#45;&gt;Node9</title>
<g id="a_edge9_Node000009_Node000010"><a xlink:title=" ">
<path fill="none" stroke="#63b8ff" d="M180.11,-158.56C189.07,-158.56 198.06,-158.56 206.77,-158.56"/>
<polygon fill="#63b8ff" stroke="#63b8ff" points="180.03,-155.06 170.03,-158.56 180.03,-162.06 180.03,-155.06"/>
</a>
</g>
</g>
<!-- Node11 -->
<g id="Node000011" class="node">
<title>Node11</title>
<g id="a_Node000011"><a xlink:href="interfacefiftyone_1_1pipeline_1_1core_1_1data_1_1_element_property_meta_data.html" target="_top" xlink:title="Defines details of a property that can be returned by a FlowElement.">
<polygon fill="white" stroke="#666666" points="354,-43.56 207,-43.56 207,-13.56 354,-13.56 354,-43.56"/>
<text text-anchor="start" x="215" y="-31.56" font-family="Helvetica,sans-Serif" font-size="10.00">fiftyone.pipeline.core.data.</text>
<text text-anchor="middle" x="280.5" y="-20.56" font-family="Helvetica,sans-Serif" font-size="10.00">ElementPropertyMetaData</text>
</a>
</g>
</g>
<!-- Node11&#45;&gt;Node5 -->
<g id="edge12_Node000005_Node000011" class="edge">
<title>Node11&#45;&gt;Node5</title>
<g id="a_edge12_Node000005_Node000011"><a xlink:title=" ">
<path fill="none" stroke="orange" stroke-dasharray="5,2" d="M345.21,-11.3C354.15,-9.4 363.27,-7.73 372,-6.56 403.73,-2.31 411.99,-5 444,-4.56 614.29,-2.19 658.61,8.94 827,-16.56 939.88,-33.65 1068.03,-62.11 1152.88,-82.23"/>
<polygon fill="orange" stroke="orange" points="344.22,-7.93 335.22,-13.53 345.75,-14.76 344.22,-7.93"/>
</a>
</g>
<text text-anchor="start" x="747" y="-22.06" font-family="Helvetica,sans-Serif" font-size="10.00" fill="grey">TProperty</text>
</g>
<!-- Node11&#45;&gt;Node7 -->
<g id="edge10_Node000007_Node000011" class="edge">
<title>Node11&#45;&gt;Node7</title>
<g id="a_edge10_Node000007_Node000011"><a xlink:title=" ">
<path fill="none" stroke="orange" stroke-dasharray="5,2" d="M358.5,-45.94C395.43,-54.27 439.93,-64.32 478.52,-73.03"/>
<polygon fill="orange" stroke="orange" points="358.82,-42.42 348.3,-43.63 357.28,-49.25 358.82,-42.42"/>
</a>
</g>
<text text-anchor="start" x="375" y="-67.06" font-family="Helvetica,sans-Serif" font-size="10.00" fill="grey">TProperty</text>
</g>
<!-- Node15 -->
<g id="Node000015" class="node">
<title>Node15</title>
<g id="a_Node000015"><a xlink:href="interfacefiftyone_1_1pipeline_1_1engines_1_1data_1_1_aspect_property_meta_data.html" target="_top" xlink:title="Holds details about a property that can be returned by an AspectEngine.">
<polygon fill="white" stroke="#666666" points="1022.5,-209.56 858.5,-209.56 858.5,-179.56 1022.5,-179.56 1022.5,-209.56"/>
<text text-anchor="start" x="866.5" y="-197.56" font-family="Helvetica,sans-Serif" font-size="10.00">fiftyone.pipeline.engines.data.</text>
<text text-anchor="middle" x="940.5" y="-186.56" font-family="Helvetica,sans-Serif" font-size="10.00">AspectPropertyMetaData</text>
</a>
</g>
</g>
<!-- Node11&#45;&gt;Node15 -->
<g id="edge19_Node000015_Node000011" class="edge">
<title>Node11&#45;&gt;Node15</title>
<g id="a_edge19_Node000015_Node000011"><a xlink:title=" ">
<path fill="none" stroke="#63b8ff" d="M364.54,-15.16C479.38,-1.32 688.22,6.44 827,-90.56 839.43,-99.25 834.91,-108.23 845,-119.56 866.32,-143.49 895.91,-165.6 916.27,-179.53"/>
<polygon fill="#63b8ff" stroke="#63b8ff" points="363.89,-11.72 354.4,-16.43 364.76,-18.66 363.89,-11.72"/>
</a>
</g>
</g>
<!-- Node12 -->
<g id="Node000012" class="node">
<title>Node12</title>
<g id="a_Node000012"><a xlink:href="interfacefiftyone_1_1pipeline_1_1engines_1_1flowelements_1_1_aspect_engine.html" target="_top" xlink:title=" ">
<polygon fill="white" stroke="#666666" points="1728,-237.56 1519,-237.56 1519,-207.56 1728,-207.56 1728,-237.56"/>
<text text-anchor="start" x="1527" y="-225.56" font-family="Helvetica,sans-Serif" font-size="10.00">fiftyone.pipeline.engines.flowelements.</text>
<text text-anchor="middle" x="1623.5" y="-214.56" font-family="Helvetica,sans-Serif" font-size="10.00">AspectEngine&lt; TData, TProperty &gt;</text>
</a>
</g>
</g>
<!-- Node12&#45;&gt;Node4 -->
<g id="edge13_Node000004_Node000012" class="edge">
<title>Node12&#45;&gt;Node4</title>
<g id="a_edge13_Node000004_Node000012"><a xlink:title=" ">
<path fill="none" stroke="#63b8ff" d="M1738.42,-222.56C1747.11,-222.56 1755.92,-222.56 1764.67,-222.56"/>
<polygon fill="#63b8ff" stroke="#63b8ff" points="1738.26,-219.06 1728.26,-222.56 1738.26,-226.06 1738.26,-219.06"/>
</a>
</g>
</g>
<!-- Node16 -->
<g id="Node000016" class="node">
<title>Node16</title>
<g id="a_Node000016"><a xlink:href="interfacefiftyone_1_1pipeline_1_1engines_1_1flowelements_1_1_cloud_aspect_engine.html" target="_top" xlink:title="Aspect engine interface which is specific to a cloud engine.">
<polygon fill="white" stroke="#666666" points="2013,-348.56 1765,-348.56 1765,-296.56 2013,-296.56 2013,-348.56"/>
<text text-anchor="start" x="1773" y="-336.56" font-family="Helvetica,sans-Serif" font-size="10.00">fiftyone.pipeline.engines.flowelements.</text>
<text text-anchor="start" x="1773" y="-325.56" font-family="Helvetica,sans-Serif" font-size="10.00">CloudAspectEngine&lt; TData extends</text>
<text text-anchor="start" x="1773" y="-314.56" font-family="Helvetica,sans-Serif" font-size="10.00"> AspectData, TProperty extends AspectProperty</text>
<text text-anchor="middle" x="1889" y="-303.56" font-family="Helvetica,sans-Serif" font-size="10.00">MetaData &gt;</text>
</a>
</g>
</g>
<!-- Node12&#45;&gt;Node16 -->
<g id="edge23_Node000016_Node000012" class="edge">
<title>Node12&#45;&gt;Node16</title>
<g id="a_edge23_Node000016_Node000012"><a xlink:title=" ">
<path fill="none" stroke="#63b8ff" d="M1691.13,-240.48C1703.48,-244.2 1716.2,-248.29 1728,-252.56 1763.64,-265.46 1802.62,-282.45 1833.18,-296.46"/>
<polygon fill="#63b8ff" stroke="#63b8ff" points="1691.91,-237.06 1681.33,-237.59 1689.93,-243.78 1691.91,-237.06"/>
</a>
</g>
</g>
<!-- Node13&#45;&gt;Node12 -->
<g id="edge14_Node000012_Node000013" class="edge">
<title>Node13&#45;&gt;Node12</title>
<g id="a_edge14_Node000012_Node000013"><a xlink:title=" ">
<path fill="none" stroke="orange" stroke-dasharray="5,2" d="M1381.28,-220.62C1426.43,-220.98 1476.27,-221.38 1518.87,-221.72"/>
<polygon fill="orange" stroke="orange" points="1381.15,-217.12 1371.12,-220.54 1381.09,-224.12 1381.15,-217.12"/>
</a>
</g>
<text text-anchor="start" x="1392" y="-226.06" font-family="Helvetica,sans-Serif" font-size="10.00" fill="grey">&lt; TData, TProperty &gt;</text>
</g>
<!-- Node14&#45;&gt;Node1 -->
<g id="edge27_Node000001_Node000014" class="edge">
<title>Node14&#45;&gt;Node1</title>
<g id="a_edge27_Node000001_Node000014"><a xlink:title=" ">
<path fill="none" stroke="orange" stroke-dasharray="5,2" d="M974.76,-346.73C1029.54,-377.99 1143.12,-434.56 1247.5,-434.56 1247.5,-434.56 1247.5,-434.56 2544,-434.56 2599.42,-434.56 2660.42,-430.63 2712.93,-426.03"/>
<polygon fill="orange" stroke="orange" points="976.26,-343.56 965.85,-341.57 972.75,-349.61 976.26,-343.56"/>
</a>
</g>
<text text-anchor="start" x="1871" y="-440.06" font-family="Helvetica,sans-Serif" font-size="10.00" fill="grey">TProfile</text>
</g>
<!-- Node14&#45;&gt;Node3 -->
<g id="edge26_Node000003_Node000014" class="edge">
<title>Node14&#45;&gt;Node3</title>
<g id="a_edge26_Node000003_Node000014"><a xlink:title=" ">
<path fill="none" stroke="orange" stroke-dasharray="5,2" d="M996.3,-344.55C1057.01,-362.86 1158.16,-388.56 1247.5,-388.56 1247.5,-388.56 1247.5,-388.56 1890,-388.56 1942.28,-388.56 1999.75,-386.29 2049.79,-383.58"/>
<polygon fill="orange" stroke="orange" points="997.13,-341.14 986.54,-341.57 995.08,-347.84 997.13,-341.14"/>
</a>
</g>
<text text-anchor="start" x="1608.5" y="-394.06" font-family="Helvetica,sans-Serif" font-size="10.00" fill="grey">TData</text>
</g>
<!-- Node14&#45;&gt;Node4 -->
<g id="edge20_Node000004_Node000014" class="edge">
<title>Node14&#45;&gt;Node4</title>
<g id="a_edge20_Node000004_Node000014"><a xlink:title=" ">
<path fill="none" stroke="orange" stroke-dasharray="5,2" d="M1032.93,-322.06C1143.9,-316.05 1336.59,-303.86 1501,-284.56 1589.53,-274.16 1688.79,-258.17 1764.62,-245.03"/>
<polygon fill="orange" stroke="orange" points="1032.58,-318.57 1022.78,-322.6 1032.95,-325.56 1032.58,-318.57"/>
</a>
</g>
<text text-anchor="start" x="1430" y="-301.06" font-family="Helvetica,sans-Serif" font-size="10.00" fill="grey">TData</text>
</g>
<!-- Node14&#45;&gt;Node13 -->
<g id="edge16_Node000013_Node000014" class="edge">
<title>Node14&#45;&gt;Node13</title>
<g id="a_edge16_Node000013_Node000014"><a xlink:title=" ">
<path fill="none" stroke="orange" stroke-dasharray="5,2" d="M980.65,-307.13C1002.01,-296.96 1029.12,-284.74 1054,-275.56 1090.42,-262.11 1131.63,-249.8 1166.64,-240.16"/>
<polygon fill="orange" stroke="orange" points="979.06,-304.01 971.56,-311.5 982.09,-310.32 979.06,-304.01"/>
</a>
</g>
<text text-anchor="start" x="1066" y="-281.06" font-family="Helvetica,sans-Serif" font-size="10.00" fill="grey">TData</text>
</g>
<!-- Node14&#45;&gt;Node16 -->
<g id="edge24_Node000016_Node000014" class="edge">
<title>Node14&#45;&gt;Node16</title>
<g id="a_edge24_Node000016_Node000014"><a xlink:title=" ">
<path fill="none" stroke="orange" stroke-dasharray="5,2" d="M1032.72,-327.04C1182.04,-327.69 1487.96,-328.47 1747,-325.56 1752.88,-325.49 1758.89,-325.41 1764.96,-325.32"/>
<polygon fill="orange" stroke="orange" points="1032.7,-323.54 1022.68,-326.99 1032.66,-330.54 1032.7,-323.54"/>
</a>
</g>
<text text-anchor="start" x="1430" y="-333.06" font-family="Helvetica,sans-Serif" font-size="10.00" fill="grey">TData</text>
</g>
<!-- Node15&#45;&gt;Node4 -->
<g id="edge21_Node000004_Node000015" class="edge">
<title>Node15&#45;&gt;Node4</title>
<g id="a_edge21_Node000004_Node000015"><a xlink:title=" ">
<path fill="none" stroke="orange" stroke-dasharray="5,2" d="M1033.11,-192.18C1062.75,-191.52 1095.77,-190.89 1126,-190.56 1393.56,-187.66 1461.4,-175.67 1728,-198.56 1739.89,-199.58 1752.25,-200.92 1764.58,-202.45"/>
<polygon fill="orange" stroke="orange" points="1032.7,-188.69 1022.78,-192.42 1032.86,-195.69 1032.7,-188.69"/>
</a>
</g>
<text text-anchor="start" x="1421" y="-190.06" font-family="Helvetica,sans-Serif" font-size="10.00" fill="grey">TProperty</text>
</g>
<!-- Node15&#45;&gt;Node13 -->
<g id="edge18_Node000013_Node000015" class="edge">
<title>Node15&#45;&gt;Node13</title>
<g id="a_edge18_Node000013_Node000015"><a xlink:title=" ">
<path fill="none" stroke="orange" stroke-dasharray="5,2" d="M1033.16,-199.29C1057.5,-200.75 1083.76,-202.53 1108,-204.56 1113.83,-205.05 1119.78,-205.57 1125.8,-206.13"/>
<polygon fill="orange" stroke="orange" points="1033.04,-195.77 1022.85,-198.68 1032.63,-202.76 1033.04,-195.77"/>
</a>
</g>
<text text-anchor="start" x="1057" y="-210.06" font-family="Helvetica,sans-Serif" font-size="10.00" fill="grey">TProperty</text>
</g>
<!-- Node15&#45;&gt;Node16 -->
<g id="edge25_Node000016_Node000015" class="edge">
<title>Node15&#45;&gt;Node16</title>
<g id="a_edge25_Node000016_Node000015"><a xlink:title=" ">
<path fill="none" stroke="orange" stroke-dasharray="5,2" d="M968.01,-215.94C989.69,-231.98 1021.9,-252.65 1054,-261.56 1245.43,-314.7 1302.93,-248.1 1501,-263.56 1589.76,-270.48 1689.02,-285.77 1764.79,-299.05"/>
<polygon fill="orange" stroke="orange" points="970.04,-213.09 959.95,-209.84 965.81,-218.67 970.04,-213.09"/>
</a>
</g>
<text text-anchor="start" x="1421" y="-269.06" font-family="Helvetica,sans-Serif" font-size="10.00" fill="grey">TProperty</text>
</g>
<!-- Node16&#45;&gt;Node3 -->
<g id="edge22_Node000003_Node000016" class="edge">
<title>Node16&#45;&gt;Node3</title>
<g id="a_edge22_Node000003_Node000016"><a xlink:title=" ">
<path fill="none" stroke="#63b8ff" d="M2023.34,-346.3C2037.74,-348.87 2052.3,-351.46 2066.47,-353.98"/>
<polygon fill="#63b8ff" stroke="#63b8ff" points="2023.87,-342.84 2013.41,-344.54 2022.64,-349.73 2023.87,-342.84"/>
</a>
</g>
</g>
</g>
</svg>
