<?xml version="1.0" encoding="UTF-8" standalone="no"?>
<!DOCTYPE svg PUBLIC "-//W3C//DTD SVG 1.1//EN"
 "http://www.w3.org/Graphics/SVG/1.1/DTD/svg11.dtd">
<!-- Generated by graphviz version 2.43.0 (0)
 -->
<!-- Title: fiftyone.pipeline.jsonbuilder.flowelements.JsonBuilderElement Pages: 1 -->
<svg width="1756pt" height="275pt"
 viewBox="0.00 0.00 1756.00 275.12" xmlns="http://www.w3.org/2000/svg" xmlns:xlink="http://www.w3.org/1999/xlink">
<g id="graph0" class="graph" transform="scale(1 1) rotate(0) translate(4 271.12)">
<title>fiftyone.pipeline.jsonbuilder.flowelements.JsonBuilderElement</title>
<!-- Node1 -->
<g id="Node000001" class="node">
<title>Node1</title>
<g id="a_Node000001"><a xlink:title="The JsonBuilderElement takes accessible properties and adds the property key:values to the Json objec...">
<polygon fill="#999999" stroke="#666666" points="1748,-110.12 1524,-110.12 1524,-80.12 1748,-80.12 1748,-110.12"/>
<text text-anchor="start" x="1532" y="-98.12" font-family="Helvetica,sans-Serif" font-size="10.00">fiftyone.pipeline.jsonbuilder.flowelements.</text>
<text text-anchor="middle" x="1636" y="-87.12" font-family="Helvetica,sans-Serif" font-size="10.00">JsonBuilderElement</text>
</a>
</g>
</g>
<!-- Node2 -->
<g id="Node000002" class="node">
<title>Node2</title>
<g id="a_Node000002"><a xlink:href="classfiftyone_1_1pipeline_1_1core_1_1flowelements_1_1_flow_element_base.html" target="_top" xlink:title="Provides a base class from which authors may create new FlowElements.">
<polygon fill="white" stroke="#666666" points="1487,-162.12 1296,-162.12 1296,-110.12 1487,-110.12 1487,-162.12"/>
<text text-anchor="start" x="1304" y="-150.12" font-family="Helvetica,sans-Serif" font-size="10.00">fiftyone.pipeline.core.flowelements.</text>
<text text-anchor="start" x="1304" y="-139.12" font-family="Helvetica,sans-Serif" font-size="10.00">FlowElementBase&lt; TData extends</text>
<text text-anchor="start" x="1304" y="-128.12" font-family="Helvetica,sans-Serif" font-size="10.00"> ElementData, TProperty extends</text>
<text text-anchor="middle" x="1391.5" y="-117.12" font-family="Helvetica,sans-Serif" font-size="10.00"> ElementPropertyMetaData &gt;</text>
</a>
</g>
</g>
<!-- Node2&#45;&gt;Node1 -->
<g id="edge1_Node000001_Node000002" class="edge">
<title>Node2&#45;&gt;Node1</title>
<g id="a_edge1_Node000001_Node000002"><a xlink:title=" ">
<path fill="none" stroke="#63b8ff" d="M1497.37,-118.39C1513.65,-115.64 1530.33,-112.81 1546.21,-110.13"/>
<polygon fill="#63b8ff" stroke="#63b8ff" points="1496.58,-114.97 1487.3,-120.09 1497.74,-121.87 1496.58,-114.97"/>
</a>
</g>
</g>
<!-- Node3 -->
<g id="Node000003" class="node">
<title>Node3</title>
<g id="a_Node000003"><a xlink:href="interfacefiftyone_1_1pipeline_1_1core_1_1flowelements_1_1_flow_element.html" target="_top" xlink:title=" ">
<polygon fill="white" stroke="#666666" points="1036,-173.12 845,-173.12 845,-143.12 1036,-143.12 1036,-173.12"/>
<text text-anchor="start" x="853" y="-161.12" font-family="Helvetica,sans-Serif" font-size="10.00">fiftyone.pipeline.core.flowelements.</text>
<text text-anchor="middle" x="940.5" y="-150.12" font-family="Helvetica,sans-Serif" font-size="10.00">FlowElement&lt; TData, TProperty &gt;</text>
</a>
</g>
</g>
<!-- Node3&#45;&gt;Node2 -->
<g id="edge2_Node000002_Node000003" class="edge">
<title>Node3&#45;&gt;Node2</title>
<g id="a_edge2_Node000002_Node000003"><a xlink:title=" ">
<path fill="none" stroke="#63b8ff" d="M1046.19,-152.99C1121.73,-149.29 1222.86,-144.33 1295.96,-140.75"/>
<polygon fill="#63b8ff" stroke="#63b8ff" points="1045.99,-149.49 1036.17,-153.48 1046.33,-156.49 1045.99,-149.49"/>
</a>
</g>
</g>
<!-- Node4 -->
<g id="Node000004" class="node">
<title>Node4</title>
<g id="a_Node000004"><a xlink:href="interfacefiftyone_1_1pipeline_1_1core_1_1flowelements_1_1_flow_element.html" target="_top" xlink:title="A component that processes a FlowData (by examining its evidence, or by examining data processed by o...">
<polygon fill="white" stroke="#666666" points="697,-212.62 444,-212.62 444,-171.62 697,-171.62 697,-212.62"/>
<text text-anchor="start" x="452" y="-200.62" font-family="Helvetica,sans-Serif" font-size="10.00">fiftyone.pipeline.core.flowelements.</text>
<text text-anchor="start" x="452" y="-189.62" font-family="Helvetica,sans-Serif" font-size="10.00">FlowElement&lt; TData extends ElementData,</text>
<text text-anchor="middle" x="570.5" y="-178.62" font-family="Helvetica,sans-Serif" font-size="10.00"> TProperty extends ElementPropertyMetaData &gt;</text>
</a>
</g>
</g>
<!-- Node4&#45;&gt;Node3 -->
<g id="edge3_Node000003_Node000004" class="edge">
<title>Node4&#45;&gt;Node3</title>
<g id="a_edge3_Node000003_Node000004"><a xlink:title=" ">
<path fill="none" stroke="orange" stroke-dasharray="5,2" d="M707.12,-179.59C752.92,-175.36 803.03,-170.73 844.95,-166.85"/>
<polygon fill="orange" stroke="orange" points="706.75,-176.11 697.12,-180.51 707.4,-183.08 706.75,-176.11"/>
</a>
</g>
<text text-anchor="start" x="718" y="-183.62" font-family="Helvetica,sans-Serif" font-size="10.00" fill="grey">&lt; TData, TProperty &gt;</text>
</g>
<!-- Node5 -->
<g id="Node000005" class="node">
<title>Node5</title>
<g id="a_Node000005"><a xlink:title=" ">
<polygon fill="white" stroke="#bfbfbf" points="324,-176.62 237,-176.62 237,-157.62 324,-157.62 324,-176.62"/>
<text text-anchor="middle" x="280.5" y="-164.62" font-family="Helvetica,sans-Serif" font-size="10.00">AutoCloseable</text>
</a>
</g>
</g>
<!-- Node5&#45;&gt;Node4 -->
<g id="edge4_Node000004_Node000005" class="edge">
<title>Node5&#45;&gt;Node4</title>
<g id="a_edge4_Node000004_Node000005"><a xlink:title=" ">
<path fill="none" stroke="#63b8ff" d="M307.6,-181.35C325.21,-190.13 349.31,-200.55 372,-205.12 395.07,-209.77 419.94,-211 443.99,-210.3"/>
<polygon fill="#63b8ff" stroke="#63b8ff" points="309.02,-178.15 298.53,-176.7 305.82,-184.38 309.02,-178.15"/>
</a>
</g>
</g>
<!-- Node10 -->
<g id="Node000010" class="node">
<title>Node10</title>
<g id="a_Node000010"><a xlink:href="interfacefiftyone_1_1pipeline_1_1core_1_1flowelements_1_1_flow_element.html" target="_top" xlink:title="A component that processes a FlowData (by examining its evidence, or by examining data processed by o...">
<polygon fill="white" stroke="#666666" points="697,-126.62 444,-126.62 444,-85.62 697,-85.62 697,-126.62"/>
<text text-anchor="start" x="452" y="-114.62" font-family="Helvetica,sans-Serif" font-size="10.00">fiftyone.pipeline.core.flowelements.</text>
<text text-anchor="start" x="452" y="-103.62" font-family="Helvetica,sans-Serif" font-size="10.00">FlowElement&lt; TData extends ElementData,</text>
<text text-anchor="middle" x="570.5" y="-92.62" font-family="Helvetica,sans-Serif" font-size="10.00"> TProperty extends ElementPropertyMetaData &gt;</text>
</a>
</g>
</g>
<!-- Node5&#45;&gt;Node10 -->
<g id="edge12_Node000010_Node000005" class="edge">
<title>Node5&#45;&gt;Node10</title>
<g id="a_edge12_Node000010_Node000005"><a xlink:title=" ">
<path fill="none" stroke="#63b8ff" d="M308.41,-153.02C326.03,-144.42 349.81,-133.99 372,-128.12 394.93,-122.05 419.79,-117.65 443.88,-114.46"/>
<polygon fill="#63b8ff" stroke="#63b8ff" points="306.69,-149.96 299.31,-157.56 309.82,-156.23 306.69,-149.96"/>
</a>
</g>
</g>
<!-- Node6 -->
<g id="Node000006" class="node">
<title>Node6</title>
<g id="a_Node000006"><a xlink:href="interfacefiftyone_1_1pipeline_1_1core_1_1data_1_1_element_data.html" target="_top" xlink:title="Represents property values that have be determined by a specific FlowElement based on the supplied ev...">
<polygon fill="white" stroke="#666666" points="354,-97.12 207,-97.12 207,-67.12 354,-67.12 354,-97.12"/>
<text text-anchor="start" x="215" y="-85.12" font-family="Helvetica,sans-Serif" font-size="10.00">fiftyone.pipeline.core.data.</text>
<text text-anchor="middle" x="280.5" y="-74.12" font-family="Helvetica,sans-Serif" font-size="10.00">ElementData</text>
</a>
</g>
</g>
<!-- Node6&#45;&gt;Node2 -->
<g id="edge8_Node000002_Node000006" class="edge">
<title>Node6&#45;&gt;Node2</title>
<g id="a_edge8_Node000002_Node000006"><a xlink:title=" ">
<path fill="none" stroke="orange" stroke-dasharray="5,2" d="M364.26,-77.41C366.87,-77.3 369.45,-77.21 372,-77.12 403.98,-76.01 412,-76.34 444,-76.12 556.44,-75.34 584.66,-71.27 697,-76.12 911.61,-85.38 1162.53,-110.71 1295.88,-125.33"/>
<polygon fill="orange" stroke="orange" points="363.94,-73.92 354.1,-77.84 364.24,-80.91 363.94,-73.92"/>
</a>
</g>
<text text-anchor="start" x="756" y="-88.62" font-family="Helvetica,sans-Serif" font-size="10.00" fill="grey">TData</text>
</g>
<!-- Node6&#45;&gt;Node4 -->
<g id="edge5_Node000004_Node000006" class="edge">
<title>Node6&#45;&gt;Node4</title>
<g id="a_edge5_Node000004_Node000006"><a xlink:title=" ">
<path fill="none" stroke="orange" stroke-dasharray="5,2" d="M330.5,-100.83C381.89,-120.46 462.43,-151.22 515.59,-171.53"/>
<polygon fill="orange" stroke="orange" points="331.53,-97.48 320.94,-97.18 329.03,-104.02 331.53,-97.48"/>
</a>
</g>
<text text-anchor="start" x="384" y="-142.62" font-family="Helvetica,sans-Serif" font-size="10.00" fill="grey">TData</text>
</g>
<!-- Node6&#45;&gt;Node10 -->
<g id="edge13_Node000010_Node000006" class="edge">
<title>Node6&#45;&gt;Node10</title>
<g id="a_edge13_Node000010_Node000006"><a xlink:title=" ">
<path fill="none" stroke="orange" stroke-dasharray="5,2" d="M364.46,-80.53C384.63,-80.74 406.11,-81.47 426,-83.12 433.92,-83.78 442.06,-84.62 450.26,-85.6"/>
<polygon fill="orange" stroke="orange" points="364.39,-77.03 354.37,-80.47 364.34,-84.03 364.39,-77.03"/>
</a>
</g>
<text text-anchor="start" x="384" y="-88.62" font-family="Helvetica,sans-Serif" font-size="10.00" fill="grey">TData</text>
</g>
<!-- Node7 -->
<g id="Node000007" class="node">
<title>Node7</title>
<g id="a_Node000007"><a xlink:href="interfacefiftyone_1_1pipeline_1_1core_1_1data_1_1_data.html" target="_top" xlink:title="Represents a collection of property values.">
<polygon fill="white" stroke="#666666" points="170,-91.62 0,-91.62 0,-72.62 170,-72.62 170,-91.62"/>
<text text-anchor="middle" x="85" y="-79.62" font-family="Helvetica,sans-Serif" font-size="10.00">fiftyone.pipeline.core.data.Data</text>
</a>
</g>
</g>
<!-- Node7&#45;&gt;Node6 -->
<g id="edge6_Node000006_Node000007" class="edge">
<title>Node7&#45;&gt;Node6</title>
<g id="a_edge6_Node000006_Node000007"><a xlink:title=" ">
<path fill="none" stroke="#63b8ff" d="M180.11,-82.12C189.07,-82.12 198.06,-82.12 206.77,-82.12"/>
<polygon fill="#63b8ff" stroke="#63b8ff" points="180.03,-78.62 170.03,-82.12 180.03,-85.62 180.03,-78.62"/>
</a>
</g>
</g>
<!-- Node8 -->
<g id="Node000008" class="node">
<title>Node8</title>
<g id="a_Node000008"><a xlink:href="interfacefiftyone_1_1pipeline_1_1core_1_1data_1_1_element_property_meta_data.html" target="_top" xlink:title="Defines details of a property that can be returned by a FlowElement.">
<polygon fill="white" stroke="#666666" points="354,-267.12 207,-267.12 207,-237.12 354,-237.12 354,-267.12"/>
<text text-anchor="start" x="215" y="-255.12" font-family="Helvetica,sans-Serif" font-size="10.00">fiftyone.pipeline.core.data.</text>
<text text-anchor="middle" x="280.5" y="-244.12" font-family="Helvetica,sans-Serif" font-size="10.00">ElementPropertyMetaData</text>
</a>
</g>
</g>
<!-- Node8&#45;&gt;Node2 -->
<g id="edge9_Node000002_Node000008" class="edge">
<title>Node8&#45;&gt;Node2</title>
<g id="a_edge9_Node000002_Node000008"><a xlink:title=" ">
<path fill="none" stroke="orange" stroke-dasharray="5,2" d="M364.4,-254.42C384.57,-254.5 406.07,-254.19 426,-253.12 806.32,-232.64 902.19,-222.97 1278,-161.12 1283.82,-160.16 1289.8,-159.09 1295.81,-157.95"/>
<polygon fill="orange" stroke="orange" points="364.34,-250.92 354.31,-254.34 364.28,-257.92 364.34,-250.92"/>
</a>
</g>
<text text-anchor="start" x="747" y="-239.62" font-family="Helvetica,sans-Serif" font-size="10.00" fill="grey">TProperty</text>
</g>
<!-- Node8&#45;&gt;Node4 -->
<g id="edge7_Node000004_Node000008" class="edge">
<title>Node8&#45;&gt;Node4</title>
<g id="a_edge7_Node000004_Node000008"><a xlink:title=" ">
<path fill="none" stroke="orange" stroke-dasharray="5,2" d="M363.98,-234.94C397.37,-227.98 436.19,-219.89 471.05,-212.63"/>
<polygon fill="orange" stroke="orange" points="362.88,-231.59 353.8,-237.06 364.31,-238.44 362.88,-231.59"/>
</a>
</g>
<text text-anchor="start" x="375" y="-237.62" font-family="Helvetica,sans-Serif" font-size="10.00" fill="grey">TProperty</text>
</g>
<!-- Node8&#45;&gt;Node10 -->
<g id="edge14_Node000010_Node000008" class="edge">
<title>Node8&#45;&gt;Node10</title>
<g id="a_edge14_Node000010_Node000008"><a xlink:title=" ">
<path fill="none" stroke="orange" stroke-dasharray="5,2" d="M316.79,-231.93C333.47,-222.47 353.7,-211.1 372,-201.12 403.76,-183.79 411.51,-179.05 444,-163.12 469.67,-150.53 498.73,-137.27 522.41,-126.71"/>
<polygon fill="orange" stroke="orange" points="314.89,-228.99 307.92,-236.97 318.35,-235.07 314.89,-228.99"/>
</a>
</g>
<text text-anchor="start" x="375" y="-206.62" font-family="Helvetica,sans-Serif" font-size="10.00" fill="grey">TProperty</text>
</g>
<!-- Node9 -->
<g id="Node000009" class="node">
<title>Node9</title>
<g id="a_Node000009"><a xlink:href="interfacefiftyone_1_1pipeline_1_1jsonbuilder_1_1flowelements_1_1_json_builder.html" target="_top" xlink:title="The JsonBuilderElement takes accessible properties and adds the property key:values to the Json objec...">
<polygon fill="white" stroke="#666666" points="1278,-30.12 1054,-30.12 1054,-0.12 1278,-0.12 1278,-30.12"/>
<text text-anchor="start" x="1062" y="-18.12" font-family="Helvetica,sans-Serif" font-size="10.00">fiftyone.pipeline.jsonbuilder.flowelements.</text>
<text text-anchor="middle" x="1166" y="-7.12" font-family="Helvetica,sans-Serif" font-size="10.00">JsonBuilder</text>
</a>
</g>
</g>
<!-- Node9&#45;&gt;Node1 -->
<g id="edge10_Node000001_Node000009" class="edge">
<title>Node9&#45;&gt;Node1</title>
<g id="a_edge10_Node000001_Node000009"><a xlink:title=" ">
<path fill="none" stroke="#63b8ff" d="M1264.72,-31.82C1347.96,-46.05 1466.5,-66.32 1546.87,-80.05"/>
<polygon fill="#63b8ff" stroke="#63b8ff" points="1265.2,-28.35 1254.75,-30.12 1264.02,-35.25 1265.2,-28.35"/>
</a>
</g>
</g>
<!-- Node10&#45;&gt;Node9 -->
<g id="edge11_Node000009_Node000010" class="edge">
<title>Node10&#45;&gt;Node9</title>
<g id="a_edge11_Node000009_Node000010"><a xlink:title=" ">
<path fill="none" stroke="#63b8ff" d="M607.74,-79.76C635.56,-61.18 675.75,-37.77 715,-27.12 827.38,3.37 961.39,2.44 1053.77,-3.67"/>
<polygon fill="#63b8ff" stroke="#63b8ff" points="605.46,-77.08 599.16,-85.61 609.4,-82.87 605.46,-77.08"/>
</a>
</g>
</g>
</g>
</svg>
