<?xml version="1.0" encoding="UTF-8" standalone="no"?>
<!DOCTYPE svg PUBLIC "-//W3C//DTD SVG 1.1//EN"
 "http://www.w3.org/Graphics/SVG/1.1/DTD/svg11.dtd">
<!-- Generated by graphviz version 2.43.0 (0)
 -->
<!-- Title: fiftyone.pipeline.engines.fiftyone.flowelements.FiftyOneOnPremiseAspectEngineBase&lt; TData extends AspectData, TProperty extends FiftyOneAspectPropertyMetaData &gt; Pages: 1 -->
<svg width="3494pt" height="469pt"
 viewBox="0.00 0.00 3494.00 469.00" xmlns="http://www.w3.org/2000/svg" xmlns:xlink="http://www.w3.org/1999/xlink">
<g id="graph0" class="graph" transform="scale(1 1) rotate(0) translate(4 465)">
<title>fiftyone.pipeline.engines.fiftyone.flowelements.FiftyOneOnPremiseAspectEngineBase&lt; TData extends AspectData, TProperty extends FiftyOneAspectPropertyMetaData &gt;</title>
<!-- Node1 -->
<g id="Node000001" class="node">
<title>Node1</title>
<g id="a_Node000001"><a xlink:title="51Degrees specific engine base class.">
<polygon fill="#999999" stroke="#666666" points="3486,-175 3238,-175 3238,-123 3486,-123 3486,-175"/>
<text text-anchor="start" x="3246" y="-163" font-family="Helvetica,sans-Serif" font-size="10.00">fiftyone.pipeline.engines.fiftyone.flowelements.</text>
<text text-anchor="start" x="3246" y="-152" font-family="Helvetica,sans-Serif" font-size="10.00">FiftyOneOnPremiseAspectEngineBase</text>
<text text-anchor="start" x="3246" y="-141" font-family="Helvetica,sans-Serif" font-size="10.00">&lt; TData extends AspectData, TProperty</text>
<text text-anchor="middle" x="3362" y="-130" font-family="Helvetica,sans-Serif" font-size="10.00"> extends FiftyOneAspectPropertyMetaData &gt;</text>
</a>
</g>
</g>
<!-- Node2 -->
<g id="Node000002" class="node">
<title>Node2</title>
<g id="a_Node000002"><a xlink:href="classfiftyone_1_1pipeline_1_1engines_1_1flowelements_1_1_on_premise_aspect_engine_base.html" target="_top" xlink:title="Base class for on&#45;premise aspect engines.">
<polygon fill="white" stroke="#666666" points="2767,-233 2554,-233 2554,-181 2767,-181 2767,-233"/>
<text text-anchor="start" x="2562" y="-221" font-family="Helvetica,sans-Serif" font-size="10.00">fiftyone.pipeline.engines.flowelements.</text>
<text text-anchor="start" x="2562" y="-210" font-family="Helvetica,sans-Serif" font-size="10.00">OnPremiseAspectEngineBase&lt; TData</text>
<text text-anchor="start" x="2562" y="-199" font-family="Helvetica,sans-Serif" font-size="10.00"> extends AspectData, TProperty extends</text>
<text text-anchor="middle" x="2660.5" y="-188" font-family="Helvetica,sans-Serif" font-size="10.00"> AspectPropertyMetaData &gt;</text>
</a>
</g>
</g>
<!-- Node2&#45;&gt;Node1 -->
<g id="edge1_Node000001_Node000002" class="edge">
<title>Node2&#45;&gt;Node1</title>
<g id="a_edge1_Node000001_Node000002"><a xlink:title=" ">
<path fill="none" stroke="#63b8ff" d="M2777.22,-200.59C2890.28,-193.88 3067.18,-182.22 3220,-167 3225.77,-166.43 3231.67,-165.8 3237.63,-165.15"/>
<polygon fill="#63b8ff" stroke="#63b8ff" points="2776.94,-197.1 2767.16,-201.18 2777.35,-204.09 2776.94,-197.1"/>
</a>
</g>
</g>
<!-- Node3 -->
<g id="Node000003" class="node">
<title>Node3</title>
<g id="a_Node000003"><a xlink:href="classfiftyone_1_1pipeline_1_1engines_1_1flowelements_1_1_aspect_engine_base.html" target="_top" xlink:title=" ">
<polygon fill="white" stroke="#666666" points="2426,-252 2214,-252 2214,-222 2426,-222 2426,-252"/>
<text text-anchor="start" x="2222" y="-240" font-family="Helvetica,sans-Serif" font-size="10.00">fiftyone.pipeline.engines.flowelements.</text>
<text text-anchor="middle" x="2320" y="-229" font-family="Helvetica,sans-Serif" font-size="10.00">AspectEngineBase&lt; TData, TProperty &gt;</text>
</a>
</g>
</g>
<!-- Node3&#45;&gt;Node2 -->
<g id="edge2_Node000002_Node000003" class="edge">
<title>Node3&#45;&gt;Node2</title>
<g id="a_edge2_Node000002_Node000003"><a xlink:title=" ">
<path fill="none" stroke="#63b8ff" d="M2436.34,-226.78C2474.37,-223.41 2516.46,-219.68 2553.73,-216.37"/>
<polygon fill="#63b8ff" stroke="#63b8ff" points="2435.9,-223.3 2426.25,-227.67 2436.52,-230.28 2435.9,-223.3"/>
</a>
</g>
</g>
<!-- Node4 -->
<g id="Node000004" class="node">
<title>Node4</title>
<g id="a_Node000004"><a xlink:href="classfiftyone_1_1pipeline_1_1engines_1_1flowelements_1_1_aspect_engine_base.html" target="_top" xlink:title="Base class for AspectEngines to extend.">
<polygon fill="white" stroke="#666666" points="2066,-266 1818,-266 1818,-214 2066,-214 2066,-266"/>
<text text-anchor="start" x="1826" y="-254" font-family="Helvetica,sans-Serif" font-size="10.00">fiftyone.pipeline.engines.flowelements.</text>
<text text-anchor="start" x="1826" y="-243" font-family="Helvetica,sans-Serif" font-size="10.00">AspectEngineBase&lt; TData extends</text>
<text text-anchor="start" x="1826" y="-232" font-family="Helvetica,sans-Serif" font-size="10.00"> AspectData, TProperty extends AspectProperty</text>
<text text-anchor="middle" x="1942" y="-221" font-family="Helvetica,sans-Serif" font-size="10.00">MetaData &gt;</text>
</a>
</g>
</g>
<!-- Node4&#45;&gt;Node3 -->
<g id="edge3_Node000003_Node000004" class="edge">
<title>Node4&#45;&gt;Node3</title>
<g id="a_edge3_Node000003_Node000004"><a xlink:title=" ">
<path fill="none" stroke="orange" stroke-dasharray="5,2" d="M2076.28,-238.94C2121.45,-238.58 2171.23,-238.18 2213.9,-237.84"/>
<polygon fill="orange" stroke="orange" points="2076.09,-235.44 2066.12,-239.02 2076.14,-242.44 2076.09,-235.44"/>
</a>
</g>
<text text-anchor="start" x="2087" y="-244.5" font-family="Helvetica,sans-Serif" font-size="10.00" fill="grey">&lt; TData, TProperty &gt;</text>
</g>
<!-- Node5 -->
<g id="Node000005" class="node">
<title>Node5</title>
<g id="a_Node000005"><a xlink:href="classfiftyone_1_1pipeline_1_1core_1_1flowelements_1_1_flow_element_base.html" target="_top" xlink:title="Provides a base class from which authors may create new FlowElements.">
<polygon fill="white" stroke="#666666" points="1344,-297 1153,-297 1153,-245 1344,-245 1344,-297"/>
<text text-anchor="start" x="1161" y="-285" font-family="Helvetica,sans-Serif" font-size="10.00">fiftyone.pipeline.core.flowelements.</text>
<text text-anchor="start" x="1161" y="-274" font-family="Helvetica,sans-Serif" font-size="10.00">FlowElementBase&lt; TData extends</text>
<text text-anchor="start" x="1161" y="-263" font-family="Helvetica,sans-Serif" font-size="10.00"> ElementData, TProperty extends</text>
<text text-anchor="middle" x="1248.5" y="-252" font-family="Helvetica,sans-Serif" font-size="10.00"> ElementPropertyMetaData &gt;</text>
</a>
</g>
</g>
<!-- Node5&#45;&gt;Node4 -->
<g id="edge4_Node000004_Node000005" class="edge">
<title>Node5&#45;&gt;Node4</title>
<g id="a_edge4_Node000004_Node000005"><a xlink:title=" ">
<path fill="none" stroke="#63b8ff" d="M1354.49,-266.29C1478.88,-260.72 1685.84,-251.44 1817.72,-245.53"/>
<polygon fill="#63b8ff" stroke="#63b8ff" points="1354.03,-262.81 1344.2,-266.75 1354.35,-269.8 1354.03,-262.81"/>
</a>
</g>
</g>
<!-- Node6 -->
<g id="Node000006" class="node">
<title>Node6</title>
<g id="a_Node000006"><a xlink:href="interfacefiftyone_1_1pipeline_1_1core_1_1flowelements_1_1_flow_element.html" target="_top" xlink:title=" ">
<polygon fill="white" stroke="#666666" points="1036,-231 845,-231 845,-201 1036,-201 1036,-231"/>
<text text-anchor="start" x="853" y="-219" font-family="Helvetica,sans-Serif" font-size="10.00">fiftyone.pipeline.core.flowelements.</text>
<text text-anchor="middle" x="940.5" y="-208" font-family="Helvetica,sans-Serif" font-size="10.00">FlowElement&lt; TData, TProperty &gt;</text>
</a>
</g>
</g>
<!-- Node6&#45;&gt;Node5 -->
<g id="edge5_Node000005_Node000006" class="edge">
<title>Node6&#45;&gt;Node5</title>
<g id="a_edge5_Node000005_Node000006"><a xlink:title=" ">
<path fill="none" stroke="#63b8ff" d="M1046.28,-231.54C1066.78,-234.81 1088.09,-238.38 1108,-242 1122.48,-244.63 1137.77,-247.61 1152.7,-250.63"/>
<polygon fill="#63b8ff" stroke="#63b8ff" points="1046.72,-228.07 1036.29,-229.96 1045.62,-234.98 1046.72,-228.07"/>
</a>
</g>
</g>
<!-- Node13 -->
<g id="Node000013" class="node">
<title>Node13</title>
<g id="a_Node000013"><a xlink:href="interfacefiftyone_1_1pipeline_1_1engines_1_1flowelements_1_1_aspect_engine.html" target="_top" xlink:title="AspectEngines are a subset of FlowElements.">
<polygon fill="white" stroke="#666666" points="1371,-223.5 1126,-223.5 1126,-182.5 1371,-182.5 1371,-223.5"/>
<text text-anchor="start" x="1134" y="-211.5" font-family="Helvetica,sans-Serif" font-size="10.00">fiftyone.pipeline.engines.flowelements.</text>
<text text-anchor="start" x="1134" y="-200.5" font-family="Helvetica,sans-Serif" font-size="10.00">AspectEngine&lt; TData extends AspectData,</text>
<text text-anchor="middle" x="1248.5" y="-189.5" font-family="Helvetica,sans-Serif" font-size="10.00"> TProperty extends AspectPropertyMetaData &gt;</text>
</a>
</g>
</g>
<!-- Node6&#45;&gt;Node13 -->
<g id="edge15_Node000013_Node000006" class="edge">
<title>Node6&#45;&gt;Node13</title>
<g id="a_edge15_Node000013_Node000006"><a xlink:title=" ">
<path fill="none" stroke="#63b8ff" d="M1046.31,-211.55C1071.93,-210.46 1099.55,-209.29 1125.88,-208.17"/>
<polygon fill="#63b8ff" stroke="#63b8ff" points="1046.07,-208.05 1036.22,-211.98 1046.36,-215.05 1046.07,-208.05"/>
</a>
</g>
</g>
<!-- Node7 -->
<g id="Node000007" class="node">
<title>Node7</title>
<g id="a_Node000007"><a xlink:href="interfacefiftyone_1_1pipeline_1_1core_1_1flowelements_1_1_flow_element.html" target="_top" xlink:title="A component that processes a FlowData (by examining its evidence, or by examining data processed by o...">
<polygon fill="white" stroke="#666666" points="697,-236.5 444,-236.5 444,-195.5 697,-195.5 697,-236.5"/>
<text text-anchor="start" x="452" y="-224.5" font-family="Helvetica,sans-Serif" font-size="10.00">fiftyone.pipeline.core.flowelements.</text>
<text text-anchor="start" x="452" y="-213.5" font-family="Helvetica,sans-Serif" font-size="10.00">FlowElement&lt; TData extends ElementData,</text>
<text text-anchor="middle" x="570.5" y="-202.5" font-family="Helvetica,sans-Serif" font-size="10.00"> TProperty extends ElementPropertyMetaData &gt;</text>
</a>
</g>
</g>
<!-- Node7&#45;&gt;Node6 -->
<g id="edge6_Node000006_Node000007" class="edge">
<title>Node7&#45;&gt;Node6</title>
<g id="a_edge6_Node000006_Node000007"><a xlink:title=" ">
<path fill="none" stroke="orange" stroke-dasharray="5,2" d="M707.12,-216C752.92,-216 803.03,-216 844.95,-216"/>
<polygon fill="orange" stroke="orange" points="707.12,-212.5 697.12,-216 707.12,-219.5 707.12,-212.5"/>
</a>
</g>
<text text-anchor="start" x="718" y="-221.5" font-family="Helvetica,sans-Serif" font-size="10.00" fill="grey">&lt; TData, TProperty &gt;</text>
</g>
<!-- Node8 -->
<g id="Node000008" class="node">
<title>Node8</title>
<g id="a_Node000008"><a xlink:title=" ">
<polygon fill="white" stroke="#bfbfbf" points="324,-151.5 237,-151.5 237,-132.5 324,-132.5 324,-151.5"/>
<text text-anchor="middle" x="280.5" y="-139.5" font-family="Helvetica,sans-Serif" font-size="10.00">AutoCloseable</text>
</a>
</g>
</g>
<!-- Node8&#45;&gt;Node7 -->
<g id="edge7_Node000007_Node000008" class="edge">
<title>Node8&#45;&gt;Node7</title>
<g id="a_edge7_Node000007_Node000008"><a xlink:title=" ">
<path fill="none" stroke="#63b8ff" d="M328.32,-154.03C371.9,-165.23 437.73,-182.14 489.61,-195.47"/>
<polygon fill="#63b8ff" stroke="#63b8ff" points="329.12,-150.62 318.56,-151.52 327.38,-157.4 329.12,-150.62"/>
</a>
</g>
</g>
<!-- Node9 -->
<g id="Node000009" class="node">
<title>Node9</title>
<g id="a_Node000009"><a xlink:href="interfacefiftyone_1_1pipeline_1_1core_1_1data_1_1_element_data.html" target="_top" xlink:title="Represents property values that have be determined by a specific FlowElement based on the supplied ev...">
<polygon fill="white" stroke="#666666" points="354,-223 207,-223 207,-193 354,-193 354,-223"/>
<text text-anchor="start" x="215" y="-211" font-family="Helvetica,sans-Serif" font-size="10.00">fiftyone.pipeline.core.data.</text>
<text text-anchor="middle" x="280.5" y="-200" font-family="Helvetica,sans-Serif" font-size="10.00">ElementData</text>
</a>
</g>
</g>
<!-- Node9&#45;&gt;Node5 -->
<g id="edge11_Node000005_Node000009" class="edge">
<title>Node9&#45;&gt;Node5</title>
<g id="a_edge11_Node000005_Node000009"><a xlink:title=" ">
<path fill="none" stroke="orange" stroke-dasharray="5,2" d="M306.59,-229.49C323.77,-242.78 347.75,-258.65 372,-266 662.11,-354 750.85,-276.11 1054,-279 1078,-279.23 1084.01,-279.69 1108,-279 1122.55,-278.58 1137.94,-277.92 1152.98,-277.15"/>
<polygon fill="orange" stroke="orange" points="308.73,-226.73 298.73,-223.23 304.37,-232.2 308.73,-226.73"/>
</a>
</g>
<text text-anchor="start" x="756" y="-308.5" font-family="Helvetica,sans-Serif" font-size="10.00" fill="grey">TData</text>
</g>
<!-- Node9&#45;&gt;Node7 -->
<g id="edge8_Node000007_Node000009" class="edge">
<title>Node9&#45;&gt;Node7</title>
<g id="a_edge8_Node000007_Node000009"><a xlink:title=" ">
<path fill="none" stroke="orange" stroke-dasharray="5,2" d="M364.37,-207.98C384.54,-208.14 406.05,-208.44 426,-209 431.86,-209.16 437.85,-209.36 443.9,-209.57"/>
<polygon fill="orange" stroke="orange" points="364.3,-204.48 354.28,-207.91 364.26,-211.48 364.3,-204.48"/>
</a>
</g>
<text text-anchor="start" x="384" y="-214.5" font-family="Helvetica,sans-Serif" font-size="10.00" fill="grey">TData</text>
</g>
<!-- Node14 -->
<g id="Node000014" class="node">
<title>Node14</title>
<g id="a_Node000014"><a xlink:href="interfacefiftyone_1_1pipeline_1_1engines_1_1data_1_1_aspect_data.html" target="_top" xlink:title="Represents a specialized ElementData instance that is generated by an AspectEngine.">
<polygon fill="white" stroke="#666666" points="1022.5,-128 858.5,-128 858.5,-98 1022.5,-98 1022.5,-128"/>
<text text-anchor="start" x="866.5" y="-116" font-family="Helvetica,sans-Serif" font-size="10.00">fiftyone.pipeline.engines.data.</text>
<text text-anchor="middle" x="940.5" y="-105" font-family="Helvetica,sans-Serif" font-size="10.00">AspectData</text>
</a>
</g>
</g>
<!-- Node9&#45;&gt;Node14 -->
<g id="edge17_Node000014_Node000009" class="edge">
<title>Node9&#45;&gt;Node14</title>
<g id="a_edge17_Node000014_Node000009"><a xlink:title=" ">
<path fill="none" stroke="#63b8ff" d="M364.17,-196.06C491.11,-177.74 732.51,-142.89 858.45,-124.7"/>
<polygon fill="#63b8ff" stroke="#63b8ff" points="363.51,-192.62 354.12,-197.52 364.51,-199.55 363.51,-192.62"/>
</a>
</g>
</g>
<!-- Node10 -->
<g id="Node000010" class="node">
<title>Node10</title>
<g id="a_Node000010"><a xlink:href="interfacefiftyone_1_1pipeline_1_1core_1_1data_1_1_data.html" target="_top" xlink:title="Represents a collection of property values.">
<polygon fill="white" stroke="#666666" points="170,-217.5 0,-217.5 0,-198.5 170,-198.5 170,-217.5"/>
<text text-anchor="middle" x="85" y="-205.5" font-family="Helvetica,sans-Serif" font-size="10.00">fiftyone.pipeline.core.data.Data</text>
</a>
</g>
</g>
<!-- Node10&#45;&gt;Node9 -->
<g id="edge9_Node000009_Node000010" class="edge">
<title>Node10&#45;&gt;Node9</title>
<g id="a_edge9_Node000009_Node000010"><a xlink:title=" ">
<path fill="none" stroke="#63b8ff" d="M180.11,-208C189.07,-208 198.06,-208 206.77,-208"/>
<polygon fill="#63b8ff" stroke="#63b8ff" points="180.03,-204.5 170.03,-208 180.03,-211.5 180.03,-204.5"/>
</a>
</g>
</g>
<!-- Node11 -->
<g id="Node000011" class="node">
<title>Node11</title>
<g id="a_Node000011"><a xlink:href="interfacefiftyone_1_1pipeline_1_1core_1_1data_1_1_element_property_meta_data.html" target="_top" xlink:title="Defines details of a property that can be returned by a FlowElement.">
<polygon fill="white" stroke="#666666" points="354,-335 207,-335 207,-305 354,-305 354,-335"/>
<text text-anchor="start" x="215" y="-323" font-family="Helvetica,sans-Serif" font-size="10.00">fiftyone.pipeline.core.data.</text>
<text text-anchor="middle" x="280.5" y="-312" font-family="Helvetica,sans-Serif" font-size="10.00">ElementPropertyMetaData</text>
</a>
</g>
</g>
<!-- Node11&#45;&gt;Node5 -->
<g id="edge12_Node000005_Node000011" class="edge">
<title>Node11&#45;&gt;Node5</title>
<g id="a_edge12_Node000005_Node000011"><a xlink:title=" ">
<path fill="none" stroke="orange" stroke-dasharray="5,2" d="M364.01,-324.18C513.21,-330.46 837.46,-338.22 1108,-304 1122.57,-302.16 1137.83,-299.41 1152.69,-296.28"/>
<polygon fill="orange" stroke="orange" points="364.15,-320.68 354.01,-323.75 363.85,-327.68 364.15,-320.68"/>
</a>
</g>
<text text-anchor="start" x="747" y="-333.5" font-family="Helvetica,sans-Serif" font-size="10.00" fill="grey">TProperty</text>
</g>
<!-- Node11&#45;&gt;Node7 -->
<g id="edge10_Node000007_Node000011" class="edge">
<title>Node11&#45;&gt;Node7</title>
<g id="a_edge10_Node000007_Node000011"><a xlink:title=" ">
<path fill="none" stroke="orange" stroke-dasharray="5,2" d="M332.48,-301.59C382.96,-283.36 460.1,-255.51 512.56,-236.56"/>
<polygon fill="orange" stroke="orange" points="331.29,-298.3 323.07,-304.99 333.66,-304.88 331.29,-298.3"/>
</a>
</g>
<text text-anchor="start" x="375" y="-292.5" font-family="Helvetica,sans-Serif" font-size="10.00" fill="grey">TProperty</text>
</g>
<!-- Node15 -->
<g id="Node000015" class="node">
<title>Node15</title>
<g id="a_Node000015"><a xlink:href="interfacefiftyone_1_1pipeline_1_1engines_1_1data_1_1_aspect_property_meta_data.html" target="_top" xlink:title="Holds details about a property that can be returned by an AspectEngine.">
<polygon fill="white" stroke="#666666" points="1022.5,-381 858.5,-381 858.5,-351 1022.5,-351 1022.5,-381"/>
<text text-anchor="start" x="866.5" y="-369" font-family="Helvetica,sans-Serif" font-size="10.00">fiftyone.pipeline.engines.data.</text>
<text text-anchor="middle" x="940.5" y="-358" font-family="Helvetica,sans-Serif" font-size="10.00">AspectPropertyMetaData</text>
</a>
</g>
</g>
<!-- Node11&#45;&gt;Node15 -->
<g id="edge19_Node000015_Node000011" class="edge">
<title>Node11&#45;&gt;Node15</title>
<g id="a_edge19_Node000015_Node000011"><a xlink:title=" ">
<path fill="none" stroke="#63b8ff" d="M364.22,-333.13C366.84,-333.44 369.44,-333.73 372,-334 544.72,-352.19 748.18,-360.49 858.48,-363.91"/>
<polygon fill="#63b8ff" stroke="#63b8ff" points="364.39,-329.62 354.03,-331.85 363.52,-336.57 364.39,-329.62"/>
</a>
</g>
</g>
<!-- Node12 -->
<g id="Node000012" class="node">
<title>Node12</title>
<g id="a_Node000012"><a xlink:href="interfacefiftyone_1_1pipeline_1_1engines_1_1flowelements_1_1_aspect_engine.html" target="_top" xlink:title=" ">
<polygon fill="white" stroke="#666666" points="1728,-218 1519,-218 1519,-188 1728,-188 1728,-218"/>
<text text-anchor="start" x="1527" y="-206" font-family="Helvetica,sans-Serif" font-size="10.00">fiftyone.pipeline.engines.flowelements.</text>
<text text-anchor="middle" x="1623.5" y="-195" font-family="Helvetica,sans-Serif" font-size="10.00">AspectEngine&lt; TData, TProperty &gt;</text>
</a>
</g>
</g>
<!-- Node12&#45;&gt;Node4 -->
<g id="edge13_Node000004_Node000012" class="edge">
<title>Node12&#45;&gt;Node4</title>
<g id="a_edge13_Node000004_Node000012"><a xlink:title=" ">
<path fill="none" stroke="#63b8ff" d="M1738.32,-216.31C1764.13,-219.32 1791.66,-222.54 1817.85,-225.6"/>
<polygon fill="#63b8ff" stroke="#63b8ff" points="1738.47,-212.8 1728.13,-215.12 1737.66,-219.75 1738.47,-212.8"/>
</a>
</g>
</g>
<!-- Node17 -->
<g id="Node000017" class="node">
<title>Node17</title>
<g id="a_Node000017"><a xlink:href="interfacefiftyone_1_1pipeline_1_1engines_1_1flowelements_1_1_on_premise_aspect_engine.html" target="_top" xlink:title="Aspect engine interface which processes data internally using a data file and populates the results.">
<polygon fill="white" stroke="#666666" points="2066,-158 1818,-158 1818,-106 2066,-106 2066,-158"/>
<text text-anchor="start" x="1826" y="-146" font-family="Helvetica,sans-Serif" font-size="10.00">fiftyone.pipeline.engines.flowelements.</text>
<text text-anchor="start" x="1826" y="-135" font-family="Helvetica,sans-Serif" font-size="10.00">OnPremiseAspectEngine&lt; TData extends</text>
<text text-anchor="start" x="1826" y="-124" font-family="Helvetica,sans-Serif" font-size="10.00"> AspectData, TProperty extends AspectProperty</text>
<text text-anchor="middle" x="1942" y="-113" font-family="Helvetica,sans-Serif" font-size="10.00">MetaData &gt;</text>
</a>
</g>
</g>
<!-- Node12&#45;&gt;Node17 -->
<g id="edge24_Node000017_Node000012" class="edge">
<title>Node12&#45;&gt;Node17</title>
<g id="a_edge24_Node000017_Node000012"><a xlink:title=" ">
<path fill="none" stroke="#63b8ff" d="M1701.84,-185.65C1738.88,-177.34 1784.01,-167.22 1825.05,-158.01"/>
<polygon fill="#63b8ff" stroke="#63b8ff" points="1700.61,-182.34 1691.62,-187.94 1702.15,-189.17 1700.61,-182.34"/>
</a>
</g>
</g>
<!-- Node13&#45;&gt;Node12 -->
<g id="edge14_Node000012_Node000013" class="edge">
<title>Node13&#45;&gt;Node12</title>
<g id="a_edge14_Node000012_Node000013"><a xlink:title=" ">
<path fill="none" stroke="orange" stroke-dasharray="5,2" d="M1381.28,-203C1426.43,-203 1476.27,-203 1518.87,-203"/>
<polygon fill="orange" stroke="orange" points="1381.12,-199.5 1371.12,-203 1381.12,-206.5 1381.12,-199.5"/>
</a>
</g>
<text text-anchor="start" x="1392" y="-208.5" font-family="Helvetica,sans-Serif" font-size="10.00" fill="grey">&lt; TData, TProperty &gt;</text>
</g>
<!-- Node14&#45;&gt;Node1 -->
<g id="edge36_Node000001_Node000014" class="edge">
<title>Node14&#45;&gt;Node1</title>
<g id="a_edge36_Node000001_Node000014"><a xlink:title=" ">
<path fill="none" stroke="orange" stroke-dasharray="5,2" d="M970.23,-92.14C992.2,-77.07 1023.76,-57.29 1054,-45 1135.8,-11.75 1159.21,0 1247.5,0 1247.5,0 1247.5,0 3078,0 3182.11,0 3285.53,-79.93 3333.42,-122.7"/>
<polygon fill="orange" stroke="orange" points="968.22,-89.27 962.01,-97.86 972.22,-95.02 968.22,-89.27"/>
</a>
</g>
<text text-anchor="start" x="2125" y="-5.5" font-family="Helvetica,sans-Serif" font-size="10.00" fill="grey">TData</text>
</g>
<!-- Node14&#45;&gt;Node2 -->
<g id="edge27_Node000002_Node000014" class="edge">
<title>Node14&#45;&gt;Node2</title>
<g id="a_edge27_Node000002_Node000014"><a xlink:title=" ">
<path fill="none" stroke="orange" stroke-dasharray="5,2" d="M1032.87,-105.12C1314.26,-81.99 2164.47,-20.83 2426,-102 2435.18,-104.85 2435.55,-109.41 2444,-114 2491.44,-139.78 2547.5,-163.78 2590.55,-180.95"/>
<polygon fill="orange" stroke="orange" points="1032.38,-101.65 1022.7,-105.96 1032.96,-108.63 1032.38,-101.65"/>
</a>
</g>
<text text-anchor="start" x="1758" y="-70.5" font-family="Helvetica,sans-Serif" font-size="10.00" fill="grey">TData</text>
</g>
<!-- Node14&#45;&gt;Node4 -->
<g id="edge20_Node000004_Node000014" class="edge">
<title>Node14&#45;&gt;Node4</title>
<g id="a_edge20_Node000004_Node000014"><a xlink:title=" ">
<path fill="none" stroke="orange" stroke-dasharray="5,2" d="M1033.01,-122.07C1040.11,-122.74 1047.17,-123.39 1054,-124 1353.35,-150.85 1432.31,-125.14 1728,-179 1734.55,-180.19 1796.36,-197.95 1851.72,-214"/>
<polygon fill="orange" stroke="orange" points="1032.88,-118.54 1022.6,-121.09 1032.22,-125.51 1032.88,-118.54"/>
</a>
</g>
<text text-anchor="start" x="1430" y="-153.5" font-family="Helvetica,sans-Serif" font-size="10.00" fill="grey">TData</text>
</g>
<!-- Node14&#45;&gt;Node13 -->
<g id="edge16_Node000013_Node000014" class="edge">
<title>Node14&#45;&gt;Node13</title>
<g id="a_edge16_Node000013_Node000014"><a xlink:title=" ">
<path fill="none" stroke="orange" stroke-dasharray="5,2" d="M996.67,-131.11C1014.88,-136.97 1035.27,-143.39 1054,-149 1092.59,-160.55 1135.75,-172.68 1171.49,-182.5"/>
<polygon fill="orange" stroke="orange" points="997.68,-127.76 987.08,-128.02 995.53,-134.42 997.68,-127.76"/>
</a>
</g>
<text text-anchor="start" x="1066" y="-170.5" font-family="Helvetica,sans-Serif" font-size="10.00" fill="grey">TData</text>
</g>
<!-- Node14&#45;&gt;Node17 -->
<g id="edge25_Node000017_Node000014" class="edge">
<title>Node14&#45;&gt;Node17</title>
<g id="a_edge25_Node000017_Node000014"><a xlink:title=" ">
<path fill="none" stroke="orange" stroke-dasharray="5,2" d="M1032.72,-112.35C1143.47,-111.78 1335.96,-111.52 1501,-115 1608,-117.26 1729.56,-122.13 1817.76,-126.08"/>
<polygon fill="orange" stroke="orange" points="1032.57,-108.85 1022.58,-112.4 1032.6,-115.85 1032.57,-108.85"/>
</a>
</g>
<text text-anchor="start" x="1430" y="-120.5" font-family="Helvetica,sans-Serif" font-size="10.00" fill="grey">TData</text>
</g>
<!-- Node19 -->
<g id="Node000019" class="node">
<title>Node19</title>
<g id="a_Node000019"><a xlink:href="interfacefiftyone_1_1pipeline_1_1engines_1_1fiftyone_1_1flowelements_1_1_fifty_one_aspect_engine.html" target="_top" xlink:title="51Degrees specific Engine interface.">
<polygon fill="white" stroke="#666666" points="2805,-105 2516,-105 2516,-53 2805,-53 2805,-105"/>
<text text-anchor="start" x="2524" y="-93" font-family="Helvetica,sans-Serif" font-size="10.00">fiftyone.pipeline.engines.fiftyone.flowelements.</text>
<text text-anchor="start" x="2524" y="-82" font-family="Helvetica,sans-Serif" font-size="10.00">FiftyOneAspectEngine&lt; TData extends</text>
<text text-anchor="start" x="2524" y="-71" font-family="Helvetica,sans-Serif" font-size="10.00"> AspectData, TProperty extends FiftyOneAspectProperty</text>
<text text-anchor="middle" x="2660.5" y="-60" font-family="Helvetica,sans-Serif" font-size="10.00">MetaData &gt;</text>
</a>
</g>
</g>
<!-- Node14&#45;&gt;Node19 -->
<g id="edge32_Node000019_Node000014" class="edge">
<title>Node14&#45;&gt;Node19</title>
<g id="a_edge32_Node000019_Node000014"><a xlink:title=" ">
<path fill="none" stroke="orange" stroke-dasharray="5,2" d="M977.91,-93.09C999.43,-82.2 1027.57,-69.44 1054,-62 1137.41,-38.51 1160.84,-38 1247.5,-38 1247.5,-38 1247.5,-38 2321,-38 2385.23,-38 2455.82,-45.36 2515.84,-53.85"/>
<polygon fill="orange" stroke="orange" points="976.1,-90.09 968.81,-97.78 979.31,-96.31 976.1,-90.09"/>
</a>
</g>
<text text-anchor="start" x="1758" y="-43.5" font-family="Helvetica,sans-Serif" font-size="10.00" fill="grey">TData</text>
</g>
<!-- Node15&#45;&gt;Node2 -->
<g id="edge28_Node000002_Node000015" class="edge">
<title>Node15&#45;&gt;Node2</title>
<g id="a_edge28_Node000002_Node000015"><a xlink:title=" ">
<path fill="none" stroke="orange" stroke-dasharray="5,2" d="M985.91,-384.76C1044.66,-407.84 1151.94,-444 1247.5,-444 1247.5,-444 1247.5,-444 2321,-444 2466.63,-444 2594.15,-294.97 2640.71,-233.27"/>
<polygon fill="orange" stroke="orange" points="987.15,-381.49 976.56,-381.04 984.56,-387.99 987.15,-381.49"/>
</a>
</g>
<text text-anchor="start" x="1749" y="-449.5" font-family="Helvetica,sans-Serif" font-size="10.00" fill="grey">TProperty</text>
</g>
<!-- Node15&#45;&gt;Node4 -->
<g id="edge21_Node000004_Node000015" class="edge">
<title>Node15&#45;&gt;Node4</title>
<g id="a_edge21_Node000004_Node000015"><a xlink:title=" ">
<path fill="none" stroke="orange" stroke-dasharray="5,2" d="M1032.83,-366.48C1239.16,-367.14 1728.97,-366.1 1800,-342 1845.49,-326.57 1888.87,-290.96 1915.2,-266.19"/>
<polygon fill="orange" stroke="orange" points="1032.63,-362.98 1022.62,-366.45 1032.61,-369.98 1032.63,-362.98"/>
</a>
</g>
<text text-anchor="start" x="1421" y="-369.5" font-family="Helvetica,sans-Serif" font-size="10.00" fill="grey">TProperty</text>
</g>
<!-- Node15&#45;&gt;Node13 -->
<g id="edge18_Node000013_Node000015" class="edge">
<title>Node15&#45;&gt;Node13</title>
<g id="a_edge18_Node000013_Node000015"><a xlink:title=" ">
<path fill="none" stroke="orange" stroke-dasharray="5,2" d="M966.5,-344.03C1000.4,-315.3 1063.89,-265.2 1126,-236 1135.99,-231.3 1146.77,-227.18 1157.63,-223.57"/>
<polygon fill="orange" stroke="orange" points="963.85,-341.69 958.53,-350.85 968.4,-347 963.85,-341.69"/>
</a>
</g>
<text text-anchor="start" x="1057" y="-282.5" font-family="Helvetica,sans-Serif" font-size="10.00" fill="grey">TProperty</text>
</g>
<!-- Node15&#45;&gt;Node17 -->
<g id="edge26_Node000017_Node000015" class="edge">
<title>Node15&#45;&gt;Node17</title>
<g id="a_edge26_Node000017_Node000015"><a xlink:title=" ">
<path fill="none" stroke="orange" stroke-dasharray="5,2" d="M1032.64,-361.82C1182.61,-352.35 1488.65,-322.07 1728,-227 1762.64,-213.24 1770.27,-206.49 1800,-184 1808.78,-177.36 1808.43,-172.44 1818,-167 1823.69,-163.76 1829.71,-160.81 1835.89,-158.11"/>
<polygon fill="orange" stroke="orange" points="1032.32,-358.33 1022.55,-362.44 1032.75,-365.32 1032.32,-358.33"/>
</a>
</g>
<text text-anchor="start" x="1421" y="-322.5" font-family="Helvetica,sans-Serif" font-size="10.00" fill="grey">TProperty</text>
</g>
<!-- Node20 -->
<g id="Node000020" class="node">
<title>Node20</title>
<g id="a_Node000020"><a xlink:href="interfacefiftyone_1_1pipeline_1_1engines_1_1fiftyone_1_1data_1_1_fifty_one_aspect_property_meta_data.html" target="_top" xlink:title="51Degrees specific meta data.">
<polygon fill="white" stroke="#666666" points="2422,-201 2218,-201 2218,-171 2422,-171 2422,-201"/>
<text text-anchor="start" x="2226" y="-189" font-family="Helvetica,sans-Serif" font-size="10.00">fiftyone.pipeline.engines.fiftyone.data.</text>
<text text-anchor="middle" x="2320" y="-178" font-family="Helvetica,sans-Serif" font-size="10.00">FiftyOneAspectPropertyMetaData</text>
</a>
</g>
</g>
<!-- Node15&#45;&gt;Node20 -->
<g id="edge34_Node000020_Node000015" class="edge">
<title>Node15&#45;&gt;Node20</title>
<g id="a_edge34_Node000020_Node000015"><a xlink:title=" ">
<path fill="none" stroke="#63b8ff" d="M1024.74,-382.82C1086.06,-393.76 1171.63,-406 1247.5,-406 1247.5,-406 1247.5,-406 1943,-406 2072.82,-406 2111.71,-358.74 2196,-260 2210.52,-242.99 2197.31,-227.89 2214,-213 2219.34,-208.24 2225.4,-204.3 2231.87,-201.03"/>
<polygon fill="#63b8ff" stroke="#63b8ff" points="1025.19,-379.35 1014.73,-381.01 1023.94,-386.23 1025.19,-379.35"/>
</a>
</g>
</g>
<!-- Node16 -->
<g id="Node000016" class="node">
<title>Node16</title>
<g id="a_Node000016"><a xlink:href="interfacefiftyone_1_1pipeline_1_1engines_1_1flowelements_1_1_on_premise_aspect_engine.html" target="_top" xlink:title=" ">
<polygon fill="white" stroke="#666666" points="2424.5,-152.5 2215.5,-152.5 2215.5,-111.5 2424.5,-111.5 2424.5,-152.5"/>
<text text-anchor="start" x="2223.5" y="-140.5" font-family="Helvetica,sans-Serif" font-size="10.00">fiftyone.pipeline.engines.flowelements.</text>
<text text-anchor="start" x="2223.5" y="-129.5" font-family="Helvetica,sans-Serif" font-size="10.00">OnPremiseAspectEngine&lt; TData,</text>
<text text-anchor="middle" x="2320" y="-118.5" font-family="Helvetica,sans-Serif" font-size="10.00"> TProperty &gt;</text>
</a>
</g>
</g>
<!-- Node16&#45;&gt;Node2 -->
<g id="edge22_Node000002_Node000016" class="edge">
<title>Node16&#45;&gt;Node2</title>
<g id="a_edge22_Node000002_Node000016"><a xlink:title=" ">
<path fill="none" stroke="#63b8ff" d="M2423.73,-154.76C2464.95,-163.89 2512.42,-174.41 2553.92,-183.61"/>
<polygon fill="#63b8ff" stroke="#63b8ff" points="2424.46,-151.34 2413.94,-152.59 2422.95,-158.17 2424.46,-151.34"/>
</a>
</g>
</g>
<!-- Node16&#45;&gt;Node19 -->
<g id="edge31_Node000019_Node000016" class="edge">
<title>Node16&#45;&gt;Node19</title>
<g id="a_edge31_Node000019_Node000016"><a xlink:title=" ">
<path fill="none" stroke="#63b8ff" d="M2365.28,-106.75C2388.03,-95.21 2416.66,-82.84 2444,-77 2466.96,-72.1 2491.61,-69.72 2515.75,-68.93"/>
<polygon fill="#63b8ff" stroke="#63b8ff" points="2363.49,-103.73 2356.23,-111.45 2366.72,-109.95 2363.49,-103.73"/>
</a>
</g>
</g>
<!-- Node17&#45;&gt;Node16 -->
<g id="edge23_Node000016_Node000017" class="edge">
<title>Node17&#45;&gt;Node16</title>
<g id="a_edge23_Node000016_Node000017"><a xlink:title=" ">
<path fill="none" stroke="orange" stroke-dasharray="5,2" d="M2076.4,-132C2122.08,-132 2172.47,-132 2215.44,-132"/>
<polygon fill="orange" stroke="orange" points="2076.12,-128.5 2066.12,-132 2076.12,-135.5 2076.12,-128.5"/>
</a>
</g>
<text text-anchor="start" x="2087" y="-137.5" font-family="Helvetica,sans-Serif" font-size="10.00" fill="grey">&lt; TData, TProperty &gt;</text>
</g>
<!-- Node18 -->
<g id="Node000018" class="node">
<title>Node18</title>
<g id="a_Node000018"><a xlink:href="interfacefiftyone_1_1pipeline_1_1engines_1_1fiftyone_1_1flowelements_1_1_fifty_one_aspect_engine.html" target="_top" xlink:title=" ">
<polygon fill="white" stroke="#666666" points="3201,-115 2953,-115 2953,-85 3201,-85 3201,-115"/>
<text text-anchor="start" x="2961" y="-103" font-family="Helvetica,sans-Serif" font-size="10.00">fiftyone.pipeline.engines.fiftyone.flowelements.</text>
<text text-anchor="middle" x="3077" y="-92" font-family="Helvetica,sans-Serif" font-size="10.00">FiftyOneAspectEngine&lt; TData, TProperty &gt;</text>
</a>
</g>
</g>
<!-- Node18&#45;&gt;Node1 -->
<g id="edge29_Node000001_Node000018" class="edge">
<title>Node18&#45;&gt;Node1</title>
<g id="a_edge29_Node000001_Node000018"><a xlink:title=" ">
<path fill="none" stroke="#63b8ff" d="M3174.69,-116.74C3195.02,-120.26 3216.73,-124.02 3237.88,-127.68"/>
<polygon fill="#63b8ff" stroke="#63b8ff" points="3175.28,-113.29 3164.83,-115.03 3174.09,-120.19 3175.28,-113.29"/>
</a>
</g>
</g>
<!-- Node19&#45;&gt;Node18 -->
<g id="edge30_Node000018_Node000019" class="edge">
<title>Node19&#45;&gt;Node18</title>
<g id="a_edge30_Node000018_Node000019"><a xlink:title=" ">
<path fill="none" stroke="orange" stroke-dasharray="5,2" d="M2815.25,-86.79C2860.66,-89.09 2909.75,-91.58 2952.95,-93.77"/>
<polygon fill="orange" stroke="orange" points="2815.18,-83.28 2805.02,-86.27 2814.83,-90.27 2815.18,-83.28"/>
</a>
</g>
<text text-anchor="start" x="2826" y="-98.5" font-family="Helvetica,sans-Serif" font-size="10.00" fill="grey">&lt; TData, TProperty &gt;</text>
</g>
<!-- Node20&#45;&gt;Node1 -->
<g id="edge37_Node000001_Node000020" class="edge">
<title>Node20&#45;&gt;Node1</title>
<g id="a_edge37_Node000001_Node000020"><a xlink:title=" ">
<path fill="none" stroke="orange" stroke-dasharray="5,2" d="M2432.16,-177.16C2459.55,-175.22 2488.83,-173.34 2516,-172 2772.51,-159.31 3073.19,-153.22 3237.79,-150.64"/>
<polygon fill="orange" stroke="orange" points="2431.88,-173.67 2422.16,-177.88 2432.38,-180.65 2431.88,-173.67"/>
</a>
</g>
<text text-anchor="start" x="2855" y="-166.5" font-family="Helvetica,sans-Serif" font-size="10.00" fill="grey">TProperty</text>
</g>
<!-- Node20&#45;&gt;Node19 -->
<g id="edge33_Node000019_Node000020" class="edge">
<title>Node20&#45;&gt;Node19</title>
<g id="a_edge33_Node000019_Node000020"><a xlink:title=" ">
<path fill="none" stroke="orange" stroke-dasharray="5,2" d="M2419.55,-165.74C2421.78,-164.27 2423.94,-162.69 2426,-161 2440.77,-148.91 2429.01,-133.82 2444,-122 2464.75,-105.64 2490.04,-94.99 2515.9,-88.15"/>
<polygon fill="orange" stroke="orange" points="2417.48,-162.89 2410.58,-170.93 2420.99,-168.95 2417.48,-162.89"/>
</a>
</g>
<text text-anchor="start" x="2447" y="-127.5" font-family="Helvetica,sans-Serif" font-size="10.00" fill="grey">TProperty</text>
</g>
<!-- Node21 -->
<g id="Node000021" class="node">
<title>Node21</title>
<g id="a_Node000021"><a xlink:title=" ">
<polygon fill="white" stroke="#bfbfbf" points="1974.5,-195.5 1909.5,-195.5 1909.5,-176.5 1974.5,-176.5 1974.5,-195.5"/>
<text text-anchor="middle" x="1942" y="-183.5" font-family="Helvetica,sans-Serif" font-size="10.00">Closeable</text>
</a>
</g>
</g>
<!-- Node21&#45;&gt;Node20 -->
<g id="edge35_Node000020_Node000021" class="edge">
<title>Node21&#45;&gt;Node20</title>
<g id="a_edge35_Node000020_Node000021"><a xlink:title=" ">
<path fill="none" stroke="#63b8ff" d="M1984.96,-186C2040.83,-186 2141.46,-186 2217.72,-186"/>
<polygon fill="#63b8ff" stroke="#63b8ff" points="1984.73,-182.5 1974.73,-186 1984.73,-189.5 1984.73,-182.5"/>
</a>
</g>
</g>
</g>
</svg>
