<?xml version="1.0" encoding="UTF-8" standalone="no"?>
<!DOCTYPE svg PUBLIC "-//W3C//DTD SVG 1.1//EN"
 "http://www.w3.org/Graphics/SVG/1.1/DTD/svg11.dtd">
<!-- Generated by graphviz version 2.43.0 (0)
 -->
<!-- Title: fiftyone.pipeline.engines.data.ProcessCallable Pages: 1 -->
<svg width="1850pt" height="159pt"
 viewBox="0.00 0.00 1850.00 159.00" xmlns="http://www.w3.org/2000/svg" xmlns:xlink="http://www.w3.org/1999/xlink">
<g id="graph0" class="graph" transform="scale(1 1) rotate(0) translate(4 155)">
<title>fiftyone.pipeline.engines.data.ProcessCallable</title>
<!-- Node1 -->
<g id="Node000001" class="node">
<title>Node1</title>
<g id="a_Node000001"><a xlink:title="A Callable implementation which stores an AspectEngine to be used by the Callable#call() method.">
<polygon fill="#999999" stroke="#666666" points="1842,-116 1678,-116 1678,-86 1842,-86 1842,-116"/>
<text text-anchor="start" x="1686" y="-104" font-family="Helvetica,sans-Serif" font-size="10.00">fiftyone.pipeline.engines.data.</text>
<text text-anchor="middle" x="1760" y="-93" font-family="Helvetica,sans-Serif" font-size="10.00">ProcessCallable</text>
</a>
</g>
</g>
<!-- Node2 -->
<g id="Node000002" class="node">
<title>Node2</title>
<g id="a_Node000002"><a xlink:title=" ">
<polygon fill="white" stroke="#bfbfbf" points="1497,-137.5 1397,-137.5 1397,-118.5 1497,-118.5 1497,-137.5"/>
<text text-anchor="middle" x="1447" y="-125.5" font-family="Helvetica,sans-Serif" font-size="10.00">Callable&lt; Void &gt;</text>
</a>
</g>
</g>
<!-- Node2&#45;&gt;Node1 -->
<g id="edge1_Node000001_Node000002" class="edge">
<title>Node2&#45;&gt;Node1</title>
<g id="a_edge1_Node000001_Node000002"><a xlink:title=" ">
<path fill="none" stroke="#63b8ff" d="M1507.27,-122.85C1555.61,-118.66 1624.4,-112.69 1677.85,-108.04"/>
<polygon fill="#63b8ff" stroke="#63b8ff" points="1506.94,-119.37 1497.28,-123.72 1507.54,-126.34 1506.94,-119.37"/>
</a>
</g>
</g>
<!-- Node3 -->
<g id="Node000003" class="node">
<title>Node3</title>
<g id="a_Node000003"><a xlink:href="interfacefiftyone_1_1pipeline_1_1engines_1_1flowelements_1_1_aspect_engine.html" target="_top" xlink:title=" ">
<polygon fill="white" stroke="#666666" points="1602,-100 1292,-100 1292,-48 1602,-48 1602,-100"/>
<text text-anchor="start" x="1300" y="-88" font-family="Helvetica,sans-Serif" font-size="10.00">fiftyone.pipeline.engines.flowelements.</text>
<text text-anchor="start" x="1300" y="-77" font-family="Helvetica,sans-Serif" font-size="10.00">AspectEngine&lt;? extends fiftyone.pipeline.engines.data.</text>
<text text-anchor="start" x="1300" y="-66" font-family="Helvetica,sans-Serif" font-size="10.00">AspectData, ? extends fiftyone.pipeline.engines.data.Aspect</text>
<text text-anchor="middle" x="1447" y="-55" font-family="Helvetica,sans-Serif" font-size="10.00">PropertyMetaData &gt;</text>
</a>
</g>
</g>
<!-- Node3&#45;&gt;Node1 -->
<g id="edge2_Node000001_Node000003" class="edge">
<title>Node3&#45;&gt;Node1</title>
<g id="a_edge2_Node000001_Node000003"><a xlink:title=" ">
<path fill="none" stroke="#9a32cd" stroke-dasharray="5,2" d="M1612.16,-83.79C1628.34,-85.07 1644.5,-86.47 1660,-88 1665.78,-88.57 1671.74,-89.21 1677.74,-89.9"/>
<polygon fill="#9a32cd" stroke="#9a32cd" points="1612.34,-80.29 1602.1,-83 1611.8,-87.27 1612.34,-80.29"/>
</a>
</g>
<text text-anchor="start" x="1623" y="-93.5" font-family="Helvetica,sans-Serif" font-size="10.00" fill="grey">engine</text>
</g>
<!-- Node4 -->
<g id="Node000004" class="node">
<title>Node4</title>
<g id="a_Node000004"><a xlink:href="interfacefiftyone_1_1pipeline_1_1engines_1_1flowelements_1_1_aspect_engine.html" target="_top" xlink:title="AspectEngines are a subset of FlowElements.">
<polygon fill="white" stroke="#666666" points="1032,-94.5 787,-94.5 787,-53.5 1032,-53.5 1032,-94.5"/>
<text text-anchor="start" x="795" y="-82.5" font-family="Helvetica,sans-Serif" font-size="10.00">fiftyone.pipeline.engines.flowelements.</text>
<text text-anchor="start" x="795" y="-71.5" font-family="Helvetica,sans-Serif" font-size="10.00">AspectEngine&lt; TData extends AspectData,</text>
<text text-anchor="middle" x="909.5" y="-60.5" font-family="Helvetica,sans-Serif" font-size="10.00"> TProperty extends AspectPropertyMetaData &gt;</text>
</a>
</g>
</g>
<!-- Node4&#45;&gt;Node3 -->
<g id="edge3_Node000003_Node000004" class="edge">
<title>Node4&#45;&gt;Node3</title>
<g id="a_edge3_Node000003_Node000004"><a xlink:title=" ">
<path fill="none" stroke="orange" stroke-dasharray="5,2" d="M1042.06,-74C1117.59,-74 1212.82,-74 1291.84,-74"/>
<polygon fill="orange" stroke="orange" points="1042.01,-70.5 1032.01,-74 1042.01,-77.5 1042.01,-70.5"/>
</a>
</g>
<text text-anchor="start" x="1053" y="-139.5" font-family="Helvetica,sans-Serif" font-size="10.00" fill="grey">&lt;? extends fiftyone</text>
<text text-anchor="start" x="1053" y="-124.5" font-family="Helvetica,sans-Serif" font-size="10.00" fill="grey">  ::pipeline::engines</text>
<text text-anchor="start" x="1053" y="-109.5" font-family="Helvetica,sans-Serif" font-size="10.00" fill="grey">  ::data::AspectData, </text>
<text text-anchor="start" x="1053" y="-94.5" font-family="Helvetica,sans-Serif" font-size="10.00" fill="grey">  ? extends fiftyone::pipeline</text>
<text text-anchor="start" x="1053" y="-79.5" font-family="Helvetica,sans-Serif" font-size="10.00" fill="grey">  ::engines::data::AspectPropertyMetaData &gt;</text>
</g>
<!-- Node5 -->
<g id="Node000005" class="node">
<title>Node5</title>
<g id="a_Node000005"><a xlink:href="interfacefiftyone_1_1pipeline_1_1core_1_1flowelements_1_1_flow_element.html" target="_top" xlink:title="A component that processes a FlowData (by examining its evidence, or by examining data processed by o...">
<polygon fill="white" stroke="#666666" points="697,-94.5 444,-94.5 444,-53.5 697,-53.5 697,-94.5"/>
<text text-anchor="start" x="452" y="-82.5" font-family="Helvetica,sans-Serif" font-size="10.00">fiftyone.pipeline.core.flowelements.</text>
<text text-anchor="start" x="452" y="-71.5" font-family="Helvetica,sans-Serif" font-size="10.00">FlowElement&lt; TData extends ElementData,</text>
<text text-anchor="middle" x="570.5" y="-60.5" font-family="Helvetica,sans-Serif" font-size="10.00"> TProperty extends ElementPropertyMetaData &gt;</text>
</a>
</g>
</g>
<!-- Node5&#45;&gt;Node4 -->
<g id="edge4_Node000004_Node000005" class="edge">
<title>Node5&#45;&gt;Node4</title>
<g id="a_edge4_Node000004_Node000005"><a xlink:title=" ">
<path fill="none" stroke="#63b8ff" d="M707.47,-74C733.74,-74 761.11,-74 786.88,-74"/>
<polygon fill="#63b8ff" stroke="#63b8ff" points="707.47,-70.5 697.47,-74 707.47,-77.5 707.47,-70.5"/>
</a>
</g>
</g>
<!-- Node6 -->
<g id="Node000006" class="node">
<title>Node6</title>
<g id="a_Node000006"><a xlink:title=" ">
<polygon fill="white" stroke="#bfbfbf" points="324,-83.5 237,-83.5 237,-64.5 324,-64.5 324,-83.5"/>
<text text-anchor="middle" x="280.5" y="-71.5" font-family="Helvetica,sans-Serif" font-size="10.00">AutoCloseable</text>
</a>
</g>
</g>
<!-- Node6&#45;&gt;Node5 -->
<g id="edge5_Node000005_Node000006" class="edge">
<title>Node6&#45;&gt;Node5</title>
<g id="a_edge5_Node000005_Node000006"><a xlink:title=" ">
<path fill="none" stroke="#63b8ff" d="M334.37,-74C365.15,-74 405.37,-74 443.82,-74"/>
<polygon fill="#63b8ff" stroke="#63b8ff" points="334.31,-70.5 324.31,-74 334.31,-77.5 334.31,-70.5"/>
</a>
</g>
</g>
<!-- Node7 -->
<g id="Node000007" class="node">
<title>Node7</title>
<g id="a_Node000007"><a xlink:href="interfacefiftyone_1_1pipeline_1_1core_1_1data_1_1_element_data.html" target="_top" xlink:title="Represents property values that have be determined by a specific FlowElement based on the supplied ev...">
<polygon fill="white" stroke="#666666" points="354,-143 207,-143 207,-113 354,-113 354,-143"/>
<text text-anchor="start" x="215" y="-131" font-family="Helvetica,sans-Serif" font-size="10.00">fiftyone.pipeline.core.data.</text>
<text text-anchor="middle" x="280.5" y="-120" font-family="Helvetica,sans-Serif" font-size="10.00">ElementData</text>
</a>
</g>
</g>
<!-- Node7&#45;&gt;Node5 -->
<g id="edge6_Node000005_Node000007" class="edge">
<title>Node7&#45;&gt;Node5</title>
<g id="a_edge6_Node000005_Node000007"><a xlink:title=" ">
<path fill="none" stroke="orange" stroke-dasharray="5,2" d="M358.31,-110.77C362.94,-109.81 367.53,-108.88 372,-108 395.56,-103.37 420.76,-98.77 445.02,-94.51"/>
<polygon fill="orange" stroke="orange" points="357.21,-107.42 348.15,-112.9 358.65,-114.27 357.21,-107.42"/>
</a>
</g>
<text text-anchor="start" x="384" y="-113.5" font-family="Helvetica,sans-Serif" font-size="10.00" fill="grey">TData</text>
</g>
<!-- Node10 -->
<g id="Node000010" class="node">
<title>Node10</title>
<g id="a_Node000010"><a xlink:href="interfacefiftyone_1_1pipeline_1_1engines_1_1data_1_1_aspect_data.html" target="_top" xlink:title="Represents a specialized ElementData instance that is generated by an AspectEngine.">
<polygon fill="white" stroke="#666666" points="652.5,-148 488.5,-148 488.5,-118 652.5,-118 652.5,-148"/>
<text text-anchor="start" x="496.5" y="-136" font-family="Helvetica,sans-Serif" font-size="10.00">fiftyone.pipeline.engines.data.</text>
<text text-anchor="middle" x="570.5" y="-125" font-family="Helvetica,sans-Serif" font-size="10.00">AspectData</text>
</a>
</g>
</g>
<!-- Node7&#45;&gt;Node10 -->
<g id="edge10_Node000010_Node000007" class="edge">
<title>Node7&#45;&gt;Node10</title>
<g id="a_edge10_Node000010_Node000007"><a xlink:title=" ">
<path fill="none" stroke="#63b8ff" d="M364.44,-129.44C403.42,-130.12 449.73,-130.92 488.47,-131.59"/>
<polygon fill="#63b8ff" stroke="#63b8ff" points="364.23,-125.94 354.17,-129.26 364.11,-132.93 364.23,-125.94"/>
</a>
</g>
</g>
<!-- Node8 -->
<g id="Node000008" class="node">
<title>Node8</title>
<g id="a_Node000008"><a xlink:href="interfacefiftyone_1_1pipeline_1_1core_1_1data_1_1_data.html" target="_top" xlink:title="Represents a collection of property values.">
<polygon fill="white" stroke="#666666" points="170,-137.5 0,-137.5 0,-118.5 170,-118.5 170,-137.5"/>
<text text-anchor="middle" x="85" y="-125.5" font-family="Helvetica,sans-Serif" font-size="10.00">fiftyone.pipeline.core.data.Data</text>
</a>
</g>
</g>
<!-- Node8&#45;&gt;Node7 -->
<g id="edge7_Node000007_Node000008" class="edge">
<title>Node8&#45;&gt;Node7</title>
<g id="a_edge7_Node000007_Node000008"><a xlink:title=" ">
<path fill="none" stroke="#63b8ff" d="M180.11,-128C189.07,-128 198.06,-128 206.77,-128"/>
<polygon fill="#63b8ff" stroke="#63b8ff" points="180.03,-124.5 170.03,-128 180.03,-131.5 180.03,-124.5"/>
</a>
</g>
</g>
<!-- Node9 -->
<g id="Node000009" class="node">
<title>Node9</title>
<g id="a_Node000009"><a xlink:href="interfacefiftyone_1_1pipeline_1_1core_1_1data_1_1_element_property_meta_data.html" target="_top" xlink:title="Defines details of a property that can be returned by a FlowElement.">
<polygon fill="white" stroke="#666666" points="354,-35 207,-35 207,-5 354,-5 354,-35"/>
<text text-anchor="start" x="215" y="-23" font-family="Helvetica,sans-Serif" font-size="10.00">fiftyone.pipeline.core.data.</text>
<text text-anchor="middle" x="280.5" y="-12" font-family="Helvetica,sans-Serif" font-size="10.00">ElementPropertyMetaData</text>
</a>
</g>
</g>
<!-- Node9&#45;&gt;Node5 -->
<g id="edge8_Node000005_Node000009" class="edge">
<title>Node9&#45;&gt;Node5</title>
<g id="a_edge8_Node000005_Node000009"><a xlink:title=" ">
<path fill="none" stroke="orange" stroke-dasharray="5,2" d="M364.13,-35.49C394.02,-41.1 428.24,-47.51 460.07,-53.48"/>
<polygon fill="orange" stroke="orange" points="364.65,-32.03 354.17,-33.63 363.36,-38.91 364.65,-32.03"/>
</a>
</g>
<text text-anchor="start" x="375" y="-52.5" font-family="Helvetica,sans-Serif" font-size="10.00" fill="grey">TProperty</text>
</g>
<!-- Node11 -->
<g id="Node000011" class="node">
<title>Node11</title>
<g id="a_Node000011"><a xlink:href="interfacefiftyone_1_1pipeline_1_1engines_1_1data_1_1_aspect_property_meta_data.html" target="_top" xlink:title="Holds details about a property that can be returned by an AspectEngine.">
<polygon fill="white" stroke="#666666" points="652.5,-30 488.5,-30 488.5,0 652.5,0 652.5,-30"/>
<text text-anchor="start" x="496.5" y="-18" font-family="Helvetica,sans-Serif" font-size="10.00">fiftyone.pipeline.engines.data.</text>
<text text-anchor="middle" x="570.5" y="-7" font-family="Helvetica,sans-Serif" font-size="10.00">AspectPropertyMetaData</text>
</a>
</g>
</g>
<!-- Node9&#45;&gt;Node11 -->
<g id="edge12_Node000011_Node000009" class="edge">
<title>Node9&#45;&gt;Node11</title>
<g id="a_edge12_Node000011_Node000009"><a xlink:title=" ">
<path fill="none" stroke="#63b8ff" d="M364.44,-18.56C403.42,-17.88 449.73,-17.08 488.47,-16.41"/>
<polygon fill="#63b8ff" stroke="#63b8ff" points="364.11,-15.07 354.17,-18.74 364.23,-22.06 364.11,-15.07"/>
</a>
</g>
</g>
<!-- Node10&#45;&gt;Node4 -->
<g id="edge9_Node000004_Node000010" class="edge">
<title>Node10&#45;&gt;Node4</title>
<g id="a_edge9_Node000004_Node000010"><a xlink:title=" ">
<path fill="none" stroke="orange" stroke-dasharray="5,2" d="M662.54,-117.06C702.11,-110.13 748.95,-101.93 791.09,-94.56"/>
<polygon fill="orange" stroke="orange" points="661.9,-113.62 652.65,-118.79 663.1,-120.52 661.9,-113.62"/>
</a>
</g>
<text text-anchor="start" x="727" y="-112.5" font-family="Helvetica,sans-Serif" font-size="10.00" fill="grey">TData</text>
</g>
<!-- Node11&#45;&gt;Node4 -->
<g id="edge11_Node000004_Node000011" class="edge">
<title>Node11&#45;&gt;Node4</title>
<g id="a_edge11_Node000004_Node000011"><a xlink:title=" ">
<path fill="none" stroke="orange" stroke-dasharray="5,2" d="M662.54,-30.94C702.11,-37.87 748.95,-46.07 791.09,-53.44"/>
<polygon fill="orange" stroke="orange" points="663.1,-27.48 652.65,-29.21 661.9,-34.38 663.1,-27.48"/>
</a>
</g>
<text text-anchor="start" x="718" y="-54.5" font-family="Helvetica,sans-Serif" font-size="10.00" fill="grey">TProperty</text>
</g>
</g>
</svg>
