<?xml version="1.0" encoding="UTF-8" standalone="no"?>
<!DOCTYPE svg PUBLIC "-//W3C//DTD SVG 1.1//EN"
 "http://www.w3.org/Graphics/SVG/1.1/DTD/svg11.dtd">
<!-- Generated by graphviz version 2.43.0 (0)
 -->
<!-- Title: fiftyone.pipeline.web.services.UACHServiceCore Pages: 1 -->
<svg width="623pt" height="86pt"
 viewBox="0.00 0.00 623.00 86.00" xmlns="http://www.w3.org/2000/svg" xmlns:xlink="http://www.w3.org/1999/xlink">
<g id="graph0" class="graph" transform="scale(1 1) rotate(0) translate(4 82)">
<title>fiftyone.pipeline.web.services.UACHServiceCore</title>
<!-- Node1 -->
<g id="Node000001" class="node">
<title>Node1</title>
<g id="a_Node000001"><a xlink:title="Service to set HTTP headers in the response.">
<polygon fill="#999999" stroke="#666666" points="165,-54 0,-54 0,-24 165,-24 165,-54"/>
<text text-anchor="start" x="8" y="-42" font-family="Helvetica,sans-Serif" font-size="10.00">fiftyone.pipeline.web.services.</text>
<text text-anchor="middle" x="82.5" y="-31" font-family="Helvetica,sans-Serif" font-size="10.00">UACHServiceCore</text>
</a>
</g>
</g>
<!-- Node2 -->
<g id="Node000002" class="node">
<title>Node2</title>
<g id="a_Node000002"><a xlink:href="interfacefiftyone_1_1pipeline_1_1web_1_1mvc_1_1services_1_1_u_a_c_h_service.html" target="_top" xlink:title="Spring framework service for the UACHServiceCore.">
<polygon fill="white" stroke="#666666" points="390,-78 201,-78 201,-48 390,-48 390,-78"/>
<text text-anchor="start" x="209" y="-66" font-family="Helvetica,sans-Serif" font-size="10.00">fiftyone.pipeline.web.mvc.services.</text>
<text text-anchor="middle" x="295.5" y="-55" font-family="Helvetica,sans-Serif" font-size="10.00">UACHService</text>
</a>
</g>
</g>
<!-- Node1&#45;&gt;Node2 -->
<g id="edge1_Node000001_Node000002" class="edge">
<title>Node1&#45;&gt;Node2</title>
<g id="a_edge1_Node000001_Node000002"><a xlink:title=" ">
<path fill="none" stroke="#63b8ff" d="M175.05,-49.41C183.6,-50.39 192.27,-51.37 200.84,-52.35"/>
<polygon fill="#63b8ff" stroke="#63b8ff" points="175.41,-45.93 165.08,-48.28 174.62,-52.89 175.41,-45.93"/>
</a>
</g>
</g>
<!-- Node4 -->
<g id="Node000004" class="node">
<title>Node4</title>
<g id="a_Node000004"><a xlink:href="classfiftyone_1_1pipeline_1_1web_1_1services_1_1_u_a_c_h_service_core_1_1_default.html" target="_top" xlink:title="Default implementation of the UACHServiceCore service.">
<polygon fill="white" stroke="#666666" points="378,-30 213,-30 213,0 378,0 378,-30"/>
<text text-anchor="start" x="221" y="-18" font-family="Helvetica,sans-Serif" font-size="10.00">fiftyone.pipeline.web.services.</text>
<text text-anchor="middle" x="295.5" y="-7" font-family="Helvetica,sans-Serif" font-size="10.00">UACHServiceCore.Default</text>
</a>
</g>
</g>
<!-- Node1&#45;&gt;Node4 -->
<g id="edge3_Node000001_Node000004" class="edge">
<title>Node1&#45;&gt;Node4</title>
<g id="a_edge3_Node000001_Node000004"><a xlink:title=" ">
<path fill="none" stroke="#63b8ff" d="M175.07,-28.58C187.62,-27.16 200.43,-25.7 212.79,-24.29"/>
<polygon fill="#63b8ff" stroke="#63b8ff" points="174.62,-25.11 165.08,-29.72 175.41,-32.07 174.62,-25.11"/>
</a>
</g>
</g>
<!-- Node3 -->
<g id="Node000003" class="node">
<title>Node3</title>
<g id="a_Node000003"><a xlink:href="classfiftyone_1_1pipeline_1_1web_1_1mvc_1_1services_1_1_u_a_c_h_service_1_1_default.html" target="_top" xlink:title=" ">
<polygon fill="white" stroke="#bfbfbf" points="615,-54 426,-54 426,-24 615,-24 615,-54"/>
<text text-anchor="start" x="434" y="-42" font-family="Helvetica,sans-Serif" font-size="10.00">fiftyone.pipeline.web.mvc.services.</text>
<text text-anchor="middle" x="520.5" y="-31" font-family="Helvetica,sans-Serif" font-size="10.00">UACHService.Default</text>
</a>
</g>
</g>
<!-- Node2&#45;&gt;Node3 -->
<g id="edge2_Node000002_Node000003" class="edge">
<title>Node2&#45;&gt;Node3</title>
<g id="a_edge2_Node000002_Node000003"><a xlink:title=" ">
<path fill="none" stroke="#63b8ff" d="M400.11,-51.85C408.67,-50.93 417.3,-50 425.78,-49.09"/>
<polygon fill="#63b8ff" stroke="#63b8ff" points="399.67,-48.38 390.1,-52.93 400.42,-55.34 399.67,-48.38"/>
</a>
</g>
</g>
<!-- Node4&#45;&gt;Node3 -->
<g id="edge4_Node000004_Node000003" class="edge">
<title>Node4&#45;&gt;Node3</title>
<g id="a_edge4_Node000004_Node000003"><a xlink:title=" ">
<path fill="none" stroke="#63b8ff" d="M388.49,-24.9C400.76,-26.22 413.36,-27.58 425.67,-28.9"/>
<polygon fill="#63b8ff" stroke="#63b8ff" points="388.59,-21.39 378.27,-23.8 387.84,-28.35 388.59,-21.39"/>
</a>
</g>
</g>
</g>
</svg>
