<?xml version="1.0" encoding="UTF-8" standalone="no"?>
<!DOCTYPE svg PUBLIC "-//W3C//DTD SVG 1.1//EN"
 "http://www.w3.org/Graphics/SVG/1.1/DTD/svg11.dtd">
<!-- Generated by graphviz version 2.43.0 (0)
 -->
<!-- Title: fiftyone.common.wrappers.data.BinaryWriter.WritableSeekable Pages: 1 -->
<svg width="529pt" height="86pt"
 viewBox="0.00 0.00 529.00 86.00" xmlns="http://www.w3.org/2000/svg" xmlns:xlink="http://www.w3.org/1999/xlink">
<g id="graph0" class="graph" transform="scale(1 1) rotate(0) translate(4 82)">
<title>fiftyone.common.wrappers.data.BinaryWriter.WritableSeekable</title>
<!-- Node1 -->
<g id="Node000001" class="node">
<title>Node1</title>
<g id="a_Node000001"><a xlink:title=" ">
<polygon fill="#999999" stroke="#666666" points="276,-54 101,-54 101,-24 276,-24 276,-54"/>
<text text-anchor="start" x="109" y="-42" font-family="Helvetica,sans-Serif" font-size="10.00">fiftyone.common.wrappers.data.</text>
<text text-anchor="middle" x="188.5" y="-31" font-family="Helvetica,sans-Serif" font-size="10.00">BinaryWriter.WritableSeekable</text>
</a>
</g>
</g>
<!-- Node4 -->
<g id="Node000004" class="node">
<title>Node4</title>
<g id="a_Node000004"><a xlink:href="classfiftyone_1_1common_1_1wrappers_1_1data_1_1_binary_writer_1_1_writable_seekable_1_1_file.html" target="_top" xlink:title=" ">
<polygon fill="white" stroke="#bfbfbf" points="509.5,-78 323.5,-78 323.5,-48 509.5,-48 509.5,-78"/>
<text text-anchor="start" x="331.5" y="-66" font-family="Helvetica,sans-Serif" font-size="10.00">fiftyone.common.wrappers.data.</text>
<text text-anchor="middle" x="416.5" y="-55" font-family="Helvetica,sans-Serif" font-size="10.00">BinaryWriter.WritableSeekable.File</text>
</a>
</g>
</g>
<!-- Node1&#45;&gt;Node4 -->
<g id="edge3_Node000001_Node000004" class="edge">
<title>Node1&#45;&gt;Node4</title>
<g id="a_edge3_Node000001_Node000004"><a xlink:title=" ">
<path fill="none" stroke="#63b8ff" d="M286.45,-49.3C298.7,-50.6 311.2,-51.92 323.37,-53.22"/>
<polygon fill="#63b8ff" stroke="#63b8ff" points="286.54,-45.79 276.23,-48.21 285.81,-52.75 286.54,-45.79"/>
</a>
</g>
</g>
<!-- Node5 -->
<g id="Node000005" class="node">
<title>Node5</title>
<g id="a_Node000005"><a xlink:href="classfiftyone_1_1common_1_1wrappers_1_1data_1_1_binary_writer_1_1_writable_seekable_1_1_memory.html" target="_top" xlink:title=" ">
<polygon fill="white" stroke="#bfbfbf" points="521,-30 312,-30 312,0 521,0 521,-30"/>
<text text-anchor="start" x="320" y="-18" font-family="Helvetica,sans-Serif" font-size="10.00">fiftyone.common.wrappers.data.</text>
<text text-anchor="middle" x="416.5" y="-7" font-family="Helvetica,sans-Serif" font-size="10.00">BinaryWriter.WritableSeekable.Memory</text>
</a>
</g>
</g>
<!-- Node1&#45;&gt;Node5 -->
<g id="edge4_Node000001_Node000005" class="edge">
<title>Node1&#45;&gt;Node5</title>
<g id="a_edge4_Node000001_Node000005"><a xlink:title=" ">
<path fill="none" stroke="#63b8ff" d="M286.19,-28.73C294.73,-27.83 303.39,-26.91 311.99,-25.99"/>
<polygon fill="#63b8ff" stroke="#63b8ff" points="285.81,-25.25 276.23,-29.79 286.54,-32.21 285.81,-25.25"/>
</a>
</g>
</g>
<!-- Node2 -->
<g id="Node000002" class="node">
<title>Node2</title>
<g id="a_Node000002"><a xlink:title=" ">
<polygon fill="white" stroke="#bfbfbf" points="65,-67.5 0,-67.5 0,-48.5 65,-48.5 65,-67.5"/>
<text text-anchor="middle" x="32.5" y="-55.5" font-family="Helvetica,sans-Serif" font-size="10.00">Closeable</text>
</a>
</g>
</g>
<!-- Node2&#45;&gt;Node1 -->
<g id="edge1_Node000001_Node000002" class="edge">
<title>Node2&#45;&gt;Node1</title>
<g id="a_edge1_Node000001_Node000002"><a xlink:title=" ">
<path fill="none" stroke="#63b8ff" d="M75.23,-52.85C83.31,-51.86 92.04,-50.78 100.95,-49.68"/>
<polygon fill="#63b8ff" stroke="#63b8ff" points="74.53,-49.41 65.04,-54.11 75.39,-56.36 74.53,-49.41"/>
</a>
</g>
</g>
<!-- Node3 -->
<g id="Node000003" class="node">
<title>Node3</title>
<g id="a_Node000003"><a xlink:title=" ">
<polygon fill="white" stroke="#bfbfbf" points="64.5,-30.5 0.5,-30.5 0.5,-11.5 64.5,-11.5 64.5,-30.5"/>
<text text-anchor="middle" x="32.5" y="-18.5" font-family="Helvetica,sans-Serif" font-size="10.00">Flushable</text>
</a>
</g>
</g>
<!-- Node3&#45;&gt;Node1 -->
<g id="edge2_Node000001_Node000003" class="edge">
<title>Node3&#45;&gt;Node1</title>
<g id="a_edge2_Node000001_Node000003"><a xlink:title=" ">
<path fill="none" stroke="#63b8ff" d="M74.67,-25.81C82.89,-26.77 91.82,-27.82 100.93,-28.88"/>
<polygon fill="#63b8ff" stroke="#63b8ff" points="75,-22.33 64.66,-24.64 74.19,-29.28 75,-22.33"/>
</a>
</g>
</g>
</g>
</svg>
