<?xml version="1.0" encoding="UTF-8" standalone="no"?>
<!DOCTYPE svg PUBLIC "-//W3C//DTD SVG 1.1//EN"
 "http://www.w3.org/Graphics/SVG/1.1/DTD/svg11.dtd">
<!-- Generated by graphviz version 2.43.0 (0)
 -->
<!-- Title: fiftyone.pipeline.engines.flowelements.CloudAspectEngine&lt; TData extends AspectData, TProperty extends AspectPropertyMetaData &gt; Pages: 1 -->
<svg width="2799pt" height="168pt"
 viewBox="0.00 0.00 2799.00 168.00" xmlns="http://www.w3.org/2000/svg" xmlns:xlink="http://www.w3.org/1999/xlink">
<g id="graph0" class="graph" transform="scale(1 1) rotate(0) translate(4 164)">
<title>fiftyone.pipeline.engines.flowelements.CloudAspectEngine&lt; TData extends AspectData, TProperty extends AspectPropertyMetaData &gt;</title>
<!-- Node1 -->
<g id="Node000001" class="node">
<title>Node1</title>
<g id="a_Node000001"><a xlink:title="Aspect engine interface which is specific to a cloud engine.">
<polygon fill="#999999" stroke="#666666" points="1674,-106 1426,-106 1426,-54 1674,-54 1674,-106"/>
<text text-anchor="start" x="1434" y="-94" font-family="Helvetica,sans-Serif" font-size="10.00">fiftyone.pipeline.engines.flowelements.</text>
<text text-anchor="start" x="1434" y="-83" font-family="Helvetica,sans-Serif" font-size="10.00">CloudAspectEngine&lt; TData extends</text>
<text text-anchor="start" x="1434" y="-72" font-family="Helvetica,sans-Serif" font-size="10.00"> AspectData, TProperty extends AspectProperty</text>
<text text-anchor="middle" x="1550" y="-61" font-family="Helvetica,sans-Serif" font-size="10.00">MetaData &gt;</text>
</a>
</g>
</g>
<!-- Node11 -->
<g id="Node000011" class="node">
<title>Node11</title>
<g id="a_Node000011"><a xlink:href="classfiftyone_1_1pipeline_1_1cloudrequestengine_1_1flowelements_1_1_cloud_aspect_engine_base.html" target="_top" xlink:title="Base class for 51Degrees Cloud Aspect Engines.">
<polygon fill="white" stroke="#666666" points="2128,-136.5 1862,-136.5 1862,-95.5 2128,-95.5 2128,-136.5"/>
<text text-anchor="start" x="1870" y="-124.5" font-family="Helvetica,sans-Serif" font-size="10.00">fiftyone.pipeline.cloudrequestengine.flowelements.</text>
<text text-anchor="start" x="1870" y="-113.5" font-family="Helvetica,sans-Serif" font-size="10.00">CloudAspectEngineBase&lt; TData extends</text>
<text text-anchor="middle" x="1995" y="-102.5" font-family="Helvetica,sans-Serif" font-size="10.00"> AspectData &gt;</text>
</a>
</g>
</g>
<!-- Node1&#45;&gt;Node11 -->
<g id="edge14_Node000001_Node000011" class="edge">
<title>Node1&#45;&gt;Node11</title>
<g id="a_edge14_Node000001_Node000011"><a xlink:title=" ">
<path fill="none" stroke="#63b8ff" d="M1684.2,-95.28C1686.82,-95.53 1689.42,-95.77 1692,-96 1747.61,-100.99 1809.08,-105.29 1861.96,-108.6"/>
<polygon fill="#63b8ff" stroke="#63b8ff" points="1684.29,-91.78 1674,-94.3 1683.62,-98.74 1684.29,-91.78"/>
</a>
</g>
</g>
<!-- Node14 -->
<g id="Node000014" class="node">
<title>Node14</title>
<g id="a_Node000014"><a xlink:href="interfacefiftyone_1_1pipeline_1_1engines_1_1flowelements_1_1_cloud_aspect_engine.html" target="_top" xlink:title=" ">
<polygon fill="white" stroke="#666666" points="2110.5,-77.5 1879.5,-77.5 1879.5,-36.5 2110.5,-36.5 2110.5,-77.5"/>
<text text-anchor="start" x="1887.5" y="-65.5" font-family="Helvetica,sans-Serif" font-size="10.00">fiftyone.pipeline.engines.flowelements.</text>
<text text-anchor="start" x="1887.5" y="-54.5" font-family="Helvetica,sans-Serif" font-size="10.00">CloudAspectEngine&lt; TData, AspectProperty</text>
<text text-anchor="middle" x="1995" y="-43.5" font-family="Helvetica,sans-Serif" font-size="10.00">MetaData &gt;</text>
</a>
</g>
</g>
<!-- Node1&#45;&gt;Node14 -->
<g id="edge17_Node000001_Node000014" class="edge">
<title>Node1&#45;&gt;Node14</title>
<g id="a_edge17_Node000001_Node000014"><a xlink:title=" ">
<path fill="none" stroke="orange" stroke-dasharray="5,2" d="M1684.35,-64.55C1686.92,-64.36 1689.47,-64.17 1692,-64 1753.74,-59.79 1822.73,-57.97 1879.16,-57.24"/>
<polygon fill="orange" stroke="orange" points="1684.05,-61.06 1674.36,-65.35 1684.61,-68.04 1684.05,-61.06"/>
</a>
</g>
<text text-anchor="start" x="1695" y="-85" font-family="Helvetica,sans-Serif" font-size="10.00" fill="grey">&lt; TData, AspectPropertyMeta</text>
<text text-anchor="start" x="1695" y="-70" font-family="Helvetica,sans-Serif" font-size="10.00" fill="grey">  Data &gt;</text>
</g>
<!-- Node2 -->
<g id="Node000002" class="node">
<title>Node2</title>
<g id="a_Node000002"><a xlink:href="interfacefiftyone_1_1pipeline_1_1engines_1_1flowelements_1_1_aspect_engine.html" target="_top" xlink:title=" ">
<polygon fill="white" stroke="#666666" points="1389,-95 1180,-95 1180,-65 1389,-65 1389,-95"/>
<text text-anchor="start" x="1188" y="-83" font-family="Helvetica,sans-Serif" font-size="10.00">fiftyone.pipeline.engines.flowelements.</text>
<text text-anchor="middle" x="1284.5" y="-72" font-family="Helvetica,sans-Serif" font-size="10.00">AspectEngine&lt; TData, TProperty &gt;</text>
</a>
</g>
</g>
<!-- Node2&#45;&gt;Node1 -->
<g id="edge1_Node000001_Node000002" class="edge">
<title>Node2&#45;&gt;Node1</title>
<g id="a_edge1_Node000001_Node000002"><a xlink:title=" ">
<path fill="none" stroke="#63b8ff" d="M1399.42,-80C1408.11,-80 1416.92,-80 1425.67,-80"/>
<polygon fill="#63b8ff" stroke="#63b8ff" points="1399.26,-76.5 1389.26,-80 1399.26,-83.5 1399.26,-76.5"/>
</a>
</g>
</g>
<!-- Node3 -->
<g id="Node000003" class="node">
<title>Node3</title>
<g id="a_Node000003"><a xlink:href="interfacefiftyone_1_1pipeline_1_1engines_1_1flowelements_1_1_aspect_engine.html" target="_top" xlink:title="AspectEngines are a subset of FlowElements.">
<polygon fill="white" stroke="#666666" points="1032,-100.5 787,-100.5 787,-59.5 1032,-59.5 1032,-100.5"/>
<text text-anchor="start" x="795" y="-88.5" font-family="Helvetica,sans-Serif" font-size="10.00">fiftyone.pipeline.engines.flowelements.</text>
<text text-anchor="start" x="795" y="-77.5" font-family="Helvetica,sans-Serif" font-size="10.00">AspectEngine&lt; TData extends AspectData,</text>
<text text-anchor="middle" x="909.5" y="-66.5" font-family="Helvetica,sans-Serif" font-size="10.00"> TProperty extends AspectPropertyMetaData &gt;</text>
</a>
</g>
</g>
<!-- Node3&#45;&gt;Node2 -->
<g id="edge2_Node000002_Node000003" class="edge">
<title>Node3&#45;&gt;Node2</title>
<g id="a_edge2_Node000002_Node000003"><a xlink:title=" ">
<path fill="none" stroke="orange" stroke-dasharray="5,2" d="M1042.28,-80C1087.43,-80 1137.27,-80 1179.87,-80"/>
<polygon fill="orange" stroke="orange" points="1042.12,-76.5 1032.12,-80 1042.12,-83.5 1042.12,-76.5"/>
</a>
</g>
<text text-anchor="start" x="1053" y="-85.5" font-family="Helvetica,sans-Serif" font-size="10.00" fill="grey">&lt; TData, TProperty &gt;</text>
</g>
<!-- Node4 -->
<g id="Node000004" class="node">
<title>Node4</title>
<g id="a_Node000004"><a xlink:href="interfacefiftyone_1_1pipeline_1_1core_1_1flowelements_1_1_flow_element.html" target="_top" xlink:title="A component that processes a FlowData (by examining its evidence, or by examining data processed by o...">
<polygon fill="white" stroke="#666666" points="697,-100.5 444,-100.5 444,-59.5 697,-59.5 697,-100.5"/>
<text text-anchor="start" x="452" y="-88.5" font-family="Helvetica,sans-Serif" font-size="10.00">fiftyone.pipeline.core.flowelements.</text>
<text text-anchor="start" x="452" y="-77.5" font-family="Helvetica,sans-Serif" font-size="10.00">FlowElement&lt; TData extends ElementData,</text>
<text text-anchor="middle" x="570.5" y="-66.5" font-family="Helvetica,sans-Serif" font-size="10.00"> TProperty extends ElementPropertyMetaData &gt;</text>
</a>
</g>
</g>
<!-- Node4&#45;&gt;Node3 -->
<g id="edge3_Node000003_Node000004" class="edge">
<title>Node4&#45;&gt;Node3</title>
<g id="a_edge3_Node000003_Node000004"><a xlink:title=" ">
<path fill="none" stroke="#63b8ff" d="M707.47,-80C733.74,-80 761.11,-80 786.88,-80"/>
<polygon fill="#63b8ff" stroke="#63b8ff" points="707.47,-76.5 697.47,-80 707.47,-83.5 707.47,-76.5"/>
</a>
</g>
</g>
<!-- Node5 -->
<g id="Node000005" class="node">
<title>Node5</title>
<g id="a_Node000005"><a xlink:title=" ">
<polygon fill="white" stroke="#bfbfbf" points="324,-89.5 237,-89.5 237,-70.5 324,-70.5 324,-89.5"/>
<text text-anchor="middle" x="280.5" y="-77.5" font-family="Helvetica,sans-Serif" font-size="10.00">AutoCloseable</text>
</a>
</g>
</g>
<!-- Node5&#45;&gt;Node4 -->
<g id="edge4_Node000004_Node000005" class="edge">
<title>Node5&#45;&gt;Node4</title>
<g id="a_edge4_Node000004_Node000005"><a xlink:title=" ">
<path fill="none" stroke="#63b8ff" d="M334.37,-80C365.15,-80 405.37,-80 443.82,-80"/>
<polygon fill="#63b8ff" stroke="#63b8ff" points="334.31,-76.5 324.31,-80 334.31,-83.5 334.31,-76.5"/>
</a>
</g>
</g>
<!-- Node6 -->
<g id="Node000006" class="node">
<title>Node6</title>
<g id="a_Node000006"><a xlink:href="interfacefiftyone_1_1pipeline_1_1core_1_1data_1_1_element_data.html" target="_top" xlink:title="Represents property values that have be determined by a specific FlowElement based on the supplied ev...">
<polygon fill="white" stroke="#666666" points="354,-149 207,-149 207,-119 354,-119 354,-149"/>
<text text-anchor="start" x="215" y="-137" font-family="Helvetica,sans-Serif" font-size="10.00">fiftyone.pipeline.core.data.</text>
<text text-anchor="middle" x="280.5" y="-126" font-family="Helvetica,sans-Serif" font-size="10.00">ElementData</text>
</a>
</g>
</g>
<!-- Node6&#45;&gt;Node4 -->
<g id="edge5_Node000004_Node000006" class="edge">
<title>Node6&#45;&gt;Node4</title>
<g id="a_edge5_Node000004_Node000006"><a xlink:title=" ">
<path fill="none" stroke="orange" stroke-dasharray="5,2" d="M363.97,-117.54C366.68,-117.02 369.36,-116.5 372,-116 398.88,-110.88 427.84,-105.51 455.08,-100.53"/>
<polygon fill="orange" stroke="orange" points="363.24,-114.12 354.09,-119.46 364.58,-120.99 363.24,-114.12"/>
</a>
</g>
<text text-anchor="start" x="384" y="-121.5" font-family="Helvetica,sans-Serif" font-size="10.00" fill="grey">TData</text>
</g>
<!-- Node9 -->
<g id="Node000009" class="node">
<title>Node9</title>
<g id="a_Node000009"><a xlink:href="interfacefiftyone_1_1pipeline_1_1engines_1_1data_1_1_aspect_data.html" target="_top" xlink:title="Represents a specialized ElementData instance that is generated by an AspectEngine.">
<polygon fill="white" stroke="#666666" points="652.5,-160 488.5,-160 488.5,-130 652.5,-130 652.5,-160"/>
<text text-anchor="start" x="496.5" y="-148" font-family="Helvetica,sans-Serif" font-size="10.00">fiftyone.pipeline.engines.data.</text>
<text text-anchor="middle" x="570.5" y="-137" font-family="Helvetica,sans-Serif" font-size="10.00">AspectData</text>
</a>
</g>
</g>
<!-- Node6&#45;&gt;Node9 -->
<g id="edge9_Node000009_Node000006" class="edge">
<title>Node6&#45;&gt;Node9</title>
<g id="a_edge9_Node000009_Node000006"><a xlink:title=" ">
<path fill="none" stroke="#63b8ff" d="M364.44,-137.17C403.42,-138.66 449.73,-140.43 488.47,-141.91"/>
<polygon fill="#63b8ff" stroke="#63b8ff" points="364.3,-133.66 354.17,-136.78 364.03,-140.65 364.3,-133.66"/>
</a>
</g>
</g>
<!-- Node7 -->
<g id="Node000007" class="node">
<title>Node7</title>
<g id="a_Node000007"><a xlink:href="interfacefiftyone_1_1pipeline_1_1core_1_1data_1_1_data.html" target="_top" xlink:title="Represents a collection of property values.">
<polygon fill="white" stroke="#666666" points="170,-143.5 0,-143.5 0,-124.5 170,-124.5 170,-143.5"/>
<text text-anchor="middle" x="85" y="-131.5" font-family="Helvetica,sans-Serif" font-size="10.00">fiftyone.pipeline.core.data.Data</text>
</a>
</g>
</g>
<!-- Node7&#45;&gt;Node6 -->
<g id="edge6_Node000006_Node000007" class="edge">
<title>Node7&#45;&gt;Node6</title>
<g id="a_edge6_Node000006_Node000007"><a xlink:title=" ">
<path fill="none" stroke="#63b8ff" d="M180.11,-134C189.07,-134 198.06,-134 206.77,-134"/>
<polygon fill="#63b8ff" stroke="#63b8ff" points="180.03,-130.5 170.03,-134 180.03,-137.5 180.03,-130.5"/>
</a>
</g>
</g>
<!-- Node8 -->
<g id="Node000008" class="node">
<title>Node8</title>
<g id="a_Node000008"><a xlink:href="interfacefiftyone_1_1pipeline_1_1core_1_1data_1_1_element_property_meta_data.html" target="_top" xlink:title="Defines details of a property that can be returned by a FlowElement.">
<polygon fill="white" stroke="#666666" points="354,-41 207,-41 207,-11 354,-11 354,-41"/>
<text text-anchor="start" x="215" y="-29" font-family="Helvetica,sans-Serif" font-size="10.00">fiftyone.pipeline.core.data.</text>
<text text-anchor="middle" x="280.5" y="-18" font-family="Helvetica,sans-Serif" font-size="10.00">ElementPropertyMetaData</text>
</a>
</g>
</g>
<!-- Node8&#45;&gt;Node4 -->
<g id="edge7_Node000004_Node000008" class="edge">
<title>Node8&#45;&gt;Node4</title>
<g id="a_edge7_Node000004_Node000008"><a xlink:title=" ">
<path fill="none" stroke="orange" stroke-dasharray="5,2" d="M364.13,-41.49C394.02,-47.1 428.24,-53.51 460.07,-59.48"/>
<polygon fill="orange" stroke="orange" points="364.65,-38.03 354.17,-39.63 363.36,-44.91 364.65,-38.03"/>
</a>
</g>
<text text-anchor="start" x="375" y="-58.5" font-family="Helvetica,sans-Serif" font-size="10.00" fill="grey">TProperty</text>
</g>
<!-- Node10 -->
<g id="Node000010" class="node">
<title>Node10</title>
<g id="a_Node000010"><a xlink:href="interfacefiftyone_1_1pipeline_1_1engines_1_1data_1_1_aspect_property_meta_data.html" target="_top" xlink:title="Holds details about a property that can be returned by an AspectEngine.">
<polygon fill="white" stroke="#666666" points="652.5,-30 488.5,-30 488.5,0 652.5,0 652.5,-30"/>
<text text-anchor="start" x="496.5" y="-18" font-family="Helvetica,sans-Serif" font-size="10.00">fiftyone.pipeline.engines.data.</text>
<text text-anchor="middle" x="570.5" y="-7" font-family="Helvetica,sans-Serif" font-size="10.00">AspectPropertyMetaData</text>
</a>
</g>
</g>
<!-- Node8&#45;&gt;Node10 -->
<g id="edge11_Node000010_Node000008" class="edge">
<title>Node8&#45;&gt;Node10</title>
<g id="a_edge11_Node000010_Node000008"><a xlink:title=" ">
<path fill="none" stroke="#63b8ff" d="M364.44,-22.83C403.42,-21.34 449.73,-19.57 488.47,-18.09"/>
<polygon fill="#63b8ff" stroke="#63b8ff" points="364.03,-19.35 354.17,-23.22 364.3,-26.34 364.03,-19.35"/>
</a>
</g>
</g>
<!-- Node9&#45;&gt;Node1 -->
<g id="edge12_Node000001_Node000009" class="edge">
<title>Node9&#45;&gt;Node1</title>
<g id="a_edge12_Node000001_Node000009"><a xlink:title=" ">
<path fill="none" stroke="orange" stroke-dasharray="5,2" d="M662.8,-143.36C814.1,-139.99 1126.2,-130.24 1389,-104 1401.02,-102.8 1413.51,-101.33 1425.99,-99.7"/>
<polygon fill="orange" stroke="orange" points="662.55,-139.87 652.63,-143.58 662.71,-146.86 662.55,-139.87"/>
</a>
</g>
<text text-anchor="start" x="1091" y="-133.5" font-family="Helvetica,sans-Serif" font-size="10.00" fill="grey">TData</text>
</g>
<!-- Node9&#45;&gt;Node3 -->
<g id="edge8_Node000003_Node000009" class="edge">
<title>Node9&#45;&gt;Node3</title>
<g id="a_edge8_Node000003_Node000009"><a xlink:title=" ">
<path fill="none" stroke="orange" stroke-dasharray="5,2" d="M648.59,-127.77C670.06,-123.13 693.41,-118.23 715,-114 738.35,-109.43 763.34,-104.82 787.34,-100.54"/>
<polygon fill="orange" stroke="orange" points="647.58,-124.41 638.55,-129.95 649.07,-131.25 647.58,-124.41"/>
</a>
</g>
<text text-anchor="start" x="727" y="-119.5" font-family="Helvetica,sans-Serif" font-size="10.00" fill="grey">TData</text>
</g>
<!-- Node10&#45;&gt;Node1 -->
<g id="edge13_Node000001_Node000010" class="edge">
<title>Node10&#45;&gt;Node1</title>
<g id="a_edge13_Node000001_Node000010"><a xlink:title=" ">
<path fill="none" stroke="orange" stroke-dasharray="5,2" d="M662.8,-16.64C814.1,-20.01 1126.2,-29.76 1389,-56 1401.02,-57.2 1413.51,-58.67 1425.99,-60.3"/>
<polygon fill="orange" stroke="orange" points="662.71,-13.14 652.63,-16.42 662.55,-20.13 662.71,-13.14"/>
</a>
</g>
<text text-anchor="start" x="1082" y="-43.5" font-family="Helvetica,sans-Serif" font-size="10.00" fill="grey">TProperty</text>
</g>
<!-- Node10&#45;&gt;Node3 -->
<g id="edge10_Node000003_Node000010" class="edge">
<title>Node10&#45;&gt;Node3</title>
<g id="a_edge10_Node000003_Node000010"><a xlink:title=" ">
<path fill="none" stroke="orange" stroke-dasharray="5,2" d="M659.67,-32.01C703.26,-40.41 756.21,-50.63 802.04,-59.47"/>
<polygon fill="orange" stroke="orange" points="660.14,-28.53 649.66,-30.08 658.82,-35.41 660.14,-28.53"/>
</a>
</g>
<text text-anchor="start" x="718" y="-57.5" font-family="Helvetica,sans-Serif" font-size="10.00" fill="grey">TProperty</text>
</g>
<!-- Node12 -->
<g id="Node000012" class="node">
<title>Node12</title>
<g id="a_Node000012"><a xlink:href="classfiftyone_1_1pipeline_1_1cloudrequestengine_1_1flowelements_1_1_cloud_aspect_engine_base.html" target="_top" xlink:title=" ">
<polygon fill="white" stroke="#666666" points="2488,-131 2222,-131 2222,-101 2488,-101 2488,-131"/>
<text text-anchor="start" x="2230" y="-119" font-family="Helvetica,sans-Serif" font-size="10.00">fiftyone.pipeline.cloudrequestengine.flowelements.</text>
<text text-anchor="middle" x="2355" y="-108" font-family="Helvetica,sans-Serif" font-size="10.00">CloudAspectEngineBase&lt; TData &gt;</text>
</a>
</g>
</g>
<!-- Node11&#45;&gt;Node12 -->
<g id="edge15_Node000011_Node000012" class="edge">
<title>Node11&#45;&gt;Node12</title>
<g id="a_edge15_Node000011_Node000012"><a xlink:title=" ">
<path fill="none" stroke="orange" stroke-dasharray="5,2" d="M2138.14,-116C2165.72,-116 2194.53,-116 2221.78,-116"/>
<polygon fill="orange" stroke="orange" points="2138.03,-112.5 2128.03,-116 2138.03,-119.5 2138.03,-112.5"/>
</a>
</g>
<text text-anchor="start" x="2149" y="-121.5" font-family="Helvetica,sans-Serif" font-size="10.00" fill="grey">&lt; TData &gt;</text>
</g>
<!-- Node13 -->
<g id="Node000013" class="node">
<title>Node13</title>
<g id="a_Node000013"><a xlink:href="classfiftyone_1_1pipeline_1_1cloudrequestengine_1_1flowelements_1_1_property_keyed_cloud_engine_base.html" target="_top" xlink:title="A specialised type of CloudAspectEngineBase that has the functionality to support returning a list of...">
<polygon fill="white" stroke="#666666" points="2791,-142 2525,-142 2525,-90 2791,-90 2791,-142"/>
<text text-anchor="start" x="2533" y="-130" font-family="Helvetica,sans-Serif" font-size="10.00">fiftyone.pipeline.cloudrequestengine.flowelements.</text>
<text text-anchor="start" x="2533" y="-119" font-family="Helvetica,sans-Serif" font-size="10.00">PropertyKeyedCloudEngineBase&lt; TData</text>
<text text-anchor="start" x="2533" y="-108" font-family="Helvetica,sans-Serif" font-size="10.00"> extends MultiProfileData&lt; TProfile</text>
<text text-anchor="middle" x="2658" y="-97" font-family="Helvetica,sans-Serif" font-size="10.00"> &gt;, TProfile extends AspectData &gt;</text>
</a>
</g>
</g>
<!-- Node12&#45;&gt;Node13 -->
<g id="edge16_Node000012_Node000013" class="edge">
<title>Node12&#45;&gt;Node13</title>
<g id="a_edge16_Node000012_Node000013"><a xlink:title=" ">
<path fill="none" stroke="#63b8ff" d="M2498.03,-116C2506.91,-116 2515.84,-116 2524.68,-116"/>
<polygon fill="#63b8ff" stroke="#63b8ff" points="2498.02,-112.5 2488.02,-116 2498.02,-119.5 2498.02,-112.5"/>
</a>
</g>
</g>
</g>
</svg>
