<?xml version="1.0" encoding="UTF-8" standalone="no"?>
<!DOCTYPE svg PUBLIC "-//W3C//DTD SVG 1.1//EN"
 "http://www.w3.org/Graphics/SVG/1.1/DTD/svg11.dtd">
<!-- Generated by graphviz version 2.43.0 (0)
 -->
<!-- Title: fiftyone.pipeline.core.data.Data Pages: 1 -->
<svg width="1451pt" height="290pt"
 viewBox="0.00 0.00 1451.00 289.50" xmlns="http://www.w3.org/2000/svg" xmlns:xlink="http://www.w3.org/1999/xlink">
<g id="graph0" class="graph" transform="scale(1 1) rotate(0) translate(4 285.5)">
<title>fiftyone.pipeline.core.data.Data</title>
<!-- Node1 -->
<g id="Node000001" class="node">
<title>Node1</title>
<g id="a_Node000001"><a xlink:title="Represents a collection of property values.">
<polygon fill="#999999" stroke="#666666" points="170,-72.5 0,-72.5 0,-53.5 170,-53.5 170,-72.5"/>
<text text-anchor="middle" x="85" y="-60.5" font-family="Helvetica,sans-Serif" font-size="10.00">fiftyone.pipeline.core.data.Data</text>
</a>
</g>
</g>
<!-- Node2 -->
<g id="Node000002" class="node">
<title>Node2</title>
<g id="a_Node000002"><a xlink:href="classfiftyone_1_1pipeline_1_1core_1_1data_1_1_data_base.html" target="_top" xlink:title="This implementation of Data stores data values as key/value pairs in a Map where the key is a string ...">
<polygon fill="white" stroke="#666666" points="353,-78 206,-78 206,-48 353,-48 353,-78"/>
<text text-anchor="start" x="214" y="-66" font-family="Helvetica,sans-Serif" font-size="10.00">fiftyone.pipeline.core.data.</text>
<text text-anchor="middle" x="279.5" y="-55" font-family="Helvetica,sans-Serif" font-size="10.00">DataBase</text>
</a>
</g>
</g>
<!-- Node1&#45;&gt;Node2 -->
<g id="edge1_Node000001_Node000002" class="edge">
<title>Node1&#45;&gt;Node2</title>
<g id="a_edge1_Node000001_Node000002"><a xlink:title=" ">
<path fill="none" stroke="#63b8ff" d="M180.27,-63C188.91,-63 197.57,-63 205.97,-63"/>
<polygon fill="#63b8ff" stroke="#63b8ff" points="180.15,-59.5 170.15,-63 180.15,-66.5 180.15,-59.5"/>
</a>
</g>
</g>
<!-- Node11 -->
<g id="Node000011" class="node">
<title>Node11</title>
<g id="a_Node000011"><a xlink:href="interfacefiftyone_1_1pipeline_1_1core_1_1data_1_1_element_data.html" target="_top" xlink:title="Represents property values that have be determined by a specific FlowElement based on the supplied ev...">
<polygon fill="white" stroke="#666666" points="353,-126 206,-126 206,-96 353,-96 353,-126"/>
<text text-anchor="start" x="214" y="-114" font-family="Helvetica,sans-Serif" font-size="10.00">fiftyone.pipeline.core.data.</text>
<text text-anchor="middle" x="279.5" y="-103" font-family="Helvetica,sans-Serif" font-size="10.00">ElementData</text>
</a>
</g>
</g>
<!-- Node1&#45;&gt;Node11 -->
<g id="edge10_Node000001_Node000011" class="edge">
<title>Node1&#45;&gt;Node11</title>
<g id="a_edge10_Node000001_Node000011"><a xlink:title=" ">
<path fill="none" stroke="#63b8ff" d="M134.27,-75.04C159.68,-81.37 191.08,-89.2 218.09,-95.94"/>
<polygon fill="#63b8ff" stroke="#63b8ff" points="135.04,-71.62 124.49,-72.6 133.35,-78.41 135.04,-71.62"/>
</a>
</g>
</g>
<!-- Node16 -->
<g id="Node000016" class="node">
<title>Node16</title>
<g id="a_Node000016"><a xlink:href="interfacefiftyone_1_1pipeline_1_1core_1_1data_1_1_evidence.html" target="_top" xlink:title="Evidence used by a FlowElement when processing.">
<polygon fill="white" stroke="#666666" points="353,-30 206,-30 206,0 353,0 353,-30"/>
<text text-anchor="start" x="214" y="-18" font-family="Helvetica,sans-Serif" font-size="10.00">fiftyone.pipeline.core.data.</text>
<text text-anchor="middle" x="279.5" y="-7" font-family="Helvetica,sans-Serif" font-size="10.00">Evidence</text>
</a>
</g>
</g>
<!-- Node1&#45;&gt;Node16 -->
<g id="edge19_Node000001_Node000016" class="edge">
<title>Node1&#45;&gt;Node16</title>
<g id="a_edge19_Node000001_Node000016"><a xlink:title=" ">
<path fill="none" stroke="#63b8ff" d="M134.27,-50.96C159.68,-44.63 191.08,-36.8 218.09,-30.06"/>
<polygon fill="#63b8ff" stroke="#63b8ff" points="133.35,-47.59 124.49,-53.4 135.04,-54.38 133.35,-47.59"/>
</a>
</g>
</g>
<!-- Node3 -->
<g id="Node000003" class="node">
<title>Node3</title>
<g id="a_Node000003"><a xlink:href="classfiftyone_1_1pipeline_1_1core_1_1data_1_1_element_data_base.html" target="_top" xlink:title="Base implementation of ElementData.">
<polygon fill="white" stroke="#666666" points="566,-126 419,-126 419,-96 566,-96 566,-126"/>
<text text-anchor="start" x="427" y="-114" font-family="Helvetica,sans-Serif" font-size="10.00">fiftyone.pipeline.core.data.</text>
<text text-anchor="middle" x="492.5" y="-103" font-family="Helvetica,sans-Serif" font-size="10.00">ElementDataBase</text>
</a>
</g>
</g>
<!-- Node2&#45;&gt;Node3 -->
<g id="edge2_Node000002_Node000003" class="edge">
<title>Node2&#45;&gt;Node3</title>
<g id="a_edge2_Node000002_Node000003"><a xlink:title=" ">
<path fill="none" stroke="#63b8ff" d="M356.56,-80.3C379.14,-85.44 403.67,-91.02 425.55,-96"/>
<polygon fill="#63b8ff" stroke="#63b8ff" points="357.21,-76.86 346.68,-78.06 355.66,-83.69 357.21,-76.86"/>
</a>
</g>
</g>
<!-- Node10 -->
<g id="Node000010" class="node">
<title>Node10</title>
<g id="a_Node000010"><a xlink:title=" ">
<polygon fill="white" stroke="#666666" points="588,-30 397,-30 397,0 588,0 588,-30"/>
<text text-anchor="start" x="405" y="-18" font-family="Helvetica,sans-Serif" font-size="10.00">fiftyone.pipeline.core.flowelements.</text>
<text text-anchor="middle" x="492.5" y="-7" font-family="Helvetica,sans-Serif" font-size="10.00">EvidenceDefault</text>
</a>
</g>
</g>
<!-- Node2&#45;&gt;Node10 -->
<g id="edge9_Node000002_Node000010" class="edge">
<title>Node2&#45;&gt;Node10</title>
<g id="a_edge9_Node000002_Node000010"><a xlink:title=" ">
<path fill="none" stroke="#63b8ff" d="M356.56,-45.7C379.14,-40.56 403.67,-34.98 425.55,-30"/>
<polygon fill="#63b8ff" stroke="#63b8ff" points="355.66,-42.31 346.68,-47.94 357.21,-49.14 355.66,-42.31"/>
</a>
</g>
</g>
<!-- Node4 -->
<g id="Node000004" class="node">
<title>Node4</title>
<g id="a_Node000004"><a xlink:href="classfiftyone_1_1pipeline_1_1engines_1_1data_1_1_aspect_data_base.html" target="_top" xlink:title="Abstract base class for AspectData which overrides the.">
<polygon fill="white" stroke="#666666" points="839.5,-222 675.5,-222 675.5,-192 839.5,-192 839.5,-222"/>
<text text-anchor="start" x="683.5" y="-210" font-family="Helvetica,sans-Serif" font-size="10.00">fiftyone.pipeline.engines.data.</text>
<text text-anchor="middle" x="757.5" y="-199" font-family="Helvetica,sans-Serif" font-size="10.00">AspectDataBase</text>
</a>
</g>
</g>
<!-- Node3&#45;&gt;Node4 -->
<g id="edge3_Node000003_Node000004" class="edge">
<title>Node3&#45;&gt;Node4</title>
<g id="a_edge3_Node000003_Node000004"><a xlink:title=" ">
<path fill="none" stroke="#63b8ff" d="M575.91,-124.77C582.98,-127.57 589.79,-130.95 596,-135 618.33,-149.58 609.39,-168.86 632,-183 644.97,-191.11 660.08,-196.59 675.2,-200.26"/>
<polygon fill="#63b8ff" stroke="#63b8ff" points="576.73,-121.35 566.14,-121.29 574.38,-127.94 576.73,-121.35"/>
</a>
</g>
</g>
<!-- Node7 -->
<g id="Node000007" class="node">
<title>Node7</title>
<g id="a_Node000007"><a xlink:href="classfiftyone_1_1pipeline_1_1engines_1_1fiftyone_1_1data_1_1_set_headers_data.html" target="_top" xlink:title="Data containing the result of SetHeadersElement.">
<polygon fill="white" stroke="#666666" points="859.5,-126 655.5,-126 655.5,-96 859.5,-96 859.5,-126"/>
<text text-anchor="start" x="663.5" y="-114" font-family="Helvetica,sans-Serif" font-size="10.00">fiftyone.pipeline.engines.fiftyone.data.</text>
<text text-anchor="middle" x="757.5" y="-103" font-family="Helvetica,sans-Serif" font-size="10.00">SetHeadersData</text>
</a>
</g>
</g>
<!-- Node3&#45;&gt;Node7 -->
<g id="edge6_Node000003_Node000007" class="edge">
<title>Node3&#45;&gt;Node7</title>
<g id="a_edge6_Node000003_Node000007"><a xlink:title=" ">
<path fill="none" stroke="#63b8ff" d="M576.24,-111C601.27,-111 629.04,-111 655.14,-111"/>
<polygon fill="#63b8ff" stroke="#63b8ff" points="576.06,-107.5 566.06,-111 576.06,-114.5 576.06,-107.5"/>
</a>
</g>
</g>
<!-- Node8 -->
<g id="Node000008" class="node">
<title>Node8</title>
<g id="a_Node000008"><a xlink:href="classfiftyone_1_1pipeline_1_1javascriptbuilder_1_1flowelements_1_1_java_script_builder_data_internal.html" target="_top" xlink:title="[class]">
<polygon fill="white" stroke="#666666" points="883,-174 632,-174 632,-144 883,-144 883,-174"/>
<text text-anchor="start" x="640" y="-162" font-family="Helvetica,sans-Serif" font-size="10.00">fiftyone.pipeline.javascriptbuilder.flowelements.</text>
<text text-anchor="middle" x="757.5" y="-151" font-family="Helvetica,sans-Serif" font-size="10.00">JavaScriptBuilderDataInternal</text>
</a>
</g>
</g>
<!-- Node3&#45;&gt;Node8 -->
<g id="edge7_Node000003_Node000008" class="edge">
<title>Node3&#45;&gt;Node8</title>
<g id="a_edge7_Node000003_Node000008"><a xlink:title=" ">
<path fill="none" stroke="#63b8ff" d="M576.03,-126.06C607.25,-131.76 642.75,-138.24 673.97,-143.94"/>
<polygon fill="#63b8ff" stroke="#63b8ff" points="576.53,-122.6 566.06,-124.24 575.27,-129.48 576.53,-122.6"/>
</a>
</g>
</g>
<!-- Node9 -->
<g id="Node000009" class="node">
<title>Node9</title>
<g id="a_Node000009"><a xlink:href="classfiftyone_1_1pipeline_1_1jsonbuilder_1_1flowelements_1_1_json_builder_data_internal.html" target="_top" xlink:title="[class]">
<polygon fill="white" stroke="#666666" points="869.5,-78 645.5,-78 645.5,-48 869.5,-48 869.5,-78"/>
<text text-anchor="start" x="653.5" y="-66" font-family="Helvetica,sans-Serif" font-size="10.00">fiftyone.pipeline.jsonbuilder.flowelements.</text>
<text text-anchor="middle" x="757.5" y="-55" font-family="Helvetica,sans-Serif" font-size="10.00">JsonBuilderDataInternal</text>
</a>
</g>
</g>
<!-- Node3&#45;&gt;Node9 -->
<g id="edge8_Node000003_Node000009" class="edge">
<title>Node3&#45;&gt;Node9</title>
<g id="a_edge8_Node000003_Node000009"><a xlink:title=" ">
<path fill="none" stroke="#63b8ff" d="M576.03,-95.94C607.25,-90.24 642.75,-83.76 673.97,-78.06"/>
<polygon fill="#63b8ff" stroke="#63b8ff" points="575.27,-92.52 566.06,-97.76 576.53,-99.4 575.27,-92.52"/>
</a>
</g>
</g>
<!-- Node5 -->
<g id="Node000005" class="node">
<title>Node5</title>
<g id="a_Node000005"><a xlink:href="classfiftyone_1_1pipeline_1_1cloudrequestengine_1_1flowelements_1_1_cloud_request_data_internal.html" target="_top" xlink:title=" ">
<polygon fill="white" stroke="#bfbfbf" points="1185,-222 919,-222 919,-192 1185,-192 1185,-222"/>
<text text-anchor="start" x="927" y="-210" font-family="Helvetica,sans-Serif" font-size="10.00">fiftyone.pipeline.cloudrequestengine.flowelements.</text>
<text text-anchor="middle" x="1052" y="-199" font-family="Helvetica,sans-Serif" font-size="10.00">CloudRequestDataInternal</text>
</a>
</g>
</g>
<!-- Node4&#45;&gt;Node5 -->
<g id="edge4_Node000004_Node000005" class="edge">
<title>Node4&#45;&gt;Node5</title>
<g id="a_edge4_Node000004_Node000005"><a xlink:title=" ">
<path fill="none" stroke="#63b8ff" d="M849.84,-207C871.75,-207 895.58,-207 918.92,-207"/>
<polygon fill="#63b8ff" stroke="#63b8ff" points="849.59,-203.5 839.59,-207 849.59,-210.5 849.59,-203.5"/>
</a>
</g>
</g>
<!-- Node6 -->
<g id="Node000006" class="node">
<title>Node6</title>
<g id="a_Node000006"><a xlink:href="classfiftyone_1_1pipeline_1_1cloudrequestengine_1_1data_1_1_cloud_request_data.html" target="_top" xlink:title=" ">
<polygon fill="white" stroke="#bfbfbf" points="1443,-222 1221,-222 1221,-192 1443,-192 1443,-222"/>
<text text-anchor="start" x="1229" y="-210" font-family="Helvetica,sans-Serif" font-size="10.00">fiftyone.pipeline.cloudrequestengine.data.</text>
<text text-anchor="middle" x="1332" y="-199" font-family="Helvetica,sans-Serif" font-size="10.00">CloudRequestData</text>
</a>
</g>
</g>
<!-- Node5&#45;&gt;Node6 -->
<g id="edge5_Node000005_Node000006" class="edge">
<title>Node5&#45;&gt;Node6</title>
<g id="a_edge5_Node000005_Node000006"><a xlink:title=" ">
<path fill="none" stroke="#63b8ff" d="M1195.14,-207C1203.7,-207 1212.25,-207 1220.66,-207"/>
<polygon fill="#63b8ff" stroke="#63b8ff" points="1195.08,-203.5 1185.08,-207 1195.08,-210.5 1195.08,-203.5"/>
</a>
</g>
</g>
<!-- Node11&#45;&gt;Node3 -->
<g id="edge11_Node000011_Node000003" class="edge">
<title>Node11&#45;&gt;Node3</title>
<g id="a_edge11_Node000011_Node000003"><a xlink:title=" ">
<path fill="none" stroke="#63b8ff" d="M363.19,-111C381.53,-111 400.84,-111 418.75,-111"/>
<polygon fill="#63b8ff" stroke="#63b8ff" points="363.11,-107.5 353.11,-111 363.11,-114.5 363.11,-107.5"/>
</a>
</g>
</g>
<!-- Node12 -->
<g id="Node000012" class="node">
<title>Node12</title>
<g id="a_Node000012"><a xlink:href="interfacefiftyone_1_1pipeline_1_1engines_1_1data_1_1_aspect_data.html" target="_top" xlink:title="Represents a specialized ElementData instance that is generated by an AspectEngine.">
<polygon fill="white" stroke="#666666" points="574.5,-222 410.5,-222 410.5,-192 574.5,-192 574.5,-222"/>
<text text-anchor="start" x="418.5" y="-210" font-family="Helvetica,sans-Serif" font-size="10.00">fiftyone.pipeline.engines.data.</text>
<text text-anchor="middle" x="492.5" y="-199" font-family="Helvetica,sans-Serif" font-size="10.00">AspectData</text>
</a>
</g>
</g>
<!-- Node11&#45;&gt;Node12 -->
<g id="edge12_Node000011_Node000012" class="edge">
<title>Node11&#45;&gt;Node12</title>
<g id="a_edge12_Node000011_Node000012"><a xlink:title=" ">
<path fill="none" stroke="#63b8ff" d="M307.03,-132.53C328.09,-148.62 358.91,-169.99 389,-183 396.89,-186.41 405.33,-189.37 413.86,-191.94"/>
<polygon fill="#63b8ff" stroke="#63b8ff" points="308.95,-129.59 298.9,-126.22 304.65,-135.12 308.95,-129.59"/>
</a>
</g>
</g>
<!-- Node14 -->
<g id="Node000014" class="node">
<title>Node14</title>
<g id="a_Node000014"><a xlink:href="interfacefiftyone_1_1pipeline_1_1javascriptbuilder_1_1data_1_1_java_script_builder_data.html" target="_top" xlink:title="Data containing the result of a JavaScriptBuilderElements processing.">
<polygon fill="white" stroke="#666666" points="596,-174 389,-174 389,-144 596,-144 596,-174"/>
<text text-anchor="start" x="397" y="-162" font-family="Helvetica,sans-Serif" font-size="10.00">fiftyone.pipeline.javascriptbuilder.data.</text>
<text text-anchor="middle" x="492.5" y="-151" font-family="Helvetica,sans-Serif" font-size="10.00">JavaScriptBuilderData</text>
</a>
</g>
</g>
<!-- Node11&#45;&gt;Node14 -->
<g id="edge15_Node000011_Node000014" class="edge">
<title>Node11&#45;&gt;Node14</title>
<g id="a_edge15_Node000011_Node000014"><a xlink:title=" ">
<path fill="none" stroke="#63b8ff" d="M356.56,-128.3C379.14,-133.44 403.67,-139.02 425.55,-144"/>
<polygon fill="#63b8ff" stroke="#63b8ff" points="357.21,-124.86 346.68,-126.06 355.66,-131.69 357.21,-124.86"/>
</a>
</g>
</g>
<!-- Node15 -->
<g id="Node000015" class="node">
<title>Node15</title>
<g id="a_Node000015"><a xlink:href="interfacefiftyone_1_1pipeline_1_1jsonbuilder_1_1data_1_1_json_builder_data.html" target="_top" xlink:title="Data containing the result of a JsonBuilderElements processing.">
<polygon fill="white" stroke="#666666" points="582,-78 403,-78 403,-48 582,-48 582,-78"/>
<text text-anchor="start" x="411" y="-66" font-family="Helvetica,sans-Serif" font-size="10.00">fiftyone.pipeline.jsonbuilder.data.</text>
<text text-anchor="middle" x="492.5" y="-55" font-family="Helvetica,sans-Serif" font-size="10.00">JsonBuilderData</text>
</a>
</g>
</g>
<!-- Node11&#45;&gt;Node15 -->
<g id="edge17_Node000011_Node000015" class="edge">
<title>Node11&#45;&gt;Node15</title>
<g id="a_edge17_Node000011_Node000015"><a xlink:title=" ">
<path fill="none" stroke="#63b8ff" d="M356.56,-93.7C379.14,-88.56 403.67,-82.98 425.55,-78"/>
<polygon fill="#63b8ff" stroke="#63b8ff" points="355.66,-90.31 346.68,-95.94 357.21,-97.14 355.66,-90.31"/>
</a>
</g>
</g>
<!-- Node12&#45;&gt;Node4 -->
<g id="edge13_Node000012_Node000004" class="edge">
<title>Node12&#45;&gt;Node4</title>
<g id="a_edge13_Node000012_Node000004"><a xlink:title=" ">
<path fill="none" stroke="#63b8ff" d="M584.82,-207C614.24,-207 646.62,-207 675.26,-207"/>
<polygon fill="#63b8ff" stroke="#63b8ff" points="584.55,-203.5 574.55,-207 584.55,-210.5 584.55,-203.5"/>
</a>
</g>
</g>
<!-- Node13 -->
<g id="Node000013" class="node">
<title>Node13</title>
<g id="a_Node000013"><a xlink:href="interfacefiftyone_1_1pipeline_1_1engines_1_1data_1_1_multi_profile_data.html" target="_top" xlink:title="Specialised implementation of AspectData where the instance contains a list of profiles.">
<polygon fill="white" stroke="#666666" points="839.5,-281.5 675.5,-281.5 675.5,-240.5 839.5,-240.5 839.5,-281.5"/>
<text text-anchor="start" x="683.5" y="-269.5" font-family="Helvetica,sans-Serif" font-size="10.00">fiftyone.pipeline.engines.data.</text>
<text text-anchor="start" x="683.5" y="-258.5" font-family="Helvetica,sans-Serif" font-size="10.00">MultiProfileData&lt; T extends</text>
<text text-anchor="middle" x="757.5" y="-247.5" font-family="Helvetica,sans-Serif" font-size="10.00"> AspectData &gt;</text>
</a>
</g>
</g>
<!-- Node12&#45;&gt;Node13 -->
<g id="edge14_Node000012_Node000013" class="edge">
<title>Node12&#45;&gt;Node13</title>
<g id="a_edge14_Node000012_Node000013"><a xlink:title=" ">
<path fill="none" stroke="#63b8ff" d="M576.82,-224.11C608.29,-230.57 644.04,-237.91 675.32,-244.33"/>
<polygon fill="#63b8ff" stroke="#63b8ff" points="577.26,-220.62 566.76,-222.04 575.85,-227.48 577.26,-220.62"/>
</a>
</g>
</g>
<!-- Node14&#45;&gt;Node8 -->
<g id="edge16_Node000014_Node000008" class="edge">
<title>Node14&#45;&gt;Node8</title>
<g id="a_edge16_Node000014_Node000008"><a xlink:title=" ">
<path fill="none" stroke="#63b8ff" d="M606.5,-159C614.91,-159 623.41,-159 631.88,-159"/>
<polygon fill="#63b8ff" stroke="#63b8ff" points="606.31,-155.5 596.31,-159 606.31,-162.5 606.31,-155.5"/>
</a>
</g>
</g>
<!-- Node15&#45;&gt;Node9 -->
<g id="edge18_Node000015_Node000009" class="edge">
<title>Node15&#45;&gt;Node9</title>
<g id="a_edge18_Node000015_Node000009"><a xlink:title=" ">
<path fill="none" stroke="#63b8ff" d="M592.27,-63C609.59,-63 627.72,-63 645.35,-63"/>
<polygon fill="#63b8ff" stroke="#63b8ff" points="592.17,-59.5 582.17,-63 592.17,-66.5 592.17,-59.5"/>
</a>
</g>
</g>
<!-- Node16&#45;&gt;Node10 -->
<g id="edge20_Node000016_Node000010" class="edge">
<title>Node16&#45;&gt;Node10</title>
<g id="a_edge20_Node000016_Node000010"><a xlink:title=" ">
<path fill="none" stroke="#63b8ff" d="M363.13,-15C374.17,-15 385.55,-15 396.77,-15"/>
<polygon fill="#63b8ff" stroke="#63b8ff" points="363.11,-11.5 353.11,-15 363.11,-18.5 363.11,-11.5"/>
</a>
</g>
</g>
</g>
</svg>
