<?xml version="1.0" encoding="UTF-8" standalone="no"?>
<!DOCTYPE svg PUBLIC "-//W3C//DTD SVG 1.1//EN"
 "http://www.w3.org/Graphics/SVG/1.1/DTD/svg11.dtd">
<!-- Generated by graphviz version 2.43.0 (0)
 -->
<!-- Title: fiftyone.pipeline.engines.caching.FlowCache Pages: 1 -->
<svg width="194pt" height="445pt"
 viewBox="0.00 0.00 194.00 445.00" xmlns="http://www.w3.org/2000/svg" xmlns:xlink="http://www.w3.org/1999/xlink">
<g id="graph0" class="graph" transform="scale(1 1) rotate(0) translate(4 441)">
<title>fiftyone.pipeline.engines.caching.FlowCache</title>
<!-- Node1 -->
<g id="Node000001" class="node">
<title>Node1</title>
<g id="a_Node000001"><a xlink:title="Used to cache results from individual flow elements in the pipeline.">
<polygon fill="#999999" stroke="#666666" points="183,-97 3,-97 3,-67 183,-67 183,-97"/>
<text text-anchor="start" x="11" y="-85" font-family="Helvetica,sans-Serif" font-size="10.00">fiftyone.pipeline.engines.caching.</text>
<text text-anchor="middle" x="93" y="-74" font-family="Helvetica,sans-Serif" font-size="10.00">FlowCache</text>
</a>
</g>
</g>
<!-- Node7 -->
<g id="Node000007" class="node">
<title>Node7</title>
<g id="a_Node000007"><a xlink:href="classfiftyone_1_1pipeline_1_1engines_1_1caching_1_1_flow_cache_default.html" target="_top" xlink:title="Default implementation of FlowCache using the DataKeyedCacheBase.">
<polygon fill="white" stroke="#666666" points="183,-30 3,-30 3,0 183,0 183,-30"/>
<text text-anchor="start" x="11" y="-18" font-family="Helvetica,sans-Serif" font-size="10.00">fiftyone.pipeline.engines.caching.</text>
<text text-anchor="middle" x="93" y="-7" font-family="Helvetica,sans-Serif" font-size="10.00">FlowCacheDefault</text>
</a>
</g>
</g>
<!-- Node1&#45;&gt;Node7 -->
<g id="edge6_Node000001_Node000007" class="edge">
<title>Node1&#45;&gt;Node7</title>
<g id="a_edge6_Node000001_Node000007"><a xlink:title=" ">
<path fill="none" stroke="#63b8ff" d="M93,-56.61C93,-47.65 93,-37.82 93,-30.08"/>
<polygon fill="#63b8ff" stroke="#63b8ff" points="89.5,-56.9 93,-66.9 96.5,-56.9 89.5,-56.9"/>
</a>
</g>
</g>
<!-- Node2 -->
<g id="Node000002" class="node">
<title>Node2</title>
<g id="a_Node000002"><a xlink:href="interfacefiftyone_1_1pipeline_1_1engines_1_1caching_1_1_data_keyed_cache.html" target="_top" xlink:title=" ">
<polygon fill="white" stroke="#666666" points="186,-164 0,-164 0,-134 186,-134 186,-164"/>
<text text-anchor="start" x="8" y="-152" font-family="Helvetica,sans-Serif" font-size="10.00">fiftyone.pipeline.engines.caching.</text>
<text text-anchor="middle" x="93" y="-141" font-family="Helvetica,sans-Serif" font-size="10.00">DataKeyedCache&lt; ElementData &gt;</text>
</a>
</g>
</g>
<!-- Node2&#45;&gt;Node1 -->
<g id="edge1_Node000001_Node000002" class="edge">
<title>Node2&#45;&gt;Node1</title>
<g id="a_edge1_Node000001_Node000002"><a xlink:title=" ">
<path fill="none" stroke="#63b8ff" d="M93,-123.61C93,-114.65 93,-104.82 93,-97.08"/>
<polygon fill="#63b8ff" stroke="#63b8ff" points="89.5,-123.9 93,-133.9 96.5,-123.9 89.5,-123.9"/>
</a>
</g>
</g>
<!-- Node3 -->
<g id="Node000003" class="node">
<title>Node3</title>
<g id="a_Node000003"><a xlink:href="interfacefiftyone_1_1pipeline_1_1engines_1_1caching_1_1_data_keyed_cache.html" target="_top" xlink:title="Represents a put cache where the key is a FlowData instance.">
<polygon fill="white" stroke="#666666" points="183,-247 3,-247 3,-217 183,-217 183,-247"/>
<text text-anchor="start" x="11" y="-235" font-family="Helvetica,sans-Serif" font-size="10.00">fiftyone.pipeline.engines.caching.</text>
<text text-anchor="middle" x="93" y="-224" font-family="Helvetica,sans-Serif" font-size="10.00">DataKeyedCache&lt; V &gt;</text>
</a>
</g>
</g>
<!-- Node3&#45;&gt;Node2 -->
<g id="edge2_Node000002_Node000003" class="edge">
<title>Node3&#45;&gt;Node2</title>
<g id="a_edge2_Node000002_Node000003"><a xlink:title=" ">
<path fill="none" stroke="orange" stroke-dasharray="5,2" d="M93,-206.59C93,-192.75 93,-175.91 93,-164.22"/>
<polygon fill="orange" stroke="orange" points="89.5,-206.89 93,-216.89 96.5,-206.89 89.5,-206.89"/>
</a>
</g>
<text text-anchor="start" x="96.5" y="-187.5" font-family="Helvetica,sans-Serif" font-size="10.00" fill="grey">&lt; ElementData &gt;</text>
</g>
<!-- Node4 -->
<g id="Node000004" class="node">
<title>Node4</title>
<g id="a_Node000004"><a xlink:href="interfacefiftyone_1_1caching_1_1_put_cache.html" target="_top" xlink:title="A cache that supports a thread safe put method for inserting to cache.">
<polygon fill="white" stroke="#666666" points="164.5,-314 21.5,-314 21.5,-284 164.5,-284 164.5,-314"/>
<text text-anchor="start" x="29.5" y="-302" font-family="Helvetica,sans-Serif" font-size="10.00">fiftyone.caching.PutCache</text>
<text text-anchor="middle" x="93" y="-291" font-family="Helvetica,sans-Serif" font-size="10.00">&lt; K, V &gt;</text>
</a>
</g>
</g>
<!-- Node4&#45;&gt;Node3 -->
<g id="edge3_Node000003_Node000004" class="edge">
<title>Node4&#45;&gt;Node3</title>
<g id="a_edge3_Node000003_Node000004"><a xlink:title=" ">
<path fill="none" stroke="#63b8ff" d="M93,-273.61C93,-264.65 93,-254.82 93,-247.08"/>
<polygon fill="#63b8ff" stroke="#63b8ff" points="89.5,-273.9 93,-283.9 96.5,-273.9 89.5,-273.9"/>
</a>
</g>
</g>
<!-- Node5 -->
<g id="Node000005" class="node">
<title>Node5</title>
<g id="a_Node000005"><a xlink:href="interfacefiftyone_1_1caching_1_1_cache.html" target="_top" xlink:title="Base cache interface which declares only the get method and the types of key and value stored in the ...">
<polygon fill="white" stroke="#666666" points="156.5,-381 29.5,-381 29.5,-351 156.5,-351 156.5,-381"/>
<text text-anchor="start" x="37.5" y="-369" font-family="Helvetica,sans-Serif" font-size="10.00">fiftyone.caching.Cache</text>
<text text-anchor="middle" x="93" y="-358" font-family="Helvetica,sans-Serif" font-size="10.00">&lt; K, V &gt;</text>
</a>
</g>
</g>
<!-- Node5&#45;&gt;Node4 -->
<g id="edge4_Node000004_Node000005" class="edge">
<title>Node5&#45;&gt;Node4</title>
<g id="a_edge4_Node000004_Node000005"><a xlink:title=" ">
<path fill="none" stroke="#63b8ff" d="M93,-340.61C93,-331.65 93,-321.82 93,-314.08"/>
<polygon fill="#63b8ff" stroke="#63b8ff" points="89.5,-340.9 93,-350.9 96.5,-340.9 89.5,-340.9"/>
</a>
</g>
</g>
<!-- Node6 -->
<g id="Node000006" class="node">
<title>Node6</title>
<g id="a_Node000006"><a xlink:title=" ">
<polygon fill="white" stroke="#bfbfbf" points="125.5,-437 60.5,-437 60.5,-418 125.5,-418 125.5,-437"/>
<text text-anchor="middle" x="93" y="-425" font-family="Helvetica,sans-Serif" font-size="10.00">Closeable</text>
</a>
</g>
</g>
<!-- Node6&#45;&gt;Node5 -->
<g id="edge5_Node000005_Node000006" class="edge">
<title>Node6&#45;&gt;Node5</title>
<g id="a_edge5_Node000005_Node000006"><a xlink:title=" ">
<path fill="none" stroke="#63b8ff" d="M93,-407.73C93,-399.09 93,-389 93,-381.02"/>
<polygon fill="#63b8ff" stroke="#63b8ff" points="89.5,-407.98 93,-417.98 96.5,-407.98 89.5,-407.98"/>
</a>
</g>
</g>
</g>
</svg>
