<?xml version="1.0" encoding="UTF-8" standalone="no"?>
<!DOCTYPE svg PUBLIC "-//W3C//DTD SVG 1.1//EN"
 "http://www.w3.org/Graphics/SVG/1.1/DTD/svg11.dtd">
<!-- Generated by graphviz version 2.43.0 (0)
 -->
<!-- Title: fiftyone.pipeline.engines.flowelements.AspectEngine&lt; TData extends AspectData, TProperty extends AspectPropertyMetaData &gt; Pages: 1 -->
<svg width="3239pt" height="580pt"
 viewBox="0.00 0.00 3239.00 580.00" xmlns="http://www.w3.org/2000/svg" xmlns:xlink="http://www.w3.org/1999/xlink">
<g id="graph0" class="graph" transform="scale(1 1) rotate(0) translate(4 576)">
<title>fiftyone.pipeline.engines.flowelements.AspectEngine&lt; TData extends AspectData, TProperty extends AspectPropertyMetaData &gt;</title>
<!-- Node1 -->
<g id="Node000001" class="node">
<title>Node1</title>
<g id="a_Node000001"><a xlink:title="AspectEngines are a subset of FlowElements.">
<polygon fill="#999999" stroke="#666666" points="1032,-290 787,-290 787,-249 1032,-249 1032,-290"/>
<text text-anchor="start" x="795" y="-278" font-family="Helvetica,sans-Serif" font-size="10.00">fiftyone.pipeline.engines.flowelements.</text>
<text text-anchor="start" x="795" y="-267" font-family="Helvetica,sans-Serif" font-size="10.00">AspectEngine&lt; TData extends AspectData,</text>
<text text-anchor="middle" x="909.5" y="-256" font-family="Helvetica,sans-Serif" font-size="10.00"> TProperty extends AspectPropertyMetaData &gt;</text>
</a>
</g>
</g>
<!-- Node9 -->
<g id="Node000009" class="node">
<title>Node9</title>
<g id="a_Node000009"><a xlink:href="interfacefiftyone_1_1pipeline_1_1cloudrequestengine_1_1flowelements_1_1_cloud_request_engine.html" target="_top" xlink:title="Engine that makes requests to the 51Degrees cloud service based on the details passed at creation and...">
<polygon fill="white" stroke="#666666" points="1580,-416 1314,-416 1314,-375 1580,-375 1580,-416"/>
<text text-anchor="start" x="1322" y="-404" font-family="Helvetica,sans-Serif" font-size="10.00">fiftyone.pipeline.cloudrequestengine.flowelements.</text>
<text text-anchor="start" x="1322" y="-393" font-family="Helvetica,sans-Serif" font-size="10.00">CloudRequestEngine&lt; CloudRequestData,</text>
<text text-anchor="middle" x="1447" y="-382" font-family="Helvetica,sans-Serif" font-size="10.00"> AspectPropertyMetaData &gt;</text>
</a>
</g>
</g>
<!-- Node1&#45;&gt;Node9 -->
<g id="edge10_Node000001_Node000009" class="edge">
<title>Node1&#45;&gt;Node9</title>
<g id="a_edge10_Node000001_Node000009"><a xlink:title=" ">
<path fill="none" stroke="#63b8ff" d="M972.89,-293.6C996.77,-302.24 1024.42,-311.56 1050,-318.5 1137.37,-342.2 1237.46,-361.6 1315.15,-374.99"/>
<polygon fill="#63b8ff" stroke="#63b8ff" points="973.85,-290.22 963.25,-290.07 971.44,-296.8 973.85,-290.22"/>
</a>
</g>
</g>
<!-- Node11 -->
<g id="Node000011" class="node">
<title>Node11</title>
<g id="a_Node000011"><a xlink:href="interfacefiftyone_1_1pipeline_1_1engines_1_1flowelements_1_1_aspect_engine.html" target="_top" xlink:title=" ">
<polygon fill="white" stroke="#666666" points="1551.5,-310 1342.5,-310 1342.5,-269 1551.5,-269 1551.5,-310"/>
<text text-anchor="start" x="1350.5" y="-298" font-family="Helvetica,sans-Serif" font-size="10.00">fiftyone.pipeline.engines.flowelements.</text>
<text text-anchor="start" x="1350.5" y="-287" font-family="Helvetica,sans-Serif" font-size="10.00">AspectEngine&lt; CloudRequestData,</text>
<text text-anchor="middle" x="1447" y="-276" font-family="Helvetica,sans-Serif" font-size="10.00"> AspectPropertyMetaData &gt;</text>
</a>
</g>
</g>
<!-- Node1&#45;&gt;Node11 -->
<g id="edge12_Node000001_Node000011" class="edge">
<title>Node1&#45;&gt;Node11</title>
<g id="a_edge12_Node000001_Node000011"><a xlink:title=" ">
<path fill="none" stroke="orange" stroke-dasharray="5,2" d="M1042.28,-274.42C1134.7,-277.87 1256.54,-282.42 1342.11,-285.62"/>
<polygon fill="orange" stroke="orange" points="1042.14,-270.91 1032.01,-274.04 1041.88,-277.91 1042.14,-270.91"/>
</a>
</g>
<text text-anchor="start" x="1091" y="-303.5" font-family="Helvetica,sans-Serif" font-size="10.00" fill="grey">&lt; CloudRequestData,</text>
<text text-anchor="start" x="1091" y="-288.5" font-family="Helvetica,sans-Serif" font-size="10.00" fill="grey">   AspectPropertyMetaData &gt;</text>
</g>
<!-- Node12 -->
<g id="Node000012" class="node">
<title>Node12</title>
<g id="a_Node000012"><a xlink:href="interfacefiftyone_1_1pipeline_1_1engines_1_1flowelements_1_1_aspect_engine.html" target="_top" xlink:title=" ">
<polygon fill="white" stroke="#666666" points="1551.5,-236.5 1342.5,-236.5 1342.5,-206.5 1551.5,-206.5 1551.5,-236.5"/>
<text text-anchor="start" x="1350.5" y="-224.5" font-family="Helvetica,sans-Serif" font-size="10.00">fiftyone.pipeline.engines.flowelements.</text>
<text text-anchor="middle" x="1447" y="-213.5" font-family="Helvetica,sans-Serif" font-size="10.00">AspectEngine&lt; TData, TProperty &gt;</text>
</a>
</g>
</g>
<!-- Node1&#45;&gt;Node12 -->
<g id="edge13_Node000001_Node000012" class="edge">
<title>Node1&#45;&gt;Node12</title>
<g id="a_edge13_Node000001_Node000012"><a xlink:title=" ">
<path fill="none" stroke="orange" stroke-dasharray="5,2" d="M1042.29,-254.27C1044.88,-254 1047.45,-253.75 1050,-253.5 1149.02,-243.82 1262.18,-234.89 1342.11,-228.94"/>
<polygon fill="orange" stroke="orange" points="1041.8,-250.8 1032.2,-255.3 1042.51,-257.76 1041.8,-250.8"/>
</a>
</g>
<text text-anchor="start" x="1109" y="-259" font-family="Helvetica,sans-Serif" font-size="10.00" fill="grey">&lt; TData, TProperty &gt;</text>
</g>
<!-- Node30 -->
<g id="Node000030" class="node">
<title>Node30</title>
<g id="a_Node000030"><a xlink:href="interfacefiftyone_1_1pipeline_1_1engines_1_1flowelements_1_1_aspect_engine.html" target="_top" xlink:title=" ">
<polygon fill="white" stroke="#666666" points="1602,-175.5 1292,-175.5 1292,-123.5 1602,-123.5 1602,-175.5"/>
<text text-anchor="start" x="1300" y="-163.5" font-family="Helvetica,sans-Serif" font-size="10.00">fiftyone.pipeline.engines.flowelements.</text>
<text text-anchor="start" x="1300" y="-152.5" font-family="Helvetica,sans-Serif" font-size="10.00">AspectEngine&lt;? extends fiftyone.pipeline.engines.data.</text>
<text text-anchor="start" x="1300" y="-141.5" font-family="Helvetica,sans-Serif" font-size="10.00">AspectData, ? extends fiftyone.pipeline.engines.data.Aspect</text>
<text text-anchor="middle" x="1447" y="-130.5" font-family="Helvetica,sans-Serif" font-size="10.00">PropertyMetaData &gt;</text>
</a>
</g>
</g>
<!-- Node1&#45;&gt;Node30 -->
<g id="edge34_Node000001_Node000030" class="edge">
<title>Node1&#45;&gt;Node30</title>
<g id="a_edge34_Node000001_Node000030"><a xlink:title=" ">
<path fill="none" stroke="orange" stroke-dasharray="5,2" d="M933.9,-241.33C959.19,-213.28 1002.32,-171.96 1050,-154.5 1126.35,-126.54 1216.65,-123.35 1291.74,-128"/>
<polygon fill="orange" stroke="orange" points="931.25,-239.05 927.25,-248.86 936.49,-243.68 931.25,-239.05"/>
</a>
</g>
<text text-anchor="start" x="1053" y="-220" font-family="Helvetica,sans-Serif" font-size="10.00" fill="grey">&lt;? extends fiftyone</text>
<text text-anchor="start" x="1053" y="-205" font-family="Helvetica,sans-Serif" font-size="10.00" fill="grey">  ::pipeline::engines</text>
<text text-anchor="start" x="1053" y="-190" font-family="Helvetica,sans-Serif" font-size="10.00" fill="grey">  ::data::AspectData, </text>
<text text-anchor="start" x="1053" y="-175" font-family="Helvetica,sans-Serif" font-size="10.00" fill="grey">  ? extends fiftyone::pipeline</text>
<text text-anchor="start" x="1053" y="-160" font-family="Helvetica,sans-Serif" font-size="10.00" fill="grey">  ::engines::data::AspectPropertyMetaData &gt;</text>
</g>
<!-- Node2 -->
<g id="Node000002" class="node">
<title>Node2</title>
<g id="a_Node000002"><a xlink:href="interfacefiftyone_1_1pipeline_1_1core_1_1flowelements_1_1_flow_element.html" target="_top" xlink:title="A component that processes a FlowData (by examining its evidence, or by examining data processed by o...">
<polygon fill="white" stroke="#666666" points="697,-290 444,-290 444,-249 697,-249 697,-290"/>
<text text-anchor="start" x="452" y="-278" font-family="Helvetica,sans-Serif" font-size="10.00">fiftyone.pipeline.core.flowelements.</text>
<text text-anchor="start" x="452" y="-267" font-family="Helvetica,sans-Serif" font-size="10.00">FlowElement&lt; TData extends ElementData,</text>
<text text-anchor="middle" x="570.5" y="-256" font-family="Helvetica,sans-Serif" font-size="10.00"> TProperty extends ElementPropertyMetaData &gt;</text>
</a>
</g>
</g>
<!-- Node2&#45;&gt;Node1 -->
<g id="edge1_Node000001_Node000002" class="edge">
<title>Node2&#45;&gt;Node1</title>
<g id="a_edge1_Node000001_Node000002"><a xlink:title=" ">
<path fill="none" stroke="#63b8ff" d="M707.47,-269.5C733.74,-269.5 761.11,-269.5 786.88,-269.5"/>
<polygon fill="#63b8ff" stroke="#63b8ff" points="707.47,-266 697.47,-269.5 707.47,-273 707.47,-266"/>
</a>
</g>
</g>
<!-- Node3 -->
<g id="Node000003" class="node">
<title>Node3</title>
<g id="a_Node000003"><a xlink:title=" ">
<polygon fill="white" stroke="#bfbfbf" points="324,-279 237,-279 237,-260 324,-260 324,-279"/>
<text text-anchor="middle" x="280.5" y="-267" font-family="Helvetica,sans-Serif" font-size="10.00">AutoCloseable</text>
</a>
</g>
</g>
<!-- Node3&#45;&gt;Node2 -->
<g id="edge2_Node000002_Node000003" class="edge">
<title>Node3&#45;&gt;Node2</title>
<g id="a_edge2_Node000002_Node000003"><a xlink:title=" ">
<path fill="none" stroke="#63b8ff" d="M334.37,-269.5C365.15,-269.5 405.37,-269.5 443.82,-269.5"/>
<polygon fill="#63b8ff" stroke="#63b8ff" points="334.31,-266 324.31,-269.5 334.31,-273 334.31,-266"/>
</a>
</g>
</g>
<!-- Node4 -->
<g id="Node000004" class="node">
<title>Node4</title>
<g id="a_Node000004"><a xlink:href="interfacefiftyone_1_1pipeline_1_1core_1_1data_1_1_element_data.html" target="_top" xlink:title="Represents property values that have be determined by a specific FlowElement based on the supplied ev...">
<polygon fill="white" stroke="#666666" points="354,-338.5 207,-338.5 207,-308.5 354,-308.5 354,-338.5"/>
<text text-anchor="start" x="215" y="-326.5" font-family="Helvetica,sans-Serif" font-size="10.00">fiftyone.pipeline.core.data.</text>
<text text-anchor="middle" x="280.5" y="-315.5" font-family="Helvetica,sans-Serif" font-size="10.00">ElementData</text>
</a>
</g>
</g>
<!-- Node4&#45;&gt;Node2 -->
<g id="edge3_Node000002_Node000004" class="edge">
<title>Node4&#45;&gt;Node2</title>
<g id="a_edge3_Node000002_Node000004"><a xlink:title=" ">
<path fill="none" stroke="orange" stroke-dasharray="5,2" d="M358.31,-306.27C362.94,-305.31 367.53,-304.38 372,-303.5 395.56,-298.87 420.76,-294.27 445.02,-290.01"/>
<polygon fill="orange" stroke="orange" points="357.21,-302.92 348.15,-308.4 358.65,-309.77 357.21,-302.92"/>
</a>
</g>
<text text-anchor="start" x="384" y="-309" font-family="Helvetica,sans-Serif" font-size="10.00" fill="grey">TData</text>
</g>
<!-- Node7 -->
<g id="Node000007" class="node">
<title>Node7</title>
<g id="a_Node000007"><a xlink:href="interfacefiftyone_1_1pipeline_1_1engines_1_1data_1_1_aspect_data.html" target="_top" xlink:title="Represents a specialized ElementData instance that is generated by an AspectEngine.">
<polygon fill="white" stroke="#666666" points="652.5,-343.5 488.5,-343.5 488.5,-313.5 652.5,-313.5 652.5,-343.5"/>
<text text-anchor="start" x="496.5" y="-331.5" font-family="Helvetica,sans-Serif" font-size="10.00">fiftyone.pipeline.engines.data.</text>
<text text-anchor="middle" x="570.5" y="-320.5" font-family="Helvetica,sans-Serif" font-size="10.00">AspectData</text>
</a>
</g>
</g>
<!-- Node4&#45;&gt;Node7 -->
<g id="edge7_Node000007_Node000004" class="edge">
<title>Node4&#45;&gt;Node7</title>
<g id="a_edge7_Node000007_Node000004"><a xlink:title=" ">
<path fill="none" stroke="#63b8ff" d="M364.44,-324.94C403.42,-325.62 449.73,-326.42 488.47,-327.09"/>
<polygon fill="#63b8ff" stroke="#63b8ff" points="364.23,-321.44 354.17,-324.76 364.11,-328.43 364.23,-321.44"/>
</a>
</g>
</g>
<!-- Node5 -->
<g id="Node000005" class="node">
<title>Node5</title>
<g id="a_Node000005"><a xlink:href="interfacefiftyone_1_1pipeline_1_1core_1_1data_1_1_data.html" target="_top" xlink:title="Represents a collection of property values.">
<polygon fill="white" stroke="#666666" points="170,-333 0,-333 0,-314 170,-314 170,-333"/>
<text text-anchor="middle" x="85" y="-321" font-family="Helvetica,sans-Serif" font-size="10.00">fiftyone.pipeline.core.data.Data</text>
</a>
</g>
</g>
<!-- Node5&#45;&gt;Node4 -->
<g id="edge4_Node000004_Node000005" class="edge">
<title>Node5&#45;&gt;Node4</title>
<g id="a_edge4_Node000004_Node000005"><a xlink:title=" ">
<path fill="none" stroke="#63b8ff" d="M180.11,-323.5C189.07,-323.5 198.06,-323.5 206.77,-323.5"/>
<polygon fill="#63b8ff" stroke="#63b8ff" points="180.03,-320 170.03,-323.5 180.03,-327 180.03,-320"/>
</a>
</g>
</g>
<!-- Node6 -->
<g id="Node000006" class="node">
<title>Node6</title>
<g id="a_Node000006"><a xlink:href="interfacefiftyone_1_1pipeline_1_1core_1_1data_1_1_element_property_meta_data.html" target="_top" xlink:title="Defines details of a property that can be returned by a FlowElement.">
<polygon fill="white" stroke="#666666" points="354,-230.5 207,-230.5 207,-200.5 354,-200.5 354,-230.5"/>
<text text-anchor="start" x="215" y="-218.5" font-family="Helvetica,sans-Serif" font-size="10.00">fiftyone.pipeline.core.data.</text>
<text text-anchor="middle" x="280.5" y="-207.5" font-family="Helvetica,sans-Serif" font-size="10.00">ElementPropertyMetaData</text>
</a>
</g>
</g>
<!-- Node6&#45;&gt;Node2 -->
<g id="edge5_Node000002_Node000006" class="edge">
<title>Node6&#45;&gt;Node2</title>
<g id="a_edge5_Node000002_Node000006"><a xlink:title=" ">
<path fill="none" stroke="orange" stroke-dasharray="5,2" d="M364.13,-230.99C394.02,-236.6 428.24,-243.01 460.07,-248.98"/>
<polygon fill="orange" stroke="orange" points="364.65,-227.53 354.17,-229.13 363.36,-234.41 364.65,-227.53"/>
</a>
</g>
<text text-anchor="start" x="375" y="-248" font-family="Helvetica,sans-Serif" font-size="10.00" fill="grey">TProperty</text>
</g>
<!-- Node8 -->
<g id="Node000008" class="node">
<title>Node8</title>
<g id="a_Node000008"><a xlink:href="interfacefiftyone_1_1pipeline_1_1engines_1_1data_1_1_aspect_property_meta_data.html" target="_top" xlink:title="Holds details about a property that can be returned by an AspectEngine.">
<polygon fill="white" stroke="#666666" points="652.5,-225.5 488.5,-225.5 488.5,-195.5 652.5,-195.5 652.5,-225.5"/>
<text text-anchor="start" x="496.5" y="-213.5" font-family="Helvetica,sans-Serif" font-size="10.00">fiftyone.pipeline.engines.data.</text>
<text text-anchor="middle" x="570.5" y="-202.5" font-family="Helvetica,sans-Serif" font-size="10.00">AspectPropertyMetaData</text>
</a>
</g>
</g>
<!-- Node6&#45;&gt;Node8 -->
<g id="edge9_Node000008_Node000006" class="edge">
<title>Node6&#45;&gt;Node8</title>
<g id="a_edge9_Node000008_Node000006"><a xlink:title=" ">
<path fill="none" stroke="#63b8ff" d="M364.44,-214.06C403.42,-213.38 449.73,-212.58 488.47,-211.91"/>
<polygon fill="#63b8ff" stroke="#63b8ff" points="364.11,-210.57 354.17,-214.24 364.23,-217.56 364.11,-210.57"/>
</a>
</g>
</g>
<!-- Node7&#45;&gt;Node1 -->
<g id="edge6_Node000001_Node000007" class="edge">
<title>Node7&#45;&gt;Node1</title>
<g id="a_edge6_Node000001_Node000007"><a xlink:title=" ">
<path fill="none" stroke="orange" stroke-dasharray="5,2" d="M662.54,-312.56C702.11,-305.63 748.95,-297.43 791.09,-290.06"/>
<polygon fill="orange" stroke="orange" points="661.9,-309.12 652.65,-314.29 663.1,-316.02 661.9,-309.12"/>
</a>
</g>
<text text-anchor="start" x="727" y="-308" font-family="Helvetica,sans-Serif" font-size="10.00" fill="grey">TData</text>
</g>
<!-- Node8&#45;&gt;Node1 -->
<g id="edge8_Node000001_Node000008" class="edge">
<title>Node8&#45;&gt;Node1</title>
<g id="a_edge8_Node000001_Node000008"><a xlink:title=" ">
<path fill="none" stroke="orange" stroke-dasharray="5,2" d="M662.54,-226.44C702.11,-233.37 748.95,-241.57 791.09,-248.94"/>
<polygon fill="orange" stroke="orange" points="663.1,-222.98 652.65,-224.71 661.9,-229.88 663.1,-222.98"/>
</a>
</g>
<text text-anchor="start" x="718" y="-250" font-family="Helvetica,sans-Serif" font-size="10.00" fill="grey">TProperty</text>
</g>
<!-- Node10 -->
<g id="Node000010" class="node">
<title>Node10</title>
<g id="a_Node000010"><a xlink:href="classfiftyone_1_1pipeline_1_1cloudrequestengine_1_1flowelements_1_1_cloud_request_engine_default.html" target="_top" xlink:title="Engine that makes requests to the 51Degrees cloud service.">
<polygon fill="white" stroke="#666666" points="1905,-438.5 1639,-438.5 1639,-408.5 1905,-408.5 1905,-438.5"/>
<text text-anchor="start" x="1647" y="-426.5" font-family="Helvetica,sans-Serif" font-size="10.00">fiftyone.pipeline.cloudrequestengine.flowelements.</text>
<text text-anchor="middle" x="1772" y="-415.5" font-family="Helvetica,sans-Serif" font-size="10.00">CloudRequestEngineDefault</text>
</a>
</g>
</g>
<!-- Node9&#45;&gt;Node10 -->
<g id="edge11_Node000009_Node000010" class="edge">
<title>Node9&#45;&gt;Node10</title>
<g id="a_edge11_Node000009_Node000010"><a xlink:title=" ">
<path fill="none" stroke="#63b8ff" d="M1590.33,-407.84C1606.48,-409.24 1622.89,-410.66 1638.9,-412.05"/>
<polygon fill="#63b8ff" stroke="#63b8ff" points="1590.57,-404.35 1580.31,-406.97 1589.97,-411.32 1590.57,-404.35"/>
</a>
</g>
</g>
<!-- Node13 -->
<g id="Node000013" class="node">
<title>Node13</title>
<g id="a_Node000013"><a xlink:href="classfiftyone_1_1pipeline_1_1engines_1_1flowelements_1_1_aspect_engine_base.html" target="_top" xlink:title="Base class for AspectEngines to extend.">
<polygon fill="white" stroke="#666666" points="1896,-230.5 1648,-230.5 1648,-178.5 1896,-178.5 1896,-230.5"/>
<text text-anchor="start" x="1656" y="-218.5" font-family="Helvetica,sans-Serif" font-size="10.00">fiftyone.pipeline.engines.flowelements.</text>
<text text-anchor="start" x="1656" y="-207.5" font-family="Helvetica,sans-Serif" font-size="10.00">AspectEngineBase&lt; TData extends</text>
<text text-anchor="start" x="1656" y="-196.5" font-family="Helvetica,sans-Serif" font-size="10.00"> AspectData, TProperty extends AspectProperty</text>
<text text-anchor="middle" x="1772" y="-185.5" font-family="Helvetica,sans-Serif" font-size="10.00">MetaData &gt;</text>
</a>
</g>
</g>
<!-- Node12&#45;&gt;Node13 -->
<g id="edge14_Node000012_Node000013" class="edge">
<title>Node12&#45;&gt;Node13</title>
<g id="a_edge14_Node000012_Node000013"><a xlink:title=" ">
<path fill="none" stroke="#63b8ff" d="M1561.69,-215.52C1589.54,-214.05 1619.47,-212.48 1647.75,-210.99"/>
<polygon fill="#63b8ff" stroke="#63b8ff" points="1561.33,-212.03 1551.53,-216.05 1561.7,-219.02 1561.33,-212.03"/>
</a>
</g>
</g>
<!-- Node24 -->
<g id="Node000024" class="node">
<title>Node24</title>
<g id="a_Node000024"><a xlink:href="interfacefiftyone_1_1pipeline_1_1engines_1_1flowelements_1_1_cloud_aspect_engine.html" target="_top" xlink:title="Aspect engine interface which is specific to a cloud engine.">
<polygon fill="white" stroke="#666666" points="1896,-105.5 1648,-105.5 1648,-53.5 1896,-53.5 1896,-105.5"/>
<text text-anchor="start" x="1656" y="-93.5" font-family="Helvetica,sans-Serif" font-size="10.00">fiftyone.pipeline.engines.flowelements.</text>
<text text-anchor="start" x="1656" y="-82.5" font-family="Helvetica,sans-Serif" font-size="10.00">CloudAspectEngine&lt; TData extends</text>
<text text-anchor="start" x="1656" y="-71.5" font-family="Helvetica,sans-Serif" font-size="10.00"> AspectData, TProperty extends AspectProperty</text>
<text text-anchor="middle" x="1772" y="-60.5" font-family="Helvetica,sans-Serif" font-size="10.00">MetaData &gt;</text>
</a>
</g>
</g>
<!-- Node12&#45;&gt;Node24 -->
<g id="edge25_Node000012_Node000024" class="edge">
<title>Node12&#45;&gt;Node24</title>
<g id="a_edge25_Node000012_Node000024"><a xlink:title=" ">
<path fill="none" stroke="#63b8ff" d="M1541.75,-204.04C1562.01,-198.88 1583.03,-192.43 1602,-184.5 1651.72,-163.72 1703.6,-129.28 1736.54,-105.54"/>
<polygon fill="#63b8ff" stroke="#63b8ff" points="1540.75,-200.69 1531.87,-206.48 1542.42,-207.48 1540.75,-200.69"/>
</a>
</g>
</g>
<!-- Node26 -->
<g id="Node000026" class="node">
<title>Node26</title>
<g id="a_Node000026"><a xlink:href="interfacefiftyone_1_1pipeline_1_1engines_1_1flowelements_1_1_on_premise_aspect_engine.html" target="_top" xlink:title="Aspect engine interface which processes data internally using a data file and populates the results.">
<polygon fill="white" stroke="#666666" points="1896,-390.5 1648,-390.5 1648,-338.5 1896,-338.5 1896,-390.5"/>
<text text-anchor="start" x="1656" y="-378.5" font-family="Helvetica,sans-Serif" font-size="10.00">fiftyone.pipeline.engines.flowelements.</text>
<text text-anchor="start" x="1656" y="-367.5" font-family="Helvetica,sans-Serif" font-size="10.00">OnPremiseAspectEngine&lt; TData extends</text>
<text text-anchor="start" x="1656" y="-356.5" font-family="Helvetica,sans-Serif" font-size="10.00"> AspectData, TProperty extends AspectProperty</text>
<text text-anchor="middle" x="1772" y="-345.5" font-family="Helvetica,sans-Serif" font-size="10.00">MetaData &gt;</text>
</a>
</g>
</g>
<!-- Node12&#45;&gt;Node26 -->
<g id="edge28_Node000012_Node000026" class="edge">
<title>Node12&#45;&gt;Node26</title>
<g id="a_edge28_Node000012_Node000026"><a xlink:title=" ">
<path fill="none" stroke="#63b8ff" d="M1536.59,-239.05C1558.4,-244.69 1581.4,-251.79 1602,-260.5 1651.19,-281.29 1702.77,-315.03 1735.81,-338.42"/>
<polygon fill="#63b8ff" stroke="#63b8ff" points="1537.22,-235.6 1526.66,-236.56 1535.51,-242.39 1537.22,-235.6"/>
</a>
</g>
</g>
<!-- Node14 -->
<g id="Node000014" class="node">
<title>Node14</title>
<g id="a_Node000014"><a xlink:href="classfiftyone_1_1pipeline_1_1cloudrequestengine_1_1flowelements_1_1_cloud_aspect_engine_base.html" target="_top" xlink:title="Base class for 51Degrees Cloud Aspect Engines.">
<polygon fill="white" stroke="#666666" points="2444,-100 2178,-100 2178,-59 2444,-59 2444,-100"/>
<text text-anchor="start" x="2186" y="-88" font-family="Helvetica,sans-Serif" font-size="10.00">fiftyone.pipeline.cloudrequestengine.flowelements.</text>
<text text-anchor="start" x="2186" y="-77" font-family="Helvetica,sans-Serif" font-size="10.00">CloudAspectEngineBase&lt; TData extends</text>
<text text-anchor="middle" x="2311" y="-66" font-family="Helvetica,sans-Serif" font-size="10.00"> AspectData &gt;</text>
</a>
</g>
</g>
<!-- Node13&#45;&gt;Node14 -->
<g id="edge15_Node000013_Node000014" class="edge">
<title>Node13&#45;&gt;Node14</title>
<g id="a_edge15_Node000013_Node000014"><a xlink:title=" ">
<path fill="none" stroke="#63b8ff" d="M1833.46,-174.11C1860.3,-161.72 1892.63,-148.28 1923,-139.5 2006.12,-115.48 2102.22,-100.51 2177.87,-91.53"/>
<polygon fill="#63b8ff" stroke="#63b8ff" points="1831.78,-171.03 1824.2,-178.43 1834.75,-177.37 1831.78,-171.03"/>
</a>
</g>
</g>
<!-- Node17 -->
<g id="Node000017" class="node">
<title>Node17</title>
<g id="a_Node000017"><a xlink:href="classfiftyone_1_1pipeline_1_1cloudrequestengine_1_1flowelements_1_1_cloud_request_engine_default.html" target="_top" xlink:title="Engine that makes requests to the 51Degrees cloud service.">
<polygon fill="white" stroke="#666666" points="2444,-218 2178,-218 2178,-177 2444,-177 2444,-218"/>
<text text-anchor="start" x="2186" y="-206" font-family="Helvetica,sans-Serif" font-size="10.00">fiftyone.pipeline.cloudrequestengine.flowelements.</text>
<text text-anchor="start" x="2186" y="-195" font-family="Helvetica,sans-Serif" font-size="10.00">CloudRequestEngineDefault&lt; CloudRequestData,</text>
<text text-anchor="middle" x="2311" y="-184" font-family="Helvetica,sans-Serif" font-size="10.00"> AspectPropertyMetaData &gt;</text>
</a>
</g>
</g>
<!-- Node13&#45;&gt;Node17 -->
<g id="edge18_Node000013_Node000017" class="edge">
<title>Node13&#45;&gt;Node17</title>
<g id="a_edge18_Node000013_Node000017"><a xlink:title=" ">
<path fill="none" stroke="#63b8ff" d="M1906.44,-202.76C1989.31,-201.68 2095.39,-200.3 2177.99,-199.22"/>
<polygon fill="#63b8ff" stroke="#63b8ff" points="1906.15,-199.26 1896.2,-202.89 1906.24,-206.26 1906.15,-199.26"/>
</a>
</g>
</g>
<!-- Node18 -->
<g id="Node000018" class="node">
<title>Node18</title>
<g id="a_Node000018"><a xlink:href="classfiftyone_1_1pipeline_1_1engines_1_1flowelements_1_1_aspect_engine_base.html" target="_top" xlink:title=" ">
<polygon fill="white" stroke="#666666" points="2424.5,-159 2197.5,-159 2197.5,-118 2424.5,-118 2424.5,-159"/>
<text text-anchor="start" x="2205.5" y="-147" font-family="Helvetica,sans-Serif" font-size="10.00">fiftyone.pipeline.engines.flowelements.</text>
<text text-anchor="start" x="2205.5" y="-136" font-family="Helvetica,sans-Serif" font-size="10.00">AspectEngineBase&lt; TData, AspectProperty</text>
<text text-anchor="middle" x="2311" y="-125" font-family="Helvetica,sans-Serif" font-size="10.00">MetaData &gt;</text>
</a>
</g>
</g>
<!-- Node13&#45;&gt;Node18 -->
<g id="edge19_Node000013_Node000018" class="edge">
<title>Node13&#45;&gt;Node18</title>
<g id="a_edge19_Node000013_Node000018"><a xlink:title=" ">
<path fill="none" stroke="orange" stroke-dasharray="5,2" d="M1869.04,-175.95C1886.85,-171.49 1905.39,-167.41 1923,-164.5 2014.52,-149.37 2119.6,-142.99 2197.15,-140.33"/>
<polygon fill="orange" stroke="orange" points="1868.05,-172.59 1859.23,-178.45 1869.79,-179.37 1868.05,-172.59"/>
</a>
</g>
<text text-anchor="start" x="1962" y="-185.5" font-family="Helvetica,sans-Serif" font-size="10.00" fill="grey">&lt; TData, AspectPropertyMeta</text>
<text text-anchor="start" x="1962" y="-170.5" font-family="Helvetica,sans-Serif" font-size="10.00" fill="grey">  Data &gt;</text>
</g>
<!-- Node19 -->
<g id="Node000019" class="node">
<title>Node19</title>
<g id="a_Node000019"><a xlink:href="classfiftyone_1_1pipeline_1_1engines_1_1flowelements_1_1_aspect_engine_base.html" target="_top" xlink:title=" ">
<polygon fill="white" stroke="#666666" points="2417,-277 2205,-277 2205,-236 2417,-236 2417,-277"/>
<text text-anchor="start" x="2213" y="-265" font-family="Helvetica,sans-Serif" font-size="10.00">fiftyone.pipeline.engines.flowelements.</text>
<text text-anchor="start" x="2213" y="-254" font-family="Helvetica,sans-Serif" font-size="10.00">AspectEngineBase&lt; CloudRequestData,</text>
<text text-anchor="middle" x="2311" y="-243" font-family="Helvetica,sans-Serif" font-size="10.00"> AspectPropertyMetaData &gt;</text>
</a>
</g>
</g>
<!-- Node13&#45;&gt;Node19 -->
<g id="edge20_Node000013_Node000019" class="edge">
<title>Node13&#45;&gt;Node19</title>
<g id="a_edge20_Node000013_Node000019"><a xlink:title=" ">
<path fill="none" stroke="orange" stroke-dasharray="5,2" d="M1906.43,-217.42C1998.5,-226.34 2119.24,-238.03 2204.58,-246.29"/>
<polygon fill="orange" stroke="orange" points="1906.49,-213.91 1896.2,-216.43 1905.81,-220.88 1906.49,-213.91"/>
</a>
</g>
<text text-anchor="start" x="1964" y="-261.5" font-family="Helvetica,sans-Serif" font-size="10.00" fill="grey">&lt; CloudRequestData,</text>
<text text-anchor="start" x="1964" y="-246.5" font-family="Helvetica,sans-Serif" font-size="10.00" fill="grey">   AspectPropertyMetaData &gt;</text>
</g>
<!-- Node20 -->
<g id="Node000020" class="node">
<title>Node20</title>
<g id="a_Node000020"><a xlink:href="classfiftyone_1_1pipeline_1_1engines_1_1flowelements_1_1_aspect_engine_base.html" target="_top" xlink:title=" ">
<polygon fill="white" stroke="#666666" points="2417,-325.5 2205,-325.5 2205,-295.5 2417,-295.5 2417,-325.5"/>
<text text-anchor="start" x="2213" y="-313.5" font-family="Helvetica,sans-Serif" font-size="10.00">fiftyone.pipeline.engines.flowelements.</text>
<text text-anchor="middle" x="2311" y="-302.5" font-family="Helvetica,sans-Serif" font-size="10.00">AspectEngineBase&lt; TData, TProperty &gt;</text>
</a>
</g>
</g>
<!-- Node13&#45;&gt;Node20 -->
<g id="edge21_Node000013_Node000020" class="edge">
<title>Node13&#45;&gt;Node20</title>
<g id="a_edge21_Node000013_Node000020"><a xlink:title=" ">
<path fill="none" stroke="orange" stroke-dasharray="5,2" d="M1825.46,-235.44C1853.46,-250.44 1889.06,-267.2 1923,-276.5 2016.02,-302 2125.87,-309.62 2204.73,-311.38"/>
<polygon fill="orange" stroke="orange" points="1827.1,-232.35 1816.65,-230.64 1823.76,-238.5 1827.1,-232.35"/>
</a>
</g>
<text text-anchor="start" x="1982" y="-314" font-family="Helvetica,sans-Serif" font-size="10.00" fill="grey">&lt; TData, TProperty &gt;</text>
</g>
<!-- Node15 -->
<g id="Node000015" class="node">
<title>Node15</title>
<g id="a_Node000015"><a xlink:href="classfiftyone_1_1pipeline_1_1cloudrequestengine_1_1flowelements_1_1_cloud_aspect_engine_base.html" target="_top" xlink:title=" ">
<polygon fill="white" stroke="#666666" points="2817,-94.5 2551,-94.5 2551,-64.5 2817,-64.5 2817,-94.5"/>
<text text-anchor="start" x="2559" y="-82.5" font-family="Helvetica,sans-Serif" font-size="10.00">fiftyone.pipeline.cloudrequestengine.flowelements.</text>
<text text-anchor="middle" x="2684" y="-71.5" font-family="Helvetica,sans-Serif" font-size="10.00">CloudAspectEngineBase&lt; TData &gt;</text>
</a>
</g>
</g>
<!-- Node14&#45;&gt;Node15 -->
<g id="edge16_Node000014_Node000015" class="edge">
<title>Node14&#45;&gt;Node15</title>
<g id="a_edge16_Node000014_Node000015"><a xlink:title=" ">
<path fill="none" stroke="orange" stroke-dasharray="5,2" d="M2454.33,-79.5C2486.04,-79.5 2519.54,-79.5 2550.82,-79.5"/>
<polygon fill="orange" stroke="orange" points="2454.11,-76 2444.11,-79.5 2454.11,-83 2454.11,-76"/>
</a>
</g>
<text text-anchor="start" x="2478" y="-85" font-family="Helvetica,sans-Serif" font-size="10.00" fill="grey">&lt; TData &gt;</text>
</g>
<!-- Node16 -->
<g id="Node000016" class="node">
<title>Node16</title>
<g id="a_Node000016"><a xlink:href="classfiftyone_1_1pipeline_1_1cloudrequestengine_1_1flowelements_1_1_property_keyed_cloud_engine_base.html" target="_top" xlink:title="A specialised type of CloudAspectEngineBase that has the functionality to support returning a list of...">
<polygon fill="white" stroke="#666666" points="3231,-105.5 2965,-105.5 2965,-53.5 3231,-53.5 3231,-105.5"/>
<text text-anchor="start" x="2973" y="-93.5" font-family="Helvetica,sans-Serif" font-size="10.00">fiftyone.pipeline.cloudrequestengine.flowelements.</text>
<text text-anchor="start" x="2973" y="-82.5" font-family="Helvetica,sans-Serif" font-size="10.00">PropertyKeyedCloudEngineBase&lt; TData</text>
<text text-anchor="start" x="2973" y="-71.5" font-family="Helvetica,sans-Serif" font-size="10.00"> extends MultiProfileData&lt; TProfile</text>
<text text-anchor="middle" x="3098" y="-60.5" font-family="Helvetica,sans-Serif" font-size="10.00"> &gt;, TProfile extends AspectData &gt;</text>
</a>
</g>
</g>
<!-- Node15&#45;&gt;Node16 -->
<g id="edge17_Node000015_Node000016" class="edge">
<title>Node15&#45;&gt;Node16</title>
<g id="a_edge17_Node000015_Node000016"><a xlink:title=" ">
<path fill="none" stroke="#63b8ff" d="M2827.12,-79.5C2871.84,-79.5 2921,-79.5 2964.98,-79.5"/>
<polygon fill="#63b8ff" stroke="#63b8ff" points="2827.06,-76 2817.06,-79.5 2827.06,-83 2827.06,-76"/>
</a>
</g>
</g>
<!-- Node21 -->
<g id="Node000021" class="node">
<title>Node21</title>
<g id="a_Node000021"><a xlink:href="classfiftyone_1_1pipeline_1_1engines_1_1flowelements_1_1_on_premise_aspect_engine_base.html" target="_top" xlink:title="Base class for on&#45;premise aspect engines.">
<polygon fill="white" stroke="#666666" points="2790.5,-363.5 2577.5,-363.5 2577.5,-311.5 2790.5,-311.5 2790.5,-363.5"/>
<text text-anchor="start" x="2585.5" y="-351.5" font-family="Helvetica,sans-Serif" font-size="10.00">fiftyone.pipeline.engines.flowelements.</text>
<text text-anchor="start" x="2585.5" y="-340.5" font-family="Helvetica,sans-Serif" font-size="10.00">OnPremiseAspectEngineBase&lt; TData</text>
<text text-anchor="start" x="2585.5" y="-329.5" font-family="Helvetica,sans-Serif" font-size="10.00"> extends AspectData, TProperty extends</text>
<text text-anchor="middle" x="2684" y="-318.5" font-family="Helvetica,sans-Serif" font-size="10.00"> AspectPropertyMetaData &gt;</text>
</a>
</g>
</g>
<!-- Node20&#45;&gt;Node21 -->
<g id="edge22_Node000020_Node000021" class="edge">
<title>Node20&#45;&gt;Node21</title>
<g id="a_edge22_Node000020_Node000021"><a xlink:title=" ">
<path fill="none" stroke="#63b8ff" d="M2427.43,-318.9C2475.35,-322.39 2530.58,-326.41 2577.42,-329.82"/>
<polygon fill="#63b8ff" stroke="#63b8ff" points="2427.55,-315.4 2417.32,-318.16 2427.04,-322.38 2427.55,-315.4"/>
</a>
</g>
</g>
<!-- Node22 -->
<g id="Node000022" class="node">
<title>Node22</title>
<g id="a_Node000022"><a xlink:href="classfiftyone_1_1pipeline_1_1engines_1_1fiftyone_1_1flowelements_1_1_fifty_one_on_premise_aspect_engine_base.html" target="_top" xlink:title="51Degrees specific engine base class.">
<polygon fill="white" stroke="#666666" points="3222,-330.5 2974,-330.5 2974,-278.5 3222,-278.5 3222,-330.5"/>
<text text-anchor="start" x="2982" y="-318.5" font-family="Helvetica,sans-Serif" font-size="10.00">fiftyone.pipeline.engines.fiftyone.flowelements.</text>
<text text-anchor="start" x="2982" y="-307.5" font-family="Helvetica,sans-Serif" font-size="10.00">FiftyOneOnPremiseAspectEngineBase</text>
<text text-anchor="start" x="2982" y="-296.5" font-family="Helvetica,sans-Serif" font-size="10.00">&lt; TData extends AspectData, TProperty</text>
<text text-anchor="middle" x="3098" y="-285.5" font-family="Helvetica,sans-Serif" font-size="10.00"> extends FiftyOneAspectPropertyMetaData &gt;</text>
</a>
</g>
</g>
<!-- Node21&#45;&gt;Node22 -->
<g id="edge23_Node000021_Node000022" class="edge">
<title>Node21&#45;&gt;Node22</title>
<g id="a_edge23_Node000021_Node000022"><a xlink:title=" ">
<path fill="none" stroke="#63b8ff" d="M2800.86,-328.22C2854.79,-323.9 2918.98,-318.76 2973.8,-314.37"/>
<polygon fill="#63b8ff" stroke="#63b8ff" points="2800.25,-324.76 2790.57,-329.04 2800.81,-331.73 2800.25,-324.76"/>
</a>
</g>
</g>
<!-- Node23 -->
<g id="Node000023" class="node">
<title>Node23</title>
<g id="a_Node000023"><a xlink:href="classfiftyone_1_1pipeline_1_1engines_1_1flowelements_1_1_on_premise_aspect_engine_base.html" target="_top" xlink:title=" ">
<polygon fill="white" stroke="#666666" points="3202.5,-390 2993.5,-390 2993.5,-349 3202.5,-349 3202.5,-390"/>
<text text-anchor="start" x="3001.5" y="-378" font-family="Helvetica,sans-Serif" font-size="10.00">fiftyone.pipeline.engines.flowelements.</text>
<text text-anchor="start" x="3001.5" y="-367" font-family="Helvetica,sans-Serif" font-size="10.00">OnPremiseAspectEngineBase&lt; TData,</text>
<text text-anchor="middle" x="3098" y="-356" font-family="Helvetica,sans-Serif" font-size="10.00"> TProperty &gt;</text>
</a>
</g>
</g>
<!-- Node21&#45;&gt;Node23 -->
<g id="edge24_Node000021_Node000023" class="edge">
<title>Node21&#45;&gt;Node23</title>
<g id="a_edge24_Node000021_Node000023"><a xlink:title=" ">
<path fill="none" stroke="orange" stroke-dasharray="5,2" d="M2800.56,-346.48C2861.15,-351.18 2934.78,-356.9 2993.49,-361.46"/>
<polygon fill="orange" stroke="orange" points="2800.81,-342.98 2790.57,-345.7 2800.26,-349.96 2800.81,-342.98"/>
</a>
</g>
<text text-anchor="start" x="2838" y="-362" font-family="Helvetica,sans-Serif" font-size="10.00" fill="grey">&lt; TData, TProperty &gt;</text>
</g>
<!-- Node24&#45;&gt;Node14 -->
<g id="edge26_Node000024_Node000014" class="edge">
<title>Node24&#45;&gt;Node14</title>
<g id="a_edge26_Node000024_Node000014"><a xlink:title=" ">
<path fill="none" stroke="#63b8ff" d="M1906.44,-79.5C1989.31,-79.5 2095.39,-79.5 2177.99,-79.5"/>
<polygon fill="#63b8ff" stroke="#63b8ff" points="1906.2,-76 1896.2,-79.5 1906.2,-83 1906.2,-76"/>
</a>
</g>
</g>
<!-- Node25 -->
<g id="Node000025" class="node">
<title>Node25</title>
<g id="a_Node000025"><a xlink:href="interfacefiftyone_1_1pipeline_1_1engines_1_1flowelements_1_1_cloud_aspect_engine.html" target="_top" xlink:title=" ">
<polygon fill="white" stroke="#666666" points="2426.5,-41 2195.5,-41 2195.5,0 2426.5,0 2426.5,-41"/>
<text text-anchor="start" x="2203.5" y="-29" font-family="Helvetica,sans-Serif" font-size="10.00">fiftyone.pipeline.engines.flowelements.</text>
<text text-anchor="start" x="2203.5" y="-18" font-family="Helvetica,sans-Serif" font-size="10.00">CloudAspectEngine&lt; TData, AspectProperty</text>
<text text-anchor="middle" x="2311" y="-7" font-family="Helvetica,sans-Serif" font-size="10.00">MetaData &gt;</text>
</a>
</g>
</g>
<!-- Node24&#45;&gt;Node25 -->
<g id="edge27_Node000024_Node000025" class="edge">
<title>Node24&#45;&gt;Node25</title>
<g id="a_edge27_Node000024_Node000025"><a xlink:title=" ">
<path fill="none" stroke="orange" stroke-dasharray="5,2" d="M1880.37,-51.32C1894.63,-48.29 1909.12,-45.56 1923,-43.5 2013.88,-30 2117.87,-24.36 2195.15,-22.03"/>
<polygon fill="orange" stroke="orange" points="1879.57,-47.91 1870.55,-53.46 1881.07,-54.75 1879.57,-47.91"/>
</a>
</g>
<text text-anchor="start" x="1962" y="-64.5" font-family="Helvetica,sans-Serif" font-size="10.00" fill="grey">&lt; TData, AspectPropertyMeta</text>
<text text-anchor="start" x="1962" y="-49.5" font-family="Helvetica,sans-Serif" font-size="10.00" fill="grey">  Data &gt;</text>
</g>
<!-- Node27 -->
<g id="Node000027" class="node">
<title>Node27</title>
<g id="a_Node000027"><a xlink:href="interfacefiftyone_1_1pipeline_1_1engines_1_1fiftyone_1_1flowelements_1_1_fifty_one_aspect_engine.html" target="_top" xlink:title="51Degrees specific Engine interface.">
<polygon fill="white" stroke="#666666" points="2455.5,-455.5 2166.5,-455.5 2166.5,-403.5 2455.5,-403.5 2455.5,-455.5"/>
<text text-anchor="start" x="2174.5" y="-443.5" font-family="Helvetica,sans-Serif" font-size="10.00">fiftyone.pipeline.engines.fiftyone.flowelements.</text>
<text text-anchor="start" x="2174.5" y="-432.5" font-family="Helvetica,sans-Serif" font-size="10.00">FiftyOneAspectEngine&lt; TData extends</text>
<text text-anchor="start" x="2174.5" y="-421.5" font-family="Helvetica,sans-Serif" font-size="10.00"> AspectData, TProperty extends FiftyOneAspectProperty</text>
<text text-anchor="middle" x="2311" y="-410.5" font-family="Helvetica,sans-Serif" font-size="10.00">MetaData &gt;</text>
</a>
</g>
</g>
<!-- Node26&#45;&gt;Node27 -->
<g id="edge29_Node000026_Node000027" class="edge">
<title>Node26&#45;&gt;Node27</title>
<g id="a_edge29_Node000026_Node000027"><a xlink:title=" ">
<path fill="none" stroke="#63b8ff" d="M1906.34,-383.35C1911.97,-384.09 1917.54,-384.81 1923,-385.5 2003.33,-395.69 2093.19,-405.97 2166.08,-414.03"/>
<polygon fill="#63b8ff" stroke="#63b8ff" points="1906.53,-379.84 1896.16,-382 1905.62,-386.78 1906.53,-379.84"/>
</a>
</g>
</g>
<!-- Node28 -->
<g id="Node000028" class="node">
<title>Node28</title>
<g id="a_Node000028"><a xlink:href="interfacefiftyone_1_1pipeline_1_1engines_1_1flowelements_1_1_on_premise_aspect_engine.html" target="_top" xlink:title=" ">
<polygon fill="white" stroke="#666666" points="2415.5,-385 2206.5,-385 2206.5,-344 2415.5,-344 2415.5,-385"/>
<text text-anchor="start" x="2214.5" y="-373" font-family="Helvetica,sans-Serif" font-size="10.00">fiftyone.pipeline.engines.flowelements.</text>
<text text-anchor="start" x="2214.5" y="-362" font-family="Helvetica,sans-Serif" font-size="10.00">OnPremiseAspectEngine&lt; TData,</text>
<text text-anchor="middle" x="2311" y="-351" font-family="Helvetica,sans-Serif" font-size="10.00"> TProperty &gt;</text>
</a>
</g>
</g>
<!-- Node26&#45;&gt;Node28 -->
<g id="edge31_Node000026_Node000028" class="edge">
<title>Node26&#45;&gt;Node28</title>
<g id="a_edge31_Node000026_Node000028"><a xlink:title=" ">
<path fill="none" stroke="orange" stroke-dasharray="5,2" d="M1906.22,-364.5C1998.95,-364.5 2120.84,-364.5 2206.34,-364.5"/>
<polygon fill="orange" stroke="orange" points="1906.2,-361 1896.2,-364.5 1906.2,-368 1906.2,-361"/>
</a>
</g>
<text text-anchor="start" x="1982" y="-370" font-family="Helvetica,sans-Serif" font-size="10.00" fill="grey">&lt; TData, TProperty &gt;</text>
</g>
<!-- Node29 -->
<g id="Node000029" class="node">
<title>Node29</title>
<g id="a_Node000029"><a xlink:href="interfacefiftyone_1_1pipeline_1_1engines_1_1flowelements_1_1_on_premise_aspect_engine.html" target="_top" xlink:title=" ">
<polygon fill="white" stroke="#666666" points="2457,-572 2165,-572 2165,-509 2457,-509 2457,-572"/>
<text text-anchor="start" x="2173" y="-560" font-family="Helvetica,sans-Serif" font-size="10.00">fiftyone.pipeline.engines.flowelements.</text>
<text text-anchor="start" x="2173" y="-549" font-family="Helvetica,sans-Serif" font-size="10.00">OnPremiseAspectEngine&lt;? extends</text>
<text text-anchor="start" x="2173" y="-538" font-family="Helvetica,sans-Serif" font-size="10.00"> fiftyone.pipeline.engines.data.AspectData,</text>
<text text-anchor="start" x="2173" y="-527" font-family="Helvetica,sans-Serif" font-size="10.00"> ? extends fiftyone.pipeline.engines.data.AspectProperty</text>
<text text-anchor="middle" x="2311" y="-516" font-family="Helvetica,sans-Serif" font-size="10.00">MetaData &gt;</text>
</a>
</g>
</g>
<!-- Node26&#45;&gt;Node29 -->
<g id="edge33_Node000026_Node000029" class="edge">
<title>Node26&#45;&gt;Node29</title>
<g id="a_edge33_Node000026_Node000029"><a xlink:title=" ">
<path fill="none" stroke="orange" stroke-dasharray="5,2" d="M1892.31,-394.17C1896.63,-395.86 1900.88,-397.64 1905,-399.5 1913.77,-403.45 1914.42,-407.16 1923,-411.5 2025.12,-463.17 2056.09,-464.35 2165,-499.5 2174.83,-502.67 2185.09,-505.84 2195.39,-508.94"/>
<polygon fill="orange" stroke="orange" points="1893.34,-390.82 1882.75,-390.58 1890.89,-397.37 1893.34,-390.82"/>
</a>
</g>
<text text-anchor="start" x="1926" y="-559" font-family="Helvetica,sans-Serif" font-size="10.00" fill="grey">&lt;? extends fiftyone</text>
<text text-anchor="start" x="1926" y="-544" font-family="Helvetica,sans-Serif" font-size="10.00" fill="grey">  ::pipeline::engines</text>
<text text-anchor="start" x="1926" y="-529" font-family="Helvetica,sans-Serif" font-size="10.00" fill="grey">  ::data::AspectData, </text>
<text text-anchor="start" x="1926" y="-514" font-family="Helvetica,sans-Serif" font-size="10.00" fill="grey">  ? extends fiftyone::pipeline</text>
<text text-anchor="start" x="1926" y="-499" font-family="Helvetica,sans-Serif" font-size="10.00" fill="grey">  ::engines::data::AspectPropertyMetaData &gt;</text>
</g>
<!-- Node27&#45;&gt;Node27 -->
<g id="edge30_Node000027_Node000027" class="edge">
<title>Node27&#45;&gt;Node27</title>
<g id="a_edge30_Node000027_Node000027"><a xlink:title=" ">
<path fill="none" stroke="orange" stroke-dasharray="5,2" d="M2278.9,-465.26C2284.21,-470.2 2294.9,-473.5 2311,-473.5 2336.12,-473.5 2348.1,-465.46 2346.92,-455.7"/>
<polygon fill="orange" stroke="orange" points="2282.04,-463.68 2275.08,-455.7 2275.54,-466.28 2282.04,-463.68"/>
</a>
</g>
<text text-anchor="start" x="2258" y="-479" font-family="Helvetica,sans-Serif" font-size="10.00" fill="grey">&lt; TData, TProperty &gt;</text>
</g>
<!-- Node28&#45;&gt;Node21 -->
<g id="edge32_Node000028_Node000021" class="edge">
<title>Node28&#45;&gt;Node21</title>
<g id="a_edge32_Node000028_Node000021"><a xlink:title=" ">
<path fill="none" stroke="#63b8ff" d="M2426,-356.2C2474.19,-352.7 2529.99,-348.64 2577.25,-345.2"/>
<polygon fill="#63b8ff" stroke="#63b8ff" points="2425.56,-352.73 2415.84,-356.94 2426.07,-359.71 2425.56,-352.73"/>
</a>
</g>
</g>
</g>
</svg>
