<?xml version="1.0" encoding="UTF-8" standalone="no"?>
<!DOCTYPE svg PUBLIC "-//W3C//DTD SVG 1.1//EN"
 "http://www.w3.org/Graphics/SVG/1.1/DTD/svg11.dtd">
<!-- Generated by graphviz version 2.43.0 (0)
 -->
<!-- Title: fiftyone.pipeline.web.mvc.services.PipelineResultService Pages: 1 -->
<svg width="197pt" height="170pt"
 viewBox="0.00 0.00 197.00 170.00" xmlns="http://www.w3.org/2000/svg" xmlns:xlink="http://www.w3.org/1999/xlink">
<g id="graph0" class="graph" transform="scale(1 1) rotate(0) translate(4 166)">
<title>fiftyone.pipeline.web.mvc.services.PipelineResultService</title>
<!-- Node1 -->
<g id="Node000001" class="node">
<title>Node1</title>
<g id="a_Node000001"><a xlink:title="Spring framework service for the PipelineResultServiceCore.">
<polygon fill="#999999" stroke="#666666" points="189,-96 0,-96 0,-66 189,-66 189,-96"/>
<text text-anchor="start" x="8" y="-84" font-family="Helvetica,sans-Serif" font-size="10.00">fiftyone.pipeline.web.mvc.services.</text>
<text text-anchor="middle" x="94.5" y="-73" font-family="Helvetica,sans-Serif" font-size="10.00">PipelineResultService</text>
</a>
</g>
</g>
<!-- Node3 -->
<g id="Node000003" class="node">
<title>Node3</title>
<g id="a_Node000003"><a xlink:href="classfiftyone_1_1pipeline_1_1web_1_1mvc_1_1services_1_1_pipeline_result_service_1_1_default.html" target="_top" xlink:title=" ">
<polygon fill="white" stroke="#bfbfbf" points="189,-30 0,-30 0,0 189,0 189,-30"/>
<text text-anchor="start" x="8" y="-18" font-family="Helvetica,sans-Serif" font-size="10.00">fiftyone.pipeline.web.mvc.services.</text>
<text text-anchor="middle" x="94.5" y="-7" font-family="Helvetica,sans-Serif" font-size="10.00">PipelineResultService.Default</text>
</a>
</g>
</g>
<!-- Node1&#45;&gt;Node3 -->
<g id="edge2_Node000001_Node000003" class="edge">
<title>Node1&#45;&gt;Node3</title>
<g id="a_edge2_Node000001_Node000003"><a xlink:title=" ">
<path fill="none" stroke="#63b8ff" d="M94.5,-55.54C94.5,-46.96 94.5,-37.61 94.5,-30.16"/>
<polygon fill="#63b8ff" stroke="#63b8ff" points="91,-55.8 94.5,-65.8 98,-55.8 91,-55.8"/>
</a>
</g>
</g>
<!-- Node2 -->
<g id="Node000002" class="node">
<title>Node2</title>
<g id="a_Node000002"><a xlink:href="interfacefiftyone_1_1pipeline_1_1web_1_1services_1_1_pipeline_result_service_core.html" target="_top" xlink:title="Service used to process web requests through the Pipeline.">
<polygon fill="white" stroke="#666666" points="177,-162 12,-162 12,-132 177,-132 177,-162"/>
<text text-anchor="start" x="20" y="-150" font-family="Helvetica,sans-Serif" font-size="10.00">fiftyone.pipeline.web.services.</text>
<text text-anchor="middle" x="94.5" y="-139" font-family="Helvetica,sans-Serif" font-size="10.00">PipelineResultServiceCore</text>
</a>
</g>
</g>
<!-- Node2&#45;&gt;Node1 -->
<g id="edge1_Node000001_Node000002" class="edge">
<title>Node2&#45;&gt;Node1</title>
<g id="a_edge1_Node000001_Node000002"><a xlink:title=" ">
<path fill="none" stroke="#63b8ff" d="M94.5,-121.54C94.5,-112.96 94.5,-103.61 94.5,-96.16"/>
<polygon fill="#63b8ff" stroke="#63b8ff" points="91,-121.8 94.5,-131.8 98,-121.8 91,-121.8"/>
</a>
</g>
</g>
</g>
</svg>
