<?xml version="1.0" encoding="UTF-8" standalone="no"?>
<!DOCTYPE svg PUBLIC "-//W3C//DTD SVG 1.1//EN"
 "http://www.w3.org/Graphics/SVG/1.1/DTD/svg11.dtd">
<!-- Generated by graphviz version 2.43.0 (0)
 -->
<!-- Title: fiftyone.pipeline.web.services.WebRequestEvidenceServiceCore Pages: 1 -->
<svg width="676pt" height="86pt"
 viewBox="0.00 0.00 676.00 86.00" xmlns="http://www.w3.org/2000/svg" xmlns:xlink="http://www.w3.org/1999/xlink">
<g id="graph0" class="graph" transform="scale(1 1) rotate(0) translate(4 82)">
<title>fiftyone.pipeline.web.services.WebRequestEvidenceServiceCore</title>
<!-- Node1 -->
<g id="Node000001" class="node">
<title>Node1</title>
<g id="a_Node000001"><a xlink:title="Service used to populate the Evidence from a HttpServletRequest ready for it to be processed by the P...">
<polygon fill="#999999" stroke="#666666" points="180,-54 0,-54 0,-24 180,-24 180,-54"/>
<text text-anchor="start" x="8" y="-42" font-family="Helvetica,sans-Serif" font-size="10.00">fiftyone.pipeline.web.services.</text>
<text text-anchor="middle" x="90" y="-31" font-family="Helvetica,sans-Serif" font-size="10.00">WebRequestEvidenceServiceCore</text>
</a>
</g>
</g>
<!-- Node2 -->
<g id="Node000002" class="node">
<title>Node2</title>
<g id="a_Node000002"><a xlink:href="interfacefiftyone_1_1pipeline_1_1web_1_1mvc_1_1services_1_1_web_request_evidence_service.html" target="_top" xlink:title="Spring framework service for the WebRequestEvidenceServiceCore.">
<polygon fill="white" stroke="#666666" points="420,-78 231,-78 231,-48 420,-48 420,-78"/>
<text text-anchor="start" x="239" y="-66" font-family="Helvetica,sans-Serif" font-size="10.00">fiftyone.pipeline.web.mvc.services.</text>
<text text-anchor="middle" x="325.5" y="-55" font-family="Helvetica,sans-Serif" font-size="10.00">WebRequestEvidenceService</text>
</a>
</g>
</g>
<!-- Node1&#45;&gt;Node2 -->
<g id="edge1_Node000001_Node000002" class="edge">
<title>Node1&#45;&gt;Node2</title>
<g id="a_edge1_Node000001_Node000002"><a xlink:title=" ">
<path fill="none" stroke="#63b8ff" d="M190.4,-49.22C203.74,-50.59 217.38,-51.99 230.62,-53.35"/>
<polygon fill="#63b8ff" stroke="#63b8ff" points="190.58,-45.72 180.28,-48.18 189.87,-52.68 190.58,-45.72"/>
</a>
</g>
</g>
<!-- Node4 -->
<g id="Node000004" class="node">
<title>Node4</title>
<g id="a_Node000004"><a xlink:href="classfiftyone_1_1pipeline_1_1web_1_1services_1_1_web_request_evidence_service_core_1_1_default.html" target="_top" xlink:title="Default implementation of the WebRequestEvidenceServiceCore service.">
<polygon fill="white" stroke="#666666" points="435,-30 216,-30 216,0 435,0 435,-30"/>
<text text-anchor="start" x="224" y="-18" font-family="Helvetica,sans-Serif" font-size="10.00">fiftyone.pipeline.web.services.</text>
<text text-anchor="middle" x="325.5" y="-7" font-family="Helvetica,sans-Serif" font-size="10.00">WebRequestEvidenceServiceCore.Default</text>
</a>
</g>
</g>
<!-- Node1&#45;&gt;Node4 -->
<g id="edge3_Node000001_Node000004" class="edge">
<title>Node1&#45;&gt;Node4</title>
<g id="a_edge3_Node000001_Node000004"><a xlink:title=" ">
<path fill="none" stroke="#63b8ff" d="M190.41,-28.78C198.77,-27.92 207.26,-27.05 215.69,-26.18"/>
<polygon fill="#63b8ff" stroke="#63b8ff" points="189.87,-25.32 180.28,-29.82 190.58,-32.28 189.87,-25.32"/>
</a>
</g>
</g>
<!-- Node3 -->
<g id="Node000003" class="node">
<title>Node3</title>
<g id="a_Node000003"><a xlink:href="classfiftyone_1_1pipeline_1_1web_1_1mvc_1_1services_1_1_web_request_evidence_service_1_1_default.html" target="_top" xlink:title=" ">
<polygon fill="white" stroke="#bfbfbf" points="668,-54 471,-54 471,-24 668,-24 668,-54"/>
<text text-anchor="start" x="479" y="-42" font-family="Helvetica,sans-Serif" font-size="10.00">fiftyone.pipeline.web.mvc.services.</text>
<text text-anchor="middle" x="569.5" y="-31" font-family="Helvetica,sans-Serif" font-size="10.00">WebRequestEvidenceService.Default</text>
</a>
</g>
</g>
<!-- Node2&#45;&gt;Node3 -->
<g id="edge2_Node000002_Node000003" class="edge">
<title>Node2&#45;&gt;Node3</title>
<g id="a_edge2_Node000002_Node000003"><a xlink:title=" ">
<path fill="none" stroke="#63b8ff" d="M430.27,-52.71C443.71,-51.38 457.44,-50.01 470.78,-48.69"/>
<polygon fill="#63b8ff" stroke="#63b8ff" points="429.67,-49.25 420.06,-53.72 430.36,-56.22 429.67,-49.25"/>
</a>
</g>
</g>
<!-- Node4&#45;&gt;Node3 -->
<g id="edge4_Node000004_Node000003" class="edge">
<title>Node4&#45;&gt;Node3</title>
<g id="a_edge4_Node000004_Node000003"><a xlink:title=" ">
<path fill="none" stroke="#63b8ff" d="M445.21,-26.77C453.83,-27.63 462.46,-28.48 470.94,-29.32"/>
<polygon fill="#63b8ff" stroke="#63b8ff" points="445.41,-23.28 435.11,-25.77 444.72,-30.24 445.41,-23.28"/>
</a>
</g>
</g>
</g>
</svg>
