<?xml version="1.0" encoding="UTF-8" standalone="no"?>
<!DOCTYPE svg PUBLIC "-//W3C//DTD SVG 1.1//EN"
 "http://www.w3.org/Graphics/SVG/1.1/DTD/svg11.dtd">
<!-- Generated by graphviz version 2.43.0 (0)
 -->
<!-- Title: fiftyone.caching.LoadingCache&lt; K, V &gt; Pages: 1 -->
<svg width="158pt" height="225pt"
 viewBox="0.00 0.00 158.00 225.00" xmlns="http://www.w3.org/2000/svg" xmlns:xlink="http://www.w3.org/1999/xlink">
<g id="graph0" class="graph" transform="scale(1 1) rotate(0) translate(4 221)">
<title>fiftyone.caching.LoadingCache&lt; K, V &gt;</title>
<!-- Node1 -->
<g id="Node000001" class="node">
<title>Node1</title>
<g id="a_Node000001"><a xlink:title="Extension of general cache contract to provide for getting a value with a particular value loaded.">
<polygon fill="#999999" stroke="#666666" points="142.5,-96 7.5,-96 7.5,-66 142.5,-66 142.5,-96"/>
<text text-anchor="start" x="15.5" y="-84" font-family="Helvetica,sans-Serif" font-size="10.00">fiftyone.caching.Loading</text>
<text text-anchor="middle" x="75" y="-73" font-family="Helvetica,sans-Serif" font-size="10.00">Cache&lt; K, V &gt;</text>
</a>
</g>
</g>
<!-- Node4 -->
<g id="Node000004" class="node">
<title>Node4</title>
<g id="a_Node000004"><a xlink:href="classfiftyone_1_1caching_1_1_lru_loading_cache.html" target="_top" xlink:title="Uses the LruCacheBase to implement the LoadingCache interface.">
<polygon fill="white" stroke="#666666" points="150,-30 0,-30 0,0 150,0 150,-30"/>
<text text-anchor="start" x="8" y="-18" font-family="Helvetica,sans-Serif" font-size="10.00">fiftyone.caching.LruLoading</text>
<text text-anchor="middle" x="75" y="-7" font-family="Helvetica,sans-Serif" font-size="10.00">Cache&lt; K, V &gt;</text>
</a>
</g>
</g>
<!-- Node1&#45;&gt;Node4 -->
<g id="edge3_Node000001_Node000004" class="edge">
<title>Node1&#45;&gt;Node4</title>
<g id="a_edge3_Node000001_Node000004"><a xlink:title=" ">
<path fill="none" stroke="#63b8ff" d="M75,-55.54C75,-46.96 75,-37.61 75,-30.16"/>
<polygon fill="#63b8ff" stroke="#63b8ff" points="71.5,-55.8 75,-65.8 78.5,-55.8 71.5,-55.8"/>
</a>
</g>
</g>
<!-- Node2 -->
<g id="Node000002" class="node">
<title>Node2</title>
<g id="a_Node000002"><a xlink:href="interfacefiftyone_1_1caching_1_1_cache.html" target="_top" xlink:title="Base cache interface which declares only the get method and the types of key and value stored in the ...">
<polygon fill="white" stroke="#666666" points="138.5,-162 11.5,-162 11.5,-132 138.5,-132 138.5,-162"/>
<text text-anchor="start" x="19.5" y="-150" font-family="Helvetica,sans-Serif" font-size="10.00">fiftyone.caching.Cache</text>
<text text-anchor="middle" x="75" y="-139" font-family="Helvetica,sans-Serif" font-size="10.00">&lt; K, V &gt;</text>
</a>
</g>
</g>
<!-- Node2&#45;&gt;Node1 -->
<g id="edge1_Node000001_Node000002" class="edge">
<title>Node2&#45;&gt;Node1</title>
<g id="a_edge1_Node000001_Node000002"><a xlink:title=" ">
<path fill="none" stroke="#63b8ff" d="M75,-121.54C75,-112.96 75,-103.61 75,-96.16"/>
<polygon fill="#63b8ff" stroke="#63b8ff" points="71.5,-121.8 75,-131.8 78.5,-121.8 71.5,-121.8"/>
</a>
</g>
</g>
<!-- Node3 -->
<g id="Node000003" class="node">
<title>Node3</title>
<g id="a_Node000003"><a xlink:title=" ">
<polygon fill="white" stroke="#bfbfbf" points="107.5,-217 42.5,-217 42.5,-198 107.5,-198 107.5,-217"/>
<text text-anchor="middle" x="75" y="-205" font-family="Helvetica,sans-Serif" font-size="10.00">Closeable</text>
</a>
</g>
</g>
<!-- Node3&#45;&gt;Node2 -->
<g id="edge2_Node000002_Node000003" class="edge">
<title>Node3&#45;&gt;Node2</title>
<g id="a_edge2_Node000002_Node000003"><a xlink:title=" ">
<path fill="none" stroke="#63b8ff" d="M75,-187.65C75,-179.36 75,-169.78 75,-162.11"/>
<polygon fill="#63b8ff" stroke="#63b8ff" points="71.5,-187.87 75,-197.87 78.5,-187.87 71.5,-187.87"/>
</a>
</g>
</g>
</g>
</svg>
