<?xml version="1.0" encoding="UTF-8" standalone="no"?>
<!DOCTYPE svg PUBLIC "-//W3C//DTD SVG 1.1//EN"
 "http://www.w3.org/Graphics/SVG/1.1/DTD/svg11.dtd">
<!-- Generated by graphviz version 2.43.0 (0)
 -->
<!-- Title: fiftyone.caching.PutCache&lt; K, V &gt; Pages: 1 -->
<svg width="1735pt" height="265pt"
 viewBox="0.00 0.00 1735.00 264.50" xmlns="http://www.w3.org/2000/svg" xmlns:xlink="http://www.w3.org/1999/xlink">
<g id="graph0" class="graph" transform="scale(1 1) rotate(0) translate(4 260.5)">
<title>fiftyone.caching.PutCache&lt; K, V &gt;</title>
<!-- Node1 -->
<g id="Node000001" class="node">
<title>Node1</title>
<g id="a_Node000001"><a xlink:title="A cache that supports a thread safe put method for inserting to cache.">
<polygon fill="#999999" stroke="#666666" points="409,-113.5 266,-113.5 266,-83.5 409,-83.5 409,-113.5"/>
<text text-anchor="start" x="274" y="-101.5" font-family="Helvetica,sans-Serif" font-size="10.00">fiftyone.caching.PutCache</text>
<text text-anchor="middle" x="337.5" y="-90.5" font-family="Helvetica,sans-Serif" font-size="10.00">&lt; K, V &gt;</text>
</a>
</g>
</g>
<!-- Node4 -->
<g id="Node000004" class="node">
<title>Node4</title>
<g id="a_Node000004"><a xlink:href="classfiftyone_1_1caching_1_1_lru_put_cache.html" target="_top" xlink:title="Uses the LruCacheBase to implement the PutCache interface.">
<polygon fill="white" stroke="#666666" points="753,-185.5 595,-185.5 595,-155.5 753,-155.5 753,-185.5"/>
<text text-anchor="start" x="603" y="-173.5" font-family="Helvetica,sans-Serif" font-size="10.00">fiftyone.caching.LruPutCache</text>
<text text-anchor="middle" x="674" y="-162.5" font-family="Helvetica,sans-Serif" font-size="10.00">&lt; K, V &gt;</text>
</a>
</g>
</g>
<!-- Node1&#45;&gt;Node4 -->
<g id="edge3_Node000001_Node000004" class="edge">
<title>Node1&#45;&gt;Node4</title>
<g id="a_edge3_Node000001_Node000004"><a xlink:title=" ">
<path fill="none" stroke="#63b8ff" d="M396.16,-116.35C406.38,-119.25 416.97,-122.1 427,-124.5 482.67,-137.85 546.19,-149.64 594.74,-157.94"/>
<polygon fill="#63b8ff" stroke="#63b8ff" points="397.07,-112.97 386.49,-113.56 395.13,-119.7 397.07,-112.97"/>
</a>
</g>
</g>
<!-- Node5 -->
<g id="Node000005" class="node">
<title>Node5</title>
<g id="a_Node000005"><a xlink:href="interfacefiftyone_1_1pipeline_1_1engines_1_1caching_1_1_data_keyed_cache.html" target="_top" xlink:title="Represents a put cache where the key is a FlowData instance.">
<polygon fill="white" stroke="#666666" points="764,-137.5 584,-137.5 584,-107.5 764,-107.5 764,-137.5"/>
<text text-anchor="start" x="592" y="-125.5" font-family="Helvetica,sans-Serif" font-size="10.00">fiftyone.pipeline.engines.caching.</text>
<text text-anchor="middle" x="674" y="-114.5" font-family="Helvetica,sans-Serif" font-size="10.00">DataKeyedCache&lt; V &gt;</text>
</a>
</g>
</g>
<!-- Node1&#45;&gt;Node5 -->
<g id="edge4_Node000001_Node000005" class="edge">
<title>Node1&#45;&gt;Node5</title>
<g id="a_edge4_Node000001_Node000005"><a xlink:title=" ">
<path fill="none" stroke="#63b8ff" d="M419.09,-104.28C468.77,-107.85 532.54,-112.42 583.75,-116.1"/>
<polygon fill="#63b8ff" stroke="#63b8ff" points="419.25,-100.79 409.03,-103.56 418.75,-107.77 419.25,-100.79"/>
</a>
</g>
</g>
<!-- Node15 -->
<g id="Node000015" class="node">
<title>Node15</title>
<g id="a_Node000015"><a xlink:href="interfacefiftyone_1_1caching_1_1_put_cache.html" target="_top" xlink:title=" ">
<polygon fill="white" stroke="#666666" points="745.5,-89.5 602.5,-89.5 602.5,-59.5 745.5,-59.5 745.5,-89.5"/>
<text text-anchor="start" x="610.5" y="-77.5" font-family="Helvetica,sans-Serif" font-size="10.00">fiftyone.caching.PutCache</text>
<text text-anchor="middle" x="674" y="-66.5" font-family="Helvetica,sans-Serif" font-size="10.00">&lt; FlowData, V &gt;</text>
</a>
</g>
</g>
<!-- Node1&#45;&gt;Node15 -->
<g id="edge15_Node000001_Node000015" class="edge">
<title>Node1&#45;&gt;Node15</title>
<g id="a_edge15_Node000001_Node000015"><a xlink:title=" ">
<path fill="none" stroke="orange" stroke-dasharray="5,2" d="M419.39,-85.31C421.95,-85.02 424.49,-84.75 427,-84.5 485.91,-78.66 553.08,-76.21 602.33,-75.2"/>
<polygon fill="orange" stroke="orange" points="418.91,-81.85 409.41,-86.54 419.77,-88.79 418.91,-81.85"/>
</a>
</g>
<text text-anchor="start" x="455.5" y="-90" font-family="Helvetica,sans-Serif" font-size="10.00" fill="grey">&lt; FlowData, V &gt;</text>
</g>
<!-- Node16 -->
<g id="Node000016" class="node">
<title>Node16</title>
<g id="a_Node000016"><a xlink:href="interfacefiftyone_1_1caching_1_1_put_cache.html" target="_top" xlink:title=" ">
<polygon fill="white" stroke="#666666" points="753,-41 595,-41 595,0 753,0 753,-41"/>
<text text-anchor="start" x="603" y="-29" font-family="Helvetica,sans-Serif" font-size="10.00">fiftyone.caching.PutCache</text>
<text text-anchor="start" x="603" y="-18" font-family="Helvetica,sans-Serif" font-size="10.00">&lt; fiftyone.pipeline.core.data.</text>
<text text-anchor="middle" x="674" y="-7" font-family="Helvetica,sans-Serif" font-size="10.00">DataKey, V &gt;</text>
</a>
</g>
</g>
<!-- Node1&#45;&gt;Node16 -->
<g id="edge16_Node000001_Node000016" class="edge">
<title>Node1&#45;&gt;Node16</title>
<g id="a_edge16_Node000001_Node000016"><a xlink:title=" ">
<path fill="none" stroke="orange" stroke-dasharray="5,2" d="M363.89,-76.89C380.67,-63.94 403.77,-48.47 427,-40.5 481,-21.96 545.44,-17.31 594.81,-17.1"/>
<polygon fill="orange" stroke="orange" points="361.38,-74.42 355.73,-83.39 365.73,-79.9 361.38,-74.42"/>
</a>
</g>
<text text-anchor="start" x="430.5" y="-61.5" font-family="Helvetica,sans-Serif" font-size="10.00" fill="grey">&lt; fiftyone::pipeline</text>
<text text-anchor="start" x="430.5" y="-46.5" font-family="Helvetica,sans-Serif" font-size="10.00" fill="grey">  ::core::data::DataKey, V &gt;</text>
</g>
<!-- Node2 -->
<g id="Node000002" class="node">
<title>Node2</title>
<g id="a_Node000002"><a xlink:href="interfacefiftyone_1_1caching_1_1_cache.html" target="_top" xlink:title="Base cache interface which declares only the get method and the types of key and value stored in the ...">
<polygon fill="white" stroke="#666666" points="229,-113.5 102,-113.5 102,-83.5 229,-83.5 229,-113.5"/>
<text text-anchor="start" x="110" y="-101.5" font-family="Helvetica,sans-Serif" font-size="10.00">fiftyone.caching.Cache</text>
<text text-anchor="middle" x="165.5" y="-90.5" font-family="Helvetica,sans-Serif" font-size="10.00">&lt; K, V &gt;</text>
</a>
</g>
</g>
<!-- Node2&#45;&gt;Node1 -->
<g id="edge1_Node000001_Node000002" class="edge">
<title>Node2&#45;&gt;Node1</title>
<g id="a_edge1_Node000001_Node000002"><a xlink:title=" ">
<path fill="none" stroke="#63b8ff" d="M239.5,-98.5C248.26,-98.5 257.19,-98.5 265.92,-98.5"/>
<polygon fill="#63b8ff" stroke="#63b8ff" points="239.32,-95 229.32,-98.5 239.32,-102 239.32,-95"/>
</a>
</g>
</g>
<!-- Node3 -->
<g id="Node000003" class="node">
<title>Node3</title>
<g id="a_Node000003"><a xlink:title=" ">
<polygon fill="white" stroke="#bfbfbf" points="65,-108 0,-108 0,-89 65,-89 65,-108"/>
<text text-anchor="middle" x="32.5" y="-96" font-family="Helvetica,sans-Serif" font-size="10.00">Closeable</text>
</a>
</g>
</g>
<!-- Node3&#45;&gt;Node2 -->
<g id="edge2_Node000002_Node000003" class="edge">
<title>Node3&#45;&gt;Node2</title>
<g id="a_edge2_Node000002_Node000003"><a xlink:title=" ">
<path fill="none" stroke="#63b8ff" d="M75.48,-98.5C83.87,-98.5 92.86,-98.5 101.78,-98.5"/>
<polygon fill="#63b8ff" stroke="#63b8ff" points="75.21,-95 65.21,-98.5 75.21,-102 75.21,-95"/>
</a>
</g>
</g>
<!-- Node6 -->
<g id="Node000006" class="node">
<title>Node6</title>
<g id="a_Node000006"><a xlink:href="classfiftyone_1_1pipeline_1_1engines_1_1caching_1_1_data_keyed_cache_base.html" target="_top" xlink:title="Abstract base class for caches that use FlowData as the key.">
<polygon fill="white" stroke="#666666" points="1076,-171.5 896,-171.5 896,-141.5 1076,-141.5 1076,-171.5"/>
<text text-anchor="start" x="904" y="-159.5" font-family="Helvetica,sans-Serif" font-size="10.00">fiftyone.pipeline.engines.caching.</text>
<text text-anchor="middle" x="986" y="-148.5" font-family="Helvetica,sans-Serif" font-size="10.00">DataKeyedCacheBase&lt; V &gt;</text>
</a>
</g>
</g>
<!-- Node5&#45;&gt;Node6 -->
<g id="edge5_Node000005_Node000006" class="edge">
<title>Node5&#45;&gt;Node6</title>
<g id="a_edge5_Node000005_Node000006"><a xlink:title=" ">
<path fill="none" stroke="#63b8ff" d="M774.56,-133.42C813.55,-137.7 857.93,-142.56 895.84,-146.72"/>
<polygon fill="#63b8ff" stroke="#63b8ff" points="774.57,-129.9 764.25,-132.29 773.81,-136.86 774.57,-129.9"/>
</a>
</g>
</g>
<!-- Node13 -->
<g id="Node000013" class="node">
<title>Node13</title>
<g id="a_Node000013"><a xlink:href="interfacefiftyone_1_1pipeline_1_1engines_1_1caching_1_1_data_keyed_cache.html" target="_top" xlink:title=" ">
<polygon fill="white" stroke="#666666" points="1079,-111.5 893,-111.5 893,-81.5 1079,-81.5 1079,-111.5"/>
<text text-anchor="start" x="901" y="-99.5" font-family="Helvetica,sans-Serif" font-size="10.00">fiftyone.pipeline.engines.caching.</text>
<text text-anchor="middle" x="986" y="-88.5" font-family="Helvetica,sans-Serif" font-size="10.00">DataKeyedCache&lt; ElementData &gt;</text>
</a>
</g>
</g>
<!-- Node5&#45;&gt;Node13 -->
<g id="edge12_Node000005_Node000013" class="edge">
<title>Node5&#45;&gt;Node13</title>
<g id="a_edge12_Node000005_Node000013"><a xlink:title=" ">
<path fill="none" stroke="orange" stroke-dasharray="5,2" d="M774.33,-110.24C776.91,-109.98 779.47,-109.73 782,-109.5 818.22,-106.14 858.16,-103.38 892.95,-101.28"/>
<polygon fill="orange" stroke="orange" points="773.88,-106.76 764.29,-111.27 774.59,-113.73 773.88,-106.76"/>
</a>
</g>
<text text-anchor="start" x="785.5" y="-115" font-family="Helvetica,sans-Serif" font-size="10.00" fill="grey">&lt; ElementData &gt;</text>
</g>
<!-- Node7 -->
<g id="Node000007" class="node">
<title>Node7</title>
<g id="a_Node000007"><a xlink:href="classfiftyone_1_1pipeline_1_1engines_1_1trackers_1_1_tracker_base.html" target="_top" xlink:title="The abstract base class for trackers.">
<polygon fill="white" stroke="#666666" points="1404,-235.5 1222,-235.5 1222,-205.5 1404,-205.5 1404,-235.5"/>
<text text-anchor="start" x="1230" y="-223.5" font-family="Helvetica,sans-Serif" font-size="10.00">fiftyone.pipeline.engines.trackers.</text>
<text text-anchor="middle" x="1313" y="-212.5" font-family="Helvetica,sans-Serif" font-size="10.00">TrackerBase&lt; T &gt;</text>
</a>
</g>
</g>
<!-- Node6&#45;&gt;Node7 -->
<g id="edge6_Node000006_Node000007" class="edge">
<title>Node6&#45;&gt;Node7</title>
<g id="a_edge6_Node000006_Node000007"><a xlink:title=" ">
<path fill="none" stroke="#63b8ff" d="M1045.49,-174.42C1062.04,-179.1 1080.14,-183.84 1097,-187.5 1137.69,-196.32 1183.21,-203.67 1221.85,-209.17"/>
<polygon fill="#63b8ff" stroke="#63b8ff" points="1045.99,-170.92 1035.41,-171.53 1044.06,-177.65 1045.99,-170.92"/>
</a>
</g>
</g>
<!-- Node10 -->
<g id="Node000010" class="node">
<title>Node10</title>
<g id="a_Node000010"><a xlink:href="classfiftyone_1_1pipeline_1_1engines_1_1caching_1_1_data_keyed_cache_base.html" target="_top" xlink:title=" ">
<polygon fill="white" stroke="#666666" points="1418,-187.5 1208,-187.5 1208,-157.5 1418,-157.5 1418,-187.5"/>
<text text-anchor="start" x="1216" y="-175.5" font-family="Helvetica,sans-Serif" font-size="10.00">fiftyone.pipeline.engines.caching.</text>
<text text-anchor="middle" x="1313" y="-164.5" font-family="Helvetica,sans-Serif" font-size="10.00">DataKeyedCacheBase&lt; ElementData &gt;</text>
</a>
</g>
</g>
<!-- Node6&#45;&gt;Node10 -->
<g id="edge9_Node000006_Node000010" class="edge">
<title>Node6&#45;&gt;Node10</title>
<g id="a_edge9_Node000006_Node000010"><a xlink:title=" ">
<path fill="none" stroke="orange" stroke-dasharray="5,2" d="M1086.4,-161.39C1124.83,-163.29 1168.83,-165.45 1207.71,-167.37"/>
<polygon fill="orange" stroke="orange" points="1086.4,-157.89 1076.24,-160.89 1086.05,-164.88 1086.4,-157.89"/>
</a>
</g>
<text text-anchor="start" x="1100.5" y="-172" font-family="Helvetica,sans-Serif" font-size="10.00" fill="grey">&lt; ElementData &gt;</text>
</g>
<!-- Node12 -->
<g id="Node000012" class="node">
<title>Node12</title>
<g id="a_Node000012"><a xlink:href="classfiftyone_1_1pipeline_1_1engines_1_1caching_1_1_data_keyed_cache_base.html" target="_top" xlink:title=" ">
<polygon fill="white" stroke="#666666" points="1403,-139.5 1223,-139.5 1223,-109.5 1403,-109.5 1403,-139.5"/>
<text text-anchor="start" x="1231" y="-127.5" font-family="Helvetica,sans-Serif" font-size="10.00">fiftyone.pipeline.engines.caching.</text>
<text text-anchor="middle" x="1313" y="-116.5" font-family="Helvetica,sans-Serif" font-size="10.00">DataKeyedCacheBase&lt; T &gt;</text>
</a>
</g>
</g>
<!-- Node6&#45;&gt;Node12 -->
<g id="edge11_Node000006_Node000012" class="edge">
<title>Node6&#45;&gt;Node12</title>
<g id="a_edge11_Node000006_Node000012"><a xlink:title=" ">
<path fill="none" stroke="orange" stroke-dasharray="5,2" d="M1086.32,-142.7C1089.92,-142.28 1093.49,-141.88 1097,-141.5 1138.32,-137.05 1184.23,-133.27 1222.98,-130.4"/>
<polygon fill="orange" stroke="orange" points="1085.61,-139.25 1076.1,-143.91 1086.44,-146.21 1085.61,-139.25"/>
</a>
</g>
<text text-anchor="start" x="1129.5" y="-147" font-family="Helvetica,sans-Serif" font-size="10.00" fill="grey">&lt; T &gt;</text>
</g>
<!-- Node8 -->
<g id="Node000008" class="node">
<title>Node8</title>
<g id="a_Node000008"><a xlink:href="classfiftyone_1_1pipeline_1_1engines_1_1fiftyone_1_1trackers_1_1_share_usage_tracker.html" target="_top" xlink:title="A tracker used by share usage to attempt to avoid repeatedly sending data relating to the same user s...">
<polygon fill="white" stroke="#666666" points="1727,-256.5 1506,-256.5 1506,-226.5 1727,-226.5 1727,-256.5"/>
<text text-anchor="start" x="1514" y="-244.5" font-family="Helvetica,sans-Serif" font-size="10.00">fiftyone.pipeline.engines.fiftyone.trackers.</text>
<text text-anchor="middle" x="1616.5" y="-233.5" font-family="Helvetica,sans-Serif" font-size="10.00">ShareUsageTracker&lt; Date &gt;</text>
</a>
</g>
</g>
<!-- Node7&#45;&gt;Node8 -->
<g id="edge7_Node000007_Node000008" class="edge">
<title>Node7&#45;&gt;Node8</title>
<g id="a_edge7_Node000007_Node000008"><a xlink:title=" ">
<path fill="none" stroke="#63b8ff" d="M1414.32,-227.49C1443.71,-229.53 1475.99,-231.78 1505.93,-233.87"/>
<polygon fill="#63b8ff" stroke="#63b8ff" points="1414.27,-223.98 1404.05,-226.77 1413.78,-230.96 1414.27,-223.98"/>
</a>
</g>
</g>
<!-- Node9 -->
<g id="Node000009" class="node">
<title>Node9</title>
<g id="a_Node000009"><a xlink:href="classfiftyone_1_1pipeline_1_1engines_1_1trackers_1_1_tracker_base.html" target="_top" xlink:title=" ">
<polygon fill="white" stroke="#666666" points="1707.5,-208.5 1525.5,-208.5 1525.5,-178.5 1707.5,-178.5 1707.5,-208.5"/>
<text text-anchor="start" x="1533.5" y="-196.5" font-family="Helvetica,sans-Serif" font-size="10.00">fiftyone.pipeline.engines.trackers.</text>
<text text-anchor="middle" x="1616.5" y="-185.5" font-family="Helvetica,sans-Serif" font-size="10.00">TrackerBase&lt; Date &gt;</text>
</a>
</g>
</g>
<!-- Node7&#45;&gt;Node9 -->
<g id="edge8_Node000007_Node000009" class="edge">
<title>Node7&#45;&gt;Node9</title>
<g id="a_edge8_Node000007_Node000009"><a xlink:title=" ">
<path fill="none" stroke="orange" stroke-dasharray="5,2" d="M1414.28,-209.58C1421.63,-208.86 1428.93,-208.15 1436,-207.5 1464.95,-204.83 1496.55,-202.25 1525.06,-200.05"/>
<polygon fill="orange" stroke="orange" points="1413.85,-206.11 1404.25,-210.59 1414.55,-213.08 1413.85,-206.11"/>
</a>
</g>
<text text-anchor="start" x="1439" y="-213" font-family="Helvetica,sans-Serif" font-size="10.00" fill="grey">&lt; Date &gt;</text>
</g>
<!-- Node11 -->
<g id="Node000011" class="node">
<title>Node11</title>
<g id="a_Node000011"><a xlink:href="classfiftyone_1_1pipeline_1_1engines_1_1caching_1_1_flow_cache_default.html" target="_top" xlink:title="Default implementation of FlowCache using the DataKeyedCacheBase.">
<polygon fill="white" stroke="#666666" points="1706.5,-155.5 1526.5,-155.5 1526.5,-125.5 1706.5,-125.5 1706.5,-155.5"/>
<text text-anchor="start" x="1534.5" y="-143.5" font-family="Helvetica,sans-Serif" font-size="10.00">fiftyone.pipeline.engines.caching.</text>
<text text-anchor="middle" x="1616.5" y="-132.5" font-family="Helvetica,sans-Serif" font-size="10.00">FlowCacheDefault</text>
</a>
</g>
</g>
<!-- Node10&#45;&gt;Node11 -->
<g id="edge10_Node000010_Node000011" class="edge">
<title>Node10&#45;&gt;Node11</title>
<g id="a_edge10_Node000010_Node000011"><a xlink:title=" ">
<path fill="none" stroke="#63b8ff" d="M1428.18,-160.38C1460.68,-156.93 1495.6,-153.23 1526.37,-149.96"/>
<polygon fill="#63b8ff" stroke="#63b8ff" points="1427.76,-156.91 1418.18,-161.44 1428.49,-163.87 1427.76,-156.91"/>
</a>
</g>
</g>
<!-- Node14 -->
<g id="Node000014" class="node">
<title>Node14</title>
<g id="a_Node000014"><a xlink:href="interfacefiftyone_1_1pipeline_1_1engines_1_1caching_1_1_flow_cache.html" target="_top" xlink:title="Used to cache results from individual flow elements in the pipeline.">
<polygon fill="white" stroke="#666666" points="1403,-91.5 1223,-91.5 1223,-61.5 1403,-61.5 1403,-91.5"/>
<text text-anchor="start" x="1231" y="-79.5" font-family="Helvetica,sans-Serif" font-size="10.00">fiftyone.pipeline.engines.caching.</text>
<text text-anchor="middle" x="1313" y="-68.5" font-family="Helvetica,sans-Serif" font-size="10.00">FlowCache</text>
</a>
</g>
</g>
<!-- Node13&#45;&gt;Node14 -->
<g id="edge13_Node000013_Node000014" class="edge">
<title>Node13&#45;&gt;Node14</title>
<g id="a_edge13_Node000013_Node000014"><a xlink:title=" ">
<path fill="none" stroke="#63b8ff" d="M1089.43,-90.2C1132.26,-87.56 1181.57,-84.53 1222.87,-81.98"/>
<polygon fill="#63b8ff" stroke="#63b8ff" points="1089.03,-86.71 1079.26,-90.82 1089.46,-93.7 1089.03,-86.71"/>
</a>
</g>
</g>
<!-- Node14&#45;&gt;Node11 -->
<g id="edge14_Node000014_Node000011" class="edge">
<title>Node14&#45;&gt;Node11</title>
<g id="a_edge14_Node000014_Node000011"><a xlink:title=" ">
<path fill="none" stroke="#63b8ff" d="M1394.49,-93.59C1441.28,-103.52 1499.71,-115.92 1544.73,-125.48"/>
<polygon fill="#63b8ff" stroke="#63b8ff" points="1395.2,-90.16 1384.69,-91.51 1393.74,-97.01 1395.2,-90.16"/>
</a>
</g>
</g>
</g>
</svg>
