<?xml version="1.0" encoding="UTF-8" standalone="no"?>
<!DOCTYPE svg PUBLIC "-//W3C//DTD SVG 1.1//EN"
 "http://www.w3.org/Graphics/SVG/1.1/DTD/svg11.dtd">
<!-- Generated by graphviz version 2.43.0 (0)
 -->
<!-- Title: fiftyone.pipeline.engines.trackers.Tracker Pages: 1 -->
<svg width="718pt" height="86pt"
 viewBox="0.00 0.00 718.00 86.00" xmlns="http://www.w3.org/2000/svg" xmlns:xlink="http://www.w3.org/1999/xlink">
<g id="graph0" class="graph" transform="scale(1 1) rotate(0) translate(4 82)">
<title>fiftyone.pipeline.engines.trackers.Tracker</title>
<!-- Node1 -->
<g id="Node000001" class="node">
<title>Node1</title>
<g id="a_Node000001"><a xlink:title="Represents a &#39;tracker&#39;.">
<polygon fill="#999999" stroke="#666666" points="182,-54 0,-54 0,-24 182,-24 182,-54"/>
<text text-anchor="start" x="8" y="-42" font-family="Helvetica,sans-Serif" font-size="10.00">fiftyone.pipeline.engines.trackers.</text>
<text text-anchor="middle" x="91" y="-31" font-family="Helvetica,sans-Serif" font-size="10.00">Tracker</text>
</a>
</g>
</g>
<!-- Node2 -->
<g id="Node000002" class="node">
<title>Node2</title>
<g id="a_Node000002"><a xlink:href="classfiftyone_1_1pipeline_1_1engines_1_1trackers_1_1_tracker_base.html" target="_top" xlink:title="The abstract base class for trackers.">
<polygon fill="white" stroke="#666666" points="401,-54 219,-54 219,-24 401,-24 401,-54"/>
<text text-anchor="start" x="227" y="-42" font-family="Helvetica,sans-Serif" font-size="10.00">fiftyone.pipeline.engines.trackers.</text>
<text text-anchor="middle" x="310" y="-31" font-family="Helvetica,sans-Serif" font-size="10.00">TrackerBase&lt; T &gt;</text>
</a>
</g>
</g>
<!-- Node1&#45;&gt;Node2 -->
<g id="edge1_Node000001_Node000002" class="edge">
<title>Node1&#45;&gt;Node2</title>
<g id="a_edge1_Node000001_Node000002"><a xlink:title=" ">
<path fill="none" stroke="#63b8ff" d="M192.42,-39C201.22,-39 210.08,-39 218.79,-39"/>
<polygon fill="#63b8ff" stroke="#63b8ff" points="192.14,-35.5 182.14,-39 192.14,-42.5 192.14,-35.5"/>
</a>
</g>
</g>
<!-- Node3 -->
<g id="Node000003" class="node">
<title>Node3</title>
<g id="a_Node000003"><a xlink:href="classfiftyone_1_1pipeline_1_1engines_1_1fiftyone_1_1trackers_1_1_share_usage_tracker.html" target="_top" xlink:title="A tracker used by share usage to attempt to avoid repeatedly sending data relating to the same user s...">
<polygon fill="white" stroke="#666666" points="710,-78 489,-78 489,-48 710,-48 710,-78"/>
<text text-anchor="start" x="497" y="-66" font-family="Helvetica,sans-Serif" font-size="10.00">fiftyone.pipeline.engines.fiftyone.trackers.</text>
<text text-anchor="middle" x="599.5" y="-55" font-family="Helvetica,sans-Serif" font-size="10.00">ShareUsageTracker&lt; Date &gt;</text>
</a>
</g>
</g>
<!-- Node2&#45;&gt;Node3 -->
<g id="edge2_Node000002_Node000003" class="edge">
<title>Node2&#45;&gt;Node3</title>
<g id="a_edge2_Node000002_Node000003"><a xlink:title=" ">
<path fill="none" stroke="#63b8ff" d="M411.42,-47.38C436.48,-49.47 463.47,-51.73 488.95,-53.86"/>
<polygon fill="#63b8ff" stroke="#63b8ff" points="411.43,-43.87 401.18,-46.53 410.85,-50.85 411.43,-43.87"/>
</a>
</g>
</g>
<!-- Node4 -->
<g id="Node000004" class="node">
<title>Node4</title>
<g id="a_Node000004"><a xlink:href="classfiftyone_1_1pipeline_1_1engines_1_1trackers_1_1_tracker_base.html" target="_top" xlink:title=" ">
<polygon fill="white" stroke="#666666" points="690.5,-30 508.5,-30 508.5,0 690.5,0 690.5,-30"/>
<text text-anchor="start" x="516.5" y="-18" font-family="Helvetica,sans-Serif" font-size="10.00">fiftyone.pipeline.engines.trackers.</text>
<text text-anchor="middle" x="599.5" y="-7" font-family="Helvetica,sans-Serif" font-size="10.00">TrackerBase&lt; Date &gt;</text>
</a>
</g>
</g>
<!-- Node2&#45;&gt;Node4 -->
<g id="edge3_Node000002_Node000004" class="edge">
<title>Node2&#45;&gt;Node4</title>
<g id="a_edge3_Node000002_Node000004"><a xlink:title=" ">
<path fill="none" stroke="orange" stroke-dasharray="5,2" d="M411.27,-27.71C413.87,-27.46 416.45,-27.23 419,-27 447.93,-24.43 479.53,-22.14 508.04,-20.27"/>
<polygon fill="orange" stroke="orange" points="410.75,-24.24 401.13,-28.69 411.42,-31.21 410.75,-24.24"/>
</a>
</g>
<text text-anchor="start" x="422" y="-32.5" font-family="Helvetica,sans-Serif" font-size="10.00" fill="grey">&lt; Date &gt;</text>
</g>
</g>
</svg>
