<?xml version="1.0" encoding="UTF-8" standalone="no"?>
<!DOCTYPE svg PUBLIC "-//W3C//DTD SVG 1.1//EN"
 "http://www.w3.org/Graphics/SVG/1.1/DTD/svg11.dtd">
<!-- Generated by graphviz version 2.43.0 (0)
 -->
<!-- Title: fiftyone.pipeline.core.data.EvidenceKeyFilter Pages: 1 -->
<svg width="635pt" height="86pt"
 viewBox="0.00 0.00 635.00 86.00" xmlns="http://www.w3.org/2000/svg" xmlns:xlink="http://www.w3.org/1999/xlink">
<g id="graph0" class="graph" transform="scale(1 1) rotate(0) translate(4 82)">
<title>fiftyone.pipeline.core.data.EvidenceKeyFilter</title>
<!-- Node1 -->
<g id="Node000001" class="node">
<title>Node1</title>
<g id="a_Node000001"><a xlink:title="Represents an object that filters evidence key names based on some criteria.">
<polygon fill="#999999" stroke="#666666" points="147,-54 0,-54 0,-24 147,-24 147,-54"/>
<text text-anchor="start" x="8" y="-42" font-family="Helvetica,sans-Serif" font-size="10.00">fiftyone.pipeline.core.data.</text>
<text text-anchor="middle" x="73.5" y="-31" font-family="Helvetica,sans-Serif" font-size="10.00">EvidenceKeyFilter</text>
</a>
</g>
</g>
<!-- Node2 -->
<g id="Node000002" class="node">
<title>Node2</title>
<g id="a_Node000002"><a xlink:href="classfiftyone_1_1pipeline_1_1core_1_1data_1_1_evidence_key_filter_whitelist.html" target="_top" xlink:title="This evidence filter will only include keys that are on a whitelist that is specified at construction...">
<polygon fill="white" stroke="#666666" points="358.5,-78 211.5,-78 211.5,-48 358.5,-48 358.5,-78"/>
<text text-anchor="start" x="219.5" y="-66" font-family="Helvetica,sans-Serif" font-size="10.00">fiftyone.pipeline.core.data.</text>
<text text-anchor="middle" x="285" y="-55" font-family="Helvetica,sans-Serif" font-size="10.00">EvidenceKeyFilterWhitelist</text>
</a>
</g>
</g>
<!-- Node1&#45;&gt;Node2 -->
<g id="edge1_Node000001_Node000002" class="edge">
<title>Node1&#45;&gt;Node2</title>
<g id="a_edge1_Node000001_Node000002"><a xlink:title=" ">
<path fill="none" stroke="#63b8ff" d="M157.56,-48.51C175.37,-50.56 194.06,-52.7 211.44,-54.69"/>
<polygon fill="#63b8ff" stroke="#63b8ff" points="157.52,-44.99 147.18,-47.33 156.72,-51.94 157.52,-44.99"/>
</a>
</g>
</g>
<!-- Node4 -->
<g id="Node000004" class="node">
<title>Node4</title>
<g id="a_Node000004"><a xlink:href="classfiftyone_1_1pipeline_1_1engines_1_1fiftyone_1_1data_1_1_evidence_key_filter_share_usage.html" target="_top" xlink:title="This filter is used by the ShareUsageElement.">
<polygon fill="white" stroke="#666666" points="387,-30 183,-30 183,0 387,0 387,-30"/>
<text text-anchor="start" x="191" y="-18" font-family="Helvetica,sans-Serif" font-size="10.00">fiftyone.pipeline.engines.fiftyone.data.</text>
<text text-anchor="middle" x="285" y="-7" font-family="Helvetica,sans-Serif" font-size="10.00">EvidenceKeyFilterShareUsage</text>
</a>
</g>
</g>
<!-- Node1&#45;&gt;Node4 -->
<g id="edge3_Node000001_Node000004" class="edge">
<title>Node1&#45;&gt;Node4</title>
<g id="a_edge3_Node000001_Node000004"><a xlink:title=" ">
<path fill="none" stroke="#63b8ff" d="M157.25,-29.52C165.6,-28.56 174.14,-27.59 182.65,-26.61"/>
<polygon fill="#63b8ff" stroke="#63b8ff" points="156.72,-26.06 147.18,-30.67 157.52,-33.01 156.72,-26.06"/>
</a>
</g>
</g>
<!-- Node3 -->
<g id="Node000003" class="node">
<title>Node3</title>
<g id="a_Node000003"><a xlink:href="classfiftyone_1_1pipeline_1_1core_1_1data_1_1_evidence_key_filter_aggregator.html" target="_top" xlink:title="This implementation of EvidenceKeyFilter aggregates multiple other filters using a logical OR approac...">
<polygon fill="white" stroke="#666666" points="604,-78 446,-78 446,-48 604,-48 604,-78"/>
<text text-anchor="start" x="454" y="-66" font-family="Helvetica,sans-Serif" font-size="10.00">fiftyone.pipeline.core.data.</text>
<text text-anchor="middle" x="525" y="-55" font-family="Helvetica,sans-Serif" font-size="10.00">EvidenceKeyFilterAggregator</text>
</a>
</g>
</g>
<!-- Node2&#45;&gt;Node3 -->
<g id="edge2_Node000002_Node000003" class="edge">
<title>Node2&#45;&gt;Node3</title>
<g id="a_edge2_Node000002_Node000003"><a xlink:title=" ">
<path fill="none" stroke="#63b8ff" d="M368.89,-63C393.91,-63 421.27,-63 445.96,-63"/>
<polygon fill="#63b8ff" stroke="#63b8ff" points="368.7,-59.5 358.7,-63 368.7,-66.5 368.7,-59.5"/>
</a>
</g>
</g>
<!-- Node5 -->
<g id="Node000005" class="node">
<title>Node5</title>
<g id="a_Node000005"><a xlink:href="classfiftyone_1_1pipeline_1_1engines_1_1fiftyone_1_1data_1_1_evidence_key_filter_share_usage_tracker.html" target="_top" xlink:title="Wrapper for EvidenceKeyFilter for Share Usage, to be used with the ShareUsageTracker to excluded spec...">
<polygon fill="white" stroke="#666666" points="627,-30 423,-30 423,0 627,0 627,-30"/>
<text text-anchor="start" x="431" y="-18" font-family="Helvetica,sans-Serif" font-size="10.00">fiftyone.pipeline.engines.fiftyone.data.</text>
<text text-anchor="middle" x="525" y="-7" font-family="Helvetica,sans-Serif" font-size="10.00">EvidenceKeyFilterShareUsageTracker</text>
</a>
</g>
</g>
<!-- Node4&#45;&gt;Node5 -->
<g id="edge4_Node000004_Node000005" class="edge">
<title>Node4&#45;&gt;Node5</title>
<g id="a_edge4_Node000004_Node000005"><a xlink:title=" ">
<path fill="none" stroke="#63b8ff" d="M397.53,-15C405.96,-15 414.45,-15 422.81,-15"/>
<polygon fill="#63b8ff" stroke="#63b8ff" points="397.28,-11.5 387.28,-15 397.28,-18.5 397.28,-11.5"/>
</a>
</g>
</g>
</g>
</svg>
