<?xml version="1.0" encoding="UTF-8" standalone="no"?>
<!DOCTYPE svg PUBLIC "-//W3C//DTD SVG 1.1//EN"
 "http://www.w3.org/Graphics/SVG/1.1/DTD/svg11.dtd">
<!-- Generated by graphviz version 2.43.0 (0)
 -->
<!-- Title: fiftyone.pipeline.core.data.ElementData Pages: 1 -->
<svg width="1451pt" height="242pt"
 viewBox="0.00 0.00 1451.00 241.50" xmlns="http://www.w3.org/2000/svg" xmlns:xlink="http://www.w3.org/1999/xlink">
<g id="graph0" class="graph" transform="scale(1 1) rotate(0) translate(4 237.5)">
<title>fiftyone.pipeline.core.data.ElementData</title>
<!-- Node1 -->
<g id="Node000001" class="node">
<title>Node1</title>
<g id="a_Node000001"><a xlink:title="Represents property values that have be determined by a specific FlowElement based on the supplied ev...">
<polygon fill="#999999" stroke="#666666" points="353,-102 206,-102 206,-72 353,-72 353,-102"/>
<text text-anchor="start" x="214" y="-90" font-family="Helvetica,sans-Serif" font-size="10.00">fiftyone.pipeline.core.data.</text>
<text text-anchor="middle" x="279.5" y="-79" font-family="Helvetica,sans-Serif" font-size="10.00">ElementData</text>
</a>
</g>
</g>
<!-- Node3 -->
<g id="Node000003" class="node">
<title>Node3</title>
<g id="a_Node000003"><a xlink:href="classfiftyone_1_1pipeline_1_1core_1_1data_1_1_element_data_base.html" target="_top" xlink:title="Base implementation of ElementData.">
<polygon fill="white" stroke="#666666" points="566,-126 419,-126 419,-96 566,-96 566,-126"/>
<text text-anchor="start" x="427" y="-114" font-family="Helvetica,sans-Serif" font-size="10.00">fiftyone.pipeline.core.data.</text>
<text text-anchor="middle" x="492.5" y="-103" font-family="Helvetica,sans-Serif" font-size="10.00">ElementDataBase</text>
</a>
</g>
</g>
<!-- Node1&#45;&gt;Node3 -->
<g id="edge2_Node000001_Node000003" class="edge">
<title>Node1&#45;&gt;Node3</title>
<g id="a_edge2_Node000001_Node000003"><a xlink:title=" ">
<path fill="none" stroke="#63b8ff" d="M363.19,-96.41C381.53,-98.49 400.84,-100.69 418.75,-102.73"/>
<polygon fill="#63b8ff" stroke="#63b8ff" points="363.45,-92.91 353.11,-95.26 362.65,-99.87 363.45,-92.91"/>
</a>
</g>
</g>
<!-- Node10 -->
<g id="Node000010" class="node">
<title>Node10</title>
<g id="a_Node000010"><a xlink:href="interfacefiftyone_1_1pipeline_1_1engines_1_1data_1_1_aspect_data.html" target="_top" xlink:title="Represents a specialized ElementData instance that is generated by an AspectEngine.">
<polygon fill="white" stroke="#666666" points="574.5,-174 410.5,-174 410.5,-144 574.5,-144 574.5,-174"/>
<text text-anchor="start" x="418.5" y="-162" font-family="Helvetica,sans-Serif" font-size="10.00">fiftyone.pipeline.engines.data.</text>
<text text-anchor="middle" x="492.5" y="-151" font-family="Helvetica,sans-Serif" font-size="10.00">AspectData</text>
</a>
</g>
</g>
<!-- Node1&#45;&gt;Node10 -->
<g id="edge9_Node000001_Node000010" class="edge">
<title>Node1&#45;&gt;Node10</title>
<g id="a_edge9_Node000001_Node000010"><a xlink:title=" ">
<path fill="none" stroke="#63b8ff" d="M319.99,-106.6C340.26,-116.11 365.56,-127.15 389,-135 398.79,-138.28 409.25,-141.28 419.61,-143.97"/>
<polygon fill="#63b8ff" stroke="#63b8ff" points="321.3,-103.35 310.76,-102.21 318.29,-109.67 321.3,-103.35"/>
</a>
</g>
</g>
<!-- Node12 -->
<g id="Node000012" class="node">
<title>Node12</title>
<g id="a_Node000012"><a xlink:href="interfacefiftyone_1_1pipeline_1_1javascriptbuilder_1_1data_1_1_java_script_builder_data.html" target="_top" xlink:title="Data containing the result of a JavaScriptBuilderElements processing.">
<polygon fill="white" stroke="#666666" points="596,-78 389,-78 389,-48 596,-48 596,-78"/>
<text text-anchor="start" x="397" y="-66" font-family="Helvetica,sans-Serif" font-size="10.00">fiftyone.pipeline.javascriptbuilder.data.</text>
<text text-anchor="middle" x="492.5" y="-55" font-family="Helvetica,sans-Serif" font-size="10.00">JavaScriptBuilderData</text>
</a>
</g>
</g>
<!-- Node1&#45;&gt;Node12 -->
<g id="edge12_Node000001_Node000012" class="edge">
<title>Node1&#45;&gt;Node12</title>
<g id="a_edge12_Node000001_Node000012"><a xlink:title=" ">
<path fill="none" stroke="#63b8ff" d="M363.27,-77.59C371.7,-76.63 380.32,-75.65 388.92,-74.67"/>
<polygon fill="#63b8ff" stroke="#63b8ff" points="362.65,-74.13 353.11,-78.74 363.45,-81.09 362.65,-74.13"/>
</a>
</g>
</g>
<!-- Node13 -->
<g id="Node000013" class="node">
<title>Node13</title>
<g id="a_Node000013"><a xlink:href="interfacefiftyone_1_1pipeline_1_1jsonbuilder_1_1data_1_1_json_builder_data.html" target="_top" xlink:title="Data containing the result of a JsonBuilderElements processing.">
<polygon fill="white" stroke="#666666" points="582,-30 403,-30 403,0 582,0 582,-30"/>
<text text-anchor="start" x="411" y="-18" font-family="Helvetica,sans-Serif" font-size="10.00">fiftyone.pipeline.jsonbuilder.data.</text>
<text text-anchor="middle" x="492.5" y="-7" font-family="Helvetica,sans-Serif" font-size="10.00">JsonBuilderData</text>
</a>
</g>
</g>
<!-- Node1&#45;&gt;Node13 -->
<g id="edge14_Node000001_Node000013" class="edge">
<title>Node1&#45;&gt;Node13</title>
<g id="a_edge14_Node000001_Node000013"><a xlink:title=" ">
<path fill="none" stroke="#63b8ff" d="M319.99,-67.4C340.26,-57.89 365.56,-46.85 389,-39 398.79,-35.72 409.25,-32.72 419.61,-30.03"/>
<polygon fill="#63b8ff" stroke="#63b8ff" points="318.29,-64.33 310.76,-71.79 321.3,-70.65 318.29,-64.33"/>
</a>
</g>
</g>
<!-- Node2 -->
<g id="Node000002" class="node">
<title>Node2</title>
<g id="a_Node000002"><a xlink:href="interfacefiftyone_1_1pipeline_1_1core_1_1data_1_1_data.html" target="_top" xlink:title="Represents a collection of property values.">
<polygon fill="white" stroke="#666666" points="170,-96.5 0,-96.5 0,-77.5 170,-77.5 170,-96.5"/>
<text text-anchor="middle" x="85" y="-84.5" font-family="Helvetica,sans-Serif" font-size="10.00">fiftyone.pipeline.core.data.Data</text>
</a>
</g>
</g>
<!-- Node2&#45;&gt;Node1 -->
<g id="edge1_Node000001_Node000002" class="edge">
<title>Node2&#45;&gt;Node1</title>
<g id="a_edge1_Node000001_Node000002"><a xlink:title=" ">
<path fill="none" stroke="#63b8ff" d="M180.27,-87C188.91,-87 197.57,-87 205.97,-87"/>
<polygon fill="#63b8ff" stroke="#63b8ff" points="180.15,-83.5 170.15,-87 180.15,-90.5 180.15,-83.5"/>
</a>
</g>
</g>
<!-- Node4 -->
<g id="Node000004" class="node">
<title>Node4</title>
<g id="a_Node000004"><a xlink:href="classfiftyone_1_1pipeline_1_1engines_1_1data_1_1_aspect_data_base.html" target="_top" xlink:title="Abstract base class for AspectData which overrides the.">
<polygon fill="white" stroke="#666666" points="839.5,-174 675.5,-174 675.5,-144 839.5,-144 839.5,-174"/>
<text text-anchor="start" x="683.5" y="-162" font-family="Helvetica,sans-Serif" font-size="10.00">fiftyone.pipeline.engines.data.</text>
<text text-anchor="middle" x="757.5" y="-151" font-family="Helvetica,sans-Serif" font-size="10.00">AspectDataBase</text>
</a>
</g>
</g>
<!-- Node3&#45;&gt;Node4 -->
<g id="edge3_Node000003_Node000004" class="edge">
<title>Node3&#45;&gt;Node4</title>
<g id="a_edge3_Node000003_Node000004"><a xlink:title=" ">
<path fill="none" stroke="#63b8ff" d="M576.17,-126.09C607.82,-131.87 643.87,-138.44 675.38,-144.19"/>
<polygon fill="#63b8ff" stroke="#63b8ff" points="576.53,-122.6 566.06,-124.24 575.27,-129.48 576.53,-122.6"/>
</a>
</g>
</g>
<!-- Node7 -->
<g id="Node000007" class="node">
<title>Node7</title>
<g id="a_Node000007"><a xlink:href="classfiftyone_1_1pipeline_1_1engines_1_1fiftyone_1_1data_1_1_set_headers_data.html" target="_top" xlink:title="Data containing the result of SetHeadersElement.">
<polygon fill="white" stroke="#666666" points="859.5,-126 655.5,-126 655.5,-96 859.5,-96 859.5,-126"/>
<text text-anchor="start" x="663.5" y="-114" font-family="Helvetica,sans-Serif" font-size="10.00">fiftyone.pipeline.engines.fiftyone.data.</text>
<text text-anchor="middle" x="757.5" y="-103" font-family="Helvetica,sans-Serif" font-size="10.00">SetHeadersData</text>
</a>
</g>
</g>
<!-- Node3&#45;&gt;Node7 -->
<g id="edge6_Node000003_Node000007" class="edge">
<title>Node3&#45;&gt;Node7</title>
<g id="a_edge6_Node000003_Node000007"><a xlink:title=" ">
<path fill="none" stroke="#63b8ff" d="M576.24,-111C601.27,-111 629.04,-111 655.14,-111"/>
<polygon fill="#63b8ff" stroke="#63b8ff" points="576.06,-107.5 566.06,-111 576.06,-114.5 576.06,-107.5"/>
</a>
</g>
</g>
<!-- Node8 -->
<g id="Node000008" class="node">
<title>Node8</title>
<g id="a_Node000008"><a xlink:href="classfiftyone_1_1pipeline_1_1javascriptbuilder_1_1flowelements_1_1_java_script_builder_data_internal.html" target="_top" xlink:title="[class]">
<polygon fill="white" stroke="#666666" points="883,-78 632,-78 632,-48 883,-48 883,-78"/>
<text text-anchor="start" x="640" y="-66" font-family="Helvetica,sans-Serif" font-size="10.00">fiftyone.pipeline.javascriptbuilder.flowelements.</text>
<text text-anchor="middle" x="757.5" y="-55" font-family="Helvetica,sans-Serif" font-size="10.00">JavaScriptBuilderDataInternal</text>
</a>
</g>
</g>
<!-- Node3&#45;&gt;Node8 -->
<g id="edge7_Node000003_Node000008" class="edge">
<title>Node3&#45;&gt;Node8</title>
<g id="a_edge7_Node000003_Node000008"><a xlink:title=" ">
<path fill="none" stroke="#63b8ff" d="M576.03,-95.94C607.25,-90.24 642.75,-83.76 673.97,-78.06"/>
<polygon fill="#63b8ff" stroke="#63b8ff" points="575.27,-92.52 566.06,-97.76 576.53,-99.4 575.27,-92.52"/>
</a>
</g>
</g>
<!-- Node9 -->
<g id="Node000009" class="node">
<title>Node9</title>
<g id="a_Node000009"><a xlink:href="classfiftyone_1_1pipeline_1_1jsonbuilder_1_1flowelements_1_1_json_builder_data_internal.html" target="_top" xlink:title="[class]">
<polygon fill="white" stroke="#666666" points="869.5,-30 645.5,-30 645.5,0 869.5,0 869.5,-30"/>
<text text-anchor="start" x="653.5" y="-18" font-family="Helvetica,sans-Serif" font-size="10.00">fiftyone.pipeline.jsonbuilder.flowelements.</text>
<text text-anchor="middle" x="757.5" y="-7" font-family="Helvetica,sans-Serif" font-size="10.00">JsonBuilderDataInternal</text>
</a>
</g>
</g>
<!-- Node3&#45;&gt;Node9 -->
<g id="edge8_Node000003_Node000009" class="edge">
<title>Node3&#45;&gt;Node9</title>
<g id="a_edge8_Node000003_Node000009"><a xlink:title=" ">
<path fill="none" stroke="#63b8ff" d="M575.91,-97.23C582.98,-94.43 589.79,-91.05 596,-87 618.33,-72.42 609.39,-53.14 632,-39 637.51,-35.56 643.4,-32.59 649.51,-30.03"/>
<polygon fill="#63b8ff" stroke="#63b8ff" points="574.38,-94.06 566.14,-100.71 576.73,-100.65 574.38,-94.06"/>
</a>
</g>
</g>
<!-- Node5 -->
<g id="Node000005" class="node">
<title>Node5</title>
<g id="a_Node000005"><a xlink:href="classfiftyone_1_1pipeline_1_1cloudrequestengine_1_1flowelements_1_1_cloud_request_data_internal.html" target="_top" xlink:title=" ">
<polygon fill="white" stroke="#bfbfbf" points="1185,-174 919,-174 919,-144 1185,-144 1185,-174"/>
<text text-anchor="start" x="927" y="-162" font-family="Helvetica,sans-Serif" font-size="10.00">fiftyone.pipeline.cloudrequestengine.flowelements.</text>
<text text-anchor="middle" x="1052" y="-151" font-family="Helvetica,sans-Serif" font-size="10.00">CloudRequestDataInternal</text>
</a>
</g>
</g>
<!-- Node4&#45;&gt;Node5 -->
<g id="edge4_Node000004_Node000005" class="edge">
<title>Node4&#45;&gt;Node5</title>
<g id="a_edge4_Node000004_Node000005"><a xlink:title=" ">
<path fill="none" stroke="#63b8ff" d="M849.84,-159C871.75,-159 895.58,-159 918.92,-159"/>
<polygon fill="#63b8ff" stroke="#63b8ff" points="849.59,-155.5 839.59,-159 849.59,-162.5 849.59,-155.5"/>
</a>
</g>
</g>
<!-- Node6 -->
<g id="Node000006" class="node">
<title>Node6</title>
<g id="a_Node000006"><a xlink:href="classfiftyone_1_1pipeline_1_1cloudrequestengine_1_1data_1_1_cloud_request_data.html" target="_top" xlink:title=" ">
<polygon fill="white" stroke="#bfbfbf" points="1443,-174 1221,-174 1221,-144 1443,-144 1443,-174"/>
<text text-anchor="start" x="1229" y="-162" font-family="Helvetica,sans-Serif" font-size="10.00">fiftyone.pipeline.cloudrequestengine.data.</text>
<text text-anchor="middle" x="1332" y="-151" font-family="Helvetica,sans-Serif" font-size="10.00">CloudRequestData</text>
</a>
</g>
</g>
<!-- Node5&#45;&gt;Node6 -->
<g id="edge5_Node000005_Node000006" class="edge">
<title>Node5&#45;&gt;Node6</title>
<g id="a_edge5_Node000005_Node000006"><a xlink:title=" ">
<path fill="none" stroke="#63b8ff" d="M1195.14,-159C1203.7,-159 1212.25,-159 1220.66,-159"/>
<polygon fill="#63b8ff" stroke="#63b8ff" points="1195.08,-155.5 1185.08,-159 1195.08,-162.5 1195.08,-155.5"/>
</a>
</g>
</g>
<!-- Node10&#45;&gt;Node4 -->
<g id="edge10_Node000010_Node000004" class="edge">
<title>Node10&#45;&gt;Node4</title>
<g id="a_edge10_Node000010_Node000004"><a xlink:title=" ">
<path fill="none" stroke="#63b8ff" d="M584.82,-159C614.24,-159 646.62,-159 675.26,-159"/>
<polygon fill="#63b8ff" stroke="#63b8ff" points="584.55,-155.5 574.55,-159 584.55,-162.5 584.55,-155.5"/>
</a>
</g>
</g>
<!-- Node11 -->
<g id="Node000011" class="node">
<title>Node11</title>
<g id="a_Node000011"><a xlink:href="interfacefiftyone_1_1pipeline_1_1engines_1_1data_1_1_multi_profile_data.html" target="_top" xlink:title="Specialised implementation of AspectData where the instance contains a list of profiles.">
<polygon fill="white" stroke="#666666" points="839.5,-233.5 675.5,-233.5 675.5,-192.5 839.5,-192.5 839.5,-233.5"/>
<text text-anchor="start" x="683.5" y="-221.5" font-family="Helvetica,sans-Serif" font-size="10.00">fiftyone.pipeline.engines.data.</text>
<text text-anchor="start" x="683.5" y="-210.5" font-family="Helvetica,sans-Serif" font-size="10.00">MultiProfileData&lt; T extends</text>
<text text-anchor="middle" x="757.5" y="-199.5" font-family="Helvetica,sans-Serif" font-size="10.00"> AspectData &gt;</text>
</a>
</g>
</g>
<!-- Node10&#45;&gt;Node11 -->
<g id="edge11_Node000010_Node000011" class="edge">
<title>Node10&#45;&gt;Node11</title>
<g id="a_edge11_Node000010_Node000011"><a xlink:title=" ">
<path fill="none" stroke="#63b8ff" d="M576.82,-176.11C608.29,-182.57 644.04,-189.91 675.32,-196.33"/>
<polygon fill="#63b8ff" stroke="#63b8ff" points="577.26,-172.62 566.76,-174.04 575.85,-179.48 577.26,-172.62"/>
</a>
</g>
</g>
<!-- Node12&#45;&gt;Node8 -->
<g id="edge13_Node000012_Node000008" class="edge">
<title>Node12&#45;&gt;Node8</title>
<g id="a_edge13_Node000012_Node000008"><a xlink:title=" ">
<path fill="none" stroke="#63b8ff" d="M606.5,-63C614.91,-63 623.41,-63 631.88,-63"/>
<polygon fill="#63b8ff" stroke="#63b8ff" points="606.31,-59.5 596.31,-63 606.31,-66.5 606.31,-59.5"/>
</a>
</g>
</g>
<!-- Node13&#45;&gt;Node9 -->
<g id="edge15_Node000013_Node000009" class="edge">
<title>Node13&#45;&gt;Node9</title>
<g id="a_edge15_Node000013_Node000009"><a xlink:title=" ">
<path fill="none" stroke="#63b8ff" d="M592.27,-15C609.59,-15 627.72,-15 645.35,-15"/>
<polygon fill="#63b8ff" stroke="#63b8ff" points="592.17,-11.5 582.17,-15 592.17,-18.5 592.17,-11.5"/>
</a>
</g>
</g>
</g>
</svg>
