<?xml version="1.0" encoding="UTF-8" standalone="no"?>
<!DOCTYPE svg PUBLIC "-//W3C//DTD SVG 1.1//EN"
 "http://www.w3.org/Graphics/SVG/1.1/DTD/svg11.dtd">
<!-- Generated by graphviz version 2.43.0 (0)
 -->
<!-- Title: fiftyone.pipeline.web.services.ClientsidePropertyServiceCore Pages: 1 -->
<svg width="638pt" height="86pt"
 viewBox="0.00 0.00 638.00 86.00" xmlns="http://www.w3.org/2000/svg" xmlns:xlink="http://www.w3.org/1999/xlink">
<g id="graph0" class="graph" transform="scale(1 1) rotate(0) translate(4 82)">
<title>fiftyone.pipeline.web.services.ClientsidePropertyServiceCore</title>
<!-- Node1 -->
<g id="Node000001" class="node">
<title>Node1</title>
<g id="a_Node000001"><a xlink:title="Class that provides functionality for the &#39;Client side overrides&#39; feature.">
<polygon fill="#999999" stroke="#666666" points="165,-54 0,-54 0,-24 165,-24 165,-54"/>
<text text-anchor="start" x="8" y="-42" font-family="Helvetica,sans-Serif" font-size="10.00">fiftyone.pipeline.web.services.</text>
<text text-anchor="middle" x="82.5" y="-31" font-family="Helvetica,sans-Serif" font-size="10.00">ClientsidePropertyServiceCore</text>
</a>
</g>
</g>
<!-- Node2 -->
<g id="Node000002" class="node">
<title>Node2</title>
<g id="a_Node000002"><a xlink:href="interfacefiftyone_1_1pipeline_1_1web_1_1mvc_1_1services_1_1_clientside_property_service.html" target="_top" xlink:title="Spring framework service for the ClientsidePropertyServiceCore.">
<polygon fill="white" stroke="#666666" points="397.5,-78 208.5,-78 208.5,-48 397.5,-48 397.5,-78"/>
<text text-anchor="start" x="216.5" y="-66" font-family="Helvetica,sans-Serif" font-size="10.00">fiftyone.pipeline.web.mvc.services.</text>
<text text-anchor="middle" x="303" y="-55" font-family="Helvetica,sans-Serif" font-size="10.00">ClientsidePropertyService</text>
</a>
</g>
</g>
<!-- Node1&#45;&gt;Node2 -->
<g id="edge1_Node000001_Node000002" class="edge">
<title>Node1&#45;&gt;Node2</title>
<g id="a_edge1_Node000001_Node000002"><a xlink:title=" ">
<path fill="none" stroke="#63b8ff" d="M175.15,-49.07C186.11,-50.27 197.31,-51.5 208.29,-52.71"/>
<polygon fill="#63b8ff" stroke="#63b8ff" points="175.49,-45.58 165.17,-47.97 174.73,-52.54 175.49,-45.58"/>
</a>
</g>
</g>
<!-- Node4 -->
<g id="Node000004" class="node">
<title>Node4</title>
<g id="a_Node000004"><a xlink:href="classfiftyone_1_1pipeline_1_1web_1_1services_1_1_clientside_property_service_core_1_1_default.html" target="_top" xlink:title="Default implementation of the ClientsidePropertyServiceCore interface.">
<polygon fill="white" stroke="#666666" points="405,-30 201,-30 201,0 405,0 405,-30"/>
<text text-anchor="start" x="209" y="-18" font-family="Helvetica,sans-Serif" font-size="10.00">fiftyone.pipeline.web.services.</text>
<text text-anchor="middle" x="303" y="-7" font-family="Helvetica,sans-Serif" font-size="10.00">ClientsidePropertyServiceCore.Default</text>
</a>
</g>
</g>
<!-- Node1&#45;&gt;Node4 -->
<g id="edge3_Node000001_Node000004" class="edge">
<title>Node1&#45;&gt;Node4</title>
<g id="a_edge3_Node000001_Node000004"><a xlink:title=" ">
<path fill="none" stroke="#63b8ff" d="M175.36,-28.91C183.78,-27.98 192.35,-27.04 200.85,-26.11"/>
<polygon fill="#63b8ff" stroke="#63b8ff" points="174.73,-25.46 165.17,-30.03 175.49,-32.42 174.73,-25.46"/>
</a>
</g>
</g>
<!-- Node3 -->
<g id="Node000003" class="node">
<title>Node3</title>
<g id="a_Node000003"><a xlink:href="classfiftyone_1_1pipeline_1_1web_1_1mvc_1_1services_1_1_clientside_property_service_1_1_default.html" target="_top" xlink:title=" ">
<polygon fill="white" stroke="#bfbfbf" points="630,-54 441,-54 441,-24 630,-24 630,-54"/>
<text text-anchor="start" x="449" y="-42" font-family="Helvetica,sans-Serif" font-size="10.00">fiftyone.pipeline.web.mvc.services.</text>
<text text-anchor="middle" x="535.5" y="-31" font-family="Helvetica,sans-Serif" font-size="10.00">ClientsidePropertyService.Default</text>
</a>
</g>
</g>
<!-- Node2&#45;&gt;Node3 -->
<g id="edge2_Node000002_Node000003" class="edge">
<title>Node2&#45;&gt;Node3</title>
<g id="a_edge2_Node000002_Node000003"><a xlink:title=" ">
<path fill="none" stroke="#63b8ff" d="M407.81,-52.19C418.81,-51.05 429.95,-49.89 440.83,-48.75"/>
<polygon fill="#63b8ff" stroke="#63b8ff" points="407.34,-48.72 397.75,-53.24 408.06,-55.68 407.34,-48.72"/>
</a>
</g>
</g>
<!-- Node4&#45;&gt;Node3 -->
<g id="edge4_Node000004_Node000003" class="edge">
<title>Node4&#45;&gt;Node3</title>
<g id="a_edge4_Node000004_Node000003"><a xlink:title=" ">
<path fill="none" stroke="#63b8ff" d="M415.14,-26.57C423.71,-27.46 432.32,-28.36 440.76,-29.24"/>
<polygon fill="#63b8ff" stroke="#63b8ff" points="415.41,-23.08 405.1,-25.53 414.68,-30.04 415.41,-23.08"/>
</a>
</g>
</g>
</g>
</svg>
