<?xml version="1.0" encoding="UTF-8" standalone="no"?>
<!DOCTYPE svg PUBLIC "-//W3C//DTD SVG 1.1//EN"
 "http://www.w3.org/Graphics/SVG/1.1/DTD/svg11.dtd">
<!-- Generated by graphviz version 2.43.0 (0)
 -->
<!-- Title: fiftyone.pipeline.core.flowelements.FlowElement&lt; TData extends ElementData, TProperty extends ElementPropertyMetaData &gt; Pages: 1 -->
<svg width="3305pt" height="734pt"
 viewBox="0.00 0.00 3305.00 734.01" xmlns="http://www.w3.org/2000/svg" xmlns:xlink="http://www.w3.org/1999/xlink">
<g id="graph0" class="graph" transform="scale(1 1) rotate(0) translate(4 730.01)">
<title>fiftyone.pipeline.core.flowelements.FlowElement&lt; TData extends ElementData, TProperty extends ElementPropertyMetaData &gt;</title>
<!-- Node1 -->
<g id="Node000001" class="node">
<title>Node1</title>
<g id="a_Node000001"><a xlink:title="A component that processes a FlowData (by examining its evidence, or by examining data processed by o...">
<polygon fill="#999999" stroke="#666666" points="697,-373.51 444,-373.51 444,-332.51 697,-332.51 697,-373.51"/>
<text text-anchor="start" x="452" y="-361.51" font-family="Helvetica,sans-Serif" font-size="10.00">fiftyone.pipeline.core.flowelements.</text>
<text text-anchor="start" x="452" y="-350.51" font-family="Helvetica,sans-Serif" font-size="10.00">FlowElement&lt; TData extends ElementData,</text>
<text text-anchor="middle" x="570.5" y="-339.51" font-family="Helvetica,sans-Serif" font-size="10.00"> TProperty extends ElementPropertyMetaData &gt;</text>
</a>
</g>
</g>
<!-- Node6 -->
<g id="Node000006" class="node">
<title>Node6</title>
<g id="a_Node000006"><a xlink:href="interfacefiftyone_1_1pipeline_1_1engines_1_1flowelements_1_1_aspect_engine.html" target="_top" xlink:title="AspectEngines are a subset of FlowElements.">
<polygon fill="white" stroke="#666666" points="1136.5,-584.51 891.5,-584.51 891.5,-543.51 1136.5,-543.51 1136.5,-584.51"/>
<text text-anchor="start" x="899.5" y="-572.51" font-family="Helvetica,sans-Serif" font-size="10.00">fiftyone.pipeline.engines.flowelements.</text>
<text text-anchor="start" x="899.5" y="-561.51" font-family="Helvetica,sans-Serif" font-size="10.00">AspectEngine&lt; TData extends AspectData,</text>
<text text-anchor="middle" x="1014" y="-550.51" font-family="Helvetica,sans-Serif" font-size="10.00"> TProperty extends AspectPropertyMetaData &gt;</text>
</a>
</g>
</g>
<!-- Node1&#45;&gt;Node6 -->
<g id="edge5_Node000001_Node000006" class="edge">
<title>Node1&#45;&gt;Node6</title>
<g id="a_edge5_Node000001_Node000006"><a xlink:title=" ">
<path fill="none" stroke="#63b8ff" d="M623.92,-378.06C712.13,-420.22 888.59,-504.55 970.01,-543.47"/>
<polygon fill="#63b8ff" stroke="#63b8ff" points="625.17,-374.78 614.64,-373.63 622.15,-381.1 625.17,-374.78"/>
</a>
</g>
</g>
<!-- Node11 -->
<g id="Node000011" class="node">
<title>Node11</title>
<g id="a_Node000011"><a xlink:href="interfacefiftyone_1_1pipeline_1_1jsonbuilder_1_1flowelements_1_1_json_builder.html" target="_top" xlink:title="The JsonBuilderElement takes accessible properties and adds the property key:values to the Json objec...">
<polygon fill="white" stroke="#666666" points="1138,-454.51 890,-454.51 890,-413.51 1138,-413.51 1138,-454.51"/>
<text text-anchor="start" x="898" y="-442.51" font-family="Helvetica,sans-Serif" font-size="10.00">fiftyone.pipeline.jsonbuilder.flowelements.</text>
<text text-anchor="start" x="898" y="-431.51" font-family="Helvetica,sans-Serif" font-size="10.00">JsonBuilder&lt; JsonBuilderData, ElementProperty</text>
<text text-anchor="middle" x="1014" y="-420.51" font-family="Helvetica,sans-Serif" font-size="10.00">MetaData &gt;</text>
</a>
</g>
</g>
<!-- Node1&#45;&gt;Node11 -->
<g id="edge11_Node000001_Node000011" class="edge">
<title>Node1&#45;&gt;Node11</title>
<g id="a_edge11_Node000001_Node000011"><a xlink:title=" ">
<path fill="none" stroke="#63b8ff" d="M649.89,-376.22C670.91,-381.92 693.71,-387.64 715,-392.01 772.06,-403.74 835.95,-413.22 889.89,-420.18"/>
<polygon fill="#63b8ff" stroke="#63b8ff" points="650.62,-372.8 640.05,-373.52 648.77,-379.55 650.62,-372.8"/>
</a>
</g>
</g>
<!-- Node13 -->
<g id="Node000013" class="node">
<title>Node13</title>
<g id="a_Node000013"><a xlink:href="interfacefiftyone_1_1pipeline_1_1core_1_1flowelements_1_1_flow_element.html" target="_top" xlink:title=" ">
<polygon fill="white" stroke="#666666" points="1109.5,-395.01 918.5,-395.01 918.5,-365.01 1109.5,-365.01 1109.5,-395.01"/>
<text text-anchor="start" x="926.5" y="-383.01" font-family="Helvetica,sans-Serif" font-size="10.00">fiftyone.pipeline.core.flowelements.</text>
<text text-anchor="middle" x="1014" y="-372.01" font-family="Helvetica,sans-Serif" font-size="10.00">FlowElement&lt; TData, TProperty &gt;</text>
</a>
</g>
</g>
<!-- Node1&#45;&gt;Node13 -->
<g id="edge13_Node000001_Node000013" class="edge">
<title>Node1&#45;&gt;Node13</title>
<g id="a_edge13_Node000001_Node000013"><a xlink:title=" ">
<path fill="none" stroke="orange" stroke-dasharray="5,2" d="M707.12,-361.31C775.53,-365.49 856.8,-370.46 918.38,-374.23"/>
<polygon fill="orange" stroke="orange" points="707.33,-357.81 697.13,-360.7 706.9,-364.8 707.33,-357.81"/>
</a>
</g>
<text text-anchor="start" x="740.5" y="-376.51" font-family="Helvetica,sans-Serif" font-size="10.00" fill="grey">&lt; TData, TProperty &gt;</text>
</g>
<!-- Node34 -->
<g id="Node000034" class="node">
<title>Node34</title>
<g id="a_Node000034"><a xlink:href="interfacefiftyone_1_1pipeline_1_1core_1_1flowelements_1_1_flow_element.html" target="_top" xlink:title=" ">
<polygon fill="white" stroke="#666666" points="1109.5,-346.51 918.5,-346.51 918.5,-305.51 1109.5,-305.51 1109.5,-346.51"/>
<text text-anchor="start" x="926.5" y="-334.51" font-family="Helvetica,sans-Serif" font-size="10.00">fiftyone.pipeline.core.flowelements.</text>
<text text-anchor="start" x="926.5" y="-323.51" font-family="Helvetica,sans-Serif" font-size="10.00">FlowElement&lt; JsonBuilderData,</text>
<text text-anchor="middle" x="1014" y="-312.51" font-family="Helvetica,sans-Serif" font-size="10.00"> ElementPropertyMetaData &gt;</text>
</a>
</g>
</g>
<!-- Node1&#45;&gt;Node34 -->
<g id="edge35_Node000001_Node000034" class="edge">
<title>Node1&#45;&gt;Node34</title>
<g id="a_edge35_Node000001_Node000034"><a xlink:title=" ">
<path fill="none" stroke="orange" stroke-dasharray="5,2" d="M677.04,-330.85C689.78,-328.86 702.65,-327.16 715,-326.01 782.74,-319.7 859.52,-319.87 918.17,-321.53"/>
<polygon fill="orange" stroke="orange" points="676.17,-327.45 666.86,-332.51 677.3,-334.36 676.17,-327.45"/>
</a>
</g>
<text text-anchor="start" x="718.5" y="-347.01" font-family="Helvetica,sans-Serif" font-size="10.00" fill="grey">&lt; JsonBuilderData,</text>
<text text-anchor="start" x="718.5" y="-332.01" font-family="Helvetica,sans-Serif" font-size="10.00" fill="grey">   ElementPropertyMetaData &gt;</text>
</g>
<!-- Node35 -->
<g id="Node000035" class="node">
<title>Node35</title>
<g id="a_Node000035"><a xlink:href="interfacefiftyone_1_1pipeline_1_1core_1_1flowelements_1_1_flow_element.html" target="_top" xlink:title=" ">
<polygon fill="white" stroke="#666666" points="1109.5,-287.01 918.5,-287.01 918.5,-257.01 1109.5,-257.01 1109.5,-287.01"/>
<text text-anchor="start" x="926.5" y="-275.01" font-family="Helvetica,sans-Serif" font-size="10.00">fiftyone.pipeline.core.flowelements.</text>
<text text-anchor="middle" x="1014" y="-264.01" font-family="Helvetica,sans-Serif" font-size="10.00">FlowElement&lt;?, ?&gt;</text>
</a>
</g>
</g>
<!-- Node1&#45;&gt;Node35 -->
<g id="edge36_Node000001_Node000035" class="edge">
<title>Node1&#45;&gt;Node35</title>
<g id="a_edge36_Node000001_Node000035"><a xlink:title=" ">
<path fill="none" stroke="orange" stroke-dasharray="5,2" d="M627.12,-328.63C653.3,-318.15 685.25,-306.78 715,-300.01 782.01,-284.76 859.31,-277.8 918.39,-274.63"/>
<polygon fill="orange" stroke="orange" points="625.69,-325.43 617.74,-332.44 628.33,-331.91 625.69,-325.43"/>
</a>
</g>
<text text-anchor="start" x="776.5" y="-305.51" font-family="Helvetica,sans-Serif" font-size="10.00" fill="grey">&lt;?, ?&gt;</text>
</g>
<!-- Node36 -->
<g id="Node000036" class="node">
<title>Node36</title>
<g id="a_Node000036"><a xlink:href="interfacefiftyone_1_1pipeline_1_1core_1_1flowelements_1_1_flow_element.html" target="_top" xlink:title=" ">
<polygon fill="white" stroke="#666666" points="1109.5,-239.01 918.5,-239.01 918.5,-209.01 1109.5,-209.01 1109.5,-239.01"/>
<text text-anchor="start" x="926.5" y="-227.01" font-family="Helvetica,sans-Serif" font-size="10.00">fiftyone.pipeline.core.flowelements.</text>
<text text-anchor="middle" x="1014" y="-216.01" font-family="Helvetica,sans-Serif" font-size="10.00">FlowElement&lt; T, ?&gt;</text>
</a>
</g>
</g>
<!-- Node1&#45;&gt;Node36 -->
<g id="edge37_Node000001_Node000036" class="edge">
<title>Node1&#45;&gt;Node36</title>
<g id="a_edge37_Node000001_Node000036"><a xlink:title=" ">
<path fill="none" stroke="orange" stroke-dasharray="5,2" d="M603.03,-325.72C630.61,-303.5 672.77,-273.39 715,-258.01 780.32,-234.23 858.55,-226 918.47,-223.58"/>
<polygon fill="orange" stroke="orange" points="600.47,-323.29 594.96,-332.34 604.91,-328.71 600.47,-323.29"/>
</a>
</g>
<text text-anchor="start" x="775.5" y="-263.51" font-family="Helvetica,sans-Serif" font-size="10.00" fill="grey">&lt; T, ?&gt;</text>
</g>
<!-- Node2 -->
<g id="Node000002" class="node">
<title>Node2</title>
<g id="a_Node000002"><a xlink:title=" ">
<polygon fill="white" stroke="#bfbfbf" points="324,-405.51 237,-405.51 237,-386.51 324,-386.51 324,-405.51"/>
<text text-anchor="middle" x="280.5" y="-393.51" font-family="Helvetica,sans-Serif" font-size="10.00">AutoCloseable</text>
</a>
</g>
</g>
<!-- Node2&#45;&gt;Node1 -->
<g id="edge1_Node000001_Node000002" class="edge">
<title>Node2&#45;&gt;Node1</title>
<g id="a_edge1_Node000001_Node000002"><a xlink:title=" ">
<path fill="none" stroke="#63b8ff" d="M334.37,-388.12C365.15,-383.52 405.37,-377.52 443.82,-371.78"/>
<polygon fill="#63b8ff" stroke="#63b8ff" points="333.68,-384.68 324.31,-389.62 334.71,-391.61 333.68,-384.68"/>
</a>
</g>
</g>
<!-- Node3 -->
<g id="Node000003" class="node">
<title>Node3</title>
<g id="a_Node000003"><a xlink:href="interfacefiftyone_1_1pipeline_1_1core_1_1data_1_1_element_data.html" target="_top" xlink:title="Represents property values that have be determined by a specific FlowElement based on the supplied ev...">
<polygon fill="white" stroke="#666666" points="354,-368.01 207,-368.01 207,-338.01 354,-338.01 354,-368.01"/>
<text text-anchor="start" x="215" y="-356.01" font-family="Helvetica,sans-Serif" font-size="10.00">fiftyone.pipeline.core.data.</text>
<text text-anchor="middle" x="280.5" y="-345.01" font-family="Helvetica,sans-Serif" font-size="10.00">ElementData</text>
</a>
</g>
</g>
<!-- Node3&#45;&gt;Node1 -->
<g id="edge2_Node000001_Node000003" class="edge">
<title>Node3&#45;&gt;Node1</title>
<g id="a_edge2_Node000001_Node000003"><a xlink:title=" ">
<path fill="none" stroke="orange" stroke-dasharray="5,2" d="M364.26,-353.01C389.11,-353.01 416.94,-353.01 443.89,-353.01"/>
<polygon fill="orange" stroke="orange" points="364.17,-349.51 354.17,-353.01 364.17,-356.51 364.17,-349.51"/>
</a>
</g>
<text text-anchor="start" x="384" y="-358.51" font-family="Helvetica,sans-Serif" font-size="10.00" fill="grey">TData</text>
</g>
<!-- Node4 -->
<g id="Node000004" class="node">
<title>Node4</title>
<g id="a_Node000004"><a xlink:href="interfacefiftyone_1_1pipeline_1_1core_1_1data_1_1_data.html" target="_top" xlink:title="Represents a collection of property values.">
<polygon fill="white" stroke="#666666" points="170,-362.51 0,-362.51 0,-343.51 170,-343.51 170,-362.51"/>
<text text-anchor="middle" x="85" y="-350.51" font-family="Helvetica,sans-Serif" font-size="10.00">fiftyone.pipeline.core.data.Data</text>
</a>
</g>
</g>
<!-- Node4&#45;&gt;Node3 -->
<g id="edge3_Node000003_Node000004" class="edge">
<title>Node4&#45;&gt;Node3</title>
<g id="a_edge3_Node000003_Node000004"><a xlink:title=" ">
<path fill="none" stroke="#63b8ff" d="M180.11,-353.01C189.07,-353.01 198.06,-353.01 206.77,-353.01"/>
<polygon fill="#63b8ff" stroke="#63b8ff" points="180.03,-349.51 170.03,-353.01 180.03,-356.51 180.03,-349.51"/>
</a>
</g>
</g>
<!-- Node5 -->
<g id="Node000005" class="node">
<title>Node5</title>
<g id="a_Node000005"><a xlink:href="interfacefiftyone_1_1pipeline_1_1core_1_1data_1_1_element_property_meta_data.html" target="_top" xlink:title="Defines details of a property that can be returned by a FlowElement.">
<polygon fill="white" stroke="#666666" points="354,-320.01 207,-320.01 207,-290.01 354,-290.01 354,-320.01"/>
<text text-anchor="start" x="215" y="-308.01" font-family="Helvetica,sans-Serif" font-size="10.00">fiftyone.pipeline.core.data.</text>
<text text-anchor="middle" x="280.5" y="-297.01" font-family="Helvetica,sans-Serif" font-size="10.00">ElementPropertyMetaData</text>
</a>
</g>
</g>
<!-- Node5&#45;&gt;Node1 -->
<g id="edge4_Node000001_Node000005" class="edge">
<title>Node5&#45;&gt;Node1</title>
<g id="a_edge4_Node000001_Node000005"><a xlink:title=" ">
<path fill="none" stroke="orange" stroke-dasharray="5,2" d="M364.2,-318.8C389.84,-323.07 418.66,-327.87 446.42,-332.5"/>
<polygon fill="orange" stroke="orange" points="364.61,-315.32 354.17,-317.13 363.46,-322.22 364.61,-315.32"/>
</a>
</g>
<text text-anchor="start" x="375" y="-334.51" font-family="Helvetica,sans-Serif" font-size="10.00" fill="grey">TProperty</text>
</g>
<!-- Node6&#45;&gt;Node6 -->
<g id="edge9_Node000006_Node000006" class="edge">
<title>Node6&#45;&gt;Node6</title>
<g id="a_edge9_Node000006_Node000006"><a xlink:title=" ">
<path fill="none" stroke="orange" stroke-dasharray="5,2" d="M976.15,-594.47C981.78,-599.25 994.4,-602.51 1014,-602.51 1045.37,-602.51 1058.85,-594.16 1054.43,-584.61"/>
<polygon fill="orange" stroke="orange" points="979.49,-593.4 973.57,-584.61 972.71,-595.17 979.49,-593.4"/>
</a>
</g>
<text text-anchor="start" x="961" y="-608.01" font-family="Helvetica,sans-Serif" font-size="10.00" fill="grey">&lt; TData, TProperty &gt;</text>
</g>
<!-- Node7 -->
<g id="Node000007" class="node">
<title>Node7</title>
<g id="a_Node000007"><a xlink:href="interfacefiftyone_1_1pipeline_1_1cloudrequestengine_1_1flowelements_1_1_cloud_request_engine.html" target="_top" xlink:title="Engine that makes requests to the 51Degrees cloud service based on the details passed at creation and...">
<polygon fill="white" stroke="#666666" points="1686,-694.51 1420,-694.51 1420,-653.51 1686,-653.51 1686,-694.51"/>
<text text-anchor="start" x="1428" y="-682.51" font-family="Helvetica,sans-Serif" font-size="10.00">fiftyone.pipeline.cloudrequestengine.flowelements.</text>
<text text-anchor="start" x="1428" y="-671.51" font-family="Helvetica,sans-Serif" font-size="10.00">CloudRequestEngine&lt; CloudRequestData,</text>
<text text-anchor="middle" x="1553" y="-660.51" font-family="Helvetica,sans-Serif" font-size="10.00"> AspectPropertyMetaData &gt;</text>
</a>
</g>
</g>
<!-- Node6&#45;&gt;Node7 -->
<g id="edge6_Node000006_Node000007" class="edge">
<title>Node6&#45;&gt;Node7</title>
<g id="a_edge6_Node000006_Node000007"><a xlink:title=" ">
<path fill="none" stroke="#63b8ff" d="M1054.85,-589.93C1082.17,-606.35 1119.88,-626.41 1156,-637.01 1241.64,-662.14 1341.74,-671.33 1419.88,-674.27"/>
<polygon fill="#63b8ff" stroke="#63b8ff" points="1056.36,-586.75 1046,-584.53 1052.71,-592.73 1056.36,-586.75"/>
</a>
</g>
</g>
<!-- Node9 -->
<g id="Node000009" class="node">
<title>Node9</title>
<g id="a_Node000009"><a xlink:href="interfacefiftyone_1_1pipeline_1_1engines_1_1flowelements_1_1_aspect_engine.html" target="_top" xlink:title=" ">
<polygon fill="white" stroke="#666666" points="1657.5,-628.51 1448.5,-628.51 1448.5,-587.51 1657.5,-587.51 1657.5,-628.51"/>
<text text-anchor="start" x="1456.5" y="-616.51" font-family="Helvetica,sans-Serif" font-size="10.00">fiftyone.pipeline.engines.flowelements.</text>
<text text-anchor="start" x="1456.5" y="-605.51" font-family="Helvetica,sans-Serif" font-size="10.00">AspectEngine&lt; CloudRequestData,</text>
<text text-anchor="middle" x="1553" y="-594.51" font-family="Helvetica,sans-Serif" font-size="10.00"> AspectPropertyMetaData &gt;</text>
</a>
</g>
</g>
<!-- Node6&#45;&gt;Node9 -->
<g id="edge8_Node000006_Node000009" class="edge">
<title>Node6&#45;&gt;Node9</title>
<g id="a_edge8_Node000006_Node000009"><a xlink:title=" ">
<path fill="none" stroke="orange" stroke-dasharray="5,2" d="M1146.78,-584.99C1149.88,-585.35 1152.96,-585.69 1156,-586.01 1254.95,-596.45 1368.36,-602.12 1448.38,-605.07"/>
<polygon fill="orange" stroke="orange" points="1147.15,-581.51 1136.8,-583.79 1146.31,-588.46 1147.15,-581.51"/>
</a>
</g>
<text text-anchor="start" x="1197" y="-622.01" font-family="Helvetica,sans-Serif" font-size="10.00" fill="grey">&lt; CloudRequestData,</text>
<text text-anchor="start" x="1197" y="-607.01" font-family="Helvetica,sans-Serif" font-size="10.00" fill="grey">   AspectPropertyMetaData &gt;</text>
</g>
<!-- Node10 -->
<g id="Node000010" class="node">
<title>Node10</title>
<g id="a_Node000010"><a xlink:href="interfacefiftyone_1_1pipeline_1_1engines_1_1flowelements_1_1_aspect_engine.html" target="_top" xlink:title=" ">
<polygon fill="white" stroke="#666666" points="1708,-534.01 1398,-534.01 1398,-482.01 1708,-482.01 1708,-534.01"/>
<text text-anchor="start" x="1406" y="-522.01" font-family="Helvetica,sans-Serif" font-size="10.00">fiftyone.pipeline.engines.flowelements.</text>
<text text-anchor="start" x="1406" y="-511.01" font-family="Helvetica,sans-Serif" font-size="10.00">AspectEngine&lt;? extends fiftyone.pipeline.engines.data.</text>
<text text-anchor="start" x="1406" y="-500.01" font-family="Helvetica,sans-Serif" font-size="10.00">AspectData, ? extends fiftyone.pipeline.engines.data.Aspect</text>
<text text-anchor="middle" x="1553" y="-489.01" font-family="Helvetica,sans-Serif" font-size="10.00">PropertyMetaData &gt;</text>
</a>
</g>
</g>
<!-- Node6&#45;&gt;Node10 -->
<g id="edge10_Node000006_Node000010" class="edge">
<title>Node6&#45;&gt;Node10</title>
<g id="a_edge10_Node000006_Node000010"><a xlink:title=" ">
<path fill="none" stroke="orange" stroke-dasharray="5,2" d="M1061.71,-538.95C1088.48,-526.02 1123.19,-511.6 1156,-505.01 1234.7,-489.21 1323.98,-488.45 1397.82,-492.29"/>
<polygon fill="orange" stroke="orange" points="1060.01,-535.89 1052.59,-543.45 1063.11,-542.17 1060.01,-535.89"/>
</a>
</g>
<text text-anchor="start" x="1159" y="-570.51" font-family="Helvetica,sans-Serif" font-size="10.00" fill="grey">&lt;? extends fiftyone</text>
<text text-anchor="start" x="1159" y="-555.51" font-family="Helvetica,sans-Serif" font-size="10.00" fill="grey">  ::pipeline::engines</text>
<text text-anchor="start" x="1159" y="-540.51" font-family="Helvetica,sans-Serif" font-size="10.00" fill="grey">  ::data::AspectData, </text>
<text text-anchor="start" x="1159" y="-525.51" font-family="Helvetica,sans-Serif" font-size="10.00" fill="grey">  ? extends fiftyone::pipeline</text>
<text text-anchor="start" x="1159" y="-510.51" font-family="Helvetica,sans-Serif" font-size="10.00" fill="grey">  ::engines::data::AspectPropertyMetaData &gt;</text>
</g>
<!-- Node8 -->
<g id="Node000008" class="node">
<title>Node8</title>
<g id="a_Node000008"><a xlink:href="classfiftyone_1_1pipeline_1_1cloudrequestengine_1_1flowelements_1_1_cloud_request_engine_default.html" target="_top" xlink:title="Engine that makes requests to the 51Degrees cloud service.">
<polygon fill="white" stroke="#666666" points="2179.5,-726.01 1913.5,-726.01 1913.5,-696.01 2179.5,-696.01 2179.5,-726.01"/>
<text text-anchor="start" x="1921.5" y="-714.01" font-family="Helvetica,sans-Serif" font-size="10.00">fiftyone.pipeline.cloudrequestengine.flowelements.</text>
<text text-anchor="middle" x="2046.5" y="-703.01" font-family="Helvetica,sans-Serif" font-size="10.00">CloudRequestEngineDefault</text>
</a>
</g>
</g>
<!-- Node7&#45;&gt;Node8 -->
<g id="edge7_Node000007_Node000008" class="edge">
<title>Node7&#45;&gt;Node8</title>
<g id="a_edge7_Node000007_Node000008"><a xlink:title=" ">
<path fill="none" stroke="#63b8ff" d="M1696.03,-684.7C1764.47,-689.86 1846.05,-696 1913.16,-701.05"/>
<polygon fill="#63b8ff" stroke="#63b8ff" points="1696.27,-681.21 1686.04,-683.95 1695.75,-688.19 1696.27,-681.21"/>
</a>
</g>
</g>
<!-- Node12 -->
<g id="Node000012" class="node">
<title>Node12</title>
<g id="a_Node000012"><a xlink:href="classfiftyone_1_1pipeline_1_1jsonbuilder_1_1flowelements_1_1_json_builder_element.html" target="_top" xlink:title="The JsonBuilderElement takes accessible properties and adds the property key:values to the Json objec...">
<polygon fill="white" stroke="#666666" points="1665,-449.01 1441,-449.01 1441,-419.01 1665,-419.01 1665,-449.01"/>
<text text-anchor="start" x="1449" y="-437.01" font-family="Helvetica,sans-Serif" font-size="10.00">fiftyone.pipeline.jsonbuilder.flowelements.</text>
<text text-anchor="middle" x="1553" y="-426.01" font-family="Helvetica,sans-Serif" font-size="10.00">JsonBuilderElement</text>
</a>
</g>
</g>
<!-- Node11&#45;&gt;Node12 -->
<g id="edge12_Node000011_Node000012" class="edge">
<title>Node11&#45;&gt;Node12</title>
<g id="a_edge12_Node000011_Node000012"><a xlink:title=" ">
<path fill="none" stroke="#63b8ff" d="M1148.21,-434.01C1238.25,-434.01 1355.77,-434.01 1440.79,-434.01"/>
<polygon fill="#63b8ff" stroke="#63b8ff" points="1148.2,-430.51 1138.2,-434.01 1148.2,-437.51 1148.2,-430.51"/>
</a>
</g>
</g>
<!-- Node14 -->
<g id="Node000014" class="node">
<title>Node14</title>
<g id="a_Node000014"><a xlink:href="classfiftyone_1_1pipeline_1_1core_1_1flowelements_1_1_flow_element_base.html" target="_top" xlink:title="Provides a base class from which authors may create new FlowElements.">
<polygon fill="white" stroke="#666666" points="1648.5,-371.01 1457.5,-371.01 1457.5,-319.01 1648.5,-319.01 1648.5,-371.01"/>
<text text-anchor="start" x="1465.5" y="-359.01" font-family="Helvetica,sans-Serif" font-size="10.00">fiftyone.pipeline.core.flowelements.</text>
<text text-anchor="start" x="1465.5" y="-348.01" font-family="Helvetica,sans-Serif" font-size="10.00">FlowElementBase&lt; TData extends</text>
<text text-anchor="start" x="1465.5" y="-337.01" font-family="Helvetica,sans-Serif" font-size="10.00"> ElementData, TProperty extends</text>
<text text-anchor="middle" x="1553" y="-326.01" font-family="Helvetica,sans-Serif" font-size="10.00"> ElementPropertyMetaData &gt;</text>
</a>
</g>
</g>
<!-- Node13&#45;&gt;Node14 -->
<g id="edge14_Node000013_Node000014" class="edge">
<title>Node13&#45;&gt;Node14</title>
<g id="a_edge14_Node000013_Node000014"><a xlink:title=" ">
<path fill="none" stroke="#63b8ff" d="M1119.99,-373.17C1217.94,-366.79 1362.78,-357.35 1457.28,-351.19"/>
<polygon fill="#63b8ff" stroke="#63b8ff" points="1119.52,-369.69 1109.77,-373.84 1119.98,-376.68 1119.52,-369.69"/>
</a>
</g>
</g>
<!-- Node15 -->
<g id="Node000015" class="node">
<title>Node15</title>
<g id="a_Node000015"><a xlink:href="classfiftyone_1_1pipeline_1_1engines_1_1fiftyone_1_1flowelements_1_1_sequence_element.html" target="_top" xlink:title="Sequence element establishes session and sequence evidence in the pipeline.">
<polygon fill="white" stroke="#666666" points="2180,-677.51 1913,-677.51 1913,-636.51 2180,-636.51 2180,-677.51"/>
<text text-anchor="start" x="1921" y="-665.51" font-family="Helvetica,sans-Serif" font-size="10.00">fiftyone.pipeline.engines.fiftyone.flowelements.</text>
<text text-anchor="start" x="1921" y="-654.51" font-family="Helvetica,sans-Serif" font-size="10.00">SequenceElement&lt; ElementData, ElementProperty</text>
<text text-anchor="middle" x="2046.5" y="-643.51" font-family="Helvetica,sans-Serif" font-size="10.00">MetaData &gt;</text>
</a>
</g>
</g>
<!-- Node14&#45;&gt;Node15 -->
<g id="edge15_Node000014_Node000015" class="edge">
<title>Node14&#45;&gt;Node15</title>
<g id="a_edge15_Node000014_Node000015"><a xlink:title=" ">
<path fill="none" stroke="#63b8ff" d="M1657.73,-371.51C1676.96,-380.8 1695.04,-393.28 1708,-410.01 1741.56,-453.35 1694.09,-487.45 1726,-532.01 1780.4,-607.97 1825.08,-596.43 1913,-628.01 1921.53,-631.08 1930.49,-633.88 1939.57,-636.42"/>
<polygon fill="#63b8ff" stroke="#63b8ff" points="1659.08,-368.28 1648.53,-367.34 1656.19,-374.66 1659.08,-368.28"/>
</a>
</g>
</g>
<!-- Node16 -->
<g id="Node000016" class="node">
<title>Node16</title>
<g id="a_Node000016"><a xlink:href="classfiftyone_1_1pipeline_1_1engines_1_1fiftyone_1_1flowelements_1_1_set_headers_element.html" target="_top" xlink:title="SetHeadersElement constructs the header values to be set in the HTTP response.">
<polygon fill="white" stroke="#666666" points="2170.5,-618.51 1922.5,-618.51 1922.5,-577.51 2170.5,-577.51 2170.5,-618.51"/>
<text text-anchor="start" x="1930.5" y="-606.51" font-family="Helvetica,sans-Serif" font-size="10.00">fiftyone.pipeline.engines.fiftyone.flowelements.</text>
<text text-anchor="start" x="1930.5" y="-595.51" font-family="Helvetica,sans-Serif" font-size="10.00">SetHeadersElement&lt; SetHeadersData,</text>
<text text-anchor="middle" x="2046.5" y="-584.51" font-family="Helvetica,sans-Serif" font-size="10.00"> ElementPropertyMetaData &gt;</text>
</a>
</g>
</g>
<!-- Node14&#45;&gt;Node16 -->
<g id="edge16_Node000014_Node000016" class="edge">
<title>Node14&#45;&gt;Node16</title>
<g id="a_edge16_Node000014_Node000016"><a xlink:title=" ">
<path fill="none" stroke="#63b8ff" d="M1657.76,-373.62C1676.51,-382.71 1694.39,-394.58 1708,-410.01 1727.55,-432.17 1707.25,-451.18 1726,-474.01 1785.16,-546.06 1825.2,-537.68 1913,-569.01 1921.65,-572.1 1930.74,-574.92 1939.93,-577.48"/>
<polygon fill="#63b8ff" stroke="#63b8ff" points="1659.05,-370.36 1648.5,-369.37 1656.13,-376.72 1659.05,-370.36"/>
</a>
</g>
</g>
<!-- Node17 -->
<g id="Node000017" class="node">
<title>Node17</title>
<g id="a_Node000017"><a xlink:href="classfiftyone_1_1pipeline_1_1engines_1_1fiftyone_1_1flowelements_1_1_share_usage_base.html" target="_top" xlink:title="Abstract base class for ShareUsage elements.">
<polygon fill="white" stroke="#666666" points="2177.5,-559.51 1915.5,-559.51 1915.5,-518.51 2177.5,-518.51 2177.5,-559.51"/>
<text text-anchor="start" x="1923.5" y="-547.51" font-family="Helvetica,sans-Serif" font-size="10.00">fiftyone.pipeline.engines.fiftyone.flowelements.</text>
<text text-anchor="start" x="1923.5" y="-536.51" font-family="Helvetica,sans-Serif" font-size="10.00">ShareUsageBase&lt; ElementData, ElementProperty</text>
<text text-anchor="middle" x="2046.5" y="-525.51" font-family="Helvetica,sans-Serif" font-size="10.00">MetaData &gt;</text>
</a>
</g>
</g>
<!-- Node14&#45;&gt;Node17 -->
<g id="edge17_Node000014_Node000017" class="edge">
<title>Node14&#45;&gt;Node17</title>
<g id="a_edge17_Node000014_Node000017"><a xlink:title=" ">
<path fill="none" stroke="#63b8ff" d="M1626.95,-374.91C1652.68,-385.7 1681.74,-398.14 1708,-410.01 1800.19,-451.7 1817.49,-475.63 1913,-509.01 1922.91,-512.48 1933.37,-515.64 1943.91,-518.51"/>
<polygon fill="#63b8ff" stroke="#63b8ff" points="1628.2,-371.65 1617.63,-371.02 1625.5,-378.1 1628.2,-371.65"/>
</a>
</g>
</g>
<!-- Node19 -->
<g id="Node000019" class="node">
<title>Node19</title>
<g id="a_Node000019"><a xlink:href="classfiftyone_1_1pipeline_1_1engines_1_1flowelements_1_1_aspect_engine_base.html" target="_top" xlink:title="Base class for AspectEngines to extend.">
<polygon fill="white" stroke="#666666" points="2170.5,-465.01 1922.5,-465.01 1922.5,-413.01 2170.5,-413.01 2170.5,-465.01"/>
<text text-anchor="start" x="1930.5" y="-453.01" font-family="Helvetica,sans-Serif" font-size="10.00">fiftyone.pipeline.engines.flowelements.</text>
<text text-anchor="start" x="1930.5" y="-442.01" font-family="Helvetica,sans-Serif" font-size="10.00">AspectEngineBase&lt; TData extends</text>
<text text-anchor="start" x="1930.5" y="-431.01" font-family="Helvetica,sans-Serif" font-size="10.00"> AspectData, TProperty extends AspectProperty</text>
<text text-anchor="middle" x="2046.5" y="-420.01" font-family="Helvetica,sans-Serif" font-size="10.00">MetaData &gt;</text>
</a>
</g>
</g>
<!-- Node14&#45;&gt;Node19 -->
<g id="edge19_Node000014_Node000019" class="edge">
<title>Node14&#45;&gt;Node19</title>
<g id="a_edge19_Node000014_Node000019"><a xlink:title=" ">
<path fill="none" stroke="#63b8ff" d="M1658.98,-365.09C1736.07,-379.83 1841.05,-399.91 1922.15,-415.42"/>
<polygon fill="#63b8ff" stroke="#63b8ff" points="1659.25,-361.58 1648.77,-363.14 1657.93,-368.45 1659.25,-361.58"/>
</a>
</g>
</g>
<!-- Node26 -->
<g id="Node000026" class="node">
<title>Node26</title>
<g id="a_Node000026"><a xlink:href="classfiftyone_1_1pipeline_1_1javascriptbuilder_1_1flowelements_1_1_java_script_builder_element.html" target="_top" xlink:title="[class]">
<polygon fill="white" stroke="#666666" points="2177,-394.51 1916,-394.51 1916,-353.51 2177,-353.51 2177,-394.51"/>
<text text-anchor="start" x="1924" y="-382.51" font-family="Helvetica,sans-Serif" font-size="10.00">fiftyone.pipeline.javascriptbuilder.flowelements.</text>
<text text-anchor="start" x="1924" y="-371.51" font-family="Helvetica,sans-Serif" font-size="10.00">JavaScriptBuilderElement&lt; JavaScriptBuilderData,</text>
<text text-anchor="middle" x="2046.5" y="-360.51" font-family="Helvetica,sans-Serif" font-size="10.00"> ElementPropertyMetaData &gt;</text>
</a>
</g>
</g>
<!-- Node14&#45;&gt;Node26 -->
<g id="edge27_Node000014_Node000026" class="edge">
<title>Node14&#45;&gt;Node26</title>
<g id="a_edge27_Node000014_Node000026"><a xlink:title=" ">
<path fill="none" stroke="#63b8ff" d="M1659.18,-351.22C1734.23,-355.65 1835.63,-361.63 1915.72,-366.36"/>
<polygon fill="#63b8ff" stroke="#63b8ff" points="1658.95,-347.7 1648.77,-350.6 1658.54,-354.69 1658.95,-347.7"/>
</a>
</g>
</g>
<!-- Node27 -->
<g id="Node000027" class="node">
<title>Node27</title>
<g id="a_Node000027"><a xlink:href="classfiftyone_1_1pipeline_1_1jsonbuilder_1_1flowelements_1_1_json_builder_element.html" target="_top" xlink:title="The JsonBuilderElement takes accessible properties and adds the property key:values to the Json objec...">
<polygon fill="white" stroke="#666666" points="2158.5,-335.51 1934.5,-335.51 1934.5,-294.51 2158.5,-294.51 2158.5,-335.51"/>
<text text-anchor="start" x="1942.5" y="-323.51" font-family="Helvetica,sans-Serif" font-size="10.00">fiftyone.pipeline.jsonbuilder.flowelements.</text>
<text text-anchor="start" x="1942.5" y="-312.51" font-family="Helvetica,sans-Serif" font-size="10.00">JsonBuilderElement&lt; JsonBuilderData,</text>
<text text-anchor="middle" x="2046.5" y="-301.51" font-family="Helvetica,sans-Serif" font-size="10.00"> ElementPropertyMetaData &gt;</text>
</a>
</g>
</g>
<!-- Node14&#45;&gt;Node27 -->
<g id="edge28_Node000014_Node000027" class="edge">
<title>Node14&#45;&gt;Node27</title>
<g id="a_edge28_Node000014_Node000027"><a xlink:title=" ">
<path fill="none" stroke="#63b8ff" d="M1658.98,-338.6C1739.97,-333.66 1851.74,-326.84 1934.26,-321.8"/>
<polygon fill="#63b8ff" stroke="#63b8ff" points="1658.53,-335.13 1648.77,-339.23 1658.96,-342.11 1658.53,-335.13"/>
</a>
</g>
</g>
<!-- Node28 -->
<g id="Node000028" class="node">
<title>Node28</title>
<g id="a_Node000028"><a xlink:href="classfiftyone_1_1pipeline_1_1core_1_1flowelements_1_1_flow_element_base.html" target="_top" xlink:title=" ">
<polygon fill="white" stroke="#666666" points="2142,-276.51 1951,-276.51 1951,-235.51 2142,-235.51 2142,-276.51"/>
<text text-anchor="start" x="1959" y="-264.51" font-family="Helvetica,sans-Serif" font-size="10.00">fiftyone.pipeline.core.flowelements.</text>
<text text-anchor="start" x="1959" y="-253.51" font-family="Helvetica,sans-Serif" font-size="10.00">FlowElementBase&lt; ElementData,</text>
<text text-anchor="middle" x="2046.5" y="-242.51" font-family="Helvetica,sans-Serif" font-size="10.00"> ElementPropertyMetaData &gt;</text>
</a>
</g>
</g>
<!-- Node14&#45;&gt;Node28 -->
<g id="edge29_Node000014_Node000028" class="edge">
<title>Node14&#45;&gt;Node28</title>
<g id="a_edge29_Node000014_Node000028"><a xlink:title=" ">
<path fill="none" stroke="orange" stroke-dasharray="5,2" d="M1632.23,-315.67C1661.31,-305.8 1694.81,-295.62 1726,-289.01 1800.6,-273.2 1886.67,-264.87 1950.67,-260.53"/>
<polygon fill="orange" stroke="orange" points="1630.87,-312.44 1622.55,-319 1633.15,-319.06 1630.87,-312.44"/>
</a>
</g>
<text text-anchor="start" x="1729.5" y="-310.01" font-family="Helvetica,sans-Serif" font-size="10.00" fill="grey">&lt; ElementData, ElementProperty</text>
<text text-anchor="start" x="1729.5" y="-295.01" font-family="Helvetica,sans-Serif" font-size="10.00" fill="grey">  MetaData &gt;</text>
</g>
<!-- Node30 -->
<g id="Node000030" class="node">
<title>Node30</title>
<g id="a_Node000030"><a xlink:href="classfiftyone_1_1pipeline_1_1core_1_1flowelements_1_1_flow_element_base.html" target="_top" xlink:title=" ">
<polygon fill="white" stroke="#666666" points="2145.5,-217.51 1947.5,-217.51 1947.5,-176.51 2145.5,-176.51 2145.5,-217.51"/>
<text text-anchor="start" x="1955.5" y="-205.51" font-family="Helvetica,sans-Serif" font-size="10.00">fiftyone.pipeline.core.flowelements.</text>
<text text-anchor="start" x="1955.5" y="-194.51" font-family="Helvetica,sans-Serif" font-size="10.00">FlowElementBase&lt; SetHeadersData,</text>
<text text-anchor="middle" x="2046.5" y="-183.51" font-family="Helvetica,sans-Serif" font-size="10.00"> ElementPropertyMetaData &gt;</text>
</a>
</g>
</g>
<!-- Node14&#45;&gt;Node30 -->
<g id="edge31_Node000014_Node000030" class="edge">
<title>Node14&#45;&gt;Node30</title>
<g id="a_edge31_Node000014_Node000030"><a xlink:title=" ">
<path fill="none" stroke="orange" stroke-dasharray="5,2" d="M1591.2,-312.23C1624.18,-285.21 1674.91,-248.44 1726,-230.01 1797.21,-204.33 1882.74,-196.61 1947.38,-195.02"/>
<polygon fill="orange" stroke="orange" points="1588.66,-309.79 1583.2,-318.87 1593.13,-315.17 1588.66,-309.79"/>
</a>
</g>
<text text-anchor="start" x="1741.5" y="-251.01" font-family="Helvetica,sans-Serif" font-size="10.00" fill="grey">&lt; SetHeadersData, Element</text>
<text text-anchor="start" x="1741.5" y="-236.01" font-family="Helvetica,sans-Serif" font-size="10.00" fill="grey">  PropertyMetaData &gt;</text>
</g>
<!-- Node31 -->
<g id="Node000031" class="node">
<title>Node31</title>
<g id="a_Node000031"><a xlink:href="classfiftyone_1_1pipeline_1_1core_1_1flowelements_1_1_flow_element_base.html" target="_top" xlink:title=" ">
<polygon fill="white" stroke="#666666" points="2151,-158.01 1942,-158.01 1942,-128.01 2151,-128.01 2151,-158.01"/>
<text text-anchor="start" x="1950" y="-146.01" font-family="Helvetica,sans-Serif" font-size="10.00">fiftyone.pipeline.core.flowelements.</text>
<text text-anchor="middle" x="2046.5" y="-135.01" font-family="Helvetica,sans-Serif" font-size="10.00">FlowElementBase&lt; TData, TProperty &gt;</text>
</a>
</g>
</g>
<!-- Node14&#45;&gt;Node31 -->
<g id="edge32_Node000014_Node000031" class="edge">
<title>Node14&#45;&gt;Node31</title>
<g id="a_edge32_Node000014_Node000031"><a xlink:title=" ">
<path fill="none" stroke="orange" stroke-dasharray="5,2" d="M1578.18,-310.45C1607.95,-270.95 1662.46,-207.92 1726,-178.01 1793.28,-146.35 1877.08,-138.17 1941.98,-137.6"/>
<polygon fill="orange" stroke="orange" points="1575,-308.87 1571.86,-318.99 1580.62,-313.04 1575,-308.87"/>
</a>
</g>
<text text-anchor="start" x="1757.5" y="-183.51" font-family="Helvetica,sans-Serif" font-size="10.00" fill="grey">&lt; TData, TProperty &gt;</text>
</g>
<!-- Node32 -->
<g id="Node000032" class="node">
<title>Node32</title>
<g id="a_Node000032"><a xlink:href="classfiftyone_1_1pipeline_1_1core_1_1flowelements_1_1_flow_element_base.html" target="_top" xlink:title=" ">
<polygon fill="white" stroke="#666666" points="2159,-109.51 1934,-109.51 1934,-68.51 2159,-68.51 2159,-109.51"/>
<text text-anchor="start" x="1942" y="-97.51" font-family="Helvetica,sans-Serif" font-size="10.00">fiftyone.pipeline.core.flowelements.</text>
<text text-anchor="start" x="1942" y="-86.51" font-family="Helvetica,sans-Serif" font-size="10.00">FlowElementBase&lt; JavaScriptBuilderData,</text>
<text text-anchor="middle" x="2046.5" y="-75.51" font-family="Helvetica,sans-Serif" font-size="10.00"> ElementPropertyMetaData &gt;</text>
</a>
</g>
</g>
<!-- Node14&#45;&gt;Node32 -->
<g id="edge33_Node000014_Node000032" class="edge">
<title>Node14&#45;&gt;Node32</title>
<g id="a_edge33_Node000014_Node000032"><a xlink:title=" ">
<path fill="none" stroke="orange" stroke-dasharray="5,2" d="M1567.47,-309.24C1590.45,-253.92 1642.97,-149.26 1726,-104.01 1788.78,-69.8 1869.23,-66.21 1933.69,-71.09"/>
<polygon fill="orange" stroke="orange" points="1564.17,-308.07 1563.65,-318.65 1570.66,-310.7 1564.17,-308.07"/>
</a>
</g>
<text text-anchor="start" x="1735.5" y="-125.01" font-family="Helvetica,sans-Serif" font-size="10.00" fill="grey">&lt; JavaScriptBuilderData,</text>
<text text-anchor="start" x="1735.5" y="-110.01" font-family="Helvetica,sans-Serif" font-size="10.00" fill="grey">   ElementPropertyMetaData &gt;</text>
</g>
<!-- Node33 -->
<g id="Node000033" class="node">
<title>Node33</title>
<g id="a_Node000033"><a xlink:href="classfiftyone_1_1pipeline_1_1core_1_1flowelements_1_1_flow_element_base.html" target="_top" xlink:title=" ">
<polygon fill="white" stroke="#666666" points="2145,-50.51 1948,-50.51 1948,-9.51 2145,-9.51 2145,-50.51"/>
<text text-anchor="start" x="1956" y="-38.51" font-family="Helvetica,sans-Serif" font-size="10.00">fiftyone.pipeline.core.flowelements.</text>
<text text-anchor="start" x="1956" y="-27.51" font-family="Helvetica,sans-Serif" font-size="10.00">FlowElementBase&lt; JsonBuilderData,</text>
<text text-anchor="middle" x="2046.5" y="-16.51" font-family="Helvetica,sans-Serif" font-size="10.00"> ElementPropertyMetaData &gt;</text>
</a>
</g>
</g>
<!-- Node14&#45;&gt;Node33 -->
<g id="edge34_Node000014_Node000033" class="edge">
<title>Node14&#45;&gt;Node33</title>
<g id="a_edge34_Node000014_Node000033"><a xlink:title=" ">
<path fill="none" stroke="orange" stroke-dasharray="5,2" d="M1561.53,-308.98C1577.9,-241 1623.76,-95.17 1726,-34.01 1797.29,8.63 1894.5,2.75 1962.92,-9.47"/>
<polygon fill="orange" stroke="orange" points="1558.1,-308.28 1559.24,-318.81 1564.92,-309.86 1558.1,-308.28"/>
</a>
</g>
<text text-anchor="start" x="1735.5" y="-55.01" font-family="Helvetica,sans-Serif" font-size="10.00" fill="grey">&lt; JsonBuilderData,</text>
<text text-anchor="start" x="1735.5" y="-40.01" font-family="Helvetica,sans-Serif" font-size="10.00" fill="grey">   ElementPropertyMetaData &gt;</text>
</g>
<!-- Node18 -->
<g id="Node000018" class="node">
<title>Node18</title>
<g id="a_Node000018"><a xlink:href="classfiftyone_1_1pipeline_1_1engines_1_1fiftyone_1_1flowelements_1_1_share_usage_element.html" target="_top" xlink:title="Flow element that sends usage data to 51Degrees for analysis.">
<polygon fill="white" stroke="#666666" points="2625,-567.01 2377,-567.01 2377,-537.01 2625,-537.01 2625,-567.01"/>
<text text-anchor="start" x="2385" y="-555.01" font-family="Helvetica,sans-Serif" font-size="10.00">fiftyone.pipeline.engines.fiftyone.flowelements.</text>
<text text-anchor="middle" x="2501" y="-544.01" font-family="Helvetica,sans-Serif" font-size="10.00">ShareUsageElement</text>
</a>
</g>
</g>
<!-- Node17&#45;&gt;Node18 -->
<g id="edge18_Node000017_Node000018" class="edge">
<title>Node17&#45;&gt;Node18</title>
<g id="a_edge18_Node000017_Node000018"><a xlink:title=" ">
<path fill="none" stroke="#63b8ff" d="M2187.78,-543.04C2248.28,-544.78 2318.41,-546.8 2376.86,-548.47"/>
<polygon fill="#63b8ff" stroke="#63b8ff" points="2187.87,-539.54 2177.77,-542.76 2187.67,-546.54 2187.87,-539.54"/>
</a>
</g>
</g>
<!-- Node19&#45;&gt;Node19 -->
<g id="edge26_Node000019_Node000019" class="edge">
<title>Node19&#45;&gt;Node19</title>
<g id="a_edge26_Node000019_Node000019"><a xlink:title=" ">
<path fill="none" stroke="orange" stroke-dasharray="5,2" d="M2008.28,-474.41C2014.35,-479.55 2027.09,-483.01 2046.5,-483.01 2076.07,-483.01 2090.17,-474.98 2088.78,-465.21"/>
<polygon fill="orange" stroke="orange" points="2011.46,-472.95 2004.22,-465.21 2005.05,-475.77 2011.46,-472.95"/>
</a>
</g>
<text text-anchor="start" x="1993.5" y="-488.51" font-family="Helvetica,sans-Serif" font-size="10.00" fill="grey">&lt; TData, TProperty &gt;</text>
</g>
<!-- Node20 -->
<g id="Node000020" class="node">
<title>Node20</title>
<g id="a_Node000020"><a xlink:href="classfiftyone_1_1pipeline_1_1cloudrequestengine_1_1flowelements_1_1_cloud_aspect_engine_base.html" target="_top" xlink:title="Base class for 51Degrees Cloud Aspect Engines.">
<polygon fill="white" stroke="#666666" points="2634,-518.51 2368,-518.51 2368,-477.51 2634,-477.51 2634,-518.51"/>
<text text-anchor="start" x="2376" y="-506.51" font-family="Helvetica,sans-Serif" font-size="10.00">fiftyone.pipeline.cloudrequestengine.flowelements.</text>
<text text-anchor="start" x="2376" y="-495.51" font-family="Helvetica,sans-Serif" font-size="10.00">CloudAspectEngineBase&lt; TData extends</text>
<text text-anchor="middle" x="2501" y="-484.51" font-family="Helvetica,sans-Serif" font-size="10.00"> AspectData &gt;</text>
</a>
</g>
</g>
<!-- Node19&#45;&gt;Node20 -->
<g id="edge20_Node000019_Node000020" class="edge">
<title>Node19&#45;&gt;Node20</title>
<g id="a_edge20_Node000019_Node000020"><a xlink:title=" ">
<path fill="none" stroke="#63b8ff" d="M2180.69,-456.38C2239.71,-464.07 2308.96,-473.1 2367.86,-480.78"/>
<polygon fill="#63b8ff" stroke="#63b8ff" points="2180.92,-452.88 2170.55,-455.06 2180.01,-459.82 2180.92,-452.88"/>
</a>
</g>
</g>
<!-- Node23 -->
<g id="Node000023" class="node">
<title>Node23</title>
<g id="a_Node000023"><a xlink:href="classfiftyone_1_1pipeline_1_1cloudrequestengine_1_1flowelements_1_1_cloud_request_engine_default.html" target="_top" xlink:title="Engine that makes requests to the 51Degrees cloud service.">
<polygon fill="white" stroke="#666666" points="2634,-459.51 2368,-459.51 2368,-418.51 2634,-418.51 2634,-459.51"/>
<text text-anchor="start" x="2376" y="-447.51" font-family="Helvetica,sans-Serif" font-size="10.00">fiftyone.pipeline.cloudrequestengine.flowelements.</text>
<text text-anchor="start" x="2376" y="-436.51" font-family="Helvetica,sans-Serif" font-size="10.00">CloudRequestEngineDefault&lt; CloudRequestData,</text>
<text text-anchor="middle" x="2501" y="-425.51" font-family="Helvetica,sans-Serif" font-size="10.00"> AspectPropertyMetaData &gt;</text>
</a>
</g>
</g>
<!-- Node19&#45;&gt;Node23 -->
<g id="edge23_Node000019_Node000023" class="edge">
<title>Node19&#45;&gt;Node23</title>
<g id="a_edge23_Node000019_Node000023"><a xlink:title=" ">
<path fill="none" stroke="#63b8ff" d="M2180.69,-439.01C2239.71,-439.01 2308.96,-439.01 2367.86,-439.01"/>
<polygon fill="#63b8ff" stroke="#63b8ff" points="2180.55,-435.51 2170.55,-439.01 2180.55,-442.51 2180.55,-435.51"/>
</a>
</g>
</g>
<!-- Node24 -->
<g id="Node000024" class="node">
<title>Node24</title>
<g id="a_Node000024"><a xlink:href="classfiftyone_1_1pipeline_1_1engines_1_1flowelements_1_1_aspect_engine_base.html" target="_top" xlink:title=" ">
<polygon fill="white" stroke="#666666" points="2614.5,-400.51 2387.5,-400.51 2387.5,-359.51 2614.5,-359.51 2614.5,-400.51"/>
<text text-anchor="start" x="2395.5" y="-388.51" font-family="Helvetica,sans-Serif" font-size="10.00">fiftyone.pipeline.engines.flowelements.</text>
<text text-anchor="start" x="2395.5" y="-377.51" font-family="Helvetica,sans-Serif" font-size="10.00">AspectEngineBase&lt; TData, AspectProperty</text>
<text text-anchor="middle" x="2501" y="-366.51" font-family="Helvetica,sans-Serif" font-size="10.00">MetaData &gt;</text>
</a>
</g>
</g>
<!-- Node19&#45;&gt;Node24 -->
<g id="edge24_Node000019_Node000024" class="edge">
<title>Node19&#45;&gt;Node24</title>
<g id="a_edge24_Node000019_Node000024"><a xlink:title=" ">
<path fill="none" stroke="orange" stroke-dasharray="5,2" d="M2156.67,-410.76C2170.52,-407.81 2184.54,-405.12 2198,-403.01 2260.21,-393.27 2330.3,-387.61 2387.29,-384.34"/>
<polygon fill="orange" stroke="orange" points="2155.65,-407.4 2146.63,-412.95 2157.15,-414.23 2155.65,-407.4"/>
</a>
</g>
<text text-anchor="start" x="2201" y="-424.01" font-family="Helvetica,sans-Serif" font-size="10.00" fill="grey">&lt; TData, AspectPropertyMeta</text>
<text text-anchor="start" x="2201" y="-409.01" font-family="Helvetica,sans-Serif" font-size="10.00" fill="grey">  Data &gt;</text>
</g>
<!-- Node25 -->
<g id="Node000025" class="node">
<title>Node25</title>
<g id="a_Node000025"><a xlink:href="classfiftyone_1_1pipeline_1_1engines_1_1flowelements_1_1_aspect_engine_base.html" target="_top" xlink:title=" ">
<polygon fill="white" stroke="#666666" points="2607,-341.51 2395,-341.51 2395,-300.51 2607,-300.51 2607,-341.51"/>
<text text-anchor="start" x="2403" y="-329.51" font-family="Helvetica,sans-Serif" font-size="10.00">fiftyone.pipeline.engines.flowelements.</text>
<text text-anchor="start" x="2403" y="-318.51" font-family="Helvetica,sans-Serif" font-size="10.00">AspectEngineBase&lt; CloudRequestData,</text>
<text text-anchor="middle" x="2501" y="-307.51" font-family="Helvetica,sans-Serif" font-size="10.00"> AspectPropertyMetaData &gt;</text>
</a>
</g>
</g>
<!-- Node19&#45;&gt;Node25 -->
<g id="edge25_Node000019_Node000025" class="edge">
<title>Node19&#45;&gt;Node25</title>
<g id="a_edge25_Node000019_Node000025"><a xlink:title=" ">
<path fill="none" stroke="orange" stroke-dasharray="5,2" d="M2177.01,-406.69C2178.03,-405.82 2179.02,-404.93 2180,-404.01 2198.45,-386.7 2178.21,-365.77 2198,-350.01 2252.5,-306.63 2331.28,-300.33 2394.72,-304.38"/>
<polygon fill="orange" stroke="orange" points="2174.68,-404.07 2168.85,-412.92 2178.92,-409.63 2174.68,-404.07"/>
</a>
</g>
<text text-anchor="start" x="2203" y="-371.01" font-family="Helvetica,sans-Serif" font-size="10.00" fill="grey">&lt; CloudRequestData,</text>
<text text-anchor="start" x="2203" y="-356.01" font-family="Helvetica,sans-Serif" font-size="10.00" fill="grey">   AspectPropertyMetaData &gt;</text>
</g>
<!-- Node21 -->
<g id="Node000021" class="node">
<title>Node21</title>
<g id="a_Node000021"><a xlink:href="classfiftyone_1_1pipeline_1_1cloudrequestengine_1_1flowelements_1_1_cloud_aspect_engine_base.html" target="_top" xlink:title=" ">
<polygon fill="white" stroke="#666666" points="2994,-513.01 2728,-513.01 2728,-483.01 2994,-483.01 2994,-513.01"/>
<text text-anchor="start" x="2736" y="-501.01" font-family="Helvetica,sans-Serif" font-size="10.00">fiftyone.pipeline.cloudrequestengine.flowelements.</text>
<text text-anchor="middle" x="2861" y="-490.01" font-family="Helvetica,sans-Serif" font-size="10.00">CloudAspectEngineBase&lt; TData &gt;</text>
</a>
</g>
</g>
<!-- Node20&#45;&gt;Node21 -->
<g id="edge21_Node000020_Node000021" class="edge">
<title>Node20&#45;&gt;Node21</title>
<g id="a_edge21_Node000020_Node000021"><a xlink:title=" ">
<path fill="none" stroke="orange" stroke-dasharray="5,2" d="M2644.14,-498.01C2671.72,-498.01 2700.53,-498.01 2727.78,-498.01"/>
<polygon fill="orange" stroke="orange" points="2644.03,-494.51 2634.03,-498.01 2644.03,-501.51 2644.03,-494.51"/>
</a>
</g>
<text text-anchor="start" x="2655" y="-503.51" font-family="Helvetica,sans-Serif" font-size="10.00" fill="grey">&lt; TData &gt;</text>
</g>
<!-- Node22 -->
<g id="Node000022" class="node">
<title>Node22</title>
<g id="a_Node000022"><a xlink:href="classfiftyone_1_1pipeline_1_1cloudrequestengine_1_1flowelements_1_1_property_keyed_cloud_engine_base.html" target="_top" xlink:title="A specialised type of CloudAspectEngineBase that has the functionality to support returning a list of...">
<polygon fill="white" stroke="#666666" points="3297,-524.01 3031,-524.01 3031,-472.01 3297,-472.01 3297,-524.01"/>
<text text-anchor="start" x="3039" y="-512.01" font-family="Helvetica,sans-Serif" font-size="10.00">fiftyone.pipeline.cloudrequestengine.flowelements.</text>
<text text-anchor="start" x="3039" y="-501.01" font-family="Helvetica,sans-Serif" font-size="10.00">PropertyKeyedCloudEngineBase&lt; TData</text>
<text text-anchor="start" x="3039" y="-490.01" font-family="Helvetica,sans-Serif" font-size="10.00"> extends MultiProfileData&lt; TProfile</text>
<text text-anchor="middle" x="3164" y="-479.01" font-family="Helvetica,sans-Serif" font-size="10.00"> &gt;, TProfile extends AspectData &gt;</text>
</a>
</g>
</g>
<!-- Node21&#45;&gt;Node22 -->
<g id="edge22_Node000021_Node000022" class="edge">
<title>Node21&#45;&gt;Node22</title>
<g id="a_edge22_Node000021_Node000022"><a xlink:title=" ">
<path fill="none" stroke="#63b8ff" d="M3004.03,-498.01C3012.91,-498.01 3021.84,-498.01 3030.68,-498.01"/>
<polygon fill="#63b8ff" stroke="#63b8ff" points="3004.02,-494.51 2994.02,-498.01 3004.02,-501.51 3004.02,-494.51"/>
</a>
</g>
</g>
<!-- Node29 -->
<g id="Node000029" class="node">
<title>Node29</title>
<g id="a_Node000029"><a xlink:title=" ">
<polygon fill="white" stroke="#666666" points="2596.5,-271.01 2405.5,-271.01 2405.5,-241.01 2596.5,-241.01 2596.5,-271.01"/>
<text text-anchor="start" x="2413.5" y="-259.01" font-family="Helvetica,sans-Serif" font-size="10.00">fiftyone.pipeline.core.flowelements.</text>
<text text-anchor="middle" x="2501" y="-248.01" font-family="Helvetica,sans-Serif" font-size="10.00">ParallelElements</text>
</a>
</g>
</g>
<!-- Node28&#45;&gt;Node29 -->
<g id="edge30_Node000028_Node000029" class="edge">
<title>Node28&#45;&gt;Node29</title>
<g id="a_edge30_Node000028_Node000029"><a xlink:title=" ">
<path fill="none" stroke="#63b8ff" d="M2152.2,-256.01C2228.56,-256.01 2331.19,-256.01 2405.15,-256.01"/>
<polygon fill="#63b8ff" stroke="#63b8ff" points="2152.08,-252.51 2142.08,-256.01 2152.08,-259.51 2152.08,-252.51"/>
</a>
</g>
</g>
</g>
</svg>
