<?xml version="1.0" encoding="UTF-8" standalone="no"?>
<!DOCTYPE svg PUBLIC "-//W3C//DTD SVG 1.1//EN"
 "http://www.w3.org/Graphics/SVG/1.1/DTD/svg11.dtd">
<!-- Generated by graphviz version 2.43.0 (0)
 -->
<!-- Title: FiftyOne.DeviceDetection.Examples.ExampleBase Pages: 1 -->
<svg width="406pt" height="521pt"
 viewBox="0.00 0.00 406.00 521.00" xmlns="http://www.w3.org/2000/svg" xmlns:xlink="http://www.w3.org/1999/xlink">
<g id="graph0" class="graph" transform="scale(1 1) rotate(0) translate(4 517)">
<title>FiftyOne.DeviceDetection.Examples.ExampleBase</title>
<!-- Node1 -->
<g id="Node000001" class="node">
<title>Node1</title>
<g id="a_Node000001"><a xlink:title=" ">
<polygon fill="#999999" stroke="#666666" points="144,-271.5 0,-271.5 0,-241.5 144,-241.5 144,-271.5"/>
<text text-anchor="start" x="8" y="-259.5" font-family="Helvetica,sans-Serif" font-size="10.00">FiftyOne.DeviceDetection.</text>
<text text-anchor="middle" x="72" y="-248.5" font-family="Helvetica,sans-Serif" font-size="10.00">Examples.ExampleBase</text>
</a>
</g>
</g>
<!-- Node2 -->
<g id="Node000002" class="node">
<title>Node2</title>
<g id="a_Node000002"><a xlink:href="class_fifty_one_1_1_device_detection_1_1_examples_1_1_cloud_1_1_metadata_1_1_program_1_1_example.html" target="_top" xlink:title=" ">
<polygon fill="white" stroke="#bfbfbf" points="385,-513 193,-513 193,-472 385,-472 385,-513"/>
<text text-anchor="start" x="201" y="-501" font-family="Helvetica,sans-Serif" font-size="10.00">FiftyOne.DeviceDetection.</text>
<text text-anchor="start" x="201" y="-490" font-family="Helvetica,sans-Serif" font-size="10.00">Examples.Cloud.Metadata.Program.</text>
<text text-anchor="middle" x="289" y="-479" font-family="Helvetica,sans-Serif" font-size="10.00">Example</text>
</a>
</g>
</g>
<!-- Node1&#45;&gt;Node2 -->
<g id="edge1_Node000001_Node000002" class="edge">
<title>Node1&#45;&gt;Node2</title>
<g id="a_edge1_Node000001_Node000002"><a xlink:title=" ">
<path fill="none" stroke="#63b8ff" d="M78.84,-281.49C90.39,-325.2 120.33,-415.44 180,-463.5 184.01,-466.73 188.34,-469.6 192.89,-472.15"/>
<polygon fill="#63b8ff" stroke="#63b8ff" points="82.21,-280.51 76.36,-271.68 75.42,-282.23 82.21,-280.51"/>
</a>
</g>
</g>
<!-- Node3 -->
<g id="Node000003" class="node">
<title>Node3</title>
<g id="a_Node000003"><a xlink:href="class_fifty_one_1_1_device_detection_1_1_examples_1_1_on_premise_1_1_getting_started_console_1_1_program_1_1_example.html" target="_top" xlink:title=" ">
<polygon fill="white" stroke="#bfbfbf" points="386.5,-454 191.5,-454 191.5,-413 386.5,-413 386.5,-454"/>
<text text-anchor="start" x="199.5" y="-442" font-family="Helvetica,sans-Serif" font-size="10.00">FiftyOne.DeviceDetection.</text>
<text text-anchor="start" x="199.5" y="-431" font-family="Helvetica,sans-Serif" font-size="10.00">Examples.OnPremise.GettingStarted</text>
<text text-anchor="middle" x="289" y="-420" font-family="Helvetica,sans-Serif" font-size="10.00">Console.Program.Example</text>
</a>
</g>
</g>
<!-- Node1&#45;&gt;Node3 -->
<g id="edge2_Node000001_Node000003" class="edge">
<title>Node1&#45;&gt;Node3</title>
<g id="a_edge2_Node000001_Node000003"><a xlink:title=" ">
<path fill="none" stroke="#63b8ff" d="M84.16,-281.14C100.44,-314.28 133.87,-372.7 180,-404.5 184.56,-407.64 189.44,-410.44 194.51,-412.94"/>
<polygon fill="#63b8ff" stroke="#63b8ff" points="87.13,-279.24 79.66,-271.73 80.81,-282.26 87.13,-279.24"/>
</a>
</g>
</g>
<!-- Node4 -->
<g id="Node000004" class="node">
<title>Node4</title>
<g id="a_Node000004"><a xlink:href="class_fifty_one_1_1_device_detection_1_1_examples_1_1_on_premise_1_1_match_metrics_1_1_program_1_1_example.html" target="_top" xlink:title=" ">
<polygon fill="white" stroke="#bfbfbf" points="385.5,-395 192.5,-395 192.5,-354 385.5,-354 385.5,-395"/>
<text text-anchor="start" x="200.5" y="-383" font-family="Helvetica,sans-Serif" font-size="10.00">FiftyOne.DeviceDetection.</text>
<text text-anchor="start" x="200.5" y="-372" font-family="Helvetica,sans-Serif" font-size="10.00">Examples.OnPremise.MatchMetrics.</text>
<text text-anchor="middle" x="289" y="-361" font-family="Helvetica,sans-Serif" font-size="10.00">Program.Example</text>
</a>
</g>
</g>
<!-- Node1&#45;&gt;Node4 -->
<g id="edge3_Node000001_Node000004" class="edge">
<title>Node1&#45;&gt;Node4</title>
<g id="a_edge3_Node000001_Node000004"><a xlink:title=" ">
<path fill="none" stroke="#63b8ff" d="M94.23,-279.01C114.46,-299.21 146.71,-328.25 180,-345.5 186.03,-348.63 192.44,-351.44 198.99,-353.97"/>
<polygon fill="#63b8ff" stroke="#63b8ff" points="96.59,-276.42 87.08,-271.75 91.6,-281.33 96.59,-276.42"/>
</a>
</g>
</g>
<!-- Node5 -->
<g id="Node000005" class="node">
<title>Node5</title>
<g id="a_Node000005"><a xlink:href="class_fifty_one_1_1_device_detection_1_1_examples_1_1_on_premise_1_1_metadata_1_1_program_1_1_example.html" target="_top" xlink:title=" ">
<polygon fill="white" stroke="#bfbfbf" points="398,-336 180,-336 180,-295 398,-295 398,-336"/>
<text text-anchor="start" x="188" y="-324" font-family="Helvetica,sans-Serif" font-size="10.00">FiftyOne.DeviceDetection.</text>
<text text-anchor="start" x="188" y="-313" font-family="Helvetica,sans-Serif" font-size="10.00">Examples.OnPremise.Metadata.Program.</text>
<text text-anchor="middle" x="289" y="-302" font-family="Helvetica,sans-Serif" font-size="10.00">Example</text>
</a>
</g>
</g>
<!-- Node1&#45;&gt;Node5 -->
<g id="edge4_Node000001_Node000005" class="edge">
<title>Node1&#45;&gt;Node5</title>
<g id="a_edge4_Node000001_Node000005"><a xlink:title=" ">
<path fill="none" stroke="#63b8ff" d="M136.12,-274.32C150.54,-278.36 165.79,-282.6 180,-286.5 190.02,-289.25 200.56,-292.12 210.98,-294.93"/>
<polygon fill="#63b8ff" stroke="#63b8ff" points="136.88,-270.9 126.31,-271.57 134.99,-277.64 136.88,-270.9"/>
</a>
</g>
</g>
<!-- Node6 -->
<g id="Node000006" class="node">
<title>Node6</title>
<g id="a_Node000006"><a xlink:href="class_fifty_one_1_1_device_detection_1_1_examples_1_1_on_premise_1_1_offline_processing_1_1_program_1_1_example.html" target="_top" xlink:title=" ">
<polygon fill="white" stroke="#bfbfbf" points="395,-277 183,-277 183,-236 395,-236 395,-277"/>
<text text-anchor="start" x="191" y="-265" font-family="Helvetica,sans-Serif" font-size="10.00">FiftyOne.DeviceDetection.</text>
<text text-anchor="start" x="191" y="-254" font-family="Helvetica,sans-Serif" font-size="10.00">Examples.OnPremise.OfflineProcessing.</text>
<text text-anchor="middle" x="289" y="-243" font-family="Helvetica,sans-Serif" font-size="10.00">Program.Example</text>
</a>
</g>
</g>
<!-- Node1&#45;&gt;Node6 -->
<g id="edge5_Node000001_Node000006" class="edge">
<title>Node1&#45;&gt;Node6</title>
<g id="a_edge5_Node000001_Node000006"><a xlink:title=" ">
<path fill="none" stroke="#63b8ff" d="M154.57,-256.5C163.78,-256.5 173.27,-256.5 182.73,-256.5"/>
<polygon fill="#63b8ff" stroke="#63b8ff" points="154.29,-253 144.29,-256.5 154.29,-260 154.29,-253"/>
</a>
</g>
</g>
<!-- Node7 -->
<g id="Node000007" class="node">
<title>Node7</title>
<g id="a_Node000007"><a xlink:href="class_fifty_one_1_1_device_detection_1_1_examples_1_1_on_premise_1_1_performance_1_1_program_1_1_example.html" target="_top" xlink:title=" ">
<polygon fill="white" stroke="#bfbfbf" points="383.5,-218 194.5,-218 194.5,-177 383.5,-177 383.5,-218"/>
<text text-anchor="start" x="202.5" y="-206" font-family="Helvetica,sans-Serif" font-size="10.00">FiftyOne.DeviceDetection.</text>
<text text-anchor="start" x="202.5" y="-195" font-family="Helvetica,sans-Serif" font-size="10.00">Examples.OnPremise.Performance.</text>
<text text-anchor="middle" x="289" y="-184" font-family="Helvetica,sans-Serif" font-size="10.00">Program.Example</text>
</a>
</g>
</g>
<!-- Node1&#45;&gt;Node7 -->
<g id="edge6_Node000001_Node000007" class="edge">
<title>Node1&#45;&gt;Node7</title>
<g id="a_edge6_Node000001_Node000007"><a xlink:title=" ">
<path fill="none" stroke="#63b8ff" d="M137.75,-238.73C161.46,-232.23 188.48,-224.81 213.01,-218.08"/>
<polygon fill="#63b8ff" stroke="#63b8ff" points="136.53,-235.44 127.81,-241.46 138.38,-242.19 136.53,-235.44"/>
</a>
</g>
</g>
<!-- Node8 -->
<g id="Node000008" class="node">
<title>Node8</title>
<g id="a_Node000008"><a xlink:href="class_fifty_one_1_1_device_detection_1_1_examples_1_1_on_premise_1_1_performance_multi_property_1_1_program_1_1_example.html" target="_top" xlink:title=" ">
<polygon fill="white" stroke="#bfbfbf" points="382,-159 196,-159 196,-118 382,-118 382,-159"/>
<text text-anchor="start" x="204" y="-147" font-family="Helvetica,sans-Serif" font-size="10.00">FiftyOne.DeviceDetection.</text>
<text text-anchor="start" x="204" y="-136" font-family="Helvetica,sans-Serif" font-size="10.00">Examples.OnPremise.Performance</text>
<text text-anchor="middle" x="289" y="-125" font-family="Helvetica,sans-Serif" font-size="10.00">MultiProperty.Program.Example</text>
</a>
</g>
</g>
<!-- Node1&#45;&gt;Node8 -->
<g id="edge7_Node000001_Node000008" class="edge">
<title>Node1&#45;&gt;Node8</title>
<g id="a_edge7_Node000001_Node000008"><a xlink:title=" ">
<path fill="none" stroke="#63b8ff" d="M94.31,-234.32C114.6,-214.4 146.89,-185.72 180,-168.5 186.73,-165 193.92,-161.87 201.27,-159.07"/>
<polygon fill="#63b8ff" stroke="#63b8ff" points="91.74,-231.93 87.14,-241.48 96.69,-236.89 91.74,-231.93"/>
</a>
</g>
</g>
<!-- Node9 -->
<g id="Node000009" class="node">
<title>Node9</title>
<g id="a_Node000009"><a xlink:href="class_fifty_one_1_1_device_detection_1_1_examples_1_1_on_premise_1_1_performance_sweep_1_1_program_1_1_example.html" target="_top" xlink:title=" ">
<polygon fill="white" stroke="#bfbfbf" points="382,-100 196,-100 196,-59 382,-59 382,-100"/>
<text text-anchor="start" x="204" y="-88" font-family="Helvetica,sans-Serif" font-size="10.00">FiftyOne.DeviceDetection.</text>
<text text-anchor="start" x="204" y="-77" font-family="Helvetica,sans-Serif" font-size="10.00">Examples.OnPremise.Performance</text>
<text text-anchor="middle" x="289" y="-66" font-family="Helvetica,sans-Serif" font-size="10.00">Sweep.Program.Example</text>
</a>
</g>
</g>
<!-- Node1&#45;&gt;Node9 -->
<g id="edge8_Node000001_Node000009" class="edge">
<title>Node1&#45;&gt;Node9</title>
<g id="a_edge8_Node000001_Node000009"><a xlink:title=" ">
<path fill="none" stroke="#63b8ff" d="M84.24,-232.08C100.62,-199.24 134.16,-141.29 180,-109.5 185.12,-105.95 190.64,-102.82 196.39,-100.06"/>
<polygon fill="#63b8ff" stroke="#63b8ff" points="80.93,-230.89 79.71,-241.41 87.23,-233.94 80.93,-230.89"/>
</a>
</g>
</g>
<!-- Node10 -->
<g id="Node000010" class="node">
<title>Node10</title>
<g id="a_Node000010"><a xlink:href="class_fifty_one_1_1_device_detection_1_1_examples_1_1_on_premise_1_1_update_data_file_1_1_program_1_1_example.html" target="_top" xlink:title=" ">
<polygon fill="white" stroke="#bfbfbf" points="390.5,-41 187.5,-41 187.5,0 390.5,0 390.5,-41"/>
<text text-anchor="start" x="195.5" y="-29" font-family="Helvetica,sans-Serif" font-size="10.00">FiftyOne.DeviceDetection.</text>
<text text-anchor="start" x="195.5" y="-18" font-family="Helvetica,sans-Serif" font-size="10.00">Examples.OnPremise.UpdateDataFile.</text>
<text text-anchor="middle" x="289" y="-7" font-family="Helvetica,sans-Serif" font-size="10.00">Program.Example</text>
</a>
</g>
</g>
<!-- Node1&#45;&gt;Node10 -->
<g id="edge9_Node000001_Node000010" class="edge">
<title>Node1&#45;&gt;Node10</title>
<g id="a_edge9_Node000001_Node000010"><a xlink:title=" ">
<path fill="none" stroke="#63b8ff" d="M78.92,-231.68C90.59,-188.26 120.72,-98.57 180,-50.5 184.38,-46.95 189.16,-43.81 194.18,-41.05"/>
<polygon fill="#63b8ff" stroke="#63b8ff" points="75.52,-230.87 76.41,-241.43 82.29,-232.62 75.52,-230.87"/>
</a>
</g>
</g>
</g>
</svg>
