<?xml version="1.0" encoding="UTF-8" standalone="no"?>
<!DOCTYPE svg PUBLIC "-//W3C//DTD SVG 1.1//EN"
 "http://www.w3.org/Graphics/SVG/1.1/DTD/svg11.dtd">
<!-- Generated by graphviz version 2.43.0 (0)
 -->
<!-- Title: FiftyOne.DeviceDetection.Examples.IExampleWriter Pages: 1 -->
<svg width="462pt" height="86pt"
 viewBox="0.00 0.00 462.00 86.00" xmlns="http://www.w3.org/2000/svg" xmlns:xlink="http://www.w3.org/1999/xlink">
<g id="graph0" class="graph" transform="scale(1 1) rotate(0) translate(4 82)">
<title>FiftyOne.DeviceDetection.Examples.IExampleWriter</title>
<!-- Node1 -->
<g id="Node000001" class="node">
<title>Node1</title>
<g id="a_Node000001"><a xlink:title="Interface for writing example output.">
<polygon fill="#999999" stroke="#666666" points="254,-54 110,-54 110,-24 254,-24 254,-54"/>
<text text-anchor="start" x="118" y="-42" font-family="Helvetica,sans-Serif" font-size="10.00">FiftyOne.DeviceDetection.</text>
<text text-anchor="middle" x="182" y="-31" font-family="Helvetica,sans-Serif" font-size="10.00">Examples.IExampleWriter</text>
</a>
</g>
</g>
<!-- Node3 -->
<g id="Node000003" class="node">
<title>Node3</title>
<g id="a_Node000003"><a xlink:href="class_fifty_one_1_1_device_detection_1_1_examples_1_1_example_writer_csv.html" target="_top" xlink:title="Simple writer to a text stream in CSV format.">
<polygon fill="white" stroke="#666666" points="451,-78 293,-78 293,-48 451,-48 451,-78"/>
<text text-anchor="start" x="301" y="-66" font-family="Helvetica,sans-Serif" font-size="10.00">FiftyOne.DeviceDetection.</text>
<text text-anchor="middle" x="372" y="-55" font-family="Helvetica,sans-Serif" font-size="10.00">Examples.ExampleWriterCsv</text>
</a>
</g>
</g>
<!-- Node1&#45;&gt;Node3 -->
<g id="edge2_Node000001_Node000003" class="edge">
<title>Node1&#45;&gt;Node3</title>
<g id="a_edge2_Node000001_Node000003"><a xlink:title=" ">
<path fill="none" stroke="#63b8ff" d="M264.29,-49.38C273.79,-50.59 283.46,-51.82 292.91,-53.03"/>
<polygon fill="#63b8ff" stroke="#63b8ff" points="264.44,-45.87 254.07,-48.07 263.55,-52.81 264.44,-45.87"/>
</a>
</g>
</g>
<!-- Node4 -->
<g id="Node000004" class="node">
<title>Node4</title>
<g id="a_Node000004"><a xlink:href="class_fifty_one_1_1_device_detection_1_1_examples_1_1_example_writer_yaml.html" target="_top" xlink:title="Simple writer to a text stream in YAML format using YamlDotNet.">
<polygon fill="white" stroke="#666666" points="454,-30 290,-30 290,0 454,0 454,-30"/>
<text text-anchor="start" x="298" y="-18" font-family="Helvetica,sans-Serif" font-size="10.00">FiftyOne.DeviceDetection.</text>
<text text-anchor="middle" x="372" y="-7" font-family="Helvetica,sans-Serif" font-size="10.00">Examples.ExampleWriterYaml</text>
</a>
</g>
</g>
<!-- Node1&#45;&gt;Node4 -->
<g id="edge3_Node000001_Node000004" class="edge">
<title>Node1&#45;&gt;Node4</title>
<g id="a_edge3_Node000001_Node000004"><a xlink:title=" ">
<path fill="none" stroke="#63b8ff" d="M264,-28.66C272.53,-27.57 281.2,-26.46 289.74,-25.37"/>
<polygon fill="#63b8ff" stroke="#63b8ff" points="263.55,-25.19 254.07,-29.93 264.44,-32.13 263.55,-25.19"/>
</a>
</g>
</g>
<!-- Node2 -->
<g id="Node000002" class="node">
<title>Node2</title>
<g id="a_Node000002"><a xlink:title=" ">
<polygon fill="white" stroke="#bfbfbf" points="74,-48.5 0,-48.5 0,-29.5 74,-29.5 74,-48.5"/>
<text text-anchor="middle" x="37" y="-36.5" font-family="Helvetica,sans-Serif" font-size="10.00">IDisposable</text>
</a>
</g>
</g>
<!-- Node2&#45;&gt;Node1 -->
<g id="edge1_Node000001_Node000002" class="edge">
<title>Node2&#45;&gt;Node1</title>
<g id="a_edge1_Node000001_Node000002"><a xlink:title=" ">
<path fill="none" stroke="#63b8ff" d="M84.16,-39C92.37,-39 101.08,-39 109.79,-39"/>
<polygon fill="#63b8ff" stroke="#63b8ff" points="84.08,-35.5 74.08,-39 84.08,-42.5 84.08,-35.5"/>
</a>
</g>
</g>
</g>
</svg>
