<?xml version="1.0" encoding="UTF-8" standalone="no"?>
<!DOCTYPE svg PUBLIC "-//W3C//DTD SVG 1.1//EN"
 "http://www.w3.org/Graphics/SVG/1.1/DTD/svg11.dtd">
<!-- Generated by graphviz version 2.43.0 (0)
 -->
<!-- Title: FiftyOne.Pipeline.Core.Data.ElementDataBase Pages: 1 -->
<svg width="817pt" height="460pt"
 viewBox="0.00 0.00 817.00 459.50" xmlns="http://www.w3.org/2000/svg" xmlns:xlink="http://www.w3.org/1999/xlink">
<g id="graph0" class="graph" transform="scale(1 1) rotate(0) translate(4 455.5)">
<title>FiftyOne.Pipeline.Core.Data.ElementDataBase</title>
<!-- Node0 -->
<g id="node1" class="node">
<title>Node0</title>
<g id="a_node1"><a xlink:title="This class stores property values that have been determined by a specific FlowElement based on the su...">
<polygon fill="#bfbfbf" stroke="black" points="198,-210.5 198,-240.5 352,-240.5 352,-210.5 198,-210.5"/>
<text text-anchor="start" x="206" y="-228.5" font-family="Helvetica,sans-Serif" font-size="10.00">FiftyOne.Pipeline.Core.Data.</text>
<text text-anchor="middle" x="275" y="-217.5" font-family="Helvetica,sans-Serif" font-size="10.00">ElementDataBase</text>
</a>
</g>
</g>
<!-- Node4 -->
<g id="node5" class="node">
<title>Node4</title>
<g id="a_node5"><a xlink:href="class_evidence_copy_data.html" target="_top" xlink:title="Data type for the EvidenceCopyElement.">
<polygon fill="none" stroke="black" points="447,-432 447,-451 556,-451 556,-432 447,-432"/>
<text text-anchor="middle" x="501.5" y="-439" font-family="Helvetica,sans-Serif" font-size="10.00">EvidenceCopyData</text>
</a>
</g>
</g>
<!-- Node0&#45;&gt;Node4 -->
<g id="edge5" class="edge">
<title>Node0&#45;&gt;Node4</title>
<path fill="none" stroke="midnightblue" d="M282.65,-250.3C295.42,-292.77 327.6,-378.94 388,-421.5 404.95,-433.44 426.8,-438.96 446.74,-441.32"/>
<polygon fill="midnightblue" stroke="midnightblue" points="285.96,-249.14 279.82,-240.5 279.23,-251.08 285.96,-249.14"/>
</g>
<!-- Node5 -->
<g id="node6" class="node">
<title>Node5</title>
<g id="a_node6"><a xlink:href="class_examples_1_1_custom_flow_element_1_1_data_1_1_star_sign_data.html" target="_top" xlink:title="[class]">
<polygon fill="none" stroke="black" points="415.5,-382.5 415.5,-412.5 587.5,-412.5 587.5,-382.5 415.5,-382.5"/>
<text text-anchor="start" x="423.5" y="-400.5" font-family="Helvetica,sans-Serif" font-size="10.00">Examples.CustomFlowElement.</text>
<text text-anchor="middle" x="501.5" y="-389.5" font-family="Helvetica,sans-Serif" font-size="10.00">Data.StarSignData</text>
</a>
</g>
</g>
<!-- Node0&#45;&gt;Node5 -->
<g id="edge6" class="edge">
<title>Node0&#45;&gt;Node5</title>
<path fill="none" stroke="midnightblue" d="M287.61,-249.84C304.74,-283.02 340.03,-341.81 388,-372.5 396.34,-377.84 405.66,-382.05 415.28,-385.36"/>
<polygon fill="midnightblue" stroke="midnightblue" points="290.69,-248.18 283.07,-240.82 284.44,-251.32 290.69,-248.18"/>
</g>
<!-- Node6 -->
<g id="node7" class="node">
<title>Node6</title>
<g id="a_node7"><a xlink:href="class_fifty_one_1_1_pipeline_1_1_engines_1_1_data_1_1_aspect_data_base.html" target="_top" xlink:title="Base class for element data instances that are generated by an IAspectEngine.">
<polygon fill="none" stroke="black" points="430,-333.5 430,-363.5 573,-363.5 573,-333.5 430,-333.5"/>
<text text-anchor="start" x="438" y="-351.5" font-family="Helvetica,sans-Serif" font-size="10.00">FiftyOne.Pipeline.Engines.</text>
<text text-anchor="middle" x="501.5" y="-340.5" font-family="Helvetica,sans-Serif" font-size="10.00">Data.AspectDataBase</text>
</a>
</g>
</g>
<!-- Node0&#45;&gt;Node6 -->
<g id="edge7" class="edge">
<title>Node0&#45;&gt;Node6</title>
<path fill="none" stroke="midnightblue" d="M295.49,-248.2C316.15,-270.78 350.89,-304.71 388,-323.5 400.94,-330.05 415.57,-334.9 429.91,-338.48"/>
<polygon fill="midnightblue" stroke="midnightblue" points="298.07,-245.83 288.78,-240.73 292.85,-250.51 298.07,-245.83"/>
</g>
<!-- Node9 -->
<g id="node10" class="node">
<title>Node9</title>
<g id="a_node10"><a xlink:href="class_fifty_one_1_1_pipeline_1_1_engines_1_1_fifty_one_1_1_data_1_1_set_headers_data.html" target="_top" xlink:title="Element data instance for SetHeadersElement See the Specification">
<polygon fill="none" stroke="black" points="418.5,-284.5 418.5,-314.5 584.5,-314.5 584.5,-284.5 418.5,-284.5"/>
<text text-anchor="start" x="426.5" y="-302.5" font-family="Helvetica,sans-Serif" font-size="10.00">FiftyOne.Pipeline.Engines.</text>
<text text-anchor="middle" x="501.5" y="-291.5" font-family="Helvetica,sans-Serif" font-size="10.00">FiftyOne.Data.SetHeadersData</text>
</a>
</g>
</g>
<!-- Node0&#45;&gt;Node9 -->
<g id="edge10" class="edge">
<title>Node0&#45;&gt;Node9</title>
<path fill="none" stroke="midnightblue" d="M315.56,-245.05C336.68,-254.91 363.33,-266.45 388,-274.5 399.32,-278.19 411.45,-281.52 423.41,-284.45"/>
<polygon fill="midnightblue" stroke="midnightblue" points="316.81,-241.77 306.28,-240.66 313.82,-248.1 316.81,-241.77"/>
</g>
<!-- Node10 -->
<g id="node11" class="node">
<title>Node10</title>
<g id="a_node11"><a xlink:href="class_fifty_one_1_1_pipeline_1_1_ip_splitter_1_1_split_ip_data.html" target="_top" xlink:title=" ">
<polygon fill="none" stroke="black" points="427,-235.5 427,-265.5 576,-265.5 576,-235.5 427,-235.5"/>
<text text-anchor="start" x="435" y="-253.5" font-family="Helvetica,sans-Serif" font-size="10.00">FiftyOne.Pipeline.IpSplitter.</text>
<text text-anchor="middle" x="501.5" y="-242.5" font-family="Helvetica,sans-Serif" font-size="10.00">SplitIpData</text>
</a>
</g>
</g>
<!-- Node0&#45;&gt;Node10 -->
<g id="edge11" class="edge">
<title>Node0&#45;&gt;Node10</title>
<path fill="none" stroke="midnightblue" d="M362.05,-235.08C383.42,-237.46 406.14,-239.99 426.85,-242.3"/>
<polygon fill="midnightblue" stroke="midnightblue" points="362.33,-231.59 352.01,-233.96 361.56,-238.55 362.33,-231.59"/>
</g>
<!-- Node11 -->
<g id="node12" class="node">
<title>Node11</title>
<g id="a_node12"><a xlink:href="class_fifty_one_1_1_pipeline_1_1_java_script_builder_1_1_data_1_1_java_script_builder_element_data.html" target="_top" xlink:title="The IElementData class for JavaScriptBuilderElement.">
<polygon fill="none" stroke="black" points="388,-186.5 388,-216.5 615,-216.5 615,-186.5 388,-186.5"/>
<text text-anchor="start" x="396" y="-204.5" font-family="Helvetica,sans-Serif" font-size="10.00">FiftyOne.Pipeline.JavaScript</text>
<text text-anchor="middle" x="501.5" y="-193.5" font-family="Helvetica,sans-Serif" font-size="10.00">Builder.Data.JavaScriptBuilderElementData</text>
</a>
</g>
</g>
<!-- Node0&#45;&gt;Node11 -->
<g id="edge12" class="edge">
<title>Node0&#45;&gt;Node11</title>
<path fill="none" stroke="midnightblue" d="M362.17,-216.29C370.61,-215.39 379.25,-214.46 387.89,-213.54"/>
<polygon fill="midnightblue" stroke="midnightblue" points="361.58,-212.83 352.01,-217.37 362.32,-219.79 361.58,-212.83"/>
</g>
<!-- Node12 -->
<g id="node13" class="node">
<title>Node12</title>
<g id="a_node13"><a xlink:href="class_fifty_one_1_1_pipeline_1_1_json_builder_1_1_data_1_1_json_builder_element_data.html" target="_top" xlink:title="JsonBuilderElement data class.">
<polygon fill="none" stroke="black" points="421,-137.5 421,-167.5 582,-167.5 582,-137.5 421,-137.5"/>
<text text-anchor="start" x="429" y="-155.5" font-family="Helvetica,sans-Serif" font-size="10.00">FiftyOne.Pipeline.JsonBuilder.</text>
<text text-anchor="middle" x="501.5" y="-144.5" font-family="Helvetica,sans-Serif" font-size="10.00">Data.JsonBuilderElementData</text>
</a>
</g>
</g>
<!-- Node0&#45;&gt;Node12 -->
<g id="edge13" class="edge">
<title>Node0&#45;&gt;Node12</title>
<path fill="none" stroke="midnightblue" d="M315.08,-206.07C336.26,-196.15 363.12,-184.51 388,-176.5 398.55,-173.11 409.81,-170.05 420.99,-167.36"/>
<polygon fill="midnightblue" stroke="midnightblue" points="313.31,-203.04 305.78,-210.5 316.32,-209.36 313.31,-203.04"/>
</g>
<!-- Node13 -->
<g id="node14" class="node">
<title>Node13</title>
<g id="a_node14"><a xlink:href="class_fifty_one_1_1_pipeline_1_1_math_1_1_math_data.html" target="_top" xlink:title=" ">
<polygon fill="none" stroke="black" points="412.5,-99 412.5,-118 590.5,-118 590.5,-99 412.5,-99"/>
<text text-anchor="middle" x="501.5" y="-106" font-family="Helvetica,sans-Serif" font-size="10.00">FiftyOne.Pipeline.Math.MathData</text>
</a>
</g>
</g>
<!-- Node0&#45;&gt;Node13 -->
<g id="edge14" class="edge">
<title>Node0&#45;&gt;Node13</title>
<path fill="none" stroke="midnightblue" d="M294.95,-202.78C315.42,-179.88 350.21,-145.43 388,-127.5 396.14,-123.64 404.94,-120.55 413.91,-118.08"/>
<polygon fill="midnightblue" stroke="midnightblue" points="292.28,-200.53 288.33,-210.36 297.55,-205.13 292.28,-200.53"/>
</g>
<!-- Node14 -->
<g id="node15" class="node">
<title>Node14</title>
<g id="a_node15"><a xlink:href="class_fifty_one_1_1_pipeline_1_1_translation_1_1_data_1_1_translation_data.html" target="_top" xlink:title="Data object populated by FlowElements.TranslationEngine.">
<polygon fill="none" stroke="black" points="422.5,-49.5 422.5,-79.5 580.5,-79.5 580.5,-49.5 422.5,-49.5"/>
<text text-anchor="start" x="430.5" y="-67.5" font-family="Helvetica,sans-Serif" font-size="10.00">FiftyOne.Pipeline.Translation.</text>
<text text-anchor="middle" x="501.5" y="-56.5" font-family="Helvetica,sans-Serif" font-size="10.00">Data.TranslationData</text>
</a>
</g>
</g>
<!-- Node0&#45;&gt;Node14 -->
<g id="edge15" class="edge">
<title>Node0&#45;&gt;Node14</title>
<path fill="none" stroke="midnightblue" d="M288.87,-201.63C306.83,-170.71 342.4,-117.48 388,-89.5 398.4,-83.12 410.24,-78.36 422.23,-74.81"/>
<polygon fill="midnightblue" stroke="midnightblue" points="285.75,-200.03 283.87,-210.45 291.84,-203.48 285.75,-200.03"/>
</g>
<!-- Node15 -->
<g id="node16" class="node">
<title>Node15</title>
<g id="a_node16"><a xlink:href="class_simple_client_side_element_1_1_data_1_1_star_sign_data.html" target="_top" xlink:title="[class]">
<polygon fill="none" stroke="black" points="430,-0.5 430,-30.5 573,-30.5 573,-0.5 430,-0.5"/>
<text text-anchor="start" x="438" y="-18.5" font-family="Helvetica,sans-Serif" font-size="10.00">SimpleClientSideElement.</text>
<text text-anchor="middle" x="501.5" y="-7.5" font-family="Helvetica,sans-Serif" font-size="10.00">Data.StarSignData</text>
</a>
</g>
</g>
<!-- Node0&#45;&gt;Node15 -->
<g id="edge16" class="edge">
<title>Node0&#45;&gt;Node15</title>
<path fill="none" stroke="midnightblue" d="M283.68,-200.7C297.56,-160.19 330.83,-80.27 388,-39.5 400.28,-30.75 415.1,-25.07 429.89,-21.41"/>
<polygon fill="midnightblue" stroke="midnightblue" points="280.31,-199.74 280.49,-210.33 286.95,-201.94 280.31,-199.74"/>
</g>
<!-- Node1 -->
<g id="node2" class="node">
<title>Node1</title>
<g id="a_node2"><a xlink:href="class_fifty_one_1_1_pipeline_1_1_core_1_1_data_1_1_data_base.html" target="_top" xlink:title="This class stores data values as key/value pairs where the key is a string and the value can be any t...">
<polygon fill="none" stroke="black" points="88.5,-235 88.5,-254 152.5,-254 152.5,-235 88.5,-235"/>
<text text-anchor="middle" x="120.5" y="-242" font-family="Helvetica,sans-Serif" font-size="10.00">DataBase</text>
</a>
</g>
</g>
<!-- Node1&#45;&gt;Node0 -->
<g id="edge1" class="edge">
<title>Node1&#45;&gt;Node0</title>
<path fill="none" stroke="midnightblue" d="M162.74,-239.36C173.61,-238.01 185.69,-236.5 197.78,-235"/>
<polygon fill="midnightblue" stroke="midnightblue" points="162.22,-235.9 152.73,-240.61 163.08,-242.85 162.22,-235.9"/>
</g>
<!-- Node2 -->
<g id="node3" class="node">
<title>Node2</title>
<g id="a_node3"><a xlink:href="interface_fifty_one_1_1_pipeline_1_1_core_1_1_data_1_1_i_data.html" target="_top" xlink:title="Represents property values">
<polygon fill="none" stroke="black" points="0,-216 0,-235 43,-235 43,-216 0,-216"/>
<text text-anchor="middle" x="21.5" y="-223" font-family="Helvetica,sans-Serif" font-size="10.00">IData</text>
</a>
</g>
</g>
<!-- Node2&#45;&gt;Node1 -->
<g id="edge2" class="edge">
<title>Node2&#45;&gt;Node1</title>
<path fill="none" stroke="midnightblue" d="M52.9,-231.45C64.15,-233.66 76.93,-236.16 88.26,-238.38"/>
<polygon fill="midnightblue" stroke="midnightblue" points="53.56,-228.02 43.07,-229.53 52.21,-234.89 53.56,-228.02"/>
</g>
<!-- Node3 -->
<g id="node4" class="node">
<title>Node3</title>
<g id="a_node4"><a xlink:href="interface_fifty_one_1_1_pipeline_1_1_core_1_1_data_1_1_i_element_data.html" target="_top" xlink:title="Represents property values that have been determined by a specific FlowElement based on the supplied ...">
<polygon fill="none" stroke="black" points="79,-197 79,-216 162,-216 162,-197 79,-197"/>
<text text-anchor="middle" x="120.5" y="-204" font-family="Helvetica,sans-Serif" font-size="10.00">IElementData</text>
</a>
</g>
</g>
<!-- Node2&#45;&gt;Node3 -->
<g id="edge4" class="edge">
<title>Node2&#45;&gt;Node3</title>
<path fill="none" stroke="midnightblue" d="M52.99,-219.53C61.23,-217.91 70.28,-216.14 78.98,-214.44"/>
<polygon fill="midnightblue" stroke="midnightblue" points="52.21,-216.11 43.07,-221.47 53.56,-222.98 52.21,-216.11"/>
</g>
<!-- Node3&#45;&gt;Node0 -->
<g id="edge3" class="edge">
<title>Node3&#45;&gt;Node0</title>
<path fill="none" stroke="midnightblue" d="M172.49,-212.85C180.7,-213.88 189.34,-214.95 197.98,-216.03"/>
<polygon fill="midnightblue" stroke="midnightblue" points="172.72,-209.35 162.37,-211.59 171.86,-216.3 172.72,-209.35"/>
</g>
<!-- Node7 -->
<g id="node8" class="node">
<title>Node7</title>
<g id="a_node8"><a xlink:href="class_examples_1_1_cloud_engine_1_1_data_1_1_star_sign_data.html" target="_top" xlink:title="[class]">
<polygon fill="none" stroke="black" points="651,-357.5 651,-387.5 809,-387.5 809,-357.5 651,-357.5"/>
<text text-anchor="start" x="659" y="-375.5" font-family="Helvetica,sans-Serif" font-size="10.00">Examples.CloudEngine.Data.</text>
<text text-anchor="middle" x="730" y="-364.5" font-family="Helvetica,sans-Serif" font-size="10.00">StarSignData</text>
</a>
</g>
</g>
<!-- Node6&#45;&gt;Node7 -->
<g id="edge8" class="edge">
<title>Node6&#45;&gt;Node7</title>
<path fill="none" stroke="midnightblue" d="M583.21,-357.05C605.24,-359.39 629.06,-361.91 650.93,-364.23"/>
<polygon fill="midnightblue" stroke="midnightblue" points="583.55,-353.57 573.23,-356 582.81,-360.53 583.55,-353.57"/>
</g>
<!-- Node8 -->
<g id="node9" class="node">
<title>Node8</title>
<g id="a_node9"><a xlink:href="class_examples_1_1_on_premise_engine_1_1_data_1_1_star_sign_data.html" target="_top" xlink:title="[class]">
<polygon fill="none" stroke="black" points="651.5,-308.5 651.5,-338.5 808.5,-338.5 808.5,-308.5 651.5,-308.5"/>
<text text-anchor="start" x="659.5" y="-326.5" font-family="Helvetica,sans-Serif" font-size="10.00">Examples.OnPremiseEngine.</text>
<text text-anchor="middle" x="730" y="-315.5" font-family="Helvetica,sans-Serif" font-size="10.00">Data.StarSignData</text>
</a>
</g>
</g>
<!-- Node6&#45;&gt;Node8 -->
<g id="edge9" class="edge">
<title>Node6&#45;&gt;Node8</title>
<path fill="none" stroke="midnightblue" d="M583.27,-339.59C605.41,-337.14 629.36,-334.5 651.33,-332.07"/>
<polygon fill="midnightblue" stroke="midnightblue" points="582.79,-336.12 573.23,-340.69 583.56,-343.07 582.79,-336.12"/>
</g>
</g>
</svg>
