<?xml version="1.0" encoding="UTF-8" standalone="no"?>
<!DOCTYPE svg PUBLIC "-//W3C//DTD SVG 1.1//EN"
 "http://www.w3.org/Graphics/SVG/1.1/DTD/svg11.dtd">
<!-- Generated by graphviz version 2.43.0 (0)
 -->
<!-- Title: EvidenceCopyElement Pages: 1 -->
<svg width="259pt" height="331pt"
 viewBox="0.00 0.00 259.00 331.00" xmlns="http://www.w3.org/2000/svg" xmlns:xlink="http://www.w3.org/1999/xlink">
<g id="graph0" class="graph" transform="scale(1 1) rotate(0) translate(4 327)">
<title>EvidenceCopyElement</title>
<!-- Node0 -->
<g id="node1" class="node">
<title>Node0</title>
<g id="a_node1"><a xlink:title="Element that just copies the evidence into its element data.">
<polygon fill="#bfbfbf" stroke="black" points="43,-0.5 43,-19.5 169,-19.5 169,-0.5 43,-0.5"/>
<text text-anchor="middle" x="106" y="-7.5" font-family="Helvetica,sans-Serif" font-size="10.00">EvidenceCopyElement</text>
</a>
</g>
</g>
<!-- Node1 -->
<g id="node2" class="node">
<title>Node1</title>
<g id="a_node2"><a xlink:href="class_fifty_one_1_1_pipeline_1_1_core_1_1_flow_elements_1_1_flow_element_base.html" target="_top" xlink:title=" ">
<polygon fill="none" stroke="black" points="0,-57.5 0,-87.5 212,-87.5 212,-57.5 0,-57.5"/>
<text text-anchor="start" x="8" y="-75.5" font-family="Helvetica,sans-Serif" font-size="10.00">FlowElementBase&lt; Evidence</text>
<text text-anchor="middle" x="106" y="-64.5" font-family="Helvetica,sans-Serif" font-size="10.00">CopyData, ElementPropertyMetaData &gt;</text>
</a>
</g>
</g>
<!-- Node1&#45;&gt;Node0 -->
<g id="edge1" class="edge">
<title>Node1&#45;&gt;Node0</title>
<path fill="none" stroke="midnightblue" d="M106,-47.35C106,-37.51 106,-26.78 106,-19.54"/>
<polygon fill="midnightblue" stroke="midnightblue" points="102.5,-47.47 106,-57.47 109.5,-47.47 102.5,-47.47"/>
</g>
<!-- Node2 -->
<g id="node3" class="node">
<title>Node2</title>
<g id="a_node3"><a xlink:href="class_fifty_one_1_1_pipeline_1_1_core_1_1_flow_elements_1_1_flow_element_base.html" target="_top" xlink:title="Abstract base class for Flow Elements.">
<polygon fill="none" stroke="black" points="29.5,-146.5 29.5,-187.5 182.5,-187.5 182.5,-146.5 29.5,-146.5"/>
<text text-anchor="start" x="37.5" y="-175.5" font-family="Helvetica,sans-Serif" font-size="10.00">FiftyOne.Pipeline.Core.Flow</text>
<text text-anchor="start" x="37.5" y="-164.5" font-family="Helvetica,sans-Serif" font-size="10.00">Elements.FlowElementBase</text>
<text text-anchor="middle" x="106" y="-153.5" font-family="Helvetica,sans-Serif" font-size="10.00">&lt; T, TMeta &gt;</text>
</a>
</g>
</g>
<!-- Node2&#45;&gt;Node1 -->
<g id="edge2" class="edge">
<title>Node2&#45;&gt;Node1</title>
<path fill="none" stroke="orange" stroke-dasharray="5,2" d="M106,-136.24C106,-119.96 106,-100.54 106,-87.66"/>
<polygon fill="orange" stroke="orange" points="102.5,-136.38 106,-146.38 109.5,-136.38 102.5,-136.38"/>
<text text-anchor="start" x="106" y="-120" font-family="Helvetica,sans-Serif" font-size="10.00"> &lt; EvidenceCopyData,</text>
<text text-anchor="middle" x="178.5" y="-109" font-family="Helvetica,sans-Serif" font-size="10.00"> ElementPropertyMetaData &gt;</text>
</g>
<!-- Node3 -->
<g id="node4" class="node">
<title>Node3</title>
<g id="a_node4"><a xlink:href="interface_fifty_one_1_1_pipeline_1_1_core_1_1_flow_elements_1_1_i_flow_element.html" target="_top" xlink:title=" ">
<polygon fill="none" stroke="black" points="31.5,-225.5 31.5,-244.5 180.5,-244.5 180.5,-225.5 31.5,-225.5"/>
<text text-anchor="middle" x="106" y="-232.5" font-family="Helvetica,sans-Serif" font-size="10.00">IFlowElement&lt; T, TMeta &gt;</text>
</a>
</g>
</g>
<!-- Node3&#45;&gt;Node2 -->
<g id="edge3" class="edge">
<title>Node3&#45;&gt;Node2</title>
<path fill="none" stroke="midnightblue" d="M106,-215.25C106,-206.65 106,-196.45 106,-187.74"/>
<polygon fill="midnightblue" stroke="midnightblue" points="102.5,-215.37 106,-225.37 109.5,-215.37 102.5,-215.37"/>
</g>
<!-- Node4 -->
<g id="node5" class="node">
<title>Node4</title>
<g id="a_node5"><a xlink:href="interface_fifty_one_1_1_pipeline_1_1_core_1_1_flow_elements_1_1_i_flow_element.html" target="_top" xlink:title="IFlowElement is the basic building block of a pipeline.">
<polygon fill="none" stroke="black" points="30.5,-292.5 30.5,-322.5 181.5,-322.5 181.5,-292.5 30.5,-292.5"/>
<text text-anchor="start" x="38.5" y="-310.5" font-family="Helvetica,sans-Serif" font-size="10.00">FiftyOne.Pipeline.Core.Flow</text>
<text text-anchor="middle" x="106" y="-299.5" font-family="Helvetica,sans-Serif" font-size="10.00">Elements.IFlowElement</text>
</a>
</g>
</g>
<!-- Node4&#45;&gt;Node3 -->
<g id="edge4" class="edge">
<title>Node4&#45;&gt;Node3</title>
<path fill="none" stroke="orange" stroke-dasharray="5,2" d="M106,-282.09C106,-269.21 106,-254.2 106,-244.89"/>
<polygon fill="orange" stroke="orange" points="102.5,-282.23 106,-292.23 109.5,-282.23 102.5,-282.23"/>
<text text-anchor="middle" x="140.5" y="-266" font-family="Helvetica,sans-Serif" font-size="10.00"> &lt; T, TMeta &gt;</text>
</g>
</g>
</svg>
