<?xml version="1.0" encoding="UTF-8" standalone="no"?>
<!DOCTYPE svg PUBLIC "-//W3C//DTD SVG 1.1//EN"
 "http://www.w3.org/Graphics/SVG/1.1/DTD/svg11.dtd">
<!-- Generated by graphviz version 2.43.0 (0)
 -->
<!-- Title: FiftyOne.Pipeline.Core.FlowElements.FlowElementBase&lt; T, TMeta &gt; Pages: 1 -->
<svg width="2112pt" height="871pt"
 viewBox="0.00 0.00 2112.00 870.50" xmlns="http://www.w3.org/2000/svg" xmlns:xlink="http://www.w3.org/1999/xlink">
<g id="graph0" class="graph" transform="scale(1 1) rotate(0) translate(4 866.5)">
<title>FiftyOne.Pipeline.Core.FlowElements.FlowElementBase&lt; T, TMeta &gt;</title>
<!-- Node0 -->
<g id="node1" class="node">
<title>Node0</title>
<g id="a_node1"><a xlink:title="Abstract base class for Flow Elements.">
<polygon fill="#bfbfbf" stroke="black" points="442,-351 442,-392 595,-392 595,-351 442,-351"/>
<text text-anchor="start" x="450" y="-380" font-family="Helvetica,sans-Serif" font-size="10.00">FiftyOne.Pipeline.Core.Flow</text>
<text text-anchor="start" x="450" y="-369" font-family="Helvetica,sans-Serif" font-size="10.00">Elements.FlowElementBase</text>
<text text-anchor="middle" x="518.5" y="-358" font-family="Helvetica,sans-Serif" font-size="10.00">&lt; T, TMeta &gt;</text>
</a>
</g>
</g>
<!-- Node3 -->
<g id="node4" class="node">
<title>Node3</title>
<g id="a_node4"><a xlink:href="class_fifty_one_1_1_pipeline_1_1_engines_1_1_flow_elements_1_1_aspect_engine_base.html" target="_top" xlink:title="Base class for 51Degrees aspect engines.">
<polygon fill="none" stroke="black" points="841,-700.5 841,-752.5 977,-752.5 977,-700.5 841,-700.5"/>
<text text-anchor="start" x="849" y="-740.5" font-family="Helvetica,sans-Serif" font-size="10.00">FiftyOne::Pipeline</text>
<text text-anchor="start" x="849" y="-729.5" font-family="Helvetica,sans-Serif" font-size="10.00">::Engines::FlowElements</text>
<text text-anchor="start" x="849" y="-718.5" font-family="Helvetica,sans-Serif" font-size="10.00">::AspectEngineBase&lt; T,</text>
<text text-anchor="middle" x="909" y="-707.5" font-family="Helvetica,sans-Serif" font-size="10.00"> TMeta &gt;</text>
</a>
</g>
</g>
<!-- Node0&#45;&gt;Node3 -->
<g id="edge3" class="edge">
<title>Node0&#45;&gt;Node3</title>
<path fill="none" stroke="midnightblue" d="M518.57,-402.58C518.49,-466.46 528.17,-612.62 613,-685.5 675.66,-739.33 774.99,-741.94 840.83,-736.3"/>
<polygon fill="midnightblue" stroke="midnightblue" points="522.07,-402.38 518.66,-392.35 515.07,-402.31 522.07,-402.38"/>
</g>
<!-- Node11 -->
<g id="node12" class="node">
<title>Node11</title>
<g id="a_node12"><a xlink:href="class_fifty_one_1_1_pipeline_1_1_core_1_1_flow_elements_1_1_flow_element_base.html" target="_top" xlink:title=" ">
<polygon fill="none" stroke="black" points="827,-629.5 827,-681.5 991,-681.5 991,-629.5 827,-629.5"/>
<text text-anchor="start" x="835" y="-669.5" font-family="Helvetica,sans-Serif" font-size="10.00">FiftyOne.Pipeline.Core.Flow</text>
<text text-anchor="start" x="835" y="-658.5" font-family="Helvetica,sans-Serif" font-size="10.00">Elements.FlowElementBase</text>
<text text-anchor="start" x="835" y="-647.5" font-family="Helvetica,sans-Serif" font-size="10.00">&lt; IJsonBuilderElementData,</text>
<text text-anchor="middle" x="909" y="-636.5" font-family="Helvetica,sans-Serif" font-size="10.00"> IElementPropertyMetaData &gt;</text>
</a>
</g>
</g>
<!-- Node0&#45;&gt;Node11 -->
<g id="edge11" class="edge">
<title>Node0&#45;&gt;Node11</title>
<path fill="none" stroke="orange" stroke-dasharray="5,2" d="M522.14,-402.43C528.3,-453.92 548.44,-556.66 613,-608.5 672.85,-656.55 762.1,-664.75 826.75,-663.12"/>
<polygon fill="orange" stroke="orange" points="525.59,-401.82 521.03,-392.26 518.64,-402.58 525.59,-401.82"/>
<text text-anchor="start" x="626" y="-676.5" font-family="Helvetica,sans-Serif" font-size="10.00"> &lt; IJsonBuilderElementData,</text>
<text text-anchor="middle" x="700" y="-665.5" font-family="Helvetica,sans-Serif" font-size="10.00"> IElementPropertyMetaData &gt;</text>
</g>
<!-- Node13 -->
<g id="node14" class="node">
<title>Node13</title>
<g id="a_node14"><a xlink:href="class_fifty_one_1_1_pipeline_1_1_core_1_1_flow_elements_1_1_flow_element_base.html" target="_top" xlink:title=" ">
<polygon fill="none" stroke="black" points="812,-558.5 812,-610.5 1006,-610.5 1006,-558.5 812,-558.5"/>
<text text-anchor="start" x="820" y="-598.5" font-family="Helvetica,sans-Serif" font-size="10.00">FiftyOne.Pipeline.Core.Flow</text>
<text text-anchor="start" x="820" y="-587.5" font-family="Helvetica,sans-Serif" font-size="10.00">Elements.FlowElementBase</text>
<text text-anchor="start" x="820" y="-576.5" font-family="Helvetica,sans-Serif" font-size="10.00">&lt; IMathData, IElementPropertyMeta</text>
<text text-anchor="middle" x="909" y="-565.5" font-family="Helvetica,sans-Serif" font-size="10.00">Data &gt;</text>
</a>
</g>
</g>
<!-- Node0&#45;&gt;Node13 -->
<g id="edge13" class="edge">
<title>Node0&#45;&gt;Node13</title>
<path fill="none" stroke="orange" stroke-dasharray="5,2" d="M529.31,-402.01C542.45,-437.73 569.31,-495.89 613,-526.5 670.93,-567.08 750.18,-580.95 811.95,-585.02"/>
<polygon fill="orange" stroke="orange" points="532.45,-400.39 525.82,-392.13 525.85,-402.73 532.45,-400.39"/>
<text text-anchor="start" x="621.5" y="-596.5" font-family="Helvetica,sans-Serif" font-size="10.00"> &lt; IMathData, IElementProperty</text>
<text text-anchor="middle" x="700" y="-585.5" font-family="Helvetica,sans-Serif" font-size="10.00">MetaData &gt;</text>
</g>
<!-- Node15 -->
<g id="node16" class="node">
<title>Node15</title>
<g id="a_node16"><a xlink:href="class_fifty_one_1_1_pipeline_1_1_core_1_1_flow_elements_1_1_flow_element_base.html" target="_top" xlink:title=" ">
<polygon fill="none" stroke="black" points="810.5,-487.5 810.5,-539.5 1007.5,-539.5 1007.5,-487.5 810.5,-487.5"/>
<text text-anchor="start" x="818.5" y="-527.5" font-family="Helvetica,sans-Serif" font-size="10.00">FiftyOne.Pipeline.Core.Flow</text>
<text text-anchor="start" x="818.5" y="-516.5" font-family="Helvetica,sans-Serif" font-size="10.00">Elements.FlowElementBase</text>
<text text-anchor="start" x="818.5" y="-505.5" font-family="Helvetica,sans-Serif" font-size="10.00">&lt; CookieData, ElementPropertyMeta</text>
<text text-anchor="middle" x="909" y="-494.5" font-family="Helvetica,sans-Serif" font-size="10.00">Data &gt;</text>
</a>
</g>
</g>
<!-- Node0&#45;&gt;Node15 -->
<g id="edge15" class="edge">
<title>Node0&#45;&gt;Node15</title>
<path fill="none" stroke="orange" stroke-dasharray="5,2" d="M544.83,-399.44C562.31,-417.01 587,-438.7 613,-451.5 674.74,-481.89 750.89,-497.42 810.36,-505.34"/>
<polygon fill="orange" stroke="orange" points="547.28,-396.94 537.8,-392.2 542.26,-401.81 547.28,-396.94"/>
<text text-anchor="start" x="620" y="-514.5" font-family="Helvetica,sans-Serif" font-size="10.00"> &lt; CookieData, ElementProperty</text>
<text text-anchor="middle" x="700" y="-503.5" font-family="Helvetica,sans-Serif" font-size="10.00">MetaData &gt;</text>
</g>
<!-- Node16 -->
<g id="node17" class="node">
<title>Node16</title>
<g id="a_node17"><a xlink:href="class_fifty_one_1_1_pipeline_1_1_core_1_1_flow_elements_1_1_flow_element_base.html" target="_top" xlink:title=" ">
<polygon fill="none" stroke="black" points="816.5,-416.5 816.5,-468.5 1001.5,-468.5 1001.5,-416.5 816.5,-416.5"/>
<text text-anchor="start" x="824.5" y="-456.5" font-family="Helvetica,sans-Serif" font-size="10.00">FiftyOne.Pipeline.Core.Flow</text>
<text text-anchor="start" x="824.5" y="-445.5" font-family="Helvetica,sans-Serif" font-size="10.00">Elements.FlowElementBase</text>
<text text-anchor="start" x="824.5" y="-434.5" font-family="Helvetica,sans-Serif" font-size="10.00">&lt; IElementData, IElementProperty</text>
<text text-anchor="middle" x="909" y="-423.5" font-family="Helvetica,sans-Serif" font-size="10.00">MetaData &gt;</text>
</a>
</g>
</g>
<!-- Node0&#45;&gt;Node16 -->
<g id="edge16" class="edge">
<title>Node0&#45;&gt;Node16</title>
<path fill="none" stroke="orange" stroke-dasharray="5,2" d="M599.63,-394.45C604.14,-395.54 608.62,-396.56 613,-397.5 680.63,-412.01 757.94,-423.62 816.45,-431.41"/>
<polygon fill="orange" stroke="orange" points="600.28,-391.01 589.73,-392 598.6,-397.8 600.28,-391.01"/>
<text text-anchor="start" x="634.5" y="-439.5" font-family="Helvetica,sans-Serif" font-size="10.00"> &lt; IElementData, IElement</text>
<text text-anchor="middle" x="700" y="-428.5" font-family="Helvetica,sans-Serif" font-size="10.00">PropertyMetaData &gt;</text>
</g>
<!-- Node21 -->
<g id="node22" class="node">
<title>Node21</title>
<g id="a_node22"><a xlink:href="class_fifty_one_1_1_pipeline_1_1_core_1_1_flow_elements_1_1_flow_element_base.html" target="_top" xlink:title=" ">
<polygon fill="none" stroke="black" points="818.5,-345.5 818.5,-397.5 999.5,-397.5 999.5,-345.5 818.5,-345.5"/>
<text text-anchor="start" x="826.5" y="-385.5" font-family="Helvetica,sans-Serif" font-size="10.00">FiftyOne.Pipeline.Core.Flow</text>
<text text-anchor="start" x="826.5" y="-374.5" font-family="Helvetica,sans-Serif" font-size="10.00">Elements.FlowElementBase</text>
<text text-anchor="start" x="826.5" y="-363.5" font-family="Helvetica,sans-Serif" font-size="10.00">&lt; IJavaScriptBuilderElementData,</text>
<text text-anchor="middle" x="909" y="-352.5" font-family="Helvetica,sans-Serif" font-size="10.00"> IElementPropertyMetaData &gt;</text>
</a>
</g>
</g>
<!-- Node0&#45;&gt;Node21 -->
<g id="edge21" class="edge">
<title>Node0&#45;&gt;Node21</title>
<path fill="none" stroke="orange" stroke-dasharray="5,2" d="M605.67,-371.5C668.85,-371.5 754.42,-371.5 818.39,-371.5"/>
<polygon fill="orange" stroke="orange" points="605.33,-368 595.33,-371.5 605.33,-375 605.33,-368"/>
<text text-anchor="start" x="613" y="-385.5" font-family="Helvetica,sans-Serif" font-size="10.00"> &lt; IJavaScriptBuilderElement</text>
<text text-anchor="middle" x="700" y="-374.5" font-family="Helvetica,sans-Serif" font-size="10.00">Data, IElementPropertyMetaData &gt;</text>
</g>
<!-- Node23 -->
<g id="node24" class="node">
<title>Node23</title>
<g id="a_node24"><a xlink:href="class_fifty_one_1_1_pipeline_1_1_core_1_1_flow_elements_1_1_flow_element_base.html" target="_top" xlink:title=" ">
<polygon fill="none" stroke="black" points="808.5,-274.5 808.5,-326.5 1009.5,-326.5 1009.5,-274.5 808.5,-274.5"/>
<text text-anchor="start" x="816.5" y="-314.5" font-family="Helvetica,sans-Serif" font-size="10.00">FiftyOne.Pipeline.Core.Flow</text>
<text text-anchor="start" x="816.5" y="-303.5" font-family="Helvetica,sans-Serif" font-size="10.00">Elements.FlowElementBase</text>
<text text-anchor="start" x="816.5" y="-292.5" font-family="Helvetica,sans-Serif" font-size="10.00">&lt; ISetHeadersData, IElementProperty</text>
<text text-anchor="middle" x="909" y="-281.5" font-family="Helvetica,sans-Serif" font-size="10.00">MetaData &gt;</text>
</a>
</g>
</g>
<!-- Node0&#45;&gt;Node23 -->
<g id="edge23" class="edge">
<title>Node0&#45;&gt;Node23</title>
<path fill="none" stroke="orange" stroke-dasharray="5,2" d="M599.63,-348.55C604.14,-347.46 608.62,-346.44 613,-345.5 677.59,-331.65 751.01,-320.43 808.45,-312.66"/>
<polygon fill="orange" stroke="orange" points="598.6,-345.2 589.73,-351 600.28,-351.99 598.6,-345.2"/>
<text text-anchor="start" x="626" y="-359.5" font-family="Helvetica,sans-Serif" font-size="10.00"> &lt; ISetHeadersData,</text>
<text text-anchor="middle" x="700" y="-348.5" font-family="Helvetica,sans-Serif" font-size="10.00"> IElementPropertyMetaData &gt;</text>
</g>
<!-- Node25 -->
<g id="node26" class="node">
<title>Node25</title>
<g id="a_node26"><a xlink:href="class_fifty_one_1_1_pipeline_1_1_core_1_1_flow_elements_1_1_flow_element_base.html" target="_top" xlink:title=" ">
<polygon fill="none" stroke="black" points="816.5,-203.5 816.5,-255.5 1001.5,-255.5 1001.5,-203.5 816.5,-203.5"/>
<text text-anchor="start" x="824.5" y="-243.5" font-family="Helvetica,sans-Serif" font-size="10.00">FiftyOne.Pipeline.Core.Flow</text>
<text text-anchor="start" x="824.5" y="-232.5" font-family="Helvetica,sans-Serif" font-size="10.00">Elements.FlowElementBase</text>
<text text-anchor="start" x="824.5" y="-221.5" font-family="Helvetica,sans-Serif" font-size="10.00">&lt; IStarSignData, IElementProperty</text>
<text text-anchor="middle" x="909" y="-210.5" font-family="Helvetica,sans-Serif" font-size="10.00">MetaData &gt;</text>
</a>
</g>
</g>
<!-- Node0&#45;&gt;Node25 -->
<g id="edge25" class="edge">
<title>Node0&#45;&gt;Node25</title>
<path fill="none" stroke="orange" stroke-dasharray="5,2" d="M544.83,-343.56C562.31,-325.99 587,-304.3 613,-291.5 676.86,-260.06 756.12,-244.53 816.4,-236.88"/>
<polygon fill="orange" stroke="orange" points="542.26,-341.19 537.8,-350.8 547.28,-346.06 542.26,-341.19"/>
<text text-anchor="start" x="634.5" y="-305.5" font-family="Helvetica,sans-Serif" font-size="10.00"> &lt; IStarSignData, IElement</text>
<text text-anchor="middle" x="700" y="-294.5" font-family="Helvetica,sans-Serif" font-size="10.00">PropertyMetaData &gt;</text>
</g>
<!-- Node28 -->
<g id="node29" class="node">
<title>Node28</title>
<g id="a_node29"><a xlink:href="class_fifty_one_1_1_pipeline_1_1_core_1_1_flow_elements_1_1_flow_element_base.html" target="_top" xlink:title=" ">
<polygon fill="none" stroke="black" points="817,-143 817,-184 1001,-184 1001,-143 817,-143"/>
<text text-anchor="start" x="825" y="-172" font-family="Helvetica,sans-Serif" font-size="10.00">FiftyOne.Pipeline.Core.Flow</text>
<text text-anchor="start" x="825" y="-161" font-family="Helvetica,sans-Serif" font-size="10.00">Elements.FlowElementBase</text>
<text text-anchor="middle" x="909" y="-150" font-family="Helvetica,sans-Serif" font-size="10.00">&lt; T, IElementPropertyMetaData &gt;</text>
</a>
</g>
</g>
<!-- Node0&#45;&gt;Node28 -->
<g id="edge28" class="edge">
<title>Node0&#45;&gt;Node28</title>
<path fill="none" stroke="orange" stroke-dasharray="5,2" d="M529.06,-341.33C542.05,-305.53 568.87,-246.88 613,-216.5 672.58,-175.49 754.43,-163.39 816.8,-160.89"/>
<polygon fill="orange" stroke="orange" points="525.75,-340.18 525.76,-350.78 532.36,-342.49 525.75,-340.18"/>
<text text-anchor="start" x="632" y="-230.5" font-family="Helvetica,sans-Serif" font-size="10.00"> &lt; T, IElementPropertyMeta</text>
<text text-anchor="middle" x="700" y="-219.5" font-family="Helvetica,sans-Serif" font-size="10.00">Data &gt;</text>
</g>
<!-- Node32 -->
<g id="node33" class="node">
<title>Node32</title>
<g id="a_node33"><a xlink:href="class_fifty_one_1_1_pipeline_1_1_core_1_1_flow_elements_1_1_flow_element_base.html" target="_top" xlink:title=" ">
<polygon fill="none" stroke="black" points="821,-71.5 821,-123.5 997,-123.5 997,-71.5 821,-71.5"/>
<text text-anchor="start" x="829" y="-111.5" font-family="Helvetica,sans-Serif" font-size="10.00">FiftyOne.Pipeline.Core.Flow</text>
<text text-anchor="start" x="829" y="-100.5" font-family="Helvetica,sans-Serif" font-size="10.00">Elements.FlowElementBase</text>
<text text-anchor="start" x="829" y="-89.5" font-family="Helvetica,sans-Serif" font-size="10.00">&lt; ISplitIpData, IElementProperty</text>
<text text-anchor="middle" x="909" y="-78.5" font-family="Helvetica,sans-Serif" font-size="10.00">MetaData &gt;</text>
</a>
</g>
</g>
<!-- Node0&#45;&gt;Node32 -->
<g id="edge32" class="edge">
<title>Node0&#45;&gt;Node32</title>
<path fill="none" stroke="orange" stroke-dasharray="5,2" d="M522.14,-340.79C528.3,-289.69 548.44,-187.88 613,-137.5 671.37,-91.95 756.78,-84.85 820.7,-87.43"/>
<polygon fill="orange" stroke="orange" points="518.65,-340.56 521.03,-350.88 525.6,-341.33 518.65,-340.56"/>
<text text-anchor="start" x="639.5" y="-151.5" font-family="Helvetica,sans-Serif" font-size="10.00"> &lt; ISplitIpData, IElement</text>
<text text-anchor="middle" x="700" y="-140.5" font-family="Helvetica,sans-Serif" font-size="10.00">PropertyMetaData &gt;</text>
</g>
<!-- Node34 -->
<g id="node35" class="node">
<title>Node34</title>
<g id="a_node35"><a xlink:href="class_fifty_one_1_1_pipeline_1_1_core_1_1_flow_elements_1_1_flow_element_base.html" target="_top" xlink:title=" ">
<polygon fill="none" stroke="black" points="805,-0.5 805,-52.5 1013,-52.5 1013,-0.5 805,-0.5"/>
<text text-anchor="start" x="813" y="-40.5" font-family="Helvetica,sans-Serif" font-size="10.00">FiftyOne.Pipeline.Core.Flow</text>
<text text-anchor="start" x="813" y="-29.5" font-family="Helvetica,sans-Serif" font-size="10.00">Elements.FlowElementBase</text>
<text text-anchor="start" x="813" y="-18.5" font-family="Helvetica,sans-Serif" font-size="10.00">&lt; EvidenceCopyData, ElementProperty</text>
<text text-anchor="middle" x="909" y="-7.5" font-family="Helvetica,sans-Serif" font-size="10.00">MetaData &gt;</text>
</a>
</g>
</g>
<!-- Node0&#45;&gt;Node34 -->
<g id="edge34" class="edge">
<title>Node0&#45;&gt;Node34</title>
<path fill="none" stroke="orange" stroke-dasharray="5,2" d="M518.59,-340.67C518.56,-277.33 528.32,-132.53 613,-61.5 665.36,-17.58 742.54,-9.75 804.83,-12.41"/>
<polygon fill="orange" stroke="orange" points="515.09,-340.85 518.68,-350.82 522.09,-340.79 515.09,-340.85"/>
<text text-anchor="start" x="627.5" y="-75.5" font-family="Helvetica,sans-Serif" font-size="10.00"> &lt; EvidenceCopyData,</text>
<text text-anchor="middle" x="700" y="-64.5" font-family="Helvetica,sans-Serif" font-size="10.00"> ElementPropertyMetaData &gt;</text>
</g>
<!-- Node1 -->
<g id="node2" class="node">
<title>Node1</title>
<g id="a_node2"><a xlink:href="interface_fifty_one_1_1_pipeline_1_1_core_1_1_flow_elements_1_1_i_flow_element.html" target="_top" xlink:title=" ">
<polygon fill="none" stroke="black" points="256,-362 256,-381 405,-381 405,-362 256,-362"/>
<text text-anchor="middle" x="330.5" y="-369" font-family="Helvetica,sans-Serif" font-size="10.00">IFlowElement&lt; T, TMeta &gt;</text>
</a>
</g>
</g>
<!-- Node1&#45;&gt;Node0 -->
<g id="edge1" class="edge">
<title>Node1&#45;&gt;Node0</title>
<path fill="none" stroke="midnightblue" d="M415.3,-371.5C424.12,-371.5 433.05,-371.5 441.78,-371.5"/>
<polygon fill="midnightblue" stroke="midnightblue" points="415.01,-368 405.01,-371.5 415.01,-375 415.01,-368"/>
</g>
<!-- Node2 -->
<g id="node3" class="node">
<title>Node2</title>
<g id="a_node3"><a xlink:href="interface_fifty_one_1_1_pipeline_1_1_core_1_1_flow_elements_1_1_i_flow_element.html" target="_top" xlink:title="IFlowElement is the basic building block of a pipeline.">
<polygon fill="none" stroke="black" points="0,-356.5 0,-386.5 151,-386.5 151,-356.5 0,-356.5"/>
<text text-anchor="start" x="8" y="-374.5" font-family="Helvetica,sans-Serif" font-size="10.00">FiftyOne.Pipeline.Core.Flow</text>
<text text-anchor="middle" x="75.5" y="-363.5" font-family="Helvetica,sans-Serif" font-size="10.00">Elements.IFlowElement</text>
</a>
</g>
</g>
<!-- Node2&#45;&gt;Node1 -->
<g id="edge2" class="edge">
<title>Node2&#45;&gt;Node1</title>
<path fill="none" stroke="orange" stroke-dasharray="5,2" d="M161.29,-371.5C191.95,-371.5 226.3,-371.5 255.93,-371.5"/>
<polygon fill="orange" stroke="orange" points="161.04,-368 151.04,-371.5 161.04,-375 161.04,-368"/>
<text text-anchor="middle" x="203.5" y="-374.5" font-family="Helvetica,sans-Serif" font-size="10.00"> &lt; T, TMeta &gt;</text>
</g>
<!-- Node4 -->
<g id="node5" class="node">
<title>Node4</title>
<g id="a_node5"><a xlink:href="class_fifty_one_1_1_pipeline_1_1_engines_1_1_flow_elements_1_1_on_premise_aspect_engine_base.html" target="_top" xlink:title="Base class for 51Degrees on&#45;premise aspect engines.">
<polygon fill="none" stroke="black" points="1213,-758.5 1213,-810.5 1379,-810.5 1379,-758.5 1213,-758.5"/>
<text text-anchor="start" x="1221" y="-798.5" font-family="Helvetica,sans-Serif" font-size="10.00">FiftyOne::Pipeline</text>
<text text-anchor="start" x="1221" y="-787.5" font-family="Helvetica,sans-Serif" font-size="10.00">::Engines::FlowElements</text>
<text text-anchor="start" x="1221" y="-776.5" font-family="Helvetica,sans-Serif" font-size="10.00">::OnPremiseAspectEngineBase</text>
<text text-anchor="middle" x="1296" y="-765.5" font-family="Helvetica,sans-Serif" font-size="10.00">&lt; T, TMeta &gt;</text>
</a>
</g>
</g>
<!-- Node3&#45;&gt;Node4 -->
<g id="edge4" class="edge">
<title>Node3&#45;&gt;Node4</title>
<path fill="none" stroke="midnightblue" d="M987.06,-741.82C1001.63,-744.52 1016.76,-747.21 1031,-749.5 1091.71,-759.29 1160.59,-768.35 1212.77,-774.8"/>
<polygon fill="midnightblue" stroke="midnightblue" points="987.56,-738.35 977.08,-739.94 986.27,-745.23 987.56,-738.35"/>
</g>
<!-- Node9 -->
<g id="node10" class="node">
<title>Node9</title>
<g id="a_node10"><a xlink:href="class_fifty_one_1_1_pipeline_1_1_engines_1_1_flow_elements_1_1_aspect_engine_base.html" target="_top" xlink:title=" ">
<polygon fill="none" stroke="black" points="1176,-698 1176,-739 1416,-739 1416,-698 1176,-698"/>
<text text-anchor="start" x="1184" y="-727" font-family="Helvetica,sans-Serif" font-size="10.00">FiftyOne.Pipeline.Engines.</text>
<text text-anchor="start" x="1184" y="-716" font-family="Helvetica,sans-Serif" font-size="10.00">FlowElements.AspectEngineBase</text>
<text text-anchor="middle" x="1296" y="-705" font-family="Helvetica,sans-Serif" font-size="10.00">&lt; TData, IFiftyOneAspectPropertyMetaData &gt;</text>
</a>
</g>
</g>
<!-- Node3&#45;&gt;Node9 -->
<g id="edge9" class="edge">
<title>Node3&#45;&gt;Node9</title>
<path fill="none" stroke="orange" stroke-dasharray="5,2" d="M987.26,-724.89C1041.26,-723.77 1114.42,-722.25 1175.85,-720.98"/>
<polygon fill="orange" stroke="orange" points="986.99,-721.4 977.06,-725.11 987.13,-728.4 986.99,-721.4"/>
<text text-anchor="start" x="1031" y="-737.5" font-family="Helvetica,sans-Serif" font-size="10.00"> &lt; TData, IFiftyOneAspect</text>
<text text-anchor="middle" x="1094.5" y="-726.5" font-family="Helvetica,sans-Serif" font-size="10.00">PropertyMetaData &gt;</text>
</g>
<!-- Node5 -->
<g id="node6" class="node">
<title>Node5</title>
<g id="a_node6"><a xlink:href="class_fifty_one_1_1_pipeline_1_1_engines_1_1_flow_elements_1_1_on_premise_aspect_engine_base.html" target="_top" xlink:title=" ">
<polygon fill="none" stroke="black" points="1597,-821 1597,-862 1858,-862 1858,-821 1597,-821"/>
<text text-anchor="start" x="1605" y="-850" font-family="Helvetica,sans-Serif" font-size="10.00">FiftyOne.Pipeline.Engines.</text>
<text text-anchor="start" x="1605" y="-839" font-family="Helvetica,sans-Serif" font-size="10.00">FlowElements.OnPremiseAspectEngine</text>
<text text-anchor="middle" x="1727.5" y="-828" font-family="Helvetica,sans-Serif" font-size="10.00">Base&lt; IStarSignData, IAspectPropertyMetaData &gt;</text>
</a>
</g>
</g>
<!-- Node4&#45;&gt;Node5 -->
<g id="edge5" class="edge">
<title>Node4&#45;&gt;Node5</title>
<path fill="none" stroke="orange" stroke-dasharray="5,2" d="M1389.31,-802.28C1404.23,-804.88 1419.52,-807.39 1434,-809.5 1487.08,-817.24 1545.82,-824.01 1596.65,-829.31"/>
<polygon fill="orange" stroke="orange" points="1389.52,-798.76 1379.07,-800.46 1388.3,-805.65 1389.52,-798.76"/>
<text text-anchor="start" x="1444.5" y="-840.5" font-family="Helvetica,sans-Serif" font-size="10.00"> &lt; IStarSignData, IAspect</text>
<text text-anchor="middle" x="1506.5" y="-829.5" font-family="Helvetica,sans-Serif" font-size="10.00">PropertyMetaData &gt;</text>
</g>
<!-- Node7 -->
<g id="node8" class="node">
<title>Node7</title>
<g id="a_node8"><a xlink:href="class_fifty_one_1_1_pipeline_1_1_engines_1_1_flow_elements_1_1_on_premise_aspect_engine_base.html" target="_top" xlink:title=" ">
<polygon fill="none" stroke="black" points="1607,-761 1607,-802 1848,-802 1848,-761 1607,-761"/>
<text text-anchor="start" x="1615" y="-790" font-family="Helvetica,sans-Serif" font-size="10.00">FiftyOne.Pipeline.Engines.</text>
<text text-anchor="start" x="1615" y="-779" font-family="Helvetica,sans-Serif" font-size="10.00">FlowElements.OnPremiseAspectEngine</text>
<text text-anchor="middle" x="1727.5" y="-768" font-family="Helvetica,sans-Serif" font-size="10.00">Base&lt; T, IFiftyOneAspectPropertyMetaData &gt;</text>
</a>
</g>
</g>
<!-- Node4&#45;&gt;Node7 -->
<g id="edge7" class="edge">
<title>Node4&#45;&gt;Node7</title>
<path fill="none" stroke="orange" stroke-dasharray="5,2" d="M1389.08,-783.86C1452.75,-783.41 1538.07,-782.82 1606.98,-782.33"/>
<polygon fill="orange" stroke="orange" points="1389.03,-780.36 1379.05,-783.93 1389.07,-787.36 1389.03,-780.36"/>
<text text-anchor="start" x="1434" y="-797.5" font-family="Helvetica,sans-Serif" font-size="10.00"> &lt; T, IFiftyOneAspectProperty</text>
<text text-anchor="middle" x="1506.5" y="-786.5" font-family="Helvetica,sans-Serif" font-size="10.00">MetaData &gt;</text>
</g>
<!-- Node6 -->
<g id="node7" class="node">
<title>Node6</title>
<g id="a_node7"><a xlink:href="class_examples_1_1_on_premise_engine_1_1_flow_elements_1_1_simple_on_premise_engine.html" target="_top" xlink:title="[class] [constructor]">
<polygon fill="none" stroke="black" points="1895,-826.5 1895,-856.5 2104,-856.5 2104,-826.5 1895,-826.5"/>
<text text-anchor="start" x="1903" y="-844.5" font-family="Helvetica,sans-Serif" font-size="10.00">Examples.OnPremiseEngine.</text>
<text text-anchor="middle" x="1999.5" y="-833.5" font-family="Helvetica,sans-Serif" font-size="10.00">FlowElements.SimpleOnPremiseEngine</text>
</a>
</g>
</g>
<!-- Node5&#45;&gt;Node6 -->
<g id="edge6" class="edge">
<title>Node5&#45;&gt;Node6</title>
<path fill="none" stroke="midnightblue" d="M1868.62,-841.5C1877.36,-841.5 1886.07,-841.5 1894.61,-841.5"/>
<polygon fill="midnightblue" stroke="midnightblue" points="1868.36,-838 1858.36,-841.5 1868.36,-845 1868.36,-838"/>
</g>
<!-- Node8 -->
<g id="node9" class="node">
<title>Node8</title>
<g id="a_node9"><a xlink:href="class_fifty_one_1_1_pipeline_1_1_engines_1_1_fifty_one_1_1_flow_elements_1_1_fifty_one_on_premise_aspect_engine_base.html" target="_top" xlink:title="51Degrees specific Engine base class.">
<polygon fill="none" stroke="black" points="1905.5,-761 1905.5,-802 2093.5,-802 2093.5,-761 1905.5,-761"/>
<text text-anchor="start" x="1913.5" y="-790" font-family="Helvetica,sans-Serif" font-size="10.00">FiftyOne.Pipeline.Engines.</text>
<text text-anchor="start" x="1913.5" y="-779" font-family="Helvetica,sans-Serif" font-size="10.00">FiftyOne.FlowElements.FiftyOne</text>
<text text-anchor="middle" x="1999.5" y="-768" font-family="Helvetica,sans-Serif" font-size="10.00">OnPremiseAspectEngineBase&lt; T &gt;</text>
</a>
</g>
</g>
<!-- Node7&#45;&gt;Node8 -->
<g id="edge8" class="edge">
<title>Node7&#45;&gt;Node8</title>
<path fill="none" stroke="midnightblue" d="M1858.48,-781.5C1874.3,-781.5 1890.21,-781.5 1905.34,-781.5"/>
<polygon fill="midnightblue" stroke="midnightblue" points="1858.11,-778 1848.11,-781.5 1858.1,-785 1858.11,-778"/>
</g>
<!-- Node10 -->
<g id="node11" class="node">
<title>Node10</title>
<g id="a_node11"><a xlink:href="class_fifty_one_1_1_pipeline_1_1_engines_1_1_fifty_one_1_1_flow_elements_1_1_property_keyed_engine.html" target="_top" xlink:title="Base class for engines that use an index of property values to profile ids to populate one or more pr...">
<polygon fill="none" stroke="black" points="1640.5,-698 1640.5,-739 1814.5,-739 1814.5,-698 1640.5,-698"/>
<text text-anchor="start" x="1648.5" y="-727" font-family="Helvetica,sans-Serif" font-size="10.00">FiftyOne.Pipeline.Engines.</text>
<text text-anchor="start" x="1648.5" y="-716" font-family="Helvetica,sans-Serif" font-size="10.00">FiftyOne.FlowElements.Property</text>
<text text-anchor="middle" x="1727.5" y="-705" font-family="Helvetica,sans-Serif" font-size="10.00">KeyedEngine&lt; TData, TProfile &gt;</text>
</a>
</g>
</g>
<!-- Node9&#45;&gt;Node10 -->
<g id="edge10" class="edge">
<title>Node9&#45;&gt;Node10</title>
<path fill="none" stroke="midnightblue" d="M1426.18,-718.5C1495.46,-718.5 1578.94,-718.5 1640.28,-718.5"/>
<polygon fill="midnightblue" stroke="midnightblue" points="1426.07,-715 1416.07,-718.5 1426.07,-722 1426.07,-715"/>
</g>
<!-- Node12 -->
<g id="node13" class="node">
<title>Node12</title>
<g id="a_node13"><a xlink:href="class_fifty_one_1_1_pipeline_1_1_json_builder_1_1_flow_element_1_1_json_builder_element.html" target="_top" xlink:title="The JsonBuilderElement takes accessible properties and adds the property key:values to the Json objec...">
<polygon fill="none" stroke="black" points="1206.5,-640.5 1206.5,-670.5 1385.5,-670.5 1385.5,-640.5 1206.5,-640.5"/>
<text text-anchor="start" x="1214.5" y="-658.5" font-family="Helvetica,sans-Serif" font-size="10.00">FiftyOne.Pipeline.JsonBuilder.</text>
<text text-anchor="middle" x="1296" y="-647.5" font-family="Helvetica,sans-Serif" font-size="10.00">FlowElement.JsonBuilderElement</text>
</a>
</g>
</g>
<!-- Node11&#45;&gt;Node12 -->
<g id="edge12" class="edge">
<title>Node11&#45;&gt;Node12</title>
<path fill="none" stroke="midnightblue" d="M1001.34,-655.5C1063.3,-655.5 1144.79,-655.5 1206.21,-655.5"/>
<polygon fill="midnightblue" stroke="midnightblue" points="1001.18,-652 991.18,-655.5 1001.18,-659 1001.18,-652"/>
</g>
<!-- Node14 -->
<g id="node15" class="node">
<title>Node14</title>
<g id="a_node15"><a xlink:href="class_fifty_one_1_1_pipeline_1_1_math_1_1_math_element.html" target="_top" xlink:title=" ">
<polygon fill="none" stroke="black" points="1218.5,-569.5 1218.5,-599.5 1373.5,-599.5 1373.5,-569.5 1218.5,-569.5"/>
<text text-anchor="start" x="1226.5" y="-587.5" font-family="Helvetica,sans-Serif" font-size="10.00">FiftyOne.Pipeline.Math.Math</text>
<text text-anchor="middle" x="1296" y="-576.5" font-family="Helvetica,sans-Serif" font-size="10.00">Element</text>
</a>
</g>
</g>
<!-- Node13&#45;&gt;Node14 -->
<g id="edge14" class="edge">
<title>Node13&#45;&gt;Node14</title>
<path fill="none" stroke="midnightblue" d="M1016.3,-584.5C1080.39,-584.5 1160.55,-584.5 1218.42,-584.5"/>
<polygon fill="midnightblue" stroke="midnightblue" points="1016.16,-581 1006.16,-584.5 1016.16,-588 1016.16,-581"/>
</g>
<!-- Node17 -->
<g id="node18" class="node">
<title>Node17</title>
<g id="a_node18"><a xlink:href="class_fifty_one_1_1_pipeline_1_1_core_1_1_flow_elements_1_1_parallel_elements.html" target="_top" xlink:title="ParallelElements executes it&#39;s child IFlowElement objects in parallel.">
<polygon fill="none" stroke="black" points="1220.5,-518.5 1220.5,-548.5 1371.5,-548.5 1371.5,-518.5 1220.5,-518.5"/>
<text text-anchor="start" x="1228.5" y="-536.5" font-family="Helvetica,sans-Serif" font-size="10.00">FiftyOne.Pipeline.Core.Flow</text>
<text text-anchor="middle" x="1296" y="-525.5" font-family="Helvetica,sans-Serif" font-size="10.00">Elements.ParallelElements</text>
</a>
</g>
</g>
<!-- Node16&#45;&gt;Node17 -->
<g id="edge17" class="edge">
<title>Node16&#45;&gt;Node17</title>
<path fill="none" stroke="midnightblue" d="M1011.28,-468.54C1060.83,-481.05 1121.43,-496 1176,-508.5 1190.61,-511.85 1206.27,-515.26 1221.27,-518.44"/>
<polygon fill="midnightblue" stroke="midnightblue" points="1012.07,-465.13 1001.52,-466.07 1010.36,-471.92 1012.07,-465.13"/>
</g>
<!-- Node18 -->
<g id="node19" class="node">
<title>Node18</title>
<g id="a_node19"><a xlink:href="class_fifty_one_1_1_pipeline_1_1_engines_1_1_fifty_one_1_1_flow_elements_1_1_sequence_element.html" target="_top" xlink:title="Sequence element establishes session and sequence evidence in the pipeline.">
<polygon fill="none" stroke="black" points="1206.5,-458 1206.5,-499 1385.5,-499 1385.5,-458 1206.5,-458"/>
<text text-anchor="start" x="1214.5" y="-487" font-family="Helvetica,sans-Serif" font-size="10.00">FiftyOne.Pipeline.Engines.</text>
<text text-anchor="start" x="1214.5" y="-476" font-family="Helvetica,sans-Serif" font-size="10.00">FiftyOne.FlowElements.Sequence</text>
<text text-anchor="middle" x="1296" y="-465" font-family="Helvetica,sans-Serif" font-size="10.00">Element</text>
</a>
</g>
</g>
<!-- Node16&#45;&gt;Node18 -->
<g id="edge18" class="edge">
<title>Node16&#45;&gt;Node18</title>
<path fill="none" stroke="midnightblue" d="M1012.06,-452.04C1072.51,-457.7 1148.35,-464.79 1206.3,-470.21"/>
<polygon fill="midnightblue" stroke="midnightblue" points="1012.01,-448.52 1001.73,-451.08 1011.36,-455.49 1012.01,-448.52"/>
</g>
<!-- Node19 -->
<g id="node20" class="node">
<title>Node19</title>
<g id="a_node20"><a xlink:href="class_fifty_one_1_1_pipeline_1_1_engines_1_1_fifty_one_1_1_flow_elements_1_1_share_usage_base.html" target="_top" xlink:title="Abstract base class for ShareUsage elements.">
<polygon fill="none" stroke="black" points="1188.5,-408.5 1188.5,-438.5 1403.5,-438.5 1403.5,-408.5 1188.5,-408.5"/>
<text text-anchor="start" x="1196.5" y="-426.5" font-family="Helvetica,sans-Serif" font-size="10.00">FiftyOne.Pipeline.Engines.</text>
<text text-anchor="middle" x="1296" y="-415.5" font-family="Helvetica,sans-Serif" font-size="10.00">FiftyOne.FlowElements.ShareUsageBase</text>
</a>
</g>
</g>
<!-- Node16&#45;&gt;Node19 -->
<g id="edge19" class="edge">
<title>Node16&#45;&gt;Node19</title>
<path fill="none" stroke="midnightblue" d="M1011.74,-437.48C1066.16,-434.79 1133.13,-431.49 1188.29,-428.77"/>
<polygon fill="midnightblue" stroke="midnightblue" points="1011.54,-433.98 1001.73,-437.97 1011.89,-440.98 1011.54,-433.98"/>
</g>
<!-- Node20 -->
<g id="node21" class="node">
<title>Node20</title>
<g id="a_node21"><a xlink:href="class_fifty_one_1_1_pipeline_1_1_engines_1_1_fifty_one_1_1_flow_elements_1_1_share_usage_element.html" target="_top" xlink:title="Flow element that sends usage data to 51Degrees for analysis.">
<polygon fill="none" stroke="black" points="1632,-403 1632,-444 1823,-444 1823,-403 1632,-403"/>
<text text-anchor="start" x="1640" y="-432" font-family="Helvetica,sans-Serif" font-size="10.00">FiftyOne.Pipeline.Engines.</text>
<text text-anchor="start" x="1640" y="-421" font-family="Helvetica,sans-Serif" font-size="10.00">FiftyOne.FlowElements.ShareUsage</text>
<text text-anchor="middle" x="1727.5" y="-410" font-family="Helvetica,sans-Serif" font-size="10.00">Element</text>
</a>
</g>
</g>
<!-- Node19&#45;&gt;Node20 -->
<g id="edge20" class="edge">
<title>Node19&#45;&gt;Node20</title>
<path fill="none" stroke="midnightblue" d="M1414.11,-423.5C1482.45,-423.5 1567.55,-423.5 1631.67,-423.5"/>
<polygon fill="midnightblue" stroke="midnightblue" points="1413.72,-420 1403.72,-423.5 1413.72,-427 1413.72,-420"/>
</g>
<!-- Node22 -->
<g id="node23" class="node">
<title>Node22</title>
<g id="a_node23"><a xlink:href="class_fifty_one_1_1_pipeline_1_1_java_script_builder_1_1_flow_element_1_1_java_script_builder_element.html" target="_top" xlink:title="JavaScript Builder Element generates a JavaScript include to be run on the client device.">
<polygon fill="none" stroke="black" points="1194.5,-348 1194.5,-389 1397.5,-389 1397.5,-348 1194.5,-348"/>
<text text-anchor="start" x="1202.5" y="-377" font-family="Helvetica,sans-Serif" font-size="10.00">FiftyOne.Pipeline.JavaScript</text>
<text text-anchor="start" x="1202.5" y="-366" font-family="Helvetica,sans-Serif" font-size="10.00">Builder.FlowElement.JavaScriptBuilder</text>
<text text-anchor="middle" x="1296" y="-355" font-family="Helvetica,sans-Serif" font-size="10.00">Element</text>
</a>
</g>
</g>
<!-- Node21&#45;&gt;Node22 -->
<g id="edge22" class="edge">
<title>Node21&#45;&gt;Node22</title>
<path fill="none" stroke="midnightblue" d="M1009.84,-370.72C1066.55,-370.28 1137.35,-369.73 1194.22,-369.29"/>
<polygon fill="midnightblue" stroke="midnightblue" points="1009.75,-367.22 999.78,-370.8 1009.81,-374.22 1009.75,-367.22"/>
</g>
<!-- Node24 -->
<g id="node25" class="node">
<title>Node24</title>
<g id="a_node25"><a xlink:href="class_fifty_one_1_1_pipeline_1_1_engines_1_1_fifty_one_1_1_flow_elements_1_1_set_headers_element.html" target="_top" xlink:title="This element is used to determine the values for HTTP headers that other elements in the pipeline wan...">
<polygon fill="none" stroke="black" points="1202,-283 1202,-324 1390,-324 1390,-283 1202,-283"/>
<text text-anchor="start" x="1210" y="-312" font-family="Helvetica,sans-Serif" font-size="10.00">FiftyOne.Pipeline.Engines.</text>
<text text-anchor="start" x="1210" y="-301" font-family="Helvetica,sans-Serif" font-size="10.00">FiftyOne.FlowElements.SetHeaders</text>
<text text-anchor="middle" x="1296" y="-290" font-family="Helvetica,sans-Serif" font-size="10.00">Element</text>
</a>
</g>
</g>
<!-- Node23&#45;&gt;Node24 -->
<g id="edge24" class="edge">
<title>Node23&#45;&gt;Node24</title>
<path fill="none" stroke="midnightblue" d="M1019.86,-301.36C1077.32,-301.8 1146.91,-302.35 1201.72,-302.77"/>
<polygon fill="midnightblue" stroke="midnightblue" points="1019.67,-297.85 1009.65,-301.28 1019.62,-304.85 1019.67,-297.85"/>
</g>
<!-- Node26 -->
<g id="node27" class="node">
<title>Node26</title>
<g id="a_node27"><a xlink:href="class_examples_1_1_client_side_evidence_1_1_shared_1_1_simple_client_side_element.html" target="_top" xlink:title="[class] [constructor]">
<polygon fill="none" stroke="black" points="1207.5,-233.5 1207.5,-263.5 1384.5,-263.5 1384.5,-233.5 1207.5,-233.5"/>
<text text-anchor="start" x="1215.5" y="-251.5" font-family="Helvetica,sans-Serif" font-size="10.00">Examples.ClientSideEvidence.</text>
<text text-anchor="middle" x="1296" y="-240.5" font-family="Helvetica,sans-Serif" font-size="10.00">Shared.SimpleClientSideElement</text>
</a>
</g>
</g>
<!-- Node25&#45;&gt;Node26 -->
<g id="edge26" class="edge">
<title>Node25&#45;&gt;Node26</title>
<path fill="none" stroke="midnightblue" d="M1011.74,-234.52C1072.58,-237.52 1149.11,-241.3 1207.28,-244.17"/>
<polygon fill="midnightblue" stroke="midnightblue" points="1011.89,-231.02 1001.73,-234.03 1011.54,-238.02 1011.89,-231.02"/>
</g>
<!-- Node27 -->
<g id="node28" class="node">
<title>Node27</title>
<g id="a_node28"><a xlink:href="class_examples_1_1_custom_flow_element_1_1_flow_elements_1_1_simple_flow_element.html" target="_top" xlink:title="[class] [constructor]">
<polygon fill="none" stroke="black" points="1203,-184.5 1203,-214.5 1389,-214.5 1389,-184.5 1203,-184.5"/>
<text text-anchor="start" x="1211" y="-202.5" font-family="Helvetica,sans-Serif" font-size="10.00">Examples.CustomFlowElement.</text>
<text text-anchor="middle" x="1296" y="-191.5" font-family="Helvetica,sans-Serif" font-size="10.00">FlowElements.SimpleFlowElement</text>
</a>
</g>
</g>
<!-- Node25&#45;&gt;Node27 -->
<g id="edge27" class="edge">
<title>Node25&#45;&gt;Node27</title>
<path fill="none" stroke="midnightblue" d="M1011.87,-221.56C1071.2,-216.94 1145.41,-211.16 1202.97,-206.67"/>
<polygon fill="midnightblue" stroke="midnightblue" points="1011.43,-218.09 1001.73,-222.35 1011.97,-225.06 1011.43,-218.09"/>
</g>
<!-- Node29 -->
<g id="node30" class="node">
<title>Node29</title>
<g id="a_node30"><a xlink:href="class_fifty_one_1_1_pipeline_1_1_translation_1_1_flow_elements_1_1_translation_engine_base.html" target="_top" xlink:title="Flow element that translates values from a single source element and stores translated values under i...">
<polygon fill="none" stroke="black" points="1182.5,-135.5 1182.5,-165.5 1409.5,-165.5 1409.5,-135.5 1182.5,-135.5"/>
<text text-anchor="start" x="1190.5" y="-153.5" font-family="Helvetica,sans-Serif" font-size="10.00">FiftyOne.Pipeline.Translation.</text>
<text text-anchor="middle" x="1296" y="-142.5" font-family="Helvetica,sans-Serif" font-size="10.00">FlowElements.TranslationEngineBase&lt; T &gt;</text>
</a>
</g>
</g>
<!-- Node28&#45;&gt;Node29 -->
<g id="edge29" class="edge">
<title>Node28&#45;&gt;Node29</title>
<path fill="none" stroke="midnightblue" d="M1011.25,-160.08C1063.84,-158.31 1128.25,-156.13 1182.4,-154.3"/>
<polygon fill="midnightblue" stroke="midnightblue" points="1011.12,-156.58 1001.24,-160.42 1011.35,-163.58 1011.12,-156.58"/>
</g>
<!-- Node30 -->
<g id="node31" class="node">
<title>Node30</title>
<g id="a_node31"><a xlink:href="class_fifty_one_1_1_pipeline_1_1_translation_1_1_flow_elements_1_1_translation_engine_base.html" target="_top" xlink:title=" ">
<polygon fill="none" stroke="black" points="1628,-130 1628,-171 1827,-171 1827,-130 1628,-130"/>
<text text-anchor="start" x="1636" y="-159" font-family="Helvetica,sans-Serif" font-size="10.00">FiftyOne.Pipeline.Translation.</text>
<text text-anchor="start" x="1636" y="-148" font-family="Helvetica,sans-Serif" font-size="10.00">FlowElements.TranslationEngineBase</text>
<text text-anchor="middle" x="1727.5" y="-137" font-family="Helvetica,sans-Serif" font-size="10.00">&lt; ITranslationData &gt;</text>
</a>
</g>
</g>
<!-- Node29&#45;&gt;Node30 -->
<g id="edge30" class="edge">
<title>Node29&#45;&gt;Node30</title>
<path fill="none" stroke="orange" stroke-dasharray="5,2" d="M1419.61,-150.5C1485.59,-150.5 1565.88,-150.5 1627.79,-150.5"/>
<polygon fill="orange" stroke="orange" points="1419.57,-147 1409.57,-150.5 1419.57,-154 1419.57,-147"/>
<text text-anchor="middle" x="1506.5" y="-153.5" font-family="Helvetica,sans-Serif" font-size="10.00"> &lt; ITranslationData &gt;</text>
</g>
<!-- Node31 -->
<g id="node32" class="node">
<title>Node31</title>
<g id="a_node32"><a xlink:href="class_fifty_one_1_1_pipeline_1_1_translation_1_1_flow_elements_1_1_translation_engine.html" target="_top" xlink:title=" ">
<polygon fill="none" stroke="black" points="1912,-135.5 1912,-165.5 2087,-165.5 2087,-135.5 1912,-135.5"/>
<text text-anchor="start" x="1920" y="-153.5" font-family="Helvetica,sans-Serif" font-size="10.00">FiftyOne.Pipeline.Translation.</text>
<text text-anchor="middle" x="1999.5" y="-142.5" font-family="Helvetica,sans-Serif" font-size="10.00">FlowElements.TranslationEngine</text>
</a>
</g>
</g>
<!-- Node30&#45;&gt;Node31 -->
<g id="edge31" class="edge">
<title>Node30&#45;&gt;Node31</title>
<path fill="none" stroke="midnightblue" d="M1837.28,-150.5C1862.05,-150.5 1888.04,-150.5 1911.74,-150.5"/>
<polygon fill="midnightblue" stroke="midnightblue" points="1837.12,-147 1827.12,-150.5 1837.12,-154 1837.12,-147"/>
</g>
<!-- Node33 -->
<g id="node34" class="node">
<title>Node33</title>
<g id="a_node34"><a xlink:href="class_fifty_one_1_1_pipeline_1_1_ip_splitter_1_1_ip_splitter_element.html" target="_top" xlink:title=" ">
<polygon fill="none" stroke="black" points="1221.5,-82.5 1221.5,-112.5 1370.5,-112.5 1370.5,-82.5 1221.5,-82.5"/>
<text text-anchor="start" x="1229.5" y="-100.5" font-family="Helvetica,sans-Serif" font-size="10.00">FiftyOne.Pipeline.IpSplitter.</text>
<text text-anchor="middle" x="1296" y="-89.5" font-family="Helvetica,sans-Serif" font-size="10.00">IpSplitterElement</text>
</a>
</g>
</g>
<!-- Node32&#45;&gt;Node33 -->
<g id="edge33" class="edge">
<title>Node32&#45;&gt;Node33</title>
<path fill="none" stroke="midnightblue" d="M1007.43,-97.5C1073.88,-97.5 1160.51,-97.5 1221.25,-97.5"/>
<polygon fill="midnightblue" stroke="midnightblue" points="1007.36,-94 997.36,-97.5 1007.36,-101 1007.36,-94"/>
</g>
<!-- Node35 -->
<g id="node36" class="node">
<title>Node35</title>
<g id="a_node36"><a xlink:href="class_evidence_copy_element.html" target="_top" xlink:title="Element that just copies the evidence into its element data.">
<polygon fill="none" stroke="black" points="1233,-17 1233,-36 1359,-36 1359,-17 1233,-17"/>
<text text-anchor="middle" x="1296" y="-24" font-family="Helvetica,sans-Serif" font-size="10.00">EvidenceCopyElement</text>
</a>
</g>
</g>
<!-- Node34&#45;&gt;Node35 -->
<g id="edge35" class="edge">
<title>Node34&#45;&gt;Node35</title>
<path fill="none" stroke="midnightblue" d="M1023.57,-26.5C1091.97,-26.5 1176.45,-26.5 1232.82,-26.5"/>
<polygon fill="midnightblue" stroke="midnightblue" points="1023.17,-23 1013.17,-26.5 1023.17,-30 1023.17,-23"/>
</g>
</g>
</svg>
