<?xml version="1.0" encoding="UTF-8" standalone="no"?>
<!DOCTYPE svg PUBLIC "-//W3C//DTD SVG 1.1//EN"
 "http://www.w3.org/Graphics/SVG/1.1/DTD/svg11.dtd">
<!-- Generated by graphviz version 2.43.0 (0)
 -->
<!-- Title: FiftyOne.Pipeline.Engines.FiftyOne.FlowElements.PropertyKeyedIndex Pages: 1 -->
<svg width="863pt" height="203pt"
 viewBox="0.00 0.00 863.00 203.00" xmlns="http://www.w3.org/2000/svg" xmlns:xlink="http://www.w3.org/1999/xlink">
<g id="graph0" class="graph" transform="scale(1 1) rotate(0) translate(4 199)">
<title>FiftyOne.Pipeline.Engines.FiftyOne.FlowElements.PropertyKeyedIndex</title>
<!-- Node1 -->
<g id="node1" class="node">
<title>Node1</title>
<g id="a_node1"><a xlink:title="Index of values and profile ids for a single property.">
<polygon fill="#bfbfbf" stroke="black" points="682,-71.5 682,-112.5 855,-112.5 855,-71.5 682,-71.5"/>
<text text-anchor="start" x="690" y="-100.5" font-family="Helvetica,sans-Serif" font-size="10.00">FiftyOne.Pipeline.Engines.</text>
<text text-anchor="start" x="690" y="-89.5" font-family="Helvetica,sans-Serif" font-size="10.00">FiftyOne.FlowElements.Property</text>
<text text-anchor="middle" x="768.5" y="-78.5" font-family="Helvetica,sans-Serif" font-size="10.00">KeyedIndex</text>
</a>
</g>
</g>
<!-- Node2 -->
<g id="node2" class="node">
<title>Node2</title>
<g id="a_node2"><a xlink:href="interface_fifty_one_1_1_pipeline_1_1_engines_1_1_fifty_one_1_1_data_1_1_i_fifty_one_aspect_property_meta_data.html" target="_top" xlink:title="51Degrees specific meta data.">
<polygon fill="none" stroke="black" points="390,-71.5 390,-112.5 594,-112.5 594,-71.5 390,-71.5"/>
<text text-anchor="start" x="398" y="-100.5" font-family="Helvetica,sans-Serif" font-size="10.00">FiftyOne.Pipeline.Engines.</text>
<text text-anchor="start" x="398" y="-89.5" font-family="Helvetica,sans-Serif" font-size="10.00">FiftyOne.Data.IFiftyOneAspectProperty</text>
<text text-anchor="middle" x="492" y="-78.5" font-family="Helvetica,sans-Serif" font-size="10.00">MetaData</text>
</a>
</g>
</g>
<!-- Node2&#45;&gt;Node1 -->
<g id="edge1" class="edge">
<title>Node2&#45;&gt;Node1</title>
<path fill="none" stroke="#9a32cd" stroke-dasharray="5,2" d="M604.29,-92C630.2,-92 657.4,-92 682,-92"/>
<polygon fill="#9a32cd" stroke="#9a32cd" points="604.04,-88.5 594.04,-92 604.04,-95.5 604.04,-88.5"/>
<text text-anchor="middle" x="638" y="-95" font-family="Helvetica,sans-Serif" font-size="10.00"> MetaData</text>
</g>
<!-- Node3 -->
<g id="node3" class="node">
<title>Node3</title>
<g id="a_node3"><a xlink:href="interface_fifty_one_1_1_pipeline_1_1_engines_1_1_data_1_1_i_aspect_property_meta_data.html" target="_top" xlink:title="Represents meta&#45;data relating to a property that is populated by an IAspectEngine instance.">
<polygon fill="none" stroke="black" points="198.5,-175.5 198.5,-194.5 340.5,-194.5 340.5,-175.5 198.5,-175.5"/>
<text text-anchor="middle" x="269.5" y="-182.5" font-family="Helvetica,sans-Serif" font-size="10.00">IAspectPropertyMetaData</text>
</a>
</g>
</g>
<!-- Node3&#45;&gt;Node2 -->
<g id="edge2" class="edge">
<title>Node3&#45;&gt;Node2</title>
<path fill="none" stroke="midnightblue" d="M331.64,-172.85C338.93,-170.84 346.19,-168.56 353,-166 390.92,-151.76 431.45,-129.03 458.7,-112.51"/>
<polygon fill="midnightblue" stroke="midnightblue" points="330.53,-169.52 321.74,-175.43 332.3,-176.3 330.53,-169.52"/>
</g>
<!-- Node4 -->
<g id="node4" class="node">
<title>Node4</title>
<g id="a_node4"><a xlink:href="interface_fifty_one_1_1_pipeline_1_1_core_1_1_data_1_1_i_element_property_meta_data.html" target="_top" xlink:title="Represents meta&#45;data relating to a property that is populated by a IFlowElement instance.">
<polygon fill="none" stroke="black" points="0,-175.5 0,-194.5 149,-194.5 149,-175.5 0,-175.5"/>
<text text-anchor="middle" x="74.5" y="-182.5" font-family="Helvetica,sans-Serif" font-size="10.00">IElementPropertyMetaData</text>
</a>
</g>
</g>
<!-- Node4&#45;&gt;Node3 -->
<g id="edge3" class="edge">
<title>Node4&#45;&gt;Node3</title>
<path fill="none" stroke="midnightblue" d="M159.37,-185C172.38,-185 185.7,-185 198.37,-185"/>
<polygon fill="midnightblue" stroke="midnightblue" points="159.02,-181.5 149.02,-185 159.02,-188.5 159.02,-181.5"/>
</g>
<!-- Node5 -->
<g id="node5" class="node">
<title>Node5</title>
<g id="a_node5"><a xlink:title=" ">
<polygon fill="none" stroke="#bfbfbf" points="191.5,-126 191.5,-156 347.5,-156 347.5,-126 191.5,-126"/>
<text text-anchor="start" x="199.5" y="-144" font-family="Helvetica,sans-Serif" font-size="10.00">IEquatable&lt; IFiftyOneAspect</text>
<text text-anchor="middle" x="269.5" y="-133" font-family="Helvetica,sans-Serif" font-size="10.00">PropertyMetaData &gt;</text>
</a>
</g>
</g>
<!-- Node5&#45;&gt;Node2 -->
<g id="edge4" class="edge">
<title>Node5&#45;&gt;Node2</title>
<path fill="none" stroke="midnightblue" d="M348.18,-123.74C364.51,-120.11 381.9,-116.25 398.71,-112.51"/>
<polygon fill="midnightblue" stroke="midnightblue" points="347.16,-120.38 338.16,-125.97 348.68,-127.21 347.16,-120.38"/>
</g>
<!-- Node6 -->
<g id="node6" class="node">
<title>Node6</title>
<g id="a_node6"><a xlink:title=" ">
<polygon fill="none" stroke="#bfbfbf" points="186,-77 186,-107 353,-107 353,-77 186,-77"/>
<text text-anchor="start" x="194" y="-95" font-family="Helvetica,sans-Serif" font-size="10.00">IComparable&lt; IFiftyOneAspect</text>
<text text-anchor="middle" x="269.5" y="-84" font-family="Helvetica,sans-Serif" font-size="10.00">PropertyMetaData &gt;</text>
</a>
</g>
</g>
<!-- Node6&#45;&gt;Node2 -->
<g id="edge5" class="edge">
<title>Node6&#45;&gt;Node2</title>
<path fill="none" stroke="midnightblue" d="M363.43,-92C372.19,-92 381.1,-92 389.93,-92"/>
<polygon fill="midnightblue" stroke="midnightblue" points="363.23,-88.5 353.23,-92 363.23,-95.5 363.23,-88.5"/>
</g>
<!-- Node7 -->
<g id="node7" class="node">
<title>Node7</title>
<g id="a_node7"><a xlink:title=" ">
<polygon fill="none" stroke="#bfbfbf" points="210,-38.5 210,-57.5 329,-57.5 329,-38.5 210,-38.5"/>
<text text-anchor="middle" x="269.5" y="-45.5" font-family="Helvetica,sans-Serif" font-size="10.00">IEquatable&lt; string &gt;</text>
</a>
</g>
</g>
<!-- Node7&#45;&gt;Node2 -->
<g id="edge6" class="edge">
<title>Node7&#45;&gt;Node2</title>
<path fill="none" stroke="midnightblue" d="M328.25,-59.52C347.14,-63.29 368.71,-67.6 389.83,-71.81"/>
<polygon fill="midnightblue" stroke="midnightblue" points="328.84,-56.07 318.35,-57.55 327.47,-62.94 328.84,-56.07"/>
</g>
<!-- Node8 -->
<g id="node8" class="node">
<title>Node8</title>
<g id="a_node8"><a xlink:title=" ">
<polygon fill="none" stroke="#bfbfbf" points="232.5,-0.5 232.5,-19.5 306.5,-19.5 306.5,-0.5 232.5,-0.5"/>
<text text-anchor="middle" x="269.5" y="-7.5" font-family="Helvetica,sans-Serif" font-size="10.00">IDisposable</text>
</a>
</g>
</g>
<!-- Node8&#45;&gt;Node2 -->
<g id="edge7" class="edge">
<title>Node8&#45;&gt;Node2</title>
<path fill="none" stroke="midnightblue" d="M316.52,-18.87C328.53,-21.65 341.37,-25.05 353,-29 387.29,-40.64 424.56,-57.95 451.71,-71.48"/>
<polygon fill="midnightblue" stroke="midnightblue" points="317.2,-15.43 306.68,-16.68 315.68,-22.27 317.2,-15.43"/>
</g>
</g>
</svg>
