<?xml version="1.0" encoding="UTF-8" standalone="no"?>
<!DOCTYPE svg PUBLIC "-//W3C//DTD SVG 1.1//EN"
 "http://www.w3.org/Graphics/SVG/1.1/DTD/svg11.dtd">
<!-- Generated by graphviz version 2.43.0 (0)
 -->
<!-- Title: FiftyOne.Pipeline.Core.Data.DataBase Pages: 1 -->
<svg width="888pt" height="460pt"
 viewBox="0.00 0.00 888.00 459.50" xmlns="http://www.w3.org/2000/svg" xmlns:xlink="http://www.w3.org/1999/xlink">
<g id="graph0" class="graph" transform="scale(1 1) rotate(0) translate(4 455.5)">
<title>FiftyOne.Pipeline.Core.Data.DataBase</title>
<!-- Node0 -->
<g id="node1" class="node">
<title>Node0</title>
<g id="a_node1"><a xlink:title="This class stores data values as key/value pairs where the key is a string and the value can be any t...">
<polygon fill="#bfbfbf" stroke="black" points="79,-185.5 79,-215.5 233,-215.5 233,-185.5 79,-185.5"/>
<text text-anchor="start" x="87" y="-203.5" font-family="Helvetica,sans-Serif" font-size="10.00">FiftyOne.Pipeline.Core.Data.</text>
<text text-anchor="middle" x="156" y="-192.5" font-family="Helvetica,sans-Serif" font-size="10.00">DataBase</text>
</a>
</g>
</g>
<!-- Node2 -->
<g id="node3" class="node">
<title>Node2</title>
<g id="a_node3"><a xlink:href="class_fifty_one_1_1_pipeline_1_1_core_1_1_data_1_1_element_data_base.html" target="_top" xlink:title="This class stores property values that have been determined by a specific FlowElement based on the su...">
<polygon fill="none" stroke="black" points="269,-210.5 269,-240.5 423,-240.5 423,-210.5 269,-210.5"/>
<text text-anchor="start" x="277" y="-228.5" font-family="Helvetica,sans-Serif" font-size="10.00">FiftyOne.Pipeline.Core.Data.</text>
<text text-anchor="middle" x="346" y="-217.5" font-family="Helvetica,sans-Serif" font-size="10.00">ElementDataBase</text>
</a>
</g>
</g>
<!-- Node0&#45;&gt;Node2 -->
<g id="edge2" class="edge">
<title>Node0&#45;&gt;Node2</title>
<path fill="none" stroke="midnightblue" d="M243.15,-211.96C251.67,-213.09 260.28,-214.23 268.7,-215.35"/>
<polygon fill="midnightblue" stroke="midnightblue" points="243.57,-208.48 233.2,-210.63 242.65,-215.42 243.57,-208.48"/>
</g>
<!-- Node15 -->
<g id="node16" class="node">
<title>Node15</title>
<g id="a_node16"><a xlink:href="class_fifty_one_1_1_pipeline_1_1_core_1_1_data_1_1_evidence.html" target="_top" xlink:title="This class contains the evidence that is passed in to a Pipeline as part of a FlowData object See the...">
<polygon fill="none" stroke="black" points="269,-161.5 269,-191.5 423,-191.5 423,-161.5 269,-161.5"/>
<text text-anchor="start" x="277" y="-179.5" font-family="Helvetica,sans-Serif" font-size="10.00">FiftyOne.Pipeline.Core.Data.</text>
<text text-anchor="middle" x="346" y="-168.5" font-family="Helvetica,sans-Serif" font-size="10.00">Evidence</text>
</a>
</g>
</g>
<!-- Node0&#45;&gt;Node15 -->
<g id="edge15" class="edge">
<title>Node0&#45;&gt;Node15</title>
<path fill="none" stroke="midnightblue" d="M243.15,-189.5C251.67,-188.41 260.28,-187.32 268.7,-186.24"/>
<polygon fill="midnightblue" stroke="midnightblue" points="242.67,-186.03 233.2,-190.77 243.56,-192.98 242.67,-186.03"/>
</g>
<!-- Node1 -->
<g id="node2" class="node">
<title>Node1</title>
<g id="a_node2"><a xlink:href="interface_fifty_one_1_1_pipeline_1_1_core_1_1_data_1_1_i_data.html" target="_top" xlink:title="Represents property values">
<polygon fill="none" stroke="black" points="0,-191 0,-210 43,-210 43,-191 0,-191"/>
<text text-anchor="middle" x="21.5" y="-198" font-family="Helvetica,sans-Serif" font-size="10.00">IData</text>
</a>
</g>
</g>
<!-- Node1&#45;&gt;Node0 -->
<g id="edge1" class="edge">
<title>Node1&#45;&gt;Node0</title>
<path fill="none" stroke="midnightblue" d="M53.27,-200.5C61.13,-200.5 69.93,-200.5 78.98,-200.5"/>
<polygon fill="midnightblue" stroke="midnightblue" points="53.2,-197 43.2,-200.5 53.2,-204 53.2,-197"/>
</g>
<!-- Node3 -->
<g id="node4" class="node">
<title>Node3</title>
<g id="a_node4"><a xlink:href="class_evidence_copy_data.html" target="_top" xlink:title="Data type for the EvidenceCopyElement.">
<polygon fill="none" stroke="black" points="518,-432 518,-451 627,-451 627,-432 518,-432"/>
<text text-anchor="middle" x="572.5" y="-439" font-family="Helvetica,sans-Serif" font-size="10.00">EvidenceCopyData</text>
</a>
</g>
</g>
<!-- Node2&#45;&gt;Node3 -->
<g id="edge3" class="edge">
<title>Node2&#45;&gt;Node3</title>
<path fill="none" stroke="midnightblue" d="M353.58,-250.48C366.23,-293.25 398.23,-379.98 459,-422.5 475.96,-434.37 497.82,-439.71 517.75,-441.88"/>
<polygon fill="midnightblue" stroke="midnightblue" points="356.87,-249.27 350.77,-240.61 350.14,-251.19 356.87,-249.27"/>
</g>
<!-- Node4 -->
<g id="node5" class="node">
<title>Node4</title>
<g id="a_node5"><a xlink:href="class_examples_1_1_custom_flow_element_1_1_data_1_1_star_sign_data.html" target="_top" xlink:title="[class]">
<polygon fill="none" stroke="black" points="486.5,-382.5 486.5,-412.5 658.5,-412.5 658.5,-382.5 486.5,-382.5"/>
<text text-anchor="start" x="494.5" y="-400.5" font-family="Helvetica,sans-Serif" font-size="10.00">Examples.CustomFlowElement.</text>
<text text-anchor="middle" x="572.5" y="-389.5" font-family="Helvetica,sans-Serif" font-size="10.00">Data.StarSignData</text>
</a>
</g>
</g>
<!-- Node2&#45;&gt;Node4 -->
<g id="edge4" class="edge">
<title>Node2&#45;&gt;Node4</title>
<path fill="none" stroke="midnightblue" d="M358.53,-250.07C375.57,-283.53 410.75,-342.8 459,-373.5 467.34,-378.81 476.66,-382.96 486.27,-386.2"/>
<polygon fill="midnightblue" stroke="midnightblue" points="361.59,-248.37 354.02,-240.96 355.32,-251.47 361.59,-248.37"/>
</g>
<!-- Node5 -->
<g id="node6" class="node">
<title>Node5</title>
<g id="a_node6"><a xlink:href="class_fifty_one_1_1_pipeline_1_1_engines_1_1_data_1_1_aspect_data_base.html" target="_top" xlink:title="Base class for element data instances that are generated by an IAspectEngine.">
<polygon fill="none" stroke="black" points="501,-333.5 501,-363.5 644,-363.5 644,-333.5 501,-333.5"/>
<text text-anchor="start" x="509" y="-351.5" font-family="Helvetica,sans-Serif" font-size="10.00">FiftyOne.Pipeline.Engines.</text>
<text text-anchor="middle" x="572.5" y="-340.5" font-family="Helvetica,sans-Serif" font-size="10.00">Data.AspectDataBase</text>
</a>
</g>
</g>
<!-- Node2&#45;&gt;Node5 -->
<g id="edge5" class="edge">
<title>Node2&#45;&gt;Node5</title>
<path fill="none" stroke="midnightblue" d="M366.06,-248.12C386.62,-270.99 421.48,-305.58 459,-324.5 471.93,-331.02 486.56,-335.77 500.89,-339.23"/>
<polygon fill="midnightblue" stroke="midnightblue" points="368.64,-245.76 359.41,-240.57 363.39,-250.38 368.64,-245.76"/>
</g>
<!-- Node8 -->
<g id="node9" class="node">
<title>Node8</title>
<g id="a_node9"><a xlink:href="class_fifty_one_1_1_pipeline_1_1_engines_1_1_fifty_one_1_1_data_1_1_set_headers_data.html" target="_top" xlink:title="Element data instance for SetHeadersElement See the Specification">
<polygon fill="none" stroke="black" points="489.5,-284.5 489.5,-314.5 655.5,-314.5 655.5,-284.5 489.5,-284.5"/>
<text text-anchor="start" x="497.5" y="-302.5" font-family="Helvetica,sans-Serif" font-size="10.00">FiftyOne.Pipeline.Engines.</text>
<text text-anchor="middle" x="572.5" y="-291.5" font-family="Helvetica,sans-Serif" font-size="10.00">FiftyOne.Data.SetHeadersData</text>
</a>
</g>
</g>
<!-- Node2&#45;&gt;Node8 -->
<g id="edge8" class="edge">
<title>Node2&#45;&gt;Node8</title>
<path fill="none" stroke="midnightblue" d="M385.31,-245.01C406.59,-255.22 433.78,-267.28 459,-275.5 469.25,-278.84 480.19,-281.84 491.06,-284.49"/>
<polygon fill="midnightblue" stroke="midnightblue" points="386.8,-241.84 376.28,-240.61 383.74,-248.13 386.8,-241.84"/>
</g>
<!-- Node9 -->
<g id="node10" class="node">
<title>Node9</title>
<g id="a_node10"><a xlink:href="class_fifty_one_1_1_pipeline_1_1_ip_splitter_1_1_split_ip_data.html" target="_top" xlink:title=" ">
<polygon fill="none" stroke="black" points="498,-235.5 498,-265.5 647,-265.5 647,-235.5 498,-235.5"/>
<text text-anchor="start" x="506" y="-253.5" font-family="Helvetica,sans-Serif" font-size="10.00">FiftyOne.Pipeline.IpSplitter.</text>
<text text-anchor="middle" x="572.5" y="-242.5" font-family="Helvetica,sans-Serif" font-size="10.00">SplitIpData</text>
</a>
</g>
</g>
<!-- Node2&#45;&gt;Node9 -->
<g id="edge9" class="edge">
<title>Node2&#45;&gt;Node9</title>
<path fill="none" stroke="midnightblue" d="M433.05,-235.08C454.42,-237.46 477.14,-239.99 497.85,-242.3"/>
<polygon fill="midnightblue" stroke="midnightblue" points="433.33,-231.59 423.01,-233.96 432.56,-238.55 433.33,-231.59"/>
</g>
<!-- Node10 -->
<g id="node11" class="node">
<title>Node10</title>
<g id="a_node11"><a xlink:href="class_fifty_one_1_1_pipeline_1_1_java_script_builder_1_1_data_1_1_java_script_builder_element_data.html" target="_top" xlink:title="The IElementData class for JavaScriptBuilderElement.">
<polygon fill="none" stroke="black" points="459,-186.5 459,-216.5 686,-216.5 686,-186.5 459,-186.5"/>
<text text-anchor="start" x="467" y="-204.5" font-family="Helvetica,sans-Serif" font-size="10.00">FiftyOne.Pipeline.JavaScript</text>
<text text-anchor="middle" x="572.5" y="-193.5" font-family="Helvetica,sans-Serif" font-size="10.00">Builder.Data.JavaScriptBuilderElementData</text>
</a>
</g>
</g>
<!-- Node2&#45;&gt;Node10 -->
<g id="edge10" class="edge">
<title>Node2&#45;&gt;Node10</title>
<path fill="none" stroke="midnightblue" d="M433.17,-216.29C441.61,-215.39 450.25,-214.46 458.89,-213.54"/>
<polygon fill="midnightblue" stroke="midnightblue" points="432.58,-212.83 423.01,-217.37 433.32,-219.79 432.58,-212.83"/>
</g>
<!-- Node11 -->
<g id="node12" class="node">
<title>Node11</title>
<g id="a_node12"><a xlink:href="class_fifty_one_1_1_pipeline_1_1_json_builder_1_1_data_1_1_json_builder_element_data.html" target="_top" xlink:title="JsonBuilderElement data class.">
<polygon fill="none" stroke="black" points="492,-137.5 492,-167.5 653,-167.5 653,-137.5 492,-137.5"/>
<text text-anchor="start" x="500" y="-155.5" font-family="Helvetica,sans-Serif" font-size="10.00">FiftyOne.Pipeline.JsonBuilder.</text>
<text text-anchor="middle" x="572.5" y="-144.5" font-family="Helvetica,sans-Serif" font-size="10.00">Data.JsonBuilderElementData</text>
</a>
</g>
</g>
<!-- Node2&#45;&gt;Node11 -->
<g id="edge11" class="edge">
<title>Node2&#45;&gt;Node11</title>
<path fill="none" stroke="midnightblue" d="M408.73,-206.78C413.62,-204.82 418.43,-202.72 423,-200.5 440.29,-192.09 441.28,-183.97 459,-176.5 469.4,-172.12 480.68,-168.5 491.96,-165.52"/>
<polygon fill="midnightblue" stroke="midnightblue" points="407.35,-203.56 399.25,-210.39 409.85,-210.1 407.35,-203.56"/>
</g>
<!-- Node12 -->
<g id="node13" class="node">
<title>Node12</title>
<g id="a_node13"><a xlink:href="class_fifty_one_1_1_pipeline_1_1_math_1_1_math_data.html" target="_top" xlink:title=" ">
<polygon fill="none" stroke="black" points="483.5,-99 483.5,-118 661.5,-118 661.5,-99 483.5,-99"/>
<text text-anchor="middle" x="572.5" y="-106" font-family="Helvetica,sans-Serif" font-size="10.00">FiftyOne.Pipeline.Math.MathData</text>
</a>
</g>
</g>
<!-- Node2&#45;&gt;Node12 -->
<g id="edge12" class="edge">
<title>Node2&#45;&gt;Node12</title>
<path fill="none" stroke="midnightblue" d="M416.9,-205.19C419.03,-203.74 421.07,-202.17 423,-200.5 450.31,-176.78 429.98,-149.1 459,-127.5 466.31,-122.06 474.62,-117.96 483.35,-114.9"/>
<polygon fill="midnightblue" stroke="midnightblue" points="415.1,-202.19 408.3,-210.32 418.68,-208.21 415.1,-202.19"/>
</g>
<!-- Node13 -->
<g id="node14" class="node">
<title>Node13</title>
<g id="a_node14"><a xlink:href="class_fifty_one_1_1_pipeline_1_1_translation_1_1_data_1_1_translation_data.html" target="_top" xlink:title="Data object populated by FlowElements.TranslationEngine.">
<polygon fill="none" stroke="black" points="493.5,-49.5 493.5,-79.5 651.5,-79.5 651.5,-49.5 493.5,-49.5"/>
<text text-anchor="start" x="501.5" y="-67.5" font-family="Helvetica,sans-Serif" font-size="10.00">FiftyOne.Pipeline.Translation.</text>
<text text-anchor="middle" x="572.5" y="-56.5" font-family="Helvetica,sans-Serif" font-size="10.00">Data.TranslationData</text>
</a>
</g>
</g>
<!-- Node2&#45;&gt;Node13 -->
<g id="edge13" class="edge">
<title>Node2&#45;&gt;Node13</title>
<path fill="none" stroke="midnightblue" d="M418.46,-204.57C420.05,-203.3 421.57,-201.94 423,-200.5 459.6,-163.75 420.63,-124.39 459,-89.5 468.7,-80.68 480.8,-74.74 493.43,-70.78"/>
<polygon fill="midnightblue" stroke="midnightblue" points="416.3,-201.81 410.01,-210.34 420.24,-207.6 416.3,-201.81"/>
</g>
<!-- Node14 -->
<g id="node15" class="node">
<title>Node14</title>
<g id="a_node15"><a xlink:href="class_simple_client_side_element_1_1_data_1_1_star_sign_data.html" target="_top" xlink:title="[class]">
<polygon fill="none" stroke="black" points="501,-0.5 501,-30.5 644,-30.5 644,-0.5 501,-0.5"/>
<text text-anchor="start" x="509" y="-18.5" font-family="Helvetica,sans-Serif" font-size="10.00">SimpleClientSideElement.</text>
<text text-anchor="middle" x="572.5" y="-7.5" font-family="Helvetica,sans-Serif" font-size="10.00">Data.StarSignData</text>
</a>
</g>
</g>
<!-- Node2&#45;&gt;Node14 -->
<g id="edge14" class="edge">
<title>Node2&#45;&gt;Node14</title>
<path fill="none" stroke="midnightblue" d="M419.13,-204.32C420.49,-203.12 421.78,-201.84 423,-200.5 472.25,-146.18 406.9,-91.09 459,-39.5 470.28,-28.33 485.41,-21.78 500.9,-18.06"/>
<polygon fill="midnightblue" stroke="midnightblue" points="416.73,-201.74 410.76,-210.5 420.89,-207.38 416.73,-201.74"/>
</g>
<!-- Node6 -->
<g id="node7" class="node">
<title>Node6</title>
<g id="a_node7"><a xlink:href="class_examples_1_1_cloud_engine_1_1_data_1_1_star_sign_data.html" target="_top" xlink:title="[class]">
<polygon fill="none" stroke="black" points="722,-357.5 722,-387.5 880,-387.5 880,-357.5 722,-357.5"/>
<text text-anchor="start" x="730" y="-375.5" font-family="Helvetica,sans-Serif" font-size="10.00">Examples.CloudEngine.Data.</text>
<text text-anchor="middle" x="801" y="-364.5" font-family="Helvetica,sans-Serif" font-size="10.00">StarSignData</text>
</a>
</g>
</g>
<!-- Node5&#45;&gt;Node6 -->
<g id="edge6" class="edge">
<title>Node5&#45;&gt;Node6</title>
<path fill="none" stroke="midnightblue" d="M654.21,-357.05C676.24,-359.39 700.06,-361.91 721.93,-364.23"/>
<polygon fill="midnightblue" stroke="midnightblue" points="654.55,-353.57 644.23,-356 653.81,-360.53 654.55,-353.57"/>
</g>
<!-- Node7 -->
<g id="node8" class="node">
<title>Node7</title>
<g id="a_node8"><a xlink:href="class_examples_1_1_on_premise_engine_1_1_data_1_1_star_sign_data.html" target="_top" xlink:title="[class]">
<polygon fill="none" stroke="black" points="722.5,-308.5 722.5,-338.5 879.5,-338.5 879.5,-308.5 722.5,-308.5"/>
<text text-anchor="start" x="730.5" y="-326.5" font-family="Helvetica,sans-Serif" font-size="10.00">Examples.OnPremiseEngine.</text>
<text text-anchor="middle" x="801" y="-315.5" font-family="Helvetica,sans-Serif" font-size="10.00">Data.StarSignData</text>
</a>
</g>
</g>
<!-- Node5&#45;&gt;Node7 -->
<g id="edge7" class="edge">
<title>Node5&#45;&gt;Node7</title>
<path fill="none" stroke="midnightblue" d="M654.27,-339.59C676.41,-337.14 700.36,-334.5 722.33,-332.07"/>
<polygon fill="midnightblue" stroke="midnightblue" points="653.79,-336.12 644.23,-340.69 654.56,-343.07 653.79,-336.12"/>
</g>
</g>
</svg>
