<?xml version="1.0" encoding="UTF-8" standalone="no"?>
<!DOCTYPE svg PUBLIC "-//W3C//DTD SVG 1.1//EN"
 "http://www.w3.org/Graphics/SVG/1.1/DTD/svg11.dtd">
<!-- Generated by graphviz version 2.43.0 (0)
 -->
<!-- Title: FiftyOne.Pipeline.Engines.FiftyOne.FlowElements.PropertyKeyedEngine&lt; TData, TProfile &gt; Pages: 1 -->
<svg width="1520pt" height="117pt"
 viewBox="0.00 0.00 1520.00 117.00" xmlns="http://www.w3.org/2000/svg" xmlns:xlink="http://www.w3.org/1999/xlink">
<g id="graph0" class="graph" transform="scale(1 1) rotate(0) translate(4 113)">
<title>FiftyOne.Pipeline.Engines.FiftyOne.FlowElements.PropertyKeyedEngine&lt; TData, TProfile &gt;</title>
<!-- Node8 -->
<g id="node1" class="node">
<title>Node8</title>
<g id="a_node1"><a xlink:title="Base class for engines that use an index of property values to profile ids to populate one or more pr...">
<polygon fill="#bfbfbf" stroke="black" points="1338,-8 1338,-49 1512,-49 1512,-8 1338,-8"/>
<text text-anchor="start" x="1346" y="-37" font-family="Helvetica,sans-Serif" font-size="10.00">FiftyOne.Pipeline.Engines.</text>
<text text-anchor="start" x="1346" y="-26" font-family="Helvetica,sans-Serif" font-size="10.00">FiftyOne.FlowElements.Property</text>
<text text-anchor="middle" x="1425" y="-15" font-family="Helvetica,sans-Serif" font-size="10.00">KeyedEngine&lt; TData, TProfile &gt;</text>
</a>
</g>
</g>
<!-- Node9 -->
<g id="node2" class="node">
<title>Node9</title>
<g id="a_node2"><a xlink:href="class_fifty_one_1_1_pipeline_1_1_engines_1_1_flow_elements_1_1_aspect_engine_base.html" target="_top" xlink:title=" ">
<polygon fill="none" stroke="black" points="1049,-50 1049,-91 1211,-91 1211,-50 1049,-50"/>
<text text-anchor="start" x="1057" y="-79" font-family="Helvetica,sans-Serif" font-size="10.00">AspectEngineBase&lt; TData,</text>
<text text-anchor="start" x="1057" y="-68" font-family="Helvetica,sans-Serif" font-size="10.00"> IFiftyOneAspectPropertyMeta</text>
<text text-anchor="middle" x="1130" y="-57" font-family="Helvetica,sans-Serif" font-size="10.00">Data &gt;</text>
</a>
</g>
</g>
<!-- Node9&#45;&gt;Node8 -->
<g id="edge1" class="edge">
<title>Node9&#45;&gt;Node8</title>
<path fill="none" stroke="midnightblue" d="M1221.37,-57.55C1258.47,-52.23 1301.22,-46.1 1337.87,-40.85"/>
<polygon fill="midnightblue" stroke="midnightblue" points="1220.47,-54.14 1211.06,-59.02 1221.46,-61.07 1220.47,-54.14"/>
</g>
<!-- Node10 -->
<g id="node3" class="node">
<title>Node10</title>
<g id="a_node3"><a xlink:href="class_fifty_one_1_1_pipeline_1_1_engines_1_1_flow_elements_1_1_aspect_engine_base.html" target="_top" xlink:title="Base class for 51Degrees aspect engines.">
<polygon fill="none" stroke="black" points="707,-50 707,-91 886,-91 886,-50 707,-50"/>
<text text-anchor="start" x="715" y="-79" font-family="Helvetica,sans-Serif" font-size="10.00">FiftyOne.Pipeline.Engines.</text>
<text text-anchor="start" x="715" y="-68" font-family="Helvetica,sans-Serif" font-size="10.00">FlowElements.AspectEngineBase</text>
<text text-anchor="middle" x="796.5" y="-57" font-family="Helvetica,sans-Serif" font-size="10.00">&lt; T, TMeta &gt;</text>
</a>
</g>
</g>
<!-- Node10&#45;&gt;Node9 -->
<g id="edge2" class="edge">
<title>Node10&#45;&gt;Node9</title>
<path fill="none" stroke="orange" stroke-dasharray="5,2" d="M896.58,-70.5C945.26,-70.5 1003.16,-70.5 1048.99,-70.5"/>
<polygon fill="orange" stroke="orange" points="896.34,-67 886.34,-70.5 896.34,-74 896.34,-67"/>
<text text-anchor="start" x="904" y="-84.5" font-family="Helvetica,sans-Serif" font-size="10.00"> &lt; TData, IFiftyOneAspect</text>
<text text-anchor="middle" x="967.5" y="-73.5" font-family="Helvetica,sans-Serif" font-size="10.00">PropertyMetaData &gt;</text>
</g>
<!-- Node11 -->
<g id="node4" class="node">
<title>Node11</title>
<g id="a_node4"><a xlink:href="class_fifty_one_1_1_pipeline_1_1_core_1_1_flow_elements_1_1_flow_element_base.html" target="_top" xlink:title="Abstract base class for Flow Elements.">
<polygon fill="none" stroke="black" points="532,-78.5 532,-108.5 657,-108.5 657,-78.5 532,-78.5"/>
<text text-anchor="start" x="540" y="-96.5" font-family="Helvetica,sans-Serif" font-size="10.00">FlowElementBase&lt; T,</text>
<text text-anchor="middle" x="594.5" y="-85.5" font-family="Helvetica,sans-Serif" font-size="10.00"> TMeta &gt;</text>
</a>
</g>
</g>
<!-- Node11&#45;&gt;Node10 -->
<g id="edge3" class="edge">
<title>Node11&#45;&gt;Node10</title>
<path fill="none" stroke="midnightblue" d="M667.27,-85.25C680.11,-83.77 693.62,-82.22 706.86,-80.69"/>
<polygon fill="midnightblue" stroke="midnightblue" points="666.67,-81.79 657.14,-86.41 667.47,-88.75 666.67,-81.79"/>
</g>
<!-- Node12 -->
<g id="node5" class="node">
<title>Node12</title>
<g id="a_node5"><a xlink:href="interface_fifty_one_1_1_pipeline_1_1_core_1_1_flow_elements_1_1_i_flow_element.html" target="_top" xlink:title=" ">
<polygon fill="none" stroke="black" points="260.5,-84 260.5,-103 409.5,-103 409.5,-84 260.5,-84"/>
<text text-anchor="middle" x="335" y="-91" font-family="Helvetica,sans-Serif" font-size="10.00">IFlowElement&lt; T, TMeta &gt;</text>
</a>
</g>
</g>
<!-- Node12&#45;&gt;Node11 -->
<g id="edge4" class="edge">
<title>Node12&#45;&gt;Node11</title>
<path fill="none" stroke="midnightblue" d="M419.92,-93.5C456.39,-93.5 498.35,-93.5 531.88,-93.5"/>
<polygon fill="midnightblue" stroke="midnightblue" points="419.79,-90 409.79,-93.5 419.79,-97 419.79,-90"/>
</g>
<!-- Node13 -->
<g id="node6" class="node">
<title>Node13</title>
<g id="a_node6"><a xlink:href="interface_fifty_one_1_1_pipeline_1_1_core_1_1_flow_elements_1_1_i_flow_element.html" target="_top" xlink:title="IFlowElement is the basic building block of a pipeline.">
<polygon fill="none" stroke="black" points="0,-78.5 0,-108.5 151,-108.5 151,-78.5 0,-78.5"/>
<text text-anchor="start" x="8" y="-96.5" font-family="Helvetica,sans-Serif" font-size="10.00">FiftyOne.Pipeline.Core.Flow</text>
<text text-anchor="middle" x="75.5" y="-85.5" font-family="Helvetica,sans-Serif" font-size="10.00">Elements.IFlowElement</text>
</a>
</g>
</g>
<!-- Node13&#45;&gt;Node12 -->
<g id="edge5" class="edge">
<title>Node13&#45;&gt;Node12</title>
<path fill="none" stroke="orange" stroke-dasharray="5,2" d="M161.54,-93.5C193.48,-93.5 229.5,-93.5 260.32,-93.5"/>
<polygon fill="orange" stroke="orange" points="161.33,-90 151.33,-93.5 161.33,-97 161.33,-90"/>
<text text-anchor="middle" x="203.5" y="-96.5" font-family="Helvetica,sans-Serif" font-size="10.00"> &lt; T, TMeta &gt;</text>
</g>
<!-- Node14 -->
<g id="node7" class="node">
<title>Node14</title>
<g id="a_node7"><a xlink:href="interface_fifty_one_1_1_pipeline_1_1_engines_1_1_flow_elements_1_1_i_aspect_engine.html" target="_top" xlink:title=" ">
<polygon fill="none" stroke="black" points="519,-40 519,-59 670,-59 670,-40 519,-40"/>
<text text-anchor="middle" x="594.5" y="-47" font-family="Helvetica,sans-Serif" font-size="10.00">IAspectEngine&lt; T, TMeta &gt;</text>
</a>
</g>
</g>
<!-- Node14&#45;&gt;Node10 -->
<g id="edge6" class="edge">
<title>Node14&#45;&gt;Node10</title>
<path fill="none" stroke="midnightblue" d="M680.38,-58.41C689.07,-59.33 697.93,-60.25 706.67,-61.17"/>
<polygon fill="midnightblue" stroke="midnightblue" points="680.57,-54.91 670.26,-57.35 679.84,-61.87 680.57,-54.91"/>
</g>
<!-- Node15 -->
<g id="node8" class="node">
<title>Node15</title>
<g id="a_node8"><a xlink:href="interface_fifty_one_1_1_pipeline_1_1_engines_1_1_flow_elements_1_1_i_aspect_engine.html" target="_top" xlink:title="Interface representing 51Degrees on&#45;premise aspect engines.">
<polygon fill="none" stroke="black" points="256,-34.5 256,-64.5 414,-64.5 414,-34.5 256,-34.5"/>
<text text-anchor="start" x="264" y="-52.5" font-family="Helvetica,sans-Serif" font-size="10.00">FiftyOne.Pipeline.Engines.</text>
<text text-anchor="middle" x="335" y="-41.5" font-family="Helvetica,sans-Serif" font-size="10.00">FlowElements.IAspectEngine</text>
</a>
</g>
</g>
<!-- Node15&#45;&gt;Node14 -->
<g id="edge7" class="edge">
<title>Node15&#45;&gt;Node14</title>
<path fill="none" stroke="orange" stroke-dasharray="5,2" d="M424.56,-49.5C455.2,-49.5 489.22,-49.5 518.65,-49.5"/>
<polygon fill="orange" stroke="orange" points="424.31,-46 414.31,-49.5 424.31,-53 424.31,-46"/>
<text text-anchor="middle" x="466.5" y="-52.5" font-family="Helvetica,sans-Serif" font-size="10.00"> &lt; T, TMeta &gt;</text>
</g>
<!-- Node16 -->
<g id="node9" class="node">
<title>Node16</title>
<g id="a_node9"><a xlink:href="interface_fifty_one_1_1_pipeline_1_1_core_1_1_data_1_1_i_evidence_key_filter.html" target="_top" xlink:title="Represents an object that filters evidence key names based on some criteria.">
<polygon fill="none" stroke="black" points="1053,-0.5 1053,-30.5 1207,-30.5 1207,-0.5 1053,-0.5"/>
<text text-anchor="start" x="1061" y="-18.5" font-family="Helvetica,sans-Serif" font-size="10.00">FiftyOne.Pipeline.Core.Data.</text>
<text text-anchor="middle" x="1130" y="-7.5" font-family="Helvetica,sans-Serif" font-size="10.00">IEvidenceKeyFilter</text>
</a>
</g>
</g>
<!-- Node16&#45;&gt;Node8 -->
<g id="edge8" class="edge">
<title>Node16&#45;&gt;Node8</title>
<path fill="none" stroke="#9a32cd" stroke-dasharray="5,2" d="M1217.24,-19.33C1255.25,-21.01 1299.81,-22.99 1337.82,-24.68"/>
<polygon fill="#9a32cd" stroke="#9a32cd" points="1217.36,-15.83 1207.22,-18.88 1217.05,-22.82 1217.36,-15.83"/>
<text text-anchor="middle" x="1274.5" y="-27.5" font-family="Helvetica,sans-Serif" font-size="10.00"> EvidenceKeyFilter</text>
</g>
</g>
</svg>
