<?xml version="1.0" encoding="UTF-8" standalone="no"?>
<!DOCTYPE svg PUBLIC "-//W3C//DTD SVG 1.1//EN"
 "http://www.w3.org/Graphics/SVG/1.1/DTD/svg11.dtd">
<!-- Generated by graphviz version 2.43.0 (0)
 -->
<!-- Title: FiftyOne.Pipeline.Core.FailHandling.Recovery.IRecoveryStrategy Pages: 1 -->
<svg width="455pt" height="220pt"
 viewBox="0.00 0.00 455.00 220.00" xmlns="http://www.w3.org/2000/svg" xmlns:xlink="http://www.w3.org/1999/xlink">
<g id="graph0" class="graph" transform="scale(1 1) rotate(0) translate(4 216)">
<title>FiftyOne.Pipeline.Core.FailHandling.Recovery.IRecoveryStrategy</title>
<!-- Node0 -->
<g id="node1" class="node">
<title>Node0</title>
<g id="a_node1"><a xlink:title="Controls when to suspend requests due to recent query failures.">
<polygon fill="#bfbfbf" stroke="black" points="0,-88 0,-118 200,-118 200,-88 0,-88"/>
<text text-anchor="start" x="8" y="-106" font-family="Helvetica,sans-Serif" font-size="10.00">FiftyOne.Pipeline.Core.Fail</text>
<text text-anchor="middle" x="100" y="-95" font-family="Helvetica,sans-Serif" font-size="10.00">Handling.Recovery.IRecoveryStrategy</text>
</a>
</g>
</g>
<!-- Node1 -->
<g id="node2" class="node">
<title>Node1</title>
<g id="a_node2"><a xlink:href="class_fifty_one_1_1_pipeline_1_1_core_1_1_fail_handling_1_1_recovery_1_1_exponential_backoff_recovery_strategy.html" target="_top" xlink:title="Implements exponential backoff where delay doubles after each consecutive failure.">
<polygon fill="none" stroke="black" points="239.5,-170.5 239.5,-211.5 443.5,-211.5 443.5,-170.5 239.5,-170.5"/>
<text text-anchor="start" x="247.5" y="-199.5" font-family="Helvetica,sans-Serif" font-size="10.00">FiftyOne.Pipeline.Core.Fail</text>
<text text-anchor="start" x="247.5" y="-188.5" font-family="Helvetica,sans-Serif" font-size="10.00">Handling.Recovery.ExponentialBackoff</text>
<text text-anchor="middle" x="341.5" y="-177.5" font-family="Helvetica,sans-Serif" font-size="10.00">RecoveryStrategy</text>
</a>
</g>
</g>
<!-- Node0&#45;&gt;Node1 -->
<g id="edge1" class="edge">
<title>Node0&#45;&gt;Node1</title>
<path fill="none" stroke="midnightblue" d="M142.33,-122.37C168.78,-134.36 204.01,-149.59 236,-161 245.24,-164.3 255.04,-167.49 264.79,-170.49"/>
<polygon fill="midnightblue" stroke="midnightblue" points="143.55,-119.08 133,-118.11 140.65,-125.45 143.55,-119.08"/>
</g>
<!-- Node2 -->
<g id="node3" class="node">
<title>Node2</title>
<g id="a_node3"><a xlink:href="class_fifty_one_1_1_pipeline_1_1_core_1_1_fail_handling_1_1_recovery_1_1_instant_recovery_strategy.html" target="_top" xlink:title="Always allows to make new server call regardless of previous failures.">
<polygon fill="none" stroke="black" points="246.5,-110.5 246.5,-151.5 436.5,-151.5 436.5,-110.5 246.5,-110.5"/>
<text text-anchor="start" x="254.5" y="-139.5" font-family="Helvetica,sans-Serif" font-size="10.00">FiftyOne.Pipeline.Core.Fail</text>
<text text-anchor="start" x="254.5" y="-128.5" font-family="Helvetica,sans-Serif" font-size="10.00">Handling.Recovery.InstantRecovery</text>
<text text-anchor="middle" x="341.5" y="-117.5" font-family="Helvetica,sans-Serif" font-size="10.00">Strategy</text>
</a>
</g>
</g>
<!-- Node0&#45;&gt;Node2 -->
<g id="edge2" class="edge">
<title>Node0&#45;&gt;Node2</title>
<path fill="none" stroke="midnightblue" d="M210.25,-115.77C222.33,-117.18 234.56,-118.61 246.43,-120"/>
<polygon fill="midnightblue" stroke="midnightblue" points="210.48,-112.28 200.14,-114.59 209.67,-119.23 210.48,-112.28"/>
</g>
<!-- Node3 -->
<g id="node4" class="node">
<title>Node3</title>
<g id="a_node4"><a xlink:href="class_fifty_one_1_1_pipeline_1_1_core_1_1_fail_handling_1_1_recovery_1_1_no_recovery_strategy.html" target="_top" xlink:title="Drops all server calls after first failure.">
<polygon fill="none" stroke="black" points="236,-61 236,-91 447,-91 447,-61 236,-61"/>
<text text-anchor="start" x="244" y="-79" font-family="Helvetica,sans-Serif" font-size="10.00">FiftyOne.Pipeline.Core.Fail</text>
<text text-anchor="middle" x="341.5" y="-68" font-family="Helvetica,sans-Serif" font-size="10.00">Handling.Recovery.NoRecoveryStrategy</text>
</a>
</g>
</g>
<!-- Node0&#45;&gt;Node3 -->
<g id="edge3" class="edge">
<title>Node0&#45;&gt;Node3</title>
<path fill="none" stroke="midnightblue" d="M210.35,-90.67C218.76,-89.72 227.24,-88.77 235.62,-87.82"/>
<polygon fill="midnightblue" stroke="midnightblue" points="209.69,-87.22 200.14,-91.82 210.47,-94.18 209.69,-87.22"/>
</g>
<!-- Node4 -->
<g id="node5" class="node">
<title>Node4</title>
<g id="a_node5"><a xlink:href="class_fifty_one_1_1_pipeline_1_1_core_1_1_fail_handling_1_1_recovery_1_1_simple_recovery_strategy.html" target="_top" xlink:title="Disallows calling the server for RecoverySeconds.">
<polygon fill="none" stroke="black" points="246.5,-0.5 246.5,-41.5 436.5,-41.5 436.5,-0.5 246.5,-0.5"/>
<text text-anchor="start" x="254.5" y="-29.5" font-family="Helvetica,sans-Serif" font-size="10.00">FiftyOne.Pipeline.Core.Fail</text>
<text text-anchor="start" x="254.5" y="-18.5" font-family="Helvetica,sans-Serif" font-size="10.00">Handling.Recovery.SimpleRecovery</text>
<text text-anchor="middle" x="341.5" y="-7.5" font-family="Helvetica,sans-Serif" font-size="10.00">Strategy</text>
</a>
</g>
</g>
<!-- Node0&#45;&gt;Node4 -->
<g id="edge4" class="edge">
<title>Node0&#45;&gt;Node4</title>
<path fill="none" stroke="midnightblue" d="M148.09,-84.25C173.89,-74.22 206.52,-61.93 236,-52 246.49,-48.47 257.65,-44.93 268.61,-41.58"/>
<polygon fill="midnightblue" stroke="midnightblue" points="146.6,-81.07 138.56,-87.97 149.15,-87.59 146.6,-81.07"/>
</g>
</g>
</svg>
