<?xml version="1.0" encoding="UTF-8" standalone="no"?>
<!DOCTYPE svg PUBLIC "-//W3C//DTD SVG 1.1//EN"
 "http://www.w3.org/Graphics/SVG/1.1/DTD/svg11.dtd">
<!-- Generated by graphviz version 2.43.0 (0)
 -->
<!-- Title: EvidenceKeyFilter Pages: 1 -->
<svg width="467pt" height="82pt"
 viewBox="0.00 0.00 466.50 82.00" xmlns="http://www.w3.org/2000/svg" xmlns:xlink="http://www.w3.org/1999/xlink">
<g id="graph0" class="graph" transform="scale(1 1) rotate(0) translate(4 78)">
<title>EvidenceKeyFilter</title>
<!-- Node1 -->
<g id="Node000001" class="node">
<title>Node1</title>
<g id="a_Node000001"><a xlink:title="An evidence key filter is added to a flowElement It tells the pipeline which evidence it is intereste...">
<polygon fill="#999999" stroke="#666666" points="273.5,-74 169.5,-74 169.5,-55 273.5,-55 273.5,-74"/>
<text text-anchor="middle" x="221.5" y="-62" font-family="Helvetica,sans-Serif" font-size="10.00">EvidenceKeyFilter</text>
</a>
</g>
</g>
<!-- Node2 -->
<g id="Node000002" class="node">
<title>Node2</title>
<g id="a_Node000002"><a xlink:href="class_basic_list_evidence_key_filter.html" target="_top" xlink:title="An instance of evidenceKeyFilter that uses a simple array of keys Evidence not using these keys is fi...">
<polygon fill="white" stroke="#666666" points="147,-19 0,-19 0,0 147,0 147,-19"/>
<text text-anchor="middle" x="73.5" y="-7" font-family="Helvetica,sans-Serif" font-size="10.00">BasicListEvidenceKeyFilter</text>
</a>
</g>
</g>
<!-- Node1&#45;&gt;Node2 -->
<g id="edge1_Node000001_Node000002" class="edge">
<title>Node1&#45;&gt;Node2</title>
<g id="a_edge1_Node000001_Node000002"><a xlink:title=" ">
<path fill="none" stroke="#63b8ff" d="M188.13,-51.55C160.65,-41.71 122.33,-27.98 97.71,-19.17"/>
<polygon fill="#63b8ff" stroke="#63b8ff" points="187.13,-54.91 197.72,-54.98 189.49,-48.32 187.13,-54.91"/>
</a>
</g>
</g>
<!-- Node3 -->
<g id="Node000003" class="node">
<title>Node3</title>
<g id="a_Node000003"><a xlink:href="class_j_s_evidence_key_filter.html" target="_top" xlink:title="An instance of EvidenceKeyFilter which removes all but header and query evidence as that is all that ...">
<polygon fill="white" stroke="#666666" points="278,-19 165,-19 165,0 278,0 278,-19"/>
<text text-anchor="middle" x="221.5" y="-7" font-family="Helvetica,sans-Serif" font-size="10.00">JSEvidenceKeyFilter</text>
</a>
</g>
</g>
<!-- Node1&#45;&gt;Node3 -->
<g id="edge2_Node000001_Node000003" class="edge">
<title>Node1&#45;&gt;Node3</title>
<g id="a_edge2_Node000001_Node000003"><a xlink:title=" ">
<path fill="none" stroke="#63b8ff" d="M221.5,-44.66C221.5,-35.93 221.5,-25.99 221.5,-19.09"/>
<polygon fill="#63b8ff" stroke="#63b8ff" points="218,-44.75 221.5,-54.75 225,-44.75 218,-44.75"/>
</a>
</g>
</g>
<!-- Node4 -->
<g id="Node000004" class="node">
<title>Node4</title>
<g id="a_Node000004"><a xlink:href="class_share_usage_evidence_key_filter.html" target="_top" xlink:title="The ShareUsageEvidenceKeyFilter filters out all evidence not needed by the 51Degrees ShareUsage servi...">
<polygon fill="white" stroke="#666666" points="458.5,-19 296.5,-19 296.5,0 458.5,0 458.5,-19"/>
<text text-anchor="middle" x="377.5" y="-7" font-family="Helvetica,sans-Serif" font-size="10.00">ShareUsageEvidenceKeyFilter</text>
</a>
</g>
</g>
<!-- Node1&#45;&gt;Node4 -->
<g id="edge3_Node000001_Node000004" class="edge">
<title>Node1&#45;&gt;Node4</title>
<g id="a_edge3_Node000001_Node000004"><a xlink:title=" ">
<path fill="none" stroke="#63b8ff" d="M256.32,-51.67C285.41,-41.79 326.2,-27.93 352.24,-19.08"/>
<polygon fill="#63b8ff" stroke="#63b8ff" points="254.91,-48.45 246.56,-54.98 257.16,-55.08 254.91,-48.45"/>
</a>
</g>
</g>
</g>
</svg>
