<?xml version="1.0" encoding="UTF-8" standalone="no"?>
<!DOCTYPE svg PUBLIC "-//W3C//DTD SVG 1.1//EN"
 "http://www.w3.org/Graphics/SVG/1.1/DTD/svg11.dtd">
<!-- Generated by graphviz version 2.43.0 (0)
 -->
<!-- Title: fiftyone.devicedetection.shared.DeviceDataBaseOnPremise Pages: 1 -->
<svg width="1067pt" height="76pt"
 viewBox="0.00 0.00 1067.00 75.50" xmlns="http://www.w3.org/2000/svg" xmlns:xlink="http://www.w3.org/1999/xlink">
<g id="graph0" class="graph" transform="scale(1 1) rotate(0) translate(4 71.5)">
<title>fiftyone.devicedetection.shared.DeviceDataBaseOnPremise</title>
<!-- Node1 -->
<g id="Node000001" class="node">
<title>Node1</title>
<g id="a_Node000001"><a xlink:title="Base class used for all 51Degrees on&#45;premise device detection results classes.">
<polygon fill="#999999" stroke="#666666" points="700,-51 527,-51 527,-21 700,-21 700,-51"/>
<text text-anchor="start" x="535" y="-39" font-family="Helvetica,sans-Serif" font-size="10.00">fiftyone.devicedetection.shared.</text>
<text text-anchor="middle" x="613.5" y="-28" font-family="Helvetica,sans-Serif" font-size="10.00">DeviceDataBaseOnPremise</text>
</a>
</g>
</g>
<!-- Node6 -->
<g id="Node000006" class="node">
<title>Node6</title>
<g id="a_Node000006"><a xlink:href="classfiftyone_1_1devicedetection_1_1hash_1_1engine_1_1onpremise_1_1flowelements_1_1_device_data_hash_default.html" target="_top" xlink:title="Internal implementation of the DeviceDataHash interface.">
<polygon fill="white" stroke="#666666" points="1059,-51 736,-51 736,-21 1059,-21 1059,-51"/>
<text text-anchor="start" x="744" y="-39" font-family="Helvetica,sans-Serif" font-size="10.00">fiftyone.devicedetection.hash.engine.onpremise.flowelements.</text>
<text text-anchor="middle" x="897.5" y="-28" font-family="Helvetica,sans-Serif" font-size="10.00">DeviceDataHashDefault</text>
</a>
</g>
</g>
<!-- Node1&#45;&gt;Node6 -->
<g id="edge5_Node000001_Node000006" class="edge">
<title>Node1&#45;&gt;Node6</title>
<g id="a_edge5_Node000001_Node000006"><a xlink:title=" ">
<path fill="none" stroke="#63b8ff" d="M710.3,-36C718.64,-36 727.21,-36 735.88,-36"/>
<polygon fill="#63b8ff" stroke="#63b8ff" points="710.26,-32.5 700.26,-36 710.26,-39.5 710.26,-32.5"/>
</a>
</g>
</g>
<!-- Node2 -->
<g id="Node000002" class="node">
<title>Node2</title>
<g id="a_Node000002"><a xlink:href="classfiftyone_1_1devicedetection_1_1shared_1_1_device_data_base.html" target="_top" xlink:title=" ">
<polygon fill="white" stroke="#bfbfbf" points="491,-51 318,-51 318,-21 491,-21 491,-51"/>
<text text-anchor="start" x="326" y="-39" font-family="Helvetica,sans-Serif" font-size="10.00">fiftyone.devicedetection.shared.</text>
<text text-anchor="middle" x="404.5" y="-28" font-family="Helvetica,sans-Serif" font-size="10.00">DeviceDataBase</text>
</a>
</g>
</g>
<!-- Node2&#45;&gt;Node1 -->
<g id="edge1_Node000001_Node000002" class="edge">
<title>Node2&#45;&gt;Node1</title>
<g id="a_edge1_Node000001_Node000002"><a xlink:title=" ">
<path fill="none" stroke="#63b8ff" d="M501.2,-36C509.76,-36 518.4,-36 526.88,-36"/>
<polygon fill="#63b8ff" stroke="#63b8ff" points="501.19,-32.5 491.19,-36 501.19,-39.5 501.19,-32.5"/>
</a>
</g>
</g>
<!-- Node3 -->
<g id="Node000003" class="node">
<title>Node3</title>
<g id="a_Node000003"><a xlink:title=" ">
<polygon fill="white" stroke="#bfbfbf" points="244,-67.5 147,-67.5 147,-48.5 244,-48.5 244,-67.5"/>
<text text-anchor="middle" x="195.5" y="-55.5" font-family="Helvetica,sans-Serif" font-size="10.00">AspectDataBase</text>
</a>
</g>
</g>
<!-- Node3&#45;&gt;Node2 -->
<g id="edge2_Node000002_Node000003" class="edge">
<title>Node3&#45;&gt;Node2</title>
<g id="a_edge2_Node000002_Node000003"><a xlink:title=" ">
<path fill="none" stroke="#63b8ff" d="M254.27,-51.86C273.96,-49.77 296.41,-47.38 317.81,-45.11"/>
<polygon fill="#63b8ff" stroke="#63b8ff" points="253.82,-48.39 244.25,-52.93 254.56,-55.35 253.82,-48.39"/>
</a>
</g>
</g>
<!-- Node4 -->
<g id="Node000004" class="node">
<title>Node4</title>
<g id="a_Node000004"><a xlink:href="interfacefiftyone_1_1devicedetection_1_1shared_1_1_device_data.html" target="_top" xlink:title="Interface exposing typed accessors for properties related to a device returned by a device detection ...">
<polygon fill="white" stroke="#666666" points="282,-30 109,-30 109,0 282,0 282,-30"/>
<text text-anchor="start" x="117" y="-18" font-family="Helvetica,sans-Serif" font-size="10.00">fiftyone.devicedetection.shared.</text>
<text text-anchor="middle" x="195.5" y="-7" font-family="Helvetica,sans-Serif" font-size="10.00">DeviceData</text>
</a>
</g>
</g>
<!-- Node4&#45;&gt;Node2 -->
<g id="edge3_Node000002_Node000004" class="edge">
<title>Node4&#45;&gt;Node2</title>
<g id="a_edge3_Node000002_Node000004"><a xlink:title=" ">
<path fill="none" stroke="#63b8ff" d="M292.2,-24.71C300.76,-25.58 309.4,-26.45 317.88,-27.31"/>
<polygon fill="#63b8ff" stroke="#63b8ff" points="292.49,-21.22 282.19,-23.69 291.78,-28.18 292.49,-21.22"/>
</a>
</g>
</g>
<!-- Node5 -->
<g id="Node000005" class="node">
<title>Node5</title>
<g id="a_Node000005"><a xlink:title=" ">
<polygon fill="white" stroke="#bfbfbf" points="73,-24.5 0,-24.5 0,-5.5 73,-5.5 73,-24.5"/>
<text text-anchor="middle" x="36.5" y="-12.5" font-family="Helvetica,sans-Serif" font-size="10.00">AspectData</text>
</a>
</g>
</g>
<!-- Node5&#45;&gt;Node4 -->
<g id="edge4_Node000004_Node000005" class="edge">
<title>Node5&#45;&gt;Node4</title>
<g id="a_edge4_Node000004_Node000005"><a xlink:title=" ">
<path fill="none" stroke="#63b8ff" d="M83.36,-15C91.42,-15 100.04,-15 108.78,-15"/>
<polygon fill="#63b8ff" stroke="#63b8ff" points="83.13,-11.5 73.13,-15 83.13,-18.5 83.13,-11.5"/>
</a>
</g>
</g>
</g>
</svg>
