<?xml version="1.0" encoding="UTF-8" standalone="no"?>
<!DOCTYPE svg PUBLIC "-//W3C//DTD SVG 1.1//EN"
 "http://www.w3.org/Graphics/SVG/1.1/DTD/svg11.dtd">
<!-- Generated by graphviz version 2.43.0 (0)
 -->
<!-- Title: fiftyone.devicedetection.shared.DeviceDataBaseOnPremise Pages: 1 -->
<svg width="296pt" height="225pt"
 viewBox="0.00 0.00 296.00 225.00" xmlns="http://www.w3.org/2000/svg" xmlns:xlink="http://www.w3.org/1999/xlink">
<g id="graph0" class="graph" transform="scale(1 1) rotate(0) translate(4 221)">
<title>fiftyone.devicedetection.shared.DeviceDataBaseOnPremise</title>
<!-- Node1 -->
<g id="Node000001" class="node">
<title>Node1</title>
<g id="a_Node000001"><a xlink:title="Base class used for all 51Degrees on&#45;premise device detection results classes.">
<polygon fill="#999999" stroke="#666666" points="211,-30 38,-30 38,0 211,0 211,-30"/>
<text text-anchor="start" x="46" y="-18" font-family="Helvetica,sans-Serif" font-size="10.00">fiftyone.devicedetection.shared.</text>
<text text-anchor="middle" x="124.5" y="-7" font-family="Helvetica,sans-Serif" font-size="10.00">DeviceDataBaseOnPremise</text>
</a>
</g>
</g>
<!-- Node2 -->
<g id="Node000002" class="node">
<title>Node2</title>
<g id="a_Node000002"><a xlink:href="classfiftyone_1_1devicedetection_1_1shared_1_1_device_data_base.html" target="_top" xlink:title=" ">
<polygon fill="white" stroke="#bfbfbf" points="211,-96 38,-96 38,-66 211,-66 211,-96"/>
<text text-anchor="start" x="46" y="-84" font-family="Helvetica,sans-Serif" font-size="10.00">fiftyone.devicedetection.shared.</text>
<text text-anchor="middle" x="124.5" y="-73" font-family="Helvetica,sans-Serif" font-size="10.00">DeviceDataBase</text>
</a>
</g>
</g>
<!-- Node2&#45;&gt;Node1 -->
<g id="edge1_Node000001_Node000002" class="edge">
<title>Node2&#45;&gt;Node1</title>
<g id="a_edge1_Node000001_Node000002"><a xlink:title=" ">
<path fill="none" stroke="#63b8ff" d="M124.5,-55.54C124.5,-46.96 124.5,-37.61 124.5,-30.16"/>
<polygon fill="#63b8ff" stroke="#63b8ff" points="121,-55.8 124.5,-65.8 128,-55.8 121,-55.8"/>
</a>
</g>
</g>
<!-- Node3 -->
<g id="Node000003" class="node">
<title>Node3</title>
<g id="a_Node000003"><a xlink:title=" ">
<polygon fill="white" stroke="#bfbfbf" points="97,-156.5 0,-156.5 0,-137.5 97,-137.5 97,-156.5"/>
<text text-anchor="middle" x="48.5" y="-144.5" font-family="Helvetica,sans-Serif" font-size="10.00">AspectDataBase</text>
</a>
</g>
</g>
<!-- Node3&#45;&gt;Node2 -->
<g id="edge2_Node000002_Node000003" class="edge">
<title>Node3&#45;&gt;Node2</title>
<g id="a_edge2_Node000002_Node000003"><a xlink:title=" ">
<path fill="none" stroke="#63b8ff" d="M66.65,-130.71C79.13,-120.21 95.57,-106.36 107.74,-96.12"/>
<polygon fill="#63b8ff" stroke="#63b8ff" points="64.14,-128.25 58.75,-137.37 68.65,-133.6 64.14,-128.25"/>
</a>
</g>
</g>
<!-- Node4 -->
<g id="Node000004" class="node">
<title>Node4</title>
<g id="a_Node000004"><a xlink:href="interfacefiftyone_1_1devicedetection_1_1shared_1_1_device_data.html" target="_top" xlink:title="Interface exposing typed accessors for properties related to a device returned by a device detection ...">
<polygon fill="white" stroke="#666666" points="288,-162 115,-162 115,-132 288,-132 288,-162"/>
<text text-anchor="start" x="123" y="-150" font-family="Helvetica,sans-Serif" font-size="10.00">fiftyone.devicedetection.shared.</text>
<text text-anchor="middle" x="201.5" y="-139" font-family="Helvetica,sans-Serif" font-size="10.00">DeviceData</text>
</a>
</g>
</g>
<!-- Node4&#45;&gt;Node2 -->
<g id="edge3_Node000002_Node000004" class="edge">
<title>Node4&#45;&gt;Node2</title>
<g id="a_edge3_Node000002_Node000004"><a xlink:title=" ">
<path fill="none" stroke="#63b8ff" d="M176.48,-125.2C165.05,-115.7 151.8,-104.69 141.54,-96.16"/>
<polygon fill="#63b8ff" stroke="#63b8ff" points="174.48,-128.1 184.41,-131.8 178.96,-122.71 174.48,-128.1"/>
</a>
</g>
</g>
<!-- Node5 -->
<g id="Node000005" class="node">
<title>Node5</title>
<g id="a_Node000005"><a xlink:title=" ">
<polygon fill="white" stroke="#bfbfbf" points="238,-217 165,-217 165,-198 238,-198 238,-217"/>
<text text-anchor="middle" x="201.5" y="-205" font-family="Helvetica,sans-Serif" font-size="10.00">AspectData</text>
</a>
</g>
</g>
<!-- Node5&#45;&gt;Node4 -->
<g id="edge4_Node000004_Node000005" class="edge">
<title>Node5&#45;&gt;Node4</title>
<g id="a_edge4_Node000004_Node000005"><a xlink:title=" ">
<path fill="none" stroke="#63b8ff" d="M201.5,-187.65C201.5,-179.36 201.5,-169.78 201.5,-162.11"/>
<polygon fill="#63b8ff" stroke="#63b8ff" points="198,-187.87 201.5,-197.87 205,-187.87 198,-187.87"/>
</a>
</g>
</g>
</g>
</svg>
