<?xml version="1.0" encoding="UTF-8" standalone="no"?>
<!DOCTYPE svg PUBLIC "-//W3C//DTD SVG 1.1//EN"
 "http://www.w3.org/Graphics/SVG/1.1/DTD/svg11.dtd">
<!-- Generated by graphviz version 2.43.0 (0)
 -->
<!-- Title: fiftyone.devicedetection.cloud.flowelements.DeviceDataCloudInternal Pages: 1 -->
<svg width="789pt" height="86pt"
 viewBox="0.00 0.00 789.00 86.00" xmlns="http://www.w3.org/2000/svg" xmlns:xlink="http://www.w3.org/1999/xlink">
<g id="graph0" class="graph" transform="scale(1 1) rotate(0) translate(4 82)">
<title>fiftyone.devicedetection.cloud.flowelements.DeviceDataCloudInternal</title>
<!-- Node1 -->
<g id="Node000001" class="node">
<title>Node1</title>
<g id="a_Node000001"><a xlink:title="Internal implementation of the DeviceDataCloud interface.">
<polygon fill="#999999" stroke="#666666" points="781,-54 545,-54 545,-24 781,-24 781,-54"/>
<text text-anchor="start" x="553" y="-42" font-family="Helvetica,sans-Serif" font-size="10.00">fiftyone.devicedetection.cloud.flowelements.</text>
<text text-anchor="middle" x="663" y="-31" font-family="Helvetica,sans-Serif" font-size="10.00">DeviceDataCloudInternal</text>
</a>
</g>
</g>
<!-- Node2 -->
<g id="Node000002" class="node">
<title>Node2</title>
<g id="a_Node000002"><a xlink:href="classfiftyone_1_1devicedetection_1_1shared_1_1_device_data_base.html" target="_top" xlink:title=" ">
<polygon fill="white" stroke="#bfbfbf" points="500,-78 327,-78 327,-48 500,-48 500,-78"/>
<text text-anchor="start" x="335" y="-66" font-family="Helvetica,sans-Serif" font-size="10.00">fiftyone.devicedetection.shared.</text>
<text text-anchor="middle" x="413.5" y="-55" font-family="Helvetica,sans-Serif" font-size="10.00">DeviceDataBase</text>
</a>
</g>
</g>
<!-- Node2&#45;&gt;Node1 -->
<g id="edge1_Node000001_Node000002" class="edge">
<title>Node2&#45;&gt;Node1</title>
<g id="a_edge1_Node000001_Node000002"><a xlink:title=" ">
<path fill="none" stroke="#63b8ff" d="M510.26,-53.71C521.51,-52.62 533.09,-51.5 544.6,-50.38"/>
<polygon fill="#63b8ff" stroke="#63b8ff" points="509.64,-50.26 500.02,-54.71 510.31,-57.23 509.64,-50.26"/>
</a>
</g>
</g>
<!-- Node3 -->
<g id="Node000003" class="node">
<title>Node3</title>
<g id="a_Node000003"><a xlink:title=" ">
<polygon fill="white" stroke="#bfbfbf" points="244,-72.5 147,-72.5 147,-53.5 244,-53.5 244,-72.5"/>
<text text-anchor="middle" x="195.5" y="-60.5" font-family="Helvetica,sans-Serif" font-size="10.00">AspectDataBase</text>
</a>
</g>
</g>
<!-- Node3&#45;&gt;Node2 -->
<g id="edge2_Node000002_Node000003" class="edge">
<title>Node3&#45;&gt;Node2</title>
<g id="a_edge2_Node000002_Node000003"><a xlink:title=" ">
<path fill="none" stroke="#63b8ff" d="M254.42,-63C276.61,-63 302.43,-63 326.68,-63"/>
<polygon fill="#63b8ff" stroke="#63b8ff" points="254.17,-59.5 244.17,-63 254.17,-66.5 254.17,-59.5"/>
</a>
</g>
</g>
<!-- Node4 -->
<g id="Node000004" class="node">
<title>Node4</title>
<g id="a_Node000004"><a xlink:href="interfacefiftyone_1_1devicedetection_1_1shared_1_1_device_data.html" target="_top" xlink:title="Interface exposing typed accessors for properties related to a device returned by a device detection ...">
<polygon fill="white" stroke="#666666" points="282,-33 109,-33 109,-3 282,-3 282,-33"/>
<text text-anchor="start" x="117" y="-21" font-family="Helvetica,sans-Serif" font-size="10.00">fiftyone.devicedetection.shared.</text>
<text text-anchor="middle" x="195.5" y="-10" font-family="Helvetica,sans-Serif" font-size="10.00">DeviceData</text>
</a>
</g>
</g>
<!-- Node4&#45;&gt;Node2 -->
<g id="edge3_Node000002_Node000004" class="edge">
<title>Node4&#45;&gt;Node2</title>
<g id="a_edge3_Node000002_Node000004"><a xlink:title=" ">
<path fill="none" stroke="#63b8ff" d="M278.58,-35.1C298.91,-39.33 320.53,-43.84 340.34,-47.97"/>
<polygon fill="#63b8ff" stroke="#63b8ff" points="279.23,-31.66 268.73,-33.05 277.8,-38.51 279.23,-31.66"/>
</a>
</g>
</g>
<!-- Node6 -->
<g id="Node000006" class="node">
<title>Node6</title>
<g id="a_Node000006"><a xlink:href="interfacefiftyone_1_1devicedetection_1_1cloud_1_1data_1_1_device_data_cloud.html" target="_top" xlink:title="Cloud specific interface for DeviceData.">
<polygon fill="white" stroke="#666666" points="509,-30 318,-30 318,0 509,0 509,-30"/>
<text text-anchor="start" x="326" y="-18" font-family="Helvetica,sans-Serif" font-size="10.00">fiftyone.devicedetection.cloud.data.</text>
<text text-anchor="middle" x="413.5" y="-7" font-family="Helvetica,sans-Serif" font-size="10.00">DeviceDataCloud</text>
</a>
</g>
</g>
<!-- Node4&#45;&gt;Node6 -->
<g id="edge6_Node000006_Node000004" class="edge">
<title>Node4&#45;&gt;Node6</title>
<g id="a_edge6_Node000006_Node000004"><a xlink:title=" ">
<path fill="none" stroke="#63b8ff" d="M292.37,-16.67C300.77,-16.55 309.28,-16.43 317.67,-16.32"/>
<polygon fill="#63b8ff" stroke="#63b8ff" points="292.13,-13.17 282.18,-16.81 292.23,-20.17 292.13,-13.17"/>
</a>
</g>
</g>
<!-- Node5 -->
<g id="Node000005" class="node">
<title>Node5</title>
<g id="a_Node000005"><a xlink:title=" ">
<polygon fill="white" stroke="#bfbfbf" points="73,-27.5 0,-27.5 0,-8.5 73,-8.5 73,-27.5"/>
<text text-anchor="middle" x="36.5" y="-15.5" font-family="Helvetica,sans-Serif" font-size="10.00">AspectData</text>
</a>
</g>
</g>
<!-- Node5&#45;&gt;Node4 -->
<g id="edge4_Node000004_Node000005" class="edge">
<title>Node5&#45;&gt;Node4</title>
<g id="a_edge4_Node000004_Node000005"><a xlink:title=" ">
<path fill="none" stroke="#63b8ff" d="M83.36,-18C91.42,-18 100.04,-18 108.78,-18"/>
<polygon fill="#63b8ff" stroke="#63b8ff" points="83.13,-14.5 73.13,-18 83.13,-21.5 83.13,-14.5"/>
</a>
</g>
</g>
<!-- Node6&#45;&gt;Node1 -->
<g id="edge5_Node000001_Node000006" class="edge">
<title>Node6&#45;&gt;Node1</title>
<g id="a_edge5_Node000001_Node000006"><a xlink:title=" ">
<path fill="none" stroke="#63b8ff" d="M519.11,-25.14C527.67,-25.97 536.35,-26.82 544.99,-27.65"/>
<polygon fill="#63b8ff" stroke="#63b8ff" points="519.42,-21.66 509.13,-24.18 518.74,-28.63 519.42,-21.66"/>
</a>
</g>
</g>
</g>
</svg>
