<?xml version="1.0" encoding="UTF-8" standalone="no"?>
<!DOCTYPE svg PUBLIC "-//W3C//DTD SVG 1.1//EN"
 "http://www.w3.org/Graphics/SVG/1.1/DTD/svg11.dtd">
<!-- Generated by graphviz version 2.43.0 (0)
 -->
<!-- Title: fiftyone.devicedetection.cloud.data.MultiDeviceDataCloud Pages: 1 -->
<svg width="264pt" height="104pt"
 viewBox="0.00 0.00 263.50 104.00" xmlns="http://www.w3.org/2000/svg" xmlns:xlink="http://www.w3.org/1999/xlink">
<g id="graph0" class="graph" transform="scale(1 1) rotate(0) translate(4 100)">
<title>fiftyone.devicedetection.cloud.data.MultiDeviceDataCloud</title>
<!-- Node1 -->
<g id="Node000001" class="node">
<title>Node1</title>
<g id="a_Node000001"><a xlink:title="Encapsulates a list of DeviceData instances which can be returned by the 51Degrees cloud service when...">
<polygon fill="#999999" stroke="#666666" points="212,-30 21,-30 21,0 212,0 212,-30"/>
<text text-anchor="start" x="29" y="-18" font-family="Helvetica,sans-Serif" font-size="10.00">fiftyone.devicedetection.cloud.data.</text>
<text text-anchor="middle" x="116.5" y="-7" font-family="Helvetica,sans-Serif" font-size="10.00">MultiDeviceDataCloud</text>
</a>
</g>
</g>
<!-- Node2 -->
<g id="Node000002" class="node">
<title>Node2</title>
<g id="a_Node000002"><a xlink:title=" ">
<polygon fill="white" stroke="#bfbfbf" points="97,-90.5 0,-90.5 0,-71.5 97,-71.5 97,-90.5"/>
<text text-anchor="middle" x="48.5" y="-78.5" font-family="Helvetica,sans-Serif" font-size="10.00">AspectDataBase</text>
</a>
</g>
</g>
<!-- Node2&#45;&gt;Node1 -->
<g id="edge1_Node000001_Node000002" class="edge">
<title>Node2&#45;&gt;Node1</title>
<g id="a_edge1_Node000001_Node000002"><a xlink:title=" ">
<path fill="none" stroke="#63b8ff" d="M65.06,-64.41C76.19,-53.94 90.72,-40.26 101.5,-30.12"/>
<polygon fill="#63b8ff" stroke="#63b8ff" points="62.55,-61.97 57.67,-71.37 67.35,-67.06 62.55,-61.97"/>
</a>
</g>
</g>
<!-- Node3 -->
<g id="Node000003" class="node">
<title>Node3</title>
<g id="a_Node000003"><a xlink:title=" ">
<polygon fill="white" stroke="#bfbfbf" points="255.5,-96 115.5,-96 115.5,-66 255.5,-66 255.5,-96"/>
<text text-anchor="start" x="123.5" y="-84" font-family="Helvetica,sans-Serif" font-size="10.00">MultiProfileData&lt; Device</text>
<text text-anchor="middle" x="185.5" y="-73" font-family="Helvetica,sans-Serif" font-size="10.00">Data &gt;</text>
</a>
</g>
</g>
<!-- Node3&#45;&gt;Node1 -->
<g id="edge2_Node000001_Node000003" class="edge">
<title>Node3&#45;&gt;Node1</title>
<g id="a_edge2_Node000001_Node000003"><a xlink:title=" ">
<path fill="none" stroke="#63b8ff" d="M162.78,-58.92C152.6,-49.49 140.87,-38.61 131.77,-30.16"/>
<polygon fill="#63b8ff" stroke="#63b8ff" points="160.47,-61.56 170.19,-65.8 165.24,-56.43 160.47,-61.56"/>
</a>
</g>
</g>
</g>
</svg>
