<?xml version="1.0" encoding="UTF-8" standalone="no"?>
<!DOCTYPE svg PUBLIC "-//W3C//DTD SVG 1.1//EN"
 "http://www.w3.org/Graphics/SVG/1.1/DTD/svg11.dtd">
<!-- Generated by graphviz version 2.43.0 (0)
 -->
<!-- Title: fiftyone.devicedetection.examples.console.comparison.Detection.Solution Pages: 1 -->
<svg width="745pt" height="182pt"
 viewBox="0.00 0.00 745.00 182.00" xmlns="http://www.w3.org/2000/svg" xmlns:xlink="http://www.w3.org/1999/xlink">
<g id="graph0" class="graph" transform="scale(1 1) rotate(0) translate(4 178)">
<title>fiftyone.devicedetection.examples.console.comparison.Detection.Solution</title>
<!-- Node1 -->
<g id="Node000001" class="node">
<title>Node1</title>
<g id="a_Node000001"><a xlink:title="The thing that actually does the detection.">
<polygon fill="#999999" stroke="#666666" points="412,-102 123,-102 123,-72 412,-72 412,-102"/>
<text text-anchor="start" x="131" y="-90" font-family="Helvetica,sans-Serif" font-size="10.00">fiftyone.devicedetection.examples.console.comparison.</text>
<text text-anchor="middle" x="267.5" y="-79" font-family="Helvetica,sans-Serif" font-size="10.00">Detection.Solution</text>
</a>
</g>
</g>
<!-- Node3 -->
<g id="Node000003" class="node">
<title>Node3</title>
<g id="a_Node000003"><a xlink:href="classfiftyone_1_1devicedetection_1_1examples_1_1console_1_1comparison_1_1_detection_impl_brows_cap_1_1_brows_cap_solution.html" target="_top" xlink:title=" ">
<polygon fill="white" stroke="#bfbfbf" points="737,-174 448,-174 448,-144 737,-144 737,-174"/>
<text text-anchor="start" x="456" y="-162" font-family="Helvetica,sans-Serif" font-size="10.00">fiftyone.devicedetection.examples.console.comparison.</text>
<text text-anchor="middle" x="592.5" y="-151" font-family="Helvetica,sans-Serif" font-size="10.00">DetectionImplBrowsCap.BrowsCapSolution</text>
</a>
</g>
</g>
<!-- Node1&#45;&gt;Node3 -->
<g id="edge2_Node000001_Node000003" class="edge">
<title>Node1&#45;&gt;Node3</title>
<g id="a_edge2_Node000001_Node000003"><a xlink:title=" ">
<path fill="none" stroke="#63b8ff" d="M329.58,-104.89C364.13,-114.61 408.26,-126.38 448,-135 462.81,-138.21 478.56,-141.24 494,-143.98"/>
<polygon fill="#63b8ff" stroke="#63b8ff" points="330.21,-101.43 319.64,-102.07 328.3,-108.16 330.21,-101.43"/>
</a>
</g>
</g>
<!-- Node4 -->
<g id="Node000004" class="node">
<title>Node4</title>
<g id="a_Node000004"><a xlink:href="classfiftyone_1_1devicedetection_1_1examples_1_1console_1_1comparison_1_1_detection_impl_device_atlas_1_1_device_atlas_solution.html" target="_top" xlink:title=" ">
<polygon fill="white" stroke="#bfbfbf" points="737,-126 448,-126 448,-96 737,-96 737,-126"/>
<text text-anchor="start" x="456" y="-114" font-family="Helvetica,sans-Serif" font-size="10.00">fiftyone.devicedetection.examples.console.comparison.</text>
<text text-anchor="middle" x="592.5" y="-103" font-family="Helvetica,sans-Serif" font-size="10.00">DetectionImplDeviceAtlas.DeviceAtlasSolution</text>
</a>
</g>
</g>
<!-- Node1&#45;&gt;Node4 -->
<g id="edge3_Node000001_Node000004" class="edge">
<title>Node1&#45;&gt;Node4</title>
<g id="a_edge3_Node000001_Node000004"><a xlink:title=" ">
<path fill="none" stroke="#63b8ff" d="M422.1,-98.41C430.68,-99.05 439.28,-99.69 447.82,-100.32"/>
<polygon fill="#63b8ff" stroke="#63b8ff" points="422.29,-94.92 412.05,-97.67 421.77,-101.9 422.29,-94.92"/>
</a>
</g>
</g>
<!-- Node5 -->
<g id="Node000005" class="node">
<title>Node5</title>
<g id="a_Node000005"><a xlink:href="classfiftyone_1_1devicedetection_1_1examples_1_1console_1_1comparison_1_1_detection_impl_fifty_oaec7e5673b492c0ca2de7c83bd849836.html" target="_top" xlink:title=" ">
<polygon fill="white" stroke="#bfbfbf" points="737,-78 448,-78 448,-48 737,-48 737,-78"/>
<text text-anchor="start" x="456" y="-66" font-family="Helvetica,sans-Serif" font-size="10.00">fiftyone.devicedetection.examples.console.comparison.</text>
<text text-anchor="middle" x="592.5" y="-55" font-family="Helvetica,sans-Serif" font-size="10.00">DetectionImplFiftyOneDegrees.FiftyOneSolution</text>
</a>
</g>
</g>
<!-- Node1&#45;&gt;Node5 -->
<g id="edge4_Node000001_Node000005" class="edge">
<title>Node1&#45;&gt;Node5</title>
<g id="a_edge4_Node000001_Node000005"><a xlink:title=" ">
<path fill="none" stroke="#63b8ff" d="M422.1,-75.59C430.68,-74.95 439.28,-74.31 447.82,-73.68"/>
<polygon fill="#63b8ff" stroke="#63b8ff" points="421.77,-72.1 412.05,-76.33 422.29,-79.08 421.77,-72.1"/>
</a>
</g>
</g>
<!-- Node6 -->
<g id="Node000006" class="node">
<title>Node6</title>
<g id="a_Node000006"><a xlink:href="classfiftyone_1_1devicedetection_1_1examples_1_1console_1_1comparison_1_1_detection_impl_scientia_mobile_1_1_wurfl_solution.html" target="_top" xlink:title=" ">
<polygon fill="white" stroke="#bfbfbf" points="737,-30 448,-30 448,0 737,0 737,-30"/>
<text text-anchor="start" x="456" y="-18" font-family="Helvetica,sans-Serif" font-size="10.00">fiftyone.devicedetection.examples.console.comparison.</text>
<text text-anchor="middle" x="592.5" y="-7" font-family="Helvetica,sans-Serif" font-size="10.00">DetectionImplScientiaMobile.WurflSolution</text>
</a>
</g>
</g>
<!-- Node1&#45;&gt;Node6 -->
<g id="edge5_Node000001_Node000006" class="edge">
<title>Node1&#45;&gt;Node6</title>
<g id="a_edge5_Node000001_Node000006"><a xlink:title=" ">
<path fill="none" stroke="#63b8ff" d="M329.58,-69.11C364.13,-59.39 408.26,-47.62 448,-39 462.81,-35.79 478.56,-32.76 494,-30.02"/>
<polygon fill="#63b8ff" stroke="#63b8ff" points="328.3,-65.84 319.64,-71.93 330.21,-72.57 328.3,-65.84"/>
</a>
</g>
</g>
<!-- Node2 -->
<g id="Node000002" class="node">
<title>Node2</title>
<g id="a_Node000002"><a xlink:title=" ">
<polygon fill="white" stroke="#bfbfbf" points="87,-96.5 0,-96.5 0,-77.5 87,-77.5 87,-96.5"/>
<text text-anchor="middle" x="43.5" y="-84.5" font-family="Helvetica,sans-Serif" font-size="10.00">AutoCloseable</text>
</a>
</g>
</g>
<!-- Node2&#45;&gt;Node1 -->
<g id="edge1_Node000001_Node000002" class="edge">
<title>Node2&#45;&gt;Node1</title>
<g id="a_edge1_Node000001_Node000002"><a xlink:title=" ">
<path fill="none" stroke="#63b8ff" d="M97.19,-87C105.17,-87 113.72,-87 122.57,-87"/>
<polygon fill="#63b8ff" stroke="#63b8ff" points="97.04,-83.5 87.04,-87 97.04,-90.5 97.04,-83.5"/>
</a>
</g>
</g>
</g>
</svg>
