<?xml version="1.0" encoding="UTF-8" standalone="no"?>
<!DOCTYPE svg PUBLIC "-//W3C//DTD SVG 1.1//EN"
 "http://www.w3.org/Graphics/SVG/1.1/DTD/svg11.dtd">
<!-- Generated by graphviz version 2.43.0 (0)
 -->
<!-- Title: FiftyoneDegrees::Common::Collection&lt; K, V &gt; Pages: 1 -->
<svg width="1093pt" height="351pt"
 viewBox="0.00 0.00 1093.00 350.50" xmlns="http://www.w3.org/2000/svg" xmlns:xlink="http://www.w3.org/1999/xlink">
<g id="graph0" class="graph" transform="scale(1 1) rotate(0) translate(4 346.5)">
<title>FiftyoneDegrees::Common::Collection&lt; K, V &gt;</title>
<!-- Node1 -->
<g id="Node000001" class="node">
<title>Node1</title>
<g id="a_Node000001"><a xlink:title="A group of items accessible by index or key.">
<polygon fill="#999999" stroke="#666666" points="146,-210 0,-210 0,-180 146,-180 146,-210"/>
<text text-anchor="start" x="8" y="-198" font-family="Helvetica,sans-Serif" font-size="10.00">FiftyoneDegrees::Common</text>
<text text-anchor="middle" x="73" y="-187" font-family="Helvetica,sans-Serif" font-size="10.00">::Collection&lt; K, V &gt;</text>
</a>
</g>
</g>
<!-- Node2 -->
<g id="Node000002" class="node">
<title>Node2</title>
<g id="a_Node000002"><a xlink:href="class_fiftyone_degrees_1_1_common_1_1_collection.html" target="_top" xlink:title=" ">
<polygon fill="white" stroke="#666666" points="516,-342.5 349,-342.5 349,-301.5 516,-301.5 516,-342.5"/>
<text text-anchor="start" x="357" y="-330.5" font-family="Helvetica,sans-Serif" font-size="10.00">FiftyoneDegrees::Common</text>
<text text-anchor="start" x="357" y="-319.5" font-family="Helvetica,sans-Serif" font-size="10.00">::Collection&lt; byte, Component</text>
<text text-anchor="middle" x="432.5" y="-308.5" font-family="Helvetica,sans-Serif" font-size="10.00">MetaData &gt;</text>
</a>
</g>
</g>
<!-- Node1&#45;&gt;Node2 -->
<g id="edge1_Node000001_Node000002" class="edge">
<title>Node1&#45;&gt;Node2</title>
<g id="a_edge1_Node000001_Node000002"><a xlink:title=" ">
<path fill="none" stroke="orange" stroke-dasharray="5,2" d="M101.34,-216.37C118.51,-228.89 141.57,-244.13 164,-254 223.43,-280.16 294.89,-297.67 348.99,-308.37"/>
<polygon fill="orange" stroke="orange" points="103.05,-213.28 92.94,-210.12 98.87,-218.89 103.05,-213.28"/>
</a>
</g>
<text text-anchor="start" x="167.5" y="-307.5" font-family="Helvetica,sans-Serif" font-size="10.00" fill="grey">&lt; byte, ComponentMetaData &gt;</text>
</g>
<!-- Node4 -->
<g id="Node000004" class="node">
<title>Node4</title>
<g id="a_Node000004"><a xlink:href="class_fiftyone_degrees_1_1_common_1_1_collection.html" target="_top" xlink:title=" ">
<polygon fill="white" stroke="#666666" points="505.5,-268.5 359.5,-268.5 359.5,-227.5 505.5,-227.5 505.5,-268.5"/>
<text text-anchor="start" x="367.5" y="-256.5" font-family="Helvetica,sans-Serif" font-size="10.00">FiftyoneDegrees::Common</text>
<text text-anchor="start" x="367.5" y="-245.5" font-family="Helvetica,sans-Serif" font-size="10.00">::Collection&lt; uint32_t,</text>
<text text-anchor="middle" x="432.5" y="-234.5" font-family="Helvetica,sans-Serif" font-size="10.00"> ProfileMetaData &gt;</text>
</a>
</g>
</g>
<!-- Node1&#45;&gt;Node4 -->
<g id="edge3_Node000001_Node000004" class="edge">
<title>Node1&#45;&gt;Node4</title>
<g id="a_edge3_Node000001_Node000004"><a xlink:title=" ">
<path fill="none" stroke="orange" stroke-dasharray="5,2" d="M156.29,-208.8C158.89,-209.21 161.47,-209.61 164,-210 230.06,-220.2 305.46,-230.81 359.34,-238.23"/>
<polygon fill="orange" stroke="orange" points="156.61,-205.3 146.19,-207.19 155.51,-212.22 156.61,-205.3"/>
</a>
</g>
<text text-anchor="start" x="170.5" y="-238.5" font-family="Helvetica,sans-Serif" font-size="10.00" fill="grey">&lt; uint32_t, ProfileMetaData &gt;</text>
</g>
<!-- Node6 -->
<g id="Node000006" class="node">
<title>Node6</title>
<g id="a_Node000006"><a xlink:href="class_fiftyone_degrees_1_1_common_1_1_collection.html" target="_top" xlink:title=" ">
<polygon fill="white" stroke="#666666" points="505.5,-193.5 359.5,-193.5 359.5,-152.5 505.5,-152.5 505.5,-193.5"/>
<text text-anchor="start" x="367.5" y="-181.5" font-family="Helvetica,sans-Serif" font-size="10.00">FiftyoneDegrees::Common</text>
<text text-anchor="start" x="367.5" y="-170.5" font-family="Helvetica,sans-Serif" font-size="10.00">::Collection&lt; string,</text>
<text text-anchor="middle" x="432.5" y="-159.5" font-family="Helvetica,sans-Serif" font-size="10.00"> PropertyMetaData &gt;</text>
</a>
</g>
</g>
<!-- Node1&#45;&gt;Node6 -->
<g id="edge5_Node000001_Node000006" class="edge">
<title>Node1&#45;&gt;Node6</title>
<g id="a_edge5_Node000001_Node000006"><a xlink:title=" ">
<path fill="none" stroke="orange" stroke-dasharray="5,2" d="M156.37,-189.93C217.67,-186.16 300.54,-181.06 359.26,-177.45"/>
<polygon fill="orange" stroke="orange" points="156.11,-186.44 146.35,-190.55 156.54,-193.43 156.11,-186.44"/>
</a>
</g>
<text text-anchor="start" x="171.5" y="-194.5" font-family="Helvetica,sans-Serif" font-size="10.00" fill="grey">&lt; string, PropertyMetaData &gt;</text>
</g>
<!-- Node10 -->
<g id="Node000010" class="node">
<title>Node10</title>
<g id="a_Node000010"><a xlink:href="class_fiftyone_degrees_1_1_common_1_1_collection.html" target="_top" xlink:title=" ">
<polygon fill="white" stroke="#666666" points="522,-124.5 343,-124.5 343,-83.5 522,-83.5 522,-124.5"/>
<text text-anchor="start" x="351" y="-112.5" font-family="Helvetica,sans-Serif" font-size="10.00">FiftyoneDegrees::Common</text>
<text text-anchor="start" x="351" y="-101.5" font-family="Helvetica,sans-Serif" font-size="10.00">::Collection&lt; ValueMetaDataKey,</text>
<text text-anchor="middle" x="432.5" y="-90.5" font-family="Helvetica,sans-Serif" font-size="10.00"> ValueMetaData &gt;</text>
</a>
</g>
</g>
<!-- Node1&#45;&gt;Node10 -->
<g id="edge9_Node000001_Node000010" class="edge">
<title>Node1&#45;&gt;Node10</title>
<g id="a_edge9_Node000001_Node000010"><a xlink:title=" ">
<path fill="none" stroke="orange" stroke-dasharray="5,2" d="M104.3,-174.1C121.16,-163.46 142.94,-151.26 164,-144 221.71,-124.1 289.79,-114.1 342.83,-109.07"/>
<polygon fill="orange" stroke="orange" points="101.97,-171.44 95.48,-179.82 105.78,-177.32 101.97,-171.44"/>
</a>
</g>
<text text-anchor="start" x="190.5" y="-165" font-family="Helvetica,sans-Serif" font-size="10.00" fill="grey">&lt; ValueMetaDataKey,</text>
<text text-anchor="start" x="190.5" y="-150" font-family="Helvetica,sans-Serif" font-size="10.00" fill="grey">   ValueMetaData &gt;</text>
</g>
<!-- Node3 -->
<g id="Node000003" class="node">
<title>Node3</title>
<g id="a_Node000003"><a xlink:href="class_fiftyone_degrees_1_1_device_detection_1_1_hash_1_1_component_meta_data_collection_hash.html" target="_top" xlink:title="A collection of component meta data contained in a Hash engine.">
<polygon fill="white" stroke="#666666" points="790,-341 559,-341 559,-311 790,-311 790,-341"/>
<text text-anchor="start" x="567" y="-329" font-family="Helvetica,sans-Serif" font-size="10.00">FiftyoneDegrees::DeviceDetection</text>
<text text-anchor="middle" x="674.5" y="-318" font-family="Helvetica,sans-Serif" font-size="10.00">::Hash::ComponentMetaDataCollectionHash</text>
</a>
</g>
</g>
<!-- Node2&#45;&gt;Node3 -->
<g id="edge2_Node000002_Node000003" class="edge">
<title>Node2&#45;&gt;Node3</title>
<g id="a_edge2_Node000002_Node000003"><a xlink:title=" ">
<path fill="none" stroke="#63b8ff" d="M526.26,-323.55C536.97,-323.72 547.99,-323.91 558.95,-324.09"/>
<polygon fill="#63b8ff" stroke="#63b8ff" points="526.15,-320.04 516.09,-323.38 526.03,-327.04 526.15,-320.04"/>
</a>
</g>
</g>
<!-- Node5 -->
<g id="Node000005" class="node">
<title>Node5</title>
<g id="a_Node000005"><a xlink:href="class_fiftyone_degrees_1_1_device_detection_1_1_hash_1_1_profile_meta_data_collection_hash.html" target="_top" xlink:title="A collection of all profile meta data contained in a Hash engine.">
<polygon fill="white" stroke="#666666" points="777.5,-293 571.5,-293 571.5,-263 777.5,-263 777.5,-293"/>
<text text-anchor="start" x="579.5" y="-281" font-family="Helvetica,sans-Serif" font-size="10.00">FiftyoneDegrees::DeviceDetection</text>
<text text-anchor="middle" x="674.5" y="-270" font-family="Helvetica,sans-Serif" font-size="10.00">::Hash::ProfileMetaDataCollectionHash</text>
</a>
</g>
</g>
<!-- Node4&#45;&gt;Node5 -->
<g id="edge4_Node000004_Node000005" class="edge">
<title>Node4&#45;&gt;Node5</title>
<g id="a_edge4_Node000004_Node000005"><a xlink:title=" ">
<path fill="none" stroke="#63b8ff" d="M515.62,-258.27C533.56,-260.51 552.76,-262.91 571.38,-265.23"/>
<polygon fill="#63b8ff" stroke="#63b8ff" points="515.86,-254.77 505.51,-257 515,-261.71 515.86,-254.77"/>
</a>
</g>
</g>
<!-- Node7 -->
<g id="Node000007" class="node">
<title>Node7</title>
<g id="a_Node000007"><a xlink:href="class_fiftyone_degrees_1_1_device_detection_1_1_hash_1_1_property_meta_data_collection_for_component_hash.html" target="_top" xlink:title="A collection of property meta data relating to a component contained in a Hash engine.">
<polygon fill="white" stroke="#666666" points="777.5,-244.5 571.5,-244.5 571.5,-203.5 777.5,-203.5 777.5,-244.5"/>
<text text-anchor="start" x="579.5" y="-232.5" font-family="Helvetica,sans-Serif" font-size="10.00">FiftyoneDegrees::DeviceDetection</text>
<text text-anchor="start" x="579.5" y="-221.5" font-family="Helvetica,sans-Serif" font-size="10.00">::Hash::PropertyMetaDataCollectionFor</text>
<text text-anchor="middle" x="674.5" y="-210.5" font-family="Helvetica,sans-Serif" font-size="10.00">ComponentHash</text>
</a>
</g>
</g>
<!-- Node6&#45;&gt;Node7 -->
<g id="edge6_Node000006_Node000007" class="edge">
<title>Node6&#45;&gt;Node7</title>
<g id="a_edge6_Node000006_Node000007"><a xlink:title=" ">
<path fill="none" stroke="#63b8ff" d="M515.36,-190.4C535.09,-194.59 556.34,-199.1 576.68,-203.43"/>
<polygon fill="#63b8ff" stroke="#63b8ff" points="516.02,-186.96 505.51,-188.3 514.56,-193.8 516.02,-186.96"/>
</a>
</g>
</g>
<!-- Node8 -->
<g id="Node000008" class="node">
<title>Node8</title>
<g id="a_Node000008"><a xlink:href="class_fiftyone_degrees_1_1_device_detection_1_1_hash_1_1_property_meta_data_collection_for_property_hash.html" target="_top" xlink:title=" ">
<polygon fill="white" stroke="#bfbfbf" points="777.5,-185.5 571.5,-185.5 571.5,-144.5 777.5,-144.5 777.5,-185.5"/>
<text text-anchor="start" x="579.5" y="-173.5" font-family="Helvetica,sans-Serif" font-size="10.00">FiftyoneDegrees::DeviceDetection</text>
<text text-anchor="start" x="579.5" y="-162.5" font-family="Helvetica,sans-Serif" font-size="10.00">::Hash::PropertyMetaDataCollectionFor</text>
<text text-anchor="middle" x="674.5" y="-151.5" font-family="Helvetica,sans-Serif" font-size="10.00">PropertyHash</text>
</a>
</g>
</g>
<!-- Node6&#45;&gt;Node8 -->
<g id="edge7_Node000006_Node000008" class="edge">
<title>Node6&#45;&gt;Node8</title>
<g id="a_edge7_Node000006_Node000008"><a xlink:title=" ">
<path fill="none" stroke="#63b8ff" d="M515.62,-170.26C533.56,-169.66 552.76,-169.02 571.38,-168.4"/>
<polygon fill="#63b8ff" stroke="#63b8ff" points="515.39,-166.77 505.51,-170.6 515.62,-173.76 515.39,-166.77"/>
</a>
</g>
</g>
<!-- Node9 -->
<g id="Node000009" class="node">
<title>Node9</title>
<g id="a_Node000009"><a xlink:href="class_fiftyone_degrees_1_1_device_detection_1_1_hash_1_1_property_meta_data_collection_hash.html" target="_top" xlink:title="A collection of all property meta data contained in a Hash engine.">
<polygon fill="white" stroke="#666666" points="782.5,-126 566.5,-126 566.5,-96 782.5,-96 782.5,-126"/>
<text text-anchor="start" x="574.5" y="-114" font-family="Helvetica,sans-Serif" font-size="10.00">FiftyoneDegrees::DeviceDetection</text>
<text text-anchor="middle" x="674.5" y="-103" font-family="Helvetica,sans-Serif" font-size="10.00">::Hash::PropertyMetaDataCollectionHash</text>
</a>
</g>
</g>
<!-- Node6&#45;&gt;Node9 -->
<g id="edge8_Node000006_Node000009" class="edge">
<title>Node6&#45;&gt;Node9</title>
<g id="a_edge8_Node000006_Node000009"><a xlink:title=" ">
<path fill="none" stroke="#63b8ff" d="M509.94,-149.51C526.08,-144.82 543.06,-140.09 559,-136 572.5,-132.54 586.98,-129.14 600.93,-126.02"/>
<polygon fill="#63b8ff" stroke="#63b8ff" points="508.63,-146.25 500.01,-152.42 510.59,-152.97 508.63,-146.25"/>
</a>
</g>
</g>
<!-- Node11 -->
<g id="Node000011" class="node">
<title>Node11</title>
<g id="a_Node000011"><a xlink:href="class_fiftyone_degrees_1_1_device_detection_1_1_hash_1_1_value_meta_data_collection_base_hash.html" target="_top" xlink:title="A collection of all value meta data contained in a Hash engine.">
<polygon fill="white" stroke="#666666" points="787.5,-78 561.5,-78 561.5,-48 787.5,-48 787.5,-78"/>
<text text-anchor="start" x="569.5" y="-66" font-family="Helvetica,sans-Serif" font-size="10.00">FiftyoneDegrees::DeviceDetection</text>
<text text-anchor="middle" x="674.5" y="-55" font-family="Helvetica,sans-Serif" font-size="10.00">::Hash::ValueMetaDataCollectionBaseHash</text>
</a>
</g>
</g>
<!-- Node10&#45;&gt;Node11 -->
<g id="edge10_Node000010_Node000011" class="edge">
<title>Node10&#45;&gt;Node11</title>
<g id="a_edge10_Node000010_Node000011"><a xlink:title=" ">
<path fill="none" stroke="#63b8ff" d="M532.47,-87.09C550.08,-84.09 568.31,-80.97 585.58,-78.02"/>
<polygon fill="#63b8ff" stroke="#63b8ff" points="531.45,-83.72 522.19,-88.85 532.63,-90.62 531.45,-83.72"/>
</a>
</g>
</g>
<!-- Node12 -->
<g id="Node000012" class="node">
<title>Node12</title>
<g id="a_Node000012"><a xlink:href="class_fiftyone_degrees_1_1_device_detection_1_1_hash_1_1_value_meta_data_collection_for_profile_hash.html" target="_top" xlink:title="A collection of value meta data relating to a profile contained in a Hash engine.">
<polygon fill="white" stroke="#666666" points="1080,-126 832,-126 832,-96 1080,-96 1080,-126"/>
<text text-anchor="start" x="840" y="-114" font-family="Helvetica,sans-Serif" font-size="10.00">FiftyoneDegrees::DeviceDetection</text>
<text text-anchor="middle" x="956" y="-103" font-family="Helvetica,sans-Serif" font-size="10.00">::Hash::ValueMetaDataCollectionForProfileHash</text>
</a>
</g>
</g>
<!-- Node11&#45;&gt;Node12 -->
<g id="edge11_Node000011_Node000012" class="edge">
<title>Node11&#45;&gt;Node12</title>
<g id="a_edge11_Node000011_Node000012"><a xlink:title=" ">
<path fill="none" stroke="#63b8ff" d="M773.05,-79.75C803.83,-85.04 837.62,-90.84 867.64,-96"/>
<polygon fill="#63b8ff" stroke="#63b8ff" points="773.62,-76.3 763.17,-78.06 772.43,-83.2 773.62,-76.3"/>
</a>
</g>
</g>
<!-- Node13 -->
<g id="Node000013" class="node">
<title>Node13</title>
<g id="a_Node000013"><a xlink:href="class_fiftyone_degrees_1_1_device_detection_1_1_hash_1_1_value_meta_data_collection_for_property_hash.html" target="_top" xlink:title="A collection of value meta data relating to a property contained in a Hash engine.">
<polygon fill="white" stroke="#666666" points="1085,-78 827,-78 827,-48 1085,-48 1085,-78"/>
<text text-anchor="start" x="835" y="-66" font-family="Helvetica,sans-Serif" font-size="10.00">FiftyoneDegrees::DeviceDetection</text>
<text text-anchor="middle" x="956" y="-55" font-family="Helvetica,sans-Serif" font-size="10.00">::Hash::ValueMetaDataCollectionForPropertyHash</text>
</a>
</g>
</g>
<!-- Node11&#45;&gt;Node13 -->
<g id="edge12_Node000011_Node000013" class="edge">
<title>Node11&#45;&gt;Node13</title>
<g id="a_edge12_Node000011_Node000013"><a xlink:title=" ">
<path fill="none" stroke="#63b8ff" d="M797.61,-63C807.3,-63 817.1,-63 826.82,-63"/>
<polygon fill="#63b8ff" stroke="#63b8ff" points="797.57,-59.5 787.57,-63 797.57,-66.5 797.57,-59.5"/>
</a>
</g>
</g>
<!-- Node14 -->
<g id="Node000014" class="node">
<title>Node14</title>
<g id="a_Node000014"><a xlink:href="class_fiftyone_degrees_1_1_device_detection_1_1_hash_1_1_value_meta_data_collection_hash.html" target="_top" xlink:title="A collection of all value meta data contained in a Hash engine.">
<polygon fill="white" stroke="#666666" points="1057,-30 855,-30 855,0 1057,0 1057,-30"/>
<text text-anchor="start" x="863" y="-18" font-family="Helvetica,sans-Serif" font-size="10.00">FiftyoneDegrees::DeviceDetection</text>
<text text-anchor="middle" x="956" y="-7" font-family="Helvetica,sans-Serif" font-size="10.00">::Hash::ValueMetaDataCollectionHash</text>
</a>
</g>
</g>
<!-- Node11&#45;&gt;Node14 -->
<g id="edge13_Node000011_Node000014" class="edge">
<title>Node11&#45;&gt;Node14</title>
<g id="a_edge13_Node000011_Node000014"><a xlink:title=" ">
<path fill="none" stroke="#63b8ff" d="M773.05,-46.25C803.83,-40.96 837.62,-35.16 867.64,-30"/>
<polygon fill="#63b8ff" stroke="#63b8ff" points="772.43,-42.8 763.17,-47.94 773.62,-49.7 772.43,-42.8"/>
</a>
</g>
</g>
</g>
</svg>
