<?xml version="1.0" encoding="UTF-8" standalone="no"?>
<!DOCTYPE svg PUBLIC "-//W3C//DTD SVG 1.1//EN"
 "http://www.w3.org/Graphics/SVG/1.1/DTD/svg11.dtd">
<!-- Generated by graphviz version 2.43.0 (0)
 -->
<!-- Title: FiftyoneDegrees::DeviceDetection::Hash::ValueMetaDataCollectionForPropertyHash Pages: 1 -->
<svg width="266pt" height="281pt"
 viewBox="0.00 0.00 266.00 281.00" xmlns="http://www.w3.org/2000/svg" xmlns:xlink="http://www.w3.org/1999/xlink">
<g id="graph0" class="graph" transform="scale(1 1) rotate(0) translate(4 277)">
<title>FiftyoneDegrees::DeviceDetection::Hash::ValueMetaDataCollectionForPropertyHash</title>
<!-- Node1 -->
<g id="Node000001" class="node">
<title>Node1</title>
<g id="a_Node000001"><a xlink:title="A collection of value meta data relating to a property contained in a Hash engine.">
<polygon fill="#999999" stroke="#666666" points="258,-30 0,-30 0,0 258,0 258,-30"/>
<text text-anchor="start" x="8" y="-18" font-family="Helvetica,sans-Serif" font-size="10.00">FiftyoneDegrees::DeviceDetection</text>
<text text-anchor="middle" x="129" y="-7" font-family="Helvetica,sans-Serif" font-size="10.00">::Hash::ValueMetaDataCollectionForPropertyHash</text>
</a>
</g>
</g>
<!-- Node2 -->
<g id="Node000002" class="node">
<title>Node2</title>
<g id="a_Node000002"><a xlink:href="class_fiftyone_degrees_1_1_device_detection_1_1_hash_1_1_value_meta_data_collection_base_hash.html" target="_top" xlink:title="A collection of all value meta data contained in a Hash engine.">
<polygon fill="white" stroke="#666666" points="242,-97 16,-97 16,-67 242,-67 242,-97"/>
<text text-anchor="start" x="24" y="-85" font-family="Helvetica,sans-Serif" font-size="10.00">FiftyoneDegrees::DeviceDetection</text>
<text text-anchor="middle" x="129" y="-74" font-family="Helvetica,sans-Serif" font-size="10.00">::Hash::ValueMetaDataCollectionBaseHash</text>
</a>
</g>
</g>
<!-- Node2&#45;&gt;Node1 -->
<g id="edge1_Node000001_Node000002" class="edge">
<title>Node2&#45;&gt;Node1</title>
<g id="a_edge1_Node000001_Node000002"><a xlink:title=" ">
<path fill="none" stroke="#63b8ff" d="M129,-56.61C129,-47.65 129,-37.82 129,-30.08"/>
<polygon fill="#63b8ff" stroke="#63b8ff" points="125.5,-56.9 129,-66.9 132.5,-56.9 125.5,-56.9"/>
</a>
</g>
</g>
<!-- Node3 -->
<g id="Node000003" class="node">
<title>Node3</title>
<g id="a_Node000003"><a xlink:href="class_fiftyone_degrees_1_1_common_1_1_collection.html" target="_top" xlink:title=" ">
<polygon fill="white" stroke="#666666" points="218.5,-175 39.5,-175 39.5,-134 218.5,-134 218.5,-175"/>
<text text-anchor="start" x="47.5" y="-163" font-family="Helvetica,sans-Serif" font-size="10.00">FiftyoneDegrees::Common</text>
<text text-anchor="start" x="47.5" y="-152" font-family="Helvetica,sans-Serif" font-size="10.00">::Collection&lt; ValueMetaDataKey,</text>
<text text-anchor="middle" x="129" y="-141" font-family="Helvetica,sans-Serif" font-size="10.00"> ValueMetaData &gt;</text>
</a>
</g>
</g>
<!-- Node3&#45;&gt;Node2 -->
<g id="edge2_Node000002_Node000003" class="edge">
<title>Node3&#45;&gt;Node2</title>
<g id="a_edge2_Node000002_Node000003"><a xlink:title=" ">
<path fill="none" stroke="#63b8ff" d="M129,-123.58C129,-114.51 129,-104.95 129,-97.39"/>
<polygon fill="#63b8ff" stroke="#63b8ff" points="125.5,-123.86 129,-133.86 132.5,-123.86 125.5,-123.86"/>
</a>
</g>
</g>
<!-- Node4 -->
<g id="Node000004" class="node">
<title>Node4</title>
<g id="a_Node000004"><a xlink:href="class_fiftyone_degrees_1_1_common_1_1_collection.html" target="_top" xlink:title="A group of items accessible by index or key.">
<polygon fill="white" stroke="#666666" points="202,-273 56,-273 56,-243 202,-243 202,-273"/>
<text text-anchor="start" x="64" y="-261" font-family="Helvetica,sans-Serif" font-size="10.00">FiftyoneDegrees::Common</text>
<text text-anchor="middle" x="129" y="-250" font-family="Helvetica,sans-Serif" font-size="10.00">::Collection&lt; K, V &gt;</text>
</a>
</g>
</g>
<!-- Node4&#45;&gt;Node3 -->
<g id="edge3_Node000003_Node000004" class="edge">
<title>Node4&#45;&gt;Node3</title>
<g id="a_edge3_Node000003_Node000004"><a xlink:title=" ">
<path fill="none" stroke="orange" stroke-dasharray="5,2" d="M129,-232.78C129,-215.13 129,-191.52 129,-175.06"/>
<polygon fill="orange" stroke="orange" points="125.5,-232.89 129,-242.89 132.5,-232.89 125.5,-232.89"/>
</a>
</g>
<text text-anchor="start" x="132" y="-214" font-family="Helvetica,sans-Serif" font-size="10.00" fill="grey">&lt; ValueMetaDataKey,</text>
<text text-anchor="start" x="132" y="-199" font-family="Helvetica,sans-Serif" font-size="10.00" fill="grey">   ValueMetaData &gt;</text>
</g>
</g>
</svg>
