<?xml version="1.0" encoding="UTF-8" standalone="no"?>
<!DOCTYPE svg PUBLIC "-//W3C//DTD SVG 1.1//EN"
 "http://www.w3.org/Graphics/SVG/1.1/DTD/svg11.dtd">
<!-- Generated by graphviz version 2.43.0 (0)
 -->
<!-- Title: FiftyoneDegrees::Examples::Hash::ExampleBase Pages: 1 -->
<svg width="346pt" height="278pt"
 viewBox="0.00 0.00 346.00 278.00" xmlns="http://www.w3.org/2000/svg" xmlns:xlink="http://www.w3.org/1999/xlink">
<g id="graph0" class="graph" transform="scale(1 1) rotate(0) translate(4 274)">
<title>FiftyoneDegrees::Examples::Hash::ExampleBase</title>
<!-- Node1 -->
<g id="Node000001" class="node">
<title>Node1</title>
<g id="a_Node000001"><a xlink:title="Base class extended by all Hash examples.">
<polygon fill="#999999" stroke="#666666" points="150,-150 0,-150 0,-120 150,-120 150,-150"/>
<text text-anchor="start" x="8" y="-138" font-family="Helvetica,sans-Serif" font-size="10.00">FiftyoneDegrees::Examples</text>
<text text-anchor="middle" x="75" y="-127" font-family="Helvetica,sans-Serif" font-size="10.00">::Hash::ExampleBase</text>
</a>
</g>
</g>
<!-- Node2 -->
<g id="Node000002" class="node">
<title>Node2</title>
<g id="a_Node000002"><a xlink:href="class_fiftyone_degrees_1_1_examples_1_1_hash_1_1_getting_started.html" target="_top" xlink:title="Hash Getting Started Example.">
<polygon fill="white" stroke="#666666" points="337,-270 187,-270 187,-240 337,-240 337,-270"/>
<text text-anchor="start" x="195" y="-258" font-family="Helvetica,sans-Serif" font-size="10.00">FiftyoneDegrees::Examples</text>
<text text-anchor="middle" x="262" y="-247" font-family="Helvetica,sans-Serif" font-size="10.00">::Hash::GettingStarted</text>
</a>
</g>
</g>
<!-- Node1&#45;&gt;Node2 -->
<g id="edge1_Node000001_Node000002" class="edge">
<title>Node1&#45;&gt;Node2</title>
<g id="a_edge1_Node000001_Node000002"><a xlink:title=" ">
<path fill="none" stroke="#63b8ff" d="M96.47,-157.57C117.17,-179.15 151,-211.26 186,-231 191.95,-234.36 198.44,-237.32 205.03,-239.91"/>
<polygon fill="#63b8ff" stroke="#63b8ff" points="98.87,-155.01 89.47,-150.13 93.78,-159.81 98.87,-155.01"/>
</a>
</g>
</g>
<!-- Node3 -->
<g id="Node000003" class="node">
<title>Node3</title>
<g id="a_Node000003"><a xlink:href="class_fiftyone_degrees_1_1_examples_1_1_hash_1_1_match_metrics.html" target="_top" xlink:title="Match Metrics Hash Example.">
<polygon fill="white" stroke="#666666" points="337,-222 187,-222 187,-192 337,-192 337,-222"/>
<text text-anchor="start" x="195" y="-210" font-family="Helvetica,sans-Serif" font-size="10.00">FiftyoneDegrees::Examples</text>
<text text-anchor="middle" x="262" y="-199" font-family="Helvetica,sans-Serif" font-size="10.00">::Hash::MatchMetrics</text>
</a>
</g>
</g>
<!-- Node1&#45;&gt;Node3 -->
<g id="edge2_Node000001_Node000003" class="edge">
<title>Node1&#45;&gt;Node3</title>
<g id="a_edge2_Node000001_Node000003"><a xlink:title=" ">
<path fill="none" stroke="#63b8ff" d="M117.69,-154.38C138.08,-163.56 163.11,-174.37 186,-183 194.19,-186.09 202.97,-189.13 211.53,-191.96"/>
<polygon fill="#63b8ff" stroke="#63b8ff" points="118.93,-151.1 108.37,-150.16 116.04,-157.48 118.93,-151.1"/>
</a>
</g>
</g>
<!-- Node4 -->
<g id="Node000004" class="node">
<title>Node4</title>
<g id="a_Node000004"><a xlink:href="class_fiftyone_degrees_1_1_examples_1_1_hash_1_1_meta_data_example.html" target="_top" xlink:title="Hash Meta Data Example.">
<polygon fill="white" stroke="#666666" points="337,-174 187,-174 187,-144 337,-144 337,-174"/>
<text text-anchor="start" x="195" y="-162" font-family="Helvetica,sans-Serif" font-size="10.00">FiftyoneDegrees::Examples</text>
<text text-anchor="middle" x="262" y="-151" font-family="Helvetica,sans-Serif" font-size="10.00">::Hash::MetaDataExample</text>
</a>
</g>
</g>
<!-- Node1&#45;&gt;Node4 -->
<g id="edge3_Node000001_Node000004" class="edge">
<title>Node1&#45;&gt;Node4</title>
<g id="a_edge3_Node000001_Node000004"><a xlink:title=" ">
<path fill="none" stroke="#63b8ff" d="M160.16,-145.92C169.04,-147.07 178.04,-148.24 186.8,-149.37"/>
<polygon fill="#63b8ff" stroke="#63b8ff" points="160.55,-142.44 150.18,-144.62 159.65,-149.38 160.55,-142.44"/>
</a>
</g>
</g>
<!-- Node5 -->
<g id="Node000005" class="node">
<title>Node5</title>
<g id="a_Node000005"><a xlink:href="class_fiftyone_degrees_1_1_examples_1_1_hash_1_1_reload_from_file.html" target="_top" xlink:title="Hash Reload From File Example.">
<polygon fill="white" stroke="#666666" points="337,-126 187,-126 187,-96 337,-96 337,-126"/>
<text text-anchor="start" x="195" y="-114" font-family="Helvetica,sans-Serif" font-size="10.00">FiftyoneDegrees::Examples</text>
<text text-anchor="middle" x="262" y="-103" font-family="Helvetica,sans-Serif" font-size="10.00">::Hash::ReloadFromFile</text>
</a>
</g>
</g>
<!-- Node1&#45;&gt;Node5 -->
<g id="edge4_Node000001_Node000005" class="edge">
<title>Node1&#45;&gt;Node5</title>
<g id="a_edge4_Node000001_Node000005"><a xlink:title=" ">
<path fill="none" stroke="#63b8ff" d="M160.16,-124.08C169.04,-122.93 178.04,-121.76 186.8,-120.63"/>
<polygon fill="#63b8ff" stroke="#63b8ff" points="159.65,-120.62 150.18,-125.38 160.55,-127.56 159.65,-120.62"/>
</a>
</g>
</g>
<!-- Node6 -->
<g id="Node000006" class="node">
<title>Node6</title>
<g id="a_Node000006"><a xlink:href="class_fiftyone_degrees_1_1_examples_1_1_hash_1_1_reload_from_memory.html" target="_top" xlink:title="Hash Reload From Memory Example.">
<polygon fill="white" stroke="#666666" points="338,-78 186,-78 186,-48 338,-48 338,-78"/>
<text text-anchor="start" x="194" y="-66" font-family="Helvetica,sans-Serif" font-size="10.00">FiftyoneDegrees::Examples</text>
<text text-anchor="middle" x="262" y="-55" font-family="Helvetica,sans-Serif" font-size="10.00">::Hash::ReloadFromMemory</text>
</a>
</g>
</g>
<!-- Node1&#45;&gt;Node6 -->
<g id="edge5_Node000001_Node000006" class="edge">
<title>Node1&#45;&gt;Node6</title>
<g id="a_edge5_Node000001_Node000006"><a xlink:title=" ">
<path fill="none" stroke="#63b8ff" d="M117.69,-115.62C138.08,-106.44 163.11,-95.63 186,-87 194.19,-83.91 202.97,-80.87 211.53,-78.04"/>
<polygon fill="#63b8ff" stroke="#63b8ff" points="116.04,-112.52 108.37,-119.84 118.93,-118.9 116.04,-112.52"/>
</a>
</g>
</g>
<!-- Node7 -->
<g id="Node000007" class="node">
<title>Node7</title>
<g id="a_Node000007"><a xlink:href="class_fiftyone_degrees_1_1_examples_1_1_hash_1_1_strongly_typed.html" target="_top" xlink:title="Hash Strongly Typed Example.">
<polygon fill="white" stroke="#666666" points="337,-30 187,-30 187,0 337,0 337,-30"/>
<text text-anchor="start" x="195" y="-18" font-family="Helvetica,sans-Serif" font-size="10.00">FiftyoneDegrees::Examples</text>
<text text-anchor="middle" x="262" y="-7" font-family="Helvetica,sans-Serif" font-size="10.00">::Hash::StronglyTyped</text>
</a>
</g>
</g>
<!-- Node1&#45;&gt;Node7 -->
<g id="edge6_Node000001_Node000007" class="edge">
<title>Node1&#45;&gt;Node7</title>
<g id="a_edge6_Node000001_Node000007"><a xlink:title=" ">
<path fill="none" stroke="#63b8ff" d="M96.47,-112.43C117.17,-90.85 151,-58.74 186,-39 191.95,-35.64 198.44,-32.68 205.03,-30.09"/>
<polygon fill="#63b8ff" stroke="#63b8ff" points="93.78,-110.19 89.47,-119.87 98.87,-114.99 93.78,-110.19"/>
</a>
</g>
</g>
</g>
</svg>
