<?xml version="1.0" encoding="UTF-8" standalone="no"?>
<!DOCTYPE svg PUBLIC "-//W3C//DTD SVG 1.1//EN"
 "http://www.w3.org/Graphics/SVG/1.1/DTD/svg11.dtd">
<!-- Generated by graphviz version 2.43.0 (0)
 -->
<!-- Title: FiftyoneDegrees::DeviceDetection::Hash::PropertyMetaDataCollectionHash Pages: 1 -->
<svg width="268pt" height="199pt"
 viewBox="0.00 0.00 268.00 199.00" xmlns="http://www.w3.org/2000/svg" xmlns:xlink="http://www.w3.org/1999/xlink">
<g id="graph0" class="graph" transform="scale(1 1) rotate(0) translate(4 195)">
<title>FiftyoneDegrees::DeviceDetection::Hash::PropertyMetaDataCollectionHash</title>
<!-- Node1 -->
<g id="Node000001" class="node">
<title>Node1</title>
<g id="a_Node000001"><a xlink:title="A collection of all property meta data contained in a Hash engine.">
<polygon fill="#999999" stroke="#666666" points="216,-30 0,-30 0,0 216,0 216,-30"/>
<text text-anchor="start" x="8" y="-18" font-family="Helvetica,sans-Serif" font-size="10.00">FiftyoneDegrees::DeviceDetection</text>
<text text-anchor="middle" x="108" y="-7" font-family="Helvetica,sans-Serif" font-size="10.00">::Hash::PropertyMetaDataCollectionHash</text>
</a>
</g>
</g>
<!-- Node2 -->
<g id="Node000002" class="node">
<title>Node2</title>
<g id="a_Node000002"><a xlink:href="class_fiftyone_degrees_1_1_common_1_1_collection.html" target="_top" xlink:title=" ">
<polygon fill="white" stroke="#666666" points="181,-108 35,-108 35,-67 181,-67 181,-108"/>
<text text-anchor="start" x="43" y="-96" font-family="Helvetica,sans-Serif" font-size="10.00">FiftyoneDegrees::Common</text>
<text text-anchor="start" x="43" y="-85" font-family="Helvetica,sans-Serif" font-size="10.00">::Collection&lt; string,</text>
<text text-anchor="middle" x="108" y="-74" font-family="Helvetica,sans-Serif" font-size="10.00"> PropertyMetaData &gt;</text>
</a>
</g>
</g>
<!-- Node2&#45;&gt;Node1 -->
<g id="edge1_Node000001_Node000002" class="edge">
<title>Node2&#45;&gt;Node1</title>
<g id="a_edge1_Node000001_Node000002"><a xlink:title=" ">
<path fill="none" stroke="#63b8ff" d="M108,-56.58C108,-47.51 108,-37.95 108,-30.39"/>
<polygon fill="#63b8ff" stroke="#63b8ff" points="104.5,-56.86 108,-66.86 111.5,-56.86 104.5,-56.86"/>
</a>
</g>
</g>
<!-- Node3 -->
<g id="Node000003" class="node">
<title>Node3</title>
<g id="a_Node000003"><a xlink:href="class_fiftyone_degrees_1_1_common_1_1_collection.html" target="_top" xlink:title="A group of items accessible by index or key.">
<polygon fill="white" stroke="#666666" points="181,-191 35,-191 35,-161 181,-161 181,-191"/>
<text text-anchor="start" x="43" y="-179" font-family="Helvetica,sans-Serif" font-size="10.00">FiftyoneDegrees::Common</text>
<text text-anchor="middle" x="108" y="-168" font-family="Helvetica,sans-Serif" font-size="10.00">::Collection&lt; K, V &gt;</text>
</a>
</g>
</g>
<!-- Node3&#45;&gt;Node2 -->
<g id="edge2_Node000002_Node000003" class="edge">
<title>Node3&#45;&gt;Node2</title>
<g id="a_edge2_Node000002_Node000003"><a xlink:title=" ">
<path fill="none" stroke="orange" stroke-dasharray="5,2" d="M108,-150.36C108,-137.03 108,-120.8 108,-108.31"/>
<polygon fill="orange" stroke="orange" points="104.5,-150.72 108,-160.72 111.5,-150.72 104.5,-150.72"/>
</a>
</g>
<text text-anchor="start" x="111" y="-131.5" font-family="Helvetica,sans-Serif" font-size="10.00" fill="grey">&lt; string, PropertyMetaData &gt;</text>
</g>
</g>
</svg>
