<?xml version="1.0" encoding="UTF-8" standalone="no"?>
<!DOCTYPE svg PUBLIC "-//W3C//DTD SVG 1.1//EN"
 "http://www.w3.org/Graphics/SVG/1.1/DTD/svg11.dtd">
<!-- Generated by graphviz version 2.43.0 (0)
 -->
<!-- Title: FiftyoneDegrees::DeviceDetection::EvidenceDeviceDetection Pages: 1 -->
<svg width="191pt" height="159pt"
 viewBox="0.00 0.00 191.00 159.00" xmlns="http://www.w3.org/2000/svg" xmlns:xlink="http://www.w3.org/1999/xlink">
<g id="graph0" class="graph" transform="scale(1 1) rotate(0) translate(4 155)">
<title>FiftyoneDegrees::DeviceDetection::EvidenceDeviceDetection</title>
<!-- Node1 -->
<g id="Node000001" class="node">
<title>Node1</title>
<g id="a_Node000001"><a xlink:title="Device detection specific evidence class containing evidence to be processed by a device detection en...">
<polygon fill="#999999" stroke="#666666" points="183,-30 0,-30 0,0 183,0 183,-30"/>
<text text-anchor="start" x="8" y="-18" font-family="Helvetica,sans-Serif" font-size="10.00">FiftyoneDegrees::DeviceDetection</text>
<text text-anchor="middle" x="91.5" y="-7" font-family="Helvetica,sans-Serif" font-size="10.00">::EvidenceDeviceDetection</text>
</a>
</g>
</g>
<!-- Node2 -->
<g id="Node000002" class="node">
<title>Node2</title>
<g id="a_Node000002"><a xlink:href="class_fiftyone_degrees_1_1_common_1_1_evidence_base.html" target="_top" xlink:title="Base evidence class containing evidence to be processed by an engine.">
<polygon fill="white" stroke="#666666" points="164.5,-96 18.5,-96 18.5,-66 164.5,-66 164.5,-96"/>
<text text-anchor="start" x="26.5" y="-84" font-family="Helvetica,sans-Serif" font-size="10.00">FiftyoneDegrees::Common</text>
<text text-anchor="middle" x="91.5" y="-73" font-family="Helvetica,sans-Serif" font-size="10.00">::EvidenceBase</text>
</a>
</g>
</g>
<!-- Node2&#45;&gt;Node1 -->
<g id="edge1_Node000001_Node000002" class="edge">
<title>Node2&#45;&gt;Node1</title>
<g id="a_edge1_Node000001_Node000002"><a xlink:title=" ">
<path fill="none" stroke="#63b8ff" d="M91.5,-55.54C91.5,-46.96 91.5,-37.61 91.5,-30.16"/>
<polygon fill="#63b8ff" stroke="#63b8ff" points="88,-55.8 91.5,-65.8 95,-55.8 88,-55.8"/>
</a>
</g>
</g>
<!-- Node3 -->
<g id="Node000003" class="node">
<title>Node3</title>
<g id="a_Node000003"><a xlink:title=" ">
<polygon fill="white" stroke="#bfbfbf" points="152.5,-151 30.5,-151 30.5,-132 152.5,-132 152.5,-151"/>
<text text-anchor="middle" x="91.5" y="-139" font-family="Helvetica,sans-Serif" font-size="10.00">map&lt; string, string &gt;</text>
</a>
</g>
</g>
<!-- Node3&#45;&gt;Node2 -->
<g id="edge2_Node000002_Node000003" class="edge">
<title>Node3&#45;&gt;Node2</title>
<g id="a_edge2_Node000002_Node000003"><a xlink:title=" ">
<path fill="none" stroke="#63b8ff" d="M91.5,-121.65C91.5,-113.36 91.5,-103.78 91.5,-96.11"/>
<polygon fill="#63b8ff" stroke="#63b8ff" points="88,-121.87 91.5,-131.87 95,-121.87 88,-121.87"/>
</a>
</g>
</g>
</g>
</svg>
