<?xml version="1.0" encoding="UTF-8" standalone="no"?>
<!DOCTYPE svg PUBLIC "-//W3C//DTD SVG 1.1//EN"
 "http://www.w3.org/Graphics/SVG/1.1/DTD/svg11.dtd">
<!-- Generated by graphviz version 2.43.0 (0)
 -->
<!-- Title: Device Detection Pages: 1 -->
<svg width="300pt" height="175pt"
 viewBox="0.00 0.00 300.00 175.00" xmlns="http://www.w3.org/2000/svg" xmlns:xlink="http://www.w3.org/1999/xlink">
<g id="graph0" class="graph" transform="scale(1 1) rotate(0) translate(4 171)">
<title>Device Detection</title>
<!-- Node3 -->
<g id="Node000003" class="node">
<title>Node3</title>
<g id="a_Node000003"><a xlink:href="group___fifty_one_degrees_config_device_detection.html" target="_top" xlink:title="Configuration for building device detection data sets.">
<polygon fill="white" stroke="#666666" points="281.5,-167 147.5,-167 147.5,-148 281.5,-148 281.5,-167"/>
<text text-anchor="middle" x="214.5" y="-155" font-family="Helvetica,sans-Serif" font-size="10.00">Device Detection Config</text>
</a>
</g>
</g>
<!-- Node4 -->
<g id="Node000004" class="node">
<title>Node4</title>
<g id="a_Node000004"><a xlink:href="group___fifty_one_degrees_data_set_device_detection.html" target="_top" xlink:title="A device detection specific data file initialised in a structure.">
<polygon fill="white" stroke="#666666" points="287.5,-130 141.5,-130 141.5,-111 287.5,-111 287.5,-130"/>
<text text-anchor="middle" x="214.5" y="-118" font-family="Helvetica,sans-Serif" font-size="10.00">Device Detection Data Set</text>
</a>
</g>
</g>
<!-- Node1 -->
<g id="Node000001" class="node">
<title>Node1</title>
<g id="a_Node000001"><a xlink:title="Device detection specific methods, types and macros.">
<polygon fill="#999999" stroke="#666666" points="101,-93 0,-93 0,-74 101,-74 101,-93"/>
<text text-anchor="middle" x="50.5" y="-81" font-family="Helvetica,sans-Serif" font-size="10.00">Device Detection</text>
</a>
</g>
</g>
<!-- Node1&#45;&gt;Node3 -->
<g id="edge2" class="edge">
<title>Node1&#45;&gt;Node3</title>
<path fill="none" stroke="black" d="M71.54,-99.55C88.18,-112.12 112.92,-129.17 137,-139.5 144.77,-142.84 153.27,-145.61 161.68,-147.9"/>
<polygon fill="black" stroke="black" points="73.24,-96.44 63.19,-93.09 68.96,-101.98 73.24,-96.44"/>
</g>
<!-- Node1&#45;&gt;Node4 -->
<g id="edge3" class="edge">
<title>Node1&#45;&gt;Node4</title>
<path fill="none" stroke="black" d="M103.11,-95.29C125.23,-100.34 150.73,-106.16 171.64,-110.94"/>
<polygon fill="black" stroke="black" points="103.75,-91.84 93.22,-93.03 102.19,-98.67 103.75,-91.84"/>
</g>
<!-- Node6 -->
<g id="Node000006" class="node">
<title>Node6</title>
<g id="a_Node000006"><a xlink:href="group___fifty_one_degrees_device_detection_results.html" target="_top" xlink:title="Structure returned by a device detection engine&#39;s process method(s), containing values.">
<polygon fill="white" stroke="#666666" points="284.5,-93 144.5,-93 144.5,-74 284.5,-74 284.5,-93"/>
<text text-anchor="middle" x="214.5" y="-81" font-family="Helvetica,sans-Serif" font-size="10.00">Device Detection Results</text>
</a>
</g>
</g>
<!-- Node1&#45;&gt;Node6 -->
<g id="edge5" class="edge">
<title>Node1&#45;&gt;Node6</title>
<path fill="none" stroke="black" d="M111.5,-83.5C122.21,-83.5 133.44,-83.5 144.38,-83.5"/>
<polygon fill="black" stroke="black" points="111.43,-80 101.43,-83.5 111.43,-87 111.43,-80"/>
</g>
<!-- Node5 -->
<g id="Node000005" class="node">
<title>Node5</title>
<g id="a_Node000005"><a xlink:href="group___fifty_one_degrees_device_detection_synonyms.html" target="_top" xlink:title="Quick shortenings of device detection specific methods and types.">
<polygon fill="white" stroke="#666666" points="292,-56 137,-56 137,-37 292,-37 292,-56"/>
<text text-anchor="middle" x="214.5" y="-44" font-family="Helvetica,sans-Serif" font-size="10.00">Device Detection Synonyms</text>
</a>
</g>
</g>
<!-- Node1&#45;&gt;Node5 -->
<g id="edge4" class="edge">
<title>Node1&#45;&gt;Node5</title>
<path fill="none" stroke="black" d="M103.11,-71.71C125.23,-66.66 150.73,-60.84 171.64,-56.06"/>
<polygon fill="black" stroke="black" points="102.19,-68.33 93.22,-73.97 103.75,-75.16 102.19,-68.33"/>
</g>
<!-- Node2 -->
<g id="Node000002" class="node">
<title>Node2</title>
<g id="a_Node000002"><a xlink:href="group___fifty_one_degrees_hash.html" target="_top" xlink:title="Hash specific methods, types and macros.">
<polygon fill="white" stroke="#666666" points="244.5,-19 184.5,-19 184.5,0 244.5,0 244.5,-19"/>
<text text-anchor="middle" x="214.5" y="-7" font-family="Helvetica,sans-Serif" font-size="10.00">Hash API</text>
</a>
</g>
</g>
<!-- Node1&#45;&gt;Node2 -->
<g id="edge1" class="edge">
<title>Node1&#45;&gt;Node2</title>
<path fill="none" stroke="black" d="M71.91,-67.62C88.59,-55.35 113.21,-38.77 137,-28.5 152.08,-21.99 169.83,-17.41 184.43,-14.38"/>
<polygon fill="black" stroke="black" points="69.41,-65.13 63.52,-73.93 73.61,-70.72 69.41,-65.13"/>
</g>
</g>
</svg>
