<?xml version="1.0" encoding="UTF-8" standalone="no"?>
<!DOCTYPE svg PUBLIC "-//W3C//DTD SVG 1.1//EN"
 "http://www.w3.org/Graphics/SVG/1.1/DTD/svg11.dtd">
<!-- Generated by graphviz version 2.43.0 (0)
 -->
<!-- Title: threadState Pages: 1 -->
<svg width="608pt" height="450pt"
 viewBox="0.00 0.00 608.00 450.00" xmlns="http://www.w3.org/2000/svg" xmlns:xlink="http://www.w3.org/1999/xlink">
<g id="graph0" class="graph" transform="scale(1 1) rotate(0) translate(4 446)">
<title>threadState</title>
<!-- Node1 -->
<g id="Node000001" class="node">
<title>Node1</title>
<g id="a_Node000001"><a xlink:title="State specific to a single thread.">
<polygon fill="#999999" stroke="#666666" points="535,-106 461,-106 461,-87 535,-87 535,-106"/>
<text text-anchor="middle" x="498" y="-94" font-family="Helvetica,sans-Serif" font-size="10.00">threadState</text>
</a>
</g>
</g>
<!-- Node2 -->
<g id="Node000002" class="node">
<title>Node2</title>
<g id="a_Node000002"><a xlink:href="structperformance_state.html" target="_top" xlink:title="Single state containing everything needed for running and then reporting the performance tests.">
<polygon fill="white" stroke="#666666" points="447,-19 343,-19 343,0 447,0 447,-19"/>
<text text-anchor="middle" x="395" y="-7" font-family="Helvetica,sans-Serif" font-size="10.00">performanceState</text>
</a>
</g>
</g>
<!-- Node1&#45;&gt;Node2 -->
<g id="edge8_Node000002_Node000001" class="edge">
<title>Node1&#45;&gt;Node2</title>
<g id="a_edge8_Node000002_Node000001"><a xlink:title=" ">
<path fill="none" stroke="#9a32cd" stroke-dasharray="5,2" d="M450.76,-90.84C435.59,-87.1 419.91,-80.52 409,-69 396.08,-55.35 394.4,-31.97 394.55,-19.3"/>
<polygon fill="#9a32cd" stroke="#9a32cd" points="450.09,-94.27 460.6,-92.9 451.53,-87.42 450.09,-94.27"/>
</a>
</g>
<text text-anchor="start" x="412.5" y="-50" font-family="Helvetica,sans-Serif" font-size="10.00" fill="grey">threadStates</text>
</g>
<!-- Node2&#45;&gt;Node1 -->
<g id="edge1_Node000001_Node000002" class="edge">
<title>Node2&#45;&gt;Node1</title>
<g id="a_edge1_Node000001_Node000002"><a xlink:title=" ">
<path fill="none" stroke="#9a32cd" stroke-dasharray="5,2" d="M456.63,-20.67C466.07,-24.51 474.99,-29.78 482,-37 495.21,-50.59 497.75,-73.99 498.1,-86.69"/>
<polygon fill="#9a32cd" stroke="#9a32cd" points="457.67,-17.33 447.08,-17.29 455.34,-23.93 457.67,-17.33"/>
</a>
</g>
<text text-anchor="start" x="499.5" y="-50" font-family="Helvetica,sans-Serif" font-size="10.00" fill="grey">mainState</text>
</g>
<!-- Node3 -->
<g id="Node000003" class="node">
<title>Node3</title>
<g id="a_Node000003"><a xlink:href="structshared_string_node.html" target="_top" xlink:title=" ">
<polygon fill="white" stroke="#bfbfbf" points="104,-106 0,-106 0,-87 104,-87 104,-106"/>
<text text-anchor="middle" x="52" y="-94" font-family="Helvetica,sans-Serif" font-size="10.00">sharedStringNode</text>
</a>
</g>
</g>
<!-- Node3&#45;&gt;Node2 -->
<g id="edge2_Node000002_Node000003" class="edge">
<title>Node3&#45;&gt;Node2</title>
<g id="a_edge2_Node000002_Node000003"><a xlink:title=" ">
<path fill="none" stroke="#9a32cd" stroke-dasharray="5,2" d="M93.1,-84.29C137.94,-72.17 211.9,-52.5 276,-37 302.23,-30.66 331.85,-24.06 354.98,-19.03"/>
<polygon fill="#9a32cd" stroke="#9a32cd" points="92.18,-80.91 83.44,-86.9 94.01,-87.67 92.18,-80.91"/>
</a>
</g>
<text text-anchor="start" x="279.5" y="-58" font-family="Helvetica,sans-Serif" font-size="10.00" fill="grey">sharedStringFirst</text>
<text text-anchor="start" x="279.5" y="-43" font-family="Helvetica,sans-Serif" font-size="10.00" fill="grey">sharedStringLast</text>
</g>
<!-- Node3&#45;&gt;Node3 -->
<g id="edge3_Node000003_Node000003" class="edge">
<title>Node3&#45;&gt;Node3</title>
<g id="a_edge3_Node000003_Node000003"><a xlink:title=" ">
<path fill="none" stroke="#9a32cd" stroke-dasharray="5,2" d="M114.4,-102.39C119.11,-101.08 122,-99.11 122,-96.5 122,-92.32 114.59,-89.8 104.2,-88.95"/>
<polygon fill="#9a32cd" stroke="#9a32cd" points="113.51,-98.99 104.2,-104.05 114.63,-105.9 113.51,-98.99"/>
</a>
</g>
<text text-anchor="start" x="125" y="-93.5" font-family="Helvetica,sans-Serif" font-size="10.00" fill="grey">next</text>
</g>
<!-- Node4 -->
<g id="Node000004" class="node">
<title>Node4</title>
<g id="a_Node000004"><a xlink:href="structfiftyone_degrees_resource_manager.html" target="_top" xlink:title="Manager structure used to provide access to a shared and changing resource.">
<polygon fill="white" stroke="#666666" points="450,-198.5 268,-198.5 268,-179.5 450,-179.5 450,-198.5"/>
<text text-anchor="middle" x="359" y="-186.5" font-family="Helvetica,sans-Serif" font-size="10.00">fiftyoneDegreesResourceManager</text>
</a>
</g>
</g>
<!-- Node4&#45;&gt;Node1 -->
<g id="edge14_Node000001_Node000004" class="edge">
<title>Node4&#45;&gt;Node1</title>
<g id="a_edge14_Node000001_Node000004"><a xlink:title=" ">
<path fill="none" stroke="#9a32cd" stroke-dasharray="5,2" d="M377.95,-172.94C395.39,-159.39 422.24,-139.32 447,-124 457.52,-117.49 469.82,-111.07 479.7,-106.18"/>
<polygon fill="#9a32cd" stroke="#9a32cd" points="375.46,-170.45 369.75,-179.37 379.78,-175.96 375.46,-170.45"/>
</a>
</g>
<text text-anchor="start" x="450" y="-137" font-family="Helvetica,sans-Serif" font-size="10.00" fill="grey">manager</text>
</g>
<!-- Node4&#45;&gt;Node2 -->
<g id="edge4_Node000002_Node000004" class="edge">
<title>Node4&#45;&gt;Node2</title>
<g id="a_edge4_Node000002_Node000004"><a xlink:title=" ">
<path fill="none" stroke="#9a32cd" stroke-dasharray="5,2" d="M362.79,-169.3C370.47,-131.44 387.6,-46.97 393.2,-19.39"/>
<polygon fill="#9a32cd" stroke="#9a32cd" points="359.29,-168.94 360.74,-179.44 366.15,-170.33 359.29,-168.94"/>
</a>
</g>
<text text-anchor="start" x="383" y="-93.5" font-family="Helvetica,sans-Serif" font-size="10.00" fill="grey">manager</text>
</g>
<!-- Node5 -->
<g id="Node000005" class="node">
<title>Node5</title>
<g id="a_Node000005"><a xlink:href="structfiftyone_degrees_resource_handle.html" target="_top" xlink:title="Handle for a shared resource.">
<polygon fill="white" stroke="#666666" points="341.5,-106 168.5,-106 168.5,-87 341.5,-87 341.5,-106"/>
<text text-anchor="middle" x="255" y="-94" font-family="Helvetica,sans-Serif" font-size="10.00">fiftyoneDegreesResourceHandle</text>
</a>
</g>
</g>
<!-- Node4&#45;&gt;Node5 -->
<g id="edge7_Node000005_Node000004" class="edge">
<title>Node4&#45;&gt;Node5</title>
<g id="a_edge7_Node000005_Node000004"><a xlink:title=" ">
<path fill="none" stroke="#9a32cd" stroke-dasharray="5,2" d="M336.01,-173.37C328.89,-168.31 321.28,-162.31 315,-156 302.65,-143.58 304.4,-136.37 292,-124 285.18,-117.19 276.46,-110.85 269.19,-106.08"/>
<polygon fill="#9a32cd" stroke="#9a32cd" points="334.39,-176.5 344.63,-179.24 338.33,-170.72 334.39,-176.5"/>
</a>
</g>
<text text-anchor="start" x="318" y="-137" font-family="Helvetica,sans-Serif" font-size="10.00" fill="grey">manager</text>
</g>
<!-- Node5&#45;&gt;Node4 -->
<g id="edge5_Node000004_Node000005" class="edge">
<title>Node5&#45;&gt;Node4</title>
<g id="a_edge5_Node000004_Node000005"><a xlink:title=" ">
<path fill="none" stroke="#9a32cd" stroke-dasharray="5,2" d="M249.76,-115.81C247.34,-128.32 246.6,-144.63 255,-156 263.25,-167.17 275.33,-174.56 288.37,-179.43"/>
<polygon fill="#9a32cd" stroke="#9a32cd" points="253.18,-116.56 252.13,-106.02 246.37,-114.91 253.18,-116.56"/>
</a>
</g>
<text text-anchor="start" x="258.5" y="-137" font-family="Helvetica,sans-Serif" font-size="10.00" fill="grey">active</text>
</g>
<!-- Node6 -->
<g id="Node000006" class="node">
<title>Node6</title>
<g id="a_Node000006"><a xlink:href="structfiftyone_degrees_interlock_double_width.html" target="_top" xlink:title="Double width (64 or 128 depending on the architecture) compare and exchange.">
<polygon fill="white" stroke="#666666" points="249.5,-204 112.5,-204 112.5,-174 249.5,-174 249.5,-204"/>
<text text-anchor="start" x="120.5" y="-192" font-family="Helvetica,sans-Serif" font-size="10.00">fiftyoneDegreesInterlock</text>
<text text-anchor="middle" x="181" y="-181" font-family="Helvetica,sans-Serif" font-size="10.00">DoubleWidth</text>
</a>
</g>
</g>
<!-- Node6&#45;&gt;Node5 -->
<g id="edge6_Node000005_Node000006" class="edge">
<title>Node6&#45;&gt;Node5</title>
<g id="a_edge6_Node000005_Node000006"><a xlink:title=" ">
<path fill="none" stroke="#9a32cd" stroke-dasharray="5,2" d="M178.43,-163.83C178.32,-150.8 180.4,-135.16 189,-124 195.41,-115.69 204.84,-109.97 214.57,-106.05"/>
<polygon fill="#9a32cd" stroke="#9a32cd" points="174.94,-164.19 178.94,-174 181.93,-163.84 174.94,-164.19"/>
</a>
</g>
<text text-anchor="start" x="192.5" y="-137" font-family="Helvetica,sans-Serif" font-size="10.00" fill="grey">counter</text>
</g>
<!-- Node7 -->
<g id="Node000007" class="node">
<title>Node7</title>
<g id="a_Node000007"><a xlink:href="structevidence_node.html" target="_top" xlink:title=" ">
<polygon fill="white" stroke="#bfbfbf" points="554,-198.5 468,-198.5 468,-179.5 554,-179.5 554,-198.5"/>
<text text-anchor="middle" x="511" y="-186.5" font-family="Helvetica,sans-Serif" font-size="10.00">evidenceNode</text>
</a>
</g>
</g>
<!-- Node7&#45;&gt;Node1 -->
<g id="edge9_Node000001_Node000007" class="edge">
<title>Node7&#45;&gt;Node1</title>
<g id="a_edge9_Node000001_Node000007"><a xlink:title=" ">
<path fill="none" stroke="#9a32cd" stroke-dasharray="5,2" d="M508.31,-169.25C505.52,-149.84 501.29,-120.41 499.22,-106.02"/>
<polygon fill="#9a32cd" stroke="#9a32cd" points="504.87,-169.92 509.75,-179.32 511.8,-168.93 504.87,-169.92"/>
</a>
</g>
<text text-anchor="start" x="509" y="-145" font-family="Helvetica,sans-Serif" font-size="10.00" fill="grey">evidenceFirst</text>
<text text-anchor="start" x="509" y="-130" font-family="Helvetica,sans-Serif" font-size="10.00" fill="grey">evidenceLast</text>
</g>
<!-- Node7&#45;&gt;Node7 -->
<g id="edge13_Node000007_Node000007" class="edge">
<title>Node7&#45;&gt;Node7</title>
<g id="a_edge13_Node000007_Node000007"><a xlink:title=" ">
<path fill="none" stroke="#9a32cd" stroke-dasharray="5,2" d="M564.25,-194.93C569.01,-193.69 572,-191.71 572,-189 572,-184.66 564.35,-182.21 554.04,-181.63"/>
<polygon fill="#9a32cd" stroke="#9a32cd" points="563.45,-191.51 554.04,-196.37 564.43,-198.44 563.45,-191.51"/>
</a>
</g>
<text text-anchor="start" x="575" y="-186" font-family="Helvetica,sans-Serif" font-size="10.00" fill="grey">next</text>
</g>
<!-- Node8 -->
<g id="Node000008" class="node">
<title>Node8</title>
<g id="a_Node000008"><a xlink:href="structfiftyone_degrees_evidence_key_value_pair_array.html" target="_top" xlink:title="Array of evidence key value pairs and a pointer to the next array if present or NULL of not present.">
<polygon fill="white" stroke="#666666" points="589,-287 433,-287 433,-257 589,-257 589,-287"/>
<text text-anchor="start" x="441" y="-275" font-family="Helvetica,sans-Serif" font-size="10.00">fiftyoneDegreesEvidenceKey</text>
<text text-anchor="middle" x="511" y="-264" font-family="Helvetica,sans-Serif" font-size="10.00">ValuePairArray</text>
</a>
</g>
</g>
<!-- Node8&#45;&gt;Node7 -->
<g id="edge10_Node000007_Node000008" class="edge">
<title>Node8&#45;&gt;Node7</title>
<g id="a_edge10_Node000007_Node000008"><a xlink:title=" ">
<path fill="none" stroke="#9a32cd" stroke-dasharray="5,2" d="M511,-246.55C511,-230.45 511,-210.32 511,-198.94"/>
<polygon fill="#9a32cd" stroke="#9a32cd" points="507.5,-246.89 511,-256.89 514.5,-246.89 507.5,-246.89"/>
</a>
</g>
<text text-anchor="start" x="514" y="-227.5" font-family="Helvetica,sans-Serif" font-size="10.00" fill="grey">array</text>
</g>
<!-- Node9 -->
<g id="Node000009" class="node">
<title>Node9</title>
<g id="a_Node000009"><a xlink:href="structfiftyone_degrees_evidence_key_value_pair.html" target="_top" xlink:title="Evidence key value pair structure which combines the prefix, key and value.">
<polygon fill="white" stroke="#666666" points="589,-370 433,-370 433,-340 589,-340 589,-370"/>
<text text-anchor="start" x="441" y="-358" font-family="Helvetica,sans-Serif" font-size="10.00">fiftyoneDegreesEvidenceKey</text>
<text text-anchor="middle" x="511" y="-347" font-family="Helvetica,sans-Serif" font-size="10.00">ValuePair</text>
</a>
</g>
</g>
<!-- Node9&#45;&gt;Node8 -->
<g id="edge11_Node000008_Node000009" class="edge">
<title>Node9&#45;&gt;Node8</title>
<g id="a_edge11_Node000008_Node000009"><a xlink:title=" ">
<path fill="none" stroke="#9a32cd" stroke-dasharray="5,2" d="M511,-329.59C511,-315.75 511,-298.91 511,-287.22"/>
<polygon fill="#9a32cd" stroke="#9a32cd" points="507.5,-329.89 511,-339.89 514.5,-329.89 507.5,-329.89"/>
</a>
</g>
<text text-anchor="start" x="514" y="-310.5" font-family="Helvetica,sans-Serif" font-size="10.00" fill="grey">items</text>
</g>
<!-- Node10 -->
<g id="Node000010" class="node">
<title>Node10</title>
<g id="a_Node000010"><a xlink:href="structfiftyone_degrees_key_value_pair.html" target="_top" xlink:title=" ">
<polygon fill="white" stroke="#bfbfbf" points="589.5,-442 432.5,-442 432.5,-423 589.5,-423 589.5,-442"/>
<text text-anchor="middle" x="511" y="-430" font-family="Helvetica,sans-Serif" font-size="10.00">fiftyoneDegreesKeyValuePair</text>
</a>
</g>
</g>
<!-- Node10&#45;&gt;Node9 -->
<g id="edge12_Node000009_Node000010" class="edge">
<title>Node10&#45;&gt;Node9</title>
<g id="a_edge12_Node000009_Node000010"><a xlink:title=" ">
<path fill="none" stroke="#9a32cd" stroke-dasharray="5,2" d="M511,-412.57C511,-399.43 511,-382.18 511,-370.21"/>
<polygon fill="#9a32cd" stroke="#9a32cd" points="507.5,-412.84 511,-422.84 514.5,-412.84 507.5,-412.84"/>
</a>
</g>
<text text-anchor="start" x="514.5" y="-393.5" font-family="Helvetica,sans-Serif" font-size="10.00" fill="grey">item</text>
</g>
</g>
</svg>
