<?xml version="1.0" encoding="UTF-8" standalone="no"?>
<!DOCTYPE svg PUBLIC "-//W3C//DTD SVG 1.1//EN"
 "http://www.w3.org/Graphics/SVG/1.1/DTD/svg11.dtd">
<!-- Generated by graphviz version 2.43.0 (0)
 -->
<!-- Title: performanceState Pages: 1 -->
<svg width="689pt" height="367pt"
 viewBox="0.00 0.00 688.50 367.00" xmlns="http://www.w3.org/2000/svg" xmlns:xlink="http://www.w3.org/1999/xlink">
<g id="graph0" class="graph" transform="scale(1 1) rotate(0) translate(4 363)">
<title>performanceState</title>
<!-- Node1 -->
<g id="Node000001" class="node">
<title>Node1</title>
<g id="a_Node000001"><a xlink:title="Single state containing everything needed for running and then reporting the performance tests.">
<polygon fill="#999999" stroke="#666666" points="185,-106 81,-106 81,-87 185,-87 185,-106"/>
<text text-anchor="middle" x="133" y="-94" font-family="Helvetica,sans-Serif" font-size="10.00">performanceState</text>
</a>
</g>
</g>
<!-- Node6 -->
<g id="Node000006" class="node">
<title>Node6</title>
<g id="a_Node000006"><a xlink:href="structthread_state.html" target="_top" xlink:title="State specific to a single thread.">
<polygon fill="white" stroke="#666666" points="254,-19 180,-19 180,0 254,0 254,-19"/>
<text text-anchor="middle" x="217" y="-7" font-family="Helvetica,sans-Serif" font-size="10.00">threadState</text>
</a>
</g>
</g>
<!-- Node1&#45;&gt;Node6 -->
<g id="edge8_Node000006_Node000001" class="edge">
<title>Node1&#45;&gt;Node6</title>
<g id="a_edge8_Node000006_Node000001"><a xlink:title=" ">
<path fill="none" stroke="#9a32cd" stroke-dasharray="5,2" d="M103.24,-81.53C98.73,-78.09 94.68,-73.93 92,-69 85.2,-56.51 83.05,-48.05 92,-37 102.93,-23.51 147.21,-16.61 179.98,-13.29"/>
<polygon fill="#9a32cd" stroke="#9a32cd" points="101.39,-84.51 111.69,-86.99 105.19,-78.63 101.39,-84.51"/>
</a>
</g>
<text text-anchor="start" x="95.5" y="-50" font-family="Helvetica,sans-Serif" font-size="10.00" fill="grey">mainState</text>
</g>
<!-- Node2 -->
<g id="Node000002" class="node">
<title>Node2</title>
<g id="a_Node000002"><a xlink:href="structshared_string_node.html" target="_top" xlink:title=" ">
<polygon fill="white" stroke="#bfbfbf" points="104,-198.5 0,-198.5 0,-179.5 104,-179.5 104,-198.5"/>
<text text-anchor="middle" x="52" y="-186.5" font-family="Helvetica,sans-Serif" font-size="10.00">sharedStringNode</text>
</a>
</g>
</g>
<!-- Node2&#45;&gt;Node1 -->
<g id="edge1_Node000001_Node000002" class="edge">
<title>Node2&#45;&gt;Node1</title>
<g id="a_edge1_Node000001_Node000002"><a xlink:title=" ">
<path fill="none" stroke="#9a32cd" stroke-dasharray="5,2" d="M55.02,-169.51C58.14,-155.53 64.29,-136.64 76,-124 83.42,-115.99 93.74,-110.2 103.56,-106.11"/>
<polygon fill="#9a32cd" stroke="#9a32cd" points="51.55,-168.98 53.11,-179.46 58.43,-170.3 51.55,-168.98"/>
</a>
</g>
<text text-anchor="start" x="79.5" y="-145" font-family="Helvetica,sans-Serif" font-size="10.00" fill="grey">sharedStringFirst</text>
<text text-anchor="start" x="79.5" y="-130" font-family="Helvetica,sans-Serif" font-size="10.00" fill="grey">sharedStringLast</text>
</g>
<!-- Node2&#45;&gt;Node2 -->
<g id="edge2_Node000002_Node000002" class="edge">
<title>Node2&#45;&gt;Node2</title>
<g id="a_edge2_Node000002_Node000002"><a xlink:title=" ">
<path fill="none" stroke="#9a32cd" stroke-dasharray="5,2" d="M114.4,-194.61C119.11,-193.36 122,-191.49 122,-189 122,-185.02 114.59,-182.62 104.2,-181.81"/>
<polygon fill="#9a32cd" stroke="#9a32cd" points="113.55,-191.2 104.2,-196.19 114.62,-198.12 113.55,-191.2"/>
</a>
</g>
<text text-anchor="start" x="125" y="-186" font-family="Helvetica,sans-Serif" font-size="10.00" fill="grey">next</text>
</g>
<!-- Node3 -->
<g id="Node000003" class="node">
<title>Node3</title>
<g id="a_Node000003"><a xlink:href="structfiftyone_degrees_resource_manager.html" target="_top" xlink:title="Manager structure used to provide access to a shared and changing resource.">
<polygon fill="white" stroke="#666666" points="350,-198.5 168,-198.5 168,-179.5 350,-179.5 350,-198.5"/>
<text text-anchor="middle" x="259" y="-186.5" font-family="Helvetica,sans-Serif" font-size="10.00">fiftyoneDegreesResourceManager</text>
</a>
</g>
</g>
<!-- Node3&#45;&gt;Node1 -->
<g id="edge3_Node000001_Node000003" class="edge">
<title>Node3&#45;&gt;Node1</title>
<g id="a_edge3_Node000001_Node000003"><a xlink:title=" ">
<path fill="none" stroke="#9a32cd" stroke-dasharray="5,2" d="M227.94,-175.19C217.03,-170 205.01,-163.47 195,-156 179.37,-144.35 179.2,-137.35 165,-124 158.27,-117.68 150.27,-111.05 143.96,-106.01"/>
<polygon fill="#9a32cd" stroke="#9a32cd" points="226.61,-178.43 237.16,-179.39 229.51,-172.06 226.61,-178.43"/>
</a>
</g>
<text text-anchor="start" x="198" y="-137" font-family="Helvetica,sans-Serif" font-size="10.00" fill="grey">manager</text>
</g>
<!-- Node4 -->
<g id="Node000004" class="node">
<title>Node4</title>
<g id="a_Node000004"><a xlink:href="structfiftyone_degrees_resource_handle.html" target="_top" xlink:title="Handle for a shared resource.">
<polygon fill="white" stroke="#666666" points="500.5,-106 327.5,-106 327.5,-87 500.5,-87 500.5,-106"/>
<text text-anchor="middle" x="414" y="-94" font-family="Helvetica,sans-Serif" font-size="10.00">fiftyoneDegreesResourceHandle</text>
</a>
</g>
</g>
<!-- Node3&#45;&gt;Node4 -->
<g id="edge6_Node000004_Node000003" class="edge">
<title>Node3&#45;&gt;Node4</title>
<g id="a_edge6_Node000004_Node000003"><a xlink:title=" ">
<path fill="none" stroke="#9a32cd" stroke-dasharray="5,2" d="M267.08,-170C274.95,-153.27 286.86,-130.04 295,-124 306.05,-115.8 319.15,-110.05 332.56,-106.04"/>
<polygon fill="#9a32cd" stroke="#9a32cd" points="263.77,-168.82 262.78,-179.37 270.14,-171.74 263.77,-168.82"/>
</a>
</g>
<text text-anchor="start" x="298" y="-137" font-family="Helvetica,sans-Serif" font-size="10.00" fill="grey">manager</text>
</g>
<!-- Node3&#45;&gt;Node6 -->
<g id="edge14_Node000006_Node000003" class="edge">
<title>Node3&#45;&gt;Node6</title>
<g id="a_edge14_Node000006_Node000003"><a xlink:title=" ">
<path fill="none" stroke="#9a32cd" stroke-dasharray="5,2" d="M261.35,-169.04C264.16,-139.27 266.14,-80.47 245,-37 241.55,-29.9 235.33,-23.71 229.63,-19.11"/>
<polygon fill="#9a32cd" stroke="#9a32cd" points="257.84,-168.94 260.23,-179.26 264.8,-169.7 257.84,-168.94"/>
</a>
</g>
<text text-anchor="start" x="265" y="-93.5" font-family="Helvetica,sans-Serif" font-size="10.00" fill="grey">manager</text>
</g>
<!-- Node4&#45;&gt;Node3 -->
<g id="edge4_Node000003_Node000004" class="edge">
<title>Node4&#45;&gt;Node3</title>
<g id="a_edge4_Node000003_Node000004"><a xlink:title=" ">
<path fill="none" stroke="#9a32cd" stroke-dasharray="5,2" d="M393.98,-112.36C389.29,-116.04 384.39,-120.06 380,-124 365.27,-137.23 365.66,-145.29 349,-156 332.4,-166.67 311.79,-174.34 294.48,-179.49"/>
<polygon fill="#9a32cd" stroke="#9a32cd" points="396.22,-115.05 402.03,-106.19 391.96,-109.49 396.22,-115.05"/>
</a>
</g>
<text text-anchor="start" x="383.5" y="-137" font-family="Helvetica,sans-Serif" font-size="10.00" fill="grey">active</text>
</g>
<!-- Node5 -->
<g id="Node000005" class="node">
<title>Node5</title>
<g id="a_Node000005"><a xlink:href="structfiftyone_degrees_interlock_double_width.html" target="_top" xlink:title="Double width (64 or 128 depending on the architecture) compare and exchange.">
<polygon fill="white" stroke="#666666" points="505.5,-204 368.5,-204 368.5,-174 505.5,-174 505.5,-204"/>
<text text-anchor="start" x="376.5" y="-192" font-family="Helvetica,sans-Serif" font-size="10.00">fiftyoneDegreesInterlock</text>
<text text-anchor="middle" x="437" y="-181" font-family="Helvetica,sans-Serif" font-size="10.00">DoubleWidth</text>
</a>
</g>
</g>
<!-- Node5&#45;&gt;Node4 -->
<g id="edge5_Node000004_Node000005" class="edge">
<title>Node5&#45;&gt;Node4</title>
<g id="a_edge5_Node000004_Node000005"><a xlink:title=" ">
<path fill="none" stroke="#9a32cd" stroke-dasharray="5,2" d="M430.91,-164.04C426.06,-144.94 419.53,-119.27 416.18,-106.1"/>
<polygon fill="#9a32cd" stroke="#9a32cd" points="427.55,-165.03 433.41,-173.86 434.34,-163.31 427.55,-165.03"/>
</a>
</g>
<text text-anchor="start" x="432.5" y="-137" font-family="Helvetica,sans-Serif" font-size="10.00" fill="grey">counter</text>
</g>
<!-- Node6&#45;&gt;Node1 -->
<g id="edge7_Node000001_Node000006" class="edge">
<title>Node6&#45;&gt;Node1</title>
<g id="a_edge7_Node000001_Node000006"><a xlink:title=" ">
<path fill="none" stroke="#9a32cd" stroke-dasharray="5,2" d="M192.21,-24.4C186.57,-28.12 180.83,-32.4 176,-37 163.31,-49.08 163.39,-54.9 153,-69 148.62,-74.94 143.62,-81.57 139.72,-86.71"/>
<polygon fill="#9a32cd" stroke="#9a32cd" points="194.17,-27.3 200.82,-19.05 190.48,-21.36 194.17,-27.3"/>
</a>
</g>
<text text-anchor="start" x="179.5" y="-50" font-family="Helvetica,sans-Serif" font-size="10.00" fill="grey">threadStates</text>
</g>
<!-- Node7 -->
<g id="Node000007" class="node">
<title>Node7</title>
<g id="a_Node000007"><a xlink:href="structevidence_node.html" target="_top" xlink:title=" ">
<polygon fill="white" stroke="#bfbfbf" points="615,-106 529,-106 529,-87 615,-87 615,-106"/>
<text text-anchor="middle" x="572" y="-94" font-family="Helvetica,sans-Serif" font-size="10.00">evidenceNode</text>
</a>
</g>
</g>
<!-- Node7&#45;&gt;Node6 -->
<g id="edge9_Node000006_Node000007" class="edge">
<title>Node7&#45;&gt;Node6</title>
<g id="a_edge9_Node000006_Node000007"><a xlink:title=" ">
<path fill="none" stroke="#9a32cd" stroke-dasharray="5,2" d="M526.26,-84.55C454.63,-67.4 317.48,-34.56 252.64,-19.03"/>
<polygon fill="#9a32cd" stroke="#9a32cd" points="525.8,-88.04 536.34,-86.96 527.43,-81.23 525.8,-88.04"/>
</a>
</g>
<text text-anchor="start" x="461" y="-58" font-family="Helvetica,sans-Serif" font-size="10.00" fill="grey">evidenceFirst</text>
<text text-anchor="start" x="461" y="-43" font-family="Helvetica,sans-Serif" font-size="10.00" fill="grey">evidenceLast</text>
</g>
<!-- Node7&#45;&gt;Node7 -->
<g id="edge13_Node000007_Node000007" class="edge">
<title>Node7&#45;&gt;Node7</title>
<g id="a_edge13_Node000007_Node000007"><a xlink:title=" ">
<path fill="none" stroke="#9a32cd" stroke-dasharray="5,2" d="M625.25,-102.72C630.01,-101.42 633,-99.35 633,-96.5 633,-91.95 625.35,-89.37 615.04,-88.76"/>
<polygon fill="#9a32cd" stroke="#9a32cd" points="624.42,-99.31 615.04,-104.24 625.44,-106.23 624.42,-99.31"/>
</a>
</g>
<text text-anchor="start" x="636" y="-93.5" font-family="Helvetica,sans-Serif" font-size="10.00" fill="grey">next</text>
</g>
<!-- Node8 -->
<g id="Node000008" class="node">
<title>Node8</title>
<g id="a_Node000008"><a xlink:href="structfiftyone_degrees_evidence_key_value_pair_array.html" target="_top" xlink:title="Array of evidence key value pairs and a pointer to the next array if present or NULL of not present.">
<polygon fill="white" stroke="#666666" points="680,-204 524,-204 524,-174 680,-174 680,-204"/>
<text text-anchor="start" x="532" y="-192" font-family="Helvetica,sans-Serif" font-size="10.00">fiftyoneDegreesEvidenceKey</text>
<text text-anchor="middle" x="602" y="-181" font-family="Helvetica,sans-Serif" font-size="10.00">ValuePairArray</text>
</a>
</g>
</g>
<!-- Node8&#45;&gt;Node7 -->
<g id="edge10_Node000007_Node000008" class="edge">
<title>Node8&#45;&gt;Node7</title>
<g id="a_edge10_Node000007_Node000008"><a xlink:title=" ">
<path fill="none" stroke="#9a32cd" stroke-dasharray="5,2" d="M594.15,-164.31C587.8,-145.17 579.24,-119.33 574.85,-106.1"/>
<polygon fill="#9a32cd" stroke="#9a32cd" points="590.84,-165.47 597.31,-173.86 597.49,-163.27 590.84,-165.47"/>
</a>
</g>
<text text-anchor="start" x="594" y="-137" font-family="Helvetica,sans-Serif" font-size="10.00" fill="grey">array</text>
</g>
<!-- Node9 -->
<g id="Node000009" class="node">
<title>Node9</title>
<g id="a_Node000009"><a xlink:href="structfiftyone_degrees_evidence_key_value_pair.html" target="_top" xlink:title="Evidence key value pair structure which combines the prefix, key and value.">
<polygon fill="white" stroke="#666666" points="680,-287 524,-287 524,-257 680,-257 680,-287"/>
<text text-anchor="start" x="532" y="-275" font-family="Helvetica,sans-Serif" font-size="10.00">fiftyoneDegreesEvidenceKey</text>
<text text-anchor="middle" x="602" y="-264" font-family="Helvetica,sans-Serif" font-size="10.00">ValuePair</text>
</a>
</g>
</g>
<!-- Node9&#45;&gt;Node8 -->
<g id="edge11_Node000008_Node000009" class="edge">
<title>Node9&#45;&gt;Node8</title>
<g id="a_edge11_Node000008_Node000009"><a xlink:title=" ">
<path fill="none" stroke="#9a32cd" stroke-dasharray="5,2" d="M602,-246.59C602,-232.75 602,-215.91 602,-204.22"/>
<polygon fill="#9a32cd" stroke="#9a32cd" points="598.5,-246.89 602,-256.89 605.5,-246.89 598.5,-246.89"/>
</a>
</g>
<text text-anchor="start" x="605" y="-227.5" font-family="Helvetica,sans-Serif" font-size="10.00" fill="grey">items</text>
</g>
<!-- Node10 -->
<g id="Node000010" class="node">
<title>Node10</title>
<g id="a_Node000010"><a xlink:href="structfiftyone_degrees_key_value_pair.html" target="_top" xlink:title=" ">
<polygon fill="white" stroke="#bfbfbf" points="680.5,-359 523.5,-359 523.5,-340 680.5,-340 680.5,-359"/>
<text text-anchor="middle" x="602" y="-347" font-family="Helvetica,sans-Serif" font-size="10.00">fiftyoneDegreesKeyValuePair</text>
</a>
</g>
</g>
<!-- Node10&#45;&gt;Node9 -->
<g id="edge12_Node000009_Node000010" class="edge">
<title>Node10&#45;&gt;Node9</title>
<g id="a_edge12_Node000009_Node000010"><a xlink:title=" ">
<path fill="none" stroke="#9a32cd" stroke-dasharray="5,2" d="M602,-329.57C602,-316.43 602,-299.18 602,-287.21"/>
<polygon fill="#9a32cd" stroke="#9a32cd" points="598.5,-329.84 602,-339.84 605.5,-329.84 598.5,-329.84"/>
</a>
</g>
<text text-anchor="start" x="605.5" y="-310.5" font-family="Helvetica,sans-Serif" font-size="10.00" fill="grey">item</text>
</g>
</g>
</svg>
