<?xml version="1.0" encoding="UTF-8" standalone="no"?>
<!DOCTYPE svg PUBLIC "-//W3C//DTD SVG 1.1//EN"
 "http://www.w3.org/Graphics/SVG/1.1/DTD/svg11.dtd">
<!-- Generated by graphviz version 2.43.0 (0)
 -->
<!-- Title: fiftyoneDegreesResultHash Pages: 1 -->
<svg width="394pt" height="110pt"
 viewBox="0.00 0.00 393.50 110.00" xmlns="http://www.w3.org/2000/svg" xmlns:xlink="http://www.w3.org/1999/xlink">
<g id="graph0" class="graph" transform="scale(1 1) rotate(0) translate(4 106)">
<title>fiftyoneDegreesResultHash</title>
<!-- Node1 -->
<g id="Node000001" class="node">
<title>Node1</title>
<g id="a_Node000001"><a xlink:title="Singular User&#45;Agent result returned by a Hash process method.">
<polygon fill="#999999" stroke="#666666" points="166,-19 17,-19 17,0 166,0 166,-19"/>
<text text-anchor="middle" x="91.5" y="-7" font-family="Helvetica,sans-Serif" font-size="10.00">fiftyoneDegreesResultHash</text>
</a>
</g>
</g>
<!-- Node2 -->
<g id="Node000002" class="node">
<title>Node2</title>
<g id="a_Node000002"><a xlink:href="structfiftyone_degrees_result_user_agent.html" target="_top" xlink:title="Singular User&#45;Agent result returned by a device detection process method.">
<polygon fill="white" stroke="#666666" points="147,-102 0,-102 0,-72 147,-72 147,-102"/>
<text text-anchor="start" x="8" y="-90" font-family="Helvetica,sans-Serif" font-size="10.00">fiftyoneDegreesResultUser</text>
<text text-anchor="middle" x="73.5" y="-79" font-family="Helvetica,sans-Serif" font-size="10.00">Agent</text>
</a>
</g>
</g>
<!-- Node2&#45;&gt;Node1 -->
<g id="edge1_Node000001_Node000002" class="edge">
<title>Node2&#45;&gt;Node1</title>
<g id="a_edge1_Node000001_Node000002"><a xlink:title=" ">
<path fill="none" stroke="#9a32cd" stroke-dasharray="5,2" d="M79.26,-61.83C82.76,-47.15 87.01,-29.32 89.47,-19.01"/>
<polygon fill="#9a32cd" stroke="#9a32cd" points="75.8,-61.26 76.89,-71.8 82.61,-62.88 75.8,-61.26"/>
</a>
</g>
<text text-anchor="start" x="89" y="-42.5" font-family="Helvetica,sans-Serif" font-size="10.00" fill="grey">b</text>
</g>
<!-- Node3 -->
<g id="Node000003" class="node">
<title>Node3</title>
<g id="a_Node000003"><a xlink:href="structfiftyone_degrees_graph_trace_node.html" target="_top" xlink:title="Trace node structure used to trace the route taken when evaluating a graph.">
<polygon fill="white" stroke="#666666" points="339.5,-96.5 165.5,-96.5 165.5,-77.5 339.5,-77.5 339.5,-96.5"/>
<text text-anchor="middle" x="252.5" y="-84.5" font-family="Helvetica,sans-Serif" font-size="10.00">fiftyoneDegreesGraphTraceNode</text>
</a>
</g>
</g>
<!-- Node3&#45;&gt;Node1 -->
<g id="edge2_Node000001_Node000003" class="edge">
<title>Node3&#45;&gt;Node1</title>
<g id="a_edge2_Node000001_Node000003"><a xlink:title=" ">
<path fill="none" stroke="#9a32cd" stroke-dasharray="5,2" d="M225.29,-73.24C192.44,-57.83 138.09,-32.35 109.84,-19.1"/>
<polygon fill="#9a32cd" stroke="#9a32cd" points="223.8,-76.41 234.34,-77.49 226.78,-70.07 223.8,-76.41"/>
</a>
</g>
<text text-anchor="start" x="185" y="-42.5" font-family="Helvetica,sans-Serif" font-size="10.00" fill="grey">trace</text>
</g>
<!-- Node3&#45;&gt;Node3 -->
<g id="edge3_Node000003_Node000003" class="edge">
<title>Node3&#45;&gt;Node3</title>
<g id="a_edge3_Node000003_Node000003"><a xlink:title=" ">
<path fill="none" stroke="#9a32cd" stroke-dasharray="5,2" d="M349.75,-91.85C354.62,-90.64 357.5,-89.03 357.5,-87 357.5,-83.84 350.49,-81.67 339.8,-80.51"/>
<polygon fill="#9a32cd" stroke="#9a32cd" points="349.1,-88.41 339.8,-93.49 350.24,-95.31 349.1,-88.41"/>
</a>
</g>
<text text-anchor="start" x="360.5" y="-84" font-family="Helvetica,sans-Serif" font-size="10.00" fill="grey">next</text>
</g>
</g>
</svg>
