<?xml version="1.0" encoding="UTF-8" standalone="no"?>
<!DOCTYPE svg PUBLIC "-//W3C//DTD SVG 1.1//EN"
 "http://www.w3.org/Graphics/SVG/1.1/DTD/svg11.dtd">
<!-- Generated by graphviz version 2.43.0 (0)
 -->
<!-- Title: sharedState Pages: 1 -->
<svg width="346pt" height="110pt"
 viewBox="0.00 0.00 345.50 110.00" xmlns="http://www.w3.org/2000/svg" xmlns:xlink="http://www.w3.org/1999/xlink">
<g id="graph0" class="graph" transform="scale(1 1) rotate(0) translate(4 106)">
<title>sharedState</title>
<!-- Node1 -->
<g id="Node000001" class="node">
<title>Node1</title>
<g id="a_Node000001"><a xlink:title="State containing the states for all threads running in the example.">
<polygon fill="#999999" stroke="#666666" points="78.5,-19 3.5,-19 3.5,0 78.5,0 78.5,-19"/>
<text text-anchor="middle" x="41" y="-7" font-family="Helvetica,sans-Serif" font-size="10.00">sharedState</text>
</a>
</g>
</g>
<!-- Node2 -->
<g id="Node000002" class="node">
<title>Node2</title>
<g id="a_Node000002"><a xlink:href="structfiftyone_degrees_resource_manager.html" target="_top" xlink:title="Manager structure used to provide access to a shared and changing resource.">
<polygon fill="white" stroke="#666666" points="182,-96.5 0,-96.5 0,-77.5 182,-77.5 182,-96.5"/>
<text text-anchor="middle" x="91" y="-84.5" font-family="Helvetica,sans-Serif" font-size="10.00">fiftyoneDegreesResourceManager</text>
</a>
</g>
</g>
<!-- Node2&#45;&gt;Node1 -->
<g id="edge1_Node000001_Node000002" class="edge">
<title>Node2&#45;&gt;Node1</title>
<g id="a_edge1_Node000001_Node000002"><a xlink:title=" ">
<path fill="none" stroke="#9a32cd" stroke-dasharray="5,2" d="M59.9,-72.12C52.8,-67.42 46.13,-61.43 42,-54 35.98,-43.17 37.26,-28.37 38.96,-19.12"/>
<polygon fill="#9a32cd" stroke="#9a32cd" points="58.57,-75.39 68.97,-77.39 62.08,-69.34 58.57,-75.39"/>
</a>
</g>
<text text-anchor="start" x="45" y="-42.5" font-family="Helvetica,sans-Serif" font-size="10.00" fill="grey">manager</text>
</g>
<!-- Node3 -->
<g id="Node000003" class="node">
<title>Node3</title>
<g id="a_Node000003"><a xlink:href="structfiftyone_degrees_resource_handle.html" target="_top" xlink:title="Handle for a shared resource.">
<polygon fill="white" stroke="#666666" points="273.5,-19 100.5,-19 100.5,0 273.5,0 273.5,-19"/>
<text text-anchor="middle" x="187" y="-7" font-family="Helvetica,sans-Serif" font-size="10.00">fiftyoneDegreesResourceHandle</text>
</a>
</g>
</g>
<!-- Node2&#45;&gt;Node3 -->
<g id="edge4_Node000003_Node000002" class="edge">
<title>Node2&#45;&gt;Node3</title>
<g id="a_edge4_Node000003_Node000002"><a xlink:title=" ">
<path fill="none" stroke="#9a32cd" stroke-dasharray="5,2" d="M94.72,-67.17C97.6,-57.02 102.58,-44.99 111,-37 119.72,-28.73 131.15,-23.02 142.5,-19.09"/>
<polygon fill="#9a32cd" stroke="#9a32cd" points="91.25,-66.61 92.34,-77.15 98.06,-68.23 91.25,-66.61"/>
</a>
</g>
<text text-anchor="start" x="114" y="-42.5" font-family="Helvetica,sans-Serif" font-size="10.00" fill="grey">manager</text>
</g>
<!-- Node3&#45;&gt;Node2 -->
<g id="edge2_Node000002_Node000003" class="edge">
<title>Node3&#45;&gt;Node2</title>
<g id="a_edge2_Node000002_Node000003"><a xlink:title=" ">
<path fill="none" stroke="#9a32cd" stroke-dasharray="5,2" d="M181.05,-28.82C177.51,-37.37 172.27,-47.15 165,-54 153.38,-64.94 137.44,-72.48 123.32,-77.48"/>
<polygon fill="#9a32cd" stroke="#9a32cd" points="184.4,-29.87 184.55,-19.28 177.82,-27.47 184.4,-29.87"/>
</a>
</g>
<text text-anchor="start" x="180.5" y="-42.5" font-family="Helvetica,sans-Serif" font-size="10.00" fill="grey">active</text>
</g>
<!-- Node4 -->
<g id="Node000004" class="node">
<title>Node4</title>
<g id="a_Node000004"><a xlink:href="structfiftyone_degrees_interlock_double_width.html" target="_top" xlink:title="Double width (64 or 128 depending on the architecture) compare and exchange.">
<polygon fill="white" stroke="#666666" points="337.5,-102 200.5,-102 200.5,-72 337.5,-72 337.5,-102"/>
<text text-anchor="start" x="208.5" y="-90" font-family="Helvetica,sans-Serif" font-size="10.00">fiftyoneDegreesInterlock</text>
<text text-anchor="middle" x="269" y="-79" font-family="Helvetica,sans-Serif" font-size="10.00">DoubleWidth</text>
</a>
</g>
</g>
<!-- Node4&#45;&gt;Node3 -->
<g id="edge3_Node000003_Node000004" class="edge">
<title>Node4&#45;&gt;Node3</title>
<g id="a_edge3_Node000003_Node000004"><a xlink:title=" ">
<path fill="none" stroke="#9a32cd" stroke-dasharray="5,2" d="M252.66,-63.66C245.61,-54.82 236.94,-44.91 228,-37 220.25,-30.15 210.58,-23.81 202.57,-19.05"/>
<polygon fill="#9a32cd" stroke="#9a32cd" points="249.99,-65.93 258.87,-71.71 255.53,-61.66 249.99,-65.93"/>
</a>
</g>
<text text-anchor="start" x="246.5" y="-42.5" font-family="Helvetica,sans-Serif" font-size="10.00" fill="grey">counter</text>
</g>
</g>
</svg>
