<?xml version="1.0" encoding="UTF-8" standalone="no"?>
<!DOCTYPE svg PUBLIC "-//W3C//DTD SVG 1.1//EN"
 "http://www.w3.org/Graphics/SVG/1.1/DTD/svg11.dtd">
<!-- Generated by graphviz version 2.43.0 (0)
 -->
<!-- Title: offlineProcessState Pages: 1 -->
<svg width="394pt" height="265pt"
 viewBox="0.00 0.00 393.50 265.00" xmlns="http://www.w3.org/2000/svg" xmlns:xlink="http://www.w3.org/1999/xlink">
<g id="graph0" class="graph" transform="scale(1 1) rotate(0) translate(4 261)">
<title>offlineProcessState</title>
<!-- Node1 -->
<g id="Node000001" class="node">
<title>Node1</title>
<g id="a_Node000001"><a xlink:title="State used for the offline processing operation.">
<polygon fill="#999999" stroke="#666666" points="146.5,-19 36.5,-19 36.5,0 146.5,0 146.5,-19"/>
<text text-anchor="middle" x="91.5" y="-7" font-family="Helvetica,sans-Serif" font-size="10.00">offlineProcessState</text>
</a>
</g>
</g>
<!-- Node2 -->
<g id="Node000002" class="node">
<title>Node2</title>
<g id="a_Node000002"><a xlink:href="structfiftyone_degrees_result_hash_array.html" target="_top" xlink:title="Array of items of type fiftyoneDegreesResultHash used to easily access and track the size of the arra...">
<polygon fill="white" stroke="#666666" points="166,-102 17,-102 17,-72 166,-72 166,-102"/>
<text text-anchor="start" x="25" y="-90" font-family="Helvetica,sans-Serif" font-size="10.00">fiftyoneDegreesResultHash</text>
<text text-anchor="middle" x="91.5" y="-79" font-family="Helvetica,sans-Serif" font-size="10.00">Array</text>
</a>
</g>
</g>
<!-- Node2&#45;&gt;Node1 -->
<g id="edge1_Node000001_Node000002" class="edge">
<title>Node2&#45;&gt;Node1</title>
<g id="a_edge1_Node000001_Node000002"><a xlink:title=" ">
<path fill="none" stroke="#9a32cd" stroke-dasharray="5,2" d="M91.5,-61.4C91.5,-46.81 91.5,-29.22 91.5,-19.01"/>
<polygon fill="#9a32cd" stroke="#9a32cd" points="88,-61.8 91.5,-71.8 95,-61.8 88,-61.8"/>
</a>
</g>
<text text-anchor="start" x="94.5" y="-42.5" font-family="Helvetica,sans-Serif" font-size="10.00" fill="grey">results</text>
</g>
<!-- Node3 -->
<g id="Node000003" class="node">
<title>Node3</title>
<g id="a_Node000003"><a xlink:href="structfiftyone_degrees_result_hash.html" target="_top" xlink:title="Singular User&#45;Agent result returned by a Hash process method.">
<polygon fill="white" stroke="#666666" points="166,-174 17,-174 17,-155 166,-155 166,-174"/>
<text text-anchor="middle" x="91.5" y="-162" font-family="Helvetica,sans-Serif" font-size="10.00">fiftyoneDegreesResultHash</text>
</a>
</g>
</g>
<!-- Node3&#45;&gt;Node2 -->
<g id="edge2_Node000002_Node000003" class="edge">
<title>Node3&#45;&gt;Node2</title>
<g id="a_edge2_Node000002_Node000003"><a xlink:title=" ">
<path fill="none" stroke="#9a32cd" stroke-dasharray="5,2" d="M91.5,-144.57C91.5,-131.43 91.5,-114.18 91.5,-102.21"/>
<polygon fill="#9a32cd" stroke="#9a32cd" points="88,-144.84 91.5,-154.84 95,-144.84 88,-144.84"/>
</a>
</g>
<text text-anchor="start" x="94.5" y="-125.5" font-family="Helvetica,sans-Serif" font-size="10.00" fill="grey">items</text>
</g>
<!-- Node4 -->
<g id="Node000004" class="node">
<title>Node4</title>
<g id="a_Node000004"><a xlink:href="structfiftyone_degrees_result_user_agent.html" target="_top" xlink:title="Singular User&#45;Agent result returned by a device detection process method.">
<polygon fill="white" stroke="#666666" points="147,-257 0,-257 0,-227 147,-227 147,-257"/>
<text text-anchor="start" x="8" y="-245" font-family="Helvetica,sans-Serif" font-size="10.00">fiftyoneDegreesResultUser</text>
<text text-anchor="middle" x="73.5" y="-234" font-family="Helvetica,sans-Serif" font-size="10.00">Agent</text>
</a>
</g>
</g>
<!-- Node4&#45;&gt;Node3 -->
<g id="edge3_Node000003_Node000004" class="edge">
<title>Node4&#45;&gt;Node3</title>
<g id="a_edge3_Node000003_Node000004"><a xlink:title=" ">
<path fill="none" stroke="#9a32cd" stroke-dasharray="5,2" d="M79.26,-216.83C82.76,-202.15 87.01,-184.32 89.47,-174.01"/>
<polygon fill="#9a32cd" stroke="#9a32cd" points="75.8,-216.26 76.89,-226.8 82.61,-217.88 75.8,-216.26"/>
</a>
</g>
<text text-anchor="start" x="89" y="-197.5" font-family="Helvetica,sans-Serif" font-size="10.00" fill="grey">b</text>
</g>
<!-- Node5 -->
<g id="Node000005" class="node">
<title>Node5</title>
<g id="a_Node000005"><a xlink:href="structfiftyone_degrees_graph_trace_node.html" target="_top" xlink:title="Trace node structure used to trace the route taken when evaluating a graph.">
<polygon fill="white" stroke="#666666" points="339.5,-251.5 165.5,-251.5 165.5,-232.5 339.5,-232.5 339.5,-251.5"/>
<text text-anchor="middle" x="252.5" y="-239.5" font-family="Helvetica,sans-Serif" font-size="10.00">fiftyoneDegreesGraphTraceNode</text>
</a>
</g>
</g>
<!-- Node5&#45;&gt;Node3 -->
<g id="edge4_Node000003_Node000005" class="edge">
<title>Node5&#45;&gt;Node3</title>
<g id="a_edge4_Node000003_Node000005"><a xlink:title=" ">
<path fill="none" stroke="#9a32cd" stroke-dasharray="5,2" d="M225.29,-228.24C192.44,-212.83 138.09,-187.35 109.84,-174.1"/>
<polygon fill="#9a32cd" stroke="#9a32cd" points="223.8,-231.41 234.34,-232.49 226.78,-225.07 223.8,-231.41"/>
</a>
</g>
<text text-anchor="start" x="185" y="-197.5" font-family="Helvetica,sans-Serif" font-size="10.00" fill="grey">trace</text>
</g>
<!-- Node5&#45;&gt;Node5 -->
<g id="edge5_Node000005_Node000005" class="edge">
<title>Node5&#45;&gt;Node5</title>
<g id="a_edge5_Node000005_Node000005"><a xlink:title=" ">
<path fill="none" stroke="#9a32cd" stroke-dasharray="5,2" d="M349.75,-246.85C354.62,-245.64 357.5,-244.03 357.5,-242 357.5,-238.84 350.49,-236.67 339.8,-235.51"/>
<polygon fill="#9a32cd" stroke="#9a32cd" points="349.1,-243.41 339.8,-248.49 350.24,-250.31 349.1,-243.41"/>
</a>
</g>
<text text-anchor="start" x="360.5" y="-239" font-family="Helvetica,sans-Serif" font-size="10.00" fill="grey">next</text>
</g>
</g>
</svg>
