<?xml version="1.0" encoding="UTF-8" standalone="no"?>
<!DOCTYPE svg PUBLIC "-//W3C//DTD SVG 1.1//EN"
 "http://www.w3.org/Graphics/SVG/1.1/DTD/svg11.dtd">
<!-- Generated by graphviz version 2.43.0 (0)
 -->
<!-- Title: fiftyoneDegreesResultHashArray Pages: 1 -->
<svg width="394pt" height="193pt"
 viewBox="0.00 0.00 393.50 193.00" xmlns="http://www.w3.org/2000/svg" xmlns:xlink="http://www.w3.org/1999/xlink">
<g id="graph0" class="graph" transform="scale(1 1) rotate(0) translate(4 189)">
<title>fiftyoneDegreesResultHashArray</title>
<!-- Node1 -->
<g id="Node000001" class="node">
<title>Node1</title>
<g id="a_Node000001"><a xlink:title="Array of items of type fiftyoneDegreesResultHash used to easily access and track the size of the arra...">
<polygon fill="#999999" stroke="#666666" points="166,-30 17,-30 17,0 166,0 166,-30"/>
<text text-anchor="start" x="25" y="-18" font-family="Helvetica,sans-Serif" font-size="10.00">fiftyoneDegreesResultHash</text>
<text text-anchor="middle" x="91.5" y="-7" font-family="Helvetica,sans-Serif" font-size="10.00">Array</text>
</a>
</g>
</g>
<!-- Node2 -->
<g id="Node000002" class="node">
<title>Node2</title>
<g id="a_Node000002"><a xlink:href="structfiftyone_degrees_result_hash.html" target="_top" xlink:title="Singular User&#45;Agent result returned by a Hash process method.">
<polygon fill="white" stroke="#666666" points="166,-102 17,-102 17,-83 166,-83 166,-102"/>
<text text-anchor="middle" x="91.5" y="-90" font-family="Helvetica,sans-Serif" font-size="10.00">fiftyoneDegreesResultHash</text>
</a>
</g>
</g>
<!-- Node2&#45;&gt;Node1 -->
<g id="edge1_Node000001_Node000002" class="edge">
<title>Node2&#45;&gt;Node1</title>
<g id="a_edge1_Node000001_Node000002"><a xlink:title=" ">
<path fill="none" stroke="#9a32cd" stroke-dasharray="5,2" d="M91.5,-72.57C91.5,-59.43 91.5,-42.18 91.5,-30.21"/>
<polygon fill="#9a32cd" stroke="#9a32cd" points="88,-72.84 91.5,-82.84 95,-72.84 88,-72.84"/>
</a>
</g>
<text text-anchor="start" x="94.5" y="-53.5" font-family="Helvetica,sans-Serif" font-size="10.00" fill="grey">items</text>
</g>
<!-- Node3 -->
<g id="Node000003" class="node">
<title>Node3</title>
<g id="a_Node000003"><a xlink:href="structfiftyone_degrees_result_user_agent.html" target="_top" xlink:title="Singular User&#45;Agent result returned by a device detection process method.">
<polygon fill="white" stroke="#666666" points="147,-185 0,-185 0,-155 147,-155 147,-185"/>
<text text-anchor="start" x="8" y="-173" font-family="Helvetica,sans-Serif" font-size="10.00">fiftyoneDegreesResultUser</text>
<text text-anchor="middle" x="73.5" y="-162" font-family="Helvetica,sans-Serif" font-size="10.00">Agent</text>
</a>
</g>
</g>
<!-- Node3&#45;&gt;Node2 -->
<g id="edge2_Node000002_Node000003" class="edge">
<title>Node3&#45;&gt;Node2</title>
<g id="a_edge2_Node000002_Node000003"><a xlink:title=" ">
<path fill="none" stroke="#9a32cd" stroke-dasharray="5,2" d="M79.26,-144.83C82.76,-130.15 87.01,-112.32 89.47,-102.01"/>
<polygon fill="#9a32cd" stroke="#9a32cd" points="75.8,-144.26 76.89,-154.8 82.61,-145.88 75.8,-144.26"/>
</a>
</g>
<text text-anchor="start" x="89" y="-125.5" font-family="Helvetica,sans-Serif" font-size="10.00" fill="grey">b</text>
</g>
<!-- Node4 -->
<g id="Node000004" class="node">
<title>Node4</title>
<g id="a_Node000004"><a xlink:href="structfiftyone_degrees_graph_trace_node.html" target="_top" xlink:title="Trace node structure used to trace the route taken when evaluating a graph.">
<polygon fill="white" stroke="#666666" points="339.5,-179.5 165.5,-179.5 165.5,-160.5 339.5,-160.5 339.5,-179.5"/>
<text text-anchor="middle" x="252.5" y="-167.5" font-family="Helvetica,sans-Serif" font-size="10.00">fiftyoneDegreesGraphTraceNode</text>
</a>
</g>
</g>
<!-- Node4&#45;&gt;Node2 -->
<g id="edge3_Node000002_Node000004" class="edge">
<title>Node4&#45;&gt;Node2</title>
<g id="a_edge3_Node000002_Node000004"><a xlink:title=" ">
<path fill="none" stroke="#9a32cd" stroke-dasharray="5,2" d="M225.29,-156.24C192.44,-140.83 138.09,-115.35 109.84,-102.1"/>
<polygon fill="#9a32cd" stroke="#9a32cd" points="223.8,-159.41 234.34,-160.49 226.78,-153.07 223.8,-159.41"/>
</a>
</g>
<text text-anchor="start" x="185" y="-125.5" font-family="Helvetica,sans-Serif" font-size="10.00" fill="grey">trace</text>
</g>
<!-- Node4&#45;&gt;Node4 -->
<g id="edge4_Node000004_Node000004" class="edge">
<title>Node4&#45;&gt;Node4</title>
<g id="a_edge4_Node000004_Node000004"><a xlink:title=" ">
<path fill="none" stroke="#9a32cd" stroke-dasharray="5,2" d="M349.75,-174.85C354.62,-173.64 357.5,-172.03 357.5,-170 357.5,-166.84 350.49,-164.67 339.8,-163.51"/>
<polygon fill="#9a32cd" stroke="#9a32cd" points="349.1,-171.41 339.8,-176.49 350.24,-178.31 349.1,-171.41"/>
</a>
</g>
<text text-anchor="start" x="360.5" y="-167" font-family="Helvetica,sans-Serif" font-size="10.00" fill="grey">next</text>
</g>
</g>
</svg>
