<?xml version="1.0" encoding="UTF-8" standalone="no"?>
<!DOCTYPE svg PUBLIC "-//W3C//DTD SVG 1.1//EN"
 "http://www.w3.org/Graphics/SVG/1.1/DTD/svg11.dtd">
<!-- Generated by graphviz version 2.43.0 (0)
 -->
<!-- Title: fiftyoneDegreesDataSetDeviceDetection Pages: 1 -->
<svg width="1940pt" height="345pt"
 viewBox="0.00 0.00 1940.00 344.60" xmlns="http://www.w3.org/2000/svg" xmlns:xlink="http://www.w3.org/1999/xlink">
<g id="graph0" class="graph" transform="scale(1 1) rotate(0) translate(4 340.6)">
<title>fiftyoneDegreesDataSetDeviceDetection</title>
<!-- Node1 -->
<g id="Node000001" class="node">
<title>Node1</title>
<g id="a_Node000001"><a xlink:title="Device detection data set structure which contains the &#39;must have&#39;s for all device detection data set...">
<polygon fill="#999999" stroke="#666666" points="1932,-136.6 1765,-136.6 1765,-106.6 1932,-106.6 1932,-136.6"/>
<text text-anchor="start" x="1773" y="-124.6" font-family="Helvetica,sans-Serif" font-size="10.00">fiftyoneDegreesDataSetDevice</text>
<text text-anchor="middle" x="1848.5" y="-113.6" font-family="Helvetica,sans-Serif" font-size="10.00">Detection</text>
</a>
</g>
</g>
<!-- Node2 -->
<g id="Node000002" class="node">
<title>Node2</title>
<g id="a_Node000002"><a xlink:href="structfiftyone_degrees_data_set_base.html" target="_top" xlink:title="Base data set structure which contains the &#39;must have&#39;s for all data sets.">
<polygon fill="white" stroke="#666666" points="1645.5,-154.1 1488.5,-154.1 1488.5,-135.1 1645.5,-135.1 1645.5,-154.1"/>
<text text-anchor="middle" x="1567" y="-142.1" font-family="Helvetica,sans-Serif" font-size="10.00">fiftyoneDegreesDataSetBase</text>
</a>
</g>
</g>
<!-- Node2&#45;&gt;Node1 -->
<g id="edge1_Node000001_Node000002" class="edge">
<title>Node2&#45;&gt;Node1</title>
<g id="a_edge1_Node000001_Node000002"><a xlink:title=" ">
<path fill="none" stroke="#9a32cd" stroke-dasharray="5,2" d="M1655.99,-137.36C1690.74,-134.5 1730.46,-131.23 1764.69,-128.41"/>
<polygon fill="#9a32cd" stroke="#9a32cd" points="1655.54,-133.88 1645.86,-138.19 1656.11,-140.86 1655.54,-133.88"/>
</a>
</g>
<text text-anchor="start" x="1708.5" y="-141.1" font-family="Helvetica,sans-Serif" font-size="10.00" fill="grey">b</text>
</g>
<!-- Node3 -->
<g id="Node000003" class="node">
<title>Node3</title>
<g id="a_Node000003"><a xlink:href="structfiftyone_degrees_file_pool.html" target="_top" xlink:title="Stack of handles used to read data from a single source file.">
<polygon fill="white" stroke="#666666" points="1311.5,-214.1 1179.5,-214.1 1179.5,-195.1 1311.5,-195.1 1311.5,-214.1"/>
<text text-anchor="middle" x="1245.5" y="-202.1" font-family="Helvetica,sans-Serif" font-size="10.00">fiftyoneDegreesFilePool</text>
</a>
</g>
</g>
<!-- Node3&#45;&gt;Node2 -->
<g id="edge2_Node000002_Node000003" class="edge">
<title>Node3&#45;&gt;Node2</title>
<g id="a_edge2_Node000002_Node000003"><a xlink:title=" ">
<path fill="none" stroke="#9a32cd" stroke-dasharray="5,2" d="M1321.98,-199.88C1362.62,-196.37 1413.42,-190.44 1458,-180.6 1487.53,-174.07 1520.34,-162.49 1541.96,-154.22"/>
<polygon fill="#9a32cd" stroke="#9a32cd" points="1321.55,-196.4 1311.87,-200.72 1322.13,-203.38 1321.55,-196.4"/>
</a>
</g>
<text text-anchor="start" x="1387" y="-203.1" font-family="Helvetica,sans-Serif" font-size="10.00" fill="grey">filePool</text>
</g>
<!-- Node4 -->
<g id="Node000004" class="node">
<title>Node4</title>
<g id="a_Node000004"><a xlink:href="structfiftyone_degrees_pool.html" target="_top" xlink:title="Pool of resources stored as items in a stack.">
<polygon fill="white" stroke="#666666" points="910,-243.1 795,-243.1 795,-224.1 910,-224.1 910,-243.1"/>
<text text-anchor="middle" x="852.5" y="-231.1" font-family="Helvetica,sans-Serif" font-size="10.00">fiftyoneDegreesPool</text>
</a>
</g>
</g>
<!-- Node4&#45;&gt;Node3 -->
<g id="edge3_Node000003_Node000004" class="edge">
<title>Node4&#45;&gt;Node3</title>
<g id="a_edge3_Node000003_Node000004"><a xlink:title=" ">
<path fill="none" stroke="#9a32cd" stroke-dasharray="5,2" d="M882.34,-219.77C903.12,-210.6 932.12,-199.41 959,-194.6 1035.53,-180.9 1125.38,-187.73 1183.54,-195.08"/>
<polygon fill="#9a32cd" stroke="#9a32cd" points="880.8,-216.62 873.13,-223.94 883.68,-223 880.8,-216.62"/>
</a>
</g>
<text text-anchor="start" x="1038" y="-200.1" font-family="Helvetica,sans-Serif" font-size="10.00" fill="grey">pool</text>
</g>
<!-- Node4&#45;&gt;Node4 -->
<g id="edge7_Node000004_Node000004" class="edge">
<title>Node4&#45;&gt;Node4</title>
<g id="a_edge7_Node000004_Node000004"><a xlink:title=" ">
<path fill="none" stroke="#9a32cd" stroke-dasharray="5,2" d="M827.95,-252.29C829.29,-257.29 837.47,-261.1 852.5,-261.1 875.96,-261.1 882.74,-251.83 872.85,-243.18"/>
<polygon fill="#9a32cd" stroke="#9a32cd" points="831.14,-253.72 832.15,-243.18 824.78,-250.79 831.14,-253.72"/>
</a>
</g>
<text text-anchor="start" x="820.5" y="-266.6" font-family="Helvetica,sans-Serif" font-size="10.00" fill="grey">resourceFree</text>
</g>
<!-- Node5 -->
<g id="Node000005" class="node">
<title>Node5</title>
<g id="a_Node000005"><a xlink:href="structfiftyone_degrees_pool_item.html" target="_top" xlink:title="Pool item node in the stack of items.">
<polygon fill="white" stroke="#666666" points="1314,-274.1 1177,-274.1 1177,-255.1 1314,-255.1 1314,-274.1"/>
<text text-anchor="middle" x="1245.5" y="-262.1" font-family="Helvetica,sans-Serif" font-size="10.00">fiftyoneDegreesPoolItem</text>
</a>
</g>
</g>
<!-- Node4&#45;&gt;Node5 -->
<g id="edge5_Node000005_Node000004" class="edge">
<title>Node4&#45;&gt;Node5</title>
<g id="a_edge5_Node000005_Node000004"><a xlink:title=" ">
<path fill="none" stroke="#9a32cd" stroke-dasharray="5,2" d="M920.4,-226.67C978.55,-222.12 1064.86,-218.94 1139,-230.6 1168.47,-235.23 1200.93,-246.71 1221.95,-255.06"/>
<polygon fill="#9a32cd" stroke="#9a32cd" points="919.92,-223.2 910.24,-227.5 920.49,-230.17 919.92,-223.2"/>
</a>
</g>
<text text-anchor="start" x="1038" y="-236.1" font-family="Helvetica,sans-Serif" font-size="10.00" fill="grey">pool</text>
</g>
<!-- Node5&#45;&gt;Node4 -->
<g id="edge4_Node000004_Node000005" class="edge">
<title>Node5&#45;&gt;Node4</title>
<g id="a_edge4_Node000004_Node000005"><a xlink:title=" ">
<path fill="none" stroke="#9a32cd" stroke-dasharray="5,2" d="M1166.72,-263.64C1109.2,-262.31 1029.04,-259.14 959,-251.6 940.16,-249.57 919.58,-246.3 901.64,-243.1"/>
<polygon fill="#9a32cd" stroke="#9a32cd" points="1166.76,-267.15 1176.83,-263.86 1166.91,-260.15 1166.76,-267.15"/>
</a>
</g>
<text text-anchor="start" x="1036" y="-268.1" font-family="Helvetica,sans-Serif" font-size="10.00" fill="grey">stack</text>
</g>
<!-- Node6 -->
<g id="Node000006" class="node">
<title>Node6</title>
<g id="a_Node000006"><a xlink:href="unionfiftyone_degrees_pool_head.html" target="_top" xlink:title="The head of the stack used for pop and push operations.">
<polygon fill="white" stroke="#666666" points="656,-243.1 516,-243.1 516,-224.1 656,-224.1 656,-243.1"/>
<text text-anchor="middle" x="586" y="-231.1" font-family="Helvetica,sans-Serif" font-size="10.00">fiftyoneDegreesPoolHead</text>
</a>
</g>
</g>
<!-- Node6&#45;&gt;Node4 -->
<g id="edge6_Node000004_Node000006" class="edge">
<title>Node6&#45;&gt;Node4</title>
<g id="a_edge6_Node000004_Node000006"><a xlink:title=" ">
<path fill="none" stroke="#9a32cd" stroke-dasharray="5,2" d="M666.2,-233.6C707.59,-233.6 757.28,-233.6 794.78,-233.6"/>
<polygon fill="#9a32cd" stroke="#9a32cd" points="666.15,-230.1 656.15,-233.6 666.15,-237.1 666.15,-230.1"/>
</a>
</g>
<text text-anchor="start" x="708" y="-239.1" font-family="Helvetica,sans-Serif" font-size="10.00" fill="grey">head</text>
</g>
<!-- Node7 -->
<g id="Node000007" class="node">
<title>Node7</title>
<g id="a_Node000007"><a xlink:href="structfiftyone_degrees_resource_handle.html" target="_top" xlink:title="Handle for a shared resource.">
<polygon fill="white" stroke="#666666" points="1332,-317.1 1159,-317.1 1159,-298.1 1332,-298.1 1332,-317.1"/>
<text text-anchor="middle" x="1245.5" y="-305.1" font-family="Helvetica,sans-Serif" font-size="10.00">fiftyoneDegreesResourceHandle</text>
</a>
</g>
</g>
<!-- Node7&#45;&gt;Node2 -->
<g id="edge8_Node000002_Node000007" class="edge">
<title>Node7&#45;&gt;Node2</title>
<g id="a_edge8_Node000002_Node000007"><a xlink:title=" ">
<path fill="none" stroke="#9a32cd" stroke-dasharray="5,2" d="M1300.67,-295.29C1311.89,-292.04 1323.49,-288.14 1334,-283.6 1342.61,-279.88 1343.82,-277.17 1352,-272.6 1398.15,-246.79 1412.54,-245.6 1458,-218.6 1493.57,-197.47 1533.15,-168.98 1553.06,-154.28"/>
<polygon fill="#9a32cd" stroke="#9a32cd" points="1299.65,-291.95 1290.94,-297.99 1301.52,-298.69 1299.65,-291.95"/>
</a>
</g>
<text text-anchor="start" x="1388" y="-278.1" font-family="Helvetica,sans-Serif" font-size="10.00" fill="grey">handle</text>
</g>
<!-- Node9 -->
<g id="Node000009" class="node">
<title>Node9</title>
<g id="a_Node000009"><a xlink:href="structfiftyone_degrees_resource_manager.html" target="_top" xlink:title="Manager structure used to provide access to a shared and changing resource.">
<polygon fill="white" stroke="#666666" points="1658,-329.1 1476,-329.1 1476,-310.1 1658,-310.1 1658,-329.1"/>
<text text-anchor="middle" x="1567" y="-317.1" font-family="Helvetica,sans-Serif" font-size="10.00">fiftyoneDegreesResourceManager</text>
</a>
</g>
</g>
<!-- Node7&#45;&gt;Node9 -->
<g id="edge11_Node000009_Node000007" class="edge">
<title>Node7&#45;&gt;Node9</title>
<g id="a_edge11_Node000009_Node000007"><a xlink:title=" ">
<path fill="none" stroke="#9a32cd" stroke-dasharray="5,2" d="M1330.76,-297.17C1369.58,-293.92 1416.21,-292.2 1458,-296.6 1482.4,-299.17 1509.4,-304.92 1530.3,-310.02"/>
<polygon fill="#9a32cd" stroke="#9a32cd" points="1330.2,-293.71 1320.55,-298.08 1330.82,-300.68 1330.2,-293.71"/>
</a>
</g>
<text text-anchor="start" x="1390" y="-302.1" font-family="Helvetica,sans-Serif" font-size="10.00" fill="grey">active</text>
</g>
<!-- Node8 -->
<g id="Node000008" class="node">
<title>Node8</title>
<g id="a_Node000008"><a xlink:href="structfiftyone_degrees_interlock_double_width.html" target="_top" xlink:title="Double width (64 or 128 depending on the architecture) compare and exchange.">
<polygon fill="white" stroke="#666666" points="921,-328.6 784,-328.6 784,-298.6 921,-298.6 921,-328.6"/>
<text text-anchor="start" x="792" y="-316.6" font-family="Helvetica,sans-Serif" font-size="10.00">fiftyoneDegreesInterlock</text>
<text text-anchor="middle" x="852.5" y="-305.6" font-family="Helvetica,sans-Serif" font-size="10.00">DoubleWidth</text>
</a>
</g>
</g>
<!-- Node8&#45;&gt;Node7 -->
<g id="edge9_Node000007_Node000008" class="edge">
<title>Node8&#45;&gt;Node7</title>
<g id="a_edge9_Node000007_Node000008"><a xlink:title=" ">
<path fill="none" stroke="#9a32cd" stroke-dasharray="5,2" d="M931.46,-312.4C997.18,-311.39 1091.1,-309.95 1158.89,-308.91"/>
<polygon fill="#9a32cd" stroke="#9a32cd" points="931.11,-308.9 921.16,-312.56 931.21,-315.9 931.11,-308.9"/>
</a>
</g>
<text text-anchor="start" x="1031" y="-317.1" font-family="Helvetica,sans-Serif" font-size="10.00" fill="grey">counter</text>
</g>
<!-- Node9&#45;&gt;Node7 -->
<g id="edge10_Node000007_Node000009" class="edge">
<title>Node9&#45;&gt;Node7</title>
<g id="a_edge10_Node000007_Node000009"><a xlink:title=" ">
<path fill="none" stroke="#9a32cd" stroke-dasharray="5,2" d="M1465.42,-320.42C1429.6,-320.25 1388.98,-319.52 1352,-317.6 1345.57,-317.26 1338.93,-316.83 1332.25,-316.34"/>
<polygon fill="#9a32cd" stroke="#9a32cd" points="1465.87,-323.92 1475.88,-320.46 1465.89,-316.92 1465.87,-323.92"/>
</a>
</g>
<text text-anchor="start" x="1383" y="-325.1" font-family="Helvetica,sans-Serif" font-size="10.00" fill="grey">manager</text>
</g>
<!-- Node10 -->
<g id="Node000010" class="node">
<title>Node10</title>
<g id="a_Node000010"><a xlink:href="structfiftyone_degrees_property_available_array.html" target="_top" xlink:title="Array of items of type fiftyoneDegreesPropertyAvailable used to easily access and track the size of t...">
<polygon fill="white" stroke="#666666" points="1139,-43.6 959,-43.6 959,-13.6 1139,-13.6 1139,-43.6"/>
<text text-anchor="start" x="967" y="-31.6" font-family="Helvetica,sans-Serif" font-size="10.00">fiftyoneDegreesPropertyAvailable</text>
<text text-anchor="middle" x="1049" y="-20.6" font-family="Helvetica,sans-Serif" font-size="10.00">Array</text>
</a>
</g>
</g>
<!-- Node10&#45;&gt;Node2 -->
<g id="edge12_Node000002_Node000010" class="edge">
<title>Node10&#45;&gt;Node2</title>
<g id="a_edge12_Node000002_Node000010"><a xlink:title=" ">
<path fill="none" stroke="#9a32cd" stroke-dasharray="5,2" d="M1122.75,-11.67C1213.92,4.82 1368.96,16.46 1458,-68.6 1477.21,-86.95 1456.32,-107.75 1476,-125.6 1480.14,-129.35 1484.83,-132.43 1489.84,-134.96"/>
<polygon fill="#9a32cd" stroke="#9a32cd" points="1121.96,-8.25 1112.78,-13.54 1123.25,-15.13 1121.96,-8.25"/>
</a>
</g>
<text text-anchor="start" x="1222.5" y="-13.1" font-family="Helvetica,sans-Serif" font-size="10.00" fill="grey">available</text>
</g>
<!-- Node11 -->
<g id="Node000011" class="node">
<title>Node11</title>
<g id="a_Node000011"><a xlink:href="structfiftyone_degrees_property_available.html" target="_top" xlink:title="Used to access the property item quickly without the need to search.">
<polygon fill="white" stroke="#666666" points="676,-60.1 496,-60.1 496,-41.1 676,-41.1 676,-60.1"/>
<text text-anchor="middle" x="586" y="-48.1" font-family="Helvetica,sans-Serif" font-size="10.00">fiftyoneDegreesPropertyAvailable</text>
</a>
</g>
</g>
<!-- Node11&#45;&gt;Node10 -->
<g id="edge13_Node000010_Node000011" class="edge">
<title>Node11&#45;&gt;Node10</title>
<g id="a_edge13_Node000010_Node000011"><a xlink:title=" ">
<path fill="none" stroke="#9a32cd" stroke-dasharray="5,2" d="M684.67,-40.27C687.81,-40.03 690.93,-39.8 694,-39.6 784.03,-33.58 887.17,-30.84 958.8,-29.61"/>
<polygon fill="#9a32cd" stroke="#9a32cd" points="684.23,-36.79 674.55,-41.08 684.8,-43.77 684.23,-36.79"/>
</a>
</g>
<text text-anchor="start" x="706" y="-45.1" font-family="Helvetica,sans-Serif" font-size="10.00" fill="grey">items</text>
</g>
<!-- Node18 -->
<g id="Node000018" class="node">
<title>Node18</title>
<g id="a_Node000018"><a xlink:href="structfiftyone_degrees_override_property.html" target="_top" xlink:title="Index and pointer to a property which can be overridden.">
<polygon fill="white" stroke="#666666" points="941,-84.1 764,-84.1 764,-65.1 941,-65.1 941,-84.1"/>
<text text-anchor="middle" x="852.5" y="-72.1" font-family="Helvetica,sans-Serif" font-size="10.00">fiftyoneDegreesOverrideProperty</text>
</a>
</g>
</g>
<!-- Node11&#45;&gt;Node18 -->
<g id="edge23_Node000018_Node000011" class="edge">
<title>Node11&#45;&gt;Node18</title>
<g id="a_edge23_Node000018_Node000011"><a xlink:title=" ">
<path fill="none" stroke="#9a32cd" stroke-dasharray="5,2" d="M686.2,-59.6C711.63,-61.9 738.8,-64.37 763.61,-66.62"/>
<polygon fill="#9a32cd" stroke="#9a32cd" points="686.45,-56.11 676.18,-58.69 685.82,-63.08 686.45,-56.11"/>
</a>
</g>
<text text-anchor="start" x="697" y="-71.1" font-family="Helvetica,sans-Serif" font-size="10.00" fill="grey">available</text>
</g>
<!-- Node12 -->
<g id="Node000012" class="node">
<title>Node12</title>
<g id="a_Node000012"><a xlink:href="structfiftyone_degrees_collection_item.html" target="_top" xlink:title="Used to store a handle to the underlying item that could be used to release the item when it&#39;s finish...">
<polygon fill="white" stroke="#666666" points="353,-121.1 188,-121.1 188,-102.1 353,-102.1 353,-121.1"/>
<text text-anchor="middle" x="270.5" y="-109.1" font-family="Helvetica,sans-Serif" font-size="10.00">fiftyoneDegreesCollectionItem</text>
</a>
</g>
</g>
<!-- Node12&#45;&gt;Node11 -->
<g id="edge14_Node000011_Node000012" class="edge">
<title>Node12&#45;&gt;Node11</title>
<g id="a_edge14_Node000011_Node000012"><a xlink:title=" ">
<path fill="none" stroke="#9a32cd" stroke-dasharray="5,2" d="M317.57,-99.58C336.26,-94.91 358.09,-89.7 378,-85.6 425.83,-75.73 480.31,-66.6 521.36,-60.14"/>
<polygon fill="#9a32cd" stroke="#9a32cd" points="316.67,-96.2 307.83,-102.04 318.38,-102.99 316.67,-96.2"/>
</a>
</g>
<text text-anchor="start" x="414" y="-91.1" font-family="Helvetica,sans-Serif" font-size="10.00" fill="grey">name</text>
</g>
<!-- Node14 -->
<g id="Node000014" class="node">
<title>Node14</title>
<g id="a_Node000014"><a xlink:href="structfiftyone_degrees_collection.html" target="_top" xlink:title="All the shared methods and fields required by file, memory and cached collections.">
<polygon fill="white" stroke="#666666" points="657.5,-137.1 514.5,-137.1 514.5,-118.1 657.5,-118.1 657.5,-137.1"/>
<text text-anchor="middle" x="586" y="-125.1" font-family="Helvetica,sans-Serif" font-size="10.00">fiftyoneDegreesCollection</text>
</a>
</g>
</g>
<!-- Node12&#45;&gt;Node14 -->
<g id="edge18_Node000014_Node000012" class="edge">
<title>Node12&#45;&gt;Node14</title>
<g id="a_edge18_Node000014_Node000012"><a xlink:title=" ">
<path fill="none" stroke="#9a32cd" stroke-dasharray="5,2" d="M363.48,-106.24C399.28,-105.2 440.62,-105.3 478,-108.6 499.05,-110.45 522.16,-114.32 541.5,-118.08"/>
<polygon fill="#9a32cd" stroke="#9a32cd" points="362.93,-102.75 353.05,-106.58 363.15,-109.75 362.93,-102.75"/>
</a>
</g>
<text text-anchor="start" x="410" y="-114.1" font-family="Helvetica,sans-Serif" font-size="10.00" fill="grey">release</text>
</g>
<!-- Node13 -->
<g id="Node000013" class="node">
<title>Node13</title>
<g id="a_Node000013"><a xlink:href="structfiftyone_degrees_data.html" target="_top" xlink:title="Data structure used for reusing memory which may have been allocated in a previous operation.">
<polygon fill="white" stroke="#666666" points="117,-121.1 0,-121.1 0,-102.1 117,-102.1 117,-121.1"/>
<text text-anchor="middle" x="58.5" y="-109.1" font-family="Helvetica,sans-Serif" font-size="10.00">fiftyoneDegreesData</text>
</a>
</g>
</g>
<!-- Node13&#45;&gt;Node12 -->
<g id="edge15_Node000012_Node000013" class="edge">
<title>Node13&#45;&gt;Node12</title>
<g id="a_edge15_Node000012_Node000013"><a xlink:title=" ">
<path fill="none" stroke="#9a32cd" stroke-dasharray="5,2" d="M127.37,-111.6C146.69,-111.6 167.94,-111.6 187.98,-111.6"/>
<polygon fill="#9a32cd" stroke="#9a32cd" points="127.16,-108.1 117.16,-111.6 127.16,-115.1 127.16,-108.1"/>
</a>
</g>
<text text-anchor="start" x="138" y="-117.1" font-family="Helvetica,sans-Serif" font-size="10.00" fill="grey">data</text>
</g>
<!-- Node14&#45;&gt;Node12 -->
<g id="edge16_Node000012_Node000014" class="edge">
<title>Node14&#45;&gt;Node12</title>
<g id="a_edge16_Node000012_Node000014"><a xlink:title=" ">
<path fill="none" stroke="#9a32cd" stroke-dasharray="5,2" d="M504.38,-131.86C466.04,-133 419.59,-133.09 378,-129.6 358.1,-127.93 336.32,-124.53 317.68,-121.13"/>
<polygon fill="#9a32cd" stroke="#9a32cd" points="504.58,-135.36 514.46,-131.53 504.35,-128.36 504.58,-135.36"/>
</a>
</g>
<text text-anchor="start" x="404" y="-138.1" font-family="Helvetica,sans-Serif" font-size="10.00" fill="grey">collection</text>
</g>
<!-- Node14&#45;&gt;Node14 -->
<g id="edge17_Node000014_Node000014" class="edge">
<title>Node14&#45;&gt;Node14</title>
<g id="a_edge17_Node000014_Node000014"><a xlink:title=" ">
<path fill="none" stroke="#9a32cd" stroke-dasharray="5,2" d="M561.07,-146.29C562.43,-151.29 570.74,-155.1 586,-155.1 609.82,-155.1 616.7,-145.83 606.65,-137.18"/>
<polygon fill="#9a32cd" stroke="#9a32cd" points="564.27,-147.72 565.35,-137.18 557.93,-144.75 564.27,-147.72"/>
</a>
</g>
<text text-anchor="start" x="552" y="-176.1" font-family="Helvetica,sans-Serif" font-size="10.00" fill="grey">freeCollection</text>
<text text-anchor="start" x="552" y="-161.1" font-family="Helvetica,sans-Serif" font-size="10.00" fill="grey">get</text>
</g>
<!-- Node15 -->
<g id="Node000015" class="node">
<title>Node15</title>
<g id="a_Node000015"><a xlink:href="structfiftyone_degrees_evidence_property_index_array.html" target="_top" xlink:title="Array of items of type fiftyoneDegreesEvidencePropertyIndex used to easily access and track the size ...">
<polygon fill="white" stroke="#666666" points="360,-46.6 181,-46.6 181,-16.6 360,-16.6 360,-46.6"/>
<text text-anchor="start" x="189" y="-34.6" font-family="Helvetica,sans-Serif" font-size="10.00">fiftyoneDegreesEvidenceProperty</text>
<text text-anchor="middle" x="270.5" y="-23.6" font-family="Helvetica,sans-Serif" font-size="10.00">IndexArray</text>
</a>
</g>
</g>
<!-- Node15&#45;&gt;Node11 -->
<g id="edge19_Node000011_Node000015" class="edge">
<title>Node15&#45;&gt;Node11</title>
<g id="a_edge19_Node000011_Node000015"><a xlink:title=" ">
<path fill="none" stroke="#9a32cd" stroke-dasharray="5,2" d="M370.07,-28.83C404.3,-28.73 442.89,-29.58 478,-32.6 497.89,-34.31 519.66,-37.69 538.33,-41.06"/>
<polygon fill="#9a32cd" stroke="#9a32cd" points="370.05,-25.33 360.07,-28.89 370.09,-32.33 370.05,-25.33"/>
</a>
</g>
<text text-anchor="start" x="381" y="-38.1" font-family="Helvetica,sans-Serif" font-size="10.00" fill="grey">evidenceProperties</text>
</g>
<!-- Node16 -->
<g id="Node000016" class="node">
<title>Node16</title>
<g id="a_Node000016"><a xlink:href="structfiftyone_degrees_header_array.html" target="_top" xlink:title="Array of Headers which should always be ordered in ascending order of fullHeaderId.">
<polygon fill="white" stroke="#666666" points="1323,-177.1 1168,-177.1 1168,-158.1 1323,-158.1 1323,-177.1"/>
<text text-anchor="middle" x="1245.5" y="-165.1" font-family="Helvetica,sans-Serif" font-size="10.00">fiftyoneDegreesHeaderArray</text>
</a>
</g>
</g>
<!-- Node16&#45;&gt;Node2 -->
<g id="edge20_Node000002_Node000016" class="edge">
<title>Node16&#45;&gt;Node2</title>
<g id="a_edge20_Node000002_Node000016"><a xlink:title=" ">
<path fill="none" stroke="#9a32cd" stroke-dasharray="5,2" d="M1333.19,-161.36C1381.64,-157.87 1441.53,-153.56 1488.43,-150.18"/>
<polygon fill="#9a32cd" stroke="#9a32cd" points="1332.75,-157.88 1323.03,-162.09 1333.25,-164.86 1332.75,-157.88"/>
</a>
</g>
<text text-anchor="start" x="1368" y="-165.1" font-family="Helvetica,sans-Serif" font-size="10.00" fill="grey">uniqueHeaders</text>
</g>
<!-- Node17 -->
<g id="Node000017" class="node">
<title>Node17</title>
<g id="a_Node000017"><a xlink:href="structfiftyone_degrees_override_property_array.html" target="_top" xlink:title="Array of items of type fiftyoneDegreesOverrideProperty used to easily access and track the size of th...">
<polygon fill="white" stroke="#666666" points="1334,-91.6 1157,-91.6 1157,-61.6 1334,-61.6 1334,-91.6"/>
<text text-anchor="start" x="1165" y="-79.6" font-family="Helvetica,sans-Serif" font-size="10.00">fiftyoneDegreesOverrideProperty</text>
<text text-anchor="middle" x="1245.5" y="-68.6" font-family="Helvetica,sans-Serif" font-size="10.00">Array</text>
</a>
</g>
</g>
<!-- Node17&#45;&gt;Node2 -->
<g id="edge21_Node000002_Node000017" class="edge">
<title>Node17&#45;&gt;Node2</title>
<g id="a_edge21_Node000002_Node000017"><a xlink:title=" ">
<path fill="none" stroke="#9a32cd" stroke-dasharray="5,2" d="M1344.16,-71.25C1381.93,-73.24 1424.12,-80.75 1458,-100.6 1469.81,-107.52 1464.53,-118.12 1476,-125.6 1481.89,-129.43 1488.41,-132.51 1495.17,-134.98"/>
<polygon fill="#9a32cd" stroke="#9a32cd" points="1344.28,-67.76 1334.15,-70.85 1344,-74.75 1344.28,-67.76"/>
</a>
</g>
<text text-anchor="start" x="1377" y="-106.1" font-family="Helvetica,sans-Serif" font-size="10.00" fill="grey">overridable</text>
</g>
<!-- Node18&#45;&gt;Node17 -->
<g id="edge22_Node000017_Node000018" class="edge">
<title>Node18&#45;&gt;Node17</title>
<g id="a_edge22_Node000017_Node000018"><a xlink:title=" ">
<path fill="none" stroke="#9a32cd" stroke-dasharray="5,2" d="M951.6,-75.1C1014.63,-75.42 1095.81,-75.84 1156.71,-76.15"/>
<polygon fill="#9a32cd" stroke="#9a32cd" points="951.27,-71.6 941.25,-75.05 951.23,-78.6 951.27,-71.6"/>
</a>
</g>
<text text-anchor="start" x="1035" y="-82.1" font-family="Helvetica,sans-Serif" font-size="10.00" fill="grey">items</text>
</g>
<!-- Node19 -->
<g id="Node000019" class="node">
<title>Node19</title>
<g id="a_Node000019"><a xlink:href="structfiftyone_degrees_indices_property_profile.html" target="_top" xlink:title="Maps the profile index and the property index to the first value index of the profile for the propert...">
<polygon fill="white" stroke="#666666" points="1330.5,-139.6 1160.5,-139.6 1160.5,-109.6 1330.5,-109.6 1330.5,-139.6"/>
<text text-anchor="start" x="1168.5" y="-127.6" font-family="Helvetica,sans-Serif" font-size="10.00">fiftyoneDegreesIndicesProperty</text>
<text text-anchor="middle" x="1245.5" y="-116.6" font-family="Helvetica,sans-Serif" font-size="10.00">Profile</text>
</a>
</g>
</g>
<!-- Node19&#45;&gt;Node2 -->
<g id="edge24_Node000002_Node000019" class="edge">
<title>Node19&#45;&gt;Node2</title>
<g id="a_edge24_Node000002_Node000019"><a xlink:title=" ">
<path fill="none" stroke="#9a32cd" stroke-dasharray="5,2" d="M1340.72,-121.63C1377.39,-121.37 1419.72,-122.16 1458,-125.6 1479.14,-127.49 1502.36,-131.34 1521.82,-135.08"/>
<polygon fill="#9a32cd" stroke="#9a32cd" points="1340.5,-118.13 1330.54,-121.73 1340.57,-125.13 1340.5,-118.13"/>
</a>
</g>
<text text-anchor="start" x="1355" y="-131.1" font-family="Helvetica,sans-Serif" font-size="10.00" fill="grey">indexPropertyProfile</text>
</g>
<!-- Node20 -->
<g id="Node000020" class="node">
<title>Node20</title>
<g id="a_Node000020"><a xlink:href="structfiftyone_degrees_header_ptr_array.html" target="_top" xlink:title="Array of header indexes.">
<polygon fill="white" stroke="#666666" points="1638.5,-116.6 1495.5,-116.6 1495.5,-86.6 1638.5,-86.6 1638.5,-116.6"/>
<text text-anchor="start" x="1503.5" y="-104.6" font-family="Helvetica,sans-Serif" font-size="10.00">fiftyoneDegreesHeaderPtr</text>
<text text-anchor="middle" x="1567" y="-93.6" font-family="Helvetica,sans-Serif" font-size="10.00">Array</text>
</a>
</g>
</g>
<!-- Node20&#45;&gt;Node1 -->
<g id="edge25_Node000001_Node000020" class="edge">
<title>Node20&#45;&gt;Node1</title>
<g id="a_edge25_Node000001_Node000020"><a xlink:title=" ">
<path fill="none" stroke="#9a32cd" stroke-dasharray="5,2" d="M1648.95,-99.66C1679.71,-99.67 1715.03,-100.58 1747,-103.6 1754.85,-104.34 1763.01,-105.37 1771.13,-106.56"/>
<polygon fill="#9a32cd" stroke="#9a32cd" points="1648.7,-96.16 1638.71,-99.69 1648.72,-103.16 1648.7,-96.16"/>
</a>
</g>
<text text-anchor="start" x="1679.5" y="-109.1" font-family="Helvetica,sans-Serif" font-size="10.00" fill="grey">ghevHeaders</text>
</g>
</g>
</svg>
