<?xml version="1.0" encoding="UTF-8" standalone="no"?>
<!DOCTYPE svg PUBLIC "-//W3C//DTD SVG 1.1//EN"
 "http://www.w3.org/Graphics/SVG/1.1/DTD/svg11.dtd">
<!-- Generated by graphviz version 2.43.0 (0)
 -->
<!-- Title: performanceConfig Pages: 1 -->
<svg width="328pt" height="374pt"
 viewBox="0.00 0.00 327.50 374.00" xmlns="http://www.w3.org/2000/svg" xmlns:xlink="http://www.w3.org/1999/xlink">
<g id="graph0" class="graph" transform="scale(1 1) rotate(0) translate(4 370)">
<title>performanceConfig</title>
<!-- Node1 -->
<g id="Node000001" class="node">
<title>Node1</title>
<g id="a_Node000001"><a xlink:title="Configuration to use when building the dataset for benchmarking.">
<polygon fill="#999999" stroke="#666666" points="219,-19 109,-19 109,0 219,0 219,-19"/>
<text text-anchor="middle" x="164" y="-7" font-family="Helvetica,sans-Serif" font-size="10.00">performanceConfig</text>
</a>
</g>
</g>
<!-- Node2 -->
<g id="Node000002" class="node">
<title>Node2</title>
<g id="a_Node000002"><a xlink:href="structfiftyone_degrees_config_hash.html" target="_top" xlink:title="Hash specific configuration structure.">
<polygon fill="white" stroke="#666666" points="238.5,-91 89.5,-91 89.5,-72 238.5,-72 238.5,-91"/>
<text text-anchor="middle" x="164" y="-79" font-family="Helvetica,sans-Serif" font-size="10.00">fiftyoneDegreesConfigHash</text>
</a>
</g>
</g>
<!-- Node2&#45;&gt;Node1 -->
<g id="edge1_Node000001_Node000002" class="edge">
<title>Node2&#45;&gt;Node1</title>
<g id="a_edge1_Node000001_Node000002"><a xlink:title=" ">
<path fill="none" stroke="#9a32cd" stroke-dasharray="5,2" d="M164,-61.58C164,-47.76 164,-29.68 164,-19.15"/>
<polygon fill="#9a32cd" stroke="#9a32cd" points="160.5,-61.92 164,-71.92 167.5,-61.92 160.5,-61.92"/>
</a>
</g>
<text text-anchor="start" x="167" y="-42.5" font-family="Helvetica,sans-Serif" font-size="10.00" fill="grey">config</text>
</g>
<!-- Node3 -->
<g id="Node000003" class="node">
<title>Node3</title>
<g id="a_Node000003"><a xlink:href="structfiftyone_degrees_config_device_detection.html" target="_top" xlink:title="Device detection configuration structure containing device detection specific configuration options,...">
<polygon fill="white" stroke="#666666" points="158,-294 0,-294 0,-264 158,-264 158,-294"/>
<text text-anchor="start" x="8" y="-282" font-family="Helvetica,sans-Serif" font-size="10.00">fiftyoneDegreesConfigDevice</text>
<text text-anchor="middle" x="79" y="-271" font-family="Helvetica,sans-Serif" font-size="10.00">Detection</text>
</a>
</g>
</g>
<!-- Node3&#45;&gt;Node2 -->
<g id="edge2_Node000002_Node000003" class="edge">
<title>Node3&#45;&gt;Node2</title>
<g id="a_edge2_Node000002_Node000003"><a xlink:title=" ">
<path fill="none" stroke="#9a32cd" stroke-dasharray="5,2" d="M89.12,-254.72C108,-211.3 147.8,-119.77 160.22,-91.2"/>
<polygon fill="#9a32cd" stroke="#9a32cd" points="85.89,-253.37 85.11,-263.94 92.31,-256.16 85.89,-253.37"/>
</a>
</g>
<text text-anchor="start" x="155.5" y="-174.5" font-family="Helvetica,sans-Serif" font-size="10.00" fill="grey">b</text>
</g>
<!-- Node4 -->
<g id="Node000004" class="node">
<title>Node4</title>
<g id="a_Node000004"><a xlink:href="structfiftyone_degrees_config_base.html" target="_top" xlink:title="Base configuration structure containing common configuration options, and options that apply to struc...">
<polygon fill="white" stroke="#666666" points="153.5,-366 4.5,-366 4.5,-347 153.5,-347 153.5,-366"/>
<text text-anchor="middle" x="79" y="-354" font-family="Helvetica,sans-Serif" font-size="10.00">fiftyoneDegreesConfigBase</text>
</a>
</g>
</g>
<!-- Node4&#45;&gt;Node3 -->
<g id="edge3_Node000003_Node000004" class="edge">
<title>Node4&#45;&gt;Node3</title>
<g id="a_edge3_Node000003_Node000004"><a xlink:title=" ">
<path fill="none" stroke="#9a32cd" stroke-dasharray="5,2" d="M79,-336.57C79,-323.43 79,-306.18 79,-294.21"/>
<polygon fill="#9a32cd" stroke="#9a32cd" points="75.5,-336.84 79,-346.84 82.5,-336.84 75.5,-336.84"/>
</a>
</g>
<text text-anchor="start" x="82.5" y="-317.5" font-family="Helvetica,sans-Serif" font-size="10.00" fill="grey">b</text>
</g>
<!-- Node5 -->
<g id="Node000005" class="node">
<title>Node5</title>
<g id="a_Node000005"><a xlink:href="structfiftyone_degrees_collection_config.html" target="_top" xlink:title="Collection configuration structure which defines how the collection should be created by the create m...">
<polygon fill="white" stroke="#666666" points="319.5,-294 176.5,-294 176.5,-264 319.5,-264 319.5,-294"/>
<text text-anchor="start" x="184.5" y="-282" font-family="Helvetica,sans-Serif" font-size="10.00">fiftyoneDegreesCollection</text>
<text text-anchor="middle" x="248" y="-271" font-family="Helvetica,sans-Serif" font-size="10.00">Config</text>
</a>
</g>
</g>
<!-- Node5&#45;&gt;Node2 -->
<g id="edge4_Node000002_Node000005" class="edge">
<title>Node5&#45;&gt;Node2</title>
<g id="a_edge4_Node000002_Node000005"><a xlink:title=" ">
<path fill="none" stroke="#9a32cd" stroke-dasharray="5,2" d="M238,-254.72C219.34,-211.3 180.01,-119.77 167.74,-91.2"/>
<polygon fill="#9a32cd" stroke="#9a32cd" points="234.8,-256.13 241.96,-263.94 241.23,-253.37 234.8,-256.13"/>
</a>
</g>
<text text-anchor="start" x="236" y="-234.5" font-family="Helvetica,sans-Serif" font-size="10.00" fill="grey">components</text>
<text text-anchor="start" x="236" y="-219.5" font-family="Helvetica,sans-Serif" font-size="10.00" fill="grey">maps</text>
<text text-anchor="start" x="236" y="-204.5" font-family="Helvetica,sans-Serif" font-size="10.00" fill="grey">nodes</text>
<text text-anchor="start" x="236" y="-189.5" font-family="Helvetica,sans-Serif" font-size="10.00" fill="grey">profileOffsets</text>
<text text-anchor="start" x="236" y="-174.5" font-family="Helvetica,sans-Serif" font-size="10.00" fill="grey">profiles</text>
<text text-anchor="start" x="236" y="-159.5" font-family="Helvetica,sans-Serif" font-size="10.00" fill="grey">properties</text>
<text text-anchor="start" x="236" y="-144.5" font-family="Helvetica,sans-Serif" font-size="10.00" fill="grey">rootNodes</text>
<text text-anchor="start" x="236" y="-129.5" font-family="Helvetica,sans-Serif" font-size="10.00" fill="grey">strings</text>
<text text-anchor="start" x="236" y="-114.5" font-family="Helvetica,sans-Serif" font-size="10.00" fill="grey">values</text>
</g>
</g>
</svg>
