<?xml version="1.0" encoding="UTF-8" standalone="no"?>
<!DOCTYPE svg PUBLIC "-//W3C//DTD SVG 1.1//EN"
 "http://www.w3.org/Graphics/SVG/1.1/DTD/svg11.dtd">
<!-- Generated by graphviz version 2.43.0 (0)
 -->
<!-- Title: FiftyOne.GeoLocation.Core.Data.GeoData Pages: 1 -->
<svg width="272pt" height="225pt"
 viewBox="0.00 0.00 272.00 225.00" xmlns="http://www.w3.org/2000/svg" xmlns:xlink="http://www.w3.org/1999/xlink">
<g id="graph0" class="graph" transform="scale(1 1) rotate(0) translate(4 221)">
<title>FiftyOne.GeoLocation.Core.Data.GeoData</title>
<!-- Node1 -->
<g id="Node000001" class="node">
<title>Node1</title>
<g id="a_Node000001"><a xlink:title="Data class that contains postal address information.">
<polygon fill="#999999" stroke="#666666" points="193,-96 44,-96 44,-66 193,-66 193,-96"/>
<text text-anchor="start" x="52" y="-84" font-family="Helvetica,sans-Serif" font-size="10.00">FiftyOne.GeoLocation.Core.</text>
<text text-anchor="middle" x="118.5" y="-73" font-family="Helvetica,sans-Serif" font-size="10.00">Data.GeoData</text>
</a>
</g>
</g>
<!-- Node5 -->
<g id="Node000005" class="node">
<title>Node5</title>
<g id="a_Node000005"><a xlink:title=" ">
<polygon fill="white" stroke="#bfbfbf" points="196,-30 41,-30 41,0 196,0 196,-30"/>
<text text-anchor="start" x="49" y="-18" font-family="Helvetica,sans-Serif" font-size="10.00">FiftyOne.GeoLocation.Cloud.</text>
<text text-anchor="middle" x="118.5" y="-7" font-family="Helvetica,sans-Serif" font-size="10.00">Data.GeoDataCloud</text>
</a>
</g>
</g>
<!-- Node1&#45;&gt;Node5 -->
<g id="edge4_Node000001_Node000005" class="edge">
<title>Node1&#45;&gt;Node5</title>
<g id="a_edge4_Node000001_Node000005"><a xlink:title=" ">
<path fill="none" stroke="#63b8ff" d="M118.5,-55.54C118.5,-46.96 118.5,-37.61 118.5,-30.16"/>
<polygon fill="#63b8ff" stroke="#63b8ff" points="115,-55.8 118.5,-65.8 122,-55.8 115,-55.8"/>
</a>
</g>
</g>
<!-- Node2 -->
<g id="Node000002" class="node">
<title>Node2</title>
<g id="a_Node000002"><a xlink:title=" ">
<polygon fill="white" stroke="#bfbfbf" points="97,-156.5 0,-156.5 0,-137.5 97,-137.5 97,-156.5"/>
<text text-anchor="middle" x="48.5" y="-144.5" font-family="Helvetica,sans-Serif" font-size="10.00">AspectDataBase</text>
</a>
</g>
</g>
<!-- Node2&#45;&gt;Node1 -->
<g id="edge1_Node000001_Node000002" class="edge">
<title>Node2&#45;&gt;Node1</title>
<g id="a_edge1_Node000001_Node000002"><a xlink:title=" ">
<path fill="none" stroke="#63b8ff" d="M65.55,-130.41C77,-119.94 91.96,-106.26 103.06,-96.12"/>
<polygon fill="#63b8ff" stroke="#63b8ff" points="62.96,-128.04 57.94,-137.37 67.68,-133.2 62.96,-128.04"/>
</a>
</g>
</g>
<!-- Node3 -->
<g id="Node000003" class="node">
<title>Node3</title>
<g id="a_Node000003"><a xlink:href="interface_fifty_one_1_1_geo_location_1_1_core_1_1_data_1_1_i_geo_data.html" target="_top" xlink:title="Represents an object that contains postal address information.">
<polygon fill="white" stroke="#666666" points="264,-162 115,-162 115,-132 264,-132 264,-162"/>
<text text-anchor="start" x="123" y="-150" font-family="Helvetica,sans-Serif" font-size="10.00">FiftyOne.GeoLocation.Core.</text>
<text text-anchor="middle" x="189.5" y="-139" font-family="Helvetica,sans-Serif" font-size="10.00">Data.IGeoData</text>
</a>
</g>
</g>
<!-- Node3&#45;&gt;Node1 -->
<g id="edge2_Node000001_Node000003" class="edge">
<title>Node3&#45;&gt;Node1</title>
<g id="a_edge2_Node000001_Node000003"><a xlink:title=" ">
<path fill="none" stroke="#63b8ff" d="M166.12,-124.92C155.65,-115.49 143.58,-104.61 134.21,-96.16"/>
<polygon fill="#63b8ff" stroke="#63b8ff" points="163.97,-127.7 173.74,-131.8 168.66,-122.5 163.97,-127.7"/>
</a>
</g>
</g>
<!-- Node4 -->
<g id="Node000004" class="node">
<title>Node4</title>
<g id="a_Node000004"><a xlink:title=" ">
<polygon fill="white" stroke="#bfbfbf" points="227.5,-217 151.5,-217 151.5,-198 227.5,-198 227.5,-217"/>
<text text-anchor="middle" x="189.5" y="-205" font-family="Helvetica,sans-Serif" font-size="10.00">IAspectData</text>
</a>
</g>
</g>
<!-- Node4&#45;&gt;Node3 -->
<g id="edge3_Node000003_Node000004" class="edge">
<title>Node4&#45;&gt;Node3</title>
<g id="a_edge3_Node000003_Node000004"><a xlink:title=" ">
<path fill="none" stroke="#63b8ff" d="M189.5,-187.65C189.5,-179.36 189.5,-169.78 189.5,-162.11"/>
<polygon fill="#63b8ff" stroke="#63b8ff" points="186,-187.87 189.5,-197.87 193,-187.87 186,-187.87"/>
</a>
</g>
</g>
</g>
</svg>
