<?xml version="1.0" encoding="UTF-8" standalone="no"?>
<!DOCTYPE svg PUBLIC "-//W3C//DTD SVG 1.1//EN"
 "http://www.w3.org/Graphics/SVG/1.1/DTD/svg11.dtd">
<!-- Generated by graphviz version 2.43.0 (0)
 -->
<!-- Title: /home/runner/work/documentation/documentation/apis/ip&#45;intelligence&#45;cxx/src/ipi_weighted_results.h Pages: 1 -->
<svg width="410pt" height="206pt"
 viewBox="0.00 0.00 409.50 206.00" xmlns="http://www.w3.org/2000/svg" xmlns:xlink="http://www.w3.org/1999/xlink">
<g id="graph0" class="graph" transform="scale(1 1) rotate(0) translate(4 202)">
<title>/home/runner/work/documentation/documentation/apis/ip&#45;intelligence&#45;cxx/src/ipi_weighted_results.h</title>
<!-- Node57 -->
<g id="node1" class="node">
<title>Node57</title>
<g id="a_node1"><a xlink:title="Defines structures and functions for handling weighted values in IP Intelligence results.">
<polygon fill="#bfbfbf" stroke="black" points="61,-156.5 61,-197.5 250,-197.5 250,-156.5 61,-156.5"/>
<text text-anchor="start" x="69" y="-185.5" font-family="Helvetica,sans-Serif" font-size="10.00">/home/runner/work/documentation</text>
<text text-anchor="start" x="69" y="-174.5" font-family="Helvetica,sans-Serif" font-size="10.00">/documentation/apis/ip&#45;intelligence</text>
<text text-anchor="middle" x="155.5" y="-163.5" font-family="Helvetica,sans-Serif" font-size="10.00">&#45;cxx/src/ipi_weighted_results.h</text>
</a>
</g>
</g>
<!-- Node58 -->
<g id="node2" class="node">
<title>Node58</title>
<g id="a_node2"><a xlink:href="fiftyone_8h_source.html" target="_top" xlink:title=" ">
<polygon fill="none" stroke="black" points="123,-78.5 123,-119.5 312,-119.5 312,-78.5 123,-78.5"/>
<text text-anchor="start" x="131" y="-107.5" font-family="Helvetica,sans-Serif" font-size="10.00">/home/runner/work/documentation</text>
<text text-anchor="start" x="131" y="-96.5" font-family="Helvetica,sans-Serif" font-size="10.00">/documentation/apis/ip&#45;intelligence</text>
<text text-anchor="middle" x="217.5" y="-85.5" font-family="Helvetica,sans-Serif" font-size="10.00">&#45;cxx/src/fiftyone.h</text>
</a>
</g>
</g>
<!-- Node57&#45;&gt;Node58 -->
<g id="edge1" class="edge">
<title>Node57&#45;&gt;Node58</title>
<path fill="none" stroke="midnightblue" d="M177.83,-148.63C185.69,-138.99 194.36,-128.36 201.59,-119.51"/>
<polygon fill="midnightblue" stroke="midnightblue" points="175.08,-146.47 171.47,-156.43 180.5,-150.89 175.08,-146.47"/>
</g>
<!-- Node59 -->
<g id="node3" class="node">
<title>Node59</title>
<g id="a_node3"><a xlink:href="ipi__weighted__results_8c.html" target="_top" xlink:title="Implementation of weighted values handling for IP Intelligence results.">
<polygon fill="none" stroke="black" points="0,-0.5 0,-41.5 189,-41.5 189,-0.5 0,-0.5"/>
<text text-anchor="start" x="8" y="-29.5" font-family="Helvetica,sans-Serif" font-size="10.00">/home/runner/work/documentation</text>
<text text-anchor="start" x="8" y="-18.5" font-family="Helvetica,sans-Serif" font-size="10.00">/documentation/apis/ip&#45;intelligence</text>
<text text-anchor="middle" x="94.5" y="-7.5" font-family="Helvetica,sans-Serif" font-size="10.00">&#45;cxx/src/ipi_weighted_results.c</text>
</a>
</g>
</g>
<!-- Node57&#45;&gt;Node59 -->
<g id="edge4" class="edge">
<title>Node57&#45;&gt;Node59</title>
<path fill="none" stroke="midnightblue" d="M131.06,-148.56C124.47,-139.93 117.94,-130.02 113.5,-120 102.12,-94.34 97.53,-61.91 95.7,-41.56"/>
<polygon fill="midnightblue" stroke="midnightblue" points="128.35,-150.78 137.33,-156.41 133.82,-146.41 128.35,-150.78"/>
</g>
<!-- Node58&#45;&gt;Node59 -->
<g id="edge2" class="edge">
<title>Node58&#45;&gt;Node59</title>
<path fill="none" stroke="midnightblue" d="M176.91,-72.92C160.37,-62.7 141.55,-51.07 126.07,-41.51"/>
<polygon fill="midnightblue" stroke="midnightblue" points="175.48,-76.15 185.82,-78.43 179.16,-70.19 175.48,-76.15"/>
</g>
<!-- Node60 -->
<g id="node4" class="node">
<title>Node60</title>
<g id="a_node4"><a xlink:href="_example_base_8h_source.html" target="_top" xlink:title=" ">
<polygon fill="none" stroke="black" points="207.5,-0.5 207.5,-41.5 401.5,-41.5 401.5,-0.5 207.5,-0.5"/>
<text text-anchor="start" x="215.5" y="-29.5" font-family="Helvetica,sans-Serif" font-size="10.00">/home/runner/work/documentation</text>
<text text-anchor="start" x="215.5" y="-18.5" font-family="Helvetica,sans-Serif" font-size="10.00">/documentation/apis/ip&#45;intelligence</text>
<text text-anchor="middle" x="304.5" y="-7.5" font-family="Helvetica,sans-Serif" font-size="10.00">&#45;cxx/examples/Base/ExampleBase.h</text>
</a>
</g>
</g>
<!-- Node58&#45;&gt;Node60 -->
<g id="edge3" class="edge">
<title>Node58&#45;&gt;Node60</title>
<path fill="none" stroke="midnightblue" d="M247.52,-71.78C258.89,-61.84 271.63,-50.72 282.17,-41.51"/>
<polygon fill="midnightblue" stroke="midnightblue" points="245.13,-69.21 239.9,-78.43 249.74,-74.49 245.13,-69.21"/>
</g>
</g>
</svg>
