<?xml version="1.0" encoding="UTF-8" standalone="no"?>
<!DOCTYPE svg PUBLIC "-//W3C//DTD SVG 1.1//EN"
 "http://www.w3.org/Graphics/SVG/1.1/DTD/svg11.dtd">
<!-- Generated by graphviz version 2.43.0 (0)
 -->
<!-- Title: /home/runner/work/documentation/documentation/apis/ip&#45;intelligence&#45;cxx/src/ipi_weighted_results.h Pages: 1 -->
<svg width="410pt" height="203pt"
 viewBox="0.00 0.00 409.50 203.00" xmlns="http://www.w3.org/2000/svg" xmlns:xlink="http://www.w3.org/1999/xlink">
<g id="graph0" class="graph" transform="scale(1 1) rotate(0) translate(4 199)">
<title>/home/runner/work/documentation/documentation/apis/ip&#45;intelligence&#45;cxx/src/ipi_weighted_results.h</title>
<!-- Node1 -->
<g id="Node000001" class="node">
<title>Node1</title>
<g id="a_Node000001"><a xlink:title="Defines structures and functions for handling weighted values in IP Intelligence results.">
<polygon fill="#999999" stroke="#666666" points="339.5,-195 150.5,-195 150.5,-154 339.5,-154 339.5,-195"/>
<text text-anchor="start" x="158.5" y="-183" font-family="Helvetica,sans-Serif" font-size="10.00">/home/runner/work/documentation</text>
<text text-anchor="start" x="158.5" y="-172" font-family="Helvetica,sans-Serif" font-size="10.00">/documentation/apis/ip&#45;intelligence</text>
<text text-anchor="middle" x="245" y="-161" font-family="Helvetica,sans-Serif" font-size="10.00">&#45;cxx/src/ipi_weighted_results.h</text>
</a>
</g>
</g>
<!-- Node2 -->
<g id="Node000002" class="node">
<title>Node2</title>
<g id="a_Node000002"><a xlink:href="fiftyone_8h_source.html" target="_top" xlink:title=" ">
<polygon fill="white" stroke="#666666" points="278.5,-118 89.5,-118 89.5,-77 278.5,-77 278.5,-118"/>
<text text-anchor="start" x="97.5" y="-106" font-family="Helvetica,sans-Serif" font-size="10.00">/home/runner/work/documentation</text>
<text text-anchor="start" x="97.5" y="-95" font-family="Helvetica,sans-Serif" font-size="10.00">/documentation/apis/ip&#45;intelligence</text>
<text text-anchor="middle" x="184" y="-84" font-family="Helvetica,sans-Serif" font-size="10.00">&#45;cxx/src/fiftyone.h</text>
</a>
</g>
</g>
<!-- Node1&#45;&gt;Node2 -->
<g id="edge1_Node000001_Node000002" class="edge">
<title>Node1&#45;&gt;Node2</title>
<g id="a_edge1_Node000001_Node000002"><a xlink:title=" ">
<path fill="none" stroke="#63b8ff" d="M222.6,-145.95C215.07,-136.7 206.84,-126.58 199.92,-118.07"/>
<polygon fill="#63b8ff" stroke="#63b8ff" points="219.95,-148.25 228.97,-153.79 225.38,-143.83 219.95,-148.25"/>
</a>
</g>
</g>
<!-- Node4 -->
<g id="Node000004" class="node">
<title>Node4</title>
<g id="a_Node000004"><a xlink:href="ipi__weighted__results_8c.html" target="_top" xlink:title="Implementation of weighted values handling for IP Intelligence results.">
<polygon fill="white" stroke="#666666" points="401.5,-41 212.5,-41 212.5,0 401.5,0 401.5,-41"/>
<text text-anchor="start" x="220.5" y="-29" font-family="Helvetica,sans-Serif" font-size="10.00">/home/runner/work/documentation</text>
<text text-anchor="start" x="220.5" y="-18" font-family="Helvetica,sans-Serif" font-size="10.00">/documentation/apis/ip&#45;intelligence</text>
<text text-anchor="middle" x="307" y="-7" font-family="Helvetica,sans-Serif" font-size="10.00">&#45;cxx/src/ipi_weighted_results.c</text>
</a>
</g>
</g>
<!-- Node1&#45;&gt;Node4 -->
<g id="edge4_Node000001_Node000004" class="edge">
<title>Node1&#45;&gt;Node4</title>
<g id="a_edge4_Node000001_Node000004"><a xlink:title=" ">
<path fill="none" stroke="#63b8ff" d="M270.19,-146.19C276.88,-137.68 283.49,-127.92 288,-118 299.38,-92.97 303.96,-61.26 305.79,-41.17"/>
<polygon fill="#63b8ff" stroke="#63b8ff" points="267.48,-143.98 263.82,-153.92 272.88,-148.43 267.48,-143.98"/>
</a>
</g>
</g>
<!-- Node3 -->
<g id="Node000003" class="node">
<title>Node3</title>
<g id="a_Node000003"><a xlink:href="_example_base_8h_source.html" target="_top" xlink:title=" ">
<polygon fill="white" stroke="#666666" points="194,-41 0,-41 0,0 194,0 194,-41"/>
<text text-anchor="start" x="8" y="-29" font-family="Helvetica,sans-Serif" font-size="10.00">/home/runner/work/documentation</text>
<text text-anchor="start" x="8" y="-18" font-family="Helvetica,sans-Serif" font-size="10.00">/documentation/apis/ip&#45;intelligence</text>
<text text-anchor="middle" x="97" y="-7" font-family="Helvetica,sans-Serif" font-size="10.00">&#45;cxx/examples/Base/ExampleBase.h</text>
</a>
</g>
</g>
<!-- Node2&#45;&gt;Node3 -->
<g id="edge2_Node000002_Node000003" class="edge">
<title>Node2&#45;&gt;Node3</title>
<g id="a_edge2_Node000002_Node000003"><a xlink:title=" ">
<path fill="none" stroke="#63b8ff" d="M153.34,-70.07C142.27,-60.52 129.98,-49.93 119.71,-41.07"/>
<polygon fill="#63b8ff" stroke="#63b8ff" points="151.28,-72.92 161.14,-76.79 155.85,-67.61 151.28,-72.92"/>
</a>
</g>
</g>
<!-- Node2&#45;&gt;Node4 -->
<g id="edge3_Node000002_Node000004" class="edge">
<title>Node2&#45;&gt;Node4</title>
<g id="a_edge3_Node000002_Node000004"><a xlink:title=" ">
<path fill="none" stroke="#63b8ff" d="M224.76,-71.64C241.01,-61.74 259.45,-50.5 274.74,-41.17"/>
<polygon fill="#63b8ff" stroke="#63b8ff" points="222.71,-68.8 216,-76.99 226.36,-74.77 222.71,-68.8"/>
</a>
</g>
</g>
</g>
</svg>
