<?xml version="1.0" encoding="UTF-8" standalone="no"?>
<!DOCTYPE svg PUBLIC "-//W3C//DTD SVG 1.1//EN"
 "http://www.w3.org/Graphics/SVG/1.1/DTD/svg11.dtd">
<!-- Generated by graphviz version 2.43.0 (0)
 -->
<!-- Title: /home/runner/work/documentation/documentation/apis&#45;temp/ip&#45;intelligence&#45;cxx/src/ipi_weighted_results.h Pages: 1 -->
<svg width="396pt" height="228pt"
 viewBox="0.00 0.00 396.00 228.00" xmlns="http://www.w3.org/2000/svg" xmlns:xlink="http://www.w3.org/1999/xlink">
<g id="graph0" class="graph" transform="scale(1 1) rotate(0) translate(4 224)">
<title>/home/runner/work/documentation/documentation/apis&#45;temp/ip&#45;intelligence&#45;cxx/src/ipi_weighted_results.h</title>
<!-- Node57 -->
<g id="node1" class="node">
<title>Node57</title>
<g id="a_node1"><a xlink:title="Defines structures and functions for handling weighted values in IP Intelligence results.">
<polygon fill="#bfbfbf" stroke="black" points="60,-167.5 60,-219.5 245,-219.5 245,-167.5 60,-167.5"/>
<text text-anchor="start" x="68" y="-207.5" font-family="Helvetica,sans-Serif" font-size="10.00">/home/runner/work/documentation</text>
<text text-anchor="start" x="68" y="-196.5" font-family="Helvetica,sans-Serif" font-size="10.00">/documentation/apis&#45;temp/ip</text>
<text text-anchor="start" x="68" y="-185.5" font-family="Helvetica,sans-Serif" font-size="10.00">&#45;intelligence&#45;cxx/src/ipi_weighted</text>
<text text-anchor="middle" x="152.5" y="-174.5" font-family="Helvetica,sans-Serif" font-size="10.00">_results.h</text>
</a>
</g>
</g>
<!-- Node58 -->
<g id="node2" class="node">
<title>Node58</title>
<g id="a_node2"><a xlink:href="fiftyone_8h_source.html" target="_top" xlink:title=" ">
<polygon fill="none" stroke="black" points="120,-89.5 120,-130.5 305,-130.5 305,-89.5 120,-89.5"/>
<text text-anchor="start" x="128" y="-118.5" font-family="Helvetica,sans-Serif" font-size="10.00">/home/runner/work/documentation</text>
<text text-anchor="start" x="128" y="-107.5" font-family="Helvetica,sans-Serif" font-size="10.00">/documentation/apis&#45;temp/ip</text>
<text text-anchor="middle" x="212.5" y="-96.5" font-family="Helvetica,sans-Serif" font-size="10.00">&#45;intelligence&#45;cxx/src/fiftyone.h</text>
</a>
</g>
</g>
<!-- Node57&#45;&gt;Node58 -->
<g id="edge1" class="edge">
<title>Node57&#45;&gt;Node58</title>
<path fill="none" stroke="midnightblue" d="M177.23,-158.9C184.32,-149.28 191.8,-139.11 198.05,-130.63"/>
<polygon fill="midnightblue" stroke="midnightblue" points="174.27,-157.03 171.16,-167.16 179.9,-161.18 174.27,-157.03"/>
</g>
<!-- Node59 -->
<g id="node3" class="node">
<title>Node59</title>
<g id="a_node3"><a xlink:href="ipi__weighted__results_8c.html" target="_top" xlink:title="Implementation of weighted values handling for IP Intelligence results.">
<polygon fill="none" stroke="black" points="0,-0.5 0,-52.5 185,-52.5 185,-0.5 0,-0.5"/>
<text text-anchor="start" x="8" y="-40.5" font-family="Helvetica,sans-Serif" font-size="10.00">/home/runner/work/documentation</text>
<text text-anchor="start" x="8" y="-29.5" font-family="Helvetica,sans-Serif" font-size="10.00">/documentation/apis&#45;temp/ip</text>
<text text-anchor="start" x="8" y="-18.5" font-family="Helvetica,sans-Serif" font-size="10.00">&#45;intelligence&#45;cxx/src/ipi_weighted</text>
<text text-anchor="middle" x="92.5" y="-7.5" font-family="Helvetica,sans-Serif" font-size="10.00">_results.c</text>
</a>
</g>
</g>
<!-- Node57&#45;&gt;Node59 -->
<g id="edge4" class="edge">
<title>Node57&#45;&gt;Node59</title>
<path fill="none" stroke="midnightblue" d="M126.69,-159.08C120.94,-150.33 115.4,-140.63 111.5,-131 101.15,-105.43 96.4,-74.02 94.24,-52.55"/>
<polygon fill="midnightblue" stroke="midnightblue" points="123.91,-161.22 132.45,-167.48 129.68,-157.26 123.91,-161.22"/>
</g>
<!-- Node58&#45;&gt;Node59 -->
<g id="edge2" class="edge">
<title>Node58&#45;&gt;Node59</title>
<path fill="none" stroke="midnightblue" d="M175.46,-83.84C160.9,-73.96 144.22,-62.62 129.65,-52.73"/>
<polygon fill="midnightblue" stroke="midnightblue" points="173.52,-86.76 183.76,-89.48 177.45,-80.96 173.52,-86.76"/>
</g>
<!-- Node60 -->
<g id="node4" class="node">
<title>Node60</title>
<g id="a_node4"><a xlink:href="_example_base_8h_source.html" target="_top" xlink:title=" ">
<polygon fill="none" stroke="black" points="203,-0.5 203,-52.5 388,-52.5 388,-0.5 203,-0.5"/>
<text text-anchor="start" x="211" y="-40.5" font-family="Helvetica,sans-Serif" font-size="10.00">/home/runner/work/documentation</text>
<text text-anchor="start" x="211" y="-29.5" font-family="Helvetica,sans-Serif" font-size="10.00">/documentation/apis&#45;temp/ip</text>
<text text-anchor="start" x="211" y="-18.5" font-family="Helvetica,sans-Serif" font-size="10.00">&#45;intelligence&#45;cxx/examples/Base</text>
<text text-anchor="middle" x="295.5" y="-7.5" font-family="Helvetica,sans-Serif" font-size="10.00">/ExampleBase.h</text>
</a>
</g>
</g>
<!-- Node58&#45;&gt;Node60 -->
<g id="edge3" class="edge">
<title>Node58&#45;&gt;Node60</title>
<path fill="none" stroke="midnightblue" d="M239.75,-82.24C249.46,-72.71 260.36,-62 269.93,-52.61"/>
<polygon fill="midnightblue" stroke="midnightblue" points="237.28,-79.77 232.59,-89.27 242.18,-84.76 237.28,-79.77"/>
</g>
</g>
</svg>
