<?xml version="1.0" encoding="UTF-8" standalone="no"?>
<!DOCTYPE svg PUBLIC "-//W3C//DTD SVG 1.1//EN"
 "http://www.w3.org/Graphics/SVG/1.1/DTD/svg11.dtd">
<!-- Generated by graphviz version 2.43.0 (0)
 -->
<!-- Title: FiftyOne.DeviceDetection.Examples.ExampleBase Pages: 1 -->
<svg width="406pt" height="403pt"
 viewBox="0.00 0.00 406.00 403.00" xmlns="http://www.w3.org/2000/svg" xmlns:xlink="http://www.w3.org/1999/xlink">
<g id="graph0" class="graph" transform="scale(1 1) rotate(0) translate(4 399)">
<title>FiftyOne.DeviceDetection.Examples.ExampleBase</title>
<!-- Node1 -->
<g id="Node000001" class="node">
<title>Node1</title>
<g id="a_Node000001"><a xlink:title=" ">
<polygon fill="#999999" stroke="#666666" points="144,-212.5 0,-212.5 0,-182.5 144,-182.5 144,-212.5"/>
<text text-anchor="start" x="8" y="-200.5" font-family="Helvetica,sans-Serif" font-size="10.00">FiftyOne.DeviceDetection.</text>
<text text-anchor="middle" x="72" y="-189.5" font-family="Helvetica,sans-Serif" font-size="10.00">Examples.ExampleBase</text>
</a>
</g>
</g>
<!-- Node2 -->
<g id="Node000002" class="node">
<title>Node2</title>
<g id="a_Node000002"><a xlink:href="class_fifty_one_1_1_device_detection_1_1_examples_1_1_cloud_1_1_metadata_1_1_program_1_1_example.html" target="_top" xlink:title=" ">
<polygon fill="white" stroke="#bfbfbf" points="385,-395 193,-395 193,-354 385,-354 385,-395"/>
<text text-anchor="start" x="201" y="-383" font-family="Helvetica,sans-Serif" font-size="10.00">FiftyOne.DeviceDetection.</text>
<text text-anchor="start" x="201" y="-372" font-family="Helvetica,sans-Serif" font-size="10.00">Examples.Cloud.Metadata.Program.</text>
<text text-anchor="middle" x="289" y="-361" font-family="Helvetica,sans-Serif" font-size="10.00">Example</text>
</a>
</g>
</g>
<!-- Node1&#45;&gt;Node2 -->
<g id="edge1_Node000001_Node000002" class="edge">
<title>Node1&#45;&gt;Node2</title>
<g id="a_edge1_Node000001_Node000002"><a xlink:title=" ">
<path fill="none" stroke="#63b8ff" d="M84.16,-222.14C100.44,-255.28 133.87,-313.7 180,-345.5 184.56,-348.64 189.44,-351.44 194.51,-353.94"/>
<polygon fill="#63b8ff" stroke="#63b8ff" points="87.13,-220.24 79.66,-212.73 80.81,-223.26 87.13,-220.24"/>
</a>
</g>
</g>
<!-- Node3 -->
<g id="Node000003" class="node">
<title>Node3</title>
<g id="a_Node000003"><a xlink:href="class_fifty_one_1_1_device_detection_1_1_examples_1_1_on_premise_1_1_getting_started_console_1_1_program_1_1_example.html" target="_top" xlink:title=" ">
<polygon fill="white" stroke="#bfbfbf" points="386.5,-336 191.5,-336 191.5,-295 386.5,-295 386.5,-336"/>
<text text-anchor="start" x="199.5" y="-324" font-family="Helvetica,sans-Serif" font-size="10.00">FiftyOne.DeviceDetection.</text>
<text text-anchor="start" x="199.5" y="-313" font-family="Helvetica,sans-Serif" font-size="10.00">Examples.OnPremise.GettingStarted</text>
<text text-anchor="middle" x="289" y="-302" font-family="Helvetica,sans-Serif" font-size="10.00">Console.Program.Example</text>
</a>
</g>
</g>
<!-- Node1&#45;&gt;Node3 -->
<g id="edge2_Node000001_Node000003" class="edge">
<title>Node1&#45;&gt;Node3</title>
<g id="a_edge2_Node000001_Node000003"><a xlink:title=" ">
<path fill="none" stroke="#63b8ff" d="M94.23,-220.01C114.46,-240.21 146.71,-269.25 180,-286.5 186.03,-289.63 192.44,-292.44 198.99,-294.97"/>
<polygon fill="#63b8ff" stroke="#63b8ff" points="96.59,-217.42 87.08,-212.75 91.6,-222.33 96.59,-217.42"/>
</a>
</g>
</g>
<!-- Node4 -->
<g id="Node000004" class="node">
<title>Node4</title>
<g id="a_Node000004"><a xlink:href="class_fifty_one_1_1_device_detection_1_1_examples_1_1_on_premise_1_1_match_metrics_1_1_program_1_1_example.html" target="_top" xlink:title=" ">
<polygon fill="white" stroke="#bfbfbf" points="385.5,-277 192.5,-277 192.5,-236 385.5,-236 385.5,-277"/>
<text text-anchor="start" x="200.5" y="-265" font-family="Helvetica,sans-Serif" font-size="10.00">FiftyOne.DeviceDetection.</text>
<text text-anchor="start" x="200.5" y="-254" font-family="Helvetica,sans-Serif" font-size="10.00">Examples.OnPremise.MatchMetrics.</text>
<text text-anchor="middle" x="289" y="-243" font-family="Helvetica,sans-Serif" font-size="10.00">Program.Example</text>
</a>
</g>
</g>
<!-- Node1&#45;&gt;Node4 -->
<g id="edge3_Node000001_Node000004" class="edge">
<title>Node1&#45;&gt;Node4</title>
<g id="a_edge3_Node000001_Node000004"><a xlink:title=" ">
<path fill="none" stroke="#63b8ff" d="M136.12,-215.32C150.54,-219.36 165.79,-223.6 180,-227.5 190.02,-230.25 200.56,-233.12 210.98,-235.93"/>
<polygon fill="#63b8ff" stroke="#63b8ff" points="136.88,-211.9 126.31,-212.57 134.99,-218.64 136.88,-211.9"/>
</a>
</g>
</g>
<!-- Node5 -->
<g id="Node000005" class="node">
<title>Node5</title>
<g id="a_Node000005"><a xlink:href="class_fifty_one_1_1_device_detection_1_1_examples_1_1_on_premise_1_1_metadata_1_1_program_1_1_example.html" target="_top" xlink:title=" ">
<polygon fill="white" stroke="#bfbfbf" points="398,-218 180,-218 180,-177 398,-177 398,-218"/>
<text text-anchor="start" x="188" y="-206" font-family="Helvetica,sans-Serif" font-size="10.00">FiftyOne.DeviceDetection.</text>
<text text-anchor="start" x="188" y="-195" font-family="Helvetica,sans-Serif" font-size="10.00">Examples.OnPremise.Metadata.Program.</text>
<text text-anchor="middle" x="289" y="-184" font-family="Helvetica,sans-Serif" font-size="10.00">Example</text>
</a>
</g>
</g>
<!-- Node1&#45;&gt;Node5 -->
<g id="edge4_Node000001_Node000005" class="edge">
<title>Node1&#45;&gt;Node5</title>
<g id="a_edge4_Node000001_Node000005"><a xlink:title=" ">
<path fill="none" stroke="#63b8ff" d="M154.56,-197.5C162.78,-197.5 171.2,-197.5 179.63,-197.5"/>
<polygon fill="#63b8ff" stroke="#63b8ff" points="154.29,-194 144.29,-197.5 154.29,-201 154.29,-194"/>
</a>
</g>
</g>
<!-- Node6 -->
<g id="Node000006" class="node">
<title>Node6</title>
<g id="a_Node000006"><a xlink:href="class_fifty_one_1_1_device_detection_1_1_examples_1_1_on_premise_1_1_offline_processing_1_1_program_1_1_example.html" target="_top" xlink:title=" ">
<polygon fill="white" stroke="#bfbfbf" points="395,-159 183,-159 183,-118 395,-118 395,-159"/>
<text text-anchor="start" x="191" y="-147" font-family="Helvetica,sans-Serif" font-size="10.00">FiftyOne.DeviceDetection.</text>
<text text-anchor="start" x="191" y="-136" font-family="Helvetica,sans-Serif" font-size="10.00">Examples.OnPremise.OfflineProcessing.</text>
<text text-anchor="middle" x="289" y="-125" font-family="Helvetica,sans-Serif" font-size="10.00">Program.Example</text>
</a>
</g>
</g>
<!-- Node1&#45;&gt;Node6 -->
<g id="edge5_Node000001_Node000006" class="edge">
<title>Node1&#45;&gt;Node6</title>
<g id="a_edge5_Node000001_Node000006"><a xlink:title=" ">
<path fill="none" stroke="#63b8ff" d="M137.75,-179.73C161.46,-173.23 188.48,-165.81 213.01,-159.08"/>
<polygon fill="#63b8ff" stroke="#63b8ff" points="136.53,-176.44 127.81,-182.46 138.38,-183.19 136.53,-176.44"/>
</a>
</g>
</g>
<!-- Node7 -->
<g id="Node000007" class="node">
<title>Node7</title>
<g id="a_Node000007"><a xlink:href="class_fifty_one_1_1_device_detection_1_1_examples_1_1_on_premise_1_1_performance_1_1_program_1_1_example.html" target="_top" xlink:title=" ">
<polygon fill="white" stroke="#bfbfbf" points="383.5,-100 194.5,-100 194.5,-59 383.5,-59 383.5,-100"/>
<text text-anchor="start" x="202.5" y="-88" font-family="Helvetica,sans-Serif" font-size="10.00">FiftyOne.DeviceDetection.</text>
<text text-anchor="start" x="202.5" y="-77" font-family="Helvetica,sans-Serif" font-size="10.00">Examples.OnPremise.Performance.</text>
<text text-anchor="middle" x="289" y="-66" font-family="Helvetica,sans-Serif" font-size="10.00">Program.Example</text>
</a>
</g>
</g>
<!-- Node1&#45;&gt;Node7 -->
<g id="edge6_Node000001_Node000007" class="edge">
<title>Node1&#45;&gt;Node7</title>
<g id="a_edge6_Node000001_Node000007"><a xlink:title=" ">
<path fill="none" stroke="#63b8ff" d="M94.31,-175.32C114.6,-155.4 146.89,-126.72 180,-109.5 186.73,-106 193.92,-102.87 201.27,-100.07"/>
<polygon fill="#63b8ff" stroke="#63b8ff" points="91.74,-172.93 87.14,-182.48 96.69,-177.89 91.74,-172.93"/>
</a>
</g>
</g>
<!-- Node8 -->
<g id="Node000008" class="node">
<title>Node8</title>
<g id="a_Node000008"><a xlink:href="class_fifty_one_1_1_device_detection_1_1_examples_1_1_on_premise_1_1_update_data_file_1_1_program_1_1_example.html" target="_top" xlink:title=" ">
<polygon fill="white" stroke="#bfbfbf" points="390.5,-41 187.5,-41 187.5,0 390.5,0 390.5,-41"/>
<text text-anchor="start" x="195.5" y="-29" font-family="Helvetica,sans-Serif" font-size="10.00">FiftyOne.DeviceDetection.</text>
<text text-anchor="start" x="195.5" y="-18" font-family="Helvetica,sans-Serif" font-size="10.00">Examples.OnPremise.UpdateDataFile.</text>
<text text-anchor="middle" x="289" y="-7" font-family="Helvetica,sans-Serif" font-size="10.00">Program.Example</text>
</a>
</g>
</g>
<!-- Node1&#45;&gt;Node8 -->
<g id="edge7_Node000001_Node000008" class="edge">
<title>Node1&#45;&gt;Node8</title>
<g id="a_edge7_Node000001_Node000008"><a xlink:title=" ">
<path fill="none" stroke="#63b8ff" d="M84.24,-173.08C100.62,-140.24 134.16,-82.29 180,-50.5 185.12,-46.95 190.64,-43.82 196.39,-41.06"/>
<polygon fill="#63b8ff" stroke="#63b8ff" points="80.93,-171.89 79.71,-182.41 87.23,-174.94 80.93,-171.89"/>
</a>
</g>
</g>
</g>
</svg>
