<?xml version="1.0" encoding="UTF-8"?>
<svg width="20px" height="12px" viewBox="0 0 20 12" version="1.1" xmlns="http://www.w3.org/2000/svg" xmlns:xlink="http://www.w3.org/1999/xlink">
    <!-- Generator: Sketch 52.6 (67491) - http://www.bohemiancoding.com/sketch -->
    <title>icon-feature-vendor-3rd</title>
    <desc>Created with Sketch.</desc>
    <g id="51-Degrees-Final-Artwork" stroke="none" stroke-width="1" fill="none" fill-rule="evenodd">
        <g id="Styles" transform="translate(-462.000000, -1805.000000)" fill="#252525">
            <path d="M467.152,1809.624 C467.73867,1809.624 468.189332,1809.51467 468.504,1809.296 C468.818668,1809.07733 469.008,1808.808 469.072,1808.488 C469.093333,1808.40267 469.109333,1808.32267 469.12,1808.248 C469.130667,1808.17333 469.136,1808.104 469.136,1808.04 C469.136,1807.688 469.013335,1807.41067 468.768,1807.208 C468.522665,1807.00533 468.186669,1806.904 467.76,1806.904 C467.333331,1806.904 466.936002,1807.00267 466.568,1807.2 C466.199998,1807.39733 465.845335,1807.736 465.504,1808.216 L464.224,1806.776 C464.469335,1806.50933 464.725332,1806.26667 464.992,1806.048 C465.258668,1805.82933 465.549332,1805.64267 465.864,1805.488 C466.178668,1805.33333 466.522665,1805.21333 466.896,1805.128 C467.269335,1805.04267 467.690664,1805 468.16,1805 C468.682669,1805 469.154665,1805.064 469.576,1805.192 C469.997335,1805.32 470.357332,1805.49867 470.656,1805.728 C470.954668,1805.95733 471.183999,1806.232 471.344,1806.552 C471.504001,1806.872 471.584,1807.22933 471.584,1807.624 C471.584,1808.37067 471.352002,1808.98933 470.888,1809.48 C470.423998,1809.97067 469.792004,1810.30667 468.992,1810.488 L468.976,1810.568 C469.541336,1810.67467 469.978665,1810.93066 470.288,1811.336 C470.597335,1811.74134 470.752,1812.264 470.752,1812.904 C470.752,1813.42667 470.653334,1813.912 470.456,1814.36 C470.258666,1814.808 469.973335,1815.19467 469.6,1815.52 C469.226665,1815.84533 468.762669,1816.09867 468.208,1816.28 C467.653331,1816.46133 467.024004,1816.552 466.32,1816.552 C465.775997,1816.552 465.304002,1816.49333 464.904,1816.376 C464.503998,1816.25867 464.160001,1816.10133 463.872,1815.904 C463.583999,1815.70667 463.344001,1815.48 463.152,1815.224 C462.959999,1814.968 462.805334,1814.70133 462.688,1814.424 L464.368,1813.224 C464.528001,1813.65067 464.767998,1813.99733 465.088,1814.264 C465.408002,1814.53067 465.866664,1814.664 466.464,1814.664 C466.997336,1814.664 467.423998,1814.53867 467.744,1814.288 C468.064002,1814.03733 468.266666,1813.688 468.352,1813.24 C468.373333,1813.15467 468.384,1813.08267 468.384,1813.024 L468.384,1812.824 C468.384,1812.42933 468.253335,1812.12 467.992,1811.896 C467.730665,1811.672 467.360002,1811.56 466.88,1811.56 L465.728,1811.56 L466.112,1809.624 L467.152,1809.624 Z M472.976,1812.36 L472.328,1812.36 L473.448,1806.776 L475.44,1806.776 C475.685335,1806.776 475.895999,1806.80933 476.072,1806.876 C476.248001,1806.94267 476.391999,1807.036 476.504,1807.156 C476.616001,1807.276 476.697333,1807.41733 476.748,1807.58 C476.798667,1807.74267 476.824,1807.92 476.824,1808.112 C476.824,1808.32533 476.789334,1808.53067 476.72,1808.728 C476.650666,1808.92533 476.553334,1809.10267 476.428,1809.26 C476.302666,1809.41733 476.149334,1809.552 475.968,1809.664 C475.786666,1809.776 475.584001,1809.85333 475.36,1809.896 L476.176,1812.36 L475.48,1812.36 L474.72,1809.96 L473.456,1809.96 L472.976,1812.36 Z M475.048,1809.392 C475.314668,1809.392 475.535999,1809.324 475.712,1809.188 C475.888001,1809.052 476.002666,1808.85333 476.056,1808.592 C476.093334,1808.41067 476.118667,1808.28267 476.132,1808.208 C476.145333,1808.13333 476.152,1808.064 476.152,1808 C476.152,1807.808 476.096001,1807.652 475.984,1807.532 C475.871999,1807.412 475.674668,1807.352 475.392,1807.352 L473.976,1807.352 L473.576,1809.392 L475.048,1809.392 Z M478.448,1806.776 L480.088,1806.776 C480.685336,1806.776 481.153332,1806.95733 481.492,1807.32 C481.830668,1807.68267 482,1808.224 482,1808.944 C482,1809.376 481.938667,1809.79733 481.816,1810.208 C481.693333,1810.61867 481.513335,1810.98267 481.276,1811.3 C481.038665,1811.61733 480.746668,1811.87333 480.4,1812.068 C480.053332,1812.26267 479.658669,1812.36 479.216,1812.36 L477.328,1812.36 L478.448,1806.776 Z M479.232,1811.784 C479.712002,1811.784 480.117332,1811.636 480.448,1811.34 C480.778668,1811.044 480.999999,1810.61334 481.112,1810.048 L481.28,1809.208 C481.312,1809.048 481.328,1808.88533 481.328,1808.72 C481.328,1808.272 481.213334,1807.932 480.984,1807.7 C480.754666,1807.468 480.445335,1807.352 480.056,1807.352 L478.976,1807.352 L478.096,1811.784 L479.232,1811.784 Z" id="icon-feature-vendor-3rd"></path>
        </g>
    </g>
</svg>