<?xml version="1.0" encoding="UTF-8"?>
<svg width="8px" height="14px" viewBox="0 0 8 14" version="1.1" xmlns="http://www.w3.org/2000/svg" xmlns:xlink="http://www.w3.org/1999/xlink">
    <!-- Generator: Sketch 52.6 (67491) - http://www.bohemiancoding.com/sketch -->
    <title>icon-feature-paid</title>
    <desc>Created with Sketch.</desc>
    <g id="51-Degrees-Final-Artwork" stroke="none" stroke-width="1" fill="none" fill-rule="evenodd">
        <g id="Styles" transform="translate(-490.000000, -1804.000000)" fill="#252525">
            <path d="M493.4989,1817.792 L493.4989,1816.48 C492.685696,1816.42667 491.998228,1816.22667 491.436475,1815.88 C490.874722,1815.53333 490.395902,1815.09867 490,1814.576 L490.94695,1813.728 C491.289352,1814.18667 491.666523,1814.552 492.078475,1814.824 C492.490427,1815.096 492.969247,1815.26933 493.51495,1815.344 L493.51495,1811.232 C492.412844,1810.98667 491.607678,1810.62667 491.099425,1810.152 C490.591172,1809.67733 490.33705,1809.024 490.33705,1808.192 C490.33705,1807.76533 490.414624,1807.384 490.569775,1807.048 C490.724926,1806.712 490.941599,1806.42133 491.2198,1806.176 C491.498001,1805.93067 491.829698,1805.736 492.2149,1805.592 C492.600102,1805.448 493.028098,1805.35467 493.4989,1805.312 L493.4989,1804 L494.494,1804 L494.494,1805.296 C495.221604,1805.36 495.850222,1805.544 496.379875,1805.848 C496.909528,1806.152 497.366948,1806.57066 497.75215,1807.104 L496.7731,1807.84 C496.505599,1807.46666 496.184602,1807.16 495.8101,1806.92 C495.435598,1806.68 494.991553,1806.52267 494.47795,1806.448 L494.47795,1810.192 L494.6224,1810.224 C495.735206,1810.46933 496.545722,1810.82933 497.053975,1811.304 C497.562228,1811.77867 497.81635,1812.43733 497.81635,1813.28 C497.81635,1814.19734 497.519428,1814.936 496.925575,1815.496 C496.331722,1816.056 495.521205,1816.384 494.494,1816.48 L494.494,1817.792 L493.4989,1817.792 Z M496.5484,1813.36 C496.5484,1812.816 496.390577,1812.4 496.074925,1812.112 C495.759273,1811.824 495.226954,1811.58933 494.47795,1811.408 L494.47795,1815.344 C495.119953,1815.25867 495.625523,1815.04267 495.994675,1814.696 C496.363827,1814.34933 496.5484,1813.904 496.5484,1813.36 Z M491.605,1808.096 C491.605,1808.64 491.762823,1809.048 492.078475,1809.32 C492.394127,1809.592 492.872947,1809.81333 493.51495,1809.984 L493.51495,1806.448 C492.937147,1806.52267 492.474377,1806.69867 492.126625,1806.976 C491.778873,1807.25333 491.605,1807.62666 491.605,1808.096 Z" id="icon-feature-paid"></path>
        </g>
    </g>
</svg>