<?xml version="1.0" encoding="UTF-8"?>
<svg width="14px" height="9px" viewBox="0 0 14 9" version="1.1" xmlns="http://www.w3.org/2000/svg" xmlns:xlink="http://www.w3.org/1999/xlink">
    <!-- Generator: Sketch 52.6 (67491) - http://www.bohemiancoding.com/sketch -->
    <title>icon-arrow-down-white</title>
    <desc>Created with Sketch.</desc>
    <g id="51-Degrees-Final-Artwork" stroke="none" stroke-width="1" fill="none" fill-rule="evenodd">
        <g id="Styles" transform="translate(-413.000000, -1806.000000)" fill="#FFFFFF">
            <path d="M416.284314,1804.30158 L416.284314,1804.30158 C416.670042,1803.90632 417.30316,1803.89859 417.698423,1804.28431 L423.643406,1810.08589 C424.038668,1810.47162 424.046398,1811.10474 423.66067,1811.5 C423.654986,1811.50583 423.649231,1811.51158 423.643406,1811.51726 L417.698423,1817.31884 C417.30316,1817.70457 416.670042,1817.69684 416.284314,1817.30158 L416.284314,1817.30158 C415.898587,1816.90632 415.906316,1816.2732 416.301578,1815.88747 L421.513185,1810.80158 L416.301578,1805.71569 C415.906316,1805.32996 415.898587,1804.69684 416.284314,1804.30158 Z" id="icon-arrow-down-white" transform="translate(419.972492, 1810.801578) scale(1, -1) rotate(-90.000000) translate(-419.972492, -1810.801578) "></path>
        </g>
    </g>
</svg>