<?xml version="1.0" encoding="UTF-8"?>
<svg width="14px" height="9px" viewBox="0 0 14 9" version="1.1" xmlns="http://www.w3.org/2000/svg" xmlns:xlink="http://www.w3.org/1999/xlink">
    <!-- Generator: Sketch 52.6 (67491) - http://www.bohemiancoding.com/sketch -->
    <title>icon-arrow-up-blue</title>
    <desc>Created with Sketch.</desc>
    <g id="51-Degrees-Final-Artwork" stroke="none" stroke-width="1" fill="none" fill-rule="evenodd">
        <g id="Styles" transform="translate(-389.000000, -1806.000000)" fill="#00AEEF">
            <path d="M392.284314,1804.30158 L392.284314,1804.30158 C392.670042,1803.90632 393.30316,1803.89859 393.698423,1804.28431 L399.643406,1810.08589 C400.038668,1810.47162 400.046398,1811.10474 399.66067,1811.5 C399.654986,1811.50583 399.649231,1811.51158 399.643406,1811.51726 L393.698423,1817.31884 C393.30316,1817.70457 392.670042,1817.69684 392.284314,1817.30158 L392.284314,1817.30158 C391.898587,1816.90632 391.906316,1816.2732 392.301578,1815.88747 L397.513185,1810.80158 L392.301578,1805.71569 C391.906316,1805.32996 391.898587,1804.69684 392.284314,1804.30158 Z" id="icon-arrow-up-blue" transform="translate(395.972492, 1810.801578) scale(1, -1) rotate(-270.000000) translate(-395.972492, -1810.801578) "></path>
        </g>
    </g>
</svg>