<?xml version="1.0" encoding="UTF-8"?>
<svg width="3px" height="12px" viewBox="0 0 3 12" version="1.1" xmlns="http://www.w3.org/2000/svg" xmlns:xlink="http://www.w3.org/1999/xlink">
    <!-- Generator: Sketch 52.6 (67491) - http://www.bohemiancoding.com/sketch -->
    <title>icon-feature-info</title>
    <desc>Created with Sketch.</desc>
    <g id="51-Degrees-Final-Artwork" stroke="none" stroke-width="1" fill="none" fill-rule="evenodd">
        <g id="Styles" transform="translate(-513.000000, -1805.000000)" fill="#3EAFEF">
            <path d="M514.41828,1807.688 C513.938277,1807.688 513.588947,1807.57867 513.37028,1807.36 C513.151612,1807.14133 513.04228,1806.86134 513.04228,1806.52 L513.04228,1806.168 C513.04228,1805.82666 513.151612,1805.54667 513.37028,1805.328 C513.588947,1805.10933 513.938277,1805 514.41828,1805 C514.898282,1805 515.247612,1805.10933 515.46628,1805.328 C515.684947,1805.54667 515.79428,1805.82666 515.79428,1806.168 L515.79428,1806.52 C515.79428,1806.86134 515.684947,1807.14133 515.46628,1807.36 C515.247612,1807.57867 514.898282,1807.688 514.41828,1807.688 Z M513.23428,1808.584 L515.60228,1808.584 L515.60228,1816.984 L513.23428,1816.984 L513.23428,1808.584 Z" id="icon-feature-info"></path>
        </g>
    </g>
</svg>