<?xml version="1.0" encoding="UTF-8"?>
<svg width="17px" height="22px" viewBox="0 0 17 22" version="1.1" xmlns="http://www.w3.org/2000/svg" xmlns:xlink="http://www.w3.org/1999/xlink">
    <!-- Generator: Sketch 55.2 (78181) - https://sketchapp.com -->
    <title>Icon / copy</title>
    <desc>Created with Sketch.</desc>
    <g id="51-Degrees-Link-Builder-Final-Artwork" stroke="none" stroke-width="1" fill="none" fill-rule="evenodd">
        <g id="Implement-/-run" transform="translate(-803.000000, -445.000000)" fill="#646060">
            <g id="Snippet-one-v2-Copy-6" transform="translate(384.000000, 435.000000)">
                <g id="Icon-/-copy" transform="translate(418.000000, 10.000000)">
                    <path d="M5.11111111,2.55555556 L5.11111111,5.11111111 L13.6296296,5.11111111 L13.6296296,2.55555556 L17.037037,2.55555556 L17.037037,21.2962963 L1.7037037,21.2962963 L1.7037037,2.55555556 L5.11111111,2.55555556 Z M3.40740741,8.46296296 L3.40740741,9.24074074 L13.6296296,9.24074074 L13.6296296,8.46296296 L3.40740741,8.46296296 Z M3.40740741,13.9066157 L3.40740741,14.6843935 L10.2222222,14.6843935 L10.2222222,13.9066157 L3.40740741,13.9066157 Z M3.40740741,11.1851852 L3.40740741,11.962963 L12.7777778,11.962963 L12.7777778,11.1851852 L3.40740741,11.1851852 Z" id="Combined-Shape"></path>
                    <path d="M10.5061728,1.74646247 L10.5061728,1.19511067 C10.5061728,0.535069271 9.99765675,0 9.37037037,0 C8.74308399,0 8.2345679,0.535069271 8.2345679,1.19511067 L8.2345679,1.74646247 L5.96296296,1.74646247 L5.96296296,4.25925926 L12.7777778,4.25925926 L12.7777778,1.74646247 L10.5061728,1.74646247 Z" id="Combined-Shape" fill-rule="nonzero"></path>
                </g>
            </g>
        </g>
    </g>
</svg>