<?xml version="1.0" encoding="UTF-8"?>
<svg width="15px" height="9px" viewBox="0 0 15 9" version="1.1" xmlns="http://www.w3.org/2000/svg" xmlns:xlink="http://www.w3.org/1999/xlink">
    <!-- Generator: Sketch 55.2 (78181) - https://sketchapp.com -->
    <title>Icon / &gt; Copy 4</title>
    <desc>Created with Sketch.</desc>
    <g id="51-Degrees-Link-Builder-Final-Artwork" stroke="none" stroke-width="1" fill="none" fill-rule="evenodd">
        <g id="Configure-v4" transform="translate(-97.000000, -956.000000)" fill="#252525">
            <g id="Footer-and-basket-Copy" transform="translate(0.000000, 924.000000)">
                <g id="basket-2-items">
                    <g id="basket-1" transform="translate(0.000000, 8.000000)">
                        <g id="Basket">
                            <g id="Group" transform="translate(98.000000, 8.000000)">
                                <g id="Icon-/-Arrow-/-Right" transform="translate(6.500000, 20.500000) rotate(-270.000000) translate(-6.500000, -20.500000) translate(3.000000, 14.000000)">
                                    <path d="M6.97220059e-14,3.33066907e-16 C0.385727913,-0.395262472 1.01884571,-0.402991759 1.41410819,-0.0172638454 L7.35909146,5.78431398 C7.75435393,6.1700419 7.76208322,6.8031597 7.37635531,7.19842217 C7.37067116,7.20424682 7.36491611,7.21000187 7.35909146,7.21568602 L1.41410819,13.0172638 C1.01884571,13.4029918 0.385727913,13.3952625 6.98330282e-14,13 C-0.385727913,12.6047375 -0.377998627,11.9716197 0.0172638454,11.5858918 L5.22887053,6.5 L0.0172638454,1.41410819 C-0.377998627,1.02838027 -0.385727913,0.395262472 6.97220059e-14,3.33066907e-16 Z" id="Path-2"></path>
                                </g>
                            </g>
                        </g>
                    </g>
                </g>
            </g>
        </g>
    </g>
</svg>