<?xml version="1.0" encoding="UTF-8"?>
<svg width="100px" height="34px" viewBox="0 0 100 34" version="1.1" xmlns="http://www.w3.org/2000/svg" xmlns:xlink="http://www.w3.org/1999/xlink">
    <!-- Generator: Sketch 52.6 (67491) - http://www.bohemiancoding.com/sketch -->
    <title>logo-vendor-google</title>
    <desc>Created with Sketch.</desc>
    <g id="51-Degrees-Final-Artwork" stroke="none" stroke-width="1" fill="none" fill-rule="evenodd">
        <g id="Styles" transform="translate(-413.000000, -1896.000000)">
            <g id="logo-vendor-google" transform="translate(413.000000, 1896.000000)">
                <path d="M43.0232558,17.4418605 C43.0232558,22.1281481 39.3686961,25.5813953 34.8837209,25.5813953 C30.3987458,25.5813953 26.744186,22.1281481 26.744186,17.4418605 C26.744186,12.7225449 30.3987458,9.30232558 34.8837209,9.30232558 C39.3686961,9.30232558 43.0232558,12.7225449 43.0232558,17.4418605 Z M39.4601516,17.4418605 C39.4601516,14.5133894 37.3420434,12.5096987 34.8837209,12.5096987 C32.4253985,12.5096987 30.3072903,14.5133894 30.3072903,17.4418605 C30.3072903,20.3409734 32.4253985,22.3740223 34.8837209,22.3740223 C37.3420434,22.3740223 39.4601516,20.3373037 39.4601516,17.4418605 Z" id="Shape" fill="#EA4335" fill-rule="nonzero"></path>
                <path d="M60.4651163,17.4418605 C60.4651163,22.1281481 56.8105566,25.5813953 52.3255814,25.5813953 C47.8406062,25.5813953 44.1860465,22.1281481 44.1860465,17.4418605 C44.1860465,12.7262147 47.8406062,9.30232558 52.3255814,9.30232558 C56.8105566,9.30232558 60.4651163,12.7225449 60.4651163,17.4418605 Z M56.902012,17.4418605 C56.902012,14.5133894 54.7839038,12.5096987 52.3255814,12.5096987 C49.8672589,12.5096987 47.7491508,14.5133894 47.7491508,17.4418605 C47.7491508,20.3409734 49.8672589,22.3740223 52.3255814,22.3740223 C54.7839038,22.3740223 56.902012,20.3373037 56.902012,17.4418605 Z" id="Shape" fill="#FBBC05" fill-rule="nonzero"></path>
                <path d="M77.9069767,9.81175934 L77.9069767,24.9503058 C77.9069767,31.1775632 74.2085804,33.7209302 69.8363561,33.7209302 C65.7206458,33.7209302 63.2435625,30.987476 62.309392,28.7520502 L65.5560174,27.4100344 C66.1341311,28.7824642 67.5507012,30.4020073 69.8325275,30.4020073 C72.6312105,30.4020073 74.3655516,28.6874206 74.3655516,25.4597395 L74.3655516,24.246983 L74.2353803,24.246983 C73.4007526,25.2696523 71.7927542,26.1630623 69.7636133,26.1630623 C65.5177317,26.1630623 61.627907,22.4905771 61.627907,17.7650087 C61.627907,13.0052247 65.5177317,9.30232558 69.7636133,9.30232558 C71.7889256,9.30232558 73.396924,10.1957355 74.2353803,11.1879908 L74.3655516,11.1879908 L74.3655516,9.81556108 L77.9069767,9.81556108 L77.9069767,9.81175934 Z M74.6297228,17.7650087 C74.6297228,14.7958463 72.6350391,12.6250502 70.0966987,12.6250502 C67.5239012,12.6250502 65.3684176,14.7958463 65.3684176,17.7650087 C65.3684176,20.7037572 67.5239012,22.8441393 70.0966987,22.8441393 C72.6350391,22.8441393 74.6297228,20.7037572 74.6297228,17.7650087 Z" id="Shape" fill="#4285F4" fill-rule="nonzero"></path>
                <polygon id="Path" fill="#34A853" points="83.7209302 1.1627907 83.7209302 25.5813953 80.2325581 25.5813953 80.2325581 1.1627907"></polygon>
                <path d="M97.0513834,20.1244574 L99.8448097,21.9740181 C98.9432276,23.2988026 96.7705627,25.5813953 93.0164343,25.5813953 C88.3607238,25.5813953 84.8837209,22.0070459 84.8837209,17.4418605 C84.8837209,12.6014427 88.3902838,9.30232558 92.6136784,9.30232558 C96.8666329,9.30232558 98.9469226,12.6638287 99.6268042,14.4803615 L100,15.4051419 L89.0443003,19.9116111 C89.8830672,21.5446558 91.1874051,22.377692 93.0164343,22.377692 C94.8491584,22.377692 96.1202413,21.4822698 97.0513834,20.1244574 Z M88.453099,17.1959863 L95.7766055,14.1757712 C95.3738496,13.1592468 94.1618868,12.4509824 92.7356136,12.4509824 C90.9065845,12.4509824 88.3607238,14.054669 88.453099,17.1959863 Z" id="Shape" fill="#EA4335" fill-rule="nonzero"></path>
                <path d="M12.709609,15.2047376 L12.709609,11.7099506 L24.2475907,11.7099506 C24.3603871,12.3190314 24.4186047,13.0395295 24.4186047,13.8194501 C24.4186047,16.4414688 23.716356,19.6837101 21.4531505,21.9937606 C19.2518011,24.3335224 16.4391679,25.5813953 12.7132476,25.5813953 C5.8071961,25.5813953 0,19.8396942 0,12.7906977 C0,5.7417011 5.8071961,0 12.7132476,0 C16.5337714,0 19.2554397,1.53012992 21.3003296,3.52449828 L18.8843031,5.99053291 C17.4179497,4.58667585 15.4312774,3.49478702 12.709609,3.49478702 C7.66651766,3.49478702 3.72228171,7.64322178 3.72228171,12.7906977 C3.72228171,17.9381736 7.66651766,22.0866083 12.709609,22.0866083 C15.9807051,22.0866083 17.8436652,20.7458877 19.0371241,19.527726 C20.0049901,18.5398266 20.641744,17.1285417 20.892807,15.2010237 L12.709609,15.2047376 Z" id="Path" fill="#4285F4"></path>
            </g>
        </g>
    </g>
</svg>