<?xml version="1.0" encoding="UTF-8"?>
<svg width="179px" height="24px" viewBox="0 0 179 24" version="1.1" xmlns="http://www.w3.org/2000/svg" xmlns:xlink="http://www.w3.org/1999/xlink">
    <!-- Generator: Sketch 52.6 (67491) - http://www.bohemiancoding.com/sketch -->
    <title>logo-51Degrees-Cloud</title>
    <desc>Created with Sketch.</desc>
    <defs>
        <linearGradient x1="-1.11022302e-14%" y1="50%" x2="98.480401%" y2="50%" id="linearGradient-1">
            <stop stop-color="#CC2B27" offset="0%"></stop>
            <stop stop-color="#F5841F" offset="100%"></stop>
        </linearGradient>
        <path d="M129.20203,19.27376 C126.929492,19.27376 125.16104,18.5005961 123.89662,16.954245 C122.6322,15.4078939 122,13.1311184 122,10.12385 C122,7.11658163 122.6322,4.80563307 123.89662,3.190935 C125.16104,1.57623693 126.929492,0.7689 129.20203,0.7689 C130.705664,0.7689 131.965793,1.11062992 132.982455,1.7941 C133.999117,2.47757008 134.789367,3.4429571 135.35323,4.69029 L133.61039,5.74112 C133.251568,4.81843539 132.7048,4.07944444 131.97007,3.524125 C131.23534,2.96880556 130.312669,2.69115 129.20203,2.69115 C128.433126,2.69115 127.745395,2.83638521 127.138815,3.12686 C126.532235,3.41733479 126.01964,3.83168231 125.601015,4.369915 C125.18239,4.90814769 124.862018,5.54889128 124.63989,6.292165 C124.417762,7.03543872 124.3067,7.86840539 124.3067,8.79109 L124.3067,11.45661 C124.3067,13.3019792 124.733862,14.7457881 125.5882,15.78808 C126.442538,16.8303719 127.647136,17.35151 129.20203,17.35151 C130.346842,17.35151 131.303686,17.0567679 132.07259,16.467275 C132.841494,15.8777821 133.405348,15.0960749 133.76417,14.12213 L135.48138,15.19859 C134.917517,16.4630097 134.105909,17.458298 133.04653,18.184485 C131.987151,18.910672 130.705664,19.27376 129.20203,19.27376 Z M139.28679,18.9662 C138.569146,18.9662 138.02665,18.7654337 137.659285,18.363895 C137.29192,17.9623563 137.10824,17.4540331 137.10824,16.83891 L137.10824,0 L139.15864,0 L139.15864,17.1721 L141.10652,17.1721 L141.10652,18.9662 L139.28679,18.9662 Z M147.57745,19.27376 C146.688939,19.27376 145.87733,19.1114383 145.1426,18.78679 C144.40787,18.4621417 143.779941,17.9965347 143.258795,17.389955 C142.737649,16.7833753 142.331845,16.0571992 142.04137,15.211405 C141.750895,14.3656108 141.60566,13.4130386 141.60566,12.35366 C141.60566,11.3113681 141.750895,10.3630676 142.04137,9.50873 C142.331845,8.65439239 142.737649,7.9239447 143.258795,7.317365 C143.779941,6.7107853 144.40787,6.24517829 145.1426,5.92053 C145.87733,5.59588171 146.688939,5.43356 147.57745,5.43356 C148.465961,5.43356 149.273298,5.59588171 149.999485,5.92053 C150.725672,6.24517829 151.353601,6.7107853 151.88329,7.317365 C152.412979,7.9239447 152.823055,8.65439239 153.11353,9.50873 C153.404005,10.3630676 153.54924,11.3113681 153.54924,12.35366 C153.54924,13.4130386 153.404005,14.3656108 153.11353,15.211405 C152.823055,16.0571992 152.412979,16.7833753 151.88329,17.389955 C151.353601,17.9965347 150.725672,18.4621417 149.999485,18.78679 C149.273298,19.1114383 148.465961,19.27376 147.57745,19.27376 Z M147.57745,17.45403 C148.688089,17.45403 149.593673,17.1123001 150.29423,16.42883 C150.994787,15.7453599 151.34506,14.7030837 151.34506,13.30197 L151.34506,11.40535 C151.34506,10.0042363 150.994787,8.96196008 150.29423,8.27849 C149.593673,7.59501992 148.688089,7.25329 147.57745,7.25329 C146.466811,7.25329 145.561227,7.59501992 144.86067,8.27849 C144.160113,8.96196008 143.80984,10.0042363 143.80984,11.40535 L143.80984,13.30197 C143.80984,14.7030837 144.160113,15.7453599 144.86067,16.42883 C145.561227,17.1123001 146.466811,17.45403 147.57745,17.45403 Z M163.58274,16.81328 L163.48022,16.81328 C163.343526,17.1208415 163.176933,17.4241268 162.980435,17.723145 C162.783937,18.0221632 162.540455,18.2870038 162.24998,18.517675 C161.959505,18.7483462 161.609232,18.932026 161.19915,19.06872 C160.789068,19.205414 160.310646,19.27376 159.76387,19.27376 C158.39693,19.27376 157.311937,18.8337827 156.50886,17.953815 C155.705783,17.0738473 155.30425,15.8308047 155.30425,14.22465 L155.30425,5.74112 L157.35465,5.74112 L157.35465,13.86583 C157.35465,16.2408885 158.362753,17.4284 160.37899,17.4284 C160.789072,17.4284 161.186333,17.3771405 161.570785,17.27462 C161.955237,17.1720995 162.296967,17.018321 162.595985,16.81328 C162.895003,16.608239 163.134214,16.3476699 163.313625,16.031565 C163.493036,15.7154601 163.58274,15.3352856 163.58274,14.89103 L163.58274,5.74112 L165.63314,5.74112 L165.63314,18.9662 L163.58274,18.9662 L163.58274,16.81328 Z M176.94814,16.81328 L176.84562,16.81328 C176.042543,18.4536082 174.752512,19.27376 172.97549,19.27376 C172.155326,19.27376 171.412063,19.1114383 170.74568,18.78679 C170.079297,18.4621417 169.511171,18.0008063 169.041285,17.40277 C168.571399,16.8047337 168.212583,16.0785576 167.964825,15.22422 C167.717067,14.3698824 167.59319,13.4130386 167.59319,12.35366 C167.59319,11.2942814 167.717067,10.3374376 167.964825,9.4831 C168.212583,8.62876239 168.571399,7.90258632 169.041285,7.30455 C169.511171,6.70651368 170.079297,6.24517829 170.74568,5.92053 C171.412063,5.59588171 172.155326,5.43356 172.97549,5.43356 C173.898175,5.43356 174.688425,5.63432633 175.346265,6.035865 C176.004105,6.43740367 176.503885,7.05678915 176.84562,7.89404 L176.94814,7.89404 L176.94814,0 L178.99854,0 L178.99854,18.9662 L176.94814,18.9662 L176.94814,16.81328 Z M173.53935,17.4284 C174.000692,17.4284 174.44067,17.3685973 174.859295,17.24899 C175.27792,17.1293827 175.641008,16.9542462 175.94857,16.723575 C176.256132,16.4929038 176.499614,16.2109767 176.679025,15.877785 C176.858436,15.5445933 176.94814,15.1644188 176.94814,14.73725 L176.94814,9.81629 C176.94814,9.45746821 176.858436,9.12000991 176.679025,8.803905 C176.499614,8.48780009 176.256132,8.21868778 175.94857,7.99656 C175.641008,7.77443222 175.27792,7.59929564 174.859295,7.471145 C174.44067,7.34299436 174.000692,7.27892 173.53935,7.27892 C172.377451,7.27892 171.463323,7.64200804 170.79694,8.368195 C170.130557,9.09438196 169.79737,10.0469541 169.79737,11.22594 L169.79737,13.48138 C169.79737,14.6603659 170.130557,15.612938 170.79694,16.339125 C171.463323,17.065312 172.377451,17.4284 173.53935,17.4284 Z" id="path-2"></path>
    </defs>
    <g id="Symbols" stroke="none" stroke-width="1" fill="none" fill-rule="evenodd">
        <g id="Logo-/-Colour">
            <g id="logo-51Degrees-Cloud">
                <path d="M48.9742447,13.1814689 L39.3967255,13.1814689 C39.8263822,14.8075489 40.988953,15.7220945 42.6060936,15.7220945 C43.7938304,15.7220945 44.9561483,15.2398598 45.8660467,14.3248318 L48.1654531,16.5864148 C46.7756923,18.1106575 44.7287685,19 42.2272116,19 C37.7796481,19 35,16.2048718 35,12.0381061 C35,7.79488703 37.8805021,5 42.100749,5 C46.901902,5 49.2772491,8.17612858 48.9742447,13.1814689 Z M44.7792903,10.8185914 C44.7792903,9.14168325 43.7182058,8.04884708 42.1512708,8.04884708 C40.6349842,8.04884708 39.5991289,9.16706719 39.3211641,10.8185914 L44.7792903,10.8185914 Z M65,17.6330427 C65,21.5300451 61.8333866,24 57.1645516,24 C54.6420141,24 52.3612385,23.2360715 50.7243521,22.1921366 L52.3342308,19.2121506 C53.6493904,20.0778557 55.2592691,20.5872824 56.8156304,20.5872824 C59.0429508,20.5872824 60.3845579,19.4667129 60.3845579,17.7606865 L60.3845579,16.3087993 C59.4453272,17.4803779 58.0230706,18.1424694 56.2254453,18.1424694 C52.5759927,18.1424694 50,15.4936803 50,11.4952036 C50,7.59856387 52.4954676,5.00072347 56.1177881,5.00072347 C57.9695532,4.97497715 59.4185685,5.63737085 60.3845579,6.83433318 L60.3845579,5.15344873 L65,5.15344873 L65,17.6330427 Z M60.3845579,11.6224847 C60.3845579,9.61070561 59.1769933,8.26065539 57.3791191,8.26065539 C55.5544239,8.26065539 54.3201628,9.63614975 54.3201628,11.6224847 C54.3201628,13.5833756 55.5544239,14.9589304 57.3791191,14.9589304 C59.1769933,14.9589304 60.3845579,13.5833756 60.3845579,11.6224847 Z M70.4740834,7.53398117 C71.4306339,5.92153052 73.0085346,5.02563012 75,5 L75,8.99265108 C72.413651,8.76210143 70.7067177,9.96525964 70.4740834,11.9102338 L70.4740834,19 L66,19 L66,5.20467659 L70.4740834,5.20467659 L70.4740834,7.53398117 Z M88.9742055,13.1814689 L79.3965832,13.1814689 C79.8261813,14.8075489 80.9890807,15.7220945 82.6061123,15.7220945 C83.7937354,15.7220945 84.9563187,15.2398598 85.866227,14.3248318 L88.1655317,16.5864148 C86.7756294,18.1106575 84.7286204,19 82.2270998,19 C77.7795516,19 75,16.2048718 75,12.0381061 C75,7.79488703 77.8805331,5 82.1007623,5 C86.9019037,5 89.2774662,8.17612858 88.9742055,13.1814689 Z M84.7792692,10.8185914 C84.7792692,9.14168325 83.7183629,8.04884708 82.1510949,8.04884708 C80.6351713,8.04884708 79.5991785,9.16706719 79.3211474,10.8185914 L84.7792692,10.8185914 Z M102.974304,13.1814689 L93.3968075,13.1814689 C93.8261499,14.8075489 94.9887256,15.7220945 96.6058731,15.7220945 C97.7938047,15.7220945 98.9558113,15.2398598 99.8657769,14.3248318 L102.165699,16.5864148 C100.775679,18.1106575 98.7284938,19 96.2273057,19 C91.7795968,19 89,16.2048718 89,12.0381061 C89,7.79488703 91.8802614,5 96.1007161,5 C100.9017,5 103.276931,8.17612858 102.974304,13.1814689 Z M98.7791423,10.8185914 C98.7791423,9.14168325 97.7178636,8.04884708 96.1513646,8.04884708 C94.6347553,8.04884708 93.5991485,9.16706719 93.3211193,10.8185914 L98.7791423,10.8185914 Z M114.974324,6.54158974 L113.465105,9.37182546 C111.801342,8.48754171 110.266515,8.00738031 109.115043,8.00738031 C108.321893,8.00738031 107.759089,8.31045708 107.759089,8.94221683 C107.759089,10.8121298 115.025604,9.90253963 114.999932,14.6534809 C114.999932,17.4584103 112.518179,19 109.191931,19 C106.888987,19 104.663636,18.342754 103,17.0792944 L104.407234,14.2995515 C105.968373,15.3862263 107.759089,15.9929195 109.294492,15.9929195 C110.163954,15.9929195 110.803775,15.689303 110.803775,15.0576033 C110.803775,13.0613984 103.665429,14.0974604 103.691101,9.32133265 C103.691101,6.51610347 106.095966,5 109.294492,5 C111.289754,5 113.285592,5.55602054 114.974324,6.54158974 Z M24.955849,1 C30.3045804,1 34,4.65122058 34,9.99990847 C34,15.3228457 30.2558516,19 24.7857545,19 L22,19 L22,15.3484743 L25.0530633,15.3484743 C27.7032166,15.3484743 29.599564,13.1884719 29.599564,10.0255981 C29.599564,6.83721774 27.605759,4.65122058 24.8585739,4.65122058 L22,4.65122058 L22,1 L24.955849,1 Z" id="Combined-Shape" fill="#161616" fill-rule="nonzero"></path>
                <path d="M18.1684532,1 L20.752958,1 L20.752958,18.8220862 L16.6421021,18.8220862 L16.6421021,4.72062422 L14.0510368,5.53423739 L13.2491608,2.55995817 L18.1684532,1 Z M6.7539832,7.4833254 C10.6023621,7.4833254 13.1280639,9.66969211 13.1280639,12.8476461 C13.1280639,16.5849215 10.4822883,19 6.41711463,19 C4.23586503,19 1.75211383,18.1343219 0,16.8434364 L2.27321587,14.0065291 C3.38379277,15.0095188 4.64772704,15.5421742 5.91208261,15.5421742 C7.5716283,15.5421742 8.53408414,14.6780043 8.53408414,13.152555 C8.53408414,11.7541611 7.5716283,10.9407289 5.91208261,10.9407289 C5.2077101,10.9407289 4.37519873,11.0683876 3.58403607,11.2109479 L1.34211763,9.64598234 L1.68344006,1.02539902 L12.3825232,1.02539902 L12.3825232,4.61046126 L5.42631054,4.61046126 L5.23876677,7.4833254 L6.7539832,7.4833254 Z M113.837383,2.78915263 L113.837383,5.155786 L113.122417,5.155786 L113.122417,2.78915263 L112.282804,2.78915263 L112.282804,2.17728367 L114.684761,2.17728367 L114.684761,2.78915263 L113.837383,2.78915263 Z M117.369658,5.155786 L117.365505,3.22262517 L116.690504,4.85841841 L116.224714,4.85841841 L115.549773,3.22262517 L115.549773,5.155786 L114.911125,5.155786 L114.911125,2.17758532 L115.694403,2.17758532 L116.457579,3.94924219 L117.220815,2.17758532 L118,2.17758532 L118,5.155786 L117.369658,5.155786 Z" id="Combined-Shape" fill="#CC2B27"></path>
                <g id="Cloud">
                    <use fill="#252525" xlink:href="#path-2"></use>
                    <use fill="url(#linearGradient-1)" xlink:href="#path-2"></use>
                </g>
            </g>
        </g>
    </g>
</svg>