<?xml version="1.0" encoding="UTF-8"?>
<svg width="118px" height="23px" viewBox="0 0 118 23" version="1.1" xmlns="http://www.w3.org/2000/svg" xmlns:xlink="http://www.w3.org/1999/xlink">
    <!-- Generator: Sketch 54.1 (76490) - https://sketchapp.com -->
    <title>logo-51Degrees</title>
    <desc>Created with Sketch.</desc>
    <g id="Symbols" stroke="none" stroke-width="1" fill="none" fill-rule="evenodd">
        <g id="Logo-/-Docs-/-Colour-Copy" transform="translate(0.000000, -1.000000)">
            <g id="logo-51Degrees" transform="translate(0.000000, 1.000000)">
                <path d="M48.9742447,12.1814689 L39.3967255,12.1814689 C39.8263822,13.8075489 40.988953,14.7220945 42.6060936,14.7220945 C43.7938304,14.7220945 44.9561483,14.2398598 45.8660467,13.3248318 L48.1654531,15.5864148 C46.7756923,17.1106575 44.7287685,18 42.2272116,18 C37.7796481,18 35,15.2048718 35,11.0381061 C35,6.79488703 37.8805021,4 42.100749,4 C46.901902,4 49.2772491,7.17612858 48.9742447,12.1814689 Z M44.7792903,9.81859135 C44.7792903,8.14168325 43.7182058,7.04884708 42.1512708,7.04884708 C40.6349842,7.04884708 39.5991289,8.16706719 39.3211641,9.81859135 L44.7792903,9.81859135 Z M65,16.6330427 C65,20.5300451 61.8333866,23 57.1645516,23 C54.6420141,23 52.3612385,22.2360715 50.7243521,21.1921366 L52.3342308,18.2121506 C53.6493904,19.0778557 55.2592691,19.5872824 56.8156304,19.5872824 C59.0429508,19.5872824 60.3845579,18.4667129 60.3845579,16.7606865 L60.3845579,15.3087993 C59.4453272,16.4803779 58.0230706,17.1424694 56.2254453,17.1424694 C52.5759927,17.1424694 50,14.4936803 50,10.4952036 C50,6.59856387 52.4954676,4.00072347 56.1177881,4.00072347 C57.9695532,3.97497715 59.4185685,4.63737085 60.3845579,5.83433318 L60.3845579,4.15344873 L65,4.15344873 L65,16.6330427 Z M60.3845579,10.6224847 C60.3845579,8.61070561 59.1769933,7.26065539 57.3791191,7.26065539 C55.5544239,7.26065539 54.3201628,8.63614975 54.3201628,10.6224847 C54.3201628,12.5833756 55.5544239,13.9589304 57.3791191,13.9589304 C59.1769933,13.9589304 60.3845579,12.5833756 60.3845579,10.6224847 Z M70.4740834,6.53398117 C71.4306339,4.92153052 73.0085346,4.02563012 75,4 L75,7.99265108 C72.413651,7.76210143 70.7067177,8.96525964 70.4740834,10.9102338 L70.4740834,18 L66,18 L66,4.20467659 L70.4740834,4.20467659 L70.4740834,6.53398117 Z M88.9742055,12.1814689 L79.3965832,12.1814689 C79.8261813,13.8075489 80.9890807,14.7220945 82.6061123,14.7220945 C83.7937354,14.7220945 84.9563187,14.2398598 85.866227,13.3248318 L88.1655317,15.5864148 C86.7756294,17.1106575 84.7286204,18 82.2270998,18 C77.7795516,18 75,15.2048718 75,11.0381061 C75,6.79488703 77.8805331,4 82.1007623,4 C86.9019037,4 89.2774662,7.17612858 88.9742055,12.1814689 Z M84.7792692,9.81859135 C84.7792692,8.14168325 83.7183629,7.04884708 82.1510949,7.04884708 C80.6351713,7.04884708 79.5991785,8.16706719 79.3211474,9.81859135 L84.7792692,9.81859135 Z M102.974304,12.1814689 L93.3968075,12.1814689 C93.8261499,13.8075489 94.9887256,14.7220945 96.6058731,14.7220945 C97.7938047,14.7220945 98.9558113,14.2398598 99.8657769,13.3248318 L102.165699,15.5864148 C100.775679,17.1106575 98.7284938,18 96.2273057,18 C91.7795968,18 89,15.2048718 89,11.0381061 C89,6.79488703 91.8802614,4 96.1007161,4 C100.9017,4 103.276931,7.17612858 102.974304,12.1814689 Z M98.7791423,9.81859135 C98.7791423,8.14168325 97.7178636,7.04884708 96.1513646,7.04884708 C94.6347553,7.04884708 93.5991485,8.16706719 93.3211193,9.81859135 L98.7791423,9.81859135 Z M114.974324,5.54158974 L113.465105,8.37182546 C111.801342,7.48754171 110.266515,7.00738031 109.115043,7.00738031 C108.321893,7.00738031 107.759089,7.31045708 107.759089,7.94221683 C107.759089,9.81212975 115.025604,8.90253963 114.999932,13.6534809 C114.999932,16.4584103 112.518179,18 109.191931,18 C106.888987,18 104.663636,17.342754 103,16.0792944 L104.407234,13.2995515 C105.968373,14.3862263 107.759089,14.9929195 109.294492,14.9929195 C110.163954,14.9929195 110.803775,14.689303 110.803775,14.0576033 C110.803775,12.0613984 103.665429,13.0974604 103.691101,8.32133265 C103.691101,5.51610347 106.095966,4 109.294492,4 C111.289754,4 113.285592,4.55602054 114.974324,5.54158974 Z M24.955849,0 C30.3045804,0 34,3.65122058 34,8.99990847 C34,14.3228457 30.2558516,18 24.7857545,18 L22,18 L22,14.3484743 L25.0530633,14.3484743 C27.7032166,14.3484743 29.599564,12.1884719 29.599564,9.02559809 C29.599564,5.83721774 27.605759,3.65122058 24.8585739,3.65122058 L22,3.65122058 L22,0 L24.955849,0 Z" id="Combined-Shape" fill="#161616" fill-rule="nonzero"></path>
                <path d="M18.1684532,-1.24344979e-14 L20.752958,-1.24344979e-14 L20.752958,17.8220862 L16.6421021,17.8220862 L16.6421021,3.72062422 L14.0510368,4.53423739 L13.2491608,1.55995817 L18.1684532,-1.24344979e-14 Z M6.7539832,6.4833254 C10.6023621,6.4833254 13.1280639,8.66969211 13.1280639,11.8476461 C13.1280639,15.5849215 10.4822883,18 6.41711463,18 C4.23586503,18 1.75211383,17.1343219 0,15.8434364 L2.27321587,13.0065291 C3.38379277,14.0095188 4.64772704,14.5421742 5.91208261,14.5421742 C7.5716283,14.5421742 8.53408414,13.6780043 8.53408414,12.152555 C8.53408414,10.7541611 7.5716283,9.94072892 5.91208261,9.94072892 C5.2077101,9.94072892 4.37519873,10.0683876 3.58403607,10.2109479 L1.34211763,8.64598234 L1.68344006,0.0253990173 L12.3825232,0.0253990173 L12.3825232,3.61046126 L5.42631054,3.61046126 L5.23876677,6.4833254 L6.7539832,6.4833254 Z M113.837383,1.78915263 L113.837383,4.155786 L113.122417,4.155786 L113.122417,1.78915263 L112.282804,1.78915263 L112.282804,1.17728367 L114.684761,1.17728367 L114.684761,1.78915263 L113.837383,1.78915263 Z M117.369658,4.155786 L117.365505,2.22262517 L116.690504,3.85841841 L116.224714,3.85841841 L115.549773,2.22262517 L115.549773,4.155786 L114.911125,4.155786 L114.911125,1.17758532 L115.694403,1.17758532 L116.457579,2.94924219 L117.220815,1.17758532 L118,1.17758532 L118,4.155786 L117.369658,4.155786 Z" id="Combined-Shape" fill="#CC2B27"></path>
            </g>
        </g>
    </g>
</svg>