<?xml version="1.0" encoding="UTF-8"?>
<svg width="171px" height="23px" viewBox="0 0 171 23" version="1.1" xmlns="http://www.w3.org/2000/svg" xmlns:xlink="http://www.w3.org/1999/xlink">
    <!-- Generator: Sketch 54.1 (76490) - https://sketchapp.com -->
    <title>logo-51Degrees-Docs</title>
    <desc>Created with Sketch.</desc>
    <defs>
        <linearGradient x1="-1.11022302e-14%" y1="50%" x2="98.480401%" y2="50%" id="linearGradient-1">
            <stop stop-color="#CC2B27" offset="0%"></stop>
            <stop stop-color="#F5841F" offset="100%"></stop>
        </linearGradient>
        <text id="text-2" font-family="IBMPlexSans, IBM Plex Sans" font-size="25.63" font-weight="normal" letter-spacing="-1.5">
            <tspan x="120" y="26">Docs</tspan>
        </text>
    </defs>
    <g id="Symbols" stroke="none" stroke-width="1" fill="none" fill-rule="evenodd">
        <g id="Logo-/-Docs-/-Colour" transform="translate(0.000000, -1.000000)">
            <g id="logo-51Degrees-Docs" transform="translate(0.000000, -7.000000)">
                <path d="M48.9742447,20.1814689 L39.3967255,20.1814689 C39.8263822,21.8075489 40.988953,22.7220945 42.6060936,22.7220945 C43.7938304,22.7220945 44.9561483,22.2398598 45.8660467,21.3248318 L48.1654531,23.5864148 C46.7756923,25.1106575 44.7287685,26 42.2272116,26 C37.7796481,26 35,23.2048718 35,19.0381061 C35,14.794887 37.8805021,12 42.100749,12 C46.901902,12 49.2772491,15.1761286 48.9742447,20.1814689 Z M44.7792903,17.8185914 C44.7792903,16.1416832 43.7182058,15.0488471 42.1512708,15.0488471 C40.6349842,15.0488471 39.5991289,16.1670672 39.3211641,17.8185914 L44.7792903,17.8185914 Z M65,24.6330427 C65,28.5300451 61.8333866,31 57.1645516,31 C54.6420141,31 52.3612385,30.2360715 50.7243521,29.1921366 L52.3342308,26.2121506 C53.6493904,27.0778557 55.2592691,27.5872824 56.8156304,27.5872824 C59.0429508,27.5872824 60.3845579,26.4667129 60.3845579,24.7606865 L60.3845579,23.3087993 C59.4453272,24.4803779 58.0230706,25.1424694 56.2254453,25.1424694 C52.5759927,25.1424694 50,22.4936803 50,18.4952036 C50,14.5985639 52.4954676,12.0007235 56.1177881,12.0007235 C57.9695532,11.9749771 59.4185685,12.6373708 60.3845579,13.8343332 L60.3845579,12.1534487 L65,12.1534487 L65,24.6330427 Z M60.3845579,18.6224847 C60.3845579,16.6107056 59.1769933,15.2606554 57.3791191,15.2606554 C55.5544239,15.2606554 54.3201628,16.6361497 54.3201628,18.6224847 C54.3201628,20.5833756 55.5544239,21.9589304 57.3791191,21.9589304 C59.1769933,21.9589304 60.3845579,20.5833756 60.3845579,18.6224847 Z M70.4740834,14.5339812 C71.4306339,12.9215305 73.0085346,12.0256301 75,12 L75,15.9926511 C72.413651,15.7621014 70.7067177,16.9652596 70.4740834,18.9102338 L70.4740834,26 L66,26 L66,12.2046766 L70.4740834,12.2046766 L70.4740834,14.5339812 Z M88.9742055,20.1814689 L79.3965832,20.1814689 C79.8261813,21.8075489 80.9890807,22.7220945 82.6061123,22.7220945 C83.7937354,22.7220945 84.9563187,22.2398598 85.866227,21.3248318 L88.1655317,23.5864148 C86.7756294,25.1106575 84.7286204,26 82.2270998,26 C77.7795516,26 75,23.2048718 75,19.0381061 C75,14.794887 77.8805331,12 82.1007623,12 C86.9019037,12 89.2774662,15.1761286 88.9742055,20.1814689 Z M84.7792692,17.8185914 C84.7792692,16.1416832 83.7183629,15.0488471 82.1510949,15.0488471 C80.6351713,15.0488471 79.5991785,16.1670672 79.3211474,17.8185914 L84.7792692,17.8185914 Z M102.974304,20.1814689 L93.3968075,20.1814689 C93.8261499,21.8075489 94.9887256,22.7220945 96.6058731,22.7220945 C97.7938047,22.7220945 98.9558113,22.2398598 99.8657769,21.3248318 L102.165699,23.5864148 C100.775679,25.1106575 98.7284938,26 96.2273057,26 C91.7795968,26 89,23.2048718 89,19.0381061 C89,14.794887 91.8802614,12 96.1007161,12 C100.9017,12 103.276931,15.1761286 102.974304,20.1814689 Z M98.7791423,17.8185914 C98.7791423,16.1416832 97.7178636,15.0488471 96.1513646,15.0488471 C94.6347553,15.0488471 93.5991485,16.1670672 93.3211193,17.8185914 L98.7791423,17.8185914 Z M114.974324,13.5415897 L113.465105,16.3718255 C111.801342,15.4875417 110.266515,15.0073803 109.115043,15.0073803 C108.321893,15.0073803 107.759089,15.3104571 107.759089,15.9422168 C107.759089,17.8121298 115.025604,16.9025396 114.999932,21.6534809 C114.999932,24.4584103 112.518179,26 109.191931,26 C106.888987,26 104.663636,25.342754 103,24.0792944 L104.407234,21.2995515 C105.968373,22.3862263 107.759089,22.9929195 109.294492,22.9929195 C110.163954,22.9929195 110.803775,22.689303 110.803775,22.0576033 C110.803775,20.0613984 103.665429,21.0974604 103.691101,16.3213327 C103.691101,13.5161035 106.095966,12 109.294492,12 C111.289754,12 113.285592,12.5560205 114.974324,13.5415897 Z M24.955849,8 C30.3045804,8 34,11.6512206 34,16.9999085 C34,22.3228457 30.2558516,26 24.7857545,26 L22,26 L22,22.3484743 L25.0530633,22.3484743 C27.7032166,22.3484743 29.599564,20.1884719 29.599564,17.0255981 C29.599564,13.8372177 27.605759,11.6512206 24.8585739,11.6512206 L22,11.6512206 L22,8 L24.955849,8 Z" id="Combined-Shape" fill="#161616" fill-rule="nonzero"></path>
                <path d="M18.1684532,8 L20.752958,8 L20.752958,25.8220862 L16.6421021,25.8220862 L16.6421021,11.7206242 L14.0510368,12.5342374 L13.2491608,9.55995817 L18.1684532,8 Z M6.7539832,14.4833254 C10.6023621,14.4833254 13.1280639,16.6696921 13.1280639,19.8476461 C13.1280639,23.5849215 10.4822883,26 6.41711463,26 C4.23586503,26 1.75211383,25.1343219 0,23.8434364 L2.27321587,21.0065291 C3.38379277,22.0095188 4.64772704,22.5421742 5.91208261,22.5421742 C7.5716283,22.5421742 8.53408414,21.6780043 8.53408414,20.152555 C8.53408414,18.7541611 7.5716283,17.9407289 5.91208261,17.9407289 C5.2077101,17.9407289 4.37519873,18.0683876 3.58403607,18.2109479 L1.34211763,16.6459823 L1.68344006,8.02539902 L12.3825232,8.02539902 L12.3825232,11.6104613 L5.42631054,11.6104613 L5.23876677,14.4833254 L6.7539832,14.4833254 Z M113.837383,9.78915263 L113.837383,12.155786 L113.122417,12.155786 L113.122417,9.78915263 L112.282804,9.78915263 L112.282804,9.17728367 L114.684761,9.17728367 L114.684761,9.78915263 L113.837383,9.78915263 Z M117.369658,12.155786 L117.365505,10.2226252 L116.690504,11.8584184 L116.224714,11.8584184 L115.549773,10.2226252 L115.549773,12.155786 L114.911125,12.155786 L114.911125,9.17758532 L115.694403,9.17758532 L116.457579,10.9492422 L117.220815,9.17758532 L118,9.17758532 L118,12.155786 L117.369658,12.155786 Z" id="Combined-Shape" fill="#CC2B27"></path>
                <g id="Docs">
                    <use fill="#252525" fill-rule="evenodd" xlink:href="#text-2"></use>
                    <use fill="url(#linearGradient-1)" fill-rule="evenodd" xlink:href="#text-2"></use>
                    <use fill="#252525" fill-opacity="1" xlink:href="#text-2"></use>
                </g>
            </g>
        </g>
    </g>
</svg>