<?xml version="1.0" encoding="UTF-8" standalone="no"?>
<!DOCTYPE svg PUBLIC "-//W3C//DTD SVG 1.1//EN"
 "http://www.w3.org/Graphics/SVG/1.1/DTD/svg11.dtd">
<!-- Generated by graphviz version 2.43.0 (0)
 -->
<!-- Title: FiftyoneDegrees::DeviceDetection::Hash::ValueMetaDataCollectionHash Pages: 1 -->
<svg width="2874pt" height="792pt"
 viewBox="0.00 0.00 2874.00 792.00" xmlns="http://www.w3.org/2000/svg" xmlns:xlink="http://www.w3.org/1999/xlink">
<g id="graph0" class="graph" transform="scale(1 1) rotate(0) translate(4 788)">
<title>FiftyoneDegrees::DeviceDetection::Hash::ValueMetaDataCollectionHash</title>
<!-- Node1 -->
<g id="Node000001" class="node">
<title>Node1</title>
<g id="a_Node000001"><a xlink:title="A collection of all value meta data contained in a Hash engine.">
<polygon fill="#999999" stroke="#666666" points="2866,-513 2664,-513 2664,-483 2866,-483 2866,-513"/>
<text text-anchor="start" x="2672" y="-501" font-family="Helvetica,sans-Serif" font-size="10.00">FiftyoneDegrees::DeviceDetection</text>
<text text-anchor="middle" x="2765" y="-490" font-family="Helvetica,sans-Serif" font-size="10.00">::Hash::ValueMetaDataCollectionHash</text>
</a>
</g>
</g>
<!-- Node2 -->
<g id="Node000002" class="node">
<title>Node2</title>
<g id="a_Node000002"><a xlink:href="class_fiftyone_degrees_1_1_device_detection_1_1_hash_1_1_value_meta_data_collection_base_hash.html" target="_top" xlink:title="A collection of all value meta data contained in a Hash engine.">
<polygon fill="white" stroke="#666666" points="2627,-513 2401,-513 2401,-483 2627,-483 2627,-513"/>
<text text-anchor="start" x="2409" y="-501" font-family="Helvetica,sans-Serif" font-size="10.00">FiftyoneDegrees::DeviceDetection</text>
<text text-anchor="middle" x="2514" y="-490" font-family="Helvetica,sans-Serif" font-size="10.00">::Hash::ValueMetaDataCollectionBaseHash</text>
</a>
</g>
</g>
<!-- Node2&#45;&gt;Node1 -->
<g id="edge1_Node000001_Node000002" class="edge">
<title>Node2&#45;&gt;Node1</title>
<g id="a_edge1_Node000001_Node000002"><a xlink:title=" ">
<path fill="none" stroke="#63b8ff" d="M2637.2,-498C2646.15,-498 2655.11,-498 2663.91,-498"/>
<polygon fill="#63b8ff" stroke="#63b8ff" points="2637.12,-494.5 2627.12,-498 2637.12,-501.5 2637.12,-494.5"/>
</a>
</g>
</g>
<!-- Node3 -->
<g id="Node000003" class="node">
<title>Node3</title>
<g id="a_Node000003"><a xlink:href="class_fiftyone_degrees_1_1_common_1_1_collection.html" target="_top" xlink:title=" ">
<polygon fill="white" stroke="#666666" points="2321,-646.5 2142,-646.5 2142,-605.5 2321,-605.5 2321,-646.5"/>
<text text-anchor="start" x="2150" y="-634.5" font-family="Helvetica,sans-Serif" font-size="10.00">FiftyoneDegrees::Common</text>
<text text-anchor="start" x="2150" y="-623.5" font-family="Helvetica,sans-Serif" font-size="10.00">::Collection&lt; ValueMetaDataKey,</text>
<text text-anchor="middle" x="2231.5" y="-612.5" font-family="Helvetica,sans-Serif" font-size="10.00"> ValueMetaData &gt;</text>
</a>
</g>
</g>
<!-- Node3&#45;&gt;Node2 -->
<g id="edge2_Node000002_Node000003" class="edge">
<title>Node3&#45;&gt;Node2</title>
<g id="a_edge2_Node000002_Node000003"><a xlink:title=" ">
<path fill="none" stroke="#63b8ff" d="M2286.82,-601.21C2344.05,-575.1 2432.32,-534.81 2479.9,-513.1"/>
<polygon fill="#63b8ff" stroke="#63b8ff" points="2285.21,-598.1 2277.57,-605.43 2288.12,-604.47 2285.21,-598.1"/>
</a>
</g>
</g>
<!-- Node4 -->
<g id="Node000004" class="node">
<title>Node4</title>
<g id="a_Node000004"><a xlink:href="class_fiftyone_degrees_1_1_common_1_1_collection.html" target="_top" xlink:title="A group of items accessible by index or key.">
<polygon fill="white" stroke="#666666" points="1981.5,-745 1835.5,-745 1835.5,-715 1981.5,-715 1981.5,-745"/>
<text text-anchor="start" x="1843.5" y="-733" font-family="Helvetica,sans-Serif" font-size="10.00">FiftyoneDegrees::Common</text>
<text text-anchor="middle" x="1908.5" y="-722" font-family="Helvetica,sans-Serif" font-size="10.00">::Collection&lt; K, V &gt;</text>
</a>
</g>
</g>
<!-- Node4&#45;&gt;Node3 -->
<g id="edge3_Node000003_Node000004" class="edge">
<title>Node4&#45;&gt;Node3</title>
<g id="a_edge3_Node000003_Node000004"><a xlink:title=" ">
<path fill="none" stroke="orange" stroke-dasharray="5,2" d="M1992.09,-723.96C2032.83,-719.04 2082.09,-710.12 2124,-694 2153.89,-682.5 2184.33,-662 2204.97,-646.51"/>
<polygon fill="orange" stroke="orange" points="1991.46,-720.51 1981.93,-725.12 1992.26,-727.46 1991.46,-720.51"/>
</a>
</g>
<text text-anchor="start" x="2013" y="-741" font-family="Helvetica,sans-Serif" font-size="10.00" fill="grey">&lt; ValueMetaDataKey,</text>
<text text-anchor="start" x="2013" y="-726" font-family="Helvetica,sans-Serif" font-size="10.00" fill="grey">   ValueMetaData &gt;</text>
</g>
<!-- Node5 -->
<g id="Node000005" class="node">
<title>Node5</title>
<g id="a_Node000005"><a xlink:href="structfiftyone_degrees_data_set_hash.html" target="_top" xlink:title="Data set structure containing all the components used for detections.">
<polygon fill="white" stroke="#666666" points="2310.5,-483.5 2152.5,-483.5 2152.5,-464.5 2310.5,-464.5 2310.5,-483.5"/>
<text text-anchor="middle" x="2231.5" y="-471.5" font-family="Helvetica,sans-Serif" font-size="10.00">fiftyoneDegreesDataSetHash</text>
</a>
</g>
</g>
<!-- Node5&#45;&gt;Node2 -->
<g id="edge4_Node000002_Node000005" class="edge">
<title>Node5&#45;&gt;Node2</title>
<g id="a_edge4_Node000002_Node000005"><a xlink:title=" ">
<path fill="none" stroke="#9a32cd" stroke-dasharray="5,2" d="M2320.63,-481.54C2346.09,-483.72 2374.24,-486.13 2400.95,-488.41"/>
<polygon fill="#9a32cd" stroke="#9a32cd" points="2320.9,-478.05 2310.63,-480.69 2320.3,-485.03 2320.9,-478.05"/>
</a>
</g>
<text text-anchor="start" x="2342" y="-491.5" font-family="Helvetica,sans-Serif" font-size="10.00" fill="grey">dataSet</text>
</g>
<!-- Node6 -->
<g id="Node000006" class="node">
<title>Node6</title>
<g id="a_Node000006"><a xlink:href="structfiftyone_degrees_data_set_device_detection.html" target="_top" xlink:title="Device detection data set structure which contains the &#39;must have&#39;s for all device detection data set...">
<polygon fill="white" stroke="#666666" points="1992,-623 1825,-623 1825,-593 1992,-593 1992,-623"/>
<text text-anchor="start" x="1833" y="-611" font-family="Helvetica,sans-Serif" font-size="10.00">fiftyoneDegreesDataSetDevice</text>
<text text-anchor="middle" x="1908.5" y="-600" font-family="Helvetica,sans-Serif" font-size="10.00">Detection</text>
</a>
</g>
</g>
<!-- Node6&#45;&gt;Node5 -->
<g id="edge5_Node000005_Node000006" class="edge">
<title>Node6&#45;&gt;Node5</title>
<g id="a_edge5_Node000005_Node000006"><a xlink:title=" ">
<path fill="none" stroke="#9a32cd" stroke-dasharray="5,2" d="M1955.1,-588.96C2024.68,-559.92 2154.82,-505.59 2207.49,-483.6"/>
<polygon fill="#9a32cd" stroke="#9a32cd" points="1953.58,-585.81 1945.7,-592.89 1956.28,-592.27 1953.58,-585.81"/>
</a>
</g>
<text text-anchor="start" x="2064" y="-569.5" font-family="Helvetica,sans-Serif" font-size="10.00" fill="grey">b</text>
</g>
<!-- Node7 -->
<g id="Node000007" class="node">
<title>Node7</title>
<g id="a_Node000007"><a xlink:href="structfiftyone_degrees_data_set_base.html" target="_top" xlink:title="Base data set structure which contains the &#39;must have&#39;s for all data sets.">
<polygon fill="white" stroke="#666666" points="1704.5,-606.5 1547.5,-606.5 1547.5,-587.5 1704.5,-587.5 1704.5,-606.5"/>
<text text-anchor="middle" x="1626" y="-594.5" font-family="Helvetica,sans-Serif" font-size="10.00">fiftyoneDegreesDataSetBase</text>
</a>
</g>
</g>
<!-- Node7&#45;&gt;Node6 -->
<g id="edge6_Node000006_Node000007" class="edge">
<title>Node7&#45;&gt;Node6</title>
<g id="a_edge6_Node000006_Node000007"><a xlink:title=" ">
<path fill="none" stroke="#9a32cd" stroke-dasharray="5,2" d="M1714.98,-600.45C1750.03,-601.82 1790.16,-603.4 1824.68,-604.75"/>
<polygon fill="#9a32cd" stroke="#9a32cd" points="1714.89,-596.94 1704.76,-600.05 1714.62,-603.94 1714.89,-596.94"/>
</a>
</g>
<text text-anchor="start" x="1768" y="-608.5" font-family="Helvetica,sans-Serif" font-size="10.00" fill="grey">b</text>
</g>
<!-- Node8 -->
<g id="Node000008" class="node">
<title>Node8</title>
<g id="a_Node000008"><a xlink:href="structfiftyone_degrees_file_pool.html" target="_top" xlink:title="Stack of handles used to read data from a single source file.">
<polygon fill="white" stroke="#666666" points="1370.5,-645.5 1238.5,-645.5 1238.5,-626.5 1370.5,-626.5 1370.5,-645.5"/>
<text text-anchor="middle" x="1304.5" y="-633.5" font-family="Helvetica,sans-Serif" font-size="10.00">fiftyoneDegreesFilePool</text>
</a>
</g>
</g>
<!-- Node8&#45;&gt;Node7 -->
<g id="edge7_Node000007_Node000008" class="edge">
<title>Node8&#45;&gt;Node7</title>
<g id="a_edge7_Node000007_Node000008"><a xlink:title=" ">
<path fill="none" stroke="#9a32cd" stroke-dasharray="5,2" d="M1380.94,-629.73C1421.37,-626.06 1471.98,-620.98 1517,-615 1535,-612.61 1554.59,-609.5 1572.1,-606.54"/>
<polygon fill="#9a32cd" stroke="#9a32cd" points="1380.54,-626.25 1370.89,-630.63 1381.17,-633.22 1380.54,-626.25"/>
</a>
</g>
<text text-anchor="start" x="1446" y="-631.5" font-family="Helvetica,sans-Serif" font-size="10.00" fill="grey">filePool</text>
</g>
<!-- Node9 -->
<g id="Node000009" class="node">
<title>Node9</title>
<g id="a_Node000009"><a xlink:href="structfiftyone_degrees_pool.html" target="_top" xlink:title="Pool of resources stored as items in a stack.">
<polygon fill="white" stroke="#666666" points="969,-682.5 854,-682.5 854,-663.5 969,-663.5 969,-682.5"/>
<text text-anchor="middle" x="911.5" y="-670.5" font-family="Helvetica,sans-Serif" font-size="10.00">fiftyoneDegreesPool</text>
</a>
</g>
</g>
<!-- Node9&#45;&gt;Node8 -->
<g id="edge8_Node000008_Node000009" class="edge">
<title>Node9&#45;&gt;Node8</title>
<g id="a_edge8_Node000008_Node000009"><a xlink:title=" ">
<path fill="none" stroke="#9a32cd" stroke-dasharray="5,2" d="M952.41,-660.62C971.98,-655.11 996.01,-649.16 1018,-646 1092.99,-635.22 1180.13,-633.74 1238.23,-634.31"/>
<polygon fill="#9a32cd" stroke="#9a32cd" points="951.26,-657.31 942.62,-663.45 953.2,-664.04 951.26,-657.31"/>
</a>
</g>
<text text-anchor="start" x="1097" y="-651.5" font-family="Helvetica,sans-Serif" font-size="10.00" fill="grey">pool</text>
</g>
<!-- Node9&#45;&gt;Node9 -->
<g id="edge12_Node000009_Node000009" class="edge">
<title>Node9&#45;&gt;Node9</title>
<g id="a_edge12_Node000009_Node000009"><a xlink:title=" ">
<path fill="none" stroke="#9a32cd" stroke-dasharray="5,2" d="M881.26,-691.32C882.52,-696.51 892.6,-700.5 911.5,-700.5 940.29,-700.5 948.62,-691.23 936.47,-682.58"/>
<polygon fill="#9a32cd" stroke="#9a32cd" points="884.36,-692.95 886.53,-682.58 878.37,-689.34 884.36,-692.95"/>
</a>
</g>
<text text-anchor="start" x="879.5" y="-706" font-family="Helvetica,sans-Serif" font-size="10.00" fill="grey">resourceFree</text>
</g>
<!-- Node10 -->
<g id="Node000010" class="node">
<title>Node10</title>
<g id="a_Node000010"><a xlink:href="structfiftyone_degrees_pool_item.html" target="_top" xlink:title="Pool item node in the stack of items.">
<polygon fill="white" stroke="#666666" points="1373,-706.5 1236,-706.5 1236,-687.5 1373,-687.5 1373,-706.5"/>
<text text-anchor="middle" x="1304.5" y="-694.5" font-family="Helvetica,sans-Serif" font-size="10.00">fiftyoneDegreesPoolItem</text>
</a>
</g>
</g>
<!-- Node9&#45;&gt;Node10 -->
<g id="edge10_Node000010_Node000009" class="edge">
<title>Node9&#45;&gt;Node10</title>
<g id="a_edge10_Node000010_Node000009"><a xlink:title=" ">
<path fill="none" stroke="#9a32cd" stroke-dasharray="5,2" d="M969.39,-684.29C985.08,-686.97 1002.14,-689.49 1018,-691 1092.28,-698.08 1177.89,-698.91 1235.85,-698.39"/>
<polygon fill="#9a32cd" stroke="#9a32cd" points="969.76,-680.8 959.3,-682.52 968.55,-687.7 969.76,-680.8"/>
</a>
</g>
<text text-anchor="start" x="1097" y="-703.5" font-family="Helvetica,sans-Serif" font-size="10.00" fill="grey">pool</text>
</g>
<!-- Node10&#45;&gt;Node9 -->
<g id="edge9_Node000009_Node000010" class="edge">
<title>Node10&#45;&gt;Node9</title>
<g id="a_edge9_Node000009_Node000010"><a xlink:title=" ">
<path fill="none" stroke="#9a32cd" stroke-dasharray="5,2" d="M1258.67,-685.04C1240.05,-680.64 1218.13,-676.2 1198,-674 1118.92,-665.34 1026.78,-667.15 969.03,-669.7"/>
<polygon fill="#9a32cd" stroke="#9a32cd" points="1258.1,-688.5 1268.64,-687.46 1259.75,-681.7 1258.1,-688.5"/>
</a>
</g>
<text text-anchor="start" x="1095" y="-679.5" font-family="Helvetica,sans-Serif" font-size="10.00" fill="grey">stack</text>
</g>
<!-- Node11 -->
<g id="Node000011" class="node">
<title>Node11</title>
<g id="a_Node000011"><a xlink:href="unionfiftyone_degrees_pool_head.html" target="_top" xlink:title="The head of the stack used for pop and push operations.">
<polygon fill="white" stroke="#666666" points="656,-682.5 516,-682.5 516,-663.5 656,-663.5 656,-682.5"/>
<text text-anchor="middle" x="586" y="-670.5" font-family="Helvetica,sans-Serif" font-size="10.00">fiftyoneDegreesPoolHead</text>
</a>
</g>
</g>
<!-- Node11&#45;&gt;Node9 -->
<g id="edge11_Node000009_Node000011" class="edge">
<title>Node11&#45;&gt;Node9</title>
<g id="a_edge11_Node000009_Node000011"><a xlink:title=" ">
<path fill="none" stroke="#9a32cd" stroke-dasharray="5,2" d="M666.26,-673C724.42,-673 802.02,-673 853.99,-673"/>
<polygon fill="#9a32cd" stroke="#9a32cd" points="666,-669.5 656,-673 666,-676.5 666,-669.5"/>
</a>
</g>
<text text-anchor="start" x="737.5" y="-678.5" font-family="Helvetica,sans-Serif" font-size="10.00" fill="grey">head</text>
</g>
<!-- Node12 -->
<g id="Node000012" class="node">
<title>Node12</title>
<g id="a_Node000012"><a xlink:href="structfiftyone_degrees_resource_handle.html" target="_top" xlink:title="Handle for a shared resource.">
<polygon fill="white" stroke="#666666" points="1391,-760.5 1218,-760.5 1218,-741.5 1391,-741.5 1391,-760.5"/>
<text text-anchor="middle" x="1304.5" y="-748.5" font-family="Helvetica,sans-Serif" font-size="10.00">fiftyoneDegreesResourceHandle</text>
</a>
</g>
</g>
<!-- Node12&#45;&gt;Node7 -->
<g id="edge13_Node000007_Node000012" class="edge">
<title>Node12&#45;&gt;Node7</title>
<g id="a_edge13_Node000007_Node000012"><a xlink:title=" ">
<path fill="none" stroke="#9a32cd" stroke-dasharray="5,2" d="M1341.03,-737.82C1357.08,-731.6 1376.17,-723.84 1393,-716 1457.89,-685.77 1471.13,-672.33 1535,-640 1558.48,-628.11 1585.81,-615.18 1604.14,-606.64"/>
<polygon fill="#9a32cd" stroke="#9a32cd" points="1339.56,-734.63 1331.47,-741.48 1342.06,-741.17 1339.56,-734.63"/>
</a>
</g>
<text text-anchor="start" x="1447" y="-712.5" font-family="Helvetica,sans-Serif" font-size="10.00" fill="grey">handle</text>
</g>
<!-- Node14 -->
<g id="Node000014" class="node">
<title>Node14</title>
<g id="a_Node000014"><a xlink:href="structfiftyone_degrees_resource_manager.html" target="_top" xlink:title="Manager structure used to provide access to a shared and changing resource.">
<polygon fill="white" stroke="#666666" points="1717,-775.5 1535,-775.5 1535,-756.5 1717,-756.5 1717,-775.5"/>
<text text-anchor="middle" x="1626" y="-763.5" font-family="Helvetica,sans-Serif" font-size="10.00">fiftyoneDegreesResourceManager</text>
</a>
</g>
</g>
<!-- Node12&#45;&gt;Node14 -->
<g id="edge16_Node000014_Node000012" class="edge">
<title>Node12&#45;&gt;Node14</title>
<g id="a_edge16_Node000014_Node000012"><a xlink:title=" ">
<path fill="none" stroke="#9a32cd" stroke-dasharray="5,2" d="M1383.49,-761.62C1392.75,-762.58 1402.07,-763.41 1411,-764 1451.6,-766.68 1496.62,-767.44 1534.85,-767.42"/>
<polygon fill="#9a32cd" stroke="#9a32cd" points="1383.82,-758.13 1373.49,-760.53 1383.06,-765.09 1383.82,-758.13"/>
</a>
</g>
<text text-anchor="start" x="1449" y="-772.5" font-family="Helvetica,sans-Serif" font-size="10.00" fill="grey">active</text>
</g>
<!-- Node13 -->
<g id="Node000013" class="node">
<title>Node13</title>
<g id="a_Node000013"><a xlink:href="structfiftyone_degrees_interlock_double_width.html" target="_top" xlink:title="Double width (64 or 128 depending on the architecture) compare and exchange.">
<polygon fill="white" stroke="#666666" points="980,-768 843,-768 843,-738 980,-738 980,-768"/>
<text text-anchor="start" x="851" y="-756" font-family="Helvetica,sans-Serif" font-size="10.00">fiftyoneDegreesInterlock</text>
<text text-anchor="middle" x="911.5" y="-745" font-family="Helvetica,sans-Serif" font-size="10.00">DoubleWidth</text>
</a>
</g>
</g>
<!-- Node13&#45;&gt;Node12 -->
<g id="edge14_Node000012_Node000013" class="edge">
<title>Node13&#45;&gt;Node12</title>
<g id="a_edge14_Node000012_Node000013"><a xlink:title=" ">
<path fill="none" stroke="#9a32cd" stroke-dasharray="5,2" d="M990.46,-752.6C1056.18,-752.27 1150.1,-751.78 1217.89,-751.44"/>
<polygon fill="#9a32cd" stroke="#9a32cd" points="990.14,-749.1 980.16,-752.65 990.18,-756.1 990.14,-749.1"/>
</a>
</g>
<text text-anchor="start" x="1090" y="-757.5" font-family="Helvetica,sans-Serif" font-size="10.00" fill="grey">counter</text>
</g>
<!-- Node14&#45;&gt;Node12 -->
<g id="edge15_Node000012_Node000014" class="edge">
<title>Node14&#45;&gt;Node12</title>
<g id="a_edge15_Node000012_Node000014"><a xlink:title=" ">
<path fill="none" stroke="#9a32cd" stroke-dasharray="5,2" d="M1571.2,-754.64C1553.97,-751.51 1534.76,-748.55 1517,-747 1475.66,-743.39 1429.6,-743.75 1391.05,-745.27"/>
<polygon fill="#9a32cd" stroke="#9a32cd" points="1570.62,-758.09 1581.09,-756.49 1571.91,-751.21 1570.62,-758.09"/>
</a>
</g>
<text text-anchor="start" x="1442" y="-752.5" font-family="Helvetica,sans-Serif" font-size="10.00" fill="grey">manager</text>
</g>
<!-- Node15 -->
<g id="Node000015" class="node">
<title>Node15</title>
<g id="a_Node000015"><a xlink:href="structfiftyone_degrees_property_available_array.html" target="_top" xlink:title="Array of items of type fiftyoneDegreesPropertyAvailable used to easily access and track the size of t...">
<polygon fill="white" stroke="#666666" points="1198,-472 1018,-472 1018,-442 1198,-442 1198,-472"/>
<text text-anchor="start" x="1026" y="-460" font-family="Helvetica,sans-Serif" font-size="10.00">fiftyoneDegreesPropertyAvailable</text>
<text text-anchor="middle" x="1108" y="-449" font-family="Helvetica,sans-Serif" font-size="10.00">Array</text>
</a>
</g>
</g>
<!-- Node15&#45;&gt;Node7 -->
<g id="edge17_Node000007_Node000015" class="edge">
<title>Node15&#45;&gt;Node7</title>
<g id="a_edge17_Node000007_Node000015"><a xlink:title=" ">
<path fill="none" stroke="#9a32cd" stroke-dasharray="5,2" d="M1208.21,-453.9C1263.03,-453.75 1332.15,-456.13 1393,-466 1449.77,-475.21 1477.05,-461.63 1517,-503 1539.02,-525.8 1512.77,-549.41 1535,-572 1541.71,-578.82 1550.11,-583.82 1559.06,-587.49"/>
<polygon fill="#9a32cd" stroke="#9a32cd" points="1208.13,-450.4 1198.15,-453.96 1208.17,-457.4 1208.13,-450.4"/>
</a>
</g>
<text text-anchor="start" x="1281.5" y="-471.5" font-family="Helvetica,sans-Serif" font-size="10.00" fill="grey">available</text>
</g>
<!-- Node16 -->
<g id="Node000016" class="node">
<title>Node16</title>
<g id="a_Node000016"><a xlink:href="structfiftyone_degrees_property_available.html" target="_top" xlink:title="Used to access the property item quickly without the need to search.">
<polygon fill="white" stroke="#666666" points="676,-466.5 496,-466.5 496,-447.5 676,-447.5 676,-466.5"/>
<text text-anchor="middle" x="586" y="-454.5" font-family="Helvetica,sans-Serif" font-size="10.00">fiftyoneDegreesPropertyAvailable</text>
</a>
</g>
</g>
<!-- Node16&#45;&gt;Node15 -->
<g id="edge18_Node000015_Node000016" class="edge">
<title>Node16&#45;&gt;Node15</title>
<g id="a_edge18_Node000015_Node000016"><a xlink:title=" ">
<path fill="none" stroke="#9a32cd" stroke-dasharray="5,2" d="M686.37,-457C782.11,-457 925.63,-457 1017.8,-457"/>
<polygon fill="#9a32cd" stroke="#9a32cd" points="686.1,-453.5 676.1,-457 686.1,-460.5 686.1,-453.5"/>
</a>
</g>
<text text-anchor="start" x="735.5" y="-462.5" font-family="Helvetica,sans-Serif" font-size="10.00" fill="grey">items</text>
</g>
<!-- Node23 -->
<g id="Node000023" class="node">
<title>Node23</title>
<g id="a_Node000023"><a xlink:href="structfiftyone_degrees_override_property.html" target="_top" xlink:title="Index and pointer to a property which can be overridden.">
<polygon fill="white" stroke="#666666" points="1000,-543.5 823,-543.5 823,-524.5 1000,-524.5 1000,-543.5"/>
<text text-anchor="middle" x="911.5" y="-531.5" font-family="Helvetica,sans-Serif" font-size="10.00">fiftyoneDegreesOverrideProperty</text>
</a>
</g>
</g>
<!-- Node16&#45;&gt;Node23 -->
<g id="edge28_Node000023_Node000016" class="edge">
<title>Node16&#45;&gt;Node23</title>
<g id="a_edge28_Node000023_Node000016"><a xlink:title=" ">
<path fill="none" stroke="#9a32cd" stroke-dasharray="5,2" d="M636.88,-468.87C701.06,-484.15 811.28,-510.38 870.35,-524.44"/>
<polygon fill="#9a32cd" stroke="#9a32cd" points="637.53,-465.43 626.99,-466.52 635.91,-472.24 637.53,-465.43"/>
</a>
</g>
<text text-anchor="start" x="726.5" y="-511.5" font-family="Helvetica,sans-Serif" font-size="10.00" fill="grey">available</text>
</g>
<!-- Node17 -->
<g id="Node000017" class="node">
<title>Node17</title>
<g id="a_Node000017"><a xlink:href="structfiftyone_degrees_collection_item.html" target="_top" xlink:title="Used to store a handle to the underlying item that could be used to release the item when it&#39;s finish...">
<polygon fill="white" stroke="#666666" points="353,-149.5 188,-149.5 188,-130.5 353,-130.5 353,-149.5"/>
<text text-anchor="middle" x="270.5" y="-137.5" font-family="Helvetica,sans-Serif" font-size="10.00">fiftyoneDegreesCollectionItem</text>
</a>
</g>
</g>
<!-- Node17&#45;&gt;Node16 -->
<g id="edge19_Node000016_Node000017" class="edge">
<title>Node17&#45;&gt;Node16</title>
<g id="a_edge19_Node000016_Node000017"><a xlink:title=" ">
<path fill="none" stroke="#9a32cd" stroke-dasharray="5,2" d="M288.43,-157.12C345.69,-215.01 531.01,-402.41 575.39,-447.28"/>
<polygon fill="#9a32cd" stroke="#9a32cd" points="290.75,-154.48 281.23,-149.83 285.77,-159.41 290.75,-154.48"/>
</a>
</g>
<text text-anchor="start" x="414" y="-350.5" font-family="Helvetica,sans-Serif" font-size="10.00" fill="grey">name</text>
</g>
<!-- Node19 -->
<g id="Node000019" class="node">
<title>Node19</title>
<g id="a_Node000019"><a xlink:href="structfiftyone_degrees_collection.html" target="_top" xlink:title="All the shared methods and fields required by file, memory and cached collections.">
<polygon fill="white" stroke="#666666" points="657.5,-81.5 514.5,-81.5 514.5,-62.5 657.5,-62.5 657.5,-81.5"/>
<text text-anchor="middle" x="586" y="-69.5" font-family="Helvetica,sans-Serif" font-size="10.00">fiftyoneDegreesCollection</text>
</a>
</g>
</g>
<!-- Node17&#45;&gt;Node19 -->
<g id="edge23_Node000019_Node000017" class="edge">
<title>Node17&#45;&gt;Node19</title>
<g id="a_edge23_Node000019_Node000017"><a xlink:title=" ">
<path fill="none" stroke="#9a32cd" stroke-dasharray="5,2" d="M326.99,-128.35C368.58,-119.57 426.89,-107.18 478,-96 499.48,-91.3 523.36,-85.96 543.1,-81.51"/>
<polygon fill="#9a32cd" stroke="#9a32cd" points="326.12,-124.95 317.05,-130.44 327.56,-131.8 326.12,-124.95"/>
</a>
</g>
<text text-anchor="start" x="410" y="-122.5" font-family="Helvetica,sans-Serif" font-size="10.00" fill="grey">release</text>
</g>
<!-- Node33 -->
<g id="Node000033" class="node">
<title>Node33</title>
<g id="a_Node000033"><a xlink:href="structfiftyone_degrees_list.html" target="_top" xlink:title="List structure which contains a list of collection items.">
<polygon fill="white" stroke="#666666" points="805,-169.5 694,-169.5 694,-150.5 805,-150.5 805,-169.5"/>
<text text-anchor="middle" x="749.5" y="-157.5" font-family="Helvetica,sans-Serif" font-size="10.00">fiftyoneDegreesList</text>
</a>
</g>
</g>
<!-- Node17&#45;&gt;Node33 -->
<g id="edge40_Node000033_Node000017" class="edge">
<title>Node17&#45;&gt;Node33</title>
<g id="a_edge40_Node000033_Node000017"><a xlink:title=" ">
<path fill="none" stroke="#9a32cd" stroke-dasharray="5,2" d="M363.42,-143.85C461.37,-147.96 613.2,-154.33 693.83,-157.71"/>
<polygon fill="#9a32cd" stroke="#9a32cd" points="363.37,-140.35 353.23,-143.43 363.07,-147.34 363.37,-140.35"/>
</a>
</g>
<text text-anchor="start" x="414" y="-154.5" font-family="Helvetica,sans-Serif" font-size="10.00" fill="grey">items</text>
</g>
<!-- Node18 -->
<g id="Node000018" class="node">
<title>Node18</title>
<g id="a_Node000018"><a xlink:href="structfiftyone_degrees_data.html" target="_top" xlink:title="Data structure used for reusing memory which may have been allocated in a previous operation.">
<polygon fill="white" stroke="#666666" points="117,-149.5 0,-149.5 0,-130.5 117,-130.5 117,-149.5"/>
<text text-anchor="middle" x="58.5" y="-137.5" font-family="Helvetica,sans-Serif" font-size="10.00">fiftyoneDegreesData</text>
</a>
</g>
</g>
<!-- Node18&#45;&gt;Node17 -->
<g id="edge20_Node000017_Node000018" class="edge">
<title>Node18&#45;&gt;Node17</title>
<g id="a_edge20_Node000017_Node000018"><a xlink:title=" ">
<path fill="none" stroke="#9a32cd" stroke-dasharray="5,2" d="M127.37,-140C146.69,-140 167.94,-140 187.98,-140"/>
<polygon fill="#9a32cd" stroke="#9a32cd" points="127.16,-136.5 117.16,-140 127.16,-143.5 127.16,-136.5"/>
</a>
</g>
<text text-anchor="start" x="138" y="-145.5" font-family="Helvetica,sans-Serif" font-size="10.00" fill="grey">data</text>
</g>
<!-- Node19&#45;&gt;Node5 -->
<g id="edge38_Node000005_Node000019" class="edge">
<title>Node19&#45;&gt;Node5</title>
<g id="a_edge38_Node000005_Node000019"><a xlink:title=" ">
<path fill="none" stroke="#9a32cd" stroke-dasharray="5,2" d="M621.67,-59.03C680.28,-38.29 803.08,0 910.5,0 910.5,0 910.5,0 1909.5,0 2142.06,0 2217.67,-396.03 2228.95,-464.1"/>
<polygon fill="#9a32cd" stroke="#9a32cd" points="620.39,-55.77 612.16,-62.44 622.75,-62.36 620.39,-55.77"/>
</a>
</g>
<text text-anchor="start" x="1431" y="-125.5" font-family="Helvetica,sans-Serif" font-size="10.00" fill="grey">components</text>
<text text-anchor="start" x="1431" y="-110.5" font-family="Helvetica,sans-Serif" font-size="10.00" fill="grey">maps</text>
<text text-anchor="start" x="1431" y="-95.5" font-family="Helvetica,sans-Serif" font-size="10.00" fill="grey">nodes</text>
<text text-anchor="start" x="1431" y="-80.5" font-family="Helvetica,sans-Serif" font-size="10.00" fill="grey">profileOffsets</text>
<text text-anchor="start" x="1431" y="-65.5" font-family="Helvetica,sans-Serif" font-size="10.00" fill="grey">profiles</text>
<text text-anchor="start" x="1431" y="-50.5" font-family="Helvetica,sans-Serif" font-size="10.00" fill="grey">properties</text>
<text text-anchor="start" x="1431" y="-35.5" font-family="Helvetica,sans-Serif" font-size="10.00" fill="grey">rootNodes</text>
<text text-anchor="start" x="1431" y="-20.5" font-family="Helvetica,sans-Serif" font-size="10.00" fill="grey">strings</text>
<text text-anchor="start" x="1431" y="-5.5" font-family="Helvetica,sans-Serif" font-size="10.00" fill="grey">values</text>
</g>
<!-- Node19&#45;&gt;Node17 -->
<g id="edge21_Node000017_Node000019" class="edge">
<title>Node19&#45;&gt;Node17</title>
<g id="a_edge21_Node000017_Node000019"><a xlink:title=" ">
<path fill="none" stroke="#9a32cd" stroke-dasharray="5,2" d="M504.02,-65.78C465.22,-65.04 418.48,-67.49 378,-79 340.7,-89.6 302.61,-115.96 283.7,-130.31"/>
<polygon fill="#9a32cd" stroke="#9a32cd" points="504.14,-69.28 514.23,-66.04 504.32,-62.28 504.14,-69.28"/>
</a>
</g>
<text text-anchor="start" x="404" y="-84.5" font-family="Helvetica,sans-Serif" font-size="10.00" fill="grey">collection</text>
</g>
<!-- Node19&#45;&gt;Node19 -->
<g id="edge22_Node000019_Node000019" class="edge">
<title>Node19&#45;&gt;Node19</title>
<g id="a_edge22_Node000019_Node000019"><a xlink:title=" ">
<path fill="none" stroke="#9a32cd" stroke-dasharray="5,2" d="M556.51,-90.32C557.74,-95.51 567.57,-99.5 586,-99.5 614.08,-99.5 622.2,-90.23 610.35,-81.58"/>
<polygon fill="#9a32cd" stroke="#9a32cd" points="559.59,-91.98 561.65,-81.58 553.56,-88.43 559.59,-91.98"/>
</a>
</g>
<text text-anchor="start" x="552" y="-120.5" font-family="Helvetica,sans-Serif" font-size="10.00" fill="grey">freeCollection</text>
<text text-anchor="start" x="552" y="-105.5" font-family="Helvetica,sans-Serif" font-size="10.00" fill="grey">get</text>
</g>
<!-- Node20 -->
<g id="Node000020" class="node">
<title>Node20</title>
<g id="a_Node000020"><a xlink:href="structfiftyone_degrees_evidence_property_index_array.html" target="_top" xlink:title="Array of items of type fiftyoneDegreesEvidencePropertyIndex used to easily access and track the size ...">
<polygon fill="white" stroke="#666666" points="360,-472 181,-472 181,-442 360,-442 360,-472"/>
<text text-anchor="start" x="189" y="-460" font-family="Helvetica,sans-Serif" font-size="10.00">fiftyoneDegreesEvidenceProperty</text>
<text text-anchor="middle" x="270.5" y="-449" font-family="Helvetica,sans-Serif" font-size="10.00">IndexArray</text>
</a>
</g>
</g>
<!-- Node20&#45;&gt;Node16 -->
<g id="edge24_Node000016_Node000020" class="edge">
<title>Node20&#45;&gt;Node16</title>
<g id="a_edge24_Node000016_Node000020"><a xlink:title=" ">
<path fill="none" stroke="#9a32cd" stroke-dasharray="5,2" d="M370.17,-457C410.42,-457 456.61,-457 495.82,-457"/>
<polygon fill="#9a32cd" stroke="#9a32cd" points="370.08,-453.5 360.08,-457 370.08,-460.5 370.08,-453.5"/>
</a>
</g>
<text text-anchor="start" x="381" y="-462.5" font-family="Helvetica,sans-Serif" font-size="10.00" fill="grey">evidenceProperties</text>
</g>
<!-- Node21 -->
<g id="Node000021" class="node">
<title>Node21</title>
<g id="a_Node000021"><a xlink:href="structfiftyone_degrees_header_array.html" target="_top" xlink:title="Array of Headers which should always be ordered in ascending order of fullHeaderId.">
<polygon fill="white" stroke="#666666" points="1382,-607.5 1227,-607.5 1227,-588.5 1382,-588.5 1382,-607.5"/>
<text text-anchor="middle" x="1304.5" y="-595.5" font-family="Helvetica,sans-Serif" font-size="10.00">fiftyoneDegreesHeaderArray</text>
</a>
</g>
</g>
<!-- Node21&#45;&gt;Node7 -->
<g id="edge25_Node000007_Node000021" class="edge">
<title>Node21&#45;&gt;Node7</title>
<g id="a_edge25_Node000007_Node000021"><a xlink:title=" ">
<path fill="none" stroke="#9a32cd" stroke-dasharray="5,2" d="M1392.19,-597.73C1440.64,-597.58 1500.53,-597.39 1547.43,-597.24"/>
<polygon fill="#9a32cd" stroke="#9a32cd" points="1392.02,-594.23 1382.03,-597.76 1392.04,-601.23 1392.02,-594.23"/>
</a>
</g>
<text text-anchor="start" x="1427" y="-602.5" font-family="Helvetica,sans-Serif" font-size="10.00" fill="grey">uniqueHeaders</text>
</g>
<!-- Node22 -->
<g id="Node000022" class="node">
<title>Node22</title>
<g id="a_Node000022"><a xlink:href="structfiftyone_degrees_override_property_array.html" target="_top" xlink:title="Array of items of type fiftyoneDegreesOverrideProperty used to easily access and track the size of th...">
<polygon fill="white" stroke="#666666" points="1393,-570 1216,-570 1216,-540 1393,-540 1393,-570"/>
<text text-anchor="start" x="1224" y="-558" font-family="Helvetica,sans-Serif" font-size="10.00">fiftyoneDegreesOverrideProperty</text>
<text text-anchor="middle" x="1304.5" y="-547" font-family="Helvetica,sans-Serif" font-size="10.00">Array</text>
</a>
</g>
</g>
<!-- Node22&#45;&gt;Node7 -->
<g id="edge26_Node000007_Node000022" class="edge">
<title>Node22&#45;&gt;Node7</title>
<g id="a_edge26_Node000007_Node000022"><a xlink:title=" ">
<path fill="none" stroke="#9a32cd" stroke-dasharray="5,2" d="M1403.17,-562.78C1439.05,-566.15 1479.96,-570.57 1517,-576 1538.17,-579.1 1561.49,-583.51 1581.02,-587.49"/>
<polygon fill="#9a32cd" stroke="#9a32cd" points="1403.47,-559.3 1393.19,-561.86 1402.83,-566.27 1403.47,-559.3"/>
</a>
</g>
<text text-anchor="start" x="1436" y="-581.5" font-family="Helvetica,sans-Serif" font-size="10.00" fill="grey">overridable</text>
</g>
<!-- Node23&#45;&gt;Node22 -->
<g id="edge27_Node000022_Node000023" class="edge">
<title>Node23&#45;&gt;Node22</title>
<g id="a_edge27_Node000022_Node000023"><a xlink:title=" ">
<path fill="none" stroke="#9a32cd" stroke-dasharray="5,2" d="M1010.6,-539.27C1073.63,-542.65 1154.81,-547.01 1215.71,-550.28"/>
<polygon fill="#9a32cd" stroke="#9a32cd" points="1010.42,-535.75 1000.25,-538.71 1010.05,-542.74 1010.42,-535.75"/>
</a>
</g>
<text text-anchor="start" x="1094" y="-553.5" font-family="Helvetica,sans-Serif" font-size="10.00" fill="grey">items</text>
</g>
<!-- Node24 -->
<g id="Node000024" class="node">
<title>Node24</title>
<g id="a_Node000024"><a xlink:href="structfiftyone_degrees_indices_property_profile.html" target="_top" xlink:title="Maps the profile index and the property index to the first value index of the profile for the propert...">
<polygon fill="white" stroke="#666666" points="1389.5,-522 1219.5,-522 1219.5,-492 1389.5,-492 1389.5,-522"/>
<text text-anchor="start" x="1227.5" y="-510" font-family="Helvetica,sans-Serif" font-size="10.00">fiftyoneDegreesIndicesProperty</text>
<text text-anchor="middle" x="1304.5" y="-499" font-family="Helvetica,sans-Serif" font-size="10.00">Profile</text>
</a>
</g>
</g>
<!-- Node24&#45;&gt;Node7 -->
<g id="edge29_Node000007_Node000024" class="edge">
<title>Node24&#45;&gt;Node7</title>
<g id="a_edge29_Node000007_Node000024"><a xlink:title=" ">
<path fill="none" stroke="#9a32cd" stroke-dasharray="5,2" d="M1399.97,-505.67C1439.03,-509.21 1483.03,-518.9 1517,-542 1529.86,-550.74 1522.63,-562.58 1535,-572 1544.03,-578.88 1554.85,-583.86 1565.81,-587.47"/>
<polygon fill="#9a32cd" stroke="#9a32cd" points="1399.87,-502.15 1389.62,-504.86 1399.32,-509.13 1399.87,-502.15"/>
</a>
</g>
<text text-anchor="start" x="1414" y="-547.5" font-family="Helvetica,sans-Serif" font-size="10.00" fill="grey">indexPropertyProfile</text>
</g>
<!-- Node25 -->
<g id="Node000025" class="node">
<title>Node25</title>
<g id="a_Node000025"><a xlink:href="structfiftyone_degrees_header_ptr_array.html" target="_top" xlink:title="Array of header indexes.">
<polygon fill="white" stroke="#666666" points="1697.5,-679 1554.5,-679 1554.5,-649 1697.5,-649 1697.5,-679"/>
<text text-anchor="start" x="1562.5" y="-667" font-family="Helvetica,sans-Serif" font-size="10.00">fiftyoneDegreesHeaderPtr</text>
<text text-anchor="middle" x="1626" y="-656" font-family="Helvetica,sans-Serif" font-size="10.00">Array</text>
</a>
</g>
</g>
<!-- Node25&#45;&gt;Node5 -->
<g id="edge41_Node000005_Node000025" class="edge">
<title>Node25&#45;&gt;Node5</title>
<g id="a_edge41_Node000005_Node000025"><a xlink:title=" ">
<path fill="none" stroke="#9a32cd" stroke-dasharray="5,2" d="M1708.1,-670.29C1812.71,-674.38 1996.38,-667.54 2124,-585 2168.63,-556.14 2208.23,-505.07 2223.65,-483.77"/>
<polygon fill="#9a32cd" stroke="#9a32cd" points="1708.06,-666.79 1697.91,-669.85 1707.75,-673.78 1708.06,-666.79"/>
</a>
</g>
<text text-anchor="start" x="1860.5" y="-673.5" font-family="Helvetica,sans-Serif" font-size="10.00" fill="grey">componentHeaders</text>
</g>
<!-- Node25&#45;&gt;Node6 -->
<g id="edge30_Node000006_Node000025" class="edge">
<title>Node25&#45;&gt;Node6</title>
<g id="a_edge30_Node000006_Node000025"><a xlink:title=" ">
<path fill="none" stroke="#9a32cd" stroke-dasharray="5,2" d="M1707.59,-647.91C1746.86,-640.07 1793.8,-630.7 1832.32,-623.01"/>
<polygon fill="#9a32cd" stroke="#9a32cd" points="1706.9,-644.48 1697.78,-649.87 1708.27,-651.34 1706.9,-644.48"/>
</a>
</g>
<text text-anchor="start" x="1739" y="-646.5" font-family="Helvetica,sans-Serif" font-size="10.00" fill="grey">ghevHeaders</text>
</g>
<!-- Node26 -->
<g id="Node000026" class="node">
<title>Node26</title>
<g id="a_Node000026"><a xlink:href="structfiftyone_degrees_data_set_hash_header.html" target="_top" xlink:title="Dataset header containing information about the dataset.">
<polygon fill="white" stroke="#666666" points="1987.5,-489 1829.5,-489 1829.5,-459 1987.5,-459 1987.5,-489"/>
<text text-anchor="start" x="1837.5" y="-477" font-family="Helvetica,sans-Serif" font-size="10.00">fiftyoneDegreesDataSetHash</text>
<text text-anchor="middle" x="1908.5" y="-466" font-family="Helvetica,sans-Serif" font-size="10.00">Header</text>
</a>
</g>
</g>
<!-- Node26&#45;&gt;Node5 -->
<g id="edge31_Node000005_Node000026" class="edge">
<title>Node26&#45;&gt;Node5</title>
<g id="a_edge31_Node000005_Node000026"><a xlink:title=" ">
<path fill="none" stroke="#9a32cd" stroke-dasharray="5,2" d="M1997.76,-474C2046.15,-474 2105.61,-474 2152.31,-474"/>
<polygon fill="#9a32cd" stroke="#9a32cd" points="1997.61,-470.5 1987.61,-474 1997.61,-477.5 1997.61,-470.5"/>
</a>
</g>
<text text-anchor="start" x="2050" y="-479.5" font-family="Helvetica,sans-Serif" font-size="10.00" fill="grey">header</text>
</g>
<!-- Node27 -->
<g id="Node000027" class="node">
<title>Node27</title>
<g id="a_Node000027"><a xlink:href="structfiftyone_degrees_date.html" target="_top" xlink:title="Used to store the date when the dataset was produced and next date 51Degrees expect to provide a new ...">
<polygon fill="white" stroke="#666666" points="1684.5,-562.5 1567.5,-562.5 1567.5,-543.5 1684.5,-543.5 1684.5,-562.5"/>
<text text-anchor="middle" x="1626" y="-550.5" font-family="Helvetica,sans-Serif" font-size="10.00">fiftyoneDegreesDate</text>
</a>
</g>
</g>
<!-- Node27&#45;&gt;Node26 -->
<g id="edge32_Node000026_Node000027" class="edge">
<title>Node27&#45;&gt;Node26</title>
<g id="a_edge32_Node000026_Node000027"><a xlink:title=" ">
<path fill="none" stroke="#9a32cd" stroke-dasharray="5,2" d="M1694.98,-551C1729.28,-548.42 1771.1,-542.85 1807,-531 1836.52,-521.26 1867.14,-502.42 1886.7,-489.07"/>
<polygon fill="#9a32cd" stroke="#9a32cd" points="1694.34,-547.54 1684.6,-551.71 1694.81,-554.52 1694.34,-547.54"/>
</a>
</g>
<text text-anchor="start" x="1742" y="-567" font-family="Helvetica,sans-Serif" font-size="10.00" fill="grey">nextUpdate</text>
<text text-anchor="start" x="1742" y="-552" font-family="Helvetica,sans-Serif" font-size="10.00" fill="grey">published</text>
</g>
<!-- Node28 -->
<g id="Node000028" class="node">
<title>Node28</title>
<g id="a_Node000028"><a xlink:href="structfiftyone_degrees_collection_header.html" target="_top" xlink:title="Collection header structure which defines the size and location of the collection data.">
<polygon fill="white" stroke="#666666" points="1697.5,-408 1554.5,-408 1554.5,-378 1697.5,-378 1697.5,-408"/>
<text text-anchor="start" x="1562.5" y="-396" font-family="Helvetica,sans-Serif" font-size="10.00">fiftyoneDegreesCollection</text>
<text text-anchor="middle" x="1626" y="-385" font-family="Helvetica,sans-Serif" font-size="10.00">Header</text>
</a>
</g>
</g>
<!-- Node28&#45;&gt;Node26 -->
<g id="edge33_Node000026_Node000028" class="edge">
<title>Node28&#45;&gt;Node26</title>
<g id="a_edge33_Node000026_Node000028"><a xlink:title=" ">
<path fill="none" stroke="#9a32cd" stroke-dasharray="5,2" d="M1707.88,-379.48C1739.63,-377.27 1775.85,-378.7 1807,-390 1844.84,-403.73 1878.39,-438.63 1895.5,-458.86"/>
<polygon fill="#9a32cd" stroke="#9a32cd" points="1707.41,-376.01 1697.74,-380.32 1707.99,-382.98 1707.41,-376.01"/>
</a>
</g>
<text text-anchor="start" x="1738" y="-515.5" font-family="Helvetica,sans-Serif" font-size="10.00" fill="grey">components</text>
<text text-anchor="start" x="1738" y="-500.5" font-family="Helvetica,sans-Serif" font-size="10.00" fill="grey">maps</text>
<text text-anchor="start" x="1738" y="-485.5" font-family="Helvetica,sans-Serif" font-size="10.00" fill="grey">nodes</text>
<text text-anchor="start" x="1738" y="-470.5" font-family="Helvetica,sans-Serif" font-size="10.00" fill="grey">profileOffsets</text>
<text text-anchor="start" x="1738" y="-455.5" font-family="Helvetica,sans-Serif" font-size="10.00" fill="grey">profiles</text>
<text text-anchor="start" x="1738" y="-440.5" font-family="Helvetica,sans-Serif" font-size="10.00" fill="grey">properties</text>
<text text-anchor="start" x="1738" y="-425.5" font-family="Helvetica,sans-Serif" font-size="10.00" fill="grey">rootNodes</text>
<text text-anchor="start" x="1738" y="-410.5" font-family="Helvetica,sans-Serif" font-size="10.00" fill="grey">strings</text>
<text text-anchor="start" x="1738" y="-395.5" font-family="Helvetica,sans-Serif" font-size="10.00" fill="grey">values</text>
</g>
<!-- Node29 -->
<g id="Node000029" class="node">
<title>Node29</title>
<g id="a_Node000029"><a xlink:href="structfiftyone_degrees_config_hash.html" target="_top" xlink:title="Hash specific configuration structure.">
<polygon fill="white" stroke="#666666" points="1983,-362.5 1834,-362.5 1834,-343.5 1983,-343.5 1983,-362.5"/>
<text text-anchor="middle" x="1908.5" y="-350.5" font-family="Helvetica,sans-Serif" font-size="10.00">fiftyoneDegreesConfigHash</text>
</a>
</g>
</g>
<!-- Node29&#45;&gt;Node5 -->
<g id="edge34_Node000005_Node000029" class="edge">
<title>Node29&#45;&gt;Node5</title>
<g id="a_edge34_Node000005_Node000029"><a xlink:title=" ">
<path fill="none" stroke="#9a32cd" stroke-dasharray="5,2" d="M1944.38,-366.15C2009.44,-390.67 2147.91,-442.87 2205.04,-464.4"/>
<polygon fill="#9a32cd" stroke="#9a32cd" points="1945.55,-362.85 1934.96,-362.6 1943.08,-369.4 1945.55,-362.85"/>
</a>
</g>
<text text-anchor="start" x="2052" y="-436.5" font-family="Helvetica,sans-Serif" font-size="10.00" fill="grey">config</text>
</g>
<!-- Node30 -->
<g id="Node000030" class="node">
<title>Node30</title>
<g id="a_Node000030"><a xlink:href="structfiftyone_degrees_config_device_detection.html" target="_top" xlink:title="Device detection configuration structure containing device detection specific configuration options,...">
<polygon fill="white" stroke="#666666" points="1705,-360 1547,-360 1547,-330 1705,-330 1705,-360"/>
<text text-anchor="start" x="1555" y="-348" font-family="Helvetica,sans-Serif" font-size="10.00">fiftyoneDegreesConfigDevice</text>
<text text-anchor="middle" x="1626" y="-337" font-family="Helvetica,sans-Serif" font-size="10.00">Detection</text>
</a>
</g>
</g>
<!-- Node30&#45;&gt;Node29 -->
<g id="edge35_Node000029_Node000030" class="edge">
<title>Node30&#45;&gt;Node29</title>
<g id="a_edge35_Node000029_Node000030"><a xlink:title=" ">
<path fill="none" stroke="#9a32cd" stroke-dasharray="5,2" d="M1715.19,-347.52C1753.27,-348.6 1797.32,-349.86 1833.64,-350.89"/>
<polygon fill="#9a32cd" stroke="#9a32cd" points="1715.23,-344.02 1705.13,-347.23 1715.03,-351.01 1715.23,-344.02"/>
</a>
</g>
<text text-anchor="start" x="1768" y="-354.5" font-family="Helvetica,sans-Serif" font-size="10.00" fill="grey">b</text>
</g>
<!-- Node31 -->
<g id="Node000031" class="node">
<title>Node31</title>
<g id="a_Node000031"><a xlink:href="structfiftyone_degrees_config_base.html" target="_top" xlink:title="Base configuration structure containing common configuration options, and options that apply to struc...">
<polygon fill="white" stroke="#666666" points="1379,-354.5 1230,-354.5 1230,-335.5 1379,-335.5 1379,-354.5"/>
<text text-anchor="middle" x="1304.5" y="-342.5" font-family="Helvetica,sans-Serif" font-size="10.00">fiftyoneDegreesConfigBase</text>
</a>
</g>
</g>
<!-- Node31&#45;&gt;Node30 -->
<g id="edge36_Node000030_Node000031" class="edge">
<title>Node31&#45;&gt;Node30</title>
<g id="a_edge36_Node000030_Node000031"><a xlink:title=" ">
<path fill="none" stroke="#9a32cd" stroke-dasharray="5,2" d="M1389.41,-345C1438.17,-345 1499.2,-345 1546.93,-345"/>
<polygon fill="#9a32cd" stroke="#9a32cd" points="1389.2,-341.5 1379.2,-345 1389.2,-348.5 1389.2,-341.5"/>
</a>
</g>
<text text-anchor="start" x="1461" y="-350.5" font-family="Helvetica,sans-Serif" font-size="10.00" fill="grey">b</text>
</g>
<!-- Node32 -->
<g id="Node000032" class="node">
<title>Node32</title>
<g id="a_Node000032"><a xlink:href="structfiftyone_degrees_collection_config.html" target="_top" xlink:title="Collection configuration structure which defines how the collection should be created by the create m...">
<polygon fill="white" stroke="#666666" points="1697.5,-218 1554.5,-218 1554.5,-188 1697.5,-188 1697.5,-218"/>
<text text-anchor="start" x="1562.5" y="-206" font-family="Helvetica,sans-Serif" font-size="10.00">fiftyoneDegreesCollection</text>
<text text-anchor="middle" x="1626" y="-195" font-family="Helvetica,sans-Serif" font-size="10.00">Config</text>
</a>
</g>
</g>
<!-- Node32&#45;&gt;Node29 -->
<g id="edge37_Node000029_Node000032" class="edge">
<title>Node32&#45;&gt;Node29</title>
<g id="a_edge37_Node000029_Node000032"><a xlink:title=" ">
<path fill="none" stroke="#9a32cd" stroke-dasharray="5,2" d="M1708.29,-189.38C1740.73,-187.75 1777.34,-190.99 1807,-207 1863.59,-237.56 1894.76,-315.53 1904.3,-343.13"/>
<polygon fill="#9a32cd" stroke="#9a32cd" points="1707.66,-185.91 1697.92,-190.06 1708.13,-192.89 1707.66,-185.91"/>
</a>
</g>
<text text-anchor="start" x="1738" y="-332.5" font-family="Helvetica,sans-Serif" font-size="10.00" fill="grey">components</text>
<text text-anchor="start" x="1738" y="-317.5" font-family="Helvetica,sans-Serif" font-size="10.00" fill="grey">maps</text>
<text text-anchor="start" x="1738" y="-302.5" font-family="Helvetica,sans-Serif" font-size="10.00" fill="grey">nodes</text>
<text text-anchor="start" x="1738" y="-287.5" font-family="Helvetica,sans-Serif" font-size="10.00" fill="grey">profileOffsets</text>
<text text-anchor="start" x="1738" y="-272.5" font-family="Helvetica,sans-Serif" font-size="10.00" fill="grey">profiles</text>
<text text-anchor="start" x="1738" y="-257.5" font-family="Helvetica,sans-Serif" font-size="10.00" fill="grey">properties</text>
<text text-anchor="start" x="1738" y="-242.5" font-family="Helvetica,sans-Serif" font-size="10.00" fill="grey">rootNodes</text>
<text text-anchor="start" x="1738" y="-227.5" font-family="Helvetica,sans-Serif" font-size="10.00" fill="grey">strings</text>
<text text-anchor="start" x="1738" y="-212.5" font-family="Helvetica,sans-Serif" font-size="10.00" fill="grey">values</text>
</g>
<!-- Node33&#45;&gt;Node5 -->
<g id="edge39_Node000005_Node000033" class="edge">
<title>Node33&#45;&gt;Node5</title>
<g id="a_edge39_Node000005_Node000033"><a xlink:title=" ">
<path fill="none" stroke="#9a32cd" stroke-dasharray="5,2" d="M815.35,-160C886.8,-160 1005.09,-160 1107,-160 1107,-160 1107,-160 1909.5,-160 2088.02,-160 2204.02,-411.26 2226.5,-464.26"/>
<polygon fill="#9a32cd" stroke="#9a32cd" points="815.16,-156.5 805.16,-160 815.16,-163.5 815.16,-156.5"/>
</a>
</g>
<text text-anchor="start" x="1425" y="-165.5" font-family="Helvetica,sans-Serif" font-size="10.00" fill="grey">componentsList</text>
</g>
</g>
</svg>
