<?xml version="1.0" encoding="UTF-8" standalone="no"?>
<!DOCTYPE svg PUBLIC "-//W3C//DTD SVG 1.1//EN"
 "http://www.w3.org/Graphics/SVG/1.1/DTD/svg11.dtd">
<!-- Generated by graphviz version 2.43.0 (0)
 -->
<!-- Title: FiftyoneDegrees::Examples::Hash::GettingStarted Pages: 1 -->
<svg width="1505pt" height="183pt"
 viewBox="0.00 0.00 1505.00 183.00" xmlns="http://www.w3.org/2000/svg" xmlns:xlink="http://www.w3.org/1999/xlink">
<g id="graph0" class="graph" transform="scale(1 1) rotate(0) translate(4 179)">
<title>FiftyoneDegrees::Examples::Hash::GettingStarted</title>
<!-- Node1 -->
<g id="Node000001" class="node">
<title>Node1</title>
<g id="a_Node000001"><a xlink:title="Hash Getting Started Example.">
<polygon fill="#999999" stroke="#666666" points="1497,-101 1347,-101 1347,-71 1497,-71 1497,-101"/>
<text text-anchor="start" x="1355" y="-89" font-family="Helvetica,sans-Serif" font-size="10.00">FiftyoneDegrees::Examples</text>
<text text-anchor="middle" x="1422" y="-78" font-family="Helvetica,sans-Serif" font-size="10.00">::Hash::GettingStarted</text>
</a>
</g>
</g>
<!-- Node2 -->
<g id="Node000002" class="node">
<title>Node2</title>
<g id="a_Node000002"><a xlink:href="class_fiftyone_degrees_1_1_examples_1_1_hash_1_1_example_base.html" target="_top" xlink:title="Base class extended by all Hash examples.">
<polygon fill="white" stroke="#666666" points="1310,-101 1160,-101 1160,-71 1310,-71 1310,-101"/>
<text text-anchor="start" x="1168" y="-89" font-family="Helvetica,sans-Serif" font-size="10.00">FiftyoneDegrees::Examples</text>
<text text-anchor="middle" x="1235" y="-78" font-family="Helvetica,sans-Serif" font-size="10.00">::Hash::ExampleBase</text>
</a>
</g>
</g>
<!-- Node2&#45;&gt;Node1 -->
<g id="edge1_Node000001_Node000002" class="edge">
<title>Node2&#45;&gt;Node1</title>
<g id="a_edge1_Node000001_Node000002"><a xlink:title=" ">
<path fill="none" stroke="#63b8ff" d="M1320.44,-86C1329.24,-86 1338.13,-86 1346.8,-86"/>
<polygon fill="#63b8ff" stroke="#63b8ff" points="1320.18,-82.5 1310.18,-86 1320.18,-89.5 1320.18,-82.5"/>
</a>
</g>
</g>
<!-- Node3 -->
<g id="Node000003" class="node">
<title>Node3</title>
<g id="a_Node000003"><a xlink:href="class_fiftyone_degrees_1_1_device_detection_1_1_hash_1_1_config_hash.html" target="_top" xlink:title="C++ class wrapper for the fiftyoneDegreesConfigHash configuration structure.">
<polygon fill="white" stroke="#666666" points="883,-47 700,-47 700,-17 883,-17 883,-47"/>
<text text-anchor="start" x="708" y="-35" font-family="Helvetica,sans-Serif" font-size="10.00">FiftyoneDegrees::DeviceDetection</text>
<text text-anchor="middle" x="791.5" y="-24" font-family="Helvetica,sans-Serif" font-size="10.00">::Hash::ConfigHash</text>
</a>
</g>
</g>
<!-- Node3&#45;&gt;Node2 -->
<g id="edge2_Node000002_Node000003" class="edge">
<title>Node3&#45;&gt;Node2</title>
<g id="a_edge2_Node000002_Node000003"><a xlink:title=" ">
<path fill="none" stroke="#9a32cd" stroke-dasharray="5,2" d="M893.63,-31.01C949.98,-31.83 1021.22,-35.15 1084,-45 1120.01,-50.65 1159.75,-61.74 1189.28,-70.97"/>
<polygon fill="#9a32cd" stroke="#9a32cd" points="893.33,-27.5 883.29,-30.88 893.25,-34.5 893.33,-27.5"/>
</a>
</g>
<text text-anchor="start" x="977.5" y="-50.5" font-family="Helvetica,sans-Serif" font-size="10.00" fill="grey">config</text>
</g>
<!-- Node4 -->
<g id="Node000004" class="node">
<title>Node4</title>
<g id="a_Node000004"><a xlink:href="class_fiftyone_degrees_1_1_device_detection_1_1_config_device_detection.html" target="_top" xlink:title="C++ class wrapper for the fiftyoneDegreesConfigDeviceDetection configuration structure.">
<polygon fill="white" stroke="#666666" points="462,-30 279,-30 279,0 462,0 462,-30"/>
<text text-anchor="start" x="287" y="-18" font-family="Helvetica,sans-Serif" font-size="10.00">FiftyoneDegrees::DeviceDetection</text>
<text text-anchor="middle" x="370.5" y="-7" font-family="Helvetica,sans-Serif" font-size="10.00">::ConfigDeviceDetection</text>
</a>
</g>
</g>
<!-- Node4&#45;&gt;Node3 -->
<g id="edge3_Node000003_Node000004" class="edge">
<title>Node4&#45;&gt;Node3</title>
<g id="a_edge3_Node000003_Node000004"><a xlink:title=" ">
<path fill="none" stroke="#63b8ff" d="M472.21,-19.09C541.45,-21.9 632.63,-25.59 699.65,-28.31"/>
<polygon fill="#63b8ff" stroke="#63b8ff" points="472.29,-15.59 462.16,-18.68 472.01,-22.58 472.29,-15.59"/>
</a>
</g>
</g>
<!-- Node5 -->
<g id="Node000005" class="node">
<title>Node5</title>
<g id="a_Node000005"><a xlink:href="class_fiftyone_degrees_1_1_common_1_1_config_base.html" target="_top" xlink:title="C++ class wrapper for the fiftyoneDegreesConfigBase configuration structure.">
<polygon fill="white" stroke="#666666" points="146,-40 0,-40 0,-10 146,-10 146,-40"/>
<text text-anchor="start" x="8" y="-28" font-family="Helvetica,sans-Serif" font-size="10.00">FiftyoneDegrees::Common</text>
<text text-anchor="middle" x="73" y="-17" font-family="Helvetica,sans-Serif" font-size="10.00">::ConfigBase</text>
</a>
</g>
</g>
<!-- Node5&#45;&gt;Node4 -->
<g id="edge4_Node000004_Node000005" class="edge">
<title>Node5&#45;&gt;Node4</title>
<g id="a_edge4_Node000004_Node000005"><a xlink:title=" ">
<path fill="none" stroke="#63b8ff" d="M156.32,-22.21C194.43,-20.92 239.82,-19.39 278.9,-18.07"/>
<polygon fill="#63b8ff" stroke="#63b8ff" points="156.16,-18.72 146.29,-22.55 156.4,-25.71 156.16,-18.72"/>
</a>
</g>
</g>
<!-- Node9 -->
<g id="Node000009" class="node">
<title>Node9</title>
<g id="a_Node000009"><a xlink:href="class_fiftyone_degrees_1_1_common_1_1_engine_base.html" target="_top" xlink:title="Encapsulates the engine class to be extended by engine implementations.">
<polygon fill="white" stroke="#666666" points="443.5,-101 297.5,-101 297.5,-71 443.5,-71 443.5,-101"/>
<text text-anchor="start" x="305.5" y="-89" font-family="Helvetica,sans-Serif" font-size="10.00">FiftyoneDegrees::Common</text>
<text text-anchor="middle" x="370.5" y="-78" font-family="Helvetica,sans-Serif" font-size="10.00">::EngineBase</text>
</a>
</g>
</g>
<!-- Node5&#45;&gt;Node9 -->
<g id="edge9_Node000009_Node000005" class="edge">
<title>Node5&#45;&gt;Node9</title>
<g id="a_edge9_Node000009_Node000005"><a xlink:title=" ">
<path fill="none" stroke="#9a32cd" stroke-dasharray="5,2" d="M156.17,-41.96C200.52,-51.12 254.76,-62.31 297.45,-71.13"/>
<polygon fill="#9a32cd" stroke="#9a32cd" points="156.79,-38.52 146.29,-39.92 155.37,-45.37 156.79,-38.52"/>
</a>
</g>
<text text-anchor="start" x="197.5" y="-67.5" font-family="Helvetica,sans-Serif" font-size="10.00" fill="grey">config</text>
</g>
<!-- Node6 -->
<g id="Node000006" class="node">
<title>Node6</title>
<g id="a_Node000006"><a xlink:href="class_fiftyone_degrees_1_1_common_1_1_required_properties_config.html" target="_top" xlink:title="C++ class wrapper for the fiftyoneDegreesPropertiesRequired structure.">
<polygon fill="white" stroke="#666666" points="146,-161 0,-161 0,-131 146,-131 146,-161"/>
<text text-anchor="start" x="8" y="-149" font-family="Helvetica,sans-Serif" font-size="10.00">FiftyoneDegrees::Common</text>
<text text-anchor="middle" x="73" y="-138" font-family="Helvetica,sans-Serif" font-size="10.00">::RequiredPropertiesConfig</text>
</a>
</g>
</g>
<!-- Node6&#45;&gt;Node2 -->
<g id="edge5_Node000002_Node000006" class="edge">
<title>Node6&#45;&gt;Node2</title>
<g id="a_edge5_Node000002_Node000006"><a xlink:title=" ">
<path fill="none" stroke="#9a32cd" stroke-dasharray="5,2" d="M156.28,-151.13C215.54,-154.39 297.42,-158 369.5,-158 369.5,-158 369.5,-158 993.5,-158 1072.17,-158 1159.46,-122.21 1204.11,-101.09"/>
<polygon fill="#9a32cd" stroke="#9a32cd" points="156.4,-147.63 146.22,-150.57 156.01,-154.62 156.4,-147.63"/>
</a>
</g>
<text text-anchor="start" x="565.5" y="-163.5" font-family="Helvetica,sans-Serif" font-size="10.00" fill="grey">properties</text>
</g>
<!-- Node6&#45;&gt;Node9 -->
<g id="edge10_Node000009_Node000006" class="edge">
<title>Node6&#45;&gt;Node9</title>
<g id="a_edge10_Node000009_Node000006"><a xlink:title=" ">
<path fill="none" stroke="#9a32cd" stroke-dasharray="5,2" d="M154.76,-128.9C157.88,-128.26 160.97,-127.62 164,-127 208.19,-117.93 257.78,-108.02 297.18,-100.22"/>
<polygon fill="#9a32cd" stroke="#9a32cd" points="153.81,-125.53 144.73,-130.99 155.23,-132.38 153.81,-125.53"/>
</a>
</g>
<text text-anchor="start" x="167.5" y="-132.5" font-family="Helvetica,sans-Serif" font-size="10.00" fill="grey">requiredProperties</text>
</g>
<!-- Node7 -->
<g id="Node000007" class="node">
<title>Node7</title>
<g id="a_Node000007"><a xlink:href="class_fiftyone_degrees_1_1_device_detection_1_1_hash_1_1_engine_hash.html" target="_top" xlink:title="Encapsulates the Hash engine class which implements EngineDeviceDetection.">
<polygon fill="white" stroke="#666666" points="1084,-101 901,-101 901,-71 1084,-71 1084,-101"/>
<text text-anchor="start" x="909" y="-89" font-family="Helvetica,sans-Serif" font-size="10.00">FiftyoneDegrees::DeviceDetection</text>
<text text-anchor="middle" x="992.5" y="-78" font-family="Helvetica,sans-Serif" font-size="10.00">::Hash::EngineHash</text>
</a>
</g>
</g>
<!-- Node7&#45;&gt;Node2 -->
<g id="edge6_Node000002_Node000007" class="edge">
<title>Node7&#45;&gt;Node2</title>
<g id="a_edge6_Node000002_Node000007"><a xlink:title=" ">
<path fill="none" stroke="#9a32cd" stroke-dasharray="5,2" d="M1094.14,-86C1116.2,-86 1139.16,-86 1159.95,-86"/>
<polygon fill="#9a32cd" stroke="#9a32cd" points="1094.08,-82.5 1084.08,-86 1094.08,-89.5 1094.08,-82.5"/>
</a>
</g>
<text text-anchor="start" x="1105" y="-91.5" font-family="Helvetica,sans-Serif" font-size="10.00" fill="grey">engine</text>
</g>
<!-- Node8 -->
<g id="Node000008" class="node">
<title>Node8</title>
<g id="a_Node000008"><a xlink:href="class_fiftyone_degrees_1_1_device_detection_1_1_engine_device_detection.html" target="_top" xlink:title="Encapsulates the device detection engine class to be extended by device detection engine implementati...">
<polygon fill="white" stroke="#666666" points="682,-101 499,-101 499,-71 682,-71 682,-101"/>
<text text-anchor="start" x="507" y="-89" font-family="Helvetica,sans-Serif" font-size="10.00">FiftyoneDegrees::DeviceDetection</text>
<text text-anchor="middle" x="590.5" y="-78" font-family="Helvetica,sans-Serif" font-size="10.00">::EngineDeviceDetection</text>
</a>
</g>
</g>
<!-- Node8&#45;&gt;Node7 -->
<g id="edge7_Node000007_Node000008" class="edge">
<title>Node8&#45;&gt;Node7</title>
<g id="a_edge7_Node000007_Node000008"><a xlink:title=" ">
<path fill="none" stroke="#63b8ff" d="M692.39,-86C756.47,-86 838.72,-86 900.75,-86"/>
<polygon fill="#63b8ff" stroke="#63b8ff" points="692.27,-82.5 682.27,-86 692.27,-89.5 692.27,-82.5"/>
</a>
</g>
</g>
<!-- Node9&#45;&gt;Node8 -->
<g id="edge8_Node000008_Node000009" class="edge">
<title>Node9&#45;&gt;Node8</title>
<g id="a_edge8_Node000008_Node000009"><a xlink:title=" ">
<path fill="none" stroke="#63b8ff" d="M453.83,-86C468.5,-86 483.87,-86 498.77,-86"/>
<polygon fill="#63b8ff" stroke="#63b8ff" points="453.79,-82.5 443.79,-86 453.79,-89.5 453.79,-82.5"/>
</a>
</g>
</g>
<!-- Node10 -->
<g id="Node000010" class="node">
<title>Node10</title>
<g id="a_Node000010"><a xlink:href="class_fiftyone_degrees_1_1_common_1_1_meta_data.html" target="_top" xlink:title="Contains meta data for the properties, values, profiles and components that exist within the engine i...">
<polygon fill="white" stroke="#666666" points="146,-101 0,-101 0,-71 146,-71 146,-101"/>
<text text-anchor="start" x="8" y="-89" font-family="Helvetica,sans-Serif" font-size="10.00">FiftyoneDegrees::Common</text>
<text text-anchor="middle" x="73" y="-78" font-family="Helvetica,sans-Serif" font-size="10.00">::MetaData</text>
</a>
</g>
</g>
<!-- Node10&#45;&gt;Node9 -->
<g id="edge11_Node000009_Node000010" class="edge">
<title>Node10&#45;&gt;Node9</title>
<g id="a_edge11_Node000009_Node000010"><a xlink:title=" ">
<path fill="none" stroke="#9a32cd" stroke-dasharray="5,2" d="M156.45,-86C200.75,-86 254.85,-86 297.45,-86"/>
<polygon fill="#9a32cd" stroke="#9a32cd" points="156.29,-82.5 146.29,-86 156.29,-89.5 156.29,-82.5"/>
</a>
</g>
<text text-anchor="start" x="188.5" y="-91.5" font-family="Helvetica,sans-Serif" font-size="10.00" fill="grey">metaData</text>
</g>
</g>
</svg>
