<?xml version="1.0" encoding="UTF-8" standalone="no"?>
<!DOCTYPE svg PUBLIC "-//W3C//DTD SVG 1.1//EN"
 "http://www.w3.org/Graphics/SVG/1.1/DTD/svg11.dtd">
<!-- Generated by graphviz version 2.43.0 (0)
 -->
<!-- Title: FiftyoneDegrees::DeviceDetection::Hash::ResultsHash Pages: 1 -->
<svg width="453pt" height="495pt"
 viewBox="0.00 0.00 452.50 495.00" xmlns="http://www.w3.org/2000/svg" xmlns:xlink="http://www.w3.org/1999/xlink">
<g id="graph0" class="graph" transform="scale(1 1) rotate(0) translate(4 491)">
<title>FiftyoneDegrees::DeviceDetection::Hash::ResultsHash</title>
<!-- Node1 -->
<g id="Node000001" class="node">
<title>Node1</title>
<g id="a_Node000001"><a xlink:title="Encapsulates the results of a Hash device detection engine&#39;s processing.">
<polygon fill="#999999" stroke="#666666" points="436,-30 253,-30 253,0 436,0 436,-30"/>
<text text-anchor="start" x="261" y="-18" font-family="Helvetica,sans-Serif" font-size="10.00">FiftyoneDegrees::DeviceDetection</text>
<text text-anchor="middle" x="344.5" y="-7" font-family="Helvetica,sans-Serif" font-size="10.00">::Hash::ResultsHash</text>
</a>
</g>
</g>
<!-- Node2 -->
<g id="Node000002" class="node">
<title>Node2</title>
<g id="a_Node000002"><a xlink:href="class_fiftyone_degrees_1_1_device_detection_1_1_results_device_detection.html" target="_top" xlink:title="Encapsulates the results of a device detection engine&#39;s processing.">
<polygon fill="white" stroke="#666666" points="436,-97 253,-97 253,-67 436,-67 436,-97"/>
<text text-anchor="start" x="261" y="-85" font-family="Helvetica,sans-Serif" font-size="10.00">FiftyoneDegrees::DeviceDetection</text>
<text text-anchor="middle" x="344.5" y="-74" font-family="Helvetica,sans-Serif" font-size="10.00">::ResultsDeviceDetection</text>
</a>
</g>
</g>
<!-- Node2&#45;&gt;Node1 -->
<g id="edge1_Node000001_Node000002" class="edge">
<title>Node2&#45;&gt;Node1</title>
<g id="a_edge1_Node000001_Node000002"><a xlink:title=" ">
<path fill="none" stroke="#63b8ff" d="M344.5,-56.61C344.5,-47.65 344.5,-37.82 344.5,-30.08"/>
<polygon fill="#63b8ff" stroke="#63b8ff" points="341,-56.9 344.5,-66.9 348,-56.9 341,-56.9"/>
</a>
</g>
</g>
<!-- Node3 -->
<g id="Node000003" class="node">
<title>Node3</title>
<g id="a_Node000003"><a xlink:href="class_fiftyone_degrees_1_1_common_1_1_results_base.html" target="_top" xlink:title="Encapsulates the results of an engine&#39;s processing.">
<polygon fill="white" stroke="#666666" points="417.5,-164 271.5,-164 271.5,-134 417.5,-134 417.5,-164"/>
<text text-anchor="start" x="279.5" y="-152" font-family="Helvetica,sans-Serif" font-size="10.00">FiftyoneDegrees::Common</text>
<text text-anchor="middle" x="344.5" y="-141" font-family="Helvetica,sans-Serif" font-size="10.00">::ResultsBase</text>
</a>
</g>
</g>
<!-- Node3&#45;&gt;Node2 -->
<g id="edge2_Node000002_Node000003" class="edge">
<title>Node3&#45;&gt;Node2</title>
<g id="a_edge2_Node000002_Node000003"><a xlink:title=" ">
<path fill="none" stroke="#63b8ff" d="M344.5,-123.61C344.5,-114.65 344.5,-104.82 344.5,-97.08"/>
<polygon fill="#63b8ff" stroke="#63b8ff" points="341,-123.9 344.5,-133.9 348,-123.9 341,-123.9"/>
</a>
</g>
</g>
<!-- Node4 -->
<g id="Node000004" class="node">
<title>Node4</title>
<g id="a_Node000004"><a xlink:href="structfiftyone_degrees_property_available_array.html" target="_top" xlink:title="Array of items of type fiftyoneDegreesPropertyAvailable used to easily access and track the size of t...">
<polygon fill="white" stroke="#666666" points="434.5,-247 254.5,-247 254.5,-217 434.5,-217 434.5,-247"/>
<text text-anchor="start" x="262.5" y="-235" font-family="Helvetica,sans-Serif" font-size="10.00">fiftyoneDegreesPropertyAvailable</text>
<text text-anchor="middle" x="344.5" y="-224" font-family="Helvetica,sans-Serif" font-size="10.00">Array</text>
</a>
</g>
</g>
<!-- Node4&#45;&gt;Node3 -->
<g id="edge3_Node000003_Node000004" class="edge">
<title>Node4&#45;&gt;Node3</title>
<g id="a_edge3_Node000003_Node000004"><a xlink:title=" ">
<path fill="none" stroke="#9a32cd" stroke-dasharray="5,2" d="M344.5,-206.59C344.5,-192.75 344.5,-175.91 344.5,-164.22"/>
<polygon fill="#9a32cd" stroke="#9a32cd" points="341,-206.89 344.5,-216.89 348,-206.89 341,-206.89"/>
</a>
</g>
<text text-anchor="start" x="347.5" y="-187.5" font-family="Helvetica,sans-Serif" font-size="10.00" fill="grey">available</text>
</g>
<!-- Node5 -->
<g id="Node000005" class="node">
<title>Node5</title>
<g id="a_Node000005"><a xlink:href="structfiftyone_degrees_property_available.html" target="_top" xlink:title="Used to access the property item quickly without the need to search.">
<polygon fill="white" stroke="#666666" points="434.5,-325.5 254.5,-325.5 254.5,-306.5 434.5,-306.5 434.5,-325.5"/>
<text text-anchor="middle" x="344.5" y="-313.5" font-family="Helvetica,sans-Serif" font-size="10.00">fiftyoneDegreesPropertyAvailable</text>
</a>
</g>
</g>
<!-- Node5&#45;&gt;Node4 -->
<g id="edge4_Node000004_Node000005" class="edge">
<title>Node5&#45;&gt;Node4</title>
<g id="a_edge4_Node000004_Node000005"><a xlink:title=" ">
<path fill="none" stroke="#9a32cd" stroke-dasharray="5,2" d="M344.5,-296.11C344.5,-281.2 344.5,-260.72 344.5,-247.18"/>
<polygon fill="#9a32cd" stroke="#9a32cd" points="341,-296.22 344.5,-306.22 348,-296.22 341,-296.22"/>
</a>
</g>
<text text-anchor="start" x="347.5" y="-270.5" font-family="Helvetica,sans-Serif" font-size="10.00" fill="grey">items</text>
</g>
<!-- Node6 -->
<g id="Node000006" class="node">
<title>Node6</title>
<g id="a_Node000006"><a xlink:href="structfiftyone_degrees_collection_item.html" target="_top" xlink:title="Used to store a handle to the underlying item that could be used to release the item when it&#39;s finish...">
<polygon fill="white" stroke="#666666" points="220,-409.5 55,-409.5 55,-390.5 220,-390.5 220,-409.5"/>
<text text-anchor="middle" x="137.5" y="-397.5" font-family="Helvetica,sans-Serif" font-size="10.00">fiftyoneDegreesCollectionItem</text>
</a>
</g>
</g>
<!-- Node6&#45;&gt;Node5 -->
<g id="edge5_Node000005_Node000006" class="edge">
<title>Node6&#45;&gt;Node5</title>
<g id="a_edge5_Node000005_Node000006"><a xlink:title=" ">
<path fill="none" stroke="#9a32cd" stroke-dasharray="5,2" d="M168.56,-386.69C211.07,-369.86 286.25,-340.07 323.03,-325.5"/>
<polygon fill="#9a32cd" stroke="#9a32cd" points="167.27,-383.44 159.26,-390.38 169.85,-389.95 167.27,-383.44"/>
</a>
</g>
<text text-anchor="start" x="263.5" y="-355.5" font-family="Helvetica,sans-Serif" font-size="10.00" fill="grey">name</text>
</g>
<!-- Node8 -->
<g id="Node000008" class="node">
<title>Node8</title>
<g id="a_Node000008"><a xlink:href="structfiftyone_degrees_collection.html" target="_top" xlink:title="All the shared methods and fields required by file, memory and cached collections.">
<polygon fill="white" stroke="#666666" points="143,-325.5 0,-325.5 0,-306.5 143,-306.5 143,-325.5"/>
<text text-anchor="middle" x="71.5" y="-313.5" font-family="Helvetica,sans-Serif" font-size="10.00">fiftyoneDegreesCollection</text>
</a>
</g>
</g>
<!-- Node6&#45;&gt;Node8 -->
<g id="edge9_Node000008_Node000006" class="edge">
<title>Node6&#45;&gt;Node8</title>
<g id="a_edge9_Node000008_Node000006"><a xlink:title=" ">
<path fill="none" stroke="#9a32cd" stroke-dasharray="5,2" d="M90.78,-386.14C81.95,-381.54 73.83,-375.34 68.5,-367 60.45,-354.39 64.57,-336.16 68.14,-325.55"/>
<polygon fill="#9a32cd" stroke="#9a32cd" points="89.59,-389.44 100.14,-390.37 92.47,-383.07 89.59,-389.44"/>
</a>
</g>
<text text-anchor="start" x="72" y="-355.5" font-family="Helvetica,sans-Serif" font-size="10.00" fill="grey">release</text>
</g>
<!-- Node7 -->
<g id="Node000007" class="node">
<title>Node7</title>
<g id="a_Node000007"><a xlink:href="structfiftyone_degrees_data.html" target="_top" xlink:title="Data structure used for reusing memory which may have been allocated in a previous operation.">
<polygon fill="white" stroke="#666666" points="196,-487 79,-487 79,-468 196,-468 196,-487"/>
<text text-anchor="middle" x="137.5" y="-475" font-family="Helvetica,sans-Serif" font-size="10.00">fiftyoneDegreesData</text>
</a>
</g>
</g>
<!-- Node7&#45;&gt;Node6 -->
<g id="edge6_Node000006_Node000007" class="edge">
<title>Node7&#45;&gt;Node6</title>
<g id="a_edge6_Node000006_Node000007"><a xlink:title=" ">
<path fill="none" stroke="#9a32cd" stroke-dasharray="5,2" d="M137.5,-457.4C137.5,-442.01 137.5,-421.11 137.5,-409.56"/>
<polygon fill="#9a32cd" stroke="#9a32cd" points="134,-457.84 137.5,-467.84 141,-457.84 134,-457.84"/>
</a>
</g>
<text text-anchor="start" x="140.5" y="-438.5" font-family="Helvetica,sans-Serif" font-size="10.00" fill="grey">data</text>
</g>
<!-- Node8&#45;&gt;Node6 -->
<g id="edge7_Node000006_Node000008" class="edge">
<title>Node8&#45;&gt;Node6</title>
<g id="a_edge7_Node000006_Node000008"><a xlink:title=" ">
<path fill="none" stroke="#9a32cd" stroke-dasharray="5,2" d="M95.27,-331.46C102.44,-336.65 109.88,-342.97 115.5,-350 125.4,-362.38 131.85,-379.93 135.07,-390.32"/>
<polygon fill="#9a32cd" stroke="#9a32cd" points="96.75,-328.24 86.51,-325.53 92.83,-334.04 96.75,-328.24"/>
</a>
</g>
<text text-anchor="start" x="129.5" y="-355.5" font-family="Helvetica,sans-Serif" font-size="10.00" fill="grey">collection</text>
</g>
<!-- Node8&#45;&gt;Node8 -->
<g id="edge8_Node000008_Node000008" class="edge">
<title>Node8&#45;&gt;Node8</title>
<g id="a_edge8_Node000008_Node000008"><a xlink:title=" ">
<path fill="none" stroke="#9a32cd" stroke-dasharray="5,2" d="M153.11,-321.45C158.04,-320.16 161,-318.34 161,-316 161,-312.35 153.79,-309.97 143.13,-308.86"/>
<polygon fill="#9a32cd" stroke="#9a32cd" points="152.4,-318.02 143.13,-323.14 153.57,-324.92 152.4,-318.02"/>
</a>
</g>
<text text-anchor="start" x="164.5" y="-321" font-family="Helvetica,sans-Serif" font-size="10.00" fill="grey">freeCollection</text>
<text text-anchor="start" x="164.5" y="-306" font-family="Helvetica,sans-Serif" font-size="10.00" fill="grey">get</text>
</g>
<!-- Node9 -->
<g id="Node000009" class="node">
<title>Node9</title>
<g id="a_Node000009"><a xlink:href="structfiftyone_degrees_evidence_property_index_array.html" target="_top" xlink:title="Array of items of type fiftyoneDegreesEvidencePropertyIndex used to easily access and track the size ...">
<polygon fill="white" stroke="#666666" points="434,-415 255,-415 255,-385 434,-385 434,-415"/>
<text text-anchor="start" x="263" y="-403" font-family="Helvetica,sans-Serif" font-size="10.00">fiftyoneDegreesEvidenceProperty</text>
<text text-anchor="middle" x="344.5" y="-392" font-family="Helvetica,sans-Serif" font-size="10.00">IndexArray</text>
</a>
</g>
</g>
<!-- Node9&#45;&gt;Node5 -->
<g id="edge10_Node000005_Node000009" class="edge">
<title>Node9&#45;&gt;Node5</title>
<g id="a_edge10_Node000005_Node000009"><a xlink:title=" ">
<path fill="none" stroke="#9a32cd" stroke-dasharray="5,2" d="M344.5,-374.6C344.5,-358.03 344.5,-337.11 344.5,-325.59"/>
<polygon fill="#9a32cd" stroke="#9a32cd" points="341,-374.72 344.5,-384.72 348,-374.72 341,-374.72"/>
</a>
</g>
<text text-anchor="start" x="347.5" y="-355.5" font-family="Helvetica,sans-Serif" font-size="10.00" fill="grey">evidenceProperties</text>
</g>
</g>
</svg>
