<?xml version="1.0" encoding="UTF-8" standalone="no"?>
<!DOCTYPE svg PUBLIC "-//W3C//DTD SVG 1.1//EN"
 "http://www.w3.org/Graphics/SVG/1.1/DTD/svg11.dtd">
<!-- Generated by graphviz version 2.43.0 (0)
 -->
<!-- Title: FiftyoneDegrees::Common::EntityMetaDataBuilder Pages: 1 -->
<svg width="407pt" height="182pt"
 viewBox="0.00 0.00 407.00 182.00" xmlns="http://www.w3.org/2000/svg" xmlns:xlink="http://www.w3.org/1999/xlink">
<g id="graph0" class="graph" transform="scale(1 1) rotate(0) translate(4 178)">
<title>FiftyoneDegrees::Common::EntityMetaDataBuilder</title>
<!-- Node1 -->
<g id="Node000001" class="node">
<title>Node1</title>
<g id="a_Node000001"><a xlink:title="Meta data builder class contains static helper methods used when building meta data instances.">
<polygon fill="#999999" stroke="#666666" points="146,-102 0,-102 0,-72 146,-72 146,-102"/>
<text text-anchor="start" x="8" y="-90" font-family="Helvetica,sans-Serif" font-size="10.00">FiftyoneDegrees::Common</text>
<text text-anchor="middle" x="73" y="-79" font-family="Helvetica,sans-Serif" font-size="10.00">::EntityMetaDataBuilder</text>
</a>
</g>
</g>
<!-- Node2 -->
<g id="Node000002" class="node">
<title>Node2</title>
<g id="a_Node000002"><a xlink:href="class_fiftyone_degrees_1_1_device_detection_1_1_hash_1_1_component_meta_data_builder_hash.html" target="_top" xlink:title="Meta data builder class contains static helper methods used when building component meta data instanc...">
<polygon fill="white" stroke="#666666" points="399,-174 182,-174 182,-144 399,-144 399,-174"/>
<text text-anchor="start" x="190" y="-162" font-family="Helvetica,sans-Serif" font-size="10.00">FiftyoneDegrees::DeviceDetection</text>
<text text-anchor="middle" x="290.5" y="-151" font-family="Helvetica,sans-Serif" font-size="10.00">::Hash::ComponentMetaDataBuilderHash</text>
</a>
</g>
</g>
<!-- Node1&#45;&gt;Node2 -->
<g id="edge1_Node000001_Node000002" class="edge">
<title>Node1&#45;&gt;Node2</title>
<g id="a_edge1_Node000001_Node000002"><a xlink:title=" ">
<path fill="none" stroke="#8b1a1a" d="M112.83,-106.51C133.07,-116.09 158.45,-127.22 182,-135 191.99,-138.3 202.64,-141.29 213.22,-143.95"/>
<polygon fill="#8b1a1a" stroke="#8b1a1a" points="114.16,-103.26 103.63,-102.09 111.13,-109.57 114.16,-103.26"/>
</a>
</g>
</g>
<!-- Node3 -->
<g id="Node000003" class="node">
<title>Node3</title>
<g id="a_Node000003"><a xlink:href="class_fiftyone_degrees_1_1_device_detection_1_1_hash_1_1_profile_meta_data_builder_hash.html" target="_top" xlink:title="Meta data builder class contains static helper methods used when building profile meta data instances...">
<polygon fill="white" stroke="#666666" points="386,-126 195,-126 195,-96 386,-96 386,-126"/>
<text text-anchor="start" x="203" y="-114" font-family="Helvetica,sans-Serif" font-size="10.00">FiftyoneDegrees::DeviceDetection</text>
<text text-anchor="middle" x="290.5" y="-103" font-family="Helvetica,sans-Serif" font-size="10.00">::Hash::ProfileMetaDataBuilderHash</text>
</a>
</g>
</g>
<!-- Node1&#45;&gt;Node3 -->
<g id="edge2_Node000001_Node000003" class="edge">
<title>Node1&#45;&gt;Node3</title>
<g id="a_edge2_Node000001_Node000003"><a xlink:title=" ">
<path fill="none" stroke="#8b1a1a" d="M156.11,-96.14C168.79,-97.56 181.97,-99.02 194.9,-100.46"/>
<polygon fill="#8b1a1a" stroke="#8b1a1a" points="156.38,-92.65 146.06,-95.03 155.61,-99.61 156.38,-92.65"/>
</a>
</g>
</g>
<!-- Node4 -->
<g id="Node000004" class="node">
<title>Node4</title>
<g id="a_Node000004"><a xlink:href="class_fiftyone_degrees_1_1_device_detection_1_1_hash_1_1_property_meta_data_builder_hash.html" target="_top" xlink:title="Meta data builder class contains static helper methods used when building property meta data instance...">
<polygon fill="white" stroke="#666666" points="391.5,-78 189.5,-78 189.5,-48 391.5,-48 391.5,-78"/>
<text text-anchor="start" x="197.5" y="-66" font-family="Helvetica,sans-Serif" font-size="10.00">FiftyoneDegrees::DeviceDetection</text>
<text text-anchor="middle" x="290.5" y="-55" font-family="Helvetica,sans-Serif" font-size="10.00">::Hash::PropertyMetaDataBuilderHash</text>
</a>
</g>
</g>
<!-- Node1&#45;&gt;Node4 -->
<g id="edge3_Node000001_Node000004" class="edge">
<title>Node1&#45;&gt;Node4</title>
<g id="a_edge3_Node000001_Node000004"><a xlink:title=" ">
<path fill="none" stroke="#8b1a1a" d="M156.24,-77.84C167,-76.64 178.11,-75.4 189.13,-74.18"/>
<polygon fill="#8b1a1a" stroke="#8b1a1a" points="155.61,-74.39 146.06,-78.97 156.38,-81.35 155.61,-74.39"/>
</a>
</g>
</g>
<!-- Node5 -->
<g id="Node000005" class="node">
<title>Node5</title>
<g id="a_Node000005"><a xlink:href="class_fiftyone_degrees_1_1_device_detection_1_1_hash_1_1_value_meta_data_builder_hash.html" target="_top" xlink:title="Meta data builder class contains static helper methods used when building value meta data instances f...">
<polygon fill="white" stroke="#666666" points="384.5,-30 196.5,-30 196.5,0 384.5,0 384.5,-30"/>
<text text-anchor="start" x="204.5" y="-18" font-family="Helvetica,sans-Serif" font-size="10.00">FiftyoneDegrees::DeviceDetection</text>
<text text-anchor="middle" x="290.5" y="-7" font-family="Helvetica,sans-Serif" font-size="10.00">::Hash::ValueMetaDataBuilderHash</text>
</a>
</g>
</g>
<!-- Node1&#45;&gt;Node5 -->
<g id="edge4_Node000001_Node000005" class="edge">
<title>Node1&#45;&gt;Node5</title>
<g id="a_edge4_Node000001_Node000005"><a xlink:title=" ">
<path fill="none" stroke="#8b1a1a" d="M112.83,-67.49C133.07,-57.91 158.45,-46.78 182,-39 191.99,-35.7 202.64,-32.71 213.22,-30.05"/>
<polygon fill="#8b1a1a" stroke="#8b1a1a" points="111.13,-64.43 103.63,-71.91 114.16,-70.74 111.13,-64.43"/>
</a>
</g>
</g>
</g>
</svg>
