<?xml version="1.0" encoding="UTF-8" standalone="no"?>
<!DOCTYPE svg PUBLIC "-//W3C//DTD SVG 1.1//EN"
 "http://www.w3.org/Graphics/SVG/1.1/DTD/svg11.dtd">
<!-- Generated by graphviz version 2.43.0 (0)
 -->
<!-- Title: Hash API Pages: 1 -->
<svg width="336pt" height="101pt"
 viewBox="0.00 0.00 336.00 101.00" xmlns="http://www.w3.org/2000/svg" xmlns:xlink="http://www.w3.org/1999/xlink">
<g id="graph0" class="graph" transform="scale(1 1) rotate(0) translate(4 97)">
<title>Hash API</title>
<!-- Node2 -->
<g id="Node000002" class="node">
<title>Node2</title>
<g id="a_Node000002"><a xlink:href="group___fifty_one_degrees_device_detection.html" target="_top" xlink:title="Device detection specific methods, types and macros.">
<polygon fill="white" stroke="#666666" points="101,-56 0,-56 0,-37 101,-37 101,-56"/>
<text text-anchor="middle" x="50.5" y="-44" font-family="Helvetica,sans-Serif" font-size="10.00">Device Detection</text>
</a>
</g>
</g>
<!-- Node1 -->
<g id="Node000001" class="node">
<title>Node1</title>
<g id="a_Node000001"><a xlink:title="Hash specific methods, types and macros.">
<polygon fill="#999999" stroke="#666666" points="197,-56 137,-56 137,-37 197,-37 197,-56"/>
<text text-anchor="middle" x="167" y="-44" font-family="Helvetica,sans-Serif" font-size="10.00">Hash API</text>
</a>
</g>
</g>
<!-- Node2&#45;&gt;Node1 -->
<g id="edge1" class="edge">
<title>Node2&#45;&gt;Node1</title>
<path fill="none" stroke="black" d="M111.13,-46.5C120.07,-46.5 128.92,-46.5 136.83,-46.5"/>
<polygon fill="black" stroke="black" points="111.06,-43 101.06,-46.5 111.06,-50 111.06,-43"/>
</g>
<!-- Node4 -->
<g id="Node000004" class="node">
<title>Node4</title>
<g id="a_Node000004"><a xlink:href="group___fifty_one_degrees_graph.html" target="_top" xlink:title="Acyclic graph structures used in the Hash API.">
<polygon fill="white" stroke="#666666" points="303.5,-93 257.5,-93 257.5,-74 303.5,-74 303.5,-93"/>
<text text-anchor="middle" x="280.5" y="-81" font-family="Helvetica,sans-Serif" font-size="10.00">Graph</text>
</a>
</g>
</g>
<!-- Node1&#45;&gt;Node4 -->
<g id="edge3" class="edge">
<title>Node1&#45;&gt;Node4</title>
<path fill="none" stroke="black" d="M206.37,-59.23C223.34,-64.86 242.68,-71.28 257.22,-76.11"/>
<polygon fill="black" stroke="black" points="207.31,-55.86 196.71,-56.03 205.1,-62.5 207.31,-55.86"/>
</g>
<!-- Node5 -->
<g id="Node000005" class="node">
<title>Node5</title>
<g id="a_Node000005"><a xlink:href="group___fifty_one_degrees_hash_api.html" target="_top" xlink:title="All the functions specific to the Hash device detection API.">
<polygon fill="white" stroke="#666666" points="301,-56 260,-56 260,-37 301,-37 301,-56"/>
<text text-anchor="middle" x="280.5" y="-44" font-family="Helvetica,sans-Serif" font-size="10.00">Hash</text>
</a>
</g>
</g>
<!-- Node1&#45;&gt;Node5 -->
<g id="edge4" class="edge">
<title>Node1&#45;&gt;Node5</title>
<path fill="none" stroke="black" d="M207.13,-46.5C224.93,-46.5 245.22,-46.5 259.77,-46.5"/>
<polygon fill="black" stroke="black" points="207,-43 197,-46.5 207,-50 207,-43"/>
</g>
<!-- Node3 -->
<g id="Node000003" class="node">
<title>Node3</title>
<g id="a_Node000003"><a xlink:href="group___fifty_one_degrees_hash_synonyms.html" target="_top" xlink:title="Quick shortenings of Hash specific methods and types.">
<polygon fill="white" stroke="#666666" points="328,-19 233,-19 233,0 328,0 328,-19"/>
<text text-anchor="middle" x="280.5" y="-7" font-family="Helvetica,sans-Serif" font-size="10.00">Hash Synonyms</text>
</a>
</g>
</g>
<!-- Node1&#45;&gt;Node3 -->
<g id="edge2" class="edge">
<title>Node1&#45;&gt;Node3</title>
<path fill="none" stroke="black" d="M206.39,-33.76C220.85,-28.96 237.04,-23.59 250.5,-19.12"/>
<polygon fill="black" stroke="black" points="205.1,-30.5 196.71,-36.97 207.31,-37.14 205.1,-30.5"/>
</g>
</g>
</svg>
