<?xml version="1.0" encoding="UTF-8" standalone="no"?>
<!DOCTYPE svg PUBLIC "-//W3C//DTD SVG 1.1//EN"
 "http://www.w3.org/Graphics/SVG/1.1/DTD/svg11.dtd">
<!-- Generated by graphviz version 2.43.0 (0)
 -->
<!-- Title: fiftyoneDegreesDataSetHash Pages: 1 -->
<svg width="2234pt" height="765pt"
 viewBox="0.00 0.00 2234.00 765.00" xmlns="http://www.w3.org/2000/svg" xmlns:xlink="http://www.w3.org/1999/xlink">
<g id="graph0" class="graph" transform="scale(1 1) rotate(0) translate(4 761)">
<title>fiftyoneDegreesDataSetHash</title>
<!-- Node1 -->
<g id="Node000001" class="node">
<title>Node1</title>
<g id="a_Node000001"><a xlink:title="Data set structure containing all the components used for detections.">
<polygon fill="#999999" stroke="#666666" points="2226,-382.5 2068,-382.5 2068,-363.5 2226,-363.5 2226,-382.5"/>
<text text-anchor="middle" x="2147" y="-370.5" font-family="Helvetica,sans-Serif" font-size="10.00">fiftyoneDegreesDataSetHash</text>
</a>
</g>
</g>
<!-- Node2 -->
<g id="Node000002" class="node">
<title>Node2</title>
<g id="a_Node000002"><a xlink:href="structfiftyone_degrees_data_set_device_detection.html" target="_top" xlink:title="Device detection data set structure which contains the &#39;must have&#39;s for all device detection data set...">
<polygon fill="white" stroke="#666666" points="1992,-623 1825,-623 1825,-593 1992,-593 1992,-623"/>
<text text-anchor="start" x="1833" y="-611" font-family="Helvetica,sans-Serif" font-size="10.00">fiftyoneDegreesDataSetDevice</text>
<text text-anchor="middle" x="1908.5" y="-600" font-family="Helvetica,sans-Serif" font-size="10.00">Detection</text>
</a>
</g>
</g>
<!-- Node2&#45;&gt;Node1 -->
<g id="edge1_Node000001_Node000002" class="edge">
<title>Node2&#45;&gt;Node1</title>
<g id="a_edge1_Node000001_Node000002"><a xlink:title=" ">
<path fill="none" stroke="#9a32cd" stroke-dasharray="5,2" d="M1931.79,-585.86C1981.8,-536.16 2101.34,-417.38 2136.26,-382.67"/>
<polygon fill="#9a32cd" stroke="#9a32cd" points="1929.28,-583.41 1924.65,-592.94 1934.21,-588.38 1929.28,-583.41"/>
</a>
</g>
<text text-anchor="start" x="2027" y="-509.5" font-family="Helvetica,sans-Serif" font-size="10.00" fill="grey">b</text>
</g>
<!-- Node3 -->
<g id="Node000003" class="node">
<title>Node3</title>
<g id="a_Node000003"><a xlink:href="structfiftyone_degrees_data_set_base.html" target="_top" xlink:title="Base data set structure which contains the &#39;must have&#39;s for all data sets.">
<polygon fill="white" stroke="#666666" points="1704.5,-601.5 1547.5,-601.5 1547.5,-582.5 1704.5,-582.5 1704.5,-601.5"/>
<text text-anchor="middle" x="1626" y="-589.5" font-family="Helvetica,sans-Serif" font-size="10.00">fiftyoneDegreesDataSetBase</text>
</a>
</g>
</g>
<!-- Node3&#45;&gt;Node2 -->
<g id="edge2_Node000002_Node000003" class="edge">
<title>Node3&#45;&gt;Node2</title>
<g id="a_edge2_Node000002_Node000003"><a xlink:title=" ">
<path fill="none" stroke="#9a32cd" stroke-dasharray="5,2" d="M1714.98,-597.02C1750.03,-599.02 1790.16,-601.31 1824.68,-603.28"/>
<polygon fill="#9a32cd" stroke="#9a32cd" points="1714.95,-593.51 1704.76,-596.44 1714.55,-600.5 1714.95,-593.51"/>
</a>
</g>
<text text-anchor="start" x="1768" y="-606.5" font-family="Helvetica,sans-Serif" font-size="10.00" fill="grey">b</text>
</g>
<!-- Node4 -->
<g id="Node000004" class="node">
<title>Node4</title>
<g id="a_Node000004"><a xlink:href="structfiftyone_degrees_file_pool.html" target="_top" xlink:title="Stack of handles used to read data from a single source file.">
<polygon fill="white" stroke="#666666" points="1370.5,-640.5 1238.5,-640.5 1238.5,-621.5 1370.5,-621.5 1370.5,-640.5"/>
<text text-anchor="middle" x="1304.5" y="-628.5" font-family="Helvetica,sans-Serif" font-size="10.00">fiftyoneDegreesFilePool</text>
</a>
</g>
</g>
<!-- Node4&#45;&gt;Node3 -->
<g id="edge3_Node000003_Node000004" class="edge">
<title>Node4&#45;&gt;Node3</title>
<g id="a_edge3_Node000003_Node000004"><a xlink:title=" ">
<path fill="none" stroke="#9a32cd" stroke-dasharray="5,2" d="M1380.94,-624.73C1421.37,-621.06 1471.98,-615.98 1517,-610 1535,-607.61 1554.59,-604.5 1572.1,-601.54"/>
<polygon fill="#9a32cd" stroke="#9a32cd" points="1380.54,-621.25 1370.89,-625.63 1381.17,-628.22 1380.54,-621.25"/>
</a>
</g>
<text text-anchor="start" x="1446" y="-626.5" font-family="Helvetica,sans-Serif" font-size="10.00" fill="grey">filePool</text>
</g>
<!-- Node5 -->
<g id="Node000005" class="node">
<title>Node5</title>
<g id="a_Node000005"><a xlink:href="structfiftyone_degrees_pool.html" target="_top" xlink:title="Pool of resources stored as items in a stack.">
<polygon fill="white" stroke="#666666" points="969,-671.5 854,-671.5 854,-652.5 969,-652.5 969,-671.5"/>
<text text-anchor="middle" x="911.5" y="-659.5" font-family="Helvetica,sans-Serif" font-size="10.00">fiftyoneDegreesPool</text>
</a>
</g>
</g>
<!-- Node5&#45;&gt;Node4 -->
<g id="edge4_Node000004_Node000005" class="edge">
<title>Node5&#45;&gt;Node4</title>
<g id="a_edge4_Node000004_Node000005"><a xlink:title=" ">
<path fill="none" stroke="#9a32cd" stroke-dasharray="5,2" d="M958.24,-650.08C976.67,-645.79 998.22,-641.41 1018,-639 1093.18,-629.83 1180.29,-628.76 1238.33,-629.38"/>
<polygon fill="#9a32cd" stroke="#9a32cd" points="957.26,-646.71 948.35,-652.44 958.89,-653.52 957.26,-646.71"/>
</a>
</g>
<text text-anchor="start" x="1097" y="-644.5" font-family="Helvetica,sans-Serif" font-size="10.00" fill="grey">pool</text>
</g>
<!-- Node5&#45;&gt;Node5 -->
<g id="edge8_Node000005_Node000005" class="edge">
<title>Node5&#45;&gt;Node5</title>
<g id="a_edge8_Node000005_Node000005"><a xlink:title=" ">
<path fill="none" stroke="#9a32cd" stroke-dasharray="5,2" d="M881.26,-680.32C882.52,-685.51 892.6,-689.5 911.5,-689.5 940.29,-689.5 948.62,-680.23 936.47,-671.58"/>
<polygon fill="#9a32cd" stroke="#9a32cd" points="884.36,-681.95 886.53,-671.58 878.37,-678.34 884.36,-681.95"/>
</a>
</g>
<text text-anchor="start" x="879.5" y="-695" font-family="Helvetica,sans-Serif" font-size="10.00" fill="grey">resourceFree</text>
</g>
<!-- Node6 -->
<g id="Node000006" class="node">
<title>Node6</title>
<g id="a_Node000006"><a xlink:href="structfiftyone_degrees_pool_item.html" target="_top" xlink:title="Pool item node in the stack of items.">
<polygon fill="white" stroke="#666666" points="1373,-678.5 1236,-678.5 1236,-659.5 1373,-659.5 1373,-678.5"/>
<text text-anchor="middle" x="1304.5" y="-666.5" font-family="Helvetica,sans-Serif" font-size="10.00">fiftyoneDegreesPoolItem</text>
</a>
</g>
</g>
<!-- Node5&#45;&gt;Node6 -->
<g id="edge6_Node000006_Node000005" class="edge">
<title>Node5&#45;&gt;Node6</title>
<g id="a_edge6_Node000006_Node000005"><a xlink:title=" ">
<path fill="none" stroke="#9a32cd" stroke-dasharray="5,2" d="M968.47,-673.36C984.4,-676.1 1001.83,-678.63 1018,-680 1097.71,-686.75 1118.11,-684.15 1198,-680 1210.23,-679.36 1223.22,-678.32 1235.76,-677.11"/>
<polygon fill="#9a32cd" stroke="#9a32cd" points="968.7,-669.84 958.24,-671.54 967.47,-676.74 968.7,-669.84"/>
</a>
</g>
<text text-anchor="start" x="1097" y="-689.5" font-family="Helvetica,sans-Serif" font-size="10.00" fill="grey">pool</text>
</g>
<!-- Node6&#45;&gt;Node5 -->
<g id="edge5_Node000005_Node000006" class="edge">
<title>Node6&#45;&gt;Node5</title>
<g id="a_edge5_Node000005_Node000006"><a xlink:title=" ">
<path fill="none" stroke="#9a32cd" stroke-dasharray="5,2" d="M1225.86,-664.11C1216.47,-663.66 1207.02,-663.27 1198,-663 1118.61,-660.61 1026.74,-660.82 969.12,-661.31"/>
<polygon fill="#9a32cd" stroke="#9a32cd" points="1225.82,-667.62 1235.99,-664.62 1226.18,-660.62 1225.82,-667.62"/>
</a>
</g>
<text text-anchor="start" x="1095" y="-668.5" font-family="Helvetica,sans-Serif" font-size="10.00" fill="grey">stack</text>
</g>
<!-- Node7 -->
<g id="Node000007" class="node">
<title>Node7</title>
<g id="a_Node000007"><a xlink:href="unionfiftyone_degrees_pool_head.html" target="_top" xlink:title="The head of the stack used for pop and push operations.">
<polygon fill="white" stroke="#666666" points="656,-671.5 516,-671.5 516,-652.5 656,-652.5 656,-671.5"/>
<text text-anchor="middle" x="586" y="-659.5" font-family="Helvetica,sans-Serif" font-size="10.00">fiftyoneDegreesPoolHead</text>
</a>
</g>
</g>
<!-- Node7&#45;&gt;Node5 -->
<g id="edge7_Node000005_Node000007" class="edge">
<title>Node7&#45;&gt;Node5</title>
<g id="a_edge7_Node000005_Node000007"><a xlink:title=" ">
<path fill="none" stroke="#9a32cd" stroke-dasharray="5,2" d="M666.26,-662C724.42,-662 802.02,-662 853.99,-662"/>
<polygon fill="#9a32cd" stroke="#9a32cd" points="666,-658.5 656,-662 666,-665.5 666,-658.5"/>
</a>
</g>
<text text-anchor="start" x="737.5" y="-667.5" font-family="Helvetica,sans-Serif" font-size="10.00" fill="grey">head</text>
</g>
<!-- Node8 -->
<g id="Node000008" class="node">
<title>Node8</title>
<g id="a_Node000008"><a xlink:href="structfiftyone_degrees_resource_handle.html" target="_top" xlink:title="Handle for a shared resource.">
<polygon fill="white" stroke="#666666" points="1391,-744.5 1218,-744.5 1218,-725.5 1391,-725.5 1391,-744.5"/>
<text text-anchor="middle" x="1304.5" y="-732.5" font-family="Helvetica,sans-Serif" font-size="10.00">fiftyoneDegreesResourceHandle</text>
</a>
</g>
</g>
<!-- Node8&#45;&gt;Node3 -->
<g id="edge9_Node000003_Node000008" class="edge">
<title>Node8&#45;&gt;Node3</title>
<g id="a_edge9_Node000003_Node000008"><a xlink:title=" ">
<path fill="none" stroke="#9a32cd" stroke-dasharray="5,2" d="M1336.75,-721.48C1378.1,-703.55 1453.2,-670.79 1517,-642 1547.7,-628.15 1583.09,-611.66 1604.75,-601.52"/>
<polygon fill="#9a32cd" stroke="#9a32cd" points="1335.27,-718.31 1327.48,-725.5 1338.05,-724.73 1335.27,-718.31"/>
</a>
</g>
<text text-anchor="start" x="1447" y="-693.5" font-family="Helvetica,sans-Serif" font-size="10.00" fill="grey">handle</text>
</g>
<!-- Node10 -->
<g id="Node000010" class="node">
<title>Node10</title>
<g id="a_Node000010"><a xlink:href="structfiftyone_degrees_resource_manager.html" target="_top" xlink:title="Manager structure used to provide access to a shared and changing resource.">
<polygon fill="white" stroke="#666666" points="1717,-738.5 1535,-738.5 1535,-719.5 1717,-719.5 1717,-738.5"/>
<text text-anchor="middle" x="1626" y="-726.5" font-family="Helvetica,sans-Serif" font-size="10.00">fiftyoneDegreesResourceManager</text>
</a>
</g>
</g>
<!-- Node8&#45;&gt;Node10 -->
<g id="edge12_Node000010_Node000008" class="edge">
<title>Node8&#45;&gt;Node10</title>
<g id="a_edge12_Node000010_Node000008"><a xlink:title=" ">
<path fill="none" stroke="#9a32cd" stroke-dasharray="5,2" d="M1401.55,-738.8C1404.74,-738.87 1407.89,-738.94 1411,-739 1458.1,-739.89 1469.94,-741.17 1517,-739 1522.83,-738.73 1528.83,-738.38 1534.88,-737.97"/>
<polygon fill="#9a32cd" stroke="#9a32cd" points="1401.37,-735.29 1391.28,-738.52 1401.19,-742.29 1401.37,-735.29"/>
</a>
</g>
<text text-anchor="start" x="1449" y="-745.5" font-family="Helvetica,sans-Serif" font-size="10.00" fill="grey">active</text>
</g>
<!-- Node9 -->
<g id="Node000009" class="node">
<title>Node9</title>
<g id="a_Node000009"><a xlink:href="structfiftyone_degrees_interlock_double_width.html" target="_top" xlink:title="Double width (64 or 128 depending on the architecture) compare and exchange.">
<polygon fill="white" stroke="#666666" points="980,-757 843,-757 843,-727 980,-727 980,-757"/>
<text text-anchor="start" x="851" y="-745" font-family="Helvetica,sans-Serif" font-size="10.00">fiftyoneDegreesInterlock</text>
<text text-anchor="middle" x="911.5" y="-734" font-family="Helvetica,sans-Serif" font-size="10.00">DoubleWidth</text>
</a>
</g>
</g>
<!-- Node9&#45;&gt;Node8 -->
<g id="edge10_Node000008_Node000009" class="edge">
<title>Node9&#45;&gt;Node8</title>
<g id="a_edge10_Node000008_Node000009"><a xlink:title=" ">
<path fill="none" stroke="#9a32cd" stroke-dasharray="5,2" d="M990.46,-740.6C1056.18,-739.43 1150.1,-737.75 1217.89,-736.53"/>
<polygon fill="#9a32cd" stroke="#9a32cd" points="990.1,-737.11 980.16,-740.79 990.22,-744.11 990.1,-737.11"/>
</a>
</g>
<text text-anchor="start" x="1090" y="-744.5" font-family="Helvetica,sans-Serif" font-size="10.00" fill="grey">counter</text>
</g>
<!-- Node10&#45;&gt;Node8 -->
<g id="edge11_Node000008_Node000010" class="edge">
<title>Node10&#45;&gt;Node8</title>
<g id="a_edge11_Node000008_Node000010"><a xlink:title=" ">
<path fill="none" stroke="#9a32cd" stroke-dasharray="5,2" d="M1524.88,-721.84C1488.95,-720.29 1448.14,-719.72 1411,-722 1398.57,-722.76 1385.36,-724.03 1372.64,-725.48"/>
<polygon fill="#9a32cd" stroke="#9a32cd" points="1524.73,-725.33 1534.88,-722.3 1525.05,-718.34 1524.73,-725.33"/>
</a>
</g>
<text text-anchor="start" x="1442" y="-727.5" font-family="Helvetica,sans-Serif" font-size="10.00" fill="grey">manager</text>
</g>
<!-- Node11 -->
<g id="Node000011" class="node">
<title>Node11</title>
<g id="a_Node000011"><a xlink:href="structfiftyone_degrees_property_available_array.html" target="_top" xlink:title="Array of items of type fiftyoneDegreesPropertyAvailable used to easily access and track the size of t...">
<polygon fill="white" stroke="#666666" points="1198,-467 1018,-467 1018,-437 1198,-437 1198,-467"/>
<text text-anchor="start" x="1026" y="-455" font-family="Helvetica,sans-Serif" font-size="10.00">fiftyoneDegreesPropertyAvailable</text>
<text text-anchor="middle" x="1108" y="-444" font-family="Helvetica,sans-Serif" font-size="10.00">Array</text>
</a>
</g>
</g>
<!-- Node11&#45;&gt;Node3 -->
<g id="edge13_Node000003_Node000011" class="edge">
<title>Node11&#45;&gt;Node3</title>
<g id="a_edge13_Node000003_Node000011"><a xlink:title=" ">
<path fill="none" stroke="#9a32cd" stroke-dasharray="5,2" d="M1208.18,-449.08C1262.99,-448.98 1332.11,-451.35 1393,-461 1449.68,-469.98 1477.39,-455.48 1517,-497 1540.66,-521.8 1510.56,-547.97 1535,-572 1539.34,-576.26 1544.37,-579.7 1549.8,-582.47"/>
<polygon fill="#9a32cd" stroke="#9a32cd" points="1208.11,-445.58 1198.12,-449.12 1208.14,-452.58 1208.11,-445.58"/>
</a>
</g>
<text text-anchor="start" x="1281.5" y="-466.5" font-family="Helvetica,sans-Serif" font-size="10.00" fill="grey">available</text>
</g>
<!-- Node12 -->
<g id="Node000012" class="node">
<title>Node12</title>
<g id="a_Node000012"><a xlink:href="structfiftyone_degrees_property_available.html" target="_top" xlink:title="Used to access the property item quickly without the need to search.">
<polygon fill="white" stroke="#666666" points="676,-461.5 496,-461.5 496,-442.5 676,-442.5 676,-461.5"/>
<text text-anchor="middle" x="586" y="-449.5" font-family="Helvetica,sans-Serif" font-size="10.00">fiftyoneDegreesPropertyAvailable</text>
</a>
</g>
</g>
<!-- Node12&#45;&gt;Node11 -->
<g id="edge14_Node000011_Node000012" class="edge">
<title>Node12&#45;&gt;Node11</title>
<g id="a_edge14_Node000011_Node000012"><a xlink:title=" ">
<path fill="none" stroke="#9a32cd" stroke-dasharray="5,2" d="M686.37,-452C782.11,-452 925.63,-452 1017.8,-452"/>
<polygon fill="#9a32cd" stroke="#9a32cd" points="686.1,-448.5 676.1,-452 686.1,-455.5 686.1,-448.5"/>
</a>
</g>
<text text-anchor="start" x="735.5" y="-457.5" font-family="Helvetica,sans-Serif" font-size="10.00" fill="grey">items</text>
</g>
<!-- Node19 -->
<g id="Node000019" class="node">
<title>Node19</title>
<g id="a_Node000019"><a xlink:href="structfiftyone_degrees_override_property.html" target="_top" xlink:title="Index and pointer to a property which can be overridden.">
<polygon fill="white" stroke="#666666" points="1000,-516.5 823,-516.5 823,-497.5 1000,-497.5 1000,-516.5"/>
<text text-anchor="middle" x="911.5" y="-504.5" font-family="Helvetica,sans-Serif" font-size="10.00">fiftyoneDegreesOverrideProperty</text>
</a>
</g>
</g>
<!-- Node12&#45;&gt;Node19 -->
<g id="edge24_Node000019_Node000012" class="edge">
<title>Node12&#45;&gt;Node19</title>
<g id="a_edge24_Node000019_Node000012"><a xlink:title=" ">
<path fill="none" stroke="#9a32cd" stroke-dasharray="5,2" d="M643.46,-463.5C659.75,-466.7 677.56,-470.1 694,-473 744.77,-481.97 802.45,-490.97 845.5,-497.45"/>
<polygon fill="#9a32cd" stroke="#9a32cd" points="644.03,-460.04 633.54,-461.53 642.67,-466.91 644.03,-460.04"/>
</a>
</g>
<text text-anchor="start" x="726.5" y="-495.5" font-family="Helvetica,sans-Serif" font-size="10.00" fill="grey">available</text>
</g>
<!-- Node13 -->
<g id="Node000013" class="node">
<title>Node13</title>
<g id="a_Node000013"><a xlink:href="structfiftyone_degrees_collection_item.html" target="_top" xlink:title="Used to store a handle to the underlying item that could be used to release the item when it&#39;s finish...">
<polygon fill="white" stroke="#666666" points="353,-149.5 188,-149.5 188,-130.5 353,-130.5 353,-149.5"/>
<text text-anchor="middle" x="270.5" y="-137.5" font-family="Helvetica,sans-Serif" font-size="10.00">fiftyoneDegreesCollectionItem</text>
</a>
</g>
</g>
<!-- Node13&#45;&gt;Node12 -->
<g id="edge15_Node000012_Node000013" class="edge">
<title>Node13&#45;&gt;Node12</title>
<g id="a_edge15_Node000012_Node000013"><a xlink:title=" ">
<path fill="none" stroke="#9a32cd" stroke-dasharray="5,2" d="M288.43,-156.85C345.69,-213.83 531.01,-398.27 575.39,-442.43"/>
<polygon fill="#9a32cd" stroke="#9a32cd" points="290.78,-154.25 281.23,-149.68 285.85,-159.21 290.78,-154.25"/>
</a>
</g>
<text text-anchor="start" x="414" y="-347.5" font-family="Helvetica,sans-Serif" font-size="10.00" fill="grey">name</text>
</g>
<!-- Node15 -->
<g id="Node000015" class="node">
<title>Node15</title>
<g id="a_Node000015"><a xlink:href="structfiftyone_degrees_collection.html" target="_top" xlink:title="All the shared methods and fields required by file, memory and cached collections.">
<polygon fill="white" stroke="#666666" points="657.5,-81.5 514.5,-81.5 514.5,-62.5 657.5,-62.5 657.5,-81.5"/>
<text text-anchor="middle" x="586" y="-69.5" font-family="Helvetica,sans-Serif" font-size="10.00">fiftyoneDegreesCollection</text>
</a>
</g>
</g>
<!-- Node13&#45;&gt;Node15 -->
<g id="edge19_Node000015_Node000013" class="edge">
<title>Node13&#45;&gt;Node15</title>
<g id="a_edge19_Node000015_Node000013"><a xlink:title=" ">
<path fill="none" stroke="#9a32cd" stroke-dasharray="5,2" d="M326.99,-128.35C368.58,-119.57 426.89,-107.18 478,-96 499.48,-91.3 523.36,-85.96 543.1,-81.51"/>
<polygon fill="#9a32cd" stroke="#9a32cd" points="326.12,-124.95 317.05,-130.44 327.56,-131.8 326.12,-124.95"/>
</a>
</g>
<text text-anchor="start" x="410" y="-122.5" font-family="Helvetica,sans-Serif" font-size="10.00" fill="grey">release</text>
</g>
<!-- Node29 -->
<g id="Node000029" class="node">
<title>Node29</title>
<g id="a_Node000029"><a xlink:href="structfiftyone_degrees_list.html" target="_top" xlink:title="List structure which contains a list of collection items.">
<polygon fill="white" stroke="#666666" points="805,-169.5 694,-169.5 694,-150.5 805,-150.5 805,-169.5"/>
<text text-anchor="middle" x="749.5" y="-157.5" font-family="Helvetica,sans-Serif" font-size="10.00">fiftyoneDegreesList</text>
</a>
</g>
</g>
<!-- Node13&#45;&gt;Node29 -->
<g id="edge36_Node000029_Node000013" class="edge">
<title>Node13&#45;&gt;Node29</title>
<g id="a_edge36_Node000029_Node000013"><a xlink:title=" ">
<path fill="none" stroke="#9a32cd" stroke-dasharray="5,2" d="M363.42,-143.85C461.37,-147.96 613.2,-154.33 693.83,-157.71"/>
<polygon fill="#9a32cd" stroke="#9a32cd" points="363.37,-140.35 353.23,-143.43 363.07,-147.34 363.37,-140.35"/>
</a>
</g>
<text text-anchor="start" x="414" y="-154.5" font-family="Helvetica,sans-Serif" font-size="10.00" fill="grey">items</text>
</g>
<!-- Node14 -->
<g id="Node000014" class="node">
<title>Node14</title>
<g id="a_Node000014"><a xlink:href="structfiftyone_degrees_data.html" target="_top" xlink:title="Data structure used for reusing memory which may have been allocated in a previous operation.">
<polygon fill="white" stroke="#666666" points="117,-149.5 0,-149.5 0,-130.5 117,-130.5 117,-149.5"/>
<text text-anchor="middle" x="58.5" y="-137.5" font-family="Helvetica,sans-Serif" font-size="10.00">fiftyoneDegreesData</text>
</a>
</g>
</g>
<!-- Node14&#45;&gt;Node13 -->
<g id="edge16_Node000013_Node000014" class="edge">
<title>Node14&#45;&gt;Node13</title>
<g id="a_edge16_Node000013_Node000014"><a xlink:title=" ">
<path fill="none" stroke="#9a32cd" stroke-dasharray="5,2" d="M127.37,-140C146.69,-140 167.94,-140 187.98,-140"/>
<polygon fill="#9a32cd" stroke="#9a32cd" points="127.16,-136.5 117.16,-140 127.16,-143.5 127.16,-136.5"/>
</a>
</g>
<text text-anchor="start" x="138" y="-145.5" font-family="Helvetica,sans-Serif" font-size="10.00" fill="grey">data</text>
</g>
<!-- Node15&#45;&gt;Node1 -->
<g id="edge34_Node000001_Node000015" class="edge">
<title>Node15&#45;&gt;Node1</title>
<g id="a_edge34_Node000001_Node000015"><a xlink:title=" ">
<path fill="none" stroke="#9a32cd" stroke-dasharray="5,2" d="M621.67,-59.03C680.28,-38.29 803.08,0 910.5,0 910.5,0 910.5,0 1909.5,0 2087.01,0 2136.87,-305.02 2144.79,-363.4"/>
<polygon fill="#9a32cd" stroke="#9a32cd" points="620.39,-55.77 612.16,-62.44 622.75,-62.36 620.39,-55.77"/>
</a>
</g>
<text text-anchor="start" x="1431" y="-125.5" font-family="Helvetica,sans-Serif" font-size="10.00" fill="grey">components</text>
<text text-anchor="start" x="1431" y="-110.5" font-family="Helvetica,sans-Serif" font-size="10.00" fill="grey">maps</text>
<text text-anchor="start" x="1431" y="-95.5" font-family="Helvetica,sans-Serif" font-size="10.00" fill="grey">nodes</text>
<text text-anchor="start" x="1431" y="-80.5" font-family="Helvetica,sans-Serif" font-size="10.00" fill="grey">profileOffsets</text>
<text text-anchor="start" x="1431" y="-65.5" font-family="Helvetica,sans-Serif" font-size="10.00" fill="grey">profiles</text>
<text text-anchor="start" x="1431" y="-50.5" font-family="Helvetica,sans-Serif" font-size="10.00" fill="grey">properties</text>
<text text-anchor="start" x="1431" y="-35.5" font-family="Helvetica,sans-Serif" font-size="10.00" fill="grey">rootNodes</text>
<text text-anchor="start" x="1431" y="-20.5" font-family="Helvetica,sans-Serif" font-size="10.00" fill="grey">strings</text>
<text text-anchor="start" x="1431" y="-5.5" font-family="Helvetica,sans-Serif" font-size="10.00" fill="grey">values</text>
</g>
<!-- Node15&#45;&gt;Node13 -->
<g id="edge17_Node000013_Node000015" class="edge">
<title>Node15&#45;&gt;Node13</title>
<g id="a_edge17_Node000013_Node000015"><a xlink:title=" ">
<path fill="none" stroke="#9a32cd" stroke-dasharray="5,2" d="M504.02,-65.78C465.22,-65.04 418.48,-67.49 378,-79 340.7,-89.6 302.61,-115.96 283.7,-130.31"/>
<polygon fill="#9a32cd" stroke="#9a32cd" points="504.14,-69.28 514.23,-66.04 504.32,-62.28 504.14,-69.28"/>
</a>
</g>
<text text-anchor="start" x="404" y="-84.5" font-family="Helvetica,sans-Serif" font-size="10.00" fill="grey">collection</text>
</g>
<!-- Node15&#45;&gt;Node15 -->
<g id="edge18_Node000015_Node000015" class="edge">
<title>Node15&#45;&gt;Node15</title>
<g id="a_edge18_Node000015_Node000015"><a xlink:title=" ">
<path fill="none" stroke="#9a32cd" stroke-dasharray="5,2" d="M556.51,-90.32C557.74,-95.51 567.57,-99.5 586,-99.5 614.08,-99.5 622.2,-90.23 610.35,-81.58"/>
<polygon fill="#9a32cd" stroke="#9a32cd" points="559.59,-91.98 561.65,-81.58 553.56,-88.43 559.59,-91.98"/>
</a>
</g>
<text text-anchor="start" x="552" y="-120.5" font-family="Helvetica,sans-Serif" font-size="10.00" fill="grey">freeCollection</text>
<text text-anchor="start" x="552" y="-105.5" font-family="Helvetica,sans-Serif" font-size="10.00" fill="grey">get</text>
</g>
<!-- Node16 -->
<g id="Node000016" class="node">
<title>Node16</title>
<g id="a_Node000016"><a xlink:href="structfiftyone_degrees_evidence_property_index_array.html" target="_top" xlink:title="Array of items of type fiftyoneDegreesEvidencePropertyIndex used to easily access and track the size ...">
<polygon fill="white" stroke="#666666" points="360,-467 181,-467 181,-437 360,-437 360,-467"/>
<text text-anchor="start" x="189" y="-455" font-family="Helvetica,sans-Serif" font-size="10.00">fiftyoneDegreesEvidenceProperty</text>
<text text-anchor="middle" x="270.5" y="-444" font-family="Helvetica,sans-Serif" font-size="10.00">IndexArray</text>
</a>
</g>
</g>
<!-- Node16&#45;&gt;Node12 -->
<g id="edge20_Node000012_Node000016" class="edge">
<title>Node16&#45;&gt;Node12</title>
<g id="a_edge20_Node000012_Node000016"><a xlink:title=" ">
<path fill="none" stroke="#9a32cd" stroke-dasharray="5,2" d="M370.17,-452C410.42,-452 456.61,-452 495.82,-452"/>
<polygon fill="#9a32cd" stroke="#9a32cd" points="370.08,-448.5 360.08,-452 370.08,-455.5 370.08,-448.5"/>
</a>
</g>
<text text-anchor="start" x="381" y="-457.5" font-family="Helvetica,sans-Serif" font-size="10.00" fill="grey">evidenceProperties</text>
</g>
<!-- Node17 -->
<g id="Node000017" class="node">
<title>Node17</title>
<g id="a_Node000017"><a xlink:href="structfiftyone_degrees_header_array.html" target="_top" xlink:title="Array of Headers which should always be ordered in ascending order of fullHeaderId.">
<polygon fill="white" stroke="#666666" points="1382,-602.5 1227,-602.5 1227,-583.5 1382,-583.5 1382,-602.5"/>
<text text-anchor="middle" x="1304.5" y="-590.5" font-family="Helvetica,sans-Serif" font-size="10.00">fiftyoneDegreesHeaderArray</text>
</a>
</g>
</g>
<!-- Node17&#45;&gt;Node3 -->
<g id="edge21_Node000003_Node000017" class="edge">
<title>Node17&#45;&gt;Node3</title>
<g id="a_edge21_Node000003_Node000017"><a xlink:title=" ">
<path fill="none" stroke="#9a32cd" stroke-dasharray="5,2" d="M1392.19,-592.73C1440.64,-592.58 1500.53,-592.39 1547.43,-592.24"/>
<polygon fill="#9a32cd" stroke="#9a32cd" points="1392.02,-589.23 1382.03,-592.76 1392.04,-596.23 1392.02,-589.23"/>
</a>
</g>
<text text-anchor="start" x="1427" y="-597.5" font-family="Helvetica,sans-Serif" font-size="10.00" fill="grey">uniqueHeaders</text>
</g>
<!-- Node18 -->
<g id="Node000018" class="node">
<title>Node18</title>
<g id="a_Node000018"><a xlink:href="structfiftyone_degrees_override_property_array.html" target="_top" xlink:title="Array of items of type fiftyoneDegreesOverrideProperty used to easily access and track the size of th...">
<polygon fill="white" stroke="#666666" points="1393,-565 1216,-565 1216,-535 1393,-535 1393,-565"/>
<text text-anchor="start" x="1224" y="-553" font-family="Helvetica,sans-Serif" font-size="10.00">fiftyoneDegreesOverrideProperty</text>
<text text-anchor="middle" x="1304.5" y="-542" font-family="Helvetica,sans-Serif" font-size="10.00">Array</text>
</a>
</g>
</g>
<!-- Node18&#45;&gt;Node3 -->
<g id="edge22_Node000003_Node000018" class="edge">
<title>Node18&#45;&gt;Node3</title>
<g id="a_edge22_Node000003_Node000018"><a xlink:title=" ">
<path fill="none" stroke="#9a32cd" stroke-dasharray="5,2" d="M1403.17,-557.78C1439.05,-561.15 1479.96,-565.57 1517,-571 1538.17,-574.1 1561.49,-578.51 1581.02,-582.49"/>
<polygon fill="#9a32cd" stroke="#9a32cd" points="1403.47,-554.3 1393.19,-556.86 1402.83,-561.27 1403.47,-554.3"/>
</a>
</g>
<text text-anchor="start" x="1436" y="-576.5" font-family="Helvetica,sans-Serif" font-size="10.00" fill="grey">overridable</text>
</g>
<!-- Node19&#45;&gt;Node18 -->
<g id="edge23_Node000018_Node000019" class="edge">
<title>Node19&#45;&gt;Node18</title>
<g id="a_edge23_Node000018_Node000019"><a xlink:title=" ">
<path fill="none" stroke="#9a32cd" stroke-dasharray="5,2" d="M1009.27,-517.64C1072.57,-524.6 1154.59,-533.62 1215.95,-540.37"/>
<polygon fill="#9a32cd" stroke="#9a32cd" points="1009.6,-514.16 999.28,-516.54 1008.83,-521.12 1009.6,-514.16"/>
</a>
</g>
<text text-anchor="start" x="1094" y="-542.5" font-family="Helvetica,sans-Serif" font-size="10.00" fill="grey">items</text>
</g>
<!-- Node20 -->
<g id="Node000020" class="node">
<title>Node20</title>
<g id="a_Node000020"><a xlink:href="structfiftyone_degrees_indices_property_profile.html" target="_top" xlink:title="Maps the profile index and the property index to the first value index of the profile for the propert...">
<polygon fill="white" stroke="#666666" points="1389.5,-517 1219.5,-517 1219.5,-487 1389.5,-487 1389.5,-517"/>
<text text-anchor="start" x="1227.5" y="-505" font-family="Helvetica,sans-Serif" font-size="10.00">fiftyoneDegreesIndicesProperty</text>
<text text-anchor="middle" x="1304.5" y="-494" font-family="Helvetica,sans-Serif" font-size="10.00">Profile</text>
</a>
</g>
</g>
<!-- Node20&#45;&gt;Node3 -->
<g id="edge25_Node000003_Node000020" class="edge">
<title>Node20&#45;&gt;Node3</title>
<g id="a_edge25_Node000003_Node000020"><a xlink:title=" ">
<path fill="none" stroke="#9a32cd" stroke-dasharray="5,2" d="M1399.73,-499.52C1439.17,-502.8 1483.52,-512.6 1517,-537 1531.14,-547.3 1521.15,-561.31 1535,-572 1540.58,-576.3 1546.89,-579.72 1553.53,-582.42"/>
<polygon fill="#9a32cd" stroke="#9a32cd" points="1399.78,-496.01 1389.56,-498.8 1399.29,-502.99 1399.78,-496.01"/>
</a>
</g>
<text text-anchor="start" x="1414" y="-542.5" font-family="Helvetica,sans-Serif" font-size="10.00" fill="grey">indexPropertyProfile</text>
</g>
<!-- Node21 -->
<g id="Node000021" class="node">
<title>Node21</title>
<g id="a_Node000021"><a xlink:href="structfiftyone_degrees_header_ptr_array.html" target="_top" xlink:title="Array of header indexes.">
<polygon fill="white" stroke="#666666" points="1697.5,-686 1554.5,-686 1554.5,-656 1697.5,-656 1697.5,-686"/>
<text text-anchor="start" x="1562.5" y="-674" font-family="Helvetica,sans-Serif" font-size="10.00">fiftyoneDegreesHeaderPtr</text>
<text text-anchor="middle" x="1626" y="-663" font-family="Helvetica,sans-Serif" font-size="10.00">Array</text>
</a>
</g>
</g>
<!-- Node21&#45;&gt;Node1 -->
<g id="edge37_Node000001_Node000021" class="edge">
<title>Node21&#45;&gt;Node1</title>
<g id="a_edge37_Node000001_Node000021"><a xlink:title=" ">
<path fill="none" stroke="#9a32cd" stroke-dasharray="5,2" d="M1707.67,-683.28C1787.16,-690.92 1908.48,-690.13 1992,-632 2086.68,-566.1 2132.51,-421.58 2143.4,-382.76"/>
<polygon fill="#9a32cd" stroke="#9a32cd" points="1708.02,-679.8 1697.71,-682.26 1707.3,-686.76 1708.02,-679.8"/>
</a>
</g>
<text text-anchor="start" x="1860.5" y="-689.5" font-family="Helvetica,sans-Serif" font-size="10.00" fill="grey">componentHeaders</text>
</g>
<!-- Node21&#45;&gt;Node2 -->
<g id="edge26_Node000002_Node000021" class="edge">
<title>Node21&#45;&gt;Node2</title>
<g id="a_edge26_Node000002_Node000021"><a xlink:title=" ">
<path fill="none" stroke="#9a32cd" stroke-dasharray="5,2" d="M1703.66,-653.78C1746.55,-644.15 1799.51,-632.25 1840.7,-623"/>
<polygon fill="#9a32cd" stroke="#9a32cd" points="1702.82,-650.38 1693.83,-655.99 1704.35,-657.21 1702.82,-650.38"/>
</a>
</g>
<text text-anchor="start" x="1739" y="-650.5" font-family="Helvetica,sans-Serif" font-size="10.00" fill="grey">ghevHeaders</text>
</g>
<!-- Node22 -->
<g id="Node000022" class="node">
<title>Node22</title>
<g id="a_Node000022"><a xlink:href="structfiftyone_degrees_data_set_hash_header.html" target="_top" xlink:title="Dataset header containing information about the dataset.">
<polygon fill="white" stroke="#666666" points="1987.5,-409 1829.5,-409 1829.5,-379 1987.5,-379 1987.5,-409"/>
<text text-anchor="start" x="1837.5" y="-397" font-family="Helvetica,sans-Serif" font-size="10.00">fiftyoneDegreesDataSetHash</text>
<text text-anchor="middle" x="1908.5" y="-386" font-family="Helvetica,sans-Serif" font-size="10.00">Header</text>
</a>
</g>
</g>
<!-- Node22&#45;&gt;Node1 -->
<g id="edge27_Node000001_Node000022" class="edge">
<title>Node22&#45;&gt;Node1</title>
<g id="a_edge27_Node000001_Node000022"><a xlink:title=" ">
<path fill="none" stroke="#9a32cd" stroke-dasharray="5,2" d="M1997.72,-386.17C2020.79,-384.12 2045.49,-381.92 2067.99,-379.93"/>
<polygon fill="#9a32cd" stroke="#9a32cd" points="1997.25,-382.69 1987.59,-387.07 1997.86,-389.67 1997.25,-382.69"/>
</a>
</g>
<text text-anchor="start" x="2013" y="-389.5" font-family="Helvetica,sans-Serif" font-size="10.00" fill="grey">header</text>
</g>
<!-- Node23 -->
<g id="Node000023" class="node">
<title>Node23</title>
<g id="a_Node000023"><a xlink:href="structfiftyone_degrees_date.html" target="_top" xlink:title="Used to store the date when the dataset was produced and next date 51Degrees expect to provide a new ...">
<polygon fill="white" stroke="#666666" points="1684.5,-562.5 1567.5,-562.5 1567.5,-543.5 1684.5,-543.5 1684.5,-562.5"/>
<text text-anchor="middle" x="1626" y="-550.5" font-family="Helvetica,sans-Serif" font-size="10.00">fiftyoneDegreesDate</text>
</a>
</g>
</g>
<!-- Node23&#45;&gt;Node22 -->
<g id="edge28_Node000022_Node000023" class="edge">
<title>Node23&#45;&gt;Node22</title>
<g id="a_edge28_Node000022_Node000023"><a xlink:title=" ">
<path fill="none" stroke="#9a32cd" stroke-dasharray="5,2" d="M1694.93,-557.21C1730.5,-556.44 1773.5,-550.62 1807,-531 1856.38,-502.08 1888.63,-438.32 1901.36,-409.13"/>
<polygon fill="#9a32cd" stroke="#9a32cd" points="1694.6,-553.71 1684.63,-557.29 1694.66,-560.71 1694.6,-553.71"/>
</a>
</g>
<text text-anchor="start" x="1742" y="-574" font-family="Helvetica,sans-Serif" font-size="10.00" fill="grey">nextUpdate</text>
<text text-anchor="start" x="1742" y="-559" font-family="Helvetica,sans-Serif" font-size="10.00" fill="grey">published</text>
</g>
<!-- Node24 -->
<g id="Node000024" class="node">
<title>Node24</title>
<g id="a_Node000024"><a xlink:href="structfiftyone_degrees_collection_header.html" target="_top" xlink:title="Collection header structure which defines the size and location of the collection data.">
<polygon fill="white" stroke="#666666" points="1697.5,-408 1554.5,-408 1554.5,-378 1697.5,-378 1697.5,-408"/>
<text text-anchor="start" x="1562.5" y="-396" font-family="Helvetica,sans-Serif" font-size="10.00">fiftyoneDegreesCollection</text>
<text text-anchor="middle" x="1626" y="-385" font-family="Helvetica,sans-Serif" font-size="10.00">Header</text>
</a>
</g>
</g>
<!-- Node24&#45;&gt;Node22 -->
<g id="edge29_Node000022_Node000024" class="edge">
<title>Node24&#45;&gt;Node22</title>
<g id="a_edge29_Node000022_Node000024"><a xlink:title=" ">
<path fill="none" stroke="#9a32cd" stroke-dasharray="5,2" d="M1707.84,-393.29C1746.05,-393.42 1791.47,-393.59 1829.33,-393.72"/>
<polygon fill="#9a32cd" stroke="#9a32cd" points="1707.79,-389.79 1697.78,-393.25 1707.77,-396.79 1707.79,-389.79"/>
</a>
</g>
<text text-anchor="start" x="1738" y="-518.5" font-family="Helvetica,sans-Serif" font-size="10.00" fill="grey">components</text>
<text text-anchor="start" x="1738" y="-503.5" font-family="Helvetica,sans-Serif" font-size="10.00" fill="grey">maps</text>
<text text-anchor="start" x="1738" y="-488.5" font-family="Helvetica,sans-Serif" font-size="10.00" fill="grey">nodes</text>
<text text-anchor="start" x="1738" y="-473.5" font-family="Helvetica,sans-Serif" font-size="10.00" fill="grey">profileOffsets</text>
<text text-anchor="start" x="1738" y="-458.5" font-family="Helvetica,sans-Serif" font-size="10.00" fill="grey">profiles</text>
<text text-anchor="start" x="1738" y="-443.5" font-family="Helvetica,sans-Serif" font-size="10.00" fill="grey">properties</text>
<text text-anchor="start" x="1738" y="-428.5" font-family="Helvetica,sans-Serif" font-size="10.00" fill="grey">rootNodes</text>
<text text-anchor="start" x="1738" y="-413.5" font-family="Helvetica,sans-Serif" font-size="10.00" fill="grey">strings</text>
<text text-anchor="start" x="1738" y="-398.5" font-family="Helvetica,sans-Serif" font-size="10.00" fill="grey">values</text>
</g>
<!-- Node25 -->
<g id="Node000025" class="node">
<title>Node25</title>
<g id="a_Node000025"><a xlink:href="structfiftyone_degrees_config_hash.html" target="_top" xlink:title="Hash specific configuration structure.">
<polygon fill="white" stroke="#666666" points="1983,-360.5 1834,-360.5 1834,-341.5 1983,-341.5 1983,-360.5"/>
<text text-anchor="middle" x="1908.5" y="-348.5" font-family="Helvetica,sans-Serif" font-size="10.00">fiftyoneDegreesConfigHash</text>
</a>
</g>
</g>
<!-- Node25&#45;&gt;Node1 -->
<g id="edge30_Node000001_Node000025" class="edge">
<title>Node25&#45;&gt;Node1</title>
<g id="a_edge30_Node000001_Node000025"><a xlink:title=" ">
<path fill="none" stroke="#9a32cd" stroke-dasharray="5,2" d="M1993.46,-355.41C2012.1,-356.65 2031.74,-358.18 2050,-360 2059.79,-360.98 2070.12,-362.18 2080.23,-363.47"/>
<polygon fill="#9a32cd" stroke="#9a32cd" points="1993.43,-351.9 1983.23,-354.74 1992.98,-358.88 1993.43,-351.9"/>
</a>
</g>
<text text-anchor="start" x="2015" y="-365.5" font-family="Helvetica,sans-Serif" font-size="10.00" fill="grey">config</text>
</g>
<!-- Node26 -->
<g id="Node000026" class="node">
<title>Node26</title>
<g id="a_Node000026"><a xlink:href="structfiftyone_degrees_config_device_detection.html" target="_top" xlink:title="Device detection configuration structure containing device detection specific configuration options,...">
<polygon fill="white" stroke="#666666" points="1705,-360 1547,-360 1547,-330 1705,-330 1705,-360"/>
<text text-anchor="start" x="1555" y="-348" font-family="Helvetica,sans-Serif" font-size="10.00">fiftyoneDegreesConfigDevice</text>
<text text-anchor="middle" x="1626" y="-337" font-family="Helvetica,sans-Serif" font-size="10.00">Detection</text>
</a>
</g>
</g>
<!-- Node26&#45;&gt;Node25 -->
<g id="edge31_Node000025_Node000026" class="edge">
<title>Node26&#45;&gt;Node25</title>
<g id="a_edge31_Node000025_Node000026"><a xlink:title=" ">
<path fill="none" stroke="#9a32cd" stroke-dasharray="5,2" d="M1715.19,-346.89C1753.27,-347.7 1797.32,-348.64 1833.64,-349.42"/>
<polygon fill="#9a32cd" stroke="#9a32cd" points="1715.21,-343.39 1705.13,-346.67 1715.06,-350.38 1715.21,-343.39"/>
</a>
</g>
<text text-anchor="start" x="1768" y="-353.5" font-family="Helvetica,sans-Serif" font-size="10.00" fill="grey">b</text>
</g>
<!-- Node27 -->
<g id="Node000027" class="node">
<title>Node27</title>
<g id="a_Node000027"><a xlink:href="structfiftyone_degrees_config_base.html" target="_top" xlink:title="Base configuration structure containing common configuration options, and options that apply to struc...">
<polygon fill="white" stroke="#666666" points="1379,-354.5 1230,-354.5 1230,-335.5 1379,-335.5 1379,-354.5"/>
<text text-anchor="middle" x="1304.5" y="-342.5" font-family="Helvetica,sans-Serif" font-size="10.00">fiftyoneDegreesConfigBase</text>
</a>
</g>
</g>
<!-- Node27&#45;&gt;Node26 -->
<g id="edge32_Node000026_Node000027" class="edge">
<title>Node27&#45;&gt;Node26</title>
<g id="a_edge32_Node000026_Node000027"><a xlink:title=" ">
<path fill="none" stroke="#9a32cd" stroke-dasharray="5,2" d="M1389.41,-345C1438.17,-345 1499.2,-345 1546.93,-345"/>
<polygon fill="#9a32cd" stroke="#9a32cd" points="1389.2,-341.5 1379.2,-345 1389.2,-348.5 1389.2,-341.5"/>
</a>
</g>
<text text-anchor="start" x="1461" y="-350.5" font-family="Helvetica,sans-Serif" font-size="10.00" fill="grey">b</text>
</g>
<!-- Node28 -->
<g id="Node000028" class="node">
<title>Node28</title>
<g id="a_Node000028"><a xlink:href="structfiftyone_degrees_collection_config.html" target="_top" xlink:title="Collection configuration structure which defines how the collection should be created by the create m...">
<polygon fill="white" stroke="#666666" points="1697.5,-218 1554.5,-218 1554.5,-188 1697.5,-188 1697.5,-218"/>
<text text-anchor="start" x="1562.5" y="-206" font-family="Helvetica,sans-Serif" font-size="10.00">fiftyoneDegreesCollection</text>
<text text-anchor="middle" x="1626" y="-195" font-family="Helvetica,sans-Serif" font-size="10.00">Config</text>
</a>
</g>
</g>
<!-- Node28&#45;&gt;Node25 -->
<g id="edge33_Node000025_Node000028" class="edge">
<title>Node28&#45;&gt;Node25</title>
<g id="a_edge33_Node000025_Node000028"><a xlink:title=" ">
<path fill="none" stroke="#9a32cd" stroke-dasharray="5,2" d="M1708.22,-188.89C1740.66,-187.08 1777.27,-190.12 1807,-206 1863.46,-236.17 1894.72,-313.72 1904.29,-341.18"/>
<polygon fill="#9a32cd" stroke="#9a32cd" points="1707.58,-185.43 1697.85,-189.64 1708.08,-192.41 1707.58,-185.43"/>
</a>
</g>
<text text-anchor="start" x="1738" y="-331.5" font-family="Helvetica,sans-Serif" font-size="10.00" fill="grey">components</text>
<text text-anchor="start" x="1738" y="-316.5" font-family="Helvetica,sans-Serif" font-size="10.00" fill="grey">maps</text>
<text text-anchor="start" x="1738" y="-301.5" font-family="Helvetica,sans-Serif" font-size="10.00" fill="grey">nodes</text>
<text text-anchor="start" x="1738" y="-286.5" font-family="Helvetica,sans-Serif" font-size="10.00" fill="grey">profileOffsets</text>
<text text-anchor="start" x="1738" y="-271.5" font-family="Helvetica,sans-Serif" font-size="10.00" fill="grey">profiles</text>
<text text-anchor="start" x="1738" y="-256.5" font-family="Helvetica,sans-Serif" font-size="10.00" fill="grey">properties</text>
<text text-anchor="start" x="1738" y="-241.5" font-family="Helvetica,sans-Serif" font-size="10.00" fill="grey">rootNodes</text>
<text text-anchor="start" x="1738" y="-226.5" font-family="Helvetica,sans-Serif" font-size="10.00" fill="grey">strings</text>
<text text-anchor="start" x="1738" y="-211.5" font-family="Helvetica,sans-Serif" font-size="10.00" fill="grey">values</text>
</g>
<!-- Node29&#45;&gt;Node1 -->
<g id="edge35_Node000001_Node000029" class="edge">
<title>Node29&#45;&gt;Node1</title>
<g id="a_edge35_Node000001_Node000029"><a xlink:title=" ">
<path fill="none" stroke="#9a32cd" stroke-dasharray="5,2" d="M815.35,-160C886.8,-160 1005.09,-160 1107,-160 1107,-160 1107,-160 1909.5,-160 2032.72,-160 2120.73,-321.63 2141.37,-363.29"/>
<polygon fill="#9a32cd" stroke="#9a32cd" points="815.16,-156.5 805.16,-160 815.16,-163.5 815.16,-156.5"/>
</a>
</g>
<text text-anchor="start" x="1425" y="-165.5" font-family="Helvetica,sans-Serif" font-size="10.00" fill="grey">componentsList</text>
</g>
</g>
</svg>
