<?xml version="1.0" encoding="UTF-8" standalone="no"?>
<!DOCTYPE svg PUBLIC "-//W3C//DTD SVG 1.1//EN"
 "http://www.w3.org/Graphics/SVG/1.1/DTD/svg11.dtd">
<!-- Generated by graphviz version 2.43.0 (0)
 -->
<!-- Title: fiftyoneDegreesDataSetHashHeader Pages: 1 -->
<svg width="291pt" height="241pt"
 viewBox="0.00 0.00 290.50 241.00" xmlns="http://www.w3.org/2000/svg" xmlns:xlink="http://www.w3.org/1999/xlink">
<g id="graph0" class="graph" transform="scale(1 1) rotate(0) translate(4 237)">
<title>fiftyoneDegreesDataSetHashHeader</title>
<!-- Node1 -->
<g id="Node000001" class="node">
<title>Node1</title>
<g id="a_Node000001"><a xlink:title="Dataset header containing information about the dataset.">
<polygon fill="#999999" stroke="#666666" points="211.5,-30 53.5,-30 53.5,0 211.5,0 211.5,-30"/>
<text text-anchor="start" x="61.5" y="-18" font-family="Helvetica,sans-Serif" font-size="10.00">fiftyoneDegreesDataSetHash</text>
<text text-anchor="middle" x="132.5" y="-7" font-family="Helvetica,sans-Serif" font-size="10.00">Header</text>
</a>
</g>
</g>
<!-- Node2 -->
<g id="Node000002" class="node">
<title>Node2</title>
<g id="a_Node000002"><a xlink:href="structfiftyone_degrees_date.html" target="_top" xlink:title="Used to store the date when the dataset was produced and next date 51Degrees expect to provide a new ...">
<polygon fill="white" stroke="#666666" points="117,-227.5 0,-227.5 0,-208.5 117,-208.5 117,-227.5"/>
<text text-anchor="middle" x="58.5" y="-215.5" font-family="Helvetica,sans-Serif" font-size="10.00">fiftyoneDegreesDate</text>
</a>
</g>
</g>
<!-- Node2&#45;&gt;Node1 -->
<g id="edge1_Node000001_Node000002" class="edge">
<title>Node2&#45;&gt;Node1</title>
<g id="a_edge1_Node000001_Node000002"><a xlink:title=" ">
<path fill="none" stroke="#9a32cd" stroke-dasharray="5,2" d="M65.16,-198.71C76.47,-167.68 100.18,-102.78 120.5,-48 122.69,-42.1 125.12,-35.6 127.22,-30.01"/>
<polygon fill="#9a32cd" stroke="#9a32cd" points="61.84,-197.6 61.71,-208.2 68.42,-200 61.84,-197.6"/>
</a>
</g>
<text text-anchor="start" x="123.5" y="-121.5" font-family="Helvetica,sans-Serif" font-size="10.00" fill="grey">nextUpdate</text>
<text text-anchor="start" x="123.5" y="-106.5" font-family="Helvetica,sans-Serif" font-size="10.00" fill="grey">published</text>
</g>
<!-- Node3 -->
<g id="Node000003" class="node">
<title>Node3</title>
<g id="a_Node000003"><a xlink:href="structfiftyone_degrees_collection_header.html" target="_top" xlink:title="Collection header structure which defines the size and location of the collection data.">
<polygon fill="white" stroke="#666666" points="278,-233 135,-233 135,-203 278,-203 278,-233"/>
<text text-anchor="start" x="143" y="-221" font-family="Helvetica,sans-Serif" font-size="10.00">fiftyoneDegreesCollection</text>
<text text-anchor="middle" x="206.5" y="-210" font-family="Helvetica,sans-Serif" font-size="10.00">Header</text>
</a>
</g>
</g>
<!-- Node3&#45;&gt;Node1 -->
<g id="edge2_Node000001_Node000003" class="edge">
<title>Node3&#45;&gt;Node1</title>
<g id="a_edge2_Node000001_Node000003"><a xlink:title=" ">
<path fill="none" stroke="#9a32cd" stroke-dasharray="5,2" d="M209.51,-192.73C212.56,-157.79 213.36,-92.61 184.5,-48 179.78,-40.7 172.75,-34.8 165.37,-30.14"/>
<polygon fill="#9a32cd" stroke="#9a32cd" points="206,-192.65 208.47,-202.95 212.96,-193.35 206,-192.65"/>
</a>
</g>
<text text-anchor="start" x="213.5" y="-173.5" font-family="Helvetica,sans-Serif" font-size="10.00" fill="grey">components</text>
<text text-anchor="start" x="213.5" y="-158.5" font-family="Helvetica,sans-Serif" font-size="10.00" fill="grey">maps</text>
<text text-anchor="start" x="213.5" y="-143.5" font-family="Helvetica,sans-Serif" font-size="10.00" fill="grey">nodes</text>
<text text-anchor="start" x="213.5" y="-128.5" font-family="Helvetica,sans-Serif" font-size="10.00" fill="grey">profileOffsets</text>
<text text-anchor="start" x="213.5" y="-113.5" font-family="Helvetica,sans-Serif" font-size="10.00" fill="grey">profiles</text>
<text text-anchor="start" x="213.5" y="-98.5" font-family="Helvetica,sans-Serif" font-size="10.00" fill="grey">properties</text>
<text text-anchor="start" x="213.5" y="-83.5" font-family="Helvetica,sans-Serif" font-size="10.00" fill="grey">rootNodes</text>
<text text-anchor="start" x="213.5" y="-68.5" font-family="Helvetica,sans-Serif" font-size="10.00" fill="grey">strings</text>
<text text-anchor="start" x="213.5" y="-53.5" font-family="Helvetica,sans-Serif" font-size="10.00" fill="grey">values</text>
</g>
</g>
</svg>
