<?xml version="1.0" encoding="UTF-8" standalone="no"?>
<!DOCTYPE svg PUBLIC "-//W3C//DTD SVG 1.1//EN"
 "http://www.w3.org/Graphics/SVG/1.1/DTD/svg11.dtd">
<!-- Generated by graphviz version 2.43.0 (0)
 -->
<!-- Title: fiftyoneDegreesResultsDeviceDetection Pages: 1 -->
<svg width="344pt" height="265pt"
 viewBox="0.00 0.00 343.50 265.00" xmlns="http://www.w3.org/2000/svg" xmlns:xlink="http://www.w3.org/1999/xlink">
<g id="graph0" class="graph" transform="scale(1 1) rotate(0) translate(4 261)">
<title>fiftyoneDegreesResultsDeviceDetection</title>
<!-- Node1 -->
<g id="Node000001" class="node">
<title>Node1</title>
<g id="a_Node000001"><a xlink:title="Device detection specific results structure which any device detection processing results should exte...">
<polygon fill="#999999" stroke="#666666" points="177,-30 13,-30 13,0 177,0 177,-30"/>
<text text-anchor="start" x="21" y="-18" font-family="Helvetica,sans-Serif" font-size="10.00">fiftyoneDegreesResultsDevice</text>
<text text-anchor="middle" x="95" y="-7" font-family="Helvetica,sans-Serif" font-size="10.00">Detection</text>
</a>
</g>
</g>
<!-- Node2 -->
<g id="Node000002" class="node">
<title>Node2</title>
<g id="a_Node000002"><a xlink:href="structfiftyone_degrees_results_base.html" target="_top" xlink:title="Base results structure which any processing results should extend.">
<polygon fill="white" stroke="#666666" points="154,-107.5 0,-107.5 0,-88.5 154,-88.5 154,-107.5"/>
<text text-anchor="middle" x="77" y="-95.5" font-family="Helvetica,sans-Serif" font-size="10.00">fiftyoneDegreesResultsBase</text>
</a>
</g>
</g>
<!-- Node2&#45;&gt;Node1 -->
<g id="edge1_Node000001_Node000002" class="edge">
<title>Node2&#45;&gt;Node1</title>
<g id="a_edge1_Node000001_Node000002"><a xlink:title=" ">
<path fill="none" stroke="#9a32cd" stroke-dasharray="5,2" d="M81.15,-78.34C84.42,-63.61 88.92,-43.38 91.89,-30.01"/>
<polygon fill="#9a32cd" stroke="#9a32cd" points="77.68,-77.81 78.93,-88.33 84.51,-79.33 77.68,-77.81"/>
</a>
</g>
<text text-anchor="start" x="91.5" y="-53.5" font-family="Helvetica,sans-Serif" font-size="10.00" fill="grey">b</text>
</g>
<!-- Node3 -->
<g id="Node000003" class="node">
<title>Node3</title>
<g id="a_Node000003"><a xlink:href="structfiftyone_degrees_override_value_array.html" target="_top" xlink:title="An array of properties and values to use when getting override values.">
<polygon fill="white" stroke="#666666" points="335.5,-113 172.5,-113 172.5,-83 335.5,-83 335.5,-113"/>
<text text-anchor="start" x="180.5" y="-101" font-family="Helvetica,sans-Serif" font-size="10.00">fiftyoneDegreesOverrideValue</text>
<text text-anchor="middle" x="254" y="-90" font-family="Helvetica,sans-Serif" font-size="10.00">Array</text>
</a>
</g>
</g>
<!-- Node3&#45;&gt;Node1 -->
<g id="edge2_Node000001_Node000003" class="edge">
<title>Node3&#45;&gt;Node1</title>
<g id="a_edge2_Node000001_Node000003"><a xlink:title=" ">
<path fill="none" stroke="#9a32cd" stroke-dasharray="5,2" d="M217.34,-78.33C188.48,-63.62 148.88,-43.45 122.64,-30.08"/>
<polygon fill="#9a32cd" stroke="#9a32cd" points="215.81,-81.47 226.3,-82.89 218.98,-75.23 215.81,-81.47"/>
</a>
</g>
<text text-anchor="start" x="191" y="-53.5" font-family="Helvetica,sans-Serif" font-size="10.00" fill="grey">overrides</text>
</g>
<!-- Node4 -->
<g id="Node000004" class="node">
<title>Node4</title>
<g id="a_Node000004"><a xlink:href="structfiftyone_degrees_override_value.html" target="_top" xlink:title="String value which should override the value for the property indicated by the required property inde...">
<polygon fill="white" stroke="#666666" points="335.5,-185 172.5,-185 172.5,-166 335.5,-166 335.5,-185"/>
<text text-anchor="middle" x="254" y="-173" font-family="Helvetica,sans-Serif" font-size="10.00">fiftyoneDegreesOverrideValue</text>
</a>
</g>
</g>
<!-- Node4&#45;&gt;Node3 -->
<g id="edge3_Node000003_Node000004" class="edge">
<title>Node4&#45;&gt;Node3</title>
<g id="a_edge3_Node000003_Node000004"><a xlink:title=" ">
<path fill="none" stroke="#9a32cd" stroke-dasharray="5,2" d="M254,-155.57C254,-142.43 254,-125.18 254,-113.21"/>
<polygon fill="#9a32cd" stroke="#9a32cd" points="250.5,-155.84 254,-165.84 257.5,-155.84 250.5,-155.84"/>
</a>
</g>
<text text-anchor="start" x="257" y="-136.5" font-family="Helvetica,sans-Serif" font-size="10.00" fill="grey">items</text>
</g>
<!-- Node5 -->
<g id="Node000005" class="node">
<title>Node5</title>
<g id="a_Node000005"><a xlink:href="structfiftyone_degrees_data.html" target="_top" xlink:title="Data structure used for reusing memory which may have been allocated in a previous operation.">
<polygon fill="white" stroke="#666666" points="312.5,-257 195.5,-257 195.5,-238 312.5,-238 312.5,-257"/>
<text text-anchor="middle" x="254" y="-245" font-family="Helvetica,sans-Serif" font-size="10.00">fiftyoneDegreesData</text>
</a>
</g>
</g>
<!-- Node5&#45;&gt;Node4 -->
<g id="edge4_Node000004_Node000005" class="edge">
<title>Node5&#45;&gt;Node4</title>
<g id="a_edge4_Node000004_Node000005"><a xlink:title=" ">
<path fill="none" stroke="#9a32cd" stroke-dasharray="5,2" d="M254,-227.58C254,-213.76 254,-195.68 254,-185.15"/>
<polygon fill="#9a32cd" stroke="#9a32cd" points="250.5,-227.92 254,-237.92 257.5,-227.92 250.5,-227.92"/>
</a>
</g>
<text text-anchor="start" x="257" y="-208.5" font-family="Helvetica,sans-Serif" font-size="10.00" fill="grey">string</text>
</g>
</g>
</svg>
