<?xml version="1.0" encoding="UTF-8" standalone="no"?>
<!DOCTYPE svg PUBLIC "-//W3C//DTD SVG 1.1//EN"
 "http://www.w3.org/Graphics/SVG/1.1/DTD/svg11.dtd">
<!-- Generated by graphviz version 2.43.0 (0)
 -->
<!-- Title: fiftyone.ipintelligence.engine.onpremise.interop.swig.EvidenceBaseSwig Pages: 1 -->
<svg width="1080pt" height="76pt"
 viewBox="0.00 0.00 1080.00 75.50" xmlns="http://www.w3.org/2000/svg" xmlns:xlink="http://www.w3.org/1999/xlink">
<g id="graph0" class="graph" transform="scale(1 1) rotate(0) translate(4 71.5)">
<title>fiftyone.ipintelligence.engine.onpremise.interop.swig.EvidenceBaseSwig</title>
<!-- Node1 -->
<g id="Node000001" class="node">
<title>Node1</title>
<g id="a_Node000001"><a xlink:title=" ">
<polygon fill="#999999" stroke="#666666" points="757,-45.5 478,-45.5 478,-15.5 757,-15.5 757,-45.5"/>
<text text-anchor="start" x="486" y="-33.5" font-family="Helvetica,sans-Serif" font-size="10.00">fiftyone.ipintelligence.engine.onpremise.interop.swig.</text>
<text text-anchor="middle" x="617.5" y="-22.5" font-family="Helvetica,sans-Serif" font-size="10.00">EvidenceBaseSwig</text>
</a>
</g>
</g>
<!-- Node5 -->
<g id="Node000005" class="node">
<title>Node5</title>
<g id="a_Node000005"><a xlink:href="classfiftyone_1_1ipintelligence_1_1engine_1_1onpremise_1_1interop_1_1swig_1_1_evidence_ipi_swig.html" target="_top" xlink:title=" ">
<polygon fill="white" stroke="#bfbfbf" points="1072,-45.5 793,-45.5 793,-15.5 1072,-15.5 1072,-45.5"/>
<text text-anchor="start" x="801" y="-33.5" font-family="Helvetica,sans-Serif" font-size="10.00">fiftyone.ipintelligence.engine.onpremise.interop.swig.</text>
<text text-anchor="middle" x="932.5" y="-22.5" font-family="Helvetica,sans-Serif" font-size="10.00">EvidenceIpiSwig</text>
</a>
</g>
</g>
<!-- Node1&#45;&gt;Node5 -->
<g id="edge5_Node000001_Node000005" class="edge">
<title>Node1&#45;&gt;Node5</title>
<g id="a_edge5_Node000001_Node000005"><a xlink:title=" ">
<path fill="none" stroke="#63b8ff" d="M767.39,-30.5C775.8,-30.5 784.24,-30.5 792.61,-30.5"/>
<polygon fill="#63b8ff" stroke="#63b8ff" points="767.15,-27 757.15,-30.5 767.15,-34 767.15,-27"/>
</a>
</g>
</g>
<!-- Node2 -->
<g id="Node000002" class="node">
<title>Node2</title>
<g id="a_Node000002"><a xlink:href="classfiftyone_1_1ipintelligence_1_1engine_1_1onpremise_1_1interop_1_1swig_1_1_map_string_string_swig.html" target="_top" xlink:title=" ">
<polygon fill="white" stroke="#bfbfbf" points="442,-67.5 163,-67.5 163,-37.5 442,-37.5 442,-67.5"/>
<text text-anchor="start" x="171" y="-55.5" font-family="Helvetica,sans-Serif" font-size="10.00">fiftyone.ipintelligence.engine.onpremise.interop.swig.</text>
<text text-anchor="middle" x="302.5" y="-44.5" font-family="Helvetica,sans-Serif" font-size="10.00">MapStringStringSwig</text>
</a>
</g>
</g>
<!-- Node2&#45;&gt;Node1 -->
<g id="edge1_Node000001_Node000002" class="edge">
<title>Node2&#45;&gt;Node1</title>
<g id="a_edge1_Node000001_Node000002"><a xlink:title=" ">
<path fill="none" stroke="#63b8ff" d="M452.39,-42.03C460.8,-41.44 469.24,-40.85 477.61,-40.26"/>
<polygon fill="#63b8ff" stroke="#63b8ff" points="451.88,-38.56 442.15,-42.75 452.37,-45.54 451.88,-38.56"/>
</a>
</g>
</g>
<!-- Node3 -->
<g id="Node000003" class="node">
<title>Node3</title>
<g id="a_Node000003"><a xlink:title=" ">
<polygon fill="white" stroke="#bfbfbf" points="127,-67.5 0,-67.5 0,-37.5 127,-37.5 127,-67.5"/>
<text text-anchor="start" x="8" y="-55.5" font-family="Helvetica,sans-Serif" font-size="10.00">java::util::AbstractMap</text>
<text text-anchor="middle" x="63.5" y="-44.5" font-family="Helvetica,sans-Serif" font-size="10.00">&lt; String, String &gt;</text>
</a>
</g>
</g>
<!-- Node3&#45;&gt;Node2 -->
<g id="edge2_Node000002_Node000003" class="edge">
<title>Node3&#45;&gt;Node2</title>
<g id="a_edge2_Node000002_Node000003"><a xlink:title=" ">
<path fill="none" stroke="#63b8ff" d="M137.31,-52.5C145.55,-52.5 154.13,-52.5 162.86,-52.5"/>
<polygon fill="#63b8ff" stroke="#63b8ff" points="137.08,-49 127.08,-52.5 137.08,-56 137.08,-49"/>
</a>
</g>
</g>
<!-- Node4 -->
<g id="Node000004" class="node">
<title>Node4</title>
<g id="a_Node000004"><a xlink:title=" ">
<polygon fill="white" stroke="#bfbfbf" points="107,-19 20,-19 20,0 107,0 107,-19"/>
<text text-anchor="middle" x="63.5" y="-7" font-family="Helvetica,sans-Serif" font-size="10.00">AutoCloseable</text>
</a>
</g>
</g>
<!-- Node4&#45;&gt;Node1 -->
<g id="edge4_Node000001_Node000004" class="edge">
<title>Node4&#45;&gt;Node1</title>
<g id="a_edge4_Node000001_Node000004"><a xlink:title=" ">
<path fill="none" stroke="#63b8ff" d="M117.47,-11.52C199.75,-14.65 360.97,-20.78 477.95,-25.23"/>
<polygon fill="#63b8ff" stroke="#63b8ff" points="117.48,-8.01 107.36,-11.13 117.21,-15.01 117.48,-8.01"/>
</a>
</g>
</g>
<!-- Node4&#45;&gt;Node2 -->
<g id="edge3_Node000002_Node000004" class="edge">
<title>Node4&#45;&gt;Node2</title>
<g id="a_edge3_Node000002_Node000004"><a xlink:title=" ">
<path fill="none" stroke="#63b8ff" d="M117.3,-19.08C147.03,-24.47 184.83,-31.33 218.44,-37.43"/>
<polygon fill="#63b8ff" stroke="#63b8ff" points="117.61,-15.58 107.14,-17.24 116.36,-22.47 117.61,-15.58"/>
</a>
</g>
</g>
</g>
</svg>
