<?xml version="1.0" encoding="UTF-8" standalone="no"?>
<!DOCTYPE svg PUBLIC "-//W3C//DTD SVG 1.1//EN"
 "http://www.w3.org/Graphics/SVG/1.1/DTD/svg11.dtd">
<!-- Generated by graphviz version 2.43.0 (0)
 -->
<!-- Title: fiftyone.ipintelligence.engine.onpremise.interop.swig.MapStringStringSwig Pages: 1 -->
<svg width="287pt" height="236pt"
 viewBox="0.00 0.00 287.00 236.00" xmlns="http://www.w3.org/2000/svg" xmlns:xlink="http://www.w3.org/1999/xlink">
<g id="graph0" class="graph" transform="scale(1 1) rotate(0) translate(4 232)">
<title>fiftyone.ipintelligence.engine.onpremise.interop.swig.MapStringStringSwig</title>
<!-- Node1 -->
<g id="Node000001" class="node">
<title>Node1</title>
<g id="a_Node000001"><a xlink:title=" ">
<polygon fill="#999999" stroke="#666666" points="279,-162 0,-162 0,-132 279,-132 279,-162"/>
<text text-anchor="start" x="8" y="-150" font-family="Helvetica,sans-Serif" font-size="10.00">fiftyone.ipintelligence.engine.onpremise.interop.swig.</text>
<text text-anchor="middle" x="139.5" y="-139" font-family="Helvetica,sans-Serif" font-size="10.00">MapStringStringSwig</text>
</a>
</g>
</g>
<!-- Node4 -->
<g id="Node000004" class="node">
<title>Node4</title>
<g id="a_Node000004"><a xlink:href="classfiftyone_1_1ipintelligence_1_1engine_1_1onpremise_1_1interop_1_1swig_1_1_evidence_base_swig.html" target="_top" xlink:title=" ">
<polygon fill="white" stroke="#bfbfbf" points="279,-96 0,-96 0,-66 279,-66 279,-96"/>
<text text-anchor="start" x="8" y="-84" font-family="Helvetica,sans-Serif" font-size="10.00">fiftyone.ipintelligence.engine.onpremise.interop.swig.</text>
<text text-anchor="middle" x="139.5" y="-73" font-family="Helvetica,sans-Serif" font-size="10.00">EvidenceBaseSwig</text>
</a>
</g>
</g>
<!-- Node1&#45;&gt;Node4 -->
<g id="edge3_Node000001_Node000004" class="edge">
<title>Node1&#45;&gt;Node4</title>
<g id="a_edge3_Node000001_Node000004"><a xlink:title=" ">
<path fill="none" stroke="#63b8ff" d="M139.5,-121.54C139.5,-112.96 139.5,-103.61 139.5,-96.16"/>
<polygon fill="#63b8ff" stroke="#63b8ff" points="136,-121.8 139.5,-131.8 143,-121.8 136,-121.8"/>
</a>
</g>
</g>
<!-- Node2 -->
<g id="Node000002" class="node">
<title>Node2</title>
<g id="a_Node000002"><a xlink:title=" ">
<polygon fill="white" stroke="#bfbfbf" points="141,-228 14,-228 14,-198 141,-198 141,-228"/>
<text text-anchor="start" x="22" y="-216" font-family="Helvetica,sans-Serif" font-size="10.00">java::util::AbstractMap</text>
<text text-anchor="middle" x="77.5" y="-205" font-family="Helvetica,sans-Serif" font-size="10.00">&lt; String, String &gt;</text>
</a>
</g>
</g>
<!-- Node2&#45;&gt;Node1 -->
<g id="edge1_Node000001_Node000002" class="edge">
<title>Node2&#45;&gt;Node1</title>
<g id="a_edge1_Node000001_Node000002"><a xlink:title=" ">
<path fill="none" stroke="#63b8ff" d="M98.46,-190.37C107.47,-181.06 117.76,-170.44 125.78,-162.16"/>
<polygon fill="#63b8ff" stroke="#63b8ff" points="95.7,-188.18 91.26,-197.8 100.73,-193.05 95.7,-188.18"/>
</a>
</g>
</g>
<!-- Node3 -->
<g id="Node000003" class="node">
<title>Node3</title>
<g id="a_Node000003"><a xlink:title=" ">
<polygon fill="white" stroke="#bfbfbf" points="246,-222.5 159,-222.5 159,-203.5 246,-203.5 246,-222.5"/>
<text text-anchor="middle" x="202.5" y="-210.5" font-family="Helvetica,sans-Serif" font-size="10.00">AutoCloseable</text>
</a>
</g>
</g>
<!-- Node3&#45;&gt;Node1 -->
<g id="edge2_Node000001_Node000003" class="edge">
<title>Node3&#45;&gt;Node1</title>
<g id="a_edge2_Node000001_Node000003"><a xlink:title=" ">
<path fill="none" stroke="#63b8ff" d="M186.9,-196.16C176.72,-185.81 163.52,-172.4 153.64,-162.36"/>
<polygon fill="#63b8ff" stroke="#63b8ff" points="184.49,-198.7 194,-203.37 189.48,-193.79 184.49,-198.7"/>
</a>
</g>
</g>
<!-- Node5 -->
<g id="Node000005" class="node">
<title>Node5</title>
<g id="a_Node000005"><a xlink:href="classfiftyone_1_1ipintelligence_1_1engine_1_1onpremise_1_1interop_1_1swig_1_1_evidence_ipi_swig.html" target="_top" xlink:title=" ">
<polygon fill="white" stroke="#bfbfbf" points="279,-30 0,-30 0,0 279,0 279,-30"/>
<text text-anchor="start" x="8" y="-18" font-family="Helvetica,sans-Serif" font-size="10.00">fiftyone.ipintelligence.engine.onpremise.interop.swig.</text>
<text text-anchor="middle" x="139.5" y="-7" font-family="Helvetica,sans-Serif" font-size="10.00">EvidenceIpiSwig</text>
</a>
</g>
</g>
<!-- Node4&#45;&gt;Node5 -->
<g id="edge4_Node000004_Node000005" class="edge">
<title>Node4&#45;&gt;Node5</title>
<g id="a_edge4_Node000004_Node000005"><a xlink:title=" ">
<path fill="none" stroke="#63b8ff" d="M139.5,-55.54C139.5,-46.96 139.5,-37.61 139.5,-30.16"/>
<polygon fill="#63b8ff" stroke="#63b8ff" points="136,-55.8 139.5,-65.8 143,-55.8 136,-55.8"/>
</a>
</g>
</g>
</g>
</svg>
