<?xml version="1.0" encoding="UTF-8" standalone="no"?>
<!DOCTYPE svg PUBLIC "-//W3C//DTD SVG 1.1//EN"
 "http://www.w3.org/Graphics/SVG/1.1/DTD/svg11.dtd">
<!-- Generated by graphviz version 2.43.0 (0)
 -->
<!-- Title: fiftyone.ipintelligence.examples.console.UpdateDataFile Pages: 1 -->
<svg width="234pt" height="177pt"
 viewBox="0.00 0.00 234.00 177.00" xmlns="http://www.w3.org/2000/svg" xmlns:xlink="http://www.w3.org/1999/xlink">
<g id="graph0" class="graph" transform="scale(1 1) rotate(0) translate(4 173)">
<title>fiftyone.ipintelligence.examples.console.UpdateDataFile</title>
<!-- Node1 -->
<g id="Node000001" class="node">
<title>Node1</title>
<g id="a_Node000001"><a xlink:title="This example illustrates various parameters that can be adjusted when using the on&#45;premise IP Intelli...">
<polygon fill="#999999" stroke="#666666" points="221.5,-30 4.5,-30 4.5,0 221.5,0 221.5,-30"/>
<text text-anchor="start" x="12.5" y="-18" font-family="Helvetica,sans-Serif" font-size="10.00">fiftyone.ipintelligence.examples.console.</text>
<text text-anchor="middle" x="113" y="-7" font-family="Helvetica,sans-Serif" font-size="10.00">UpdateDataFile</text>
</a>
</g>
</g>
<!-- Node2 -->
<g id="Node000002" class="node">
<title>Node2</title>
<g id="a_Node000002"><a xlink:title=" ">
<polygon fill="white" stroke="#bfbfbf" points="226,-113 0,-113 0,-83 226,-83 226,-113"/>
<text text-anchor="start" x="8" y="-101" font-family="Helvetica,sans-Serif" font-size="10.00">fiftyone.ipintelligence.examples.console.</text>
<text text-anchor="middle" x="113" y="-90" font-family="Helvetica,sans-Serif" font-size="10.00">UpdateDataFile.UpdateCompletionListener</text>
</a>
</g>
</g>
<!-- Node2&#45;&gt;Node1 -->
<g id="edge1_Node000001_Node000002" class="edge">
<title>Node2&#45;&gt;Node1</title>
<g id="a_edge1_Node000001_Node000002"><a xlink:title=" ">
<path fill="none" stroke="#9a32cd" stroke-dasharray="5,2" d="M113,-72.59C113,-58.75 113,-41.91 113,-30.22"/>
<polygon fill="#9a32cd" stroke="#9a32cd" points="109.5,-72.89 113,-82.89 116.5,-72.89 109.5,-72.89"/>
</a>
</g>
<text text-anchor="start" x="116" y="-53.5" font-family="Helvetica,sans-Serif" font-size="10.00" fill="grey">completionListener</text>
</g>
<!-- Node3 -->
<g id="Node000003" class="node">
<title>Node3</title>
<g id="a_Node000003"><a xlink:title=" ">
<polygon fill="white" stroke="#bfbfbf" points="169.5,-169 56.5,-169 56.5,-150 169.5,-150 169.5,-169"/>
<text text-anchor="middle" x="113" y="-157" font-family="Helvetica,sans-Serif" font-size="10.00">OnUpdateComplete</text>
</a>
</g>
</g>
<!-- Node3&#45;&gt;Node2 -->
<g id="edge2_Node000002_Node000003" class="edge">
<title>Node3&#45;&gt;Node2</title>
<g id="a_edge2_Node000002_Node000003"><a xlink:title=" ">
<path fill="none" stroke="#63b8ff" d="M113,-139.73C113,-131.09 113,-121 113,-113.02"/>
<polygon fill="#63b8ff" stroke="#63b8ff" points="109.5,-139.98 113,-149.98 116.5,-139.98 109.5,-139.98"/>
</a>
</g>
</g>
</g>
</svg>
