<?xml version="1.0" encoding="UTF-8" standalone="no"?>
<!DOCTYPE svg PUBLIC "-//W3C//DTD SVG 1.1//EN"
 "http://www.w3.org/Graphics/SVG/1.1/DTD/svg11.dtd">
<!-- Generated by graphviz version 2.43.0 (0)
 -->
<!-- Title: fiftyone.ipintelligence.engine.onpremise.interop.swig.WeightedUTF8StringListSwig Pages: 1 -->
<svg width="512pt" height="113pt"
 viewBox="0.00 0.00 512.00 112.50" xmlns="http://www.w3.org/2000/svg" xmlns:xlink="http://www.w3.org/1999/xlink">
<g id="graph0" class="graph" transform="scale(1 1) rotate(0) translate(4 108.5)">
<title>fiftyone.ipintelligence.engine.onpremise.interop.swig.WeightedUTF8StringListSwig</title>
<!-- Node1 -->
<g id="Node000001" class="node">
<title>Node1</title>
<g id="a_Node000001"><a xlink:title=" ">
<polygon fill="#999999" stroke="#666666" points="504,-61.5 225,-61.5 225,-31.5 504,-31.5 504,-61.5"/>
<text text-anchor="start" x="233" y="-49.5" font-family="Helvetica,sans-Serif" font-size="10.00">fiftyone.ipintelligence.engine.onpremise.interop.swig.</text>
<text text-anchor="middle" x="364.5" y="-38.5" font-family="Helvetica,sans-Serif" font-size="10.00">WeightedUTF8StringListSwig</text>
</a>
</g>
</g>
<!-- Node2 -->
<g id="Node000002" class="node">
<title>Node2</title>
<g id="a_Node000002"><a xlink:title=" ">
<polygon fill="white" stroke="#bfbfbf" points="189,-104.5 0,-104.5 0,-74.5 189,-74.5 189,-104.5"/>
<text text-anchor="start" x="8" y="-92.5" font-family="Helvetica,sans-Serif" font-size="10.00">java.util.AbstractList</text>
<text text-anchor="middle" x="94.5" y="-81.5" font-family="Helvetica,sans-Serif" font-size="10.00">&lt; WeightedValueUTF8StringSwig &gt;</text>
</a>
</g>
</g>
<!-- Node2&#45;&gt;Node1 -->
<g id="edge1_Node000001_Node000002" class="edge">
<title>Node2&#45;&gt;Node1</title>
<g id="a_edge1_Node000001_Node000002"><a xlink:title=" ">
<path fill="none" stroke="#63b8ff" d="M199.12,-72.87C222.4,-69.14 246.97,-65.2 269.82,-61.53"/>
<polygon fill="#63b8ff" stroke="#63b8ff" points="198.55,-69.42 189.23,-74.46 199.66,-76.33 198.55,-69.42"/>
</a>
</g>
</g>
<!-- Node3 -->
<g id="Node000003" class="node">
<title>Node3</title>
<g id="a_Node000003"><a xlink:title=" ">
<polygon fill="white" stroke="#bfbfbf" points="138,-56 51,-56 51,-37 138,-37 138,-56"/>
<text text-anchor="middle" x="94.5" y="-44" font-family="Helvetica,sans-Serif" font-size="10.00">AutoCloseable</text>
</a>
</g>
</g>
<!-- Node3&#45;&gt;Node1 -->
<g id="edge2_Node000001_Node000003" class="edge">
<title>Node3&#45;&gt;Node1</title>
<g id="a_edge2_Node000001_Node000003"><a xlink:title=" ">
<path fill="none" stroke="#63b8ff" d="M148.45,-46.5C170.67,-46.5 197.66,-46.5 224.91,-46.5"/>
<polygon fill="#63b8ff" stroke="#63b8ff" points="148.26,-43 138.26,-46.5 148.26,-50 148.26,-43"/>
</a>
</g>
</g>
<!-- Node4 -->
<g id="Node000004" class="node">
<title>Node4</title>
<g id="a_Node000004"><a xlink:title=" ">
<polygon fill="white" stroke="#bfbfbf" points="161.5,-19 27.5,-19 27.5,0 161.5,0 161.5,-19"/>
<text text-anchor="middle" x="94.5" y="-7" font-family="Helvetica,sans-Serif" font-size="10.00">java.util.RandomAccess</text>
</a>
</g>
</g>
<!-- Node4&#45;&gt;Node1 -->
<g id="edge3_Node000001_Node000004" class="edge">
<title>Node4&#45;&gt;Node1</title>
<g id="a_edge3_Node000001_Node000004"><a xlink:title=" ">
<path fill="none" stroke="#63b8ff" d="M171.82,-20.04C197.61,-23.6 226.93,-27.64 254.74,-31.48"/>
<polygon fill="#63b8ff" stroke="#63b8ff" points="172.13,-16.55 161.75,-18.65 171.17,-23.48 172.13,-16.55"/>
</a>
</g>
</g>
</g>
</svg>
