<?xml version="1.0" encoding="UTF-8" standalone="no"?>
<!DOCTYPE svg PUBLIC "-//W3C//DTD SVG 1.1//EN"
 "http://www.w3.org/Graphics/SVG/1.1/DTD/svg11.dtd">
<!-- Generated by graphviz version 2.43.0 (0)
 -->
<!-- Title: fiftyone.ipintelligence.engine.onpremise.interop.swig.WeightedDoubleListSwig Pages: 1 -->
<svg width="493pt" height="113pt"
 viewBox="0.00 0.00 493.00 112.50" xmlns="http://www.w3.org/2000/svg" xmlns:xlink="http://www.w3.org/1999/xlink">
<g id="graph0" class="graph" transform="scale(1 1) rotate(0) translate(4 108.5)">
<title>fiftyone.ipintelligence.engine.onpremise.interop.swig.WeightedDoubleListSwig</title>
<!-- Node1 -->
<g id="Node000001" class="node">
<title>Node1</title>
<g id="a_Node000001"><a xlink:title=" ">
<polygon fill="#999999" stroke="#666666" points="485,-61.5 206,-61.5 206,-31.5 485,-31.5 485,-61.5"/>
<text text-anchor="start" x="214" y="-49.5" font-family="Helvetica,sans-Serif" font-size="10.00">fiftyone.ipintelligence.engine.onpremise.interop.swig.</text>
<text text-anchor="middle" x="345.5" y="-38.5" font-family="Helvetica,sans-Serif" font-size="10.00">WeightedDoubleListSwig</text>
</a>
</g>
</g>
<!-- Node2 -->
<g id="Node000002" class="node">
<title>Node2</title>
<g id="a_Node000002"><a xlink:title=" ">
<polygon fill="white" stroke="#bfbfbf" points="170,-104.5 0,-104.5 0,-74.5 170,-74.5 170,-104.5"/>
<text text-anchor="start" x="8" y="-92.5" font-family="Helvetica,sans-Serif" font-size="10.00">java.util.AbstractList</text>
<text text-anchor="middle" x="85" y="-81.5" font-family="Helvetica,sans-Serif" font-size="10.00">&lt; WeightedValueDoubleSwig &gt;</text>
</a>
</g>
</g>
<!-- Node2&#45;&gt;Node1 -->
<g id="edge1_Node000001_Node000002" class="edge">
<title>Node2&#45;&gt;Node1</title>
<g id="a_edge1_Node000001_Node000002"><a xlink:title=" ">
<path fill="none" stroke="#63b8ff" d="M180.47,-73.79C204.5,-69.79 230.27,-65.5 254.09,-61.54"/>
<polygon fill="#63b8ff" stroke="#63b8ff" points="179.57,-70.39 170.28,-75.48 180.72,-77.29 179.57,-70.39"/>
</a>
</g>
</g>
<!-- Node3 -->
<g id="Node000003" class="node">
<title>Node3</title>
<g id="a_Node000003"><a xlink:title=" ">
<polygon fill="white" stroke="#bfbfbf" points="128.5,-56 41.5,-56 41.5,-37 128.5,-37 128.5,-56"/>
<text text-anchor="middle" x="85" y="-44" font-family="Helvetica,sans-Serif" font-size="10.00">AutoCloseable</text>
</a>
</g>
</g>
<!-- Node3&#45;&gt;Node1 -->
<g id="edge2_Node000001_Node000003" class="edge">
<title>Node3&#45;&gt;Node1</title>
<g id="a_edge2_Node000001_Node000003"><a xlink:title=" ">
<path fill="none" stroke="#63b8ff" d="M138.95,-46.5C158.67,-46.5 182.09,-46.5 205.94,-46.5"/>
<polygon fill="#63b8ff" stroke="#63b8ff" points="138.69,-43 128.69,-46.5 138.69,-50 138.69,-43"/>
</a>
</g>
</g>
<!-- Node4 -->
<g id="Node000004" class="node">
<title>Node4</title>
<g id="a_Node000004"><a xlink:title=" ">
<polygon fill="white" stroke="#bfbfbf" points="152,-19 18,-19 18,0 152,0 152,-19"/>
<text text-anchor="middle" x="85" y="-7" font-family="Helvetica,sans-Serif" font-size="10.00">java.util.RandomAccess</text>
</a>
</g>
</g>
<!-- Node4&#45;&gt;Node1 -->
<g id="edge3_Node000001_Node000004" class="edge">
<title>Node4&#45;&gt;Node1</title>
<g id="a_edge3_Node000001_Node000004"><a xlink:title=" ">
<path fill="none" stroke="#63b8ff" d="M162.37,-20.43C186.47,-23.88 213.54,-27.76 239.29,-31.44"/>
<polygon fill="#63b8ff" stroke="#63b8ff" points="162.63,-16.93 152.23,-18.98 161.64,-23.86 162.63,-16.93"/>
</a>
</g>
</g>
</g>
</svg>
