<?xml version="1.0" encoding="UTF-8" standalone="no"?>
<!DOCTYPE svg PUBLIC "-//W3C//DTD SVG 1.1//EN"
 "http://www.w3.org/Graphics/SVG/1.1/DTD/svg11.dtd">
<!-- Generated by graphviz version 2.43.0 (0)
 -->
<!-- Title: fiftyone.ipintelligence.engine.onpremise.interop.swig.WeightedStringListSwig Pages: 1 -->
<svg width="487pt" height="113pt"
 viewBox="0.00 0.00 487.00 112.50" xmlns="http://www.w3.org/2000/svg" xmlns:xlink="http://www.w3.org/1999/xlink">
<g id="graph0" class="graph" transform="scale(1 1) rotate(0) translate(4 108.5)">
<title>fiftyone.ipintelligence.engine.onpremise.interop.swig.WeightedStringListSwig</title>
<!-- Node1 -->
<g id="Node000001" class="node">
<title>Node1</title>
<g id="a_Node000001"><a xlink:title=" ">
<polygon fill="#999999" stroke="#666666" points="479,-61.5 200,-61.5 200,-31.5 479,-31.5 479,-61.5"/>
<text text-anchor="start" x="208" y="-49.5" font-family="Helvetica,sans-Serif" font-size="10.00">fiftyone.ipintelligence.engine.onpremise.interop.swig.</text>
<text text-anchor="middle" x="339.5" y="-38.5" font-family="Helvetica,sans-Serif" font-size="10.00">WeightedStringListSwig</text>
</a>
</g>
</g>
<!-- Node2 -->
<g id="Node000002" class="node">
<title>Node2</title>
<g id="a_Node000002"><a xlink:title=" ">
<polygon fill="white" stroke="#bfbfbf" points="164,-104.5 0,-104.5 0,-74.5 164,-74.5 164,-104.5"/>
<text text-anchor="start" x="8" y="-92.5" font-family="Helvetica,sans-Serif" font-size="10.00">java.util.AbstractList</text>
<text text-anchor="middle" x="82" y="-81.5" font-family="Helvetica,sans-Serif" font-size="10.00">&lt; WeightedValueStringSwig &gt;</text>
</a>
</g>
</g>
<!-- Node2&#45;&gt;Node1 -->
<g id="edge1_Node000001_Node000002" class="edge">
<title>Node2&#45;&gt;Node1</title>
<g id="a_edge1_Node000001_Node000002"><a xlink:title=" ">
<path fill="none" stroke="#63b8ff" d="M174.14,-74.16C198.51,-70.06 224.82,-65.63 249.1,-61.55"/>
<polygon fill="#63b8ff" stroke="#63b8ff" points="173.47,-70.72 164.19,-75.84 174.64,-77.63 173.47,-70.72"/>
</a>
</g>
</g>
<!-- Node3 -->
<g id="Node000003" class="node">
<title>Node3</title>
<g id="a_Node000003"><a xlink:title=" ">
<polygon fill="white" stroke="#bfbfbf" points="125.5,-56 38.5,-56 38.5,-37 125.5,-37 125.5,-56"/>
<text text-anchor="middle" x="82" y="-44" font-family="Helvetica,sans-Serif" font-size="10.00">AutoCloseable</text>
</a>
</g>
</g>
<!-- Node3&#45;&gt;Node1 -->
<g id="edge2_Node000001_Node000003" class="edge">
<title>Node3&#45;&gt;Node1</title>
<g id="a_edge2_Node000001_Node000003"><a xlink:title=" ">
<path fill="none" stroke="#63b8ff" d="M135.91,-46.5C154.82,-46.5 177.11,-46.5 199.87,-46.5"/>
<polygon fill="#63b8ff" stroke="#63b8ff" points="135.76,-43 125.76,-46.5 135.76,-50 135.76,-43"/>
</a>
</g>
</g>
<!-- Node4 -->
<g id="Node000004" class="node">
<title>Node4</title>
<g id="a_Node000004"><a xlink:title=" ">
<polygon fill="white" stroke="#bfbfbf" points="149,-19 15,-19 15,0 149,0 149,-19"/>
<text text-anchor="middle" x="82" y="-7" font-family="Helvetica,sans-Serif" font-size="10.00">java.util.RandomAccess</text>
</a>
</g>
</g>
<!-- Node4&#45;&gt;Node1 -->
<g id="edge3_Node000001_Node000004" class="edge">
<title>Node4&#45;&gt;Node1</title>
<g id="a_edge3_Node000001_Node000004"><a xlink:title=" ">
<path fill="none" stroke="#63b8ff" d="M158.81,-20.48C182.63,-23.93 209.34,-27.8 234.75,-31.48"/>
<polygon fill="#63b8ff" stroke="#63b8ff" points="159.2,-17 148.8,-19.03 158.19,-23.93 159.2,-17"/>
</a>
</g>
</g>
</g>
</svg>
