<?xml version="1.0" encoding="UTF-8" standalone="no"?>
<!DOCTYPE svg PUBLIC "-//W3C//DTD SVG 1.1//EN"
 "http://www.w3.org/Graphics/SVG/1.1/DTD/svg11.dtd">
<!-- Generated by graphviz version 2.43.0 (0)
 -->
<!-- Title: fiftyone.ipintelligence.engine.onpremise.interop.swig.VectorStringSwig Pages: 1 -->
<svg width="383pt" height="104pt"
 viewBox="0.00 0.00 382.50 104.00" xmlns="http://www.w3.org/2000/svg" xmlns:xlink="http://www.w3.org/1999/xlink">
<g id="graph0" class="graph" transform="scale(1 1) rotate(0) translate(4 100)">
<title>fiftyone.ipintelligence.engine.onpremise.interop.swig.VectorStringSwig</title>
<!-- Node1 -->
<g id="Node000001" class="node">
<title>Node1</title>
<g id="a_Node000001"><a xlink:title=" ">
<polygon fill="#999999" stroke="#666666" points="318,-30 39,-30 39,0 318,0 318,-30"/>
<text text-anchor="start" x="47" y="-18" font-family="Helvetica,sans-Serif" font-size="10.00">fiftyone.ipintelligence.engine.onpremise.interop.swig.</text>
<text text-anchor="middle" x="178.5" y="-7" font-family="Helvetica,sans-Serif" font-size="10.00">VectorStringSwig</text>
</a>
</g>
</g>
<!-- Node2 -->
<g id="Node000002" class="node">
<title>Node2</title>
<g id="a_Node000002"><a xlink:title=" ">
<polygon fill="white" stroke="#bfbfbf" points="117,-96 0,-96 0,-66 117,-66 117,-96"/>
<text text-anchor="start" x="8" y="-84" font-family="Helvetica,sans-Serif" font-size="10.00">java.util.AbstractList</text>
<text text-anchor="middle" x="58.5" y="-73" font-family="Helvetica,sans-Serif" font-size="10.00">&lt; String &gt;</text>
</a>
</g>
</g>
<!-- Node2&#45;&gt;Node1 -->
<g id="edge1_Node000001_Node000002" class="edge">
<title>Node2&#45;&gt;Node1</title>
<g id="a_edge1_Node000001_Node000002"><a xlink:title=" ">
<path fill="none" stroke="#63b8ff" d="M93.67,-61.24C112.4,-51.25 135.05,-39.18 152.23,-30.01"/>
<polygon fill="#63b8ff" stroke="#63b8ff" points="92.01,-58.16 84.83,-65.95 95.31,-64.34 92.01,-58.16"/>
</a>
</g>
</g>
<!-- Node3 -->
<g id="Node000003" class="node">
<title>Node3</title>
<g id="a_Node000003"><a xlink:title=" ">
<polygon fill="white" stroke="#bfbfbf" points="222,-90.5 135,-90.5 135,-71.5 222,-71.5 222,-90.5"/>
<text text-anchor="middle" x="178.5" y="-78.5" font-family="Helvetica,sans-Serif" font-size="10.00">AutoCloseable</text>
</a>
</g>
</g>
<!-- Node3&#45;&gt;Node1 -->
<g id="edge2_Node000001_Node000003" class="edge">
<title>Node3&#45;&gt;Node1</title>
<g id="a_edge2_Node000001_Node000003"><a xlink:title=" ">
<path fill="none" stroke="#63b8ff" d="M178.5,-61.35C178.5,-51.47 178.5,-39.51 178.5,-30.36"/>
<polygon fill="#63b8ff" stroke="#63b8ff" points="175,-61.37 178.5,-71.37 182,-61.37 175,-61.37"/>
</a>
</g>
</g>
<!-- Node4 -->
<g id="Node000004" class="node">
<title>Node4</title>
<g id="a_Node000004"><a xlink:title=" ">
<polygon fill="white" stroke="#bfbfbf" points="374.5,-90.5 240.5,-90.5 240.5,-71.5 374.5,-71.5 374.5,-90.5"/>
<text text-anchor="middle" x="307.5" y="-78.5" font-family="Helvetica,sans-Serif" font-size="10.00">java.util.RandomAccess</text>
</a>
</g>
</g>
<!-- Node4&#45;&gt;Node1 -->
<g id="edge3_Node000001_Node000004" class="edge">
<title>Node4&#45;&gt;Node1</title>
<g id="a_edge3_Node000001_Node000004"><a xlink:title=" ">
<path fill="none" stroke="#63b8ff" d="M280.87,-66.79C259.3,-56.09 228.99,-41.05 206.95,-30.12"/>
<polygon fill="#63b8ff" stroke="#63b8ff" points="279.59,-70.06 290.1,-71.37 282.7,-63.79 279.59,-70.06"/>
</a>
</g>
</g>
</g>
</svg>
