<?xml version="1.0" encoding="UTF-8" standalone="no"?>
<!DOCTYPE svg PUBLIC "-//W3C//DTD SVG 1.1//EN"
 "http://www.w3.org/Graphics/SVG/1.1/DTD/svg11.dtd">
<!-- Generated by graphviz version 2.43.0 (0)
 -->
<!-- Title: fiftyone.ipintelligence.engine.onpremise.interop.swig.WeightedBoolListSwig Pages: 1 -->
<svg width="480pt" height="113pt"
 viewBox="0.00 0.00 480.00 112.50" xmlns="http://www.w3.org/2000/svg" xmlns:xlink="http://www.w3.org/1999/xlink">
<g id="graph0" class="graph" transform="scale(1 1) rotate(0) translate(4 108.5)">
<title>fiftyone.ipintelligence.engine.onpremise.interop.swig.WeightedBoolListSwig</title>
<!-- Node1 -->
<g id="Node000001" class="node">
<title>Node1</title>
<g id="a_Node000001"><a xlink:title=" ">
<polygon fill="#999999" stroke="#666666" points="472,-61.5 193,-61.5 193,-31.5 472,-31.5 472,-61.5"/>
<text text-anchor="start" x="201" y="-49.5" font-family="Helvetica,sans-Serif" font-size="10.00">fiftyone.ipintelligence.engine.onpremise.interop.swig.</text>
<text text-anchor="middle" x="332.5" y="-38.5" font-family="Helvetica,sans-Serif" font-size="10.00">WeightedBoolListSwig</text>
</a>
</g>
</g>
<!-- Node2 -->
<g id="Node000002" class="node">
<title>Node2</title>
<g id="a_Node000002"><a xlink:title=" ">
<polygon fill="white" stroke="#bfbfbf" points="157,-104.5 0,-104.5 0,-74.5 157,-74.5 157,-104.5"/>
<text text-anchor="start" x="8" y="-92.5" font-family="Helvetica,sans-Serif" font-size="10.00">java.util.AbstractList</text>
<text text-anchor="middle" x="78.5" y="-81.5" font-family="Helvetica,sans-Serif" font-size="10.00">&lt; WeightedValueBoolSwig &gt;</text>
</a>
</g>
</g>
<!-- Node2&#45;&gt;Node1 -->
<g id="edge1_Node000001_Node000002" class="edge">
<title>Node2&#45;&gt;Node1</title>
<g id="a_edge1_Node000001_Node000002"><a xlink:title=" ">
<path fill="none" stroke="#63b8ff" d="M167.24,-74.53C191.94,-70.31 218.81,-65.73 243.53,-61.51"/>
<polygon fill="#63b8ff" stroke="#63b8ff" points="166.43,-71.12 157.16,-76.25 167.61,-78.02 166.43,-71.12"/>
</a>
</g>
</g>
<!-- Node3 -->
<g id="Node000003" class="node">
<title>Node3</title>
<g id="a_Node000003"><a xlink:title=" ">
<polygon fill="white" stroke="#bfbfbf" points="122,-56 35,-56 35,-37 122,-37 122,-56"/>
<text text-anchor="middle" x="78.5" y="-44" font-family="Helvetica,sans-Serif" font-size="10.00">AutoCloseable</text>
</a>
</g>
</g>
<!-- Node3&#45;&gt;Node1 -->
<g id="edge2_Node000001_Node000003" class="edge">
<title>Node3&#45;&gt;Node1</title>
<g id="a_edge2_Node000001_Node000003"><a xlink:title=" ">
<path fill="none" stroke="#63b8ff" d="M132.45,-46.5C150.4,-46.5 171.38,-46.5 192.85,-46.5"/>
<polygon fill="#63b8ff" stroke="#63b8ff" points="132.25,-43 122.25,-46.5 132.25,-50 132.25,-43"/>
</a>
</g>
</g>
<!-- Node4 -->
<g id="Node000004" class="node">
<title>Node4</title>
<g id="a_Node000004"><a xlink:title=" ">
<polygon fill="white" stroke="#bfbfbf" points="145.5,-19 11.5,-19 11.5,0 145.5,0 145.5,-19"/>
<text text-anchor="middle" x="78.5" y="-7" font-family="Helvetica,sans-Serif" font-size="10.00">java.util.RandomAccess</text>
</a>
</g>
</g>
<!-- Node4&#45;&gt;Node1 -->
<g id="edge3_Node000001_Node000004" class="edge">
<title>Node4&#45;&gt;Node1</title>
<g id="a_edge3_Node000001_Node000004"><a xlink:title=" ">
<path fill="none" stroke="#63b8ff" d="M154.59,-20.53C178,-23.96 204.23,-27.81 229.17,-31.48"/>
<polygon fill="#63b8ff" stroke="#63b8ff" points="154.8,-17.02 144.4,-19.03 153.78,-23.94 154.8,-17.02"/>
</a>
</g>
</g>
</g>
</svg>
