<?xml version="1.0" encoding="UTF-8" standalone="no"?>
<!DOCTYPE svg PUBLIC "-//W3C//DTD SVG 1.1//EN"
 "http://www.w3.org/Graphics/SVG/1.1/DTD/svg11.dtd">
<!-- Generated by graphviz version 2.43.0 (0)
 -->
<!-- Title: fiftyone.ipintelligence.cloud.flowelements.IPIntelligenceDataCloudInternal Pages: 1 -->
<svg width="753pt" height="86pt"
 viewBox="0.00 0.00 753.00 86.00" xmlns="http://www.w3.org/2000/svg" xmlns:xlink="http://www.w3.org/1999/xlink">
<g id="graph0" class="graph" transform="scale(1 1) rotate(0) translate(4 82)">
<title>fiftyone.ipintelligence.cloud.flowelements.IPIntelligenceDataCloudInternal</title>
<!-- Node1 -->
<g id="Node000001" class="node">
<title>Node1</title>
<g id="a_Node000001"><a xlink:title="Internal implementation of the IPIntelligenceDataCloud interface.">
<polygon fill="#999999" stroke="#666666" points="745,-54 521,-54 521,-24 745,-24 745,-54"/>
<text text-anchor="start" x="529" y="-42" font-family="Helvetica,sans-Serif" font-size="10.00">fiftyone.ipintelligence.cloud.flowelements.</text>
<text text-anchor="middle" x="633" y="-31" font-family="Helvetica,sans-Serif" font-size="10.00">IPIntelligenceDataCloudInternal</text>
</a>
</g>
</g>
<!-- Node2 -->
<g id="Node000002" class="node">
<title>Node2</title>
<g id="a_Node000002"><a xlink:href="classfiftyone_1_1ipintelligence_1_1shared_1_1_i_p_intelligence_data_base.html" target="_top" xlink:title=" ">
<polygon fill="white" stroke="#bfbfbf" points="476,-78 315,-78 315,-48 476,-48 476,-78"/>
<text text-anchor="start" x="323" y="-66" font-family="Helvetica,sans-Serif" font-size="10.00">fiftyone.ipintelligence.shared.</text>
<text text-anchor="middle" x="395.5" y="-55" font-family="Helvetica,sans-Serif" font-size="10.00">IPIntelligenceDataBase</text>
</a>
</g>
</g>
<!-- Node2&#45;&gt;Node1 -->
<g id="edge1_Node000001_Node000002" class="edge">
<title>Node2&#45;&gt;Node1</title>
<g id="a_edge1_Node000001_Node000002"><a xlink:title=" ">
<path fill="none" stroke="#63b8ff" d="M486.39,-53.84C497.58,-52.7 509.13,-51.52 520.6,-50.35"/>
<polygon fill="#63b8ff" stroke="#63b8ff" points="485.82,-50.38 476.23,-54.87 486.53,-57.34 485.82,-50.38"/>
</a>
</g>
</g>
<!-- Node3 -->
<g id="Node000003" class="node">
<title>Node3</title>
<g id="a_Node000003"><a xlink:title=" ">
<polygon fill="white" stroke="#bfbfbf" points="238,-72.5 141,-72.5 141,-53.5 238,-53.5 238,-72.5"/>
<text text-anchor="middle" x="189.5" y="-60.5" font-family="Helvetica,sans-Serif" font-size="10.00">AspectDataBase</text>
</a>
</g>
</g>
<!-- Node3&#45;&gt;Node2 -->
<g id="edge2_Node000002_Node000003" class="edge">
<title>Node3&#45;&gt;Node2</title>
<g id="a_edge2_Node000002_Node000003"><a xlink:title=" ">
<path fill="none" stroke="#63b8ff" d="M248.28,-63C268.96,-63 292.65,-63 314.86,-63"/>
<polygon fill="#63b8ff" stroke="#63b8ff" points="248.07,-59.5 238.07,-63 248.07,-66.5 248.07,-59.5"/>
</a>
</g>
</g>
<!-- Node4 -->
<g id="Node000004" class="node">
<title>Node4</title>
<g id="a_Node000004"><a xlink:href="interfacefiftyone_1_1ipintelligence_1_1shared_1_1_i_p_intelligence_data.html" target="_top" xlink:title="Interface exposing typed accessors for properties related to an IP.">
<polygon fill="white" stroke="#666666" points="270,-33 109,-33 109,-3 270,-3 270,-33"/>
<text text-anchor="start" x="117" y="-21" font-family="Helvetica,sans-Serif" font-size="10.00">fiftyone.ipintelligence.shared.</text>
<text text-anchor="middle" x="189.5" y="-10" font-family="Helvetica,sans-Serif" font-size="10.00">IPIntelligenceData</text>
</a>
</g>
</g>
<!-- Node4&#45;&gt;Node2 -->
<g id="edge3_Node000002_Node000004" class="edge">
<title>Node4&#45;&gt;Node2</title>
<g id="a_edge3_Node000002_Node000004"><a xlink:title=" ">
<path fill="none" stroke="#63b8ff" d="M268.55,-35.22C287.59,-39.42 307.81,-43.88 326.35,-47.97"/>
<polygon fill="#63b8ff" stroke="#63b8ff" points="269.23,-31.78 258.71,-33.05 267.72,-38.62 269.23,-31.78"/>
</a>
</g>
</g>
<!-- Node6 -->
<g id="Node000006" class="node">
<title>Node6</title>
<g id="a_Node000006"><a xlink:href="interfacefiftyone_1_1ipintelligence_1_1cloud_1_1data_1_1_i_p_intelligence_data_cloud.html" target="_top" xlink:title="Cloud specific interface for IPIntelligenceData.">
<polygon fill="white" stroke="#666666" points="485,-30 306,-30 306,0 485,0 485,-30"/>
<text text-anchor="start" x="314" y="-18" font-family="Helvetica,sans-Serif" font-size="10.00">fiftyone.ipintelligence.cloud.data.</text>
<text text-anchor="middle" x="395.5" y="-7" font-family="Helvetica,sans-Serif" font-size="10.00">IPIntelligenceDataCloud</text>
</a>
</g>
</g>
<!-- Node4&#45;&gt;Node6 -->
<g id="edge6_Node000006_Node000004" class="edge">
<title>Node4&#45;&gt;Node6</title>
<g id="a_edge6_Node000006_Node000004"><a xlink:title=" ">
<path fill="none" stroke="#63b8ff" d="M280.41,-16.68C288.8,-16.55 297.3,-16.43 305.69,-16.31"/>
<polygon fill="#63b8ff" stroke="#63b8ff" points="280.2,-13.18 270.25,-16.83 280.3,-20.18 280.2,-13.18"/>
</a>
</g>
</g>
<!-- Node5 -->
<g id="Node000005" class="node">
<title>Node5</title>
<g id="a_Node000005"><a xlink:title=" ">
<polygon fill="white" stroke="#bfbfbf" points="73,-27.5 0,-27.5 0,-8.5 73,-8.5 73,-27.5"/>
<text text-anchor="middle" x="36.5" y="-15.5" font-family="Helvetica,sans-Serif" font-size="10.00">AspectData</text>
</a>
</g>
</g>
<!-- Node5&#45;&gt;Node4 -->
<g id="edge4_Node000004_Node000005" class="edge">
<title>Node5&#45;&gt;Node4</title>
<g id="a_edge4_Node000004_Node000005"><a xlink:title=" ">
<path fill="none" stroke="#63b8ff" d="M83.55,-18C91.63,-18 100.24,-18 108.92,-18"/>
<polygon fill="#63b8ff" stroke="#63b8ff" points="83.28,-14.5 73.28,-18 83.28,-21.5 83.28,-14.5"/>
</a>
</g>
</g>
<!-- Node6&#45;&gt;Node1 -->
<g id="edge5_Node000001_Node000006" class="edge">
<title>Node6&#45;&gt;Node1</title>
<g id="a_edge5_Node000001_Node000006"><a xlink:title=" ">
<path fill="none" stroke="#63b8ff" d="M495.35,-25.07C503.73,-25.93 512.25,-26.8 520.72,-27.66"/>
<polygon fill="#63b8ff" stroke="#63b8ff" points="495.5,-21.57 485.2,-24.04 494.79,-28.54 495.5,-21.57"/>
</a>
</g>
</g>
</g>
</svg>
