<?xml version="1.0" encoding="UTF-8" standalone="no"?>
<!DOCTYPE svg PUBLIC "-//W3C//DTD SVG 1.1//EN"
 "http://www.w3.org/Graphics/SVG/1.1/DTD/svg11.dtd">
<!-- Generated by graphviz version 2.43.0 (0)
 -->
<!-- Title: fiftyone.ipintelligence.shared.IPIntelligenceDataBaseOnPremise Pages: 1 -->
<svg width="1015pt" height="76pt"
 viewBox="0.00 0.00 1015.00 75.50" xmlns="http://www.w3.org/2000/svg" xmlns:xlink="http://www.w3.org/1999/xlink">
<g id="graph0" class="graph" transform="scale(1 1) rotate(0) translate(4 71.5)">
<title>fiftyone.ipintelligence.shared.IPIntelligenceDataBaseOnPremise</title>
<!-- Node1 -->
<g id="Node000001" class="node">
<title>Node1</title>
<g id="a_Node000001"><a xlink:title="Base class used for all 51Degrees on&#45;premise IP Intelligence results classes.">
<polygon fill="#999999" stroke="#666666" points="686,-51 503,-51 503,-21 686,-21 686,-51"/>
<text text-anchor="start" x="511" y="-39" font-family="Helvetica,sans-Serif" font-size="10.00">fiftyone.ipintelligence.shared.</text>
<text text-anchor="middle" x="594.5" y="-28" font-family="Helvetica,sans-Serif" font-size="10.00">IPIntelligenceDataBaseOnPremise</text>
</a>
</g>
</g>
<!-- Node6 -->
<g id="Node000006" class="node">
<title>Node6</title>
<g id="a_Node000006"><a xlink:href="classfiftyone_1_1ipintelligence_1_1engine_1_1onpremise_1_1flowelements_1_1_i_p_intelligence_data_hash_default.html" target="_top" xlink:title="Internal implementation of the IPIntelligenceDataHash interface.">
<polygon fill="white" stroke="#666666" points="1007,-51 722,-51 722,-21 1007,-21 1007,-51"/>
<text text-anchor="start" x="730" y="-39" font-family="Helvetica,sans-Serif" font-size="10.00">fiftyone.ipintelligence.engine.onpremise.flowelements.</text>
<text text-anchor="middle" x="864.5" y="-28" font-family="Helvetica,sans-Serif" font-size="10.00">IPIntelligenceDataHashDefault</text>
</a>
</g>
</g>
<!-- Node1&#45;&gt;Node6 -->
<g id="edge5_Node000001_Node000006" class="edge">
<title>Node1&#45;&gt;Node6</title>
<g id="a_edge5_Node000001_Node000006"><a xlink:title=" ">
<path fill="none" stroke="#63b8ff" d="M696.35,-36C704.73,-36 713.29,-36 721.9,-36"/>
<polygon fill="#63b8ff" stroke="#63b8ff" points="696.23,-32.5 686.23,-36 696.23,-39.5 696.23,-32.5"/>
</a>
</g>
</g>
<!-- Node2 -->
<g id="Node000002" class="node">
<title>Node2</title>
<g id="a_Node000002"><a xlink:href="classfiftyone_1_1ipintelligence_1_1shared_1_1_i_p_intelligence_data_base.html" target="_top" xlink:title=" ">
<polygon fill="white" stroke="#bfbfbf" points="467,-51 306,-51 306,-21 467,-21 467,-51"/>
<text text-anchor="start" x="314" y="-39" font-family="Helvetica,sans-Serif" font-size="10.00">fiftyone.ipintelligence.shared.</text>
<text text-anchor="middle" x="386.5" y="-28" font-family="Helvetica,sans-Serif" font-size="10.00">IPIntelligenceDataBase</text>
</a>
</g>
</g>
<!-- Node2&#45;&gt;Node1 -->
<g id="edge1_Node000001_Node000002" class="edge">
<title>Node2&#45;&gt;Node1</title>
<g id="a_edge1_Node000001_Node000002"><a xlink:title=" ">
<path fill="none" stroke="#63b8ff" d="M477.35,-36C485.77,-36 494.32,-36 502.75,-36"/>
<polygon fill="#63b8ff" stroke="#63b8ff" points="477.15,-32.5 467.14,-36 477.14,-39.5 477.15,-32.5"/>
</a>
</g>
</g>
<!-- Node3 -->
<g id="Node000003" class="node">
<title>Node3</title>
<g id="a_Node000003"><a xlink:title=" ">
<polygon fill="white" stroke="#bfbfbf" points="238,-67.5 141,-67.5 141,-48.5 238,-48.5 238,-67.5"/>
<text text-anchor="middle" x="189.5" y="-55.5" font-family="Helvetica,sans-Serif" font-size="10.00">AspectDataBase</text>
</a>
</g>
</g>
<!-- Node3&#45;&gt;Node2 -->
<g id="edge2_Node000002_Node000003" class="edge">
<title>Node3&#45;&gt;Node2</title>
<g id="a_edge2_Node000002_Node000003"><a xlink:title=" ">
<path fill="none" stroke="#63b8ff" d="M248.23,-51.49C266.22,-49.46 286.39,-47.18 305.62,-45.01"/>
<polygon fill="#63b8ff" stroke="#63b8ff" points="247.75,-48.02 238.2,-52.62 248.53,-54.97 247.75,-48.02"/>
</a>
</g>
</g>
<!-- Node4 -->
<g id="Node000004" class="node">
<title>Node4</title>
<g id="a_Node000004"><a xlink:href="interfacefiftyone_1_1ipintelligence_1_1shared_1_1_i_p_intelligence_data.html" target="_top" xlink:title="Interface exposing typed accessors for properties related to an IP.">
<polygon fill="white" stroke="#666666" points="270,-30 109,-30 109,0 270,0 270,-30"/>
<text text-anchor="start" x="117" y="-18" font-family="Helvetica,sans-Serif" font-size="10.00">fiftyone.ipintelligence.shared.</text>
<text text-anchor="middle" x="189.5" y="-7" font-family="Helvetica,sans-Serif" font-size="10.00">IPIntelligenceData</text>
</a>
</g>
</g>
<!-- Node4&#45;&gt;Node2 -->
<g id="edge3_Node000002_Node000004" class="edge">
<title>Node4&#45;&gt;Node2</title>
<g id="a_edge3_Node000002_Node000004"><a xlink:title=" ">
<path fill="none" stroke="#63b8ff" d="M280.12,-24.65C288.7,-25.58 297.36,-26.51 305.84,-27.42"/>
<polygon fill="#63b8ff" stroke="#63b8ff" points="280.41,-21.16 270.1,-23.57 279.66,-28.12 280.41,-21.16"/>
</a>
</g>
</g>
<!-- Node5 -->
<g id="Node000005" class="node">
<title>Node5</title>
<g id="a_Node000005"><a xlink:title=" ">
<polygon fill="white" stroke="#bfbfbf" points="73,-24.5 0,-24.5 0,-5.5 73,-5.5 73,-24.5"/>
<text text-anchor="middle" x="36.5" y="-12.5" font-family="Helvetica,sans-Serif" font-size="10.00">AspectData</text>
</a>
</g>
</g>
<!-- Node5&#45;&gt;Node4 -->
<g id="edge4_Node000004_Node000005" class="edge">
<title>Node5&#45;&gt;Node4</title>
<g id="a_edge4_Node000004_Node000005"><a xlink:title=" ">
<path fill="none" stroke="#63b8ff" d="M83.55,-15C91.63,-15 100.24,-15 108.92,-15"/>
<polygon fill="#63b8ff" stroke="#63b8ff" points="83.28,-11.5 73.28,-15 83.28,-18.5 83.28,-11.5"/>
</a>
</g>
</g>
</g>
</svg>
