<?xml version="1.0" encoding="UTF-8" standalone="no"?>
<!DOCTYPE svg PUBLIC "-//W3C//DTD SVG 1.1//EN"
 "http://www.w3.org/Graphics/SVG/1.1/DTD/svg11.dtd">
<!-- Generated by graphviz version 2.43.0 (0)
 -->
<!-- Title: fiftyone_pipeline_engines.tracker.Tracker Pages: 1 -->
<svg width="203pt" height="236pt"
 viewBox="0.00 0.00 203.00 236.00" xmlns="http://www.w3.org/2000/svg" xmlns:xlink="http://www.w3.org/1999/xlink">
<g id="graph0" class="graph" transform="scale(1 1) rotate(0) translate(4 232)">
<title>fiftyone_pipeline_engines.tracker.Tracker</title>
<!-- Node1 -->
<g id="Node000001" class="node">
<title>Node1</title>
<g id="a_Node000001"><a xlink:title="A tracker is an instance of datakeyed cache which, if a result is found in the cache,...">
<polygon fill="#999999" stroke="#666666" points="187.5,-107 7.5,-107 7.5,-77 187.5,-77 187.5,-107"/>
<text text-anchor="start" x="15.5" y="-95" font-family="Helvetica,sans-Serif" font-size="10.00">fiftyone_pipeline_engines.tracker.</text>
<text text-anchor="middle" x="97.5" y="-84" font-family="Helvetica,sans-Serif" font-size="10.00">Tracker</text>
</a>
</g>
</g>
<!-- Node4 -->
<g id="Node000004" class="node">
<title>Node4</title>
<g id="a_Node000004"><a xlink:href="classfiftyone__pipeline__engines__fiftyone_1_1share__usage__tracker_1_1_share_usage_tracker.html" target="_top" xlink:title="The ShareUsageTracker is used by the ShareUsageElement to determine whether to put evidence into a bu...">
<polygon fill="white" stroke="#666666" points="179.5,-41 15.5,-41 15.5,0 179.5,0 179.5,-41"/>
<text text-anchor="start" x="23.5" y="-29" font-family="Helvetica,sans-Serif" font-size="10.00">fiftyone_pipeline_engines</text>
<text text-anchor="start" x="23.5" y="-18" font-family="Helvetica,sans-Serif" font-size="10.00">_fiftyone.share_usage_tracker.</text>
<text text-anchor="middle" x="97.5" y="-7" font-family="Helvetica,sans-Serif" font-size="10.00">ShareUsageTracker</text>
</a>
</g>
</g>
<!-- Node1&#45;&gt;Node4 -->
<g id="edge3_Node000001_Node000004" class="edge">
<title>Node1&#45;&gt;Node4</title>
<g id="a_edge3_Node000001_Node000004"><a xlink:title=" ">
<path fill="none" stroke="#63b8ff" d="M97.5,-66.91C97.5,-58.47 97.5,-49.1 97.5,-41.07"/>
<polygon fill="#63b8ff" stroke="#63b8ff" points="94,-66.94 97.5,-76.94 101,-66.94 94,-66.94"/>
</a>
</g>
</g>
<!-- Node2 -->
<g id="Node000002" class="node">
<title>Node2</title>
<g id="a_Node000002"><a xlink:href="classfiftyone__pipeline__engines_1_1datakeyed__cache_1_1_data_keyed_cache.html" target="_top" xlink:title="A data keyed cache is the base class for caches used in the pipeline It does nothing on its own and s...">
<polygon fill="white" stroke="#666666" points="195,-173 0,-173 0,-143 195,-143 195,-173"/>
<text text-anchor="start" x="8" y="-161" font-family="Helvetica,sans-Serif" font-size="10.00">fiftyone_pipeline_engines.datakeyed</text>
<text text-anchor="middle" x="97.5" y="-150" font-family="Helvetica,sans-Serif" font-size="10.00">_cache.DataKeyedCache</text>
</a>
</g>
</g>
<!-- Node2&#45;&gt;Node1 -->
<g id="edge1_Node000001_Node000002" class="edge">
<title>Node2&#45;&gt;Node1</title>
<g id="a_edge1_Node000001_Node000002"><a xlink:title=" ">
<path fill="none" stroke="#63b8ff" d="M97.5,-132.54C97.5,-123.96 97.5,-114.61 97.5,-107.16"/>
<polygon fill="#63b8ff" stroke="#63b8ff" points="94,-132.8 97.5,-142.8 101,-132.8 94,-132.8"/>
</a>
</g>
</g>
<!-- Node3 -->
<g id="Node000003" class="node">
<title>Node3</title>
<g id="a_Node000003"><a xlink:title=" ">
<polygon fill="white" stroke="#666666" points="121,-228 74,-228 74,-209 121,-209 121,-228"/>
<text text-anchor="middle" x="97.5" y="-216" font-family="Helvetica,sans-Serif" font-size="10.00">object</text>
</a>
</g>
</g>
<!-- Node3&#45;&gt;Node2 -->
<g id="edge2_Node000002_Node000003" class="edge">
<title>Node3&#45;&gt;Node2</title>
<g id="a_edge2_Node000002_Node000003"><a xlink:title=" ">
<path fill="none" stroke="#63b8ff" d="M97.5,-198.65C97.5,-190.36 97.5,-180.78 97.5,-173.11"/>
<polygon fill="#63b8ff" stroke="#63b8ff" points="94,-198.87 97.5,-208.87 101,-198.87 94,-198.87"/>
</a>
</g>
</g>
</g>
</svg>
