<?xml version="1.0" encoding="UTF-8" standalone="no"?>
<!DOCTYPE svg PUBLIC "-//W3C//DTD SVG 1.1//EN"
 "http://www.w3.org/Graphics/SVG/1.1/DTD/svg11.dtd">
<!-- Generated by graphviz version 2.43.0 (0)
 -->
<!-- Title: fiftyone_pipeline_engines.aspectdata.AspectData Pages: 1 -->
<svg width="261pt" height="291pt"
 viewBox="0.00 0.00 261.00 291.00" xmlns="http://www.w3.org/2000/svg" xmlns:xlink="http://www.w3.org/1999/xlink">
<g id="graph0" class="graph" transform="scale(1 1) rotate(0) translate(4 287)">
<title>fiftyone_pipeline_engines.aspectdata.AspectData</title>
<!-- Node1 -->
<g id="Node000001" class="node">
<title>Node1</title>
<g id="a_Node000001"><a xlink:title="AspectData extends elementData by adding the option of a missing property service It also allows prop...">
<polygon fill="#999999" stroke="#666666" points="227,-162 26,-162 26,-132 227,-132 227,-162"/>
<text text-anchor="start" x="34" y="-150" font-family="Helvetica,sans-Serif" font-size="10.00">fiftyone_pipeline_engines.aspectdata.</text>
<text text-anchor="middle" x="126.5" y="-139" font-family="Helvetica,sans-Serif" font-size="10.00">AspectData</text>
</a>
</g>
</g>
<!-- Node4 -->
<g id="Node000004" class="node">
<title>Node4</title>
<g id="a_Node000004"><a xlink:href="classfiftyone__pipeline__engines_1_1aspectdata__dictionary_1_1_aspect_data_dictionary.html" target="_top" xlink:title="AspectDataDictionary class extension that stores content as dictionary.">
<polygon fill="white" stroke="#666666" points="225.5,-96 27.5,-96 27.5,-66 225.5,-66 225.5,-96"/>
<text text-anchor="start" x="35.5" y="-84" font-family="Helvetica,sans-Serif" font-size="10.00">fiftyone_pipeline_engines.aspectdata</text>
<text text-anchor="middle" x="126.5" y="-73" font-family="Helvetica,sans-Serif" font-size="10.00">_dictionary.AspectDataDictionary</text>
</a>
</g>
</g>
<!-- Node1&#45;&gt;Node4 -->
<g id="edge3_Node000001_Node000004" class="edge">
<title>Node1&#45;&gt;Node4</title>
<g id="a_edge3_Node000001_Node000004"><a xlink:title=" ">
<path fill="none" stroke="#63b8ff" d="M126.5,-121.54C126.5,-112.96 126.5,-103.61 126.5,-96.16"/>
<polygon fill="#63b8ff" stroke="#63b8ff" points="123,-121.8 126.5,-131.8 130,-121.8 123,-121.8"/>
</a>
</g>
</g>
<!-- Node2 -->
<g id="Node000002" class="node">
<title>Node2</title>
<g id="a_Node000002"><a xlink:href="classfiftyone__pipeline__core_1_1elementdata_1_1_element_data.html" target="_top" xlink:title="Core ElementData class Stores information created by a FlowElement based on FlowData.">
<polygon fill="white" stroke="#666666" points="222.5,-228 30.5,-228 30.5,-198 222.5,-198 222.5,-228"/>
<text text-anchor="start" x="38.5" y="-216" font-family="Helvetica,sans-Serif" font-size="10.00">fiftyone_pipeline_core.elementdata.</text>
<text text-anchor="middle" x="126.5" y="-205" font-family="Helvetica,sans-Serif" font-size="10.00">ElementData</text>
</a>
</g>
</g>
<!-- Node2&#45;&gt;Node1 -->
<g id="edge1_Node000001_Node000002" class="edge">
<title>Node2&#45;&gt;Node1</title>
<g id="a_edge1_Node000001_Node000002"><a xlink:title=" ">
<path fill="none" stroke="#63b8ff" d="M126.5,-187.54C126.5,-178.96 126.5,-169.61 126.5,-162.16"/>
<polygon fill="#63b8ff" stroke="#63b8ff" points="123,-187.8 126.5,-197.8 130,-187.8 123,-187.8"/>
</a>
</g>
</g>
<!-- Node3 -->
<g id="Node000003" class="node">
<title>Node3</title>
<g id="a_Node000003"><a xlink:title=" ">
<polygon fill="white" stroke="#666666" points="150,-283 103,-283 103,-264 150,-264 150,-283"/>
<text text-anchor="middle" x="126.5" y="-271" font-family="Helvetica,sans-Serif" font-size="10.00">object</text>
</a>
</g>
</g>
<!-- Node3&#45;&gt;Node2 -->
<g id="edge2_Node000002_Node000003" class="edge">
<title>Node3&#45;&gt;Node2</title>
<g id="a_edge2_Node000002_Node000003"><a xlink:title=" ">
<path fill="none" stroke="#63b8ff" d="M126.5,-253.65C126.5,-245.36 126.5,-235.78 126.5,-228.11"/>
<polygon fill="#63b8ff" stroke="#63b8ff" points="123,-253.87 126.5,-263.87 130,-253.87 123,-253.87"/>
</a>
</g>
</g>
<!-- Node5 -->
<g id="Node000005" class="node">
<title>Node5</title>
<g id="a_Node000005"><a xlink:href="classfiftyone__pipeline__cloudrequestengine_1_1clouddata_1_1_cloud_data.html" target="_top" xlink:title="Extention of AspectData made for retrieving cloud engine results.">
<polygon fill="white" stroke="#666666" points="253,-30 0,-30 0,0 253,0 253,-30"/>
<text text-anchor="start" x="8" y="-18" font-family="Helvetica,sans-Serif" font-size="10.00">fiftyone_pipeline_cloudrequestengine.clouddata.</text>
<text text-anchor="middle" x="126.5" y="-7" font-family="Helvetica,sans-Serif" font-size="10.00">CloudData</text>
</a>
</g>
</g>
<!-- Node4&#45;&gt;Node5 -->
<g id="edge4_Node000004_Node000005" class="edge">
<title>Node4&#45;&gt;Node5</title>
<g id="a_edge4_Node000004_Node000005"><a xlink:title=" ">
<path fill="none" stroke="#63b8ff" d="M126.5,-55.54C126.5,-46.96 126.5,-37.61 126.5,-30.16"/>
<polygon fill="#63b8ff" stroke="#63b8ff" points="123,-55.8 126.5,-65.8 130,-55.8 123,-55.8"/>
</a>
</g>
</g>
</g>
</svg>
