<?xml version="1.0" encoding="UTF-8" standalone="no"?>
<!DOCTYPE svg PUBLIC "-//W3C//DTD SVG 1.1//EN"
 "http://www.w3.org/Graphics/SVG/1.1/DTD/svg11.dtd">
<!-- Generated by graphviz version 2.43.0 (0)
 -->
<!-- Title: fiftyone_pipeline_engines.basic_dictionary_cache.BasicDictionaryCache Pages: 1 -->
<svg width="222pt" height="159pt"
 viewBox="0.00 0.00 222.00 159.00" xmlns="http://www.w3.org/2000/svg" xmlns:xlink="http://www.w3.org/1999/xlink">
<g id="graph0" class="graph" transform="scale(1 1) rotate(0) translate(4 155)">
<title>fiftyone_pipeline_engines.basic_dictionary_cache.BasicDictionaryCache</title>
<!-- Node1 -->
<g id="Node000001" class="node">
<title>Node1</title>
<g id="a_Node000001"><a xlink:title="A simple cache that stores its results in a dictionary.">
<polygon fill="#999999" stroke="#666666" points="214,-30 0,-30 0,0 214,0 214,-30"/>
<text text-anchor="start" x="8" y="-18" font-family="Helvetica,sans-Serif" font-size="10.00">fiftyone_pipeline_engines.basic</text>
<text text-anchor="middle" x="107" y="-7" font-family="Helvetica,sans-Serif" font-size="10.00">_dictionary_cache.BasicDictionaryCache</text>
</a>
</g>
</g>
<!-- Node2 -->
<g id="Node000002" class="node">
<title>Node2</title>
<g id="a_Node000002"><a xlink:href="classfiftyone__pipeline__engines_1_1datakeyed__cache_1_1_data_keyed_cache.html" target="_top" xlink:title="A data keyed cache is the base class for caches used in the pipeline It does nothing on its own and s...">
<polygon fill="white" stroke="#666666" points="204.5,-96 9.5,-96 9.5,-66 204.5,-66 204.5,-96"/>
<text text-anchor="start" x="17.5" y="-84" font-family="Helvetica,sans-Serif" font-size="10.00">fiftyone_pipeline_engines.datakeyed</text>
<text text-anchor="middle" x="107" y="-73" font-family="Helvetica,sans-Serif" font-size="10.00">_cache.DataKeyedCache</text>
</a>
</g>
</g>
<!-- Node2&#45;&gt;Node1 -->
<g id="edge1_Node000001_Node000002" class="edge">
<title>Node2&#45;&gt;Node1</title>
<g id="a_edge1_Node000001_Node000002"><a xlink:title=" ">
<path fill="none" stroke="#63b8ff" d="M107,-55.54C107,-46.96 107,-37.61 107,-30.16"/>
<polygon fill="#63b8ff" stroke="#63b8ff" points="103.5,-55.8 107,-65.8 110.5,-55.8 103.5,-55.8"/>
</a>
</g>
</g>
<!-- Node3 -->
<g id="Node000003" class="node">
<title>Node3</title>
<g id="a_Node000003"><a xlink:title=" ">
<polygon fill="white" stroke="#666666" points="130.5,-151 83.5,-151 83.5,-132 130.5,-132 130.5,-151"/>
<text text-anchor="middle" x="107" y="-139" font-family="Helvetica,sans-Serif" font-size="10.00">object</text>
</a>
</g>
</g>
<!-- Node3&#45;&gt;Node2 -->
<g id="edge2_Node000002_Node000003" class="edge">
<title>Node3&#45;&gt;Node2</title>
<g id="a_edge2_Node000002_Node000003"><a xlink:title=" ">
<path fill="none" stroke="#63b8ff" d="M107,-121.65C107,-113.36 107,-103.78 107,-96.11"/>
<polygon fill="#63b8ff" stroke="#63b8ff" points="103.5,-121.87 107,-131.87 110.5,-121.87 103.5,-121.87"/>
</a>
</g>
</g>
</g>
</svg>
