<?xml version="1.0" encoding="UTF-8" standalone="no"?>
<!DOCTYPE svg PUBLIC "-//W3C//DTD SVG 1.1//EN"
 "http://www.w3.org/Graphics/SVG/1.1/DTD/svg11.dtd">
<!-- Generated by graphviz version 2.43.0 (0)
 -->
<!-- Title: fiftyone_pipeline_core.evidence_keyfilter.EvidenceKeyFilter Pages: 1 -->
<svg width="683pt" height="146pt"
 viewBox="0.00 0.00 683.00 145.50" xmlns="http://www.w3.org/2000/svg" xmlns:xlink="http://www.w3.org/1999/xlink">
<g id="graph0" class="graph" transform="scale(1 1) rotate(0) translate(4 141.5)">
<title>fiftyone_pipeline_core.evidence_keyfilter.EvidenceKeyFilter</title>
<!-- Node1 -->
<g id="Node000001" class="node">
<title>Node1</title>
<g id="a_Node000001"><a xlink:title="An EvidenceKeyFilter is attached to a FlowElement and is used to check if a specific evidence key is ...">
<polygon fill="#999999" stroke="#666666" points="171,-78 0,-78 0,-48 171,-48 171,-78"/>
<text text-anchor="start" x="8" y="-66" font-family="Helvetica,sans-Serif" font-size="10.00">fiftyone_pipeline_core.evidence</text>
<text text-anchor="middle" x="85.5" y="-55" font-family="Helvetica,sans-Serif" font-size="10.00">_keyfilter.EvidenceKeyFilter</text>
</a>
</g>
</g>
<!-- Node2 -->
<g id="Node000002" class="node">
<title>Node2</title>
<g id="a_Node000002"><a xlink:href="classfiftyone__pipeline__core_1_1basiclist__evidence__keyfilter_1_1_basic_list_evidence_key_filter.html" target="_top" xlink:title="An instance of EvidenceKeyFilter that uses a simple array of keys Evidence not using these keys is fi...">
<polygon fill="white" stroke="#666666" points="416,-137.5 215,-137.5 215,-96.5 416,-96.5 416,-137.5"/>
<text text-anchor="start" x="223" y="-125.5" font-family="Helvetica,sans-Serif" font-size="10.00">fiftyone_pipeline_core.basiclist</text>
<text text-anchor="start" x="223" y="-114.5" font-family="Helvetica,sans-Serif" font-size="10.00">_evidence_keyfilter.BasicListEvidence</text>
<text text-anchor="middle" x="315.5" y="-103.5" font-family="Helvetica,sans-Serif" font-size="10.00">KeyFilter</text>
</a>
</g>
</g>
<!-- Node1&#45;&gt;Node2 -->
<g id="edge1_Node000001_Node000002" class="edge">
<title>Node1&#45;&gt;Node2</title>
<g id="a_edge1_Node000001_Node000002"><a xlink:title=" ">
<path fill="none" stroke="#63b8ff" d="M159.8,-80.36C181.5,-85.5 205.45,-91.17 227.9,-96.49"/>
<polygon fill="#63b8ff" stroke="#63b8ff" points="160.55,-76.94 150.01,-78.04 158.93,-83.75 160.55,-76.94"/>
</a>
</g>
</g>
<!-- Node4 -->
<g id="Node000004" class="node">
<title>Node4</title>
<g id="a_Node000004"><a xlink:href="classfiftyone__pipeline__core_1_1javascriptbuilder_1_1_java_script_builder_evidence_key_filter.html" target="_top" xlink:title=" ">
<polygon fill="white" stroke="#666666" points="421,-78 210,-78 210,-48 421,-48 421,-78"/>
<text text-anchor="start" x="218" y="-66" font-family="Helvetica,sans-Serif" font-size="10.00">fiftyone_pipeline_core.javascriptbuilder.</text>
<text text-anchor="middle" x="315.5" y="-55" font-family="Helvetica,sans-Serif" font-size="10.00">JavaScriptBuilderEvidenceKeyFilter</text>
</a>
</g>
</g>
<!-- Node1&#45;&gt;Node4 -->
<g id="edge3_Node000001_Node000004" class="edge">
<title>Node1&#45;&gt;Node4</title>
<g id="a_edge3_Node000001_Node000004"><a xlink:title=" ">
<path fill="none" stroke="#63b8ff" d="M181.27,-63C190.75,-63 200.4,-63 209.97,-63"/>
<polygon fill="#63b8ff" stroke="#63b8ff" points="181.07,-59.5 171.07,-63 181.07,-66.5 181.07,-59.5"/>
</a>
</g>
</g>
<!-- Node5 -->
<g id="Node000005" class="node">
<title>Node5</title>
<g id="a_Node000005"><a xlink:href="classfiftyone__pipeline__core_1_1sequenceelement_1_1_sequence_element_evidence_key_filter.html" target="_top" xlink:title=" ">
<polygon fill="white" stroke="#666666" points="424,-30 207,-30 207,0 424,0 424,-30"/>
<text text-anchor="start" x="215" y="-18" font-family="Helvetica,sans-Serif" font-size="10.00">fiftyone_pipeline_core.sequenceelement.</text>
<text text-anchor="middle" x="315.5" y="-7" font-family="Helvetica,sans-Serif" font-size="10.00">SequenceElementEvidenceKeyFilter</text>
</a>
</g>
</g>
<!-- Node1&#45;&gt;Node5 -->
<g id="edge4_Node000001_Node000005" class="edge">
<title>Node1&#45;&gt;Node5</title>
<g id="a_edge4_Node000001_Node000005"><a xlink:title=" ">
<path fill="none" stroke="#63b8ff" d="M168.04,-45.83C192.61,-40.66 219.38,-35.02 243.24,-30"/>
<polygon fill="#63b8ff" stroke="#63b8ff" points="167.08,-42.46 158.02,-47.94 168.52,-49.31 167.08,-42.46"/>
</a>
</g>
</g>
<!-- Node3 -->
<g id="Node000003" class="node">
<title>Node3</title>
<g id="a_Node000003"><a xlink:href="classfiftyone__pipeline__engines__fiftyone_1_1share__usage__evidencekeyfilter_1_1_share_usage_evidence_key_filter.html" target="_top" xlink:title=" ">
<polygon fill="white" stroke="#666666" points="675,-137.5 460,-137.5 460,-96.5 675,-96.5 675,-137.5"/>
<text text-anchor="start" x="468" y="-125.5" font-family="Helvetica,sans-Serif" font-size="10.00">fiftyone_pipeline_engines</text>
<text text-anchor="start" x="468" y="-114.5" font-family="Helvetica,sans-Serif" font-size="10.00">_fiftyone.share_usage_evidencekeyfilter.</text>
<text text-anchor="middle" x="567.5" y="-103.5" font-family="Helvetica,sans-Serif" font-size="10.00">ShareUsageEvidenceKeyFilter</text>
</a>
</g>
</g>
<!-- Node2&#45;&gt;Node3 -->
<g id="edge2_Node000002_Node000003" class="edge">
<title>Node2&#45;&gt;Node3</title>
<g id="a_edge2_Node000002_Node000003"><a xlink:title=" ">
<path fill="none" stroke="#63b8ff" d="M426.24,-117C437.43,-117 448.78,-117 459.93,-117"/>
<polygon fill="#63b8ff" stroke="#63b8ff" points="426.02,-113.5 416.02,-117 426.02,-120.5 426.02,-113.5"/>
</a>
</g>
</g>
</g>
</svg>
