<?xml version="1.0" encoding="UTF-8" standalone="no"?>
<!DOCTYPE svg PUBLIC "-//W3C//DTD SVG 1.1//EN"
 "http://www.w3.org/Graphics/SVG/1.1/DTD/svg11.dtd">
<!-- Generated by graphviz version 2.43.0 (0)
 -->
<!-- Title: fiftyone_pipeline_engines.datakeyed_cache.DataKeyedCache Pages: 1 -->
<svg width="736pt" height="172pt"
 viewBox="0.00 0.00 736.00 171.50" xmlns="http://www.w3.org/2000/svg" xmlns:xlink="http://www.w3.org/1999/xlink">
<g id="graph0" class="graph" transform="scale(1 1) rotate(0) translate(4 167.5)">
<title>fiftyone_pipeline_engines.datakeyed_cache.DataKeyedCache</title>
<!-- Node1 -->
<g id="Node000001" class="node">
<title>Node1</title>
<g id="a_Node000001"><a xlink:title="A data keyed cache is the base class for caches used in the pipeline It does nothing on its own and s...">
<polygon fill="#999999" stroke="#666666" points="278,-91.5 83,-91.5 83,-61.5 278,-61.5 278,-91.5"/>
<text text-anchor="start" x="91" y="-79.5" font-family="Helvetica,sans-Serif" font-size="10.00">fiftyone_pipeline_engines.datakeyed</text>
<text text-anchor="middle" x="180.5" y="-68.5" font-family="Helvetica,sans-Serif" font-size="10.00">_cache.DataKeyedCache</text>
</a>
</g>
</g>
<!-- Node3 -->
<g id="Node000003" class="node">
<title>Node3</title>
<g id="a_Node000003"><a xlink:href="classfiftyone__pipeline__engines_1_1basic__dictionary__cache_1_1_basic_dictionary_cache.html" target="_top" xlink:title="A simple cache that stores its results in a dictionary.">
<polygon fill="white" stroke="#666666" points="528,-163.5 314,-163.5 314,-133.5 528,-133.5 528,-163.5"/>
<text text-anchor="start" x="322" y="-151.5" font-family="Helvetica,sans-Serif" font-size="10.00">fiftyone_pipeline_engines.basic</text>
<text text-anchor="middle" x="421" y="-140.5" font-family="Helvetica,sans-Serif" font-size="10.00">_dictionary_cache.BasicDictionaryCache</text>
</a>
</g>
</g>
<!-- Node1&#45;&gt;Node3 -->
<g id="edge2_Node000001_Node000003" class="edge">
<title>Node1&#45;&gt;Node3</title>
<g id="a_edge2_Node000001_Node000003"><a xlink:title=" ">
<path fill="none" stroke="#63b8ff" d="M228.69,-95.22C253.78,-104.76 285.29,-116.09 314,-124.5 324.86,-127.68 336.46,-130.69 347.84,-133.44"/>
<polygon fill="#63b8ff" stroke="#63b8ff" points="229.66,-91.84 219.07,-91.53 227.15,-98.38 229.66,-91.84"/>
</a>
</g>
</g>
<!-- Node4 -->
<g id="Node000004" class="node">
<title>Node4</title>
<g id="a_Node000004"><a xlink:href="classfiftyone__pipeline__engines_1_1lru__cache_1_1_l_r_u_engine_cache.html" target="_top" xlink:title="An instance of DataKeyed cache using a least recently used (LRU) method.">
<polygon fill="white" stroke="#666666" points="499.5,-115.5 342.5,-115.5 342.5,-85.5 499.5,-85.5 499.5,-115.5"/>
<text text-anchor="start" x="350.5" y="-103.5" font-family="Helvetica,sans-Serif" font-size="10.00">fiftyone_pipeline_engines.lru</text>
<text text-anchor="middle" x="421" y="-92.5" font-family="Helvetica,sans-Serif" font-size="10.00">_cache.LRUEngineCache</text>
</a>
</g>
</g>
<!-- Node1&#45;&gt;Node4 -->
<g id="edge3_Node000001_Node000004" class="edge">
<title>Node1&#45;&gt;Node4</title>
<g id="a_edge3_Node000001_Node000004"><a xlink:title=" ">
<path fill="none" stroke="#63b8ff" d="M288.21,-87.24C306.39,-89.07 324.97,-90.94 342.22,-92.67"/>
<polygon fill="#63b8ff" stroke="#63b8ff" points="288.46,-83.75 278.16,-86.23 287.76,-90.71 288.46,-83.75"/>
</a>
</g>
</g>
<!-- Node5 -->
<g id="Node000005" class="node">
<title>Node5</title>
<g id="a_Node000005"><a xlink:href="classfiftyone__pipeline__engines_1_1tracker_1_1_tracker.html" target="_top" xlink:title="A tracker is an instance of datakeyed cache which, if a result is found in the cache,...">
<polygon fill="white" stroke="#666666" points="511,-67.5 331,-67.5 331,-37.5 511,-37.5 511,-67.5"/>
<text text-anchor="start" x="339" y="-55.5" font-family="Helvetica,sans-Serif" font-size="10.00">fiftyone_pipeline_engines.tracker.</text>
<text text-anchor="middle" x="421" y="-44.5" font-family="Helvetica,sans-Serif" font-size="10.00">Tracker</text>
</a>
</g>
</g>
<!-- Node1&#45;&gt;Node5 -->
<g id="edge4_Node000001_Node000005" class="edge">
<title>Node1&#45;&gt;Node5</title>
<g id="a_edge4_Node000001_Node000005"><a xlink:title=" ">
<path fill="none" stroke="#63b8ff" d="M288.44,-65.74C302.63,-64.31 317.06,-62.86 330.9,-61.47"/>
<polygon fill="#63b8ff" stroke="#63b8ff" points="287.76,-62.29 278.16,-66.77 288.46,-69.25 287.76,-62.29"/>
</a>
</g>
</g>
<!-- Node7 -->
<g id="Node000007" class="node">
<title>Node7</title>
<g id="a_Node000007"><a xlink:href="classtests_1_1test__engines_1_1_test_cache.html" target="_top" xlink:title=" ">
<polygon fill="white" stroke="#666666" points="500,-19 342,-19 342,0 500,0 500,-19"/>
<text text-anchor="middle" x="421" y="-7" font-family="Helvetica,sans-Serif" font-size="10.00">tests.test_engines.TestCache</text>
</a>
</g>
</g>
<!-- Node1&#45;&gt;Node7 -->
<g id="edge6_Node000001_Node000007" class="edge">
<title>Node1&#45;&gt;Node7</title>
<g id="a_edge6_Node000001_Node000007"><a xlink:title=" ">
<path fill="none" stroke="#63b8ff" d="M227.13,-57.79C252.4,-47.99 284.56,-36.41 314,-28.5 327.72,-24.81 342.64,-21.64 356.83,-19"/>
<polygon fill="#63b8ff" stroke="#63b8ff" points="225.83,-54.54 217.8,-61.45 228.39,-61.06 225.83,-54.54"/>
</a>
</g>
</g>
<!-- Node2 -->
<g id="Node000002" class="node">
<title>Node2</title>
<g id="a_Node000002"><a xlink:title=" ">
<polygon fill="white" stroke="#666666" points="47,-86 0,-86 0,-67 47,-67 47,-86"/>
<text text-anchor="middle" x="23.5" y="-74" font-family="Helvetica,sans-Serif" font-size="10.00">object</text>
</a>
</g>
</g>
<!-- Node2&#45;&gt;Node1 -->
<g id="edge1_Node000001_Node000002" class="edge">
<title>Node2&#45;&gt;Node1</title>
<g id="a_edge1_Node000001_Node000002"><a xlink:title=" ">
<path fill="none" stroke="#63b8ff" d="M57.09,-76.5C64.92,-76.5 73.69,-76.5 82.84,-76.5"/>
<polygon fill="#63b8ff" stroke="#63b8ff" points="57.04,-73 47.04,-76.5 57.04,-80 57.04,-73"/>
</a>
</g>
</g>
<!-- Node6 -->
<g id="Node000006" class="node">
<title>Node6</title>
<g id="a_Node000006"><a xlink:href="classfiftyone__pipeline__engines__fiftyone_1_1share__usage__tracker_1_1_share_usage_tracker.html" target="_top" xlink:title="The ShareUsageTracker is used by the ShareUsageElement to determine whether to put evidence into a bu...">
<polygon fill="white" stroke="#666666" points="728,-73 564,-73 564,-32 728,-32 728,-73"/>
<text text-anchor="start" x="572" y="-61" font-family="Helvetica,sans-Serif" font-size="10.00">fiftyone_pipeline_engines</text>
<text text-anchor="start" x="572" y="-50" font-family="Helvetica,sans-Serif" font-size="10.00">_fiftyone.share_usage_tracker.</text>
<text text-anchor="middle" x="646" y="-39" font-family="Helvetica,sans-Serif" font-size="10.00">ShareUsageTracker</text>
</a>
</g>
</g>
<!-- Node5&#45;&gt;Node6 -->
<g id="edge5_Node000005_Node000006" class="edge">
<title>Node5&#45;&gt;Node6</title>
<g id="a_edge5_Node000005_Node000006"><a xlink:title=" ">
<path fill="none" stroke="#63b8ff" d="M521.41,-52.5C535.65,-52.5 550.16,-52.5 563.99,-52.5"/>
<polygon fill="#63b8ff" stroke="#63b8ff" points="521.1,-49 511.1,-52.5 521.1,-56 521.1,-49"/>
</a>
</g>
</g>
</g>
</svg>
