<?xml version="1.0" encoding="UTF-8" standalone="no"?>
<!DOCTYPE svg PUBLIC "-//W3C//DTD SVG 1.1//EN"
 "http://www.w3.org/Graphics/SVG/1.1/DTD/svg11.dtd">
<!-- Generated by graphviz version 2.43.0 (0)
 -->
<!-- Title: examples.client_side_evidence_custom_flow_element.AstrologyFlowElement Pages: 1 -->
<svg width="199pt" height="170pt"
 viewBox="0.00 0.00 199.00 170.00" xmlns="http://www.w3.org/2000/svg" xmlns:xlink="http://www.w3.org/1999/xlink">
<g id="graph0" class="graph" transform="scale(1 1) rotate(0) translate(4 166)">
<title>examples.client_side_evidence_custom_flow_element.AstrologyFlowElement</title>
<!-- Node1 -->
<g id="Node000001" class="node">
<title>Node1</title>
<g id="a_Node000001"><a xlink:title=" ">
<polygon fill="#999999" stroke="#666666" points="183.5,-41 7.5,-41 7.5,0 183.5,0 183.5,-41"/>
<text text-anchor="start" x="15.5" y="-29" font-family="Helvetica,sans-Serif" font-size="10.00">examples.client_side</text>
<text text-anchor="start" x="15.5" y="-18" font-family="Helvetica,sans-Serif" font-size="10.00">_evidence_custom_flow</text>
<text text-anchor="middle" x="95.5" y="-7" font-family="Helvetica,sans-Serif" font-size="10.00">_element.AstrologyFlowElement</text>
</a>
</g>
</g>
<!-- Node2 -->
<g id="Node000002" class="node">
<title>Node2</title>
<g id="a_Node000002"><a xlink:href="classfiftyone__pipeline__core_1_1flowelement_1_1_flow_element.html" target="_top" xlink:title="A FlowElement is placed inside a Pipeline It receives Evidence via a FlowData object It uses this to ...">
<polygon fill="white" stroke="#666666" points="191,-107 0,-107 0,-77 191,-77 191,-107"/>
<text text-anchor="start" x="8" y="-95" font-family="Helvetica,sans-Serif" font-size="10.00">fiftyone_pipeline_core.flowelement.</text>
<text text-anchor="middle" x="95.5" y="-84" font-family="Helvetica,sans-Serif" font-size="10.00">FlowElement</text>
</a>
</g>
</g>
<!-- Node2&#45;&gt;Node1 -->
<g id="edge1_Node000001_Node000002" class="edge">
<title>Node2&#45;&gt;Node1</title>
<g id="a_edge1_Node000001_Node000002"><a xlink:title=" ">
<path fill="none" stroke="#63b8ff" d="M95.5,-66.91C95.5,-58.47 95.5,-49.1 95.5,-41.07"/>
<polygon fill="#63b8ff" stroke="#63b8ff" points="92,-66.94 95.5,-76.94 99,-66.94 92,-66.94"/>
</a>
</g>
</g>
<!-- Node3 -->
<g id="Node000003" class="node">
<title>Node3</title>
<g id="a_Node000003"><a xlink:title=" ">
<polygon fill="white" stroke="#666666" points="119,-162 72,-162 72,-143 119,-143 119,-162"/>
<text text-anchor="middle" x="95.5" y="-150" font-family="Helvetica,sans-Serif" font-size="10.00">object</text>
</a>
</g>
</g>
<!-- Node3&#45;&gt;Node2 -->
<g id="edge2_Node000002_Node000003" class="edge">
<title>Node3&#45;&gt;Node2</title>
<g id="a_edge2_Node000002_Node000003"><a xlink:title=" ">
<path fill="none" stroke="#63b8ff" d="M95.5,-132.65C95.5,-124.36 95.5,-114.78 95.5,-107.11"/>
<polygon fill="#63b8ff" stroke="#63b8ff" points="92,-132.87 95.5,-142.87 99,-132.87 92,-132.87"/>
</a>
</g>
</g>
</g>
</svg>
