<?xml version="1.0" encoding="UTF-8" standalone="no"?>
<!DOCTYPE svg PUBLIC "-//W3C//DTD SVG 1.1//EN"
 "http://www.w3.org/Graphics/SVG/1.1/DTD/svg11.dtd">
<!-- Generated by graphviz version 2.43.0 (0)
 -->
<!-- Title: fiftyone_pipeline_engines.engine.Engine Pages: 1 -->
<svg width="835pt" height="182pt"
 viewBox="0.00 0.00 835.00 182.00" xmlns="http://www.w3.org/2000/svg" xmlns:xlink="http://www.w3.org/1999/xlink">
<g id="graph0" class="graph" transform="scale(1 1) rotate(0) translate(4 178)">
<title>fiftyone_pipeline_engines.engine.Engine</title>
<!-- Node1 -->
<g id="Node000001" class="node">
<title>Node1</title>
<g id="a_Node000001"><a xlink:title="An engine is an extension of the FlowElement class that adds extra functionality.">
<polygon fill="#999999" stroke="#666666" points="490,-102 310,-102 310,-72 490,-72 490,-102"/>
<text text-anchor="start" x="318" y="-90" font-family="Helvetica,sans-Serif" font-size="10.00">fiftyone_pipeline_engines.engine.</text>
<text text-anchor="middle" x="400" y="-79" font-family="Helvetica,sans-Serif" font-size="10.00">Engine</text>
</a>
</g>
</g>
<!-- Node4 -->
<g id="Node000004" class="node">
<title>Node4</title>
<g id="a_Node000004"><a xlink:href="classfiftyone__pipeline__cloudrequestengine_1_1cloudengine_1_1_cloud_engine.html" target="_top" xlink:title="This is a template for all 51Degrees cloud engines.">
<polygon fill="white" stroke="#666666" points="808.5,-174 544.5,-174 544.5,-144 808.5,-144 808.5,-174"/>
<text text-anchor="start" x="552.5" y="-162" font-family="Helvetica,sans-Serif" font-size="10.00">fiftyone_pipeline_cloudrequestengine.cloudengine.</text>
<text text-anchor="middle" x="676.5" y="-151" font-family="Helvetica,sans-Serif" font-size="10.00">CloudEngine</text>
</a>
</g>
</g>
<!-- Node1&#45;&gt;Node4 -->
<g id="edge3_Node000001_Node000004" class="edge">
<title>Node1&#45;&gt;Node4</title>
<g id="a_edge3_Node000001_Node000004"><a xlink:title=" ">
<path fill="none" stroke="#63b8ff" d="M444.02,-106.06C467.79,-115.94 498.08,-127.49 526,-135 538.57,-138.38 551.86,-141.35 565.13,-143.95"/>
<polygon fill="#63b8ff" stroke="#63b8ff" points="445.16,-102.75 434.59,-102.09 442.44,-109.2 445.16,-102.75"/>
</a>
</g>
</g>
<!-- Node5 -->
<g id="Node000005" class="node">
<title>Node5</title>
<g id="a_Node000005"><a xlink:href="classfiftyone__pipeline__cloudrequestengine_1_1cloudrequestengine_1_1_cloud_request_engine.html" target="_top" xlink:title=" ">
<polygon fill="white" stroke="#666666" points="827,-126 526,-126 526,-96 827,-96 827,-126"/>
<text text-anchor="start" x="534" y="-114" font-family="Helvetica,sans-Serif" font-size="10.00">fiftyone_pipeline_cloudrequestengine.cloudrequestengine.</text>
<text text-anchor="middle" x="676.5" y="-103" font-family="Helvetica,sans-Serif" font-size="10.00">CloudRequestEngine</text>
</a>
</g>
</g>
<!-- Node1&#45;&gt;Node5 -->
<g id="edge4_Node000001_Node000005" class="edge">
<title>Node1&#45;&gt;Node5</title>
<g id="a_edge4_Node000001_Node000005"><a xlink:title=" ">
<path fill="none" stroke="#63b8ff" d="M500.15,-95.67C508.46,-96.4 516.98,-97.14 525.56,-97.89"/>
<polygon fill="#63b8ff" stroke="#63b8ff" points="500.39,-92.18 490.12,-94.79 499.78,-99.15 500.39,-92.18"/>
</a>
</g>
</g>
<!-- Node6 -->
<g id="Node000006" class="node">
<title>Node6</title>
<g id="a_Node000006"><a xlink:href="classfiftyone__pipeline__engines__fiftyone_1_1share__usage_1_1_share_usage.html" target="_top" xlink:title=" ">
<polygon fill="white" stroke="#666666" points="769,-78 584,-78 584,-48 769,-48 769,-78"/>
<text text-anchor="start" x="592" y="-66" font-family="Helvetica,sans-Serif" font-size="10.00">fiftyone_pipeline_engines</text>
<text text-anchor="middle" x="676.5" y="-55" font-family="Helvetica,sans-Serif" font-size="10.00">_fiftyone.share_usage.ShareUsage</text>
</a>
</g>
</g>
<!-- Node1&#45;&gt;Node6 -->
<g id="edge5_Node000001_Node000006" class="edge">
<title>Node1&#45;&gt;Node6</title>
<g id="a_edge5_Node000001_Node000006"><a xlink:title=" ">
<path fill="none" stroke="#63b8ff" d="M500.41,-78.31C527.55,-75.94 556.82,-73.38 583.53,-71.04"/>
<polygon fill="#63b8ff" stroke="#63b8ff" points="499.78,-74.85 490.12,-79.21 500.39,-81.82 499.78,-74.85"/>
</a>
</g>
</g>
<!-- Node7 -->
<g id="Node000007" class="node">
<title>Node7</title>
<g id="a_Node000007"><a xlink:href="classtests_1_1test__engines_1_1_example_aspect_engine.html" target="_top" xlink:title=" ">
<polygon fill="white" stroke="#666666" points="752.5,-30 600.5,-30 600.5,0 752.5,0 752.5,-30"/>
<text text-anchor="start" x="608.5" y="-18" font-family="Helvetica,sans-Serif" font-size="10.00">tests.test_engines.Example</text>
<text text-anchor="middle" x="676.5" y="-7" font-family="Helvetica,sans-Serif" font-size="10.00">AspectEngine</text>
</a>
</g>
</g>
<!-- Node1&#45;&gt;Node7 -->
<g id="edge6_Node000001_Node000007" class="edge">
<title>Node1&#45;&gt;Node7</title>
<g id="a_edge6_Node000001_Node000007"><a xlink:title=" ">
<path fill="none" stroke="#63b8ff" d="M444.02,-67.94C467.79,-58.06 498.08,-46.51 526,-39 549.86,-32.58 576.36,-27.64 600.33,-23.95"/>
<polygon fill="#63b8ff" stroke="#63b8ff" points="442.44,-64.8 434.59,-71.91 445.16,-71.25 442.44,-64.8"/>
</a>
</g>
</g>
<!-- Node2 -->
<g id="Node000002" class="node">
<title>Node2</title>
<g id="a_Node000002"><a xlink:href="classfiftyone__pipeline__core_1_1flowelement_1_1_flow_element.html" target="_top" xlink:title="A FlowElement is placed inside a Pipeline It receives Evidence via a FlowData object It uses this to ...">
<polygon fill="white" stroke="#666666" points="274,-102 83,-102 83,-72 274,-72 274,-102"/>
<text text-anchor="start" x="91" y="-90" font-family="Helvetica,sans-Serif" font-size="10.00">fiftyone_pipeline_core.flowelement.</text>
<text text-anchor="middle" x="178.5" y="-79" font-family="Helvetica,sans-Serif" font-size="10.00">FlowElement</text>
</a>
</g>
</g>
<!-- Node2&#45;&gt;Node1 -->
<g id="edge1_Node000001_Node000002" class="edge">
<title>Node2&#45;&gt;Node1</title>
<g id="a_edge1_Node000001_Node000002"><a xlink:title=" ">
<path fill="none" stroke="#63b8ff" d="M284.21,-87C292.78,-87 301.39,-87 309.84,-87"/>
<polygon fill="#63b8ff" stroke="#63b8ff" points="284.18,-83.5 274.18,-87 284.18,-90.5 284.18,-83.5"/>
</a>
</g>
</g>
<!-- Node3 -->
<g id="Node000003" class="node">
<title>Node3</title>
<g id="a_Node000003"><a xlink:title=" ">
<polygon fill="white" stroke="#666666" points="47,-96.5 0,-96.5 0,-77.5 47,-77.5 47,-96.5"/>
<text text-anchor="middle" x="23.5" y="-84.5" font-family="Helvetica,sans-Serif" font-size="10.00">object</text>
</a>
</g>
</g>
<!-- Node3&#45;&gt;Node2 -->
<g id="edge2_Node000002_Node000003" class="edge">
<title>Node3&#45;&gt;Node2</title>
<g id="a_edge2_Node000002_Node000003"><a xlink:title=" ">
<path fill="none" stroke="#63b8ff" d="M57.1,-87C64.92,-87 73.65,-87 82.75,-87"/>
<polygon fill="#63b8ff" stroke="#63b8ff" points="57.08,-83.5 47.08,-87 57.08,-90.5 57.08,-83.5"/>
</a>
</g>
</g>
</g>
</svg>
