<?xml version="1.0" encoding="UTF-8" standalone="no"?>
<!DOCTYPE svg PUBLIC "-//W3C//DTD SVG 1.1//EN"
 "http://www.w3.org/Graphics/SVG/1.1/DTD/svg11.dtd">
<!-- Generated by graphviz version 2.43.0 (0)
 -->
<!-- Title: fiftyone_pipeline_core.elementdata_dictionary.ElementDataDictionary Pages: 1 -->
<svg width="200pt" height="159pt"
 viewBox="0.00 0.00 200.00 159.00" xmlns="http://www.w3.org/2000/svg" xmlns:xlink="http://www.w3.org/1999/xlink">
<g id="graph0" class="graph" transform="scale(1 1) rotate(0) translate(4 155)">
<title>fiftyone_pipeline_core.elementdata_dictionary.ElementDataDictionary</title>
<!-- Node1 -->
<g id="Node000001" class="node">
<title>Node1</title>
<g id="a_Node000001"><a xlink:title="An extension of ElementData with dictionary object storage / lookup.">
<polygon fill="#999999" stroke="#666666" points="190.5,-30 1.5,-30 1.5,0 190.5,0 190.5,-30"/>
<text text-anchor="start" x="9.5" y="-18" font-family="Helvetica,sans-Serif" font-size="10.00">fiftyone_pipeline_core.elementdata</text>
<text text-anchor="middle" x="96" y="-7" font-family="Helvetica,sans-Serif" font-size="10.00">_dictionary.ElementDataDictionary</text>
</a>
</g>
</g>
<!-- Node2 -->
<g id="Node000002" class="node">
<title>Node2</title>
<g id="a_Node000002"><a xlink:href="classfiftyone__pipeline__core_1_1elementdata_1_1_element_data.html" target="_top" xlink:title="Core ElementData class Stores information created by a FlowElement based on FlowData.">
<polygon fill="white" stroke="#666666" points="192,-96 0,-96 0,-66 192,-66 192,-96"/>
<text text-anchor="start" x="8" y="-84" font-family="Helvetica,sans-Serif" font-size="10.00">fiftyone_pipeline_core.elementdata.</text>
<text text-anchor="middle" x="96" y="-73" font-family="Helvetica,sans-Serif" font-size="10.00">ElementData</text>
</a>
</g>
</g>
<!-- Node2&#45;&gt;Node1 -->
<g id="edge1_Node000001_Node000002" class="edge">
<title>Node2&#45;&gt;Node1</title>
<g id="a_edge1_Node000001_Node000002"><a xlink:title=" ">
<path fill="none" stroke="#63b8ff" d="M96,-55.54C96,-46.96 96,-37.61 96,-30.16"/>
<polygon fill="#63b8ff" stroke="#63b8ff" points="92.5,-55.8 96,-65.8 99.5,-55.8 92.5,-55.8"/>
</a>
</g>
</g>
<!-- Node3 -->
<g id="Node000003" class="node">
<title>Node3</title>
<g id="a_Node000003"><a xlink:title=" ">
<polygon fill="white" stroke="#666666" points="119.5,-151 72.5,-151 72.5,-132 119.5,-132 119.5,-151"/>
<text text-anchor="middle" x="96" y="-139" font-family="Helvetica,sans-Serif" font-size="10.00">object</text>
</a>
</g>
</g>
<!-- Node3&#45;&gt;Node2 -->
<g id="edge2_Node000002_Node000003" class="edge">
<title>Node3&#45;&gt;Node2</title>
<g id="a_edge2_Node000002_Node000003"><a xlink:title=" ">
<path fill="none" stroke="#63b8ff" d="M96,-121.65C96,-113.36 96,-103.78 96,-96.11"/>
<polygon fill="#63b8ff" stroke="#63b8ff" points="92.5,-121.87 96,-131.87 99.5,-121.87 92.5,-121.87"/>
</a>
</g>
</g>
</g>
</svg>
