<?xml version="1.0" encoding="UTF-8" standalone="no"?>
<!DOCTYPE svg PUBLIC "-//W3C//DTD SVG 1.1//EN"
 "http://www.w3.org/Graphics/SVG/1.1/DTD/svg11.dtd">
<!-- Generated by graphviz version 2.43.0 (0)
 -->
<!-- Title: fiftyone_pipeline_core.flowelement.FlowElement Pages: 1 -->
<svg width="874pt" height="770pt"
 viewBox="0.00 0.00 874.00 769.50" xmlns="http://www.w3.org/2000/svg" xmlns:xlink="http://www.w3.org/1999/xlink">
<g id="graph0" class="graph" transform="scale(1 1) rotate(0) translate(4 765.5)">
<title>fiftyone_pipeline_core.flowelement.FlowElement</title>
<!-- Node1 -->
<g id="Node000001" class="node">
<title>Node1</title>
<g id="a_Node000001"><a xlink:title="A FlowElement is placed inside a Pipeline It receives Evidence via a FlowData object It uses this to ...">
<polygon fill="#999999" stroke="#666666" points="274,-390 83,-390 83,-360 274,-360 274,-390"/>
<text text-anchor="start" x="91" y="-378" font-family="Helvetica,sans-Serif" font-size="10.00">fiftyone_pipeline_core.flowelement.</text>
<text text-anchor="middle" x="178.5" y="-367" font-family="Helvetica,sans-Serif" font-size="10.00">FlowElement</text>
</a>
</g>
</g>
<!-- Node3 -->
<g id="Node000003" class="node">
<title>Node3</title>
<g id="a_Node000003"><a xlink:href="classexamples_1_1client__side__evidence__custom__flow__element_1_1_astrology_flow_element.html" target="_top" xlink:title=" ">
<polygon fill="white" stroke="#666666" points="507.5,-761.5 331.5,-761.5 331.5,-720.5 507.5,-720.5 507.5,-761.5"/>
<text text-anchor="start" x="339.5" y="-749.5" font-family="Helvetica,sans-Serif" font-size="10.00">examples.client_side</text>
<text text-anchor="start" x="339.5" y="-738.5" font-family="Helvetica,sans-Serif" font-size="10.00">_evidence_custom_flow</text>
<text text-anchor="middle" x="419.5" y="-727.5" font-family="Helvetica,sans-Serif" font-size="10.00">_element.AstrologyFlowElement</text>
</a>
</g>
</g>
<!-- Node1&#45;&gt;Node3 -->
<g id="edge2_Node000001_Node000003" class="edge">
<title>Node1&#45;&gt;Node3</title>
<g id="a_edge2_Node000001_Node000003"><a xlink:title=" ">
<path fill="none" stroke="#63b8ff" d="M181.72,-400.14C188.6,-462.48 215.19,-625.29 310,-711 316.31,-716.7 323.6,-721.33 331.37,-725.09"/>
<polygon fill="#63b8ff" stroke="#63b8ff" points="185.19,-399.63 180.68,-390.04 178.22,-400.35 185.19,-399.63"/>
</a>
</g>
</g>
<!-- Node4 -->
<g id="Node000004" class="node">
<title>Node4</title>
<g id="a_Node000004"><a xlink:href="classfiftyone__pipeline__core_1_1javascriptbuilder_1_1_javascript_builder_element.html" target="_top" xlink:title="The JavaScriptBuilder aggregates JavaScript properties from FlowElements in the Pipeline.">
<polygon fill="white" stroke="#666666" points="525,-702 314,-702 314,-672 525,-672 525,-702"/>
<text text-anchor="start" x="322" y="-690" font-family="Helvetica,sans-Serif" font-size="10.00">fiftyone_pipeline_core.javascriptbuilder.</text>
<text text-anchor="middle" x="419.5" y="-679" font-family="Helvetica,sans-Serif" font-size="10.00">JavascriptBuilderElement</text>
</a>
</g>
</g>
<!-- Node1&#45;&gt;Node4 -->
<g id="edge3_Node000001_Node000004" class="edge">
<title>Node1&#45;&gt;Node4</title>
<g id="a_edge3_Node000001_Node000004"><a xlink:title=" ">
<path fill="none" stroke="#63b8ff" d="M183.24,-400.25C193,-456.75 224.67,-593.78 310,-663 314.2,-666.4 318.77,-669.35 323.59,-671.9"/>
<polygon fill="#63b8ff" stroke="#63b8ff" points="186.64,-399.37 181.57,-390.07 179.73,-400.51 186.64,-399.37"/>
</a>
</g>
</g>
<!-- Node5 -->
<g id="Node000005" class="node">
<title>Node5</title>
<g id="a_Node000005"><a xlink:href="classfiftyone__pipeline__core_1_1jsonbundler_1_1_j_s_o_n_bundler_element.html" target="_top" xlink:title="The JSONBundler aggregates all properties from FlowElements into a JSON object It is used for retriev...">
<polygon fill="white" stroke="#666666" points="512.5,-654 326.5,-654 326.5,-624 512.5,-624 512.5,-654"/>
<text text-anchor="start" x="334.5" y="-642" font-family="Helvetica,sans-Serif" font-size="10.00">fiftyone_pipeline_core.jsonbundler.</text>
<text text-anchor="middle" x="419.5" y="-631" font-family="Helvetica,sans-Serif" font-size="10.00">JSONBundlerElement</text>
</a>
</g>
</g>
<!-- Node1&#45;&gt;Node5 -->
<g id="edge4_Node000001_Node000005" class="edge">
<title>Node1&#45;&gt;Node5</title>
<g id="a_edge4_Node000001_Node000005"><a xlink:title=" ">
<path fill="none" stroke="#63b8ff" d="M185.67,-400.13C199.18,-449.57 236.22,-559.46 310,-615 315.01,-618.77 320.5,-621.97 326.26,-624.68"/>
<polygon fill="#63b8ff" stroke="#63b8ff" points="189.01,-399.05 183.07,-390.27 182.24,-400.83 189.01,-399.05"/>
</a>
</g>
</g>
<!-- Node6 -->
<g id="Node000006" class="node">
<title>Node6</title>
<g id="a_Node000006"><a xlink:href="classfiftyone__pipeline__core_1_1sequenceelement_1_1_sequence_element.html" target="_top" xlink:title="The SequenceElement stores session data regarding requests for client side JavaScript from the JavaSc...">
<polygon fill="white" stroke="#666666" points="528,-606 311,-606 311,-576 528,-576 528,-606"/>
<text text-anchor="start" x="319" y="-594" font-family="Helvetica,sans-Serif" font-size="10.00">fiftyone_pipeline_core.sequenceelement.</text>
<text text-anchor="middle" x="419.5" y="-583" font-family="Helvetica,sans-Serif" font-size="10.00">SequenceElement</text>
</a>
</g>
</g>
<!-- Node1&#45;&gt;Node6 -->
<g id="edge5_Node000001_Node000006" class="edge">
<title>Node1&#45;&gt;Node6</title>
<g id="a_edge5_Node000001_Node000006"><a xlink:title=" ">
<path fill="none" stroke="#63b8ff" d="M188.96,-399.44C206.3,-440.87 247.28,-524.48 310,-567 315.11,-570.46 320.64,-573.44 326.4,-575.99"/>
<polygon fill="#63b8ff" stroke="#63b8ff" points="192.17,-398.04 185.15,-390.11 185.68,-400.69 192.17,-398.04"/>
</a>
</g>
</g>
<!-- Node7 -->
<g id="Node000007" class="node">
<title>Node7</title>
<g id="a_Node000007"><a xlink:href="classfiftyone__pipeline__core_1_1setheaderelement_1_1_set_header_element.html" target="_top" xlink:title="Set response headers element class.">
<polygon fill="white" stroke="#666666" points="529,-558 310,-558 310,-528 529,-528 529,-558"/>
<text text-anchor="start" x="318" y="-546" font-family="Helvetica,sans-Serif" font-size="10.00">fiftyone_pipeline_core.setheaderelement.</text>
<text text-anchor="middle" x="419.5" y="-535" font-family="Helvetica,sans-Serif" font-size="10.00">SetHeaderElement</text>
</a>
</g>
</g>
<!-- Node1&#45;&gt;Node7 -->
<g id="edge6_Node000001_Node000007" class="edge">
<title>Node1&#45;&gt;Node7</title>
<g id="a_edge6_Node000001_Node000007"><a xlink:title=" ">
<path fill="none" stroke="#63b8ff" d="M193.91,-398.43C215.15,-430.85 258,-488.8 310,-519 315.92,-522.44 322.29,-525.39 328.86,-527.91"/>
<polygon fill="#63b8ff" stroke="#63b8ff" points="196.85,-396.53 188.51,-390 190.96,-400.31 196.85,-396.53"/>
</a>
</g>
</g>
<!-- Node8 -->
<g id="Node000008" class="node">
<title>Node8</title>
<g id="a_Node000008"><a xlink:href="classfiftyone__pipeline__engines_1_1engine_1_1_engine.html" target="_top" xlink:title="An engine is an extension of the FlowElement class that adds extra functionality.">
<polygon fill="white" stroke="#666666" points="509.5,-510 329.5,-510 329.5,-480 509.5,-480 509.5,-510"/>
<text text-anchor="start" x="337.5" y="-498" font-family="Helvetica,sans-Serif" font-size="10.00">fiftyone_pipeline_engines.engine.</text>
<text text-anchor="middle" x="419.5" y="-487" font-family="Helvetica,sans-Serif" font-size="10.00">Engine</text>
</a>
</g>
</g>
<!-- Node1&#45;&gt;Node8 -->
<g id="edge7_Node000001_Node000008" class="edge">
<title>Node1&#45;&gt;Node8</title>
<g id="a_edge7_Node000001_Node000008"><a xlink:title=" ">
<path fill="none" stroke="#63b8ff" d="M202.8,-396.91C227.51,-418.93 268.63,-452.23 310,-471 317.55,-474.43 325.63,-477.38 333.84,-479.92"/>
<polygon fill="#63b8ff" stroke="#63b8ff" points="205.14,-394.3 195.37,-390.18 200.44,-399.49 205.14,-394.3"/>
</a>
</g>
</g>
<!-- Node13 -->
<g id="Node000013" class="node">
<title>Node13</title>
<g id="a_Node000013"><a xlink:href="classtests_1_1classes_1_1apvflowelement_1_1_a_p_v_flow_element.html" target="_top" xlink:title=" ">
<polygon fill="white" stroke="#666666" points="501.5,-462 337.5,-462 337.5,-432 501.5,-432 501.5,-462"/>
<text text-anchor="start" x="345.5" y="-450" font-family="Helvetica,sans-Serif" font-size="10.00">tests.classes.apvflowelement.</text>
<text text-anchor="middle" x="419.5" y="-439" font-family="Helvetica,sans-Serif" font-size="10.00">APVFlowElement</text>
</a>
</g>
</g>
<!-- Node1&#45;&gt;Node13 -->
<g id="edge12_Node000001_Node000013" class="edge">
<title>Node1&#45;&gt;Node13</title>
<g id="a_edge12_Node000001_Node000013"><a xlink:title=" ">
<path fill="none" stroke="#63b8ff" d="M225.67,-393.71C250.41,-403.3 281.57,-414.67 310,-423 321.02,-426.23 332.77,-429.25 344.33,-431.99"/>
<polygon fill="#63b8ff" stroke="#63b8ff" points="226.77,-390.38 216.18,-390 224.22,-396.9 226.77,-390.38"/>
</a>
</g>
</g>
<!-- Node14 -->
<g id="Node000014" class="node">
<title>Node14</title>
<g id="a_Node000014"><a xlink:href="classtests_1_1classes_1_1errorflowdata_1_1_error_flow_data.html" target="_top" xlink:title=" ">
<polygon fill="white" stroke="#666666" points="495,-414 344,-414 344,-384 495,-384 495,-414"/>
<text text-anchor="start" x="352" y="-402" font-family="Helvetica,sans-Serif" font-size="10.00">tests.classes.errorflowdata.</text>
<text text-anchor="middle" x="419.5" y="-391" font-family="Helvetica,sans-Serif" font-size="10.00">ErrorFlowData</text>
</a>
</g>
</g>
<!-- Node1&#45;&gt;Node14 -->
<g id="edge13_Node000001_Node000014" class="edge">
<title>Node1&#45;&gt;Node14</title>
<g id="a_edge13_Node000001_Node000014"><a xlink:title=" ">
<path fill="none" stroke="#63b8ff" d="M284.37,-385.53C304.36,-387.54 324.9,-389.6 343.71,-391.49"/>
<polygon fill="#63b8ff" stroke="#63b8ff" points="284.6,-382.04 274.3,-384.52 283.9,-389 284.6,-382.04"/>
</a>
</g>
</g>
<!-- Node15 -->
<g id="Node000015" class="node">
<title>Node15</title>
<g id="a_Node000015"><a xlink:href="classtests_1_1classes_1_1exampleflowelement1_1_1_example_flow_element1.html" target="_top" xlink:title=" ">
<polygon fill="white" stroke="#666666" points="517,-366 322,-366 322,-336 517,-336 517,-366"/>
<text text-anchor="start" x="330" y="-354" font-family="Helvetica,sans-Serif" font-size="10.00">tests.classes.exampleflowelement1.</text>
<text text-anchor="middle" x="419.5" y="-343" font-family="Helvetica,sans-Serif" font-size="10.00">ExampleFlowElement1</text>
</a>
</g>
</g>
<!-- Node1&#45;&gt;Node15 -->
<g id="edge14_Node000001_Node000015" class="edge">
<title>Node1&#45;&gt;Node15</title>
<g id="a_edge14_Node000001_Node000015"><a xlink:title=" ">
<path fill="none" stroke="#63b8ff" d="M284.27,-364.48C296.76,-363.22 309.48,-361.95 321.85,-360.7"/>
<polygon fill="#63b8ff" stroke="#63b8ff" points="283.9,-361 274.3,-365.48 284.6,-367.96 283.9,-361"/>
</a>
</g>
</g>
<!-- Node16 -->
<g id="Node000016" class="node">
<title>Node16</title>
<g id="a_Node000016"><a xlink:href="classtests_1_1classes_1_1exampleflowelement2_1_1_example_flow_element2.html" target="_top" xlink:title=" ">
<polygon fill="white" stroke="#666666" points="517,-318 322,-318 322,-288 517,-288 517,-318"/>
<text text-anchor="start" x="330" y="-306" font-family="Helvetica,sans-Serif" font-size="10.00">tests.classes.exampleflowelement2.</text>
<text text-anchor="middle" x="419.5" y="-295" font-family="Helvetica,sans-Serif" font-size="10.00">ExampleFlowElement2</text>
</a>
</g>
</g>
<!-- Node1&#45;&gt;Node16 -->
<g id="edge15_Node000001_Node000016" class="edge">
<title>Node1&#45;&gt;Node16</title>
<g id="a_edge15_Node000001_Node000016"><a xlink:title=" ">
<path fill="none" stroke="#63b8ff" d="M225.67,-356.29C250.41,-346.7 281.57,-335.33 310,-327 321.02,-323.77 332.77,-320.75 344.33,-318.01"/>
<polygon fill="#63b8ff" stroke="#63b8ff" points="224.22,-353.1 216.18,-360 226.77,-359.62 224.22,-353.1"/>
</a>
</g>
</g>
<!-- Node17 -->
<g id="Node000017" class="node">
<title>Node17</title>
<g id="a_Node000017"><a xlink:href="classtests_1_1classes_1_1stopflowdata_1_1_stop_flow_data.html" target="_top" xlink:title=" ">
<polygon fill="white" stroke="#666666" points="494,-270 345,-270 345,-240 494,-240 494,-270"/>
<text text-anchor="start" x="353" y="-258" font-family="Helvetica,sans-Serif" font-size="10.00">tests.classes.stopflowdata.</text>
<text text-anchor="middle" x="419.5" y="-247" font-family="Helvetica,sans-Serif" font-size="10.00">StopFlowData</text>
</a>
</g>
</g>
<!-- Node1&#45;&gt;Node17 -->
<g id="edge16_Node000001_Node000017" class="edge">
<title>Node1&#45;&gt;Node17</title>
<g id="a_edge16_Node000001_Node000017"><a xlink:title=" ">
<path fill="none" stroke="#63b8ff" d="M202.8,-353.09C227.51,-331.07 268.63,-297.77 310,-279 320.89,-274.06 332.87,-270.1 344.78,-266.94"/>
<polygon fill="#63b8ff" stroke="#63b8ff" points="200.44,-350.51 195.37,-359.82 205.14,-355.7 200.44,-350.51"/>
</a>
</g>
</g>
<!-- Node18 -->
<g id="Node000018" class="node">
<title>Node18</title>
<g id="a_Node000018"><a xlink:href="classtests_1_1test__javascriptbuilder_1_1_cookie_engine.html" target="_top" xlink:title=" ">
<polygon fill="white" stroke="#666666" points="495.5,-222 343.5,-222 343.5,-192 495.5,-192 495.5,-222"/>
<text text-anchor="start" x="351.5" y="-210" font-family="Helvetica,sans-Serif" font-size="10.00">tests.test_javascriptbuilder.</text>
<text text-anchor="middle" x="419.5" y="-199" font-family="Helvetica,sans-Serif" font-size="10.00">CookieEngine</text>
</a>
</g>
</g>
<!-- Node1&#45;&gt;Node18 -->
<g id="edge17_Node000001_Node000018" class="edge">
<title>Node1&#45;&gt;Node18</title>
<g id="a_edge17_Node000001_Node000018"><a xlink:title=" ">
<path fill="none" stroke="#63b8ff" d="M193.91,-351.57C215.15,-319.15 258,-261.2 310,-231 320.18,-225.09 331.66,-220.63 343.26,-217.27"/>
<polygon fill="#63b8ff" stroke="#63b8ff" points="190.96,-349.69 188.51,-360 196.85,-353.47 190.96,-349.69"/>
</a>
</g>
</g>
<!-- Node19 -->
<g id="Node000019" class="node">
<title>Node19</title>
<g id="a_Node000019"><a xlink:href="classtests_1_1test__javascriptbuilder_1_1_delayed_execution_engine1.html" target="_top" xlink:title=" ">
<polygon fill="white" stroke="#666666" points="495.5,-174 343.5,-174 343.5,-144 495.5,-144 495.5,-174"/>
<text text-anchor="start" x="351.5" y="-162" font-family="Helvetica,sans-Serif" font-size="10.00">tests.test_javascriptbuilder.</text>
<text text-anchor="middle" x="419.5" y="-151" font-family="Helvetica,sans-Serif" font-size="10.00">DelayedExecutionEngine1</text>
</a>
</g>
</g>
<!-- Node1&#45;&gt;Node19 -->
<g id="edge18_Node000001_Node000019" class="edge">
<title>Node1&#45;&gt;Node19</title>
<g id="a_edge18_Node000001_Node000019"><a xlink:title=" ">
<path fill="none" stroke="#63b8ff" d="M188.96,-350.56C206.3,-309.13 247.28,-225.52 310,-183 319.98,-176.23 331.55,-171.34 343.35,-167.81"/>
<polygon fill="#63b8ff" stroke="#63b8ff" points="185.68,-349.31 185.15,-359.89 192.17,-351.96 185.68,-349.31"/>
</a>
</g>
</g>
<!-- Node20 -->
<g id="Node000020" class="node">
<title>Node20</title>
<g id="a_Node000020"><a xlink:href="classtests_1_1test__javascriptbuilder_1_1_delayed_execution_engine2.html" target="_top" xlink:title=" ">
<polygon fill="white" stroke="#666666" points="495.5,-126 343.5,-126 343.5,-96 495.5,-96 495.5,-126"/>
<text text-anchor="start" x="351.5" y="-114" font-family="Helvetica,sans-Serif" font-size="10.00">tests.test_javascriptbuilder.</text>
<text text-anchor="middle" x="419.5" y="-103" font-family="Helvetica,sans-Serif" font-size="10.00">DelayedExecutionEngine2</text>
</a>
</g>
</g>
<!-- Node1&#45;&gt;Node20 -->
<g id="edge19_Node000001_Node000020" class="edge">
<title>Node1&#45;&gt;Node20</title>
<g id="a_edge19_Node000001_Node000020"><a xlink:title=" ">
<path fill="none" stroke="#63b8ff" d="M185.67,-349.87C199.18,-300.43 236.22,-190.54 310,-135 319.79,-127.63 331.4,-122.44 343.32,-118.81"/>
<polygon fill="#63b8ff" stroke="#63b8ff" points="182.24,-349.17 183.07,-359.73 189.01,-350.95 182.24,-349.17"/>
</a>
</g>
</g>
<!-- Node21 -->
<g id="Node000021" class="node">
<title>Node21</title>
<g id="a_Node000021"><a xlink:href="classtests_1_1test__javascriptbuilder_1_1_delayed_execution_engine3.html" target="_top" xlink:title=" ">
<polygon fill="white" stroke="#666666" points="495.5,-78 343.5,-78 343.5,-48 495.5,-48 495.5,-78"/>
<text text-anchor="start" x="351.5" y="-66" font-family="Helvetica,sans-Serif" font-size="10.00">tests.test_javascriptbuilder.</text>
<text text-anchor="middle" x="419.5" y="-55" font-family="Helvetica,sans-Serif" font-size="10.00">DelayedExecutionEngine3</text>
</a>
</g>
</g>
<!-- Node1&#45;&gt;Node21 -->
<g id="edge20_Node000001_Node000021" class="edge">
<title>Node1&#45;&gt;Node21</title>
<g id="a_edge20_Node000001_Node000021"><a xlink:title=" ">
<path fill="none" stroke="#63b8ff" d="M183.24,-349.75C193,-293.25 224.67,-156.22 310,-87 319.66,-79.16 331.35,-73.75 343.41,-70.04"/>
<polygon fill="#63b8ff" stroke="#63b8ff" points="179.73,-349.49 181.57,-359.93 186.64,-350.63 179.73,-349.49"/>
</a>
</g>
</g>
<!-- Node22 -->
<g id="Node000022" class="node">
<title>Node22</title>
<g id="a_Node000022"><a xlink:href="classtests_1_1test__javascriptbuilder_1_1_test_engine.html" target="_top" xlink:title=" ">
<polygon fill="white" stroke="#666666" points="495.5,-30 343.5,-30 343.5,0 495.5,0 495.5,-30"/>
<text text-anchor="start" x="351.5" y="-18" font-family="Helvetica,sans-Serif" font-size="10.00">tests.test_javascriptbuilder.</text>
<text text-anchor="middle" x="419.5" y="-7" font-family="Helvetica,sans-Serif" font-size="10.00">TestEngine</text>
</a>
</g>
</g>
<!-- Node1&#45;&gt;Node22 -->
<g id="edge21_Node000001_Node000022" class="edge">
<title>Node1&#45;&gt;Node22</title>
<g id="a_edge21_Node000001_Node000022"><a xlink:title=" ">
<path fill="none" stroke="#63b8ff" d="M181.45,-349.55C187.71,-286.51 212.99,-122.21 310,-39 319.52,-30.84 331.2,-25.27 343.33,-21.51"/>
<polygon fill="#63b8ff" stroke="#63b8ff" points="177.94,-349.49 180.52,-359.77 184.91,-350.13 177.94,-349.49"/>
</a>
</g>
</g>
<!-- Node2 -->
<g id="Node000002" class="node">
<title>Node2</title>
<g id="a_Node000002"><a xlink:title=" ">
<polygon fill="white" stroke="#666666" points="47,-384.5 0,-384.5 0,-365.5 47,-365.5 47,-384.5"/>
<text text-anchor="middle" x="23.5" y="-372.5" font-family="Helvetica,sans-Serif" font-size="10.00">object</text>
</a>
</g>
</g>
<!-- Node2&#45;&gt;Node1 -->
<g id="edge1_Node000001_Node000002" class="edge">
<title>Node2&#45;&gt;Node1</title>
<g id="a_edge1_Node000001_Node000002"><a xlink:title=" ">
<path fill="none" stroke="#63b8ff" d="M57.1,-375C64.92,-375 73.65,-375 82.75,-375"/>
<polygon fill="#63b8ff" stroke="#63b8ff" points="57.08,-371.5 47.08,-375 57.08,-378.5 57.08,-371.5"/>
</a>
</g>
</g>
<!-- Node9 -->
<g id="Node000009" class="node">
<title>Node9</title>
<g id="a_Node000009"><a xlink:href="classfiftyone__pipeline__cloudrequestengine_1_1cloudengine_1_1_cloud_engine.html" target="_top" xlink:title="This is a template for all 51Degrees cloud engines.">
<polygon fill="white" stroke="#666666" points="847.5,-582 583.5,-582 583.5,-552 847.5,-552 847.5,-582"/>
<text text-anchor="start" x="591.5" y="-570" font-family="Helvetica,sans-Serif" font-size="10.00">fiftyone_pipeline_cloudrequestengine.cloudengine.</text>
<text text-anchor="middle" x="715.5" y="-559" font-family="Helvetica,sans-Serif" font-size="10.00">CloudEngine</text>
</a>
</g>
</g>
<!-- Node8&#45;&gt;Node9 -->
<g id="edge8_Node000008_Node000009" class="edge">
<title>Node8&#45;&gt;Node9</title>
<g id="a_edge8_Node000008_Node000009"><a xlink:title=" ">
<path fill="none" stroke="#63b8ff" d="M513.32,-513.08C518.69,-514.88 523.95,-516.85 529,-519 546.69,-526.54 547.1,-535.98 565,-543 573.81,-546.45 583.1,-549.41 592.56,-551.94"/>
<polygon fill="#63b8ff" stroke="#63b8ff" points="514.15,-509.67 503.56,-510.01 512.05,-516.35 514.15,-509.67"/>
</a>
</g>
</g>
<!-- Node10 -->
<g id="Node000010" class="node">
<title>Node10</title>
<g id="a_Node000010"><a xlink:href="classfiftyone__pipeline__cloudrequestengine_1_1cloudrequestengine_1_1_cloud_request_engine.html" target="_top" xlink:title=" ">
<polygon fill="white" stroke="#666666" points="866,-534 565,-534 565,-504 866,-504 866,-534"/>
<text text-anchor="start" x="573" y="-522" font-family="Helvetica,sans-Serif" font-size="10.00">fiftyone_pipeline_cloudrequestengine.cloudrequestengine.</text>
<text text-anchor="middle" x="715.5" y="-511" font-family="Helvetica,sans-Serif" font-size="10.00">CloudRequestEngine</text>
</a>
</g>
</g>
<!-- Node8&#45;&gt;Node10 -->
<g id="edge9_Node000008_Node000010" class="edge">
<title>Node8&#45;&gt;Node10</title>
<g id="a_edge9_Node000008_Node000010"><a xlink:title=" ">
<path fill="none" stroke="#63b8ff" d="M519.53,-503.08C534.17,-504.28 549.53,-505.53 564.93,-506.79"/>
<polygon fill="#63b8ff" stroke="#63b8ff" points="519.76,-499.59 509.51,-502.27 519.19,-506.57 519.76,-499.59"/>
</a>
</g>
</g>
<!-- Node11 -->
<g id="Node000011" class="node">
<title>Node11</title>
<g id="a_Node000011"><a xlink:href="classfiftyone__pipeline__engines__fiftyone_1_1share__usage_1_1_share_usage.html" target="_top" xlink:title=" ">
<polygon fill="white" stroke="#666666" points="808,-486 623,-486 623,-456 808,-456 808,-486"/>
<text text-anchor="start" x="631" y="-474" font-family="Helvetica,sans-Serif" font-size="10.00">fiftyone_pipeline_engines</text>
<text text-anchor="middle" x="715.5" y="-463" font-family="Helvetica,sans-Serif" font-size="10.00">_fiftyone.share_usage.ShareUsage</text>
</a>
</g>
</g>
<!-- Node8&#45;&gt;Node11 -->
<g id="edge10_Node000008_Node000011" class="edge">
<title>Node8&#45;&gt;Node11</title>
<g id="a_edge10_Node000008_Node000011"><a xlink:title=" ">
<path fill="none" stroke="#63b8ff" d="M519.74,-486.9C553.14,-484.17 590.23,-481.14 623,-478.47"/>
<polygon fill="#63b8ff" stroke="#63b8ff" points="519.19,-483.43 509.51,-487.73 519.76,-490.41 519.19,-483.43"/>
</a>
</g>
</g>
<!-- Node12 -->
<g id="Node000012" class="node">
<title>Node12</title>
<g id="a_Node000012"><a xlink:href="classtests_1_1test__engines_1_1_example_aspect_engine.html" target="_top" xlink:title=" ">
<polygon fill="white" stroke="#666666" points="791.5,-438 639.5,-438 639.5,-408 791.5,-408 791.5,-438"/>
<text text-anchor="start" x="647.5" y="-426" font-family="Helvetica,sans-Serif" font-size="10.00">tests.test_engines.Example</text>
<text text-anchor="middle" x="715.5" y="-415" font-family="Helvetica,sans-Serif" font-size="10.00">AspectEngine</text>
</a>
</g>
</g>
<!-- Node8&#45;&gt;Node12 -->
<g id="edge11_Node000008_Node000012" class="edge">
<title>Node8&#45;&gt;Node12</title>
<g id="a_edge11_Node000008_Node000012"><a xlink:title=" ">
<path fill="none" stroke="#63b8ff" d="M513.32,-476.92C518.69,-475.12 523.95,-473.15 529,-471 546.69,-463.46 547.1,-454.02 565,-447 588.37,-437.84 615.11,-432.17 639.45,-428.67"/>
<polygon fill="#63b8ff" stroke="#63b8ff" points="512.05,-473.65 503.56,-479.99 514.15,-480.33 512.05,-473.65"/>
</a>
</g>
</g>
</g>
</svg>
