<?xml version="1.0" encoding="UTF-8" standalone="no"?>
<!DOCTYPE svg PUBLIC "-//W3C//DTD SVG 1.1//EN"
 "http://www.w3.org/Graphics/SVG/1.1/DTD/svg11.dtd">
<!-- Generated by graphviz version 2.43.0 (0)
 -->
<!-- Title: fiftyone_pipeline_core.elementdata.ElementData Pages: 1 -->
<svg width="1043pt" height="86pt"
 viewBox="0.00 0.00 1043.00 86.00" xmlns="http://www.w3.org/2000/svg" xmlns:xlink="http://www.w3.org/1999/xlink">
<g id="graph0" class="graph" transform="scale(1 1) rotate(0) translate(4 82)">
<title>fiftyone_pipeline_core.elementdata.ElementData</title>
<!-- Node1 -->
<g id="Node000001" class="node">
<title>Node1</title>
<g id="a_Node000001"><a xlink:title="Core ElementData class Stores information created by a FlowElement based on FlowData.">
<polygon fill="#999999" stroke="#666666" points="275,-54 83,-54 83,-24 275,-24 275,-54"/>
<text text-anchor="start" x="91" y="-42" font-family="Helvetica,sans-Serif" font-size="10.00">fiftyone_pipeline_core.elementdata.</text>
<text text-anchor="middle" x="179" y="-31" font-family="Helvetica,sans-Serif" font-size="10.00">ElementData</text>
</a>
</g>
</g>
<!-- Node3 -->
<g id="Node000003" class="node">
<title>Node3</title>
<g id="a_Node000003"><a xlink:href="classfiftyone__pipeline__core_1_1elementdata__dictionary_1_1_element_data_dictionary.html" target="_top" xlink:title="An extension of ElementData with dictionary object storage / lookup.">
<polygon fill="white" stroke="#666666" points="506,-78 317,-78 317,-48 506,-48 506,-78"/>
<text text-anchor="start" x="325" y="-66" font-family="Helvetica,sans-Serif" font-size="10.00">fiftyone_pipeline_core.elementdata</text>
<text text-anchor="middle" x="411.5" y="-55" font-family="Helvetica,sans-Serif" font-size="10.00">_dictionary.ElementDataDictionary</text>
</a>
</g>
</g>
<!-- Node1&#45;&gt;Node3 -->
<g id="edge2_Node000001_Node000003" class="edge">
<title>Node1&#45;&gt;Node3</title>
<g id="a_edge2_Node000001_Node000003"><a xlink:title=" ">
<path fill="none" stroke="#63b8ff" d="M285.14,-49.95C295.68,-51.05 306.34,-52.15 316.75,-53.24"/>
<polygon fill="#63b8ff" stroke="#63b8ff" points="285.39,-46.45 275.08,-48.9 284.67,-53.42 285.39,-46.45"/>
</a>
</g>
</g>
<!-- Node4 -->
<g id="Node000004" class="node">
<title>Node4</title>
<g id="a_Node000004"><a xlink:href="classfiftyone__pipeline__engines_1_1aspectdata_1_1_aspect_data.html" target="_top" xlink:title="AspectData extends elementData by adding the option of a missing property service It also allows prop...">
<polygon fill="white" stroke="#666666" points="512,-30 311,-30 311,0 512,0 512,-30"/>
<text text-anchor="start" x="319" y="-18" font-family="Helvetica,sans-Serif" font-size="10.00">fiftyone_pipeline_engines.aspectdata.</text>
<text text-anchor="middle" x="411.5" y="-7" font-family="Helvetica,sans-Serif" font-size="10.00">AspectData</text>
</a>
</g>
</g>
<!-- Node1&#45;&gt;Node4 -->
<g id="edge3_Node000001_Node000004" class="edge">
<title>Node1&#45;&gt;Node4</title>
<g id="a_edge3_Node000001_Node000004"><a xlink:title=" ">
<path fill="none" stroke="#63b8ff" d="M285.08,-28.06C293.64,-27.17 302.27,-26.27 310.78,-25.38"/>
<polygon fill="#63b8ff" stroke="#63b8ff" points="284.67,-24.58 275.08,-29.1 285.39,-31.55 284.67,-24.58"/>
</a>
</g>
</g>
<!-- Node2 -->
<g id="Node000002" class="node">
<title>Node2</title>
<g id="a_Node000002"><a xlink:title=" ">
<polygon fill="white" stroke="#666666" points="47,-48.5 0,-48.5 0,-29.5 47,-29.5 47,-48.5"/>
<text text-anchor="middle" x="23.5" y="-36.5" font-family="Helvetica,sans-Serif" font-size="10.00">object</text>
</a>
</g>
</g>
<!-- Node2&#45;&gt;Node1 -->
<g id="edge1_Node000001_Node000002" class="edge">
<title>Node2&#45;&gt;Node1</title>
<g id="a_edge1_Node000001_Node000002"><a xlink:title=" ">
<path fill="none" stroke="#63b8ff" d="M57.21,-39C65.05,-39 73.81,-39 82.94,-39"/>
<polygon fill="#63b8ff" stroke="#63b8ff" points="57.15,-35.5 47.15,-39 57.15,-42.5 57.15,-35.5"/>
</a>
</g>
</g>
<!-- Node5 -->
<g id="Node000005" class="node">
<title>Node5</title>
<g id="a_Node000005"><a xlink:href="classfiftyone__pipeline__engines_1_1aspectdata__dictionary_1_1_aspect_data_dictionary.html" target="_top" xlink:title="AspectDataDictionary class extension that stores content as dictionary.">
<polygon fill="white" stroke="#666666" points="746,-30 548,-30 548,0 746,0 746,-30"/>
<text text-anchor="start" x="556" y="-18" font-family="Helvetica,sans-Serif" font-size="10.00">fiftyone_pipeline_engines.aspectdata</text>
<text text-anchor="middle" x="647" y="-7" font-family="Helvetica,sans-Serif" font-size="10.00">_dictionary.AspectDataDictionary</text>
</a>
</g>
</g>
<!-- Node4&#45;&gt;Node5 -->
<g id="edge4_Node000004_Node000005" class="edge">
<title>Node4&#45;&gt;Node5</title>
<g id="a_edge4_Node000004_Node000005"><a xlink:title=" ">
<path fill="none" stroke="#63b8ff" d="M522.46,-15C530.9,-15 539.39,-15 547.75,-15"/>
<polygon fill="#63b8ff" stroke="#63b8ff" points="522.2,-11.5 512.2,-15 522.2,-18.5 522.2,-11.5"/>
</a>
</g>
</g>
<!-- Node6 -->
<g id="Node000006" class="node">
<title>Node6</title>
<g id="a_Node000006"><a xlink:href="classfiftyone__pipeline__cloudrequestengine_1_1clouddata_1_1_cloud_data.html" target="_top" xlink:title="Extention of AspectData made for retrieving cloud engine results.">
<polygon fill="white" stroke="#666666" points="1035,-30 782,-30 782,0 1035,0 1035,-30"/>
<text text-anchor="start" x="790" y="-18" font-family="Helvetica,sans-Serif" font-size="10.00">fiftyone_pipeline_cloudrequestengine.clouddata.</text>
<text text-anchor="middle" x="908.5" y="-7" font-family="Helvetica,sans-Serif" font-size="10.00">CloudData</text>
</a>
</g>
</g>
<!-- Node5&#45;&gt;Node6 -->
<g id="edge5_Node000005_Node000006" class="edge">
<title>Node5&#45;&gt;Node6</title>
<g id="a_edge5_Node000005_Node000006"><a xlink:title=" ">
<path fill="none" stroke="#63b8ff" d="M756.27,-15C764.66,-15 773.17,-15 781.66,-15"/>
<polygon fill="#63b8ff" stroke="#63b8ff" points="756.11,-11.5 746.11,-15 756.11,-18.5 756.11,-11.5"/>
</a>
</g>
</g>
</g>
</svg>
