<?xml version="1.0" encoding="UTF-8" standalone="no"?>
<!DOCTYPE svg PUBLIC "-//W3C//DTD SVG 1.1//EN"
 "http://www.w3.org/Graphics/SVG/1.1/DTD/svg11.dtd">
<!-- Generated by graphviz version 2.43.0 (0)
 -->
<!-- Title: FiftyOne.IpIntelligence.Examples.OnPremise.Metrics.Program.Metric Pages: 1 -->
<svg width="254pt" height="170pt"
 viewBox="0.00 0.00 254.00 170.00" xmlns="http://www.w3.org/2000/svg" xmlns:xlink="http://www.w3.org/1999/xlink">
<g id="graph0" class="graph" transform="scale(1 1) rotate(0) translate(4 166)">
<title>FiftyOne.IpIntelligence.Examples.OnPremise.Metrics.Program.Metric</title>
<!-- Node1 -->
<g id="Node000001" class="node">
<title>Node1</title>
<g id="a_Node000001"><a xlink:title=" ">
<polygon fill="#999999" stroke="#666666" points="224,-41 17,-41 17,0 224,0 224,-41"/>
<text text-anchor="start" x="25" y="-29" font-family="Helvetica,sans-Serif" font-size="10.00">FiftyOne.IpIntelligence.</text>
<text text-anchor="start" x="25" y="-18" font-family="Helvetica,sans-Serif" font-size="10.00">Examples.OnPremise.Metrics.Program.</text>
<text text-anchor="middle" x="120.5" y="-7" font-family="Helvetica,sans-Serif" font-size="10.00">Metric</text>
</a>
</g>
</g>
<!-- Node2 -->
<g id="Node000002" class="node">
<title>Node2</title>
<g id="a_Node000002"><a xlink:href="class_fifty_one_1_1_ip_intelligence_1_1_examples_1_1_on_premise_1_1_metrics_1_1_program_1_1_key.html" target="_top" xlink:title="Key used for each metric.">
<polygon fill="white" stroke="#666666" points="233,-107 8,-107 8,-77 233,-77 233,-107"/>
<text text-anchor="start" x="16" y="-95" font-family="Helvetica,sans-Serif" font-size="10.00">FiftyOne.IpIntelligence.</text>
<text text-anchor="middle" x="120.5" y="-84" font-family="Helvetica,sans-Serif" font-size="10.00">Examples.OnPremise.Metrics.Program.Key</text>
</a>
</g>
</g>
<!-- Node2&#45;&gt;Node1 -->
<g id="edge1_Node000001_Node000002" class="edge">
<title>Node2&#45;&gt;Node1</title>
<g id="a_edge1_Node000001_Node000002"><a xlink:title=" ">
<path fill="none" stroke="#63b8ff" d="M120.5,-66.91C120.5,-58.47 120.5,-49.1 120.5,-41.07"/>
<polygon fill="#63b8ff" stroke="#63b8ff" points="117,-66.94 120.5,-76.94 124,-66.94 117,-66.94"/>
</a>
</g>
</g>
<!-- Node3 -->
<g id="Node000003" class="node">
<title>Node3</title>
<g id="a_Node000003"><a xlink:title=" ">
<polygon fill="white" stroke="#bfbfbf" points="109,-162 0,-162 0,-143 109,-143 109,-162"/>
<text text-anchor="middle" x="54.5" y="-150" font-family="Helvetica,sans-Serif" font-size="10.00">IEquatable&lt; Key &gt;</text>
</a>
</g>
</g>
<!-- Node3&#45;&gt;Node2 -->
<g id="edge2_Node000002_Node000003" class="edge">
<title>Node3&#45;&gt;Node2</title>
<g id="a_edge2_Node000002_Node000003"><a xlink:title=" ">
<path fill="none" stroke="#63b8ff" d="M71.72,-136.23C81.88,-127.23 94.65,-115.91 104.58,-107.11"/>
<polygon fill="#63b8ff" stroke="#63b8ff" points="69.4,-133.62 64.24,-142.87 74.04,-138.85 69.4,-133.62"/>
</a>
</g>
</g>
<!-- Node4 -->
<g id="Node000004" class="node">
<title>Node4</title>
<g id="a_Node000004"><a xlink:title=" ">
<polygon fill="white" stroke="#bfbfbf" points="246,-162 127,-162 127,-143 246,-143 246,-162"/>
<text text-anchor="middle" x="186.5" y="-150" font-family="Helvetica,sans-Serif" font-size="10.00">IComparable&lt; Key &gt;</text>
</a>
</g>
</g>
<!-- Node4&#45;&gt;Node2 -->
<g id="edge3_Node000002_Node000004" class="edge">
<title>Node4&#45;&gt;Node2</title>
<g id="a_edge3_Node000002_Node000004"><a xlink:title=" ">
<path fill="none" stroke="#63b8ff" d="M169.28,-136.23C159.12,-127.23 146.35,-115.91 136.42,-107.11"/>
<polygon fill="#63b8ff" stroke="#63b8ff" points="166.96,-138.85 176.76,-142.87 171.6,-133.62 166.96,-138.85"/>
</a>
</g>
</g>
</g>
</svg>
