<?xml version="1.0" encoding="UTF-8" standalone="no"?>
<!DOCTYPE svg PUBLIC "-//W3C//DTD SVG 1.1//EN"
 "http://www.w3.org/Graphics/SVG/1.1/DTD/svg11.dtd">
<!-- Generated by graphviz version 2.43.0 (0)
 -->
<!-- Title: Program.Metric Pages: 1 -->
<svg width="254pt" height="140pt"
 viewBox="0.00 0.00 254.00 140.00" xmlns="http://www.w3.org/2000/svg" xmlns:xlink="http://www.w3.org/1999/xlink">
<g id="graph0" class="graph" transform="scale(1 1) rotate(0) translate(4 136)">
<title>Program.Metric</title>
<!-- Node0 -->
<g id="node1" class="node">
<title>Node0</title>
<g id="a_node1"><a xlink:title=" ">
<polygon fill="#bfbfbf" stroke="black" points="74.5,-0.5 74.5,-19.5 166.5,-19.5 166.5,-0.5 74.5,-0.5"/>
<text text-anchor="middle" x="120.5" y="-7.5" font-family="Helvetica,sans-Serif" font-size="10.00">Program.Metric</text>
</a>
</g>
</g>
<!-- Node1 -->
<g id="node2" class="node">
<title>Node1</title>
<g id="a_node2"><a xlink:href="class_program_1_1_key.html" target="_top" xlink:title="Key used for each metric.">
<polygon fill="none" stroke="black" points="103,-56.5 103,-75.5 138,-75.5 138,-56.5 103,-56.5"/>
<text text-anchor="middle" x="120.5" y="-63.5" font-family="Helvetica,sans-Serif" font-size="10.00">Key</text>
</a>
</g>
</g>
<!-- Node1&#45;&gt;Node0 -->
<g id="edge1" class="edge">
<title>Node1&#45;&gt;Node0</title>
<path fill="none" stroke="midnightblue" d="M120.5,-45.8C120.5,-36.91 120.5,-26.78 120.5,-19.75"/>
<polygon fill="midnightblue" stroke="midnightblue" points="117,-46.08 120.5,-56.08 124,-46.08 117,-46.08"/>
</g>
<!-- Node2 -->
<g id="node3" class="node">
<title>Node2</title>
<g id="a_node3"><a xlink:title=" ">
<polygon fill="none" stroke="#bfbfbf" points="0,-112.5 0,-131.5 109,-131.5 109,-112.5 0,-112.5"/>
<text text-anchor="middle" x="54.5" y="-119.5" font-family="Helvetica,sans-Serif" font-size="10.00">IEquatable&lt; Key &gt;</text>
</a>
</g>
</g>
<!-- Node2&#45;&gt;Node1 -->
<g id="edge2" class="edge">
<title>Node2&#45;&gt;Node1</title>
<path fill="none" stroke="midnightblue" d="M73.05,-105.82C84.88,-96.15 99.79,-83.95 109.7,-75.83"/>
<polygon fill="midnightblue" stroke="midnightblue" points="70.63,-103.28 65.1,-112.32 75.06,-108.7 70.63,-103.28"/>
</g>
<!-- Node3 -->
<g id="node4" class="node">
<title>Node3</title>
<g id="a_node4"><a xlink:title=" ">
<polygon fill="none" stroke="#bfbfbf" points="127,-112.5 127,-131.5 246,-131.5 246,-112.5 127,-112.5"/>
<text text-anchor="middle" x="186.5" y="-119.5" font-family="Helvetica,sans-Serif" font-size="10.00">IComparable&lt; Key &gt;</text>
</a>
</g>
</g>
<!-- Node3&#45;&gt;Node1 -->
<g id="edge3" class="edge">
<title>Node3&#45;&gt;Node1</title>
<path fill="none" stroke="midnightblue" d="M167.95,-105.82C156.12,-96.15 141.21,-83.95 131.3,-75.83"/>
<polygon fill="midnightblue" stroke="midnightblue" points="165.94,-108.7 175.9,-112.32 170.37,-103.28 165.94,-108.7"/>
</g>
</g>
</svg>
