<?xml version="1.0" encoding="UTF-8" standalone="no"?>
<!DOCTYPE svg PUBLIC "-//W3C//DTD SVG 1.1//EN"
 "http://www.w3.org/Graphics/SVG/1.1/DTD/svg11.dtd">
<!-- Generated by graphviz version 2.43.0 (0)
 -->
<!-- Title: FiftyOne.IpIntelligence.Engine.OnPremise.Data.ValueMetaData Pages: 1 -->
<svg width="660pt" height="182pt"
 viewBox="0.00 0.00 660.00 182.00" xmlns="http://www.w3.org/2000/svg" xmlns:xlink="http://www.w3.org/1999/xlink">
<g id="graph0" class="graph" transform="scale(1 1) rotate(0) translate(4 178)">
<title>FiftyOne.IpIntelligence.Engine.OnPremise.Data.ValueMetaData</title>
<!-- Node1 -->
<g id="Node000001" class="node">
<title>Node1</title>
<g id="a_Node000001"><a xlink:title="Data class that contains meta&#45;data relating to a specific value.">
<polygon fill="#999999" stroke="#666666" points="652,-126.5 442,-126.5 442,-96.5 652,-96.5 652,-126.5"/>
<text text-anchor="start" x="450" y="-114.5" font-family="Helvetica,sans-Serif" font-size="10.00">FiftyOne.IpIntelligence.</text>
<text text-anchor="middle" x="547" y="-103.5" font-family="Helvetica,sans-Serif" font-size="10.00">Engine.OnPremise.Data.ValueMetaData</text>
</a>
</g>
</g>
<!-- Node2 -->
<g id="Node000002" class="node">
<title>Node2</title>
<g id="a_Node000002"><a xlink:title=" ">
<polygon fill="white" stroke="#bfbfbf" points="318,-174 223,-174 223,-155 318,-155 318,-174"/>
<text text-anchor="middle" x="270.5" y="-162" font-family="Helvetica,sans-Serif" font-size="10.00">IValueMetaData</text>
</a>
</g>
</g>
<!-- Node2&#45;&gt;Node1 -->
<g id="edge1_Node000001_Node000002" class="edge">
<title>Node2&#45;&gt;Node1</title>
<g id="a_edge1_Node000001_Node000002"><a xlink:title=" ">
<path fill="none" stroke="#63b8ff" d="M328.03,-153.58C368.54,-145.76 423.6,-135.13 468.24,-126.51"/>
<polygon fill="#63b8ff" stroke="#63b8ff" points="327.22,-150.18 318.07,-155.51 328.55,-157.05 327.22,-150.18"/>
</a>
</g>
</g>
<!-- Node3 -->
<g id="Node000003" class="node">
<title>Node3</title>
<g id="a_Node000003"><a xlink:title=" ">
<polygon fill="white" stroke="#bfbfbf" points="307.5,-137 233.5,-137 233.5,-118 307.5,-118 307.5,-137"/>
<text text-anchor="middle" x="270.5" y="-125" font-family="Helvetica,sans-Serif" font-size="10.00">IDisposable</text>
</a>
</g>
</g>
<!-- Node3&#45;&gt;Node1 -->
<g id="edge2_Node000001_Node000003" class="edge">
<title>Node3&#45;&gt;Node1</title>
<g id="a_edge2_Node000001_Node000003"><a xlink:title=" ">
<path fill="none" stroke="#63b8ff" d="M317.74,-124.8C351.67,-122.83 399.1,-120.06 441.94,-117.57"/>
<polygon fill="#63b8ff" stroke="#63b8ff" points="317.45,-121.32 307.67,-125.39 317.86,-128.3 317.45,-121.32"/>
</a>
</g>
</g>
<!-- Node4 -->
<g id="Node000004" class="node">
<title>Node4</title>
<g id="a_Node000004"><a xlink:title=" ">
<polygon fill="white" stroke="#bfbfbf" points="357,-100 184,-100 184,-59 357,-59 357,-100"/>
<text text-anchor="start" x="192" y="-88" font-family="Helvetica,sans-Serif" font-size="10.00">FiftyOne.IpIntelligence.</text>
<text text-anchor="start" x="192" y="-77" font-family="Helvetica,sans-Serif" font-size="10.00">Engine.OnPremise.Interop.Value</text>
<text text-anchor="middle" x="270.5" y="-66" font-family="Helvetica,sans-Serif" font-size="10.00">MetaDataSwig</text>
</a>
</g>
</g>
<!-- Node4&#45;&gt;Node1 -->
<g id="edge3_Node000001_Node000004" class="edge">
<title>Node4&#45;&gt;Node1</title>
<g id="a_edge3_Node000001_Node000004"><a xlink:title=" ">
<path fill="none" stroke="#9a32cd" stroke-dasharray="5,2" d="M367.39,-90.68C391.39,-93.48 417.25,-96.49 441.63,-99.33"/>
<polygon fill="#9a32cd" stroke="#9a32cd" points="367.56,-87.17 357.22,-89.49 366.75,-94.13 367.56,-87.17"/>
</a>
</g>
<text text-anchor="start" x="382.5" y="-101" font-family="Helvetica,sans-Serif" font-size="10.00" fill="grey">_source</text>
</g>
<!-- Node5 -->
<g id="Node000005" class="node">
<title>Node5</title>
<g id="a_Node000005"><a xlink:title=" ">
<polygon fill="white" stroke="#bfbfbf" points="143,-89 0,-89 0,-70 143,-70 143,-89"/>
<text text-anchor="middle" x="71.5" y="-77" font-family="Helvetica,sans-Serif" font-size="10.00">global.SystemIDisposable</text>
</a>
</g>
</g>
<!-- Node5&#45;&gt;Node4 -->
<g id="edge4_Node000004_Node000005" class="edge">
<title>Node5&#45;&gt;Node4</title>
<g id="a_edge4_Node000004_Node000005"><a xlink:title=" ">
<path fill="none" stroke="#63b8ff" d="M153.12,-79.5C163.28,-79.5 173.71,-79.5 183.94,-79.5"/>
<polygon fill="#63b8ff" stroke="#63b8ff" points="153.07,-76 143.07,-79.5 153.07,-83 153.07,-76"/>
</a>
</g>
</g>
<!-- Node6 -->
<g id="Node000006" class="node">
<title>Node6</title>
<g id="a_Node000006"><a xlink:href="class_fifty_one_1_1_ip_intelligence_1_1_engine_1_1_on_premise_1_1_flow_elements_1_1_ipi_on_premise_engine.html" target="_top" xlink:title="IP intelligence engine.">
<polygon fill="white" stroke="#666666" points="361,-41 180,-41 180,0 361,0 361,-41"/>
<text text-anchor="start" x="188" y="-29" font-family="Helvetica,sans-Serif" font-size="10.00">FiftyOne.IpIntelligence.</text>
<text text-anchor="start" x="188" y="-18" font-family="Helvetica,sans-Serif" font-size="10.00">Engine.OnPremise.FlowElements.</text>
<text text-anchor="middle" x="270.5" y="-7" font-family="Helvetica,sans-Serif" font-size="10.00">IpiOnPremiseEngine</text>
</a>
</g>
</g>
<!-- Node6&#45;&gt;Node1 -->
<g id="edge5_Node000001_Node000006" class="edge">
<title>Node6&#45;&gt;Node1</title>
<g id="a_edge5_Node000001_Node000006"><a xlink:title=" ">
<path fill="none" stroke="#9a32cd" stroke-dasharray="5,2" d="M343.18,-44.26C392.94,-60.76 457.72,-82.23 500.52,-96.42"/>
<polygon fill="#9a32cd" stroke="#9a32cd" points="344.04,-40.86 333.45,-41.04 341.84,-47.5 344.04,-40.86"/>
</a>
</g>
<text text-anchor="start" x="382.5" y="-74" font-family="Helvetica,sans-Serif" font-size="10.00" fill="grey">_engine</text>
</g>
<!-- Node7 -->
<g id="Node000007" class="node">
<title>Node7</title>
<g id="a_Node000007"><a xlink:title=" ">
<polygon fill="white" stroke="#bfbfbf" points="141,-35.5 2,-35.5 2,-5.5 141,-5.5 141,-35.5"/>
<text text-anchor="start" x="10" y="-23.5" font-family="Helvetica,sans-Serif" font-size="10.00">OnPremiseIpiEngineBase</text>
<text text-anchor="middle" x="71.5" y="-12.5" font-family="Helvetica,sans-Serif" font-size="10.00">&lt; IIpDataOnPremise &gt;</text>
</a>
</g>
</g>
<!-- Node7&#45;&gt;Node6 -->
<g id="edge6_Node000006_Node000007" class="edge">
<title>Node7&#45;&gt;Node6</title>
<g id="a_edge6_Node000006_Node000007"><a xlink:title=" ">
<path fill="none" stroke="#63b8ff" d="M151.26,-20.5C160.7,-20.5 170.4,-20.5 179.98,-20.5"/>
<polygon fill="#63b8ff" stroke="#63b8ff" points="151.12,-17 141.12,-20.5 151.12,-24 151.12,-17"/>
</a>
</g>
</g>
</g>
</svg>
