<?xml version="1.0" encoding="UTF-8" standalone="no"?>
<!DOCTYPE svg PUBLIC "-//W3C//DTD SVG 1.1//EN"
 "http://www.w3.org/Graphics/SVG/1.1/DTD/svg11.dtd">
<!-- Generated by graphviz version 2.43.0 (0)
 -->
<!-- Title: FiftyOne.IpIntelligence.Engine.OnPremise.Interop.WeightedStringListSwig.WeightedStringListSwigEnumerator Pages: 1 -->
<svg width="312pt" height="126pt"
 viewBox="0.00 0.00 312.00 126.00" xmlns="http://www.w3.org/2000/svg" xmlns:xlink="http://www.w3.org/1999/xlink">
<g id="graph0" class="graph" transform="scale(1 1) rotate(0) translate(4 122)">
<title>FiftyOne.IpIntelligence.Engine.OnPremise.Interop.WeightedStringListSwig.WeightedStringListSwigEnumerator</title>
<!-- Node1 -->
<g id="Node000001" class="node">
<title>Node1</title>
<g id="a_Node000001"><a xlink:title="Note that the IEnumerator documentation requires an InvalidOperationException to be thrown whenever t...">
<polygon fill="#999999" stroke="#666666" points="253,-52 50,-52 50,0 253,0 253,-52"/>
<text text-anchor="start" x="58" y="-40" font-family="Helvetica,sans-Serif" font-size="10.00">FiftyOne.IpIntelligence.</text>
<text text-anchor="start" x="58" y="-29" font-family="Helvetica,sans-Serif" font-size="10.00">Engine.OnPremise.Interop.Weighted</text>
<text text-anchor="start" x="58" y="-18" font-family="Helvetica,sans-Serif" font-size="10.00">StringListSwig.WeightedStringListSwig</text>
<text text-anchor="middle" x="151.5" y="-7" font-family="Helvetica,sans-Serif" font-size="10.00">Enumerator</text>
</a>
</g>
</g>
<!-- Node2 -->
<g id="Node000002" class="node">
<title>Node2</title>
<g id="a_Node000002"><a xlink:title=" ">
<polygon fill="white" stroke="#bfbfbf" points="143,-118 0,-118 0,-88 143,-88 143,-118"/>
<text text-anchor="start" x="8" y="-106" font-family="Helvetica,sans-Serif" font-size="10.00">global.SystemCollections.</text>
<text text-anchor="middle" x="71.5" y="-95" font-family="Helvetica,sans-Serif" font-size="10.00">IEnumerator</text>
</a>
</g>
</g>
<!-- Node2&#45;&gt;Node1 -->
<g id="edge1_Node000001_Node000002" class="edge">
<title>Node2&#45;&gt;Node1</title>
<g id="a_edge1_Node000001_Node000002"><a xlink:title=" ">
<path fill="none" stroke="#63b8ff" d="M94.06,-80.85C103.54,-71.96 114.64,-61.56 124.54,-52.28"/>
<polygon fill="#63b8ff" stroke="#63b8ff" points="91.45,-78.5 86.55,-87.89 96.24,-83.61 91.45,-78.5"/>
</a>
</g>
</g>
<!-- Node3 -->
<g id="Node000003" class="node">
<title>Node3</title>
<g id="a_Node000003"><a xlink:title=" ">
<polygon fill="white" stroke="#bfbfbf" points="304,-118 161,-118 161,-88 304,-88 304,-118"/>
<text text-anchor="start" x="169" y="-106" font-family="Helvetica,sans-Serif" font-size="10.00">global.SystemCollections.</text>
<text text-anchor="middle" x="232.5" y="-95" font-family="Helvetica,sans-Serif" font-size="10.00">Generic.IEnumerator</text>
</a>
</g>
</g>
<!-- Node3&#45;&gt;Node1 -->
<g id="edge2_Node000001_Node000003" class="edge">
<title>Node3&#45;&gt;Node1</title>
<g id="a_edge2_Node000001_Node000003"><a xlink:title=" ">
<path fill="none" stroke="#63b8ff" d="M209.66,-80.85C200.06,-71.96 188.82,-61.56 178.8,-52.28"/>
<polygon fill="#63b8ff" stroke="#63b8ff" points="207.55,-83.67 217.26,-87.89 212.3,-78.53 207.55,-83.67"/>
</a>
</g>
</g>
</g>
</svg>
