<?xml version="1.0" encoding="UTF-8" standalone="no"?>
<!DOCTYPE svg PUBLIC "-//W3C//DTD SVG 1.1//EN"
 "http://www.w3.org/Graphics/SVG/1.1/DTD/svg11.dtd">
<!-- Generated by graphviz version 2.43.0 (0)
 -->
<!-- Title: FiftyOne.IpIntelligence.Cloud.Data.CloudCountriesTranslationData Pages: 1 -->
<svg width="266pt" height="95pt"
 viewBox="0.00 0.00 266.00 95.00" xmlns="http://www.w3.org/2000/svg" xmlns:xlink="http://www.w3.org/1999/xlink">
<g id="graph0" class="graph" transform="scale(1 1) rotate(0) translate(4 91)">
<title>FiftyOne.IpIntelligence.Cloud.Data.CloudCountriesTranslationData</title>
<!-- Node3 -->
<g id="node1" class="node">
<title>Node3</title>
<g id="a_node1"><a xlink:title="Cloud counterpart of the on&#45;premise FiftyOne.IpIntelligence.Translation.Data.CountriesTranslationData...">
<polygon fill="#bfbfbf" stroke="black" points="5.5,-0.5 5.5,-30.5 229.5,-30.5 229.5,-0.5 5.5,-0.5"/>
<text text-anchor="start" x="13.5" y="-18.5" font-family="Helvetica,sans-Serif" font-size="10.00">FiftyOne.IpIntelligence.</text>
<text text-anchor="middle" x="117.5" y="-7.5" font-family="Helvetica,sans-Serif" font-size="10.00">Cloud.Data.CloudCountriesTranslationData</text>
</a>
</g>
</g>
<!-- Node4 -->
<g id="node2" class="node">
<title>Node4</title>
<g id="a_node2"><a xlink:title=" ">
<polygon fill="none" stroke="#bfbfbf" points="0,-67.5 0,-86.5 97,-86.5 97,-67.5 0,-67.5"/>
<text text-anchor="middle" x="48.5" y="-74.5" font-family="Helvetica,sans-Serif" font-size="10.00">AspectDataBase</text>
</a>
</g>
</g>
<!-- Node4&#45;&gt;Node3 -->
<g id="edge1" class="edge">
<title>Node4&#45;&gt;Node3</title>
<path fill="none" stroke="midnightblue" d="M65.99,-60.92C76.82,-51.58 90.64,-39.66 101.24,-30.52"/>
<polygon fill="midnightblue" stroke="midnightblue" points="63.67,-58.29 58.39,-67.48 68.24,-63.6 63.67,-58.29"/>
</g>
<!-- Node5 -->
<g id="node3" class="node">
<title>Node5</title>
<g id="a_node3"><a xlink:title=" ">
<polygon fill="none" stroke="#bfbfbf" points="115,-67.5 115,-86.5 258,-86.5 258,-67.5 115,-67.5"/>
<text text-anchor="middle" x="186.5" y="-74.5" font-family="Helvetica,sans-Serif" font-size="10.00">ICountriesTranslationData</text>
</a>
</g>
</g>
<!-- Node5&#45;&gt;Node3 -->
<g id="edge2" class="edge">
<title>Node5&#45;&gt;Node3</title>
<path fill="none" stroke="midnightblue" d="M169.01,-60.92C158.18,-51.58 144.36,-39.66 133.76,-30.52"/>
<polygon fill="midnightblue" stroke="midnightblue" points="166.76,-63.6 176.61,-67.48 171.33,-58.29 166.76,-63.6"/>
</g>
</g>
</svg>
