<?xml version="1.0" encoding="UTF-8" standalone="no"?>
<!DOCTYPE svg PUBLIC "-//W3C//DTD SVG 1.1//EN"
 "http://www.w3.org/Graphics/SVG/1.1/DTD/svg11.dtd">
<!-- Generated by graphviz version 2.43.0 (0)
 -->
<!-- Title: FiftyOne.IpIntelligence.Engine.OnPremise.Data.ProfileMetaData Pages: 1 -->
<svg width="616pt" height="182pt"
 viewBox="0.00 0.00 616.00 182.00" xmlns="http://www.w3.org/2000/svg" xmlns:xlink="http://www.w3.org/1999/xlink">
<g id="graph0" class="graph" transform="scale(1 1) rotate(0) translate(4 178)">
<title>FiftyOne.IpIntelligence.Engine.OnPremise.Data.ProfileMetaData</title>
<!-- Node1 -->
<g id="Node000001" class="node">
<title>Node1</title>
<g id="a_Node000001"><a xlink:title="Data class that contains meta&#45;data relating to a specific profile.">
<polygon fill="#999999" stroke="#666666" points="608,-132 442,-132 442,-91 608,-91 608,-132"/>
<text text-anchor="start" x="450" y="-120" font-family="Helvetica,sans-Serif" font-size="10.00">FiftyOne.IpIntelligence.</text>
<text text-anchor="start" x="450" y="-109" font-family="Helvetica,sans-Serif" font-size="10.00">Engine.OnPremise.Data.Profile</text>
<text text-anchor="middle" x="525" y="-98" font-family="Helvetica,sans-Serif" font-size="10.00">MetaData</text>
</a>
</g>
</g>
<!-- Node2 -->
<g id="Node000002" class="node">
<title>Node2</title>
<g id="a_Node000002"><a xlink:title=" ">
<polygon fill="white" stroke="#bfbfbf" points="319.5,-174 221.5,-174 221.5,-155 319.5,-155 319.5,-174"/>
<text text-anchor="middle" x="270.5" y="-162" font-family="Helvetica,sans-Serif" font-size="10.00">IProfileMetaData</text>
</a>
</g>
</g>
<!-- Node2&#45;&gt;Node1 -->
<g id="edge1_Node000001_Node000002" class="edge">
<title>Node2&#45;&gt;Node1</title>
<g id="a_edge1_Node000001_Node000002"><a xlink:title=" ">
<path fill="none" stroke="#63b8ff" d="M329.33,-152.98C339.87,-150.85 350.77,-148.63 361,-146.5 387.35,-141.02 416.07,-134.9 441.96,-129.33"/>
<polygon fill="#63b8ff" stroke="#63b8ff" points="328.48,-149.59 319.37,-154.99 329.86,-156.45 328.48,-149.59"/>
</a>
</g>
</g>
<!-- Node3 -->
<g id="Node000003" class="node">
<title>Node3</title>
<g id="a_Node000003"><a xlink:title=" ">
<polygon fill="white" stroke="#bfbfbf" points="307.5,-137 233.5,-137 233.5,-118 307.5,-118 307.5,-137"/>
<text text-anchor="middle" x="270.5" y="-125" font-family="Helvetica,sans-Serif" font-size="10.00">IDisposable</text>
</a>
</g>
</g>
<!-- Node3&#45;&gt;Node1 -->
<g id="edge2_Node000001_Node000003" class="edge">
<title>Node3&#45;&gt;Node1</title>
<g id="a_edge2_Node000001_Node000003"><a xlink:title=" ">
<path fill="none" stroke="#63b8ff" d="M317.96,-124.56C352.56,-122.36 400.7,-119.31 441.75,-116.71"/>
<polygon fill="#63b8ff" stroke="#63b8ff" points="317.44,-121.08 307.68,-125.21 317.88,-128.07 317.44,-121.08"/>
</a>
</g>
</g>
<!-- Node4 -->
<g id="Node000004" class="node">
<title>Node4</title>
<g id="a_Node000004"><a xlink:href="class_fifty_one_1_1_ip_intelligence_1_1_engine_1_1_on_premise_1_1_flow_elements_1_1_ipi_on_premise_engine.html" target="_top" xlink:title="IP intelligence engine.">
<polygon fill="white" stroke="#666666" points="361,-100 180,-100 180,-59 361,-59 361,-100"/>
<text text-anchor="start" x="188" y="-88" font-family="Helvetica,sans-Serif" font-size="10.00">FiftyOne.IpIntelligence.</text>
<text text-anchor="start" x="188" y="-77" font-family="Helvetica,sans-Serif" font-size="10.00">Engine.OnPremise.FlowElements.</text>
<text text-anchor="middle" x="270.5" y="-66" font-family="Helvetica,sans-Serif" font-size="10.00">IpiOnPremiseEngine</text>
</a>
</g>
</g>
<!-- Node4&#45;&gt;Node1 -->
<g id="edge3_Node000001_Node000004" class="edge">
<title>Node4&#45;&gt;Node1</title>
<g id="a_edge3_Node000001_Node000004"><a xlink:title=" ">
<path fill="none" stroke="#9a32cd" stroke-dasharray="5,2" d="M371.34,-90.08C388.9,-92.1 407,-94.28 424,-96.5 429.83,-97.26 435.85,-98.08 441.9,-98.93"/>
<polygon fill="#9a32cd" stroke="#9a32cd" points="371.41,-86.57 361.08,-88.91 370.62,-93.52 371.41,-86.57"/>
</a>
</g>
<text text-anchor="start" x="382.5" y="-102" font-family="Helvetica,sans-Serif" font-size="10.00" fill="grey">_engine</text>
</g>
<!-- Node5 -->
<g id="Node000005" class="node">
<title>Node5</title>
<g id="a_Node000005"><a xlink:title=" ">
<polygon fill="white" stroke="#bfbfbf" points="141,-94.5 2,-94.5 2,-64.5 141,-64.5 141,-94.5"/>
<text text-anchor="start" x="10" y="-82.5" font-family="Helvetica,sans-Serif" font-size="10.00">OnPremiseIpiEngineBase</text>
<text text-anchor="middle" x="71.5" y="-71.5" font-family="Helvetica,sans-Serif" font-size="10.00">&lt; IIpDataOnPremise &gt;</text>
</a>
</g>
</g>
<!-- Node5&#45;&gt;Node4 -->
<g id="edge4_Node000004_Node000005" class="edge">
<title>Node5&#45;&gt;Node4</title>
<g id="a_edge4_Node000004_Node000005"><a xlink:title=" ">
<path fill="none" stroke="#63b8ff" d="M151.26,-79.5C160.7,-79.5 170.4,-79.5 179.98,-79.5"/>
<polygon fill="#63b8ff" stroke="#63b8ff" points="151.12,-76 141.12,-79.5 151.12,-83 151.12,-76"/>
</a>
</g>
</g>
<!-- Node6 -->
<g id="Node000006" class="node">
<title>Node6</title>
<g id="a_Node000006"><a xlink:title=" ">
<polygon fill="white" stroke="#bfbfbf" points="359,-41 182,-41 182,0 359,0 359,-41"/>
<text text-anchor="start" x="190" y="-29" font-family="Helvetica,sans-Serif" font-size="10.00">FiftyOne.IpIntelligence.</text>
<text text-anchor="start" x="190" y="-18" font-family="Helvetica,sans-Serif" font-size="10.00">Engine.OnPremise.Interop.Profile</text>
<text text-anchor="middle" x="270.5" y="-7" font-family="Helvetica,sans-Serif" font-size="10.00">MetaDataSwig</text>
</a>
</g>
</g>
<!-- Node6&#45;&gt;Node1 -->
<g id="edge5_Node000001_Node000006" class="edge">
<title>Node6&#45;&gt;Node1</title>
<g id="a_edge5_Node000001_Node000006"><a xlink:title=" ">
<path fill="none" stroke="#9a32cd" stroke-dasharray="5,2" d="M349.65,-44.18C373.65,-51.83 400.04,-60.64 424,-69.5 441.66,-76.03 460.78,-83.87 477.53,-91"/>
<polygon fill="#9a32cd" stroke="#9a32cd" points="350.47,-40.76 339.88,-41.08 348.35,-47.44 350.47,-40.76"/>
</a>
</g>
<text text-anchor="start" x="382.5" y="-75" font-family="Helvetica,sans-Serif" font-size="10.00" fill="grey">_source</text>
</g>
<!-- Node7 -->
<g id="Node000007" class="node">
<title>Node7</title>
<g id="a_Node000007"><a xlink:title=" ">
<polygon fill="white" stroke="#bfbfbf" points="143,-30 0,-30 0,-11 143,-11 143,-30"/>
<text text-anchor="middle" x="71.5" y="-18" font-family="Helvetica,sans-Serif" font-size="10.00">global.SystemIDisposable</text>
</a>
</g>
</g>
<!-- Node7&#45;&gt;Node6 -->
<g id="edge6_Node000006_Node000007" class="edge">
<title>Node7&#45;&gt;Node6</title>
<g id="a_edge6_Node000006_Node000007"><a xlink:title=" ">
<path fill="none" stroke="#63b8ff" d="M153.22,-20.5C162.67,-20.5 172.35,-20.5 181.89,-20.5"/>
<polygon fill="#63b8ff" stroke="#63b8ff" points="153.07,-17 143.07,-20.5 153.07,-24 153.07,-17"/>
</a>
</g>
</g>
</g>
</svg>
