<?xml version="1.0" encoding="UTF-8" standalone="no"?>
<!DOCTYPE svg PUBLIC "-//W3C//DTD SVG 1.1//EN"
 "http://www.w3.org/Graphics/SVG/1.1/DTD/svg11.dtd">
<!-- Generated by graphviz version 2.43.0 (0)
 -->
<!-- Title: FiftyOne.IpIntelligence.Engine.OnPremise.Data.PropertyMetaDataIpi Pages: 1 -->
<svg width="282pt" height="104pt"
 viewBox="0.00 0.00 282.00 104.00" xmlns="http://www.w3.org/2000/svg" xmlns:xlink="http://www.w3.org/1999/xlink">
<g id="graph0" class="graph" transform="scale(1 1) rotate(0) translate(4 100)">
<title>FiftyOne.IpIntelligence.Engine.OnPremise.Data.PropertyMetaDataIpi</title>
<!-- Node1 -->
<g id="Node000001" class="node">
<title>Node1</title>
<g id="a_Node000001"><a xlink:title="Data class that contains meta&#45;data relating to a specific property.">
<polygon fill="#999999" stroke="#666666" points="252,-41 76,-41 76,0 252,0 252,-41"/>
<text text-anchor="start" x="84" y="-29" font-family="Helvetica,sans-Serif" font-size="10.00">FiftyOne.IpIntelligence.</text>
<text text-anchor="start" x="84" y="-18" font-family="Helvetica,sans-Serif" font-size="10.00">Engine.OnPremise.Data.Property</text>
<text text-anchor="middle" x="164" y="-7" font-family="Helvetica,sans-Serif" font-size="10.00">MetaDataIpi</text>
</a>
</g>
</g>
<!-- Node2 -->
<g id="Node000002" class="node">
<title>Node2</title>
<g id="a_Node000002"><a xlink:title=" ">
<polygon fill="white" stroke="#bfbfbf" points="182,-96 0,-96 0,-77 182,-77 182,-96"/>
<text text-anchor="middle" x="91" y="-84" font-family="Helvetica,sans-Serif" font-size="10.00">IFiftyOneAspectPropertyMetaData</text>
</a>
</g>
</g>
<!-- Node2&#45;&gt;Node1 -->
<g id="edge1_Node000001_Node000002" class="edge">
<title>Node2&#45;&gt;Node1</title>
<g id="a_edge1_Node000001_Node000002"><a xlink:title=" ">
<path fill="none" stroke="#63b8ff" d="M108.51,-70.15C118.48,-61.41 131.08,-50.36 141.75,-41.01"/>
<polygon fill="#63b8ff" stroke="#63b8ff" points="106.06,-67.64 100.85,-76.87 110.67,-72.91 106.06,-67.64"/>
</a>
</g>
</g>
<!-- Node3 -->
<g id="Node000003" class="node">
<title>Node3</title>
<g id="a_Node000003"><a xlink:title=" ">
<polygon fill="white" stroke="#bfbfbf" points="274,-96 200,-96 200,-77 274,-77 274,-96"/>
<text text-anchor="middle" x="237" y="-84" font-family="Helvetica,sans-Serif" font-size="10.00">IDisposable</text>
</a>
</g>
</g>
<!-- Node3&#45;&gt;Node1 -->
<g id="edge2_Node000001_Node000003" class="edge">
<title>Node3&#45;&gt;Node1</title>
<g id="a_edge2_Node000001_Node000003"><a xlink:title=" ">
<path fill="none" stroke="#63b8ff" d="M219.49,-70.15C209.52,-61.41 196.92,-50.36 186.25,-41.01"/>
<polygon fill="#63b8ff" stroke="#63b8ff" points="217.33,-72.91 227.15,-76.87 221.94,-67.64 217.33,-72.91"/>
</a>
</g>
</g>
</g>
</svg>
