<?xml version="1.0" encoding="UTF-8" standalone="no"?>
<!DOCTYPE svg PUBLIC "-//W3C//DTD SVG 1.1//EN"
 "http://www.w3.org/Graphics/SVG/1.1/DTD/svg11.dtd">
<!-- Generated by graphviz version 2.43.0 (0)
 -->
<!-- Title: FiftyOne.IpIntelligence.Engine.OnPremise.Interop.UTF8StringSwig.UTF8StringSwigEnumerator Pages: 1 -->
<svg width="393pt" height="98pt"
 viewBox="0.00 0.00 393.00 97.50" xmlns="http://www.w3.org/2000/svg" xmlns:xlink="http://www.w3.org/1999/xlink">
<g id="graph0" class="graph" transform="scale(1 1) rotate(0) translate(4 93.5)">
<title>FiftyOne.IpIntelligence.Engine.OnPremise.Interop.UTF8StringSwig.UTF8StringSwigEnumerator</title>
<!-- Node1 -->
<g id="Node000001" class="node">
<title>Node1</title>
<g id="a_Node000001"><a xlink:title="Note that the IEnumerator documentation requires an InvalidOperationException to be thrown whenever t...">
<polygon fill="#999999" stroke="#666666" points="385,-68 179,-68 179,-27 385,-27 385,-68"/>
<text text-anchor="start" x="187" y="-56" font-family="Helvetica,sans-Serif" font-size="10.00">FiftyOne.IpIntelligence.</text>
<text text-anchor="start" x="187" y="-45" font-family="Helvetica,sans-Serif" font-size="10.00">Engine.OnPremise.Interop.UTF8</text>
<text text-anchor="middle" x="282" y="-34" font-family="Helvetica,sans-Serif" font-size="10.00">StringSwig.UTF8StringSwigEnumerator</text>
</a>
</g>
</g>
<!-- Node2 -->
<g id="Node000002" class="node">
<title>Node2</title>
<g id="a_Node000002"><a xlink:title=" ">
<polygon fill="white" stroke="#bfbfbf" points="143,-89.5 0,-89.5 0,-59.5 143,-59.5 143,-89.5"/>
<text text-anchor="start" x="8" y="-77.5" font-family="Helvetica,sans-Serif" font-size="10.00">global.SystemCollections.</text>
<text text-anchor="middle" x="71.5" y="-66.5" font-family="Helvetica,sans-Serif" font-size="10.00">IEnumerator</text>
</a>
</g>
</g>
<!-- Node2&#45;&gt;Node1 -->
<g id="edge1_Node000001_Node000002" class="edge">
<title>Node2&#45;&gt;Node1</title>
<g id="a_edge1_Node000001_Node000002"><a xlink:title=" ">
<path fill="none" stroke="#63b8ff" d="M153.16,-64.05C161.52,-62.97 170.09,-61.86 178.65,-60.75"/>
<polygon fill="#63b8ff" stroke="#63b8ff" points="152.56,-60.6 143.09,-65.36 153.46,-67.55 152.56,-60.6"/>
</a>
</g>
</g>
<!-- Node3 -->
<g id="Node000003" class="node">
<title>Node3</title>
<g id="a_Node000003"><a xlink:title=" ">
<polygon fill="white" stroke="#bfbfbf" points="143,-41 0,-41 0,0 143,0 143,-41"/>
<text text-anchor="start" x="8" y="-29" font-family="Helvetica,sans-Serif" font-size="10.00">global::SystemCollections</text>
<text text-anchor="start" x="8" y="-18" font-family="Helvetica,sans-Serif" font-size="10.00">::Generic::IEnumerator</text>
<text text-anchor="middle" x="71.5" y="-7" font-family="Helvetica,sans-Serif" font-size="10.00">&lt; byte &gt;</text>
</a>
</g>
</g>
<!-- Node3&#45;&gt;Node1 -->
<g id="edge2_Node000001_Node000003" class="edge">
<title>Node3&#45;&gt;Node1</title>
<g id="a_edge2_Node000001_Node000003"><a xlink:title=" ">
<path fill="none" stroke="#63b8ff" d="M153.16,-30.95C161.52,-32.03 170.09,-33.14 178.65,-34.25"/>
<polygon fill="#63b8ff" stroke="#63b8ff" points="153.46,-27.45 143.09,-29.64 152.56,-34.4 153.46,-27.45"/>
</a>
</g>
</g>
</g>
</svg>
