<?xml version="1.0" encoding="UTF-8" standalone="no"?>
<!DOCTYPE svg PUBLIC "-//W3C//DTD SVG 1.1//EN"
 "http://www.w3.org/Graphics/SVG/1.1/DTD/svg11.dtd">
<!-- Generated by graphviz version 2.43.0 (0)
 -->
<!-- Title: FiftyOne.IpIntelligence.Engine.OnPremise.Data.ValueMetaData Pages: 1 -->
<svg width="218pt" height="93pt"
 viewBox="0.00 0.00 218.00 93.00" xmlns="http://www.w3.org/2000/svg" xmlns:xlink="http://www.w3.org/1999/xlink">
<g id="graph0" class="graph" transform="scale(1 1) rotate(0) translate(4 89)">
<title>FiftyOne.IpIntelligence.Engine.OnPremise.Data.ValueMetaData</title>
<!-- Node1 -->
<g id="Node000001" class="node">
<title>Node1</title>
<g id="a_Node000001"><a xlink:title="Data class that contains meta&#45;data relating to a specific value.">
<polygon fill="#999999" stroke="#666666" points="210,-30 0,-30 0,0 210,0 210,-30"/>
<text text-anchor="start" x="8" y="-18" font-family="Helvetica,sans-Serif" font-size="10.00">FiftyOne.IpIntelligence.</text>
<text text-anchor="middle" x="105" y="-7" font-family="Helvetica,sans-Serif" font-size="10.00">Engine.OnPremise.Data.ValueMetaData</text>
</a>
</g>
</g>
<!-- Node2 -->
<g id="Node000002" class="node">
<title>Node2</title>
<g id="a_Node000002"><a xlink:title=" ">
<polygon fill="white" stroke="#bfbfbf" points="101.5,-85 6.5,-85 6.5,-66 101.5,-66 101.5,-85"/>
<text text-anchor="middle" x="54" y="-73" font-family="Helvetica,sans-Serif" font-size="10.00">IValueMetaData</text>
</a>
</g>
</g>
<!-- Node2&#45;&gt;Node1 -->
<g id="edge1_Node000001_Node000002" class="edge">
<title>Node2&#45;&gt;Node1</title>
<g id="a_edge1_Node000001_Node000002"><a xlink:title=" ">
<path fill="none" stroke="#63b8ff" d="M68.25,-58.15C75.94,-49.34 85.33,-38.56 92.69,-30.11"/>
<polygon fill="#63b8ff" stroke="#63b8ff" points="65.46,-56.03 61.53,-65.87 70.73,-60.63 65.46,-56.03"/>
</a>
</g>
</g>
<!-- Node3 -->
<g id="Node000003" class="node">
<title>Node3</title>
<g id="a_Node000003"><a xlink:title=" ">
<polygon fill="white" stroke="#bfbfbf" points="194,-85 120,-85 120,-66 194,-66 194,-85"/>
<text text-anchor="middle" x="157" y="-73" font-family="Helvetica,sans-Serif" font-size="10.00">IDisposable</text>
</a>
</g>
</g>
<!-- Node3&#45;&gt;Node1 -->
<g id="edge2_Node000001_Node000003" class="edge">
<title>Node3&#45;&gt;Node1</title>
<g id="a_edge2_Node000001_Node000003"><a xlink:title=" ">
<path fill="none" stroke="#63b8ff" d="M142.47,-58.15C134.63,-49.34 125.06,-38.56 117.55,-30.11"/>
<polygon fill="#63b8ff" stroke="#63b8ff" points="140.07,-60.72 149.33,-65.87 145.3,-56.07 140.07,-60.72"/>
</a>
</g>
</g>
</g>
</svg>
