<?xml version="1.0" encoding="UTF-8" standalone="no"?>
<!DOCTYPE svg PUBLIC "-//W3C//DTD SVG 1.1//EN"
 "http://www.w3.org/Graphics/SVG/1.1/DTD/svg11.dtd">
<!-- Generated by graphviz version 2.43.0 (0)
 -->
<!-- Title: Graphical Class Hierarchy Pages: 1 -->
<svg width="411pt" height="66pt"
 viewBox="0.00 0.00 411.00 66.00" xmlns="http://www.w3.org/2000/svg" xmlns:xlink="http://www.w3.org/1999/xlink">
<g id="graph0" class="graph" transform="scale(1 1) rotate(0) translate(4 62)">
<title>Graphical Class Hierarchy</title>
<!-- Node225 -->
<g id="node1" class="node">
<title>Node225</title>
<g id="a_node1"><a xlink:title=" ">
<polygon fill="none" stroke="#bfbfbf" points="23,-38.5 23,-57.5 120,-57.5 120,-38.5 23,-38.5"/>
<text text-anchor="middle" x="71.5" y="-45.5" font-family="Helvetica,sans-Serif" font-size="10.00">AspectDataBase</text>
</a>
</g>
</g>
<!-- Node0 -->
<g id="node2" class="node">
<title>Node0</title>
<g id="a_node2"><a xlink:href="class_fifty_one_1_1_ip_intelligence_1_1_cloud_1_1_data_1_1_cloud_countries_translation_data.html" target="_top" xlink:title="Cloud counterpart of the on&#45;premise FiftyOne.IpIntelligence.Translation.Data.CountriesTranslationData...">
<polygon fill="none" stroke="black" points="179,-14 179,-44 403,-44 403,-14 179,-14"/>
<text text-anchor="start" x="187" y="-32" font-family="Helvetica,sans-Serif" font-size="10.00">FiftyOne.IpIntelligence.</text>
<text text-anchor="middle" x="291" y="-21" font-family="Helvetica,sans-Serif" font-size="10.00">Cloud.Data.CloudCountriesTranslationData</text>
</a>
</g>
</g>
<!-- Node225&#45;&gt;Node0 -->
<g id="edge1" class="edge">
<title>Node225&#45;&gt;Node0</title>
<path fill="none" stroke="midnightblue" d="M130.31,-42.95C145.29,-41.64 161.93,-40.19 178.65,-38.73"/>
<polygon fill="midnightblue" stroke="midnightblue" points="129.89,-39.47 120.23,-43.83 130.5,-46.45 129.89,-39.47"/>
</g>
<!-- Node167 -->
<g id="node3" class="node">
<title>Node167</title>
<g id="a_node3"><a xlink:title=" ">
<polygon fill="none" stroke="#bfbfbf" points="0,-0.5 0,-19.5 143,-19.5 143,-0.5 0,-0.5"/>
<text text-anchor="middle" x="71.5" y="-7.5" font-family="Helvetica,sans-Serif" font-size="10.00">ICountriesTranslationData</text>
</a>
</g>
</g>
<!-- Node167&#45;&gt;Node0 -->
<g id="edge2" class="edge">
<title>Node167&#45;&gt;Node0</title>
<path fill="none" stroke="midnightblue" d="M153.16,-17.05C161.5,-17.77 170.08,-18.52 178.68,-19.28"/>
<polygon fill="midnightblue" stroke="midnightblue" points="153.38,-13.55 143.12,-16.17 152.77,-20.53 153.38,-13.55"/>
</g>
</g>
</svg>
