<?xml version="1.0" encoding="UTF-8" standalone="no"?>
<!DOCTYPE svg PUBLIC "-//W3C//DTD SVG 1.1//EN"
 "http://www.w3.org/Graphics/SVG/1.1/DTD/svg11.dtd">
<!-- Generated by graphviz version 2.43.0 (0)
 -->
<!-- Title: Graphical Class Hierarchy Pages: 1 -->
<svg width="379pt" height="108pt"
 viewBox="0.00 0.00 379.00 108.00" xmlns="http://www.w3.org/2000/svg" xmlns:xlink="http://www.w3.org/1999/xlink">
<g id="graph0" class="graph" transform="scale(1 1) rotate(0) translate(4 104)">
<title>Graphical Class Hierarchy</title>
<!-- Node0 -->
<g id="Node000000" class="node">
<title>Node0</title>
<g id="a_Node000000"><a xlink:title=" ">
<polygon fill="#e0e0e0" stroke="#999999" points="141,-59 0,-59 0,-40 141,-40 141,-59"/>
<text text-anchor="middle" x="70.5" y="-47" font-family="Helvetica,sans-Serif" font-size="10.00">AspectEngineBuilderBase</text>
</a>
</g>
</g>
<!-- Node1 -->
<g id="Node000001" class="node">
<title>Node1</title>
<g id="a_Node000001"><a xlink:href="class_fifty_one_1_1_ip_intelligence_1_1_cloud_1_1_flow_elements_1_1_cloud_countries_translation_engine_builder.html" target="_top" xlink:title="Fluent builder used to create a cloud&#45;based countries translation engine for IP intelligence country ...">
<polygon fill="white" stroke="#666666" points="371,-100 177,-100 177,-59 371,-59 371,-100"/>
<text text-anchor="start" x="185" y="-88" font-family="Helvetica,sans-Serif" font-size="10.00">FiftyOne.IpIntelligence.</text>
<text text-anchor="start" x="185" y="-77" font-family="Helvetica,sans-Serif" font-size="10.00">Cloud.FlowElements.CloudCountries</text>
<text text-anchor="middle" x="274" y="-66" font-family="Helvetica,sans-Serif" font-size="10.00">TranslationEngineBuilder</text>
</a>
</g>
</g>
<!-- Node0&#45;&gt;Node1 -->
<g id="edge3_Node000000_Node000001" class="edge">
<title>Node0&#45;&gt;Node1</title>
<g id="a_edge3_Node000000_Node000001"><a xlink:title=" ">
<path fill="none" stroke="#63b8ff" d="M145.55,-60.52C155.71,-62.04 166.27,-63.61 176.76,-65.17"/>
<polygon fill="#63b8ff" stroke="#63b8ff" points="145.94,-57.04 135.53,-59.03 144.91,-63.97 145.94,-57.04"/>
</a>
</g>
</g>
<!-- Node2 -->
<g id="Node000002" class="node">
<title>Node2</title>
<g id="a_Node000002"><a xlink:href="class_fifty_one_1_1_ip_intelligence_1_1_cloud_1_1_flow_elements_1_1_ipi_cloud_engine_builder.html" target="_top" xlink:title="Fluent builder used to create a cloud&#45;based IP intelligence engine.">
<polygon fill="white" stroke="#666666" points="370,-41 178,-41 178,0 370,0 370,-41"/>
<text text-anchor="start" x="186" y="-29" font-family="Helvetica,sans-Serif" font-size="10.00">FiftyOne.IpIntelligence.</text>
<text text-anchor="start" x="186" y="-18" font-family="Helvetica,sans-Serif" font-size="10.00">Cloud.FlowElements.IpiCloudEngine</text>
<text text-anchor="middle" x="274" y="-7" font-family="Helvetica,sans-Serif" font-size="10.00">Builder</text>
</a>
</g>
</g>
<!-- Node0&#45;&gt;Node2 -->
<g id="edge4_Node000000_Node000002" class="edge">
<title>Node0&#45;&gt;Node2</title>
<g id="a_edge4_Node000000_Node000002"><a xlink:title=" ">
<path fill="none" stroke="#63b8ff" d="M147.85,-38.51C157.66,-37.1 167.8,-35.64 177.86,-34.19"/>
<polygon fill="#63b8ff" stroke="#63b8ff" points="147.16,-35.08 137.76,-39.96 148.15,-42 147.16,-35.08"/>
</a>
</g>
</g>
</g>
</svg>
