<?xml version="1.0" encoding="UTF-8" standalone="no"?>
<!DOCTYPE svg PUBLIC "-//W3C//DTD SVG 1.1//EN"
 "http://www.w3.org/Graphics/SVG/1.1/DTD/svg11.dtd">
<!-- Generated by graphviz version 2.43.0 (0)
 -->
<!-- Title: Graphical Class Hierarchy Pages: 1 -->
<svg width="369pt" height="108pt"
 viewBox="0.00 0.00 369.00 108.00" xmlns="http://www.w3.org/2000/svg" xmlns:xlink="http://www.w3.org/1999/xlink">
<g id="graph0" class="graph" transform="scale(1 1) rotate(0) translate(4 104)">
<title>Graphical Class Hierarchy</title>
<!-- Node0 -->
<g id="Node000000" class="node">
<title>Node0</title>
<g id="a_Node000000"><a xlink:title=" ">
<polygon fill="#e0e0e0" stroke="#999999" points="110,-59 0,-59 0,-40 110,-40 110,-59"/>
<text text-anchor="middle" x="55" y="-47" font-family="Helvetica,sans-Serif" font-size="10.00">BackgroundService</text>
</a>
</g>
</g>
<!-- Node1 -->
<g id="Node000001" class="node">
<title>Node1</title>
<g id="a_Node000001"><a xlink:href="class_fifty_one_1_1_ip_intelligence_1_1_examples_1_1_on_premise_1_1_compare_1_1_program_1_1_worker.html" target="_top" xlink:title="BackgroundService for running the Example.">
<polygon fill="white" stroke="#666666" points="361,-100 146,-100 146,-59 361,-59 361,-100"/>
<text text-anchor="start" x="154" y="-88" font-family="Helvetica,sans-Serif" font-size="10.00">FiftyOne.IpIntelligence.</text>
<text text-anchor="start" x="154" y="-77" font-family="Helvetica,sans-Serif" font-size="10.00">Examples.OnPremise.Compare.Program.</text>
<text text-anchor="middle" x="253.5" y="-66" font-family="Helvetica,sans-Serif" font-size="10.00">Worker</text>
</a>
</g>
</g>
<!-- Node0&#45;&gt;Node1 -->
<g id="edge5_Node000000_Node000001" class="edge">
<title>Node0&#45;&gt;Node1</title>
<g id="a_edge5_Node000000_Node000001"><a xlink:title=" ">
<path fill="none" stroke="#63b8ff" d="M120.36,-59.33C128.54,-60.57 137.07,-61.88 145.69,-63.19"/>
<polygon fill="#63b8ff" stroke="#63b8ff" points="120.63,-55.83 110.21,-57.78 119.57,-62.75 120.63,-55.83"/>
</a>
</g>
</g>
<!-- Node2 -->
<g id="Node000002" class="node">
<title>Node2</title>
<g id="a_Node000002"><a xlink:href="class_fifty_one_1_1_ip_intelligence_1_1_examples_1_1_on_premise_1_1_metrics_1_1_program_1_1_worker.html" target="_top" xlink:title=" ">
<polygon fill="white" stroke="#666666" points="357,-41 150,-41 150,0 357,0 357,-41"/>
<text text-anchor="start" x="158" y="-29" font-family="Helvetica,sans-Serif" font-size="10.00">FiftyOne.IpIntelligence.</text>
<text text-anchor="start" x="158" y="-18" font-family="Helvetica,sans-Serif" font-size="10.00">Examples.OnPremise.Metrics.Program.</text>
<text text-anchor="middle" x="253.5" y="-7" font-family="Helvetica,sans-Serif" font-size="10.00">Worker</text>
</a>
</g>
</g>
<!-- Node0&#45;&gt;Node2 -->
<g id="edge6_Node000000_Node000002" class="edge">
<title>Node0&#45;&gt;Node2</title>
<g id="a_edge6_Node000000_Node000002"><a xlink:title=" ">
<path fill="none" stroke="#63b8ff" d="M120.31,-40.01C129.81,-38.61 139.79,-37.13 149.83,-35.65"/>
<polygon fill="#63b8ff" stroke="#63b8ff" points="119.6,-36.58 110.21,-41.5 120.62,-43.5 119.6,-36.58"/>
</a>
</g>
</g>
</g>
</svg>
