<?xml version="1.0" encoding="UTF-8" standalone="no"?>
<!DOCTYPE svg PUBLIC "-//W3C//DTD SVG 1.1//EN"
 "http://www.w3.org/Graphics/SVG/1.1/DTD/svg11.dtd">
<!-- Generated by graphviz version 2.43.0 (0)
 -->
<!-- Title: Graphical Class Hierarchy Pages: 1 -->
<svg width="411pt" height="64pt"
 viewBox="0.00 0.00 411.00 64.00" xmlns="http://www.w3.org/2000/svg" xmlns:xlink="http://www.w3.org/1999/xlink">
<g id="graph0" class="graph" transform="scale(1 1) rotate(0) translate(4 60)">
<title>Graphical Class Hierarchy</title>
<!-- Node0 -->
<g id="Node000000" class="node">
<title>Node0</title>
<g id="a_Node000000"><a xlink:title=" ">
<polygon fill="#e0e0e0" stroke="#999999" points="120,-56 23,-56 23,-37 120,-37 120,-56"/>
<text text-anchor="middle" x="71.5" y="-44" font-family="Helvetica,sans-Serif" font-size="10.00">AspectDataBase</text>
</a>
</g>
</g>
<!-- Node1 -->
<g id="Node000001" class="node">
<title>Node1</title>
<g id="a_Node000001"><a xlink:href="class_fifty_one_1_1_ip_intelligence_1_1_cloud_1_1_data_1_1_cloud_countries_translation_data.html" target="_top" xlink:title="Cloud counterpart of the on&#45;premise FiftyOne.IpIntelligence.Translation.Data.CountriesTranslationData...">
<polygon fill="white" stroke="#666666" points="403,-42.5 179,-42.5 179,-12.5 403,-12.5 403,-42.5"/>
<text text-anchor="start" x="187" y="-30.5" font-family="Helvetica,sans-Serif" font-size="10.00">FiftyOne.IpIntelligence.</text>
<text text-anchor="middle" x="291" y="-19.5" font-family="Helvetica,sans-Serif" font-size="10.00">Cloud.Data.CloudCountriesTranslationData</text>
</a>
</g>
</g>
<!-- Node0&#45;&gt;Node1 -->
<g id="edge1_Node000000_Node000001" class="edge">
<title>Node0&#45;&gt;Node1</title>
<g id="a_edge1_Node000000_Node000001"><a xlink:title=" ">
<path fill="none" stroke="#63b8ff" d="M130.31,-41.45C145.29,-40.14 161.93,-38.69 178.65,-37.23"/>
<polygon fill="#63b8ff" stroke="#63b8ff" points="129.89,-37.97 120.23,-42.33 130.5,-44.95 129.89,-37.97"/>
</a>
</g>
</g>
<!-- Node2 -->
<g id="Node000002" class="node">
<title>Node2</title>
<g id="a_Node000002"><a xlink:title=" ">
<polygon fill="#e0e0e0" stroke="#999999" points="143,-19 0,-19 0,0 143,0 143,-19"/>
<text text-anchor="middle" x="71.5" y="-7" font-family="Helvetica,sans-Serif" font-size="10.00">ICountriesTranslationData</text>
</a>
</g>
</g>
<!-- Node2&#45;&gt;Node1 -->
<g id="edge2_Node000002_Node000001" class="edge">
<title>Node2&#45;&gt;Node1</title>
<g id="a_edge2_Node000002_Node000001"><a xlink:title=" ">
<path fill="none" stroke="#63b8ff" d="M153.16,-16.18C161.5,-16.87 170.08,-17.58 178.68,-18.29"/>
<polygon fill="#63b8ff" stroke="#63b8ff" points="153.37,-12.68 143.12,-15.34 152.79,-19.66 153.37,-12.68"/>
</a>
</g>
</g>
</g>
</svg>
