<?xml version="1.0" encoding="UTF-8" standalone="no"?>
<!DOCTYPE svg PUBLIC "-//W3C//DTD SVG 1.1//EN"
 "http://www.w3.org/Graphics/SVG/1.1/DTD/svg11.dtd">
<!-- Generated by graphviz version 2.43.0 (0)
 -->
<!-- Title: Graphical Class Hierarchy Pages: 1 -->
<svg width="309pt" height="108pt"
 viewBox="0.00 0.00 309.00 108.00" xmlns="http://www.w3.org/2000/svg" xmlns:xlink="http://www.w3.org/1999/xlink">
<g id="graph0" class="graph" transform="scale(1 1) rotate(0) translate(4 104)">
<title>Graphical Class Hierarchy</title>
<!-- Node0 -->
<g id="Node000000" class="node">
<title>Node0</title>
<g id="a_Node000000"><a xlink:title=" ">
<polygon fill="#e0e0e0" stroke="#999999" points="70,-59 0,-59 0,-40 70,-40 70,-59"/>
<text text-anchor="middle" x="35" y="-47" font-family="Helvetica,sans-Serif" font-size="10.00">PageModel</text>
</a>
</g>
</g>
<!-- Node1 -->
<g id="Node000001" class="node">
<title>Node1</title>
<g id="a_Node000001"><a xlink:href="class_fifty_one_1_1_ip_intelligence_1_1_examples_1_1_cloud_1_1_getting_started_web_1_1_pages_1_1_index_model.html" target="_top" xlink:title=" ">
<polygon fill="white" stroke="#666666" points="288.5,-100 118.5,-100 118.5,-59 288.5,-59 288.5,-100"/>
<text text-anchor="start" x="126.5" y="-88" font-family="Helvetica,sans-Serif" font-size="10.00">FiftyOne.IpIntelligence.</text>
<text text-anchor="start" x="126.5" y="-77" font-family="Helvetica,sans-Serif" font-size="10.00">Examples.Cloud.GettingStarted</text>
<text text-anchor="middle" x="203.5" y="-66" font-family="Helvetica,sans-Serif" font-size="10.00">Web.Pages.IndexModel</text>
</a>
</g>
</g>
<!-- Node0&#45;&gt;Node1 -->
<g id="edge60_Node000000_Node000001" class="edge">
<title>Node0&#45;&gt;Node1</title>
<g id="a_edge60_Node000000_Node000001"><a xlink:title=" ">
<path fill="none" stroke="#63b8ff" d="M80.08,-57.44C91.88,-59.57 105.05,-61.94 118.24,-64.32"/>
<polygon fill="#63b8ff" stroke="#63b8ff" points="80.56,-53.97 70.1,-55.64 79.32,-60.86 80.56,-53.97"/>
</a>
</g>
</g>
<!-- Node2 -->
<g id="Node000002" class="node">
<title>Node2</title>
<g id="a_Node000002"><a xlink:href="class_fifty_one_1_1_ip_intelligence_1_1_examples_1_1_on_premise_1_1_getting_started_web_1_1_pages_1_1_index_model.html" target="_top" xlink:title=" ">
<polygon fill="white" stroke="#666666" points="301,-41 106,-41 106,0 301,0 301,-41"/>
<text text-anchor="start" x="114" y="-29" font-family="Helvetica,sans-Serif" font-size="10.00">FiftyOne.IpIntelligence.</text>
<text text-anchor="start" x="114" y="-18" font-family="Helvetica,sans-Serif" font-size="10.00">Examples.OnPremise.GettingStarted</text>
<text text-anchor="middle" x="203.5" y="-7" font-family="Helvetica,sans-Serif" font-size="10.00">Web.Pages.IndexModel</text>
</a>
</g>
</g>
<!-- Node0&#45;&gt;Node2 -->
<g id="edge61_Node000000_Node000002" class="edge">
<title>Node0&#45;&gt;Node2</title>
<g id="a_edge61_Node000000_Node000002"><a xlink:title=" ">
<path fill="none" stroke="#63b8ff" d="M80,-41.84C88.11,-40.42 96.87,-38.9 105.84,-37.34"/>
<polygon fill="#63b8ff" stroke="#63b8ff" points="79.35,-38.4 70.1,-43.56 80.55,-45.29 79.35,-38.4"/>
</a>
</g>
</g>
</g>
</svg>
