<?xml version="1.0" encoding="UTF-8" standalone="no"?>
<!DOCTYPE svg PUBLIC "-//W3C//DTD SVG 1.1//EN"
 "http://www.w3.org/Graphics/SVG/1.1/DTD/svg11.dtd">
<!-- Generated by graphviz version 2.43.0 (0)
 -->
<!-- Title: Graphical Class Hierarchy Pages: 1 -->
<svg width="591pt" height="64pt"
 viewBox="0.00 0.00 591.00 64.00" xmlns="http://www.w3.org/2000/svg" xmlns:xlink="http://www.w3.org/1999/xlink">
<g id="graph0" class="graph" transform="scale(1 1) rotate(0) translate(4 60)">
<title>Graphical Class Hierarchy</title>
<!-- Node0 -->
<g id="Node000000" class="node">
<title>Node0</title>
<g id="a_Node000000"><a xlink:title=" ">
<polygon fill="#e0e0e0" stroke="#999999" points="79,-56 0,-56 0,-37 79,-37 79,-56"/>
<text text-anchor="middle" x="39.5" y="-44" font-family="Helvetica,sans-Serif" font-size="10.00">IComparable</text>
</a>
</g>
</g>
<!-- Node1 -->
<g id="Node000001" class="node">
<title>Node1</title>
<g id="a_Node000001"><a xlink:href="class_fifty_one_1_1_ip_intelligence_1_1_examples_1_1_on_premise_1_1_metrics_1_1_program_1_1_key.html" target="_top" xlink:title="Key used for each metric.">
<polygon fill="white" stroke="#666666" points="340,-42.5 115,-42.5 115,-12.5 340,-12.5 340,-42.5"/>
<text text-anchor="start" x="123" y="-30.5" font-family="Helvetica,sans-Serif" font-size="10.00">FiftyOne.IpIntelligence.</text>
<text text-anchor="middle" x="227.5" y="-19.5" font-family="Helvetica,sans-Serif" font-size="10.00">Examples.OnPremise.Metrics.Program.Key</text>
</a>
</g>
</g>
<!-- Node0&#45;&gt;Node1 -->
<g id="edge42_Node000000_Node000001" class="edge">
<title>Node0&#45;&gt;Node1</title>
<g id="a_edge42_Node000000_Node000001"><a xlink:title=" ">
<path fill="none" stroke="#63b8ff" d="M89.25,-41.52C97.29,-40.7 105.91,-39.82 114.77,-38.91"/>
<polygon fill="#63b8ff" stroke="#63b8ff" points="88.63,-38.07 79.04,-42.56 89.34,-45.03 88.63,-38.07"/>
</a>
</g>
</g>
<!-- Node2 -->
<g id="Node000002" class="node">
<title>Node2</title>
<g id="a_Node000002"><a xlink:href="class_fifty_one_1_1_ip_intelligence_1_1_examples_1_1_on_premise_1_1_metrics_1_1_program_1_1_metric.html" target="_top" xlink:title=" ">
<polygon fill="white" stroke="#666666" points="583,-48 376,-48 376,-7 583,-7 583,-48"/>
<text text-anchor="start" x="384" y="-36" font-family="Helvetica,sans-Serif" font-size="10.00">FiftyOne.IpIntelligence.</text>
<text text-anchor="start" x="384" y="-25" font-family="Helvetica,sans-Serif" font-size="10.00">Examples.OnPremise.Metrics.Program.</text>
<text text-anchor="middle" x="479.5" y="-14" font-family="Helvetica,sans-Serif" font-size="10.00">Metric</text>
</a>
</g>
</g>
<!-- Node1&#45;&gt;Node2 -->
<g id="edge43_Node000001_Node000002" class="edge">
<title>Node1&#45;&gt;Node2</title>
<g id="a_edge43_Node000001_Node000002"><a xlink:title=" ">
<path fill="none" stroke="#63b8ff" d="M350.35,-27.5C358.89,-27.5 367.45,-27.5 375.88,-27.5"/>
<polygon fill="#63b8ff" stroke="#63b8ff" points="350.34,-24 340.34,-27.5 350.34,-31 350.34,-24"/>
</a>
</g>
</g>
<!-- Node3 -->
<g id="Node000003" class="node">
<title>Node3</title>
<g id="a_Node000003"><a xlink:title=" ">
<polygon fill="#e0e0e0" stroke="#999999" points="73.5,-19 5.5,-19 5.5,0 73.5,0 73.5,-19"/>
<text text-anchor="middle" x="39.5" y="-7" font-family="Helvetica,sans-Serif" font-size="10.00">IEquatable</text>
</a>
</g>
</g>
<!-- Node3&#45;&gt;Node1 -->
<g id="edge44_Node000003_Node000001" class="edge">
<title>Node3&#45;&gt;Node1</title>
<g id="a_edge44_Node000003_Node000001"><a xlink:title=" ">
<path fill="none" stroke="#63b8ff" d="M84,-13.71C93.47,-14.63 103.91,-15.64 114.69,-16.68"/>
<polygon fill="#63b8ff" stroke="#63b8ff" points="84.04,-10.2 73.75,-12.72 83.37,-17.17 84.04,-10.2"/>
</a>
</g>
</g>
</g>
</svg>
