<?xml version="1.0" encoding="UTF-8" standalone="no"?>
<!DOCTYPE svg PUBLIC "-//W3C//DTD SVG 1.1//EN"
 "http://www.w3.org/Graphics/SVG/1.1/DTD/svg11.dtd">
<!-- Generated by graphviz version 2.43.0 (0)
 -->
<!-- Title: Graphical Class Hierarchy Pages: 1 -->
<svg width="615pt" height="60pt"
 viewBox="0.00 0.00 615.00 60.00" xmlns="http://www.w3.org/2000/svg" xmlns:xlink="http://www.w3.org/1999/xlink">
<g id="graph0" class="graph" transform="scale(1 1) rotate(0) translate(4 56)">
<title>Graphical Class Hierarchy</title>
<!-- Node0 -->
<g id="Node000000" class="node">
<title>Node0</title>
<g id="a_Node000000"><a xlink:title=" ">
<polygon fill="#e0e0e0" stroke="#999999" points="173,-35.5 0,-35.5 0,-16.5 173,-16.5 173,-35.5"/>
<text text-anchor="middle" x="86.5" y="-23.5" font-family="Helvetica,sans-Serif" font-size="10.00">OnPremiseIpiEngineBuilderBase</text>
</a>
</g>
</g>
<!-- Node1 -->
<g id="Node000001" class="node">
<title>Node1</title>
<g id="a_Node000001"><a xlink:href="class_fifty_one_1_1_ip_intelligence_1_1_engine_1_1_on_premise_1_1_flow_elements_1_1_ipi_on_premise_engine_builder_base-1-g.html" target="_top" xlink:title="Builder for the IpiOnPremiseEngine.">
<polygon fill="white" stroke="#666666" points="390,-52 209,-52 209,0 390,0 390,-52"/>
<text text-anchor="start" x="217" y="-40" font-family="Helvetica,sans-Serif" font-size="10.00">FiftyOne.IpIntelligence.</text>
<text text-anchor="start" x="217" y="-29" font-family="Helvetica,sans-Serif" font-size="10.00">Engine.OnPremise.FlowElements.</text>
<text text-anchor="start" x="217" y="-18" font-family="Helvetica,sans-Serif" font-size="10.00">IpiOnPremiseEngineBuilderBase</text>
<text text-anchor="middle" x="299.5" y="-7" font-family="Helvetica,sans-Serif" font-size="10.00">&lt; TEngine &gt;</text>
</a>
</g>
</g>
<!-- Node0&#45;&gt;Node1 -->
<g id="edge57_Node000000_Node000001" class="edge">
<title>Node0&#45;&gt;Node1</title>
<g id="a_edge57_Node000000_Node000001"><a xlink:title=" ">
<path fill="none" stroke="#63b8ff" d="M183.29,-26C191.76,-26 200.32,-26 208.73,-26"/>
<polygon fill="#63b8ff" stroke="#63b8ff" points="183.02,-22.5 173.02,-26 183.02,-29.5 183.02,-22.5"/>
</a>
</g>
</g>
<!-- Node2 -->
<g id="Node000002" class="node">
<title>Node2</title>
<g id="a_Node000002"><a xlink:href="class_fifty_one_1_1_ip_intelligence_1_1_engine_1_1_on_premise_1_1_flow_elements_1_1_ipi_on_premise_engine_builder.html" target="_top" xlink:title="Builder for the IpiOnPremiseEngine.">
<polygon fill="white" stroke="#666666" points="607,-46.5 426,-46.5 426,-5.5 607,-5.5 607,-46.5"/>
<text text-anchor="start" x="434" y="-34.5" font-family="Helvetica,sans-Serif" font-size="10.00">FiftyOne.IpIntelligence.</text>
<text text-anchor="start" x="434" y="-23.5" font-family="Helvetica,sans-Serif" font-size="10.00">Engine.OnPremise.FlowElements.</text>
<text text-anchor="middle" x="516.5" y="-12.5" font-family="Helvetica,sans-Serif" font-size="10.00">IpiOnPremiseEngineBuilder</text>
</a>
</g>
</g>
<!-- Node1&#45;&gt;Node2 -->
<g id="edge58_Node000001_Node000002" class="edge">
<title>Node1&#45;&gt;Node2</title>
<g id="a_edge58_Node000001_Node000002"><a xlink:title=" ">
<path fill="none" stroke="#63b8ff" d="M400.37,-26C408.81,-26 417.32,-26 425.68,-26"/>
<polygon fill="#63b8ff" stroke="#63b8ff" points="400.12,-22.5 390.12,-26 400.12,-29.5 400.12,-22.5"/>
</a>
</g>
</g>
</g>
</svg>
