<?xml version="1.0" encoding="UTF-8" standalone="no"?>
<!DOCTYPE svg PUBLIC "-//W3C//DTD SVG 1.1//EN"
 "http://www.w3.org/Graphics/SVG/1.1/DTD/svg11.dtd">
<!-- Generated by graphviz version 2.43.0 (0)
 -->
<!-- Title: Graphical Class Hierarchy Pages: 1 -->
<svg width="372pt" height="100pt"
 viewBox="0.00 0.00 372.00 99.50" xmlns="http://www.w3.org/2000/svg" xmlns:xlink="http://www.w3.org/1999/xlink">
<g id="graph0" class="graph" transform="scale(1 1) rotate(0) translate(4 95.5)">
<title>Graphical Class Hierarchy</title>
<!-- Node217 -->
<g id="node1" class="node">
<title>Node217</title>
<g id="a_node1"><a xlink:title=" ">
<polygon fill="none" stroke="#bfbfbf" points="0,-33 0,-52 134,-52 134,-33 0,-33"/>
<text text-anchor="middle" x="67" y="-40" font-family="Helvetica,sans-Serif" font-size="10.00">CloudAspectEngineBase</text>
</a>
</g>
</g>
<!-- Node0 -->
<g id="node2" class="node">
<title>Node0</title>
<g id="a_node2"><a xlink:href="class_fifty_one_1_1_ip_intelligence_1_1_cloud_1_1_flow_elements_1_1_cloud_countries_translation_engine.html" target="_top" xlink:title="Cloud counterpart of the on&#45;premise FiftyOne.IpIntelligence.Translation.FlowElements....">
<polygon fill="none" stroke="black" points="170,-50 170,-91 364,-91 364,-50 170,-50"/>
<text text-anchor="start" x="178" y="-79" font-family="Helvetica,sans-Serif" font-size="10.00">FiftyOne.IpIntelligence.</text>
<text text-anchor="start" x="178" y="-68" font-family="Helvetica,sans-Serif" font-size="10.00">Cloud.FlowElements.CloudCountries</text>
<text text-anchor="middle" x="267" y="-57" font-family="Helvetica,sans-Serif" font-size="10.00">TranslationEngine</text>
</a>
</g>
</g>
<!-- Node217&#45;&gt;Node0 -->
<g id="edge1" class="edge">
<title>Node217&#45;&gt;Node0</title>
<path fill="none" stroke="midnightblue" d="M144.3,-53.29C152.68,-54.48 161.29,-55.69 169.87,-56.91"/>
<polygon fill="midnightblue" stroke="midnightblue" points="144.6,-49.8 134.21,-51.86 143.62,-56.73 144.6,-49.8"/>
</g>
<!-- Node219 -->
<g id="node3" class="node">
<title>Node219</title>
<g id="a_node3"><a xlink:href="class_fifty_one_1_1_ip_intelligence_1_1_cloud_1_1_flow_elements_1_1_ipi_cloud_engine.html" target="_top" xlink:title="Engine that takes the JSON response from the CloudRequestEngine and uses it populate a IpDataCloud in...">
<polygon fill="none" stroke="black" points="171,-0.5 171,-30.5 363,-30.5 363,-0.5 171,-0.5"/>
<text text-anchor="start" x="179" y="-18.5" font-family="Helvetica,sans-Serif" font-size="10.00">FiftyOne.IpIntelligence.</text>
<text text-anchor="middle" x="267" y="-7.5" font-family="Helvetica,sans-Serif" font-size="10.00">Cloud.FlowElements.IpiCloudEngine</text>
</a>
</g>
</g>
<!-- Node217&#45;&gt;Node219 -->
<g id="edge2" class="edge">
<title>Node217&#45;&gt;Node219</title>
<path fill="none" stroke="midnightblue" d="M144.32,-32.09C153.04,-30.9 162.01,-29.68 170.94,-28.46"/>
<polygon fill="midnightblue" stroke="midnightblue" points="143.64,-28.65 134.21,-33.47 144.59,-35.59 143.64,-28.65"/>
</g>
</g>
</svg>
