<?xml version="1.0" encoding="UTF-8" standalone="no"?>
<!DOCTYPE svg PUBLIC "-//W3C//DTD SVG 1.1//EN"
 "http://www.w3.org/Graphics/SVG/1.1/DTD/svg11.dtd">
<!-- Generated by graphviz version 2.43.0 (0)
 -->
<!-- Title: Graphical Class Hierarchy Pages: 1 -->
<svg width="379pt" height="110pt"
 viewBox="0.00 0.00 379.00 110.00" xmlns="http://www.w3.org/2000/svg" xmlns:xlink="http://www.w3.org/1999/xlink">
<g id="graph0" class="graph" transform="scale(1 1) rotate(0) translate(4 106)">
<title>Graphical Class Hierarchy</title>
<!-- Node222 -->
<g id="node1" class="node">
<title>Node222</title>
<g id="a_node1"><a xlink:title=" ">
<polygon fill="none" stroke="#bfbfbf" points="0,-41.5 0,-60.5 141,-60.5 141,-41.5 0,-41.5"/>
<text text-anchor="middle" x="70.5" y="-48.5" font-family="Helvetica,sans-Serif" font-size="10.00">AspectEngineBuilderBase</text>
</a>
</g>
</g>
<!-- Node0 -->
<g id="node2" class="node">
<title>Node0</title>
<g id="a_node2"><a xlink:href="class_fifty_one_1_1_ip_intelligence_1_1_cloud_1_1_flow_elements_1_1_cloud_countries_translation_engine_builder.html" target="_top" xlink:title="Fluent builder used to create a cloud&#45;based countries translation engine for IP intelligence country ...">
<polygon fill="none" stroke="black" points="177,-60.5 177,-101.5 371,-101.5 371,-60.5 177,-60.5"/>
<text text-anchor="start" x="185" y="-89.5" font-family="Helvetica,sans-Serif" font-size="10.00">FiftyOne.IpIntelligence.</text>
<text text-anchor="start" x="185" y="-78.5" font-family="Helvetica,sans-Serif" font-size="10.00">Cloud.FlowElements.CloudCountries</text>
<text text-anchor="middle" x="274" y="-67.5" font-family="Helvetica,sans-Serif" font-size="10.00">TranslationEngineBuilder</text>
</a>
</g>
</g>
<!-- Node222&#45;&gt;Node0 -->
<g id="edge1" class="edge">
<title>Node222&#45;&gt;Node0</title>
<path fill="none" stroke="midnightblue" d="M145.55,-62.02C155.71,-63.54 166.27,-65.11 176.76,-66.67"/>
<polygon fill="midnightblue" stroke="midnightblue" points="145.94,-58.54 135.53,-60.53 144.91,-65.47 145.94,-58.54"/>
</g>
<!-- Node224 -->
<g id="node3" class="node">
<title>Node224</title>
<g id="a_node3"><a xlink:href="class_fifty_one_1_1_ip_intelligence_1_1_cloud_1_1_flow_elements_1_1_ipi_cloud_engine_builder.html" target="_top" xlink:title="Fluent builder used to create a cloud&#45;based IP intelligence engine.">
<polygon fill="none" stroke="black" points="178,-0.5 178,-41.5 370,-41.5 370,-0.5 178,-0.5"/>
<text text-anchor="start" x="186" y="-29.5" font-family="Helvetica,sans-Serif" font-size="10.00">FiftyOne.IpIntelligence.</text>
<text text-anchor="start" x="186" y="-18.5" font-family="Helvetica,sans-Serif" font-size="10.00">Cloud.FlowElements.IpiCloudEngine</text>
<text text-anchor="middle" x="274" y="-7.5" font-family="Helvetica,sans-Serif" font-size="10.00">Builder</text>
</a>
</g>
</g>
<!-- Node222&#45;&gt;Node224 -->
<g id="edge2" class="edge">
<title>Node222&#45;&gt;Node224</title>
<path fill="none" stroke="midnightblue" d="M145.49,-39.98C156.03,-38.41 166.99,-36.78 177.86,-35.16"/>
<polygon fill="midnightblue" stroke="midnightblue" points="144.91,-36.53 135.53,-41.47 145.94,-43.46 144.91,-36.53"/>
</g>
</g>
</svg>
