<?xml version="1.0" encoding="UTF-8" standalone="no"?>
<!DOCTYPE svg PUBLIC "-//W3C//DTD SVG 1.1//EN"
 "http://www.w3.org/Graphics/SVG/1.1/DTD/svg11.dtd">
<!-- Generated by graphviz version 2.43.0 (0)
 -->
<!-- Title: FiftyOne.IpIntelligence.Engine.OnPremise.Data.IIpDataOnPremise Pages: 1 -->
<svg width="178pt" height="181pt"
 viewBox="0.00 0.00 178.00 181.00" xmlns="http://www.w3.org/2000/svg" xmlns:xlink="http://www.w3.org/1999/xlink">
<g id="graph0" class="graph" transform="scale(1 1) rotate(0) translate(4 177)">
<title>FiftyOne.IpIntelligence.Engine.OnPremise.Data.IIpDataOnPremise</title>
<!-- Node1 -->
<g id="Node000001" class="node">
<title>Node1</title>
<g id="a_Node000001"><a xlink:title="Represents a data class that contains IP data from an on&#45;premise IP intelligence engine.">
<polygon fill="#999999" stroke="#666666" points="170,-118 0,-118 0,-77 170,-77 170,-118"/>
<text text-anchor="start" x="8" y="-106" font-family="Helvetica,sans-Serif" font-size="10.00">FiftyOne.IpIntelligence.</text>
<text text-anchor="start" x="8" y="-95" font-family="Helvetica,sans-Serif" font-size="10.00">Engine.OnPremise.Data.IIpData</text>
<text text-anchor="middle" x="85" y="-84" font-family="Helvetica,sans-Serif" font-size="10.00">OnPremise</text>
</a>
</g>
</g>
<!-- Node3 -->
<g id="Node000003" class="node">
<title>Node3</title>
<g id="a_Node000003"><a xlink:title=" ">
<polygon fill="white" stroke="#666666" points="168.5,-41 1.5,-41 1.5,0 168.5,0 168.5,-41"/>
<text text-anchor="start" x="9.5" y="-29" font-family="Helvetica,sans-Serif" font-size="10.00">FiftyOne.IpIntelligence.</text>
<text text-anchor="start" x="9.5" y="-18" font-family="Helvetica,sans-Serif" font-size="10.00">Engine.OnPremise.Data.IpData</text>
<text text-anchor="middle" x="85" y="-7" font-family="Helvetica,sans-Serif" font-size="10.00">OnPremise</text>
</a>
</g>
</g>
<!-- Node1&#45;&gt;Node3 -->
<g id="edge2_Node000001_Node000003" class="edge">
<title>Node1&#45;&gt;Node3</title>
<g id="a_edge2_Node000001_Node000003"><a xlink:title=" ">
<path fill="none" stroke="#63b8ff" d="M85,-66.69C85,-58.08 85,-48.9 85,-41.07"/>
<polygon fill="#63b8ff" stroke="#63b8ff" points="81.5,-66.79 85,-76.79 88.5,-66.79 81.5,-66.79"/>
</a>
</g>
</g>
<!-- Node2 -->
<g id="Node000002" class="node">
<title>Node2</title>
<g id="a_Node000002"><a xlink:title=" ">
<polygon fill="white" stroke="#bfbfbf" points="139.5,-173 30.5,-173 30.5,-154 139.5,-154 139.5,-173"/>
<text text-anchor="middle" x="85" y="-161" font-family="Helvetica,sans-Serif" font-size="10.00">IIpIntelligenceData</text>
</a>
</g>
</g>
<!-- Node2&#45;&gt;Node1 -->
<g id="edge1_Node000001_Node000002" class="edge">
<title>Node2&#45;&gt;Node1</title>
<g id="a_edge1_Node000001_Node000002"><a xlink:title=" ">
<path fill="none" stroke="#63b8ff" d="M85,-143.63C85,-135.56 85,-126.15 85,-118.01"/>
<polygon fill="#63b8ff" stroke="#63b8ff" points="81.5,-143.87 85,-153.87 88.5,-143.87 81.5,-143.87"/>
</a>
</g>
</g>
</g>
</svg>
