<?xml version="1.0" encoding="UTF-8" standalone="no"?>
<!DOCTYPE svg PUBLIC "-//W3C//DTD SVG 1.1//EN"
 "http://www.w3.org/Graphics/SVG/1.1/DTD/svg11.dtd">
<!-- Generated by graphviz version 2.43.0 (0)
 -->
<!-- Title: %3 Pages: 1 -->
<svg width="440pt" height="238pt"
 viewBox="0.00 0.00 440.00 238.00" xmlns="http://www.w3.org/2000/svg" xmlns:xlink="http://www.w3.org/1999/xlink">
<g id="graph0" class="graph" transform="scale(1 1) rotate(0) translate(4 234)">
<title>%3</title>
<g id="clust1" class="cluster">
<title>clusterWebServer</title>
<polygon fill="transparent" stroke="black" points="275,-8 275,-222 424,-222 424,-8 275,-8"/>
<text text-anchor="middle" x="349.5" y="-210" font-family="Helvetica,sans-Serif" font-size="10.00">Web server</text>
</g>
<g id="clust2" class="cluster">
<title>clusterClient</title>
<polygon fill="transparent" stroke="black" points="8,-65 8,-198 152,-198 152,-65 8,-65"/>
<text text-anchor="middle" x="80" y="-186" font-family="Helvetica,sans-Serif" font-size="10.00">Client</text>
</g>
<!-- Process1 -->
<g id="node1" class="node">
<title>Process1</title>
<polygon fill="none" stroke="black" points="283,-109.5 283,-194.5 416,-194.5 416,-109.5 283,-109.5"/>
<text text-anchor="middle" x="349.5" y="-182.5" font-family="Helvetica,sans-Serif" font-size="10.00">Pipeline has geo engine</text>
<text text-anchor="middle" x="349.5" y="-171.5" font-family="Helvetica,sans-Serif" font-size="10.00">that needs lat and long.</text>
<text text-anchor="middle" x="349.5" y="-160.5" font-family="Helvetica,sans-Serif" font-size="10.00">As neither are available</text>
<text text-anchor="middle" x="349.5" y="-149.5" font-family="Helvetica,sans-Serif" font-size="10.00">in the evidence, it</text>
<text text-anchor="middle" x="349.5" y="-138.5" font-family="Helvetica,sans-Serif" font-size="10.00">populates a JavaScript</text>
<text text-anchor="middle" x="349.5" y="-127.5" font-family="Helvetica,sans-Serif" font-size="10.00">property with code</text>
<text text-anchor="middle" x="349.5" y="-116.5" font-family="Helvetica,sans-Serif" font-size="10.00">to get these values.</text>
</g>
<!-- ProcessB -->
<g id="node4" class="node">
<title>ProcessB</title>
<polygon fill="none" stroke="black" points="16,-73.5 16,-114.5 144,-114.5 144,-73.5 16,-73.5"/>
<text text-anchor="middle" x="80" y="-102.5" font-family="Helvetica,sans-Serif" font-size="10.00">JavaScript runs on</text>
<text text-anchor="middle" x="80" y="-91.5" font-family="Helvetica,sans-Serif" font-size="10.00">client and sets cookies</text>
<text text-anchor="middle" x="80" y="-80.5" font-family="Helvetica,sans-Serif" font-size="10.00">for lat and long.</text>
</g>
<!-- Process1&#45;&gt;ProcessB -->
<g id="edge2" class="edge">
<title>Process1&#45;&gt;ProcessB</title>
<path fill="none" stroke="black" d="M282.63,-130.62C276.7,-128.96 270.76,-127.39 265,-126 228.87,-117.27 188.2,-109.94 154.3,-104.51"/>
<polygon fill="black" stroke="black" points="154.43,-100.99 144.01,-102.89 153.34,-107.9 154.43,-100.99"/>
<text text-anchor="middle" x="213.5" y="-140" font-family="Helvetica,sans-Serif" font-size="10.00">2. Response includes</text>
<text text-anchor="middle" x="213.5" y="-129" font-family="Helvetica,sans-Serif" font-size="10.00">JavaScript</text>
</g>
<!-- Process2 -->
<g id="node2" class="node">
<title>Process2</title>
<polygon fill="none" stroke="black" points="287,-16 287,-90 412,-90 412,-16 287,-16"/>
<text text-anchor="middle" x="349.5" y="-78" font-family="Helvetica,sans-Serif" font-size="10.00">Pipeline takes cookies</text>
<text text-anchor="middle" x="349.5" y="-67" font-family="Helvetica,sans-Serif" font-size="10.00">as evidence.</text>
<text text-anchor="middle" x="349.5" y="-56" font-family="Helvetica,sans-Serif" font-size="10.00">Geo engine uses</text>
<text text-anchor="middle" x="349.5" y="-45" font-family="Helvetica,sans-Serif" font-size="10.00">lat and long values</text>
<text text-anchor="middle" x="349.5" y="-34" font-family="Helvetica,sans-Serif" font-size="10.00">to determine postal</text>
<text text-anchor="middle" x="349.5" y="-23" font-family="Helvetica,sans-Serif" font-size="10.00">address.</text>
</g>
<!-- Start -->
<g id="node3" class="node">
<title>Start</title>
<polygon fill="none" stroke="black" points="53,-134 53,-170 107,-170 107,-134 53,-134"/>
<text text-anchor="middle" x="80" y="-149.5" font-family="Helvetica,sans-Serif" font-size="10.00">Start</text>
</g>
<!-- Start&#45;&gt;Process1 -->
<g id="edge1" class="edge">
<title>Start&#45;&gt;Process1</title>
<path fill="none" stroke="black" d="M107.14,-152C145.13,-152 217.14,-152 272.65,-152"/>
<polygon fill="black" stroke="black" points="272.81,-155.5 282.81,-152 272.81,-148.5 272.81,-155.5"/>
<text text-anchor="middle" x="213.5" y="-155" font-family="Helvetica,sans-Serif" font-size="10.00">1. Inital request</text>
</g>
<!-- ProcessB&#45;&gt;Process2 -->
<g id="edge3" class="edge">
<title>ProcessB&#45;&gt;Process2</title>
<path fill="none" stroke="black" d="M123.84,-73.35C135.91,-68.42 149.24,-63.78 162,-61 199.32,-52.86 241.81,-50.51 276.8,-50.36"/>
<polygon fill="black" stroke="black" points="276.92,-53.86 286.93,-50.37 276.93,-46.86 276.92,-53.86"/>
<text text-anchor="middle" x="213.5" y="-75" font-family="Helvetica,sans-Serif" font-size="10.00">3. Second request</text>
<text text-anchor="middle" x="213.5" y="-64" font-family="Helvetica,sans-Serif" font-size="10.00">includes cookies</text>
</g>
</g>
</svg>
