<?xml version="1.0" encoding="UTF-8" standalone="no"?>
<!DOCTYPE svg PUBLIC "-//W3C//DTD SVG 1.1//EN"
 "http://www.w3.org/Graphics/SVG/1.1/DTD/svg11.dtd">
<!-- Generated by graphviz version 2.43.0 (0)
 -->
<!-- Title: P Pages: 1 -->
<svg width="265pt" height="129pt"
 viewBox="0.00 0.00 264.96 129.00" xmlns="http://www.w3.org/2000/svg" xmlns:xlink="http://www.w3.org/1999/xlink">
<g id="graph0" class="graph" transform="scale(1 1) rotate(0) translate(4 125)">
<title>P</title>
<!-- E1 -->
<g id="node1" class="node">
<title>E1</title>
<polygon fill="none" stroke="black" points="34.46,-84.5 34.46,-120.5 111.46,-120.5 111.46,-84.5 34.46,-84.5"/>
<text text-anchor="middle" x="72.96" y="-100" font-family="Helvetica,sans-Serif" font-size="10.00">date of birth</text>
</g>
<!-- FE -->
<g id="node3" class="node">
<title>FE</title>
<polygon fill="none" stroke="black" points="93.46,-0.5 93.46,-36.5 172.46,-36.5 172.46,-0.5 93.46,-0.5"/>
<text text-anchor="middle" x="132.96" y="-16" font-family="Helvetica,sans-Serif" font-size="10.00">Age Element</text>
</g>
<!-- E1&#45;&gt;FE -->
<g id="edge1" class="edge">
<title>E1&#45;&gt;FE</title>
<path fill="none" stroke="black" d="M34.32,-90.9C12.57,-82.95 -8.03,-70.74 3.96,-55 13.77,-42.12 51.16,-32.74 83.17,-26.87"/>
<polygon fill="black" stroke="black" points="84.09,-30.26 93.33,-25.09 82.88,-23.37 84.09,-30.26"/>
<text text-anchor="middle" x="47.46" y="-58" font-family="Helvetica,sans-Serif" font-size="10.00">do you want this?</text>
</g>
<!-- E2 -->
<g id="node2" class="node">
<title>E2</title>
<polygon fill="none" stroke="black" points="159.96,-84.5 159.96,-120.5 227.96,-120.5 227.96,-84.5 159.96,-84.5"/>
<text text-anchor="middle" x="193.96" y="-100" font-family="Helvetica,sans-Serif" font-size="10.00">hometown</text>
</g>
<!-- E2&#45;&gt;FE -->
<g id="edge3" class="edge">
<title>E2&#45;&gt;FE</title>
<path fill="none" stroke="black" d="M172.21,-84.43C166.14,-78.98 159.86,-72.62 154.96,-66 150.53,-60.02 146.66,-53.01 143.44,-46.27"/>
<polygon fill="black" stroke="black" points="146.47,-44.46 139.22,-36.74 140.07,-47.3 146.47,-44.46"/>
<text text-anchor="middle" x="198.46" y="-58" font-family="Helvetica,sans-Serif" font-size="10.00">do you want this?</text>
</g>
<!-- FE&#45;&gt;E1 -->
<g id="edge2" class="edge">
<title>FE&#45;&gt;E1</title>
<path fill="none" stroke="black" d="M120.46,-36.58C112.18,-47.9 101.16,-62.95 91.83,-75.72"/>
<polygon fill="black" stroke="black" points="88.76,-73.97 85.68,-84.11 94.41,-78.11 88.76,-73.97"/>
<text text-anchor="middle" x="115.96" y="-58" font-family="Helvetica,sans-Serif" font-size="10.00">yes</text>
</g>
<!-- FE&#45;&gt;E2 -->
<g id="edge4" class="edge">
<title>FE&#45;&gt;E2</title>
<path fill="none" stroke="black" d="M172.68,-21.26C196.94,-24.64 226.23,-33.34 241.96,-55 248.07,-63.41 244.02,-71.63 236.18,-78.76"/>
<polygon fill="black" stroke="black" points="233.89,-76.11 228.1,-84.98 238.16,-81.65 233.89,-76.11"/>
<text text-anchor="middle" x="250.46" y="-58" font-family="Helvetica,sans-Serif" font-size="10.00">no</text>
</g>
</g>
</svg>
