<?xml version="1.0" encoding="UTF-8" standalone="no"?>
<!DOCTYPE svg PUBLIC "-//W3C//DTD SVG 1.1//EN"
 "http://www.w3.org/Graphics/SVG/1.1/DTD/svg11.dtd">
<!-- Generated by graphviz version 2.43.0 (0)
 -->
<!-- Title: %3 Pages: 1 -->
<svg width="210pt" height="376pt"
 viewBox="0.00 0.00 209.50 376.00" xmlns="http://www.w3.org/2000/svg" xmlns:xlink="http://www.w3.org/1999/xlink">
<g id="graph0" class="graph" transform="scale(1 1) rotate(0) translate(0 376)">
<title>%3</title>
<!-- key -->
<g id="node1" class="node">
<title>key</title>
<polygon fill="none" stroke="black" points="42,-339.5 42,-375.5 136,-375.5 136,-339.5 42,-339.5"/>
<text text-anchor="middle" x="89" y="-360.5" font-family="Helvetica,sans-Serif" font-size="10.00">Create data key</text>
<text text-anchor="middle" x="89" y="-349.5" font-family="Helvetica,sans-Serif" font-size="10.00">from evidence</text>
</g>
<!-- cache -->
<g id="node3" class="node">
<title>cache</title>
<polygon fill="none" stroke="black" points="89,-322 0,-292 89,-262 178,-292 89,-322"/>
<text text-anchor="middle" x="89" y="-295" font-family="Helvetica,sans-Serif" font-size="10.00">Does key</text>
<text text-anchor="middle" x="89" y="-284" font-family="Helvetica,sans-Serif" font-size="10.00">exist in cache?</text>
</g>
<!-- key&#45;&gt;cache -->
<g id="edge1" class="edge">
<title>key&#45;&gt;cache</title>
<path fill="none" stroke="black" d="M89,-339.48C89,-337.25 89,-334.89 89,-332.47"/>
<polygon fill="black" stroke="black" points="92.5,-332.32 89,-322.32 85.5,-332.32 92.5,-332.32"/>
</g>
<!-- getaspectdata -->
<g id="node2" class="node">
<title>getaspectdata</title>
<polygon fill="none" stroke="black" points="23,-153.5 23,-189.5 117,-189.5 117,-153.5 23,-153.5"/>
<text text-anchor="middle" x="70" y="-174.5" font-family="Helvetica,sans-Serif" font-size="10.00">Get aspect data</text>
<text text-anchor="middle" x="70" y="-163.5" font-family="Helvetica,sans-Serif" font-size="10.00">from cache</text>
</g>
<!-- addtoflow -->
<g id="node7" class="node">
<title>addtoflow</title>
<polygon fill="none" stroke="black" points="20.5,-0.5 20.5,-36.5 135.5,-36.5 135.5,-0.5 20.5,-0.5"/>
<text text-anchor="middle" x="78" y="-21.5" font-family="Helvetica,sans-Serif" font-size="10.00">Add aspect data to</text>
<text text-anchor="middle" x="78" y="-10.5" font-family="Helvetica,sans-Serif" font-size="10.00">flow data and return</text>
</g>
<!-- getaspectdata&#45;&gt;addtoflow -->
<g id="edge7" class="edge">
<title>getaspectdata&#45;&gt;addtoflow</title>
<path fill="none" stroke="black" d="M70.9,-153.47C72.28,-127.53 74.91,-77.86 76.55,-46.83"/>
<polygon fill="black" stroke="black" points="80.05,-46.87 77.09,-36.7 73.06,-46.5 80.05,-46.87"/>
</g>
<!-- cache&#45;&gt;getaspectdata -->
<g id="edge3" class="edge">
<title>cache&#45;&gt;getaspectdata</title>
<path fill="none" stroke="black" d="M84.55,-263.22C81.49,-244.14 77.45,-218.94 74.4,-199.94"/>
<polygon fill="black" stroke="black" points="77.82,-199.15 72.78,-189.83 70.91,-200.26 77.82,-199.15"/>
<text text-anchor="middle" x="92" y="-246" font-family="Helvetica,sans-Serif" font-size="10.00">yes</text>
</g>
<!-- data -->
<g id="node4" class="node">
<title>data</title>
<polygon fill="none" stroke="black" points="94.5,-198.5 94.5,-234.5 203.5,-234.5 203.5,-198.5 94.5,-198.5"/>
<text text-anchor="middle" x="149" y="-214" font-family="Helvetica,sans-Serif" font-size="10.00">Create aspect data</text>
</g>
<!-- cache&#45;&gt;data -->
<g id="edge2" class="edge">
<title>cache&#45;&gt;data</title>
<path fill="none" stroke="black" d="M107.66,-268.15C114.26,-260.06 121.73,-250.91 128.48,-242.64"/>
<polygon fill="black" stroke="black" points="131.32,-244.69 134.93,-234.73 125.9,-240.27 131.32,-244.69"/>
<text text-anchor="middle" x="134.5" y="-246" font-family="Helvetica,sans-Serif" font-size="10.00">no</text>
</g>
<!-- process -->
<g id="node5" class="node">
<title>process</title>
<polygon fill="none" stroke="black" points="104.5,-108.5 104.5,-144.5 193.5,-144.5 193.5,-108.5 104.5,-108.5"/>
<text text-anchor="middle" x="149" y="-129.5" font-family="Helvetica,sans-Serif" font-size="10.00">Normal engine</text>
<text text-anchor="middle" x="149" y="-118.5" font-family="Helvetica,sans-Serif" font-size="10.00">processing</text>
</g>
<!-- data&#45;&gt;process -->
<g id="edge4" class="edge">
<title>data&#45;&gt;process</title>
<path fill="none" stroke="black" d="M149,-198.11C149,-185.74 149,-168.87 149,-154.72"/>
<polygon fill="black" stroke="black" points="152.5,-154.55 149,-144.55 145.5,-154.55 152.5,-154.55"/>
</g>
<!-- addtocache -->
<g id="node6" class="node">
<title>addtocache</title>
<polygon fill="none" stroke="black" points="90.5,-54.5 90.5,-90.5 209.5,-90.5 209.5,-54.5 90.5,-54.5"/>
<text text-anchor="middle" x="150" y="-75.5" font-family="Helvetica,sans-Serif" font-size="10.00">Add aspect data to</text>
<text text-anchor="middle" x="150" y="-64.5" font-family="Helvetica,sans-Serif" font-size="10.00">cache using data key</text>
</g>
<!-- process&#45;&gt;addtocache -->
<g id="edge5" class="edge">
<title>process&#45;&gt;addtocache</title>
<path fill="none" stroke="black" d="M149.33,-108.47C149.38,-105.99 149.43,-103.37 149.48,-100.74"/>
<polygon fill="black" stroke="black" points="152.98,-100.81 149.67,-90.74 145.98,-100.67 152.98,-100.81"/>
</g>
<!-- addtocache&#45;&gt;addtoflow -->
<g id="edge6" class="edge">
<title>addtocache&#45;&gt;addtoflow</title>
<path fill="none" stroke="black" d="M126.42,-54.47C121.26,-50.74 115.7,-46.73 110.26,-42.8"/>
<polygon fill="black" stroke="black" points="112.03,-39.76 101.87,-36.74 107.93,-45.44 112.03,-39.76"/>
</g>
</g>
</svg>
