<?xml version="1.0" encoding="UTF-8" standalone="no"?>
<!DOCTYPE svg PUBLIC "-//W3C//DTD SVG 1.1//EN"
 "http://www.w3.org/Graphics/SVG/1.1/DTD/svg11.dtd">
<!-- Generated by graphviz version 2.43.0 (0)
 -->
<!-- Title: P Pages: 1 -->
<svg width="325pt" height="156pt"
 viewBox="0.00 0.00 325.00 156.00" xmlns="http://www.w3.org/2000/svg" xmlns:xlink="http://www.w3.org/1999/xlink">
<g id="graph0" class="graph" transform="scale(1 1) rotate(0) translate(4 152)">
<title>P</title>
<g id="clust1" class="cluster">
<title>clusterFD</title>
<g id="a_clust1"><a xlink:href="_concepts__data__flow_data.html#Concepts_Data_FlowData" target="_top" xlink:title="Flow Data">
<polygon fill="transparent" stroke="black" points="8,-8 8,-140 172,-140 172,-8 8,-8"/>
<text text-anchor="middle" x="90" y="-128" font-family="Helvetica,sans-Serif" font-size="10.00">Flow Data</text>
</a>
</g>
</g>
<!-- structE -->
<g id="node1" class="node">
<title>structE</title>
<g id="a_node1"><a xlink:href="_concepts__data__evidence.html#Concepts_Data_Evidence" target="_top" xlink:title="&lt;f0&gt;Evidence|{&lt;f1&gt;date of birth|&lt;f2&gt;18/12/1992}">
<polygon fill="none" stroke="black" points="16,-74 16,-112 164,-112 164,-74 16,-74"/>
<text text-anchor="middle" x="90" y="-100" font-family="Helvetica,sans-Serif" font-size="10.00">Evidence</text>
<polyline fill="none" stroke="black" points="16,-93 164,-93 "/>
<text text-anchor="middle" x="54.5" y="-81" font-family="Helvetica,sans-Serif" font-size="10.00">date of birth</text>
<polyline fill="none" stroke="black" points="93,-74 93,-93 "/>
<text text-anchor="middle" x="128.5" y="-81" font-family="Helvetica,sans-Serif" font-size="10.00">18/12/1992</text>
</a>
</g>
</g>
<!-- FE -->
<g id="node3" class="node">
<title>FE</title>
<polygon fill="none" stroke="black" points="238,-49 238,-85 317,-85 317,-49 238,-49"/>
<text text-anchor="middle" x="277.5" y="-64.5" font-family="Helvetica,sans-Serif" font-size="10.00">Age Element</text>
</g>
<!-- structE&#45;&gt;FE -->
<g id="edge1" class="edge">
<title>structE&#45;&gt;FE</title>
<path fill="none" stroke="black" d="M172,-81.65C191.02,-78.98 210.71,-76.22 227.8,-73.83"/>
<polygon fill="black" stroke="black" points="228.53,-77.26 237.95,-72.4 227.56,-70.32 228.53,-77.26"/>
<text text-anchor="middle" x="201" y="-83" font-family="Helvetica,sans-Serif" font-size="10.00">process</text>
</g>
<!-- structED -->
<g id="node2" class="node">
<title>structED</title>
<g id="a_node2"><a xlink:href="_concepts__data__element_data.html#Concepts_Data_ElementData" target="_top" xlink:title="&lt;f0&gt;Element Data|{&lt;f1&gt;age|&lt;f2&gt;26}">
<polygon fill="none" stroke="black" points="48.5,-17 48.5,-55 131.5,-55 131.5,-17 48.5,-17"/>
<text text-anchor="middle" x="90" y="-43" font-family="Helvetica,sans-Serif" font-size="10.00">Element Data</text>
<polyline fill="none" stroke="black" points="48.5,-36 131.5,-36 "/>
<text text-anchor="middle" x="70.5" y="-24" font-family="Helvetica,sans-Serif" font-size="10.00">age</text>
<polyline fill="none" stroke="black" points="92.5,-17 92.5,-36 "/>
<text text-anchor="middle" x="112" y="-24" font-family="Helvetica,sans-Serif" font-size="10.00">26</text>
</a>
</g>
</g>
<!-- FE&#45;&gt;structED -->
<g id="edge2" class="edge">
<title>FE&#45;&gt;structED</title>
<path fill="none" stroke="black" d="M237.79,-60.53C209.89,-55.87 171.98,-49.53 141.67,-44.47"/>
<polygon fill="black" stroke="black" points="142.15,-41 131.71,-42.8 141,-47.9 142.15,-41"/>
<text text-anchor="middle" x="201" y="-59" font-family="Helvetica,sans-Serif" font-size="10.00">output</text>
</g>
</g>
</svg>
