<?xml version="1.0" encoding="UTF-8" standalone="no"?>
<!DOCTYPE svg PUBLIC "-//W3C//DTD SVG 1.1//EN"
 "http://www.w3.org/Graphics/SVG/1.1/DTD/svg11.dtd">
<!-- Generated by graphviz version 2.43.0 (0)
 -->
<!-- Title: FiftyOne.DeviceDetection.Examples.IExampleWriter Pages: 1 -->
<svg width="462pt" height="88pt"
 viewBox="0.00 0.00 462.00 88.00" xmlns="http://www.w3.org/2000/svg" xmlns:xlink="http://www.w3.org/1999/xlink">
<g id="graph0" class="graph" transform="scale(1 1) rotate(0) translate(4 84)">
<title>FiftyOne.DeviceDetection.Examples.IExampleWriter</title>
<!-- Node0 -->
<g id="node1" class="node">
<title>Node0</title>
<g id="a_node1"><a xlink:title="Interface for writing example output.">
<polygon fill="#bfbfbf" stroke="black" points="110,-24.5 110,-54.5 254,-54.5 254,-24.5 110,-24.5"/>
<text text-anchor="start" x="118" y="-42.5" font-family="Helvetica,sans-Serif" font-size="10.00">FiftyOne.DeviceDetection.</text>
<text text-anchor="middle" x="182" y="-31.5" font-family="Helvetica,sans-Serif" font-size="10.00">Examples.IExampleWriter</text>
</a>
</g>
</g>
<!-- Node2 -->
<g id="node3" class="node">
<title>Node2</title>
<g id="a_node3"><a xlink:href="class_fifty_one_1_1_device_detection_1_1_examples_1_1_example_writer_csv.html" target="_top" xlink:title="Simple writer to a text stream in CSV format.">
<polygon fill="none" stroke="black" points="293,-49.5 293,-79.5 451,-79.5 451,-49.5 293,-49.5"/>
<text text-anchor="start" x="301" y="-67.5" font-family="Helvetica,sans-Serif" font-size="10.00">FiftyOne.DeviceDetection.</text>
<text text-anchor="middle" x="372" y="-56.5" font-family="Helvetica,sans-Serif" font-size="10.00">Examples.ExampleWriterCsv</text>
</a>
</g>
</g>
<!-- Node0&#45;&gt;Node2 -->
<g id="edge2" class="edge">
<title>Node0&#45;&gt;Node2</title>
<path fill="none" stroke="midnightblue" d="M264.29,-50.31C273.79,-51.57 283.46,-52.86 292.91,-54.12"/>
<polygon fill="midnightblue" stroke="midnightblue" points="264.45,-46.8 254.07,-48.95 263.53,-53.74 264.45,-46.8"/>
</g>
<!-- Node3 -->
<g id="node4" class="node">
<title>Node3</title>
<g id="a_node4"><a xlink:href="class_fifty_one_1_1_device_detection_1_1_examples_1_1_example_writer_yaml.html" target="_top" xlink:title="Simple writer to a text stream in YAML format using YamlDotNet.">
<polygon fill="none" stroke="black" points="290,-0.5 290,-30.5 454,-30.5 454,-0.5 290,-0.5"/>
<text text-anchor="start" x="298" y="-18.5" font-family="Helvetica,sans-Serif" font-size="10.00">FiftyOne.DeviceDetection.</text>
<text text-anchor="middle" x="372" y="-7.5" font-family="Helvetica,sans-Serif" font-size="10.00">Examples.ExampleWriterYaml</text>
</a>
</g>
</g>
<!-- Node0&#45;&gt;Node3 -->
<g id="edge3" class="edge">
<title>Node0&#45;&gt;Node3</title>
<path fill="none" stroke="midnightblue" d="M264,-29.16C272.53,-28.07 281.2,-26.96 289.74,-25.87"/>
<polygon fill="midnightblue" stroke="midnightblue" points="263.55,-25.69 254.07,-30.43 264.44,-32.63 263.55,-25.69"/>
</g>
<!-- Node1 -->
<g id="node2" class="node">
<title>Node1</title>
<g id="a_node2"><a xlink:title=" ">
<polygon fill="none" stroke="#bfbfbf" points="0,-30 0,-49 74,-49 74,-30 0,-30"/>
<text text-anchor="middle" x="37" y="-37" font-family="Helvetica,sans-Serif" font-size="10.00">IDisposable</text>
</a>
</g>
</g>
<!-- Node1&#45;&gt;Node0 -->
<g id="edge1" class="edge">
<title>Node1&#45;&gt;Node0</title>
<path fill="none" stroke="midnightblue" d="M84.16,-39.5C92.37,-39.5 101.08,-39.5 109.79,-39.5"/>
<polygon fill="midnightblue" stroke="midnightblue" points="84.08,-36 74.08,-39.5 84.08,-43 84.08,-36"/>
</g>
</g>
</svg>
