<?xml version="1.0" encoding="UTF-8" standalone="no"?>
<!DOCTYPE svg PUBLIC "-//W3C//DTD SVG 1.1//EN"
 "http://www.w3.org/Graphics/SVG/1.1/DTD/svg11.dtd">
<!-- Generated by graphviz version 2.43.0 (0)
 -->
<!-- Title: FiftyOne.Pipeline.Engines.FlowElements.AspectEngineBuilderBase&lt; TBuilder, TEngine &gt; Pages: 1 -->
<svg width="1315pt" height="226pt"
 viewBox="0.00 0.00 1315.00 225.50" xmlns="http://www.w3.org/2000/svg" xmlns:xlink="http://www.w3.org/1999/xlink">
<g id="graph0" class="graph" transform="scale(1 1) rotate(0) translate(4 221.5)">
<title>FiftyOne.Pipeline.Engines.FlowElements.AspectEngineBuilderBase&lt; TBuilder, TEngine &gt;</title>
<!-- Node0 -->
<g id="node1" class="node">
<title>Node0</title>
<g id="a_node1"><a xlink:title="Abstract base class that exposes the common options that all 51Degrees engine builders should make us...">
<polygon fill="#bfbfbf" stroke="black" points="0,-83 0,-124 189,-124 189,-83 0,-83"/>
<text text-anchor="start" x="8" y="-112" font-family="Helvetica,sans-Serif" font-size="10.00">FiftyOne.Pipeline.Engines.</text>
<text text-anchor="start" x="8" y="-101" font-family="Helvetica,sans-Serif" font-size="10.00">FlowElements.AspectEngineBuilder</text>
<text text-anchor="middle" x="94.5" y="-90" font-family="Helvetica,sans-Serif" font-size="10.00">Base&lt; TBuilder, TEngine &gt;</text>
</a>
</g>
</g>
<!-- Node1 -->
<g id="node2" class="node">
<title>Node1</title>
<g id="a_node2"><a xlink:href="class_fifty_one_1_1_pipeline_1_1_engines_1_1_flow_elements_1_1_on_premise_aspect_engine_builder_base.html" target="_top" xlink:title="Abstract base class that exposes the common options that all 51Degrees on&#45;premise engine builders sho...">
<polygon fill="none" stroke="black" points="226,-77.5 226,-129.5 402,-129.5 402,-77.5 226,-77.5"/>
<text text-anchor="start" x="234" y="-117.5" font-family="Helvetica,sans-Serif" font-size="10.00">FiftyOne::Pipeline</text>
<text text-anchor="start" x="234" y="-106.5" font-family="Helvetica,sans-Serif" font-size="10.00">::Engines::FlowElements</text>
<text text-anchor="start" x="234" y="-95.5" font-family="Helvetica,sans-Serif" font-size="10.00">::OnPremiseAspectEngineBuilder</text>
<text text-anchor="middle" x="314" y="-84.5" font-family="Helvetica,sans-Serif" font-size="10.00">Base&lt; TBuilder, TEngine &gt;</text>
</a>
</g>
</g>
<!-- Node0&#45;&gt;Node1 -->
<g id="edge1" class="edge">
<title>Node0&#45;&gt;Node1</title>
<path fill="none" stroke="midnightblue" d="M199.06,-103.5C208,-103.5 216.98,-103.5 225.77,-103.5"/>
<polygon fill="midnightblue" stroke="midnightblue" points="199,-100 189,-103.5 199,-107 199,-100"/>
</g>
<!-- Node2 -->
<g id="node3" class="node">
<title>Node2</title>
<g id="a_node3"><a xlink:href="class_fifty_one_1_1_pipeline_1_1_engines_1_1_flow_elements_1_1_single_file_aspect_engine_builder_base.html" target="_top" xlink:title="Abstract base class that exposes the common options that all on&#45;premise engine builders using a singl...">
<polygon fill="none" stroke="black" points="439,-77.5 439,-129.5 609,-129.5 609,-77.5 439,-77.5"/>
<text text-anchor="start" x="447" y="-117.5" font-family="Helvetica,sans-Serif" font-size="10.00">FiftyOne::Pipeline</text>
<text text-anchor="start" x="447" y="-106.5" font-family="Helvetica,sans-Serif" font-size="10.00">::Engines::FlowElements</text>
<text text-anchor="start" x="447" y="-95.5" font-family="Helvetica,sans-Serif" font-size="10.00">::SingleFileAspectEngineBuilder</text>
<text text-anchor="middle" x="524" y="-84.5" font-family="Helvetica,sans-Serif" font-size="10.00">Base&lt; TBuilder, TEngine &gt;</text>
</a>
</g>
</g>
<!-- Node1&#45;&gt;Node2 -->
<g id="edge2" class="edge">
<title>Node1&#45;&gt;Node2</title>
<path fill="none" stroke="midnightblue" d="M412.02,-103.5C420.92,-103.5 429.9,-103.5 438.67,-103.5"/>
<polygon fill="midnightblue" stroke="midnightblue" points="412.01,-100 402.01,-103.5 412.01,-107 412.01,-100"/>
</g>
<!-- Node3 -->
<g id="node4" class="node">
<title>Node3</title>
<g id="a_node4"><a xlink:href="class_fifty_one_1_1_pipeline_1_1_engines_1_1_fifty_one_1_1_flow_elements_1_1_fifty_one_on_premise_aspect_engine_builder_base.html" target="_top" xlink:title="A base class for engine builders for on&#45;premise engines that use a single data file and use the 51Deg...">
<polygon fill="none" stroke="black" points="841,-154 841,-217 1037,-217 1037,-154 841,-154"/>
<text text-anchor="start" x="849" y="-205" font-family="Helvetica,sans-Serif" font-size="10.00">FiftyOne::Pipeline</text>
<text text-anchor="start" x="849" y="-194" font-family="Helvetica,sans-Serif" font-size="10.00">::Engines::FiftyOne</text>
<text text-anchor="start" x="849" y="-183" font-family="Helvetica,sans-Serif" font-size="10.00">::FlowElements::FiftyOneOnPremise</text>
<text text-anchor="start" x="849" y="-172" font-family="Helvetica,sans-Serif" font-size="10.00">AspectEngineBuilderBase&lt; TBuilder,</text>
<text text-anchor="middle" x="939" y="-161" font-family="Helvetica,sans-Serif" font-size="10.00"> TEngine &gt;</text>
</a>
</g>
</g>
<!-- Node2&#45;&gt;Node3 -->
<g id="edge3" class="edge">
<title>Node2&#45;&gt;Node3</title>
<path fill="none" stroke="midnightblue" d="M619.09,-122.18C685.31,-135.33 773.7,-152.88 840.63,-166.17"/>
<polygon fill="midnightblue" stroke="midnightblue" points="619.56,-118.71 609.07,-120.19 618.2,-125.57 619.56,-118.71"/>
</g>
<!-- Node4 -->
<g id="node5" class="node">
<title>Node4</title>
<g id="a_node5"><a xlink:href="class_fifty_one_1_1_pipeline_1_1_engines_1_1_fifty_one_1_1_flow_elements_1_1_property_keyed_engine_builder_base.html" target="_top" xlink:title="Builder for engines derived from PropertyKeyedEngine&lt;TData, TProfile&gt;.">
<polygon fill="none" stroke="black" points="854.5,-72 854.5,-135 1023.5,-135 1023.5,-72 854.5,-72"/>
<text text-anchor="start" x="862.5" y="-123" font-family="Helvetica,sans-Serif" font-size="10.00">FiftyOne::Pipeline</text>
<text text-anchor="start" x="862.5" y="-112" font-family="Helvetica,sans-Serif" font-size="10.00">::Engines::FiftyOne</text>
<text text-anchor="start" x="862.5" y="-101" font-family="Helvetica,sans-Serif" font-size="10.00">::FlowElements::PropertyKeyed</text>
<text text-anchor="start" x="862.5" y="-90" font-family="Helvetica,sans-Serif" font-size="10.00">EngineBuilderBase&lt; TBuilder,</text>
<text text-anchor="middle" x="939" y="-79" font-family="Helvetica,sans-Serif" font-size="10.00"> TEngine &gt;</text>
</a>
</g>
</g>
<!-- Node2&#45;&gt;Node4 -->
<g id="edge4" class="edge">
<title>Node2&#45;&gt;Node4</title>
<path fill="none" stroke="midnightblue" d="M619.34,-103.5C690.18,-103.5 786.3,-103.5 854.4,-103.5"/>
<polygon fill="midnightblue" stroke="midnightblue" points="619.07,-100 609.07,-103.5 619.07,-107 619.07,-100"/>
</g>
<!-- Node5 -->
<g id="node6" class="node">
<title>Node5</title>
<g id="a_node6"><a xlink:href="class_fifty_one_1_1_pipeline_1_1_engines_1_1_flow_elements_1_1_single_file_aspect_engine_builder_base.html" target="_top" xlink:title=" ">
<polygon fill="none" stroke="black" points="817,-0.5 817,-52.5 1061,-52.5 1061,-0.5 817,-0.5"/>
<text text-anchor="start" x="825" y="-40.5" font-family="Helvetica,sans-Serif" font-size="10.00">FiftyOne.Pipeline.Engines.</text>
<text text-anchor="start" x="825" y="-29.5" font-family="Helvetica,sans-Serif" font-size="10.00">FlowElements.SingleFileAspectEngine</text>
<text text-anchor="start" x="825" y="-18.5" font-family="Helvetica,sans-Serif" font-size="10.00">BuilderBase&lt; SimpleOnPremiseEngineBuilder,</text>
<text text-anchor="middle" x="939" y="-7.5" font-family="Helvetica,sans-Serif" font-size="10.00"> SimpleOnPremiseEngine &gt;</text>
</a>
</g>
</g>
<!-- Node2&#45;&gt;Node5 -->
<g id="edge5" class="edge">
<title>Node2&#45;&gt;Node5</title>
<path fill="none" stroke="orange" stroke-dasharray="5,2" d="M619.01,-79.22C621.7,-78.62 624.37,-78.05 627,-77.5 689.26,-64.49 759.11,-52.77 816.81,-43.87"/>
<polygon fill="orange" stroke="orange" points="618.18,-75.81 609.19,-81.43 619.72,-82.64 618.18,-75.81"/>
<text text-anchor="start" x="627" y="-91.5" font-family="Helvetica,sans-Serif" font-size="10.00"> &lt; SimpleOnPremiseEngineBuilder,</text>
<text text-anchor="middle" x="713" y="-80.5" font-family="Helvetica,sans-Serif" font-size="10.00"> SimpleOnPremiseEngine &gt;</text>
</g>
<!-- Node6 -->
<g id="node7" class="node">
<title>Node6</title>
<g id="a_node7"><a xlink:href="class_examples_1_1_on_premise_engine_1_1_flow_elements_1_1_simple_on_premise_engine_builder.html" target="_top" xlink:title="[class]">
<polygon fill="none" stroke="black" points="1098,-6 1098,-47 1307,-47 1307,-6 1098,-6"/>
<text text-anchor="start" x="1106" y="-35" font-family="Helvetica,sans-Serif" font-size="10.00">Examples.OnPremiseEngine.</text>
<text text-anchor="start" x="1106" y="-24" font-family="Helvetica,sans-Serif" font-size="10.00">FlowElements.SimpleOnPremiseEngine</text>
<text text-anchor="middle" x="1202.5" y="-13" font-family="Helvetica,sans-Serif" font-size="10.00">Builder</text>
</a>
</g>
</g>
<!-- Node5&#45;&gt;Node6 -->
<g id="edge6" class="edge">
<title>Node5&#45;&gt;Node6</title>
<path fill="none" stroke="midnightblue" d="M1071.28,-26.5C1080.23,-26.5 1089.18,-26.5 1097.96,-26.5"/>
<polygon fill="midnightblue" stroke="midnightblue" points="1071.18,-23 1061.18,-26.5 1071.18,-30 1071.18,-23"/>
</g>
</g>
</svg>
