<?xml version="1.0" encoding="UTF-8" standalone="no"?>
<!DOCTYPE svg PUBLIC "-//W3C//DTD SVG 1.1//EN"
 "http://www.w3.org/Graphics/SVG/1.1/DTD/svg11.dtd">
<!-- Generated by graphviz version 2.43.0 (0)
 -->
<!-- Title: FiftyOne.Pipeline.Engines.FiftyOne.FlowElements.PropertyKeyedEngine&lt; TData, TProfile &gt; Pages: 1 -->
<svg width="500pt" height="521pt"
 viewBox="0.00 0.00 499.50 521.00" xmlns="http://www.w3.org/2000/svg" xmlns:xlink="http://www.w3.org/1999/xlink">
<g id="graph0" class="graph" transform="scale(1 1) rotate(0) translate(4 517)">
<title>FiftyOne.Pipeline.Engines.FiftyOne.FlowElements.PropertyKeyedEngine&lt; TData, TProfile &gt;</title>
<!-- Node0 -->
<g id="node1" class="node">
<title>Node0</title>
<g id="a_node1"><a xlink:title="Base class for engines that use an index of property values to profile ids to populate one or more pr...">
<polygon fill="#bfbfbf" stroke="black" points="294.5,-0.5 294.5,-41.5 468.5,-41.5 468.5,-0.5 294.5,-0.5"/>
<text text-anchor="start" x="302.5" y="-29.5" font-family="Helvetica,sans-Serif" font-size="10.00">FiftyOne.Pipeline.Engines.</text>
<text text-anchor="start" x="302.5" y="-18.5" font-family="Helvetica,sans-Serif" font-size="10.00">FiftyOne.FlowElements.Property</text>
<text text-anchor="middle" x="381.5" y="-7.5" font-family="Helvetica,sans-Serif" font-size="10.00">KeyedEngine&lt; TData, TProfile &gt;</text>
</a>
</g>
</g>
<!-- Node1 -->
<g id="node2" class="node">
<title>Node1</title>
<g id="a_node2"><a xlink:href="class_fifty_one_1_1_pipeline_1_1_engines_1_1_flow_elements_1_1_on_premise_aspect_engine_base.html" target="_top" xlink:title=" ">
<polygon fill="none" stroke="black" points="218,-79.5 218,-120.5 399,-120.5 399,-79.5 218,-79.5"/>
<text text-anchor="start" x="226" y="-108.5" font-family="Helvetica,sans-Serif" font-size="10.00">OnPremiseAspectEngineBase</text>
<text text-anchor="start" x="226" y="-97.5" font-family="Helvetica,sans-Serif" font-size="10.00">&lt; TData, IFiftyOneAspectProperty</text>
<text text-anchor="middle" x="308.5" y="-86.5" font-family="Helvetica,sans-Serif" font-size="10.00">MetaData &gt;</text>
</a>
</g>
</g>
<!-- Node1&#45;&gt;Node0 -->
<g id="edge1" class="edge">
<title>Node1&#45;&gt;Node0</title>
<path fill="none" stroke="midnightblue" d="M334.24,-71.85C343.64,-61.93 354.09,-50.91 362.76,-41.76"/>
<polygon fill="midnightblue" stroke="midnightblue" points="331.64,-69.51 327.3,-79.17 336.72,-74.32 331.64,-69.51"/>
</g>
<!-- Node2 -->
<g id="node3" class="node">
<title>Node2</title>
<g id="a_node3"><a xlink:href="class_fifty_one_1_1_pipeline_1_1_engines_1_1_flow_elements_1_1_on_premise_aspect_engine_base.html" target="_top" xlink:title="Base class for 51Degrees on&#45;premise aspect engines.">
<polygon fill="none" stroke="black" points="204.5,-179.5 204.5,-220.5 412.5,-220.5 412.5,-179.5 204.5,-179.5"/>
<text text-anchor="start" x="212.5" y="-208.5" font-family="Helvetica,sans-Serif" font-size="10.00">FiftyOne.Pipeline.Engines.</text>
<text text-anchor="start" x="212.5" y="-197.5" font-family="Helvetica,sans-Serif" font-size="10.00">FlowElements.OnPremiseAspectEngine</text>
<text text-anchor="middle" x="308.5" y="-186.5" font-family="Helvetica,sans-Serif" font-size="10.00">Base&lt; T, TMeta &gt;</text>
</a>
</g>
</g>
<!-- Node2&#45;&gt;Node1 -->
<g id="edge2" class="edge">
<title>Node2&#45;&gt;Node1</title>
<path fill="none" stroke="orange" stroke-dasharray="5,2" d="M308.5,-168.92C308.5,-153.29 308.5,-134.61 308.5,-120.8"/>
<polygon fill="orange" stroke="orange" points="305,-169.17 308.5,-179.17 312,-169.17 305,-169.17"/>
<text text-anchor="start" x="308.5" y="-153" font-family="Helvetica,sans-Serif" font-size="10.00"> &lt; TData, IFiftyOneAspect</text>
<text text-anchor="middle" x="372" y="-142" font-family="Helvetica,sans-Serif" font-size="10.00">PropertyMetaData &gt;</text>
</g>
<!-- Node3 -->
<g id="node4" class="node">
<title>Node3</title>
<g id="a_node4"><a xlink:href="class_fifty_one_1_1_pipeline_1_1_engines_1_1_flow_elements_1_1_aspect_engine_base.html" target="_top" xlink:title="Base class for 51Degrees aspect engines.">
<polygon fill="none" stroke="black" points="170,-258.5 170,-288.5 297,-288.5 297,-258.5 170,-258.5"/>
<text text-anchor="start" x="178" y="-276.5" font-family="Helvetica,sans-Serif" font-size="10.00">AspectEngineBase&lt; T,</text>
<text text-anchor="middle" x="233.5" y="-265.5" font-family="Helvetica,sans-Serif" font-size="10.00"> TMeta &gt;</text>
</a>
</g>
</g>
<!-- Node3&#45;&gt;Node2 -->
<g id="edge3" class="edge">
<title>Node3&#45;&gt;Node2</title>
<path fill="none" stroke="midnightblue" d="M255.72,-251.31C265.96,-241.56 278.03,-230.05 288.04,-220.51"/>
<polygon fill="midnightblue" stroke="midnightblue" points="253.14,-248.94 248.32,-258.37 257.97,-254.01 253.14,-248.94"/>
</g>
<!-- Node4 -->
<g id="node5" class="node">
<title>Node4</title>
<g id="a_node5"><a xlink:href="class_fifty_one_1_1_pipeline_1_1_core_1_1_flow_elements_1_1_flow_element_base.html" target="_top" xlink:title="Abstract base class for Flow Elements.">
<polygon fill="none" stroke="black" points="22,-326.5 22,-356.5 147,-356.5 147,-326.5 22,-326.5"/>
<text text-anchor="start" x="30" y="-344.5" font-family="Helvetica,sans-Serif" font-size="10.00">FlowElementBase&lt; T,</text>
<text text-anchor="middle" x="84.5" y="-333.5" font-family="Helvetica,sans-Serif" font-size="10.00"> TMeta &gt;</text>
</a>
</g>
</g>
<!-- Node4&#45;&gt;Node3 -->
<g id="edge4" class="edge">
<title>Node4&#45;&gt;Node3</title>
<path fill="none" stroke="midnightblue" d="M125.7,-322.25C149.76,-311.59 179.65,-298.35 201.84,-288.52"/>
<polygon fill="midnightblue" stroke="midnightblue" points="124.19,-319.09 116.46,-326.34 127.02,-325.49 124.19,-319.09"/>
</g>
<!-- Node5 -->
<g id="node6" class="node">
<title>Node5</title>
<g id="a_node6"><a xlink:href="interface_fifty_one_1_1_pipeline_1_1_core_1_1_flow_elements_1_1_i_flow_element.html" target="_top" xlink:title=" ">
<polygon fill="none" stroke="black" points="1,-410 1,-429 150,-429 150,-410 1,-410"/>
<text text-anchor="middle" x="75.5" y="-417" font-family="Helvetica,sans-Serif" font-size="10.00">IFlowElement&lt; T, TMeta &gt;</text>
</a>
</g>
</g>
<!-- Node5&#45;&gt;Node4 -->
<g id="edge5" class="edge">
<title>Node5&#45;&gt;Node4</title>
<path fill="none" stroke="midnightblue" d="M77.72,-399.78C79.3,-386.4 81.4,-368.69 82.84,-356.52"/>
<polygon fill="midnightblue" stroke="midnightblue" points="74.23,-399.44 76.53,-409.78 81.18,-400.26 74.23,-399.44"/>
</g>
<!-- Node6 -->
<g id="node7" class="node">
<title>Node6</title>
<g id="a_node7"><a xlink:href="interface_fifty_one_1_1_pipeline_1_1_core_1_1_flow_elements_1_1_i_flow_element.html" target="_top" xlink:title="IFlowElement is the basic building block of a pipeline.">
<polygon fill="none" stroke="black" points="0,-482.5 0,-512.5 151,-512.5 151,-482.5 0,-482.5"/>
<text text-anchor="start" x="8" y="-500.5" font-family="Helvetica,sans-Serif" font-size="10.00">FiftyOne.Pipeline.Core.Flow</text>
<text text-anchor="middle" x="75.5" y="-489.5" font-family="Helvetica,sans-Serif" font-size="10.00">Elements.IFlowElement</text>
</a>
</g>
</g>
<!-- Node6&#45;&gt;Node5 -->
<g id="edge6" class="edge">
<title>Node6&#45;&gt;Node5</title>
<path fill="none" stroke="orange" stroke-dasharray="5,2" d="M75.5,-472.17C75.5,-457.4 75.5,-439.45 75.5,-429.06"/>
<polygon fill="orange" stroke="orange" points="72,-472.2 75.5,-482.2 79,-472.21 72,-472.2"/>
<text text-anchor="middle" x="110" y="-456" font-family="Helvetica,sans-Serif" font-size="10.00"> &lt; T, TMeta &gt;</text>
</g>
<!-- Node7 -->
<g id="node8" class="node">
<title>Node7</title>
<g id="a_node8"><a xlink:href="interface_fifty_one_1_1_pipeline_1_1_engines_1_1_flow_elements_1_1_i_aspect_engine.html" target="_top" xlink:title=" ">
<polygon fill="none" stroke="black" points="169,-332 169,-351 320,-351 320,-332 169,-332"/>
<text text-anchor="middle" x="244.5" y="-339" font-family="Helvetica,sans-Serif" font-size="10.00">IAspectEngine&lt; T, TMeta &gt;</text>
</a>
</g>
</g>
<!-- Node7&#45;&gt;Node3 -->
<g id="edge7" class="edge">
<title>Node7&#45;&gt;Node3</title>
<path fill="none" stroke="midnightblue" d="M241.36,-321.67C239.61,-311.18 237.47,-298.32 235.86,-288.68"/>
<polygon fill="midnightblue" stroke="midnightblue" points="237.97,-322.58 243.06,-331.87 244.87,-321.43 237.97,-322.58"/>
</g>
<!-- Node8 -->
<g id="node9" class="node">
<title>Node8</title>
<g id="a_node9"><a xlink:href="interface_fifty_one_1_1_pipeline_1_1_engines_1_1_flow_elements_1_1_i_aspect_engine.html" target="_top" xlink:title="Interface representing 51Degrees on&#45;premise aspect engines.">
<polygon fill="none" stroke="black" points="167.5,-404.5 167.5,-434.5 325.5,-434.5 325.5,-404.5 167.5,-404.5"/>
<text text-anchor="start" x="175.5" y="-422.5" font-family="Helvetica,sans-Serif" font-size="10.00">FiftyOne.Pipeline.Engines.</text>
<text text-anchor="middle" x="246.5" y="-411.5" font-family="Helvetica,sans-Serif" font-size="10.00">FlowElements.IAspectEngine</text>
</a>
</g>
</g>
<!-- Node8&#45;&gt;Node7 -->
<g id="edge8" class="edge">
<title>Node8&#45;&gt;Node7</title>
<path fill="none" stroke="orange" stroke-dasharray="5,2" d="M245.86,-394.17C245.47,-379.4 245,-361.45 244.73,-351.06"/>
<polygon fill="orange" stroke="orange" points="242.36,-394.3 246.12,-404.2 249.36,-394.12 242.36,-394.3"/>
<text text-anchor="middle" x="281" y="-378" font-family="Helvetica,sans-Serif" font-size="10.00"> &lt; T, TMeta &gt;</text>
</g>
<!-- Node9 -->
<g id="node10" class="node">
<title>Node9</title>
<g id="a_node10"><a xlink:href="interface_fifty_one_1_1_pipeline_1_1_engines_1_1_flow_elements_1_1_i_on_premise_aspect_engine.html" target="_top" xlink:title="Interface for an AspectEngine that processes evidence using one or more local data files.">
<polygon fill="none" stroke="black" points="315,-264 315,-283 454,-283 454,-264 315,-264"/>
<text text-anchor="middle" x="384.5" y="-271" font-family="Helvetica,sans-Serif" font-size="10.00">IOnPremiseAspectEngine</text>
</a>
</g>
</g>
<!-- Node9&#45;&gt;Node2 -->
<g id="edge9" class="edge">
<title>Node9&#45;&gt;Node2</title>
<path fill="none" stroke="midnightblue" d="M367.7,-256.7C356.41,-246.07 341.44,-231.99 329.38,-220.64"/>
<polygon fill="midnightblue" stroke="midnightblue" points="365.5,-259.43 375.18,-263.73 370.3,-254.33 365.5,-259.43"/>
</g>
<!-- Node10 -->
<g id="node11" class="node">
<title>Node10</title>
<g id="a_node11"><a xlink:href="interface_fifty_one_1_1_pipeline_1_1_engines_1_1_flow_elements_1_1_i_aspect_engine.html" target="_top" xlink:title="Interface representing 51Degrees on&#45;premise aspect engines.">
<polygon fill="none" stroke="black" points="341.5,-332 341.5,-351 427.5,-351 427.5,-332 341.5,-332"/>
<text text-anchor="middle" x="384.5" y="-339" font-family="Helvetica,sans-Serif" font-size="10.00">IAspectEngine</text>
</a>
</g>
</g>
<!-- Node10&#45;&gt;Node9 -->
<g id="edge10" class="edge">
<title>Node10&#45;&gt;Node9</title>
<path fill="none" stroke="midnightblue" d="M384.5,-321.54C384.5,-308.97 384.5,-293.06 384.5,-283.34"/>
<polygon fill="midnightblue" stroke="midnightblue" points="381,-321.87 384.5,-331.87 388,-321.87 381,-321.87"/>
</g>
<!-- Node11 -->
<g id="node12" class="node">
<title>Node11</title>
<g id="a_node12"><a xlink:title=" ">
<polygon fill="none" stroke="#bfbfbf" points="417.5,-90.5 417.5,-109.5 491.5,-109.5 491.5,-90.5 417.5,-90.5"/>
<text text-anchor="middle" x="454.5" y="-97.5" font-family="Helvetica,sans-Serif" font-size="10.00">IDisposable</text>
</a>
</g>
</g>
<!-- Node11&#45;&gt;Node0 -->
<g id="edge11" class="edge">
<title>Node11&#45;&gt;Node0</title>
<path fill="none" stroke="midnightblue" d="M439.32,-82.99C427.97,-71.01 412.37,-54.56 400.24,-41.77"/>
<polygon fill="midnightblue" stroke="midnightblue" points="436.99,-85.62 446.41,-90.47 442.07,-80.8 436.99,-85.62"/>
</g>
</g>
</svg>
