<?xml version="1.0" encoding="UTF-8" standalone="no"?>
<!DOCTYPE svg PUBLIC "-//W3C//DTD SVG 1.1//EN"
 "http://www.w3.org/Graphics/SVG/1.1/DTD/svg11.dtd">
<!-- Generated by graphviz version 2.43.0 (0)
 -->
<!-- Title: FiftyOne.Pipeline.Translation.Data.TranslationData Pages: 1 -->
<svg width="740pt" height="86pt"
 viewBox="0.00 0.00 740.00 86.00" xmlns="http://www.w3.org/2000/svg" xmlns:xlink="http://www.w3.org/1999/xlink">
<g id="graph0" class="graph" transform="scale(1 1) rotate(0) translate(4 82)">
<title>FiftyOne.Pipeline.Translation.Data.TranslationData</title>
<!-- Node1 -->
<g id="Node000001" class="node">
<title>Node1</title>
<g id="a_Node000001"><a xlink:title="Data object populated by FlowElements.TranslationEngine.">
<polygon fill="#999999" stroke="#666666" points="732,-54 574,-54 574,-24 732,-24 732,-54"/>
<text text-anchor="start" x="582" y="-42" font-family="Helvetica,sans-Serif" font-size="10.00">FiftyOne.Pipeline.Translation.</text>
<text text-anchor="middle" x="653" y="-31" font-family="Helvetica,sans-Serif" font-size="10.00">Data.TranslationData</text>
</a>
</g>
</g>
<!-- Node2 -->
<g id="Node000002" class="node">
<title>Node2</title>
<g id="a_Node000002"><a xlink:href="class_fifty_one_1_1_pipeline_1_1_core_1_1_data_1_1_element_data_base.html" target="_top" xlink:title="This class stores property values that have been determined by a specific FlowElement based on the su...">
<polygon fill="white" stroke="#666666" points="536,-78 382,-78 382,-48 536,-48 536,-78"/>
<text text-anchor="start" x="390" y="-66" font-family="Helvetica,sans-Serif" font-size="10.00">FiftyOne.Pipeline.Core.Data.</text>
<text text-anchor="middle" x="459" y="-55" font-family="Helvetica,sans-Serif" font-size="10.00">ElementDataBase</text>
</a>
</g>
</g>
<!-- Node2&#45;&gt;Node1 -->
<g id="edge1_Node000001_Node000002" class="edge">
<title>Node2&#45;&gt;Node1</title>
<g id="a_edge1_Node000001_Node000002"><a xlink:title=" ">
<path fill="none" stroke="#63b8ff" d="M546.08,-52.24C555.29,-51.09 564.62,-49.92 573.73,-48.78"/>
<polygon fill="#63b8ff" stroke="#63b8ff" points="545.65,-48.77 536.16,-53.48 546.52,-55.71 545.65,-48.77"/>
</a>
</g>
</g>
<!-- Node3 -->
<g id="Node000003" class="node">
<title>Node3</title>
<g id="a_Node000003"><a xlink:href="class_fifty_one_1_1_pipeline_1_1_core_1_1_data_1_1_data_base.html" target="_top" xlink:title="This class stores data values as key/value pairs where the key is a string and the value can be any t...">
<polygon fill="white" stroke="#666666" points="344,-78 190,-78 190,-48 344,-48 344,-78"/>
<text text-anchor="start" x="198" y="-66" font-family="Helvetica,sans-Serif" font-size="10.00">FiftyOne.Pipeline.Core.Data.</text>
<text text-anchor="middle" x="267" y="-55" font-family="Helvetica,sans-Serif" font-size="10.00">DataBase</text>
</a>
</g>
</g>
<!-- Node3&#45;&gt;Node2 -->
<g id="edge2_Node000002_Node000003" class="edge">
<title>Node3&#45;&gt;Node2</title>
<g id="a_edge2_Node000002_Node000003"><a xlink:title=" ">
<path fill="none" stroke="#63b8ff" d="M354.43,-63C363.56,-63 372.8,-63 381.8,-63"/>
<polygon fill="#63b8ff" stroke="#63b8ff" points="354.19,-59.5 344.19,-63 354.19,-66.5 354.19,-59.5"/>
</a>
</g>
</g>
<!-- Node4 -->
<g id="Node000004" class="node">
<title>Node4</title>
<g id="a_Node000004"><a xlink:href="interface_fifty_one_1_1_pipeline_1_1_core_1_1_data_1_1_i_data.html" target="_top" xlink:title="Represents property values.">
<polygon fill="white" stroke="#666666" points="154,-54 0,-54 0,-24 154,-24 154,-54"/>
<text text-anchor="start" x="8" y="-42" font-family="Helvetica,sans-Serif" font-size="10.00">FiftyOne.Pipeline.Core.Data.</text>
<text text-anchor="middle" x="77" y="-31" font-family="Helvetica,sans-Serif" font-size="10.00">IData</text>
</a>
</g>
</g>
<!-- Node4&#45;&gt;Node3 -->
<g id="edge3_Node000003_Node000004" class="edge">
<title>Node4&#45;&gt;Node3</title>
<g id="a_edge3_Node000003_Node000004"><a xlink:title=" ">
<path fill="none" stroke="#63b8ff" d="M164.15,-50C172.67,-51.09 181.28,-52.18 189.7,-53.26"/>
<polygon fill="#63b8ff" stroke="#63b8ff" points="164.56,-46.52 154.2,-48.73 163.67,-53.47 164.56,-46.52"/>
</a>
</g>
</g>
<!-- Node5 -->
<g id="Node000005" class="node">
<title>Node5</title>
<g id="a_Node000005"><a xlink:href="interface_fifty_one_1_1_pipeline_1_1_core_1_1_data_1_1_i_element_data.html" target="_top" xlink:title="Represents property values that have been determined by a specific FlowElement based on the supplied ...">
<polygon fill="white" stroke="#666666" points="344,-30 190,-30 190,0 344,0 344,-30"/>
<text text-anchor="start" x="198" y="-18" font-family="Helvetica,sans-Serif" font-size="10.00">FiftyOne.Pipeline.Core.Data.</text>
<text text-anchor="middle" x="267" y="-7" font-family="Helvetica,sans-Serif" font-size="10.00">IElementData</text>
</a>
</g>
</g>
<!-- Node4&#45;&gt;Node5 -->
<g id="edge5_Node000005_Node000004" class="edge">
<title>Node4&#45;&gt;Node5</title>
<g id="a_edge5_Node000005_Node000004"><a xlink:title=" ">
<path fill="none" stroke="#63b8ff" d="M164.15,-28C172.67,-26.91 181.28,-25.82 189.7,-24.74"/>
<polygon fill="#63b8ff" stroke="#63b8ff" points="163.67,-24.53 154.2,-29.27 164.56,-31.48 163.67,-24.53"/>
</a>
</g>
</g>
<!-- Node5&#45;&gt;Node2 -->
<g id="edge4_Node000002_Node000005" class="edge">
<title>Node5&#45;&gt;Node2</title>
<g id="a_edge4_Node000002_Node000005"><a xlink:title=" ">
<path fill="none" stroke="#63b8ff" d="M337.31,-32.51C357.42,-37.59 379.18,-43.09 398.62,-48"/>
<polygon fill="#63b8ff" stroke="#63b8ff" points="338.15,-29.11 327.6,-30.06 336.43,-35.9 338.15,-29.11"/>
</a>
</g>
</g>
<!-- Node6 -->
<g id="Node000006" class="node">
<title>Node6</title>
<g id="a_Node000006"><a xlink:href="interface_fifty_one_1_1_pipeline_1_1_translation_1_1_data_1_1_i_translation_data.html" target="_top" xlink:title="Element data marker interface for FlowElements.TranslationEngine.">
<polygon fill="white" stroke="#666666" points="538,-30 380,-30 380,0 538,0 538,-30"/>
<text text-anchor="start" x="388" y="-18" font-family="Helvetica,sans-Serif" font-size="10.00">FiftyOne.Pipeline.Translation.</text>
<text text-anchor="middle" x="459" y="-7" font-family="Helvetica,sans-Serif" font-size="10.00">Data.ITranslationData</text>
</a>
</g>
</g>
<!-- Node5&#45;&gt;Node6 -->
<g id="edge7_Node000006_Node000005" class="edge">
<title>Node5&#45;&gt;Node6</title>
<g id="a_edge7_Node000006_Node000005"><a xlink:title=" ">
<path fill="none" stroke="#63b8ff" d="M354.19,-15C362.77,-15 371.45,-15 379.94,-15"/>
<polygon fill="#63b8ff" stroke="#63b8ff" points="354.19,-11.5 344.19,-15 354.19,-18.5 354.19,-11.5"/>
</a>
</g>
</g>
<!-- Node6&#45;&gt;Node1 -->
<g id="edge6_Node000001_Node000006" class="edge">
<title>Node6&#45;&gt;Node1</title>
<g id="a_edge6_Node000001_Node000006"><a xlink:title=" ">
<path fill="none" stroke="#63b8ff" d="M548.15,-26.02C556.77,-27.1 565.47,-28.18 573.98,-29.25"/>
<polygon fill="#63b8ff" stroke="#63b8ff" points="548.45,-22.53 538.09,-24.76 547.58,-29.48 548.45,-22.53"/>
</a>
</g>
</g>
</g>
</svg>
