<?xml version="1.0" encoding="UTF-8" standalone="no"?>
<!DOCTYPE svg PUBLIC "-//W3C//DTD SVG 1.1//EN"
 "http://www.w3.org/Graphics/SVG/1.1/DTD/svg11.dtd">
<!-- Generated by graphviz version 2.43.0 (0)
 -->
<!-- Title: FiftyOne.Pipeline.Engines.Caching.DefaultFlowCache Pages: 1 -->
<svg width="704pt" height="98pt"
 viewBox="0.00 0.00 704.00 97.50" xmlns="http://www.w3.org/2000/svg" xmlns:xlink="http://www.w3.org/1999/xlink">
<g id="graph0" class="graph" transform="scale(1 1) rotate(0) translate(4 93.5)">
<title>FiftyOne.Pipeline.Engines.Caching.DefaultFlowCache</title>
<!-- Node1 -->
<g id="Node000001" class="node">
<title>Node1</title>
<g id="a_Node000001"><a xlink:title="The default &#39;flow cache&#39; implementation.">
<polygon fill="#999999" stroke="#666666" points="696,-57 548,-57 548,-27 696,-27 696,-57"/>
<text text-anchor="start" x="556" y="-45" font-family="Helvetica,sans-Serif" font-size="10.00">FiftyOne.Pipeline.Engines.</text>
<text text-anchor="middle" x="622" y="-34" font-family="Helvetica,sans-Serif" font-size="10.00">Caching.DefaultFlowCache</text>
</a>
</g>
</g>
<!-- Node2 -->
<g id="Node000002" class="node">
<title>Node2</title>
<g id="a_Node000002"><a xlink:href="class_fifty_one_1_1_pipeline_1_1_engines_1_1_caching_1_1_data_keyed_cache_base-1-g.html" target="_top" xlink:title="Abstract base class for caches that use IFlowData as the key.">
<polygon fill="white" stroke="#666666" points="512,-89.5 346,-89.5 346,-48.5 512,-48.5 512,-89.5"/>
<text text-anchor="start" x="354" y="-77.5" font-family="Helvetica,sans-Serif" font-size="10.00">FiftyOne.Pipeline.Engines.</text>
<text text-anchor="start" x="354" y="-66.5" font-family="Helvetica,sans-Serif" font-size="10.00">Caching.DataKeyedCacheBase</text>
<text text-anchor="middle" x="429" y="-55.5" font-family="Helvetica,sans-Serif" font-size="10.00">&lt; TValue &gt;</text>
</a>
</g>
</g>
<!-- Node2&#45;&gt;Node1 -->
<g id="edge1_Node000001_Node000002" class="edge">
<title>Node2&#45;&gt;Node1</title>
<g id="a_edge1_Node000001_Node000002"><a xlink:title=" ">
<path fill="none" stroke="#63b8ff" d="M522.23,-55.96C530.87,-54.74 539.56,-53.51 547.99,-52.32"/>
<polygon fill="#63b8ff" stroke="#63b8ff" points="521.52,-52.53 512.11,-57.39 522.5,-59.46 521.52,-52.53"/>
</a>
</g>
</g>
<!-- Node3 -->
<g id="Node000003" class="node">
<title>Node3</title>
<g id="a_Node000003"><a xlink:href="interface_fifty_one_1_1_pipeline_1_1_engines_1_1_caching_1_1_i_data_keyed_cache-1-g.html" target="_top" xlink:title="Represents a put cache where the key is a IFlowData instance.">
<polygon fill="white" stroke="#666666" points="310,-62.5 165,-62.5 165,-21.5 310,-21.5 310,-62.5"/>
<text text-anchor="start" x="173" y="-50.5" font-family="Helvetica,sans-Serif" font-size="10.00">FiftyOne.Pipeline.Engines.</text>
<text text-anchor="start" x="173" y="-39.5" font-family="Helvetica,sans-Serif" font-size="10.00">Caching.IDataKeyedCache</text>
<text text-anchor="middle" x="237.5" y="-28.5" font-family="Helvetica,sans-Serif" font-size="10.00">&lt; TValue &gt;</text>
</a>
</g>
</g>
<!-- Node3&#45;&gt;Node2 -->
<g id="edge2_Node000002_Node000003" class="edge">
<title>Node3&#45;&gt;Node2</title>
<g id="a_edge2_Node000002_Node000003"><a xlink:title=" ">
<path fill="none" stroke="#63b8ff" d="M320.06,-53.62C328.58,-54.83 337.24,-56.07 345.77,-57.28"/>
<polygon fill="#63b8ff" stroke="#63b8ff" points="320.54,-50.15 310.14,-52.21 319.55,-57.08 320.54,-50.15"/>
</a>
</g>
</g>
<!-- Node5 -->
<g id="Node000005" class="node">
<title>Node5</title>
<g id="a_Node000005"><a xlink:href="interface_fifty_one_1_1_pipeline_1_1_engines_1_1_caching_1_1_i_flow_cache.html" target="_top" xlink:title="Represents a &#39;flow cache&#39; See the Specification.">
<polygon fill="white" stroke="#666666" points="500.5,-30 357.5,-30 357.5,0 500.5,0 500.5,-30"/>
<text text-anchor="start" x="365.5" y="-18" font-family="Helvetica,sans-Serif" font-size="10.00">FiftyOne.Pipeline.Engines.</text>
<text text-anchor="middle" x="429" y="-7" font-family="Helvetica,sans-Serif" font-size="10.00">Caching.IFlowCache</text>
</a>
</g>
</g>
<!-- Node3&#45;&gt;Node5 -->
<g id="edge5_Node000005_Node000003" class="edge">
<title>Node3&#45;&gt;Node5</title>
<g id="a_edge5_Node000005_Node000003"><a xlink:title=" ">
<path fill="none" stroke="#63b8ff" d="M320.36,-30.34C332.63,-28.59 345.19,-26.8 357.2,-25.09"/>
<polygon fill="#63b8ff" stroke="#63b8ff" points="319.55,-26.92 310.14,-31.79 320.54,-33.85 319.55,-26.92"/>
</a>
</g>
</g>
<!-- Node4 -->
<g id="Node000004" class="node">
<title>Node4</title>
<g id="a_Node000004"><a xlink:title=" ">
<polygon fill="white" stroke="#bfbfbf" points="129,-57 0,-57 0,-27 129,-27 129,-57"/>
<text text-anchor="start" x="8" y="-45" font-family="Helvetica,sans-Serif" font-size="10.00">IPutCache&lt; IFlowData,</text>
<text text-anchor="middle" x="64.5" y="-34" font-family="Helvetica,sans-Serif" font-size="10.00"> TValue &gt;</text>
</a>
</g>
</g>
<!-- Node4&#45;&gt;Node3 -->
<g id="edge3_Node000003_Node000004" class="edge">
<title>Node4&#45;&gt;Node3</title>
<g id="a_edge3_Node000003_Node000004"><a xlink:title=" ">
<path fill="none" stroke="#63b8ff" d="M139.34,-42C147.76,-42 156.33,-42 164.72,-42"/>
<polygon fill="#63b8ff" stroke="#63b8ff" points="139.17,-38.5 129.17,-42 139.17,-45.5 139.17,-38.5"/>
</a>
</g>
</g>
<!-- Node5&#45;&gt;Node1 -->
<g id="edge4_Node000001_Node000005" class="edge">
<title>Node5&#45;&gt;Node1</title>
<g id="a_edge4_Node000001_Node000005"><a xlink:title=" ">
<path fill="none" stroke="#63b8ff" d="M510.81,-26.42C523.1,-28.16 535.72,-29.94 547.83,-31.66"/>
<polygon fill="#63b8ff" stroke="#63b8ff" points="510.97,-22.91 500.58,-24.98 509.99,-29.84 510.97,-22.91"/>
</a>
</g>
</g>
</g>
</svg>
