<?xml version="1.0" encoding="UTF-8" standalone="no"?>
<!DOCTYPE svg PUBLIC "-//W3C//DTD SVG 1.1//EN"
 "http://www.w3.org/Graphics/SVG/1.1/DTD/svg11.dtd">
<!-- Generated by graphviz version 2.43.0 (0)
 -->
<!-- Title: FiftyOne.Pipeline.Engines.FiftyOne.Data.ValueMetaDataDefault Pages: 1 -->
<svg width="467pt" height="151pt"
 viewBox="0.00 0.00 466.50 151.00" xmlns="http://www.w3.org/2000/svg" xmlns:xlink="http://www.w3.org/1999/xlink">
<g id="graph0" class="graph" transform="scale(1 1) rotate(0) translate(4 147)">
<title>FiftyOne.Pipeline.Engines.FiftyOne.Data.ValueMetaDataDefault</title>
<!-- Node0 -->
<g id="node1" class="node">
<title>Node0</title>
<g id="a_node1"><a xlink:title="Data class that contains meta&#45;data relating to a specific value.">
<polygon fill="#bfbfbf" stroke="black" points="178,-0.5 178,-30.5 375,-30.5 375,-0.5 178,-0.5"/>
<text text-anchor="start" x="186" y="-18.5" font-family="Helvetica,sans-Serif" font-size="10.00">FiftyOne.Pipeline.Engines.</text>
<text text-anchor="middle" x="276.5" y="-7.5" font-family="Helvetica,sans-Serif" font-size="10.00">FiftyOne.Data.ValueMetaDataDefault</text>
</a>
</g>
</g>
<!-- Node1 -->
<g id="node2" class="node">
<title>Node1</title>
<g id="a_node2"><a xlink:href="interface_fifty_one_1_1_pipeline_1_1_engines_1_1_fifty_one_1_1_data_1_1_i_value_meta_data.html" target="_top" xlink:title="Meta data relating to a specific value within a data set.">
<polygon fill="none" stroke="black" points="229,-67.5 229,-86.5 324,-86.5 324,-67.5 229,-67.5"/>
<text text-anchor="middle" x="276.5" y="-74.5" font-family="Helvetica,sans-Serif" font-size="10.00">IValueMetaData</text>
</a>
</g>
</g>
<!-- Node1&#45;&gt;Node0 -->
<g id="edge1" class="edge">
<title>Node1&#45;&gt;Node0</title>
<path fill="none" stroke="midnightblue" d="M276.5,-57.23C276.5,-48.59 276.5,-38.5 276.5,-30.52"/>
<polygon fill="midnightblue" stroke="midnightblue" points="273,-57.48 276.5,-67.48 280,-57.48 273,-57.48"/>
</g>
<!-- Node2 -->
<g id="node3" class="node">
<title>Node2</title>
<g id="a_node3"><a xlink:title=" ">
<polygon fill="none" stroke="#bfbfbf" points="0,-123.5 0,-142.5 169,-142.5 169,-123.5 0,-123.5"/>
<text text-anchor="middle" x="84.5" y="-130.5" font-family="Helvetica,sans-Serif" font-size="10.00">IEquatable&lt; IValueMetaData &gt;</text>
</a>
</g>
</g>
<!-- Node2&#45;&gt;Node1 -->
<g id="edge2" class="edge">
<title>Node2&#45;&gt;Node1</title>
<path fill="none" stroke="midnightblue" d="M124.68,-120.7C160.92,-110.51 213.41,-95.74 246.22,-86.52"/>
<polygon fill="midnightblue" stroke="midnightblue" points="123.6,-117.37 114.92,-123.44 125.5,-124.11 123.6,-117.37"/>
</g>
<!-- Node3 -->
<g id="node4" class="node">
<title>Node3</title>
<g id="a_node4"><a xlink:title=" ">
<polygon fill="none" stroke="#bfbfbf" points="187,-123.5 187,-142.5 366,-142.5 366,-123.5 187,-123.5"/>
<text text-anchor="middle" x="276.5" y="-130.5" font-family="Helvetica,sans-Serif" font-size="10.00">IComparable&lt; IValueMetaData &gt;</text>
</a>
</g>
</g>
<!-- Node3&#45;&gt;Node1 -->
<g id="edge3" class="edge">
<title>Node3&#45;&gt;Node1</title>
<path fill="none" stroke="midnightblue" d="M276.5,-112.8C276.5,-103.91 276.5,-93.78 276.5,-86.75"/>
<polygon fill="midnightblue" stroke="midnightblue" points="273,-113.08 276.5,-123.08 280,-113.08 273,-113.08"/>
</g>
<!-- Node4 -->
<g id="node5" class="node">
<title>Node4</title>
<g id="a_node5"><a xlink:title=" ">
<polygon fill="none" stroke="#bfbfbf" points="384.5,-123.5 384.5,-142.5 458.5,-142.5 458.5,-123.5 384.5,-123.5"/>
<text text-anchor="middle" x="421.5" y="-130.5" font-family="Helvetica,sans-Serif" font-size="10.00">IDisposable</text>
</a>
</g>
</g>
<!-- Node4&#45;&gt;Node1 -->
<g id="edge4" class="edge">
<title>Node4&#45;&gt;Node1</title>
<path fill="none" stroke="midnightblue" d="M389.02,-119.91C361.76,-109.75 323.51,-95.51 299.37,-86.52"/>
<polygon fill="midnightblue" stroke="midnightblue" points="387.93,-123.23 398.52,-123.44 390.37,-116.67 387.93,-123.23"/>
</g>
</g>
</svg>
