<?xml version="1.0" encoding="UTF-8" standalone="no"?>
<!DOCTYPE svg PUBLIC "-//W3C//DTD SVG 1.1//EN"
 "http://www.w3.org/Graphics/SVG/1.1/DTD/svg11.dtd">
<!-- Generated by graphviz version 2.43.0 (0)
 -->
<!-- Title: FiftyOne.Pipeline.Engines.FiftyOne.FlowElements.SetHeadersElement Pages: 1 -->
<svg width="908pt" height="108pt"
 viewBox="0.00 0.00 908.00 108.00" xmlns="http://www.w3.org/2000/svg" xmlns:xlink="http://www.w3.org/1999/xlink">
<g id="graph0" class="graph" transform="scale(1 1) rotate(0) translate(4 104)">
<title>FiftyOne.Pipeline.Engines.FiftyOne.FlowElements.SetHeadersElement</title>
<!-- Node1 -->
<g id="Node000001" class="node">
<title>Node1</title>
<g id="a_Node000001"><a xlink:title="This element is used to determine the values for HTTP headers that other elements in the pipeline wan...">
<polygon fill="#999999" stroke="#666666" points="900,-70 712,-70 712,-29 900,-29 900,-70"/>
<text text-anchor="start" x="720" y="-58" font-family="Helvetica,sans-Serif" font-size="10.00">FiftyOne.Pipeline.Engines.</text>
<text text-anchor="start" x="720" y="-47" font-family="Helvetica,sans-Serif" font-size="10.00">FiftyOne.FlowElements.SetHeaders</text>
<text text-anchor="middle" x="806" y="-36" font-family="Helvetica,sans-Serif" font-size="10.00">Element</text>
</a>
</g>
</g>
<!-- Node2 -->
<g id="Node000002" class="node">
<title>Node2</title>
<g id="a_Node000002"><a xlink:href="class_fifty_one_1_1_pipeline_1_1_core_1_1_flow_elements_1_1_flow_element_base-2-g.html" target="_top" xlink:title="Abstract base class for Flow Elements.">
<polygon fill="white" stroke="#666666" points="657,-100 504,-100 504,-59 657,-59 657,-100"/>
<text text-anchor="start" x="512" y="-88" font-family="Helvetica,sans-Serif" font-size="10.00">FiftyOne.Pipeline.Core.Flow</text>
<text text-anchor="start" x="512" y="-77" font-family="Helvetica,sans-Serif" font-size="10.00">Elements.FlowElementBase</text>
<text text-anchor="middle" x="580.5" y="-66" font-family="Helvetica,sans-Serif" font-size="10.00">&lt; T, TMeta &gt;</text>
</a>
</g>
</g>
<!-- Node2&#45;&gt;Node1 -->
<g id="edge1_Node000001_Node000002" class="edge">
<title>Node2&#45;&gt;Node1</title>
<g id="a_edge1_Node000001_Node000002"><a xlink:title=" ">
<path fill="none" stroke="#63b8ff" d="M667.2,-68C681.85,-66.03 697.13,-63.98 711.97,-61.99"/>
<polygon fill="#63b8ff" stroke="#63b8ff" points="666.61,-64.54 657.17,-69.34 667.54,-71.48 666.61,-64.54"/>
</a>
</g>
</g>
<!-- Node3 -->
<g id="Node000003" class="node">
<title>Node3</title>
<g id="a_Node000003"><a xlink:href="interface_fifty_one_1_1_pipeline_1_1_core_1_1_flow_elements_1_1_i_flow_element-2-g.html" target="_top" xlink:title="Generic interface that extends IFlowElement with the ability to return a ITypedKey&lt;T&gt; that will allow...">
<polygon fill="white" stroke="#666666" points="449,-70 297,-70 297,-29 449,-29 449,-70"/>
<text text-anchor="start" x="305" y="-58" font-family="Helvetica,sans-Serif" font-size="10.00">FiftyOne.Pipeline.Core.Flow</text>
<text text-anchor="start" x="305" y="-47" font-family="Helvetica,sans-Serif" font-size="10.00">Elements.IFlowElement&lt; T,</text>
<text text-anchor="middle" x="373" y="-36" font-family="Helvetica,sans-Serif" font-size="10.00"> TMeta &gt;</text>
</a>
</g>
</g>
<!-- Node3&#45;&gt;Node2 -->
<g id="edge2_Node000002_Node000003" class="edge">
<title>Node3&#45;&gt;Node2</title>
<g id="a_edge2_Node000002_Node000003"><a xlink:title=" ">
<path fill="none" stroke="#63b8ff" d="M459.24,-61.94C474.07,-64.11 489.4,-66.35 503.95,-68.47"/>
<polygon fill="#63b8ff" stroke="#63b8ff" points="459.46,-58.44 449.06,-60.46 458.45,-65.37 459.46,-58.44"/>
</a>
</g>
</g>
<!-- Node6 -->
<g id="Node000006" class="node">
<title>Node6</title>
<g id="a_Node000006"><a xlink:href="interface_fifty_one_1_1_pipeline_1_1_engines_1_1_fifty_one_1_1_flow_elements_1_1_i_set_headers_element.html" target="_top" xlink:title="An IFlowElement that collates responses from all engines that want to set headers in the HTTP respons...">
<polygon fill="white" stroke="#666666" points="676,-41 485,-41 485,0 676,0 676,-41"/>
<text text-anchor="start" x="493" y="-29" font-family="Helvetica,sans-Serif" font-size="10.00">FiftyOne.Pipeline.Engines.</text>
<text text-anchor="start" x="493" y="-18" font-family="Helvetica,sans-Serif" font-size="10.00">FiftyOne.FlowElements.ISetHeaders</text>
<text text-anchor="middle" x="580.5" y="-7" font-family="Helvetica,sans-Serif" font-size="10.00">Element</text>
</a>
</g>
</g>
<!-- Node3&#45;&gt;Node6 -->
<g id="edge6_Node000006_Node000003" class="edge">
<title>Node3&#45;&gt;Node6</title>
<g id="a_edge6_Node000006_Node000003"><a xlink:title=" ">
<path fill="none" stroke="#63b8ff" d="M459.22,-37.47C467.62,-36.29 476.18,-35.08 484.67,-33.88"/>
<polygon fill="#63b8ff" stroke="#63b8ff" points="458.48,-34.04 449.06,-38.91 459.45,-40.98 458.48,-34.04"/>
</a>
</g>
</g>
<!-- Node4 -->
<g id="Node000004" class="node">
<title>Node4</title>
<g id="a_Node000004"><a xlink:href="interface_fifty_one_1_1_pipeline_1_1_core_1_1_flow_elements_1_1_i_flow_element.html" target="_top" xlink:title="IFlowElement is the basic building block of a pipeline.">
<polygon fill="white" stroke="#666666" points="261,-64.5 110,-64.5 110,-34.5 261,-34.5 261,-64.5"/>
<text text-anchor="start" x="118" y="-52.5" font-family="Helvetica,sans-Serif" font-size="10.00">FiftyOne.Pipeline.Core.Flow</text>
<text text-anchor="middle" x="185.5" y="-41.5" font-family="Helvetica,sans-Serif" font-size="10.00">Elements.IFlowElement</text>
</a>
</g>
</g>
<!-- Node4&#45;&gt;Node3 -->
<g id="edge3_Node000003_Node000004" class="edge">
<title>Node4&#45;&gt;Node3</title>
<g id="a_edge3_Node000003_Node000004"><a xlink:title=" ">
<path fill="none" stroke="#63b8ff" d="M271.16,-49.5C279.75,-49.5 288.43,-49.5 296.9,-49.5"/>
<polygon fill="#63b8ff" stroke="#63b8ff" points="271.15,-46 261.15,-49.5 271.15,-53 271.15,-46"/>
</a>
</g>
</g>
<!-- Node5 -->
<g id="Node000005" class="node">
<title>Node5</title>
<g id="a_Node000005"><a xlink:title=" ">
<polygon fill="white" stroke="#bfbfbf" points="74,-59 0,-59 0,-40 74,-40 74,-59"/>
<text text-anchor="middle" x="37" y="-47" font-family="Helvetica,sans-Serif" font-size="10.00">IDisposable</text>
</a>
</g>
</g>
<!-- Node5&#45;&gt;Node4 -->
<g id="edge4_Node000004_Node000005" class="edge">
<title>Node5&#45;&gt;Node4</title>
<g id="a_edge4_Node000004_Node000005"><a xlink:title=" ">
<path fill="none" stroke="#63b8ff" d="M84.22,-49.5C92.38,-49.5 101.05,-49.5 109.75,-49.5"/>
<polygon fill="#63b8ff" stroke="#63b8ff" points="84.21,-46 74.21,-49.5 84.21,-53 84.21,-46"/>
</a>
</g>
</g>
<!-- Node6&#45;&gt;Node1 -->
<g id="edge5_Node000001_Node000006" class="edge">
<title>Node6&#45;&gt;Node1</title>
<g id="a_edge5_Node000001_Node000006"><a xlink:title=" ">
<path fill="none" stroke="#63b8ff" d="M686.27,-34.09C694.81,-35.2 703.4,-36.32 711.85,-37.41"/>
<polygon fill="#63b8ff" stroke="#63b8ff" points="686.65,-30.61 676.28,-32.8 685.75,-37.56 686.65,-30.61"/>
</a>
</g>
</g>
</g>
</svg>
