<?xml version="1.0" encoding="UTF-8" standalone="no"?>
<!DOCTYPE svg PUBLIC "-//W3C//DTD SVG 1.1//EN"
 "http://www.w3.org/Graphics/SVG/1.1/DTD/svg11.dtd">
<!-- Generated by graphviz version 2.43.0 (0)
 -->
<!-- Title: FiftyOne.Pipeline.Engines.FiftyOne.FlowElements.PropertyKeyedEngineBuilderBase&lt; TBuilder, TEngine &gt; Pages: 1 -->
<svg width="201pt" height="262pt"
 viewBox="0.00 0.00 201.00 262.00" xmlns="http://www.w3.org/2000/svg" xmlns:xlink="http://www.w3.org/1999/xlink">
<g id="graph0" class="graph" transform="scale(1 1) rotate(0) translate(4 258)">
<title>FiftyOne.Pipeline.Engines.FiftyOne.FlowElements.PropertyKeyedEngineBuilderBase&lt; TBuilder, TEngine &gt;</title>
<!-- Node0 -->
<g id="node1" class="node">
<title>Node0</title>
<g id="a_node1"><a xlink:title="Builder for engines derived from PropertyKeyedEngine&lt;TData, TProfile&gt;.">
<polygon fill="#bfbfbf" stroke="black" points="0,-0.5 0,-52.5 193,-52.5 193,-0.5 0,-0.5"/>
<text text-anchor="start" x="8" y="-40.5" font-family="Helvetica,sans-Serif" font-size="10.00">FiftyOne.Pipeline.Engines.</text>
<text text-anchor="start" x="8" y="-29.5" font-family="Helvetica,sans-Serif" font-size="10.00">FiftyOne.FlowElements.Property</text>
<text text-anchor="start" x="8" y="-18.5" font-family="Helvetica,sans-Serif" font-size="10.00">KeyedEngineBuilderBase&lt; TBuilder,</text>
<text text-anchor="middle" x="96.5" y="-7.5" font-family="Helvetica,sans-Serif" font-size="10.00"> TEngine &gt;</text>
</a>
</g>
</g>
<!-- Node1 -->
<g id="node2" class="node">
<title>Node1</title>
<g id="a_node2"><a xlink:href="class_fifty_one_1_1_pipeline_1_1_engines_1_1_flow_elements_1_1_single_file_aspect_engine_builder_base.html" target="_top" xlink:title="Abstract base class that exposes the common options that all on&#45;premise engine builders using a singl...">
<polygon fill="none" stroke="black" points="14.5,-89.5 14.5,-119.5 178.5,-119.5 178.5,-89.5 14.5,-89.5"/>
<text text-anchor="start" x="22.5" y="-107.5" font-family="Helvetica,sans-Serif" font-size="10.00">SingleFileAspectEngineBuilder</text>
<text text-anchor="middle" x="96.5" y="-96.5" font-family="Helvetica,sans-Serif" font-size="10.00">Base&lt; TBuilder, TEngine &gt;</text>
</a>
</g>
</g>
<!-- Node1&#45;&gt;Node0 -->
<g id="edge1" class="edge">
<title>Node1&#45;&gt;Node0</title>
<path fill="none" stroke="midnightblue" d="M96.5,-79.14C96.5,-70.63 96.5,-61.07 96.5,-52.5"/>
<polygon fill="midnightblue" stroke="midnightblue" points="93,-79.2 96.5,-89.2 100,-79.21 93,-79.2"/>
</g>
<!-- Node2 -->
<g id="node3" class="node">
<title>Node2</title>
<g id="a_node3"><a xlink:href="class_fifty_one_1_1_pipeline_1_1_engines_1_1_flow_elements_1_1_on_premise_aspect_engine_builder_base.html" target="_top" xlink:title="Abstract base class that exposes the common options that all 51Degrees on&#45;premise engine builders sho...">
<polygon fill="none" stroke="black" points="11.5,-156.5 11.5,-186.5 181.5,-186.5 181.5,-156.5 11.5,-156.5"/>
<text text-anchor="start" x="19.5" y="-174.5" font-family="Helvetica,sans-Serif" font-size="10.00">OnPremiseAspectEngineBuilder</text>
<text text-anchor="middle" x="96.5" y="-163.5" font-family="Helvetica,sans-Serif" font-size="10.00">Base&lt; TBuilder, TEngine &gt;</text>
</a>
</g>
</g>
<!-- Node2&#45;&gt;Node1 -->
<g id="edge2" class="edge">
<title>Node2&#45;&gt;Node1</title>
<path fill="none" stroke="midnightblue" d="M96.5,-146.11C96.5,-137.15 96.5,-127.32 96.5,-119.58"/>
<polygon fill="midnightblue" stroke="midnightblue" points="93,-146.4 96.5,-156.4 100,-146.4 93,-146.4"/>
</g>
<!-- Node3 -->
<g id="node4" class="node">
<title>Node3</title>
<g id="a_node4"><a xlink:href="class_fifty_one_1_1_pipeline_1_1_engines_1_1_flow_elements_1_1_aspect_engine_builder_base.html" target="_top" xlink:title="Abstract base class that exposes the common options that all 51Degrees engine builders should make us...">
<polygon fill="none" stroke="black" points="26,-223.5 26,-253.5 167,-253.5 167,-223.5 26,-223.5"/>
<text text-anchor="start" x="34" y="-241.5" font-family="Helvetica,sans-Serif" font-size="10.00">AspectEngineBuilderBase</text>
<text text-anchor="middle" x="96.5" y="-230.5" font-family="Helvetica,sans-Serif" font-size="10.00">&lt; TBuilder, TEngine &gt;</text>
</a>
</g>
</g>
<!-- Node3&#45;&gt;Node2 -->
<g id="edge3" class="edge">
<title>Node3&#45;&gt;Node2</title>
<path fill="none" stroke="midnightblue" d="M96.5,-213.11C96.5,-204.15 96.5,-194.32 96.5,-186.58"/>
<polygon fill="midnightblue" stroke="midnightblue" points="93,-213.4 96.5,-223.4 100,-213.4 93,-213.4"/>
</g>
</g>
</svg>
