<?xml version="1.0" encoding="UTF-8" standalone="no"?>
<!DOCTYPE svg PUBLIC "-//W3C//DTD SVG 1.1//EN"
 "http://www.w3.org/Graphics/SVG/1.1/DTD/svg11.dtd">
<!-- Generated by graphviz version 2.43.0 (0)
 -->
<!-- Title: FiftyOne.Pipeline.Engines.FlowElements.OnPremiseAspectEngineBuilderBase&lt; TBuilder, TEngine &gt; Pages: 1 -->
<svg width="1299pt" height="226pt"
 viewBox="0.00 0.00 1299.00 225.50" xmlns="http://www.w3.org/2000/svg" xmlns:xlink="http://www.w3.org/1999/xlink">
<g id="graph0" class="graph" transform="scale(1 1) rotate(0) translate(4 221.5)">
<title>FiftyOne.Pipeline.Engines.FlowElements.OnPremiseAspectEngineBuilderBase&lt; TBuilder, TEngine &gt;</title>
<!-- Node0 -->
<g id="node1" class="node">
<title>Node0</title>
<g id="a_node1"><a xlink:title="Abstract base class that exposes the common options that all 51Degrees on&#45;premise engine builders sho...">
<polygon fill="#bfbfbf" stroke="black" points="178,-83 178,-124 386,-124 386,-83 178,-83"/>
<text text-anchor="start" x="186" y="-112" font-family="Helvetica,sans-Serif" font-size="10.00">FiftyOne.Pipeline.Engines.</text>
<text text-anchor="start" x="186" y="-101" font-family="Helvetica,sans-Serif" font-size="10.00">FlowElements.OnPremiseAspectEngine</text>
<text text-anchor="middle" x="282" y="-90" font-family="Helvetica,sans-Serif" font-size="10.00">BuilderBase&lt; TBuilder, TEngine &gt;</text>
</a>
</g>
</g>
<!-- Node2 -->
<g id="node3" class="node">
<title>Node2</title>
<g id="a_node3"><a xlink:href="class_fifty_one_1_1_pipeline_1_1_engines_1_1_flow_elements_1_1_single_file_aspect_engine_builder_base.html" target="_top" xlink:title="Abstract base class that exposes the common options that all on&#45;premise engine builders using a singl...">
<polygon fill="none" stroke="black" points="423,-77.5 423,-129.5 593,-129.5 593,-77.5 423,-77.5"/>
<text text-anchor="start" x="431" y="-117.5" font-family="Helvetica,sans-Serif" font-size="10.00">FiftyOne::Pipeline</text>
<text text-anchor="start" x="431" y="-106.5" font-family="Helvetica,sans-Serif" font-size="10.00">::Engines::FlowElements</text>
<text text-anchor="start" x="431" y="-95.5" font-family="Helvetica,sans-Serif" font-size="10.00">::SingleFileAspectEngineBuilder</text>
<text text-anchor="middle" x="508" y="-84.5" font-family="Helvetica,sans-Serif" font-size="10.00">Base&lt; TBuilder, TEngine &gt;</text>
</a>
</g>
</g>
<!-- Node0&#45;&gt;Node2 -->
<g id="edge2" class="edge">
<title>Node0&#45;&gt;Node2</title>
<path fill="none" stroke="midnightblue" d="M396.25,-103.5C405.2,-103.5 414.14,-103.5 422.84,-103.5"/>
<polygon fill="midnightblue" stroke="midnightblue" points="396.15,-100 386.15,-103.5 396.15,-107 396.15,-100"/>
</g>
<!-- Node1 -->
<g id="node2" class="node">
<title>Node1</title>
<g id="a_node2"><a xlink:href="class_fifty_one_1_1_pipeline_1_1_engines_1_1_flow_elements_1_1_aspect_engine_builder_base.html" target="_top" xlink:title="Abstract base class that exposes the common options that all 51Degrees engine builders should make us...">
<polygon fill="none" stroke="black" points="0,-88.5 0,-118.5 141,-118.5 141,-88.5 0,-88.5"/>
<text text-anchor="start" x="8" y="-106.5" font-family="Helvetica,sans-Serif" font-size="10.00">AspectEngineBuilderBase</text>
<text text-anchor="middle" x="70.5" y="-95.5" font-family="Helvetica,sans-Serif" font-size="10.00">&lt; TBuilder, TEngine &gt;</text>
</a>
</g>
</g>
<!-- Node1&#45;&gt;Node0 -->
<g id="edge1" class="edge">
<title>Node1&#45;&gt;Node0</title>
<path fill="none" stroke="midnightblue" d="M151.35,-103.5C160.05,-103.5 168.99,-103.5 177.92,-103.5"/>
<polygon fill="midnightblue" stroke="midnightblue" points="151.26,-100 141.26,-103.5 151.26,-107 151.26,-100"/>
</g>
<!-- Node3 -->
<g id="node4" class="node">
<title>Node3</title>
<g id="a_node4"><a xlink:href="class_fifty_one_1_1_pipeline_1_1_engines_1_1_fifty_one_1_1_flow_elements_1_1_fifty_one_on_premise_aspect_engine_builder_base.html" target="_top" xlink:title="A base class for engine builders for on&#45;premise engines that use a single data file and use the 51Deg...">
<polygon fill="none" stroke="black" points="825,-154 825,-217 1021,-217 1021,-154 825,-154"/>
<text text-anchor="start" x="833" y="-205" font-family="Helvetica,sans-Serif" font-size="10.00">FiftyOne::Pipeline</text>
<text text-anchor="start" x="833" y="-194" font-family="Helvetica,sans-Serif" font-size="10.00">::Engines::FiftyOne</text>
<text text-anchor="start" x="833" y="-183" font-family="Helvetica,sans-Serif" font-size="10.00">::FlowElements::FiftyOneOnPremise</text>
<text text-anchor="start" x="833" y="-172" font-family="Helvetica,sans-Serif" font-size="10.00">AspectEngineBuilderBase&lt; TBuilder,</text>
<text text-anchor="middle" x="923" y="-161" font-family="Helvetica,sans-Serif" font-size="10.00"> TEngine &gt;</text>
</a>
</g>
</g>
<!-- Node2&#45;&gt;Node3 -->
<g id="edge3" class="edge">
<title>Node2&#45;&gt;Node3</title>
<path fill="none" stroke="midnightblue" d="M603.09,-122.18C669.31,-135.33 757.7,-152.88 824.63,-166.17"/>
<polygon fill="midnightblue" stroke="midnightblue" points="603.56,-118.71 593.07,-120.19 602.2,-125.57 603.56,-118.71"/>
</g>
<!-- Node4 -->
<g id="node5" class="node">
<title>Node4</title>
<g id="a_node5"><a xlink:href="class_fifty_one_1_1_pipeline_1_1_engines_1_1_fifty_one_1_1_flow_elements_1_1_property_keyed_engine_builder_base.html" target="_top" xlink:title="Builder for engines derived from PropertyKeyedEngine&lt;TData, TProfile&gt;.">
<polygon fill="none" stroke="black" points="838.5,-72 838.5,-135 1007.5,-135 1007.5,-72 838.5,-72"/>
<text text-anchor="start" x="846.5" y="-123" font-family="Helvetica,sans-Serif" font-size="10.00">FiftyOne::Pipeline</text>
<text text-anchor="start" x="846.5" y="-112" font-family="Helvetica,sans-Serif" font-size="10.00">::Engines::FiftyOne</text>
<text text-anchor="start" x="846.5" y="-101" font-family="Helvetica,sans-Serif" font-size="10.00">::FlowElements::PropertyKeyed</text>
<text text-anchor="start" x="846.5" y="-90" font-family="Helvetica,sans-Serif" font-size="10.00">EngineBuilderBase&lt; TBuilder,</text>
<text text-anchor="middle" x="923" y="-79" font-family="Helvetica,sans-Serif" font-size="10.00"> TEngine &gt;</text>
</a>
</g>
</g>
<!-- Node2&#45;&gt;Node4 -->
<g id="edge4" class="edge">
<title>Node2&#45;&gt;Node4</title>
<path fill="none" stroke="midnightblue" d="M603.34,-103.5C674.18,-103.5 770.3,-103.5 838.4,-103.5"/>
<polygon fill="midnightblue" stroke="midnightblue" points="603.07,-100 593.07,-103.5 603.07,-107 603.07,-100"/>
</g>
<!-- Node5 -->
<g id="node6" class="node">
<title>Node5</title>
<g id="a_node6"><a xlink:href="class_fifty_one_1_1_pipeline_1_1_engines_1_1_flow_elements_1_1_single_file_aspect_engine_builder_base.html" target="_top" xlink:title=" ">
<polygon fill="none" stroke="black" points="801,-0.5 801,-52.5 1045,-52.5 1045,-0.5 801,-0.5"/>
<text text-anchor="start" x="809" y="-40.5" font-family="Helvetica,sans-Serif" font-size="10.00">FiftyOne.Pipeline.Engines.</text>
<text text-anchor="start" x="809" y="-29.5" font-family="Helvetica,sans-Serif" font-size="10.00">FlowElements.SingleFileAspectEngine</text>
<text text-anchor="start" x="809" y="-18.5" font-family="Helvetica,sans-Serif" font-size="10.00">BuilderBase&lt; SimpleOnPremiseEngineBuilder,</text>
<text text-anchor="middle" x="923" y="-7.5" font-family="Helvetica,sans-Serif" font-size="10.00"> SimpleOnPremiseEngine &gt;</text>
</a>
</g>
</g>
<!-- Node2&#45;&gt;Node5 -->
<g id="edge5" class="edge">
<title>Node2&#45;&gt;Node5</title>
<path fill="none" stroke="orange" stroke-dasharray="5,2" d="M603.01,-79.22C605.7,-78.62 608.37,-78.05 611,-77.5 673.26,-64.49 743.11,-52.77 800.81,-43.87"/>
<polygon fill="orange" stroke="orange" points="602.18,-75.81 593.19,-81.43 603.72,-82.64 602.18,-75.81"/>
<text text-anchor="start" x="611" y="-91.5" font-family="Helvetica,sans-Serif" font-size="10.00"> &lt; SimpleOnPremiseEngineBuilder,</text>
<text text-anchor="middle" x="697" y="-80.5" font-family="Helvetica,sans-Serif" font-size="10.00"> SimpleOnPremiseEngine &gt;</text>
</g>
<!-- Node6 -->
<g id="node7" class="node">
<title>Node6</title>
<g id="a_node7"><a xlink:href="class_examples_1_1_on_premise_engine_1_1_flow_elements_1_1_simple_on_premise_engine_builder.html" target="_top" xlink:title="[class]">
<polygon fill="none" stroke="black" points="1082,-6 1082,-47 1291,-47 1291,-6 1082,-6"/>
<text text-anchor="start" x="1090" y="-35" font-family="Helvetica,sans-Serif" font-size="10.00">Examples.OnPremiseEngine.</text>
<text text-anchor="start" x="1090" y="-24" font-family="Helvetica,sans-Serif" font-size="10.00">FlowElements.SimpleOnPremiseEngine</text>
<text text-anchor="middle" x="1186.5" y="-13" font-family="Helvetica,sans-Serif" font-size="10.00">Builder</text>
</a>
</g>
</g>
<!-- Node5&#45;&gt;Node6 -->
<g id="edge6" class="edge">
<title>Node5&#45;&gt;Node6</title>
<path fill="none" stroke="midnightblue" d="M1055.28,-26.5C1064.23,-26.5 1073.18,-26.5 1081.96,-26.5"/>
<polygon fill="midnightblue" stroke="midnightblue" points="1055.18,-23 1045.18,-26.5 1055.18,-30 1055.18,-23"/>
</g>
</g>
</svg>
