<?xml version="1.0" encoding="UTF-8" standalone="no"?>
<!DOCTYPE svg PUBLIC "-//W3C//DTD SVG 1.1//EN"
 "http://www.w3.org/Graphics/SVG/1.1/DTD/svg11.dtd">
<!-- Generated by graphviz version 2.43.0 (0)
 -->
<!-- Title: FiftyOne.Pipeline.Engines.FiftyOne.Data.ComponentMetaDataDefault Pages: 1 -->
<svg width="684pt" height="225pt"
 viewBox="0.00 0.00 684.00 225.00" xmlns="http://www.w3.org/2000/svg" xmlns:xlink="http://www.w3.org/1999/xlink">
<g id="graph0" class="graph" transform="scale(1 1) rotate(0) translate(4 221)">
<title>FiftyOne.Pipeline.Engines.FiftyOne.Data.ComponentMetaDataDefault</title>
<!-- Node5 -->
<g id="node1" class="node">
<title>Node5</title>
<g id="a_node1"><a xlink:title="Data class that contains meta&#45;data relating to a specific component.">
<polygon fill="#bfbfbf" stroke="black" points="485,-84 485,-125 676,-125 676,-84 485,-84"/>
<text text-anchor="start" x="493" y="-113" font-family="Helvetica,sans-Serif" font-size="10.00">FiftyOne.Pipeline.Engines.</text>
<text text-anchor="start" x="493" y="-102" font-family="Helvetica,sans-Serif" font-size="10.00">FiftyOne.Data.ComponentMetaData</text>
<text text-anchor="middle" x="580.5" y="-91" font-family="Helvetica,sans-Serif" font-size="10.00">Default</text>
</a>
</g>
</g>
<!-- Node6 -->
<g id="node2" class="node">
<title>Node6</title>
<g id="a_node2"><a xlink:href="interface_fifty_one_1_1_pipeline_1_1_engines_1_1_fifty_one_1_1_data_1_1_i_component_meta_data.html" target="_top" xlink:title="Meta data relating to a component of an Engine&#39;s results e.g.">
<polygon fill="none" stroke="black" points="233,-126 233,-145 357,-145 357,-126 233,-126"/>
<text text-anchor="middle" x="295" y="-133" font-family="Helvetica,sans-Serif" font-size="10.00">IComponentMetaData</text>
</a>
</g>
</g>
<!-- Node6&#45;&gt;Node5 -->
<g id="edge1" class="edge">
<title>Node6&#45;&gt;Node5</title>
<path fill="none" stroke="midnightblue" d="M367.47,-127.68C403.09,-123.79 446.64,-119.03 484.98,-114.84"/>
<polygon fill="midnightblue" stroke="midnightblue" points="366.73,-124.25 357.17,-128.81 367.49,-131.2 366.73,-124.25"/>
</g>
<!-- Node7 -->
<g id="node3" class="node">
<title>Node7</title>
<g id="a_node3"><a xlink:title=" ">
<polygon fill="none" stroke="#bfbfbf" points="5,-186.5 5,-216.5 169,-216.5 169,-186.5 5,-186.5"/>
<text text-anchor="start" x="13" y="-204.5" font-family="Helvetica,sans-Serif" font-size="10.00">IEquatable&lt; IComponentMeta</text>
<text text-anchor="middle" x="87" y="-193.5" font-family="Helvetica,sans-Serif" font-size="10.00">Data &gt;</text>
</a>
</g>
</g>
<!-- Node7&#45;&gt;Node6 -->
<g id="edge2" class="edge">
<title>Node7&#45;&gt;Node6</title>
<path fill="none" stroke="midnightblue" d="M154.02,-183.54C160.78,-181.56 167.54,-179.53 174,-177.5 206.64,-167.25 243.75,-154.01 267.94,-145.17"/>
<polygon fill="midnightblue" stroke="midnightblue" points="152.77,-180.26 144.13,-186.4 154.71,-186.99 152.77,-180.26"/>
</g>
<!-- Node8 -->
<g id="node4" class="node">
<title>Node8</title>
<g id="a_node4"><a xlink:title=" ">
<polygon fill="none" stroke="#bfbfbf" points="0,-137.5 0,-167.5 174,-167.5 174,-137.5 0,-137.5"/>
<text text-anchor="start" x="8" y="-155.5" font-family="Helvetica,sans-Serif" font-size="10.00">IComparable&lt; IComponentMeta</text>
<text text-anchor="middle" x="87" y="-144.5" font-family="Helvetica,sans-Serif" font-size="10.00">Data &gt;</text>
</a>
</g>
</g>
<!-- Node8&#45;&gt;Node6 -->
<g id="edge3" class="edge">
<title>Node8&#45;&gt;Node6</title>
<path fill="none" stroke="midnightblue" d="M184.4,-144.54C200.92,-143.18 217.65,-141.8 232.91,-140.54"/>
<polygon fill="midnightblue" stroke="midnightblue" points="183.85,-141.08 174.17,-145.39 184.42,-148.05 183.85,-141.08"/>
</g>
<!-- Node9 -->
<g id="node5" class="node">
<title>Node9</title>
<g id="a_node5"><a xlink:title=" ">
<polygon fill="none" stroke="#bfbfbf" points="50,-99 50,-118 124,-118 124,-99 50,-99"/>
<text text-anchor="middle" x="87" y="-106" font-family="Helvetica,sans-Serif" font-size="10.00">IDisposable</text>
</a>
</g>
</g>
<!-- Node9&#45;&gt;Node6 -->
<g id="edge4" class="edge">
<title>Node9&#45;&gt;Node6</title>
<path fill="none" stroke="midnightblue" d="M134.27,-114.57C163.43,-118.39 201.39,-123.36 232.99,-127.5"/>
<polygon fill="midnightblue" stroke="midnightblue" points="134.72,-111.09 124.35,-113.26 133.81,-118.03 134.72,-111.09"/>
</g>
<!-- Node10 -->
<g id="node6" class="node">
<title>Node10</title>
<g id="a_node6"><a xlink:href="interface_fifty_one_1_1_pipeline_1_1_engines_1_1_fifty_one_1_1_data_1_1_i_profile_meta_data.html" target="_top" xlink:title="Meta data relating to a profile within the data set.">
<polygon fill="none" stroke="black" points="211,-67.5 211,-97.5 379,-97.5 379,-67.5 211,-67.5"/>
<text text-anchor="start" x="219" y="-85.5" font-family="Helvetica,sans-Serif" font-size="10.00">FiftyOne.Pipeline.Engines.</text>
<text text-anchor="middle" x="295" y="-74.5" font-family="Helvetica,sans-Serif" font-size="10.00">FiftyOne.Data.IProfileMetaData</text>
</a>
</g>
</g>
<!-- Node9&#45;&gt;Node10 -->
<g id="edge8" class="edge">
<title>Node9&#45;&gt;Node10</title>
<path fill="none" stroke="midnightblue" d="M134.3,-102.66C156.8,-99.82 184.56,-96.31 210.57,-93.03"/>
<polygon fill="midnightblue" stroke="midnightblue" points="133.84,-99.19 124.35,-103.91 134.71,-106.13 133.84,-99.19"/>
</g>
<!-- Node10&#45;&gt;Node5 -->
<g id="edge5" class="edge">
<title>Node10&#45;&gt;Node5</title>
<path fill="none" stroke="#9a32cd" stroke-dasharray="5,2" d="M389.4,-89.75C420.06,-92.13 454.15,-94.77 484.9,-97.16"/>
<polygon fill="#9a32cd" stroke="#9a32cd" points="389.38,-86.24 379.14,-88.95 388.84,-93.22 389.38,-86.24"/>
<text text-anchor="middle" x="432" y="-97.5" font-family="Helvetica,sans-Serif" font-size="10.00"> DefaultProfile</text>
</g>
<!-- Node11 -->
<g id="node7" class="node">
<title>Node11</title>
<g id="a_node7"><a xlink:title=" ">
<polygon fill="none" stroke="#bfbfbf" points="18,-49.5 18,-79.5 156,-79.5 156,-49.5 18,-49.5"/>
<text text-anchor="start" x="26" y="-67.5" font-family="Helvetica,sans-Serif" font-size="10.00">IEquatable&lt; IProfileMeta</text>
<text text-anchor="middle" x="87" y="-56.5" font-family="Helvetica,sans-Serif" font-size="10.00">Data &gt;</text>
</a>
</g>
</g>
<!-- Node11&#45;&gt;Node10 -->
<g id="edge6" class="edge">
<title>Node11&#45;&gt;Node10</title>
<path fill="none" stroke="midnightblue" d="M166.06,-71.32C180.74,-72.6 196.15,-73.95 210.97,-75.25"/>
<polygon fill="midnightblue" stroke="midnightblue" points="166.29,-67.83 156.02,-70.44 165.68,-74.8 166.29,-67.83"/>
</g>
<!-- Node12 -->
<g id="node8" class="node">
<title>Node12</title>
<g id="a_node8"><a xlink:title=" ">
<polygon fill="none" stroke="#bfbfbf" points="12.5,-0.5 12.5,-30.5 161.5,-30.5 161.5,-0.5 12.5,-0.5"/>
<text text-anchor="start" x="20.5" y="-18.5" font-family="Helvetica,sans-Serif" font-size="10.00">IComparable&lt; IProfileMeta</text>
<text text-anchor="middle" x="87" y="-7.5" font-family="Helvetica,sans-Serif" font-size="10.00">Data &gt;</text>
</a>
</g>
</g>
<!-- Node12&#45;&gt;Node10 -->
<g id="edge7" class="edge">
<title>Node12&#45;&gt;Node10</title>
<path fill="none" stroke="midnightblue" d="M151.09,-33.42C158.83,-35.74 166.61,-38.13 174,-40.5 200.38,-48.94 229.74,-59.2 252.81,-67.47"/>
<polygon fill="midnightblue" stroke="midnightblue" points="151.93,-30.02 141.35,-30.53 149.94,-36.73 151.93,-30.02"/>
</g>
</g>
</svg>
