<?xml version="1.0" encoding="UTF-8" standalone="no"?>
<!DOCTYPE svg PUBLIC "-//W3C//DTD SVG 1.1//EN"
 "http://www.w3.org/Graphics/SVG/1.1/DTD/svg11.dtd">
<!-- Generated by graphviz version 2.43.0 (0)
 -->
<!-- Title: FiftyOne.Pipeline.JsonBuilder.FlowElement.JsonBuilderElement Pages: 1 -->
<svg width="890pt" height="98pt"
 viewBox="0.00 0.00 890.00 97.50" xmlns="http://www.w3.org/2000/svg" xmlns:xlink="http://www.w3.org/1999/xlink">
<g id="graph0" class="graph" transform="scale(1 1) rotate(0) translate(4 93.5)">
<title>FiftyOne.Pipeline.JsonBuilder.FlowElement.JsonBuilderElement</title>
<!-- Node1 -->
<g id="Node000001" class="node">
<title>Node1</title>
<g id="a_Node000001"><a xlink:title="The JsonBuilderElement takes accessible properties and adds the property key:values to the Json objec...">
<polygon fill="#999999" stroke="#666666" points="882,-57 703,-57 703,-27 882,-27 882,-57"/>
<text text-anchor="start" x="711" y="-45" font-family="Helvetica,sans-Serif" font-size="10.00">FiftyOne.Pipeline.JsonBuilder.</text>
<text text-anchor="middle" x="792.5" y="-34" font-family="Helvetica,sans-Serif" font-size="10.00">FlowElement.JsonBuilderElement</text>
</a>
</g>
</g>
<!-- Node2 -->
<g id="Node000002" class="node">
<title>Node2</title>
<g id="a_Node000002"><a xlink:href="class_fifty_one_1_1_pipeline_1_1_core_1_1_flow_elements_1_1_flow_element_base-2-g.html" target="_top" xlink:title="Abstract base class for Flow Elements.">
<polygon fill="white" stroke="#666666" points="652.5,-89.5 499.5,-89.5 499.5,-48.5 652.5,-48.5 652.5,-89.5"/>
<text text-anchor="start" x="507.5" y="-77.5" font-family="Helvetica,sans-Serif" font-size="10.00">FiftyOne.Pipeline.Core.Flow</text>
<text text-anchor="start" x="507.5" y="-66.5" font-family="Helvetica,sans-Serif" font-size="10.00">Elements.FlowElementBase</text>
<text text-anchor="middle" x="576" y="-55.5" font-family="Helvetica,sans-Serif" font-size="10.00">&lt; T, TMeta &gt;</text>
</a>
</g>
</g>
<!-- Node2&#45;&gt;Node1 -->
<g id="edge1_Node000001_Node000002" class="edge">
<title>Node2&#45;&gt;Node1</title>
<g id="a_edge1_Node000001_Node000002"><a xlink:title=" ">
<path fill="none" stroke="#63b8ff" d="M662.67,-58.22C675.93,-56.55 689.66,-54.82 702.98,-53.14"/>
<polygon fill="#63b8ff" stroke="#63b8ff" points="662.11,-54.76 652.62,-59.48 662.98,-61.7 662.11,-54.76"/>
</a>
</g>
</g>
<!-- Node3 -->
<g id="Node000003" class="node">
<title>Node3</title>
<g id="a_Node000003"><a xlink:href="interface_fifty_one_1_1_pipeline_1_1_core_1_1_flow_elements_1_1_i_flow_element-2-g.html" target="_top" xlink:title="Generic interface that extends IFlowElement with the ability to return a ITypedKey&lt;T&gt; that will allow...">
<polygon fill="white" stroke="#666666" points="449,-62.5 297,-62.5 297,-21.5 449,-21.5 449,-62.5"/>
<text text-anchor="start" x="305" y="-50.5" font-family="Helvetica,sans-Serif" font-size="10.00">FiftyOne.Pipeline.Core.Flow</text>
<text text-anchor="start" x="305" y="-39.5" font-family="Helvetica,sans-Serif" font-size="10.00">Elements.IFlowElement&lt; T,</text>
<text text-anchor="middle" x="373" y="-28.5" font-family="Helvetica,sans-Serif" font-size="10.00"> TMeta &gt;</text>
</a>
</g>
</g>
<!-- Node3&#45;&gt;Node2 -->
<g id="edge2_Node000002_Node000003" class="edge">
<title>Node3&#45;&gt;Node2</title>
<g id="a_edge2_Node000002_Node000003"><a xlink:title=" ">
<path fill="none" stroke="#63b8ff" d="M459.22,-53.45C472.53,-55.24 486.21,-57.07 499.29,-58.83"/>
<polygon fill="#63b8ff" stroke="#63b8ff" points="459.51,-49.95 449.13,-52.09 458.58,-56.89 459.51,-49.95"/>
</a>
</g>
</g>
<!-- Node6 -->
<g id="Node000006" class="node">
<title>Node6</title>
<g id="a_Node000006"><a xlink:href="interface_fifty_one_1_1_pipeline_1_1_json_builder_1_1_flow_element_1_1_i_json_builder_element.html" target="_top" xlink:title="The Interface for the JsonBuilderElement See the Specification.">
<polygon fill="white" stroke="#666666" points="667,-30 485,-30 485,0 667,0 667,-30"/>
<text text-anchor="start" x="493" y="-18" font-family="Helvetica,sans-Serif" font-size="10.00">FiftyOne.Pipeline.JsonBuilder.</text>
<text text-anchor="middle" x="576" y="-7" font-family="Helvetica,sans-Serif" font-size="10.00">FlowElement.IJsonBuilderElement</text>
</a>
</g>
</g>
<!-- Node3&#45;&gt;Node6 -->
<g id="edge6_Node000006_Node000003" class="edge">
<title>Node3&#45;&gt;Node6</title>
<g id="a_edge6_Node000006_Node000003"><a xlink:title=" ">
<path fill="none" stroke="#63b8ff" d="M459.29,-30.54C467.69,-29.41 476.24,-28.27 484.69,-27.13"/>
<polygon fill="#63b8ff" stroke="#63b8ff" points="458.58,-27.11 449.13,-31.91 459.51,-34.05 458.58,-27.11"/>
</a>
</g>
</g>
<!-- Node4 -->
<g id="Node000004" class="node">
<title>Node4</title>
<g id="a_Node000004"><a xlink:href="interface_fifty_one_1_1_pipeline_1_1_core_1_1_flow_elements_1_1_i_flow_element.html" target="_top" xlink:title="IFlowElement is the basic building block of a pipeline.">
<polygon fill="white" stroke="#666666" points="261,-57 110,-57 110,-27 261,-27 261,-57"/>
<text text-anchor="start" x="118" y="-45" font-family="Helvetica,sans-Serif" font-size="10.00">FiftyOne.Pipeline.Core.Flow</text>
<text text-anchor="middle" x="185.5" y="-34" font-family="Helvetica,sans-Serif" font-size="10.00">Elements.IFlowElement</text>
</a>
</g>
</g>
<!-- Node4&#45;&gt;Node3 -->
<g id="edge3_Node000003_Node000004" class="edge">
<title>Node4&#45;&gt;Node3</title>
<g id="a_edge3_Node000003_Node000004"><a xlink:title=" ">
<path fill="none" stroke="#63b8ff" d="M271.16,-42C279.75,-42 288.43,-42 296.9,-42"/>
<polygon fill="#63b8ff" stroke="#63b8ff" points="271.15,-38.5 261.15,-42 271.15,-45.5 271.15,-38.5"/>
</a>
</g>
</g>
<!-- Node5 -->
<g id="Node000005" class="node">
<title>Node5</title>
<g id="a_Node000005"><a xlink:title=" ">
<polygon fill="white" stroke="#bfbfbf" points="74,-51.5 0,-51.5 0,-32.5 74,-32.5 74,-51.5"/>
<text text-anchor="middle" x="37" y="-39.5" font-family="Helvetica,sans-Serif" font-size="10.00">IDisposable</text>
</a>
</g>
</g>
<!-- Node5&#45;&gt;Node4 -->
<g id="edge4_Node000004_Node000005" class="edge">
<title>Node5&#45;&gt;Node4</title>
<g id="a_edge4_Node000004_Node000005"><a xlink:title=" ">
<path fill="none" stroke="#63b8ff" d="M84.22,-42C92.38,-42 101.05,-42 109.75,-42"/>
<polygon fill="#63b8ff" stroke="#63b8ff" points="84.21,-38.5 74.21,-42 84.21,-45.5 84.21,-38.5"/>
</a>
</g>
</g>
<!-- Node6&#45;&gt;Node1 -->
<g id="edge5_Node000001_Node000006" class="edge">
<title>Node6&#45;&gt;Node1</title>
<g id="a_edge5_Node000001_Node000006"><a xlink:title=" ">
<path fill="none" stroke="#63b8ff" d="M677.05,-27.59C685.62,-28.67 694.25,-29.76 702.73,-30.83"/>
<polygon fill="#63b8ff" stroke="#63b8ff" points="677.39,-24.11 667.03,-26.33 676.52,-31.05 677.39,-24.11"/>
</a>
</g>
</g>
</g>
</svg>
