<?xml version="1.0" encoding="UTF-8" standalone="no"?>
<!DOCTYPE svg PUBLIC "-//W3C//DTD SVG 1.1//EN"
 "http://www.w3.org/Graphics/SVG/1.1/DTD/svg11.dtd">
<!-- Generated by graphviz version 2.43.0 (0)
 -->
<!-- Title: FiftyOne.Pipeline.Engines.FiftyOne.Data.FiftyOneAspectPropertyMetaDataDefault Pages: 1 -->
<svg width="908pt" height="421pt"
 viewBox="0.00 0.00 908.00 420.50" xmlns="http://www.w3.org/2000/svg" xmlns:xlink="http://www.w3.org/1999/xlink">
<g id="graph0" class="graph" transform="scale(1 1) rotate(0) translate(4 416.5)">
<title>FiftyOne.Pipeline.Engines.FiftyOne.Data.FiftyOneAspectPropertyMetaDataDefault</title>
<!-- Node10 -->
<g id="node1" class="node">
<title>Node10</title>
<g id="a_node1"><a xlink:title="Data class that contains meta&#45;data relating to a specific property.">
<polygon fill="#bfbfbf" stroke="black" points="699,-187 699,-228 900,-228 900,-187 699,-187"/>
<text text-anchor="start" x="707" y="-216" font-family="Helvetica,sans-Serif" font-size="10.00">FiftyOne.Pipeline.Engines.</text>
<text text-anchor="start" x="707" y="-205" font-family="Helvetica,sans-Serif" font-size="10.00">FiftyOne.Data.FiftyOneAspectProperty</text>
<text text-anchor="middle" x="799.5" y="-194" font-family="Helvetica,sans-Serif" font-size="10.00">MetaDataDefault</text>
</a>
</g>
</g>
<!-- Node11 -->
<g id="node2" class="node">
<title>Node11</title>
<g id="a_node2"><a xlink:href="class_fifty_one_1_1_pipeline_1_1_engines_1_1_data_1_1_aspect_property_meta_data.html" target="_top" xlink:title="Meta&#45;data relating to properties that are populated by Aspect Engines.">
<polygon fill="none" stroke="black" points="429.5,-358 429.5,-377 568.5,-377 568.5,-358 429.5,-358"/>
<text text-anchor="middle" x="499" y="-365" font-family="Helvetica,sans-Serif" font-size="10.00">AspectPropertyMetaData</text>
</a>
</g>
</g>
<!-- Node11&#45;&gt;Node10 -->
<g id="edge1" class="edge">
<title>Node11&#45;&gt;Node10</title>
<path fill="none" stroke="midnightblue" d="M526.92,-353.07C580.09,-324.57 698.75,-260.97 760.11,-228.08"/>
<polygon fill="midnightblue" stroke="midnightblue" points="524.94,-350.16 517.78,-357.97 528.25,-356.33 524.94,-350.16"/>
</g>
<!-- Node12 -->
<g id="node3" class="node">
<title>Node12</title>
<g id="a_node3"><a xlink:href="class_fifty_one_1_1_pipeline_1_1_core_1_1_data_1_1_element_property_meta_data.html" target="_top" xlink:title="Meta&#45;data relating to properties that are populated by Flow Elements.">
<polygon fill="none" stroke="black" points="202.5,-393 202.5,-412 348.5,-412 348.5,-393 202.5,-393"/>
<text text-anchor="middle" x="275.5" y="-400" font-family="Helvetica,sans-Serif" font-size="10.00">ElementPropertyMetaData</text>
</a>
</g>
</g>
<!-- Node12&#45;&gt;Node11 -->
<g id="edge2" class="edge">
<title>Node12&#45;&gt;Node11</title>
<path fill="none" stroke="midnightblue" d="M346.88,-391.38C376.12,-386.76 409.7,-381.45 437.78,-377.02"/>
<polygon fill="midnightblue" stroke="midnightblue" points="346.06,-387.96 336.73,-392.98 347.16,-394.88 346.06,-387.96"/>
</g>
<!-- Node13 -->
<g id="node4" class="node">
<title>Node13</title>
<g id="a_node4"><a xlink:href="interface_fifty_one_1_1_pipeline_1_1_core_1_1_data_1_1_i_element_property_meta_data.html" target="_top" xlink:title="Represents meta&#45;data relating to a property that is populated by a IFlowElement instance.">
<polygon fill="none" stroke="black" points="0,-373 0,-392 149,-392 149,-373 0,-373"/>
<text text-anchor="middle" x="74.5" y="-380" font-family="Helvetica,sans-Serif" font-size="10.00">IElementPropertyMetaData</text>
</a>
</g>
</g>
<!-- Node13&#45;&gt;Node12 -->
<g id="edge3" class="edge">
<title>Node13&#45;&gt;Node12</title>
<path fill="none" stroke="midnightblue" d="M159.33,-390.93C173.61,-392.36 188.32,-393.84 202.26,-395.24"/>
<polygon fill="midnightblue" stroke="midnightblue" points="159.33,-387.41 149.03,-389.89 158.63,-394.37 159.33,-387.41"/>
</g>
<!-- Node14 -->
<g id="node5" class="node">
<title>Node14</title>
<g id="a_node5"><a xlink:href="interface_fifty_one_1_1_pipeline_1_1_engines_1_1_data_1_1_i_aspect_property_meta_data.html" target="_top" xlink:title="Represents meta&#45;data relating to a property that is populated by an IAspectEngine instance.">
<polygon fill="none" stroke="black" points="204.5,-355 204.5,-374 346.5,-374 346.5,-355 204.5,-355"/>
<text text-anchor="middle" x="275.5" y="-362" font-family="Helvetica,sans-Serif" font-size="10.00">IAspectPropertyMetaData</text>
</a>
</g>
</g>
<!-- Node13&#45;&gt;Node14 -->
<g id="edge5" class="edge">
<title>Node13&#45;&gt;Node14</title>
<path fill="none" stroke="midnightblue" d="M159.3,-374.92C174.26,-373.57 189.71,-372.17 204.24,-370.85"/>
<polygon fill="midnightblue" stroke="midnightblue" points="158.68,-371.46 149.03,-375.85 159.31,-378.43 158.68,-371.46"/>
</g>
<!-- Node14&#45;&gt;Node11 -->
<g id="edge4" class="edge">
<title>Node14&#45;&gt;Node11</title>
<path fill="none" stroke="midnightblue" d="M356.62,-365.59C380.37,-365.91 406.16,-366.26 429.13,-366.57"/>
<polygon fill="midnightblue" stroke="midnightblue" points="356.63,-362.09 346.58,-365.45 356.54,-369.08 356.63,-362.09"/>
</g>
<!-- Node15 -->
<g id="node6" class="node">
<title>Node15</title>
<g id="a_node6"><a xlink:href="interface_fifty_one_1_1_pipeline_1_1_engines_1_1_fifty_one_1_1_data_1_1_i_fifty_one_aspect_property_meta_data.html" target="_top" xlink:title="51Degrees specific meta data.">
<polygon fill="none" stroke="black" points="408,-240 408,-259 590,-259 590,-240 408,-240"/>
<text text-anchor="middle" x="499" y="-247" font-family="Helvetica,sans-Serif" font-size="10.00">IFiftyOneAspectPropertyMetaData</text>
</a>
</g>
</g>
<!-- Node14&#45;&gt;Node15 -->
<g id="edge7" class="edge">
<title>Node14&#45;&gt;Node15</title>
<path fill="none" stroke="midnightblue" d="M347.22,-352.11C353.34,-350.2 359.35,-348.01 365,-345.5 416,-322.83 466.87,-278.6 487.91,-259.11"/>
<polygon fill="midnightblue" stroke="midnightblue" points="346.19,-348.76 337.54,-354.88 348.12,-355.49 346.19,-348.76"/>
</g>
<!-- Node15&#45;&gt;Node10 -->
<g id="edge6" class="edge">
<title>Node15&#45;&gt;Node10</title>
<path fill="none" stroke="midnightblue" d="M577.94,-238.53C614.86,-233.34 659.39,-227.07 698.74,-221.54"/>
<polygon fill="midnightblue" stroke="midnightblue" points="577.15,-235.11 567.73,-239.97 578.12,-242.04 577.15,-235.11"/>
</g>
<!-- Node16 -->
<g id="node7" class="node">
<title>Node16</title>
<g id="a_node7"><a xlink:title=" ">
<polygon fill="none" stroke="#bfbfbf" points="197.5,-305.5 197.5,-335.5 353.5,-335.5 353.5,-305.5 197.5,-305.5"/>
<text text-anchor="start" x="205.5" y="-323.5" font-family="Helvetica,sans-Serif" font-size="10.00">IEquatable&lt; IFiftyOneAspect</text>
<text text-anchor="middle" x="275.5" y="-312.5" font-family="Helvetica,sans-Serif" font-size="10.00">PropertyMetaData &gt;</text>
</a>
</g>
</g>
<!-- Node16&#45;&gt;Node15 -->
<g id="edge8" class="edge">
<title>Node16&#45;&gt;Node15</title>
<path fill="none" stroke="midnightblue" d="M343.97,-302.77C351.09,-300.73 358.21,-298.62 365,-296.5 402.87,-284.69 446.07,-269.01 472.69,-259.08"/>
<polygon fill="midnightblue" stroke="midnightblue" points="342.96,-299.42 334.28,-305.5 344.86,-306.15 342.96,-299.42"/>
</g>
<!-- Node17 -->
<g id="node8" class="node">
<title>Node17</title>
<g id="a_node8"><a xlink:title=" ">
<polygon fill="none" stroke="#bfbfbf" points="192,-256.5 192,-286.5 359,-286.5 359,-256.5 192,-256.5"/>
<text text-anchor="start" x="200" y="-274.5" font-family="Helvetica,sans-Serif" font-size="10.00">IComparable&lt; IFiftyOneAspect</text>
<text text-anchor="middle" x="275.5" y="-263.5" font-family="Helvetica,sans-Serif" font-size="10.00">PropertyMetaData &gt;</text>
</a>
</g>
</g>
<!-- Node17&#45;&gt;Node15 -->
<g id="edge9" class="edge">
<title>Node17&#45;&gt;Node15</title>
<path fill="none" stroke="midnightblue" d="M369.42,-262.27C382.15,-261.01 395.2,-259.71 407.88,-258.45"/>
<polygon fill="midnightblue" stroke="midnightblue" points="368.9,-258.81 359.29,-263.28 369.59,-265.77 368.9,-258.81"/>
</g>
<!-- Node18 -->
<g id="node9" class="node">
<title>Node18</title>
<g id="a_node9"><a xlink:title=" ">
<polygon fill="none" stroke="#bfbfbf" points="216,-218 216,-237 335,-237 335,-218 216,-218"/>
<text text-anchor="middle" x="275.5" y="-225" font-family="Helvetica,sans-Serif" font-size="10.00">IEquatable&lt; string &gt;</text>
</a>
</g>
</g>
<!-- Node18&#45;&gt;Node15 -->
<g id="edge10" class="edge">
<title>Node18&#45;&gt;Node15</title>
<path fill="none" stroke="midnightblue" d="M345.37,-234.34C365.07,-236.3 386.84,-238.46 407.62,-240.52"/>
<polygon fill="midnightblue" stroke="midnightblue" points="345.57,-230.84 335.28,-233.34 344.88,-237.81 345.57,-230.84"/>
</g>
<!-- Node19 -->
<g id="node10" class="node">
<title>Node19</title>
<g id="a_node10"><a xlink:title=" ">
<polygon fill="none" stroke="#bfbfbf" points="238.5,-104 238.5,-123 312.5,-123 312.5,-104 238.5,-104"/>
<text text-anchor="middle" x="275.5" y="-111" font-family="Helvetica,sans-Serif" font-size="10.00">IDisposable</text>
</a>
</g>
</g>
<!-- Node19&#45;&gt;Node15 -->
<g id="edge11" class="edge">
<title>Node19&#45;&gt;Node15</title>
<path fill="none" stroke="midnightblue" d="M322.49,-115.89C337.19,-118.51 352.8,-123.44 365,-132.5 392.31,-152.78 377.66,-175.74 402,-199.5 421.23,-218.27 448.93,-231.67 469.64,-239.84"/>
<polygon fill="midnightblue" stroke="midnightblue" points="322.91,-112.41 312.51,-114.42 321.89,-119.34 322.91,-112.41"/>
</g>
<!-- Node20 -->
<g id="node11" class="node">
<title>Node20</title>
<g id="a_node11"><a xlink:href="interface_fifty_one_1_1_pipeline_1_1_engines_1_1_fifty_one_1_1_data_1_1_i_value_meta_data.html" target="_top" xlink:title="Meta data relating to a specific value within a data set.">
<polygon fill="none" stroke="black" points="417,-159.5 417,-189.5 581,-189.5 581,-159.5 417,-159.5"/>
<text text-anchor="start" x="425" y="-177.5" font-family="Helvetica,sans-Serif" font-size="10.00">FiftyOne.Pipeline.Engines.</text>
<text text-anchor="middle" x="499" y="-166.5" font-family="Helvetica,sans-Serif" font-size="10.00">FiftyOne.Data.IValueMetaData</text>
</a>
</g>
</g>
<!-- Node19&#45;&gt;Node20 -->
<g id="edge15" class="edge">
<title>Node19&#45;&gt;Node20</title>
<path fill="none" stroke="midnightblue" d="M322.77,-117.44C341.93,-119.72 364.25,-123.22 384,-128.5 412.87,-136.21 444.25,-149.25 466.77,-159.48"/>
<polygon fill="midnightblue" stroke="midnightblue" points="323.1,-113.96 312.77,-116.33 322.32,-120.92 323.1,-113.96"/>
</g>
<!-- Node23 -->
<g id="node14" class="node">
<title>Node23</title>
<g id="a_node14"><a xlink:href="interface_fifty_one_1_1_pipeline_1_1_engines_1_1_fifty_one_1_1_data_1_1_i_component_meta_data.html" target="_top" xlink:title="Meta data relating to a component of an Engine&#39;s results e.g.">
<polygon fill="none" stroke="black" points="402,-62.5 402,-92.5 596,-92.5 596,-62.5 402,-62.5"/>
<text text-anchor="start" x="410" y="-80.5" font-family="Helvetica,sans-Serif" font-size="10.00">FiftyOne.Pipeline.Engines.</text>
<text text-anchor="middle" x="499" y="-69.5" font-family="Helvetica,sans-Serif" font-size="10.00">FiftyOne.Data.IComponentMetaData</text>
</a>
</g>
</g>
<!-- Node19&#45;&gt;Node23 -->
<g id="edge19" class="edge">
<title>Node19&#45;&gt;Node23</title>
<path fill="none" stroke="midnightblue" d="M322.48,-106.03C346.54,-102.12 376.88,-97.19 405.54,-92.53"/>
<polygon fill="midnightblue" stroke="midnightblue" points="321.89,-102.58 312.58,-107.64 323.01,-109.49 321.89,-102.58"/>
</g>
<!-- Node20&#45;&gt;Node10 -->
<g id="edge12" class="edge">
<title>Node20&#45;&gt;Node10</title>
<path fill="none" stroke="#9a32cd" stroke-dasharray="5,2" d="M591.12,-184.57C625.23,-188.35 664.15,-192.65 698.98,-196.5"/>
<polygon fill="#9a32cd" stroke="#9a32cd" points="591.5,-181.09 581.17,-183.47 590.73,-188.05 591.5,-181.09"/>
<text text-anchor="middle" x="647.5" y="-196.5" font-family="Helvetica,sans-Serif" font-size="10.00"> DefaultValue</text>
</g>
<!-- Node21 -->
<g id="node12" class="node">
<title>Node21</title>
<g id="a_node12"><a xlink:title=" ">
<polygon fill="none" stroke="#bfbfbf" points="191,-142 191,-161 360,-161 360,-142 191,-142"/>
<text text-anchor="middle" x="275.5" y="-149" font-family="Helvetica,sans-Serif" font-size="10.00">IEquatable&lt; IValueMetaData &gt;</text>
</a>
</g>
</g>
<!-- Node21&#45;&gt;Node20 -->
<g id="edge13" class="edge">
<title>Node21&#45;&gt;Node20</title>
<path fill="none" stroke="midnightblue" d="M370.3,-161.24C385.73,-162.84 401.61,-164.49 416.71,-166.06"/>
<polygon fill="midnightblue" stroke="midnightblue" points="370.55,-157.75 360.24,-160.2 369.82,-164.71 370.55,-157.75"/>
</g>
<!-- Node22 -->
<g id="node13" class="node">
<title>Node22</title>
<g id="a_node13"><a xlink:title=" ">
<polygon fill="none" stroke="#bfbfbf" points="186,-180 186,-199 365,-199 365,-180 186,-180"/>
<text text-anchor="middle" x="275.5" y="-187" font-family="Helvetica,sans-Serif" font-size="10.00">IComparable&lt; IValueMetaData &gt;</text>
</a>
</g>
</g>
<!-- Node22&#45;&gt;Node20 -->
<g id="edge14" class="edge">
<title>Node22&#45;&gt;Node20</title>
<path fill="none" stroke="midnightblue" d="M375.33,-182.81C389.16,-181.87 403.24,-180.92 416.69,-180.01"/>
<polygon fill="midnightblue" stroke="midnightblue" points="375.06,-179.32 365.32,-183.49 375.53,-186.3 375.06,-179.32"/>
</g>
<!-- Node23&#45;&gt;Node10 -->
<g id="edge16" class="edge">
<title>Node23&#45;&gt;Node10</title>
<path fill="none" stroke="#9a32cd" stroke-dasharray="5,2" d="M543.74,-96.55C599.15,-120.68 694.29,-162.11 751.3,-186.94"/>
<polygon fill="#9a32cd" stroke="#9a32cd" points="545.1,-93.32 534.53,-92.54 542.3,-99.74 545.1,-93.32"/>
<text text-anchor="middle" x="647.5" y="-156.5" font-family="Helvetica,sans-Serif" font-size="10.00"> Component</text>
</g>
<!-- Node24 -->
<g id="node15" class="node">
<title>Node24</title>
<g id="a_node15"><a xlink:title=" ">
<polygon fill="none" stroke="#bfbfbf" points="193.5,-49.5 193.5,-79.5 357.5,-79.5 357.5,-49.5 193.5,-49.5"/>
<text text-anchor="start" x="201.5" y="-67.5" font-family="Helvetica,sans-Serif" font-size="10.00">IEquatable&lt; IComponentMeta</text>
<text text-anchor="middle" x="275.5" y="-56.5" font-family="Helvetica,sans-Serif" font-size="10.00">Data &gt;</text>
</a>
</g>
</g>
<!-- Node24&#45;&gt;Node23 -->
<g id="edge17" class="edge">
<title>Node24&#45;&gt;Node23</title>
<path fill="none" stroke="midnightblue" d="M367.89,-69.86C379.07,-70.52 390.52,-71.19 401.76,-71.85"/>
<polygon fill="midnightblue" stroke="midnightblue" points="367.91,-66.36 357.72,-69.27 367.5,-73.35 367.91,-66.36"/>
</g>
<!-- Node25 -->
<g id="node16" class="node">
<title>Node25</title>
<g id="a_node16"><a xlink:title=" ">
<polygon fill="none" stroke="#bfbfbf" points="188.5,-0.5 188.5,-30.5 362.5,-30.5 362.5,-0.5 188.5,-0.5"/>
<text text-anchor="start" x="196.5" y="-18.5" font-family="Helvetica,sans-Serif" font-size="10.00">IComparable&lt; IComponentMeta</text>
<text text-anchor="middle" x="275.5" y="-7.5" font-family="Helvetica,sans-Serif" font-size="10.00">Data &gt;</text>
</a>
</g>
</g>
<!-- Node25&#45;&gt;Node23 -->
<g id="edge18" class="edge">
<title>Node25&#45;&gt;Node23</title>
<path fill="none" stroke="midnightblue" d="M340.09,-33.3C373,-42.51 412.73,-53.63 444.11,-62.41"/>
<polygon fill="midnightblue" stroke="midnightblue" points="340.69,-29.83 330.12,-30.51 338.81,-36.57 340.69,-29.83"/>
</g>
</g>
</svg>
