<?xml version="1.0" encoding="UTF-8" standalone="no"?>
<!DOCTYPE svg PUBLIC "-//W3C//DTD SVG 1.1//EN"
 "http://www.w3.org/Graphics/SVG/1.1/DTD/svg11.dtd">
<!-- Generated by graphviz version 2.43.0 (0)
 -->
<!-- Title: FiftyOne.Pipeline.Translation.FlowElements.TranslationEngine Pages: 1 -->
<svg width="1894pt" height="134pt"
 viewBox="0.00 0.00 1894.00 134.00" xmlns="http://www.w3.org/2000/svg" xmlns:xlink="http://www.w3.org/1999/xlink">
<g id="graph0" class="graph" transform="scale(1 1) rotate(0) translate(4 130)">
<title>FiftyOne.Pipeline.Translation.FlowElements.TranslationEngine</title>
<!-- Node9 -->
<g id="node1" class="node">
<title>Node9</title>
<g id="a_node1"><a xlink:title=" ">
<polygon fill="#bfbfbf" stroke="black" points="1711,-18.5 1711,-48.5 1886,-48.5 1886,-18.5 1711,-18.5"/>
<text text-anchor="start" x="1719" y="-36.5" font-family="Helvetica,sans-Serif" font-size="10.00">FiftyOne.Pipeline.Translation.</text>
<text text-anchor="middle" x="1798.5" y="-25.5" font-family="Helvetica,sans-Serif" font-size="10.00">FlowElements.TranslationEngine</text>
</a>
</g>
</g>
<!-- Node10 -->
<g id="node2" class="node">
<title>Node10</title>
<g id="a_node2"><a xlink:href="class_fifty_one_1_1_pipeline_1_1_translation_1_1_flow_elements_1_1_translation_engine_base.html" target="_top" xlink:title=" ">
<polygon fill="none" stroke="black" points="1547,-45.5 1547,-75.5 1674,-75.5 1674,-45.5 1547,-45.5"/>
<text text-anchor="start" x="1555" y="-63.5" font-family="Helvetica,sans-Serif" font-size="10.00">TranslationEngineBase</text>
<text text-anchor="middle" x="1610.5" y="-52.5" font-family="Helvetica,sans-Serif" font-size="10.00">&lt; ITranslationData &gt;</text>
</a>
</g>
</g>
<!-- Node10&#45;&gt;Node9 -->
<g id="edge1" class="edge">
<title>Node10&#45;&gt;Node9</title>
<path fill="none" stroke="midnightblue" d="M1684.33,-49.93C1693.07,-48.66 1702.05,-47.36 1710.96,-46.06"/>
<polygon fill="midnightblue" stroke="midnightblue" points="1683.61,-46.5 1674.21,-51.4 1684.61,-53.42 1683.61,-46.5"/>
</g>
<!-- Node11 -->
<g id="node3" class="node">
<title>Node11</title>
<g id="a_node3"><a xlink:href="class_fifty_one_1_1_pipeline_1_1_translation_1_1_flow_elements_1_1_translation_engine_base.html" target="_top" xlink:title="Flow element that translates values from a single source element and stores translated values under i...">
<polygon fill="none" stroke="black" points="1178,-46.5 1178,-76.5 1405,-76.5 1405,-46.5 1178,-46.5"/>
<text text-anchor="start" x="1186" y="-64.5" font-family="Helvetica,sans-Serif" font-size="10.00">FiftyOne.Pipeline.Translation.</text>
<text text-anchor="middle" x="1291.5" y="-53.5" font-family="Helvetica,sans-Serif" font-size="10.00">FlowElements.TranslationEngineBase&lt; T &gt;</text>
</a>
</g>
</g>
<!-- Node11&#45;&gt;Node10 -->
<g id="edge2" class="edge">
<title>Node11&#45;&gt;Node10</title>
<path fill="none" stroke="orange" stroke-dasharray="5,2" d="M1415.26,-61.11C1460.13,-60.97 1509.04,-60.82 1546.55,-60.7"/>
<polygon fill="orange" stroke="orange" points="1415.14,-57.61 1405.15,-61.14 1415.17,-64.61 1415.14,-57.61"/>
<text text-anchor="middle" x="1476" y="-64.5" font-family="Helvetica,sans-Serif" font-size="10.00"> &lt; ITranslationData &gt;</text>
</g>
<!-- Node12 -->
<g id="node4" class="node">
<title>Node12</title>
<g id="a_node4"><a xlink:href="class_fifty_one_1_1_pipeline_1_1_core_1_1_flow_elements_1_1_flow_element_base.html" target="_top" xlink:title=" ">
<polygon fill="none" stroke="black" points="887,-46.5 887,-76.5 1051,-76.5 1051,-46.5 887,-46.5"/>
<text text-anchor="start" x="895" y="-64.5" font-family="Helvetica,sans-Serif" font-size="10.00">FlowElementBase&lt; T,</text>
<text text-anchor="middle" x="969" y="-53.5" font-family="Helvetica,sans-Serif" font-size="10.00"> IElementPropertyMetaData &gt;</text>
</a>
</g>
</g>
<!-- Node12&#45;&gt;Node11 -->
<g id="edge3" class="edge">
<title>Node12&#45;&gt;Node11</title>
<path fill="none" stroke="midnightblue" d="M1061.36,-61.5C1097.63,-61.5 1139.71,-61.5 1177.84,-61.5"/>
<polygon fill="midnightblue" stroke="midnightblue" points="1061.29,-58 1051.29,-61.5 1061.29,-65 1061.29,-58"/>
</g>
<!-- Node13 -->
<g id="node5" class="node">
<title>Node13</title>
<g id="a_node5"><a xlink:href="class_fifty_one_1_1_pipeline_1_1_core_1_1_flow_elements_1_1_flow_element_base.html" target="_top" xlink:title="Abstract base class for Flow Elements.">
<polygon fill="none" stroke="black" points="562,-42 562,-83 715,-83 715,-42 562,-42"/>
<text text-anchor="start" x="570" y="-71" font-family="Helvetica,sans-Serif" font-size="10.00">FiftyOne.Pipeline.Core.Flow</text>
<text text-anchor="start" x="570" y="-60" font-family="Helvetica,sans-Serif" font-size="10.00">Elements.FlowElementBase</text>
<text text-anchor="middle" x="638.5" y="-49" font-family="Helvetica,sans-Serif" font-size="10.00">&lt; T, TMeta &gt;</text>
</a>
</g>
</g>
<!-- Node13&#45;&gt;Node12 -->
<g id="edge4" class="edge">
<title>Node13&#45;&gt;Node12</title>
<path fill="none" stroke="orange" stroke-dasharray="5,2" d="M725.4,-62.24C775.3,-62.09 837.8,-61.9 886.86,-61.75"/>
<polygon fill="orange" stroke="orange" points="725.27,-58.74 715.28,-62.27 725.29,-65.74 725.27,-58.74"/>
<text text-anchor="start" x="733" y="-76.5" font-family="Helvetica,sans-Serif" font-size="10.00"> &lt; T, IElementPropertyMeta</text>
<text text-anchor="middle" x="801" y="-65.5" font-family="Helvetica,sans-Serif" font-size="10.00">Data &gt;</text>
</g>
<!-- Node14 -->
<g id="node6" class="node">
<title>Node14</title>
<g id="a_node6"><a xlink:href="interface_fifty_one_1_1_pipeline_1_1_core_1_1_flow_elements_1_1_i_flow_element.html" target="_top" xlink:title=" ">
<polygon fill="none" stroke="black" points="355.5,-52 355.5,-71 504.5,-71 504.5,-52 355.5,-52"/>
<text text-anchor="middle" x="430" y="-59" font-family="Helvetica,sans-Serif" font-size="10.00">IFlowElement&lt; T, TMeta &gt;</text>
</a>
</g>
</g>
<!-- Node14&#45;&gt;Node13 -->
<g id="edge5" class="edge">
<title>Node14&#45;&gt;Node13</title>
<path fill="none" stroke="midnightblue" d="M514.79,-61.91C530.33,-61.98 546.48,-62.06 561.76,-62.13"/>
<polygon fill="midnightblue" stroke="midnightblue" points="514.69,-58.41 504.68,-61.86 514.66,-65.41 514.69,-58.41"/>
</g>
<!-- Node15 -->
<g id="node7" class="node">
<title>Node15</title>
<g id="a_node7"><a xlink:href="interface_fifty_one_1_1_pipeline_1_1_core_1_1_flow_elements_1_1_i_flow_element.html" target="_top" xlink:title="IFlowElement is the basic building block of a pipeline.">
<polygon fill="none" stroke="black" points="0,-23.5 0,-53.5 151,-53.5 151,-23.5 0,-23.5"/>
<text text-anchor="start" x="8" y="-41.5" font-family="Helvetica,sans-Serif" font-size="10.00">FiftyOne.Pipeline.Core.Flow</text>
<text text-anchor="middle" x="75.5" y="-30.5" font-family="Helvetica,sans-Serif" font-size="10.00">Elements.IFlowElement</text>
</a>
</g>
</g>
<!-- Node15&#45;&gt;Node14 -->
<g id="edge6" class="edge">
<title>Node15&#45;&gt;Node14</title>
<path fill="none" stroke="orange" stroke-dasharray="5,2" d="M161.33,-44.03C220.5,-47.9 298.68,-53 355.26,-56.69"/>
<polygon fill="orange" stroke="orange" points="161.46,-40.54 151.26,-43.38 161.01,-47.52 161.46,-40.54"/>
<text text-anchor="middle" x="243" y="-57.5" font-family="Helvetica,sans-Serif" font-size="10.00"> &lt; T, TMeta &gt;</text>
</g>
<!-- Node18 -->
<g id="node10" class="node">
<title>Node18</title>
<g id="a_node10"><a xlink:href="interface_fifty_one_1_1_pipeline_1_1_core_1_1_flow_elements_1_1_i_flow_element.html" target="_top" xlink:title=" ">
<polygon fill="none" stroke="black" points="335,-0.5 335,-30.5 525,-30.5 525,-0.5 335,-0.5"/>
<text text-anchor="start" x="343" y="-18.5" font-family="Helvetica,sans-Serif" font-size="10.00">IFlowElement&lt; ITranslation</text>
<text text-anchor="middle" x="430" y="-7.5" font-family="Helvetica,sans-Serif" font-size="10.00">Data, IElementPropertyMetaData &gt;</text>
</a>
</g>
</g>
<!-- Node15&#45;&gt;Node18 -->
<g id="edge10" class="edge">
<title>Node15&#45;&gt;Node18</title>
<path fill="none" stroke="orange" stroke-dasharray="5,2" d="M152.16,-21.76C157.84,-20.88 163.5,-20.1 169,-19.5 223.75,-13.51 285.36,-12.32 334.87,-12.72"/>
<polygon fill="orange" stroke="orange" points="151.23,-18.37 141.95,-23.48 152.39,-25.27 151.23,-18.37"/>
<text text-anchor="start" x="169" y="-33.5" font-family="Helvetica,sans-Serif" font-size="10.00"> &lt; ITranslationData,</text>
<text text-anchor="middle" x="243" y="-22.5" font-family="Helvetica,sans-Serif" font-size="10.00"> IElementPropertyMetaData &gt;</text>
</g>
<!-- Node16 -->
<g id="node8" class="node">
<title>Node16</title>
<g id="a_node8"><a xlink:href="interface_fifty_one_1_1_pipeline_1_1_core_1_1_data_1_1_i_evidence_key_filter.html" target="_top" xlink:title="Represents an object that filters evidence key names based on some criteria.">
<polygon fill="none" stroke="black" points="892,-95.5 892,-125.5 1046,-125.5 1046,-95.5 892,-95.5"/>
<text text-anchor="start" x="900" y="-113.5" font-family="Helvetica,sans-Serif" font-size="10.00">FiftyOne.Pipeline.Core.Data.</text>
<text text-anchor="middle" x="969" y="-102.5" font-family="Helvetica,sans-Serif" font-size="10.00">IEvidenceKeyFilter</text>
</a>
</g>
</g>
<!-- Node16&#45;&gt;Node11 -->
<g id="edge7" class="edge">
<title>Node16&#45;&gt;Node11</title>
<path fill="none" stroke="#9a32cd" stroke-dasharray="5,2" d="M1056.27,-97.31C1098.22,-90.9 1148.82,-83.16 1192.25,-76.52"/>
<polygon fill="#9a32cd" stroke="#9a32cd" points="1055.72,-93.85 1046.36,-98.83 1056.77,-100.77 1055.72,-93.85"/>
<text text-anchor="middle" x="1114.5" y="-98.5" font-family="Helvetica,sans-Serif" font-size="10.00"> EvidenceKeyFilter</text>
</g>
<!-- Node17 -->
<g id="node9" class="node">
<title>Node17</title>
<g id="a_node9"><a xlink:href="interface_fifty_one_1_1_pipeline_1_1_translation_1_1_flow_elements_1_1_i_translation_engine.html" target="_top" xlink:title="Flow element that translates values from a single source element and stores translated values under i...">
<polygon fill="none" stroke="black" points="748,-5 748,-24 854,-24 854,-5 748,-5"/>
<text text-anchor="middle" x="801" y="-12" font-family="Helvetica,sans-Serif" font-size="10.00">ITranslationEngine</text>
</a>
</g>
</g>
<!-- Node17&#45;&gt;Node9 -->
<g id="edge8" class="edge">
<title>Node17&#45;&gt;Node9</title>
<path fill="none" stroke="midnightblue" d="M864.23,-15.13C927.11,-15.72 1027.05,-16.5 1113.5,-16.5 1113.5,-16.5 1113.5,-16.5 1611.5,-16.5 1643.93,-16.5 1679.4,-19.09 1710.59,-22.26"/>
<polygon fill="midnightblue" stroke="midnightblue" points="864.12,-11.63 854.08,-15.04 864.05,-18.63 864.12,-11.63"/>
</g>
<!-- Node18&#45;&gt;Node17 -->
<g id="edge9" class="edge">
<title>Node18&#45;&gt;Node17</title>
<path fill="none" stroke="midnightblue" d="M535.17,-15.22C604.62,-15.03 692.94,-14.79 747.98,-14.64"/>
<polygon fill="midnightblue" stroke="midnightblue" points="535.06,-11.72 525.07,-15.25 535.08,-18.72 535.06,-11.72"/>
</g>
</g>
</svg>
