<?xml version="1.0" encoding="UTF-8" standalone="no"?>
<!DOCTYPE svg PUBLIC "-//W3C//DTD SVG 1.1//EN"
 "http://www.w3.org/Graphics/SVG/1.1/DTD/svg11.dtd">
<!-- Generated by graphviz version 2.43.0 (0)
 -->
<!-- Title: FiftyOne.Pipeline.Engines.FiftyOne.Data.FiftyOneAspectPropertyMetaDataDefault Pages: 1 -->
<svg width="815pt" height="241pt"
 viewBox="0.00 0.00 815.00 241.00" xmlns="http://www.w3.org/2000/svg" xmlns:xlink="http://www.w3.org/1999/xlink">
<g id="graph0" class="graph" transform="scale(1 1) rotate(0) translate(4 237)">
<title>FiftyOne.Pipeline.Engines.FiftyOne.Data.FiftyOneAspectPropertyMetaDataDefault</title>
<!-- Node0 -->
<g id="node1" class="node">
<title>Node0</title>
<g id="a_node1"><a xlink:title="Data class that contains meta&#45;data relating to a specific property.">
<polygon fill="#bfbfbf" stroke="black" points="606,-118.5 606,-159.5 807,-159.5 807,-118.5 606,-118.5"/>
<text text-anchor="start" x="614" y="-147.5" font-family="Helvetica,sans-Serif" font-size="10.00">FiftyOne.Pipeline.Engines.</text>
<text text-anchor="start" x="614" y="-136.5" font-family="Helvetica,sans-Serif" font-size="10.00">FiftyOne.Data.FiftyOneAspectProperty</text>
<text text-anchor="middle" x="706.5" y="-125.5" font-family="Helvetica,sans-Serif" font-size="10.00">MetaDataDefault</text>
</a>
</g>
</g>
<!-- Node1 -->
<g id="node2" class="node">
<title>Node1</title>
<g id="a_node2"><a xlink:href="class_fifty_one_1_1_pipeline_1_1_engines_1_1_data_1_1_aspect_property_meta_data.html" target="_top" xlink:title="Meta&#45;data relating to properties that are populated by Aspect Engines.">
<polygon fill="none" stroke="black" points="409.5,-175.5 409.5,-194.5 548.5,-194.5 548.5,-175.5 409.5,-175.5"/>
<text text-anchor="middle" x="479" y="-182.5" font-family="Helvetica,sans-Serif" font-size="10.00">AspectPropertyMetaData</text>
</a>
</g>
</g>
<!-- Node1&#45;&gt;Node0 -->
<g id="edge1" class="edge">
<title>Node1&#45;&gt;Node0</title>
<path fill="none" stroke="midnightblue" d="M536.73,-173.43C557.71,-169.15 582.16,-164.16 605.84,-159.33"/>
<polygon fill="midnightblue" stroke="midnightblue" points="535.82,-170.04 526.72,-175.47 537.22,-176.9 535.82,-170.04"/>
</g>
<!-- Node2 -->
<g id="node3" class="node">
<title>Node2</title>
<g id="a_node3"><a xlink:href="class_fifty_one_1_1_pipeline_1_1_core_1_1_data_1_1_element_property_meta_data.html" target="_top" xlink:title="Meta&#45;data relating to properties that are populated by Flow Elements.">
<polygon fill="none" stroke="black" points="195.5,-213.5 195.5,-232.5 341.5,-232.5 341.5,-213.5 195.5,-213.5"/>
<text text-anchor="middle" x="268.5" y="-220.5" font-family="Helvetica,sans-Serif" font-size="10.00">ElementPropertyMetaData</text>
</a>
</g>
</g>
<!-- Node2&#45;&gt;Node1 -->
<g id="edge2" class="edge">
<title>Node2&#45;&gt;Node1</title>
<path fill="none" stroke="midnightblue" d="M331.76,-211.65C361.67,-206.2 397.13,-199.74 425.63,-194.54"/>
<polygon fill="midnightblue" stroke="midnightblue" points="331.05,-208.22 321.84,-213.46 332.31,-215.11 331.05,-208.22"/>
</g>
<!-- Node3 -->
<g id="node4" class="node">
<title>Node3</title>
<g id="a_node4"><a xlink:href="interface_fifty_one_1_1_pipeline_1_1_core_1_1_data_1_1_i_element_property_meta_data.html" target="_top" xlink:title="Represents meta&#45;data relating to a property that is populated by a IFlowElement instance.">
<polygon fill="none" stroke="black" points="0,-194.5 0,-213.5 149,-213.5 149,-194.5 0,-194.5"/>
<text text-anchor="middle" x="74.5" y="-201.5" font-family="Helvetica,sans-Serif" font-size="10.00">IElementPropertyMetaData</text>
</a>
</g>
</g>
<!-- Node3&#45;&gt;Node2 -->
<g id="edge3" class="edge">
<title>Node3&#45;&gt;Node2</title>
<path fill="none" stroke="midnightblue" d="M159.2,-212.28C171.22,-213.47 183.51,-214.69 195.28,-215.85"/>
<polygon fill="midnightblue" stroke="midnightblue" points="159.48,-208.79 149.18,-211.29 158.79,-215.76 159.48,-208.79"/>
</g>
<!-- Node4 -->
<g id="node5" class="node">
<title>Node4</title>
<g id="a_node5"><a xlink:href="interface_fifty_one_1_1_pipeline_1_1_engines_1_1_data_1_1_i_aspect_property_meta_data.html" target="_top" xlink:title="Represents meta&#45;data relating to a property that is populated by an IAspectEngine instance.">
<polygon fill="none" stroke="black" points="197.5,-175.5 197.5,-194.5 339.5,-194.5 339.5,-175.5 197.5,-175.5"/>
<text text-anchor="middle" x="268.5" y="-182.5" font-family="Helvetica,sans-Serif" font-size="10.00">IAspectPropertyMetaData</text>
</a>
</g>
</g>
<!-- Node3&#45;&gt;Node4 -->
<g id="edge5" class="edge">
<title>Node3&#45;&gt;Node4</title>
<path fill="none" stroke="midnightblue" d="M159.32,-195.71C172.06,-194.44 185.08,-193.16 197.49,-191.93"/>
<polygon fill="midnightblue" stroke="midnightblue" points="158.79,-192.24 149.18,-196.71 159.48,-199.21 158.79,-192.24"/>
</g>
<!-- Node4&#45;&gt;Node1 -->
<g id="edge4" class="edge">
<title>Node4&#45;&gt;Node1</title>
<path fill="none" stroke="midnightblue" d="M349.66,-185C369.31,-185 390.18,-185 409.24,-185"/>
<polygon fill="midnightblue" stroke="midnightblue" points="349.51,-181.5 339.51,-185 349.51,-188.5 349.51,-181.5"/>
</g>
<!-- Node5 -->
<g id="node6" class="node">
<title>Node5</title>
<g id="a_node6"><a xlink:href="interface_fifty_one_1_1_pipeline_1_1_engines_1_1_fifty_one_1_1_data_1_1_i_fifty_one_aspect_property_meta_data.html" target="_top" xlink:title="51Degrees specific meta data.">
<polygon fill="none" stroke="black" points="388,-107.5 388,-126.5 570,-126.5 570,-107.5 388,-107.5"/>
<text text-anchor="middle" x="479" y="-114.5" font-family="Helvetica,sans-Serif" font-size="10.00">IFiftyOneAspectPropertyMetaData</text>
</a>
</g>
</g>
<!-- Node4&#45;&gt;Node5 -->
<g id="edge7" class="edge">
<title>Node4&#45;&gt;Node5</title>
<path fill="none" stroke="midnightblue" d="M326.5,-173.01C335.1,-170.87 343.82,-168.52 352,-166 389.24,-154.54 431.16,-137.34 456.04,-126.66"/>
<polygon fill="midnightblue" stroke="midnightblue" points="325.4,-169.67 316.5,-175.41 327.04,-176.48 325.4,-169.67"/>
</g>
<!-- Node5&#45;&gt;Node0 -->
<g id="edge6" class="edge">
<title>Node5&#45;&gt;Node0</title>
<path fill="none" stroke="midnightblue" d="M580.1,-126.77C588.67,-127.6 597.35,-128.45 605.92,-129.28"/>
<polygon fill="midnightblue" stroke="midnightblue" points="580.39,-123.28 570.1,-125.79 579.71,-130.24 580.39,-123.28"/>
</g>
<!-- Node6 -->
<g id="node7" class="node">
<title>Node6</title>
<g id="a_node7"><a xlink:title=" ">
<polygon fill="none" stroke="#bfbfbf" points="190.5,-126 190.5,-156 346.5,-156 346.5,-126 190.5,-126"/>
<text text-anchor="start" x="198.5" y="-144" font-family="Helvetica,sans-Serif" font-size="10.00">IEquatable&lt; IFiftyOneAspect</text>
<text text-anchor="middle" x="268.5" y="-133" font-family="Helvetica,sans-Serif" font-size="10.00">PropertyMetaData &gt;</text>
</a>
</g>
</g>
<!-- Node6&#45;&gt;Node5 -->
<g id="edge8" class="edge">
<title>Node6&#45;&gt;Node5</title>
<path fill="none" stroke="midnightblue" d="M356.71,-130.96C369.49,-129.49 382.63,-127.98 395.32,-126.52"/>
<polygon fill="midnightblue" stroke="midnightblue" points="356.08,-127.51 346.55,-132.13 356.88,-134.46 356.08,-127.51"/>
</g>
<!-- Node7 -->
<g id="node8" class="node">
<title>Node7</title>
<g id="a_node8"><a xlink:title=" ">
<polygon fill="none" stroke="#bfbfbf" points="185,-77 185,-107 352,-107 352,-77 185,-77"/>
<text text-anchor="start" x="193" y="-95" font-family="Helvetica,sans-Serif" font-size="10.00">IComparable&lt; IFiftyOneAspect</text>
<text text-anchor="middle" x="268.5" y="-84" font-family="Helvetica,sans-Serif" font-size="10.00">PropertyMetaData &gt;</text>
</a>
</g>
</g>
<!-- Node7&#45;&gt;Node5 -->
<g id="edge9" class="edge">
<title>Node7&#45;&gt;Node5</title>
<path fill="none" stroke="midnightblue" d="M362.28,-103.12C374.35,-104.57 386.63,-106.04 398.46,-107.46"/>
<polygon fill="midnightblue" stroke="midnightblue" points="362.55,-99.63 352.2,-101.92 361.72,-106.58 362.55,-99.63"/>
</g>
<!-- Node8 -->
<g id="node9" class="node">
<title>Node8</title>
<g id="a_node9"><a xlink:title=" ">
<polygon fill="none" stroke="#bfbfbf" points="209,-38.5 209,-57.5 328,-57.5 328,-38.5 209,-38.5"/>
<text text-anchor="middle" x="268.5" y="-45.5" font-family="Helvetica,sans-Serif" font-size="10.00">IEquatable&lt; string &gt;</text>
</a>
</g>
</g>
<!-- Node8&#45;&gt;Node5 -->
<g id="edge10" class="edge">
<title>Node8&#45;&gt;Node5</title>
<path fill="none" stroke="midnightblue" d="M323.34,-59.96C332.95,-62.4 342.82,-65.12 352,-68 389.17,-79.68 431.12,-96.81 456.01,-107.42"/>
<polygon fill="midnightblue" stroke="midnightblue" points="324.02,-56.52 313.47,-57.51 322.34,-63.31 324.02,-56.52"/>
</g>
<!-- Node9 -->
<g id="node10" class="node">
<title>Node9</title>
<g id="a_node10"><a xlink:title=" ">
<polygon fill="none" stroke="#bfbfbf" points="231.5,-0.5 231.5,-19.5 305.5,-19.5 305.5,-0.5 231.5,-0.5"/>
<text text-anchor="middle" x="268.5" y="-7.5" font-family="Helvetica,sans-Serif" font-size="10.00">IDisposable</text>
</a>
</g>
</g>
<!-- Node9&#45;&gt;Node5 -->
<g id="edge11" class="edge">
<title>Node9&#45;&gt;Node5</title>
<path fill="none" stroke="midnightblue" d="M315.74,-17.38C327.84,-20.19 340.67,-23.97 352,-29 399.06,-49.9 446.78,-89.31 467.41,-107.43"/>
<polygon fill="midnightblue" stroke="midnightblue" points="316.31,-13.92 305.79,-15.25 314.84,-20.77 316.31,-13.92"/>
</g>
</g>
</svg>
