<?xml version="1.0" encoding="UTF-8" standalone="no"?>
<!DOCTYPE svg PUBLIC "-//W3C//DTD SVG 1.1//EN"
 "http://www.w3.org/Graphics/SVG/1.1/DTD/svg11.dtd">
<!-- Generated by graphviz version 2.43.0 (0)
 -->
<!-- Title: FiftyOne.Pipeline.Translation.FlowElements.TranslationEngineBase&lt; T &gt; Pages: 1 -->
<svg width="1293pt" height="144pt"
 viewBox="0.00 0.00 1293.00 143.50" xmlns="http://www.w3.org/2000/svg" xmlns:xlink="http://www.w3.org/1999/xlink">
<g id="graph0" class="graph" transform="scale(1 1) rotate(0) translate(4 139.5)">
<title>FiftyOne.Pipeline.Translation.FlowElements.TranslationEngineBase&lt; T &gt;</title>
<!-- Node7 -->
<g id="node1" class="node">
<title>Node7</title>
<g id="a_node1"><a xlink:title="Flow element that translates values from a single source element and stores translated values under i...">
<polygon fill="#bfbfbf" stroke="black" points="1058,-49.5 1058,-79.5 1285,-79.5 1285,-49.5 1058,-49.5"/>
<text text-anchor="start" x="1066" y="-67.5" font-family="Helvetica,sans-Serif" font-size="10.00">FiftyOne.Pipeline.Translation.</text>
<text text-anchor="middle" x="1171.5" y="-56.5" font-family="Helvetica,sans-Serif" font-size="10.00">FlowElements.TranslationEngineBase&lt; T &gt;</text>
</a>
</g>
</g>
<!-- Node8 -->
<g id="node2" class="node">
<title>Node8</title>
<g id="a_node2"><a xlink:href="class_fifty_one_1_1_pipeline_1_1_core_1_1_flow_elements_1_1_flow_element_base.html" target="_top" xlink:title=" ">
<polygon fill="none" stroke="black" points="767,-98.5 767,-128.5 931,-128.5 931,-98.5 767,-98.5"/>
<text text-anchor="start" x="775" y="-116.5" font-family="Helvetica,sans-Serif" font-size="10.00">FlowElementBase&lt; T,</text>
<text text-anchor="middle" x="849" y="-105.5" font-family="Helvetica,sans-Serif" font-size="10.00"> IElementPropertyMetaData &gt;</text>
</a>
</g>
</g>
<!-- Node8&#45;&gt;Node7 -->
<g id="edge1" class="edge">
<title>Node8&#45;&gt;Node7</title>
<path fill="none" stroke="midnightblue" d="M941.25,-99.55C982.14,-93.3 1030.44,-85.91 1072.14,-79.54"/>
<polygon fill="midnightblue" stroke="midnightblue" points="940.65,-96.1 931.29,-101.07 941.7,-103.02 940.65,-96.1"/>
</g>
<!-- Node9 -->
<g id="node3" class="node">
<title>Node9</title>
<g id="a_node3"><a xlink:href="class_fifty_one_1_1_pipeline_1_1_core_1_1_flow_elements_1_1_flow_element_base.html" target="_top" xlink:title="Abstract base class for Flow Elements.">
<polygon fill="none" stroke="black" points="442,-93 442,-134 595,-134 595,-93 442,-93"/>
<text text-anchor="start" x="450" y="-122" font-family="Helvetica,sans-Serif" font-size="10.00">FiftyOne.Pipeline.Core.Flow</text>
<text text-anchor="start" x="450" y="-111" font-family="Helvetica,sans-Serif" font-size="10.00">Elements.FlowElementBase</text>
<text text-anchor="middle" x="518.5" y="-100" font-family="Helvetica,sans-Serif" font-size="10.00">&lt; T, TMeta &gt;</text>
</a>
</g>
</g>
<!-- Node9&#45;&gt;Node8 -->
<g id="edge2" class="edge">
<title>Node9&#45;&gt;Node8</title>
<path fill="none" stroke="orange" stroke-dasharray="5,2" d="M605.4,-113.5C655.3,-113.5 717.8,-113.5 766.86,-113.5"/>
<polygon fill="orange" stroke="orange" points="605.28,-110 595.28,-113.5 605.28,-117 605.28,-110"/>
<text text-anchor="start" x="613" y="-127.5" font-family="Helvetica,sans-Serif" font-size="10.00"> &lt; T, IElementPropertyMeta</text>
<text text-anchor="middle" x="681" y="-116.5" font-family="Helvetica,sans-Serif" font-size="10.00">Data &gt;</text>
</g>
<!-- Node10 -->
<g id="node4" class="node">
<title>Node10</title>
<g id="a_node4"><a xlink:href="interface_fifty_one_1_1_pipeline_1_1_core_1_1_flow_elements_1_1_i_flow_element.html" target="_top" xlink:title=" ">
<polygon fill="none" stroke="black" points="256,-104 256,-123 405,-123 405,-104 256,-104"/>
<text text-anchor="middle" x="330.5" y="-111" font-family="Helvetica,sans-Serif" font-size="10.00">IFlowElement&lt; T, TMeta &gt;</text>
</a>
</g>
</g>
<!-- Node10&#45;&gt;Node9 -->
<g id="edge3" class="edge">
<title>Node10&#45;&gt;Node9</title>
<path fill="none" stroke="midnightblue" d="M415.3,-113.5C424.12,-113.5 433.05,-113.5 441.78,-113.5"/>
<polygon fill="midnightblue" stroke="midnightblue" points="415.01,-110 405.01,-113.5 415.01,-117 415.01,-110"/>
</g>
<!-- Node11 -->
<g id="node5" class="node">
<title>Node11</title>
<g id="a_node5"><a xlink:href="interface_fifty_one_1_1_pipeline_1_1_core_1_1_flow_elements_1_1_i_flow_element.html" target="_top" xlink:title="IFlowElement is the basic building block of a pipeline.">
<polygon fill="none" stroke="black" points="0,-98.5 0,-128.5 151,-128.5 151,-98.5 0,-98.5"/>
<text text-anchor="start" x="8" y="-116.5" font-family="Helvetica,sans-Serif" font-size="10.00">FiftyOne.Pipeline.Core.Flow</text>
<text text-anchor="middle" x="75.5" y="-105.5" font-family="Helvetica,sans-Serif" font-size="10.00">Elements.IFlowElement</text>
</a>
</g>
</g>
<!-- Node11&#45;&gt;Node10 -->
<g id="edge4" class="edge">
<title>Node11&#45;&gt;Node10</title>
<path fill="none" stroke="orange" stroke-dasharray="5,2" d="M161.29,-113.5C191.95,-113.5 226.3,-113.5 255.93,-113.5"/>
<polygon fill="orange" stroke="orange" points="161.04,-110 151.04,-113.5 161.04,-117 161.04,-110"/>
<text text-anchor="middle" x="203.5" y="-116.5" font-family="Helvetica,sans-Serif" font-size="10.00"> &lt; T, TMeta &gt;</text>
</g>
<!-- Node12 -->
<g id="node6" class="node">
<title>Node12</title>
<g id="a_node6"><a xlink:href="class_fifty_one_1_1_pipeline_1_1_translation_1_1_data_1_1_languages.html" target="_top" xlink:title="Set of translators for one or more languages, with static utility methods for parsing Accept&#45;Language...">
<polygon fill="none" stroke="black" points="770,-49.5 770,-79.5 928,-79.5 928,-49.5 770,-49.5"/>
<text text-anchor="start" x="778" y="-67.5" font-family="Helvetica,sans-Serif" font-size="10.00">FiftyOne.Pipeline.Translation.</text>
<text text-anchor="middle" x="849" y="-56.5" font-family="Helvetica,sans-Serif" font-size="10.00">Data.Languages</text>
</a>
</g>
</g>
<!-- Node12&#45;&gt;Node7 -->
<g id="edge5" class="edge">
<title>Node12&#45;&gt;Node7</title>
<path fill="none" stroke="#9a32cd" stroke-dasharray="5,2" d="M938.62,-64.5C975.49,-64.5 1018.71,-64.5 1057.8,-64.5"/>
<polygon fill="#9a32cd" stroke="#9a32cd" points="938.4,-61 928.4,-64.5 938.4,-68 938.4,-61"/>
<text text-anchor="middle" x="994.5" y="-67.5" font-family="Helvetica,sans-Serif" font-size="10.00"> Languages</text>
</g>
<!-- Node13 -->
<g id="node7" class="node">
<title>Node13</title>
<g id="a_node7"><a xlink:href="interface_fifty_one_1_1_pipeline_1_1_core_1_1_data_1_1_i_evidence_key_filter.html" target="_top" xlink:title="Represents an object that filters evidence key names based on some criteria.">
<polygon fill="none" stroke="black" points="772,-0.5 772,-30.5 926,-30.5 926,-0.5 772,-0.5"/>
<text text-anchor="start" x="780" y="-18.5" font-family="Helvetica,sans-Serif" font-size="10.00">FiftyOne.Pipeline.Core.Data.</text>
<text text-anchor="middle" x="849" y="-7.5" font-family="Helvetica,sans-Serif" font-size="10.00">IEvidenceKeyFilter</text>
</a>
</g>
</g>
<!-- Node13&#45;&gt;Node7 -->
<g id="edge6" class="edge">
<title>Node13&#45;&gt;Node7</title>
<path fill="none" stroke="#9a32cd" stroke-dasharray="5,2" d="M936.27,-28.69C978.22,-35.1 1028.82,-42.84 1072.25,-49.48"/>
<polygon fill="#9a32cd" stroke="#9a32cd" points="936.77,-25.23 926.36,-27.17 935.72,-32.15 936.77,-25.23"/>
<text text-anchor="middle" x="994.5" y="-47.5" font-family="Helvetica,sans-Serif" font-size="10.00"> EvidenceKeyFilter</text>
</g>
</g>
</svg>
