<?xml version="1.0" encoding="UTF-8" standalone="no"?>
<!DOCTYPE svg PUBLIC "-//W3C//DTD SVG 1.1//EN"
 "http://www.w3.org/Graphics/SVG/1.1/DTD/svg11.dtd">
<!-- Generated by graphviz version 2.43.0 (0)
 -->
<!-- Title: FiftyOne.Pipeline.Engines.FiftyOne.FlowElements.PropertyKeyedEngine&lt; TData, TProfile &gt; Pages: 1 -->
<svg width="1744pt" height="196pt"
 viewBox="0.00 0.00 1744.00 196.00" xmlns="http://www.w3.org/2000/svg" xmlns:xlink="http://www.w3.org/1999/xlink">
<g id="graph0" class="graph" transform="scale(1 1) rotate(0) translate(4 192)">
<title>FiftyOne.Pipeline.Engines.FiftyOne.FlowElements.PropertyKeyedEngine&lt; TData, TProfile &gt;</title>
<!-- Node12 -->
<g id="node1" class="node">
<title>Node12</title>
<g id="a_node1"><a xlink:title="Base class for engines that use an index of property values to profile ids to populate one or more pr...">
<polygon fill="#bfbfbf" stroke="black" points="1562,-39 1562,-80 1736,-80 1736,-39 1562,-39"/>
<text text-anchor="start" x="1570" y="-68" font-family="Helvetica,sans-Serif" font-size="10.00">FiftyOne.Pipeline.Engines.</text>
<text text-anchor="start" x="1570" y="-57" font-family="Helvetica,sans-Serif" font-size="10.00">FiftyOne.FlowElements.Property</text>
<text text-anchor="middle" x="1649" y="-46" font-family="Helvetica,sans-Serif" font-size="10.00">KeyedEngine&lt; TData, TProfile &gt;</text>
</a>
</g>
</g>
<!-- Node13 -->
<g id="node2" class="node">
<title>Node13</title>
<g id="a_node2"><a xlink:href="class_fifty_one_1_1_pipeline_1_1_engines_1_1_flow_elements_1_1_on_premise_aspect_engine_base.html" target="_top" xlink:title=" ">
<polygon fill="none" stroke="black" points="1254,-88 1254,-129 1435,-129 1435,-88 1254,-88"/>
<text text-anchor="start" x="1262" y="-117" font-family="Helvetica,sans-Serif" font-size="10.00">OnPremiseAspectEngineBase</text>
<text text-anchor="start" x="1262" y="-106" font-family="Helvetica,sans-Serif" font-size="10.00">&lt; TData, IFiftyOneAspectProperty</text>
<text text-anchor="middle" x="1344.5" y="-95" font-family="Helvetica,sans-Serif" font-size="10.00">MetaData &gt;</text>
</a>
</g>
</g>
<!-- Node13&#45;&gt;Node12 -->
<g id="edge1" class="edge">
<title>Node13&#45;&gt;Node12</title>
<path fill="none" stroke="midnightblue" d="M1445.03,-92.38C1482.77,-86.26 1525.4,-79.36 1561.82,-73.46"/>
<polygon fill="midnightblue" stroke="midnightblue" points="1444.34,-88.94 1435.03,-94 1445.46,-95.85 1444.34,-88.94"/>
</g>
<!-- Node14 -->
<g id="node3" class="node">
<title>Node14</title>
<g id="a_node3"><a xlink:href="class_fifty_one_1_1_pipeline_1_1_engines_1_1_flow_elements_1_1_on_premise_aspect_engine_base.html" target="_top" xlink:title="Base class for 51Degrees on&#45;premise aspect engines.">
<polygon fill="none" stroke="black" points="883,-88 883,-129 1091,-129 1091,-88 883,-88"/>
<text text-anchor="start" x="891" y="-117" font-family="Helvetica,sans-Serif" font-size="10.00">FiftyOne.Pipeline.Engines.</text>
<text text-anchor="start" x="891" y="-106" font-family="Helvetica,sans-Serif" font-size="10.00">FlowElements.OnPremiseAspectEngine</text>
<text text-anchor="middle" x="987" y="-95" font-family="Helvetica,sans-Serif" font-size="10.00">Base&lt; T, TMeta &gt;</text>
</a>
</g>
</g>
<!-- Node14&#45;&gt;Node13 -->
<g id="edge2" class="edge">
<title>Node14&#45;&gt;Node13</title>
<path fill="none" stroke="orange" stroke-dasharray="5,2" d="M1101.37,-108.5C1150.65,-108.5 1207.56,-108.5 1253.82,-108.5"/>
<polygon fill="orange" stroke="orange" points="1101.3,-105 1091.3,-108.5 1101.3,-112 1101.3,-105"/>
<text text-anchor="start" x="1109" y="-122.5" font-family="Helvetica,sans-Serif" font-size="10.00"> &lt; TData, IFiftyOneAspect</text>
<text text-anchor="middle" x="1172.5" y="-111.5" font-family="Helvetica,sans-Serif" font-size="10.00">PropertyMetaData &gt;</text>
</g>
<!-- Node15 -->
<g id="node4" class="node">
<title>Node15</title>
<g id="a_node4"><a xlink:href="class_fifty_one_1_1_pipeline_1_1_engines_1_1_flow_elements_1_1_aspect_engine_base.html" target="_top" xlink:title="Base class for 51Degrees aspect engines.">
<polygon fill="none" stroke="black" points="713,-116.5 713,-146.5 840,-146.5 840,-116.5 713,-116.5"/>
<text text-anchor="start" x="721" y="-134.5" font-family="Helvetica,sans-Serif" font-size="10.00">AspectEngineBase&lt; T,</text>
<text text-anchor="middle" x="776.5" y="-123.5" font-family="Helvetica,sans-Serif" font-size="10.00"> TMeta &gt;</text>
</a>
</g>
</g>
<!-- Node15&#45;&gt;Node14 -->
<g id="edge3" class="edge">
<title>Node15&#45;&gt;Node14</title>
<path fill="none" stroke="midnightblue" d="M850.09,-123.49C860.72,-122.32 871.84,-121.09 882.94,-119.87"/>
<polygon fill="midnightblue" stroke="midnightblue" points="849.61,-120.02 840.06,-124.6 850.38,-126.98 849.61,-120.02"/>
</g>
<!-- Node16 -->
<g id="node5" class="node">
<title>Node16</title>
<g id="a_node5"><a xlink:href="class_fifty_one_1_1_pipeline_1_1_core_1_1_flow_elements_1_1_flow_element_base.html" target="_top" xlink:title="Abstract base class for Flow Elements.">
<polygon fill="none" stroke="black" points="532,-157.5 532,-187.5 657,-187.5 657,-157.5 532,-157.5"/>
<text text-anchor="start" x="540" y="-175.5" font-family="Helvetica,sans-Serif" font-size="10.00">FlowElementBase&lt; T,</text>
<text text-anchor="middle" x="594.5" y="-164.5" font-family="Helvetica,sans-Serif" font-size="10.00"> TMeta &gt;</text>
</a>
</g>
</g>
<!-- Node16&#45;&gt;Node15 -->
<g id="edge4" class="edge">
<title>Node16&#45;&gt;Node15</title>
<path fill="none" stroke="midnightblue" d="M667.05,-156.2C682.23,-152.74 698.15,-149.12 712.97,-145.74"/>
<polygon fill="midnightblue" stroke="midnightblue" points="666.17,-152.81 657.19,-158.45 667.72,-159.64 666.17,-152.81"/>
</g>
<!-- Node17 -->
<g id="node6" class="node">
<title>Node17</title>
<g id="a_node6"><a xlink:href="interface_fifty_one_1_1_pipeline_1_1_core_1_1_flow_elements_1_1_i_flow_element.html" target="_top" xlink:title=" ">
<polygon fill="none" stroke="black" points="260.5,-163 260.5,-182 409.5,-182 409.5,-163 260.5,-163"/>
<text text-anchor="middle" x="335" y="-170" font-family="Helvetica,sans-Serif" font-size="10.00">IFlowElement&lt; T, TMeta &gt;</text>
</a>
</g>
</g>
<!-- Node17&#45;&gt;Node16 -->
<g id="edge5" class="edge">
<title>Node17&#45;&gt;Node16</title>
<path fill="none" stroke="midnightblue" d="M419.92,-172.5C456.39,-172.5 498.35,-172.5 531.88,-172.5"/>
<polygon fill="midnightblue" stroke="midnightblue" points="419.79,-169 409.79,-172.5 419.79,-176 419.79,-169"/>
</g>
<!-- Node18 -->
<g id="node7" class="node">
<title>Node18</title>
<g id="a_node7"><a xlink:href="interface_fifty_one_1_1_pipeline_1_1_core_1_1_flow_elements_1_1_i_flow_element.html" target="_top" xlink:title="IFlowElement is the basic building block of a pipeline.">
<polygon fill="none" stroke="black" points="0,-157.5 0,-187.5 151,-187.5 151,-157.5 0,-157.5"/>
<text text-anchor="start" x="8" y="-175.5" font-family="Helvetica,sans-Serif" font-size="10.00">FiftyOne.Pipeline.Core.Flow</text>
<text text-anchor="middle" x="75.5" y="-164.5" font-family="Helvetica,sans-Serif" font-size="10.00">Elements.IFlowElement</text>
</a>
</g>
</g>
<!-- Node18&#45;&gt;Node17 -->
<g id="edge6" class="edge">
<title>Node18&#45;&gt;Node17</title>
<path fill="none" stroke="orange" stroke-dasharray="5,2" d="M161.54,-172.5C193.48,-172.5 229.5,-172.5 260.32,-172.5"/>
<polygon fill="orange" stroke="orange" points="161.33,-169 151.33,-172.5 161.33,-176 161.33,-169"/>
<text text-anchor="middle" x="203.5" y="-175.5" font-family="Helvetica,sans-Serif" font-size="10.00"> &lt; T, TMeta &gt;</text>
</g>
<!-- Node19 -->
<g id="node8" class="node">
<title>Node19</title>
<g id="a_node8"><a xlink:href="interface_fifty_one_1_1_pipeline_1_1_engines_1_1_flow_elements_1_1_i_aspect_engine.html" target="_top" xlink:title=" ">
<polygon fill="none" stroke="black" points="519,-119 519,-138 670,-138 670,-119 519,-119"/>
<text text-anchor="middle" x="594.5" y="-126" font-family="Helvetica,sans-Serif" font-size="10.00">IAspectEngine&lt; T, TMeta &gt;</text>
</a>
</g>
</g>
<!-- Node19&#45;&gt;Node15 -->
<g id="edge7" class="edge">
<title>Node19&#45;&gt;Node15</title>
<path fill="none" stroke="midnightblue" d="M680.08,-129.91C691.09,-130.09 702.21,-130.28 712.78,-130.45"/>
<polygon fill="midnightblue" stroke="midnightblue" points="680.07,-126.41 670.01,-129.74 679.95,-133.41 680.07,-126.41"/>
</g>
<!-- Node20 -->
<g id="node9" class="node">
<title>Node20</title>
<g id="a_node9"><a xlink:href="interface_fifty_one_1_1_pipeline_1_1_engines_1_1_flow_elements_1_1_i_aspect_engine.html" target="_top" xlink:title="Interface representing 51Degrees on&#45;premise aspect engines.">
<polygon fill="none" stroke="black" points="256,-113.5 256,-143.5 414,-143.5 414,-113.5 256,-113.5"/>
<text text-anchor="start" x="264" y="-131.5" font-family="Helvetica,sans-Serif" font-size="10.00">FiftyOne.Pipeline.Engines.</text>
<text text-anchor="middle" x="335" y="-120.5" font-family="Helvetica,sans-Serif" font-size="10.00">FlowElements.IAspectEngine</text>
</a>
</g>
</g>
<!-- Node20&#45;&gt;Node19 -->
<g id="edge8" class="edge">
<title>Node20&#45;&gt;Node19</title>
<path fill="none" stroke="orange" stroke-dasharray="5,2" d="M424.56,-128.5C455.2,-128.5 489.22,-128.5 518.65,-128.5"/>
<polygon fill="orange" stroke="orange" points="424.31,-125 414.31,-128.5 424.31,-132 424.31,-125"/>
<text text-anchor="middle" x="466.5" y="-131.5" font-family="Helvetica,sans-Serif" font-size="10.00"> &lt; T, TMeta &gt;</text>
</g>
<!-- Node21 -->
<g id="node10" class="node">
<title>Node21</title>
<g id="a_node10"><a xlink:href="interface_fifty_one_1_1_pipeline_1_1_engines_1_1_flow_elements_1_1_i_on_premise_aspect_engine.html" target="_top" xlink:title="Interface for an AspectEngine that processes evidence using one or more local data files.">
<polygon fill="none" stroke="black" points="707,-78 707,-97 846,-97 846,-78 707,-78"/>
<text text-anchor="middle" x="776.5" y="-85" font-family="Helvetica,sans-Serif" font-size="10.00">IOnPremiseAspectEngine</text>
</a>
</g>
</g>
<!-- Node21&#45;&gt;Node14 -->
<g id="edge9" class="edge">
<title>Node21&#45;&gt;Node14</title>
<path fill="none" stroke="midnightblue" d="M856.12,-95.42C864.81,-96.29 873.74,-97.19 882.67,-98.09"/>
<polygon fill="midnightblue" stroke="midnightblue" points="856.36,-91.93 846.06,-94.41 855.66,-98.89 856.36,-91.93"/>
</g>
<!-- Node22 -->
<g id="node11" class="node">
<title>Node22</title>
<g id="a_node11"><a xlink:href="interface_fifty_one_1_1_pipeline_1_1_engines_1_1_flow_elements_1_1_i_aspect_engine.html" target="_top" xlink:title="Interface representing 51Degrees on&#45;premise aspect engines.">
<polygon fill="none" stroke="black" points="551.5,-78 551.5,-97 637.5,-97 637.5,-78 551.5,-78"/>
<text text-anchor="middle" x="594.5" y="-85" font-family="Helvetica,sans-Serif" font-size="10.00">IAspectEngine</text>
</a>
</g>
</g>
<!-- Node22&#45;&gt;Node21 -->
<g id="edge10" class="edge">
<title>Node22&#45;&gt;Node21</title>
<path fill="none" stroke="midnightblue" d="M647.92,-87.5C666.32,-87.5 687.27,-87.5 706.8,-87.5"/>
<polygon fill="midnightblue" stroke="midnightblue" points="647.7,-84 637.7,-87.5 647.7,-91 647.7,-84"/>
</g>
<!-- Node23 -->
<g id="node12" class="node">
<title>Node23</title>
<g id="a_node12"><a xlink:title=" ">
<polygon fill="none" stroke="#bfbfbf" points="1307.5,-50 1307.5,-69 1381.5,-69 1381.5,-50 1307.5,-50"/>
<text text-anchor="middle" x="1344.5" y="-57" font-family="Helvetica,sans-Serif" font-size="10.00">IDisposable</text>
</a>
</g>
</g>
<!-- Node23&#45;&gt;Node12 -->
<g id="edge11" class="edge">
<title>Node23&#45;&gt;Node12</title>
<path fill="none" stroke="midnightblue" d="M1391.76,-59.5C1436.85,-59.5 1506.52,-59.5 1561.83,-59.5"/>
<polygon fill="midnightblue" stroke="midnightblue" points="1391.69,-56 1381.69,-59.5 1391.69,-63 1391.69,-56"/>
</g>
<!-- Node24 -->
<g id="node13" class="node">
<title>Node24</title>
<g id="a_node13"><a xlink:href="interface_fifty_one_1_1_pipeline_1_1_core_1_1_data_1_1_i_evidence_key_filter.html" target="_top" xlink:title="Represents an object that filters evidence key names based on some criteria.">
<polygon fill="none" stroke="black" points="1267.5,-0.5 1267.5,-30.5 1421.5,-30.5 1421.5,-0.5 1267.5,-0.5"/>
<text text-anchor="start" x="1275.5" y="-18.5" font-family="Helvetica,sans-Serif" font-size="10.00">FiftyOne.Pipeline.Core.Data.</text>
<text text-anchor="middle" x="1344.5" y="-7.5" font-family="Helvetica,sans-Serif" font-size="10.00">IEvidenceKeyFilter</text>
</a>
</g>
</g>
<!-- Node24&#45;&gt;Node12 -->
<g id="edge12" class="edge">
<title>Node24&#45;&gt;Node12</title>
<path fill="none" stroke="#9a32cd" stroke-dasharray="5,2" d="M1431.75,-28.05C1472.51,-33.97 1521.05,-41.03 1561.8,-46.96"/>
<polygon fill="#9a32cd" stroke="#9a32cd" points="1432.23,-24.58 1421.83,-26.6 1431.23,-31.51 1432.23,-24.58"/>
<text text-anchor="middle" x="1498.5" y="-47.5" font-family="Helvetica,sans-Serif" font-size="10.00"> EvidenceKeyFilter</text>
</g>
</g>
</svg>
