<?xml version="1.0" encoding="UTF-8" standalone="no"?>
<!DOCTYPE svg PUBLIC "-//W3C//DTD SVG 1.1//EN"
 "http://www.w3.org/Graphics/SVG/1.1/DTD/svg11.dtd">
<!-- Generated by graphviz version 2.43.0 (0)
 -->
<!-- Title: FiftyOne.Pipeline.Engines.FlowElements.OnPremiseAspectEngineBase&lt; T, TMeta &gt; Pages: 1 -->
<svg width="1393pt" height="157pt"
 viewBox="0.00 0.00 1393.00 157.00" xmlns="http://www.w3.org/2000/svg" xmlns:xlink="http://www.w3.org/1999/xlink">
<g id="graph0" class="graph" transform="scale(1 1) rotate(0) translate(4 153)">
<title>FiftyOne.Pipeline.Engines.FlowElements.OnPremiseAspectEngineBase&lt; T, TMeta &gt;</title>
<!-- Node1 -->
<g id="Node000001" class="node">
<title>Node1</title>
<g id="a_Node000001"><a xlink:title="Base class for 51Degrees on&#45;premise aspect engines.">
<polygon fill="#999999" stroke="#666666" points="1140,-68 932,-68 932,-27 1140,-27 1140,-68"/>
<text text-anchor="start" x="940" y="-56" font-family="Helvetica,sans-Serif" font-size="10.00">FiftyOne.Pipeline.Engines.</text>
<text text-anchor="start" x="940" y="-45" font-family="Helvetica,sans-Serif" font-size="10.00">FlowElements.OnPremiseAspectEngine</text>
<text text-anchor="middle" x="1036" y="-34" font-family="Helvetica,sans-Serif" font-size="10.00">Base&lt; T, TMeta &gt;</text>
</a>
</g>
</g>
<!-- Node10 -->
<g id="Node000010" class="node">
<title>Node10</title>
<g id="a_Node000010"><a xlink:href="class_examples_1_1_on_premise_engine_1_1_flow_elements_1_1_simple_on_premise_engine.html" target="_top" xlink:title=" ">
<polygon fill="white" stroke="#666666" points="1385,-89.5 1176,-89.5 1176,-59.5 1385,-59.5 1385,-89.5"/>
<text text-anchor="start" x="1184" y="-77.5" font-family="Helvetica,sans-Serif" font-size="10.00">Examples.OnPremiseEngine.</text>
<text text-anchor="middle" x="1280.5" y="-66.5" font-family="Helvetica,sans-Serif" font-size="10.00">FlowElements.SimpleOnPremiseEngine</text>
</a>
</g>
</g>
<!-- Node1&#45;&gt;Node10 -->
<g id="edge12_Node000001_Node000010" class="edge">
<title>Node1&#45;&gt;Node10</title>
<g id="a_edge12_Node000001_Node000010"><a xlink:title=" ">
<path fill="none" stroke="#63b8ff" d="M1150.14,-60.1C1158.64,-61.04 1167.19,-62 1175.63,-62.93"/>
<polygon fill="#63b8ff" stroke="#63b8ff" points="1150.52,-56.62 1140.19,-58.99 1149.74,-63.57 1150.52,-56.62"/>
</a>
</g>
</g>
<!-- Node11 -->
<g id="Node000011" class="node">
<title>Node11</title>
<g id="a_Node000011"><a xlink:href="class_fifty_one_1_1_pipeline_1_1_engines_1_1_fifty_one_1_1_flow_elements_1_1_fifty_one_on_premise_aspect_engine_base-1-g.html" target="_top" xlink:title="51Degrees specific Engine base class.">
<polygon fill="white" stroke="#666666" points="1374.5,-41 1186.5,-41 1186.5,0 1374.5,0 1374.5,-41"/>
<text text-anchor="start" x="1194.5" y="-29" font-family="Helvetica,sans-Serif" font-size="10.00">FiftyOne.Pipeline.Engines.</text>
<text text-anchor="start" x="1194.5" y="-18" font-family="Helvetica,sans-Serif" font-size="10.00">FiftyOne.FlowElements.FiftyOne</text>
<text text-anchor="middle" x="1280.5" y="-7" font-family="Helvetica,sans-Serif" font-size="10.00">OnPremiseAspectEngineBase&lt; T &gt;</text>
</a>
</g>
</g>
<!-- Node1&#45;&gt;Node11 -->
<g id="edge13_Node000001_Node000011" class="edge">
<title>Node1&#45;&gt;Node11</title>
<g id="a_edge13_Node000001_Node000011"><a xlink:title=" ">
<path fill="none" stroke="#63b8ff" d="M1150.31,-34.88C1162.39,-33.54 1174.58,-32.18 1186.39,-30.87"/>
<polygon fill="#63b8ff" stroke="#63b8ff" points="1149.74,-31.43 1140.19,-36.01 1150.52,-38.38 1149.74,-31.43"/>
</a>
</g>
</g>
<!-- Node2 -->
<g id="Node000002" class="node">
<title>Node2</title>
<g id="a_Node000002"><a xlink:href="class_fifty_one_1_1_pipeline_1_1_engines_1_1_flow_elements_1_1_aspect_engine_base-2-g.html" target="_top" xlink:title="Base class for 51Degrees aspect engines.">
<polygon fill="white" stroke="#666666" points="880,-95 701,-95 701,-54 880,-54 880,-95"/>
<text text-anchor="start" x="709" y="-83" font-family="Helvetica,sans-Serif" font-size="10.00">FiftyOne.Pipeline.Engines.</text>
<text text-anchor="start" x="709" y="-72" font-family="Helvetica,sans-Serif" font-size="10.00">FlowElements.AspectEngineBase</text>
<text text-anchor="middle" x="790.5" y="-61" font-family="Helvetica,sans-Serif" font-size="10.00">&lt; T, TMeta &gt;</text>
</a>
</g>
</g>
<!-- Node2&#45;&gt;Node1 -->
<g id="edge1_Node000001_Node000002" class="edge">
<title>Node2&#45;&gt;Node1</title>
<g id="a_edge1_Node000001_Node000002"><a xlink:title=" ">
<path fill="none" stroke="#63b8ff" d="M890.39,-63.53C903.97,-62.03 917.93,-60.48 931.59,-58.97"/>
<polygon fill="#63b8ff" stroke="#63b8ff" points="889.65,-60.1 880.1,-64.68 890.42,-67.05 889.65,-60.1"/>
</a>
</g>
</g>
<!-- Node3 -->
<g id="Node000003" class="node">
<title>Node3</title>
<g id="a_Node000003"><a xlink:href="class_fifty_one_1_1_pipeline_1_1_core_1_1_flow_elements_1_1_flow_element_base-2-g.html" target="_top" xlink:title="Abstract base class for Flow Elements.">
<polygon fill="white" stroke="#666666" points="646.5,-149 493.5,-149 493.5,-108 646.5,-108 646.5,-149"/>
<text text-anchor="start" x="501.5" y="-137" font-family="Helvetica,sans-Serif" font-size="10.00">FiftyOne.Pipeline.Core.Flow</text>
<text text-anchor="start" x="501.5" y="-126" font-family="Helvetica,sans-Serif" font-size="10.00">Elements.FlowElementBase</text>
<text text-anchor="middle" x="570" y="-115" font-family="Helvetica,sans-Serif" font-size="10.00">&lt; T, TMeta &gt;</text>
</a>
</g>
</g>
<!-- Node3&#45;&gt;Node2 -->
<g id="edge2_Node000002_Node000003" class="edge">
<title>Node3&#45;&gt;Node2</title>
<g id="a_edge2_Node000002_Node000003"><a xlink:title=" ">
<path fill="none" stroke="#63b8ff" d="M656.61,-107.34C673.03,-103.28 690.19,-99.04 706.52,-95.01"/>
<polygon fill="#63b8ff" stroke="#63b8ff" points="655.37,-104.04 646.5,-109.84 657.05,-110.84 655.37,-104.04"/>
</a>
</g>
</g>
<!-- Node4 -->
<g id="Node000004" class="node">
<title>Node4</title>
<g id="a_Node000004"><a xlink:href="interface_fifty_one_1_1_pipeline_1_1_core_1_1_flow_elements_1_1_i_flow_element-2-g.html" target="_top" xlink:title="Generic interface that extends IFlowElement with the ability to return a ITypedKey&lt;T&gt; that will allow...">
<polygon fill="white" stroke="#666666" points="452,-119 300,-119 300,-78 452,-78 452,-119"/>
<text text-anchor="start" x="308" y="-107" font-family="Helvetica,sans-Serif" font-size="10.00">FiftyOne.Pipeline.Core.Flow</text>
<text text-anchor="start" x="308" y="-96" font-family="Helvetica,sans-Serif" font-size="10.00">Elements.IFlowElement&lt; T,</text>
<text text-anchor="middle" x="376" y="-85" font-family="Helvetica,sans-Serif" font-size="10.00"> TMeta &gt;</text>
</a>
</g>
</g>
<!-- Node4&#45;&gt;Node3 -->
<g id="edge3_Node000003_Node000004" class="edge">
<title>Node4&#45;&gt;Node3</title>
<g id="a_edge3_Node000003_Node000004"><a xlink:title=" ">
<path fill="none" stroke="#63b8ff" d="M462,-111.78C472.45,-113.41 483.07,-115.07 493.36,-116.68"/>
<polygon fill="#63b8ff" stroke="#63b8ff" points="462.48,-108.31 452.06,-110.23 461.4,-115.23 462.48,-108.31"/>
</a>
</g>
</g>
<!-- Node7 -->
<g id="Node000007" class="node">
<title>Node7</title>
<g id="a_Node000007"><a xlink:href="interface_fifty_one_1_1_pipeline_1_1_engines_1_1_flow_elements_1_1_i_aspect_engine-2-g.html" target="_top" xlink:title="Interface representing 51Degrees on&#45;premise aspect engines.">
<polygon fill="white" stroke="#666666" points="649,-90 491,-90 491,-49 649,-49 649,-90"/>
<text text-anchor="start" x="499" y="-78" font-family="Helvetica,sans-Serif" font-size="10.00">FiftyOne.Pipeline.Engines.</text>
<text text-anchor="start" x="499" y="-67" font-family="Helvetica,sans-Serif" font-size="10.00">FlowElements.IAspectEngine</text>
<text text-anchor="middle" x="570" y="-56" font-family="Helvetica,sans-Serif" font-size="10.00">&lt; T, TMeta &gt;</text>
</a>
</g>
</g>
<!-- Node4&#45;&gt;Node7 -->
<g id="edge9_Node000007_Node000004" class="edge">
<title>Node4&#45;&gt;Node7</title>
<g id="a_edge9_Node000007_Node000004"><a xlink:title=" ">
<path fill="none" stroke="#63b8ff" d="M461.99,-85.66C471.58,-84.21 481.33,-82.74 490.83,-81.31"/>
<polygon fill="#63b8ff" stroke="#63b8ff" points="461.42,-82.21 452.06,-87.16 462.47,-89.13 461.42,-82.21"/>
</a>
</g>
</g>
<!-- Node5 -->
<g id="Node000005" class="node">
<title>Node5</title>
<g id="a_Node000005"><a xlink:href="interface_fifty_one_1_1_pipeline_1_1_core_1_1_flow_elements_1_1_i_flow_element.html" target="_top" xlink:title="IFlowElement is the basic building block of a pipeline.">
<polygon fill="white" stroke="#666666" points="261,-86.5 110,-86.5 110,-56.5 261,-56.5 261,-86.5"/>
<text text-anchor="start" x="118" y="-74.5" font-family="Helvetica,sans-Serif" font-size="10.00">FiftyOne.Pipeline.Core.Flow</text>
<text text-anchor="middle" x="185.5" y="-63.5" font-family="Helvetica,sans-Serif" font-size="10.00">Elements.IFlowElement</text>
</a>
</g>
</g>
<!-- Node5&#45;&gt;Node4 -->
<g id="edge4_Node000004_Node000005" class="edge">
<title>Node5&#45;&gt;Node4</title>
<g id="a_edge4_Node000004_Node000005"><a xlink:title=" ">
<path fill="none" stroke="#63b8ff" d="M270.95,-83.6C280.57,-84.97 290.32,-86.37 299.81,-87.73"/>
<polygon fill="#63b8ff" stroke="#63b8ff" points="271.4,-80.12 261,-82.17 270.4,-87.05 271.4,-80.12"/>
</a>
</g>
</g>
<!-- Node8 -->
<g id="Node000008" class="node">
<title>Node8</title>
<g id="a_Node000008"><a xlink:href="interface_fifty_one_1_1_pipeline_1_1_engines_1_1_flow_elements_1_1_i_aspect_engine.html" target="_top" xlink:title="Interface representing 51Degrees on&#45;premise aspect engines.">
<polygon fill="white" stroke="#666666" points="455,-59.5 297,-59.5 297,-29.5 455,-29.5 455,-59.5"/>
<text text-anchor="start" x="305" y="-47.5" font-family="Helvetica,sans-Serif" font-size="10.00">FiftyOne.Pipeline.Engines.</text>
<text text-anchor="middle" x="376" y="-36.5" font-family="Helvetica,sans-Serif" font-size="10.00">FlowElements.IAspectEngine</text>
</a>
</g>
</g>
<!-- Node5&#45;&gt;Node8 -->
<g id="edge8_Node000008_Node000005" class="edge">
<title>Node5&#45;&gt;Node8</title>
<g id="a_edge8_Node000008_Node000005"><a xlink:title=" ">
<path fill="none" stroke="#63b8ff" d="M270.98,-59.4C279.54,-58.17 288.21,-56.93 296.71,-55.71"/>
<polygon fill="#63b8ff" stroke="#63b8ff" points="270.4,-55.95 261,-60.83 271.4,-62.88 270.4,-55.95"/>
</a>
</g>
</g>
<!-- Node6 -->
<g id="Node000006" class="node">
<title>Node6</title>
<g id="a_Node000006"><a xlink:title=" ">
<polygon fill="white" stroke="#bfbfbf" points="74,-81 0,-81 0,-62 74,-62 74,-81"/>
<text text-anchor="middle" x="37" y="-69" font-family="Helvetica,sans-Serif" font-size="10.00">IDisposable</text>
</a>
</g>
</g>
<!-- Node6&#45;&gt;Node5 -->
<g id="edge5_Node000005_Node000006" class="edge">
<title>Node6&#45;&gt;Node5</title>
<g id="a_edge5_Node000005_Node000006"><a xlink:title=" ">
<path fill="none" stroke="#63b8ff" d="M84.22,-71.5C92.38,-71.5 101.05,-71.5 109.75,-71.5"/>
<polygon fill="#63b8ff" stroke="#63b8ff" points="84.21,-68 74.21,-71.5 84.21,-75 84.21,-68"/>
</a>
</g>
</g>
<!-- Node7&#45;&gt;Node2 -->
<g id="edge6_Node000002_Node000007" class="edge">
<title>Node7&#45;&gt;Node2</title>
<g id="a_edge6_Node000002_Node000007"><a xlink:title=" ">
<path fill="none" stroke="#63b8ff" d="M659.53,-71.53C673.08,-71.84 687.08,-72.16 700.64,-72.47"/>
<polygon fill="#63b8ff" stroke="#63b8ff" points="659.34,-68.02 649.27,-71.29 659.18,-75.02 659.34,-68.02"/>
</a>
</g>
</g>
<!-- Node8&#45;&gt;Node7 -->
<g id="edge7_Node000007_Node000008" class="edge">
<title>Node8&#45;&gt;Node7</title>
<g id="a_edge7_Node000007_Node000008"><a xlink:title=" ">
<path fill="none" stroke="#63b8ff" d="M465.15,-55.98C473.77,-57.1 482.47,-58.23 490.98,-59.34"/>
<polygon fill="#63b8ff" stroke="#63b8ff" points="465.46,-52.49 455.09,-54.67 464.56,-59.43 465.46,-52.49"/>
</a>
</g>
</g>
<!-- Node9 -->
<g id="Node000009" class="node">
<title>Node9</title>
<g id="a_Node000009"><a xlink:href="interface_fifty_one_1_1_pipeline_1_1_engines_1_1_flow_elements_1_1_i_on_premise_aspect_engine.html" target="_top" xlink:title="Interface for an AspectEngine that processes evidence using one or more local data files.">
<polygon fill="white" stroke="#666666" points="896,-35.5 685,-35.5 685,-5.5 896,-5.5 896,-35.5"/>
<text text-anchor="start" x="693" y="-23.5" font-family="Helvetica,sans-Serif" font-size="10.00">FiftyOne.Pipeline.Engines.</text>
<text text-anchor="middle" x="790.5" y="-12.5" font-family="Helvetica,sans-Serif" font-size="10.00">FlowElements.IOnPremiseAspectEngine</text>
</a>
</g>
</g>
<!-- Node8&#45;&gt;Node9 -->
<g id="edge11_Node000009_Node000008" class="edge">
<title>Node8&#45;&gt;Node9</title>
<g id="a_edge11_Node000009_Node000008"><a xlink:title=" ">
<path fill="none" stroke="#63b8ff" d="M465.19,-39.37C529.54,-35.63 616.99,-30.54 684.86,-26.59"/>
<polygon fill="#63b8ff" stroke="#63b8ff" points="464.85,-35.88 455.07,-39.96 465.26,-42.87 464.85,-35.88"/>
</a>
</g>
</g>
<!-- Node9&#45;&gt;Node1 -->
<g id="edge10_Node000001_Node000009" class="edge">
<title>Node9&#45;&gt;Node1</title>
<g id="a_edge10_Node000001_Node000009"><a xlink:title=" ">
<path fill="none" stroke="#63b8ff" d="M906.23,-33.22C914.81,-34.17 923.45,-35.13 931.95,-36.07"/>
<polygon fill="#63b8ff" stroke="#63b8ff" points="906.5,-29.73 896.18,-32.11 905.73,-36.69 906.5,-29.73"/>
</a>
</g>
</g>
</g>
</svg>
