<?xml version="1.0" encoding="UTF-8" standalone="no"?>
<!DOCTYPE svg PUBLIC "-//W3C//DTD SVG 1.1//EN"
 "http://www.w3.org/Graphics/SVG/1.1/DTD/svg11.dtd">
<!-- Generated by graphviz version 2.43.0 (0)
 -->
<!-- Title: FiftyOne.Pipeline.Translation.FlowElements.TranslationEngine Pages: 1 -->
<svg width="1804pt" height="92pt"
 viewBox="0.00 0.00 1804.00 91.50" xmlns="http://www.w3.org/2000/svg" xmlns:xlink="http://www.w3.org/1999/xlink">
<g id="graph0" class="graph" transform="scale(1 1) rotate(0) translate(4 87.5)">
<title>FiftyOne.Pipeline.Translation.FlowElements.TranslationEngine</title>
<!-- Node0 -->
<g id="node1" class="node">
<title>Node0</title>
<g id="a_node1"><a xlink:title=" ">
<polygon fill="#bfbfbf" stroke="black" points="1621,-18.5 1621,-48.5 1796,-48.5 1796,-18.5 1621,-18.5"/>
<text text-anchor="start" x="1629" y="-36.5" font-family="Helvetica,sans-Serif" font-size="10.00">FiftyOne.Pipeline.Translation.</text>
<text text-anchor="middle" x="1708.5" y="-25.5" font-family="Helvetica,sans-Serif" font-size="10.00">FlowElements.TranslationEngine</text>
</a>
</g>
</g>
<!-- Node1 -->
<g id="node2" class="node">
<title>Node1</title>
<g id="a_node2"><a xlink:href="class_fifty_one_1_1_pipeline_1_1_translation_1_1_flow_elements_1_1_translation_engine_base.html" target="_top" xlink:title=" ">
<polygon fill="none" stroke="black" points="1457,-45.5 1457,-75.5 1584,-75.5 1584,-45.5 1457,-45.5"/>
<text text-anchor="start" x="1465" y="-63.5" font-family="Helvetica,sans-Serif" font-size="10.00">TranslationEngineBase</text>
<text text-anchor="middle" x="1520.5" y="-52.5" font-family="Helvetica,sans-Serif" font-size="10.00">&lt; ITranslationData &gt;</text>
</a>
</g>
</g>
<!-- Node1&#45;&gt;Node0 -->
<g id="edge1" class="edge">
<title>Node1&#45;&gt;Node0</title>
<path fill="none" stroke="midnightblue" d="M1594.33,-49.93C1603.07,-48.66 1612.05,-47.36 1620.96,-46.06"/>
<polygon fill="midnightblue" stroke="midnightblue" points="1593.61,-46.5 1584.21,-51.4 1594.61,-53.42 1593.61,-46.5"/>
</g>
<!-- Node2 -->
<g id="node3" class="node">
<title>Node2</title>
<g id="a_node3"><a xlink:href="class_fifty_one_1_1_pipeline_1_1_translation_1_1_flow_elements_1_1_translation_engine_base.html" target="_top" xlink:title="Flow element that translates values from a single source element and stores translated values under i...">
<polygon fill="none" stroke="black" points="1088,-45.5 1088,-75.5 1315,-75.5 1315,-45.5 1088,-45.5"/>
<text text-anchor="start" x="1096" y="-63.5" font-family="Helvetica,sans-Serif" font-size="10.00">FiftyOne.Pipeline.Translation.</text>
<text text-anchor="middle" x="1201.5" y="-52.5" font-family="Helvetica,sans-Serif" font-size="10.00">FlowElements.TranslationEngineBase&lt; T &gt;</text>
</a>
</g>
</g>
<!-- Node2&#45;&gt;Node1 -->
<g id="edge2" class="edge">
<title>Node2&#45;&gt;Node1</title>
<path fill="none" stroke="orange" stroke-dasharray="5,2" d="M1325.26,-60.5C1370.13,-60.5 1419.04,-60.5 1456.55,-60.5"/>
<polygon fill="orange" stroke="orange" points="1325.15,-57 1315.15,-60.5 1325.15,-64 1325.15,-57"/>
<text text-anchor="middle" x="1386" y="-63.5" font-family="Helvetica,sans-Serif" font-size="10.00"> &lt; ITranslationData &gt;</text>
</g>
<!-- Node3 -->
<g id="node4" class="node">
<title>Node3</title>
<g id="a_node4"><a xlink:href="class_fifty_one_1_1_pipeline_1_1_core_1_1_flow_elements_1_1_flow_element_base.html" target="_top" xlink:title=" ">
<polygon fill="none" stroke="black" points="887,-46.5 887,-76.5 1051,-76.5 1051,-46.5 887,-46.5"/>
<text text-anchor="start" x="895" y="-64.5" font-family="Helvetica,sans-Serif" font-size="10.00">FlowElementBase&lt; T,</text>
<text text-anchor="middle" x="969" y="-53.5" font-family="Helvetica,sans-Serif" font-size="10.00"> IElementPropertyMetaData &gt;</text>
</a>
</g>
</g>
<!-- Node3&#45;&gt;Node2 -->
<g id="edge3" class="edge">
<title>Node3&#45;&gt;Node2</title>
<path fill="none" stroke="midnightblue" d="M1061.33,-61.1C1069.99,-61.07 1078.83,-61.03 1087.66,-60.99"/>
<polygon fill="midnightblue" stroke="midnightblue" points="1061.25,-57.6 1051.27,-61.15 1061.28,-64.6 1061.25,-57.6"/>
</g>
<!-- Node4 -->
<g id="node5" class="node">
<title>Node4</title>
<g id="a_node5"><a xlink:href="class_fifty_one_1_1_pipeline_1_1_core_1_1_flow_elements_1_1_flow_element_base.html" target="_top" xlink:title="Abstract base class for Flow Elements.">
<polygon fill="none" stroke="black" points="562,-42 562,-83 715,-83 715,-42 562,-42"/>
<text text-anchor="start" x="570" y="-71" font-family="Helvetica,sans-Serif" font-size="10.00">FiftyOne.Pipeline.Core.Flow</text>
<text text-anchor="start" x="570" y="-60" font-family="Helvetica,sans-Serif" font-size="10.00">Elements.FlowElementBase</text>
<text text-anchor="middle" x="638.5" y="-49" font-family="Helvetica,sans-Serif" font-size="10.00">&lt; T, TMeta &gt;</text>
</a>
</g>
</g>
<!-- Node4&#45;&gt;Node3 -->
<g id="edge4" class="edge">
<title>Node4&#45;&gt;Node3</title>
<path fill="none" stroke="orange" stroke-dasharray="5,2" d="M725.4,-62.24C775.3,-62.09 837.8,-61.9 886.86,-61.75"/>
<polygon fill="orange" stroke="orange" points="725.27,-58.74 715.28,-62.27 725.29,-65.74 725.27,-58.74"/>
<text text-anchor="start" x="733" y="-75.5" font-family="Helvetica,sans-Serif" font-size="10.00"> &lt; T, IElementPropertyMeta</text>
<text text-anchor="middle" x="801" y="-64.5" font-family="Helvetica,sans-Serif" font-size="10.00">Data &gt;</text>
</g>
<!-- Node5 -->
<g id="node6" class="node">
<title>Node5</title>
<g id="a_node6"><a xlink:href="interface_fifty_one_1_1_pipeline_1_1_core_1_1_flow_elements_1_1_i_flow_element.html" target="_top" xlink:title=" ">
<polygon fill="none" stroke="black" points="355.5,-52 355.5,-71 504.5,-71 504.5,-52 355.5,-52"/>
<text text-anchor="middle" x="430" y="-59" font-family="Helvetica,sans-Serif" font-size="10.00">IFlowElement&lt; T, TMeta &gt;</text>
</a>
</g>
</g>
<!-- Node5&#45;&gt;Node4 -->
<g id="edge5" class="edge">
<title>Node5&#45;&gt;Node4</title>
<path fill="none" stroke="midnightblue" d="M514.79,-61.91C530.33,-61.98 546.48,-62.06 561.76,-62.13"/>
<polygon fill="midnightblue" stroke="midnightblue" points="514.69,-58.41 504.68,-61.86 514.66,-65.41 514.69,-58.41"/>
</g>
<!-- Node6 -->
<g id="node7" class="node">
<title>Node6</title>
<g id="a_node7"><a xlink:href="interface_fifty_one_1_1_pipeline_1_1_core_1_1_flow_elements_1_1_i_flow_element.html" target="_top" xlink:title="IFlowElement is the basic building block of a pipeline.">
<polygon fill="none" stroke="black" points="0,-23.5 0,-53.5 151,-53.5 151,-23.5 0,-23.5"/>
<text text-anchor="start" x="8" y="-41.5" font-family="Helvetica,sans-Serif" font-size="10.00">FiftyOne.Pipeline.Core.Flow</text>
<text text-anchor="middle" x="75.5" y="-30.5" font-family="Helvetica,sans-Serif" font-size="10.00">Elements.IFlowElement</text>
</a>
</g>
</g>
<!-- Node6&#45;&gt;Node5 -->
<g id="edge6" class="edge">
<title>Node6&#45;&gt;Node5</title>
<path fill="none" stroke="orange" stroke-dasharray="5,2" d="M161.33,-44.03C220.5,-47.9 298.68,-53 355.26,-56.69"/>
<polygon fill="orange" stroke="orange" points="161.46,-40.54 151.26,-43.38 161.01,-47.52 161.46,-40.54"/>
<text text-anchor="middle" x="243" y="-57.5" font-family="Helvetica,sans-Serif" font-size="10.00"> &lt; T, TMeta &gt;</text>
</g>
<!-- Node8 -->
<g id="node9" class="node">
<title>Node8</title>
<g id="a_node9"><a xlink:href="interface_fifty_one_1_1_pipeline_1_1_core_1_1_flow_elements_1_1_i_flow_element.html" target="_top" xlink:title=" ">
<polygon fill="none" stroke="black" points="335,-0.5 335,-30.5 525,-30.5 525,-0.5 335,-0.5"/>
<text text-anchor="start" x="343" y="-18.5" font-family="Helvetica,sans-Serif" font-size="10.00">IFlowElement&lt; ITranslation</text>
<text text-anchor="middle" x="430" y="-7.5" font-family="Helvetica,sans-Serif" font-size="10.00">Data, IElementPropertyMetaData &gt;</text>
</a>
</g>
</g>
<!-- Node6&#45;&gt;Node8 -->
<g id="edge9" class="edge">
<title>Node6&#45;&gt;Node8</title>
<path fill="none" stroke="orange" stroke-dasharray="5,2" d="M152.16,-21.76C157.84,-20.88 163.5,-20.1 169,-19.5 223.75,-13.51 285.36,-12.32 334.87,-12.72"/>
<polygon fill="orange" stroke="orange" points="151.23,-18.37 141.95,-23.48 152.39,-25.27 151.23,-18.37"/>
<text text-anchor="start" x="169" y="-33.5" font-family="Helvetica,sans-Serif" font-size="10.00"> &lt; ITranslationData,</text>
<text text-anchor="middle" x="243" y="-22.5" font-family="Helvetica,sans-Serif" font-size="10.00"> IElementPropertyMetaData &gt;</text>
</g>
<!-- Node7 -->
<g id="node8" class="node">
<title>Node7</title>
<g id="a_node8"><a xlink:href="interface_fifty_one_1_1_pipeline_1_1_translation_1_1_flow_elements_1_1_i_translation_engine.html" target="_top" xlink:title="Flow element that translates values from a single source element and stores translated values under i...">
<polygon fill="none" stroke="black" points="748,-5 748,-24 854,-24 854,-5 748,-5"/>
<text text-anchor="middle" x="801" y="-12" font-family="Helvetica,sans-Serif" font-size="10.00">ITranslationEngine</text>
</a>
</g>
</g>
<!-- Node7&#45;&gt;Node0 -->
<g id="edge7" class="edge">
<title>Node7&#45;&gt;Node0</title>
<path fill="none" stroke="midnightblue" d="M864.31,-15.23C918.42,-15.8 998.89,-16.5 1069,-16.5 1069,-16.5 1069,-16.5 1521.5,-16.5 1553.93,-16.5 1589.4,-19.09 1620.59,-22.26"/>
<polygon fill="midnightblue" stroke="midnightblue" points="864.22,-11.73 854.18,-15.12 864.15,-18.73 864.22,-11.73"/>
</g>
<!-- Node8&#45;&gt;Node7 -->
<g id="edge8" class="edge">
<title>Node8&#45;&gt;Node7</title>
<path fill="none" stroke="midnightblue" d="M535.17,-15.22C604.62,-15.03 692.94,-14.79 747.98,-14.64"/>
<polygon fill="midnightblue" stroke="midnightblue" points="535.06,-11.72 525.07,-15.25 535.08,-18.72 535.06,-11.72"/>
</g>
</g>
</svg>
