<?xml version="1.0" encoding="UTF-8" standalone="no"?>
<!DOCTYPE svg PUBLIC "-//W3C//DTD SVG 1.1//EN"
 "http://www.w3.org/Graphics/SVG/1.1/DTD/svg11.dtd">
<!-- Generated by graphviz version 2.43.0 (0)
 -->
<!-- Title: FiftyOne.Pipeline.Core.FlowElements.FlowElementBase&lt; T, TMeta &gt; Pages: 1 -->
<svg width="1976pt" height="816pt"
 viewBox="0.00 0.00 1976.00 815.50" xmlns="http://www.w3.org/2000/svg" xmlns:xlink="http://www.w3.org/1999/xlink">
<g id="graph0" class="graph" transform="scale(1 1) rotate(0) translate(4 811.5)">
<title>FiftyOne.Pipeline.Core.FlowElements.FlowElementBase&lt; T, TMeta &gt;</title>
<!-- Node0 -->
<g id="node1" class="node">
<title>Node0</title>
<g id="a_node1"><a xlink:title="Abstract base class for Flow Elements.">
<polygon fill="#bfbfbf" stroke="black" points="442,-351 442,-392 595,-392 595,-351 442,-351"/>
<text text-anchor="start" x="450" y="-380" font-family="Helvetica,sans-Serif" font-size="10.00">FiftyOne.Pipeline.Core.Flow</text>
<text text-anchor="start" x="450" y="-369" font-family="Helvetica,sans-Serif" font-size="10.00">Elements.FlowElementBase</text>
<text text-anchor="middle" x="518.5" y="-358" font-family="Helvetica,sans-Serif" font-size="10.00">&lt; T, TMeta &gt;</text>
</a>
</g>
</g>
<!-- Node3 -->
<g id="node4" class="node">
<title>Node3</title>
<g id="a_node4"><a xlink:href="class_fifty_one_1_1_pipeline_1_1_engines_1_1_flow_elements_1_1_aspect_engine_base.html" target="_top" xlink:title="Base class for 51Degrees aspect engines.">
<polygon fill="none" stroke="black" points="841,-700.5 841,-752.5 977,-752.5 977,-700.5 841,-700.5"/>
<text text-anchor="start" x="849" y="-740.5" font-family="Helvetica,sans-Serif" font-size="10.00">FiftyOne::Pipeline</text>
<text text-anchor="start" x="849" y="-729.5" font-family="Helvetica,sans-Serif" font-size="10.00">::Engines::FlowElements</text>
<text text-anchor="start" x="849" y="-718.5" font-family="Helvetica,sans-Serif" font-size="10.00">::AspectEngineBase&lt; T,</text>
<text text-anchor="middle" x="909" y="-707.5" font-family="Helvetica,sans-Serif" font-size="10.00"> TMeta &gt;</text>
</a>
</g>
</g>
<!-- Node0&#45;&gt;Node3 -->
<g id="edge3" class="edge">
<title>Node0&#45;&gt;Node3</title>
<path fill="none" stroke="midnightblue" d="M518.57,-402.58C518.49,-466.46 528.17,-612.62 613,-685.5 675.66,-739.33 774.99,-741.94 840.83,-736.3"/>
<polygon fill="midnightblue" stroke="midnightblue" points="522.07,-402.38 518.66,-392.35 515.07,-402.31 522.07,-402.38"/>
</g>
<!-- Node11 -->
<g id="node12" class="node">
<title>Node11</title>
<g id="a_node12"><a xlink:href="class_fifty_one_1_1_pipeline_1_1_core_1_1_flow_elements_1_1_flow_element_base.html" target="_top" xlink:title=" ">
<polygon fill="none" stroke="black" points="827,-629.5 827,-681.5 991,-681.5 991,-629.5 827,-629.5"/>
<text text-anchor="start" x="835" y="-669.5" font-family="Helvetica,sans-Serif" font-size="10.00">FiftyOne.Pipeline.Core.Flow</text>
<text text-anchor="start" x="835" y="-658.5" font-family="Helvetica,sans-Serif" font-size="10.00">Elements.FlowElementBase</text>
<text text-anchor="start" x="835" y="-647.5" font-family="Helvetica,sans-Serif" font-size="10.00">&lt; IJsonBuilderElementData,</text>
<text text-anchor="middle" x="909" y="-636.5" font-family="Helvetica,sans-Serif" font-size="10.00"> IElementPropertyMetaData &gt;</text>
</a>
</g>
</g>
<!-- Node0&#45;&gt;Node11 -->
<g id="edge11" class="edge">
<title>Node0&#45;&gt;Node11</title>
<path fill="none" stroke="orange" stroke-dasharray="5,2" d="M522.14,-402.43C528.3,-453.92 548.44,-556.66 613,-608.5 672.85,-656.55 762.1,-664.75 826.75,-663.12"/>
<polygon fill="orange" stroke="orange" points="525.59,-401.82 521.03,-392.26 518.64,-402.58 525.59,-401.82"/>
<text text-anchor="start" x="626" y="-676.5" font-family="Helvetica,sans-Serif" font-size="10.00"> &lt; IJsonBuilderElementData,</text>
<text text-anchor="middle" x="700" y="-665.5" font-family="Helvetica,sans-Serif" font-size="10.00"> IElementPropertyMetaData &gt;</text>
</g>
<!-- Node13 -->
<g id="node14" class="node">
<title>Node13</title>
<g id="a_node14"><a xlink:href="class_fifty_one_1_1_pipeline_1_1_core_1_1_flow_elements_1_1_flow_element_base.html" target="_top" xlink:title=" ">
<polygon fill="none" stroke="black" points="812,-558.5 812,-610.5 1006,-610.5 1006,-558.5 812,-558.5"/>
<text text-anchor="start" x="820" y="-598.5" font-family="Helvetica,sans-Serif" font-size="10.00">FiftyOne.Pipeline.Core.Flow</text>
<text text-anchor="start" x="820" y="-587.5" font-family="Helvetica,sans-Serif" font-size="10.00">Elements.FlowElementBase</text>
<text text-anchor="start" x="820" y="-576.5" font-family="Helvetica,sans-Serif" font-size="10.00">&lt; IMathData, IElementPropertyMeta</text>
<text text-anchor="middle" x="909" y="-565.5" font-family="Helvetica,sans-Serif" font-size="10.00">Data &gt;</text>
</a>
</g>
</g>
<!-- Node0&#45;&gt;Node13 -->
<g id="edge13" class="edge">
<title>Node0&#45;&gt;Node13</title>
<path fill="none" stroke="orange" stroke-dasharray="5,2" d="M529.31,-402.01C542.45,-437.73 569.31,-495.89 613,-526.5 670.93,-567.08 750.18,-580.95 811.95,-585.02"/>
<polygon fill="orange" stroke="orange" points="532.45,-400.39 525.82,-392.13 525.85,-402.73 532.45,-400.39"/>
<text text-anchor="start" x="621.5" y="-596.5" font-family="Helvetica,sans-Serif" font-size="10.00"> &lt; IMathData, IElementProperty</text>
<text text-anchor="middle" x="700" y="-585.5" font-family="Helvetica,sans-Serif" font-size="10.00">MetaData &gt;</text>
</g>
<!-- Node15 -->
<g id="node16" class="node">
<title>Node15</title>
<g id="a_node16"><a xlink:href="class_fifty_one_1_1_pipeline_1_1_core_1_1_flow_elements_1_1_flow_element_base.html" target="_top" xlink:title=" ">
<polygon fill="none" stroke="black" points="810.5,-487.5 810.5,-539.5 1007.5,-539.5 1007.5,-487.5 810.5,-487.5"/>
<text text-anchor="start" x="818.5" y="-527.5" font-family="Helvetica,sans-Serif" font-size="10.00">FiftyOne.Pipeline.Core.Flow</text>
<text text-anchor="start" x="818.5" y="-516.5" font-family="Helvetica,sans-Serif" font-size="10.00">Elements.FlowElementBase</text>
<text text-anchor="start" x="818.5" y="-505.5" font-family="Helvetica,sans-Serif" font-size="10.00">&lt; CookieData, ElementPropertyMeta</text>
<text text-anchor="middle" x="909" y="-494.5" font-family="Helvetica,sans-Serif" font-size="10.00">Data &gt;</text>
</a>
</g>
</g>
<!-- Node0&#45;&gt;Node15 -->
<g id="edge15" class="edge">
<title>Node0&#45;&gt;Node15</title>
<path fill="none" stroke="orange" stroke-dasharray="5,2" d="M544.83,-399.44C562.31,-417.01 587,-438.7 613,-451.5 674.74,-481.89 750.89,-497.42 810.36,-505.34"/>
<polygon fill="orange" stroke="orange" points="547.28,-396.94 537.8,-392.2 542.26,-401.81 547.28,-396.94"/>
<text text-anchor="start" x="620" y="-514.5" font-family="Helvetica,sans-Serif" font-size="10.00"> &lt; CookieData, ElementProperty</text>
<text text-anchor="middle" x="700" y="-503.5" font-family="Helvetica,sans-Serif" font-size="10.00">MetaData &gt;</text>
</g>
<!-- Node16 -->
<g id="node17" class="node">
<title>Node16</title>
<g id="a_node17"><a xlink:href="class_fifty_one_1_1_pipeline_1_1_core_1_1_flow_elements_1_1_flow_element_base.html" target="_top" xlink:title=" ">
<polygon fill="none" stroke="black" points="816.5,-416.5 816.5,-468.5 1001.5,-468.5 1001.5,-416.5 816.5,-416.5"/>
<text text-anchor="start" x="824.5" y="-456.5" font-family="Helvetica,sans-Serif" font-size="10.00">FiftyOne.Pipeline.Core.Flow</text>
<text text-anchor="start" x="824.5" y="-445.5" font-family="Helvetica,sans-Serif" font-size="10.00">Elements.FlowElementBase</text>
<text text-anchor="start" x="824.5" y="-434.5" font-family="Helvetica,sans-Serif" font-size="10.00">&lt; IElementData, IElementProperty</text>
<text text-anchor="middle" x="909" y="-423.5" font-family="Helvetica,sans-Serif" font-size="10.00">MetaData &gt;</text>
</a>
</g>
</g>
<!-- Node0&#45;&gt;Node16 -->
<g id="edge16" class="edge">
<title>Node0&#45;&gt;Node16</title>
<path fill="none" stroke="orange" stroke-dasharray="5,2" d="M599.63,-394.45C604.14,-395.54 608.62,-396.56 613,-397.5 680.63,-412.01 757.94,-423.62 816.45,-431.41"/>
<polygon fill="orange" stroke="orange" points="600.28,-391.01 589.73,-392 598.6,-397.8 600.28,-391.01"/>
<text text-anchor="start" x="634.5" y="-439.5" font-family="Helvetica,sans-Serif" font-size="10.00"> &lt; IElementData, IElement</text>
<text text-anchor="middle" x="700" y="-428.5" font-family="Helvetica,sans-Serif" font-size="10.00">PropertyMetaData &gt;</text>
</g>
<!-- Node21 -->
<g id="node22" class="node">
<title>Node21</title>
<g id="a_node22"><a xlink:href="class_fifty_one_1_1_pipeline_1_1_core_1_1_flow_elements_1_1_flow_element_base.html" target="_top" xlink:title=" ">
<polygon fill="none" stroke="black" points="818.5,-345.5 818.5,-397.5 999.5,-397.5 999.5,-345.5 818.5,-345.5"/>
<text text-anchor="start" x="826.5" y="-385.5" font-family="Helvetica,sans-Serif" font-size="10.00">FiftyOne.Pipeline.Core.Flow</text>
<text text-anchor="start" x="826.5" y="-374.5" font-family="Helvetica,sans-Serif" font-size="10.00">Elements.FlowElementBase</text>
<text text-anchor="start" x="826.5" y="-363.5" font-family="Helvetica,sans-Serif" font-size="10.00">&lt; IJavaScriptBuilderElementData,</text>
<text text-anchor="middle" x="909" y="-352.5" font-family="Helvetica,sans-Serif" font-size="10.00"> IElementPropertyMetaData &gt;</text>
</a>
</g>
</g>
<!-- Node0&#45;&gt;Node21 -->
<g id="edge21" class="edge">
<title>Node0&#45;&gt;Node21</title>
<path fill="none" stroke="orange" stroke-dasharray="5,2" d="M605.67,-371.5C668.85,-371.5 754.42,-371.5 818.39,-371.5"/>
<polygon fill="orange" stroke="orange" points="605.33,-368 595.33,-371.5 605.33,-375 605.33,-368"/>
<text text-anchor="start" x="613" y="-385.5" font-family="Helvetica,sans-Serif" font-size="10.00"> &lt; IJavaScriptBuilderElement</text>
<text text-anchor="middle" x="700" y="-374.5" font-family="Helvetica,sans-Serif" font-size="10.00">Data, IElementPropertyMetaData &gt;</text>
</g>
<!-- Node23 -->
<g id="node24" class="node">
<title>Node23</title>
<g id="a_node24"><a xlink:href="class_fifty_one_1_1_pipeline_1_1_core_1_1_flow_elements_1_1_flow_element_base.html" target="_top" xlink:title=" ">
<polygon fill="none" stroke="black" points="808.5,-274.5 808.5,-326.5 1009.5,-326.5 1009.5,-274.5 808.5,-274.5"/>
<text text-anchor="start" x="816.5" y="-314.5" font-family="Helvetica,sans-Serif" font-size="10.00">FiftyOne.Pipeline.Core.Flow</text>
<text text-anchor="start" x="816.5" y="-303.5" font-family="Helvetica,sans-Serif" font-size="10.00">Elements.FlowElementBase</text>
<text text-anchor="start" x="816.5" y="-292.5" font-family="Helvetica,sans-Serif" font-size="10.00">&lt; ISetHeadersData, IElementProperty</text>
<text text-anchor="middle" x="909" y="-281.5" font-family="Helvetica,sans-Serif" font-size="10.00">MetaData &gt;</text>
</a>
</g>
</g>
<!-- Node0&#45;&gt;Node23 -->
<g id="edge23" class="edge">
<title>Node0&#45;&gt;Node23</title>
<path fill="none" stroke="orange" stroke-dasharray="5,2" d="M599.63,-348.55C604.14,-347.46 608.62,-346.44 613,-345.5 677.59,-331.65 751.01,-320.43 808.45,-312.66"/>
<polygon fill="orange" stroke="orange" points="598.6,-345.2 589.73,-351 600.28,-351.99 598.6,-345.2"/>
<text text-anchor="start" x="626" y="-359.5" font-family="Helvetica,sans-Serif" font-size="10.00"> &lt; ISetHeadersData,</text>
<text text-anchor="middle" x="700" y="-348.5" font-family="Helvetica,sans-Serif" font-size="10.00"> IElementPropertyMetaData &gt;</text>
</g>
<!-- Node25 -->
<g id="node26" class="node">
<title>Node25</title>
<g id="a_node26"><a xlink:href="class_fifty_one_1_1_pipeline_1_1_core_1_1_flow_elements_1_1_flow_element_base.html" target="_top" xlink:title=" ">
<polygon fill="none" stroke="black" points="816.5,-203.5 816.5,-255.5 1001.5,-255.5 1001.5,-203.5 816.5,-203.5"/>
<text text-anchor="start" x="824.5" y="-243.5" font-family="Helvetica,sans-Serif" font-size="10.00">FiftyOne.Pipeline.Core.Flow</text>
<text text-anchor="start" x="824.5" y="-232.5" font-family="Helvetica,sans-Serif" font-size="10.00">Elements.FlowElementBase</text>
<text text-anchor="start" x="824.5" y="-221.5" font-family="Helvetica,sans-Serif" font-size="10.00">&lt; IStarSignData, IElementProperty</text>
<text text-anchor="middle" x="909" y="-210.5" font-family="Helvetica,sans-Serif" font-size="10.00">MetaData &gt;</text>
</a>
</g>
</g>
<!-- Node0&#45;&gt;Node25 -->
<g id="edge25" class="edge">
<title>Node0&#45;&gt;Node25</title>
<path fill="none" stroke="orange" stroke-dasharray="5,2" d="M544.83,-343.56C562.31,-325.99 587,-304.3 613,-291.5 676.86,-260.06 756.12,-244.53 816.4,-236.88"/>
<polygon fill="orange" stroke="orange" points="542.26,-341.19 537.8,-350.8 547.28,-346.06 542.26,-341.19"/>
<text text-anchor="start" x="634.5" y="-305.5" font-family="Helvetica,sans-Serif" font-size="10.00"> &lt; IStarSignData, IElement</text>
<text text-anchor="middle" x="700" y="-294.5" font-family="Helvetica,sans-Serif" font-size="10.00">PropertyMetaData &gt;</text>
</g>
<!-- Node28 -->
<g id="node29" class="node">
<title>Node28</title>
<g id="a_node29"><a xlink:href="class_fifty_one_1_1_pipeline_1_1_core_1_1_flow_elements_1_1_flow_element_base.html" target="_top" xlink:title=" ">
<polygon fill="none" stroke="black" points="817,-143 817,-184 1001,-184 1001,-143 817,-143"/>
<text text-anchor="start" x="825" y="-172" font-family="Helvetica,sans-Serif" font-size="10.00">FiftyOne.Pipeline.Core.Flow</text>
<text text-anchor="start" x="825" y="-161" font-family="Helvetica,sans-Serif" font-size="10.00">Elements.FlowElementBase</text>
<text text-anchor="middle" x="909" y="-150" font-family="Helvetica,sans-Serif" font-size="10.00">&lt; T, IElementPropertyMetaData &gt;</text>
</a>
</g>
</g>
<!-- Node0&#45;&gt;Node28 -->
<g id="edge28" class="edge">
<title>Node0&#45;&gt;Node28</title>
<path fill="none" stroke="orange" stroke-dasharray="5,2" d="M529.06,-341.33C542.05,-305.53 568.87,-246.88 613,-216.5 672.58,-175.49 754.43,-163.39 816.8,-160.89"/>
<polygon fill="orange" stroke="orange" points="525.75,-340.18 525.76,-350.78 532.36,-342.49 525.75,-340.18"/>
<text text-anchor="start" x="632" y="-230.5" font-family="Helvetica,sans-Serif" font-size="10.00"> &lt; T, IElementPropertyMeta</text>
<text text-anchor="middle" x="700" y="-219.5" font-family="Helvetica,sans-Serif" font-size="10.00">Data &gt;</text>
</g>
<!-- Node32 -->
<g id="node33" class="node">
<title>Node32</title>
<g id="a_node33"><a xlink:href="class_fifty_one_1_1_pipeline_1_1_core_1_1_flow_elements_1_1_flow_element_base.html" target="_top" xlink:title=" ">
<polygon fill="none" stroke="black" points="821,-71.5 821,-123.5 997,-123.5 997,-71.5 821,-71.5"/>
<text text-anchor="start" x="829" y="-111.5" font-family="Helvetica,sans-Serif" font-size="10.00">FiftyOne.Pipeline.Core.Flow</text>
<text text-anchor="start" x="829" y="-100.5" font-family="Helvetica,sans-Serif" font-size="10.00">Elements.FlowElementBase</text>
<text text-anchor="start" x="829" y="-89.5" font-family="Helvetica,sans-Serif" font-size="10.00">&lt; ISplitIpData, IElementProperty</text>
<text text-anchor="middle" x="909" y="-78.5" font-family="Helvetica,sans-Serif" font-size="10.00">MetaData &gt;</text>
</a>
</g>
</g>
<!-- Node0&#45;&gt;Node32 -->
<g id="edge32" class="edge">
<title>Node0&#45;&gt;Node32</title>
<path fill="none" stroke="orange" stroke-dasharray="5,2" d="M522.14,-340.79C528.3,-289.69 548.44,-187.88 613,-137.5 671.37,-91.95 756.78,-84.85 820.7,-87.43"/>
<polygon fill="orange" stroke="orange" points="518.65,-340.56 521.03,-350.88 525.6,-341.33 518.65,-340.56"/>
<text text-anchor="start" x="639.5" y="-151.5" font-family="Helvetica,sans-Serif" font-size="10.00"> &lt; ISplitIpData, IElement</text>
<text text-anchor="middle" x="700" y="-140.5" font-family="Helvetica,sans-Serif" font-size="10.00">PropertyMetaData &gt;</text>
</g>
<!-- Node34 -->
<g id="node35" class="node">
<title>Node34</title>
<g id="a_node35"><a xlink:href="class_fifty_one_1_1_pipeline_1_1_core_1_1_flow_elements_1_1_flow_element_base.html" target="_top" xlink:title=" ">
<polygon fill="none" stroke="black" points="805,-0.5 805,-52.5 1013,-52.5 1013,-0.5 805,-0.5"/>
<text text-anchor="start" x="813" y="-40.5" font-family="Helvetica,sans-Serif" font-size="10.00">FiftyOne.Pipeline.Core.Flow</text>
<text text-anchor="start" x="813" y="-29.5" font-family="Helvetica,sans-Serif" font-size="10.00">Elements.FlowElementBase</text>
<text text-anchor="start" x="813" y="-18.5" font-family="Helvetica,sans-Serif" font-size="10.00">&lt; EvidenceCopyData, ElementProperty</text>
<text text-anchor="middle" x="909" y="-7.5" font-family="Helvetica,sans-Serif" font-size="10.00">MetaData &gt;</text>
</a>
</g>
</g>
<!-- Node0&#45;&gt;Node34 -->
<g id="edge34" class="edge">
<title>Node0&#45;&gt;Node34</title>
<path fill="none" stroke="orange" stroke-dasharray="5,2" d="M518.59,-340.67C518.56,-277.33 528.32,-132.53 613,-61.5 665.36,-17.58 742.54,-9.75 804.83,-12.41"/>
<polygon fill="orange" stroke="orange" points="515.09,-340.85 518.68,-350.82 522.09,-340.79 515.09,-340.85"/>
<text text-anchor="start" x="627.5" y="-75.5" font-family="Helvetica,sans-Serif" font-size="10.00"> &lt; EvidenceCopyData,</text>
<text text-anchor="middle" x="700" y="-64.5" font-family="Helvetica,sans-Serif" font-size="10.00"> ElementPropertyMetaData &gt;</text>
</g>
<!-- Node1 -->
<g id="node2" class="node">
<title>Node1</title>
<g id="a_node2"><a xlink:href="interface_fifty_one_1_1_pipeline_1_1_core_1_1_flow_elements_1_1_i_flow_element.html" target="_top" xlink:title=" ">
<polygon fill="none" stroke="black" points="256,-362 256,-381 405,-381 405,-362 256,-362"/>
<text text-anchor="middle" x="330.5" y="-369" font-family="Helvetica,sans-Serif" font-size="10.00">IFlowElement&lt; T, TMeta &gt;</text>
</a>
</g>
</g>
<!-- Node1&#45;&gt;Node0 -->
<g id="edge1" class="edge">
<title>Node1&#45;&gt;Node0</title>
<path fill="none" stroke="midnightblue" d="M415.3,-371.5C424.12,-371.5 433.05,-371.5 441.78,-371.5"/>
<polygon fill="midnightblue" stroke="midnightblue" points="415.01,-368 405.01,-371.5 415.01,-375 415.01,-368"/>
</g>
<!-- Node2 -->
<g id="node3" class="node">
<title>Node2</title>
<g id="a_node3"><a xlink:href="interface_fifty_one_1_1_pipeline_1_1_core_1_1_flow_elements_1_1_i_flow_element.html" target="_top" xlink:title="IFlowElement is the basic building block of a pipeline.">
<polygon fill="none" stroke="black" points="0,-356.5 0,-386.5 151,-386.5 151,-356.5 0,-356.5"/>
<text text-anchor="start" x="8" y="-374.5" font-family="Helvetica,sans-Serif" font-size="10.00">FiftyOne.Pipeline.Core.Flow</text>
<text text-anchor="middle" x="75.5" y="-363.5" font-family="Helvetica,sans-Serif" font-size="10.00">Elements.IFlowElement</text>
</a>
</g>
</g>
<!-- Node2&#45;&gt;Node1 -->
<g id="edge2" class="edge">
<title>Node2&#45;&gt;Node1</title>
<path fill="none" stroke="orange" stroke-dasharray="5,2" d="M161.29,-371.5C191.95,-371.5 226.3,-371.5 255.93,-371.5"/>
<polygon fill="orange" stroke="orange" points="161.04,-368 151.04,-371.5 161.04,-375 161.04,-368"/>
<text text-anchor="middle" x="203.5" y="-374.5" font-family="Helvetica,sans-Serif" font-size="10.00"> &lt; T, TMeta &gt;</text>
</g>
<!-- Node4 -->
<g id="node5" class="node">
<title>Node4</title>
<g id="a_node5"><a xlink:href="class_fifty_one_1_1_pipeline_1_1_engines_1_1_flow_elements_1_1_on_premise_aspect_engine_base.html" target="_top" xlink:title="Base class for 51Degrees on&#45;premise aspect engines.">
<polygon fill="none" stroke="black" points="1080.5,-700.5 1080.5,-752.5 1246.5,-752.5 1246.5,-700.5 1080.5,-700.5"/>
<text text-anchor="start" x="1088.5" y="-740.5" font-family="Helvetica,sans-Serif" font-size="10.00">FiftyOne::Pipeline</text>
<text text-anchor="start" x="1088.5" y="-729.5" font-family="Helvetica,sans-Serif" font-size="10.00">::Engines::FlowElements</text>
<text text-anchor="start" x="1088.5" y="-718.5" font-family="Helvetica,sans-Serif" font-size="10.00">::OnPremiseAspectEngineBase</text>
<text text-anchor="middle" x="1163.5" y="-707.5" font-family="Helvetica,sans-Serif" font-size="10.00">&lt; T, TMeta &gt;</text>
</a>
</g>
</g>
<!-- Node3&#45;&gt;Node4 -->
<g id="edge4" class="edge">
<title>Node3&#45;&gt;Node4</title>
<path fill="none" stroke="midnightblue" d="M987.24,-726.5C1016.7,-726.5 1050.38,-726.5 1080.3,-726.5"/>
<polygon fill="midnightblue" stroke="midnightblue" points="987,-723 977,-726.5 987,-730 987,-723"/>
</g>
<!-- Node5 -->
<g id="node6" class="node">
<title>Node5</title>
<g id="a_node6"><a xlink:href="class_fifty_one_1_1_pipeline_1_1_engines_1_1_flow_elements_1_1_on_premise_aspect_engine_base.html" target="_top" xlink:title=" ">
<polygon fill="none" stroke="black" points="1459.5,-766 1459.5,-807 1720.5,-807 1720.5,-766 1459.5,-766"/>
<text text-anchor="start" x="1467.5" y="-795" font-family="Helvetica,sans-Serif" font-size="10.00">FiftyOne.Pipeline.Engines.</text>
<text text-anchor="start" x="1467.5" y="-784" font-family="Helvetica,sans-Serif" font-size="10.00">FlowElements.OnPremiseAspectEngine</text>
<text text-anchor="middle" x="1590" y="-773" font-family="Helvetica,sans-Serif" font-size="10.00">Base&lt; IStarSignData, IAspectPropertyMetaData &gt;</text>
</a>
</g>
</g>
<!-- Node4&#45;&gt;Node5 -->
<g id="edge5" class="edge">
<title>Node4&#45;&gt;Node5</title>
<path fill="none" stroke="orange" stroke-dasharray="5,2" d="M1256.98,-745.89C1269.72,-748.28 1282.66,-750.56 1295,-752.5 1348.55,-760.92 1407.89,-768.17 1459.16,-773.79"/>
<polygon fill="orange" stroke="orange" points="1257.29,-742.39 1246.81,-743.96 1255.98,-749.27 1257.29,-742.39"/>
<text text-anchor="start" x="1305.5" y="-785.5" font-family="Helvetica,sans-Serif" font-size="10.00"> &lt; IStarSignData, IAspect</text>
<text text-anchor="middle" x="1367.5" y="-774.5" font-family="Helvetica,sans-Serif" font-size="10.00">PropertyMetaData &gt;</text>
</g>
<!-- Node7 -->
<g id="node8" class="node">
<title>Node7</title>
<g id="a_node8"><a xlink:href="class_fifty_one_1_1_pipeline_1_1_engines_1_1_flow_elements_1_1_on_premise_aspect_engine_base.html" target="_top" xlink:title=" ">
<polygon fill="none" stroke="black" points="1458,-706 1458,-747 1722,-747 1722,-706 1458,-706"/>
<text text-anchor="start" x="1466" y="-735" font-family="Helvetica,sans-Serif" font-size="10.00">FiftyOne.Pipeline.Engines.</text>
<text text-anchor="start" x="1466" y="-724" font-family="Helvetica,sans-Serif" font-size="10.00">FlowElements.OnPremiseAspectEngine</text>
<text text-anchor="middle" x="1590" y="-713" font-family="Helvetica,sans-Serif" font-size="10.00">Base&lt; TData, IFiftyOneAspectPropertyMetaData &gt;</text>
</a>
</g>
</g>
<!-- Node4&#45;&gt;Node7 -->
<g id="edge7" class="edge">
<title>Node4&#45;&gt;Node7</title>
<path fill="none" stroke="orange" stroke-dasharray="5,2" d="M1256.62,-726.5C1315.47,-726.5 1392.68,-726.5 1457.87,-726.5"/>
<polygon fill="orange" stroke="orange" points="1256.6,-723 1246.6,-726.5 1256.6,-730 1256.6,-723"/>
<text text-anchor="start" x="1304" y="-740.5" font-family="Helvetica,sans-Serif" font-size="10.00"> &lt; TData, IFiftyOneAspect</text>
<text text-anchor="middle" x="1367.5" y="-729.5" font-family="Helvetica,sans-Serif" font-size="10.00">PropertyMetaData &gt;</text>
</g>
<!-- Node9 -->
<g id="node10" class="node">
<title>Node9</title>
<g id="a_node10"><a xlink:href="class_fifty_one_1_1_pipeline_1_1_engines_1_1_flow_elements_1_1_on_premise_aspect_engine_base.html" target="_top" xlink:title=" ">
<polygon fill="none" stroke="black" points="1469.5,-646 1469.5,-687 1710.5,-687 1710.5,-646 1469.5,-646"/>
<text text-anchor="start" x="1477.5" y="-675" font-family="Helvetica,sans-Serif" font-size="10.00">FiftyOne.Pipeline.Engines.</text>
<text text-anchor="start" x="1477.5" y="-664" font-family="Helvetica,sans-Serif" font-size="10.00">FlowElements.OnPremiseAspectEngine</text>
<text text-anchor="middle" x="1590" y="-653" font-family="Helvetica,sans-Serif" font-size="10.00">Base&lt; T, IFiftyOneAspectPropertyMetaData &gt;</text>
</a>
</g>
</g>
<!-- Node4&#45;&gt;Node9 -->
<g id="edge9" class="edge">
<title>Node4&#45;&gt;Node9</title>
<path fill="none" stroke="orange" stroke-dasharray="5,2" d="M1256.98,-707.11C1269.72,-704.72 1282.66,-702.44 1295,-700.5 1352.1,-691.52 1415.8,-683.87 1469.26,-678.11"/>
<polygon fill="orange" stroke="orange" points="1255.98,-703.73 1246.81,-709.04 1257.29,-710.61 1255.98,-703.73"/>
<text text-anchor="start" x="1295" y="-714.5" font-family="Helvetica,sans-Serif" font-size="10.00"> &lt; T, IFiftyOneAspectProperty</text>
<text text-anchor="middle" x="1367.5" y="-703.5" font-family="Helvetica,sans-Serif" font-size="10.00">MetaData &gt;</text>
</g>
<!-- Node6 -->
<g id="node7" class="node">
<title>Node6</title>
<g id="a_node7"><a xlink:href="class_examples_1_1_on_premise_engine_1_1_flow_elements_1_1_simple_on_premise_engine.html" target="_top" xlink:title="[class] [constructor]">
<polygon fill="none" stroke="black" points="1759,-771.5 1759,-801.5 1968,-801.5 1968,-771.5 1759,-771.5"/>
<text text-anchor="start" x="1767" y="-789.5" font-family="Helvetica,sans-Serif" font-size="10.00">Examples.OnPremiseEngine.</text>
<text text-anchor="middle" x="1863.5" y="-778.5" font-family="Helvetica,sans-Serif" font-size="10.00">FlowElements.SimpleOnPremiseEngine</text>
</a>
</g>
</g>
<!-- Node5&#45;&gt;Node6 -->
<g id="edge6" class="edge">
<title>Node5&#45;&gt;Node6</title>
<path fill="none" stroke="midnightblue" d="M1731,-786.5C1740.42,-786.5 1749.81,-786.5 1758.99,-786.5"/>
<polygon fill="midnightblue" stroke="midnightblue" points="1730.79,-783 1720.79,-786.5 1730.79,-790 1730.79,-783"/>
</g>
<!-- Node8 -->
<g id="node9" class="node">
<title>Node8</title>
<g id="a_node9"><a xlink:href="class_fifty_one_1_1_pipeline_1_1_engines_1_1_fifty_one_1_1_flow_elements_1_1_property_keyed_engine.html" target="_top" xlink:title="Base class for engines that use an index of property values to profile ids to populate one or more pr...">
<polygon fill="none" stroke="black" points="1776.5,-706 1776.5,-747 1950.5,-747 1950.5,-706 1776.5,-706"/>
<text text-anchor="start" x="1784.5" y="-735" font-family="Helvetica,sans-Serif" font-size="10.00">FiftyOne.Pipeline.Engines.</text>
<text text-anchor="start" x="1784.5" y="-724" font-family="Helvetica,sans-Serif" font-size="10.00">FiftyOne.FlowElements.Property</text>
<text text-anchor="middle" x="1863.5" y="-713" font-family="Helvetica,sans-Serif" font-size="10.00">KeyedEngine&lt; TData, TProfile &gt;</text>
</a>
</g>
</g>
<!-- Node7&#45;&gt;Node8 -->
<g id="edge8" class="edge">
<title>Node7&#45;&gt;Node8</title>
<path fill="none" stroke="midnightblue" d="M1732.66,-726.5C1747.5,-726.5 1762.24,-726.5 1776.19,-726.5"/>
<polygon fill="midnightblue" stroke="midnightblue" points="1732.38,-723 1722.38,-726.5 1732.38,-730 1732.38,-723"/>
</g>
<!-- Node10 -->
<g id="node11" class="node">
<title>Node10</title>
<g id="a_node11"><a xlink:href="class_fifty_one_1_1_pipeline_1_1_engines_1_1_fifty_one_1_1_flow_elements_1_1_fifty_one_on_premise_aspect_engine_base.html" target="_top" xlink:title="51Degrees specific Engine base class.">
<polygon fill="none" stroke="black" points="1769.5,-646 1769.5,-687 1957.5,-687 1957.5,-646 1769.5,-646"/>
<text text-anchor="start" x="1777.5" y="-675" font-family="Helvetica,sans-Serif" font-size="10.00">FiftyOne.Pipeline.Engines.</text>
<text text-anchor="start" x="1777.5" y="-664" font-family="Helvetica,sans-Serif" font-size="10.00">FiftyOne.FlowElements.FiftyOne</text>
<text text-anchor="middle" x="1863.5" y="-653" font-family="Helvetica,sans-Serif" font-size="10.00">OnPremiseAspectEngineBase&lt; T &gt;</text>
</a>
</g>
</g>
<!-- Node9&#45;&gt;Node10 -->
<g id="edge10" class="edge">
<title>Node9&#45;&gt;Node10</title>
<path fill="none" stroke="midnightblue" d="M1721.01,-666.5C1737.33,-666.5 1753.77,-666.5 1769.36,-666.5"/>
<polygon fill="midnightblue" stroke="midnightblue" points="1720.87,-663 1710.87,-666.5 1720.87,-670 1720.87,-663"/>
</g>
<!-- Node12 -->
<g id="node13" class="node">
<title>Node12</title>
<g id="a_node13"><a xlink:href="class_fifty_one_1_1_pipeline_1_1_json_builder_1_1_flow_element_1_1_json_builder_element.html" target="_top" xlink:title="The JsonBuilderElement takes accessible properties and adds the property key:values to the Json objec...">
<polygon fill="none" stroke="black" points="1074,-640.5 1074,-670.5 1253,-670.5 1253,-640.5 1074,-640.5"/>
<text text-anchor="start" x="1082" y="-658.5" font-family="Helvetica,sans-Serif" font-size="10.00">FiftyOne.Pipeline.JsonBuilder.</text>
<text text-anchor="middle" x="1163.5" y="-647.5" font-family="Helvetica,sans-Serif" font-size="10.00">FlowElement.JsonBuilderElement</text>
</a>
</g>
</g>
<!-- Node11&#45;&gt;Node12 -->
<g id="edge12" class="edge">
<title>Node11&#45;&gt;Node12</title>
<path fill="none" stroke="midnightblue" d="M1001.31,-655.5C1024.97,-655.5 1050.42,-655.5 1073.95,-655.5"/>
<polygon fill="midnightblue" stroke="midnightblue" points="1001.28,-652 991.28,-655.5 1001.28,-659 1001.28,-652"/>
</g>
<!-- Node14 -->
<g id="node15" class="node">
<title>Node14</title>
<g id="a_node15"><a xlink:href="class_fifty_one_1_1_pipeline_1_1_math_1_1_math_element.html" target="_top" xlink:title=" ">
<polygon fill="none" stroke="black" points="1086,-569.5 1086,-599.5 1241,-599.5 1241,-569.5 1086,-569.5"/>
<text text-anchor="start" x="1094" y="-587.5" font-family="Helvetica,sans-Serif" font-size="10.00">FiftyOne.Pipeline.Math.Math</text>
<text text-anchor="middle" x="1163.5" y="-576.5" font-family="Helvetica,sans-Serif" font-size="10.00">Element</text>
</a>
</g>
</g>
<!-- Node13&#45;&gt;Node14 -->
<g id="edge14" class="edge">
<title>Node13&#45;&gt;Node14</title>
<path fill="none" stroke="midnightblue" d="M1016.45,-584.5C1039.74,-584.5 1063.95,-584.5 1085.81,-584.5"/>
<polygon fill="midnightblue" stroke="midnightblue" points="1016.18,-581 1006.18,-584.5 1016.18,-588 1016.18,-581"/>
</g>
<!-- Node17 -->
<g id="node18" class="node">
<title>Node17</title>
<g id="a_node18"><a xlink:href="class_fifty_one_1_1_pipeline_1_1_core_1_1_flow_elements_1_1_parallel_elements.html" target="_top" xlink:title="ParallelElements executes it&#39;s child IFlowElement objects in parallel.">
<polygon fill="none" stroke="black" points="1088,-517.5 1088,-547.5 1239,-547.5 1239,-517.5 1088,-517.5"/>
<text text-anchor="start" x="1096" y="-535.5" font-family="Helvetica,sans-Serif" font-size="10.00">FiftyOne.Pipeline.Core.Flow</text>
<text text-anchor="middle" x="1163.5" y="-524.5" font-family="Helvetica,sans-Serif" font-size="10.00">Elements.ParallelElements</text>
</a>
</g>
</g>
<!-- Node16&#45;&gt;Node17 -->
<g id="edge17" class="edge">
<title>Node16&#45;&gt;Node17</title>
<path fill="none" stroke="midnightblue" d="M1001.72,-472.75C1005.58,-474.59 1009.35,-476.51 1013,-478.5 1031.33,-488.53 1031.11,-498.57 1050,-507.5 1061.76,-513.06 1074.8,-517.41 1087.71,-520.8"/>
<polygon fill="midnightblue" stroke="midnightblue" points="1003.14,-469.55 992.59,-468.61 1000.24,-475.93 1003.14,-469.55"/>
</g>
<!-- Node18 -->
<g id="node19" class="node">
<title>Node18</title>
<g id="a_node19"><a xlink:href="class_fifty_one_1_1_pipeline_1_1_engines_1_1_fifty_one_1_1_flow_elements_1_1_sequence_element.html" target="_top" xlink:title="Sequence element establishes session and sequence evidence in the pipeline.">
<polygon fill="none" stroke="black" points="1074,-457 1074,-498 1253,-498 1253,-457 1074,-457"/>
<text text-anchor="start" x="1082" y="-486" font-family="Helvetica,sans-Serif" font-size="10.00">FiftyOne.Pipeline.Engines.</text>
<text text-anchor="start" x="1082" y="-475" font-family="Helvetica,sans-Serif" font-size="10.00">FiftyOne.FlowElements.Sequence</text>
<text text-anchor="middle" x="1163.5" y="-464" font-family="Helvetica,sans-Serif" font-size="10.00">Element</text>
</a>
</g>
</g>
<!-- Node16&#45;&gt;Node18 -->
<g id="edge18" class="edge">
<title>Node16&#45;&gt;Node18</title>
<path fill="none" stroke="midnightblue" d="M1011.55,-456.58C1032.17,-459.43 1053.7,-462.42 1073.83,-465.21"/>
<polygon fill="midnightblue" stroke="midnightblue" points="1011.9,-453.09 1001.52,-455.19 1010.94,-460.03 1011.9,-453.09"/>
</g>
<!-- Node19 -->
<g id="node20" class="node">
<title>Node19</title>
<g id="a_node20"><a xlink:href="class_fifty_one_1_1_pipeline_1_1_engines_1_1_fifty_one_1_1_flow_elements_1_1_share_usage_base.html" target="_top" xlink:title="Abstract base class for ShareUsage elements.">
<polygon fill="none" stroke="black" points="1056,-407.5 1056,-437.5 1271,-437.5 1271,-407.5 1056,-407.5"/>
<text text-anchor="start" x="1064" y="-425.5" font-family="Helvetica,sans-Serif" font-size="10.00">FiftyOne.Pipeline.Engines.</text>
<text text-anchor="middle" x="1163.5" y="-414.5" font-family="Helvetica,sans-Serif" font-size="10.00">FiftyOne.FlowElements.ShareUsageBase</text>
</a>
</g>
</g>
<!-- Node16&#45;&gt;Node19 -->
<g id="edge19" class="edge">
<title>Node16&#45;&gt;Node19</title>
<path fill="none" stroke="midnightblue" d="M1011.53,-434.46C1026.12,-433.3 1041.17,-432.11 1055.85,-430.95"/>
<polygon fill="midnightblue" stroke="midnightblue" points="1011.21,-430.97 1001.52,-435.25 1011.76,-437.95 1011.21,-430.97"/>
</g>
<!-- Node20 -->
<g id="node21" class="node">
<title>Node20</title>
<g id="a_node21"><a xlink:href="class_fifty_one_1_1_pipeline_1_1_engines_1_1_fifty_one_1_1_flow_elements_1_1_share_usage_element.html" target="_top" xlink:title="Flow element that sends usage data to 51Degrees for analysis.">
<polygon fill="none" stroke="black" points="1494.5,-402 1494.5,-443 1685.5,-443 1685.5,-402 1494.5,-402"/>
<text text-anchor="start" x="1502.5" y="-431" font-family="Helvetica,sans-Serif" font-size="10.00">FiftyOne.Pipeline.Engines.</text>
<text text-anchor="start" x="1502.5" y="-420" font-family="Helvetica,sans-Serif" font-size="10.00">FiftyOne.FlowElements.ShareUsage</text>
<text text-anchor="middle" x="1590" y="-409" font-family="Helvetica,sans-Serif" font-size="10.00">Element</text>
</a>
</g>
</g>
<!-- Node19&#45;&gt;Node20 -->
<g id="edge20" class="edge">
<title>Node19&#45;&gt;Node20</title>
<path fill="none" stroke="midnightblue" d="M1281.26,-422.5C1348.3,-422.5 1431.39,-422.5 1494.33,-422.5"/>
<polygon fill="midnightblue" stroke="midnightblue" points="1281.07,-419 1271.07,-422.5 1281.07,-426 1281.07,-419"/>
</g>
<!-- Node22 -->
<g id="node23" class="node">
<title>Node22</title>
<g id="a_node23"><a xlink:href="class_fifty_one_1_1_pipeline_1_1_java_script_builder_1_1_flow_element_1_1_java_script_builder_element.html" target="_top" xlink:title="JavaScript Builder Element generates a JavaScript include to be run on the client device.">
<polygon fill="none" stroke="black" points="1062,-347 1062,-388 1265,-388 1265,-347 1062,-347"/>
<text text-anchor="start" x="1070" y="-376" font-family="Helvetica,sans-Serif" font-size="10.00">FiftyOne.Pipeline.JavaScript</text>
<text text-anchor="start" x="1070" y="-365" font-family="Helvetica,sans-Serif" font-size="10.00">Builder.FlowElement.JavaScriptBuilder</text>
<text text-anchor="middle" x="1163.5" y="-354" font-family="Helvetica,sans-Serif" font-size="10.00">Element</text>
</a>
</g>
</g>
<!-- Node21&#45;&gt;Node22 -->
<g id="edge22" class="edge">
<title>Node21&#45;&gt;Node22</title>
<path fill="none" stroke="midnightblue" d="M1009.74,-369.92C1026.89,-369.65 1044.71,-369.37 1061.88,-369.09"/>
<polygon fill="midnightblue" stroke="midnightblue" points="1009.68,-366.42 999.73,-370.08 1009.79,-373.42 1009.68,-366.42"/>
</g>
<!-- Node24 -->
<g id="node25" class="node">
<title>Node24</title>
<g id="a_node25"><a xlink:href="class_fifty_one_1_1_pipeline_1_1_engines_1_1_fifty_one_1_1_flow_elements_1_1_set_headers_element.html" target="_top" xlink:title="This element is used to determine the values for HTTP headers that other elements in the pipeline wan...">
<polygon fill="none" stroke="black" points="1069.5,-282 1069.5,-323 1257.5,-323 1257.5,-282 1069.5,-282"/>
<text text-anchor="start" x="1077.5" y="-311" font-family="Helvetica,sans-Serif" font-size="10.00">FiftyOne.Pipeline.Engines.</text>
<text text-anchor="start" x="1077.5" y="-300" font-family="Helvetica,sans-Serif" font-size="10.00">FiftyOne.FlowElements.SetHeaders</text>
<text text-anchor="middle" x="1163.5" y="-289" font-family="Helvetica,sans-Serif" font-size="10.00">Element</text>
</a>
</g>
</g>
<!-- Node23&#45;&gt;Node24 -->
<g id="edge24" class="edge">
<title>Node23&#45;&gt;Node24</title>
<path fill="none" stroke="midnightblue" d="M1019.96,-301.37C1036.37,-301.5 1053.16,-301.63 1069.18,-301.76"/>
<polygon fill="midnightblue" stroke="midnightblue" points="1019.82,-297.87 1009.79,-301.29 1019.77,-304.87 1019.82,-297.87"/>
</g>
<!-- Node26 -->
<g id="node27" class="node">
<title>Node26</title>
<g id="a_node27"><a xlink:href="class_examples_1_1_client_side_evidence_1_1_shared_1_1_simple_client_side_element.html" target="_top" xlink:title="[class] [constructor]">
<polygon fill="none" stroke="black" points="1075,-232.5 1075,-262.5 1252,-262.5 1252,-232.5 1075,-232.5"/>
<text text-anchor="start" x="1083" y="-250.5" font-family="Helvetica,sans-Serif" font-size="10.00">Examples.ClientSideEvidence.</text>
<text text-anchor="middle" x="1163.5" y="-239.5" font-family="Helvetica,sans-Serif" font-size="10.00">Shared.SimpleClientSideElement</text>
</a>
</g>
</g>
<!-- Node25&#45;&gt;Node26 -->
<g id="edge26" class="edge">
<title>Node25&#45;&gt;Node26</title>
<path fill="none" stroke="midnightblue" d="M1011.67,-236.75C1032.54,-238.24 1054.34,-239.79 1074.67,-241.24"/>
<polygon fill="midnightblue" stroke="midnightblue" points="1011.74,-233.24 1001.52,-236.02 1011.24,-240.23 1011.74,-233.24"/>
</g>
<!-- Node27 -->
<g id="node28" class="node">
<title>Node27</title>
<g id="a_node28"><a xlink:href="class_examples_1_1_custom_flow_element_1_1_flow_elements_1_1_simple_flow_element.html" target="_top" xlink:title="[class] [constructor]">
<polygon fill="none" stroke="black" points="1070.5,-183.5 1070.5,-213.5 1256.5,-213.5 1256.5,-183.5 1070.5,-183.5"/>
<text text-anchor="start" x="1078.5" y="-201.5" font-family="Helvetica,sans-Serif" font-size="10.00">Examples.CustomFlowElement.</text>
<text text-anchor="middle" x="1163.5" y="-190.5" font-family="Helvetica,sans-Serif" font-size="10.00">FlowElements.SimpleFlowElement</text>
</a>
</g>
</g>
<!-- Node25&#45;&gt;Node27 -->
<g id="edge27" class="edge">
<title>Node25&#45;&gt;Node27</title>
<path fill="none" stroke="midnightblue" d="M1011.6,-217.03C1031.05,-214.64 1051.32,-212.15 1070.45,-209.8"/>
<polygon fill="midnightblue" stroke="midnightblue" points="1011.01,-213.57 1001.52,-218.26 1011.87,-220.52 1011.01,-213.57"/>
</g>
<!-- Node29 -->
<g id="node30" class="node">
<title>Node29</title>
<g id="a_node30"><a xlink:href="class_fifty_one_1_1_pipeline_1_1_translation_1_1_flow_elements_1_1_translation_engine_base.html" target="_top" xlink:title="Flow element that translates values from a single source element and stores translated values under i...">
<polygon fill="none" stroke="black" points="1050,-134.5 1050,-164.5 1277,-164.5 1277,-134.5 1050,-134.5"/>
<text text-anchor="start" x="1058" y="-152.5" font-family="Helvetica,sans-Serif" font-size="10.00">FiftyOne.Pipeline.Translation.</text>
<text text-anchor="middle" x="1163.5" y="-141.5" font-family="Helvetica,sans-Serif" font-size="10.00">FlowElements.TranslationEngineBase&lt; T &gt;</text>
</a>
</g>
</g>
<!-- Node28&#45;&gt;Node29 -->
<g id="edge29" class="edge">
<title>Node28&#45;&gt;Node29</title>
<path fill="none" stroke="midnightblue" d="M1011.27,-157.89C1023.98,-157.18 1037.04,-156.46 1049.91,-155.74"/>
<polygon fill="midnightblue" stroke="midnightblue" points="1010.95,-154.4 1001.16,-158.45 1011.34,-161.39 1010.95,-154.4"/>
</g>
<!-- Node30 -->
<g id="node31" class="node">
<title>Node30</title>
<g id="a_node31"><a xlink:href="class_fifty_one_1_1_pipeline_1_1_translation_1_1_flow_elements_1_1_translation_engine_base.html" target="_top" xlink:title=" ">
<polygon fill="none" stroke="black" points="1490.5,-129 1490.5,-170 1689.5,-170 1689.5,-129 1490.5,-129"/>
<text text-anchor="start" x="1498.5" y="-158" font-family="Helvetica,sans-Serif" font-size="10.00">FiftyOne.Pipeline.Translation.</text>
<text text-anchor="start" x="1498.5" y="-147" font-family="Helvetica,sans-Serif" font-size="10.00">FlowElements.TranslationEngineBase</text>
<text text-anchor="middle" x="1590" y="-136" font-family="Helvetica,sans-Serif" font-size="10.00">&lt; ITranslationData &gt;</text>
</a>
</g>
</g>
<!-- Node29&#45;&gt;Node30 -->
<g id="edge30" class="edge">
<title>Node29&#45;&gt;Node30</title>
<path fill="none" stroke="orange" stroke-dasharray="5,2" d="M1287.37,-149.5C1351.85,-149.5 1429.8,-149.5 1490.3,-149.5"/>
<polygon fill="orange" stroke="orange" points="1287.14,-146 1277.14,-149.5 1287.14,-153 1287.14,-146"/>
<text text-anchor="middle" x="1367.5" y="-152.5" font-family="Helvetica,sans-Serif" font-size="10.00"> &lt; ITranslationData &gt;</text>
</g>
<!-- Node31 -->
<g id="node32" class="node">
<title>Node31</title>
<g id="a_node32"><a xlink:href="class_fifty_one_1_1_pipeline_1_1_translation_1_1_flow_elements_1_1_translation_engine.html" target="_top" xlink:title=" ">
<polygon fill="none" stroke="black" points="1776,-134.5 1776,-164.5 1951,-164.5 1951,-134.5 1776,-134.5"/>
<text text-anchor="start" x="1784" y="-152.5" font-family="Helvetica,sans-Serif" font-size="10.00">FiftyOne.Pipeline.Translation.</text>
<text text-anchor="middle" x="1863.5" y="-141.5" font-family="Helvetica,sans-Serif" font-size="10.00">FlowElements.TranslationEngine</text>
</a>
</g>
</g>
<!-- Node30&#45;&gt;Node31 -->
<g id="edge31" class="edge">
<title>Node30&#45;&gt;Node31</title>
<path fill="none" stroke="midnightblue" d="M1699.79,-149.5C1725.09,-149.5 1751.7,-149.5 1775.9,-149.5"/>
<polygon fill="midnightblue" stroke="midnightblue" points="1699.79,-146 1689.79,-149.5 1699.79,-153 1699.79,-146"/>
</g>
<!-- Node33 -->
<g id="node34" class="node">
<title>Node33</title>
<g id="a_node34"><a xlink:href="class_fifty_one_1_1_pipeline_1_1_ip_splitter_1_1_ip_splitter_element.html" target="_top" xlink:title=" ">
<polygon fill="none" stroke="black" points="1089,-82.5 1089,-112.5 1238,-112.5 1238,-82.5 1089,-82.5"/>
<text text-anchor="start" x="1097" y="-100.5" font-family="Helvetica,sans-Serif" font-size="10.00">FiftyOne.Pipeline.IpSplitter.</text>
<text text-anchor="middle" x="1163.5" y="-89.5" font-family="Helvetica,sans-Serif" font-size="10.00">IpSplitterElement</text>
</a>
</g>
</g>
<!-- Node32&#45;&gt;Node33 -->
<g id="edge33" class="edge">
<title>Node32&#45;&gt;Node33</title>
<path fill="none" stroke="midnightblue" d="M1007.49,-97.5C1034.46,-97.5 1063.29,-97.5 1088.68,-97.5"/>
<polygon fill="midnightblue" stroke="midnightblue" points="1007.25,-94 997.25,-97.5 1007.25,-101 1007.25,-94"/>
</g>
<!-- Node35 -->
<g id="node36" class="node">
<title>Node35</title>
<g id="a_node36"><a xlink:href="class_evidence_copy_element.html" target="_top" xlink:title="Element that just copies the evidence into its element data.">
<polygon fill="none" stroke="black" points="1100.5,-17 1100.5,-36 1226.5,-36 1226.5,-17 1100.5,-17"/>
<text text-anchor="middle" x="1163.5" y="-24" font-family="Helvetica,sans-Serif" font-size="10.00">EvidenceCopyElement</text>
</a>
</g>
</g>
<!-- Node34&#45;&gt;Node35 -->
<g id="edge35" class="edge">
<title>Node34&#45;&gt;Node35</title>
<path fill="none" stroke="midnightblue" d="M1023.18,-26.5C1049.7,-26.5 1076.99,-26.5 1100.31,-26.5"/>
<polygon fill="midnightblue" stroke="midnightblue" points="1023.07,-23 1013.07,-26.5 1023.07,-30 1023.07,-23"/>
</g>
</g>
</svg>
