<?xml version="1.0" encoding="UTF-8" standalone="no"?>
<!DOCTYPE svg PUBLIC "-//W3C//DTD SVG 1.1//EN"
 "http://www.w3.org/Graphics/SVG/1.1/DTD/svg11.dtd">
<!-- Generated by graphviz version 2.43.0 (0)
 -->
<!-- Title: FiftyOne.Pipeline.Translation.FlowElements.TranslationEngineBase&lt; T &gt; Pages: 1 -->
<svg width="1293pt" height="95pt"
 viewBox="0.00 0.00 1293.00 94.50" xmlns="http://www.w3.org/2000/svg" xmlns:xlink="http://www.w3.org/1999/xlink">
<g id="graph0" class="graph" transform="scale(1 1) rotate(0) translate(4 90.5)">
<title>FiftyOne.Pipeline.Translation.FlowElements.TranslationEngineBase&lt; T &gt;</title>
<!-- Node7 -->
<g id="node1" class="node">
<title>Node7</title>
<g id="a_node1"><a xlink:title="Flow element that translates values from a single source element and stores translated values under i...">
<polygon fill="#bfbfbf" stroke="black" points="1058,-13.5 1058,-43.5 1285,-43.5 1285,-13.5 1058,-13.5"/>
<text text-anchor="start" x="1066" y="-31.5" font-family="Helvetica,sans-Serif" font-size="10.00">FiftyOne.Pipeline.Translation.</text>
<text text-anchor="middle" x="1171.5" y="-20.5" font-family="Helvetica,sans-Serif" font-size="10.00">FlowElements.TranslationEngineBase&lt; T &gt;</text>
</a>
</g>
</g>
<!-- Node8 -->
<g id="node2" class="node">
<title>Node8</title>
<g id="a_node2"><a xlink:href="class_fifty_one_1_1_pipeline_1_1_core_1_1_flow_elements_1_1_flow_element_base.html" target="_top" xlink:title=" ">
<polygon fill="none" stroke="black" points="767,-49.5 767,-79.5 931,-79.5 931,-49.5 767,-49.5"/>
<text text-anchor="start" x="775" y="-67.5" font-family="Helvetica,sans-Serif" font-size="10.00">FlowElementBase&lt; T,</text>
<text text-anchor="middle" x="849" y="-56.5" font-family="Helvetica,sans-Serif" font-size="10.00"> IElementPropertyMetaData &gt;</text>
</a>
</g>
</g>
<!-- Node8&#45;&gt;Node7 -->
<g id="edge1" class="edge">
<title>Node8&#45;&gt;Node7</title>
<path fill="none" stroke="midnightblue" d="M941.36,-54.24C977.63,-50.16 1019.71,-45.44 1057.84,-41.15"/>
<polygon fill="midnightblue" stroke="midnightblue" points="940.84,-50.77 931.29,-55.37 941.62,-57.73 940.84,-50.77"/>
</g>
<!-- Node9 -->
<g id="node3" class="node">
<title>Node9</title>
<g id="a_node3"><a xlink:href="class_fifty_one_1_1_pipeline_1_1_core_1_1_flow_elements_1_1_flow_element_base.html" target="_top" xlink:title="Abstract base class for Flow Elements.">
<polygon fill="none" stroke="black" points="442,-44 442,-85 595,-85 595,-44 442,-44"/>
<text text-anchor="start" x="450" y="-73" font-family="Helvetica,sans-Serif" font-size="10.00">FiftyOne.Pipeline.Core.Flow</text>
<text text-anchor="start" x="450" y="-62" font-family="Helvetica,sans-Serif" font-size="10.00">Elements.FlowElementBase</text>
<text text-anchor="middle" x="518.5" y="-51" font-family="Helvetica,sans-Serif" font-size="10.00">&lt; T, TMeta &gt;</text>
</a>
</g>
</g>
<!-- Node9&#45;&gt;Node8 -->
<g id="edge2" class="edge">
<title>Node9&#45;&gt;Node8</title>
<path fill="none" stroke="orange" stroke-dasharray="5,2" d="M605.4,-64.5C655.3,-64.5 717.8,-64.5 766.86,-64.5"/>
<polygon fill="orange" stroke="orange" points="605.28,-61 595.28,-64.5 605.28,-68 605.28,-61"/>
<text text-anchor="start" x="613" y="-78.5" font-family="Helvetica,sans-Serif" font-size="10.00"> &lt; T, IElementPropertyMeta</text>
<text text-anchor="middle" x="681" y="-67.5" font-family="Helvetica,sans-Serif" font-size="10.00">Data &gt;</text>
</g>
<!-- Node10 -->
<g id="node4" class="node">
<title>Node10</title>
<g id="a_node4"><a xlink:href="interface_fifty_one_1_1_pipeline_1_1_core_1_1_flow_elements_1_1_i_flow_element.html" target="_top" xlink:title=" ">
<polygon fill="none" stroke="black" points="256,-55 256,-74 405,-74 405,-55 256,-55"/>
<text text-anchor="middle" x="330.5" y="-62" font-family="Helvetica,sans-Serif" font-size="10.00">IFlowElement&lt; T, TMeta &gt;</text>
</a>
</g>
</g>
<!-- Node10&#45;&gt;Node9 -->
<g id="edge3" class="edge">
<title>Node10&#45;&gt;Node9</title>
<path fill="none" stroke="midnightblue" d="M415.3,-64.5C424.12,-64.5 433.05,-64.5 441.78,-64.5"/>
<polygon fill="midnightblue" stroke="midnightblue" points="415.01,-61 405.01,-64.5 415.01,-68 415.01,-61"/>
</g>
<!-- Node11 -->
<g id="node5" class="node">
<title>Node11</title>
<g id="a_node5"><a xlink:href="interface_fifty_one_1_1_pipeline_1_1_core_1_1_flow_elements_1_1_i_flow_element.html" target="_top" xlink:title="IFlowElement is the basic building block of a pipeline.">
<polygon fill="none" stroke="black" points="0,-49.5 0,-79.5 151,-79.5 151,-49.5 0,-49.5"/>
<text text-anchor="start" x="8" y="-67.5" font-family="Helvetica,sans-Serif" font-size="10.00">FiftyOne.Pipeline.Core.Flow</text>
<text text-anchor="middle" x="75.5" y="-56.5" font-family="Helvetica,sans-Serif" font-size="10.00">Elements.IFlowElement</text>
</a>
</g>
</g>
<!-- Node11&#45;&gt;Node10 -->
<g id="edge4" class="edge">
<title>Node11&#45;&gt;Node10</title>
<path fill="none" stroke="orange" stroke-dasharray="5,2" d="M161.29,-64.5C191.95,-64.5 226.3,-64.5 255.93,-64.5"/>
<polygon fill="orange" stroke="orange" points="161.04,-61 151.04,-64.5 161.04,-68 161.04,-61"/>
<text text-anchor="middle" x="203.5" y="-67.5" font-family="Helvetica,sans-Serif" font-size="10.00"> &lt; T, TMeta &gt;</text>
</g>
<!-- Node12 -->
<g id="node6" class="node">
<title>Node12</title>
<g id="a_node6"><a xlink:href="interface_fifty_one_1_1_pipeline_1_1_core_1_1_data_1_1_i_evidence_key_filter.html" target="_top" xlink:title="Represents an object that filters evidence key names based on some criteria.">
<polygon fill="none" stroke="black" points="772,-0.5 772,-30.5 926,-30.5 926,-0.5 772,-0.5"/>
<text text-anchor="start" x="780" y="-18.5" font-family="Helvetica,sans-Serif" font-size="10.00">FiftyOne.Pipeline.Core.Data.</text>
<text text-anchor="middle" x="849" y="-7.5" font-family="Helvetica,sans-Serif" font-size="10.00">IEvidenceKeyFilter</text>
</a>
</g>
</g>
<!-- Node12&#45;&gt;Node7 -->
<g id="edge5" class="edge">
<title>Node12&#45;&gt;Node7</title>
<path fill="none" stroke="#9a32cd" stroke-dasharray="5,2" d="M936.68,-19.02C973.93,-20.53 1017.95,-22.31 1057.7,-23.92"/>
<polygon fill="#9a32cd" stroke="#9a32cd" points="936.49,-15.51 926.36,-18.6 936.21,-22.5 936.49,-15.51"/>
<text text-anchor="middle" x="994.5" y="-26.5" font-family="Helvetica,sans-Serif" font-size="10.00"> EvidenceKeyFilter</text>
</g>
</g>
</svg>
