<?xml version="1.0" encoding="UTF-8" standalone="no"?>
<!DOCTYPE svg PUBLIC "-//W3C//DTD SVG 1.1//EN"
 "http://www.w3.org/Graphics/SVG/1.1/DTD/svg11.dtd">
<!-- Generated by graphviz version 2.43.0 (0)
 -->
<!-- Title: FiftyOne.Pipeline.Engines.FiftyOne.Data.ValueMetaDataDefault Pages: 1 -->
<svg width="892pt" height="279pt"
 viewBox="0.00 0.00 892.00 279.00" xmlns="http://www.w3.org/2000/svg" xmlns:xlink="http://www.w3.org/1999/xlink">
<g id="graph0" class="graph" transform="scale(1 1) rotate(0) translate(4 275)">
<title>FiftyOne.Pipeline.Engines.FiftyOne.Data.ValueMetaDataDefault</title>
<!-- Node5 -->
<g id="node1" class="node">
<title>Node5</title>
<g id="a_node1"><a xlink:title="Data class that contains meta&#45;data relating to a specific value.">
<polygon fill="#bfbfbf" stroke="black" points="687,-130 687,-160 884,-160 884,-130 687,-130"/>
<text text-anchor="start" x="695" y="-148" font-family="Helvetica,sans-Serif" font-size="10.00">FiftyOne.Pipeline.Engines.</text>
<text text-anchor="middle" x="785.5" y="-137" font-family="Helvetica,sans-Serif" font-size="10.00">FiftyOne.Data.ValueMetaDataDefault</text>
</a>
</g>
</g>
<!-- Node6 -->
<g id="node2" class="node">
<title>Node6</title>
<g id="a_node2"><a xlink:href="interface_fifty_one_1_1_pipeline_1_1_engines_1_1_fifty_one_1_1_data_1_1_i_value_meta_data.html" target="_top" xlink:title="Meta data relating to a specific value within a data set.">
<polygon fill="none" stroke="black" points="456.5,-200.5 456.5,-219.5 551.5,-219.5 551.5,-200.5 456.5,-200.5"/>
<text text-anchor="middle" x="504" y="-207.5" font-family="Helvetica,sans-Serif" font-size="10.00">IValueMetaData</text>
</a>
</g>
</g>
<!-- Node6&#45;&gt;Node5 -->
<g id="edge1" class="edge">
<title>Node6&#45;&gt;Node5</title>
<path fill="none" stroke="midnightblue" d="M555.71,-198.21C601.76,-187.5 669.92,-171.65 719.87,-160.03"/>
<polygon fill="midnightblue" stroke="midnightblue" points="554.89,-194.8 545.94,-200.48 556.47,-201.62 554.89,-194.8"/>
</g>
<!-- Node7 -->
<g id="node3" class="node">
<title>Node7</title>
<g id="a_node3"><a xlink:title=" ">
<polygon fill="none" stroke="#bfbfbf" points="191,-251.5 191,-270.5 360,-270.5 360,-251.5 191,-251.5"/>
<text text-anchor="middle" x="275.5" y="-258.5" font-family="Helvetica,sans-Serif" font-size="10.00">IEquatable&lt; IValueMetaData &gt;</text>
</a>
</g>
</g>
<!-- Node7&#45;&gt;Node6 -->
<g id="edge2" class="edge">
<title>Node7&#45;&gt;Node6</title>
<path fill="none" stroke="midnightblue" d="M331.56,-249.33C342.64,-246.94 354.2,-244.41 365,-242 397.88,-234.66 435.09,-226.01 462.58,-219.56"/>
<polygon fill="midnightblue" stroke="midnightblue" points="330.59,-245.95 321.55,-251.48 332.07,-252.8 330.59,-245.95"/>
</g>
<!-- Node8 -->
<g id="node4" class="node">
<title>Node8</title>
<g id="a_node4"><a xlink:title=" ">
<polygon fill="none" stroke="#bfbfbf" points="186,-213.5 186,-232.5 365,-232.5 365,-213.5 186,-213.5"/>
<text text-anchor="middle" x="275.5" y="-220.5" font-family="Helvetica,sans-Serif" font-size="10.00">IComparable&lt; IValueMetaData &gt;</text>
</a>
</g>
</g>
<!-- Node8&#45;&gt;Node6 -->
<g id="edge3" class="edge">
<title>Node8&#45;&gt;Node6</title>
<path fill="none" stroke="midnightblue" d="M375.34,-217.33C403.48,-215.71 432.83,-214.03 456.28,-212.68"/>
<polygon fill="midnightblue" stroke="midnightblue" points="374.83,-213.85 365.04,-217.92 375.23,-220.84 374.83,-213.85"/>
</g>
<!-- Node9 -->
<g id="node5" class="node">
<title>Node9</title>
<g id="a_node5"><a xlink:title=" ">
<polygon fill="none" stroke="#bfbfbf" points="238.5,-175.5 238.5,-194.5 312.5,-194.5 312.5,-175.5 238.5,-175.5"/>
<text text-anchor="middle" x="275.5" y="-182.5" font-family="Helvetica,sans-Serif" font-size="10.00">IDisposable</text>
</a>
</g>
</g>
<!-- Node9&#45;&gt;Node6 -->
<g id="edge4" class="edge">
<title>Node9&#45;&gt;Node6</title>
<path fill="none" stroke="midnightblue" d="M322.67,-190.1C361.68,-194.4 417.27,-200.54 456.39,-204.86"/>
<polygon fill="midnightblue" stroke="midnightblue" points="322.96,-186.61 312.64,-188.99 322.2,-193.57 322.96,-186.61"/>
</g>
<!-- Node10 -->
<g id="node6" class="node">
<title>Node10</title>
<g id="a_node6"><a xlink:href="interface_fifty_one_1_1_pipeline_1_1_engines_1_1_fifty_one_1_1_data_1_1_i_fifty_one_aspect_property_meta_data.html" target="_top" xlink:title="51Degrees specific meta data.">
<polygon fill="none" stroke="black" points="402,-99.5 402,-140.5 606,-140.5 606,-99.5 402,-99.5"/>
<text text-anchor="start" x="410" y="-128.5" font-family="Helvetica,sans-Serif" font-size="10.00">FiftyOne.Pipeline.Engines.</text>
<text text-anchor="start" x="410" y="-117.5" font-family="Helvetica,sans-Serif" font-size="10.00">FiftyOne.Data.IFiftyOneAspectProperty</text>
<text text-anchor="middle" x="504" y="-106.5" font-family="Helvetica,sans-Serif" font-size="10.00">MetaData</text>
</a>
</g>
</g>
<!-- Node9&#45;&gt;Node10 -->
<g id="edge11" class="edge">
<title>Node9&#45;&gt;Node10</title>
<path fill="none" stroke="midnightblue" d="M323.01,-176.02C336.62,-173.12 351.47,-169.7 365,-166 391.92,-158.65 421.31,-149.07 446.03,-140.56"/>
<polygon fill="midnightblue" stroke="midnightblue" points="321.96,-172.66 312.89,-178.13 323.39,-179.52 321.96,-172.66"/>
</g>
<!-- Node10&#45;&gt;Node5 -->
<g id="edge5" class="edge">
<title>Node10&#45;&gt;Node5</title>
<path fill="none" stroke="#9a32cd" stroke-dasharray="5,2" d="M616.54,-129.98C639.78,-132.06 664.11,-134.23 686.81,-136.26"/>
<polygon fill="#9a32cd" stroke="#9a32cd" points="616.57,-126.47 606.3,-129.06 615.95,-133.44 616.57,-126.47"/>
<text text-anchor="middle" x="646.5" y="-136" font-family="Helvetica,sans-Serif" font-size="10.00"> Property</text>
</g>
<!-- Node11 -->
<g id="node7" class="node">
<title>Node11</title>
<g id="a_node7"><a xlink:href="interface_fifty_one_1_1_pipeline_1_1_engines_1_1_data_1_1_i_aspect_property_meta_data.html" target="_top" xlink:title="Represents meta&#45;data relating to a property that is populated by an IAspectEngine instance.">
<polygon fill="none" stroke="black" points="204.5,-137.5 204.5,-156.5 346.5,-156.5 346.5,-137.5 204.5,-137.5"/>
<text text-anchor="middle" x="275.5" y="-144.5" font-family="Helvetica,sans-Serif" font-size="10.00">IAspectPropertyMetaData</text>
</a>
</g>
</g>
<!-- Node11&#45;&gt;Node10 -->
<g id="edge6" class="edge">
<title>Node11&#45;&gt;Node10</title>
<path fill="none" stroke="midnightblue" d="M356.56,-137.46C371.14,-135.72 386.52,-133.89 401.61,-132.09"/>
<polygon fill="midnightblue" stroke="midnightblue" points="356.13,-133.98 346.61,-138.64 356.96,-140.93 356.13,-133.98"/>
</g>
<!-- Node12 -->
<g id="node8" class="node">
<title>Node12</title>
<g id="a_node8"><a xlink:href="interface_fifty_one_1_1_pipeline_1_1_core_1_1_data_1_1_i_element_property_meta_data.html" target="_top" xlink:title="Represents meta&#45;data relating to a property that is populated by a IFlowElement instance.">
<polygon fill="none" stroke="black" points="0,-137.5 0,-156.5 149,-156.5 149,-137.5 0,-137.5"/>
<text text-anchor="middle" x="74.5" y="-144.5" font-family="Helvetica,sans-Serif" font-size="10.00">IElementPropertyMetaData</text>
</a>
</g>
</g>
<!-- Node12&#45;&gt;Node11 -->
<g id="edge7" class="edge">
<title>Node12&#45;&gt;Node11</title>
<path fill="none" stroke="midnightblue" d="M159.3,-147C174.26,-147 189.71,-147 204.24,-147"/>
<polygon fill="midnightblue" stroke="midnightblue" points="159.03,-143.5 149.03,-147 159.03,-150.5 159.03,-143.5"/>
</g>
<!-- Node13 -->
<g id="node9" class="node">
<title>Node13</title>
<g id="a_node9"><a xlink:title=" ">
<polygon fill="none" stroke="#bfbfbf" points="197.5,-88 197.5,-118 353.5,-118 353.5,-88 197.5,-88"/>
<text text-anchor="start" x="205.5" y="-106" font-family="Helvetica,sans-Serif" font-size="10.00">IEquatable&lt; IFiftyOneAspect</text>
<text text-anchor="middle" x="275.5" y="-95" font-family="Helvetica,sans-Serif" font-size="10.00">PropertyMetaData &gt;</text>
</a>
</g>
</g>
<!-- Node13&#45;&gt;Node10 -->
<g id="edge8" class="edge">
<title>Node13&#45;&gt;Node10</title>
<path fill="none" stroke="midnightblue" d="M364.04,-109.57C376.34,-110.49 389.07,-111.45 401.6,-112.39"/>
<polygon fill="midnightblue" stroke="midnightblue" points="364.05,-106.06 353.81,-108.8 363.52,-113.04 364.05,-106.06"/>
</g>
<!-- Node14 -->
<g id="node10" class="node">
<title>Node14</title>
<g id="a_node10"><a xlink:title=" ">
<polygon fill="none" stroke="#bfbfbf" points="192,-39 192,-69 359,-69 359,-39 192,-39"/>
<text text-anchor="start" x="200" y="-57" font-family="Helvetica,sans-Serif" font-size="10.00">IComparable&lt; IFiftyOneAspect</text>
<text text-anchor="middle" x="275.5" y="-46" font-family="Helvetica,sans-Serif" font-size="10.00">PropertyMetaData &gt;</text>
</a>
</g>
</g>
<!-- Node14&#45;&gt;Node10 -->
<g id="edge9" class="edge">
<title>Node14&#45;&gt;Node10</title>
<path fill="none" stroke="midnightblue" d="M340.11,-71.86C348.49,-74.24 356.95,-76.67 365,-79 387.69,-85.57 412.43,-92.88 434.62,-99.48"/>
<polygon fill="midnightblue" stroke="midnightblue" points="340.93,-68.45 330.35,-69.09 339.02,-75.19 340.93,-68.45"/>
</g>
<!-- Node15 -->
<g id="node11" class="node">
<title>Node15</title>
<g id="a_node11"><a xlink:title=" ">
<polygon fill="none" stroke="#bfbfbf" points="216,-0.5 216,-19.5 335,-19.5 335,-0.5 216,-0.5"/>
<text text-anchor="middle" x="275.5" y="-7.5" font-family="Helvetica,sans-Serif" font-size="10.00">IEquatable&lt; string &gt;</text>
</a>
</g>
</g>
<!-- Node15&#45;&gt;Node10 -->
<g id="edge10" class="edge">
<title>Node15&#45;&gt;Node10</title>
<path fill="none" stroke="midnightblue" d="M345.09,-22.05C351.93,-24.04 358.67,-26.35 365,-29 407.87,-46.99 451.75,-78.65 478.19,-99.48"/>
<polygon fill="midnightblue" stroke="midnightblue" points="345.62,-18.57 335.05,-19.35 343.8,-25.33 345.62,-18.57"/>
</g>
</g>
</svg>
