<?xml version="1.0" encoding="UTF-8" standalone="no"?>
<!DOCTYPE svg PUBLIC "-//W3C//DTD SVG 1.1//EN"
 "http://www.w3.org/Graphics/SVG/1.1/DTD/svg11.dtd">
<!-- Generated by graphviz version 2.43.0 (0)
 -->
<!-- Title: FiftyOne.Pipeline.Engines.FlowElements.AspectEngineBase&lt; T, TMeta &gt; Pages: 1 -->
<svg width="872pt" height="108pt"
 viewBox="0.00 0.00 872.00 108.00" xmlns="http://www.w3.org/2000/svg" xmlns:xlink="http://www.w3.org/1999/xlink">
<g id="graph0" class="graph" transform="scale(1 1) rotate(0) translate(4 104)">
<title>FiftyOne.Pipeline.Engines.FlowElements.AspectEngineBase&lt; T, TMeta &gt;</title>
<!-- Node1 -->
<g id="Node000001" class="node">
<title>Node1</title>
<g id="a_Node000001"><a xlink:title="Base class for 51Degrees aspect engines.">
<polygon fill="#999999" stroke="#666666" points="864,-70 685,-70 685,-29 864,-29 864,-70"/>
<text text-anchor="start" x="693" y="-58" font-family="Helvetica,sans-Serif" font-size="10.00">FiftyOne.Pipeline.Engines.</text>
<text text-anchor="start" x="693" y="-47" font-family="Helvetica,sans-Serif" font-size="10.00">FlowElements.AspectEngineBase</text>
<text text-anchor="middle" x="774.5" y="-36" font-family="Helvetica,sans-Serif" font-size="10.00">&lt; T, TMeta &gt;</text>
</a>
</g>
</g>
<!-- Node2 -->
<g id="Node000002" class="node">
<title>Node2</title>
<g id="a_Node000002"><a xlink:href="class_fifty_one_1_1_pipeline_1_1_core_1_1_flow_elements_1_1_flow_element_base-2-g.html" target="_top" xlink:title="Abstract base class for Flow Elements.">
<polygon fill="white" stroke="#666666" points="646.5,-100 493.5,-100 493.5,-59 646.5,-59 646.5,-100"/>
<text text-anchor="start" x="501.5" y="-88" font-family="Helvetica,sans-Serif" font-size="10.00">FiftyOne.Pipeline.Core.Flow</text>
<text text-anchor="start" x="501.5" y="-77" font-family="Helvetica,sans-Serif" font-size="10.00">Elements.FlowElementBase</text>
<text text-anchor="middle" x="570" y="-66" font-family="Helvetica,sans-Serif" font-size="10.00">&lt; T, TMeta &gt;</text>
</a>
</g>
</g>
<!-- Node2&#45;&gt;Node1 -->
<g id="edge1_Node000001_Node000002" class="edge">
<title>Node2&#45;&gt;Node1</title>
<g id="a_edge1_Node000001_Node000002"><a xlink:title=" ">
<path fill="none" stroke="#63b8ff" d="M656.73,-66.8C666.06,-65.42 675.57,-64.01 684.93,-62.62"/>
<polygon fill="#63b8ff" stroke="#63b8ff" points="656.07,-63.36 646.69,-68.29 657.1,-70.28 656.07,-63.36"/>
</a>
</g>
</g>
<!-- Node3 -->
<g id="Node000003" class="node">
<title>Node3</title>
<g id="a_Node000003"><a xlink:href="interface_fifty_one_1_1_pipeline_1_1_core_1_1_flow_elements_1_1_i_flow_element-2-g.html" target="_top" xlink:title="Generic interface that extends IFlowElement with the ability to return a ITypedKey&lt;T&gt; that will allow...">
<polygon fill="white" stroke="#666666" points="452,-95 300,-95 300,-54 452,-54 452,-95"/>
<text text-anchor="start" x="308" y="-83" font-family="Helvetica,sans-Serif" font-size="10.00">FiftyOne.Pipeline.Core.Flow</text>
<text text-anchor="start" x="308" y="-72" font-family="Helvetica,sans-Serif" font-size="10.00">Elements.IFlowElement&lt; T,</text>
<text text-anchor="middle" x="376" y="-61" font-family="Helvetica,sans-Serif" font-size="10.00"> TMeta &gt;</text>
</a>
</g>
</g>
<!-- Node3&#45;&gt;Node2 -->
<g id="edge2_Node000002_Node000003" class="edge">
<title>Node3&#45;&gt;Node2</title>
<g id="a_edge2_Node000002_Node000003"><a xlink:title=" ">
<path fill="none" stroke="#63b8ff" d="M462.32,-76.72C472.67,-76.99 483.18,-77.26 493.36,-77.53"/>
<polygon fill="#63b8ff" stroke="#63b8ff" points="462.14,-73.22 452.06,-76.45 461.96,-80.21 462.14,-73.22"/>
</a>
</g>
</g>
<!-- Node6 -->
<g id="Node000006" class="node">
<title>Node6</title>
<g id="a_Node000006"><a xlink:href="interface_fifty_one_1_1_pipeline_1_1_engines_1_1_flow_elements_1_1_i_aspect_engine-2-g.html" target="_top" xlink:title="Interface representing 51Degrees on&#45;premise aspect engines.">
<polygon fill="white" stroke="#666666" points="649,-41 491,-41 491,0 649,0 649,-41"/>
<text text-anchor="start" x="499" y="-29" font-family="Helvetica,sans-Serif" font-size="10.00">FiftyOne.Pipeline.Engines.</text>
<text text-anchor="start" x="499" y="-18" font-family="Helvetica,sans-Serif" font-size="10.00">FlowElements.IAspectEngine</text>
<text text-anchor="middle" x="570" y="-7" font-family="Helvetica,sans-Serif" font-size="10.00">&lt; T, TMeta &gt;</text>
</a>
</g>
</g>
<!-- Node3&#45;&gt;Node6 -->
<g id="edge8_Node000006_Node000003" class="edge">
<title>Node3&#45;&gt;Node6</title>
<g id="a_edge8_Node000006_Node000003"><a xlink:title=" ">
<path fill="none" stroke="#63b8ff" d="M460.11,-51.13C472.08,-47.76 484.32,-44.32 496.07,-41.01"/>
<polygon fill="#63b8ff" stroke="#63b8ff" points="458.81,-47.85 450.13,-53.93 460.71,-54.59 458.81,-47.85"/>
</a>
</g>
</g>
<!-- Node4 -->
<g id="Node000004" class="node">
<title>Node4</title>
<g id="a_Node000004"><a xlink:href="interface_fifty_one_1_1_pipeline_1_1_core_1_1_flow_elements_1_1_i_flow_element.html" target="_top" xlink:title="IFlowElement is the basic building block of a pipeline.">
<polygon fill="white" stroke="#666666" points="261,-62.5 110,-62.5 110,-32.5 261,-32.5 261,-62.5"/>
<text text-anchor="start" x="118" y="-50.5" font-family="Helvetica,sans-Serif" font-size="10.00">FiftyOne.Pipeline.Core.Flow</text>
<text text-anchor="middle" x="185.5" y="-39.5" font-family="Helvetica,sans-Serif" font-size="10.00">Elements.IFlowElement</text>
</a>
</g>
</g>
<!-- Node4&#45;&gt;Node3 -->
<g id="edge3_Node000003_Node000004" class="edge">
<title>Node4&#45;&gt;Node3</title>
<g id="a_edge3_Node000003_Node000004"><a xlink:title=" ">
<path fill="none" stroke="#63b8ff" d="M270.95,-59.6C280.57,-60.97 290.32,-62.37 299.81,-63.73"/>
<polygon fill="#63b8ff" stroke="#63b8ff" points="271.4,-56.12 261,-58.17 270.4,-63.05 271.4,-56.12"/>
</a>
</g>
</g>
<!-- Node7 -->
<g id="Node000007" class="node">
<title>Node7</title>
<g id="a_Node000007"><a xlink:href="interface_fifty_one_1_1_pipeline_1_1_engines_1_1_flow_elements_1_1_i_aspect_engine.html" target="_top" xlink:title="Interface representing 51Degrees on&#45;premise aspect engines.">
<polygon fill="white" stroke="#666666" points="455,-35.5 297,-35.5 297,-5.5 455,-5.5 455,-35.5"/>
<text text-anchor="start" x="305" y="-23.5" font-family="Helvetica,sans-Serif" font-size="10.00">FiftyOne.Pipeline.Engines.</text>
<text text-anchor="middle" x="376" y="-12.5" font-family="Helvetica,sans-Serif" font-size="10.00">FlowElements.IAspectEngine</text>
</a>
</g>
</g>
<!-- Node4&#45;&gt;Node7 -->
<g id="edge7_Node000007_Node000004" class="edge">
<title>Node4&#45;&gt;Node7</title>
<g id="a_edge7_Node000007_Node000004"><a xlink:title=" ">
<path fill="none" stroke="#63b8ff" d="M270.98,-35.4C279.54,-34.17 288.21,-32.93 296.71,-31.71"/>
<polygon fill="#63b8ff" stroke="#63b8ff" points="270.4,-31.95 261,-36.83 271.4,-38.88 270.4,-31.95"/>
</a>
</g>
</g>
<!-- Node5 -->
<g id="Node000005" class="node">
<title>Node5</title>
<g id="a_Node000005"><a xlink:title=" ">
<polygon fill="white" stroke="#bfbfbf" points="74,-57 0,-57 0,-38 74,-38 74,-57"/>
<text text-anchor="middle" x="37" y="-45" font-family="Helvetica,sans-Serif" font-size="10.00">IDisposable</text>
</a>
</g>
</g>
<!-- Node5&#45;&gt;Node4 -->
<g id="edge4_Node000004_Node000005" class="edge">
<title>Node5&#45;&gt;Node4</title>
<g id="a_edge4_Node000004_Node000005"><a xlink:title=" ">
<path fill="none" stroke="#63b8ff" d="M84.22,-47.5C92.38,-47.5 101.05,-47.5 109.75,-47.5"/>
<polygon fill="#63b8ff" stroke="#63b8ff" points="84.21,-44 74.21,-47.5 84.21,-51 84.21,-44"/>
</a>
</g>
</g>
<!-- Node6&#45;&gt;Node1 -->
<g id="edge5_Node000001_Node000006" class="edge">
<title>Node6&#45;&gt;Node1</title>
<g id="a_edge5_Node000001_Node000006"><a xlink:title=" ">
<path fill="none" stroke="#63b8ff" d="M658.96,-33.1C667.51,-34.32 676.18,-35.56 684.74,-36.79"/>
<polygon fill="#63b8ff" stroke="#63b8ff" points="659.4,-29.62 649,-31.67 658.4,-36.55 659.4,-29.62"/>
</a>
</g>
</g>
<!-- Node7&#45;&gt;Node6 -->
<g id="edge6_Node000006_Node000007" class="edge">
<title>Node7&#45;&gt;Node6</title>
<g id="a_edge6_Node000006_Node000007"><a xlink:title=" ">
<path fill="none" stroke="#63b8ff" d="M465.15,-20.5C473.77,-20.5 482.47,-20.5 490.98,-20.5"/>
<polygon fill="#63b8ff" stroke="#63b8ff" points="465.09,-17 455.09,-20.5 465.09,-24 465.09,-17"/>
</a>
</g>
</g>
</g>
</svg>
