<?xml version="1.0" encoding="UTF-8" standalone="no"?>
<!DOCTYPE svg PUBLIC "-//W3C//DTD SVG 1.1//EN"
 "http://www.w3.org/Graphics/SVG/1.1/DTD/svg11.dtd">
<!-- Generated by graphviz version 2.43.0 (0)
 -->
<!-- Title: FiftyOne.Pipeline.Translation.FlowElements.TranslationEngine Pages: 1 -->
<svg width="1894pt" height="184pt"
 viewBox="0.00 0.00 1894.00 184.00" xmlns="http://www.w3.org/2000/svg" xmlns:xlink="http://www.w3.org/1999/xlink">
<g id="graph0" class="graph" transform="scale(1 1) rotate(0) translate(4 180)">
<title>FiftyOne.Pipeline.Translation.FlowElements.TranslationEngine</title>
<!-- Node9 -->
<g id="node1" class="node">
<title>Node9</title>
<g id="a_node1"><a xlink:title=" ">
<polygon fill="#bfbfbf" stroke="black" points="1711,-122.5 1711,-152.5 1886,-152.5 1886,-122.5 1711,-122.5"/>
<text text-anchor="start" x="1719" y="-140.5" font-family="Helvetica,sans-Serif" font-size="10.00">FiftyOne.Pipeline.Translation.</text>
<text text-anchor="middle" x="1798.5" y="-129.5" font-family="Helvetica,sans-Serif" font-size="10.00">FlowElements.TranslationEngine</text>
</a>
</g>
</g>
<!-- Node10 -->
<g id="node2" class="node">
<title>Node10</title>
<g id="a_node2"><a xlink:href="class_fifty_one_1_1_pipeline_1_1_translation_1_1_flow_elements_1_1_translation_engine_base.html" target="_top" xlink:title=" ">
<polygon fill="none" stroke="black" points="1547,-94.5 1547,-124.5 1674,-124.5 1674,-94.5 1547,-94.5"/>
<text text-anchor="start" x="1555" y="-112.5" font-family="Helvetica,sans-Serif" font-size="10.00">TranslationEngineBase</text>
<text text-anchor="middle" x="1610.5" y="-101.5" font-family="Helvetica,sans-Serif" font-size="10.00">&lt; ITranslationData &gt;</text>
</a>
</g>
</g>
<!-- Node10&#45;&gt;Node9 -->
<g id="edge1" class="edge">
<title>Node10&#45;&gt;Node9</title>
<path fill="none" stroke="midnightblue" d="M1684.33,-120.46C1693.07,-121.78 1702.05,-123.13 1710.96,-124.47"/>
<polygon fill="midnightblue" stroke="midnightblue" points="1684.62,-116.97 1674.21,-118.94 1683.58,-123.89 1684.62,-116.97"/>
</g>
<!-- Node11 -->
<g id="node3" class="node">
<title>Node11</title>
<g id="a_node3"><a xlink:href="class_fifty_one_1_1_pipeline_1_1_translation_1_1_flow_elements_1_1_translation_engine_base.html" target="_top" xlink:title="Flow element that translates values from a single source element and stores translated values under i...">
<polygon fill="none" stroke="black" points="1178,-58.5 1178,-88.5 1405,-88.5 1405,-58.5 1178,-58.5"/>
<text text-anchor="start" x="1186" y="-76.5" font-family="Helvetica,sans-Serif" font-size="10.00">FiftyOne.Pipeline.Translation.</text>
<text text-anchor="middle" x="1291.5" y="-65.5" font-family="Helvetica,sans-Serif" font-size="10.00">FlowElements.TranslationEngineBase&lt; T &gt;</text>
</a>
</g>
</g>
<!-- Node11&#45;&gt;Node10 -->
<g id="edge2" class="edge">
<title>Node11&#45;&gt;Node10</title>
<path fill="none" stroke="orange" stroke-dasharray="5,2" d="M1415.26,-87.44C1460.13,-92.54 1509.04,-98.09 1546.55,-102.35"/>
<polygon fill="orange" stroke="orange" points="1415.49,-83.94 1405.15,-86.29 1414.7,-90.9 1415.49,-83.94"/>
<text text-anchor="middle" x="1476" y="-102.5" font-family="Helvetica,sans-Serif" font-size="10.00"> &lt; ITranslationData &gt;</text>
</g>
<!-- Node12 -->
<g id="node4" class="node">
<title>Node12</title>
<g id="a_node4"><a xlink:href="class_fifty_one_1_1_pipeline_1_1_core_1_1_flow_elements_1_1_flow_element_base.html" target="_top" xlink:title=" ">
<polygon fill="none" stroke="black" points="887,-98.5 887,-128.5 1051,-128.5 1051,-98.5 887,-98.5"/>
<text text-anchor="start" x="895" y="-116.5" font-family="Helvetica,sans-Serif" font-size="10.00">FlowElementBase&lt; T,</text>
<text text-anchor="middle" x="969" y="-105.5" font-family="Helvetica,sans-Serif" font-size="10.00"> IElementPropertyMetaData &gt;</text>
</a>
</g>
</g>
<!-- Node12&#45;&gt;Node11 -->
<g id="edge3" class="edge">
<title>Node12&#45;&gt;Node11</title>
<path fill="none" stroke="midnightblue" d="M1061.36,-102.1C1097.63,-97.57 1139.71,-92.32 1177.84,-87.56"/>
<polygon fill="midnightblue" stroke="midnightblue" points="1060.78,-98.64 1051.29,-103.35 1061.65,-105.59 1060.78,-98.64"/>
</g>
<!-- Node13 -->
<g id="node5" class="node">
<title>Node13</title>
<g id="a_node5"><a xlink:href="class_fifty_one_1_1_pipeline_1_1_core_1_1_flow_elements_1_1_flow_element_base.html" target="_top" xlink:title="Abstract base class for Flow Elements.">
<polygon fill="none" stroke="black" points="562,-92 562,-133 715,-133 715,-92 562,-92"/>
<text text-anchor="start" x="570" y="-121" font-family="Helvetica,sans-Serif" font-size="10.00">FiftyOne.Pipeline.Core.Flow</text>
<text text-anchor="start" x="570" y="-110" font-family="Helvetica,sans-Serif" font-size="10.00">Elements.FlowElementBase</text>
<text text-anchor="middle" x="638.5" y="-99" font-family="Helvetica,sans-Serif" font-size="10.00">&lt; T, TMeta &gt;</text>
</a>
</g>
</g>
<!-- Node13&#45;&gt;Node12 -->
<g id="edge4" class="edge">
<title>Node13&#45;&gt;Node12</title>
<path fill="none" stroke="orange" stroke-dasharray="5,2" d="M725.4,-112.76C775.3,-112.91 837.8,-113.1 886.86,-113.25"/>
<polygon fill="orange" stroke="orange" points="725.29,-109.26 715.28,-112.73 725.27,-116.26 725.29,-109.26"/>
<text text-anchor="start" x="733" y="-126.5" font-family="Helvetica,sans-Serif" font-size="10.00"> &lt; T, IElementPropertyMeta</text>
<text text-anchor="middle" x="801" y="-115.5" font-family="Helvetica,sans-Serif" font-size="10.00">Data &gt;</text>
</g>
<!-- Node14 -->
<g id="node6" class="node">
<title>Node14</title>
<g id="a_node6"><a xlink:href="interface_fifty_one_1_1_pipeline_1_1_core_1_1_flow_elements_1_1_i_flow_element.html" target="_top" xlink:title=" ">
<polygon fill="none" stroke="black" points="355.5,-106 355.5,-125 504.5,-125 504.5,-106 355.5,-106"/>
<text text-anchor="middle" x="430" y="-113" font-family="Helvetica,sans-Serif" font-size="10.00">IFlowElement&lt; T, TMeta &gt;</text>
</a>
</g>
</g>
<!-- Node14&#45;&gt;Node13 -->
<g id="edge5" class="edge">
<title>Node14&#45;&gt;Node13</title>
<path fill="none" stroke="midnightblue" d="M514.79,-114.28C530.33,-114.06 546.48,-113.82 561.76,-113.6"/>
<polygon fill="midnightblue" stroke="midnightblue" points="514.62,-110.78 504.68,-114.43 514.73,-117.78 514.62,-110.78"/>
</g>
<!-- Node15 -->
<g id="node7" class="node">
<title>Node15</title>
<g id="a_node7"><a xlink:href="interface_fifty_one_1_1_pipeline_1_1_core_1_1_flow_elements_1_1_i_flow_element.html" target="_top" xlink:title="IFlowElement is the basic building block of a pipeline.">
<polygon fill="none" stroke="black" points="0,-122.5 0,-152.5 151,-152.5 151,-122.5 0,-122.5"/>
<text text-anchor="start" x="8" y="-140.5" font-family="Helvetica,sans-Serif" font-size="10.00">FiftyOne.Pipeline.Core.Flow</text>
<text text-anchor="middle" x="75.5" y="-129.5" font-family="Helvetica,sans-Serif" font-size="10.00">Elements.IFlowElement</text>
</a>
</g>
</g>
<!-- Node15&#45;&gt;Node14 -->
<g id="edge6" class="edge">
<title>Node15&#45;&gt;Node14</title>
<path fill="none" stroke="orange" stroke-dasharray="5,2" d="M161.27,-125.23C163.87,-124.97 166.46,-124.72 169,-124.5 231.77,-119.02 303.33,-116.84 355.47,-115.99"/>
<polygon fill="orange" stroke="orange" points="160.71,-121.77 151.14,-126.32 161.46,-128.73 160.71,-121.77"/>
<text text-anchor="middle" x="243" y="-127.5" font-family="Helvetica,sans-Serif" font-size="10.00"> &lt; T, TMeta &gt;</text>
</g>
<!-- Node19 -->
<g id="node11" class="node">
<title>Node19</title>
<g id="a_node11"><a xlink:href="interface_fifty_one_1_1_pipeline_1_1_core_1_1_flow_elements_1_1_i_flow_element.html" target="_top" xlink:title=" ">
<polygon fill="none" stroke="black" points="335,-145.5 335,-175.5 525,-175.5 525,-145.5 335,-145.5"/>
<text text-anchor="start" x="343" y="-163.5" font-family="Helvetica,sans-Serif" font-size="10.00">IFlowElement&lt; ITranslation</text>
<text text-anchor="middle" x="430" y="-152.5" font-family="Helvetica,sans-Serif" font-size="10.00">Data, IElementPropertyMetaData &gt;</text>
</a>
</g>
</g>
<!-- Node15&#45;&gt;Node19 -->
<g id="edge11" class="edge">
<title>Node15&#45;&gt;Node19</title>
<path fill="none" stroke="orange" stroke-dasharray="5,2" d="M161.51,-143.05C213.82,-146.46 280.93,-150.84 334.84,-154.36"/>
<polygon fill="orange" stroke="orange" points="161.46,-139.54 151.26,-142.38 161.01,-146.52 161.46,-139.54"/>
<text text-anchor="start" x="169" y="-166.5" font-family="Helvetica,sans-Serif" font-size="10.00"> &lt; ITranslationData,</text>
<text text-anchor="middle" x="243" y="-155.5" font-family="Helvetica,sans-Serif" font-size="10.00"> IElementPropertyMetaData &gt;</text>
</g>
<!-- Node16 -->
<g id="node8" class="node">
<title>Node16</title>
<g id="a_node8"><a xlink:href="class_fifty_one_1_1_pipeline_1_1_translation_1_1_data_1_1_languages.html" target="_top" xlink:title="Set of translators for one or more languages, with static utility methods for parsing Accept&#45;Language...">
<polygon fill="none" stroke="black" points="890,-0.5 890,-30.5 1048,-30.5 1048,-0.5 890,-0.5"/>
<text text-anchor="start" x="898" y="-18.5" font-family="Helvetica,sans-Serif" font-size="10.00">FiftyOne.Pipeline.Translation.</text>
<text text-anchor="middle" x="969" y="-7.5" font-family="Helvetica,sans-Serif" font-size="10.00">Data.Languages</text>
</a>
</g>
</g>
<!-- Node16&#45;&gt;Node11 -->
<g id="edge7" class="edge">
<title>Node16&#45;&gt;Node11</title>
<path fill="none" stroke="#9a32cd" stroke-dasharray="5,2" d="M1058.48,-31.51C1105.07,-39.94 1161.86,-50.22 1207.59,-58.5"/>
<polygon fill="#9a32cd" stroke="#9a32cd" points="1058.87,-28.03 1048.4,-29.69 1057.62,-34.91 1058.87,-28.03"/>
<text text-anchor="middle" x="1114.5" y="-52.5" font-family="Helvetica,sans-Serif" font-size="10.00"> Languages</text>
</g>
<!-- Node17 -->
<g id="node9" class="node">
<title>Node17</title>
<g id="a_node9"><a xlink:href="interface_fifty_one_1_1_pipeline_1_1_core_1_1_data_1_1_i_evidence_key_filter.html" target="_top" xlink:title="Represents an object that filters evidence key names based on some criteria.">
<polygon fill="none" stroke="black" points="892,-49.5 892,-79.5 1046,-79.5 1046,-49.5 892,-49.5"/>
<text text-anchor="start" x="900" y="-67.5" font-family="Helvetica,sans-Serif" font-size="10.00">FiftyOne.Pipeline.Core.Data.</text>
<text text-anchor="middle" x="969" y="-56.5" font-family="Helvetica,sans-Serif" font-size="10.00">IEvidenceKeyFilter</text>
</a>
</g>
</g>
<!-- Node17&#45;&gt;Node11 -->
<g id="edge8" class="edge">
<title>Node17&#45;&gt;Node11</title>
<path fill="none" stroke="#9a32cd" stroke-dasharray="5,2" d="M1056.68,-66.93C1093.93,-67.98 1137.95,-69.22 1177.7,-70.33"/>
<polygon fill="#9a32cd" stroke="#9a32cd" points="1056.45,-63.43 1046.36,-66.64 1056.26,-70.42 1056.45,-63.43"/>
<text text-anchor="middle" x="1114.5" y="-72.5" font-family="Helvetica,sans-Serif" font-size="10.00"> EvidenceKeyFilter</text>
</g>
<!-- Node18 -->
<g id="node10" class="node">
<title>Node18</title>
<g id="a_node10"><a xlink:href="interface_fifty_one_1_1_pipeline_1_1_translation_1_1_flow_elements_1_1_i_translation_engine.html" target="_top" xlink:title="Flow element that translates values from a single source element and stores translated values under i...">
<polygon fill="none" stroke="black" points="748,-151 748,-170 854,-170 854,-151 748,-151"/>
<text text-anchor="middle" x="801" y="-158" font-family="Helvetica,sans-Serif" font-size="10.00">ITranslationEngine</text>
</a>
</g>
</g>
<!-- Node18&#45;&gt;Node9 -->
<g id="edge9" class="edge">
<title>Node18&#45;&gt;Node9</title>
<path fill="none" stroke="midnightblue" d="M864.23,-160.18C927.11,-159.89 1027.05,-159.5 1113.5,-159.5 1113.5,-159.5 1113.5,-159.5 1611.5,-159.5 1644.02,-159.5 1679.51,-156.14 1710.7,-152.05"/>
<polygon fill="midnightblue" stroke="midnightblue" points="864.07,-156.68 854.08,-160.23 864.1,-163.68 864.07,-156.68"/>
</g>
<!-- Node19&#45;&gt;Node18 -->
<g id="edge10" class="edge">
<title>Node19&#45;&gt;Node18</title>
<path fill="none" stroke="midnightblue" d="M535.17,-160.5C604.62,-160.5 692.94,-160.5 747.98,-160.5"/>
<polygon fill="midnightblue" stroke="midnightblue" points="535.07,-157 525.07,-160.5 535.07,-164 535.07,-157"/>
</g>
</g>
</svg>
