<?xml version="1.0" encoding="UTF-8" standalone="no"?>
<!DOCTYPE svg PUBLIC "-//W3C//DTD SVG 1.1//EN"
 "http://www.w3.org/Graphics/SVG/1.1/DTD/svg11.dtd">
<!-- Generated by graphviz version 2.43.0 (0)
 -->
<!-- Title: FiftyOne.Pipeline.Core.Data.Types.JavaScript Pages: 1 -->
<svg width="274pt" height="93pt"
 viewBox="0.00 0.00 274.00 93.00" xmlns="http://www.w3.org/2000/svg" xmlns:xlink="http://www.w3.org/1999/xlink">
<g id="graph0" class="graph" transform="scale(1 1) rotate(0) translate(4 89)">
<title>FiftyOne.Pipeline.Core.Data.Types.JavaScript</title>
<!-- Node1 -->
<g id="Node000001" class="node">
<title>Node1</title>
<g id="a_Node000001"><a xlink:title="JavaScript type which can be returned as a value by an ElementData.">
<polygon fill="#999999" stroke="#666666" points="212.5,-30 58.5,-30 58.5,0 212.5,0 212.5,-30"/>
<text text-anchor="start" x="66.5" y="-18" font-family="Helvetica,sans-Serif" font-size="10.00">FiftyOne.Pipeline.Core.Data.</text>
<text text-anchor="middle" x="135.5" y="-7" font-family="Helvetica,sans-Serif" font-size="10.00">Types.JavaScript</text>
</a>
</g>
</g>
<!-- Node2 -->
<g id="Node000002" class="node">
<title>Node2</title>
<g id="a_Node000002"><a xlink:title=" ">
<polygon fill="white" stroke="#bfbfbf" points="129,-85 0,-85 0,-66 129,-66 129,-85"/>
<text text-anchor="middle" x="64.5" y="-73" font-family="Helvetica,sans-Serif" font-size="10.00">IComparable&lt; string &gt;</text>
</a>
</g>
</g>
<!-- Node2&#45;&gt;Node1 -->
<g id="edge1_Node000001_Node000002" class="edge">
<title>Node2&#45;&gt;Node1</title>
<g id="a_edge1_Node000001_Node000002"><a xlink:title=" ">
<path fill="none" stroke="#63b8ff" d="M82.7,-59.5C93.68,-50.45 107.59,-39 118.37,-30.11"/>
<polygon fill="#63b8ff" stroke="#63b8ff" points="80.47,-56.81 74.98,-65.87 84.92,-62.21 80.47,-56.81"/>
</a>
</g>
</g>
<!-- Node3 -->
<g id="Node000003" class="node">
<title>Node3</title>
<g id="a_Node000003"><a xlink:title=" ">
<polygon fill="white" stroke="#bfbfbf" points="266,-85 147,-85 147,-66 266,-66 266,-85"/>
<text text-anchor="middle" x="206.5" y="-73" font-family="Helvetica,sans-Serif" font-size="10.00">IEquatable&lt; string &gt;</text>
</a>
</g>
</g>
<!-- Node3&#45;&gt;Node1 -->
<g id="edge2_Node000001_Node000003" class="edge">
<title>Node3&#45;&gt;Node1</title>
<g id="a_edge2_Node000001_Node000003"><a xlink:title=" ">
<path fill="none" stroke="#63b8ff" d="M188.3,-59.5C177.32,-50.45 163.41,-39 152.63,-30.11"/>
<polygon fill="#63b8ff" stroke="#63b8ff" points="186.08,-62.21 196.02,-65.87 190.53,-56.81 186.08,-62.21"/>
</a>
</g>
</g>
</g>
</svg>
