<?xml version="1.0" encoding="UTF-8" standalone="no"?>
<!DOCTYPE svg PUBLIC "-//W3C//DTD SVG 1.1//EN"
 "http://www.w3.org/Graphics/SVG/1.1/DTD/svg11.dtd">
<!-- Generated by graphviz version 2.43.0 (0)
 -->
<!-- Title: FiftyOne.Pipeline.Core.Data.EvidenceKeyFilterAggregator Pages: 1 -->
<svg width="546pt" height="59pt"
 viewBox="0.00 0.00 546.00 59.00" xmlns="http://www.w3.org/2000/svg" xmlns:xlink="http://www.w3.org/1999/xlink">
<g id="graph0" class="graph" transform="scale(1 1) rotate(0) translate(4 55)">
<title>FiftyOne.Pipeline.Core.Data.EvidenceKeyFilterAggregator</title>
<!-- Node1 -->
<g id="Node000001" class="node">
<title>Node1</title>
<g id="a_Node000001"><a xlink:title="This implementation of IEvidenceKeyFilter aggregates multiple other filters using a logical OR approa...">
<polygon fill="#999999" stroke="#666666" points="538,-51 380,-51 380,-21 538,-21 538,-51"/>
<text text-anchor="start" x="388" y="-39" font-family="Helvetica,sans-Serif" font-size="10.00">FiftyOne.Pipeline.Core.Data.</text>
<text text-anchor="middle" x="459" y="-28" font-family="Helvetica,sans-Serif" font-size="10.00">EvidenceKeyFilterAggregator</text>
</a>
</g>
</g>
<!-- Node2 -->
<g id="Node000002" class="node">
<title>Node2</title>
<g id="a_Node000002"><a xlink:href="class_fifty_one_1_1_pipeline_1_1_core_1_1_data_1_1_evidence_key_filter_whitelist.html" target="_top" xlink:title="This evidence filter will only include keys that are in a list that is specified at construction time...">
<polygon fill="white" stroke="#666666" points="344,-30 190,-30 190,0 344,0 344,-30"/>
<text text-anchor="start" x="198" y="-18" font-family="Helvetica,sans-Serif" font-size="10.00">FiftyOne.Pipeline.Core.Data.</text>
<text text-anchor="middle" x="267" y="-7" font-family="Helvetica,sans-Serif" font-size="10.00">EvidenceKeyFilterWhitelist</text>
</a>
</g>
</g>
<!-- Node2&#45;&gt;Node1 -->
<g id="edge1_Node000001_Node000002" class="edge">
<title>Node2&#45;&gt;Node1</title>
<g id="a_edge1_Node000001_Node000002"><a xlink:title=" ">
<path fill="none" stroke="#63b8ff" d="M354.19,-24.53C362.77,-25.47 371.45,-26.43 379.94,-27.37"/>
<polygon fill="#63b8ff" stroke="#63b8ff" points="354.51,-21.04 344.19,-23.42 353.74,-28 354.51,-21.04"/>
</a>
</g>
</g>
<!-- Node3 -->
<g id="Node000003" class="node">
<title>Node3</title>
<g id="a_Node000003"><a xlink:href="interface_fifty_one_1_1_pipeline_1_1_core_1_1_data_1_1_i_evidence_key_filter.html" target="_top" xlink:title="Represents an object that filters evidence key names based on some criteria.">
<polygon fill="white" stroke="#666666" points="154,-51 0,-51 0,-21 154,-21 154,-51"/>
<text text-anchor="start" x="8" y="-39" font-family="Helvetica,sans-Serif" font-size="10.00">FiftyOne.Pipeline.Core.Data.</text>
<text text-anchor="middle" x="77" y="-28" font-family="Helvetica,sans-Serif" font-size="10.00">IEvidenceKeyFilter</text>
</a>
</g>
</g>
<!-- Node3&#45;&gt;Node1 -->
<g id="edge3_Node000001_Node000003" class="edge">
<title>Node3&#45;&gt;Node1</title>
<g id="a_edge3_Node000001_Node000003"><a xlink:title=" ">
<path fill="none" stroke="#63b8ff" d="M164.35,-38.54C173.02,-38.73 181.68,-38.89 190,-39 258.44,-39.92 275.56,-39.9 344,-39 355.58,-38.85 367.82,-38.61 379.82,-38.33"/>
<polygon fill="#63b8ff" stroke="#63b8ff" points="164.28,-35.04 154.21,-38.32 164.13,-42.04 164.28,-35.04"/>
</a>
</g>
</g>
<!-- Node3&#45;&gt;Node2 -->
<g id="edge2_Node000002_Node000003" class="edge">
<title>Node3&#45;&gt;Node2</title>
<g id="a_edge2_Node000002_Node000003"><a xlink:title=" ">
<path fill="none" stroke="#63b8ff" d="M164.15,-26.38C172.67,-25.43 181.28,-24.46 189.7,-23.52"/>
<polygon fill="#63b8ff" stroke="#63b8ff" points="163.75,-22.9 154.2,-27.49 164.52,-29.86 163.75,-22.9"/>
</a>
</g>
</g>
</g>
</svg>
