<?xml version="1.0" encoding="UTF-8" standalone="no"?>
<!DOCTYPE svg PUBLIC "-//W3C//DTD SVG 1.1//EN"
 "http://www.w3.org/Graphics/SVG/1.1/DTD/svg11.dtd">
<!-- Generated by graphviz version 2.43.0 (0)
 -->
<!-- Title: FiftyOne.Pipeline.Core.Data.ElementDataBase Pages: 1 -->
<svg width="334pt" height="170pt"
 viewBox="0.00 0.00 334.00 170.00" xmlns="http://www.w3.org/2000/svg" xmlns:xlink="http://www.w3.org/1999/xlink">
<g id="graph0" class="graph" transform="scale(1 1) rotate(0) translate(4 166)">
<title>FiftyOne.Pipeline.Core.Data.ElementDataBase</title>
<!-- Node1 -->
<g id="Node000001" class="node">
<title>Node1</title>
<g id="a_Node000001"><a xlink:title="This class stores property values that have been determined by a specific FlowElement based on the su...">
<polygon fill="#999999" stroke="#666666" points="240,-30 86,-30 86,0 240,0 240,-30"/>
<text text-anchor="start" x="94" y="-18" font-family="Helvetica,sans-Serif" font-size="10.00">FiftyOne.Pipeline.Core.Data.</text>
<text text-anchor="middle" x="163" y="-7" font-family="Helvetica,sans-Serif" font-size="10.00">ElementDataBase</text>
</a>
</g>
</g>
<!-- Node2 -->
<g id="Node000002" class="node">
<title>Node2</title>
<g id="a_Node000002"><a xlink:href="class_fifty_one_1_1_pipeline_1_1_core_1_1_data_1_1_data_base.html" target="_top" xlink:title="This class stores data values as key/value pairs where the key is a string and the value can be any t...">
<polygon fill="white" stroke="#666666" points="154,-96 0,-96 0,-66 154,-66 154,-96"/>
<text text-anchor="start" x="8" y="-84" font-family="Helvetica,sans-Serif" font-size="10.00">FiftyOne.Pipeline.Core.Data.</text>
<text text-anchor="middle" x="77" y="-73" font-family="Helvetica,sans-Serif" font-size="10.00">DataBase</text>
</a>
</g>
</g>
<!-- Node2&#45;&gt;Node1 -->
<g id="edge1_Node000001_Node000002" class="edge">
<title>Node2&#45;&gt;Node1</title>
<g id="a_edge1_Node000001_Node000002"><a xlink:title=" ">
<path fill="none" stroke="#63b8ff" d="M104.21,-59.75C117.14,-50.13 132.29,-38.86 143.97,-30.16"/>
<polygon fill="#63b8ff" stroke="#63b8ff" points="102.02,-57.02 96.09,-65.8 106.2,-62.63 102.02,-57.02"/>
</a>
</g>
</g>
<!-- Node3 -->
<g id="Node000003" class="node">
<title>Node3</title>
<g id="a_Node000003"><a xlink:href="interface_fifty_one_1_1_pipeline_1_1_core_1_1_data_1_1_i_data.html" target="_top" xlink:title="Represents property values.">
<polygon fill="white" stroke="#666666" points="240,-162 86,-162 86,-132 240,-132 240,-162"/>
<text text-anchor="start" x="94" y="-150" font-family="Helvetica,sans-Serif" font-size="10.00">FiftyOne.Pipeline.Core.Data.</text>
<text text-anchor="middle" x="163" y="-139" font-family="Helvetica,sans-Serif" font-size="10.00">IData</text>
</a>
</g>
</g>
<!-- Node3&#45;&gt;Node2 -->
<g id="edge2_Node000002_Node000003" class="edge">
<title>Node3&#45;&gt;Node2</title>
<g id="a_edge2_Node000002_Node000003"><a xlink:title=" ">
<path fill="none" stroke="#63b8ff" d="M135.79,-125.75C122.86,-116.13 107.71,-104.86 96.03,-96.16"/>
<polygon fill="#63b8ff" stroke="#63b8ff" points="133.8,-128.63 143.91,-131.8 137.98,-123.02 133.8,-128.63"/>
</a>
</g>
</g>
<!-- Node4 -->
<g id="Node000004" class="node">
<title>Node4</title>
<g id="a_Node000004"><a xlink:href="interface_fifty_one_1_1_pipeline_1_1_core_1_1_data_1_1_i_element_data.html" target="_top" xlink:title="Represents property values that have been determined by a specific FlowElement based on the supplied ...">
<polygon fill="white" stroke="#666666" points="326,-96 172,-96 172,-66 326,-66 326,-96"/>
<text text-anchor="start" x="180" y="-84" font-family="Helvetica,sans-Serif" font-size="10.00">FiftyOne.Pipeline.Core.Data.</text>
<text text-anchor="middle" x="249" y="-73" font-family="Helvetica,sans-Serif" font-size="10.00">IElementData</text>
</a>
</g>
</g>
<!-- Node3&#45;&gt;Node4 -->
<g id="edge4_Node000004_Node000003" class="edge">
<title>Node3&#45;&gt;Node4</title>
<g id="a_edge4_Node000004_Node000003"><a xlink:title=" ">
<path fill="none" stroke="#63b8ff" d="M190.21,-125.75C203.14,-116.13 218.29,-104.86 229.97,-96.16"/>
<polygon fill="#63b8ff" stroke="#63b8ff" points="188.02,-123.02 182.09,-131.8 192.2,-128.63 188.02,-123.02"/>
</a>
</g>
</g>
<!-- Node4&#45;&gt;Node1 -->
<g id="edge3_Node000001_Node000004" class="edge">
<title>Node4&#45;&gt;Node1</title>
<g id="a_edge3_Node000001_Node000004"><a xlink:title=" ">
<path fill="none" stroke="#63b8ff" d="M221.79,-59.75C208.86,-50.13 193.71,-38.86 182.03,-30.16"/>
<polygon fill="#63b8ff" stroke="#63b8ff" points="219.8,-62.63 229.91,-65.8 223.98,-57.02 219.8,-62.63"/>
</a>
</g>
</g>
</g>
</svg>
