<?xml version="1.0" encoding="UTF-8" standalone="no"?>
<!DOCTYPE svg PUBLIC "-//W3C//DTD SVG 1.1//EN"
 "http://www.w3.org/Graphics/SVG/1.1/DTD/svg11.dtd">
<!-- Generated by graphviz version 2.43.0 (0)
 -->
<!-- Title: FiftyOne.Pipeline.Core.Exceptions.PipelineException Pages: 1 -->
<svg width="549pt" height="182pt"
 viewBox="0.00 0.00 549.00 182.00" xmlns="http://www.w3.org/2000/svg" xmlns:xlink="http://www.w3.org/1999/xlink">
<g id="graph0" class="graph" transform="scale(1 1) rotate(0) translate(4 178)">
<title>FiftyOne.Pipeline.Core.Exceptions.PipelineException</title>
<!-- Node1 -->
<g id="Node000001" class="node">
<title>Node1</title>
<g id="a_Node000001"><a xlink:title="Base class for all exceptions thrown by Pipeline API components.">
<polygon fill="#999999" stroke="#666666" points="285,-102 101,-102 101,-72 285,-72 285,-102"/>
<text text-anchor="start" x="109" y="-90" font-family="Helvetica,sans-Serif" font-size="10.00">FiftyOne.Pipeline.Core.Exceptions.</text>
<text text-anchor="middle" x="193" y="-79" font-family="Helvetica,sans-Serif" font-size="10.00">PipelineException</text>
</a>
</g>
</g>
<!-- Node3 -->
<g id="Node000003" class="node">
<title>Node3</title>
<g id="a_Node000003"><a xlink:href="class_fifty_one_1_1_pipeline_1_1_core_1_1_exceptions_1_1_pipeline_configuration_exception.html" target="_top" xlink:title="Exception that is thrown when the configuration options provided to PipelineBuilder are invalid See t...">
<polygon fill="white" stroke="#666666" points="523,-174 339,-174 339,-144 523,-144 523,-174"/>
<text text-anchor="start" x="347" y="-162" font-family="Helvetica,sans-Serif" font-size="10.00">FiftyOne.Pipeline.Core.Exceptions.</text>
<text text-anchor="middle" x="431" y="-151" font-family="Helvetica,sans-Serif" font-size="10.00">PipelineConfigurationException</text>
</a>
</g>
</g>
<!-- Node1&#45;&gt;Node3 -->
<g id="edge2_Node000001_Node000003" class="edge">
<title>Node1&#45;&gt;Node3</title>
<g id="a_edge2_Node000001_Node000003"><a xlink:title=" ">
<path fill="none" stroke="#63b8ff" d="M239.21,-105.91C263.22,-115.49 293.4,-126.79 321,-135 331.87,-138.23 343.46,-141.24 354.87,-143.96"/>
<polygon fill="#63b8ff" stroke="#63b8ff" points="240.24,-102.55 229.66,-102.06 237.62,-109.05 240.24,-102.55"/>
</a>
</g>
</g>
<!-- Node4 -->
<g id="Node000004" class="node">
<title>Node4</title>
<g id="a_Node000004"><a xlink:href="class_fifty_one_1_1_pipeline_1_1_core_1_1_exceptions_1_1_pipeline_data_exception.html" target="_top" xlink:title="Exception that can be thrown when the available data does not match that which is expected.">
<polygon fill="white" stroke="#666666" points="523,-126 339,-126 339,-96 523,-96 523,-126"/>
<text text-anchor="start" x="347" y="-114" font-family="Helvetica,sans-Serif" font-size="10.00">FiftyOne.Pipeline.Core.Exceptions.</text>
<text text-anchor="middle" x="431" y="-103" font-family="Helvetica,sans-Serif" font-size="10.00">PipelineDataException</text>
</a>
</g>
</g>
<!-- Node1&#45;&gt;Node4 -->
<g id="edge3_Node000001_Node000004" class="edge">
<title>Node1&#45;&gt;Node4</title>
<g id="a_edge3_Node000001_Node000004"><a xlink:title=" ">
<path fill="none" stroke="#63b8ff" d="M295.24,-97.3C309.79,-98.77 324.67,-100.29 339,-101.75"/>
<polygon fill="#63b8ff" stroke="#63b8ff" points="295.55,-93.81 285.24,-96.28 294.84,-100.77 295.55,-93.81"/>
</a>
</g>
</g>
<!-- Node5 -->
<g id="Node000005" class="node">
<title>Node5</title>
<g id="a_Node000005"><a xlink:href="class_fifty_one_1_1_pipeline_1_1_core_1_1_exceptions_1_1_pipeline_temporarily_unavailable_exception.html" target="_top" xlink:title="Indicates that pipeline refused to process Data.IFlowData based on the internal state of some flow el...">
<polygon fill="white" stroke="#666666" points="541,-78 321,-78 321,-48 541,-48 541,-78"/>
<text text-anchor="start" x="329" y="-66" font-family="Helvetica,sans-Serif" font-size="10.00">FiftyOne.Pipeline.Core.Exceptions.</text>
<text text-anchor="middle" x="431" y="-55" font-family="Helvetica,sans-Serif" font-size="10.00">PipelineTemporarilyUnavailableException</text>
</a>
</g>
</g>
<!-- Node1&#45;&gt;Node5 -->
<g id="edge4_Node000001_Node000005" class="edge">
<title>Node1&#45;&gt;Node5</title>
<g id="a_edge4_Node000001_Node000005"><a xlink:title=" ">
<path fill="none" stroke="#63b8ff" d="M295.45,-76.68C303.87,-75.83 312.41,-74.96 320.88,-74.1"/>
<polygon fill="#63b8ff" stroke="#63b8ff" points="294.84,-73.23 285.24,-77.72 295.55,-80.19 294.84,-73.23"/>
</a>
</g>
</g>
<!-- Node6 -->
<g id="Node000006" class="node">
<title>Node6</title>
<g id="a_Node000006"><a xlink:href="class_fifty_one_1_1_pipeline_1_1_core_1_1_exceptions_1_1_properties_not_yet_loaded_exception.html" target="_top" xlink:title="Thrown by FlowElements.IFlowElement.Properties to indicate that properties are not available yet but ...">
<polygon fill="white" stroke="#666666" points="523,-30 339,-30 339,0 523,0 523,-30"/>
<text text-anchor="start" x="347" y="-18" font-family="Helvetica,sans-Serif" font-size="10.00">FiftyOne.Pipeline.Core.Exceptions.</text>
<text text-anchor="middle" x="431" y="-7" font-family="Helvetica,sans-Serif" font-size="10.00">PropertiesNotYetLoadedException</text>
</a>
</g>
</g>
<!-- Node1&#45;&gt;Node6 -->
<g id="edge5_Node000001_Node000006" class="edge">
<title>Node1&#45;&gt;Node6</title>
<g id="a_edge5_Node000001_Node000006"><a xlink:title=" ">
<path fill="none" stroke="#63b8ff" d="M239.21,-68.09C263.22,-58.51 293.4,-47.21 321,-39 331.87,-35.77 343.46,-32.76 354.87,-30.04"/>
<polygon fill="#63b8ff" stroke="#63b8ff" points="237.62,-64.95 229.66,-71.94 240.24,-71.45 237.62,-64.95"/>
</a>
</g>
</g>
<!-- Node2 -->
<g id="Node000002" class="node">
<title>Node2</title>
<g id="a_Node000002"><a xlink:title=" ">
<polygon fill="white" stroke="#bfbfbf" points="65,-96.5 0,-96.5 0,-77.5 65,-77.5 65,-96.5"/>
<text text-anchor="middle" x="32.5" y="-84.5" font-family="Helvetica,sans-Serif" font-size="10.00">Exception</text>
</a>
</g>
</g>
<!-- Node2&#45;&gt;Node1 -->
<g id="edge1_Node000001_Node000002" class="edge">
<title>Node2&#45;&gt;Node1</title>
<g id="a_edge1_Node000001_Node000002"><a xlink:title=" ">
<path fill="none" stroke="#63b8ff" d="M75.32,-87C83.34,-87 92.02,-87 100.91,-87"/>
<polygon fill="#63b8ff" stroke="#63b8ff" points="75.19,-83.5 65.19,-87 75.19,-90.5 75.19,-83.5"/>
</a>
</g>
</g>
</g>
</svg>
