<?xml version="1.0" encoding="UTF-8" standalone="no"?>
<!DOCTYPE svg PUBLIC "-//W3C//DTD SVG 1.1//EN"
 "http://www.w3.org/Graphics/SVG/1.1/DTD/svg11.dtd">
<!-- Generated by graphviz version 2.43.0 (0)
 -->
<!-- Title: FiftyOne.Pipeline.Engines.FlowElements.OnPremiseAspectEngineBase&lt; T, TMeta &gt; Pages: 1 -->
<svg width="1790pt" height="170pt"
 viewBox="0.00 0.00 1790.00 170.00" xmlns="http://www.w3.org/2000/svg" xmlns:xlink="http://www.w3.org/1999/xlink">
<g id="graph0" class="graph" transform="scale(1 1) rotate(0) translate(4 166)">
<title>FiftyOne.Pipeline.Engines.FlowElements.OnPremiseAspectEngineBase&lt; T, TMeta &gt;</title>
<!-- Node0 -->
<g id="node1" class="node">
<title>Node0</title>
<g id="a_node1"><a xlink:title="Base class for 51Degrees on&#45;premise aspect engines.">
<polygon fill="#bfbfbf" stroke="black" points="883,-60.5 883,-101.5 1091,-101.5 1091,-60.5 883,-60.5"/>
<text text-anchor="start" x="891" y="-89.5" font-family="Helvetica,sans-Serif" font-size="10.00">FiftyOne.Pipeline.Engines.</text>
<text text-anchor="start" x="891" y="-78.5" font-family="Helvetica,sans-Serif" font-size="10.00">FlowElements.OnPremiseAspectEngine</text>
<text text-anchor="middle" x="987" y="-67.5" font-family="Helvetica,sans-Serif" font-size="10.00">Base&lt; T, TMeta &gt;</text>
</a>
</g>
</g>
<!-- Node9 -->
<g id="node10" class="node">
<title>Node9</title>
<g id="a_node10"><a xlink:href="class_fifty_one_1_1_pipeline_1_1_engines_1_1_flow_elements_1_1_on_premise_aspect_engine_base.html" target="_top" xlink:title=" ">
<polygon fill="none" stroke="black" points="1273.5,-120.5 1273.5,-161.5 1534.5,-161.5 1534.5,-120.5 1273.5,-120.5"/>
<text text-anchor="start" x="1281.5" y="-149.5" font-family="Helvetica,sans-Serif" font-size="10.00">FiftyOne.Pipeline.Engines.</text>
<text text-anchor="start" x="1281.5" y="-138.5" font-family="Helvetica,sans-Serif" font-size="10.00">FlowElements.OnPremiseAspectEngine</text>
<text text-anchor="middle" x="1404" y="-127.5" font-family="Helvetica,sans-Serif" font-size="10.00">Base&lt; IStarSignData, IAspectPropertyMetaData &gt;</text>
</a>
</g>
</g>
<!-- Node0&#45;&gt;Node9 -->
<g id="edge9" class="edge">
<title>Node0&#45;&gt;Node9</title>
<path fill="none" stroke="orange" stroke-dasharray="5,2" d="M1088.94,-103.45C1095.71,-104.72 1102.45,-105.92 1109,-107 1162.61,-115.84 1222.1,-123.18 1273.46,-128.75"/>
<polygon fill="orange" stroke="orange" points="1089.48,-99.99 1079,-101.54 1088.16,-106.86 1089.48,-99.99"/>
<text text-anchor="start" x="1119.5" y="-140" font-family="Helvetica,sans-Serif" font-size="10.00"> &lt; IStarSignData, IAspect</text>
<text text-anchor="middle" x="1181.5" y="-129" font-family="Helvetica,sans-Serif" font-size="10.00">PropertyMetaData &gt;</text>
</g>
<!-- Node11 -->
<g id="node12" class="node">
<title>Node11</title>
<g id="a_node12"><a xlink:href="class_fifty_one_1_1_pipeline_1_1_engines_1_1_flow_elements_1_1_on_premise_aspect_engine_base.html" target="_top" xlink:title=" ">
<polygon fill="none" stroke="black" points="1272,-60.5 1272,-101.5 1536,-101.5 1536,-60.5 1272,-60.5"/>
<text text-anchor="start" x="1280" y="-89.5" font-family="Helvetica,sans-Serif" font-size="10.00">FiftyOne.Pipeline.Engines.</text>
<text text-anchor="start" x="1280" y="-78.5" font-family="Helvetica,sans-Serif" font-size="10.00">FlowElements.OnPremiseAspectEngine</text>
<text text-anchor="middle" x="1404" y="-67.5" font-family="Helvetica,sans-Serif" font-size="10.00">Base&lt; TData, IFiftyOneAspectPropertyMetaData &gt;</text>
</a>
</g>
</g>
<!-- Node0&#45;&gt;Node11 -->
<g id="edge11" class="edge">
<title>Node0&#45;&gt;Node11</title>
<path fill="none" stroke="orange" stroke-dasharray="5,2" d="M1101.18,-81C1153.89,-81 1216.92,-81 1271.71,-81"/>
<polygon fill="orange" stroke="orange" points="1101.12,-77.5 1091.12,-81 1101.12,-84.5 1101.12,-77.5"/>
<text text-anchor="start" x="1118" y="-95" font-family="Helvetica,sans-Serif" font-size="10.00"> &lt; TData, IFiftyOneAspect</text>
<text text-anchor="middle" x="1181.5" y="-84" font-family="Helvetica,sans-Serif" font-size="10.00">PropertyMetaData &gt;</text>
</g>
<!-- Node13 -->
<g id="node14" class="node">
<title>Node13</title>
<g id="a_node14"><a xlink:href="class_fifty_one_1_1_pipeline_1_1_engines_1_1_flow_elements_1_1_on_premise_aspect_engine_base.html" target="_top" xlink:title=" ">
<polygon fill="none" stroke="black" points="1283.5,-0.5 1283.5,-41.5 1524.5,-41.5 1524.5,-0.5 1283.5,-0.5"/>
<text text-anchor="start" x="1291.5" y="-29.5" font-family="Helvetica,sans-Serif" font-size="10.00">FiftyOne.Pipeline.Engines.</text>
<text text-anchor="start" x="1291.5" y="-18.5" font-family="Helvetica,sans-Serif" font-size="10.00">FlowElements.OnPremiseAspectEngine</text>
<text text-anchor="middle" x="1404" y="-7.5" font-family="Helvetica,sans-Serif" font-size="10.00">Base&lt; T, IFiftyOneAspectPropertyMetaData &gt;</text>
</a>
</g>
</g>
<!-- Node0&#45;&gt;Node13 -->
<g id="edge13" class="edge">
<title>Node0&#45;&gt;Node13</title>
<path fill="none" stroke="orange" stroke-dasharray="5,2" d="M1088.94,-58.55C1095.71,-57.28 1102.45,-56.08 1109,-55 1166.03,-45.6 1229.72,-37.89 1283.19,-32.21"/>
<polygon fill="orange" stroke="orange" points="1088.16,-55.14 1079,-60.46 1089.48,-62.01 1088.16,-55.14"/>
<text text-anchor="start" x="1109" y="-69" font-family="Helvetica,sans-Serif" font-size="10.00"> &lt; T, IFiftyOneAspectProperty</text>
<text text-anchor="middle" x="1181.5" y="-58" font-family="Helvetica,sans-Serif" font-size="10.00">MetaData &gt;</text>
</g>
<!-- Node1 -->
<g id="node2" class="node">
<title>Node1</title>
<g id="a_node2"><a xlink:href="class_fifty_one_1_1_pipeline_1_1_engines_1_1_flow_elements_1_1_aspect_engine_base.html" target="_top" xlink:title="Base class for 51Degrees aspect engines.">
<polygon fill="none" stroke="black" points="713,-89 713,-119 840,-119 840,-89 713,-89"/>
<text text-anchor="start" x="721" y="-107" font-family="Helvetica,sans-Serif" font-size="10.00">AspectEngineBase&lt; T,</text>
<text text-anchor="middle" x="776.5" y="-96" font-family="Helvetica,sans-Serif" font-size="10.00"> TMeta &gt;</text>
</a>
</g>
</g>
<!-- Node1&#45;&gt;Node0 -->
<g id="edge1" class="edge">
<title>Node1&#45;&gt;Node0</title>
<path fill="none" stroke="midnightblue" d="M850.09,-95.99C860.72,-94.82 871.84,-93.59 882.94,-92.37"/>
<polygon fill="midnightblue" stroke="midnightblue" points="849.61,-92.52 840.06,-97.1 850.38,-99.48 849.61,-92.52"/>
</g>
<!-- Node2 -->
<g id="node3" class="node">
<title>Node2</title>
<g id="a_node3"><a xlink:href="class_fifty_one_1_1_pipeline_1_1_core_1_1_flow_elements_1_1_flow_element_base.html" target="_top" xlink:title="Abstract base class for Flow Elements.">
<polygon fill="none" stroke="black" points="532,-130 532,-160 657,-160 657,-130 532,-130"/>
<text text-anchor="start" x="540" y="-148" font-family="Helvetica,sans-Serif" font-size="10.00">FlowElementBase&lt; T,</text>
<text text-anchor="middle" x="594.5" y="-137" font-family="Helvetica,sans-Serif" font-size="10.00"> TMeta &gt;</text>
</a>
</g>
</g>
<!-- Node2&#45;&gt;Node1 -->
<g id="edge2" class="edge">
<title>Node2&#45;&gt;Node1</title>
<path fill="none" stroke="midnightblue" d="M667.05,-128.7C682.23,-125.24 698.15,-121.62 712.97,-118.24"/>
<polygon fill="midnightblue" stroke="midnightblue" points="666.17,-125.31 657.19,-130.95 667.72,-132.14 666.17,-125.31"/>
</g>
<!-- Node3 -->
<g id="node4" class="node">
<title>Node3</title>
<g id="a_node4"><a xlink:href="interface_fifty_one_1_1_pipeline_1_1_core_1_1_flow_elements_1_1_i_flow_element.html" target="_top" xlink:title=" ">
<polygon fill="none" stroke="black" points="260.5,-135.5 260.5,-154.5 409.5,-154.5 409.5,-135.5 260.5,-135.5"/>
<text text-anchor="middle" x="335" y="-142.5" font-family="Helvetica,sans-Serif" font-size="10.00">IFlowElement&lt; T, TMeta &gt;</text>
</a>
</g>
</g>
<!-- Node3&#45;&gt;Node2 -->
<g id="edge3" class="edge">
<title>Node3&#45;&gt;Node2</title>
<path fill="none" stroke="midnightblue" d="M419.92,-145C456.39,-145 498.35,-145 531.88,-145"/>
<polygon fill="midnightblue" stroke="midnightblue" points="419.79,-141.5 409.79,-145 419.79,-148.5 419.79,-141.5"/>
</g>
<!-- Node4 -->
<g id="node5" class="node">
<title>Node4</title>
<g id="a_node5"><a xlink:href="interface_fifty_one_1_1_pipeline_1_1_core_1_1_flow_elements_1_1_i_flow_element.html" target="_top" xlink:title="IFlowElement is the basic building block of a pipeline.">
<polygon fill="none" stroke="black" points="0,-130 0,-160 151,-160 151,-130 0,-130"/>
<text text-anchor="start" x="8" y="-148" font-family="Helvetica,sans-Serif" font-size="10.00">FiftyOne.Pipeline.Core.Flow</text>
<text text-anchor="middle" x="75.5" y="-137" font-family="Helvetica,sans-Serif" font-size="10.00">Elements.IFlowElement</text>
</a>
</g>
</g>
<!-- Node4&#45;&gt;Node3 -->
<g id="edge4" class="edge">
<title>Node4&#45;&gt;Node3</title>
<path fill="none" stroke="orange" stroke-dasharray="5,2" d="M161.54,-145C193.48,-145 229.5,-145 260.32,-145"/>
<polygon fill="orange" stroke="orange" points="161.33,-141.5 151.33,-145 161.33,-148.5 161.33,-141.5"/>
<text text-anchor="middle" x="203.5" y="-148" font-family="Helvetica,sans-Serif" font-size="10.00"> &lt; T, TMeta &gt;</text>
</g>
<!-- Node5 -->
<g id="node6" class="node">
<title>Node5</title>
<g id="a_node6"><a xlink:href="interface_fifty_one_1_1_pipeline_1_1_engines_1_1_flow_elements_1_1_i_aspect_engine.html" target="_top" xlink:title=" ">
<polygon fill="none" stroke="black" points="519,-91.5 519,-110.5 670,-110.5 670,-91.5 519,-91.5"/>
<text text-anchor="middle" x="594.5" y="-98.5" font-family="Helvetica,sans-Serif" font-size="10.00">IAspectEngine&lt; T, TMeta &gt;</text>
</a>
</g>
</g>
<!-- Node5&#45;&gt;Node1 -->
<g id="edge5" class="edge">
<title>Node5&#45;&gt;Node1</title>
<path fill="none" stroke="midnightblue" d="M680.08,-102.41C691.09,-102.59 702.21,-102.78 712.78,-102.95"/>
<polygon fill="midnightblue" stroke="midnightblue" points="680.07,-98.91 670.01,-102.24 679.95,-105.91 680.07,-98.91"/>
</g>
<!-- Node6 -->
<g id="node7" class="node">
<title>Node6</title>
<g id="a_node7"><a xlink:href="interface_fifty_one_1_1_pipeline_1_1_engines_1_1_flow_elements_1_1_i_aspect_engine.html" target="_top" xlink:title="Interface representing 51Degrees on&#45;premise aspect engines.">
<polygon fill="none" stroke="black" points="256,-86 256,-116 414,-116 414,-86 256,-86"/>
<text text-anchor="start" x="264" y="-104" font-family="Helvetica,sans-Serif" font-size="10.00">FiftyOne.Pipeline.Engines.</text>
<text text-anchor="middle" x="335" y="-93" font-family="Helvetica,sans-Serif" font-size="10.00">FlowElements.IAspectEngine</text>
</a>
</g>
</g>
<!-- Node6&#45;&gt;Node5 -->
<g id="edge6" class="edge">
<title>Node6&#45;&gt;Node5</title>
<path fill="none" stroke="orange" stroke-dasharray="5,2" d="M424.56,-101C455.2,-101 489.22,-101 518.65,-101"/>
<polygon fill="orange" stroke="orange" points="424.31,-97.5 414.31,-101 424.31,-104.5 424.31,-97.5"/>
<text text-anchor="middle" x="466.5" y="-104" font-family="Helvetica,sans-Serif" font-size="10.00"> &lt; T, TMeta &gt;</text>
</g>
<!-- Node7 -->
<g id="node8" class="node">
<title>Node7</title>
<g id="a_node8"><a xlink:href="interface_fifty_one_1_1_pipeline_1_1_engines_1_1_flow_elements_1_1_i_on_premise_aspect_engine.html" target="_top" xlink:title="Interface for an AspectEngine that processes evidence using one or more local data files.">
<polygon fill="none" stroke="black" points="707,-50.5 707,-69.5 846,-69.5 846,-50.5 707,-50.5"/>
<text text-anchor="middle" x="776.5" y="-57.5" font-family="Helvetica,sans-Serif" font-size="10.00">IOnPremiseAspectEngine</text>
</a>
</g>
</g>
<!-- Node7&#45;&gt;Node0 -->
<g id="edge7" class="edge">
<title>Node7&#45;&gt;Node0</title>
<path fill="none" stroke="midnightblue" d="M856.12,-67.92C864.81,-68.79 873.74,-69.69 882.67,-70.59"/>
<polygon fill="midnightblue" stroke="midnightblue" points="856.36,-64.43 846.06,-66.91 855.66,-71.39 856.36,-64.43"/>
</g>
<!-- Node8 -->
<g id="node9" class="node">
<title>Node8</title>
<g id="a_node9"><a xlink:href="interface_fifty_one_1_1_pipeline_1_1_engines_1_1_flow_elements_1_1_i_aspect_engine.html" target="_top" xlink:title="Interface representing 51Degrees on&#45;premise aspect engines.">
<polygon fill="none" stroke="black" points="551.5,-50.5 551.5,-69.5 637.5,-69.5 637.5,-50.5 551.5,-50.5"/>
<text text-anchor="middle" x="594.5" y="-57.5" font-family="Helvetica,sans-Serif" font-size="10.00">IAspectEngine</text>
</a>
</g>
</g>
<!-- Node8&#45;&gt;Node7 -->
<g id="edge8" class="edge">
<title>Node8&#45;&gt;Node7</title>
<path fill="none" stroke="midnightblue" d="M647.92,-60C666.32,-60 687.27,-60 706.8,-60"/>
<polygon fill="midnightblue" stroke="midnightblue" points="647.7,-56.5 637.7,-60 647.7,-63.5 647.7,-56.5"/>
</g>
<!-- Node10 -->
<g id="node11" class="node">
<title>Node10</title>
<g id="a_node11"><a xlink:href="class_examples_1_1_on_premise_engine_1_1_flow_elements_1_1_simple_on_premise_engine.html" target="_top" xlink:title="[class] [constructor]">
<polygon fill="none" stroke="black" points="1573,-126 1573,-156 1782,-156 1782,-126 1573,-126"/>
<text text-anchor="start" x="1581" y="-144" font-family="Helvetica,sans-Serif" font-size="10.00">Examples.OnPremiseEngine.</text>
<text text-anchor="middle" x="1677.5" y="-133" font-family="Helvetica,sans-Serif" font-size="10.00">FlowElements.SimpleOnPremiseEngine</text>
</a>
</g>
</g>
<!-- Node9&#45;&gt;Node10 -->
<g id="edge10" class="edge">
<title>Node9&#45;&gt;Node10</title>
<path fill="none" stroke="midnightblue" d="M1545,-141C1554.42,-141 1563.81,-141 1572.99,-141"/>
<polygon fill="midnightblue" stroke="midnightblue" points="1544.79,-137.5 1534.79,-141 1544.79,-144.5 1544.79,-137.5"/>
</g>
<!-- Node12 -->
<g id="node13" class="node">
<title>Node12</title>
<g id="a_node13"><a xlink:href="class_fifty_one_1_1_pipeline_1_1_engines_1_1_fifty_one_1_1_flow_elements_1_1_property_keyed_engine.html" target="_top" xlink:title="Base class for engines that use an index of property values to profile ids to populate one or more pr...">
<polygon fill="none" stroke="black" points="1590.5,-60.5 1590.5,-101.5 1764.5,-101.5 1764.5,-60.5 1590.5,-60.5"/>
<text text-anchor="start" x="1598.5" y="-89.5" font-family="Helvetica,sans-Serif" font-size="10.00">FiftyOne.Pipeline.Engines.</text>
<text text-anchor="start" x="1598.5" y="-78.5" font-family="Helvetica,sans-Serif" font-size="10.00">FiftyOne.FlowElements.Property</text>
<text text-anchor="middle" x="1677.5" y="-67.5" font-family="Helvetica,sans-Serif" font-size="10.00">KeyedEngine&lt; TData, TProfile &gt;</text>
</a>
</g>
</g>
<!-- Node11&#45;&gt;Node12 -->
<g id="edge12" class="edge">
<title>Node11&#45;&gt;Node12</title>
<path fill="none" stroke="midnightblue" d="M1546.66,-81C1561.5,-81 1576.24,-81 1590.19,-81"/>
<polygon fill="midnightblue" stroke="midnightblue" points="1546.38,-77.5 1536.38,-81 1546.38,-84.5 1546.38,-77.5"/>
</g>
<!-- Node14 -->
<g id="node15" class="node">
<title>Node14</title>
<g id="a_node15"><a xlink:href="class_fifty_one_1_1_pipeline_1_1_engines_1_1_fifty_one_1_1_flow_elements_1_1_fifty_one_on_premise_aspect_engine_base.html" target="_top" xlink:title="51Degrees specific Engine base class.">
<polygon fill="none" stroke="black" points="1583.5,-0.5 1583.5,-41.5 1771.5,-41.5 1771.5,-0.5 1583.5,-0.5"/>
<text text-anchor="start" x="1591.5" y="-29.5" font-family="Helvetica,sans-Serif" font-size="10.00">FiftyOne.Pipeline.Engines.</text>
<text text-anchor="start" x="1591.5" y="-18.5" font-family="Helvetica,sans-Serif" font-size="10.00">FiftyOne.FlowElements.FiftyOne</text>
<text text-anchor="middle" x="1677.5" y="-7.5" font-family="Helvetica,sans-Serif" font-size="10.00">OnPremiseAspectEngineBase&lt; T &gt;</text>
</a>
</g>
</g>
<!-- Node13&#45;&gt;Node14 -->
<g id="edge14" class="edge">
<title>Node13&#45;&gt;Node14</title>
<path fill="none" stroke="midnightblue" d="M1535.01,-21C1551.33,-21 1567.77,-21 1583.36,-21"/>
<polygon fill="midnightblue" stroke="midnightblue" points="1534.87,-17.5 1524.87,-21 1534.87,-24.5 1534.87,-17.5"/>
</g>
</g>
</svg>
