<?xml version="1.0" encoding="UTF-8" standalone="no"?>
<!DOCTYPE svg PUBLIC "-//W3C//DTD SVG 1.1//EN"
 "http://www.w3.org/Graphics/SVG/1.1/DTD/svg11.dtd">
<!-- Generated by graphviz version 2.43.0 (0)
 -->
<!-- Title: FiftyOne.Pipeline.Engines.FiftyOne.Data.FiftyOneAspectPropertyMetaDataDefault Pages: 1 -->
<svg width="843pt" height="198pt"
 viewBox="0.00 0.00 843.00 197.50" xmlns="http://www.w3.org/2000/svg" xmlns:xlink="http://www.w3.org/1999/xlink">
<g id="graph0" class="graph" transform="scale(1 1) rotate(0) translate(4 193.5)">
<title>FiftyOne.Pipeline.Engines.FiftyOne.Data.FiftyOneAspectPropertyMetaDataDefault</title>
<!-- Node1 -->
<g id="Node000001" class="node">
<title>Node1</title>
<g id="a_Node000001"><a xlink:title="Data class that contains meta&#45;data relating to a specific property.">
<polygon fill="#999999" stroke="#666666" points="835,-131 634,-131 634,-90 835,-90 835,-131"/>
<text text-anchor="start" x="642" y="-119" font-family="Helvetica,sans-Serif" font-size="10.00">FiftyOne.Pipeline.Engines.</text>
<text text-anchor="start" x="642" y="-108" font-family="Helvetica,sans-Serif" font-size="10.00">FiftyOne.Data.FiftyOneAspectProperty</text>
<text text-anchor="middle" x="734.5" y="-97" font-family="Helvetica,sans-Serif" font-size="10.00">MetaDataDefault</text>
</a>
</g>
</g>
<!-- Node2 -->
<g id="Node000002" class="node">
<title>Node2</title>
<g id="a_Node000002"><a xlink:href="class_fifty_one_1_1_pipeline_1_1_engines_1_1_data_1_1_aspect_property_meta_data.html" target="_top" xlink:title="Meta&#45;data relating to properties that are populated by Aspect Engines.">
<polygon fill="white" stroke="#666666" points="578.5,-152.5 413.5,-152.5 413.5,-122.5 578.5,-122.5 578.5,-152.5"/>
<text text-anchor="start" x="421.5" y="-140.5" font-family="Helvetica,sans-Serif" font-size="10.00">FiftyOne.Pipeline.Engines.</text>
<text text-anchor="middle" x="496" y="-129.5" font-family="Helvetica,sans-Serif" font-size="10.00">Data.AspectPropertyMetaData</text>
</a>
</g>
</g>
<!-- Node2&#45;&gt;Node1 -->
<g id="edge1_Node000001_Node000002" class="edge">
<title>Node2&#45;&gt;Node1</title>
<g id="a_edge1_Node000001_Node000002"><a xlink:title=" ">
<path fill="none" stroke="#63b8ff" d="M588.83,-127.02C603.57,-125.33 618.9,-123.58 633.82,-121.88"/>
<polygon fill="#63b8ff" stroke="#63b8ff" points="588.26,-123.56 578.72,-128.17 589.05,-130.51 588.26,-123.56"/>
</a>
</g>
</g>
<!-- Node3 -->
<g id="Node000003" class="node">
<title>Node3</title>
<g id="a_Node000003"><a xlink:href="class_fifty_one_1_1_pipeline_1_1_core_1_1_data_1_1_element_property_meta_data.html" target="_top" xlink:title="Meta&#45;data relating to properties that are populated by Flow Elements.">
<polygon fill="white" stroke="#666666" points="351,-189.5 197,-189.5 197,-159.5 351,-159.5 351,-189.5"/>
<text text-anchor="start" x="205" y="-177.5" font-family="Helvetica,sans-Serif" font-size="10.00">FiftyOne.Pipeline.Core.Data.</text>
<text text-anchor="middle" x="274" y="-166.5" font-family="Helvetica,sans-Serif" font-size="10.00">ElementPropertyMetaData</text>
</a>
</g>
</g>
<!-- Node3&#45;&gt;Node2 -->
<g id="edge2_Node000002_Node000003" class="edge">
<title>Node3&#45;&gt;Node2</title>
<g id="a_edge2_Node000002_Node000003"><a xlink:title=" ">
<path fill="none" stroke="#63b8ff" d="M361.04,-160.03C378.26,-157.13 396.29,-154.1 413.35,-151.23"/>
<polygon fill="#63b8ff" stroke="#63b8ff" points="360.3,-156.6 351.02,-161.71 361.46,-163.51 360.3,-156.6"/>
</a>
</g>
</g>
<!-- Node4 -->
<g id="Node000004" class="node">
<title>Node4</title>
<g id="a_Node000004"><a xlink:href="interface_fifty_one_1_1_pipeline_1_1_core_1_1_data_1_1_i_element_property_meta_data.html" target="_top" xlink:title="Represents meta&#45;data relating to a property that is populated by a IFlowElement instance.">
<polygon fill="white" stroke="#666666" points="154,-165.5 0,-165.5 0,-135.5 154,-135.5 154,-165.5"/>
<text text-anchor="start" x="8" y="-153.5" font-family="Helvetica,sans-Serif" font-size="10.00">FiftyOne.Pipeline.Core.Data.</text>
<text text-anchor="middle" x="77" y="-142.5" font-family="Helvetica,sans-Serif" font-size="10.00">IElementPropertyMetaData</text>
</a>
</g>
</g>
<!-- Node4&#45;&gt;Node3 -->
<g id="edge3_Node000003_Node000004" class="edge">
<title>Node4&#45;&gt;Node3</title>
<g id="a_edge3_Node000003_Node000004"><a xlink:title=" ">
<path fill="none" stroke="#63b8ff" d="M164.49,-161.14C175.26,-162.47 186.22,-163.82 196.82,-165.12"/>
<polygon fill="#63b8ff" stroke="#63b8ff" points="164.58,-157.63 154.23,-159.88 163.73,-164.58 164.58,-157.63"/>
</a>
</g>
</g>
<!-- Node5 -->
<g id="Node000005" class="node">
<title>Node5</title>
<g id="a_Node000005"><a xlink:href="interface_fifty_one_1_1_pipeline_1_1_engines_1_1_data_1_1_i_aspect_property_meta_data.html" target="_top" xlink:title="Represents meta&#45;data relating to a property that is populated by an IAspectEngine instance.">
<polygon fill="white" stroke="#666666" points="358,-141.5 190,-141.5 190,-111.5 358,-111.5 358,-141.5"/>
<text text-anchor="start" x="198" y="-129.5" font-family="Helvetica,sans-Serif" font-size="10.00">FiftyOne.Pipeline.Engines.</text>
<text text-anchor="middle" x="274" y="-118.5" font-family="Helvetica,sans-Serif" font-size="10.00">Data.IAspectPropertyMetaData</text>
</a>
</g>
</g>
<!-- Node4&#45;&gt;Node5 -->
<g id="edge5_Node000005_Node000004" class="edge">
<title>Node4&#45;&gt;Node5</title>
<g id="a_edge5_Node000005_Node000004"><a xlink:title=" ">
<path fill="none" stroke="#63b8ff" d="M164.42,-139.86C172.83,-138.83 181.35,-137.78 189.73,-136.75"/>
<polygon fill="#63b8ff" stroke="#63b8ff" points="163.73,-136.42 154.23,-141.12 164.58,-143.37 163.73,-136.42"/>
</a>
</g>
</g>
<!-- Node5&#45;&gt;Node2 -->
<g id="edge4_Node000002_Node000005" class="edge">
<title>Node5&#45;&gt;Node2</title>
<g id="a_edge4_Node000002_Node000005"><a xlink:title=" ">
<path fill="none" stroke="#63b8ff" d="M368.4,-131.17C383.28,-131.91 398.58,-132.68 413.17,-133.41"/>
<polygon fill="#63b8ff" stroke="#63b8ff" points="368.33,-127.66 358.17,-130.66 367.99,-134.65 368.33,-127.66"/>
</a>
</g>
</g>
<!-- Node6 -->
<g id="Node000006" class="node">
<title>Node6</title>
<g id="a_Node000006"><a xlink:href="interface_fifty_one_1_1_pipeline_1_1_engines_1_1_fifty_one_1_1_data_1_1_i_fifty_one_aspect_property_meta_data.html" target="_top" xlink:title="51Degrees specific meta data.">
<polygon fill="white" stroke="#666666" points="598,-104 394,-104 394,-63 598,-63 598,-104"/>
<text text-anchor="start" x="402" y="-92" font-family="Helvetica,sans-Serif" font-size="10.00">FiftyOne.Pipeline.Engines.</text>
<text text-anchor="start" x="402" y="-81" font-family="Helvetica,sans-Serif" font-size="10.00">FiftyOne.Data.IFiftyOneAspectProperty</text>
<text text-anchor="middle" x="496" y="-70" font-family="Helvetica,sans-Serif" font-size="10.00">MetaData</text>
</a>
</g>
</g>
<!-- Node5&#45;&gt;Node6 -->
<g id="edge7_Node000006_Node000005" class="edge">
<title>Node5&#45;&gt;Node6</title>
<g id="a_edge7_Node000006_Node000005"><a xlink:title=" ">
<path fill="none" stroke="#63b8ff" d="M361.87,-109.52C372.34,-107.47 383.09,-105.37 393.74,-103.29"/>
<polygon fill="#63b8ff" stroke="#63b8ff" points="361.09,-106.11 351.95,-111.46 362.43,-112.98 361.09,-106.11"/>
</a>
</g>
</g>
<!-- Node6&#45;&gt;Node1 -->
<g id="edge6_Node000001_Node000006" class="edge">
<title>Node6&#45;&gt;Node1</title>
<g id="a_edge6_Node000001_Node000006"><a xlink:title=" ">
<path fill="none" stroke="#63b8ff" d="M608.31,-96.21C616.85,-97.18 625.43,-98.16 633.89,-99.13"/>
<polygon fill="#63b8ff" stroke="#63b8ff" points="608.66,-92.72 598.33,-95.07 607.86,-99.68 608.66,-92.72"/>
</a>
</g>
</g>
<!-- Node7 -->
<g id="Node000007" class="node">
<title>Node7</title>
<g id="a_Node000007"><a xlink:title=" ">
<polygon fill="white" stroke="#bfbfbf" points="308,-93 240,-93 240,-74 308,-74 308,-93"/>
<text text-anchor="middle" x="274" y="-81" font-family="Helvetica,sans-Serif" font-size="10.00">IEquatable</text>
</a>
</g>
</g>
<!-- Node7&#45;&gt;Node6 -->
<g id="edge8_Node000006_Node000007" class="edge">
<title>Node7&#45;&gt;Node6</title>
<g id="a_edge8_Node000006_Node000007"><a xlink:title=" ">
<path fill="none" stroke="#63b8ff" d="M318.54,-77.99C340.12,-77.06 367.15,-76.66 393.53,-76.77"/>
<polygon fill="#63b8ff" stroke="#63b8ff" points="318.23,-74.5 308.41,-78.49 318.57,-81.5 318.23,-74.5"/>
</a>
</g>
</g>
<!-- Node7&#45;&gt;Node6 -->
<g id="edge10_Node000006_Node000007" class="edge">
<title>Node7&#45;&gt;Node6</title>
<g id="a_edge10_Node000006_Node000007"><a xlink:title=" ">
<path fill="none" stroke="#63b8ff" d="M318.54,-89.01C340.12,-89.94 367.15,-90.34 393.53,-90.23"/>
<polygon fill="#63b8ff" stroke="#63b8ff" points="318.57,-85.5 308.41,-88.51 318.23,-92.5 318.57,-85.5"/>
</a>
</g>
</g>
<!-- Node8 -->
<g id="Node000008" class="node">
<title>Node8</title>
<g id="a_Node000008"><a xlink:title=" ">
<polygon fill="white" stroke="#bfbfbf" points="313.5,-56 234.5,-56 234.5,-37 313.5,-37 313.5,-56"/>
<text text-anchor="middle" x="274" y="-44" font-family="Helvetica,sans-Serif" font-size="10.00">IComparable</text>
</a>
</g>
</g>
<!-- Node8&#45;&gt;Node6 -->
<g id="edge9_Node000006_Node000008" class="edge">
<title>Node8&#45;&gt;Node6</title>
<g id="a_edge9_Node000006_Node000008"><a xlink:title=" ">
<path fill="none" stroke="#63b8ff" d="M323.65,-54.68C344.3,-58.16 369.2,-62.34 393.53,-66.43"/>
<polygon fill="#63b8ff" stroke="#63b8ff" points="324.01,-51.19 313.57,-52.99 322.85,-58.1 324.01,-51.19"/>
</a>
</g>
</g>
<!-- Node9 -->
<g id="Node000009" class="node">
<title>Node9</title>
<g id="a_Node000009"><a xlink:title=" ">
<polygon fill="white" stroke="#bfbfbf" points="311,-19 237,-19 237,0 311,0 311,-19"/>
<text text-anchor="middle" x="274" y="-7" font-family="Helvetica,sans-Serif" font-size="10.00">IDisposable</text>
</a>
</g>
</g>
<!-- Node9&#45;&gt;Node6 -->
<g id="edge11_Node000006_Node000009" class="edge">
<title>Node9&#45;&gt;Node6</title>
<g id="a_edge11_Node000006_Node000009"><a xlink:title=" ">
<path fill="none" stroke="#63b8ff" d="M321.21,-18.03C333.29,-20.66 346.23,-23.85 358,-27.5 389.54,-37.28 423.93,-51.35 450.37,-62.94"/>
<polygon fill="#63b8ff" stroke="#63b8ff" points="321.81,-14.58 311.31,-15.94 320.37,-21.43 321.81,-14.58"/>
</a>
</g>
</g>
</g>
</svg>
