<?xml version="1.0" encoding="UTF-8" standalone="no"?>
<!DOCTYPE svg PUBLIC "-//W3C//DTD SVG 1.1//EN"
 "http://www.w3.org/Graphics/SVG/1.1/DTD/svg11.dtd">
<!-- Generated by graphviz version 2.43.0 (0)
 -->
<!-- Title: FiftyOne.Pipeline.Engines.FiftyOne.Data.ComponentMetaDataDefault Pages: 1 -->
<svg width="456pt" height="173pt"
 viewBox="0.00 0.00 456.00 173.00" xmlns="http://www.w3.org/2000/svg" xmlns:xlink="http://www.w3.org/1999/xlink">
<g id="graph0" class="graph" transform="scale(1 1) rotate(0) translate(4 169)">
<title>FiftyOne.Pipeline.Engines.FiftyOne.Data.ComponentMetaDataDefault</title>
<!-- Node0 -->
<g id="node1" class="node">
<title>Node0</title>
<g id="a_node1"><a xlink:title="Data class that contains meta&#45;data relating to a specific component.">
<polygon fill="#bfbfbf" stroke="black" points="173.5,-0.5 173.5,-41.5 364.5,-41.5 364.5,-0.5 173.5,-0.5"/>
<text text-anchor="start" x="181.5" y="-29.5" font-family="Helvetica,sans-Serif" font-size="10.00">FiftyOne.Pipeline.Engines.</text>
<text text-anchor="start" x="181.5" y="-18.5" font-family="Helvetica,sans-Serif" font-size="10.00">FiftyOne.Data.ComponentMetaData</text>
<text text-anchor="middle" x="269" y="-7.5" font-family="Helvetica,sans-Serif" font-size="10.00">Default</text>
</a>
</g>
</g>
<!-- Node1 -->
<g id="node2" class="node">
<title>Node1</title>
<g id="a_node2"><a xlink:href="interface_fifty_one_1_1_pipeline_1_1_engines_1_1_fifty_one_1_1_data_1_1_i_component_meta_data.html" target="_top" xlink:title="Meta data relating to a component of an Engine&#39;s results e.g.">
<polygon fill="none" stroke="black" points="207,-78.5 207,-97.5 331,-97.5 331,-78.5 207,-78.5"/>
<text text-anchor="middle" x="269" y="-85.5" font-family="Helvetica,sans-Serif" font-size="10.00">IComponentMetaData</text>
</a>
</g>
</g>
<!-- Node1&#45;&gt;Node0 -->
<g id="edge1" class="edge">
<title>Node1&#45;&gt;Node0</title>
<path fill="none" stroke="midnightblue" d="M269,-68.04C269,-59.71 269,-49.94 269,-41.54"/>
<polygon fill="midnightblue" stroke="midnightblue" points="265.5,-68.23 269,-78.23 272.5,-68.23 265.5,-68.23"/>
</g>
<!-- Node2 -->
<g id="node3" class="node">
<title>Node2</title>
<g id="a_node3"><a xlink:title=" ">
<polygon fill="none" stroke="#bfbfbf" points="0,-134.5 0,-164.5 164,-164.5 164,-134.5 0,-134.5"/>
<text text-anchor="start" x="8" y="-152.5" font-family="Helvetica,sans-Serif" font-size="10.00">IEquatable&lt; IComponentMeta</text>
<text text-anchor="middle" x="82" y="-141.5" font-family="Helvetica,sans-Serif" font-size="10.00">Data &gt;</text>
</a>
</g>
</g>
<!-- Node2&#45;&gt;Node1 -->
<g id="edge2" class="edge">
<title>Node2&#45;&gt;Node1</title>
<path fill="none" stroke="midnightblue" d="M135.87,-131.36C170.65,-120.29 214.42,-106.37 242.06,-97.57"/>
<polygon fill="midnightblue" stroke="midnightblue" points="134.78,-128.03 126.32,-134.4 136.91,-134.7 134.78,-128.03"/>
</g>
<!-- Node3 -->
<g id="node4" class="node">
<title>Node3</title>
<g id="a_node4"><a xlink:title=" ">
<polygon fill="none" stroke="#bfbfbf" points="182,-134.5 182,-164.5 356,-164.5 356,-134.5 182,-134.5"/>
<text text-anchor="start" x="190" y="-152.5" font-family="Helvetica,sans-Serif" font-size="10.00">IComparable&lt; IComponentMeta</text>
<text text-anchor="middle" x="269" y="-141.5" font-family="Helvetica,sans-Serif" font-size="10.00">Data &gt;</text>
</a>
</g>
</g>
<!-- Node3&#45;&gt;Node1 -->
<g id="edge3" class="edge">
<title>Node3&#45;&gt;Node1</title>
<path fill="none" stroke="midnightblue" d="M269,-124.29C269,-114.86 269,-104.65 269,-97.66"/>
<polygon fill="midnightblue" stroke="midnightblue" points="265.5,-124.4 269,-134.4 272.5,-124.4 265.5,-124.4"/>
</g>
<!-- Node4 -->
<g id="node5" class="node">
<title>Node4</title>
<g id="a_node5"><a xlink:title=" ">
<polygon fill="none" stroke="#bfbfbf" points="374,-140 374,-159 448,-159 448,-140 374,-140"/>
<text text-anchor="middle" x="411" y="-147" font-family="Helvetica,sans-Serif" font-size="10.00">IDisposable</text>
</a>
</g>
</g>
<!-- Node4&#45;&gt;Node1 -->
<g id="edge4" class="edge">
<title>Node4&#45;&gt;Node1</title>
<path fill="none" stroke="midnightblue" d="M381.12,-135.98C353.54,-124.42 313.33,-107.58 289.31,-97.51"/>
<polygon fill="midnightblue" stroke="midnightblue" points="380.08,-139.34 390.65,-139.98 382.78,-132.88 380.08,-139.34"/>
</g>
</g>
</svg>
