<?xml version="1.0" encoding="UTF-8" standalone="no"?>
<!DOCTYPE svg PUBLIC "-//W3C//DTD SVG 1.1//EN"
 "http://www.w3.org/Graphics/SVG/1.1/DTD/svg11.dtd">
<!-- Generated by graphviz version 2.43.0 (0)
 -->
<!-- Title: FiftyOne.Pipeline.Core.Data.IData Pages: 1 -->
<svg width="1026pt" height="652pt"
 viewBox="0.00 0.00 1026.00 652.00" xmlns="http://www.w3.org/2000/svg" xmlns:xlink="http://www.w3.org/1999/xlink">
<g id="graph0" class="graph" transform="scale(1 1) rotate(0) translate(4 648)">
<title>FiftyOne.Pipeline.Core.Data.IData</title>
<!-- Node1 -->
<g id="Node000001" class="node">
<title>Node1</title>
<g id="a_Node000001"><a xlink:title="Represents property values.">
<polygon fill="#999999" stroke="#666666" points="154,-186 0,-186 0,-156 154,-156 154,-186"/>
<text text-anchor="start" x="8" y="-174" font-family="Helvetica,sans-Serif" font-size="10.00">FiftyOne.Pipeline.Core.Data.</text>
<text text-anchor="middle" x="77" y="-163" font-family="Helvetica,sans-Serif" font-size="10.00">IData</text>
</a>
</g>
</g>
<!-- Node2 -->
<g id="Node000002" class="node">
<title>Node2</title>
<g id="a_Node000002"><a xlink:href="class_fifty_one_1_1_pipeline_1_1_core_1_1_data_1_1_data_base.html" target="_top" xlink:title="This class stores data values as key/value pairs where the key is a string and the value can be any t...">
<polygon fill="white" stroke="#666666" points="344,-186 190,-186 190,-156 344,-156 344,-186"/>
<text text-anchor="start" x="198" y="-174" font-family="Helvetica,sans-Serif" font-size="10.00">FiftyOne.Pipeline.Core.Data.</text>
<text text-anchor="middle" x="267" y="-163" font-family="Helvetica,sans-Serif" font-size="10.00">DataBase</text>
</a>
</g>
</g>
<!-- Node1&#45;&gt;Node2 -->
<g id="edge1_Node000001_Node000002" class="edge">
<title>Node1&#45;&gt;Node2</title>
<g id="a_edge1_Node000001_Node000002"><a xlink:title=" ">
<path fill="none" stroke="#63b8ff" d="M164.42,-171C172.86,-171 181.37,-171 189.7,-171"/>
<polygon fill="#63b8ff" stroke="#63b8ff" points="164.2,-167.5 154.2,-171 164.2,-174.5 164.2,-167.5"/>
</a>
</g>
</g>
<!-- Node17 -->
<g id="Node000017" class="node">
<title>Node17</title>
<g id="a_Node000017"><a xlink:href="interface_fifty_one_1_1_pipeline_1_1_core_1_1_data_1_1_i_element_data.html" target="_top" xlink:title="Represents property values that have been determined by a specific FlowElement based on the supplied ...">
<polygon fill="white" stroke="#666666" points="344,-270 190,-270 190,-240 344,-240 344,-270"/>
<text text-anchor="start" x="198" y="-258" font-family="Helvetica,sans-Serif" font-size="10.00">FiftyOne.Pipeline.Core.Data.</text>
<text text-anchor="middle" x="267" y="-247" font-family="Helvetica,sans-Serif" font-size="10.00">IElementData</text>
</a>
</g>
</g>
<!-- Node1&#45;&gt;Node17 -->
<g id="edge16_Node000001_Node000017" class="edge">
<title>Node1&#45;&gt;Node17</title>
<g id="a_edge16_Node000001_Node000017"><a xlink:title=" ">
<path fill="none" stroke="#63b8ff" d="M120.79,-190.12C154.62,-205.23 201.17,-226.03 232.36,-239.97"/>
<polygon fill="#63b8ff" stroke="#63b8ff" points="122.17,-186.9 111.61,-186.02 119.31,-193.29 122.17,-186.9"/>
</a>
</g>
</g>
<!-- Node30 -->
<g id="Node000030" class="node">
<title>Node30</title>
<g id="a_Node000030"><a xlink:href="interface_fifty_one_1_1_pipeline_1_1_core_1_1_data_1_1_i_evidence.html" target="_top" xlink:title="Interface to the evidence that is passed in to a Pipeline as part of a FlowData object See the Specif...">
<polygon fill="white" stroke="#666666" points="344,-66 190,-66 190,-36 344,-36 344,-66"/>
<text text-anchor="start" x="198" y="-54" font-family="Helvetica,sans-Serif" font-size="10.00">FiftyOne.Pipeline.Core.Data.</text>
<text text-anchor="middle" x="267" y="-43" font-family="Helvetica,sans-Serif" font-size="10.00">IEvidence</text>
</a>
</g>
</g>
<!-- Node1&#45;&gt;Node30 -->
<g id="edge41_Node000001_Node000030" class="edge">
<title>Node1&#45;&gt;Node30</title>
<g id="a_edge41_Node000001_Node000030"><a xlink:title=" ">
<path fill="none" stroke="#63b8ff" d="M110.37,-150.34C147.94,-126.36 209.01,-87.38 242.38,-66.07"/>
<polygon fill="#63b8ff" stroke="#63b8ff" points="108.36,-147.47 101.81,-155.8 112.12,-153.37 108.36,-147.47"/>
</a>
</g>
</g>
<!-- Node3 -->
<g id="Node000003" class="node">
<title>Node3</title>
<g id="a_Node000003"><a xlink:href="class_fifty_one_1_1_pipeline_1_1_core_1_1_data_1_1_element_data_base.html" target="_top" xlink:title="This class stores property values that have been determined by a specific FlowElement based on the su...">
<polygon fill="white" stroke="#666666" points="547.5,-270 393.5,-270 393.5,-240 547.5,-240 547.5,-270"/>
<text text-anchor="start" x="401.5" y="-258" font-family="Helvetica,sans-Serif" font-size="10.00">FiftyOne.Pipeline.Core.Data.</text>
<text text-anchor="middle" x="470.5" y="-247" font-family="Helvetica,sans-Serif" font-size="10.00">ElementDataBase</text>
</a>
</g>
</g>
<!-- Node2&#45;&gt;Node3 -->
<g id="edge2_Node000002_Node000003" class="edge">
<title>Node2&#45;&gt;Node3</title>
<g id="a_edge2_Node000002_Node000003"><a xlink:title=" ">
<path fill="none" stroke="#63b8ff" d="M300.97,-191.27C322.79,-204.01 352.36,-220.06 380,-231 388.23,-234.26 397.05,-237.22 405.83,-239.87"/>
<polygon fill="#63b8ff" stroke="#63b8ff" points="302.52,-188.11 292.13,-186.03 298.95,-194.14 302.52,-188.11"/>
</a>
</g>
</g>
<!-- Node16 -->
<g id="Node000016" class="node">
<title>Node16</title>
<g id="a_Node000016"><a xlink:href="class_fifty_one_1_1_pipeline_1_1_core_1_1_data_1_1_evidence.html" target="_top" xlink:title="This class contains the evidence that is passed in to a Pipeline as part of a FlowData object See the...">
<polygon fill="white" stroke="#666666" points="547.5,-30 393.5,-30 393.5,0 547.5,0 547.5,-30"/>
<text text-anchor="start" x="401.5" y="-18" font-family="Helvetica,sans-Serif" font-size="10.00">FiftyOne.Pipeline.Core.Data.</text>
<text text-anchor="middle" x="470.5" y="-7" font-family="Helvetica,sans-Serif" font-size="10.00">Evidence</text>
</a>
</g>
</g>
<!-- Node2&#45;&gt;Node16 -->
<g id="edge15_Node000002_Node000016" class="edge">
<title>Node2&#45;&gt;Node16</title>
<g id="a_edge15_Node000002_Node000016"><a xlink:title=" ">
<path fill="none" stroke="#63b8ff" d="M286.28,-147.98C314.91,-112.17 368.25,-46.44 380,-39 385.44,-35.56 391.36,-32.6 397.48,-30.07"/>
<polygon fill="#63b8ff" stroke="#63b8ff" points="283.41,-145.97 279.91,-155.97 288.88,-150.33 283.41,-145.97"/>
</a>
</g>
</g>
<!-- Node4 -->
<g id="Node000004" class="node">
<title>Node4</title>
<g id="a_Node000004"><a xlink:title=" ">
<polygon fill="white" stroke="#666666" points="796.5,-126 624.5,-126 624.5,-96 796.5,-96 796.5,-126"/>
<text text-anchor="start" x="632.5" y="-114" font-family="Helvetica,sans-Serif" font-size="10.00">Examples.CustomFlowElement.</text>
<text text-anchor="middle" x="710.5" y="-103" font-family="Helvetica,sans-Serif" font-size="10.00">Data.StarSignData</text>
</a>
</g>
</g>
<!-- Node3&#45;&gt;Node4 -->
<g id="edge3_Node000003_Node000004" class="edge">
<title>Node3&#45;&gt;Node4</title>
<g id="a_edge3_Node000003_Node000004"><a xlink:title=" ">
<path fill="none" stroke="#63b8ff" d="M556.24,-234.91C557.89,-233.68 559.48,-232.38 561,-231 594.74,-200.37 562.48,-164.74 597,-135 604.94,-128.16 614.36,-123.11 624.31,-119.41"/>
<polygon fill="#63b8ff" stroke="#63b8ff" points="554.1,-232.12 547.55,-240.45 557.86,-238.03 554.1,-232.12"/>
</a>
</g>
</g>
<!-- Node5 -->
<g id="Node000005" class="node">
<title>Node5</title>
<g id="a_Node000005"><a xlink:href="class_fifty_one_1_1_pipeline_1_1_engines_1_1_data_1_1_aspect_data_base.html" target="_top" xlink:title="Base class for element data instances that are generated by an IAspectEngine.">
<polygon fill="white" stroke="#666666" points="782,-500 639,-500 639,-470 782,-470 782,-500"/>
<text text-anchor="start" x="647" y="-488" font-family="Helvetica,sans-Serif" font-size="10.00">FiftyOne.Pipeline.Engines.</text>
<text text-anchor="middle" x="710.5" y="-477" font-family="Helvetica,sans-Serif" font-size="10.00">Data.AspectDataBase</text>
</a>
</g>
</g>
<!-- Node3&#45;&gt;Node5 -->
<g id="edge4_Node000003_Node000005" class="edge">
<title>Node3&#45;&gt;Node5</title>
<g id="a_edge4_Node000003_Node000005"><a xlink:title=" ">
<path fill="none" stroke="#63b8ff" d="M556.03,-275.27C557.78,-276.74 559.44,-278.32 561,-280 616.75,-340.16 539.41,-402.6 597,-461 608.15,-472.3 623.22,-478.9 638.71,-482.63"/>
<polygon fill="#63b8ff" stroke="#63b8ff" points="558.04,-272.41 547.86,-269.47 553.98,-278.11 558.04,-272.41"/>
</a>
</g>
</g>
<!-- Node8 -->
<g id="Node000008" class="node">
<title>Node8</title>
<g id="a_Node000008"><a xlink:href="class_fifty_one_1_1_pipeline_1_1_engines_1_1_fifty_one_1_1_data_1_1_set_headers_data.html" target="_top" xlink:title="Element data instance for SetHeadersElement See the Specification.">
<polygon fill="white" stroke="#666666" points="793.5,-78 627.5,-78 627.5,-48 793.5,-48 793.5,-78"/>
<text text-anchor="start" x="635.5" y="-66" font-family="Helvetica,sans-Serif" font-size="10.00">FiftyOne.Pipeline.Engines.</text>
<text text-anchor="middle" x="710.5" y="-55" font-family="Helvetica,sans-Serif" font-size="10.00">FiftyOne.Data.SetHeadersData</text>
</a>
</g>
</g>
<!-- Node3&#45;&gt;Node8 -->
<g id="edge7_Node000003_Node000008" class="edge">
<title>Node3&#45;&gt;Node8</title>
<g id="a_edge7_Node000003_Node000008"><a xlink:title=" ">
<path fill="none" stroke="#63b8ff" d="M555.91,-235.58C557.69,-234.16 559.4,-232.63 561,-231 607.25,-183.96 549.55,-132.83 597,-87 605.48,-78.81 616.02,-73.13 627.23,-69.22"/>
<polygon fill="#63b8ff" stroke="#63b8ff" points="553.93,-232.69 547.61,-241.2 557.86,-238.49 553.93,-232.69"/>
</a>
</g>
</g>
<!-- Node9 -->
<g id="Node000009" class="node">
<title>Node9</title>
<g id="a_Node000009"><a xlink:href="class_fifty_one_1_1_pipeline_1_1_ip_splitter_1_1_split_ip_data.html" target="_top" xlink:title=" ">
<polygon fill="white" stroke="#bfbfbf" points="785,-452 636,-452 636,-422 785,-422 785,-452"/>
<text text-anchor="start" x="644" y="-440" font-family="Helvetica,sans-Serif" font-size="10.00">FiftyOne.Pipeline.IpSplitter.</text>
<text text-anchor="middle" x="710.5" y="-429" font-family="Helvetica,sans-Serif" font-size="10.00">SplitIpData</text>
</a>
</g>
</g>
<!-- Node3&#45;&gt;Node9 -->
<g id="edge8_Node000003_Node000009" class="edge">
<title>Node3&#45;&gt;Node9</title>
<g id="a_edge8_Node000003_Node000009"><a xlink:title=" ">
<path fill="none" stroke="#63b8ff" d="M555.88,-275.42C557.67,-276.85 559.38,-278.37 561,-280 604.13,-323.48 552.54,-370.89 597,-413 607.66,-423.09 621.47,-429.37 635.74,-433.19"/>
<polygon fill="#63b8ff" stroke="#63b8ff" points="557.79,-272.48 547.55,-269.76 553.86,-278.28 557.79,-272.48"/>
</a>
</g>
</g>
<!-- Node10 -->
<g id="Node000010" class="node">
<title>Node10</title>
<g id="a_Node000010"><a xlink:href="class_fifty_one_1_1_pipeline_1_1_java_script_builder_1_1_data_1_1_java_script_builder_element_data.html" target="_top" xlink:title="The IElementData class for JavaScriptBuilderElement.">
<polygon fill="white" stroke="#666666" points="824,-404 597,-404 597,-374 824,-374 824,-404"/>
<text text-anchor="start" x="605" y="-392" font-family="Helvetica,sans-Serif" font-size="10.00">FiftyOne.Pipeline.JavaScript</text>
<text text-anchor="middle" x="710.5" y="-381" font-family="Helvetica,sans-Serif" font-size="10.00">Builder.Data.JavaScriptBuilderElementData</text>
</a>
</g>
</g>
<!-- Node3&#45;&gt;Node10 -->
<g id="edge9_Node000003_Node000010" class="edge">
<title>Node3&#45;&gt;Node10</title>
<g id="a_edge9_Node000003_Node000010"><a xlink:title=" ">
<path fill="none" stroke="#63b8ff" d="M555.43,-275.61C557.37,-276.98 559.23,-278.44 561,-280 591.81,-307.09 565.36,-338.88 597,-365 601.16,-368.43 605.69,-371.41 610.47,-373.99"/>
<polygon fill="#63b8ff" stroke="#63b8ff" points="556.88,-272.39 546.52,-270.16 553.23,-278.36 556.88,-272.39"/>
</a>
</g>
</g>
<!-- Node11 -->
<g id="Node000011" class="node">
<title>Node11</title>
<g id="a_Node000011"><a xlink:href="class_fifty_one_1_1_pipeline_1_1_json_builder_1_1_data_1_1_json_builder_element_data.html" target="_top" xlink:title="JsonBuilderElement data class.">
<polygon fill="white" stroke="#666666" points="791,-356 630,-356 630,-326 791,-326 791,-356"/>
<text text-anchor="start" x="638" y="-344" font-family="Helvetica,sans-Serif" font-size="10.00">FiftyOne.Pipeline.JsonBuilder.</text>
<text text-anchor="middle" x="710.5" y="-333" font-family="Helvetica,sans-Serif" font-size="10.00">Data.JsonBuilderElementData</text>
</a>
</g>
</g>
<!-- Node3&#45;&gt;Node11 -->
<g id="edge10_Node000003_Node000011" class="edge">
<title>Node3&#45;&gt;Node11</title>
<g id="a_edge10_Node000003_Node000011"><a xlink:title=" ">
<path fill="none" stroke="#63b8ff" d="M549.49,-274C553.47,-275.83 557.33,-277.82 561,-280 580.73,-291.71 576.92,-305.91 597,-317 607.14,-322.6 618.46,-326.89 629.9,-330.19"/>
<polygon fill="#63b8ff" stroke="#63b8ff" points="550.6,-270.67 540.02,-270.04 547.89,-277.13 550.6,-270.67"/>
</a>
</g>
</g>
<!-- Node12 -->
<g id="Node000012" class="node">
<title>Node12</title>
<g id="a_Node000012"><a xlink:href="class_fifty_one_1_1_pipeline_1_1_math_1_1_math_data.html" target="_top" xlink:title=" ">
<polygon fill="white" stroke="#bfbfbf" points="799.5,-307.5 621.5,-307.5 621.5,-288.5 799.5,-288.5 799.5,-307.5"/>
<text text-anchor="middle" x="710.5" y="-295.5" font-family="Helvetica,sans-Serif" font-size="10.00">FiftyOne.Pipeline.Math.MathData</text>
</a>
</g>
</g>
<!-- Node3&#45;&gt;Node12 -->
<g id="edge11_Node000003_Node000012" class="edge">
<title>Node3&#45;&gt;Node12</title>
<g id="a_edge11_Node000003_Node000012"><a xlink:title=" ">
<path fill="none" stroke="#63b8ff" d="M557.75,-271.75C570.89,-274.23 584.3,-276.71 597,-279 614.74,-282.19 634.08,-285.52 651.65,-288.48"/>
<polygon fill="#63b8ff" stroke="#63b8ff" points="558.25,-268.28 547.77,-269.86 556.95,-275.16 558.25,-268.28"/>
</a>
</g>
</g>
<!-- Node13 -->
<g id="Node000013" class="node">
<title>Node13</title>
<g id="a_Node000013"><a xlink:href="class_fifty_one_1_1_pipeline_1_1_translation_1_1_data_1_1_translation_data.html" target="_top" xlink:title="Data object populated by FlowElements.TranslationEngine.">
<polygon fill="white" stroke="#666666" points="789.5,-222 631.5,-222 631.5,-192 789.5,-192 789.5,-222"/>
<text text-anchor="start" x="639.5" y="-210" font-family="Helvetica,sans-Serif" font-size="10.00">FiftyOne.Pipeline.Translation.</text>
<text text-anchor="middle" x="710.5" y="-199" font-family="Helvetica,sans-Serif" font-size="10.00">Data.TranslationData</text>
</a>
</g>
</g>
<!-- Node3&#45;&gt;Node13 -->
<g id="edge12_Node000003_Node000013" class="edge">
<title>Node3&#45;&gt;Node13</title>
<g id="a_edge12_Node000003_Node000013"><a xlink:title=" ">
<path fill="none" stroke="#63b8ff" d="M556.27,-237.9C582.02,-232.71 610.1,-227.05 635.11,-222"/>
<polygon fill="#63b8ff" stroke="#63b8ff" points="555.26,-234.54 546.15,-239.94 556.65,-241.4 555.26,-234.54"/>
</a>
</g>
</g>
<!-- Node14 -->
<g id="Node000014" class="node">
<title>Node14</title>
<g id="a_Node000014"><a xlink:href="class_fifty_one_1_1_pipeline_1_1_translation_1_1_tests_1_1_evidence_copy_data.html" target="_top" xlink:title="Data type for the EvidenceCopyElement.">
<polygon fill="white" stroke="#666666" points="789.5,-270 631.5,-270 631.5,-240 789.5,-240 789.5,-270"/>
<text text-anchor="start" x="639.5" y="-258" font-family="Helvetica,sans-Serif" font-size="10.00">FiftyOne.Pipeline.Translation.</text>
<text text-anchor="middle" x="710.5" y="-247" font-family="Helvetica,sans-Serif" font-size="10.00">Tests.EvidenceCopyData</text>
</a>
</g>
</g>
<!-- Node3&#45;&gt;Node14 -->
<g id="edge13_Node000003_Node000014" class="edge">
<title>Node3&#45;&gt;Node14</title>
<g id="a_edge13_Node000003_Node000014"><a xlink:title=" ">
<path fill="none" stroke="#63b8ff" d="M557.92,-255C581.87,-255 607.73,-255 631.19,-255"/>
<polygon fill="#63b8ff" stroke="#63b8ff" points="557.79,-251.5 547.79,-255 557.79,-258.5 557.79,-251.5"/>
</a>
</g>
</g>
<!-- Node15 -->
<g id="Node000015" class="node">
<title>Node15</title>
<g id="a_Node000015"><a xlink:title=" ">
<polygon fill="white" stroke="#666666" points="782,-174 639,-174 639,-144 782,-144 782,-174"/>
<text text-anchor="start" x="647" y="-162" font-family="Helvetica,sans-Serif" font-size="10.00">SimpleClientSideElement.</text>
<text text-anchor="middle" x="710.5" y="-151" font-family="Helvetica,sans-Serif" font-size="10.00">Data.StarSignData</text>
</a>
</g>
</g>
<!-- Node3&#45;&gt;Node15 -->
<g id="edge14_Node000003_Node000015" class="edge">
<title>Node3&#45;&gt;Node15</title>
<g id="a_edge14_Node000003_Node000015"><a xlink:title=" ">
<path fill="none" stroke="#63b8ff" d="M553.85,-235.36C556.31,-234 558.71,-232.55 561,-231 583.09,-216.06 574.53,-197.36 597,-183 609.54,-174.99 624.3,-169.61 638.94,-166"/>
<polygon fill="#63b8ff" stroke="#63b8ff" points="552.09,-232.33 544.65,-239.88 555.17,-238.61 552.09,-232.33"/>
</a>
</g>
</g>
<!-- Node6 -->
<g id="Node000006" class="node">
<title>Node6</title>
<g id="a_Node000006"><a xlink:title=" ">
<polygon fill="white" stroke="#666666" points="1018,-608 860,-608 860,-578 1018,-578 1018,-608"/>
<text text-anchor="start" x="868" y="-596" font-family="Helvetica,sans-Serif" font-size="10.00">Examples.CloudEngine.Data.</text>
<text text-anchor="middle" x="939" y="-585" font-family="Helvetica,sans-Serif" font-size="10.00">StarSignData</text>
</a>
</g>
</g>
<!-- Node5&#45;&gt;Node6 -->
<g id="edge5_Node000005_Node000006" class="edge">
<title>Node5&#45;&gt;Node6</title>
<g id="a_edge5_Node000005_Node000006"><a xlink:title=" ">
<path fill="none" stroke="#63b8ff" d="M792.28,-497.86C803.18,-500.85 814.03,-504.52 824,-509 834.31,-513.64 888.69,-555 918.47,-577.9"/>
<polygon fill="#63b8ff" stroke="#63b8ff" points="792.84,-494.39 782.28,-495.3 791.1,-501.17 792.84,-494.39"/>
</a>
</g>
</g>
<!-- Node7 -->
<g id="Node000007" class="node">
<title>Node7</title>
<g id="a_Node000007"><a xlink:title=" ">
<polygon fill="white" stroke="#666666" points="1017.5,-524 860.5,-524 860.5,-494 1017.5,-494 1017.5,-524"/>
<text text-anchor="start" x="868.5" y="-512" font-family="Helvetica,sans-Serif" font-size="10.00">Examples.OnPremiseEngine.</text>
<text text-anchor="middle" x="939" y="-501" font-family="Helvetica,sans-Serif" font-size="10.00">Data.StarSignData</text>
</a>
</g>
</g>
<!-- Node5&#45;&gt;Node7 -->
<g id="edge6_Node000005_Node000007" class="edge">
<title>Node5&#45;&gt;Node7</title>
<g id="a_edge6_Node000005_Node000007"><a xlink:title=" ">
<path fill="none" stroke="#63b8ff" d="M792.27,-493.56C814.41,-495.9 838.36,-498.44 860.33,-500.77"/>
<polygon fill="#63b8ff" stroke="#63b8ff" points="792.55,-490.07 782.23,-492.5 791.81,-497.03 792.55,-490.07"/>
</a>
</g>
</g>
<!-- Node17&#45;&gt;Node3 -->
<g id="edge19_Node000017_Node000003" class="edge">
<title>Node17&#45;&gt;Node3</title>
<g id="a_edge19_Node000017_Node000003"><a xlink:title=" ">
<path fill="none" stroke="#63b8ff" d="M354.44,-255C367.33,-255 380.55,-255 393.21,-255"/>
<polygon fill="#63b8ff" stroke="#63b8ff" points="354.18,-251.5 344.18,-255 354.18,-258.5 354.18,-251.5"/>
</a>
</g>
</g>
<!-- Node18 -->
<g id="Node000018" class="node">
<title>Node18</title>
<g id="a_Node000018"><a xlink:href="interface_examples_1_1_custom_flow_element_1_1_data_1_1_i_star_sign_data.html" target="_top" xlink:title=" ">
<polygon fill="white" stroke="#bfbfbf" points="556.5,-126 384.5,-126 384.5,-96 556.5,-96 556.5,-126"/>
<text text-anchor="start" x="392.5" y="-114" font-family="Helvetica,sans-Serif" font-size="10.00">Examples.CustomFlowElement.</text>
<text text-anchor="middle" x="470.5" y="-103" font-family="Helvetica,sans-Serif" font-size="10.00">Data.IStarSignData</text>
</a>
</g>
</g>
<!-- Node17&#45;&gt;Node18 -->
<g id="edge17_Node000017_Node000018" class="edge">
<title>Node17&#45;&gt;Node18</title>
<g id="a_edge17_Node000017_Node000018"><a xlink:title=" ">
<path fill="none" stroke="#63b8ff" d="M299.7,-233.98C314.25,-223.38 331.1,-209.67 344,-195 364.54,-171.65 355.17,-153.73 380,-135 384.5,-131.61 389.43,-128.7 394.61,-126.2"/>
<polygon fill="#63b8ff" stroke="#63b8ff" points="297.57,-231.21 291.44,-239.85 301.62,-236.91 297.57,-231.21"/>
</a>
</g>
</g>
<!-- Node19 -->
<g id="Node000019" class="node">
<title>Node19</title>
<g id="a_Node000019"><a xlink:href="interface_fifty_one_1_1_pipeline_1_1_engines_1_1_data_1_1_i_aspect_data.html" target="_top" xlink:title="Represents an ElementData instance that is generated by an IAspectEngine.">
<polygon fill="white" stroke="#666666" points="542,-548 399,-548 399,-518 542,-518 542,-548"/>
<text text-anchor="start" x="407" y="-536" font-family="Helvetica,sans-Serif" font-size="10.00">FiftyOne.Pipeline.Engines.</text>
<text text-anchor="middle" x="470.5" y="-525" font-family="Helvetica,sans-Serif" font-size="10.00">Data.IAspectData</text>
</a>
</g>
</g>
<!-- Node17&#45;&gt;Node19 -->
<g id="edge20_Node000017_Node000019" class="edge">
<title>Node17&#45;&gt;Node19</title>
<g id="a_edge20_Node000017_Node000019"><a xlink:title=" ">
<path fill="none" stroke="#63b8ff" d="M276.03,-279.69C290.99,-322.81 326.55,-412.96 380,-473 396.67,-491.72 420.41,-507.28 439.25,-517.86"/>
<polygon fill="#63b8ff" stroke="#63b8ff" points="279.28,-278.37 272.75,-270.03 272.65,-280.62 279.28,-278.37"/>
</a>
</g>
</g>
<!-- Node23 -->
<g id="Node000023" class="node">
<title>Node23</title>
<g id="a_Node000023"><a xlink:href="interface_fifty_one_1_1_pipeline_1_1_engines_1_1_fifty_one_1_1_data_1_1_i_set_headers_data.html" target="_top" xlink:title="The IElementData interface for SetHeadersElement.">
<polygon fill="white" stroke="#666666" points="555,-78 386,-78 386,-48 555,-48 555,-78"/>
<text text-anchor="start" x="394" y="-66" font-family="Helvetica,sans-Serif" font-size="10.00">FiftyOne.Pipeline.Engines.</text>
<text text-anchor="middle" x="470.5" y="-55" font-family="Helvetica,sans-Serif" font-size="10.00">FiftyOne.Data.ISetHeadersData</text>
</a>
</g>
</g>
<!-- Node17&#45;&gt;Node23 -->
<g id="edge27_Node000017_Node000023" class="edge">
<title>Node17&#45;&gt;Node23</title>
<g id="a_edge27_Node000017_Node000023"><a xlink:title=" ">
<path fill="none" stroke="#63b8ff" d="M302.49,-234.26C317.04,-224.02 333.1,-210.53 344,-195 373.07,-153.59 343.17,-121.69 380,-87 383.63,-83.58 387.69,-80.64 392.03,-78.11"/>
<polygon fill="#63b8ff" stroke="#63b8ff" points="300.47,-231.4 294.15,-239.91 304.39,-237.2 300.47,-231.4"/>
</a>
</g>
</g>
<!-- Node24 -->
<g id="Node000024" class="node">
<title>Node24</title>
<g id="a_Node000024"><a xlink:href="interface_fifty_one_1_1_pipeline_1_1_ip_splitter_1_1_i_split_ip_data.html" target="_top" xlink:title=" ">
<polygon fill="white" stroke="#bfbfbf" points="545,-464 396,-464 396,-434 545,-434 545,-464"/>
<text text-anchor="start" x="404" y="-452" font-family="Helvetica,sans-Serif" font-size="10.00">FiftyOne.Pipeline.IpSplitter.</text>
<text text-anchor="middle" x="470.5" y="-441" font-family="Helvetica,sans-Serif" font-size="10.00">ISplitIpData</text>
</a>
</g>
</g>
<!-- Node17&#45;&gt;Node24 -->
<g id="edge29_Node000017_Node000024" class="edge">
<title>Node17&#45;&gt;Node24</title>
<g id="a_edge29_Node000017_Node000024"><a xlink:title=" ">
<path fill="none" stroke="#63b8ff" d="M277.5,-279.75C293.1,-317.04 327.74,-387.28 380,-425 384.83,-428.48 390.13,-431.46 395.67,-434.01"/>
<polygon fill="#63b8ff" stroke="#63b8ff" points="280.61,-278.11 273.6,-270.16 274.12,-280.74 280.61,-278.11"/>
</a>
</g>
</g>
<!-- Node25 -->
<g id="Node000025" class="node">
<title>Node25</title>
<g id="a_Node000025"><a xlink:href="interface_fifty_one_1_1_pipeline_1_1_java_script_builder_1_1_data_1_1_i_java_script_builder_element_data.html" target="_top" xlink:title="The IElementData interface for JavaScriptBuilderElement.">
<polygon fill="white" stroke="#666666" points="553.5,-415.5 387.5,-415.5 387.5,-374.5 553.5,-374.5 553.5,-415.5"/>
<text text-anchor="start" x="395.5" y="-403.5" font-family="Helvetica,sans-Serif" font-size="10.00">FiftyOne.Pipeline.JavaScript</text>
<text text-anchor="start" x="395.5" y="-392.5" font-family="Helvetica,sans-Serif" font-size="10.00">Builder.Data.IJavaScriptBuilder</text>
<text text-anchor="middle" x="470.5" y="-381.5" font-family="Helvetica,sans-Serif" font-size="10.00">ElementData</text>
</a>
</g>
</g>
<!-- Node17&#45;&gt;Node25 -->
<g id="edge31_Node000017_Node000025" class="edge">
<title>Node17&#45;&gt;Node25</title>
<g id="a_edge31_Node000017_Node000025"><a xlink:title=" ">
<path fill="none" stroke="#63b8ff" d="M286.08,-278.17C306.47,-302.87 341.8,-341.58 380,-365 385.73,-368.51 391.92,-371.67 398.27,-374.49"/>
<polygon fill="#63b8ff" stroke="#63b8ff" points="288.77,-275.94 279.75,-270.37 283.34,-280.35 288.77,-275.94"/>
</a>
</g>
</g>
<!-- Node26 -->
<g id="Node000026" class="node">
<title>Node26</title>
<g id="a_Node000026"><a xlink:href="interface_fifty_one_1_1_pipeline_1_1_json_builder_1_1_data_1_1_i_json_builder_element_data.html" target="_top" xlink:title="The IElementData interface for JsonBuilderElement.">
<polygon fill="white" stroke="#666666" points="552.5,-356 388.5,-356 388.5,-326 552.5,-326 552.5,-356"/>
<text text-anchor="start" x="396.5" y="-344" font-family="Helvetica,sans-Serif" font-size="10.00">FiftyOne.Pipeline.JsonBuilder.</text>
<text text-anchor="middle" x="470.5" y="-333" font-family="Helvetica,sans-Serif" font-size="10.00">Data.IJsonBuilderElementData</text>
</a>
</g>
</g>
<!-- Node17&#45;&gt;Node26 -->
<g id="edge33_Node000017_Node000026" class="edge">
<title>Node17&#45;&gt;Node26</title>
<g id="a_edge33_Node000017_Node000026"><a xlink:title=" ">
<path fill="none" stroke="#63b8ff" d="M299.75,-275.31C321.63,-288.62 351.74,-305.59 380,-317 388.2,-320.31 397.01,-323.31 405.79,-325.97"/>
<polygon fill="#63b8ff" stroke="#63b8ff" points="301.55,-272.31 291.2,-270.05 297.88,-278.27 301.55,-272.31"/>
</a>
</g>
</g>
<!-- Node27 -->
<g id="Node000027" class="node">
<title>Node27</title>
<g id="a_Node000027"><a xlink:href="interface_fifty_one_1_1_pipeline_1_1_math_1_1_i_math_data.html" target="_top" xlink:title=" ">
<polygon fill="white" stroke="#bfbfbf" points="561,-307.5 380,-307.5 380,-288.5 561,-288.5 561,-307.5"/>
<text text-anchor="middle" x="470.5" y="-295.5" font-family="Helvetica,sans-Serif" font-size="10.00">FiftyOne.Pipeline.Math.IMathData</text>
</a>
</g>
</g>
<!-- Node17&#45;&gt;Node27 -->
<g id="edge35_Node000017_Node000027" class="edge">
<title>Node17&#45;&gt;Node27</title>
<g id="a_edge35_Node000017_Node000027"><a xlink:title=" ">
<path fill="none" stroke="#63b8ff" d="M348.01,-272.17C358.77,-274.47 369.65,-276.79 380,-279 394.45,-282.08 410.21,-285.43 424.42,-288.45"/>
<polygon fill="#63b8ff" stroke="#63b8ff" points="348.71,-268.73 338.2,-270.06 347.24,-275.58 348.71,-268.73"/>
</a>
</g>
</g>
<!-- Node28 -->
<g id="Node000028" class="node">
<title>Node28</title>
<g id="a_Node000028"><a xlink:href="interface_fifty_one_1_1_pipeline_1_1_translation_1_1_data_1_1_i_translation_data.html" target="_top" xlink:title="Element data marker interface for FlowElements.TranslationEngine.">
<polygon fill="white" stroke="#666666" points="549.5,-222 391.5,-222 391.5,-192 549.5,-192 549.5,-222"/>
<text text-anchor="start" x="399.5" y="-210" font-family="Helvetica,sans-Serif" font-size="10.00">FiftyOne.Pipeline.Translation.</text>
<text text-anchor="middle" x="470.5" y="-199" font-family="Helvetica,sans-Serif" font-size="10.00">Data.ITranslationData</text>
</a>
</g>
</g>
<!-- Node17&#45;&gt;Node28 -->
<g id="edge37_Node000017_Node000028" class="edge">
<title>Node17&#45;&gt;Node28</title>
<g id="a_edge37_Node000017_Node000028"><a xlink:title=" ">
<path fill="none" stroke="#63b8ff" d="M341.22,-237.56C362.62,-232.46 385.81,-226.93 406.52,-222"/>
<polygon fill="#63b8ff" stroke="#63b8ff" points="340.12,-234.22 331.2,-239.94 341.74,-241.03 340.12,-234.22"/>
</a>
</g>
</g>
<!-- Node29 -->
<g id="Node000029" class="node">
<title>Node29</title>
<g id="a_Node000029"><a xlink:href="interface_simple_client_side_element_1_1_data_1_1_i_star_sign_data.html" target="_top" xlink:title="[class]">
<polygon fill="white" stroke="#666666" points="542,-174 399,-174 399,-144 542,-144 542,-174"/>
<text text-anchor="start" x="407" y="-162" font-family="Helvetica,sans-Serif" font-size="10.00">SimpleClientSideElement.</text>
<text text-anchor="middle" x="470.5" y="-151" font-family="Helvetica,sans-Serif" font-size="10.00">Data.IStarSignData</text>
</a>
</g>
</g>
<!-- Node17&#45;&gt;Node29 -->
<g id="edge39_Node000017_Node000029" class="edge">
<title>Node17&#45;&gt;Node29</title>
<g id="a_edge39_Node000017_Node000029"><a xlink:title=" ">
<path fill="none" stroke="#63b8ff" d="M295.72,-233.71C317.59,-217.8 349.4,-196.54 380,-183 387.5,-179.68 395.57,-176.73 403.67,-174.13"/>
<polygon fill="#63b8ff" stroke="#63b8ff" points="293.53,-230.98 287.57,-239.73 297.69,-236.61 293.53,-230.98"/>
</a>
</g>
</g>
<!-- Node18&#45;&gt;Node4 -->
<g id="edge18_Node000018_Node000004" class="edge">
<title>Node18&#45;&gt;Node4</title>
<g id="a_edge18_Node000018_Node000004"><a xlink:title=" ">
<path fill="none" stroke="#63b8ff" d="M566.91,-111C585.94,-111 605.8,-111 624.44,-111"/>
<polygon fill="#63b8ff" stroke="#63b8ff" points="566.75,-107.5 556.75,-111 566.75,-114.5 566.75,-107.5"/>
</a>
</g>
</g>
<!-- Node19&#45;&gt;Node5 -->
<g id="edge25_Node000019_Node000005" class="edge">
<title>Node19&#45;&gt;Node5</title>
<g id="a_edge25_Node000019_Node000005"><a xlink:title=" ">
<path fill="none" stroke="#63b8ff" d="M552.41,-516.68C580.38,-511.04 611.49,-504.77 638.6,-499.3"/>
<polygon fill="#63b8ff" stroke="#63b8ff" points="551.37,-513.32 542.26,-518.73 552.76,-520.18 551.37,-513.32"/>
</a>
</g>
</g>
<!-- Node20 -->
<g id="Node000020" class="node">
<title>Node20</title>
<g id="a_Node000020"><a xlink:href="interface_examples_1_1_cloud_engine_1_1_data_1_1_i_star_sign_data.html" target="_top" xlink:title="[class]">
<polygon fill="white" stroke="#666666" points="789.5,-644 631.5,-644 631.5,-614 789.5,-614 789.5,-644"/>
<text text-anchor="start" x="639.5" y="-632" font-family="Helvetica,sans-Serif" font-size="10.00">Examples.CloudEngine.Data.</text>
<text text-anchor="middle" x="710.5" y="-621" font-family="Helvetica,sans-Serif" font-size="10.00">IStarSignData</text>
</a>
</g>
</g>
<!-- Node19&#45;&gt;Node20 -->
<g id="edge21_Node000019_Node000020" class="edge">
<title>Node19&#45;&gt;Node20</title>
<g id="a_edge21_Node000019_Node000020"><a xlink:title=" ">
<path fill="none" stroke="#63b8ff" d="M501.65,-553.88C526.28,-570.03 562.53,-591.81 597,-605 607.91,-609.18 619.71,-612.7 631.42,-615.64"/>
<polygon fill="#63b8ff" stroke="#63b8ff" points="503.39,-550.84 493.13,-548.21 499.51,-556.66 503.39,-550.84"/>
</a>
</g>
</g>
<!-- Node21 -->
<g id="Node000021" class="node">
<title>Node21</title>
<g id="a_Node000021"><a xlink:href="interface_examples_1_1_on_premise_engine_1_1_data_1_1_i_star_sign_data.html" target="_top" xlink:title="[class]">
<polygon fill="white" stroke="#666666" points="789,-548 632,-548 632,-518 789,-518 789,-548"/>
<text text-anchor="start" x="640" y="-536" font-family="Helvetica,sans-Serif" font-size="10.00">Examples.OnPremiseEngine.</text>
<text text-anchor="middle" x="710.5" y="-525" font-family="Helvetica,sans-Serif" font-size="10.00">Data.IStarSignData</text>
</a>
</g>
</g>
<!-- Node19&#45;&gt;Node21 -->
<g id="edge23_Node000019_Node000021" class="edge">
<title>Node19&#45;&gt;Node21</title>
<g id="a_edge23_Node000019_Node000021"><a xlink:title=" ">
<path fill="none" stroke="#63b8ff" d="M552.35,-533C578.08,-533 606.46,-533 631.94,-533"/>
<polygon fill="#63b8ff" stroke="#63b8ff" points="552.26,-529.5 542.26,-533 552.26,-536.5 552.26,-529.5"/>
</a>
</g>
</g>
<!-- Node22 -->
<g id="Node000022" class="node">
<title>Node22</title>
<g id="a_Node000022"><a xlink:href="interface_fifty_one_1_1_pipeline_1_1_engines_1_1_data_1_1_i_multi_profile_data-1-g.html" target="_top" xlink:title="Represents a specific type of IAspectData that contains multiple IAspectData instances.">
<polygon fill="white" stroke="#666666" points="787,-596 634,-596 634,-566 787,-566 787,-596"/>
<text text-anchor="start" x="642" y="-584" font-family="Helvetica,sans-Serif" font-size="10.00">FiftyOne.Pipeline.Engines.</text>
<text text-anchor="middle" x="710.5" y="-573" font-family="Helvetica,sans-Serif" font-size="10.00">Data.IMultiProfileData&lt; T &gt;</text>
</a>
</g>
</g>
<!-- Node19&#45;&gt;Node22 -->
<g id="edge26_Node000019_Node000022" class="edge">
<title>Node19&#45;&gt;Node22</title>
<g id="a_edge26_Node000019_Node000022"><a xlink:title=" ">
<path fill="none" stroke="#63b8ff" d="M552.35,-549.31C579.06,-554.69 608.65,-560.66 634.87,-565.95"/>
<polygon fill="#63b8ff" stroke="#63b8ff" points="552.76,-545.82 542.26,-547.27 551.37,-552.68 552.76,-545.82"/>
</a>
</g>
</g>
<!-- Node20&#45;&gt;Node6 -->
<g id="edge22_Node000020_Node000006" class="edge">
<title>Node20&#45;&gt;Node6</title>
<g id="a_edge22_Node000020_Node000006"><a xlink:title=" ">
<path fill="none" stroke="#63b8ff" d="M799.7,-614.98C819.5,-611.84 840.37,-608.52 859.73,-605.44"/>
<polygon fill="#63b8ff" stroke="#63b8ff" points="799.09,-611.53 789.77,-616.56 800.19,-618.45 799.09,-611.53"/>
</a>
</g>
</g>
<!-- Node21&#45;&gt;Node7 -->
<g id="edge24_Node000021_Node000007" class="edge">
<title>Node21&#45;&gt;Node7</title>
<g id="a_edge24_Node000021_Node000007"><a xlink:title=" ">
<path fill="none" stroke="#63b8ff" d="M799.25,-523.7C819.43,-521.56 840.76,-519.3 860.47,-517.22"/>
<polygon fill="#63b8ff" stroke="#63b8ff" points="798.71,-520.24 789.13,-524.77 799.44,-527.2 798.71,-520.24"/>
</a>
</g>
</g>
<!-- Node23&#45;&gt;Node8 -->
<g id="edge28_Node000023_Node000008" class="edge">
<title>Node23&#45;&gt;Node8</title>
<g id="a_edge28_Node000023_Node000008"><a xlink:title=" ">
<path fill="none" stroke="#63b8ff" d="M565.35,-63C585.83,-63 607.35,-63 627.33,-63"/>
<polygon fill="#63b8ff" stroke="#63b8ff" points="565.08,-59.5 555.08,-63 565.08,-66.5 565.08,-59.5"/>
</a>
</g>
</g>
<!-- Node24&#45;&gt;Node9 -->
<g id="edge30_Node000024_Node000009" class="edge">
<title>Node24&#45;&gt;Node9</title>
<g id="a_edge30_Node000024_Node000009"><a xlink:title=" ">
<path fill="none" stroke="#63b8ff" d="M555.46,-444.77C581.65,-443.45 610.33,-442 635.76,-440.72"/>
<polygon fill="#63b8ff" stroke="#63b8ff" points="554.99,-441.29 545.17,-445.29 555.34,-448.28 554.99,-441.29"/>
</a>
</g>
</g>
<!-- Node25&#45;&gt;Node10 -->
<g id="edge32_Node000025_Node000010" class="edge">
<title>Node25&#45;&gt;Node10</title>
<g id="a_edge32_Node000025_Node000010"><a xlink:title=" ">
<path fill="none" stroke="#63b8ff" d="M563.91,-392.67C574.63,-392.4 585.65,-392.12 596.61,-391.85"/>
<polygon fill="#63b8ff" stroke="#63b8ff" points="563.65,-389.18 553.74,-392.93 563.82,-396.17 563.65,-389.18"/>
</a>
</g>
</g>
<!-- Node26&#45;&gt;Node11 -->
<g id="edge34_Node000026_Node000011" class="edge">
<title>Node26&#45;&gt;Node11</title>
<g id="a_edge34_Node000026_Node000011"><a xlink:title=" ">
<path fill="none" stroke="#63b8ff" d="M562.79,-341C584.88,-341 608.32,-341 629.83,-341"/>
<polygon fill="#63b8ff" stroke="#63b8ff" points="562.74,-337.5 552.74,-341 562.74,-344.5 562.74,-337.5"/>
</a>
</g>
</g>
<!-- Node27&#45;&gt;Node12 -->
<g id="edge36_Node000027_Node000012" class="edge">
<title>Node27&#45;&gt;Node12</title>
<g id="a_edge36_Node000027_Node000012"><a xlink:title=" ">
<path fill="none" stroke="#63b8ff" d="M571.35,-298C587.88,-298 604.91,-298 621.13,-298"/>
<polygon fill="#63b8ff" stroke="#63b8ff" points="571.14,-294.5 561.14,-298 571.14,-301.5 571.14,-294.5"/>
</a>
</g>
</g>
<!-- Node28&#45;&gt;Node13 -->
<g id="edge38_Node000028_Node000013" class="edge">
<title>Node28&#45;&gt;Node13</title>
<g id="a_edge38_Node000028_Node000013"><a xlink:title=" ">
<path fill="none" stroke="#63b8ff" d="M560.01,-207C583.37,-207 608.41,-207 631.19,-207"/>
<polygon fill="#63b8ff" stroke="#63b8ff" points="559.76,-203.5 549.76,-207 559.76,-210.5 559.76,-203.5"/>
</a>
</g>
</g>
<!-- Node29&#45;&gt;Node15 -->
<g id="edge40_Node000029_Node000015" class="edge">
<title>Node29&#45;&gt;Node15</title>
<g id="a_edge40_Node000029_Node000015"><a xlink:title=" ">
<path fill="none" stroke="#63b8ff" d="M552.41,-159C580.38,-159 611.49,-159 638.6,-159"/>
<polygon fill="#63b8ff" stroke="#63b8ff" points="552.26,-155.5 542.26,-159 552.26,-162.5 552.26,-155.5"/>
</a>
</g>
</g>
<!-- Node30&#45;&gt;Node16 -->
<g id="edge42_Node000030_Node000016" class="edge">
<title>Node30&#45;&gt;Node16</title>
<g id="a_edge42_Node000030_Node000016"><a xlink:title=" ">
<path fill="none" stroke="#63b8ff" d="M354.05,-35.63C367.07,-33.3 380.42,-30.91 393.21,-28.63"/>
<polygon fill="#63b8ff" stroke="#63b8ff" points="353.41,-32.19 344.18,-37.39 354.64,-39.08 353.41,-32.19"/>
</a>
</g>
</g>
</g>
</svg>
