<?xml version="1.0" encoding="UTF-8" standalone="no"?>
<!DOCTYPE svg PUBLIC "-//W3C//DTD SVG 1.1//EN"
 "http://www.w3.org/Graphics/SVG/1.1/DTD/svg11.dtd">
<!-- Generated by graphviz version 2.43.0 (0)
 -->
<!-- Title: FiftyOne.Pipeline.Engines.FiftyOne.Data.IValueMetaData Pages: 1 -->
<svg width="467pt" height="162pt"
 viewBox="0.00 0.00 466.50 162.00" xmlns="http://www.w3.org/2000/svg" xmlns:xlink="http://www.w3.org/1999/xlink">
<g id="graph0" class="graph" transform="scale(1 1) rotate(0) translate(4 158)">
<title>FiftyOne.Pipeline.Engines.FiftyOne.Data.IValueMetaData</title>
<!-- Node0 -->
<g id="node1" class="node">
<title>Node0</title>
<g id="a_node1"><a xlink:title="Meta data relating to a specific value within a data set.">
<polygon fill="#bfbfbf" stroke="black" points="194.5,-67.5 194.5,-97.5 358.5,-97.5 358.5,-67.5 194.5,-67.5"/>
<text text-anchor="start" x="202.5" y="-85.5" font-family="Helvetica,sans-Serif" font-size="10.00">FiftyOne.Pipeline.Engines.</text>
<text text-anchor="middle" x="276.5" y="-74.5" font-family="Helvetica,sans-Serif" font-size="10.00">FiftyOne.Data.IValueMetaData</text>
</a>
</g>
</g>
<!-- Node4 -->
<g id="node5" class="node">
<title>Node4</title>
<g id="a_node5"><a xlink:href="class_fifty_one_1_1_pipeline_1_1_engines_1_1_fifty_one_1_1_data_1_1_value_meta_data_default.html" target="_top" xlink:title="Data class that contains meta&#45;data relating to a specific value.">
<polygon fill="none" stroke="black" points="178,-0.5 178,-30.5 375,-30.5 375,-0.5 178,-0.5"/>
<text text-anchor="start" x="186" y="-18.5" font-family="Helvetica,sans-Serif" font-size="10.00">FiftyOne.Pipeline.Engines.</text>
<text text-anchor="middle" x="276.5" y="-7.5" font-family="Helvetica,sans-Serif" font-size="10.00">FiftyOne.Data.ValueMetaDataDefault</text>
</a>
</g>
</g>
<!-- Node0&#45;&gt;Node4 -->
<g id="edge4" class="edge">
<title>Node0&#45;&gt;Node4</title>
<path fill="none" stroke="midnightblue" d="M276.5,-57.11C276.5,-48.15 276.5,-38.32 276.5,-30.58"/>
<polygon fill="midnightblue" stroke="midnightblue" points="273,-57.4 276.5,-67.4 280,-57.4 273,-57.4"/>
</g>
<!-- Node1 -->
<g id="node2" class="node">
<title>Node1</title>
<g id="a_node2"><a xlink:title=" ">
<polygon fill="none" stroke="#bfbfbf" points="0,-134.5 0,-153.5 169,-153.5 169,-134.5 0,-134.5"/>
<text text-anchor="middle" x="84.5" y="-141.5" font-family="Helvetica,sans-Serif" font-size="10.00">IEquatable&lt; IValueMetaData &gt;</text>
</a>
</g>
</g>
<!-- Node1&#45;&gt;Node0 -->
<g id="edge1" class="edge">
<title>Node1&#45;&gt;Node0</title>
<path fill="none" stroke="midnightblue" d="M121.66,-131.48C152.97,-121.78 197.86,-107.87 231.25,-97.52"/>
<polygon fill="midnightblue" stroke="midnightblue" points="120.52,-128.17 112.01,-134.48 122.6,-134.86 120.52,-128.17"/>
</g>
<!-- Node2 -->
<g id="node3" class="node">
<title>Node2</title>
<g id="a_node3"><a xlink:title=" ">
<polygon fill="none" stroke="#bfbfbf" points="187,-134.5 187,-153.5 366,-153.5 366,-134.5 187,-134.5"/>
<text text-anchor="middle" x="276.5" y="-141.5" font-family="Helvetica,sans-Serif" font-size="10.00">IComparable&lt; IValueMetaData &gt;</text>
</a>
</g>
</g>
<!-- Node2&#45;&gt;Node0 -->
<g id="edge2" class="edge">
<title>Node2&#45;&gt;Node0</title>
<path fill="none" stroke="midnightblue" d="M276.5,-124.23C276.5,-115.59 276.5,-105.5 276.5,-97.52"/>
<polygon fill="midnightblue" stroke="midnightblue" points="273,-124.48 276.5,-134.48 280,-124.48 273,-124.48"/>
</g>
<!-- Node3 -->
<g id="node4" class="node">
<title>Node3</title>
<g id="a_node4"><a xlink:title=" ">
<polygon fill="none" stroke="#bfbfbf" points="384.5,-134.5 384.5,-153.5 458.5,-153.5 458.5,-134.5 384.5,-134.5"/>
<text text-anchor="middle" x="421.5" y="-141.5" font-family="Helvetica,sans-Serif" font-size="10.00">IDisposable</text>
</a>
</g>
</g>
<!-- Node3&#45;&gt;Node0 -->
<g id="edge3" class="edge">
<title>Node3&#45;&gt;Node0</title>
<path fill="none" stroke="midnightblue" d="M391.26,-130.59C367.75,-120.94 335.13,-107.56 310.67,-97.52"/>
<polygon fill="midnightblue" stroke="midnightblue" points="390.14,-133.92 400.73,-134.48 392.8,-127.44 390.14,-133.92"/>
</g>
</g>
</svg>
