<?xml version="1.0" encoding="UTF-8" standalone="no"?>
<!DOCTYPE svg PUBLIC "-//W3C//DTD SVG 1.1//EN"
 "http://www.w3.org/Graphics/SVG/1.1/DTD/svg11.dtd">
<!-- Generated by graphviz version 2.43.0 (0)
 -->
<!-- Title: FiftyOne.Pipeline.Core.FlowElements.IFlowElement&lt; T, TMeta &gt; Pages: 1 -->
<svg width="1436pt" height="728pt"
 viewBox="0.00 0.00 1436.00 728.00" xmlns="http://www.w3.org/2000/svg" xmlns:xlink="http://www.w3.org/1999/xlink">
<g id="graph0" class="graph" transform="scale(1 1) rotate(0) translate(4 724)">
<title>FiftyOne.Pipeline.Core.FlowElements.IFlowElement&lt; T, TMeta &gt;</title>
<!-- Node1 -->
<g id="Node000001" class="node">
<title>Node1</title>
<g id="a_Node000001"><a xlink:title="Generic interface that extends IFlowElement with the ability to return a ITypedKey&lt;T&gt; that will allow...">
<polygon fill="#999999" stroke="#666666" points="449,-172 297,-172 297,-131 449,-131 449,-172"/>
<text text-anchor="start" x="305" y="-160" font-family="Helvetica,sans-Serif" font-size="10.00">FiftyOne.Pipeline.Core.Flow</text>
<text text-anchor="start" x="305" y="-149" font-family="Helvetica,sans-Serif" font-size="10.00">Elements.IFlowElement&lt; T,</text>
<text text-anchor="middle" x="373" y="-138" font-family="Helvetica,sans-Serif" font-size="10.00"> TMeta &gt;</text>
</a>
</g>
</g>
<!-- Node4 -->
<g id="Node000004" class="node">
<title>Node4</title>
<g id="a_Node000004"><a xlink:href="class_fifty_one_1_1_pipeline_1_1_core_1_1_flow_elements_1_1_flow_element_base-2-g.html" target="_top" xlink:title="Abstract base class for Flow Elements.">
<polygon fill="white" stroke="#666666" points="657,-393 504,-393 504,-352 657,-352 657,-393"/>
<text text-anchor="start" x="512" y="-381" font-family="Helvetica,sans-Serif" font-size="10.00">FiftyOne.Pipeline.Core.Flow</text>
<text text-anchor="start" x="512" y="-370" font-family="Helvetica,sans-Serif" font-size="10.00">Elements.FlowElementBase</text>
<text text-anchor="middle" x="580.5" y="-359" font-family="Helvetica,sans-Serif" font-size="10.00">&lt; T, TMeta &gt;</text>
</a>
</g>
</g>
<!-- Node1&#45;&gt;Node4 -->
<g id="edge3_Node000001_Node000004" class="edge">
<title>Node1&#45;&gt;Node4</title>
<g id="a_edge3_Node000001_Node000004"><a xlink:title=" ">
<path fill="none" stroke="#63b8ff" d="M400.2,-179.68C442.15,-224.79 523.41,-312.18 560.37,-351.93"/>
<polygon fill="#63b8ff" stroke="#63b8ff" points="402.71,-177.23 393.33,-172.29 397.58,-182 402.71,-177.23"/>
</a>
</g>
</g>
<!-- Node24 -->
<g id="Node000024" class="node">
<title>Node24</title>
<g id="a_Node000024"><a xlink:href="interface_fifty_one_1_1_pipeline_1_1_engines_1_1_fifty_one_1_1_flow_elements_1_1_i_set_headers_element.html" target="_top" xlink:title="An IFlowElement that collates responses from all engines that want to set headers in the HTTP respons...">
<polygon fill="white" stroke="#666666" points="676,-599 485,-599 485,-558 676,-558 676,-599"/>
<text text-anchor="start" x="493" y="-587" font-family="Helvetica,sans-Serif" font-size="10.00">FiftyOne.Pipeline.Engines.</text>
<text text-anchor="start" x="493" y="-576" font-family="Helvetica,sans-Serif" font-size="10.00">FiftyOne.FlowElements.ISetHeaders</text>
<text text-anchor="middle" x="580.5" y="-565" font-family="Helvetica,sans-Serif" font-size="10.00">Element</text>
</a>
</g>
</g>
<!-- Node1&#45;&gt;Node24 -->
<g id="edge23_Node000001_Node000024" class="edge">
<title>Node1&#45;&gt;Node24</title>
<g id="a_edge23_Node000001_Node000024"><a xlink:title=" ">
<path fill="none" stroke="#63b8ff" d="M386.44,-181.63C406.25,-229.09 446.62,-323.97 485,-402.5 512.94,-459.68 549.38,-525.31 567.78,-557.91"/>
<polygon fill="#63b8ff" stroke="#63b8ff" points="389.61,-180.13 382.54,-172.24 383.15,-182.82 389.61,-180.13"/>
</a>
</g>
</g>
<!-- Node25 -->
<g id="Node000025" class="node">
<title>Node25</title>
<g id="a_Node000025"><a xlink:href="interface_fifty_one_1_1_pipeline_1_1_engines_1_1_flow_elements_1_1_i_aspect_engine-2-g.html" target="_top" xlink:title="Interface representing 51Degrees on&#45;premise aspect engines.">
<polygon fill="white" stroke="#666666" points="659.5,-70 501.5,-70 501.5,-29 659.5,-29 659.5,-70"/>
<text text-anchor="start" x="509.5" y="-58" font-family="Helvetica,sans-Serif" font-size="10.00">FiftyOne.Pipeline.Engines.</text>
<text text-anchor="start" x="509.5" y="-47" font-family="Helvetica,sans-Serif" font-size="10.00">FlowElements.IAspectEngine</text>
<text text-anchor="middle" x="580.5" y="-36" font-family="Helvetica,sans-Serif" font-size="10.00">&lt; T, TMeta &gt;</text>
</a>
</g>
</g>
<!-- Node1&#45;&gt;Node25 -->
<g id="edge25_Node000001_Node000025" class="edge">
<title>Node1&#45;&gt;Node25</title>
<g id="a_edge25_Node000001_Node000025"><a xlink:title=" ">
<path fill="none" stroke="#63b8ff" d="M409.4,-125.03C430.53,-110.15 458.35,-92.09 485,-79.5 492.24,-76.08 499.96,-72.91 507.76,-70.02"/>
<polygon fill="#63b8ff" stroke="#63b8ff" points="407.18,-122.32 401.08,-130.98 411.25,-128.02 407.18,-122.32"/>
</a>
</g>
</g>
<!-- Node26 -->
<g id="Node000026" class="node">
<title>Node26</title>
<g id="a_Node000026"><a xlink:href="interface_fifty_one_1_1_pipeline_1_1_json_builder_1_1_flow_element_1_1_i_json_builder_element.html" target="_top" xlink:title="The Interface for the JsonBuilderElement See the Specification.">
<polygon fill="white" stroke="#666666" points="671.5,-166.5 489.5,-166.5 489.5,-136.5 671.5,-136.5 671.5,-166.5"/>
<text text-anchor="start" x="497.5" y="-154.5" font-family="Helvetica,sans-Serif" font-size="10.00">FiftyOne.Pipeline.JsonBuilder.</text>
<text text-anchor="middle" x="580.5" y="-143.5" font-family="Helvetica,sans-Serif" font-size="10.00">FlowElement.IJsonBuilderElement</text>
</a>
</g>
</g>
<!-- Node1&#45;&gt;Node26 -->
<g id="edge27_Node000001_Node000026" class="edge">
<title>Node1&#45;&gt;Node26</title>
<g id="a_edge27_Node000001_Node000026"><a xlink:title=" ">
<path fill="none" stroke="#63b8ff" d="M459.28,-151.5C469.19,-151.5 479.31,-151.5 489.28,-151.5"/>
<polygon fill="#63b8ff" stroke="#63b8ff" points="459.06,-148 449.06,-151.5 459.06,-155 459.06,-148"/>
</a>
</g>
</g>
<!-- Node27 -->
<g id="Node000027" class="node">
<title>Node27</title>
<g id="a_Node000027"><a xlink:href="interface_fifty_one_1_1_pipeline_1_1_translation_1_1_flow_elements_1_1_i_translation_engine.html" target="_top" xlink:title="Flow element that translates values from a single source element and stores translated values under i...">
<polygon fill="white" stroke="#666666" points="669.5,-118.5 491.5,-118.5 491.5,-88.5 669.5,-88.5 669.5,-118.5"/>
<text text-anchor="start" x="499.5" y="-106.5" font-family="Helvetica,sans-Serif" font-size="10.00">FiftyOne.Pipeline.Translation.</text>
<text text-anchor="middle" x="580.5" y="-95.5" font-family="Helvetica,sans-Serif" font-size="10.00">FlowElements.ITranslationEngine</text>
</a>
</g>
</g>
<!-- Node1&#45;&gt;Node27 -->
<g id="edge29_Node000001_Node000027" class="edge">
<title>Node1&#45;&gt;Node27</title>
<g id="a_edge29_Node000001_Node000027"><a xlink:title=" ">
<path fill="none" stroke="#63b8ff" d="M458.82,-131.69C477.64,-127.29 497.29,-122.7 515.14,-118.53"/>
<polygon fill="#63b8ff" stroke="#63b8ff" points="458,-128.28 449.06,-133.97 459.6,-135.1 458,-128.28"/>
</a>
</g>
</g>
<!-- Node2 -->
<g id="Node000002" class="node">
<title>Node2</title>
<g id="a_Node000002"><a xlink:href="interface_fifty_one_1_1_pipeline_1_1_core_1_1_flow_elements_1_1_i_flow_element.html" target="_top" xlink:title="IFlowElement is the basic building block of a pipeline.">
<polygon fill="white" stroke="#666666" points="261,-166.5 110,-166.5 110,-136.5 261,-136.5 261,-166.5"/>
<text text-anchor="start" x="118" y="-154.5" font-family="Helvetica,sans-Serif" font-size="10.00">FiftyOne.Pipeline.Core.Flow</text>
<text text-anchor="middle" x="185.5" y="-143.5" font-family="Helvetica,sans-Serif" font-size="10.00">Elements.IFlowElement</text>
</a>
</g>
</g>
<!-- Node2&#45;&gt;Node1 -->
<g id="edge1_Node000001_Node000002" class="edge">
<title>Node2&#45;&gt;Node1</title>
<g id="a_edge1_Node000001_Node000002"><a xlink:title=" ">
<path fill="none" stroke="#63b8ff" d="M271.16,-151.5C279.75,-151.5 288.43,-151.5 296.9,-151.5"/>
<polygon fill="#63b8ff" stroke="#63b8ff" points="271.15,-148 261.15,-151.5 271.15,-155 271.15,-148"/>
</a>
</g>
</g>
<!-- Node3 -->
<g id="Node000003" class="node">
<title>Node3</title>
<g id="a_Node000003"><a xlink:title=" ">
<polygon fill="white" stroke="#bfbfbf" points="74,-161 0,-161 0,-142 74,-142 74,-161"/>
<text text-anchor="middle" x="37" y="-149" font-family="Helvetica,sans-Serif" font-size="10.00">IDisposable</text>
</a>
</g>
</g>
<!-- Node3&#45;&gt;Node2 -->
<g id="edge2_Node000002_Node000003" class="edge">
<title>Node3&#45;&gt;Node2</title>
<g id="a_edge2_Node000002_Node000003"><a xlink:title=" ">
<path fill="none" stroke="#63b8ff" d="M84.22,-151.5C92.38,-151.5 101.05,-151.5 109.75,-151.5"/>
<polygon fill="#63b8ff" stroke="#63b8ff" points="84.21,-148 74.21,-151.5 84.21,-155 84.21,-148"/>
</a>
</g>
</g>
<!-- Node5 -->
<g id="Node000005" class="node">
<title>Node5</title>
<g id="a_Node000005"><a xlink:href="class_examples_1_1_client_side_evidence_1_1_shared_1_1_simple_client_side_element.html" target="_top" xlink:title=" ">
<polygon fill="white" stroke="#666666" points="914,-612.5 737,-612.5 737,-582.5 914,-582.5 914,-612.5"/>
<text text-anchor="start" x="745" y="-600.5" font-family="Helvetica,sans-Serif" font-size="10.00">Examples.ClientSideEvidence.</text>
<text text-anchor="middle" x="825.5" y="-589.5" font-family="Helvetica,sans-Serif" font-size="10.00">Shared.SimpleClientSideElement</text>
</a>
</g>
</g>
<!-- Node4&#45;&gt;Node5 -->
<g id="edge4_Node000004_Node000005" class="edge">
<title>Node4&#45;&gt;Node5</title>
<g id="a_edge4_Node000004_Node000005"><a xlink:title=" ">
<path fill="none" stroke="#63b8ff" d="M592.34,-402.6C610.08,-447.32 649.7,-530.64 712,-573.5 719.57,-578.71 728.05,-582.82 736.87,-586.06"/>
<polygon fill="#63b8ff" stroke="#63b8ff" points="595.56,-401.22 588.69,-393.15 589.03,-403.74 595.56,-401.22"/>
</a>
</g>
</g>
<!-- Node6 -->
<g id="Node000006" class="node">
<title>Node6</title>
<g id="a_Node000006"><a xlink:href="class_examples_1_1_custom_flow_element_1_1_flow_elements_1_1_simple_flow_element.html" target="_top" xlink:title=" ">
<polygon fill="white" stroke="#666666" points="918.5,-564.5 732.5,-564.5 732.5,-534.5 918.5,-534.5 918.5,-564.5"/>
<text text-anchor="start" x="740.5" y="-552.5" font-family="Helvetica,sans-Serif" font-size="10.00">Examples.CustomFlowElement.</text>
<text text-anchor="middle" x="825.5" y="-541.5" font-family="Helvetica,sans-Serif" font-size="10.00">FlowElements.SimpleFlowElement</text>
</a>
</g>
</g>
<!-- Node4&#45;&gt;Node6 -->
<g id="edge5_Node000004_Node000006" class="edge">
<title>Node4&#45;&gt;Node6</title>
<g id="a_edge5_Node000004_Node000006"><a xlink:title=" ">
<path fill="none" stroke="#63b8ff" d="M598.24,-401.95C619.84,-437.12 660.79,-494.99 712,-525.5 718.35,-529.28 725.21,-532.47 732.31,-535.16"/>
<polygon fill="#63b8ff" stroke="#63b8ff" points="601.08,-399.87 592.92,-393.11 595.08,-403.48 601.08,-399.87"/>
</a>
</g>
</g>
<!-- Node7 -->
<g id="Node000007" class="node">
<title>Node7</title>
<g id="a_Node000007"><a xlink:title=" ">
<polygon fill="white" stroke="#666666" points="901,-468.5 750,-468.5 750,-438.5 901,-438.5 901,-468.5"/>
<text text-anchor="start" x="758" y="-456.5" font-family="Helvetica,sans-Serif" font-size="10.00">FiftyOne.Pipeline.Core.Flow</text>
<text text-anchor="middle" x="825.5" y="-445.5" font-family="Helvetica,sans-Serif" font-size="10.00">Elements.ParallelElements</text>
</a>
</g>
</g>
<!-- Node4&#45;&gt;Node7 -->
<g id="edge6_Node000004_Node000007" class="edge">
<title>Node4&#45;&gt;Node7</title>
<g id="a_edge6_Node000004_Node000007"><a xlink:title=" ">
<path fill="none" stroke="#63b8ff" d="M631.89,-397.35C655.74,-408.37 684.88,-420.78 712,-429.5 724.07,-433.38 737.08,-436.81 749.81,-439.78"/>
<polygon fill="#63b8ff" stroke="#63b8ff" points="633.23,-394.11 622.69,-393.05 630.27,-400.45 633.23,-394.11"/>
</a>
</g>
</g>
<!-- Node8 -->
<g id="Node000008" class="node">
<title>Node8</title>
<g id="a_Node000008"><a xlink:href="class_fifty_one_1_1_pipeline_1_1_engines_1_1_fifty_one_1_1_flow_elements_1_1_sequence_element.html" target="_top" xlink:title="Sequence element establishes session and sequence evidence in the pipeline.">
<polygon fill="white" stroke="#666666" points="915,-420 736,-420 736,-379 915,-379 915,-420"/>
<text text-anchor="start" x="744" y="-408" font-family="Helvetica,sans-Serif" font-size="10.00">FiftyOne.Pipeline.Engines.</text>
<text text-anchor="start" x="744" y="-397" font-family="Helvetica,sans-Serif" font-size="10.00">FiftyOne.FlowElements.Sequence</text>
<text text-anchor="middle" x="825.5" y="-386" font-family="Helvetica,sans-Serif" font-size="10.00">Element</text>
</a>
</g>
</g>
<!-- Node4&#45;&gt;Node8 -->
<g id="edge7_Node000004_Node000008" class="edge">
<title>Node4&#45;&gt;Node8</title>
<g id="a_edge7_Node000004_Node000008"><a xlink:title=" ">
<path fill="none" stroke="#63b8ff" d="M667.14,-382.02C689.38,-384.49 713.39,-387.15 735.79,-389.64"/>
<polygon fill="#63b8ff" stroke="#63b8ff" points="667.38,-378.52 657.05,-380.89 666.61,-385.48 667.38,-378.52"/>
</a>
</g>
</g>
<!-- Node9 -->
<g id="Node000009" class="node">
<title>Node9</title>
<g id="a_Node000009"><a xlink:href="class_fifty_one_1_1_pipeline_1_1_engines_1_1_fifty_one_1_1_flow_elements_1_1_set_headers_element.html" target="_top" xlink:title="This element is used to determine the values for HTTP headers that other elements in the pipeline wan...">
<polygon fill="white" stroke="#666666" points="919.5,-720 731.5,-720 731.5,-679 919.5,-679 919.5,-720"/>
<text text-anchor="start" x="739.5" y="-708" font-family="Helvetica,sans-Serif" font-size="10.00">FiftyOne.Pipeline.Engines.</text>
<text text-anchor="start" x="739.5" y="-697" font-family="Helvetica,sans-Serif" font-size="10.00">FiftyOne.FlowElements.SetHeaders</text>
<text text-anchor="middle" x="825.5" y="-686" font-family="Helvetica,sans-Serif" font-size="10.00">Element</text>
</a>
</g>
</g>
<!-- Node4&#45;&gt;Node9 -->
<g id="edge8_Node000004_Node000009" class="edge">
<title>Node4&#45;&gt;Node9</title>
<g id="a_edge8_Node000004_Node000009"><a xlink:title=" ">
<path fill="none" stroke="#63b8ff" d="M599.42,-401.69C619.98,-436.08 653.7,-495.4 676,-549.5 697.22,-600.98 672.02,-630.74 712,-669.5 717.66,-674.99 724.21,-679.5 731.24,-683.21"/>
<polygon fill="#63b8ff" stroke="#63b8ff" points="602.4,-399.85 594.24,-393.09 596.4,-403.46 602.4,-399.85"/>
</a>
</g>
</g>
<!-- Node10 -->
<g id="Node000010" class="node">
<title>Node10</title>
<g id="a_Node000010"><a xlink:href="class_fifty_one_1_1_pipeline_1_1_engines_1_1_fifty_one_1_1_flow_elements_1_1_share_usage_base.html" target="_top" xlink:title="Abstract base class for ShareUsage elements.">
<polygon fill="white" stroke="#666666" points="933,-516.5 718,-516.5 718,-486.5 933,-486.5 933,-516.5"/>
<text text-anchor="start" x="726" y="-504.5" font-family="Helvetica,sans-Serif" font-size="10.00">FiftyOne.Pipeline.Engines.</text>
<text text-anchor="middle" x="825.5" y="-493.5" font-family="Helvetica,sans-Serif" font-size="10.00">FiftyOne.FlowElements.ShareUsageBase</text>
</a>
</g>
</g>
<!-- Node4&#45;&gt;Node10 -->
<g id="edge9_Node000004_Node000010" class="edge">
<title>Node4&#45;&gt;Node10</title>
<g id="a_edge9_Node000004_Node000010"><a xlink:title=" ">
<path fill="none" stroke="#63b8ff" d="M608.29,-400.46C632.97,-424.55 671.78,-458.37 712,-477.5 719.3,-480.97 727.11,-483.95 735.08,-486.5"/>
<polygon fill="#63b8ff" stroke="#63b8ff" points="610.66,-397.88 601.09,-393.33 605.73,-402.85 610.66,-397.88"/>
</a>
</g>
</g>
<!-- Node12 -->
<g id="Node000012" class="node">
<title>Node12</title>
<g id="a_Node000012"><a xlink:href="class_fifty_one_1_1_pipeline_1_1_engines_1_1_flow_elements_1_1_aspect_engine_base-2-g.html" target="_top" xlink:title="Base class for 51Degrees aspect engines.">
<polygon fill="white" stroke="#666666" points="915,-70 736,-70 736,-29 915,-29 915,-70"/>
<text text-anchor="start" x="744" y="-58" font-family="Helvetica,sans-Serif" font-size="10.00">FiftyOne.Pipeline.Engines.</text>
<text text-anchor="start" x="744" y="-47" font-family="Helvetica,sans-Serif" font-size="10.00">FlowElements.AspectEngineBase</text>
<text text-anchor="middle" x="825.5" y="-36" font-family="Helvetica,sans-Serif" font-size="10.00">&lt; T, TMeta &gt;</text>
</a>
</g>
</g>
<!-- Node4&#45;&gt;Node12 -->
<g id="edge11_Node000004_Node000012" class="edge">
<title>Node4&#45;&gt;Node12</title>
<g id="a_edge11_Node000004_Node000012"><a xlink:title=" ">
<path fill="none" stroke="#63b8ff" d="M595.61,-342.7C625.78,-279.35 695.15,-135.58 712,-117.5 730.51,-97.63 756.12,-81.54 778.23,-70.01"/>
<polygon fill="#63b8ff" stroke="#63b8ff" points="592.42,-341.26 591.29,-351.79 598.74,-344.26 592.42,-341.26"/>
</a>
</g>
</g>
<!-- Node17 -->
<g id="Node000017" class="node">
<title>Node17</title>
<g id="a_Node000017"><a xlink:href="class_fifty_one_1_1_pipeline_1_1_ip_splitter_1_1_ip_splitter_element.html" target="_top" xlink:title=" ">
<polygon fill="white" stroke="#bfbfbf" points="900,-360.5 751,-360.5 751,-330.5 900,-330.5 900,-360.5"/>
<text text-anchor="start" x="759" y="-348.5" font-family="Helvetica,sans-Serif" font-size="10.00">FiftyOne.Pipeline.IpSplitter.</text>
<text text-anchor="middle" x="825.5" y="-337.5" font-family="Helvetica,sans-Serif" font-size="10.00">IpSplitterElement</text>
</a>
</g>
</g>
<!-- Node4&#45;&gt;Node17 -->
<g id="edge16_Node000004_Node000017" class="edge">
<title>Node4&#45;&gt;Node17</title>
<g id="a_edge16_Node000004_Node000017"><a xlink:title=" ">
<path fill="none" stroke="#63b8ff" d="M667.34,-362.96C694.55,-359.94 724.37,-356.63 750.66,-353.7"/>
<polygon fill="#63b8ff" stroke="#63b8ff" points="666.61,-359.52 657.05,-364.11 667.38,-366.48 666.61,-359.52"/>
</a>
</g>
</g>
<!-- Node18 -->
<g id="Node000018" class="node">
<title>Node18</title>
<g id="a_Node000018"><a xlink:href="class_fifty_one_1_1_pipeline_1_1_java_script_builder_1_1_flow_element_1_1_java_script_builder_element.html" target="_top" xlink:title="JavaScript Builder Element generates a JavaScript include to be run on the client device.">
<polygon fill="white" stroke="#666666" points="927,-312 724,-312 724,-271 927,-271 927,-312"/>
<text text-anchor="start" x="732" y="-300" font-family="Helvetica,sans-Serif" font-size="10.00">FiftyOne.Pipeline.JavaScript</text>
<text text-anchor="start" x="732" y="-289" font-family="Helvetica,sans-Serif" font-size="10.00">Builder.FlowElement.JavaScriptBuilder</text>
<text text-anchor="middle" x="825.5" y="-278" font-family="Helvetica,sans-Serif" font-size="10.00">Element</text>
</a>
</g>
</g>
<!-- Node4&#45;&gt;Node18 -->
<g id="edge17_Node000004_Node000018" class="edge">
<title>Node4&#45;&gt;Node18</title>
<g id="a_edge17_Node000004_Node000018"><a xlink:title=" ">
<path fill="none" stroke="#63b8ff" d="M639.66,-348.16C662.07,-339.21 688.03,-329.35 712,-321.5 721.99,-318.23 732.56,-315.05 743.07,-312.06"/>
<polygon fill="#63b8ff" stroke="#63b8ff" points="638.26,-344.95 630.29,-351.93 640.88,-351.44 638.26,-344.95"/>
</a>
</g>
</g>
<!-- Node19 -->
<g id="Node000019" class="node">
<title>Node19</title>
<g id="a_Node000019"><a xlink:href="class_fifty_one_1_1_pipeline_1_1_json_builder_1_1_flow_element_1_1_json_builder_element.html" target="_top" xlink:title="The JsonBuilderElement takes accessible properties and adds the property key:values to the Json objec...">
<polygon fill="white" stroke="#666666" points="915,-156.5 736,-156.5 736,-126.5 915,-126.5 915,-156.5"/>
<text text-anchor="start" x="744" y="-144.5" font-family="Helvetica,sans-Serif" font-size="10.00">FiftyOne.Pipeline.JsonBuilder.</text>
<text text-anchor="middle" x="825.5" y="-133.5" font-family="Helvetica,sans-Serif" font-size="10.00">FlowElement.JsonBuilderElement</text>
</a>
</g>
</g>
<!-- Node4&#45;&gt;Node19 -->
<g id="edge18_Node000004_Node000019" class="edge">
<title>Node4&#45;&gt;Node19</title>
<g id="a_edge18_Node000004_Node000019"><a xlink:title=" ">
<path fill="none" stroke="#63b8ff" d="M591.82,-342.22C609.09,-296.35 648.35,-209.91 712,-165.5 719.29,-160.41 727.44,-156.37 735.94,-153.16"/>
<polygon fill="#63b8ff" stroke="#63b8ff" points="588.43,-341.3 588.28,-351.89 595,-343.71 588.43,-341.3"/>
</a>
</g>
</g>
<!-- Node20 -->
<g id="Node000020" class="node">
<title>Node20</title>
<g id="a_Node000020"><a xlink:href="class_fifty_one_1_1_pipeline_1_1_math_1_1_math_element.html" target="_top" xlink:title=" ">
<polygon fill="white" stroke="#bfbfbf" points="903,-252.5 748,-252.5 748,-222.5 903,-222.5 903,-252.5"/>
<text text-anchor="start" x="756" y="-240.5" font-family="Helvetica,sans-Serif" font-size="10.00">FiftyOne.Pipeline.Math.Math</text>
<text text-anchor="middle" x="825.5" y="-229.5" font-family="Helvetica,sans-Serif" font-size="10.00">Element</text>
</a>
</g>
</g>
<!-- Node4&#45;&gt;Node20 -->
<g id="edge19_Node000004_Node000020" class="edge">
<title>Node4&#45;&gt;Node20</title>
<g id="a_edge19_Node000004_Node000020"><a xlink:title=" ">
<path fill="none" stroke="#63b8ff" d="M607.2,-344.14C631.69,-318.88 670.84,-282.87 712,-262.5 723.12,-257 735.45,-252.7 747.75,-249.33"/>
<polygon fill="#63b8ff" stroke="#63b8ff" points="604.45,-341.95 600.09,-351.6 609.52,-346.78 604.45,-341.95"/>
</a>
</g>
</g>
<!-- Node21 -->
<g id="Node000021" class="node">
<title>Node21</title>
<g id="a_Node000021"><a xlink:href="class_fifty_one_1_1_pipeline_1_1_translation_1_1_flow_elements_1_1_translation_engine_base-1-g.html" target="_top" xlink:title="Flow element that translates values from a single source element and stores translated values under i...">
<polygon fill="white" stroke="#666666" points="939,-204.5 712,-204.5 712,-174.5 939,-174.5 939,-204.5"/>
<text text-anchor="start" x="720" y="-192.5" font-family="Helvetica,sans-Serif" font-size="10.00">FiftyOne.Pipeline.Translation.</text>
<text text-anchor="middle" x="825.5" y="-181.5" font-family="Helvetica,sans-Serif" font-size="10.00">FlowElements.TranslationEngineBase&lt; T &gt;</text>
</a>
</g>
</g>
<!-- Node4&#45;&gt;Node21 -->
<g id="edge20_Node000004_Node000021" class="edge">
<title>Node4&#45;&gt;Node21</title>
<g id="a_edge20_Node000004_Node000021"><a xlink:title=" ">
<path fill="none" stroke="#63b8ff" d="M597.44,-342.77C618.6,-306.32 659.5,-245.46 712,-213.5 717.63,-210.07 723.68,-207.13 729.94,-204.61"/>
<polygon fill="#63b8ff" stroke="#63b8ff" points="594.14,-341.49 592.25,-351.92 600.23,-344.95 594.14,-341.49"/>
</a>
</g>
</g>
<!-- Node23 -->
<g id="Node000023" class="node">
<title>Node23</title>
<g id="a_Node000023"><a xlink:href="class_fifty_one_1_1_pipeline_1_1_translation_1_1_tests_1_1_evidence_copy_element.html" target="_top" xlink:title="Element that just copies the evidence into its element data.">
<polygon fill="white" stroke="#666666" points="904.5,-660.5 746.5,-660.5 746.5,-630.5 904.5,-630.5 904.5,-660.5"/>
<text text-anchor="start" x="754.5" y="-648.5" font-family="Helvetica,sans-Serif" font-size="10.00">FiftyOne.Pipeline.Translation.</text>
<text text-anchor="middle" x="825.5" y="-637.5" font-family="Helvetica,sans-Serif" font-size="10.00">Tests.EvidenceCopyElement</text>
</a>
</g>
</g>
<!-- Node4&#45;&gt;Node23 -->
<g id="edge22_Node000004_Node000023" class="edge">
<title>Node4&#45;&gt;Node23</title>
<g id="a_edge22_Node000004_Node000023"><a xlink:title=" ">
<path fill="none" stroke="#63b8ff" d="M597.73,-402.32C616.76,-437.4 649.1,-497.45 676,-549.5 692.43,-581.28 683.71,-599.6 712,-621.5 722.03,-629.26 734,-634.65 746.34,-638.36"/>
<polygon fill="#63b8ff" stroke="#63b8ff" points="600.58,-400.23 592.74,-393.12 594.43,-403.57 600.58,-400.23"/>
</a>
</g>
</g>
<!-- Node11 -->
<g id="Node000011" class="node">
<title>Node11</title>
<g id="a_Node000011"><a xlink:href="class_fifty_one_1_1_pipeline_1_1_engines_1_1_fifty_one_1_1_flow_elements_1_1_share_usage_element.html" target="_top" xlink:title="Flow element that sends usage data to 51Degrees for analysis.">
<polygon fill="white" stroke="#666666" points="1174.5,-522 983.5,-522 983.5,-481 1174.5,-481 1174.5,-522"/>
<text text-anchor="start" x="991.5" y="-510" font-family="Helvetica,sans-Serif" font-size="10.00">FiftyOne.Pipeline.Engines.</text>
<text text-anchor="start" x="991.5" y="-499" font-family="Helvetica,sans-Serif" font-size="10.00">FiftyOne.FlowElements.ShareUsage</text>
<text text-anchor="middle" x="1079" y="-488" font-family="Helvetica,sans-Serif" font-size="10.00">Element</text>
</a>
</g>
</g>
<!-- Node10&#45;&gt;Node11 -->
<g id="edge10_Node000010_Node000011" class="edge">
<title>Node10&#45;&gt;Node11</title>
<g id="a_edge10_Node000010_Node000011"><a xlink:title=" ">
<path fill="none" stroke="#63b8ff" d="M943.32,-501.5C956.66,-501.5 970.13,-501.5 983.13,-501.5"/>
<polygon fill="#63b8ff" stroke="#63b8ff" points="943.16,-498 933.16,-501.5 943.16,-505 943.16,-498"/>
</a>
</g>
</g>
<!-- Node13 -->
<g id="Node000013" class="node">
<title>Node13</title>
<g id="a_Node000013"><a xlink:href="class_fifty_one_1_1_pipeline_1_1_engines_1_1_fifty_one_1_1_flow_elements_1_1_property_keyed_engine-2-g.html" target="_top" xlink:title="Base class for engines that use an index of property values to profile ids to populate one or more pr...">
<polygon fill="white" stroke="#666666" points="1166,-41 992,-41 992,0 1166,0 1166,-41"/>
<text text-anchor="start" x="1000" y="-29" font-family="Helvetica,sans-Serif" font-size="10.00">FiftyOne.Pipeline.Engines.</text>
<text text-anchor="start" x="1000" y="-18" font-family="Helvetica,sans-Serif" font-size="10.00">FiftyOne.FlowElements.Property</text>
<text text-anchor="middle" x="1079" y="-7" font-family="Helvetica,sans-Serif" font-size="10.00">KeyedEngine&lt; TData, TProfile &gt;</text>
</a>
</g>
</g>
<!-- Node12&#45;&gt;Node13 -->
<g id="edge12_Node000012_Node000013" class="edge">
<title>Node12&#45;&gt;Node13</title>
<g id="a_edge12_Node000012_Node000013"><a xlink:title=" ">
<path fill="none" stroke="#63b8ff" d="M925.19,-38.12C947.2,-35.58 970.37,-32.91 991.82,-30.44"/>
<polygon fill="#63b8ff" stroke="#63b8ff" points="924.7,-34.65 915.17,-39.28 925.5,-41.61 924.7,-34.65"/>
</a>
</g>
</g>
<!-- Node14 -->
<g id="Node000014" class="node">
<title>Node14</title>
<g id="a_Node000014"><a xlink:href="class_fifty_one_1_1_pipeline_1_1_engines_1_1_flow_elements_1_1_on_premise_aspect_engine_base-2-g.html" target="_top" xlink:title="Base class for 51Degrees on&#45;premise aspect engines.">
<polygon fill="white" stroke="#666666" points="1183,-100 975,-100 975,-59 1183,-59 1183,-100"/>
<text text-anchor="start" x="983" y="-88" font-family="Helvetica,sans-Serif" font-size="10.00">FiftyOne.Pipeline.Engines.</text>
<text text-anchor="start" x="983" y="-77" font-family="Helvetica,sans-Serif" font-size="10.00">FlowElements.OnPremiseAspectEngine</text>
<text text-anchor="middle" x="1079" y="-66" font-family="Helvetica,sans-Serif" font-size="10.00">Base&lt; T, TMeta &gt;</text>
</a>
</g>
</g>
<!-- Node12&#45;&gt;Node14 -->
<g id="edge13_Node000012_Node000014" class="edge">
<title>Node12&#45;&gt;Node14</title>
<g id="a_edge13_Node000012_Node000014"><a xlink:title=" ">
<path fill="none" stroke="#63b8ff" d="M925.19,-61.27C941.43,-63.21 958.3,-65.22 974.65,-67.17"/>
<polygon fill="#63b8ff" stroke="#63b8ff" points="925.51,-57.79 915.17,-60.08 924.68,-64.74 925.51,-57.79"/>
</a>
</g>
</g>
<!-- Node15 -->
<g id="Node000015" class="node">
<title>Node15</title>
<g id="a_Node000015"><a xlink:href="class_examples_1_1_on_premise_engine_1_1_flow_elements_1_1_simple_on_premise_engine.html" target="_top" xlink:title=" ">
<polygon fill="white" stroke="#666666" points="1428,-121.5 1219,-121.5 1219,-91.5 1428,-91.5 1428,-121.5"/>
<text text-anchor="start" x="1227" y="-109.5" font-family="Helvetica,sans-Serif" font-size="10.00">Examples.OnPremiseEngine.</text>
<text text-anchor="middle" x="1323.5" y="-98.5" font-family="Helvetica,sans-Serif" font-size="10.00">FlowElements.SimpleOnPremiseEngine</text>
</a>
</g>
</g>
<!-- Node14&#45;&gt;Node15 -->
<g id="edge14_Node000014_Node000015" class="edge">
<title>Node14&#45;&gt;Node15</title>
<g id="a_edge14_Node000014_Node000015"><a xlink:title=" ">
<path fill="none" stroke="#63b8ff" d="M1193.14,-92.1C1201.64,-93.04 1210.19,-94 1218.63,-94.93"/>
<polygon fill="#63b8ff" stroke="#63b8ff" points="1193.52,-88.62 1183.19,-90.99 1192.74,-95.57 1193.52,-88.62"/>
</a>
</g>
</g>
<!-- Node16 -->
<g id="Node000016" class="node">
<title>Node16</title>
<g id="a_Node000016"><a xlink:href="class_fifty_one_1_1_pipeline_1_1_engines_1_1_fifty_one_1_1_flow_elements_1_1_fifty_one_on_premise_aspect_engine_base-1-g.html" target="_top" xlink:title="51Degrees specific Engine base class.">
<polygon fill="white" stroke="#666666" points="1417.5,-73 1229.5,-73 1229.5,-32 1417.5,-32 1417.5,-73"/>
<text text-anchor="start" x="1237.5" y="-61" font-family="Helvetica,sans-Serif" font-size="10.00">FiftyOne.Pipeline.Engines.</text>
<text text-anchor="start" x="1237.5" y="-50" font-family="Helvetica,sans-Serif" font-size="10.00">FiftyOne.FlowElements.FiftyOne</text>
<text text-anchor="middle" x="1323.5" y="-39" font-family="Helvetica,sans-Serif" font-size="10.00">OnPremiseAspectEngineBase&lt; T &gt;</text>
</a>
</g>
</g>
<!-- Node14&#45;&gt;Node16 -->
<g id="edge15_Node000014_Node000016" class="edge">
<title>Node14&#45;&gt;Node16</title>
<g id="a_edge15_Node000014_Node000016"><a xlink:title=" ">
<path fill="none" stroke="#63b8ff" d="M1193.31,-66.88C1205.39,-65.54 1217.58,-64.18 1229.39,-62.87"/>
<polygon fill="#63b8ff" stroke="#63b8ff" points="1192.74,-63.43 1183.19,-68.01 1193.52,-70.38 1192.74,-63.43"/>
</a>
</g>
</g>
<!-- Node22 -->
<g id="Node000022" class="node">
<title>Node22</title>
<g id="a_Node000022"><a xlink:href="class_fifty_one_1_1_pipeline_1_1_translation_1_1_flow_elements_1_1_translation_engine.html" target="_top" xlink:title=" ">
<polygon fill="white" stroke="#666666" points="1166.5,-176.5 991.5,-176.5 991.5,-146.5 1166.5,-146.5 1166.5,-176.5"/>
<text text-anchor="start" x="999.5" y="-164.5" font-family="Helvetica,sans-Serif" font-size="10.00">FiftyOne.Pipeline.Translation.</text>
<text text-anchor="middle" x="1079" y="-153.5" font-family="Helvetica,sans-Serif" font-size="10.00">FlowElements.TranslationEngine</text>
</a>
</g>
</g>
<!-- Node21&#45;&gt;Node22 -->
<g id="edge21_Node000021_Node000022" class="edge">
<title>Node21&#45;&gt;Node22</title>
<g id="a_edge21_Node000021_Node000022"><a xlink:title=" ">
<path fill="none" stroke="#63b8ff" d="M949.31,-175.83C963.48,-174.25 977.7,-172.67 991.24,-171.16"/>
<polygon fill="#63b8ff" stroke="#63b8ff" points="948.56,-172.39 939.01,-176.97 949.34,-179.35 948.56,-172.39"/>
</a>
</g>
</g>
<!-- Node24&#45;&gt;Node9 -->
<g id="edge24_Node000024_Node000009" class="edge">
<title>Node24&#45;&gt;Node9</title>
<g id="a_edge24_Node000024_Node000009"><a xlink:title=" ">
<path fill="none" stroke="#63b8ff" d="M613.2,-605.36C638.49,-625.57 675.61,-652.6 712,-669.5 719.52,-672.99 727.51,-676.13 735.64,-678.95"/>
<polygon fill="#63b8ff" stroke="#63b8ff" points="615.39,-602.63 605.41,-599.06 610.98,-608.07 615.39,-602.63"/>
</a>
</g>
</g>
<!-- Node25&#45;&gt;Node12 -->
<g id="edge26_Node000025_Node000012" class="edge">
<title>Node25&#45;&gt;Node12</title>
<g id="a_edge26_Node000025_Node000012"><a xlink:title=" ">
<path fill="none" stroke="#63b8ff" d="M669.82,-49.5C691.33,-49.5 714.35,-49.5 735.87,-49.5"/>
<polygon fill="#63b8ff" stroke="#63b8ff" points="669.72,-46 659.72,-49.5 669.72,-53 669.72,-46"/>
</a>
</g>
</g>
<!-- Node26&#45;&gt;Node19 -->
<g id="edge28_Node000026_Node000019" class="edge">
<title>Node26&#45;&gt;Node19</title>
<g id="a_edge28_Node000026_Node000019"><a xlink:title=" ">
<path fill="none" stroke="#63b8ff" d="M682.04,-147.36C699.84,-146.63 718.27,-145.87 735.72,-145.15"/>
<polygon fill="#63b8ff" stroke="#63b8ff" points="681.49,-143.88 671.64,-147.79 681.77,-150.88 681.49,-143.88"/>
</a>
</g>
</g>
<!-- Node27&#45;&gt;Node22 -->
<g id="edge30_Node000027_Node000022" class="edge">
<title>Node27&#45;&gt;Node22</title>
<g id="a_edge30_Node000027_Node000022"><a xlink:title=" ">
<path fill="none" stroke="#63b8ff" d="M679.61,-100.33C751.86,-99.69 852.22,-102.35 939,-117.5 974.03,-123.62 1012.48,-136.27 1040.04,-146.45"/>
<polygon fill="#63b8ff" stroke="#63b8ff" points="679.57,-96.83 669.61,-100.44 679.65,-103.83 679.57,-96.83"/>
</a>
</g>
</g>
</g>
</svg>
