<?xml version="1.0" encoding="UTF-8" standalone="no"?>
<!DOCTYPE svg PUBLIC "-//W3C//DTD SVG 1.1//EN"
 "http://www.w3.org/Graphics/SVG/1.1/DTD/svg11.dtd">
<!-- Generated by graphviz version 2.43.0 (0)
 -->
<!-- Title: FiftyOne.Pipeline.Engines.Services.IMissingPropertyService Pages: 1 -->
<svg width="187pt" height="184pt"
 viewBox="0.00 0.00 187.00 184.00" xmlns="http://www.w3.org/2000/svg" xmlns:xlink="http://www.w3.org/1999/xlink">
<g id="graph0" class="graph" transform="scale(1 1) rotate(0) translate(4 180)">
<title>FiftyOne.Pipeline.Engines.Services.IMissingPropertyService</title>
<!-- Node0 -->
<g id="node1" class="node">
<title>Node0</title>
<g id="a_node1"><a xlink:title="Service that determines the reason for a property not being populated by an engine.">
<polygon fill="#bfbfbf" stroke="black" points="0,-145.5 0,-175.5 179,-175.5 179,-145.5 0,-145.5"/>
<text text-anchor="start" x="8" y="-163.5" font-family="Helvetica,sans-Serif" font-size="10.00">FiftyOne.Pipeline.Engines.</text>
<text text-anchor="middle" x="89.5" y="-152.5" font-family="Helvetica,sans-Serif" font-size="10.00">Services.IMissingPropertyService</text>
</a>
</g>
</g>
<!-- Node1 -->
<g id="node2" class="node">
<title>Node1</title>
<g id="a_node2"><a xlink:href="class_fifty_one_1_1_pipeline_1_1_engines_1_1_services_1_1_missing_property_service.html" target="_top" xlink:title="Service that determines the reason for a property not being populated by an engine.">
<polygon fill="none" stroke="black" points="1.5,-78.5 1.5,-108.5 177.5,-108.5 177.5,-78.5 1.5,-78.5"/>
<text text-anchor="start" x="9.5" y="-96.5" font-family="Helvetica,sans-Serif" font-size="10.00">FiftyOne.Pipeline.Engines.</text>
<text text-anchor="middle" x="89.5" y="-85.5" font-family="Helvetica,sans-Serif" font-size="10.00">Services.MissingPropertyService</text>
</a>
</g>
</g>
<!-- Node0&#45;&gt;Node1 -->
<g id="edge1" class="edge">
<title>Node0&#45;&gt;Node1</title>
<path fill="none" stroke="midnightblue" d="M89.5,-135.11C89.5,-126.15 89.5,-116.32 89.5,-108.58"/>
<polygon fill="midnightblue" stroke="midnightblue" points="86,-135.4 89.5,-145.4 93,-135.4 86,-135.4"/>
</g>
<!-- Node2 -->
<g id="node3" class="node">
<title>Node2</title>
<g id="a_node3"><a xlink:href="class_fifty_one_1_1_pipeline_1_1_engines_1_1_services_1_1_missing_property_service_on_premise.html" target="_top" xlink:title="On&#45;premise missing&#45;property service.">
<polygon fill="none" stroke="black" points="1.5,-0.5 1.5,-41.5 177.5,-41.5 177.5,-0.5 1.5,-0.5"/>
<text text-anchor="start" x="9.5" y="-29.5" font-family="Helvetica,sans-Serif" font-size="10.00">FiftyOne.Pipeline.Engines.</text>
<text text-anchor="start" x="9.5" y="-18.5" font-family="Helvetica,sans-Serif" font-size="10.00">Services.MissingPropertyService</text>
<text text-anchor="middle" x="89.5" y="-7.5" font-family="Helvetica,sans-Serif" font-size="10.00">OnPremise</text>
</a>
</g>
</g>
<!-- Node1&#45;&gt;Node2 -->
<g id="edge2" class="edge">
<title>Node1&#45;&gt;Node2</title>
<path fill="none" stroke="midnightblue" d="M89.5,-67.98C89.5,-59.35 89.5,-49.76 89.5,-41.59"/>
<polygon fill="midnightblue" stroke="midnightblue" points="86,-68.23 89.5,-78.23 93,-68.23 86,-68.23"/>
</g>
</g>
</svg>
