<?xml version="1.0" encoding="UTF-8" standalone="no"?>
<!DOCTYPE svg PUBLIC "-//W3C//DTD SVG 1.1//EN"
 "http://www.w3.org/Graphics/SVG/1.1/DTD/svg11.dtd">
<!-- Generated by graphviz version 2.43.0 (0)
 -->
<!-- Title: FiftyOne.Pipeline.Engines.FlowElements.IAspectEngine Pages: 1 -->
<svg width="1381pt" height="278pt"
 viewBox="0.00 0.00 1381.00 278.00" xmlns="http://www.w3.org/2000/svg" xmlns:xlink="http://www.w3.org/1999/xlink">
<g id="graph0" class="graph" transform="scale(1 1) rotate(0) translate(4 274)">
<title>FiftyOne.Pipeline.Engines.FlowElements.IAspectEngine</title>
<!-- Node0 -->
<g id="node1" class="node">
<title>Node0</title>
<g id="a_node1"><a xlink:title="Interface representing 51Degrees on&#45;premise aspect engines.">
<polygon fill="#bfbfbf" stroke="black" points="0,-196 0,-226 158,-226 158,-196 0,-196"/>
<text text-anchor="start" x="8" y="-214" font-family="Helvetica,sans-Serif" font-size="10.00">FiftyOne.Pipeline.Engines.</text>
<text text-anchor="middle" x="79" y="-203" font-family="Helvetica,sans-Serif" font-size="10.00">FlowElements.IAspectEngine</text>
</a>
</g>
</g>
<!-- Node1 -->
<g id="node2" class="node">
<title>Node1</title>
<g id="a_node2"><a xlink:href="interface_fifty_one_1_1_pipeline_1_1_engines_1_1_flow_elements_1_1_i_aspect_engine.html" target="_top" xlink:title="Interface representing 51Degrees on&#45;premise aspect engines.">
<polygon fill="none" stroke="black" points="221.5,-228.5 221.5,-269.5 379.5,-269.5 379.5,-228.5 221.5,-228.5"/>
<text text-anchor="start" x="229.5" y="-257.5" font-family="Helvetica,sans-Serif" font-size="10.00">FiftyOne.Pipeline.Engines.</text>
<text text-anchor="start" x="229.5" y="-246.5" font-family="Helvetica,sans-Serif" font-size="10.00">FlowElements.IAspectEngine</text>
<text text-anchor="middle" x="300.5" y="-235.5" font-family="Helvetica,sans-Serif" font-size="10.00">&lt; T, TMeta &gt;</text>
</a>
</g>
</g>
<!-- Node0&#45;&gt;Node1 -->
<g id="edge1" class="edge">
<title>Node0&#45;&gt;Node1</title>
<path fill="none" stroke="midnightblue" d="M168.25,-219.64C185.83,-222.49 204.17,-225.72 221.38,-228.98"/>
<polygon fill="midnightblue" stroke="midnightblue" points="168.43,-216.13 158.01,-218.01 167.33,-223.04 168.43,-216.13"/>
</g>
<!-- Node0&#45;&gt;Node1 -->
<g id="edge13" class="edge">
<title>Node0&#45;&gt;Node1</title>
<path fill="none" stroke="midnightblue" d="M142.74,-228.03C167.22,-232.91 195.56,-237.93 221.35,-241.96"/>
<polygon fill="midnightblue" stroke="midnightblue" points="143.35,-224.58 132.86,-226.02 141.96,-231.44 143.35,-224.58"/>
</g>
<!-- Node2 -->
<g id="node3" class="node">
<title>Node2</title>
<g id="a_node3"><a xlink:href="interface_fifty_one_1_1_pipeline_1_1_engines_1_1_flow_elements_1_1_i_cloud_aspect_engine.html" target="_top" xlink:title="An interface for aspect engines that process responses from a cloud service.">
<polygon fill="none" stroke="black" points="208,-179 208,-209 393,-209 393,-179 208,-179"/>
<text text-anchor="start" x="216" y="-197" font-family="Helvetica,sans-Serif" font-size="10.00">FiftyOne.Pipeline.Engines.</text>
<text text-anchor="middle" x="300.5" y="-186" font-family="Helvetica,sans-Serif" font-size="10.00">FlowElements.ICloudAspectEngine</text>
</a>
</g>
</g>
<!-- Node0&#45;&gt;Node2 -->
<g id="edge2" class="edge">
<title>Node0&#45;&gt;Node2</title>
<path fill="none" stroke="midnightblue" d="M168.34,-204.16C181.36,-203.15 194.79,-202.11 207.87,-201.1"/>
<polygon fill="midnightblue" stroke="midnightblue" points="167.71,-200.7 158.01,-204.96 168.25,-207.68 167.71,-200.7"/>
</g>
<!-- Node3 -->
<g id="node4" class="node">
<title>Node3</title>
<g id="a_node4"><a xlink:href="interface_fifty_one_1_1_pipeline_1_1_engines_1_1_flow_elements_1_1_i_on_premise_aspect_engine.html" target="_top" xlink:title="Interface for an AspectEngine that processes evidence using one or more local data files.">
<polygon fill="none" stroke="black" points="195,-130 195,-160 406,-160 406,-130 195,-130"/>
<text text-anchor="start" x="203" y="-148" font-family="Helvetica,sans-Serif" font-size="10.00">FiftyOne.Pipeline.Engines.</text>
<text text-anchor="middle" x="300.5" y="-137" font-family="Helvetica,sans-Serif" font-size="10.00">FlowElements.IOnPremiseAspectEngine</text>
</a>
</g>
</g>
<!-- Node0&#45;&gt;Node3 -->
<g id="edge3" class="edge">
<title>Node0&#45;&gt;Node3</title>
<path fill="none" stroke="midnightblue" d="M128.19,-192.52C148.63,-185.02 172.81,-176.59 195,-170 206.89,-166.47 219.66,-163.09 232.04,-160.01"/>
<polygon fill="midnightblue" stroke="midnightblue" points="126.94,-189.25 118.78,-196 129.37,-195.81 126.94,-189.25"/>
</g>
<!-- Node4 -->
<g id="node5" class="node">
<title>Node4</title>
<g id="a_node5"><a xlink:href="interface_fifty_one_1_1_pipeline_1_1_engines_1_1_fifty_one_1_1_flow_elements_1_1_i_fifty_one_aspect_engine.html" target="_top" xlink:title="51Degrees specific Engine interface.">
<polygon fill="none" stroke="black" points="669,-166.5 669,-207.5 845,-207.5 845,-166.5 669,-166.5"/>
<text text-anchor="start" x="677" y="-195.5" font-family="Helvetica,sans-Serif" font-size="10.00">FiftyOne.Pipeline.Engines.</text>
<text text-anchor="start" x="677" y="-184.5" font-family="Helvetica,sans-Serif" font-size="10.00">FiftyOne.FlowElements.IFiftyOne</text>
<text text-anchor="middle" x="757" y="-173.5" font-family="Helvetica,sans-Serif" font-size="10.00">AspectEngine</text>
</a>
</g>
</g>
<!-- Node3&#45;&gt;Node4 -->
<g id="edge4" class="edge">
<title>Node3&#45;&gt;Node4</title>
<path fill="none" stroke="midnightblue" d="M416.47,-155.62C494.85,-162.87 597.03,-172.31 668.75,-178.94"/>
<polygon fill="midnightblue" stroke="midnightblue" points="416.34,-152.1 406.06,-154.66 415.69,-159.07 416.34,-152.1"/>
</g>
<!-- Node6 -->
<g id="node7" class="node">
<title>Node6</title>
<g id="a_node7"><a xlink:href="class_fifty_one_1_1_pipeline_1_1_engines_1_1_flow_elements_1_1_on_premise_aspect_engine_base.html" target="_top" xlink:title="Base class for 51Degrees on&#45;premise aspect engines.">
<polygon fill="none" stroke="black" points="443,-84.5 443,-125.5 651,-125.5 651,-84.5 443,-84.5"/>
<text text-anchor="start" x="451" y="-113.5" font-family="Helvetica,sans-Serif" font-size="10.00">FiftyOne.Pipeline.Engines.</text>
<text text-anchor="start" x="451" y="-102.5" font-family="Helvetica,sans-Serif" font-size="10.00">FlowElements.OnPremiseAspectEngine</text>
<text text-anchor="middle" x="547" y="-91.5" font-family="Helvetica,sans-Serif" font-size="10.00">Base&lt; T, TMeta &gt;</text>
</a>
</g>
</g>
<!-- Node3&#45;&gt;Node6 -->
<g id="edge6" class="edge">
<title>Node3&#45;&gt;Node6</title>
<path fill="none" stroke="midnightblue" d="M403.15,-128.37C416.2,-126.23 429.58,-124.05 442.66,-121.91"/>
<polygon fill="midnightblue" stroke="midnightblue" points="402.54,-124.92 393.24,-129.99 403.67,-131.83 402.54,-124.92"/>
</g>
<!-- Node5 -->
<g id="node6" class="node">
<title>Node5</title>
<g id="a_node6"><a xlink:href="class_fifty_one_1_1_pipeline_1_1_engines_1_1_fifty_one_1_1_flow_elements_1_1_fifty_one_on_premise_aspect_engine_base.html" target="_top" xlink:title="51Degrees specific Engine base class.">
<polygon fill="none" stroke="black" points="1174.5,-145.5 1174.5,-186.5 1362.5,-186.5 1362.5,-145.5 1174.5,-145.5"/>
<text text-anchor="start" x="1182.5" y="-174.5" font-family="Helvetica,sans-Serif" font-size="10.00">FiftyOne.Pipeline.Engines.</text>
<text text-anchor="start" x="1182.5" y="-163.5" font-family="Helvetica,sans-Serif" font-size="10.00">FiftyOne.FlowElements.FiftyOne</text>
<text text-anchor="middle" x="1268.5" y="-152.5" font-family="Helvetica,sans-Serif" font-size="10.00">OnPremiseAspectEngineBase&lt; T &gt;</text>
</a>
</g>
</g>
<!-- Node4&#45;&gt;Node5 -->
<g id="edge5" class="edge">
<title>Node4&#45;&gt;Node5</title>
<path fill="none" stroke="midnightblue" d="M855.14,-183C947,-179.21 1083.88,-173.57 1174.38,-169.84"/>
<polygon fill="midnightblue" stroke="midnightblue" points="854.85,-179.5 845.01,-183.41 855.14,-186.5 854.85,-179.5"/>
</g>
<!-- Node7 -->
<g id="node8" class="node">
<title>Node7</title>
<g id="a_node8"><a xlink:href="class_fifty_one_1_1_pipeline_1_1_engines_1_1_flow_elements_1_1_on_premise_aspect_engine_base.html" target="_top" xlink:title=" ">
<polygon fill="none" stroke="black" points="864.5,-60.5 864.5,-101.5 1125.5,-101.5 1125.5,-60.5 864.5,-60.5"/>
<text text-anchor="start" x="872.5" y="-89.5" font-family="Helvetica,sans-Serif" font-size="10.00">FiftyOne.Pipeline.Engines.</text>
<text text-anchor="start" x="872.5" y="-78.5" font-family="Helvetica,sans-Serif" font-size="10.00">FlowElements.OnPremiseAspectEngine</text>
<text text-anchor="middle" x="995" y="-67.5" font-family="Helvetica,sans-Serif" font-size="10.00">Base&lt; IStarSignData, IAspectPropertyMetaData &gt;</text>
</a>
</g>
</g>
<!-- Node6&#45;&gt;Node7 -->
<g id="edge7" class="edge">
<title>Node6&#45;&gt;Node7</title>
<path fill="none" stroke="orange" stroke-dasharray="5,2" d="M661.31,-91.6C663.9,-91.38 666.46,-91.19 669,-91 733.18,-86.31 804.65,-83.81 864.19,-82.49"/>
<polygon fill="orange" stroke="orange" points="660.91,-88.12 651.25,-92.46 661.51,-95.09 660.91,-88.12"/>
<text text-anchor="start" x="695" y="-105" font-family="Helvetica,sans-Serif" font-size="10.00"> &lt; IStarSignData, IAspect</text>
<text text-anchor="middle" x="757" y="-94" font-family="Helvetica,sans-Serif" font-size="10.00">PropertyMetaData &gt;</text>
</g>
<!-- Node9 -->
<g id="node10" class="node">
<title>Node9</title>
<g id="a_node10"><a xlink:href="class_fifty_one_1_1_pipeline_1_1_engines_1_1_flow_elements_1_1_on_premise_aspect_engine_base.html" target="_top" xlink:title=" ">
<polygon fill="none" stroke="black" points="863,-0.5 863,-41.5 1127,-41.5 1127,-0.5 863,-0.5"/>
<text text-anchor="start" x="871" y="-29.5" font-family="Helvetica,sans-Serif" font-size="10.00">FiftyOne.Pipeline.Engines.</text>
<text text-anchor="start" x="871" y="-18.5" font-family="Helvetica,sans-Serif" font-size="10.00">FlowElements.OnPremiseAspectEngine</text>
<text text-anchor="middle" x="995" y="-7.5" font-family="Helvetica,sans-Serif" font-size="10.00">Base&lt; TData, IFiftyOneAspectPropertyMetaData &gt;</text>
</a>
</g>
</g>
<!-- Node6&#45;&gt;Node9 -->
<g id="edge9" class="edge">
<title>Node6&#45;&gt;Node9</title>
<path fill="none" stroke="orange" stroke-dasharray="5,2" d="M602.27,-80.49C622.8,-72.14 646.62,-63.52 669,-58 731.85,-42.49 803.18,-33.46 862.96,-28.21"/>
<polygon fill="orange" stroke="orange" points="600.68,-77.36 592.78,-84.43 603.36,-83.83 600.68,-77.36"/>
<text text-anchor="start" x="693.5" y="-72" font-family="Helvetica,sans-Serif" font-size="10.00"> &lt; TData, IFiftyOneAspect</text>
<text text-anchor="middle" x="757" y="-61" font-family="Helvetica,sans-Serif" font-size="10.00">PropertyMetaData &gt;</text>
</g>
<!-- Node11 -->
<g id="node12" class="node">
<title>Node11</title>
<g id="a_node12"><a xlink:href="class_fifty_one_1_1_pipeline_1_1_engines_1_1_flow_elements_1_1_on_premise_aspect_engine_base.html" target="_top" xlink:title=" ">
<polygon fill="none" stroke="black" points="874.5,-120.5 874.5,-161.5 1115.5,-161.5 1115.5,-120.5 874.5,-120.5"/>
<text text-anchor="start" x="882.5" y="-149.5" font-family="Helvetica,sans-Serif" font-size="10.00">FiftyOne.Pipeline.Engines.</text>
<text text-anchor="start" x="882.5" y="-138.5" font-family="Helvetica,sans-Serif" font-size="10.00">FlowElements.OnPremiseAspectEngine</text>
<text text-anchor="middle" x="995" y="-127.5" font-family="Helvetica,sans-Serif" font-size="10.00">Base&lt; T, IFiftyOneAspectPropertyMetaData &gt;</text>
</a>
</g>
</g>
<!-- Node6&#45;&gt;Node11 -->
<g id="edge11" class="edge">
<title>Node6&#45;&gt;Node11</title>
<path fill="none" stroke="orange" stroke-dasharray="5,2" d="M661.47,-114.16C726.59,-119.42 808.29,-126.01 874.41,-131.35"/>
<polygon fill="orange" stroke="orange" points="661.41,-110.64 651.16,-113.33 660.85,-117.62 661.41,-110.64"/>
<text text-anchor="start" x="684.5" y="-143" font-family="Helvetica,sans-Serif" font-size="10.00"> &lt; T, IFiftyOneAspectProperty</text>
<text text-anchor="middle" x="757" y="-132" font-family="Helvetica,sans-Serif" font-size="10.00">MetaData &gt;</text>
</g>
<!-- Node8 -->
<g id="node9" class="node">
<title>Node8</title>
<g id="a_node9"><a xlink:href="class_examples_1_1_on_premise_engine_1_1_flow_elements_1_1_simple_on_premise_engine.html" target="_top" xlink:title="[class] [constructor]">
<polygon fill="none" stroke="black" points="1164,-66 1164,-96 1373,-96 1373,-66 1164,-66"/>
<text text-anchor="start" x="1172" y="-84" font-family="Helvetica,sans-Serif" font-size="10.00">Examples.OnPremiseEngine.</text>
<text text-anchor="middle" x="1268.5" y="-73" font-family="Helvetica,sans-Serif" font-size="10.00">FlowElements.SimpleOnPremiseEngine</text>
</a>
</g>
</g>
<!-- Node7&#45;&gt;Node8 -->
<g id="edge8" class="edge">
<title>Node7&#45;&gt;Node8</title>
<path fill="none" stroke="midnightblue" d="M1136,-81C1145.42,-81 1154.81,-81 1163.99,-81"/>
<polygon fill="midnightblue" stroke="midnightblue" points="1135.79,-77.5 1125.79,-81 1135.79,-84.5 1135.79,-77.5"/>
</g>
<!-- Node10 -->
<g id="node11" class="node">
<title>Node10</title>
<g id="a_node11"><a xlink:href="class_fifty_one_1_1_pipeline_1_1_engines_1_1_fifty_one_1_1_flow_elements_1_1_property_keyed_engine.html" target="_top" xlink:title="Base class for engines that use an index of property values to profile ids to populate one or more pr...">
<polygon fill="none" stroke="black" points="1181.5,-0.5 1181.5,-41.5 1355.5,-41.5 1355.5,-0.5 1181.5,-0.5"/>
<text text-anchor="start" x="1189.5" y="-29.5" font-family="Helvetica,sans-Serif" font-size="10.00">FiftyOne.Pipeline.Engines.</text>
<text text-anchor="start" x="1189.5" y="-18.5" font-family="Helvetica,sans-Serif" font-size="10.00">FiftyOne.FlowElements.Property</text>
<text text-anchor="middle" x="1268.5" y="-7.5" font-family="Helvetica,sans-Serif" font-size="10.00">KeyedEngine&lt; TData, TProfile &gt;</text>
</a>
</g>
</g>
<!-- Node9&#45;&gt;Node10 -->
<g id="edge10" class="edge">
<title>Node9&#45;&gt;Node10</title>
<path fill="none" stroke="midnightblue" d="M1137.66,-21C1152.5,-21 1167.24,-21 1181.19,-21"/>
<polygon fill="midnightblue" stroke="midnightblue" points="1137.38,-17.5 1127.38,-21 1137.38,-24.5 1137.38,-17.5"/>
</g>
<!-- Node11&#45;&gt;Node5 -->
<g id="edge12" class="edge">
<title>Node11&#45;&gt;Node5</title>
<path fill="none" stroke="midnightblue" d="M1126.01,-152.97C1142.33,-154.47 1158.77,-155.99 1174.36,-157.42"/>
<polygon fill="midnightblue" stroke="midnightblue" points="1126.15,-149.47 1115.87,-152.04 1125.51,-156.44 1126.15,-149.47"/>
</g>
</g>
</svg>
