<?xml version="1.0" encoding="UTF-8" standalone="no"?>
<!DOCTYPE svg PUBLIC "-//W3C//DTD SVG 1.1//EN"
 "http://www.w3.org/Graphics/SVG/1.1/DTD/svg11.dtd">
<!-- Generated by graphviz version 2.43.0 (0)
 -->
<!-- Title: FiftyOne.Pipeline.Engines.FlowElements.IAspectEngine&lt; T, TMeta &gt; Pages: 1 -->
<svg width="657pt" height="98pt"
 viewBox="0.00 0.00 657.00 97.50" xmlns="http://www.w3.org/2000/svg" xmlns:xlink="http://www.w3.org/1999/xlink">
<g id="graph0" class="graph" transform="scale(1 1) rotate(0) translate(4 93.5)">
<title>FiftyOne.Pipeline.Engines.FlowElements.IAspectEngine&lt; T, TMeta &gt;</title>
<!-- Node1 -->
<g id="Node000001" class="node">
<title>Node1</title>
<g id="a_Node000001"><a xlink:title="Interface representing 51Degrees on&#45;premise aspect engines.">
<polygon fill="#999999" stroke="#666666" points="649,-68 491,-68 491,-27 649,-27 649,-68"/>
<text text-anchor="start" x="499" y="-56" font-family="Helvetica,sans-Serif" font-size="10.00">FiftyOne.Pipeline.Engines.</text>
<text text-anchor="start" x="499" y="-45" font-family="Helvetica,sans-Serif" font-size="10.00">FlowElements.IAspectEngine</text>
<text text-anchor="middle" x="570" y="-34" font-family="Helvetica,sans-Serif" font-size="10.00">&lt; T, TMeta &gt;</text>
</a>
</g>
</g>
<!-- Node2 -->
<g id="Node000002" class="node">
<title>Node2</title>
<g id="a_Node000002"><a xlink:href="interface_fifty_one_1_1_pipeline_1_1_engines_1_1_flow_elements_1_1_i_aspect_engine.html" target="_top" xlink:title="Interface representing 51Degrees on&#45;premise aspect engines.">
<polygon fill="white" stroke="#666666" points="455,-89.5 297,-89.5 297,-59.5 455,-59.5 455,-89.5"/>
<text text-anchor="start" x="305" y="-77.5" font-family="Helvetica,sans-Serif" font-size="10.00">FiftyOne.Pipeline.Engines.</text>
<text text-anchor="middle" x="376" y="-66.5" font-family="Helvetica,sans-Serif" font-size="10.00">FlowElements.IAspectEngine</text>
</a>
</g>
</g>
<!-- Node2&#45;&gt;Node1 -->
<g id="edge1_Node000001_Node000002" class="edge">
<title>Node2&#45;&gt;Node1</title>
<g id="a_edge1_Node000001_Node000002"><a xlink:title=" ">
<path fill="none" stroke="#63b8ff" d="M465.15,-62.1C473.77,-60.89 482.47,-59.67 490.98,-58.47"/>
<polygon fill="#63b8ff" stroke="#63b8ff" points="464.51,-58.66 455.09,-63.52 465.48,-65.59 464.51,-58.66"/>
</a>
</g>
</g>
<!-- Node3 -->
<g id="Node000003" class="node">
<title>Node3</title>
<g id="a_Node000003"><a xlink:href="interface_fifty_one_1_1_pipeline_1_1_core_1_1_flow_elements_1_1_i_flow_element.html" target="_top" xlink:title="IFlowElement is the basic building block of a pipeline.">
<polygon fill="white" stroke="#666666" points="261,-62.5 110,-62.5 110,-32.5 261,-32.5 261,-62.5"/>
<text text-anchor="start" x="118" y="-50.5" font-family="Helvetica,sans-Serif" font-size="10.00">FiftyOne.Pipeline.Core.Flow</text>
<text text-anchor="middle" x="185.5" y="-39.5" font-family="Helvetica,sans-Serif" font-size="10.00">Elements.IFlowElement</text>
</a>
</g>
</g>
<!-- Node3&#45;&gt;Node2 -->
<g id="edge2_Node000002_Node000003" class="edge">
<title>Node3&#45;&gt;Node2</title>
<g id="a_edge2_Node000002_Node000003"><a xlink:title=" ">
<path fill="none" stroke="#63b8ff" d="M270.98,-59.6C279.54,-60.83 288.21,-62.07 296.71,-63.29"/>
<polygon fill="#63b8ff" stroke="#63b8ff" points="271.4,-56.12 261,-58.17 270.4,-63.05 271.4,-56.12"/>
</a>
</g>
</g>
<!-- Node5 -->
<g id="Node000005" class="node">
<title>Node5</title>
<g id="a_Node000005"><a xlink:href="interface_fifty_one_1_1_pipeline_1_1_core_1_1_flow_elements_1_1_i_flow_element-2-g.html" target="_top" xlink:title="Generic interface that extends IFlowElement with the ability to return a ITypedKey&lt;T&gt; that will allow...">
<polygon fill="white" stroke="#666666" points="452,-41 300,-41 300,0 452,0 452,-41"/>
<text text-anchor="start" x="308" y="-29" font-family="Helvetica,sans-Serif" font-size="10.00">FiftyOne.Pipeline.Core.Flow</text>
<text text-anchor="start" x="308" y="-18" font-family="Helvetica,sans-Serif" font-size="10.00">Elements.IFlowElement&lt; T,</text>
<text text-anchor="middle" x="376" y="-7" font-family="Helvetica,sans-Serif" font-size="10.00"> TMeta &gt;</text>
</a>
</g>
</g>
<!-- Node3&#45;&gt;Node5 -->
<g id="edge5_Node000005_Node000003" class="edge">
<title>Node3&#45;&gt;Node5</title>
<g id="a_edge5_Node000005_Node000003"><a xlink:title=" ">
<path fill="none" stroke="#63b8ff" d="M270.95,-35.4C280.57,-34.03 290.32,-32.63 299.81,-31.27"/>
<polygon fill="#63b8ff" stroke="#63b8ff" points="270.4,-31.95 261,-36.83 271.4,-38.88 270.4,-31.95"/>
</a>
</g>
</g>
<!-- Node4 -->
<g id="Node000004" class="node">
<title>Node4</title>
<g id="a_Node000004"><a xlink:title=" ">
<polygon fill="white" stroke="#bfbfbf" points="74,-57 0,-57 0,-38 74,-38 74,-57"/>
<text text-anchor="middle" x="37" y="-45" font-family="Helvetica,sans-Serif" font-size="10.00">IDisposable</text>
</a>
</g>
</g>
<!-- Node4&#45;&gt;Node3 -->
<g id="edge3_Node000003_Node000004" class="edge">
<title>Node4&#45;&gt;Node3</title>
<g id="a_edge3_Node000003_Node000004"><a xlink:title=" ">
<path fill="none" stroke="#63b8ff" d="M84.22,-47.5C92.38,-47.5 101.05,-47.5 109.75,-47.5"/>
<polygon fill="#63b8ff" stroke="#63b8ff" points="84.21,-44 74.21,-47.5 84.21,-51 84.21,-44"/>
</a>
</g>
</g>
<!-- Node5&#45;&gt;Node1 -->
<g id="edge4_Node000001_Node000005" class="edge">
<title>Node5&#45;&gt;Node1</title>
<g id="a_edge4_Node000001_Node000005"><a xlink:title=" ">
<path fill="none" stroke="#63b8ff" d="M461.99,-32.45C471.58,-33.8 481.33,-35.17 490.83,-36.51"/>
<polygon fill="#63b8ff" stroke="#63b8ff" points="462.45,-28.98 452.06,-31.05 461.47,-35.91 462.45,-28.98"/>
</a>
</g>
</g>
</g>
</svg>
