<?xml version="1.0" encoding="UTF-8" standalone="no"?>
<!DOCTYPE svg PUBLIC "-//W3C//DTD SVG 1.1//EN"
 "http://www.w3.org/Graphics/SVG/1.1/DTD/svg11.dtd">
<!-- Generated by graphviz version 2.43.0 (0)
 -->
<!-- Title: FiftyOne.Pipeline.Engines.Trackers.ITracker Pages: 1 -->
<svg width="204pt" height="170pt"
 viewBox="0.00 0.00 204.00 170.00" xmlns="http://www.w3.org/2000/svg" xmlns:xlink="http://www.w3.org/1999/xlink">
<g id="graph0" class="graph" transform="scale(1 1) rotate(0) translate(4 166)">
<title>FiftyOne.Pipeline.Engines.Trackers.ITracker</title>
<!-- Node1 -->
<g id="Node000001" class="node">
<title>Node1</title>
<g id="a_Node000001"><a xlink:title=" ">
<polygon fill="#999999" stroke="#666666" points="169.5,-162 26.5,-162 26.5,-132 169.5,-132 169.5,-162"/>
<text text-anchor="start" x="34.5" y="-150" font-family="Helvetica,sans-Serif" font-size="10.00">FiftyOne.Pipeline.Engines.</text>
<text text-anchor="middle" x="98" y="-139" font-family="Helvetica,sans-Serif" font-size="10.00">Trackers.ITracker</text>
</a>
</g>
</g>
<!-- Node2 -->
<g id="Node000002" class="node">
<title>Node2</title>
<g id="a_Node000002"><a xlink:href="class_fifty_one_1_1_pipeline_1_1_engines_1_1_trackers_1_1_tracker_base-1-g.html" target="_top" xlink:title="The abstract base class for trackers.">
<polygon fill="white" stroke="#666666" points="184.5,-96 11.5,-96 11.5,-66 184.5,-66 184.5,-96"/>
<text text-anchor="start" x="19.5" y="-84" font-family="Helvetica,sans-Serif" font-size="10.00">FiftyOne.Pipeline.Engines.</text>
<text text-anchor="middle" x="98" y="-73" font-family="Helvetica,sans-Serif" font-size="10.00">Trackers.TrackerBase&lt; TValue &gt;</text>
</a>
</g>
</g>
<!-- Node1&#45;&gt;Node2 -->
<g id="edge1_Node000001_Node000002" class="edge">
<title>Node1&#45;&gt;Node2</title>
<g id="a_edge1_Node000001_Node000002"><a xlink:title=" ">
<path fill="none" stroke="#63b8ff" d="M98,-121.54C98,-112.96 98,-103.61 98,-96.16"/>
<polygon fill="#63b8ff" stroke="#63b8ff" points="94.5,-121.8 98,-131.8 101.5,-121.8 94.5,-121.8"/>
</a>
</g>
</g>
<!-- Node3 -->
<g id="Node000003" class="node">
<title>Node3</title>
<g id="a_Node000003"><a xlink:href="class_fifty_one_1_1_pipeline_1_1_engines_1_1_fifty_one_1_1_trackers_1_1_share_usage_tracker.html" target="_top" xlink:title="A tracker used by share usage to attempt to avoid repeatedly sending data relating to the same user s...">
<polygon fill="white" stroke="#666666" points="196,-30 0,-30 0,0 196,0 196,-30"/>
<text text-anchor="start" x="8" y="-18" font-family="Helvetica,sans-Serif" font-size="10.00">FiftyOne.Pipeline.Engines.</text>
<text text-anchor="middle" x="98" y="-7" font-family="Helvetica,sans-Serif" font-size="10.00">FiftyOne.Trackers.ShareUsageTracker</text>
</a>
</g>
</g>
<!-- Node2&#45;&gt;Node3 -->
<g id="edge2_Node000002_Node000003" class="edge">
<title>Node2&#45;&gt;Node3</title>
<g id="a_edge2_Node000002_Node000003"><a xlink:title=" ">
<path fill="none" stroke="#63b8ff" d="M98,-55.54C98,-46.96 98,-37.61 98,-30.16"/>
<polygon fill="#63b8ff" stroke="#63b8ff" points="94.5,-55.8 98,-65.8 101.5,-55.8 94.5,-55.8"/>
</a>
</g>
</g>
</g>
</svg>
