<?xml version="1.0" encoding="UTF-8" standalone="no"?>
<!DOCTYPE svg PUBLIC "-//W3C//DTD SVG 1.1//EN"
 "http://www.w3.org/Graphics/SVG/1.1/DTD/svg11.dtd">
<!-- Generated by graphviz version 2.43.0 (0)
 -->
<!-- Title: FiftyOne.Pipeline.Translation.FlowElements.ITranslationEngine Pages: 1 -->
<svg width="186pt" height="236pt"
 viewBox="0.00 0.00 186.00 236.00" xmlns="http://www.w3.org/2000/svg" xmlns:xlink="http://www.w3.org/1999/xlink">
<g id="graph0" class="graph" transform="scale(1 1) rotate(0) translate(4 232)">
<title>FiftyOne.Pipeline.Translation.FlowElements.ITranslationEngine</title>
<!-- Node1 -->
<g id="Node000001" class="node">
<title>Node1</title>
<g id="a_Node000001"><a xlink:title="Flow element that translates values from a single source element and stores translated values under i...">
<polygon fill="#999999" stroke="#666666" points="178,-30 0,-30 0,0 178,0 178,-30"/>
<text text-anchor="start" x="8" y="-18" font-family="Helvetica,sans-Serif" font-size="10.00">FiftyOne.Pipeline.Translation.</text>
<text text-anchor="middle" x="89" y="-7" font-family="Helvetica,sans-Serif" font-size="10.00">FlowElements.ITranslationEngine</text>
</a>
</g>
</g>
<!-- Node2 -->
<g id="Node000002" class="node">
<title>Node2</title>
<g id="a_Node000002"><a xlink:href="interface_fifty_one_1_1_pipeline_1_1_core_1_1_flow_elements_1_1_i_flow_element-2-g.html" target="_top" xlink:title="Generic interface that extends IFlowElement with the ability to return a ITypedKey&lt;T&gt; that will allow...">
<polygon fill="white" stroke="#666666" points="165,-107 13,-107 13,-66 165,-66 165,-107"/>
<text text-anchor="start" x="21" y="-95" font-family="Helvetica,sans-Serif" font-size="10.00">FiftyOne.Pipeline.Core.Flow</text>
<text text-anchor="start" x="21" y="-84" font-family="Helvetica,sans-Serif" font-size="10.00">Elements.IFlowElement&lt; T,</text>
<text text-anchor="middle" x="89" y="-73" font-family="Helvetica,sans-Serif" font-size="10.00"> TMeta &gt;</text>
</a>
</g>
</g>
<!-- Node2&#45;&gt;Node1 -->
<g id="edge1_Node000001_Node000002" class="edge">
<title>Node2&#45;&gt;Node1</title>
<g id="a_edge1_Node000001_Node000002"><a xlink:title=" ">
<path fill="none" stroke="#63b8ff" d="M89,-55.66C89,-46.76 89,-37.42 89,-30.04"/>
<polygon fill="#63b8ff" stroke="#63b8ff" points="85.5,-55.77 89,-65.77 92.5,-55.77 85.5,-55.77"/>
</a>
</g>
</g>
<!-- Node3 -->
<g id="Node000003" class="node">
<title>Node3</title>
<g id="a_Node000003"><a xlink:href="interface_fifty_one_1_1_pipeline_1_1_core_1_1_flow_elements_1_1_i_flow_element.html" target="_top" xlink:title="IFlowElement is the basic building block of a pipeline.">
<polygon fill="white" stroke="#666666" points="164.5,-173 13.5,-173 13.5,-143 164.5,-143 164.5,-173"/>
<text text-anchor="start" x="21.5" y="-161" font-family="Helvetica,sans-Serif" font-size="10.00">FiftyOne.Pipeline.Core.Flow</text>
<text text-anchor="middle" x="89" y="-150" font-family="Helvetica,sans-Serif" font-size="10.00">Elements.IFlowElement</text>
</a>
</g>
</g>
<!-- Node3&#45;&gt;Node2 -->
<g id="edge2_Node000002_Node000003" class="edge">
<title>Node3&#45;&gt;Node2</title>
<g id="a_edge2_Node000002_Node000003"><a xlink:title=" ">
<path fill="none" stroke="#63b8ff" d="M89,-132.91C89,-124.47 89,-115.1 89,-107.07"/>
<polygon fill="#63b8ff" stroke="#63b8ff" points="85.5,-132.94 89,-142.94 92.5,-132.94 85.5,-132.94"/>
</a>
</g>
</g>
<!-- Node4 -->
<g id="Node000004" class="node">
<title>Node4</title>
<g id="a_Node000004"><a xlink:title=" ">
<polygon fill="white" stroke="#bfbfbf" points="126,-228 52,-228 52,-209 126,-209 126,-228"/>
<text text-anchor="middle" x="89" y="-216" font-family="Helvetica,sans-Serif" font-size="10.00">IDisposable</text>
</a>
</g>
</g>
<!-- Node4&#45;&gt;Node3 -->
<g id="edge3_Node000003_Node000004" class="edge">
<title>Node4&#45;&gt;Node3</title>
<g id="a_edge3_Node000003_Node000004"><a xlink:title=" ">
<path fill="none" stroke="#63b8ff" d="M89,-198.65C89,-190.36 89,-180.78 89,-173.11"/>
<polygon fill="#63b8ff" stroke="#63b8ff" points="85.5,-198.87 89,-208.87 92.5,-198.87 85.5,-198.87"/>
</a>
</g>
</g>
</g>
</svg>
