<?xml version="1.0" encoding="UTF-8" standalone="no"?>
<!DOCTYPE svg PUBLIC "-//W3C//DTD SVG 1.1//EN"
 "http://www.w3.org/Graphics/SVG/1.1/DTD/svg11.dtd">
<!-- Generated by graphviz version 2.43.0 (0)
 -->
<!-- Title: FiftyOne.Pipeline.Engines.FiftyOne.Data.IValueMetaData Pages: 1 -->
<svg width="266pt" height="159pt"
 viewBox="0.00 0.00 266.00 159.00" xmlns="http://www.w3.org/2000/svg" xmlns:xlink="http://www.w3.org/1999/xlink">
<g id="graph0" class="graph" transform="scale(1 1) rotate(0) translate(4 155)">
<title>FiftyOne.Pipeline.Engines.FiftyOne.Data.IValueMetaData</title>
<!-- Node1 -->
<g id="Node000001" class="node">
<title>Node1</title>
<g id="a_Node000001"><a xlink:title="Meta data relating to a specific value within a data set.">
<polygon fill="#999999" stroke="#666666" points="208,-96 44,-96 44,-66 208,-66 208,-96"/>
<text text-anchor="start" x="52" y="-84" font-family="Helvetica,sans-Serif" font-size="10.00">FiftyOne.Pipeline.Engines.</text>
<text text-anchor="middle" x="126" y="-73" font-family="Helvetica,sans-Serif" font-size="10.00">FiftyOne.Data.IValueMetaData</text>
</a>
</g>
</g>
<!-- Node5 -->
<g id="Node000005" class="node">
<title>Node5</title>
<g id="a_Node000005"><a xlink:href="class_fifty_one_1_1_pipeline_1_1_engines_1_1_fifty_one_1_1_data_1_1_value_meta_data_default.html" target="_top" xlink:title="Data class that contains meta&#45;data relating to a specific value.">
<polygon fill="white" stroke="#666666" points="224.5,-30 27.5,-30 27.5,0 224.5,0 224.5,-30"/>
<text text-anchor="start" x="35.5" y="-18" font-family="Helvetica,sans-Serif" font-size="10.00">FiftyOne.Pipeline.Engines.</text>
<text text-anchor="middle" x="126" y="-7" font-family="Helvetica,sans-Serif" font-size="10.00">FiftyOne.Data.ValueMetaDataDefault</text>
</a>
</g>
</g>
<!-- Node1&#45;&gt;Node5 -->
<g id="edge4_Node000001_Node000005" class="edge">
<title>Node1&#45;&gt;Node5</title>
<g id="a_edge4_Node000001_Node000005"><a xlink:title=" ">
<path fill="none" stroke="#63b8ff" d="M126,-55.54C126,-46.96 126,-37.61 126,-30.16"/>
<polygon fill="#63b8ff" stroke="#63b8ff" points="122.5,-55.8 126,-65.8 129.5,-55.8 122.5,-55.8"/>
</a>
</g>
</g>
<!-- Node2 -->
<g id="Node000002" class="node">
<title>Node2</title>
<g id="a_Node000002"><a xlink:title=" ">
<polygon fill="white" stroke="#bfbfbf" points="68,-151 0,-151 0,-132 68,-132 68,-151"/>
<text text-anchor="middle" x="34" y="-139" font-family="Helvetica,sans-Serif" font-size="10.00">IEquatable</text>
</a>
</g>
</g>
<!-- Node2&#45;&gt;Node1 -->
<g id="edge1_Node000001_Node000002" class="edge">
<title>Node2&#45;&gt;Node1</title>
<g id="a_edge1_Node000001_Node000002"><a xlink:title=" ">
<path fill="none" stroke="#63b8ff" d="M56.34,-126.29C70.75,-117.13 89.42,-105.26 103.8,-96.11"/>
<polygon fill="#63b8ff" stroke="#63b8ff" points="54.14,-123.55 47.57,-131.87 57.89,-129.46 54.14,-123.55"/>
</a>
</g>
</g>
<!-- Node3 -->
<g id="Node000003" class="node">
<title>Node3</title>
<g id="a_Node000003"><a xlink:title=" ">
<polygon fill="white" stroke="#bfbfbf" points="165.5,-151 86.5,-151 86.5,-132 165.5,-132 165.5,-151"/>
<text text-anchor="middle" x="126" y="-139" font-family="Helvetica,sans-Serif" font-size="10.00">IComparable</text>
</a>
</g>
</g>
<!-- Node3&#45;&gt;Node1 -->
<g id="edge2_Node000001_Node000003" class="edge">
<title>Node3&#45;&gt;Node1</title>
<g id="a_edge2_Node000001_Node000003"><a xlink:title=" ">
<path fill="none" stroke="#63b8ff" d="M126,-121.65C126,-113.36 126,-103.78 126,-96.11"/>
<polygon fill="#63b8ff" stroke="#63b8ff" points="122.5,-121.87 126,-131.87 129.5,-121.87 122.5,-121.87"/>
</a>
</g>
</g>
<!-- Node4 -->
<g id="Node000004" class="node">
<title>Node4</title>
<g id="a_Node000004"><a xlink:title=" ">
<polygon fill="white" stroke="#bfbfbf" points="258,-151 184,-151 184,-132 258,-132 258,-151"/>
<text text-anchor="middle" x="221" y="-139" font-family="Helvetica,sans-Serif" font-size="10.00">IDisposable</text>
</a>
</g>
</g>
<!-- Node4&#45;&gt;Node1 -->
<g id="edge3_Node000001_Node000004" class="edge">
<title>Node4&#45;&gt;Node1</title>
<g id="a_edge3_Node000001_Node000004"><a xlink:title=" ">
<path fill="none" stroke="#63b8ff" d="M198.35,-126.55C183.42,-117.36 163.91,-105.35 148.92,-96.11"/>
<polygon fill="#63b8ff" stroke="#63b8ff" points="196.63,-129.6 206.98,-131.87 200.3,-123.64 196.63,-129.6"/>
</a>
</g>
</g>
</g>
</svg>
