<?xml version="1.0" encoding="UTF-8" standalone="no"?>
<!DOCTYPE svg PUBLIC "-//W3C//DTD SVG 1.1//EN"
 "http://www.w3.org/Graphics/SVG/1.1/DTD/svg11.dtd">
<!-- Generated by graphviz version 2.43.0 (0)
 -->
<!-- Title: FiftyOne.Pipeline.Core.Data.IElementData Pages: 1 -->
<svg width="1026pt" height="610pt"
 viewBox="0.00 0.00 1026.00 610.00" xmlns="http://www.w3.org/2000/svg" xmlns:xlink="http://www.w3.org/1999/xlink">
<g id="graph0" class="graph" transform="scale(1 1) rotate(0) translate(4 606)">
<title>FiftyOne.Pipeline.Core.Data.IElementData</title>
<!-- Node1 -->
<g id="Node000001" class="node">
<title>Node1</title>
<g id="a_Node000001"><a xlink:title="Represents property values that have been determined by a specific FlowElement based on the supplied ...">
<polygon fill="#999999" stroke="#666666" points="344,-245 190,-245 190,-215 344,-215 344,-245"/>
<text text-anchor="start" x="198" y="-233" font-family="Helvetica,sans-Serif" font-size="10.00">FiftyOne.Pipeline.Core.Data.</text>
<text text-anchor="middle" x="267" y="-222" font-family="Helvetica,sans-Serif" font-size="10.00">IElementData</text>
</a>
</g>
</g>
<!-- Node3 -->
<g id="Node000003" class="node">
<title>Node3</title>
<g id="a_Node000003"><a xlink:href="interface_examples_1_1_custom_flow_element_1_1_data_1_1_i_star_sign_data.html" target="_top" xlink:title=" ">
<polygon fill="white" stroke="#bfbfbf" points="556.5,-416 384.5,-416 384.5,-386 556.5,-386 556.5,-416"/>
<text text-anchor="start" x="392.5" y="-404" font-family="Helvetica,sans-Serif" font-size="10.00">Examples.CustomFlowElement.</text>
<text text-anchor="middle" x="470.5" y="-393" font-family="Helvetica,sans-Serif" font-size="10.00">Data.IStarSignData</text>
</a>
</g>
</g>
<!-- Node1&#45;&gt;Node3 -->
<g id="edge2_Node000001_Node000003" class="edge">
<title>Node1&#45;&gt;Node3</title>
<g id="a_edge2_Node000001_Node000003"><a xlink:title=" ">
<path fill="none" stroke="#63b8ff" d="M279.8,-254.05C297.16,-286.89 332.71,-345.28 380,-377 385.08,-380.41 390.62,-383.33 396.37,-385.84"/>
<polygon fill="#63b8ff" stroke="#63b8ff" points="282.89,-252.41 275.2,-245.12 276.67,-255.62 282.89,-252.41"/>
</a>
</g>
</g>
<!-- Node5 -->
<g id="Node000005" class="node">
<title>Node5</title>
<g id="a_Node000005"><a xlink:href="class_fifty_one_1_1_pipeline_1_1_core_1_1_data_1_1_element_data_base.html" target="_top" xlink:title="This class stores property values that have been determined by a specific FlowElement based on the su...">
<polygon fill="white" stroke="#666666" points="547.5,-272 393.5,-272 393.5,-242 547.5,-242 547.5,-272"/>
<text text-anchor="start" x="401.5" y="-260" font-family="Helvetica,sans-Serif" font-size="10.00">FiftyOne.Pipeline.Core.Data.</text>
<text text-anchor="middle" x="470.5" y="-249" font-family="Helvetica,sans-Serif" font-size="10.00">ElementDataBase</text>
</a>
</g>
</g>
<!-- Node1&#45;&gt;Node5 -->
<g id="edge4_Node000001_Node000005" class="edge">
<title>Node1&#45;&gt;Node5</title>
<g id="a_edge4_Node000001_Node000005"><a xlink:title=" ">
<path fill="none" stroke="#63b8ff" d="M354.44,-241.58C367.33,-243.31 380.55,-245.08 393.21,-246.78"/>
<polygon fill="#63b8ff" stroke="#63b8ff" points="354.55,-238.07 344.18,-240.21 353.63,-245 354.55,-238.07"/>
</a>
</g>
</g>
<!-- Node17 -->
<g id="Node000017" class="node">
<title>Node17</title>
<g id="a_Node000017"><a xlink:href="interface_fifty_one_1_1_pipeline_1_1_engines_1_1_data_1_1_i_aspect_data.html" target="_top" xlink:title="Represents an ElementData instance that is generated by an IAspectEngine.">
<polygon fill="white" stroke="#666666" points="542,-506 399,-506 399,-476 542,-476 542,-506"/>
<text text-anchor="start" x="407" y="-494" font-family="Helvetica,sans-Serif" font-size="10.00">FiftyOne.Pipeline.Engines.</text>
<text text-anchor="middle" x="470.5" y="-483" font-family="Helvetica,sans-Serif" font-size="10.00">Data.IAspectData</text>
</a>
</g>
</g>
<!-- Node1&#45;&gt;Node17 -->
<g id="edge17_Node000001_Node000017" class="edge">
<title>Node1&#45;&gt;Node17</title>
<g id="a_edge17_Node000001_Node000017"><a xlink:title=" ">
<path fill="none" stroke="#63b8ff" d="M278,-254.3C294.88,-293.35 331.95,-371.13 380,-425 398.38,-445.6 424.15,-463.78 443.32,-475.82"/>
<polygon fill="#63b8ff" stroke="#63b8ff" points="281.19,-252.86 274.05,-245.03 274.75,-255.6 281.19,-252.86"/>
</a>
</g>
</g>
<!-- Node21 -->
<g id="Node000021" class="node">
<title>Node21</title>
<g id="a_Node000021"><a xlink:href="interface_fifty_one_1_1_pipeline_1_1_engines_1_1_fifty_one_1_1_data_1_1_i_set_headers_data.html" target="_top" xlink:title="The IElementData interface for SetHeadersElement.">
<polygon fill="white" stroke="#666666" points="555,-368 386,-368 386,-338 555,-338 555,-368"/>
<text text-anchor="start" x="394" y="-356" font-family="Helvetica,sans-Serif" font-size="10.00">FiftyOne.Pipeline.Engines.</text>
<text text-anchor="middle" x="470.5" y="-345" font-family="Helvetica,sans-Serif" font-size="10.00">FiftyOne.Data.ISetHeadersData</text>
</a>
</g>
</g>
<!-- Node1&#45;&gt;Node21 -->
<g id="edge24_Node000001_Node000021" class="edge">
<title>Node1&#45;&gt;Node21</title>
<g id="a_edge24_Node000001_Node000021"><a xlink:title=" ">
<path fill="none" stroke="#63b8ff" d="M287.61,-252.61C308.38,-275.16 343.19,-309.23 380,-329 386.38,-332.43 393.28,-335.39 400.32,-337.95"/>
<polygon fill="#63b8ff" stroke="#63b8ff" points="290.17,-250.22 280.87,-245.15 284.98,-254.92 290.17,-250.22"/>
</a>
</g>
</g>
<!-- Node22 -->
<g id="Node000022" class="node">
<title>Node22</title>
<g id="a_Node000022"><a xlink:href="interface_fifty_one_1_1_pipeline_1_1_ip_splitter_1_1_i_split_ip_data.html" target="_top" xlink:title=" ">
<polygon fill="white" stroke="#bfbfbf" points="545,-320 396,-320 396,-290 545,-290 545,-320"/>
<text text-anchor="start" x="404" y="-308" font-family="Helvetica,sans-Serif" font-size="10.00">FiftyOne.Pipeline.IpSplitter.</text>
<text text-anchor="middle" x="470.5" y="-297" font-family="Helvetica,sans-Serif" font-size="10.00">ISplitIpData</text>
</a>
</g>
</g>
<!-- Node1&#45;&gt;Node22 -->
<g id="edge26_Node000001_Node000022" class="edge">
<title>Node1&#45;&gt;Node22</title>
<g id="a_edge26_Node000001_Node000022"><a xlink:title=" ">
<path fill="none" stroke="#63b8ff" d="M306.44,-249.42C327.76,-259.69 354.95,-272.01 380,-281 388.93,-284.21 398.5,-287.21 407.94,-289.93"/>
<polygon fill="#63b8ff" stroke="#63b8ff" points="307.92,-246.24 297.39,-245 304.85,-252.53 307.92,-246.24"/>
</a>
</g>
</g>
<!-- Node23 -->
<g id="Node000023" class="node">
<title>Node23</title>
<g id="a_Node000023"><a xlink:href="interface_fifty_one_1_1_pipeline_1_1_java_script_builder_1_1_data_1_1_i_java_script_builder_element_data.html" target="_top" xlink:title="The IElementData interface for JavaScriptBuilderElement.">
<polygon fill="white" stroke="#666666" points="553.5,-223.5 387.5,-223.5 387.5,-182.5 553.5,-182.5 553.5,-223.5"/>
<text text-anchor="start" x="395.5" y="-211.5" font-family="Helvetica,sans-Serif" font-size="10.00">FiftyOne.Pipeline.JavaScript</text>
<text text-anchor="start" x="395.5" y="-200.5" font-family="Helvetica,sans-Serif" font-size="10.00">Builder.Data.IJavaScriptBuilder</text>
<text text-anchor="middle" x="470.5" y="-189.5" font-family="Helvetica,sans-Serif" font-size="10.00">ElementData</text>
</a>
</g>
</g>
<!-- Node1&#45;&gt;Node23 -->
<g id="edge28_Node000001_Node000023" class="edge">
<title>Node1&#45;&gt;Node23</title>
<g id="a_edge28_Node000001_Node000023"><a xlink:title=" ">
<path fill="none" stroke="#63b8ff" d="M354.23,-218.45C365.26,-216.97 376.53,-215.46 387.49,-213.99"/>
<polygon fill="#63b8ff" stroke="#63b8ff" points="353.63,-215 344.18,-219.79 354.55,-221.93 353.63,-215"/>
</a>
</g>
</g>
<!-- Node24 -->
<g id="Node000024" class="node">
<title>Node24</title>
<g id="a_Node000024"><a xlink:href="interface_fifty_one_1_1_pipeline_1_1_json_builder_1_1_data_1_1_i_json_builder_element_data.html" target="_top" xlink:title="The IElementData interface for JsonBuilderElement.">
<polygon fill="white" stroke="#666666" points="552.5,-164 388.5,-164 388.5,-134 552.5,-134 552.5,-164"/>
<text text-anchor="start" x="396.5" y="-152" font-family="Helvetica,sans-Serif" font-size="10.00">FiftyOne.Pipeline.JsonBuilder.</text>
<text text-anchor="middle" x="470.5" y="-141" font-family="Helvetica,sans-Serif" font-size="10.00">Data.IJsonBuilderElementData</text>
</a>
</g>
</g>
<!-- Node1&#45;&gt;Node24 -->
<g id="edge30_Node000001_Node000024" class="edge">
<title>Node1&#45;&gt;Node24</title>
<g id="a_edge30_Node000001_Node000024"><a xlink:title=" ">
<path fill="none" stroke="#63b8ff" d="M302.82,-209.89C324.5,-197.98 353.26,-183.26 380,-173 388.56,-169.72 397.75,-166.7 406.85,-164.01"/>
<polygon fill="#63b8ff" stroke="#63b8ff" points="301.03,-206.89 293.99,-214.81 304.43,-213 301.03,-206.89"/>
</a>
</g>
</g>
<!-- Node25 -->
<g id="Node000025" class="node">
<title>Node25</title>
<g id="a_Node000025"><a xlink:href="interface_fifty_one_1_1_pipeline_1_1_math_1_1_i_math_data.html" target="_top" xlink:title=" ">
<polygon fill="white" stroke="#bfbfbf" points="561,-115.5 380,-115.5 380,-96.5 561,-96.5 561,-115.5"/>
<text text-anchor="middle" x="470.5" y="-103.5" font-family="Helvetica,sans-Serif" font-size="10.00">FiftyOne.Pipeline.Math.IMathData</text>
</a>
</g>
</g>
<!-- Node1&#45;&gt;Node25 -->
<g id="edge32_Node000001_Node000025" class="edge">
<title>Node1&#45;&gt;Node25</title>
<g id="a_edge32_Node000001_Node000025"><a xlink:title=" ">
<path fill="none" stroke="#63b8ff" d="M286.1,-206.77C306.31,-182.5 341.32,-145.19 380,-125 387.46,-121.1 395.67,-118.01 404,-115.54"/>
<polygon fill="#63b8ff" stroke="#63b8ff" points="283.19,-204.8 279.58,-214.76 288.61,-209.22 283.19,-204.8"/>
</a>
</g>
</g>
<!-- Node26 -->
<g id="Node000026" class="node">
<title>Node26</title>
<g id="a_Node000026"><a xlink:href="interface_fifty_one_1_1_pipeline_1_1_translation_1_1_data_1_1_i_translation_data.html" target="_top" xlink:title="Element data marker interface for FlowElements.TranslationEngine.">
<polygon fill="white" stroke="#666666" points="549.5,-78 391.5,-78 391.5,-48 549.5,-48 549.5,-78"/>
<text text-anchor="start" x="399.5" y="-66" font-family="Helvetica,sans-Serif" font-size="10.00">FiftyOne.Pipeline.Translation.</text>
<text text-anchor="middle" x="470.5" y="-55" font-family="Helvetica,sans-Serif" font-size="10.00">Data.ITranslationData</text>
</a>
</g>
</g>
<!-- Node1&#45;&gt;Node26 -->
<g id="edge34_Node000001_Node000026" class="edge">
<title>Node1&#45;&gt;Node26</title>
<g id="a_edge34_Node000001_Node000026"><a xlink:title=" ">
<path fill="none" stroke="#63b8ff" d="M280.47,-205.7C298.2,-173.6 333.75,-117.58 380,-87 385.23,-83.54 390.95,-80.58 396.88,-78.04"/>
<polygon fill="#63b8ff" stroke="#63b8ff" points="277.21,-204.37 275.55,-214.84 283.37,-207.69 277.21,-204.37"/>
</a>
</g>
</g>
<!-- Node27 -->
<g id="Node000027" class="node">
<title>Node27</title>
<g id="a_Node000027"><a xlink:href="interface_simple_client_side_element_1_1_data_1_1_i_star_sign_data.html" target="_top" xlink:title="[class]">
<polygon fill="white" stroke="#666666" points="542,-30 399,-30 399,0 542,0 542,-30"/>
<text text-anchor="start" x="407" y="-18" font-family="Helvetica,sans-Serif" font-size="10.00">SimpleClientSideElement.</text>
<text text-anchor="middle" x="470.5" y="-7" font-family="Helvetica,sans-Serif" font-size="10.00">Data.IStarSignData</text>
</a>
</g>
</g>
<!-- Node1&#45;&gt;Node27 -->
<g id="edge36_Node000001_Node000027" class="edge">
<title>Node1&#45;&gt;Node27</title>
<g id="a_edge36_Node000001_Node000027"><a xlink:title=" ">
<path fill="none" stroke="#63b8ff" d="M275.62,-205.18C289.51,-164.18 322.91,-82.51 380,-39 385.63,-34.71 391.97,-31.18 398.61,-28.29"/>
<polygon fill="#63b8ff" stroke="#63b8ff" points="272.22,-204.32 272.43,-214.91 278.87,-206.5 272.22,-204.32"/>
</a>
</g>
</g>
<!-- Node2 -->
<g id="Node000002" class="node">
<title>Node2</title>
<g id="a_Node000002"><a xlink:href="interface_fifty_one_1_1_pipeline_1_1_core_1_1_data_1_1_i_data.html" target="_top" xlink:title="Represents property values.">
<polygon fill="white" stroke="#666666" points="154,-245 0,-245 0,-215 154,-215 154,-245"/>
<text text-anchor="start" x="8" y="-233" font-family="Helvetica,sans-Serif" font-size="10.00">FiftyOne.Pipeline.Core.Data.</text>
<text text-anchor="middle" x="77" y="-222" font-family="Helvetica,sans-Serif" font-size="10.00">IData</text>
</a>
</g>
</g>
<!-- Node2&#45;&gt;Node1 -->
<g id="edge1_Node000001_Node000002" class="edge">
<title>Node2&#45;&gt;Node1</title>
<g id="a_edge1_Node000001_Node000002"><a xlink:title=" ">
<path fill="none" stroke="#63b8ff" d="M164.42,-230C172.86,-230 181.37,-230 189.7,-230"/>
<polygon fill="#63b8ff" stroke="#63b8ff" points="164.2,-226.5 154.2,-230 164.2,-233.5 164.2,-226.5"/>
</a>
</g>
</g>
<!-- Node4 -->
<g id="Node000004" class="node">
<title>Node4</title>
<g id="a_Node000004"><a xlink:title=" ">
<polygon fill="white" stroke="#666666" points="796.5,-410 624.5,-410 624.5,-380 796.5,-380 796.5,-410"/>
<text text-anchor="start" x="632.5" y="-398" font-family="Helvetica,sans-Serif" font-size="10.00">Examples.CustomFlowElement.</text>
<text text-anchor="middle" x="710.5" y="-387" font-family="Helvetica,sans-Serif" font-size="10.00">Data.StarSignData</text>
</a>
</g>
</g>
<!-- Node3&#45;&gt;Node4 -->
<g id="edge3_Node000003_Node000004" class="edge">
<title>Node3&#45;&gt;Node4</title>
<g id="a_edge3_Node000003_Node000004"><a xlink:title=" ">
<path fill="none" stroke="#63b8ff" d="M566.91,-398.59C585.94,-398.12 605.8,-397.61 624.44,-397.14"/>
<polygon fill="#63b8ff" stroke="#63b8ff" points="566.66,-395.1 556.75,-398.85 566.84,-402.1 566.66,-395.1"/>
</a>
</g>
</g>
<!-- Node5&#45;&gt;Node4 -->
<g id="edge5_Node000005_Node000004" class="edge">
<title>Node5&#45;&gt;Node4</title>
<g id="a_edge5_Node000005_Node000004"><a xlink:title=" ">
<path fill="none" stroke="#63b8ff" d="M556.35,-277.25C557.96,-278.43 559.51,-279.68 561,-281 593.21,-309.61 564.06,-343.24 597,-371 605.02,-377.76 614.48,-382.75 624.45,-386.42"/>
<polygon fill="#63b8ff" stroke="#63b8ff" points="558.21,-274.28 547.89,-271.88 554.46,-280.19 558.21,-274.28"/>
</a>
</g>
</g>
<!-- Node6 -->
<g id="Node000006" class="node">
<title>Node6</title>
<g id="a_Node000006"><a xlink:href="class_fifty_one_1_1_pipeline_1_1_engines_1_1_data_1_1_aspect_data_base.html" target="_top" xlink:title="Base class for element data instances that are generated by an IAspectEngine.">
<polygon fill="white" stroke="#666666" points="782,-458 639,-458 639,-428 782,-428 782,-458"/>
<text text-anchor="start" x="647" y="-446" font-family="Helvetica,sans-Serif" font-size="10.00">FiftyOne.Pipeline.Engines.</text>
<text text-anchor="middle" x="710.5" y="-435" font-family="Helvetica,sans-Serif" font-size="10.00">Data.AspectDataBase</text>
</a>
</g>
</g>
<!-- Node5&#45;&gt;Node6 -->
<g id="edge6_Node000005_Node000006" class="edge">
<title>Node5&#45;&gt;Node6</title>
<g id="a_edge6_Node000005_Node000006"><a xlink:title=" ">
<path fill="none" stroke="#63b8ff" d="M555.89,-276.44C557.68,-277.86 559.39,-279.38 561,-281 605.67,-325.97 551.18,-375.2 597,-419 608.4,-429.9 623.48,-436.36 638.88,-440.08"/>
<polygon fill="#63b8ff" stroke="#63b8ff" points="557.82,-273.52 547.57,-270.85 553.91,-279.33 557.82,-273.52"/>
</a>
</g>
</g>
<!-- Node9 -->
<g id="Node000009" class="node">
<title>Node9</title>
<g id="a_Node000009"><a xlink:href="class_fifty_one_1_1_pipeline_1_1_engines_1_1_fifty_one_1_1_data_1_1_set_headers_data.html" target="_top" xlink:title="Element data instance for SetHeadersElement See the Specification.">
<polygon fill="white" stroke="#666666" points="793.5,-362 627.5,-362 627.5,-332 793.5,-332 793.5,-362"/>
<text text-anchor="start" x="635.5" y="-350" font-family="Helvetica,sans-Serif" font-size="10.00">FiftyOne.Pipeline.Engines.</text>
<text text-anchor="middle" x="710.5" y="-339" font-family="Helvetica,sans-Serif" font-size="10.00">FiftyOne.Data.SetHeadersData</text>
</a>
</g>
</g>
<!-- Node5&#45;&gt;Node9 -->
<g id="edge9_Node000005_Node000009" class="edge">
<title>Node5&#45;&gt;Node9</title>
<g id="a_edge9_Node000005_Node000009"><a xlink:title=" ">
<path fill="none" stroke="#63b8ff" d="M552.78,-276.35C555.61,-277.79 558.36,-279.34 561,-281 581.8,-294.1 575.86,-310.44 597,-323 606.27,-328.51 616.64,-332.76 627.22,-336.04"/>
<polygon fill="#63b8ff" stroke="#63b8ff" points="554.05,-273.08 543.5,-272.1 551.13,-279.45 554.05,-273.08"/>
</a>
</g>
</g>
<!-- Node10 -->
<g id="Node000010" class="node">
<title>Node10</title>
<g id="a_Node000010"><a xlink:href="class_fifty_one_1_1_pipeline_1_1_ip_splitter_1_1_split_ip_data.html" target="_top" xlink:title=" ">
<polygon fill="white" stroke="#bfbfbf" points="785,-314 636,-314 636,-284 785,-284 785,-314"/>
<text text-anchor="start" x="644" y="-302" font-family="Helvetica,sans-Serif" font-size="10.00">FiftyOne.Pipeline.IpSplitter.</text>
<text text-anchor="middle" x="710.5" y="-291" font-family="Helvetica,sans-Serif" font-size="10.00">SplitIpData</text>
</a>
</g>
</g>
<!-- Node5&#45;&gt;Node10 -->
<g id="edge10_Node000005_Node000010" class="edge">
<title>Node5&#45;&gt;Node10</title>
<g id="a_edge10_Node000005_Node000010"><a xlink:title=" ">
<path fill="none" stroke="#63b8ff" d="M557.82,-272.23C583.34,-276.74 611.02,-281.62 635.67,-285.97"/>
<polygon fill="#63b8ff" stroke="#63b8ff" points="558.24,-268.75 547.79,-270.46 557.03,-275.65 558.24,-268.75"/>
</a>
</g>
</g>
<!-- Node11 -->
<g id="Node000011" class="node">
<title>Node11</title>
<g id="a_Node000011"><a xlink:href="class_fifty_one_1_1_pipeline_1_1_java_script_builder_1_1_data_1_1_java_script_builder_element_data.html" target="_top" xlink:title="The IElementData class for JavaScriptBuilderElement.">
<polygon fill="white" stroke="#666666" points="824,-218 597,-218 597,-188 824,-188 824,-218"/>
<text text-anchor="start" x="605" y="-206" font-family="Helvetica,sans-Serif" font-size="10.00">FiftyOne.Pipeline.JavaScript</text>
<text text-anchor="middle" x="710.5" y="-195" font-family="Helvetica,sans-Serif" font-size="10.00">Builder.Data.JavaScriptBuilderElementData</text>
</a>
</g>
</g>
<!-- Node5&#45;&gt;Node11 -->
<g id="edge11_Node000005_Node000011" class="edge">
<title>Node5&#45;&gt;Node11</title>
<g id="a_edge11_Node000005_Node000011"><a xlink:title=" ">
<path fill="none" stroke="#63b8ff" d="M543.22,-239.54C560.79,-235.35 579.56,-230.94 597,-227 610.15,-224.03 624.18,-220.95 637.73,-218.04"/>
<polygon fill="#63b8ff" stroke="#63b8ff" points="541.94,-236.24 533.03,-241.97 543.57,-243.05 541.94,-236.24"/>
</a>
</g>
</g>
<!-- Node12 -->
<g id="Node000012" class="node">
<title>Node12</title>
<g id="a_Node000012"><a xlink:href="class_fifty_one_1_1_pipeline_1_1_json_builder_1_1_data_1_1_json_builder_element_data.html" target="_top" xlink:title="JsonBuilderElement data class.">
<polygon fill="white" stroke="#666666" points="791,-170 630,-170 630,-140 791,-140 791,-170"/>
<text text-anchor="start" x="638" y="-158" font-family="Helvetica,sans-Serif" font-size="10.00">FiftyOne.Pipeline.JsonBuilder.</text>
<text text-anchor="middle" x="710.5" y="-147" font-family="Helvetica,sans-Serif" font-size="10.00">Data.JsonBuilderElementData</text>
</a>
</g>
</g>
<!-- Node5&#45;&gt;Node12 -->
<g id="edge12_Node000005_Node000012" class="edge">
<title>Node5&#45;&gt;Node12</title>
<g id="a_edge12_Node000005_Node000012"><a xlink:title=" ">
<path fill="none" stroke="#63b8ff" d="M552.55,-237.36C555.49,-235.71 558.31,-233.93 561,-232 584.12,-215.38 573.37,-194.89 597,-179 606.86,-172.37 618.21,-167.52 629.83,-163.99"/>
<polygon fill="#63b8ff" stroke="#63b8ff" points="550.86,-234.29 543.48,-241.89 553.99,-240.55 550.86,-234.29"/>
</a>
</g>
</g>
<!-- Node13 -->
<g id="Node000013" class="node">
<title>Node13</title>
<g id="a_Node000013"><a xlink:href="class_fifty_one_1_1_pipeline_1_1_math_1_1_math_data.html" target="_top" xlink:title=" ">
<polygon fill="white" stroke="#bfbfbf" points="799.5,-120.5 621.5,-120.5 621.5,-101.5 799.5,-101.5 799.5,-120.5"/>
<text text-anchor="middle" x="710.5" y="-108.5" font-family="Helvetica,sans-Serif" font-size="10.00">FiftyOne.Pipeline.Math.MathData</text>
</a>
</g>
</g>
<!-- Node5&#45;&gt;Node13 -->
<g id="edge13_Node000005_Node000013" class="edge">
<title>Node5&#45;&gt;Node13</title>
<g id="a_edge13_Node000005_Node000013"><a xlink:title=" ">
<path fill="none" stroke="#63b8ff" d="M555.71,-236.41C557.55,-235.03 559.32,-233.56 561,-232 595.86,-199.5 560.62,-161.78 597,-131 604.19,-124.91 612.59,-120.4 621.5,-117.08"/>
<polygon fill="#63b8ff" stroke="#63b8ff" points="553.72,-233.53 547.2,-241.88 557.51,-239.42 553.72,-233.53"/>
</a>
</g>
</g>
<!-- Node14 -->
<g id="Node000014" class="node">
<title>Node14</title>
<g id="a_Node000014"><a xlink:href="class_fifty_one_1_1_pipeline_1_1_translation_1_1_data_1_1_translation_data.html" target="_top" xlink:title="Data object populated by FlowElements.TranslationEngine.">
<polygon fill="white" stroke="#666666" points="789.5,-82 631.5,-82 631.5,-52 789.5,-52 789.5,-82"/>
<text text-anchor="start" x="639.5" y="-70" font-family="Helvetica,sans-Serif" font-size="10.00">FiftyOne.Pipeline.Translation.</text>
<text text-anchor="middle" x="710.5" y="-59" font-family="Helvetica,sans-Serif" font-size="10.00">Data.TranslationData</text>
</a>
</g>
</g>
<!-- Node5&#45;&gt;Node14 -->
<g id="edge14_Node000005_Node000014" class="edge">
<title>Node5&#45;&gt;Node14</title>
<g id="a_edge14_Node000005_Node000014"><a xlink:title=" ">
<path fill="none" stroke="#63b8ff" d="M555.91,-236.61C557.69,-235.17 559.39,-233.64 561,-232 605.96,-186.1 550.83,-136.67 597,-92 606.49,-82.82 618.56,-76.71 631.26,-72.7"/>
<polygon fill="#63b8ff" stroke="#63b8ff" points="553.88,-233.76 547.6,-242.29 557.83,-239.53 553.88,-233.76"/>
</a>
</g>
</g>
<!-- Node15 -->
<g id="Node000015" class="node">
<title>Node15</title>
<g id="a_Node000015"><a xlink:href="class_fifty_one_1_1_pipeline_1_1_translation_1_1_tests_1_1_evidence_copy_data.html" target="_top" xlink:title="Data type for the EvidenceCopyElement.">
<polygon fill="white" stroke="#666666" points="789.5,-266 631.5,-266 631.5,-236 789.5,-236 789.5,-266"/>
<text text-anchor="start" x="639.5" y="-254" font-family="Helvetica,sans-Serif" font-size="10.00">FiftyOne.Pipeline.Translation.</text>
<text text-anchor="middle" x="710.5" y="-243" font-family="Helvetica,sans-Serif" font-size="10.00">Tests.EvidenceCopyData</text>
</a>
</g>
</g>
<!-- Node5&#45;&gt;Node15 -->
<g id="edge15_Node000005_Node000015" class="edge">
<title>Node5&#45;&gt;Node15</title>
<g id="a_edge15_Node000005_Node000015"><a xlink:title=" ">
<path fill="none" stroke="#63b8ff" d="M557.92,-254.82C581.87,-254.22 607.73,-253.57 631.19,-252.97"/>
<polygon fill="#63b8ff" stroke="#63b8ff" points="557.7,-251.33 547.79,-255.08 557.87,-258.32 557.7,-251.33"/>
</a>
</g>
</g>
<!-- Node16 -->
<g id="Node000016" class="node">
<title>Node16</title>
<g id="a_Node000016"><a xlink:title=" ">
<polygon fill="white" stroke="#666666" points="782,-31 639,-31 639,-1 782,-1 782,-31"/>
<text text-anchor="start" x="647" y="-19" font-family="Helvetica,sans-Serif" font-size="10.00">SimpleClientSideElement.</text>
<text text-anchor="middle" x="710.5" y="-8" font-family="Helvetica,sans-Serif" font-size="10.00">Data.StarSignData</text>
</a>
</g>
</g>
<!-- Node5&#45;&gt;Node16 -->
<g id="edge16_Node000005_Node000016" class="edge">
<title>Node5&#45;&gt;Node16</title>
<g id="a_edge16_Node000005_Node000016"><a xlink:title=" ">
<path fill="none" stroke="#63b8ff" d="M556.05,-236.74C557.79,-235.27 559.45,-233.69 561,-232 618.87,-169.04 537.98,-104.88 597,-43 608.09,-31.37 623.24,-24.37 638.82,-20.25"/>
<polygon fill="#63b8ff" stroke="#63b8ff" points="554,-233.91 547.9,-242.57 558.07,-239.6 554,-233.91"/>
</a>
</g>
</g>
<!-- Node7 -->
<g id="Node000007" class="node">
<title>Node7</title>
<g id="a_Node000007"><a xlink:title=" ">
<polygon fill="white" stroke="#666666" points="1018,-566 860,-566 860,-536 1018,-536 1018,-566"/>
<text text-anchor="start" x="868" y="-554" font-family="Helvetica,sans-Serif" font-size="10.00">Examples.CloudEngine.Data.</text>
<text text-anchor="middle" x="939" y="-543" font-family="Helvetica,sans-Serif" font-size="10.00">StarSignData</text>
</a>
</g>
</g>
<!-- Node6&#45;&gt;Node7 -->
<g id="edge7_Node000006_Node000007" class="edge">
<title>Node6&#45;&gt;Node7</title>
<g id="a_edge7_Node000006_Node000007"><a xlink:title=" ">
<path fill="none" stroke="#63b8ff" d="M792.28,-455.86C803.18,-458.85 814.03,-462.52 824,-467 834.31,-471.64 888.69,-513 918.47,-535.9"/>
<polygon fill="#63b8ff" stroke="#63b8ff" points="792.84,-452.39 782.28,-453.3 791.1,-459.17 792.84,-452.39"/>
</a>
</g>
</g>
<!-- Node8 -->
<g id="Node000008" class="node">
<title>Node8</title>
<g id="a_Node000008"><a xlink:title=" ">
<polygon fill="white" stroke="#666666" points="1017.5,-482 860.5,-482 860.5,-452 1017.5,-452 1017.5,-482"/>
<text text-anchor="start" x="868.5" y="-470" font-family="Helvetica,sans-Serif" font-size="10.00">Examples.OnPremiseEngine.</text>
<text text-anchor="middle" x="939" y="-459" font-family="Helvetica,sans-Serif" font-size="10.00">Data.StarSignData</text>
</a>
</g>
</g>
<!-- Node6&#45;&gt;Node8 -->
<g id="edge8_Node000006_Node000008" class="edge">
<title>Node6&#45;&gt;Node8</title>
<g id="a_edge8_Node000006_Node000008"><a xlink:title=" ">
<path fill="none" stroke="#63b8ff" d="M792.27,-451.56C814.41,-453.9 838.36,-456.44 860.33,-458.77"/>
<polygon fill="#63b8ff" stroke="#63b8ff" points="792.55,-448.07 782.23,-450.5 791.81,-455.03 792.55,-448.07"/>
</a>
</g>
</g>
<!-- Node17&#45;&gt;Node6 -->
<g id="edge22_Node000017_Node000006" class="edge">
<title>Node17&#45;&gt;Node6</title>
<g id="a_edge22_Node000017_Node000006"><a xlink:title=" ">
<path fill="none" stroke="#63b8ff" d="M552.41,-474.68C580.38,-469.04 611.49,-462.77 638.6,-457.3"/>
<polygon fill="#63b8ff" stroke="#63b8ff" points="551.37,-471.32 542.26,-476.73 552.76,-478.18 551.37,-471.32"/>
</a>
</g>
</g>
<!-- Node18 -->
<g id="Node000018" class="node">
<title>Node18</title>
<g id="a_Node000018"><a xlink:href="interface_examples_1_1_cloud_engine_1_1_data_1_1_i_star_sign_data.html" target="_top" xlink:title="[class]">
<polygon fill="white" stroke="#666666" points="789.5,-602 631.5,-602 631.5,-572 789.5,-572 789.5,-602"/>
<text text-anchor="start" x="639.5" y="-590" font-family="Helvetica,sans-Serif" font-size="10.00">Examples.CloudEngine.Data.</text>
<text text-anchor="middle" x="710.5" y="-579" font-family="Helvetica,sans-Serif" font-size="10.00">IStarSignData</text>
</a>
</g>
</g>
<!-- Node17&#45;&gt;Node18 -->
<g id="edge18_Node000017_Node000018" class="edge">
<title>Node17&#45;&gt;Node18</title>
<g id="a_edge18_Node000017_Node000018"><a xlink:title=" ">
<path fill="none" stroke="#63b8ff" d="M501.65,-511.88C526.28,-528.03 562.53,-549.81 597,-563 607.91,-567.18 619.71,-570.7 631.42,-573.64"/>
<polygon fill="#63b8ff" stroke="#63b8ff" points="503.39,-508.84 493.13,-506.21 499.51,-514.66 503.39,-508.84"/>
</a>
</g>
</g>
<!-- Node19 -->
<g id="Node000019" class="node">
<title>Node19</title>
<g id="a_Node000019"><a xlink:href="interface_examples_1_1_on_premise_engine_1_1_data_1_1_i_star_sign_data.html" target="_top" xlink:title="[class]">
<polygon fill="white" stroke="#666666" points="789,-506 632,-506 632,-476 789,-476 789,-506"/>
<text text-anchor="start" x="640" y="-494" font-family="Helvetica,sans-Serif" font-size="10.00">Examples.OnPremiseEngine.</text>
<text text-anchor="middle" x="710.5" y="-483" font-family="Helvetica,sans-Serif" font-size="10.00">Data.IStarSignData</text>
</a>
</g>
</g>
<!-- Node17&#45;&gt;Node19 -->
<g id="edge20_Node000017_Node000019" class="edge">
<title>Node17&#45;&gt;Node19</title>
<g id="a_edge20_Node000017_Node000019"><a xlink:title=" ">
<path fill="none" stroke="#63b8ff" d="M552.35,-491C578.08,-491 606.46,-491 631.94,-491"/>
<polygon fill="#63b8ff" stroke="#63b8ff" points="552.26,-487.5 542.26,-491 552.26,-494.5 552.26,-487.5"/>
</a>
</g>
</g>
<!-- Node20 -->
<g id="Node000020" class="node">
<title>Node20</title>
<g id="a_Node000020"><a xlink:href="interface_fifty_one_1_1_pipeline_1_1_engines_1_1_data_1_1_i_multi_profile_data-1-g.html" target="_top" xlink:title="Represents a specific type of IAspectData that contains multiple IAspectData instances.">
<polygon fill="white" stroke="#666666" points="787,-554 634,-554 634,-524 787,-524 787,-554"/>
<text text-anchor="start" x="642" y="-542" font-family="Helvetica,sans-Serif" font-size="10.00">FiftyOne.Pipeline.Engines.</text>
<text text-anchor="middle" x="710.5" y="-531" font-family="Helvetica,sans-Serif" font-size="10.00">Data.IMultiProfileData&lt; T &gt;</text>
</a>
</g>
</g>
<!-- Node17&#45;&gt;Node20 -->
<g id="edge23_Node000017_Node000020" class="edge">
<title>Node17&#45;&gt;Node20</title>
<g id="a_edge23_Node000017_Node000020"><a xlink:title=" ">
<path fill="none" stroke="#63b8ff" d="M552.35,-507.31C579.06,-512.69 608.65,-518.66 634.87,-523.95"/>
<polygon fill="#63b8ff" stroke="#63b8ff" points="552.76,-503.82 542.26,-505.27 551.37,-510.68 552.76,-503.82"/>
</a>
</g>
</g>
<!-- Node18&#45;&gt;Node7 -->
<g id="edge19_Node000018_Node000007" class="edge">
<title>Node18&#45;&gt;Node7</title>
<g id="a_edge19_Node000018_Node000007"><a xlink:title=" ">
<path fill="none" stroke="#63b8ff" d="M799.7,-572.98C819.5,-569.84 840.37,-566.52 859.73,-563.44"/>
<polygon fill="#63b8ff" stroke="#63b8ff" points="799.09,-569.53 789.77,-574.56 800.19,-576.45 799.09,-569.53"/>
</a>
</g>
</g>
<!-- Node19&#45;&gt;Node8 -->
<g id="edge21_Node000019_Node000008" class="edge">
<title>Node19&#45;&gt;Node8</title>
<g id="a_edge21_Node000019_Node000008"><a xlink:title=" ">
<path fill="none" stroke="#63b8ff" d="M799.25,-481.7C819.43,-479.56 840.76,-477.3 860.47,-475.22"/>
<polygon fill="#63b8ff" stroke="#63b8ff" points="798.71,-478.24 789.13,-482.77 799.44,-485.2 798.71,-478.24"/>
</a>
</g>
</g>
<!-- Node21&#45;&gt;Node9 -->
<g id="edge25_Node000021_Node000009" class="edge">
<title>Node21&#45;&gt;Node9</title>
<g id="a_edge25_Node000021_Node000009"><a xlink:title=" ">
<path fill="none" stroke="#63b8ff" d="M565.35,-350.63C585.83,-350.12 607.35,-349.58 627.33,-349.07"/>
<polygon fill="#63b8ff" stroke="#63b8ff" points="564.98,-347.14 555.08,-350.89 565.16,-354.14 564.98,-347.14"/>
</a>
</g>
</g>
<!-- Node22&#45;&gt;Node10 -->
<g id="edge27_Node000022_Node000010" class="edge">
<title>Node22&#45;&gt;Node10</title>
<g id="a_edge27_Node000022_Node000010"><a xlink:title=" ">
<path fill="none" stroke="#63b8ff" d="M555.46,-302.88C581.65,-302.22 610.33,-301.5 635.76,-300.86"/>
<polygon fill="#63b8ff" stroke="#63b8ff" points="555.08,-299.39 545.17,-303.14 555.26,-306.39 555.08,-299.39"/>
</a>
</g>
</g>
<!-- Node23&#45;&gt;Node11 -->
<g id="edge29_Node000023_Node000011" class="edge">
<title>Node23&#45;&gt;Node11</title>
<g id="a_edge29_Node000023_Node000011"><a xlink:title=" ">
<path fill="none" stroke="#63b8ff" d="M563.91,-203C574.63,-203 585.65,-203 596.61,-203"/>
<polygon fill="#63b8ff" stroke="#63b8ff" points="563.74,-199.5 553.74,-203 563.74,-206.5 563.74,-199.5"/>
</a>
</g>
</g>
<!-- Node24&#45;&gt;Node12 -->
<g id="edge31_Node000024_Node000012" class="edge">
<title>Node24&#45;&gt;Node12</title>
<g id="a_edge31_Node000024_Node000012"><a xlink:title=" ">
<path fill="none" stroke="#63b8ff" d="M562.79,-151.3C584.88,-151.86 608.32,-152.45 629.83,-152.99"/>
<polygon fill="#63b8ff" stroke="#63b8ff" points="562.83,-147.8 552.74,-151.05 562.65,-154.8 562.83,-147.8"/>
</a>
</g>
</g>
<!-- Node25&#45;&gt;Node13 -->
<g id="edge33_Node000025_Node000013" class="edge">
<title>Node25&#45;&gt;Node13</title>
<g id="a_edge33_Node000025_Node000013"><a xlink:title=" ">
<path fill="none" stroke="#63b8ff" d="M571.35,-108.1C587.88,-108.44 604.91,-108.8 621.13,-109.14"/>
<polygon fill="#63b8ff" stroke="#63b8ff" points="571.21,-104.59 561.14,-107.88 571.06,-111.59 571.21,-104.59"/>
</a>
</g>
</g>
<!-- Node26&#45;&gt;Node14 -->
<g id="edge35_Node000026_Node000014" class="edge">
<title>Node26&#45;&gt;Node14</title>
<g id="a_edge35_Node000026_Node000014"><a xlink:title=" ">
<path fill="none" stroke="#63b8ff" d="M560.01,-64.49C583.37,-64.88 608.41,-65.3 631.19,-65.68"/>
<polygon fill="#63b8ff" stroke="#63b8ff" points="559.82,-60.98 549.76,-64.32 559.7,-67.98 559.82,-60.98"/>
</a>
</g>
</g>
<!-- Node27&#45;&gt;Node16 -->
<g id="edge37_Node000027_Node000016" class="edge">
<title>Node27&#45;&gt;Node16</title>
<g id="a_edge37_Node000027_Node000016"><a xlink:title=" ">
<path fill="none" stroke="#63b8ff" d="M552.41,-15.34C580.38,-15.46 611.49,-15.59 638.6,-15.7"/>
<polygon fill="#63b8ff" stroke="#63b8ff" points="552.28,-11.84 542.26,-15.3 552.25,-18.84 552.28,-11.84"/>
</a>
</g>
</g>
</g>
</svg>
