<?xml version="1.0" encoding="UTF-8" standalone="no"?>
<!DOCTYPE svg PUBLIC "-//W3C//DTD SVG 1.1//EN"
 "http://www.w3.org/Graphics/SVG/1.1/DTD/svg11.dtd">
<!-- Generated by graphviz version 2.43.0 (0)
 -->
<!-- Title: FiftyOne.Pipeline.Engines.FiftyOne.Data.IFiftyOneAspectPropertyMetaData Pages: 1 -->
<svg width="843pt" height="150pt"
 viewBox="0.00 0.00 843.00 149.50" xmlns="http://www.w3.org/2000/svg" xmlns:xlink="http://www.w3.org/1999/xlink">
<g id="graph0" class="graph" transform="scale(1 1) rotate(0) translate(4 145.5)">
<title>FiftyOne.Pipeline.Engines.FiftyOne.Data.IFiftyOneAspectPropertyMetaData</title>
<!-- Node1 -->
<g id="Node000001" class="node">
<title>Node1</title>
<g id="a_Node000001"><a xlink:title="51Degrees specific meta data.">
<polygon fill="#999999" stroke="#666666" points="598,-104 394,-104 394,-63 598,-63 598,-104"/>
<text text-anchor="start" x="402" y="-92" font-family="Helvetica,sans-Serif" font-size="10.00">FiftyOne.Pipeline.Engines.</text>
<text text-anchor="start" x="402" y="-81" font-family="Helvetica,sans-Serif" font-size="10.00">FiftyOne.Data.IFiftyOneAspectProperty</text>
<text text-anchor="middle" x="496" y="-70" font-family="Helvetica,sans-Serif" font-size="10.00">MetaData</text>
</a>
</g>
</g>
<!-- Node7 -->
<g id="Node000007" class="node">
<title>Node7</title>
<g id="a_Node000007"><a xlink:href="class_fifty_one_1_1_pipeline_1_1_engines_1_1_fifty_one_1_1_data_1_1_fifty_one_aspect_property_meta_data_default.html" target="_top" xlink:title="Data class that contains meta&#45;data relating to a specific property.">
<polygon fill="white" stroke="#666666" points="835,-104 634,-104 634,-63 835,-63 835,-104"/>
<text text-anchor="start" x="642" y="-92" font-family="Helvetica,sans-Serif" font-size="10.00">FiftyOne.Pipeline.Engines.</text>
<text text-anchor="start" x="642" y="-81" font-family="Helvetica,sans-Serif" font-size="10.00">FiftyOne.Data.FiftyOneAspectProperty</text>
<text text-anchor="middle" x="734.5" y="-70" font-family="Helvetica,sans-Serif" font-size="10.00">MetaDataDefault</text>
</a>
</g>
</g>
<!-- Node1&#45;&gt;Node7 -->
<g id="edge7_Node000001_Node000007" class="edge">
<title>Node1&#45;&gt;Node7</title>
<g id="a_edge7_Node000001_Node000007"><a xlink:title=" ">
<path fill="none" stroke="#63b8ff" d="M608.59,-83.5C617.04,-83.5 625.53,-83.5 633.89,-83.5"/>
<polygon fill="#63b8ff" stroke="#63b8ff" points="608.33,-80 598.33,-83.5 608.33,-87 608.33,-80"/>
</a>
</g>
</g>
<!-- Node2 -->
<g id="Node000002" class="node">
<title>Node2</title>
<g id="a_Node000002"><a xlink:href="interface_fifty_one_1_1_pipeline_1_1_engines_1_1_data_1_1_i_aspect_property_meta_data.html" target="_top" xlink:title="Represents meta&#45;data relating to a property that is populated by an IAspectEngine instance.">
<polygon fill="white" stroke="#666666" points="358,-141.5 190,-141.5 190,-111.5 358,-111.5 358,-141.5"/>
<text text-anchor="start" x="198" y="-129.5" font-family="Helvetica,sans-Serif" font-size="10.00">FiftyOne.Pipeline.Engines.</text>
<text text-anchor="middle" x="274" y="-118.5" font-family="Helvetica,sans-Serif" font-size="10.00">Data.IAspectPropertyMetaData</text>
</a>
</g>
</g>
<!-- Node2&#45;&gt;Node1 -->
<g id="edge1_Node000001_Node000002" class="edge">
<title>Node2&#45;&gt;Node1</title>
<g id="a_edge1_Node000001_Node000002"><a xlink:title=" ">
<path fill="none" stroke="#63b8ff" d="M361.87,-109.52C372.34,-107.47 383.09,-105.37 393.74,-103.29"/>
<polygon fill="#63b8ff" stroke="#63b8ff" points="361.09,-106.11 351.95,-111.46 362.43,-112.98 361.09,-106.11"/>
</a>
</g>
</g>
<!-- Node3 -->
<g id="Node000003" class="node">
<title>Node3</title>
<g id="a_Node000003"><a xlink:href="interface_fifty_one_1_1_pipeline_1_1_core_1_1_data_1_1_i_element_property_meta_data.html" target="_top" xlink:title="Represents meta&#45;data relating to a property that is populated by a IFlowElement instance.">
<polygon fill="white" stroke="#666666" points="154,-141.5 0,-141.5 0,-111.5 154,-111.5 154,-141.5"/>
<text text-anchor="start" x="8" y="-129.5" font-family="Helvetica,sans-Serif" font-size="10.00">FiftyOne.Pipeline.Core.Data.</text>
<text text-anchor="middle" x="77" y="-118.5" font-family="Helvetica,sans-Serif" font-size="10.00">IElementPropertyMetaData</text>
</a>
</g>
</g>
<!-- Node3&#45;&gt;Node2 -->
<g id="edge2_Node000002_Node000003" class="edge">
<title>Node3&#45;&gt;Node2</title>
<g id="a_edge2_Node000002_Node000003"><a xlink:title=" ">
<path fill="none" stroke="#63b8ff" d="M164.42,-126.5C172.83,-126.5 181.35,-126.5 189.73,-126.5"/>
<polygon fill="#63b8ff" stroke="#63b8ff" points="164.23,-123 154.23,-126.5 164.23,-130 164.23,-123"/>
</a>
</g>
</g>
<!-- Node4 -->
<g id="Node000004" class="node">
<title>Node4</title>
<g id="a_Node000004"><a xlink:title=" ">
<polygon fill="white" stroke="#bfbfbf" points="308,-93 240,-93 240,-74 308,-74 308,-93"/>
<text text-anchor="middle" x="274" y="-81" font-family="Helvetica,sans-Serif" font-size="10.00">IEquatable</text>
</a>
</g>
</g>
<!-- Node4&#45;&gt;Node1 -->
<g id="edge3_Node000001_Node000004" class="edge">
<title>Node4&#45;&gt;Node1</title>
<g id="a_edge3_Node000001_Node000004"><a xlink:title=" ">
<path fill="none" stroke="#63b8ff" d="M318.54,-77.99C340.12,-77.06 367.15,-76.66 393.53,-76.77"/>
<polygon fill="#63b8ff" stroke="#63b8ff" points="318.23,-74.5 308.41,-78.49 318.57,-81.5 318.23,-74.5"/>
</a>
</g>
</g>
<!-- Node4&#45;&gt;Node1 -->
<g id="edge5_Node000001_Node000004" class="edge">
<title>Node4&#45;&gt;Node1</title>
<g id="a_edge5_Node000001_Node000004"><a xlink:title=" ">
<path fill="none" stroke="#63b8ff" d="M318.54,-89.01C340.12,-89.94 367.15,-90.34 393.53,-90.23"/>
<polygon fill="#63b8ff" stroke="#63b8ff" points="318.57,-85.5 308.41,-88.51 318.23,-92.5 318.57,-85.5"/>
</a>
</g>
</g>
<!-- Node5 -->
<g id="Node000005" class="node">
<title>Node5</title>
<g id="a_Node000005"><a xlink:title=" ">
<polygon fill="white" stroke="#bfbfbf" points="313.5,-56 234.5,-56 234.5,-37 313.5,-37 313.5,-56"/>
<text text-anchor="middle" x="274" y="-44" font-family="Helvetica,sans-Serif" font-size="10.00">IComparable</text>
</a>
</g>
</g>
<!-- Node5&#45;&gt;Node1 -->
<g id="edge4_Node000001_Node000005" class="edge">
<title>Node5&#45;&gt;Node1</title>
<g id="a_edge4_Node000001_Node000005"><a xlink:title=" ">
<path fill="none" stroke="#63b8ff" d="M323.65,-54.68C344.3,-58.16 369.2,-62.34 393.53,-66.43"/>
<polygon fill="#63b8ff" stroke="#63b8ff" points="324.01,-51.19 313.57,-52.99 322.85,-58.1 324.01,-51.19"/>
</a>
</g>
</g>
<!-- Node6 -->
<g id="Node000006" class="node">
<title>Node6</title>
<g id="a_Node000006"><a xlink:title=" ">
<polygon fill="white" stroke="#bfbfbf" points="311,-19 237,-19 237,0 311,0 311,-19"/>
<text text-anchor="middle" x="274" y="-7" font-family="Helvetica,sans-Serif" font-size="10.00">IDisposable</text>
</a>
</g>
</g>
<!-- Node6&#45;&gt;Node1 -->
<g id="edge6_Node000001_Node000006" class="edge">
<title>Node6&#45;&gt;Node1</title>
<g id="a_edge6_Node000001_Node000006"><a xlink:title=" ">
<path fill="none" stroke="#63b8ff" d="M321.21,-18.03C333.29,-20.66 346.23,-23.85 358,-27.5 389.54,-37.28 423.93,-51.35 450.37,-62.94"/>
<polygon fill="#63b8ff" stroke="#63b8ff" points="321.81,-14.58 311.31,-15.94 320.37,-21.43 321.81,-14.58"/>
</a>
</g>
</g>
</g>
</svg>
