<?xml version="1.0" encoding="UTF-8" standalone="no"?>
<!DOCTYPE svg PUBLIC "-//W3C//DTD SVG 1.1//EN"
 "http://www.w3.org/Graphics/SVG/1.1/DTD/svg11.dtd">
<!-- Generated by graphviz version 2.43.0 (0)
 -->
<!-- Title: FiftyOne.Pipeline.Core.FailHandling.Scope.IAttemptScope Pages: 1 -->
<svg width="175pt" height="162pt"
 viewBox="0.00 0.00 175.00 162.00" xmlns="http://www.w3.org/2000/svg" xmlns:xlink="http://www.w3.org/1999/xlink">
<g id="graph0" class="graph" transform="scale(1 1) rotate(0) translate(4 158)">
<title>FiftyOne.Pipeline.Core.FailHandling.Scope.IAttemptScope</title>
<!-- Node0 -->
<g id="node1" class="node">
<title>Node0</title>
<g id="a_node1"><a xlink:title="A scope within which an attempt will be made.">
<polygon fill="#bfbfbf" stroke="black" points="0,-67.5 0,-97.5 167,-97.5 167,-67.5 0,-67.5"/>
<text text-anchor="start" x="8" y="-85.5" font-family="Helvetica,sans-Serif" font-size="10.00">FiftyOne.Pipeline.Core.Fail</text>
<text text-anchor="middle" x="83.5" y="-74.5" font-family="Helvetica,sans-Serif" font-size="10.00">Handling.Scope.IAttemptScope</text>
</a>
</g>
</g>
<!-- Node2 -->
<g id="node3" class="node">
<title>Node2</title>
<g id="a_node3"><a xlink:href="class_fifty_one_1_1_pipeline_1_1_core_1_1_fail_handling_1_1_scope_1_1_attempt_scope.html" target="_top" xlink:title="A scope within which an attempt will be made.">
<polygon fill="none" stroke="black" points="1.5,-0.5 1.5,-30.5 165.5,-30.5 165.5,-0.5 1.5,-0.5"/>
<text text-anchor="start" x="9.5" y="-18.5" font-family="Helvetica,sans-Serif" font-size="10.00">FiftyOne.Pipeline.Core.Fail</text>
<text text-anchor="middle" x="83.5" y="-7.5" font-family="Helvetica,sans-Serif" font-size="10.00">Handling.Scope.AttemptScope</text>
</a>
</g>
</g>
<!-- Node0&#45;&gt;Node2 -->
<g id="edge2" class="edge">
<title>Node0&#45;&gt;Node2</title>
<path fill="none" stroke="midnightblue" d="M83.5,-57.11C83.5,-48.15 83.5,-38.32 83.5,-30.58"/>
<polygon fill="midnightblue" stroke="midnightblue" points="80,-57.4 83.5,-67.4 87,-57.4 80,-57.4"/>
</g>
<!-- Node1 -->
<g id="node2" class="node">
<title>Node1</title>
<g id="a_node2"><a xlink:title=" ">
<polygon fill="none" stroke="#bfbfbf" points="46.5,-134.5 46.5,-153.5 120.5,-153.5 120.5,-134.5 46.5,-134.5"/>
<text text-anchor="middle" x="83.5" y="-141.5" font-family="Helvetica,sans-Serif" font-size="10.00">IDisposable</text>
</a>
</g>
</g>
<!-- Node1&#45;&gt;Node0 -->
<g id="edge1" class="edge">
<title>Node1&#45;&gt;Node0</title>
<path fill="none" stroke="midnightblue" d="M83.5,-124.23C83.5,-115.59 83.5,-105.5 83.5,-97.52"/>
<polygon fill="midnightblue" stroke="midnightblue" points="80,-124.48 83.5,-134.48 87,-124.48 80,-124.48"/>
</g>
</g>
</svg>
