<?xml version="1.0" encoding="UTF-8" standalone="no"?>
<!DOCTYPE svg PUBLIC "-//W3C//DTD SVG 1.1//EN"
 "http://www.w3.org/Graphics/SVG/1.1/DTD/svg11.dtd">
<!-- Generated by graphviz version 2.43.0 (0)
 -->
<!-- Title: FiftyOne.Pipeline.Engines.FiftyOne.Data.IComponentMetaData Pages: 1 -->
<svg width="456pt" height="184pt"
 viewBox="0.00 0.00 456.00 184.00" xmlns="http://www.w3.org/2000/svg" xmlns:xlink="http://www.w3.org/1999/xlink">
<g id="graph0" class="graph" transform="scale(1 1) rotate(0) translate(4 180)">
<title>FiftyOne.Pipeline.Engines.FiftyOne.Data.IComponentMetaData</title>
<!-- Node0 -->
<g id="node1" class="node">
<title>Node0</title>
<g id="a_node1"><a xlink:title="Meta data relating to a component of an Engine&#39;s results e.g.">
<polygon fill="#bfbfbf" stroke="black" points="172,-78.5 172,-108.5 366,-108.5 366,-78.5 172,-78.5"/>
<text text-anchor="start" x="180" y="-96.5" font-family="Helvetica,sans-Serif" font-size="10.00">FiftyOne.Pipeline.Engines.</text>
<text text-anchor="middle" x="269" y="-85.5" font-family="Helvetica,sans-Serif" font-size="10.00">FiftyOne.Data.IComponentMetaData</text>
</a>
</g>
</g>
<!-- Node4 -->
<g id="node5" class="node">
<title>Node4</title>
<g id="a_node5"><a xlink:href="class_fifty_one_1_1_pipeline_1_1_engines_1_1_fifty_one_1_1_data_1_1_component_meta_data_default.html" target="_top" xlink:title="Data class that contains meta&#45;data relating to a specific component.">
<polygon fill="none" stroke="black" points="173.5,-0.5 173.5,-41.5 364.5,-41.5 364.5,-0.5 173.5,-0.5"/>
<text text-anchor="start" x="181.5" y="-29.5" font-family="Helvetica,sans-Serif" font-size="10.00">FiftyOne.Pipeline.Engines.</text>
<text text-anchor="start" x="181.5" y="-18.5" font-family="Helvetica,sans-Serif" font-size="10.00">FiftyOne.Data.ComponentMetaData</text>
<text text-anchor="middle" x="269" y="-7.5" font-family="Helvetica,sans-Serif" font-size="10.00">Default</text>
</a>
</g>
</g>
<!-- Node0&#45;&gt;Node4 -->
<g id="edge4" class="edge">
<title>Node0&#45;&gt;Node4</title>
<path fill="none" stroke="midnightblue" d="M269,-67.98C269,-59.35 269,-49.76 269,-41.59"/>
<polygon fill="midnightblue" stroke="midnightblue" points="265.5,-68.23 269,-78.23 272.5,-68.23 265.5,-68.23"/>
</g>
<!-- Node1 -->
<g id="node2" class="node">
<title>Node1</title>
<g id="a_node2"><a xlink:title=" ">
<polygon fill="none" stroke="#bfbfbf" points="0,-145.5 0,-175.5 164,-175.5 164,-145.5 0,-145.5"/>
<text text-anchor="start" x="8" y="-163.5" font-family="Helvetica,sans-Serif" font-size="10.00">IEquatable&lt; IComponentMeta</text>
<text text-anchor="middle" x="82" y="-152.5" font-family="Helvetica,sans-Serif" font-size="10.00">Data &gt;</text>
</a>
</g>
</g>
<!-- Node1&#45;&gt;Node0 -->
<g id="edge1" class="edge">
<title>Node1&#45;&gt;Node0</title>
<path fill="none" stroke="midnightblue" d="M132.08,-142.09C162.27,-131.6 200.22,-118.41 228.5,-108.58"/>
<polygon fill="midnightblue" stroke="midnightblue" points="130.87,-138.81 122.58,-145.4 133.17,-145.42 130.87,-138.81"/>
</g>
<!-- Node2 -->
<g id="node3" class="node">
<title>Node2</title>
<g id="a_node3"><a xlink:title=" ">
<polygon fill="none" stroke="#bfbfbf" points="182,-145.5 182,-175.5 356,-175.5 356,-145.5 182,-145.5"/>
<text text-anchor="start" x="190" y="-163.5" font-family="Helvetica,sans-Serif" font-size="10.00">IComparable&lt; IComponentMeta</text>
<text text-anchor="middle" x="269" y="-152.5" font-family="Helvetica,sans-Serif" font-size="10.00">Data &gt;</text>
</a>
</g>
</g>
<!-- Node2&#45;&gt;Node0 -->
<g id="edge2" class="edge">
<title>Node2&#45;&gt;Node0</title>
<path fill="none" stroke="midnightblue" d="M269,-135.11C269,-126.15 269,-116.32 269,-108.58"/>
<polygon fill="midnightblue" stroke="midnightblue" points="265.5,-135.4 269,-145.4 272.5,-135.4 265.5,-135.4"/>
</g>
<!-- Node3 -->
<g id="node4" class="node">
<title>Node3</title>
<g id="a_node4"><a xlink:title=" ">
<polygon fill="none" stroke="#bfbfbf" points="374,-151 374,-170 448,-170 448,-151 374,-151"/>
<text text-anchor="middle" x="411" y="-158" font-family="Helvetica,sans-Serif" font-size="10.00">IDisposable</text>
</a>
</g>
</g>
<!-- Node3&#45;&gt;Node0 -->
<g id="edge3" class="edge">
<title>Node3&#45;&gt;Node0</title>
<path fill="none" stroke="midnightblue" d="M382.86,-146.62C358.84,-135.63 324.36,-119.84 299.65,-108.53"/>
<polygon fill="midnightblue" stroke="midnightblue" points="381.59,-149.89 392.14,-150.87 384.51,-143.52 381.59,-149.89"/>
</g>
</g>
</svg>
