<?xml version="1.0" encoding="UTF-8" standalone="no"?>
<!DOCTYPE svg PUBLIC "-//W3C//DTD SVG 1.1//EN"
 "http://www.w3.org/Graphics/SVG/1.1/DTD/svg11.dtd">
<!-- Generated by graphviz version 2.43.0 (0)
 -->
<!-- Title: FiftyOne.Pipeline.Engines.FlowElements.IAspectEngine&lt; T, TMeta &gt; Pages: 1 -->
<svg width="1361pt" height="135pt"
 viewBox="0.00 0.00 1361.00 135.00" xmlns="http://www.w3.org/2000/svg" xmlns:xlink="http://www.w3.org/1999/xlink">
<g id="graph0" class="graph" transform="scale(1 1) rotate(0) translate(4 131)">
<title>FiftyOne.Pipeline.Engines.FlowElements.IAspectEngine&lt; T, TMeta &gt;</title>
<!-- Node1 -->
<g id="Node000001" class="node">
<title>Node1</title>
<g id="a_Node000001"><a xlink:title="Interface representing 51Degrees on&#45;premise aspect engines.">
<polygon fill="#999999" stroke="#666666" points="649,-97 491,-97 491,-56 649,-56 649,-97"/>
<text text-anchor="start" x="499" y="-85" font-family="Helvetica,sans-Serif" font-size="10.00">FiftyOne.Pipeline.Engines.</text>
<text text-anchor="start" x="499" y="-74" font-family="Helvetica,sans-Serif" font-size="10.00">FlowElements.IAspectEngine</text>
<text text-anchor="middle" x="570" y="-63" font-family="Helvetica,sans-Serif" font-size="10.00">&lt; T, TMeta &gt;</text>
</a>
</g>
</g>
<!-- Node6 -->
<g id="Node000006" class="node">
<title>Node6</title>
<g id="a_Node000006"><a xlink:href="class_fifty_one_1_1_pipeline_1_1_engines_1_1_flow_elements_1_1_aspect_engine_base-2-g.html" target="_top" xlink:title="Base class for 51Degrees aspect engines.">
<polygon fill="white" stroke="#666666" points="864,-97 685,-97 685,-56 864,-56 864,-97"/>
<text text-anchor="start" x="693" y="-85" font-family="Helvetica,sans-Serif" font-size="10.00">FiftyOne.Pipeline.Engines.</text>
<text text-anchor="start" x="693" y="-74" font-family="Helvetica,sans-Serif" font-size="10.00">FlowElements.AspectEngineBase</text>
<text text-anchor="middle" x="774.5" y="-63" font-family="Helvetica,sans-Serif" font-size="10.00">&lt; T, TMeta &gt;</text>
</a>
</g>
</g>
<!-- Node1&#45;&gt;Node6 -->
<g id="edge6_Node000001_Node000006" class="edge">
<title>Node1&#45;&gt;Node6</title>
<g id="a_edge6_Node000001_Node000006"><a xlink:title=" ">
<path fill="none" stroke="#63b8ff" d="M659.24,-76.5C667.7,-76.5 676.28,-76.5 684.74,-76.5"/>
<polygon fill="#63b8ff" stroke="#63b8ff" points="659,-73 649,-76.5 659,-80 659,-73"/>
</a>
</g>
</g>
<!-- Node2 -->
<g id="Node000002" class="node">
<title>Node2</title>
<g id="a_Node000002"><a xlink:href="interface_fifty_one_1_1_pipeline_1_1_engines_1_1_flow_elements_1_1_i_aspect_engine.html" target="_top" xlink:title="Interface representing 51Degrees on&#45;premise aspect engines.">
<polygon fill="white" stroke="#666666" points="455,-118.5 297,-118.5 297,-88.5 455,-88.5 455,-118.5"/>
<text text-anchor="start" x="305" y="-106.5" font-family="Helvetica,sans-Serif" font-size="10.00">FiftyOne.Pipeline.Engines.</text>
<text text-anchor="middle" x="376" y="-95.5" font-family="Helvetica,sans-Serif" font-size="10.00">FlowElements.IAspectEngine</text>
</a>
</g>
</g>
<!-- Node2&#45;&gt;Node1 -->
<g id="edge1_Node000001_Node000002" class="edge">
<title>Node2&#45;&gt;Node1</title>
<g id="a_edge1_Node000001_Node000002"><a xlink:title=" ">
<path fill="none" stroke="#63b8ff" d="M465.15,-91.1C473.77,-89.89 482.47,-88.67 490.98,-87.47"/>
<polygon fill="#63b8ff" stroke="#63b8ff" points="464.51,-87.66 455.09,-92.52 465.48,-94.59 464.51,-87.66"/>
</a>
</g>
</g>
<!-- Node3 -->
<g id="Node000003" class="node">
<title>Node3</title>
<g id="a_Node000003"><a xlink:href="interface_fifty_one_1_1_pipeline_1_1_core_1_1_flow_elements_1_1_i_flow_element.html" target="_top" xlink:title="IFlowElement is the basic building block of a pipeline.">
<polygon fill="white" stroke="#666666" points="261,-91.5 110,-91.5 110,-61.5 261,-61.5 261,-91.5"/>
<text text-anchor="start" x="118" y="-79.5" font-family="Helvetica,sans-Serif" font-size="10.00">FiftyOne.Pipeline.Core.Flow</text>
<text text-anchor="middle" x="185.5" y="-68.5" font-family="Helvetica,sans-Serif" font-size="10.00">Elements.IFlowElement</text>
</a>
</g>
</g>
<!-- Node3&#45;&gt;Node2 -->
<g id="edge2_Node000002_Node000003" class="edge">
<title>Node3&#45;&gt;Node2</title>
<g id="a_edge2_Node000002_Node000003"><a xlink:title=" ">
<path fill="none" stroke="#63b8ff" d="M270.98,-88.6C279.54,-89.83 288.21,-91.07 296.71,-92.29"/>
<polygon fill="#63b8ff" stroke="#63b8ff" points="271.4,-85.12 261,-87.17 270.4,-92.05 271.4,-85.12"/>
</a>
</g>
</g>
<!-- Node5 -->
<g id="Node000005" class="node">
<title>Node5</title>
<g id="a_Node000005"><a xlink:href="interface_fifty_one_1_1_pipeline_1_1_core_1_1_flow_elements_1_1_i_flow_element-2-g.html" target="_top" xlink:title="Generic interface that extends IFlowElement with the ability to return a ITypedKey&lt;T&gt; that will allow...">
<polygon fill="white" stroke="#666666" points="452,-70 300,-70 300,-29 452,-29 452,-70"/>
<text text-anchor="start" x="308" y="-58" font-family="Helvetica,sans-Serif" font-size="10.00">FiftyOne.Pipeline.Core.Flow</text>
<text text-anchor="start" x="308" y="-47" font-family="Helvetica,sans-Serif" font-size="10.00">Elements.IFlowElement&lt; T,</text>
<text text-anchor="middle" x="376" y="-36" font-family="Helvetica,sans-Serif" font-size="10.00"> TMeta &gt;</text>
</a>
</g>
</g>
<!-- Node3&#45;&gt;Node5 -->
<g id="edge5_Node000005_Node000003" class="edge">
<title>Node3&#45;&gt;Node5</title>
<g id="a_edge5_Node000005_Node000003"><a xlink:title=" ">
<path fill="none" stroke="#63b8ff" d="M270.95,-64.4C280.57,-63.03 290.32,-61.63 299.81,-60.27"/>
<polygon fill="#63b8ff" stroke="#63b8ff" points="270.4,-60.95 261,-65.83 271.4,-67.88 270.4,-60.95"/>
</a>
</g>
</g>
<!-- Node4 -->
<g id="Node000004" class="node">
<title>Node4</title>
<g id="a_Node000004"><a xlink:title=" ">
<polygon fill="white" stroke="#bfbfbf" points="74,-86 0,-86 0,-67 74,-67 74,-86"/>
<text text-anchor="middle" x="37" y="-74" font-family="Helvetica,sans-Serif" font-size="10.00">IDisposable</text>
</a>
</g>
</g>
<!-- Node4&#45;&gt;Node3 -->
<g id="edge3_Node000003_Node000004" class="edge">
<title>Node4&#45;&gt;Node3</title>
<g id="a_edge3_Node000003_Node000004"><a xlink:title=" ">
<path fill="none" stroke="#63b8ff" d="M84.22,-76.5C92.38,-76.5 101.05,-76.5 109.75,-76.5"/>
<polygon fill="#63b8ff" stroke="#63b8ff" points="84.21,-73 74.21,-76.5 84.21,-80 84.21,-73"/>
</a>
</g>
</g>
<!-- Node5&#45;&gt;Node1 -->
<g id="edge4_Node000001_Node000005" class="edge">
<title>Node5&#45;&gt;Node1</title>
<g id="a_edge4_Node000001_Node000005"><a xlink:title=" ">
<path fill="none" stroke="#63b8ff" d="M461.99,-61.45C471.58,-62.8 481.33,-64.17 490.83,-65.51"/>
<polygon fill="#63b8ff" stroke="#63b8ff" points="462.45,-57.98 452.06,-60.05 461.47,-64.91 462.45,-57.98"/>
</a>
</g>
</g>
<!-- Node7 -->
<g id="Node000007" class="node">
<title>Node7</title>
<g id="a_Node000007"><a xlink:href="class_fifty_one_1_1_pipeline_1_1_engines_1_1_fifty_one_1_1_flow_elements_1_1_property_keyed_engine-2-g.html" target="_top" xlink:title="Base class for engines that use an index of property values to profile ids to populate one or more pr...">
<polygon fill="white" stroke="#666666" points="1091,-127 917,-127 917,-86 1091,-86 1091,-127"/>
<text text-anchor="start" x="925" y="-115" font-family="Helvetica,sans-Serif" font-size="10.00">FiftyOne.Pipeline.Engines.</text>
<text text-anchor="start" x="925" y="-104" font-family="Helvetica,sans-Serif" font-size="10.00">FiftyOne.FlowElements.Property</text>
<text text-anchor="middle" x="1004" y="-93" font-family="Helvetica,sans-Serif" font-size="10.00">KeyedEngine&lt; TData, TProfile &gt;</text>
</a>
</g>
</g>
<!-- Node6&#45;&gt;Node7 -->
<g id="edge7_Node000006_Node000007" class="edge">
<title>Node6&#45;&gt;Node7</title>
<g id="a_edge7_Node000006_Node000007"><a xlink:title=" ">
<path fill="none" stroke="#63b8ff" d="M874.35,-89.54C888.51,-91.4 902.98,-93.31 916.87,-95.14"/>
<polygon fill="#63b8ff" stroke="#63b8ff" points="874.48,-86.02 864.11,-88.18 873.57,-92.96 874.48,-86.02"/>
</a>
</g>
</g>
<!-- Node8 -->
<g id="Node000008" class="node">
<title>Node8</title>
<g id="a_Node000008"><a xlink:href="class_fifty_one_1_1_pipeline_1_1_engines_1_1_flow_elements_1_1_on_premise_aspect_engine_base-2-g.html" target="_top" xlink:title="Base class for 51Degrees on&#45;premise aspect engines.">
<polygon fill="white" stroke="#666666" points="1108,-68 900,-68 900,-27 1108,-27 1108,-68"/>
<text text-anchor="start" x="908" y="-56" font-family="Helvetica,sans-Serif" font-size="10.00">FiftyOne.Pipeline.Engines.</text>
<text text-anchor="start" x="908" y="-45" font-family="Helvetica,sans-Serif" font-size="10.00">FlowElements.OnPremiseAspectEngine</text>
<text text-anchor="middle" x="1004" y="-34" font-family="Helvetica,sans-Serif" font-size="10.00">Base&lt; T, TMeta &gt;</text>
</a>
</g>
</g>
<!-- Node6&#45;&gt;Node8 -->
<g id="edge8_Node000006_Node000008" class="edge">
<title>Node6&#45;&gt;Node8</title>
<g id="a_edge8_Node000006_Node000008"><a xlink:title=" ">
<path fill="none" stroke="#63b8ff" d="M874.08,-63.93C882.63,-62.84 891.3,-61.74 899.88,-60.64"/>
<polygon fill="#63b8ff" stroke="#63b8ff" points="873.59,-60.47 864.11,-65.2 874.47,-67.41 873.59,-60.47"/>
</a>
</g>
</g>
<!-- Node9 -->
<g id="Node000009" class="node">
<title>Node9</title>
<g id="a_Node000009"><a xlink:href="class_examples_1_1_on_premise_engine_1_1_flow_elements_1_1_simple_on_premise_engine.html" target="_top" xlink:title=" ">
<polygon fill="white" stroke="#666666" points="1353,-89.5 1144,-89.5 1144,-59.5 1353,-59.5 1353,-89.5"/>
<text text-anchor="start" x="1152" y="-77.5" font-family="Helvetica,sans-Serif" font-size="10.00">Examples.OnPremiseEngine.</text>
<text text-anchor="middle" x="1248.5" y="-66.5" font-family="Helvetica,sans-Serif" font-size="10.00">FlowElements.SimpleOnPremiseEngine</text>
</a>
</g>
</g>
<!-- Node8&#45;&gt;Node9 -->
<g id="edge9_Node000008_Node000009" class="edge">
<title>Node8&#45;&gt;Node9</title>
<g id="a_edge9_Node000008_Node000009"><a xlink:title=" ">
<path fill="none" stroke="#63b8ff" d="M1118.14,-60.1C1126.64,-61.04 1135.19,-62 1143.63,-62.93"/>
<polygon fill="#63b8ff" stroke="#63b8ff" points="1118.52,-56.62 1108.19,-58.99 1117.74,-63.57 1118.52,-56.62"/>
</a>
</g>
</g>
<!-- Node10 -->
<g id="Node000010" class="node">
<title>Node10</title>
<g id="a_Node000010"><a xlink:href="class_fifty_one_1_1_pipeline_1_1_engines_1_1_fifty_one_1_1_flow_elements_1_1_fifty_one_on_premise_aspect_engine_base-1-g.html" target="_top" xlink:title="51Degrees specific Engine base class.">
<polygon fill="white" stroke="#666666" points="1342.5,-41 1154.5,-41 1154.5,0 1342.5,0 1342.5,-41"/>
<text text-anchor="start" x="1162.5" y="-29" font-family="Helvetica,sans-Serif" font-size="10.00">FiftyOne.Pipeline.Engines.</text>
<text text-anchor="start" x="1162.5" y="-18" font-family="Helvetica,sans-Serif" font-size="10.00">FiftyOne.FlowElements.FiftyOne</text>
<text text-anchor="middle" x="1248.5" y="-7" font-family="Helvetica,sans-Serif" font-size="10.00">OnPremiseAspectEngineBase&lt; T &gt;</text>
</a>
</g>
</g>
<!-- Node8&#45;&gt;Node10 -->
<g id="edge10_Node000008_Node000010" class="edge">
<title>Node8&#45;&gt;Node10</title>
<g id="a_edge10_Node000008_Node000010"><a xlink:title=" ">
<path fill="none" stroke="#63b8ff" d="M1118.31,-34.88C1130.39,-33.54 1142.58,-32.18 1154.39,-30.87"/>
<polygon fill="#63b8ff" stroke="#63b8ff" points="1117.74,-31.43 1108.19,-36.01 1118.52,-38.38 1117.74,-31.43"/>
</a>
</g>
</g>
</g>
</svg>
