<?xml version="1.0" encoding="UTF-8" standalone="no"?>
<!DOCTYPE svg PUBLIC "-//W3C//DTD SVG 1.1//EN"
 "http://www.w3.org/Graphics/SVG/1.1/DTD/svg11.dtd">
<!-- Generated by graphviz version 2.43.0 (0)
 -->
<!-- Title: FiftyOne.Pipeline.Core.Data.WktString Pages: 1 -->
<svg width="162pt" height="93pt"
 viewBox="0.00 0.00 162.00 93.00" xmlns="http://www.w3.org/2000/svg" xmlns:xlink="http://www.w3.org/1999/xlink">
<g id="graph0" class="graph" transform="scale(1 1) rotate(0) translate(4 89)">
<title>FiftyOne.Pipeline.Core.Data.WktString</title>
<!-- Node1 -->
<g id="Node000001" class="node">
<title>Node1</title>
<g id="a_Node000001"><a xlink:title=" ">
<polygon fill="#999999" stroke="#666666" points="154,-30 0,-30 0,0 154,0 154,-30"/>
<text text-anchor="start" x="8" y="-18" font-family="Helvetica,sans-Serif" font-size="10.00">FiftyOne.Pipeline.Core.Data.</text>
<text text-anchor="middle" x="77" y="-7" font-family="Helvetica,sans-Serif" font-size="10.00">WktString</text>
</a>
</g>
</g>
<!-- Node2 -->
<g id="Node000002" class="node">
<title>Node2</title>
<g id="a_Node000002"><a xlink:title=" ">
<polygon fill="white" stroke="#bfbfbf" points="111,-85 43,-85 43,-66 111,-66 111,-85"/>
<text text-anchor="middle" x="77" y="-73" font-family="Helvetica,sans-Serif" font-size="10.00">IEquatable</text>
</a>
</g>
</g>
<!-- Node2&#45;&gt;Node1 -->
<g id="edge1_Node000001_Node000002" class="edge">
<title>Node2&#45;&gt;Node1</title>
<g id="a_edge1_Node000001_Node000002"><a xlink:title=" ">
<path fill="none" stroke="#63b8ff" d="M70.67,-55.93C69.99,-47.58 70.14,-37.87 71.13,-30.11"/>
<polygon fill="#63b8ff" stroke="#63b8ff" points="67.2,-56.44 72.04,-65.87 74.14,-55.48 67.2,-56.44"/>
</a>
</g>
</g>
<!-- Node2&#45;&gt;Node1 -->
<g id="edge2_Node000001_Node000002" class="edge">
<title>Node2&#45;&gt;Node1</title>
<g id="a_edge2_Node000001_Node000002"><a xlink:title=" ">
<path fill="none" stroke="#63b8ff" d="M83.33,-55.93C84.01,-47.58 83.86,-37.87 82.87,-30.11"/>
<polygon fill="#63b8ff" stroke="#63b8ff" points="79.86,-55.48 81.96,-65.87 86.8,-56.44 79.86,-55.48"/>
</a>
</g>
</g>
</g>
</svg>
