<?xml version="1.0" encoding="utf-8"?>
<svg xmlns:xlink="http://www.w3.org/1999/xlink" viewBox="0 0 183.7017822265625 67.8133316040039" version="1.1" style="font-synthesis: none;" xmlns="http://www.w3.org/2000/svg">
  <style></style>
  <defs />
  <style>	</style>
  <path d="M 0 0 L 183.7017822265625 0 L 183.7017822265625 67.8133316040039 L 0 67.8133316040039 Z " stroke="none" fill-rule="nonzero" fill="#FFFFFF" fill-opacity="0" transform="matrix(1,0,0,1,0,0)" />
  <path d="M 0 -55.813331604003906 L 183.7017822265625 -55.813331604003906 L 183.7017822265625 0 L 0 0 Z " stroke="none" fill-rule="evenodd" fill="#000000" fill-opacity="0" transform="matrix(1,0,0,-1,0,0)" />
  <path d="M 15.007999420166016 8.026666641235352 C 15.007999420166016 10.658666610717773, 13.421333312988281 12.749332427978516, 10.621333122253418 12.749332427978516 L 4.3493332862854 12.749332427978516 C 3.994666576385498 12.749332427978516, 3.7893331050872803 12.749332427978516, 3.7893331050872803 12.39466667175293 C 3.7893331050872803 12.170666694641113, 3.9573330879211426 12.170666694641113, 4.330666542053223 12.170666694641113 C 4.573333263397217 12.170666694641113, 4.909333229064941 12.151999473571777, 5.133333206176758 12.133333206176758 C 5.431999683380127 12.095999717712402, 5.543999671936035 12.039999961853027, 5.543999671936035 11.83466625213623 C 5.543999671936035 11.75999927520752, 5.525332927703857 11.703999519348145, 5.469333171844482 11.479999542236328 L 2.9679999351501465 1.4559999704360962 C 2.7813332080841064 0.7279999852180481, 2.74399995803833 0.578666627407074, 1.2693332433700562 0.578666627407074 C 0.9519999623298645 0.578666627407074, 0.746666669845581 0.578666627407074, 0.746666669845581 0.2239999920129776 C 0.746666669845581 0, 0.9146666526794434 0, 1.2693332433700562 0 L 7.447999954223633 0 C 11.330666542053223 0, 15.007999420166016 3.938666582107544, 15.007999420166016 8.026666641235352 Z M 13.383999824523926 8.71733283996582 C 13.383999824523926 7.802666187286377, 13.010665893554688 4.7413330078125, 11.423999786376953 2.687999963760376 C 10.88266658782959 1.997333288192749, 9.407999992370605 0.578666627407074, 7.11199951171875 0.578666627407074 L 5.002666473388672 0.578666627407074 C 4.7413330078125 0.578666627407074, 4.703999996185303 0.578666627407074, 4.5920000076293945 0.5973333120346069 C 4.405333042144775 0.6159999966621399, 4.3493332862854 0.6346666216850281, 4.3493332862854 0.7839999794960022 C 4.3493332862854 0.8399999737739563, 4.3493332862854 0.8773332834243774, 4.442666530609131 1.213333249092102 L 6.999999523162842 11.461333274841309 C 7.167999744415283 12.114665985107422, 7.205333232879639 12.170666694641113, 8.007999420166016 12.170666694641113 L 10.005332946777344 12.170666694641113 C 11.83466625213623 12.170666694641113, 13.383999824523926 11.1813325881958, 13.383999824523926 8.71733283996582 Z " stroke="none" fill-rule="nonzero" fill="#000000" fill-opacity="1" transform="matrix(1,0,0,-1,0,32.573333740234375)" />
  <path d="M 6.886133670806885 4.913066864013672 C 6.886133670806885 5.592533588409424, 6.115200042724609 5.7754669189453125, 5.670933723449707 5.7754669189453125 C 4.913066864013672 5.7754669189453125, 4.455733299255371 5.08293342590332, 4.298933506011963 4.782400131225586 C 3.972266912460327 5.644800186157227, 3.266666889190674 5.7754669189453125, 2.8877334594726562 5.7754669189453125 C 1.5288000106811523 5.7754669189453125, 0.784000039100647 4.089866638183594, 0.784000039100647 3.763200044631958 C 0.784000039100647 3.632533550262451, 0.9408000111579895 3.632533550262451, 0.9408000111579895 3.632533550262451 C 1.0453333854675293 3.632533550262451, 1.0845333337783813 3.6586668491363525, 1.1106667518615723 3.7762668132781982 C 1.5549334287643433 5.1613335609436035, 2.4173333644866943 5.488000392913818, 2.861600160598755 5.488000392913818 C 3.1098668575286865 5.488000392913818, 3.567200183868408 5.370400428771973, 3.567200183868408 4.6125335693359375 C 3.567200183868408 4.2074666023254395, 3.345066785812378 3.3320000171661377, 2.861600160598755 1.502666711807251 C 2.652533531188965 0.6925333738327026, 2.195199966430664 0.14373333752155304, 1.6202666759490967 0.14373333752155304 C 1.5418667793273926 0.14373333752155304, 1.2413333654403687 0.14373333752155304, 0.9669333696365356 0.31360000371932983 C 1.293600082397461 0.3789333403110504, 1.5810667276382446 0.6533333659172058, 1.5810667276382446 1.019200086593628 C 1.5810667276382446 1.3720000982284546, 1.293600082397461 1.4765334129333496, 1.097599983215332 1.4765334129333496 C 0.7056000232696533 1.4765334129333496, 0.3789333403110504 1.1368000507354736, 0.3789333403110504 0.718666672706604 C 0.3789333403110504 0.11760000139474869, 1.0322667360305786 -0.14373333752155304, 1.607200026512146 -0.14373333752155304 C 2.469600200653076 -0.14373333752155304, 2.940000057220459 0.7709333896636963, 2.9792001247406006 0.8493333458900452 C 3.136000156402588 0.36586669087409973, 3.6064000129699707 -0.14373333752155304, 4.390399932861328 -0.14373333752155304 C 5.73626708984375 -0.14373333752155304, 6.481066703796387 1.5418667793273926, 6.481066703796387 1.8685333728790283 C 6.481066703796387 1.9992001056671143, 6.363466739654541 1.9992001056671143, 6.3242669105529785 1.9992001056671143 C 6.206666946411133 1.9992001056671143, 6.180533409118652 1.946933388710022, 6.15440034866333 1.8554667234420776 C 5.72320032119751 0.45733335614204407, 4.834666728973389 0.14373333752155304, 4.416533470153809 0.14373333752155304 C 3.906933546066284 0.14373333752155304, 3.697866916656494 0.5618667006492615, 3.697866916656494 1.0061333179473877 C 3.697866916656494 1.293600082397461, 3.7762668132781982 1.5810667276382446, 3.9200000762939453 2.1560001373291016 L 4.364266872406006 3.9461333751678467 C 4.442667007446289 4.285866737365723, 4.743200302124023 5.488000392913818, 5.657866954803467 5.488000392913818 C 5.72320032119751 5.488000392913818, 6.036800384521484 5.488000392913818, 6.311200141906738 5.318133354187012 C 5.945333480834961 5.252799987792969, 5.684000015258789 4.926133632659912, 5.684000015258789 4.6125335693359375 C 5.684000015258789 4.403466701507568, 5.827733516693115 4.155200004577637, 6.180533409118652 4.155200004577637 C 6.468000411987305 4.155200004577637, 6.886133670806885 4.390399932861328, 6.886133670806885 4.913066864013672 Z " stroke="none" fill-rule="nonzero" fill="#000000" fill-opacity="1" transform="matrix(1,0,0,-1,15.455999374389648,37.18400001525879)" />
  <path d="M 13.477333068847656 6.477333068847656 C 13.477333068847656 6.682666301727295, 13.309332847595215 6.850666522979736, 13.103999137878418 6.850666522979736 L 1.4186666011810303 6.850666522979736 C 1.213333249092102 6.850666522979736, 1.0453332662582397 6.682666301727295, 1.0453332662582397 6.477333068847656 C 1.0453332662582397 6.271999835968018, 1.213333249092102 6.103999614715576, 1.4186666011810303 6.103999614715576 L 13.103999137878418 6.103999614715576 C 13.309332847595215 6.103999614715576, 13.477333068847656 6.271999835968018, 13.477333068847656 6.477333068847656 Z M 13.477333068847656 2.8559999465942383 C 13.477333068847656 3.061333179473877, 13.309332847595215 3.2293331623077393, 13.103999137878418 3.2293331623077393 L 1.4186666011810303 3.2293331623077393 C 1.213333249092102 3.2293331623077393, 1.0453332662582397 3.061333179473877, 1.0453332662582397 2.8559999465942383 C 1.0453332662582397 2.6506664752960205, 1.213333249092102 2.482666492462158, 1.4186666011810303 2.482666492462158 L 13.103999137878418 2.482666492462158 C 13.309332847595215 2.482666492462158, 13.477333068847656 2.6506664752960205, 13.477333068847656 2.8559999465942383 Z " stroke="none" fill-rule="nonzero" fill="#000000" fill-opacity="1" transform="matrix(1,0,0,-1,27.864355087280273,32.573333740234375)" />
  <path d="M 6.402667045593262 3.684800148010254 C 6.402667045593262 4.913066864013672, 5.657866954803467 5.7754669189453125, 4.66480016708374 5.7754669189453125 C 4.011466979980469 5.7754669189453125, 3.3842668533325195 5.30506706237793, 2.953066825866699 4.795466899871826 C 2.8224000930786133 5.5010666847229, 2.260533332824707 5.7754669189453125, 1.777066707611084 5.7754669189453125 C 1.1759999990463257 5.7754669189453125, 0.9277333617210388 5.265866756439209, 0.8101333379745483 5.030666828155518 C 0.5749333500862122 4.586400032043457, 0.40506666898727417 3.8024001121520996, 0.40506666898727417 3.763200044631958 C 0.40506666898727417 3.632533550262451, 0.5618667006492615 3.632533550262451, 0.5618667006492615 3.632533550262451 C 0.6925333738327026 3.632533550262451, 0.7056000232696533 3.6456000804901123, 0.784000039100647 3.9330668449401855 C 1.0061333179473877 4.860800266265869, 1.26746666431427 5.488000392913818, 1.737866759300232 5.488000392913818 C 1.9600000381469727 5.488000392913818, 2.1429333686828613 5.383466720581055, 2.1429333686828613 4.886933326721191 C 2.1429333686828613 4.586400032043457, 2.1037333011627197 4.442667007446289, 2.051466703414917 4.22053337097168 L 0.5879999995231628 -1.5941333770751953 C 0.4834666848182678 -2.038400173187256, 0.45733335614204407 -2.1298668384552, -0.11760000139474869 -2.1298668384552 C -0.274399995803833 -2.1298668384552, -0.41813334822654724 -2.1298668384552, -0.41813334822654724 -2.378133535385132 C -0.41813334822654724 -2.4826667308807373, -0.35280001163482666 -2.53493332862854, -0.24826668202877045 -2.53493332862854 C 0.10453333705663681 -2.53493332862854, 0.4834666848182678 -2.4957334995269775, 0.8493333458900452 -2.4957334995269775 C 1.2805334329605103 -2.4957334995269775, 1.7248001098632812 -2.53493332862854, 2.1429333686828613 -2.53493332862854 C 2.2082667350769043 -2.53493332862854, 2.378133535385132 -2.53493332862854, 2.378133535385132 -2.2736001014709473 C 2.378133535385132 -2.1298668384552, 2.247466802597046 -2.1298668384552, 2.0645334720611572 -2.1298668384552 C 1.4112000465393066 -2.1298668384552, 1.4112000465393066 -2.038400173187256, 1.4112000465393066 -1.9208000898361206 C 1.4112000465393066 -1.7640000581741333, 1.9600000381469727 0.36586669087409973, 2.051466703414917 0.6925333738327026 C 2.2213335037231445 0.31360000371932983, 2.587200164794922 -0.14373333752155304, 3.2536001205444336 -0.14373333752155304 C 4.769333362579346 -0.14373333752155304, 6.402667045593262 1.7640000581741333, 6.402667045593262 3.684800148010254 Z M 5.461866855621338 4.2597336769104 C 5.461866855621338 3.488800048828125, 5.030666828155518 1.9861334562301636, 4.795466899871826 1.4896000623703003 C 4.351200103759766 0.5749333500862122, 3.7240002155303955 0.14373333752155304, 3.2405333518981934 0.14373333752155304 C 2.378133535385132 0.14373333752155304, 2.2082667350769043 1.228266716003418, 2.2082667350769043 1.3066667318344116 C 2.2082667350769043 1.3066667318344116, 2.2082667350769043 1.3589333295822144, 2.247466802597046 1.5157333612442017 L 2.8877334594726562 4.076800346374512 C 2.9792001247406006 4.429600238800049, 3.3320000171661377 4.795466899871826, 3.567200183868408 4.991466999053955 C 4.024533271789551 5.396533489227295, 4.403466701507568 5.488000392913818, 4.625600337982178 5.488000392913818 C 5.148266792297363 5.488000392913818, 5.461866855621338 5.030666828155518, 5.461866855621338 4.2597336769104 Z " stroke="none" fill-rule="nonzero" fill="#000000" fill-opacity="1" transform="matrix(1,0,0,-1,56.466976165771484,52.17333221435547)" />
  <path d="M 25.89066505432129 -2.426666498184204 L 25.423999786376953 -2.426666498184204 C 24.695999145507812 -4.368000030517578, 22.71733283996582 -5.637332916259766, 20.57066535949707 -6.197333335876465 C 20.178665161132812 -6.290666580200195, 18.349332809448242 -6.775999546051025, 14.76533317565918 -6.775999546051025 L 3.5093331336975098 -6.775999546051025 L 13.010665893554688 4.368000030517578 C 13.141332626342773 4.517333030700684, 13.178666114807129 4.573333263397217, 13.178666114807129 4.666666507720947 C 13.178666114807129 4.666666507720947, 13.178666114807129 4.759999752044678, 13.047999382019043 4.946666717529297 L 4.3493332862854 16.83733367919922 L 14.578665733337402 16.83733367919922 C 17.079999923706055 16.83733367919922, 18.77866554260254 16.576000213623047, 18.946666717529297 16.538665771484375 C 19.954666137695312 16.389331817626953, 21.57866668701172 16.071998596191406, 23.053333282470703 15.138666152954102 C 23.51999855041504 14.839999198913574, 24.78933334350586 13.999999046325684, 25.423999786376953 12.48799991607666 L 25.89066505432129 12.48799991607666 L 23.631999969482422 17.733333587646484 L 1.5679999589920044 17.733333587646484 C 1.1386666297912598 17.733333587646484, 1.1200000047683716 17.71466636657715, 1.0640000104904175 17.6026668548584 C 1.0453332662582397 17.54666519165039, 1.0453332662582397 17.191999435424805, 1.0453332662582397 16.986665725708008 L 10.920000076293945 3.4719998836517334 L 1.250666618347168 -7.85866641998291 C 1.0640000104904175 -8.082666397094727, 1.0640000104904175 -8.194665908813477, 1.0640000104904175 -8.194665908813477 C 1.0640000104904175 -8.399999618530273, 1.2319999933242798 -8.399999618530273, 1.5679999589920044 -8.399999618530273 L 23.631999969482422 -8.399999618530273 Z " stroke="none" fill-rule="nonzero" fill="#000000" fill-opacity="1" transform="matrix(1,0,0,-1,46.275909423828125,32.57333421707153)" />
  <path d="M 15.82933235168457 2.6693332195281982 C 15.82933235168457 2.8559999465942383, 15.661333084106445 2.8559999465942383, 15.605332374572754 2.8559999465942383 C 15.418665885925293 2.8559999465942383, 15.418665885925293 2.799999952316284, 15.325332641601562 2.5199999809265137 C 15.045332908630371 1.5306665897369385, 14.447999954223633 0.20533332228660583, 13.421333312988281 0.20533332228660583 C 13.103999137878418 0.20533332228660583, 12.973332405090332 0.3919999897480011, 12.973332405090332 0.8213332891464233 C 12.973332405090332 1.2879999876022339, 13.141332626342773 1.7359999418258667, 13.309332847595215 2.1466665267944336 C 13.663999557495117 3.117333173751831, 14.447999954223633 5.189332962036133, 14.447999954223633 6.25333309173584 C 14.447999954223633 7.466666221618652, 13.701333045959473 8.250666618347168, 12.301332473754883 8.250666618347168 C 10.90133285522461 8.250666618347168, 9.949333190917969 7.429333209991455, 9.258666038513184 6.439999580383301 C 9.239999771118164 6.682666301727295, 9.184000015258789 7.317333221435547, 8.661333084106445 7.76533317565918 C 8.194665908813477 8.157333374023438, 7.597332954406738 8.250666618347168, 7.130666255950928 8.250666618347168 C 5.450666427612305 8.250666618347168, 4.535999774932861 7.055999755859375, 4.2186665534973145 6.62666654586792 C 4.125333309173584 7.690666198730469, 3.3413331508636475 8.250666618347168, 2.501333236694336 8.250666618347168 C 1.6426665782928467 8.250666618347168, 1.2879999876022339 7.5226664543151855, 1.1200000047683716 7.186666488647461 C 0.7839999794960022 6.5333333015441895, 0.5413333177566528 5.431999683380127, 0.5413333177566528 5.375999927520752 C 0.5413333177566528 5.189332962036133, 0.7653332948684692 5.189332962036133, 0.7653332948684692 5.189332962036133 C 0.9519999623298645 5.189332962036133, 0.9706666469573975 5.2079997062683105, 1.0826666355133057 5.618666648864746 C 1.399999976158142 6.943999767303467, 1.7733333110809326 7.839999675750732, 2.445333242416382 7.839999675750732 C 2.74399995803833 7.839999675750732, 3.0239999294281006 7.690666198730469, 3.0239999294281006 6.981333255767822 C 3.0239999294281006 6.5893330574035645, 2.9679999351501465 6.383999824523926, 2.7253332138061523 5.413332939147949 L 1.6426665782928467 1.1013332605361938 C 1.5866665840148926 0.8213332891464233, 1.4746665954589844 0.3919999897480011, 1.4746665954589844 0.29866665601730347 C 1.4746665954589844 -0.03733333200216293, 1.7359999418258667 -0.20533332228660583, 2.0160000324249268 -0.20533332228660583 C 2.240000009536743 -0.20533332228660583, 2.5759999752044678 -0.0559999980032444, 2.7066664695739746 0.31733331084251404 C 2.7253332138061523 0.35466665029525757, 2.9493331909179688 1.2319999933242798, 3.061333179473877 1.6986665725708008 L 3.4719998836517334 3.378666639328003 C 3.5839998722076416 3.7893331050872803, 3.69599986076355 4.199999809265137, 3.7893331050872803 4.629333019256592 L 4.0320000648498535 5.562666416168213 C 4.311999797821045 6.141333103179932, 5.301332950592041 7.839999675750732, 7.074666500091553 7.839999675750732 C 7.914666175842285 7.839999675750732, 8.082666397094727 7.1493330001831055, 8.082666397094727 6.5333333015441895 C 8.082666397094727 6.066666603088379, 7.951999664306641 5.543999671936035, 7.802666187286377 4.983999729156494 L 7.279999732971191 2.818666458129883 C 7.0933332443237305 2.128000020980835, 7.074666500091553 2.0160000324249268, 6.906666278839111 1.399999976158142 C 6.831999778747559 1.0266666412353516, 6.663999557495117 0.3919999897480011, 6.663999557495117 0.29866665601730347 C 6.663999557495117 -0.03733333200216293, 6.925333023071289 -0.20533332228660583, 7.205333232879639 -0.20533332228660583 C 7.783999919891357 -0.20533332228660583, 7.895999908447266 0.26133331656455994, 8.045332908630371 0.8586666584014893 L 9.165332794189453 5.357333183288574 C 9.221332550048828 5.599999904632568, 10.21066665649414 7.839999675750732, 12.245332717895508 7.839999675750732 C 13.047999382019043 7.839999675750732, 13.25333309173584 7.205333232879639, 13.25333309173584 6.5333333015441895 C 13.25333309173584 5.469333171844482, 12.469332695007324 3.3413331508636475, 12.095999717712402 2.3519999980926514 C 11.927999496459961 1.903999924659729, 11.85333251953125 1.6986665725708008, 11.85333251953125 1.3253332376480103 C 11.85333251953125 0.4479999840259552, 12.50666618347168 -0.20533332228660583, 13.383999824523926 -0.20533332228660583 C 15.138666152954102 -0.20533332228660583, 15.82933235168457 2.5199999809265137, 15.82933235168457 2.6693332195281982 Z " stroke="none" fill-rule="nonzero" fill="#000000" fill-opacity="1" transform="matrix(1,0,0,-1,75.56391143798828,32.573333740234375)" />
  <path d="M 5.301332950592041 11.666666030883789 C 5.301332950592041 12.039999961853027, 5.039999961853027 12.338665962219238, 4.610666275024414 12.338665962219238 C 4.106666564941406 12.338665962219238, 3.6026666164398193 11.85333251953125, 3.6026666164398193 11.349332809448242 C 3.6026666164398193 10.99466609954834, 3.863999843597412 10.677332878112793, 4.311999797821045 10.677332878112793 C 4.7413330078125 10.677332878112793, 5.301332950592041 11.106666564941406, 5.301332950592041 11.666666030883789 Z M 5.469333171844482 2.6693332195281982 C 5.469333171844482 2.8559999465942383, 5.301332950592041 2.8559999465942383, 5.245333194732666 2.8559999465942383 C 5.058666706085205 2.8559999465942383, 5.058666706085205 2.799999952316284, 4.965332984924316 2.5199999809265137 C 4.629333019256592 1.343999981880188, 4.013333320617676 0.20533332228660583, 3.061333179473877 0.20533332228660583 C 2.74399995803833 0.20533332228660583, 2.613333225250244 0.3919999897480011, 2.613333225250244 0.8213332891464233 C 2.613333225250244 1.2879999876022339, 2.7253332138061523 1.5493333339691162, 3.1546666622161865 2.687999963760376 L 3.88266658782959 4.6479997634887695 C 4.106666564941406 5.189332962036133, 4.106666564941406 5.226666450500488, 4.293333053588867 5.730666637420654 C 4.442666530609131 6.103999614715576, 4.535999774932861 6.365333080291748, 4.535999774932861 6.71999979019165 C 4.535999774932861 7.559999942779541, 3.938666582107544 8.250666618347168, 3.005333185195923 8.250666618347168 C 1.250666618347168 8.250666618347168, 0.5413333177566528 5.543999671936035, 0.5413333177566528 5.375999927520752 C 0.5413333177566528 5.189332962036133, 0.7653332948684692 5.189332962036133, 0.7653332948684692 5.189332962036133 C 0.9519999623298645 5.189332962036133, 0.9706666469573975 5.226666450500488, 1.0640000104904175 5.525332927703857 C 1.5679999589920044 7.279999732971191, 2.314666509628296 7.839999675750732, 2.9493331909179688 7.839999675750732 C 3.0986666679382324 7.839999675750732, 3.4159998893737793 7.839999675750732, 3.4159998893737793 7.242666244506836 C 3.4159998893737793 6.850666522979736, 3.2853331565856934 6.4586663246154785, 3.2106666564941406 6.271999835968018 C 3.061333179473877 5.786666393280029, 2.2213332653045654 3.621333122253418, 1.9226665496826172 2.818666458129883 C 1.7359999418258667 2.3333332538604736, 1.493333339691162 1.7173333168029785, 1.493333339691162 1.3253332376480103 C 1.493333339691162 0.4479999840259552, 2.128000020980835 -0.20533332228660583, 3.0239999294281006 -0.20533332228660583 C 4.7786664962768555 -0.20533332228660583, 5.469333171844482 2.501333236694336, 5.469333171844482 2.6693332195281982 Z " stroke="none" fill-rule="nonzero" fill="#000000" fill-opacity="1" transform="matrix(1,0,0,-1,91.95324325561523,32.573333740234375)" />
  <path d="M 10.658666610717773 2.6693332195281982 C 10.658666610717773 2.8559999465942383, 10.490666389465332 2.8559999465942383, 10.434666633605957 2.8559999465942383 C 10.24799919128418 2.8559999465942383, 10.24799919128418 2.799999952316284, 10.15466594696045 2.5199999809265137 C 9.781332969665527 1.250666618347168, 9.165332794189453 0.20533332228660583, 8.250666618347168 0.20533332228660583 C 7.933332920074463 0.20533332228660583, 7.802666187286377 0.3919999897480011, 7.802666187286377 0.8213332891464233 C 7.802666187286377 1.2879999876022339, 7.970666408538818 1.7359999418258667, 8.138666152954102 2.1466665267944336 C 8.493332862854004 3.135999917984009, 9.27733325958252 5.189332962036133, 9.27733325958252 6.25333309173584 C 9.27733325958252 7.503999710083008, 8.474666595458984 8.250666618347168, 7.130666255950928 8.250666618347168 C 5.450666427612305 8.250666618347168, 4.535999774932861 7.055999755859375, 4.2186665534973145 6.62666654586792 C 4.125333309173584 7.671999931335449, 3.359999895095825 8.250666618347168, 2.501333236694336 8.250666618347168 C 1.6426665782928467 8.250666618347168, 1.2879999876022339 7.5226664543151855, 1.1013332605361938 7.186666488647461 C 0.8026666641235352 6.551999568939209, 0.5413333177566528 5.450666427612305, 0.5413333177566528 5.375999927520752 C 0.5413333177566528 5.189332962036133, 0.7653332948684692 5.189332962036133, 0.7653332948684692 5.189332962036133 C 0.9519999623298645 5.189332962036133, 0.9706666469573975 5.2079997062683105, 1.0826666355133057 5.618666648864746 C 1.399999976158142 6.943999767303467, 1.7733333110809326 7.839999675750732, 2.445333242416382 7.839999675750732 C 2.818666458129883 7.839999675750732, 3.0239999294281006 7.597332954406738, 3.0239999294281006 6.981333255767822 C 3.0239999294281006 6.5893330574035645, 2.9679999351501465 6.383999824523926, 2.7253332138061523 5.413332939147949 L 1.6426665782928467 1.1013332605361938 C 1.5866665840148926 0.8213332891464233, 1.4746665954589844 0.3919999897480011, 1.4746665954589844 0.29866665601730347 C 1.4746665954589844 -0.03733333200216293, 1.7359999418258667 -0.20533332228660583, 2.0160000324249268 -0.20533332228660583 C 2.240000009536743 -0.20533332228660583, 2.5759999752044678 -0.0559999980032444, 2.7066664695739746 0.31733331084251404 C 2.7253332138061523 0.35466665029525757, 2.9493331909179688 1.2319999933242798, 3.061333179473877 1.6986665725708008 L 3.4719998836517334 3.378666639328003 C 3.5839998722076416 3.7893331050872803, 3.69599986076355 4.199999809265137, 3.7893331050872803 4.629333019256592 L 4.0320000648498535 5.562666416168213 C 4.311999797821045 6.141333103179932, 5.301332950592041 7.839999675750732, 7.074666500091553 7.839999675750732 C 7.914666175842285 7.839999675750732, 8.082666397094727 7.1493330001831055, 8.082666397094727 6.5333333015441895 C 8.082666397094727 5.375999927520752, 7.167999744415283 2.986666679382324, 6.869333267211914 2.184000015258789 C 6.701333045959473 1.7546665668487549, 6.682666301727295 1.5306665897369385, 6.682666301727295 1.3253332376480103 C 6.682666301727295 0.4479999840259552, 7.335999965667725 -0.20533332228660583, 8.213333129882812 -0.20533332228660583 C 9.967999458312988 -0.20533332228660583, 10.658666610717773 2.5199999809265137, 10.658666610717773 2.6693332195281982 Z " stroke="none" fill-rule="nonzero" fill="#000000" fill-opacity="1" transform="matrix(1,0,0,-1,98.39324283599854,32.573333740234375)" />
  <path d="M 15.362666130065918 -22.847999572753906 C 15.362666130065918 -22.71733283996582, 15.306666374206543 -22.60533332824707, 15.194665908813477 -22.53066635131836 C 10.434666633605957 -18.946666717529297, 7.074666500091553 -8.736000061035156, 7.074666500091553 0 L 7.074666500091553 9.333333015441895 C 7.074666500091553 18.069332122802734, 10.434666633605957 28.279998779296875, 15.194665908813477 31.863998413085938 C 15.306666374206543 31.93866539001465, 15.362666130065918 32.05066680908203, 15.362666130065918 32.181331634521484 C 15.362666130065918 32.38666534423828, 15.175999641418457 32.573333740234375, 14.97066593170166 32.573333740234375 C 14.87733268737793 32.573333740234375, 14.802665710449219 32.5359992980957, 14.746665954589844 32.49866485595703 C 9.743999481201172 28.727998733520508, 5.170666694641113 18.479999542236328, 5.170666694641113 9.333333015441895 L 5.170666694641113 0 C 5.170666694641113 -9.146666526794434, 9.743999481201172 -19.39466667175293, 14.746665954589844 -23.165332794189453 C 14.802665710449219 -23.202665328979492, 14.87733268737793 -23.239999771118164, 14.97066593170166 -23.239999771118164 C 15.175999641418457 -23.239999771118164, 15.362666130065918 -23.053333282470703, 15.362666130065918 -22.847999572753906 Z " stroke="none" fill-rule="nonzero" fill="#000000" fill-opacity="1" transform="matrix(1,0,0,-1,111.92658233642578,32.57333421707153)" />
  <path d="M 11.162666320800781 0 L 11.162666320800781 9.333333015441895 C 11.162666320800781 18.479999542236328, 6.5893330574035645 28.727998733520508, 1.5866665840148926 32.49866485595703 C 1.5306665897369385 32.5359992980957, 1.4559999704360962 32.573333740234375, 1.3626666069030762 32.573333740234375 C 1.157333254814148 32.573333740234375, 0.9706666469573975 32.38666534423828, 0.9706666469573975 32.181331634521484 C 0.9706666469573975 32.05066680908203, 1.0266666412353516 31.93866539001465, 1.1386666297912598 31.863998413085938 C 5.8986663818359375 28.279998779296875, 9.258666038513184 18.069332122802734, 9.258666038513184 9.333333015441895 L 9.258666038513184 0 C 9.258666038513184 -8.736000061035156, 5.8986663818359375 -18.946666717529297, 1.1386666297912598 -22.53066635131836 C 1.0266666412353516 -22.60533332824707, 0.9706666469573975 -22.71733283996582, 0.9706666469573975 -22.847999572753906 C 0.9706666469573975 -23.053333282470703, 1.157333254814148 -23.239999771118164, 1.3626666069030762 -23.239999771118164 C 1.4559999704360962 -23.239999771118164, 1.5306665897369385 -23.202665328979492, 1.5866665840148926 -23.165332794189453 C 6.5893330574035645 -19.39466667175293, 11.162666320800781 -9.146666526794434, 11.162666320800781 0 Z " stroke="none" fill-rule="nonzero" fill="#000000" fill-opacity="1" transform="matrix(1,0,0,-1,167.3684539794922,32.57333421707153)" />
  <path d="M 14.186666488647461 12.973332405090332 C 14.186666488647461 13.029333114624023, 14.149333000183105 13.15999984741211, 13.981332778930664 13.15999984741211 C 13.925333023071289 13.15999984741211, 13.906665802001953 13.141332626342773, 13.701333045959473 12.935999870300293 L 12.39466667175293 11.498665809631348 C 12.226666450500488 11.75999927520752, 11.368000030517578 13.15999984741211, 9.295999526977539 13.15999984741211 C 5.133333206176758 13.15999984741211, 0.9333332777023315 9.034666061401367, 0.9333332777023315 4.703999996185303 C 0.9333332777023315 1.6239999532699585, 3.135999917984009 -0.41066664457321167, 5.991999626159668 -0.41066664457321167 C 7.615999698638916 -0.41066664457321167, 9.034666061401367 0.335999995470047, 10.023999214172363 1.1946666240692139 C 11.75999927520752 2.7253332138061523, 12.077332496643066 4.423999786376953, 12.077332496643066 4.480000019073486 C 12.077332496643066 4.666666507720947, 11.85333251953125 4.666666507720947, 11.85333251953125 4.666666507720947 C 11.7413330078125 4.666666507720947, 11.64799976348877 4.629333019256592, 11.610666275024414 4.480000019073486 C 11.442666053771973 3.938666582107544, 11.013333320617676 2.613333225250244, 9.725333213806152 1.5306665897369385 C 8.437333106994629 0.48533332347869873, 7.261332988739014 0.1679999977350235, 6.290666580200195 0.1679999977350235 C 4.610666275024414 0.1679999977350235, 2.631999969482422 1.1386666297912598, 2.631999969482422 4.050666332244873 C 2.631999969482422 5.11466646194458, 3.0239999294281006 8.138666152954102, 4.890666484832764 10.32266616821289 C 6.029333114624023 11.64799976348877, 7.783999919891357 12.58133316040039, 9.445332527160645 12.58133316040039 C 11.349332809448242 12.58133316040039, 12.450666427612305 11.144000053405762, 12.450666427612305 8.978666305541992 C 12.450666427612305 8.231999397277832, 12.39466667175293 8.213333129882812, 12.39466667175293 8.026666641235352 C 12.39466667175293 7.839999675750732, 12.59999942779541 7.839999675750732, 12.674666404724121 7.839999675750732 C 12.917332649230957 7.839999675750732, 12.917332649230957 7.877333164215088, 13.010665893554688 8.213333129882812 Z " stroke="none" fill-rule="nonzero" fill="#000000" fill-opacity="1" transform="matrix(1,0,0,-1,128.25991821289062,18.14773464202881)" />
  <path d="M 6.402667045593262 3.684800148010254 C 6.402667045593262 4.913066864013672, 5.657866954803467 5.7754669189453125, 4.66480016708374 5.7754669189453125 C 4.011466979980469 5.7754669189453125, 3.3842668533325195 5.30506706237793, 2.953066825866699 4.795466899871826 C 2.8224000930786133 5.5010666847229, 2.260533332824707 5.7754669189453125, 1.777066707611084 5.7754669189453125 C 1.1759999990463257 5.7754669189453125, 0.9277333617210388 5.265866756439209, 0.8101333379745483 5.030666828155518 C 0.5749333500862122 4.586400032043457, 0.40506666898727417 3.8024001121520996, 0.40506666898727417 3.763200044631958 C 0.40506666898727417 3.632533550262451, 0.5618667006492615 3.632533550262451, 0.5618667006492615 3.632533550262451 C 0.6925333738327026 3.632533550262451, 0.7056000232696533 3.6456000804901123, 0.784000039100647 3.9330668449401855 C 1.0061333179473877 4.860800266265869, 1.26746666431427 5.488000392913818, 1.737866759300232 5.488000392913818 C 1.9600000381469727 5.488000392913818, 2.1429333686828613 5.383466720581055, 2.1429333686828613 4.886933326721191 C 2.1429333686828613 4.586400032043457, 2.1037333011627197 4.442667007446289, 2.051466703414917 4.22053337097168 L 0.5879999995231628 -1.5941333770751953 C 0.4834666848182678 -2.038400173187256, 0.45733335614204407 -2.1298668384552, -0.11760000139474869 -2.1298668384552 C -0.274399995803833 -2.1298668384552, -0.41813334822654724 -2.1298668384552, -0.41813334822654724 -2.378133535385132 C -0.41813334822654724 -2.4826667308807373, -0.35280001163482666 -2.53493332862854, -0.24826668202877045 -2.53493332862854 C 0.10453333705663681 -2.53493332862854, 0.4834666848182678 -2.4957334995269775, 0.8493333458900452 -2.4957334995269775 C 1.2805334329605103 -2.4957334995269775, 1.7248001098632812 -2.53493332862854, 2.1429333686828613 -2.53493332862854 C 2.2082667350769043 -2.53493332862854, 2.378133535385132 -2.53493332862854, 2.378133535385132 -2.2736001014709473 C 2.378133535385132 -2.1298668384552, 2.247466802597046 -2.1298668384552, 2.0645334720611572 -2.1298668384552 C 1.4112000465393066 -2.1298668384552, 1.4112000465393066 -2.038400173187256, 1.4112000465393066 -1.9208000898361206 C 1.4112000465393066 -1.7640000581741333, 1.9600000381469727 0.36586669087409973, 2.051466703414917 0.6925333738327026 C 2.2213335037231445 0.31360000371932983, 2.587200164794922 -0.14373333752155304, 3.2536001205444336 -0.14373333752155304 C 4.769333362579346 -0.14373333752155304, 6.402667045593262 1.7640000581741333, 6.402667045593262 3.684800148010254 Z M 5.461866855621338 4.2597336769104 C 5.461866855621338 3.488800048828125, 5.030666828155518 1.9861334562301636, 4.795466899871826 1.4896000623703003 C 4.351200103759766 0.5749333500862122, 3.7240002155303955 0.14373333752155304, 3.2405333518981934 0.14373333752155304 C 2.378133535385132 0.14373333752155304, 2.2082667350769043 1.228266716003418, 2.2082667350769043 1.3066667318344116 C 2.2082667350769043 1.3066667318344116, 2.2082667350769043 1.3589333295822144, 2.247466802597046 1.5157333612442017 L 2.8877334594726562 4.076800346374512 C 2.9792001247406006 4.429600238800049, 3.3320000171661377 4.795466899871826, 3.567200183868408 4.991466999053955 C 4.024533271789551 5.396533489227295, 4.403466701507568 5.488000392913818, 4.625600337982178 5.488000392913818 C 5.148266792297363 5.488000392913818, 5.461866855621338 5.030666828155518, 5.461866855621338 4.2597336769104 Z " stroke="none" fill-rule="nonzero" fill="#000000" fill-opacity="1" transform="matrix(1,0,0,-1,141.6065845489502,22.758400917053223)" />
  <path d="M 14.186666488647461 12.973332405090332 C 14.186666488647461 13.029333114624023, 14.149333000183105 13.15999984741211, 13.981332778930664 13.15999984741211 C 13.925333023071289 13.15999984741211, 13.906665802001953 13.141332626342773, 13.701333045959473 12.935999870300293 L 12.39466667175293 11.498665809631348 C 12.226666450500488 11.75999927520752, 11.368000030517578 13.15999984741211, 9.295999526977539 13.15999984741211 C 5.133333206176758 13.15999984741211, 0.9333332777023315 9.034666061401367, 0.9333332777023315 4.703999996185303 C 0.9333332777023315 1.6239999532699585, 3.135999917984009 -0.41066664457321167, 5.991999626159668 -0.41066664457321167 C 7.615999698638916 -0.41066664457321167, 9.034666061401367 0.335999995470047, 10.023999214172363 1.1946666240692139 C 11.75999927520752 2.7253332138061523, 12.077332496643066 4.423999786376953, 12.077332496643066 4.480000019073486 C 12.077332496643066 4.666666507720947, 11.85333251953125 4.666666507720947, 11.85333251953125 4.666666507720947 C 11.7413330078125 4.666666507720947, 11.64799976348877 4.629333019256592, 11.610666275024414 4.480000019073486 C 11.442666053771973 3.938666582107544, 11.013333320617676 2.613333225250244, 9.725333213806152 1.5306665897369385 C 8.437333106994629 0.48533332347869873, 7.261332988739014 0.1679999977350235, 6.290666580200195 0.1679999977350235 C 4.610666275024414 0.1679999977350235, 2.631999969482422 1.1386666297912598, 2.631999969482422 4.050666332244873 C 2.631999969482422 5.11466646194458, 3.0239999294281006 8.138666152954102, 4.890666484832764 10.32266616821289 C 6.029333114624023 11.64799976348877, 7.783999919891357 12.58133316040039, 9.445332527160645 12.58133316040039 C 11.349332809448242 12.58133316040039, 12.450666427612305 11.144000053405762, 12.450666427612305 8.978666305541992 C 12.450666427612305 8.231999397277832, 12.39466667175293 8.213333129882812, 12.39466667175293 8.026666641235352 C 12.39466667175293 7.839999675750732, 12.59999942779541 7.839999675750732, 12.674666404724121 7.839999675750732 C 12.917332649230957 7.839999675750732, 12.917332649230957 7.877333164215088, 13.010665893554688 8.213333129882812 Z " stroke="none" fill-rule="nonzero" fill="#000000" fill-opacity="1" transform="matrix(1,0,0,-1,128.25991821289062,47.226667404174805)" />
  <path d="M 6.402667045593262 3.684800148010254 C 6.402667045593262 4.913066864013672, 5.657866954803467 5.7754669189453125, 4.66480016708374 5.7754669189453125 C 4.011466979980469 5.7754669189453125, 3.3842668533325195 5.30506706237793, 2.953066825866699 4.795466899871826 C 2.8224000930786133 5.5010666847229, 2.260533332824707 5.7754669189453125, 1.777066707611084 5.7754669189453125 C 1.1759999990463257 5.7754669189453125, 0.9277333617210388 5.265866756439209, 0.8101333379745483 5.030666828155518 C 0.5749333500862122 4.586400032043457, 0.40506666898727417 3.8024001121520996, 0.40506666898727417 3.763200044631958 C 0.40506666898727417 3.632533550262451, 0.5618667006492615 3.632533550262451, 0.5618667006492615 3.632533550262451 C 0.6925333738327026 3.632533550262451, 0.7056000232696533 3.6456000804901123, 0.784000039100647 3.9330668449401855 C 1.0061333179473877 4.860800266265869, 1.26746666431427 5.488000392913818, 1.737866759300232 5.488000392913818 C 1.9600000381469727 5.488000392913818, 2.1429333686828613 5.383466720581055, 2.1429333686828613 4.886933326721191 C 2.1429333686828613 4.586400032043457, 2.1037333011627197 4.442667007446289, 2.051466703414917 4.22053337097168 L 0.5879999995231628 -1.5941333770751953 C 0.4834666848182678 -2.038400173187256, 0.45733335614204407 -2.1298668384552, -0.11760000139474869 -2.1298668384552 C -0.274399995803833 -2.1298668384552, -0.41813334822654724 -2.1298668384552, -0.41813334822654724 -2.378133535385132 C -0.41813334822654724 -2.4826667308807373, -0.35280001163482666 -2.53493332862854, -0.24826668202877045 -2.53493332862854 C 0.10453333705663681 -2.53493332862854, 0.4834666848182678 -2.4957334995269775, 0.8493333458900452 -2.4957334995269775 C 1.2805334329605103 -2.4957334995269775, 1.7248001098632812 -2.53493332862854, 2.1429333686828613 -2.53493332862854 C 2.2082667350769043 -2.53493332862854, 2.378133535385132 -2.53493332862854, 2.378133535385132 -2.2736001014709473 C 2.378133535385132 -2.1298668384552, 2.247466802597046 -2.1298668384552, 2.0645334720611572 -2.1298668384552 C 1.4112000465393066 -2.1298668384552, 1.4112000465393066 -2.038400173187256, 1.4112000465393066 -1.9208000898361206 C 1.4112000465393066 -1.7640000581741333, 1.9600000381469727 0.36586669087409973, 2.051466703414917 0.6925333738327026 C 2.2213335037231445 0.31360000371932983, 2.587200164794922 -0.14373333752155304, 3.2536001205444336 -0.14373333752155304 C 4.769333362579346 -0.14373333752155304, 6.402667045593262 1.7640000581741333, 6.402667045593262 3.684800148010254 Z M 5.461866855621338 4.2597336769104 C 5.461866855621338 3.488800048828125, 5.030666828155518 1.9861334562301636, 4.795466899871826 1.4896000623703003 C 4.351200103759766 0.5749333500862122, 3.7240002155303955 0.14373333752155304, 3.2405333518981934 0.14373333752155304 C 2.378133535385132 0.14373333752155304, 2.2082667350769043 1.228266716003418, 2.2082667350769043 1.3066667318344116 C 2.2082667350769043 1.3066667318344116, 2.2082667350769043 1.3589333295822144, 2.247466802597046 1.5157333612442017 L 2.8877334594726562 4.076800346374512 C 2.9792001247406006 4.429600238800049, 3.3320000171661377 4.795466899871826, 3.567200183868408 4.991466999053955 C 4.024533271789551 5.396533489227295, 4.403466701507568 5.488000392913818, 4.625600337982178 5.488000392913818 C 5.148266792297363 5.488000392913818, 5.461866855621338 5.030666828155518, 5.461866855621338 4.2597336769104 Z " stroke="none" fill-rule="nonzero" fill="#000000" fill-opacity="1" transform="matrix(1,0,0,-1,141.6065845489502,51.83733367919922)" />
  <path d="M -1.5493333339691162 11.368000030517578 L -1.5493333339691162 11.946666717529297 L -8.288000106811523 11.946666717529297 L -8.288000106811523 11.368000030517578 Z " stroke="none" fill-rule="nonzero" fill="#000000" fill-opacity="1" transform="matrix(1,0,0,-1,143.12885189056396,42.46666717529297)" />
  <path d="M 0 4.666666507720947 L 19.919200897216797 4.666666507720947 " stroke="#000000" stroke-opacity="1" stroke-width="0.746666669845581" stroke-linecap="butt" stroke-linejoin="miter" fill="none" transform="matrix(1,0,0,-1,128.25991821289062,32.573333740234375)" />
  <path d="M 3.7893331050872803 0.018666666001081467 C 3.7893331050872803 1.250666618347168, 3.322666645050049 1.9786665439605713, 2.5946664810180664 1.9786665439605713 C 1.9786665439605713 1.9786665439605713, 1.6053333282470703 1.5119999647140503, 1.6053333282470703 0.9893332719802856 C 1.6053333282470703 0.48533332347869873, 1.9786665439605713 0, 2.5946664810180664 0 C 2.818666458129883 0, 3.061333179473877 0.07466666400432587, 3.247999906539917 0.24266666173934937 C 3.303999900817871 0.2800000011920929, 3.3413331508636475 0.29866665601730347, 3.3413331508636475 0.29866665601730347 C 3.3413331508636475 0.29866665601730347, 3.378666639328003 0.2800000011920929, 3.378666639328003 0.018666666001081467 C 3.378666639328003 -1.3626666069030762, 2.7253332138061523 -2.482666492462158, 2.1093332767486572 -3.0986666679382324 C 1.903999924659729 -3.303999900817871, 1.903999924659729 -3.3413331508636475, 1.903999924659729 -3.3973331451416016 C 1.903999924659729 -3.5279998779296875, 1.997333288192749 -3.6026666164398193, 2.0906665325164795 -3.6026666164398193 C 2.2960000038146973 -3.6026666164398193, 3.7893331050872803 -2.1653332710266113, 3.7893331050872803 0.018666666001081467 Z " stroke="none" fill-rule="nonzero" fill="#000000" fill-opacity="1" transform="matrix(1,0,0,-1,150.51245307922363,32.573333740234375)" />
  <path d="M 7.821332931518555 0 L 7.821332931518555 0.578666627407074 L 7.223999977111816 0.578666627407074 C 5.543999671936035 0.578666627407074, 5.48799991607666 0.7839999794960022, 5.48799991607666 1.4746665954589844 L 5.48799991607666 11.946666717529297 C 5.48799991607666 12.39466667175293, 5.48799991607666 12.431999206542969, 5.058666706085205 12.431999206542969 C 3.9013330936431885 11.237333297729492, 2.258666515350342 11.237333297729492, 1.6613333225250244 11.237333297729492 L 1.6613333225250244 10.658666610717773 C 2.0346665382385254 10.658666610717773, 3.135999917984009 10.658666610717773, 4.106666564941406 11.144000053405762 L 4.106666564941406 1.4746665954589844 C 4.106666564941406 0.8026666641235352, 4.050666332244873 0.578666627407074, 2.37066650390625 0.578666627407074 L 1.7733333110809326 0.578666627407074 L 1.7733333110809326 0 C 2.426666498184204 0.0559999980032444, 4.050666332244873 0.0559999980032444, 4.797333240509033 0.0559999980032444 C 5.543999671936035 0.0559999980032444, 7.167999744415283 0.0559999980032444, 7.821332931518555 0 Z " stroke="none" fill-rule="nonzero" fill="#000000" fill-opacity="1" transform="matrix(1,0,0,-1,158.03511953353882,32.573333740234375)" />
</svg>