<?xml version="1.0" encoding="utf-8"?>
<svg xmlns:xlink="http://www.w3.org/1999/xlink" viewBox="0 0 107.95057678222656 57.83413314819336" version="1.1" style="font-synthesis: none;" xmlns="http://www.w3.org/2000/svg">
  <style></style>
  <defs />
  <style>	</style>
  <path d="M 0 0 L 107.95057678222656 0 L 107.95057678222656 57.83413314819336 L 0 57.83413314819336 Z " stroke="none" fill-rule="nonzero" fill="#FFFFFF" fill-opacity="0" transform="matrix(1,0,0,1,0,0)" />
  <path d="M 0 -45.83413314819336 L 107.95057678222656 -45.83413314819336 L 107.95057678222656 0 L 0 0 Z " stroke="none" fill-rule="evenodd" fill="#000000" fill-opacity="0" transform="matrix(1,0,0,-1,0,0)" />
  <path d="M 15.007999420166016 8.026666641235352 C 15.007999420166016 10.658666610717773, 13.421333312988281 12.749332427978516, 10.621333122253418 12.749332427978516 L 4.3493332862854 12.749332427978516 C 3.994666576385498 12.749332427978516, 3.7893331050872803 12.749332427978516, 3.7893331050872803 12.39466667175293 C 3.7893331050872803 12.170666694641113, 3.9573330879211426 12.170666694641113, 4.330666542053223 12.170666694641113 C 4.573333263397217 12.170666694641113, 4.909333229064941 12.151999473571777, 5.133333206176758 12.133333206176758 C 5.431999683380127 12.095999717712402, 5.543999671936035 12.039999961853027, 5.543999671936035 11.83466625213623 C 5.543999671936035 11.75999927520752, 5.525332927703857 11.703999519348145, 5.469333171844482 11.479999542236328 L 2.9679999351501465 1.4559999704360962 C 2.7813332080841064 0.7279999852180481, 2.74399995803833 0.578666627407074, 1.2693332433700562 0.578666627407074 C 0.9519999623298645 0.578666627407074, 0.746666669845581 0.578666627407074, 0.746666669845581 0.2239999920129776 C 0.746666669845581 0, 0.9146666526794434 0, 1.2693332433700562 0 L 7.447999954223633 0 C 11.330666542053223 0, 15.007999420166016 3.938666582107544, 15.007999420166016 8.026666641235352 Z M 13.383999824523926 8.71733283996582 C 13.383999824523926 7.802666187286377, 13.010665893554688 4.7413330078125, 11.423999786376953 2.687999963760376 C 10.88266658782959 1.997333288192749, 9.407999992370605 0.578666627407074, 7.11199951171875 0.578666627407074 L 5.002666473388672 0.578666627407074 C 4.7413330078125 0.578666627407074, 4.703999996185303 0.578666627407074, 4.5920000076293945 0.5973333120346069 C 4.405333042144775 0.6159999966621399, 4.3493332862854 0.6346666216850281, 4.3493332862854 0.7839999794960022 C 4.3493332862854 0.8399999737739563, 4.3493332862854 0.8773332834243774, 4.442666530609131 1.213333249092102 L 6.999999523162842 11.461333274841309 C 7.167999744415283 12.114665985107422, 7.205333232879639 12.170666694641113, 8.007999420166016 12.170666694641113 L 10.005332946777344 12.170666694641113 C 11.83466625213623 12.170666694641113, 13.383999824523926 11.1813325881958, 13.383999824523926 8.71733283996582 Z " stroke="none" fill-rule="nonzero" fill="#000000" fill-opacity="1" transform="matrix(1,0,0,-1,0,33.02880096435547)" />
  <path d="M 13.477333068847656 6.477333068847656 C 13.477333068847656 6.682666301727295, 13.309332847595215 6.850666522979736, 13.103999137878418 6.850666522979736 L 1.4186666011810303 6.850666522979736 C 1.213333249092102 6.850666522979736, 1.0453332662582397 6.682666301727295, 1.0453332662582397 6.477333068847656 C 1.0453332662582397 6.271999835968018, 1.213333249092102 6.103999614715576, 1.4186666011810303 6.103999614715576 L 13.103999137878418 6.103999614715576 C 13.309332847595215 6.103999614715576, 13.477333068847656 6.271999835968018, 13.477333068847656 6.477333068847656 Z M 13.477333068847656 2.8559999465942383 C 13.477333068847656 3.061333179473877, 13.309332847595215 3.2293331623077393, 13.103999137878418 3.2293331623077393 L 1.4186666011810303 3.2293331623077393 C 1.213333249092102 3.2293331623077393, 1.0453332662582397 3.061333179473877, 1.0453332662582397 2.8559999465942383 C 1.0453332662582397 2.6506664752960205, 1.213333249092102 2.482666492462158, 1.4186666011810303 2.482666492462158 L 13.103999137878418 2.482666492462158 C 13.309332847595215 2.482666492462158, 13.477333068847656 2.6506664752960205, 13.477333068847656 2.8559999465942383 Z " stroke="none" fill-rule="nonzero" fill="#000000" fill-opacity="1" transform="matrix(1,0,0,-1,19.34488868713379,33.02880096435547)" />
  <path d="M 11.511734008789062 8.780799865722656 C 11.511734008789062 8.780799865722656, 11.511734008789062 8.92453384399414, 11.341867446899414 8.92453384399414 C 10.910667419433594 8.92453384399414, 10.453333854675293 8.885334014892578, 10.022133827209473 8.885334014892578 C 9.577866554260254 8.885334014892578, 9.12053394317627 8.92453384399414, 8.68933391571045 8.92453384399414 C 8.610933303833008 8.92453384399414, 8.454133987426758 8.92453384399414, 8.454133987426758 8.663200378417969 C 8.454133987426758 8.5194673538208, 8.584800720214844 8.5194673538208, 8.68933391571045 8.5194673538208 C 9.434133529663086 8.506400108337402, 9.577866554260254 8.232000350952148, 9.577866554260254 7.944533824920654 C 9.577866554260254 7.905333518981934, 9.55173397064209 7.709333419799805, 9.538666725158691 7.670133590698242 L 8.075200080871582 1.8554667234420776 L 5.187466621398926 8.67626667022705 C 5.08293342590332 8.911466598510742, 5.06986665725708 8.92453384399414, 4.769333362579346 8.92453384399414 L 3.018400192260742 8.92453384399414 C 2.7570667266845703 8.92453384399414, 2.6394667625427246 8.92453384399414, 2.6394667625427246 8.663200378417969 C 2.6394667625427246 8.5194673538208, 2.7570667266845703 8.5194673538208, 3.005333423614502 8.5194673538208 C 3.070666790008545 8.5194673538208, 3.893866777420044 8.5194673538208, 3.893866777420044 8.401866912841797 L 2.1429333686828613 1.3850667476654053 C 2.0122666358947754 0.8624000549316406, 1.7901333570480347 0.444266676902771, 0.7317333817481995 0.40506666898727417 C 0.6533333659172058 0.40506666898727417, 0.509600043296814 0.3920000195503235, 0.509600043296814 0.14373333752155304 C 0.509600043296814 0.052266668528318405, 0.5749333500862122 0, 0.6794666647911072 0 C 1.097599983215332 0, 1.5549334287643433 0.03920000046491623, 1.9861334562301636 0.03920000046491623 C 2.4304001331329346 0.03920000046491623, 2.9007999897003174 0, 3.3320000171661377 0 C 3.3973333835601807 0, 3.567200183868408 0, 3.567200183868408 0.2613333463668823 C 3.567200183868408 0.3920000195503235, 3.4496002197265625 0.40506666898727417, 3.3058667182922363 0.40506666898727417 C 2.5480000972747803 0.4312000274658203, 2.4434666633605957 0.718666672706604, 2.4434666633605957 0.9800000190734863 C 2.4434666633605957 1.0714666843414307, 2.456533432006836 1.1368000507354736, 2.4957334995269775 1.2805334329605103 L 4.22053337097168 8.179733276367188 C 4.272799968719482 8.101333618164062, 4.272799968719482 8.075200080871582, 4.338133335113525 7.944533824920654 L 7.591733455657959 0.24826668202877045 C 7.683200359344482 0.026133334264159203, 7.722400188446045 0, 7.840000152587891 0 C 7.983733654022217 0, 7.983733654022217 0.03920000046491623, 8.049066543579102 0.274399995803833 L 9.878400802612305 7.5525336265563965 C 10.009066581726074 8.075200080871582, 10.244267463684082 8.480266571044922, 11.289600372314453 8.5194673538208 C 11.354933738708496 8.5194673538208, 11.511734008789062 8.532533645629883, 11.511734008789062 8.780799865722656 Z " stroke="none" fill-rule="nonzero" fill="#000000" fill-opacity="1" transform="matrix(1,0,0,-1,57.46844291687012,8.92453384399414)" />
  <path d="M 6.886133670806885 4.913066864013672 C 6.886133670806885 5.592533588409424, 6.115200042724609 5.7754669189453125, 5.670933723449707 5.7754669189453125 C 4.913066864013672 5.7754669189453125, 4.455733299255371 5.08293342590332, 4.298933506011963 4.782400131225586 C 3.972266912460327 5.644800186157227, 3.266666889190674 5.7754669189453125, 2.8877334594726562 5.7754669189453125 C 1.5288000106811523 5.7754669189453125, 0.784000039100647 4.089866638183594, 0.784000039100647 3.763200044631958 C 0.784000039100647 3.632533550262451, 0.9408000111579895 3.632533550262451, 0.9408000111579895 3.632533550262451 C 1.0453333854675293 3.632533550262451, 1.0845333337783813 3.6586668491363525, 1.1106667518615723 3.7762668132781982 C 1.5549334287643433 5.1613335609436035, 2.4173333644866943 5.488000392913818, 2.861600160598755 5.488000392913818 C 3.1098668575286865 5.488000392913818, 3.567200183868408 5.370400428771973, 3.567200183868408 4.6125335693359375 C 3.567200183868408 4.2074666023254395, 3.345066785812378 3.3320000171661377, 2.861600160598755 1.502666711807251 C 2.652533531188965 0.6925333738327026, 2.195199966430664 0.14373333752155304, 1.6202666759490967 0.14373333752155304 C 1.5418667793273926 0.14373333752155304, 1.2413333654403687 0.14373333752155304, 0.9669333696365356 0.31360000371932983 C 1.293600082397461 0.3789333403110504, 1.5810667276382446 0.6533333659172058, 1.5810667276382446 1.019200086593628 C 1.5810667276382446 1.3720000982284546, 1.293600082397461 1.4765334129333496, 1.097599983215332 1.4765334129333496 C 0.7056000232696533 1.4765334129333496, 0.3789333403110504 1.1368000507354736, 0.3789333403110504 0.718666672706604 C 0.3789333403110504 0.11760000139474869, 1.0322667360305786 -0.14373333752155304, 1.607200026512146 -0.14373333752155304 C 2.469600200653076 -0.14373333752155304, 2.940000057220459 0.7709333896636963, 2.9792001247406006 0.8493333458900452 C 3.136000156402588 0.36586669087409973, 3.6064000129699707 -0.14373333752155304, 4.390399932861328 -0.14373333752155304 C 5.73626708984375 -0.14373333752155304, 6.481066703796387 1.5418667793273926, 6.481066703796387 1.8685333728790283 C 6.481066703796387 1.9992001056671143, 6.363466739654541 1.9992001056671143, 6.3242669105529785 1.9992001056671143 C 6.206666946411133 1.9992001056671143, 6.180533409118652 1.946933388710022, 6.15440034866333 1.8554667234420776 C 5.72320032119751 0.45733335614204407, 4.834666728973389 0.14373333752155304, 4.416533470153809 0.14373333752155304 C 3.906933546066284 0.14373333752155304, 3.697866916656494 0.5618667006492615, 3.697866916656494 1.0061333179473877 C 3.697866916656494 1.293600082397461, 3.7762668132781982 1.5810667276382446, 3.9200000762939453 2.1560001373291016 L 4.364266872406006 3.9461333751678467 C 4.442667007446289 4.285866737365723, 4.743200302124023 5.488000392913818, 5.657866954803467 5.488000392913818 C 5.72320032119751 5.488000392913818, 6.036800384521484 5.488000392913818, 6.311200141906738 5.318133354187012 C 5.945333480834961 5.252799987792969, 5.684000015258789 4.926133632659912, 5.684000015258789 4.6125335693359375 C 5.684000015258789 4.403466701507568, 5.827733516693115 4.155200004577637, 6.180533409118652 4.155200004577637 C 6.468000411987305 4.155200004577637, 6.886133670806885 4.390399932861328, 6.886133670806885 4.913066864013672 Z " stroke="none" fill-rule="nonzero" fill="#000000" fill-opacity="1" transform="matrix(1,0,0,-1,57.46844291687012,25.461334228515625)" />
  <path d="M 9.434133529663086 4.534133434295654 C 9.434133529663086 4.6778669357299805, 9.316534042358398 4.795466899871826, 9.172800064086914 4.795466899871826 L 0.9930667281150818 4.795466899871826 C 0.8493333458900452 4.795466899871826, 0.7317333817481995 4.6778669357299805, 0.7317333817481995 4.534133434295654 C 0.7317333817481995 4.390399932861328, 0.8493333458900452 4.272799968719482, 0.9930667281150818 4.272799968719482 L 9.172800064086914 4.272799968719482 C 9.316534042358398 4.272799968719482, 9.434133529663086 4.390399932861328, 9.434133529663086 4.534133434295654 Z M 9.434133529663086 1.9992001056671143 C 9.434133529663086 2.1429333686828613, 9.316534042358398 2.260533332824707, 9.172800064086914 2.260533332824707 L 0.9930667281150818 2.260533332824707 C 0.8493333458900452 2.260533332824707, 0.7317333817481995 2.1429333686828613, 0.7317333817481995 1.9992001056671143 C 0.7317333817481995 1.8554667234420776, 0.8493333458900452 1.737866759300232, 0.9930667281150818 1.737866759300232 L 9.172800064086914 1.737866759300232 C 9.316534042358398 1.737866759300232, 9.434133529663086 1.8554667234420776, 9.434133529663086 1.9992001056671143 Z " stroke="none" fill-rule="nonzero" fill="#000000" fill-opacity="1" transform="matrix(1,0,0,-1,64.94257640838623,25.461334228515625)" />
  <path d="M 6.010666847229004 4.181333541870117 C 6.010666847229004 5.2266669273376465, 5.945333480834961 6.272000312805176, 5.488000392913818 7.238933563232422 C 4.886933326721191 8.49333381652832, 3.81546688079834 8.702400207519531, 3.266666889190674 8.702400207519531 C 2.4826667308807373 8.702400207519531, 1.5288000106811523 8.362667083740234, 0.9930667281150818 7.147467136383057 C 0.5749333500862122 6.245866775512695, 0.509600043296814 5.2266669273376465, 0.509600043296814 4.181333541870117 C 0.509600043296814 3.201333522796631, 0.5618667006492615 2.0253334045410156, 1.097599983215332 1.0322667360305786 C 1.6594667434692383 -0.026133334264159203, 2.6133334636688232 -0.2874666750431061, 3.2536001205444336 -0.2874666750431061 C 3.959200143814087 -0.2874666750431061, 4.952266693115234 -0.013066667132079601, 5.527200222015381 1.228266716003418 C 5.945333480834961 2.1298668384552, 6.010666847229004 3.149066686630249, 6.010666847229004 4.181333541870117 Z M 4.926133632659912 4.338133335113525 C 4.926133632659912 3.358133554458618, 4.926133632659912 2.469600200653076, 4.782400131225586 1.633333444595337 C 4.586400032043457 0.3920000195503235, 3.841600179672241 0, 3.2536001205444336 0 C 2.744000196456909 0, 1.9730666875839233 0.3266666829586029, 1.737866759300232 1.5810667276382446 C 1.5941333770751953 2.3650667667388916, 1.5941333770751953 3.567200183868408, 1.5941333770751953 4.338133335113525 C 1.5941333770751953 5.174400329589844, 1.5941333770751953 6.036800384521484, 1.6986666917800903 6.742400169372559 C 1.946933388710022 8.297333717346191, 2.926933526992798 8.414933204650879, 3.2536001205444336 8.414933204650879 C 3.684800148010254 8.414933204650879, 4.5472002029418945 8.179733276367188, 4.795466899871826 6.886133670806885 C 4.926133632659912 6.15440034866333, 4.926133632659912 5.1613335609436035, 4.926133632659912 4.338133335113525 Z " stroke="none" fill-rule="nonzero" fill="#000000" fill-opacity="1" transform="matrix(1,0,0,-1,75.10844326019287,25.461334228515625)" />
  <path d="M 18.647998809814453 -0.018666666001081467 L 18.181333541870117 -0.018666666001081467 C 17.71466636657715 -1.4186666011810303, 16.463998794555664 -2.55733323097229, 14.87733268737793 -3.0986666679382324 C 14.578665733337402 -3.191999912261963, 13.290666580200195 -3.6399998664855957, 10.546666145324707 -3.6399998664855957 L 2.613333225250244 -3.6399998664855957 L 9.090666770935059 4.368000030517578 C 9.221332550048828 4.535999774932861, 9.258666038513184 4.5920000076293945, 9.258666038513184 4.666666507720947 C 9.258666038513184 4.7413330078125, 9.239999771118164 4.759999752044678, 9.127999305725098 4.927999973297119 L 3.061333179473877 13.25333309173584 L 10.453332901000977 13.25333309173584 C 12.58133316040039 13.25333309173584, 16.874666213989258 13.122666358947754, 18.181333541870117 9.631999969482422 L 18.647998809814453 9.631999969482422 L 17.042665481567383 13.999999046325684 L 1.5679999589920044 13.999999046325684 C 1.0640000104904175 13.999999046325684, 1.0453332662582397 13.981332778930664, 1.0453332662582397 13.402666091918945 L 7.85866641998291 4.0320000648498535 L 1.2319999933242798 -4.162666320800781 C 1.0826666355133057 -4.3493332862854, 1.0640000104904175 -4.386666297912598, 1.0640000104904175 -4.461333274841309 C 1.0640000104904175 -4.666666507720947, 1.2319999933242798 -4.666666507720947, 1.5679999589920044 -4.666666507720947 L 17.042665481567383 -4.666666507720947 Z " stroke="none" fill-rule="nonzero" fill="#000000" fill-opacity="1" transform="matrix(1,0,0,-1,37.75644302368164,18.181334018707275)" />
  <path d="M 15.007999420166016 8.026666641235352 C 15.007999420166016 10.658666610717773, 13.421333312988281 12.749332427978516, 10.621333122253418 12.749332427978516 L 4.3493332862854 12.749332427978516 C 3.994666576385498 12.749332427978516, 3.7893331050872803 12.749332427978516, 3.7893331050872803 12.39466667175293 C 3.7893331050872803 12.170666694641113, 3.9573330879211426 12.170666694641113, 4.330666542053223 12.170666694641113 C 4.573333263397217 12.170666694641113, 4.909333229064941 12.151999473571777, 5.133333206176758 12.133333206176758 C 5.431999683380127 12.095999717712402, 5.543999671936035 12.039999961853027, 5.543999671936035 11.83466625213623 C 5.543999671936035 11.75999927520752, 5.525332927703857 11.703999519348145, 5.469333171844482 11.479999542236328 L 2.9679999351501465 1.4559999704360962 C 2.7813332080841064 0.7279999852180481, 2.74399995803833 0.578666627407074, 1.2693332433700562 0.578666627407074 C 0.9519999623298645 0.578666627407074, 0.746666669845581 0.578666627407074, 0.746666669845581 0.2239999920129776 C 0.746666669845581 0, 0.9146666526794434 0, 1.2693332433700562 0 L 7.447999954223633 0 C 11.330666542053223 0, 15.007999420166016 3.938666582107544, 15.007999420166016 8.026666641235352 Z M 13.383999824523926 8.71733283996582 C 13.383999824523926 7.802666187286377, 13.010665893554688 4.7413330078125, 11.423999786376953 2.687999963760376 C 10.88266658782959 1.997333288192749, 9.407999992370605 0.578666627407074, 7.11199951171875 0.578666627407074 L 5.002666473388672 0.578666627407074 C 4.7413330078125 0.578666627407074, 4.703999996185303 0.578666627407074, 4.5920000076293945 0.5973333120346069 C 4.405333042144775 0.6159999966621399, 4.3493332862854 0.6346666216850281, 4.3493332862854 0.7839999794960022 C 4.3493332862854 0.8399999737739563, 4.3493332862854 0.8773332834243774, 4.442666530609131 1.213333249092102 L 6.999999523162842 11.461333274841309 C 7.167999744415283 12.114665985107422, 7.205333232879639 12.170666694641113, 8.007999420166016 12.170666694641113 L 10.005332946777344 12.170666694641113 C 11.83466625213623 12.170666694641113, 13.383999824523926 11.1813325881958, 13.383999824523926 8.71733283996582 Z " stroke="none" fill-rule="nonzero" fill="#000000" fill-opacity="1" transform="matrix(1,0,0,-1,85.02044296264648,18.181333541870117)" />
  <path d="M 6.886133670806885 4.913066864013672 C 6.886133670806885 5.592533588409424, 6.115200042724609 5.7754669189453125, 5.670933723449707 5.7754669189453125 C 4.913066864013672 5.7754669189453125, 4.455733299255371 5.08293342590332, 4.298933506011963 4.782400131225586 C 3.972266912460327 5.644800186157227, 3.266666889190674 5.7754669189453125, 2.8877334594726562 5.7754669189453125 C 1.5288000106811523 5.7754669189453125, 0.784000039100647 4.089866638183594, 0.784000039100647 3.763200044631958 C 0.784000039100647 3.632533550262451, 0.9408000111579895 3.632533550262451, 0.9408000111579895 3.632533550262451 C 1.0453333854675293 3.632533550262451, 1.0845333337783813 3.6586668491363525, 1.1106667518615723 3.7762668132781982 C 1.5549334287643433 5.1613335609436035, 2.4173333644866943 5.488000392913818, 2.861600160598755 5.488000392913818 C 3.1098668575286865 5.488000392913818, 3.567200183868408 5.370400428771973, 3.567200183868408 4.6125335693359375 C 3.567200183868408 4.2074666023254395, 3.345066785812378 3.3320000171661377, 2.861600160598755 1.502666711807251 C 2.652533531188965 0.6925333738327026, 2.195199966430664 0.14373333752155304, 1.6202666759490967 0.14373333752155304 C 1.5418667793273926 0.14373333752155304, 1.2413333654403687 0.14373333752155304, 0.9669333696365356 0.31360000371932983 C 1.293600082397461 0.3789333403110504, 1.5810667276382446 0.6533333659172058, 1.5810667276382446 1.019200086593628 C 1.5810667276382446 1.3720000982284546, 1.293600082397461 1.4765334129333496, 1.097599983215332 1.4765334129333496 C 0.7056000232696533 1.4765334129333496, 0.3789333403110504 1.1368000507354736, 0.3789333403110504 0.718666672706604 C 0.3789333403110504 0.11760000139474869, 1.0322667360305786 -0.14373333752155304, 1.607200026512146 -0.14373333752155304 C 2.469600200653076 -0.14373333752155304, 2.940000057220459 0.7709333896636963, 2.9792001247406006 0.8493333458900452 C 3.136000156402588 0.36586669087409973, 3.6064000129699707 -0.14373333752155304, 4.390399932861328 -0.14373333752155304 C 5.73626708984375 -0.14373333752155304, 6.481066703796387 1.5418667793273926, 6.481066703796387 1.8685333728790283 C 6.481066703796387 1.9992001056671143, 6.363466739654541 1.9992001056671143, 6.3242669105529785 1.9992001056671143 C 6.206666946411133 1.9992001056671143, 6.180533409118652 1.946933388710022, 6.15440034866333 1.8554667234420776 C 5.72320032119751 0.45733335614204407, 4.834666728973389 0.14373333752155304, 4.416533470153809 0.14373333752155304 C 3.906933546066284 0.14373333752155304, 3.697866916656494 0.5618667006492615, 3.697866916656494 1.0061333179473877 C 3.697866916656494 1.293600082397461, 3.7762668132781982 1.5810667276382446, 3.9200000762939453 2.1560001373291016 L 4.364266872406006 3.9461333751678467 C 4.442667007446289 4.285866737365723, 4.743200302124023 5.488000392913818, 5.657866954803467 5.488000392913818 C 5.72320032119751 5.488000392913818, 6.036800384521484 5.488000392913818, 6.311200141906738 5.318133354187012 C 5.945333480834961 5.252799987792969, 5.684000015258789 4.926133632659912, 5.684000015258789 4.6125335693359375 C 5.684000015258789 4.403466701507568, 5.827733516693115 4.155200004577637, 6.180533409118652 4.155200004577637 C 6.468000411987305 4.155200004577637, 6.886133670806885 4.390399932861328, 6.886133670806885 4.913066864013672 Z " stroke="none" fill-rule="nonzero" fill="#000000" fill-opacity="1" transform="matrix(1,0,0,-1,100.47644424438477,22.79199981689453)" />
  <path d="M 16.44533348083496 12.543999671936035 C 16.44533348083496 12.543999671936035, 16.44533348083496 12.749332427978516, 16.202665328979492 12.749332427978516 C 15.586666107177734 12.749332427978516, 14.933332443237305 12.69333267211914, 14.317333221435547 12.69333267211914 C 13.682665824890137 12.69333267211914, 13.029333114624023 12.749332427978516, 12.41333293914795 12.749332427978516 C 12.301332473754883 12.749332427978516, 12.077332496643066 12.749332427978516, 12.077332496643066 12.375999450683594 C 12.077332496643066 12.170666694641113, 12.263999938964844 12.170666694641113, 12.41333293914795 12.170666694641113 C 13.477333068847656 12.151999473571777, 13.682665824890137 11.75999927520752, 13.682665824890137 11.349332809448242 C 13.682665824890137 11.293333053588867, 13.645333290100098 11.013333320617676, 13.626666069030762 10.957332611083984 L 11.535999298095703 2.6506664752960205 L 7.410666465759277 12.39466667175293 C 7.261332988739014 12.730666160583496, 7.242666244506836 12.749332427978516, 6.813333034515381 12.749332427978516 L 4.311999797821045 12.749332427978516 C 3.938666582107544 12.749332427978516, 3.7706665992736816 12.749332427978516, 3.7706665992736816 12.375999450683594 C 3.7706665992736816 12.170666694641113, 3.938666582107544 12.170666694641113, 4.293333053588867 12.170666694641113 C 4.386666297912598 12.170666694641113, 5.562666416168213 12.170666694641113, 5.562666416168213 12.002666473388672 L 3.061333179473877 1.9786665439605713 C 2.874666452407837 1.2319999933242798, 2.55733323097229 0.6346666216850281, 1.0453332662582397 0.578666627407074 C 0.9333332777023315 0.578666627407074, 0.7279999852180481 0.5600000023841858, 0.7279999852180481 0.20533332228660583 C 0.7279999852180481 0.07466666400432587, 0.8213332891464233 0, 0.9706666469573975 0 C 1.5679999589920044 0, 2.2213332653045654 0.0559999980032444, 2.8373332023620605 0.0559999980032444 C 3.4719998836517334 0.0559999980032444, 4.144000053405762 0, 4.759999752044678 0 C 4.853332996368408 0, 5.095999717712402 0, 5.095999717712402 0.3733333349227905 C 5.095999717712402 0.5600000023841858, 4.927999973297119 0.578666627407074, 4.722666263580322 0.578666627407074 C 3.6399998664855957 0.6159999966621399, 3.490666627883911 1.0266666412353516, 3.490666627883911 1.399999976158142 C 3.490666627883911 1.5306665897369385, 3.5093331336975098 1.6239999532699585, 3.565333127975464 1.8293333053588867 L 6.029333114624023 11.685333251953125 C 6.103999614715576 11.573332786560059, 6.103999614715576 11.535999298095703, 6.197333335876465 11.349332809448242 L 10.845333099365234 0.35466665029525757 C 10.97599983215332 0.03733333200216293, 11.031999588012695 0, 11.199999809265137 0 C 11.405332565307617 0, 11.405332565307617 0.0559999980032444, 11.498665809631348 0.3919999897480011 L 14.11199951171875 10.78933334350586 C 14.298666000366211 11.535999298095703, 14.634666442871094 12.114665985107422, 16.128000259399414 12.170666694641113 C 16.221332550048828 12.170666694641113, 16.44533348083496 12.189332962036133, 16.44533348083496 12.543999671936035 Z " stroke="none" fill-rule="nonzero" fill="#000000" fill-opacity="1" transform="matrix(1,0,0,-1,65.35884094238281,45.834134101867676)" />
  <path d="M 37.75644302368164 4.666666507720947 L 107.95057678222656 4.666666507720947 " stroke="#000000" stroke-opacity="1" stroke-width="0.746666669845581" stroke-linecap="butt" stroke-linejoin="miter" fill="none" transform="matrix(1,0,0,-1,0,33.02880096435547)" />
</svg>