<?xml version="1.0" encoding="utf-8"?>
<svg xmlns:xlink="http://www.w3.org/1999/xlink" viewBox="0 0 228.84896850585938 66.66346740722656" version="1.1" style="font-synthesis: none;" xmlns="http://www.w3.org/2000/svg">
  <style></style>
  <defs />
  <style>	</style>
  <path d="M 0 0 L 228.84896850585938 0 L 228.84896850585938 66.66346740722656 L 0 66.66346740722656 Z " stroke="none" fill-rule="nonzero" fill="#FFFFFF" fill-opacity="0" transform="matrix(1,0,0,1,0,0)" />
  <path d="M 0 -54.6634635925293 L 228.84896850585938 -54.6634635925293 L 228.84896850585938 0 L 0 0 Z " stroke="none" fill-rule="evenodd" fill="#000000" fill-opacity="0" transform="matrix(1,0,0,-1,0,0)" />
  <path d="M 15.007999420166016 8.026666641235352 C 15.007999420166016 10.658666610717773, 13.421333312988281 12.749332427978516, 10.621333122253418 12.749332427978516 L 4.3493332862854 12.749332427978516 C 3.994666576385498 12.749332427978516, 3.7893331050872803 12.749332427978516, 3.7893331050872803 12.39466667175293 C 3.7893331050872803 12.170666694641113, 3.9573330879211426 12.170666694641113, 4.330666542053223 12.170666694641113 C 4.573333263397217 12.170666694641113, 4.909333229064941 12.151999473571777, 5.133333206176758 12.133333206176758 C 5.431999683380127 12.095999717712402, 5.543999671936035 12.039999961853027, 5.543999671936035 11.83466625213623 C 5.543999671936035 11.75999927520752, 5.525332927703857 11.703999519348145, 5.469333171844482 11.479999542236328 L 2.9679999351501465 1.4559999704360962 C 2.7813332080841064 0.7279999852180481, 2.74399995803833 0.578666627407074, 1.2693332433700562 0.578666627407074 C 0.9519999623298645 0.578666627407074, 0.746666669845581 0.578666627407074, 0.746666669845581 0.2239999920129776 C 0.746666669845581 0, 0.9146666526794434 0, 1.2693332433700562 0 L 7.447999954223633 0 C 11.330666542053223 0, 15.007999420166016 3.938666582107544, 15.007999420166016 8.026666641235352 Z M 13.383999824523926 8.71733283996582 C 13.383999824523926 7.802666187286377, 13.010665893554688 4.7413330078125, 11.423999786376953 2.687999963760376 C 10.88266658782959 1.997333288192749, 9.407999992370605 0.578666627407074, 7.11199951171875 0.578666627407074 L 5.002666473388672 0.578666627407074 C 4.7413330078125 0.578666627407074, 4.703999996185303 0.578666627407074, 4.5920000076293945 0.5973333120346069 C 4.405333042144775 0.6159999966621399, 4.3493332862854 0.6346666216850281, 4.3493332862854 0.7839999794960022 C 4.3493332862854 0.8399999737739563, 4.3493332862854 0.8773332834243774, 4.442666530609131 1.213333249092102 L 6.999999523162842 11.461333274841309 C 7.167999744415283 12.114665985107422, 7.205333232879639 12.170666694641113, 8.007999420166016 12.170666694641113 L 10.005332946777344 12.170666694641113 C 11.83466625213623 12.170666694641113, 13.383999824523926 11.1813325881958, 13.383999824523926 8.71733283996582 Z " stroke="none" fill-rule="nonzero" fill="#000000" fill-opacity="1" transform="matrix(1,0,0,-1,0,41.858131408691406)" />
  <path d="M 13.477333068847656 6.477333068847656 C 13.477333068847656 6.682666301727295, 13.309332847595215 6.850666522979736, 13.103999137878418 6.850666522979736 L 1.4186666011810303 6.850666522979736 C 1.213333249092102 6.850666522979736, 1.0453332662582397 6.682666301727295, 1.0453332662582397 6.477333068847656 C 1.0453332662582397 6.271999835968018, 1.213333249092102 6.103999614715576, 1.4186666011810303 6.103999614715576 L 13.103999137878418 6.103999614715576 C 13.309332847595215 6.103999614715576, 13.477333068847656 6.271999835968018, 13.477333068847656 6.477333068847656 Z M 13.477333068847656 2.8559999465942383 C 13.477333068847656 3.061333179473877, 13.309332847595215 3.2293331623077393, 13.103999137878418 3.2293331623077393 L 1.4186666011810303 3.2293331623077393 C 1.213333249092102 3.2293331623077393, 1.0453332662582397 3.061333179473877, 1.0453332662582397 2.8559999465942383 C 1.0453332662582397 2.6506664752960205, 1.213333249092102 2.482666492462158, 1.4186666011810303 2.482666492462158 L 13.103999137878418 2.482666492462158 C 13.309332847595215 2.482666492462158, 13.477333068847656 2.6506664752960205, 13.477333068847656 2.8559999465942383 Z " stroke="none" fill-rule="nonzero" fill="#000000" fill-opacity="1" transform="matrix(1,0,0,-1,19.34488868713379,41.858131408691406)" />
  <path d="M 11.511734008789062 8.780799865722656 C 11.511734008789062 8.780799865722656, 11.511734008789062 8.92453384399414, 11.341867446899414 8.92453384399414 C 10.910667419433594 8.92453384399414, 10.453333854675293 8.885334014892578, 10.022133827209473 8.885334014892578 C 9.577866554260254 8.885334014892578, 9.12053394317627 8.92453384399414, 8.68933391571045 8.92453384399414 C 8.610933303833008 8.92453384399414, 8.454133987426758 8.92453384399414, 8.454133987426758 8.663200378417969 C 8.454133987426758 8.5194673538208, 8.584800720214844 8.5194673538208, 8.68933391571045 8.5194673538208 C 9.434133529663086 8.506400108337402, 9.577866554260254 8.232000350952148, 9.577866554260254 7.944533824920654 C 9.577866554260254 7.905333518981934, 9.55173397064209 7.709333419799805, 9.538666725158691 7.670133590698242 L 8.075200080871582 1.8554667234420776 L 5.187466621398926 8.67626667022705 C 5.08293342590332 8.911466598510742, 5.06986665725708 8.92453384399414, 4.769333362579346 8.92453384399414 L 3.018400192260742 8.92453384399414 C 2.7570667266845703 8.92453384399414, 2.6394667625427246 8.92453384399414, 2.6394667625427246 8.663200378417969 C 2.6394667625427246 8.5194673538208, 2.7570667266845703 8.5194673538208, 3.005333423614502 8.5194673538208 C 3.070666790008545 8.5194673538208, 3.893866777420044 8.5194673538208, 3.893866777420044 8.401866912841797 L 2.1429333686828613 1.3850667476654053 C 2.0122666358947754 0.8624000549316406, 1.7901333570480347 0.444266676902771, 0.7317333817481995 0.40506666898727417 C 0.6533333659172058 0.40506666898727417, 0.509600043296814 0.3920000195503235, 0.509600043296814 0.14373333752155304 C 0.509600043296814 0.052266668528318405, 0.5749333500862122 0, 0.6794666647911072 0 C 1.097599983215332 0, 1.5549334287643433 0.03920000046491623, 1.9861334562301636 0.03920000046491623 C 2.4304001331329346 0.03920000046491623, 2.9007999897003174 0, 3.3320000171661377 0 C 3.3973333835601807 0, 3.567200183868408 0, 3.567200183868408 0.2613333463668823 C 3.567200183868408 0.3920000195503235, 3.4496002197265625 0.40506666898727417, 3.3058667182922363 0.40506666898727417 C 2.5480000972747803 0.4312000274658203, 2.4434666633605957 0.718666672706604, 2.4434666633605957 0.9800000190734863 C 2.4434666633605957 1.0714666843414307, 2.456533432006836 1.1368000507354736, 2.4957334995269775 1.2805334329605103 L 4.22053337097168 8.179733276367188 C 4.272799968719482 8.101333618164062, 4.272799968719482 8.075200080871582, 4.338133335113525 7.944533824920654 L 7.591733455657959 0.24826668202877045 C 7.683200359344482 0.026133334264159203, 7.722400188446045 0, 7.840000152587891 0 C 7.983733654022217 0, 7.983733654022217 0.03920000046491623, 8.049066543579102 0.274399995803833 L 9.878400802612305 7.5525336265563965 C 10.009066581726074 8.075200080871582, 10.244267463684082 8.480266571044922, 11.289600372314453 8.5194673538208 C 11.354933738708496 8.5194673538208, 11.511734008789062 8.532533645629883, 11.511734008789062 8.780799865722656 Z " stroke="none" fill-rule="nonzero" fill="#000000" fill-opacity="1" transform="matrix(1,0,0,-1,57.46844291687012,12.135198593139648)" />
  <path d="M 6.886133670806885 4.913066864013672 C 6.886133670806885 5.592533588409424, 6.115200042724609 5.7754669189453125, 5.670933723449707 5.7754669189453125 C 4.913066864013672 5.7754669189453125, 4.455733299255371 5.08293342590332, 4.298933506011963 4.782400131225586 C 3.972266912460327 5.644800186157227, 3.266666889190674 5.7754669189453125, 2.8877334594726562 5.7754669189453125 C 1.5288000106811523 5.7754669189453125, 0.784000039100647 4.089866638183594, 0.784000039100647 3.763200044631958 C 0.784000039100647 3.632533550262451, 0.9408000111579895 3.632533550262451, 0.9408000111579895 3.632533550262451 C 1.0453333854675293 3.632533550262451, 1.0845333337783813 3.6586668491363525, 1.1106667518615723 3.7762668132781982 C 1.5549334287643433 5.1613335609436035, 2.4173333644866943 5.488000392913818, 2.861600160598755 5.488000392913818 C 3.1098668575286865 5.488000392913818, 3.567200183868408 5.370400428771973, 3.567200183868408 4.6125335693359375 C 3.567200183868408 4.2074666023254395, 3.345066785812378 3.3320000171661377, 2.861600160598755 1.502666711807251 C 2.652533531188965 0.6925333738327026, 2.195199966430664 0.14373333752155304, 1.6202666759490967 0.14373333752155304 C 1.5418667793273926 0.14373333752155304, 1.2413333654403687 0.14373333752155304, 0.9669333696365356 0.31360000371932983 C 1.293600082397461 0.3789333403110504, 1.5810667276382446 0.6533333659172058, 1.5810667276382446 1.019200086593628 C 1.5810667276382446 1.3720000982284546, 1.293600082397461 1.4765334129333496, 1.097599983215332 1.4765334129333496 C 0.7056000232696533 1.4765334129333496, 0.3789333403110504 1.1368000507354736, 0.3789333403110504 0.718666672706604 C 0.3789333403110504 0.11760000139474869, 1.0322667360305786 -0.14373333752155304, 1.607200026512146 -0.14373333752155304 C 2.469600200653076 -0.14373333752155304, 2.940000057220459 0.7709333896636963, 2.9792001247406006 0.8493333458900452 C 3.136000156402588 0.36586669087409973, 3.6064000129699707 -0.14373333752155304, 4.390399932861328 -0.14373333752155304 C 5.73626708984375 -0.14373333752155304, 6.481066703796387 1.5418667793273926, 6.481066703796387 1.8685333728790283 C 6.481066703796387 1.9992001056671143, 6.363466739654541 1.9992001056671143, 6.3242669105529785 1.9992001056671143 C 6.206666946411133 1.9992001056671143, 6.180533409118652 1.946933388710022, 6.15440034866333 1.8554667234420776 C 5.72320032119751 0.45733335614204407, 4.834666728973389 0.14373333752155304, 4.416533470153809 0.14373333752155304 C 3.906933546066284 0.14373333752155304, 3.697866916656494 0.5618667006492615, 3.697866916656494 1.0061333179473877 C 3.697866916656494 1.293600082397461, 3.7762668132781982 1.5810667276382446, 3.9200000762939453 2.1560001373291016 L 4.364266872406006 3.9461333751678467 C 4.442667007446289 4.285866737365723, 4.743200302124023 5.488000392913818, 5.657866954803467 5.488000392913818 C 5.72320032119751 5.488000392913818, 6.036800384521484 5.488000392913818, 6.311200141906738 5.318133354187012 C 5.945333480834961 5.252799987792969, 5.684000015258789 4.926133632659912, 5.684000015258789 4.6125335693359375 C 5.684000015258789 4.403466701507568, 5.827733516693115 4.155200004577637, 6.180533409118652 4.155200004577637 C 6.468000411987305 4.155200004577637, 6.886133670806885 4.390399932861328, 6.886133670806885 4.913066864013672 Z " stroke="none" fill-rule="nonzero" fill="#000000" fill-opacity="1" transform="matrix(1,0,0,-1,57.46844291687012,28.671998977661133)" />
  <path d="M 9.434133529663086 4.534133434295654 C 9.434133529663086 4.6778669357299805, 9.316534042358398 4.795466899871826, 9.172800064086914 4.795466899871826 L 0.9930667281150818 4.795466899871826 C 0.8493333458900452 4.795466899871826, 0.7317333817481995 4.6778669357299805, 0.7317333817481995 4.534133434295654 C 0.7317333817481995 4.390399932861328, 0.8493333458900452 4.272799968719482, 0.9930667281150818 4.272799968719482 L 9.172800064086914 4.272799968719482 C 9.316534042358398 4.272799968719482, 9.434133529663086 4.390399932861328, 9.434133529663086 4.534133434295654 Z M 9.434133529663086 1.9992001056671143 C 9.434133529663086 2.1429333686828613, 9.316534042358398 2.260533332824707, 9.172800064086914 2.260533332824707 L 0.9930667281150818 2.260533332824707 C 0.8493333458900452 2.260533332824707, 0.7317333817481995 2.1429333686828613, 0.7317333817481995 1.9992001056671143 C 0.7317333817481995 1.8554667234420776, 0.8493333458900452 1.737866759300232, 0.9930667281150818 1.737866759300232 L 9.172800064086914 1.737866759300232 C 9.316534042358398 1.737866759300232, 9.434133529663086 1.8554667234420776, 9.434133529663086 1.9992001056671143 Z " stroke="none" fill-rule="nonzero" fill="#000000" fill-opacity="1" transform="matrix(1,0,0,-1,64.94257640838623,28.671998977661133)" />
  <path d="M 6.010666847229004 4.181333541870117 C 6.010666847229004 5.2266669273376465, 5.945333480834961 6.272000312805176, 5.488000392913818 7.238933563232422 C 4.886933326721191 8.49333381652832, 3.81546688079834 8.702400207519531, 3.266666889190674 8.702400207519531 C 2.4826667308807373 8.702400207519531, 1.5288000106811523 8.362667083740234, 0.9930667281150818 7.147467136383057 C 0.5749333500862122 6.245866775512695, 0.509600043296814 5.2266669273376465, 0.509600043296814 4.181333541870117 C 0.509600043296814 3.201333522796631, 0.5618667006492615 2.0253334045410156, 1.097599983215332 1.0322667360305786 C 1.6594667434692383 -0.026133334264159203, 2.6133334636688232 -0.2874666750431061, 3.2536001205444336 -0.2874666750431061 C 3.959200143814087 -0.2874666750431061, 4.952266693115234 -0.013066667132079601, 5.527200222015381 1.228266716003418 C 5.945333480834961 2.1298668384552, 6.010666847229004 3.149066686630249, 6.010666847229004 4.181333541870117 Z M 4.926133632659912 4.338133335113525 C 4.926133632659912 3.358133554458618, 4.926133632659912 2.469600200653076, 4.782400131225586 1.633333444595337 C 4.586400032043457 0.3920000195503235, 3.841600179672241 0, 3.2536001205444336 0 C 2.744000196456909 0, 1.9730666875839233 0.3266666829586029, 1.737866759300232 1.5810667276382446 C 1.5941333770751953 2.3650667667388916, 1.5941333770751953 3.567200183868408, 1.5941333770751953 4.338133335113525 C 1.5941333770751953 5.174400329589844, 1.5941333770751953 6.036800384521484, 1.6986666917800903 6.742400169372559 C 1.946933388710022 8.297333717346191, 2.926933526992798 8.414933204650879, 3.2536001205444336 8.414933204650879 C 3.684800148010254 8.414933204650879, 4.5472002029418945 8.179733276367188, 4.795466899871826 6.886133670806885 C 4.926133632659912 6.15440034866333, 4.926133632659912 5.1613335609436035, 4.926133632659912 4.338133335113525 Z " stroke="none" fill-rule="nonzero" fill="#000000" fill-opacity="1" transform="matrix(1,0,0,-1,75.10844326019287,28.671998977661133)" />
  <path d="M 18.647998809814453 -0.018666666001081467 L 18.181333541870117 -0.018666666001081467 C 17.71466636657715 -1.4186666011810303, 16.463998794555664 -2.55733323097229, 14.87733268737793 -3.0986666679382324 C 14.578665733337402 -3.191999912261963, 13.290666580200195 -3.6399998664855957, 10.546666145324707 -3.6399998664855957 L 2.613333225250244 -3.6399998664855957 L 9.090666770935059 4.368000030517578 C 9.221332550048828 4.535999774932861, 9.258666038513184 4.5920000076293945, 9.258666038513184 4.666666507720947 C 9.258666038513184 4.7413330078125, 9.239999771118164 4.759999752044678, 9.127999305725098 4.927999973297119 L 3.061333179473877 13.25333309173584 L 10.453332901000977 13.25333309173584 C 12.58133316040039 13.25333309173584, 16.874666213989258 13.122666358947754, 18.181333541870117 9.631999969482422 L 18.647998809814453 9.631999969482422 L 17.042665481567383 13.999999046325684 L 1.5679999589920044 13.999999046325684 C 1.0640000104904175 13.999999046325684, 1.0453332662582397 13.981332778930664, 1.0453332662582397 13.402666091918945 L 7.85866641998291 4.0320000648498535 L 1.2319999933242798 -4.162666320800781 C 1.0826666355133057 -4.3493332862854, 1.0640000104904175 -4.386666297912598, 1.0640000104904175 -4.461333274841309 C 1.0640000104904175 -4.666666507720947, 1.2319999933242798 -4.666666507720947, 1.5679999589920044 -4.666666507720947 L 17.042665481567383 -4.666666507720947 Z " stroke="none" fill-rule="nonzero" fill="#000000" fill-opacity="1" transform="matrix(1,0,0,-1,37.75644302368164,21.391998767852783)" />
  <path d="M 10.061332702636719 -11.797332763671875 C 10.061332702636719 -11.703999519348145, 10.023999214172363 -11.629332542419434, 9.967999458312988 -11.573332786560059 C 6.850666522979736 -9.239999771118164, 4.685333251953125 -2.874666452407837, 4.685333251953125 2.4639999866485596 L 4.685333251953125 6.869333267211914 C 4.685333251953125 12.207999229431152, 6.850666522979736 18.573331832885742, 9.967999458312988 20.906665802001953 C 10.023999214172363 20.962665557861328, 10.061332702636719 21.03733253479004, 10.061332702636719 21.130666732788086 C 10.061332702636719 21.279998779296875, 9.949333190917969 21.391998291015625, 9.799999237060547 21.391998291015625 C 9.743999481201172 21.391998291015625, 9.687999725341797 21.373332977294922, 9.631999969482422 21.354665756225586 C 6.365333080291748 18.89066505432129, 3.3413331508636475 12.48799991607666, 3.3413331508636475 6.869333267211914 L 3.3413331508636475 2.4639999866485596 C 3.3413331508636475 -3.1546666622161865, 6.365333080291748 -9.557332992553711, 9.631999969482422 -12.021332740783691 C 9.687999725341797 -12.039999961853027, 9.743999481201172 -12.058666229248047, 9.799999237060547 -12.058666229248047 C 9.949333190917969 -12.058666229248047, 10.061332702636719 -11.946666717529297, 10.061332702636719 -11.797332763671875 Z " stroke="none" fill-rule="nonzero" fill="#000000" fill-opacity="1" transform="matrix(1,0,0,-1,85.02044296264648,21.391997814178467)" />
  <path d="M 7.802666187286377 2.4639999866485596 L 7.802666187286377 6.869333267211914 C 7.802666187286377 12.48799991607666, 4.7786664962768555 18.89066505432129, 1.5119999647140503 21.354665756225586 C 1.4559999704360962 21.373332977294922, 1.399999976158142 21.391998291015625, 1.343999981880188 21.391998291015625 C 1.1946666240692139 21.391998291015625, 1.0826666355133057 21.279998779296875, 1.0826666355133057 21.130666732788086 C 1.0826666355133057 21.03733253479004, 1.1200000047683716 20.962665557861328, 1.1759999990463257 20.906665802001953 C 4.293333053588867 18.573331832885742, 6.4586663246154785 12.207999229431152, 6.4586663246154785 6.869333267211914 L 6.4586663246154785 2.4639999866485596 C 6.4586663246154785 -2.874666452407837, 4.293333053588867 -9.239999771118164, 1.1759999990463257 -11.573332786560059 C 1.1200000047683716 -11.629332542419434, 1.0826666355133057 -11.703999519348145, 1.0826666355133057 -11.797332763671875 C 1.0826666355133057 -11.946666717529297, 1.1946666240692139 -12.058666229248047, 1.343999981880188 -12.058666229248047 C 1.399999976158142 -12.058666229248047, 1.4559999704360962 -12.039999961853027, 1.5119999647140503 -12.021332740783691 C 4.7786664962768555 -9.557332992553711, 7.802666187286377 -3.1546666622161865, 7.802666187286377 2.4639999866485596 Z " stroke="none" fill-rule="nonzero" fill="#000000" fill-opacity="1" transform="matrix(1,0,0,-1,217.70497512817383,21.391997814178467)" />
  <path d="M 6.402667045593262 3.684800148010254 C 6.402667045593262 4.913066864013672, 5.657866954803467 5.7754669189453125, 4.66480016708374 5.7754669189453125 C 4.011466979980469 5.7754669189453125, 3.3842668533325195 5.30506706237793, 2.953066825866699 4.795466899871826 C 2.8224000930786133 5.5010666847229, 2.260533332824707 5.7754669189453125, 1.777066707611084 5.7754669189453125 C 1.1759999990463257 5.7754669189453125, 0.9277333617210388 5.265866756439209, 0.8101333379745483 5.030666828155518 C 0.5749333500862122 4.586400032043457, 0.40506666898727417 3.8024001121520996, 0.40506666898727417 3.763200044631958 C 0.40506666898727417 3.632533550262451, 0.5618667006492615 3.632533550262451, 0.5618667006492615 3.632533550262451 C 0.6925333738327026 3.632533550262451, 0.7056000232696533 3.6456000804901123, 0.784000039100647 3.9330668449401855 C 1.0061333179473877 4.860800266265869, 1.26746666431427 5.488000392913818, 1.737866759300232 5.488000392913818 C 1.9600000381469727 5.488000392913818, 2.1429333686828613 5.383466720581055, 2.1429333686828613 4.886933326721191 C 2.1429333686828613 4.586400032043457, 2.1037333011627197 4.442667007446289, 2.051466703414917 4.22053337097168 L 0.5879999995231628 -1.5941333770751953 C 0.4834666848182678 -2.038400173187256, 0.45733335614204407 -2.1298668384552, -0.11760000139474869 -2.1298668384552 C -0.274399995803833 -2.1298668384552, -0.41813334822654724 -2.1298668384552, -0.41813334822654724 -2.378133535385132 C -0.41813334822654724 -2.4826667308807373, -0.35280001163482666 -2.53493332862854, -0.24826668202877045 -2.53493332862854 C 0.10453333705663681 -2.53493332862854, 0.4834666848182678 -2.4957334995269775, 0.8493333458900452 -2.4957334995269775 C 1.2805334329605103 -2.4957334995269775, 1.7248001098632812 -2.53493332862854, 2.1429333686828613 -2.53493332862854 C 2.2082667350769043 -2.53493332862854, 2.378133535385132 -2.53493332862854, 2.378133535385132 -2.2736001014709473 C 2.378133535385132 -2.1298668384552, 2.247466802597046 -2.1298668384552, 2.0645334720611572 -2.1298668384552 C 1.4112000465393066 -2.1298668384552, 1.4112000465393066 -2.038400173187256, 1.4112000465393066 -1.9208000898361206 C 1.4112000465393066 -1.7640000581741333, 1.9600000381469727 0.36586669087409973, 2.051466703414917 0.6925333738327026 C 2.2213335037231445 0.31360000371932983, 2.587200164794922 -0.14373333752155304, 3.2536001205444336 -0.14373333752155304 C 4.769333362579346 -0.14373333752155304, 6.402667045593262 1.7640000581741333, 6.402667045593262 3.684800148010254 Z M 5.461866855621338 4.2597336769104 C 5.461866855621338 3.488800048828125, 5.030666828155518 1.9861334562301636, 4.795466899871826 1.4896000623703003 C 4.351200103759766 0.5749333500862122, 3.7240002155303955 0.14373333752155304, 3.2405333518981934 0.14373333752155304 C 2.378133535385132 0.14373333752155304, 2.2082667350769043 1.228266716003418, 2.2082667350769043 1.3066667318344116 C 2.2082667350769043 1.3066667318344116, 2.2082667350769043 1.3589333295822144, 2.247466802597046 1.5157333612442017 L 2.8877334594726562 4.076800346374512 C 2.9792001247406006 4.429600238800049, 3.3320000171661377 4.795466899871826, 3.567200183868408 4.991466999053955 C 4.024533271789551 5.396533489227295, 4.403466701507568 5.488000392913818, 4.625600337982178 5.488000392913818 C 5.148266792297363 5.488000392913818, 5.461866855621338 5.030666828155518, 5.461866855621338 4.2597336769104 Z " stroke="none" fill-rule="nonzero" fill="#000000" fill-opacity="1" transform="matrix(1,0,0,-1,115.87644386291504,28.671998977661133)" />
  <path d="M 18.647998809814453 -0.018666666001081467 L 18.181333541870117 -0.018666666001081467 C 17.71466636657715 -1.4186666011810303, 16.463998794555664 -2.55733323097229, 14.87733268737793 -3.0986666679382324 C 14.578665733337402 -3.191999912261963, 13.290666580200195 -3.6399998664855957, 10.546666145324707 -3.6399998664855957 L 2.613333225250244 -3.6399998664855957 L 9.090666770935059 4.368000030517578 C 9.221332550048828 4.535999774932861, 9.258666038513184 4.5920000076293945, 9.258666038513184 4.666666507720947 C 9.258666038513184 4.7413330078125, 9.239999771118164 4.759999752044678, 9.127999305725098 4.927999973297119 L 3.061333179473877 13.25333309173584 L 10.453332901000977 13.25333309173584 C 12.58133316040039 13.25333309173584, 16.874666213989258 13.122666358947754, 18.181333541870117 9.631999969482422 L 18.647998809814453 9.631999969482422 L 17.042665481567383 13.999999046325684 L 1.5679999589920044 13.999999046325684 C 1.0640000104904175 13.999999046325684, 1.0453332662582397 13.981332778930664, 1.0453332662582397 13.402666091918945 L 7.85866641998291 4.0320000648498535 L 1.2319999933242798 -4.162666320800781 C 1.0826666355133057 -4.3493332862854, 1.0640000104904175 -4.386666297912598, 1.0640000104904175 -4.461333274841309 C 1.0640000104904175 -4.666666507720947, 1.2319999933242798 -4.666666507720947, 1.5679999589920044 -4.666666507720947 L 17.042665481567383 -4.666666507720947 Z " stroke="none" fill-rule="nonzero" fill="#000000" fill-opacity="1" transform="matrix(1,0,0,-1,96.16444396972656,21.391998767852783)" />
  <path d="M 15.82933235168457 2.6693332195281982 C 15.82933235168457 2.8559999465942383, 15.661333084106445 2.8559999465942383, 15.605332374572754 2.8559999465942383 C 15.418665885925293 2.8559999465942383, 15.418665885925293 2.799999952316284, 15.325332641601562 2.5199999809265137 C 15.045332908630371 1.5306665897369385, 14.447999954223633 0.20533332228660583, 13.421333312988281 0.20533332228660583 C 13.103999137878418 0.20533332228660583, 12.973332405090332 0.3919999897480011, 12.973332405090332 0.8213332891464233 C 12.973332405090332 1.2879999876022339, 13.141332626342773 1.7359999418258667, 13.309332847595215 2.1466665267944336 C 13.663999557495117 3.117333173751831, 14.447999954223633 5.189332962036133, 14.447999954223633 6.25333309173584 C 14.447999954223633 7.466666221618652, 13.701333045959473 8.250666618347168, 12.301332473754883 8.250666618347168 C 10.90133285522461 8.250666618347168, 9.949333190917969 7.429333209991455, 9.258666038513184 6.439999580383301 C 9.239999771118164 6.682666301727295, 9.184000015258789 7.317333221435547, 8.661333084106445 7.76533317565918 C 8.194665908813477 8.157333374023438, 7.597332954406738 8.250666618347168, 7.130666255950928 8.250666618347168 C 5.450666427612305 8.250666618347168, 4.535999774932861 7.055999755859375, 4.2186665534973145 6.62666654586792 C 4.125333309173584 7.690666198730469, 3.3413331508636475 8.250666618347168, 2.501333236694336 8.250666618347168 C 1.6426665782928467 8.250666618347168, 1.2879999876022339 7.5226664543151855, 1.1200000047683716 7.186666488647461 C 0.7839999794960022 6.5333333015441895, 0.5413333177566528 5.431999683380127, 0.5413333177566528 5.375999927520752 C 0.5413333177566528 5.189332962036133, 0.7653332948684692 5.189332962036133, 0.7653332948684692 5.189332962036133 C 0.9519999623298645 5.189332962036133, 0.9706666469573975 5.2079997062683105, 1.0826666355133057 5.618666648864746 C 1.399999976158142 6.943999767303467, 1.7733333110809326 7.839999675750732, 2.445333242416382 7.839999675750732 C 2.74399995803833 7.839999675750732, 3.0239999294281006 7.690666198730469, 3.0239999294281006 6.981333255767822 C 3.0239999294281006 6.5893330574035645, 2.9679999351501465 6.383999824523926, 2.7253332138061523 5.413332939147949 L 1.6426665782928467 1.1013332605361938 C 1.5866665840148926 0.8213332891464233, 1.4746665954589844 0.3919999897480011, 1.4746665954589844 0.29866665601730347 C 1.4746665954589844 -0.03733333200216293, 1.7359999418258667 -0.20533332228660583, 2.0160000324249268 -0.20533332228660583 C 2.240000009536743 -0.20533332228660583, 2.5759999752044678 -0.0559999980032444, 2.7066664695739746 0.31733331084251404 C 2.7253332138061523 0.35466665029525757, 2.9493331909179688 1.2319999933242798, 3.061333179473877 1.6986665725708008 L 3.4719998836517334 3.378666639328003 C 3.5839998722076416 3.7893331050872803, 3.69599986076355 4.199999809265137, 3.7893331050872803 4.629333019256592 L 4.0320000648498535 5.562666416168213 C 4.311999797821045 6.141333103179932, 5.301332950592041 7.839999675750732, 7.074666500091553 7.839999675750732 C 7.914666175842285 7.839999675750732, 8.082666397094727 7.1493330001831055, 8.082666397094727 6.5333333015441895 C 8.082666397094727 6.066666603088379, 7.951999664306641 5.543999671936035, 7.802666187286377 4.983999729156494 L 7.279999732971191 2.818666458129883 C 7.0933332443237305 2.128000020980835, 7.074666500091553 2.0160000324249268, 6.906666278839111 1.399999976158142 C 6.831999778747559 1.0266666412353516, 6.663999557495117 0.3919999897480011, 6.663999557495117 0.29866665601730347 C 6.663999557495117 -0.03733333200216293, 6.925333023071289 -0.20533332228660583, 7.205333232879639 -0.20533332228660583 C 7.783999919891357 -0.20533332228660583, 7.895999908447266 0.26133331656455994, 8.045332908630371 0.8586666584014893 L 9.165332794189453 5.357333183288574 C 9.221332550048828 5.599999904632568, 10.21066665649414 7.839999675750732, 12.245332717895508 7.839999675750732 C 13.047999382019043 7.839999675750732, 13.25333309173584 7.205333232879639, 13.25333309173584 6.5333333015441895 C 13.25333309173584 5.469333171844482, 12.469332695007324 3.3413331508636475, 12.095999717712402 2.3519999980926514 C 11.927999496459961 1.903999924659729, 11.85333251953125 1.6986665725708008, 11.85333251953125 1.3253332376480103 C 11.85333251953125 0.4479999840259552, 12.50666618347168 -0.20533332228660583, 13.383999824523926 -0.20533332228660583 C 15.138666152954102 -0.20533332228660583, 15.82933235168457 2.5199999809265137, 15.82933235168457 2.6693332195281982 Z " stroke="none" fill-rule="nonzero" fill="#000000" fill-opacity="1" transform="matrix(1,0,0,-1,125.82764434814453,21.391998291015625)" />
  <path d="M 5.301332950592041 11.666666030883789 C 5.301332950592041 12.039999961853027, 5.039999961853027 12.338665962219238, 4.610666275024414 12.338665962219238 C 4.106666564941406 12.338665962219238, 3.6026666164398193 11.85333251953125, 3.6026666164398193 11.349332809448242 C 3.6026666164398193 10.99466609954834, 3.863999843597412 10.677332878112793, 4.311999797821045 10.677332878112793 C 4.7413330078125 10.677332878112793, 5.301332950592041 11.106666564941406, 5.301332950592041 11.666666030883789 Z M 5.469333171844482 2.6693332195281982 C 5.469333171844482 2.8559999465942383, 5.301332950592041 2.8559999465942383, 5.245333194732666 2.8559999465942383 C 5.058666706085205 2.8559999465942383, 5.058666706085205 2.799999952316284, 4.965332984924316 2.5199999809265137 C 4.629333019256592 1.343999981880188, 4.013333320617676 0.20533332228660583, 3.061333179473877 0.20533332228660583 C 2.74399995803833 0.20533332228660583, 2.613333225250244 0.3919999897480011, 2.613333225250244 0.8213332891464233 C 2.613333225250244 1.2879999876022339, 2.7253332138061523 1.5493333339691162, 3.1546666622161865 2.687999963760376 L 3.88266658782959 4.6479997634887695 C 4.106666564941406 5.189332962036133, 4.106666564941406 5.226666450500488, 4.293333053588867 5.730666637420654 C 4.442666530609131 6.103999614715576, 4.535999774932861 6.365333080291748, 4.535999774932861 6.71999979019165 C 4.535999774932861 7.559999942779541, 3.938666582107544 8.250666618347168, 3.005333185195923 8.250666618347168 C 1.250666618347168 8.250666618347168, 0.5413333177566528 5.543999671936035, 0.5413333177566528 5.375999927520752 C 0.5413333177566528 5.189332962036133, 0.7653332948684692 5.189332962036133, 0.7653332948684692 5.189332962036133 C 0.9519999623298645 5.189332962036133, 0.9706666469573975 5.226666450500488, 1.0640000104904175 5.525332927703857 C 1.5679999589920044 7.279999732971191, 2.314666509628296 7.839999675750732, 2.9493331909179688 7.839999675750732 C 3.0986666679382324 7.839999675750732, 3.4159998893737793 7.839999675750732, 3.4159998893737793 7.242666244506836 C 3.4159998893737793 6.850666522979736, 3.2853331565856934 6.4586663246154785, 3.2106666564941406 6.271999835968018 C 3.061333179473877 5.786666393280029, 2.2213332653045654 3.621333122253418, 1.9226665496826172 2.818666458129883 C 1.7359999418258667 2.3333332538604736, 1.493333339691162 1.7173333168029785, 1.493333339691162 1.3253332376480103 C 1.493333339691162 0.4479999840259552, 2.128000020980835 -0.20533332228660583, 3.0239999294281006 -0.20533332228660583 C 4.7786664962768555 -0.20533332228660583, 5.469333171844482 2.501333236694336, 5.469333171844482 2.6693332195281982 Z " stroke="none" fill-rule="nonzero" fill="#000000" fill-opacity="1" transform="matrix(1,0,0,-1,142.21697616577148,21.391998291015625)" />
  <path d="M 10.658666610717773 2.6693332195281982 C 10.658666610717773 2.8559999465942383, 10.490666389465332 2.8559999465942383, 10.434666633605957 2.8559999465942383 C 10.24799919128418 2.8559999465942383, 10.24799919128418 2.799999952316284, 10.15466594696045 2.5199999809265137 C 9.781332969665527 1.250666618347168, 9.165332794189453 0.20533332228660583, 8.250666618347168 0.20533332228660583 C 7.933332920074463 0.20533332228660583, 7.802666187286377 0.3919999897480011, 7.802666187286377 0.8213332891464233 C 7.802666187286377 1.2879999876022339, 7.970666408538818 1.7359999418258667, 8.138666152954102 2.1466665267944336 C 8.493332862854004 3.135999917984009, 9.27733325958252 5.189332962036133, 9.27733325958252 6.25333309173584 C 9.27733325958252 7.503999710083008, 8.474666595458984 8.250666618347168, 7.130666255950928 8.250666618347168 C 5.450666427612305 8.250666618347168, 4.535999774932861 7.055999755859375, 4.2186665534973145 6.62666654586792 C 4.125333309173584 7.671999931335449, 3.359999895095825 8.250666618347168, 2.501333236694336 8.250666618347168 C 1.6426665782928467 8.250666618347168, 1.2879999876022339 7.5226664543151855, 1.1013332605361938 7.186666488647461 C 0.8026666641235352 6.551999568939209, 0.5413333177566528 5.450666427612305, 0.5413333177566528 5.375999927520752 C 0.5413333177566528 5.189332962036133, 0.7653332948684692 5.189332962036133, 0.7653332948684692 5.189332962036133 C 0.9519999623298645 5.189332962036133, 0.9706666469573975 5.2079997062683105, 1.0826666355133057 5.618666648864746 C 1.399999976158142 6.943999767303467, 1.7733333110809326 7.839999675750732, 2.445333242416382 7.839999675750732 C 2.818666458129883 7.839999675750732, 3.0239999294281006 7.597332954406738, 3.0239999294281006 6.981333255767822 C 3.0239999294281006 6.5893330574035645, 2.9679999351501465 6.383999824523926, 2.7253332138061523 5.413332939147949 L 1.6426665782928467 1.1013332605361938 C 1.5866665840148926 0.8213332891464233, 1.4746665954589844 0.3919999897480011, 1.4746665954589844 0.29866665601730347 C 1.4746665954589844 -0.03733333200216293, 1.7359999418258667 -0.20533332228660583, 2.0160000324249268 -0.20533332228660583 C 2.240000009536743 -0.20533332228660583, 2.5759999752044678 -0.0559999980032444, 2.7066664695739746 0.31733331084251404 C 2.7253332138061523 0.35466665029525757, 2.9493331909179688 1.2319999933242798, 3.061333179473877 1.6986665725708008 L 3.4719998836517334 3.378666639328003 C 3.5839998722076416 3.7893331050872803, 3.69599986076355 4.199999809265137, 3.7893331050872803 4.629333019256592 L 4.0320000648498535 5.562666416168213 C 4.311999797821045 6.141333103179932, 5.301332950592041 7.839999675750732, 7.074666500091553 7.839999675750732 C 7.914666175842285 7.839999675750732, 8.082666397094727 7.1493330001831055, 8.082666397094727 6.5333333015441895 C 8.082666397094727 5.375999927520752, 7.167999744415283 2.986666679382324, 6.869333267211914 2.184000015258789 C 6.701333045959473 1.7546665668487549, 6.682666301727295 1.5306665897369385, 6.682666301727295 1.3253332376480103 C 6.682666301727295 0.4479999840259552, 7.335999965667725 -0.20533332228660583, 8.213333129882812 -0.20533332228660583 C 9.967999458312988 -0.20533332228660583, 10.658666610717773 2.5199999809265137, 10.658666610717773 2.6693332195281982 Z " stroke="none" fill-rule="nonzero" fill="#000000" fill-opacity="1" transform="matrix(1,0,0,-1,148.65697574615479,21.391998291015625)" />
  <path d="M 10.061332702636719 -11.797332763671875 C 10.061332702636719 -11.703999519348145, 10.023999214172363 -11.629332542419434, 9.967999458312988 -11.573332786560059 C 6.850666522979736 -9.239999771118164, 4.685333251953125 -2.874666452407837, 4.685333251953125 2.4639999866485596 L 4.685333251953125 6.869333267211914 C 4.685333251953125 12.207999229431152, 6.850666522979736 18.573331832885742, 9.967999458312988 20.906665802001953 C 10.023999214172363 20.962665557861328, 10.061332702636719 21.03733253479004, 10.061332702636719 21.130666732788086 C 10.061332702636719 21.279998779296875, 9.949333190917969 21.391998291015625, 9.799999237060547 21.391998291015625 C 9.743999481201172 21.391998291015625, 9.687999725341797 21.373332977294922, 9.631999969482422 21.354665756225586 C 6.365333080291748 18.89066505432129, 3.3413331508636475 12.48799991607666, 3.3413331508636475 6.869333267211914 L 3.3413331508636475 2.4639999866485596 C 3.3413331508636475 -3.1546666622161865, 6.365333080291748 -9.557332992553711, 9.631999969482422 -12.021332740783691 C 9.687999725341797 -12.039999961853027, 9.743999481201172 -12.058666229248047, 9.799999237060547 -12.058666229248047 C 9.949333190917969 -12.058666229248047, 10.061332702636719 -11.946666717529297, 10.061332702636719 -11.797332763671875 Z " stroke="none" fill-rule="nonzero" fill="#000000" fill-opacity="1" transform="matrix(1,0,0,-1,162.1903076171875,21.391997814178467)" />
  <path d="M 7.802666187286377 2.4639999866485596 L 7.802666187286377 6.869333267211914 C 7.802666187286377 12.48799991607666, 4.7786664962768555 18.89066505432129, 1.5119999647140503 21.354665756225586 C 1.4559999704360962 21.373332977294922, 1.399999976158142 21.391998291015625, 1.343999981880188 21.391998291015625 C 1.1946666240692139 21.391998291015625, 1.0826666355133057 21.279998779296875, 1.0826666355133057 21.130666732788086 C 1.0826666355133057 21.03733253479004, 1.1200000047683716 20.962665557861328, 1.1759999990463257 20.906665802001953 C 4.293333053588867 18.573331832885742, 6.4586663246154785 12.207999229431152, 6.4586663246154785 6.869333267211914 L 6.4586663246154785 2.4639999866485596 C 6.4586663246154785 -2.874666452407837, 4.293333053588867 -9.239999771118164, 1.1759999990463257 -11.573332786560059 C 1.1200000047683716 -11.629332542419434, 1.0826666355133057 -11.703999519348145, 1.0826666355133057 -11.797332763671875 C 1.0826666355133057 -11.946666717529297, 1.1946666240692139 -12.058666229248047, 1.343999981880188 -12.058666229248047 C 1.399999976158142 -12.058666229248047, 1.4559999704360962 -12.039999961853027, 1.5119999647140503 -12.021332740783691 C 4.7786664962768555 -9.557332992553711, 7.802666187286377 -3.1546666622161865, 7.802666187286377 2.4639999866485596 Z " stroke="none" fill-rule="nonzero" fill="#000000" fill-opacity="1" transform="matrix(1,0,0,-1,206.56097412109375,21.391997814178467)" />
  <path d="M 9.93066692352295 9.081334114074707 C 9.93066692352295 9.12053394317627, 9.904533386230469 9.211999893188477, 9.786933898925781 9.211999893188477 C 9.747734069824219 9.211999893188477, 9.73466682434082 9.198933601379395, 9.590933799743652 9.055200576782227 L 8.67626667022705 8.049066543579102 C 8.558667182922363 8.232000350952148, 7.957600116729736 9.211999893188477, 6.507200241088867 9.211999893188477 C 3.5933334827423096 9.211999893188477, 0.6533333659172058 6.3242669105529785, 0.6533333659172058 3.292800188064575 C 0.6533333659172058 1.1368000507354736, 2.195199966430664 -0.2874666750431061, 4.194400310516357 -0.2874666750431061 C 5.331200122833252 -0.2874666750431061, 6.3242669105529785 0.23520000278949738, 7.016800403594971 0.8362666964530945 C 8.232000350952148 1.90773344039917, 8.454133987426758 3.0968000888824463, 8.454133987426758 3.136000156402588 C 8.454133987426758 3.266666889190674, 8.297333717346191 3.266666889190674, 8.297333717346191 3.266666889190674 C 8.218934059143066 3.266666889190674, 8.153600692749023 3.2405333518981934, 8.127467155456543 3.136000156402588 C 8.009866714477539 2.7570667266845703, 7.709333419799805 1.8293334245681763, 6.807733535766602 1.0714666843414307 C 5.906133651733398 0.3397333323955536, 5.08293342590332 0.11760000139474869, 4.403466701507568 0.11760000139474869 C 3.2274668216705322 0.11760000139474869, 1.842400074005127 0.7970666885375977, 1.842400074005127 2.8354668617248535 C 1.842400074005127 3.5802667140960693, 2.11680006980896 5.697066783905029, 3.423466682434082 7.225866794586182 C 4.22053337097168 8.153600692749023, 5.448800086975098 8.806933403015137, 6.611733436584473 8.806933403015137 C 7.944533824920654 8.806933403015137, 8.71546745300293 7.800800323486328, 8.71546745300293 6.285067081451416 C 8.71546745300293 5.762400150299072, 8.67626667022705 5.749333381652832, 8.67626667022705 5.618666648864746 C 8.67626667022705 5.488000392913818, 8.820000648498535 5.488000392913818, 8.87226676940918 5.488000392913818 C 9.042133331298828 5.488000392913818, 9.042133331298828 5.514133453369141, 9.107466697692871 5.749333381652832 Z " stroke="none" fill-rule="nonzero" fill="#000000" fill-opacity="1" transform="matrix(1,0,0,-1,173.3343048095703,10.567197799682617)" />
  <path d="M 4.573333263397217 2.631999969482422 C 4.573333263397217 3.5093331336975098, 4.041333198547363 4.125333309173584, 3.3319997787475586 4.125333309173584 C 2.865333318710327 4.125333309173584, 2.4173333644866943 3.7893331050872803, 2.1093332767486572 3.425333261489868 C 2.0160000324249268 3.929333209991455, 1.6146665811538696 4.125333309173584, 1.2693332433700562 4.125333309173584 C 0.8399999737739563 4.125333309173584, 0.6626666188240051 3.7613332271575928, 0.578666627407074 3.5933332443237305 C 0.41066664457321167 3.2759997844696045, 0.289333313703537 2.7159998416900635, 0.289333313703537 2.687999963760376 C 0.289333313703537 2.5946664810180664, 0.4013333320617676 2.5946664810180664, 0.4013333320617676 2.5946664810180664 C 0.4946666359901428 2.5946664810180664, 0.5040000081062317 2.6039998531341553, 0.5600000023841858 2.809333324432373 C 0.7186666131019592 3.4719998836517334, 0.9053332805633545 3.919999837875366, 1.241333246231079 3.919999837875366 C 1.399999976158142 3.919999837875366, 1.5306665897369385 3.8453330993652344, 1.5306665897369385 3.490666627883911 C 1.5306665897369385 3.2759997844696045, 1.5026665925979614 3.173333168029785, 1.4653332233428955 3.0146665573120117 L 0.41999998688697815 -1.1386666297912598 C 0.3453333079814911 -1.4559999704360962, 0.3266666531562805 -1.5213333368301392, -0.08399999886751175 -1.5213333368301392 C -0.19599999487400055 -1.5213333368301392, -0.29866665601730347 -1.5213333368301392, -0.29866665601730347 -1.6986665725708008 C -0.29866665601730347 -1.7733333110809326, -0.25200000405311584 -1.810666561126709, -0.17733332514762878 -1.810666561126709 C 0.07466666400432587 -1.810666561126709, 0.3453333079814911 -1.782666563987732, 0.606666624546051 -1.782666563987732 C 0.9146666526794434 -1.782666563987732, 1.2319999933242798 -1.810666561126709, 1.5306665897369385 -1.810666561126709 C 1.5773333311080933 -1.810666561126709, 1.6986665725708008 -1.810666561126709, 1.6986665725708008 -1.6239999532699585 C 1.6986665725708008 -1.5213333368301392, 1.6053333282470703 -1.5213333368301392, 1.4746665954589844 -1.5213333368301392 C 1.0080000162124634 -1.5213333368301392, 1.0080000162124634 -1.4559999704360962, 1.0080000162124634 -1.371999979019165 C 1.0080000162124634 -1.2599999904632568, 1.399999976158142 0.26133331656455994, 1.4653332233428955 0.4946666359901428 C 1.5866665840148926 0.2239999920129776, 1.847999930381775 -0.10266666114330292, 2.3239998817443848 -0.10266666114330292 C 3.4066665172576904 -0.10266666114330292, 4.573333263397217 1.2599999904632568, 4.573333263397217 2.631999969482422 Z M 3.9013330936431885 3.0426666736602783 C 3.9013330936431885 2.491999864578247, 3.5933332443237305 1.4186666011810303, 3.425333261489868 1.0640000104904175 C 3.107999801635742 0.41066664457321167, 2.6599998474121094 0.10266666114330292, 2.314666509628296 0.10266666114330292 C 1.6986665725708008 0.10266666114330292, 1.5773333311080933 0.8773332834243774, 1.5773333311080933 0.9333332777023315 C 1.5773333311080933 0.9333332777023315, 1.5773333311080933 0.9706666469573975, 1.6053333282470703 1.0826666355133057 L 2.062666654586792 2.9119999408721924 C 2.128000020980835 3.1639997959136963, 2.379999876022339 3.425333261489868, 2.547999858856201 3.565333127975464 C 2.874666452407837 3.8546664714813232, 3.1453332901000977 3.919999837875366, 3.303999900817871 3.919999837875366 C 3.677333116531372 3.919999837875366, 3.9013330936431885 3.5933332443237305, 3.9013330936431885 3.0426666736602783 Z " stroke="none" fill-rule="nonzero" fill="#000000" fill-opacity="1" transform="matrix(1,0,0,-1,182.67697143554688,13.79466462135315)" />
  <path d="M 9.93066692352295 9.081334114074707 C 9.93066692352295 9.12053394317627, 9.904533386230469 9.211999893188477, 9.786933898925781 9.211999893188477 C 9.747734069824219 9.211999893188477, 9.73466682434082 9.198933601379395, 9.590933799743652 9.055200576782227 L 8.67626667022705 8.049066543579102 C 8.558667182922363 8.232000350952148, 7.957600116729736 9.211999893188477, 6.507200241088867 9.211999893188477 C 3.5933334827423096 9.211999893188477, 0.6533333659172058 6.3242669105529785, 0.6533333659172058 3.292800188064575 C 0.6533333659172058 1.1368000507354736, 2.195199966430664 -0.2874666750431061, 4.194400310516357 -0.2874666750431061 C 5.331200122833252 -0.2874666750431061, 6.3242669105529785 0.23520000278949738, 7.016800403594971 0.8362666964530945 C 8.232000350952148 1.90773344039917, 8.454133987426758 3.0968000888824463, 8.454133987426758 3.136000156402588 C 8.454133987426758 3.266666889190674, 8.297333717346191 3.266666889190674, 8.297333717346191 3.266666889190674 C 8.218934059143066 3.266666889190674, 8.153600692749023 3.2405333518981934, 8.127467155456543 3.136000156402588 C 8.009866714477539 2.7570667266845703, 7.709333419799805 1.8293334245681763, 6.807733535766602 1.0714666843414307 C 5.906133651733398 0.3397333323955536, 5.08293342590332 0.11760000139474869, 4.403466701507568 0.11760000139474869 C 3.2274668216705322 0.11760000139474869, 1.842400074005127 0.7970666885375977, 1.842400074005127 2.8354668617248535 C 1.842400074005127 3.5802667140960693, 2.11680006980896 5.697066783905029, 3.423466682434082 7.225866794586182 C 4.22053337097168 8.153600692749023, 5.448800086975098 8.806933403015137, 6.611733436584473 8.806933403015137 C 7.944533824920654 8.806933403015137, 8.71546745300293 7.800800323486328, 8.71546745300293 6.285067081451416 C 8.71546745300293 5.762400150299072, 8.67626667022705 5.749333381652832, 8.67626667022705 5.618666648864746 C 8.67626667022705 5.488000392913818, 8.820000648498535 5.488000392913818, 8.87226676940918 5.488000392913818 C 9.042133331298828 5.488000392913818, 9.042133331298828 5.514133453369141, 9.107466697692871 5.749333381652832 Z " stroke="none" fill-rule="nonzero" fill="#000000" fill-opacity="1" transform="matrix(1,0,0,-1,173.3343048095703,29.53999900817871)" />
  <path d="M 4.573333263397217 2.631999969482422 C 4.573333263397217 3.5093331336975098, 4.041333198547363 4.125333309173584, 3.3319997787475586 4.125333309173584 C 2.865333318710327 4.125333309173584, 2.4173333644866943 3.7893331050872803, 2.1093332767486572 3.425333261489868 C 2.0160000324249268 3.929333209991455, 1.6146665811538696 4.125333309173584, 1.2693332433700562 4.125333309173584 C 0.8399999737739563 4.125333309173584, 0.6626666188240051 3.7613332271575928, 0.578666627407074 3.5933332443237305 C 0.41066664457321167 3.2759997844696045, 0.289333313703537 2.7159998416900635, 0.289333313703537 2.687999963760376 C 0.289333313703537 2.5946664810180664, 0.4013333320617676 2.5946664810180664, 0.4013333320617676 2.5946664810180664 C 0.4946666359901428 2.5946664810180664, 0.5040000081062317 2.6039998531341553, 0.5600000023841858 2.809333324432373 C 0.7186666131019592 3.4719998836517334, 0.9053332805633545 3.919999837875366, 1.241333246231079 3.919999837875366 C 1.399999976158142 3.919999837875366, 1.5306665897369385 3.8453330993652344, 1.5306665897369385 3.490666627883911 C 1.5306665897369385 3.2759997844696045, 1.5026665925979614 3.173333168029785, 1.4653332233428955 3.0146665573120117 L 0.41999998688697815 -1.1386666297912598 C 0.3453333079814911 -1.4559999704360962, 0.3266666531562805 -1.5213333368301392, -0.08399999886751175 -1.5213333368301392 C -0.19599999487400055 -1.5213333368301392, -0.29866665601730347 -1.5213333368301392, -0.29866665601730347 -1.6986665725708008 C -0.29866665601730347 -1.7733333110809326, -0.25200000405311584 -1.810666561126709, -0.17733332514762878 -1.810666561126709 C 0.07466666400432587 -1.810666561126709, 0.3453333079814911 -1.782666563987732, 0.606666624546051 -1.782666563987732 C 0.9146666526794434 -1.782666563987732, 1.2319999933242798 -1.810666561126709, 1.5306665897369385 -1.810666561126709 C 1.5773333311080933 -1.810666561126709, 1.6986665725708008 -1.810666561126709, 1.6986665725708008 -1.6239999532699585 C 1.6986665725708008 -1.5213333368301392, 1.6053333282470703 -1.5213333368301392, 1.4746665954589844 -1.5213333368301392 C 1.0080000162124634 -1.5213333368301392, 1.0080000162124634 -1.4559999704360962, 1.0080000162124634 -1.371999979019165 C 1.0080000162124634 -1.2599999904632568, 1.399999976158142 0.26133331656455994, 1.4653332233428955 0.4946666359901428 C 1.5866665840148926 0.2239999920129776, 1.847999930381775 -0.10266666114330292, 2.3239998817443848 -0.10266666114330292 C 3.4066665172576904 -0.10266666114330292, 4.573333263397217 1.2599999904632568, 4.573333263397217 2.631999969482422 Z M 3.9013330936431885 3.0426666736602783 C 3.9013330936431885 2.491999864578247, 3.5933332443237305 1.4186666011810303, 3.425333261489868 1.0640000104904175 C 3.107999801635742 0.41066664457321167, 2.6599998474121094 0.10266666114330292, 2.314666509628296 0.10266666114330292 C 1.6986665725708008 0.10266666114330292, 1.5773333311080933 0.8773332834243774, 1.5773333311080933 0.9333332777023315 C 1.5773333311080933 0.9333332777023315, 1.5773333311080933 0.9706666469573975, 1.6053333282470703 1.0826666355133057 L 2.062666654586792 2.9119999408721924 C 2.128000020980835 3.1639997959136963, 2.379999876022339 3.425333261489868, 2.547999858856201 3.565333127975464 C 2.874666452407837 3.8546664714813232, 3.1453332901000977 3.919999837875366, 3.303999900817871 3.919999837875366 C 3.677333116531372 3.919999837875366, 3.9013330936431885 3.5933332443237305, 3.9013330936431885 3.0426666736602783 Z " stroke="none" fill-rule="nonzero" fill="#000000" fill-opacity="1" transform="matrix(1,0,0,-1,182.67697143554688,32.76746582984924)" />
  <path d="M -1.0845333337783813 7.957600116729736 L -1.0845333337783813 8.362667083740234 L -5.801599979400635 8.362667083740234 L -5.801599979400635 7.957600116729736 Z " stroke="none" fill-rule="nonzero" fill="#000000" fill-opacity="1" transform="matrix(1,0,0,-1,183.7895050048828,26.207999229431152)" />
  <path d="M 0 4.666666507720947 L 14.037332534790039 4.666666507720947 " stroke="#000000" stroke-opacity="1" stroke-width="0.746666669845581" stroke-linecap="butt" stroke-linejoin="miter" fill="none" transform="matrix(1,0,0,-1,173.3343048095703,21.391998291015625)" />
  <path d="M 3.7893331050872803 0.018666666001081467 C 3.7893331050872803 1.250666618347168, 3.322666645050049 1.9786665439605713, 2.5946664810180664 1.9786665439605713 C 1.9786665439605713 1.9786665439605713, 1.6053333282470703 1.5119999647140503, 1.6053333282470703 0.9893332719802856 C 1.6053333282470703 0.48533332347869873, 1.9786665439605713 0, 2.5946664810180664 0 C 2.818666458129883 0, 3.061333179473877 0.07466666400432587, 3.247999906539917 0.24266666173934937 C 3.303999900817871 0.2800000011920929, 3.3413331508636475 0.29866665601730347, 3.3413331508636475 0.29866665601730347 C 3.3413331508636475 0.29866665601730347, 3.378666639328003 0.2800000011920929, 3.378666639328003 0.018666666001081467 C 3.378666639328003 -1.3626666069030762, 2.7253332138061523 -2.482666492462158, 2.1093332767486572 -3.0986666679382324 C 1.903999924659729 -3.303999900817871, 1.903999924659729 -3.3413331508636475, 1.903999924659729 -3.3973331451416016 C 1.903999924659729 -3.5279998779296875, 1.997333288192749 -3.6026666164398193, 2.0906665325164795 -3.6026666164398193 C 2.2960000038146973 -3.6026666164398193, 3.7893331050872803 -2.1653332710266113, 3.7893331050872803 0.018666666001081467 Z " stroke="none" fill-rule="nonzero" fill="#000000" fill-opacity="1" transform="matrix(1,0,0,-1,189.70497131347656,21.391998291015625)" />
  <path d="M 7.821332931518555 0 L 7.821332931518555 0.578666627407074 L 7.223999977111816 0.578666627407074 C 5.543999671936035 0.578666627407074, 5.48799991607666 0.7839999794960022, 5.48799991607666 1.4746665954589844 L 5.48799991607666 11.946666717529297 C 5.48799991607666 12.39466667175293, 5.48799991607666 12.431999206542969, 5.058666706085205 12.431999206542969 C 3.9013330936431885 11.237333297729492, 2.258666515350342 11.237333297729492, 1.6613333225250244 11.237333297729492 L 1.6613333225250244 10.658666610717773 C 2.0346665382385254 10.658666610717773, 3.135999917984009 10.658666610717773, 4.106666564941406 11.144000053405762 L 4.106666564941406 1.4746665954589844 C 4.106666564941406 0.8026666641235352, 4.050666332244873 0.578666627407074, 2.37066650390625 0.578666627407074 L 1.7733333110809326 0.578666627407074 L 1.7733333110809326 0 C 2.426666498184204 0.0559999980032444, 4.050666332244873 0.0559999980032444, 4.797333240509033 0.0559999980032444 C 5.543999671936035 0.0559999980032444, 7.167999744415283 0.0559999980032444, 7.821332931518555 0 Z " stroke="none" fill-rule="nonzero" fill="#000000" fill-opacity="1" transform="matrix(1,0,0,-1,197.22763776779175,21.391998291015625)" />
  <path d="M 16.44533348083496 12.543999671936035 C 16.44533348083496 12.543999671936035, 16.44533348083496 12.749332427978516, 16.202665328979492 12.749332427978516 C 15.586666107177734 12.749332427978516, 14.933332443237305 12.69333267211914, 14.317333221435547 12.69333267211914 C 13.682665824890137 12.69333267211914, 13.029333114624023 12.749332427978516, 12.41333293914795 12.749332427978516 C 12.301332473754883 12.749332427978516, 12.077332496643066 12.749332427978516, 12.077332496643066 12.375999450683594 C 12.077332496643066 12.170666694641113, 12.263999938964844 12.170666694641113, 12.41333293914795 12.170666694641113 C 13.477333068847656 12.151999473571777, 13.682665824890137 11.75999927520752, 13.682665824890137 11.349332809448242 C 13.682665824890137 11.293333053588867, 13.645333290100098 11.013333320617676, 13.626666069030762 10.957332611083984 L 11.535999298095703 2.6506664752960205 L 7.410666465759277 12.39466667175293 C 7.261332988739014 12.730666160583496, 7.242666244506836 12.749332427978516, 6.813333034515381 12.749332427978516 L 4.311999797821045 12.749332427978516 C 3.938666582107544 12.749332427978516, 3.7706665992736816 12.749332427978516, 3.7706665992736816 12.375999450683594 C 3.7706665992736816 12.170666694641113, 3.938666582107544 12.170666694641113, 4.293333053588867 12.170666694641113 C 4.386666297912598 12.170666694641113, 5.562666416168213 12.170666694641113, 5.562666416168213 12.002666473388672 L 3.061333179473877 1.9786665439605713 C 2.874666452407837 1.2319999933242798, 2.55733323097229 0.6346666216850281, 1.0453332662582397 0.578666627407074 C 0.9333332777023315 0.578666627407074, 0.7279999852180481 0.5600000023841858, 0.7279999852180481 0.20533332228660583 C 0.7279999852180481 0.07466666400432587, 0.8213332891464233 0, 0.9706666469573975 0 C 1.5679999589920044 0, 2.2213332653045654 0.0559999980032444, 2.8373332023620605 0.0559999980032444 C 3.4719998836517334 0.0559999980032444, 4.144000053405762 0, 4.759999752044678 0 C 4.853332996368408 0, 5.095999717712402 0, 5.095999717712402 0.3733333349227905 C 5.095999717712402 0.5600000023841858, 4.927999973297119 0.578666627407074, 4.722666263580322 0.578666627407074 C 3.6399998664855957 0.6159999966621399, 3.490666627883911 1.0266666412353516, 3.490666627883911 1.399999976158142 C 3.490666627883911 1.5306665897369385, 3.5093331336975098 1.6239999532699585, 3.565333127975464 1.8293333053588867 L 6.029333114624023 11.685333251953125 C 6.103999614715576 11.573332786560059, 6.103999614715576 11.535999298095703, 6.197333335876465 11.349332809448242 L 10.845333099365234 0.35466665029525757 C 10.97599983215332 0.03733333200216293, 11.031999588012695 0, 11.199999809265137 0 C 11.405332565307617 0, 11.405332565307617 0.0559999980032444, 11.498665809631348 0.3919999897480011 L 14.11199951171875 10.78933334350586 C 14.298666000366211 11.535999298095703, 14.634666442871094 12.114665985107422, 16.128000259399414 12.170666694641113 C 16.221332550048828 12.170666694641113, 16.44533348083496 12.189332962036133, 16.44533348083496 12.543999671936035 Z " stroke="none" fill-rule="nonzero" fill="#000000" fill-opacity="1" transform="matrix(1,0,0,-1,125.80804443359375,54.66346454620361)" />
  <path d="M 37.75644302368164 4.666666507720947 L 228.84896850585938 4.666666507720947 " stroke="#000000" stroke-opacity="1" stroke-width="0.746666669845581" stroke-linecap="butt" stroke-linejoin="miter" fill="none" transform="matrix(1,0,0,-1,0,41.858131408691406)" />
</svg>