<?xml version="1.0" encoding="UTF-8"?>
<svg width="8px" height="14px" viewBox="0 0 8 14" version="1.1" xmlns="http://www.w3.org/2000/svg" xmlns:xlink="http://www.w3.org/1999/xlink">
    <!-- Generator: Sketch 52.6 (67491) - http://www.bohemiancoding.com/sketch -->
    <title>icon-arrow-left-grey-dark</title>
    <desc>Created with Sketch.</desc>
    <g id="51-Degrees-Final-Artwork" stroke="none" stroke-width="1" fill="none" fill-rule="evenodd">
        <g id="Styles" transform="translate(-354.000000, -1804.000000)" fill="#9B9B9B">
            <path d="M354.284314,1804.30158 L354.284314,1804.30158 C354.670042,1803.90632 355.30316,1803.89859 355.698423,1804.28431 L361.643406,1810.08589 C362.038668,1810.47162 362.046398,1811.10474 361.66067,1811.5 C361.654986,1811.50583 361.649231,1811.51158 361.643406,1811.51726 L355.698423,1817.31884 C355.30316,1817.70457 354.670042,1817.69684 354.284314,1817.30158 L354.284314,1817.30158 C353.898587,1816.90632 353.906316,1816.2732 354.301578,1815.88747 L359.513185,1810.80158 L354.301578,1805.71569 C353.906316,1805.32996 353.898587,1804.69684 354.284314,1804.30158 Z" id="icon-arrow-left-grey-dark" transform="translate(357.972492, 1810.801578) scale(-1, 1) translate(-357.972492, -1810.801578) "></path>
        </g>
    </g>
</svg>