<?xml version="1.0" encoding="UTF-8" standalone="no"?>
<!DOCTYPE svg PUBLIC "-//W3C//DTD SVG 1.1//EN"
 "http://www.w3.org/Graphics/SVG/1.1/DTD/svg11.dtd">
<!-- Generated by graphviz version 2.43.0 (0)
 -->
<!-- Title: Program.Key Pages: 1 -->
<svg width="254pt" height="84pt"
 viewBox="0.00 0.00 254.00 84.00" xmlns="http://www.w3.org/2000/svg" xmlns:xlink="http://www.w3.org/1999/xlink">
<g id="graph0" class="graph" transform="scale(1 1) rotate(0) translate(4 80)">
<title>Program.Key</title>
<!-- Node4 -->
<g id="node1" class="node">
<title>Node4</title>
<g id="a_node1"><a xlink:title="Key used for each metric.">
<polygon fill="#bfbfbf" stroke="black" points="81,-0.5 81,-19.5 160,-19.5 160,-0.5 81,-0.5"/>
<text text-anchor="middle" x="120.5" y="-7.5" font-family="Helvetica,sans-Serif" font-size="10.00">Program.Key</text>
</a>
</g>
</g>
<!-- Node5 -->
<g id="node2" class="node">
<title>Node5</title>
<g id="a_node2"><a xlink:title=" ">
<polygon fill="none" stroke="#bfbfbf" points="0,-56.5 0,-75.5 109,-75.5 109,-56.5 0,-56.5"/>
<text text-anchor="middle" x="54.5" y="-63.5" font-family="Helvetica,sans-Serif" font-size="10.00">IEquatable&lt; Key &gt;</text>
</a>
</g>
</g>
<!-- Node5&#45;&gt;Node4 -->
<g id="edge1" class="edge">
<title>Node5&#45;&gt;Node4</title>
<path fill="none" stroke="midnightblue" d="M73.05,-49.82C84.88,-40.15 99.79,-27.95 109.7,-19.83"/>
<polygon fill="midnightblue" stroke="midnightblue" points="70.63,-47.28 65.1,-56.32 75.06,-52.7 70.63,-47.28"/>
</g>
<!-- Node6 -->
<g id="node3" class="node">
<title>Node6</title>
<g id="a_node3"><a xlink:title=" ">
<polygon fill="none" stroke="#bfbfbf" points="127,-56.5 127,-75.5 246,-75.5 246,-56.5 127,-56.5"/>
<text text-anchor="middle" x="186.5" y="-63.5" font-family="Helvetica,sans-Serif" font-size="10.00">IComparable&lt; Key &gt;</text>
</a>
</g>
</g>
<!-- Node6&#45;&gt;Node4 -->
<g id="edge2" class="edge">
<title>Node6&#45;&gt;Node4</title>
<path fill="none" stroke="midnightblue" d="M167.95,-49.82C156.12,-40.15 141.21,-27.95 131.3,-19.83"/>
<polygon fill="midnightblue" stroke="midnightblue" points="165.94,-52.7 175.9,-56.32 170.37,-47.28 165.94,-52.7"/>
</g>
</g>
</svg>
