<?xml version="1.0" encoding="UTF-8" standalone="no"?>
<!DOCTYPE svg PUBLIC "-//W3C//DTD SVG 1.1//EN"
 "http://www.w3.org/Graphics/SVG/1.1/DTD/svg11.dtd">
<!-- Generated by graphviz version 2.43.0 (0)
 -->
<!-- Title: fiftyone.geolocation.core.data.GeoDataDefault Pages: 1 -->
<svg width="288pt" height="225pt"
 viewBox="0.00 0.00 288.00 225.00" xmlns="http://www.w3.org/2000/svg" xmlns:xlink="http://www.w3.org/1999/xlink">
<g id="graph0" class="graph" transform="scale(1 1) rotate(0) translate(4 221)">
<title>fiftyone.geolocation.core.data.GeoDataDefault</title>
<!-- Node1 -->
<g id="Node000001" class="node">
<title>Node1</title>
<g id="a_Node000001"><a xlink:title=" ">
<polygon fill="#999999" stroke="#666666" points="205,-96 40,-96 40,-66 205,-66 205,-96"/>
<text text-anchor="start" x="48" y="-84" font-family="Helvetica,sans-Serif" font-size="10.00">fiftyone.geolocation.core.data.</text>
<text text-anchor="middle" x="122.5" y="-73" font-family="Helvetica,sans-Serif" font-size="10.00">GeoDataDefault</text>
</a>
</g>
</g>
<!-- Node5 -->
<g id="Node000005" class="node">
<title>Node5</title>
<g id="a_Node000005"><a xlink:href="classfiftyone_1_1geolocation_1_1data_1_1_cloud_geo_data_default.html" target="_top" xlink:title=" ">
<polygon fill="white" stroke="#bfbfbf" points="193,-30 52,-30 52,0 193,0 193,-30"/>
<text text-anchor="start" x="60" y="-18" font-family="Helvetica,sans-Serif" font-size="10.00">fiftyone.geolocation.data.</text>
<text text-anchor="middle" x="122.5" y="-7" font-family="Helvetica,sans-Serif" font-size="10.00">CloudGeoDataDefault</text>
</a>
</g>
</g>
<!-- Node1&#45;&gt;Node5 -->
<g id="edge4_Node000001_Node000005" class="edge">
<title>Node1&#45;&gt;Node5</title>
<g id="a_edge4_Node000001_Node000005"><a xlink:title=" ">
<path fill="none" stroke="#63b8ff" d="M122.5,-55.54C122.5,-46.96 122.5,-37.61 122.5,-30.16"/>
<polygon fill="#63b8ff" stroke="#63b8ff" points="119,-55.8 122.5,-65.8 126,-55.8 119,-55.8"/>
</a>
</g>
</g>
<!-- Node2 -->
<g id="Node000002" class="node">
<title>Node2</title>
<g id="a_Node000002"><a xlink:title=" ">
<polygon fill="white" stroke="#bfbfbf" points="97,-156.5 0,-156.5 0,-137.5 97,-137.5 97,-156.5"/>
<text text-anchor="middle" x="48.5" y="-144.5" font-family="Helvetica,sans-Serif" font-size="10.00">AspectDataBase</text>
</a>
</g>
</g>
<!-- Node2&#45;&gt;Node1 -->
<g id="edge1_Node000001_Node000002" class="edge">
<title>Node2&#45;&gt;Node1</title>
<g id="a_edge1_Node000001_Node000002"><a xlink:title=" ">
<path fill="none" stroke="#63b8ff" d="M66.17,-130.71C78.32,-120.21 94.33,-106.36 106.18,-96.12"/>
<polygon fill="#63b8ff" stroke="#63b8ff" points="63.75,-128.18 58.48,-137.37 68.33,-133.47 63.75,-128.18"/>
</a>
</g>
</g>
<!-- Node3 -->
<g id="Node000003" class="node">
<title>Node3</title>
<g id="a_Node000003"><a xlink:href="interfacefiftyone_1_1geolocation_1_1core_1_1data_1_1_geo_data.html" target="_top" xlink:title=" ">
<polygon fill="white" stroke="#bfbfbf" points="280,-162 115,-162 115,-132 280,-132 280,-162"/>
<text text-anchor="start" x="123" y="-150" font-family="Helvetica,sans-Serif" font-size="10.00">fiftyone.geolocation.core.data.</text>
<text text-anchor="middle" x="197.5" y="-139" font-family="Helvetica,sans-Serif" font-size="10.00">GeoData</text>
</a>
</g>
</g>
<!-- Node3&#45;&gt;Node1 -->
<g id="edge2_Node000001_Node000003" class="edge">
<title>Node3&#45;&gt;Node1</title>
<g id="a_edge2_Node000001_Node000003"><a xlink:title=" ">
<path fill="none" stroke="#63b8ff" d="M173.13,-125.2C161.99,-115.7 149.09,-104.69 139.1,-96.16"/>
<polygon fill="#63b8ff" stroke="#63b8ff" points="170.98,-127.97 180.86,-131.8 175.52,-122.64 170.98,-127.97"/>
</a>
</g>
</g>
<!-- Node4 -->
<g id="Node000004" class="node">
<title>Node4</title>
<g id="a_Node000004"><a xlink:title=" ">
<polygon fill="white" stroke="#bfbfbf" points="234,-217 161,-217 161,-198 234,-198 234,-217"/>
<text text-anchor="middle" x="197.5" y="-205" font-family="Helvetica,sans-Serif" font-size="10.00">AspectData</text>
</a>
</g>
</g>
<!-- Node4&#45;&gt;Node3 -->
<g id="edge3_Node000003_Node000004" class="edge">
<title>Node4&#45;&gt;Node3</title>
<g id="a_edge3_Node000003_Node000004"><a xlink:title=" ">
<path fill="none" stroke="#63b8ff" d="M197.5,-187.65C197.5,-179.36 197.5,-169.78 197.5,-162.11"/>
<polygon fill="#63b8ff" stroke="#63b8ff" points="194,-187.87 197.5,-197.87 201,-187.87 194,-187.87"/>
</a>
</g>
</g>
</g>
</svg>
