<?xml version="1.0" encoding="UTF-8" standalone="no"?>
<!DOCTYPE svg PUBLIC "-//W3C//DTD SVG 1.1//EN"
 "http://www.w3.org/Graphics/SVG/1.1/DTD/svg11.dtd">
<!-- Generated by graphviz version 2.43.0 (0)
 -->
<!-- Title: fiftyone.ipintelligence.examples.console.MetricsOnPrem.Metric Pages: 1 -->
<svg width="225pt" height="177pt"
 viewBox="0.00 0.00 225.00 177.00" xmlns="http://www.w3.org/2000/svg" xmlns:xlink="http://www.w3.org/1999/xlink">
<g id="graph0" class="graph" transform="scale(1 1) rotate(0) translate(4 173)">
<title>fiftyone.ipintelligence.examples.console.MetricsOnPrem.Metric</title>
<!-- Node1 -->
<g id="Node000001" class="node">
<title>Node1</title>
<g id="a_Node000001"><a xlink:title="Metric values gathered for a Key.">
<polygon fill="#999999" stroke="#666666" points="217,-30 0,-30 0,0 217,0 217,-30"/>
<text text-anchor="start" x="8" y="-18" font-family="Helvetica,sans-Serif" font-size="10.00">fiftyone.ipintelligence.examples.console.</text>
<text text-anchor="middle" x="108.5" y="-7" font-family="Helvetica,sans-Serif" font-size="10.00">MetricsOnPrem.Metric</text>
</a>
</g>
</g>
<!-- Node2 -->
<g id="Node000002" class="node">
<title>Node2</title>
<g id="a_Node000002"><a xlink:href="classfiftyone_1_1ipintelligence_1_1examples_1_1console_1_1_metrics_on_prem_1_1_key.html" target="_top" xlink:title="Key used for each metric.">
<polygon fill="white" stroke="#666666" points="217,-113 0,-113 0,-83 217,-83 217,-113"/>
<text text-anchor="start" x="8" y="-101" font-family="Helvetica,sans-Serif" font-size="10.00">fiftyone.ipintelligence.examples.console.</text>
<text text-anchor="middle" x="108.5" y="-90" font-family="Helvetica,sans-Serif" font-size="10.00">MetricsOnPrem.Key</text>
</a>
</g>
</g>
<!-- Node2&#45;&gt;Node1 -->
<g id="edge1_Node000001_Node000002" class="edge">
<title>Node2&#45;&gt;Node1</title>
<g id="a_edge1_Node000001_Node000002"><a xlink:title=" ">
<path fill="none" stroke="#9a32cd" stroke-dasharray="5,2" d="M108.5,-72.59C108.5,-58.75 108.5,-41.91 108.5,-30.22"/>
<polygon fill="#9a32cd" stroke="#9a32cd" points="105,-72.89 108.5,-82.89 112,-72.89 105,-72.89"/>
</a>
</g>
<text text-anchor="start" x="111.5" y="-53.5" font-family="Helvetica,sans-Serif" font-size="10.00" fill="grey">key</text>
</g>
<!-- Node3 -->
<g id="Node000003" class="node">
<title>Node3</title>
<g id="a_Node000003"><a xlink:title=" ">
<polygon fill="white" stroke="#bfbfbf" points="166.5,-169 50.5,-169 50.5,-150 166.5,-150 166.5,-169"/>
<text text-anchor="middle" x="108.5" y="-157" font-family="Helvetica,sans-Serif" font-size="10.00">Comparable&lt; Key &gt;</text>
</a>
</g>
</g>
<!-- Node3&#45;&gt;Node2 -->
<g id="edge2_Node000002_Node000003" class="edge">
<title>Node3&#45;&gt;Node2</title>
<g id="a_edge2_Node000002_Node000003"><a xlink:title=" ">
<path fill="none" stroke="#63b8ff" d="M108.5,-139.73C108.5,-131.09 108.5,-121 108.5,-113.02"/>
<polygon fill="#63b8ff" stroke="#63b8ff" points="105,-139.98 108.5,-149.98 112,-139.98 105,-139.98"/>
</a>
</g>
</g>
</g>
</svg>
