<?xml version="1.0" encoding="UTF-8" standalone="no"?>
<!DOCTYPE svg PUBLIC "-//W3C//DTD SVG 1.1//EN"
 "http://www.w3.org/Graphics/SVG/1.1/DTD/svg11.dtd">
<!-- Generated by graphviz version 2.43.0 (0)
 -->
<!-- Title: fiftyone.ipintelligence.shared.IPIntelligenceDataBase Pages: 1 -->
<svg width="284pt" height="159pt"
 viewBox="0.00 0.00 284.00 159.00" xmlns="http://www.w3.org/2000/svg" xmlns:xlink="http://www.w3.org/1999/xlink">
<g id="graph0" class="graph" transform="scale(1 1) rotate(0) translate(4 155)">
<title>fiftyone.ipintelligence.shared.IPIntelligenceDataBase</title>
<!-- Node1 -->
<g id="Node000001" class="node">
<title>Node1</title>
<g id="a_Node000001"><a xlink:title=" ">
<polygon fill="#999999" stroke="#666666" points="202,-30 41,-30 41,0 202,0 202,-30"/>
<text text-anchor="start" x="49" y="-18" font-family="Helvetica,sans-Serif" font-size="10.00">fiftyone.ipintelligence.shared.</text>
<text text-anchor="middle" x="121.5" y="-7" font-family="Helvetica,sans-Serif" font-size="10.00">IPIntelligenceDataBase</text>
</a>
</g>
</g>
<!-- Node2 -->
<g id="Node000002" class="node">
<title>Node2</title>
<g id="a_Node000002"><a xlink:title=" ">
<polygon fill="white" stroke="#bfbfbf" points="97,-90.5 0,-90.5 0,-71.5 97,-71.5 97,-90.5"/>
<text text-anchor="middle" x="48.5" y="-78.5" font-family="Helvetica,sans-Serif" font-size="10.00">AspectDataBase</text>
</a>
</g>
</g>
<!-- Node2&#45;&gt;Node1 -->
<g id="edge1_Node000001_Node000002" class="edge">
<title>Node2&#45;&gt;Node1</title>
<g id="a_edge1_Node000001_Node000002"><a xlink:title=" ">
<path fill="none" stroke="#63b8ff" d="M65.94,-64.71C77.92,-54.21 93.71,-40.36 105.4,-30.12"/>
<polygon fill="#63b8ff" stroke="#63b8ff" points="63.56,-62.14 58.35,-71.37 68.17,-67.41 63.56,-62.14"/>
</a>
</g>
</g>
<!-- Node3 -->
<g id="Node000003" class="node">
<title>Node3</title>
<g id="a_Node000003"><a xlink:href="interfacefiftyone_1_1ipintelligence_1_1shared_1_1_i_p_intelligence_data.html" target="_top" xlink:title="Interface exposing typed accessors for properties related to an IP.">
<polygon fill="white" stroke="#666666" points="276,-96 115,-96 115,-66 276,-66 276,-96"/>
<text text-anchor="start" x="123" y="-84" font-family="Helvetica,sans-Serif" font-size="10.00">fiftyone.ipintelligence.shared.</text>
<text text-anchor="middle" x="195.5" y="-73" font-family="Helvetica,sans-Serif" font-size="10.00">IPIntelligenceData</text>
</a>
</g>
</g>
<!-- Node3&#45;&gt;Node1 -->
<g id="edge2_Node000001_Node000003" class="edge">
<title>Node3&#45;&gt;Node1</title>
<g id="a_edge2_Node000001_Node000003"><a xlink:title=" ">
<path fill="none" stroke="#63b8ff" d="M171.45,-59.2C160.47,-49.7 147.74,-38.69 137.88,-30.16"/>
<polygon fill="#63b8ff" stroke="#63b8ff" points="169.22,-61.9 179.08,-65.8 173.8,-56.61 169.22,-61.9"/>
</a>
</g>
</g>
<!-- Node4 -->
<g id="Node000004" class="node">
<title>Node4</title>
<g id="a_Node000004"><a xlink:title=" ">
<polygon fill="white" stroke="#bfbfbf" points="232,-151 159,-151 159,-132 232,-132 232,-151"/>
<text text-anchor="middle" x="195.5" y="-139" font-family="Helvetica,sans-Serif" font-size="10.00">AspectData</text>
</a>
</g>
</g>
<!-- Node4&#45;&gt;Node3 -->
<g id="edge3_Node000003_Node000004" class="edge">
<title>Node4&#45;&gt;Node3</title>
<g id="a_edge3_Node000003_Node000004"><a xlink:title=" ">
<path fill="none" stroke="#63b8ff" d="M195.5,-121.65C195.5,-113.36 195.5,-103.78 195.5,-96.11"/>
<polygon fill="#63b8ff" stroke="#63b8ff" points="192,-121.87 195.5,-131.87 199,-121.87 192,-121.87"/>
</a>
</g>
</g>
</g>
</svg>
