<?xml version="1.0" encoding="UTF-8" standalone="no"?>
<!DOCTYPE svg PUBLIC "-//W3C//DTD SVG 1.1//EN"
 "http://www.w3.org/Graphics/SVG/1.1/DTD/svg11.dtd">
<!-- Generated by graphviz version 2.43.0 (0)
 -->
<!-- Title: fiftyone.ipintelligence.engine.onpremise.flowelements.IPIntelligenceDataHashDefault Pages: 1 -->
<svg width="1095pt" height="117pt"
 viewBox="0.00 0.00 1095.00 116.50" xmlns="http://www.w3.org/2000/svg" xmlns:xlink="http://www.w3.org/1999/xlink">
<g id="graph0" class="graph" transform="scale(1 1) rotate(0) translate(4 112.5)">
<title>fiftyone.ipintelligence.engine.onpremise.flowelements.IPIntelligenceDataHashDefault</title>
<!-- Node1 -->
<g id="Node000001" class="node">
<title>Node1</title>
<g id="a_Node000001"><a xlink:title="Internal implementation of the IPIntelligenceDataHash interface.">
<polygon fill="#999999" stroke="#666666" points="1087,-62.5 802,-62.5 802,-32.5 1087,-32.5 1087,-62.5"/>
<text text-anchor="start" x="810" y="-50.5" font-family="Helvetica,sans-Serif" font-size="10.00">fiftyone.ipintelligence.engine.onpremise.flowelements.</text>
<text text-anchor="middle" x="944.5" y="-39.5" font-family="Helvetica,sans-Serif" font-size="10.00">IPIntelligenceDataHashDefault</text>
</a>
</g>
</g>
<!-- Node2 -->
<g id="Node000002" class="node">
<title>Node2</title>
<g id="a_Node000002"><a xlink:href="classfiftyone_1_1ipintelligence_1_1shared_1_1_i_p_intelligence_data_base_on_premise.html" target="_top" xlink:title="Base class used for all 51Degrees on&#45;premise IP Intelligence results classes.">
<polygon fill="white" stroke="#666666" points="766,-107.5 583,-107.5 583,-77.5 766,-77.5 766,-107.5"/>
<text text-anchor="start" x="591" y="-95.5" font-family="Helvetica,sans-Serif" font-size="10.00">fiftyone.ipintelligence.shared.</text>
<text text-anchor="middle" x="674.5" y="-84.5" font-family="Helvetica,sans-Serif" font-size="10.00">IPIntelligenceDataBaseOnPremise</text>
</a>
</g>
</g>
<!-- Node2&#45;&gt;Node1 -->
<g id="edge1_Node000001_Node000002" class="edge">
<title>Node2&#45;&gt;Node1</title>
<g id="a_edge1_Node000001_Node000002"><a xlink:title=" ">
<path fill="none" stroke="#63b8ff" d="M775.29,-75.74C801.1,-71.41 828.72,-66.77 853.97,-62.53"/>
<polygon fill="#63b8ff" stroke="#63b8ff" points="774.4,-72.35 765.11,-77.45 775.55,-79.25 774.4,-72.35"/>
</a>
</g>
</g>
<!-- Node3 -->
<g id="Node000003" class="node">
<title>Node3</title>
<g id="a_Node000003"><a xlink:href="classfiftyone_1_1ipintelligence_1_1shared_1_1_i_p_intelligence_data_base.html" target="_top" xlink:title=" ">
<polygon fill="white" stroke="#bfbfbf" points="507,-108.5 346,-108.5 346,-78.5 507,-78.5 507,-108.5"/>
<text text-anchor="start" x="354" y="-96.5" font-family="Helvetica,sans-Serif" font-size="10.00">fiftyone.ipintelligence.shared.</text>
<text text-anchor="middle" x="426.5" y="-85.5" font-family="Helvetica,sans-Serif" font-size="10.00">IPIntelligenceDataBase</text>
</a>
</g>
</g>
<!-- Node3&#45;&gt;Node2 -->
<g id="edge2_Node000002_Node000003" class="edge">
<title>Node3&#45;&gt;Node2</title>
<g id="a_edge2_Node000002_Node000003"><a xlink:title=" ">
<path fill="none" stroke="#63b8ff" d="M517.06,-93.14C538.44,-93.05 561.28,-92.96 582.71,-92.87"/>
<polygon fill="#63b8ff" stroke="#63b8ff" points="517.02,-89.64 507.03,-93.18 517.04,-96.64 517.02,-89.64"/>
</a>
</g>
</g>
<!-- Node4 -->
<g id="Node000004" class="node">
<title>Node4</title>
<g id="a_Node000004"><a xlink:title=" ">
<polygon fill="white" stroke="#bfbfbf" points="238,-103 141,-103 141,-84 238,-84 238,-103"/>
<text text-anchor="middle" x="189.5" y="-91" font-family="Helvetica,sans-Serif" font-size="10.00">AspectDataBase</text>
</a>
</g>
</g>
<!-- Node4&#45;&gt;Node3 -->
<g id="edge3_Node000003_Node000004" class="edge">
<title>Node4&#45;&gt;Node3</title>
<g id="a_edge3_Node000003_Node000004"><a xlink:title=" ">
<path fill="none" stroke="#63b8ff" d="M248.14,-93.5C277.48,-93.5 313.63,-93.5 345.62,-93.5"/>
<polygon fill="#63b8ff" stroke="#63b8ff" points="248.06,-90 238.06,-93.5 248.06,-97 248.06,-90"/>
</a>
</g>
</g>
<!-- Node5 -->
<g id="Node000005" class="node">
<title>Node5</title>
<g id="a_Node000005"><a xlink:href="interfacefiftyone_1_1ipintelligence_1_1shared_1_1_i_p_intelligence_data.html" target="_top" xlink:title="Interface exposing typed accessors for properties related to an IP.">
<polygon fill="white" stroke="#666666" points="270,-63.5 109,-63.5 109,-33.5 270,-33.5 270,-63.5"/>
<text text-anchor="start" x="117" y="-51.5" font-family="Helvetica,sans-Serif" font-size="10.00">fiftyone.ipintelligence.shared.</text>
<text text-anchor="middle" x="189.5" y="-40.5" font-family="Helvetica,sans-Serif" font-size="10.00">IPIntelligenceData</text>
</a>
</g>
</g>
<!-- Node5&#45;&gt;Node3 -->
<g id="edge4_Node000003_Node000005" class="edge">
<title>Node5&#45;&gt;Node3</title>
<g id="a_edge4_Node000003_Node000005"><a xlink:title=" ">
<path fill="none" stroke="#63b8ff" d="M278.9,-65.43C301.27,-69.71 325.15,-74.28 347,-78.47"/>
<polygon fill="#63b8ff" stroke="#63b8ff" points="279.56,-61.99 269.08,-63.55 278.24,-68.87 279.56,-61.99"/>
</a>
</g>
</g>
<!-- Node7 -->
<g id="Node000007" class="node">
<title>Node7</title>
<g id="a_Node000007"><a xlink:href="interfacefiftyone_1_1ipintelligence_1_1engine_1_1onpremise_1_1data_1_1_i_p_intelligence_data_hash.html" target="_top" xlink:title="On&#45;premise specific interface for IPIntelligenceData.">
<polygon fill="white" stroke="#666666" points="547,-60.5 306,-60.5 306,-30.5 547,-30.5 547,-60.5"/>
<text text-anchor="start" x="314" y="-48.5" font-family="Helvetica,sans-Serif" font-size="10.00">fiftyone.ipintelligence.engine.onpremise.data.</text>
<text text-anchor="middle" x="426.5" y="-37.5" font-family="Helvetica,sans-Serif" font-size="10.00">IPIntelligenceDataHash</text>
</a>
</g>
</g>
<!-- Node5&#45;&gt;Node7 -->
<g id="edge7_Node000007_Node000005" class="edge">
<title>Node5&#45;&gt;Node7</title>
<g id="a_edge7_Node000007_Node000005"><a xlink:title=" ">
<path fill="none" stroke="#63b8ff" d="M280.23,-47.35C288.66,-47.25 297.3,-47.14 305.95,-47.03"/>
<polygon fill="#63b8ff" stroke="#63b8ff" points="280.01,-43.86 270.06,-47.48 280.1,-50.86 280.01,-43.86"/>
</a>
</g>
</g>
<!-- Node6 -->
<g id="Node000006" class="node">
<title>Node6</title>
<g id="a_Node000006"><a xlink:title=" ">
<polygon fill="white" stroke="#bfbfbf" points="73,-58 0,-58 0,-39 73,-39 73,-58"/>
<text text-anchor="middle" x="36.5" y="-46" font-family="Helvetica,sans-Serif" font-size="10.00">AspectData</text>
</a>
</g>
</g>
<!-- Node6&#45;&gt;Node5 -->
<g id="edge5_Node000005_Node000006" class="edge">
<title>Node6&#45;&gt;Node5</title>
<g id="a_edge5_Node000005_Node000006"><a xlink:title=" ">
<path fill="none" stroke="#63b8ff" d="M83.55,-48.5C91.63,-48.5 100.24,-48.5 108.92,-48.5"/>
<polygon fill="#63b8ff" stroke="#63b8ff" points="83.28,-45 73.28,-48.5 83.28,-52 83.28,-45"/>
</a>
</g>
</g>
<!-- Node7&#45;&gt;Node1 -->
<g id="edge6_Node000001_Node000007" class="edge">
<title>Node7&#45;&gt;Node1</title>
<g id="a_edge6_Node000001_Node000007"><a xlink:title=" ">
<path fill="none" stroke="#63b8ff" d="M557.54,-46C631.92,-46.29 725.29,-46.65 801.56,-46.95"/>
<polygon fill="#63b8ff" stroke="#63b8ff" points="557.19,-42.5 547.18,-45.96 557.16,-49.5 557.19,-42.5"/>
</a>
</g>
</g>
<!-- Node8 -->
<g id="Node000008" class="node">
<title>Node8</title>
<g id="a_Node000008"><a xlink:title=" ">
<polygon fill="white" stroke="#bfbfbf" points="718,-19 631,-19 631,0 718,0 718,-19"/>
<text text-anchor="middle" x="674.5" y="-7" font-family="Helvetica,sans-Serif" font-size="10.00">AutoCloseable</text>
</a>
</g>
</g>
<!-- Node8&#45;&gt;Node1 -->
<g id="edge8_Node000001_Node000008" class="edge">
<title>Node8&#45;&gt;Node1</title>
<g id="a_edge8_Node000001_Node000008"><a xlink:title=" ">
<path fill="none" stroke="#63b8ff" d="M728.45,-17.01C759.6,-21.43 800.12,-27.17 837.57,-32.48"/>
<polygon fill="#63b8ff" stroke="#63b8ff" points="728.65,-13.5 718.26,-15.56 727.67,-20.43 728.65,-13.5"/>
</a>
</g>
</g>
</g>
</svg>
