<?xml version="1.0" encoding="UTF-8" standalone="no"?>
<!DOCTYPE svg PUBLIC "-//W3C//DTD SVG 1.1//EN"
 "http://www.w3.org/Graphics/SVG/1.1/DTD/svg11.dtd">
<!-- Generated by graphviz version 2.43.0 (0)
 -->
<!-- Title: fiftyone.ipintelligence.cloud.data.IPIntelligenceDataCloud Pages: 1 -->
<svg width="187pt" height="159pt"
 viewBox="0.00 0.00 187.00 159.00" xmlns="http://www.w3.org/2000/svg" xmlns:xlink="http://www.w3.org/1999/xlink">
<g id="graph0" class="graph" transform="scale(1 1) rotate(0) translate(4 155)">
<title>fiftyone.ipintelligence.cloud.data.IPIntelligenceDataCloud</title>
<!-- Node1 -->
<g id="Node000001" class="node">
<title>Node1</title>
<g id="a_Node000001"><a xlink:title="Cloud specific interface for IPIntelligenceData.">
<polygon fill="#999999" stroke="#666666" points="179,-30 0,-30 0,0 179,0 179,-30"/>
<text text-anchor="start" x="8" y="-18" font-family="Helvetica,sans-Serif" font-size="10.00">fiftyone.ipintelligence.cloud.data.</text>
<text text-anchor="middle" x="89.5" y="-7" font-family="Helvetica,sans-Serif" font-size="10.00">IPIntelligenceDataCloud</text>
</a>
</g>
</g>
<!-- Node2 -->
<g id="Node000002" class="node">
<title>Node2</title>
<g id="a_Node000002"><a xlink:href="interfacefiftyone_1_1ipintelligence_1_1shared_1_1_i_p_intelligence_data.html" target="_top" xlink:title="Interface exposing typed accessors for properties related to an IP.">
<polygon fill="white" stroke="#666666" points="170,-96 9,-96 9,-66 170,-66 170,-96"/>
<text text-anchor="start" x="17" y="-84" font-family="Helvetica,sans-Serif" font-size="10.00">fiftyone.ipintelligence.shared.</text>
<text text-anchor="middle" x="89.5" y="-73" font-family="Helvetica,sans-Serif" font-size="10.00">IPIntelligenceData</text>
</a>
</g>
</g>
<!-- Node2&#45;&gt;Node1 -->
<g id="edge1_Node000001_Node000002" class="edge">
<title>Node2&#45;&gt;Node1</title>
<g id="a_edge1_Node000001_Node000002"><a xlink:title=" ">
<path fill="none" stroke="#63b8ff" d="M89.5,-55.54C89.5,-46.96 89.5,-37.61 89.5,-30.16"/>
<polygon fill="#63b8ff" stroke="#63b8ff" points="86,-55.8 89.5,-65.8 93,-55.8 86,-55.8"/>
</a>
</g>
</g>
<!-- Node3 -->
<g id="Node000003" class="node">
<title>Node3</title>
<g id="a_Node000003"><a xlink:title=" ">
<polygon fill="white" stroke="#bfbfbf" points="126,-151 53,-151 53,-132 126,-132 126,-151"/>
<text text-anchor="middle" x="89.5" y="-139" font-family="Helvetica,sans-Serif" font-size="10.00">AspectData</text>
</a>
</g>
</g>
<!-- Node3&#45;&gt;Node2 -->
<g id="edge2_Node000002_Node000003" class="edge">
<title>Node3&#45;&gt;Node2</title>
<g id="a_edge2_Node000002_Node000003"><a xlink:title=" ">
<path fill="none" stroke="#63b8ff" d="M89.5,-121.65C89.5,-113.36 89.5,-103.78 89.5,-96.11"/>
<polygon fill="#63b8ff" stroke="#63b8ff" points="86,-121.87 89.5,-131.87 93,-121.87 86,-121.87"/>
</a>
</g>
</g>
</g>
</svg>
