<?xml version="1.0" encoding="UTF-8" standalone="no"?>
<!DOCTYPE svg PUBLIC "-//W3C//DTD SVG 1.1//EN"
 "http://www.w3.org/Graphics/SVG/1.1/DTD/svg11.dtd">
<!-- Generated by graphviz version 2.43.0 (0)
 -->
<!-- Title: fiftyone.ipintelligence.shared.IPIntelligenceData Pages: 1 -->
<svg width="1091pt" height="134pt"
 viewBox="0.00 0.00 1091.00 134.00" xmlns="http://www.w3.org/2000/svg" xmlns:xlink="http://www.w3.org/1999/xlink">
<g id="graph0" class="graph" transform="scale(1 1) rotate(0) translate(4 130)">
<title>fiftyone.ipintelligence.shared.IPIntelligenceData</title>
<!-- Node1 -->
<g id="Node000001" class="node">
<title>Node1</title>
<g id="a_Node000001"><a xlink:title="Interface exposing typed accessors for properties related to an IP.">
<polygon fill="#999999" stroke="#666666" points="270,-80 109,-80 109,-50 270,-50 270,-80"/>
<text text-anchor="start" x="117" y="-68" font-family="Helvetica,sans-Serif" font-size="10.00">fiftyone.ipintelligence.shared.</text>
<text text-anchor="middle" x="189.5" y="-57" font-family="Helvetica,sans-Serif" font-size="10.00">IPIntelligenceData</text>
</a>
</g>
</g>
<!-- Node3 -->
<g id="Node000003" class="node">
<title>Node3</title>
<g id="a_Node000003"><a xlink:href="interfacefiftyone_1_1ipintelligence_1_1cloud_1_1data_1_1_i_p_intelligence_data_cloud.html" target="_top" xlink:title="Cloud specific interface for IPIntelligenceData.">
<polygon fill="white" stroke="#666666" points="485,-80 306,-80 306,-50 485,-50 485,-80"/>
<text text-anchor="start" x="314" y="-68" font-family="Helvetica,sans-Serif" font-size="10.00">fiftyone.ipintelligence.cloud.data.</text>
<text text-anchor="middle" x="395.5" y="-57" font-family="Helvetica,sans-Serif" font-size="10.00">IPIntelligenceDataCloud</text>
</a>
</g>
</g>
<!-- Node1&#45;&gt;Node3 -->
<g id="edge2_Node000001_Node000003" class="edge">
<title>Node1&#45;&gt;Node3</title>
<g id="a_edge2_Node000001_Node000003"><a xlink:title=" ">
<path fill="none" stroke="#63b8ff" d="M280.41,-65C288.8,-65 297.3,-65 305.69,-65"/>
<polygon fill="#63b8ff" stroke="#63b8ff" points="280.25,-61.5 270.25,-65 280.25,-68.5 280.25,-61.5"/>
</a>
</g>
</g>
<!-- Node5 -->
<g id="Node000005" class="node">
<title>Node5</title>
<g id="a_Node000005"><a xlink:href="interfacefiftyone_1_1ipintelligence_1_1engine_1_1onpremise_1_1data_1_1_i_p_intelligence_data_hash.html" target="_top" xlink:title="On&#45;premise specific interface for IPIntelligenceData.">
<polygon fill="white" stroke="#666666" points="762,-126 521,-126 521,-96 762,-96 762,-126"/>
<text text-anchor="start" x="529" y="-114" font-family="Helvetica,sans-Serif" font-size="10.00">fiftyone.ipintelligence.engine.onpremise.data.</text>
<text text-anchor="middle" x="641.5" y="-103" font-family="Helvetica,sans-Serif" font-size="10.00">IPIntelligenceDataHash</text>
</a>
</g>
</g>
<!-- Node1&#45;&gt;Node5 -->
<g id="edge4_Node000001_Node000005" class="edge">
<title>Node1&#45;&gt;Node5</title>
<g id="a_edge4_Node000001_Node000005"><a xlink:title=" ">
<path fill="none" stroke="#63b8ff" d="M264.8,-82.03C278.45,-84.7 292.61,-87.18 306,-89 376.93,-98.65 456.92,-104.11 520.89,-107.17"/>
<polygon fill="#63b8ff" stroke="#63b8ff" points="265.47,-78.59 254.98,-80.05 264.09,-85.45 265.47,-78.59"/>
</a>
</g>
</g>
<!-- Node7 -->
<g id="Node000007" class="node">
<title>Node7</title>
<g id="a_Node000007"><a xlink:href="classfiftyone_1_1ipintelligence_1_1shared_1_1_i_p_intelligence_data_base.html" target="_top" xlink:title=" ">
<polygon fill="white" stroke="#bfbfbf" points="476,-32 315,-32 315,-2 476,-2 476,-32"/>
<text text-anchor="start" x="323" y="-20" font-family="Helvetica,sans-Serif" font-size="10.00">fiftyone.ipintelligence.shared.</text>
<text text-anchor="middle" x="395.5" y="-9" font-family="Helvetica,sans-Serif" font-size="10.00">IPIntelligenceDataBase</text>
</a>
</g>
</g>
<!-- Node1&#45;&gt;Node7 -->
<g id="edge6_Node000001_Node000007" class="edge">
<title>Node1&#45;&gt;Node7</title>
<g id="a_edge6_Node000001_Node000007"><a xlink:title=" ">
<path fill="none" stroke="#63b8ff" d="M264.33,-47.63C286.08,-42.51 309.68,-36.96 330.74,-32"/>
<polygon fill="#63b8ff" stroke="#63b8ff" points="263.42,-44.25 254.49,-49.94 265.02,-51.06 263.42,-44.25"/>
</a>
</g>
</g>
<!-- Node2 -->
<g id="Node000002" class="node">
<title>Node2</title>
<g id="a_Node000002"><a xlink:title=" ">
<polygon fill="white" stroke="#bfbfbf" points="73,-74.5 0,-74.5 0,-55.5 73,-55.5 73,-74.5"/>
<text text-anchor="middle" x="36.5" y="-62.5" font-family="Helvetica,sans-Serif" font-size="10.00">AspectData</text>
</a>
</g>
</g>
<!-- Node2&#45;&gt;Node1 -->
<g id="edge1_Node000001_Node000002" class="edge">
<title>Node2&#45;&gt;Node1</title>
<g id="a_edge1_Node000001_Node000002"><a xlink:title=" ">
<path fill="none" stroke="#63b8ff" d="M83.55,-65C91.63,-65 100.24,-65 108.92,-65"/>
<polygon fill="#63b8ff" stroke="#63b8ff" points="83.28,-61.5 73.28,-65 83.28,-68.5 83.28,-61.5"/>
</a>
</g>
</g>
<!-- Node4 -->
<g id="Node000004" class="node">
<title>Node4</title>
<g id="a_Node000004"><a xlink:href="classfiftyone_1_1ipintelligence_1_1cloud_1_1flowelements_1_1_i_p_intelligence_data_cloud_internal.html" target="_top" xlink:title="Internal implementation of the IPIntelligenceDataCloud interface.">
<polygon fill="white" stroke="#666666" points="753.5,-78 529.5,-78 529.5,-48 753.5,-48 753.5,-78"/>
<text text-anchor="start" x="537.5" y="-66" font-family="Helvetica,sans-Serif" font-size="10.00">fiftyone.ipintelligence.cloud.flowelements.</text>
<text text-anchor="middle" x="641.5" y="-55" font-family="Helvetica,sans-Serif" font-size="10.00">IPIntelligenceDataCloudInternal</text>
</a>
</g>
</g>
<!-- Node3&#45;&gt;Node4 -->
<g id="edge3_Node000003_Node000004" class="edge">
<title>Node3&#45;&gt;Node4</title>
<g id="a_edge3_Node000003_Node000004"><a xlink:title=" ">
<path fill="none" stroke="#63b8ff" d="M495.44,-64.19C506.59,-64.1 518.01,-64 529.31,-63.91"/>
<polygon fill="#63b8ff" stroke="#63b8ff" points="495.25,-60.69 485.28,-64.27 495.31,-67.69 495.25,-60.69"/>
</a>
</g>
</g>
<!-- Node6 -->
<g id="Node000006" class="node">
<title>Node6</title>
<g id="a_Node000006"><a xlink:href="classfiftyone_1_1ipintelligence_1_1engine_1_1onpremise_1_1flowelements_1_1_i_p_intelligence_data_hash_default.html" target="_top" xlink:title="Internal implementation of the IPIntelligenceDataHash interface.">
<polygon fill="white" stroke="#666666" points="1083,-78 798,-78 798,-48 1083,-48 1083,-78"/>
<text text-anchor="start" x="806" y="-66" font-family="Helvetica,sans-Serif" font-size="10.00">fiftyone.ipintelligence.engine.onpremise.flowelements.</text>
<text text-anchor="middle" x="940.5" y="-55" font-family="Helvetica,sans-Serif" font-size="10.00">IPIntelligenceDataHashDefault</text>
</a>
</g>
</g>
<!-- Node5&#45;&gt;Node6 -->
<g id="edge5_Node000005_Node000006" class="edge">
<title>Node5&#45;&gt;Node6</title>
<g id="a_edge5_Node000005_Node000006"><a xlink:title=" ">
<path fill="none" stroke="#63b8ff" d="M745.73,-94.32C778.55,-89.01 814.63,-83.18 846.67,-78"/>
<polygon fill="#63b8ff" stroke="#63b8ff" points="744.97,-90.89 735.66,-95.94 746.09,-97.8 744.97,-90.89"/>
</a>
</g>
</g>
<!-- Node7&#45;&gt;Node4 -->
<g id="edge7_Node000007_Node000004" class="edge">
<title>Node7&#45;&gt;Node4</title>
<g id="a_edge7_Node000007_Node000004"><a xlink:title=" ">
<path fill="none" stroke="#63b8ff" d="M486.04,-33.88C510.47,-38.49 536.78,-43.45 560.63,-47.94"/>
<polygon fill="#63b8ff" stroke="#63b8ff" points="486.53,-30.41 476.06,-32 485.24,-37.29 486.53,-30.41"/>
</a>
</g>
</g>
<!-- Node8 -->
<g id="Node000008" class="node">
<title>Node8</title>
<g id="a_Node000008"><a xlink:href="classfiftyone_1_1ipintelligence_1_1shared_1_1_i_p_intelligence_data_base_on_premise.html" target="_top" xlink:title="Base class used for all 51Degrees on&#45;premise IP Intelligence results classes.">
<polygon fill="white" stroke="#666666" points="733,-30 550,-30 550,0 733,0 733,-30"/>
<text text-anchor="start" x="558" y="-18" font-family="Helvetica,sans-Serif" font-size="10.00">fiftyone.ipintelligence.shared.</text>
<text text-anchor="middle" x="641.5" y="-7" font-family="Helvetica,sans-Serif" font-size="10.00">IPIntelligenceDataBaseOnPremise</text>
</a>
</g>
</g>
<!-- Node7&#45;&gt;Node8 -->
<g id="edge8_Node000007_Node000008" class="edge">
<title>Node7&#45;&gt;Node8</title>
<g id="a_edge8_Node000007_Node000008"><a xlink:title=" ">
<path fill="none" stroke="#63b8ff" d="M486.1,-16.27C506.81,-16.1 528.86,-15.92 549.62,-15.74"/>
<polygon fill="#63b8ff" stroke="#63b8ff" points="486.03,-12.77 476.06,-16.35 486.09,-19.77 486.03,-12.77"/>
</a>
</g>
</g>
<!-- Node8&#45;&gt;Node6 -->
<g id="edge9_Node000008_Node000006" class="edge">
<title>Node8&#45;&gt;Node6</title>
<g id="a_edge9_Node000008_Node000006"><a xlink:title=" ">
<path fill="none" stroke="#63b8ff" d="M743.46,-31.32C776.82,-36.71 813.77,-42.68 846.51,-47.97"/>
<polygon fill="#63b8ff" stroke="#63b8ff" points="743.65,-27.8 733.22,-29.66 742.54,-34.71 743.65,-27.8"/>
</a>
</g>
</g>
</g>
</svg>
